<?xml version="1.0" encoding="UTF-8"?>
<svg id="Layer_1" data-name="Layer 1" xmlns="http://www.w3.org/2000/svg" version="1.1" xmlns:xlink="http://www.w3.org/1999/xlink" viewBox="0 0 513.12 276.96">
  <defs>
    <style>
      .cls-1 {
        fill: #000;
        font-family: ArialMT, Arial;
        font-size: 14.39px;
      }

      .cls-2, .cls-3 {
        stroke-width: 0px;
      }

      .cls-2, .cls-4, .cls-5 {
        fill: none;
      }

      .cls-6 {
        clip-path: url(#clippath-1);
      }

      .cls-7 {
        clip-path: url(#clippath);
      }

      .cls-3 {
        fill: #fff;
      }

      .cls-4 {
        stroke-width: .72px;
      }

      .cls-4, .cls-5 {
        stroke: #000;
      }

      .cls-5 {
        stroke-miterlimit: 10;
        stroke-width: 1.44px;
      }
    </style>
    <clipPath id="clippath">
      <rect class="cls-2" width="513" height="276.29"/>
    </clipPath>
    <clipPath id="clippath-1">
      <rect class="cls-2" width="513" height="275.57"/>
    </clipPath>
  </defs>
  <g class="cls-7">
    <rect class="cls-3" width="513" height="276.29"/>
  </g>
  <g class="cls-6">
    <line class="cls-5" x1="50.21" y1="37.56" x2="22.3" y2="115.84"/>
    <line class="cls-5" x1="80.73" y1="37.56" x2="151.58" y2="114.36"/>
    <path class="cls-3" d="M87.42,22.66c0,.71-.03,1.41-.1,2.12-.07.7-.17,1.4-.31,2.1-.14.69-.31,1.38-.51,2.05-.21.68-.44,1.34-.71,1.99s-.57,1.29-.91,1.91c-.33.62-.7,1.23-1.09,1.82-.39.59-.81,1.15-1.26,1.7s-.92,1.07-1.42,1.57c-.5.5-1.02.97-1.57,1.42s-1.11.87-1.7,1.26c-.59.39-1.19.76-1.82,1.09-.62.33-1.26.64-1.91.91-.65.27-1.32.51-1.99.71-.68.21-1.36.38-2.05.51s-1.39.24-2.1.31c-.7.07-1.41.1-2.12.1s-1.41-.03-2.12-.1c-.7-.07-1.4-.17-2.1-.31-.69-.14-1.38-.31-2.05-.51-.68-.21-1.34-.44-1.99-.71-.65-.27-1.29-.57-1.91-.91-.62-.33-1.23-.7-1.82-1.09-.59-.39-1.15-.81-1.7-1.26-.55-.45-1.07-.92-1.57-1.42-.5-.5-.97-1.02-1.42-1.57s-.87-1.11-1.26-1.7c-.39-.59-.76-1.19-1.09-1.82-.33-.62-.64-1.26-.91-1.91-.27-.65-.51-1.32-.71-1.99-.21-.68-.38-1.36-.51-2.05-.14-.69-.24-1.39-.31-2.1-.07-.7-.1-1.41-.1-2.12,0-.71.03-1.41.1-2.12.07-.7.17-1.4.31-2.1.14-.69.31-1.38.51-2.05.21-.68.44-1.34.71-1.99.27-.65.57-1.29.91-1.91.33-.62.7-1.23,1.09-1.82.39-.59.81-1.15,1.26-1.7.45-.55.92-1.07,1.42-1.57.5-.5,1.02-.97,1.57-1.42.55-.45,1.11-.87,1.7-1.26.59-.39,1.19-.76,1.82-1.09.62-.33,1.26-.64,1.91-.91.65-.27,1.32-.51,1.99-.71.68-.21,1.36-.38,2.05-.51.69-.14,1.39-.24,2.1-.31.7-.07,1.41-.1,2.12-.1s1.41.03,2.12.1c.7.07,1.4.17,2.1.31s1.38.31,2.05.51c.68.21,1.34.44,1.99.71.65.27,1.29.57,1.91.91.62.33,1.23.7,1.82,1.09.59.39,1.15.81,1.7,1.26.55.45,1.07.92,1.57,1.42.5.5.97,1.02,1.42,1.57.45.55.87,1.11,1.26,1.7.39.59.76,1.19,1.09,1.82.33.62.64,1.26.91,1.91s.51,1.32.71,1.99c.21.68.38,1.36.51,2.05.14.69.24,1.39.31,2.1.07.7.1,1.41.1,2.12Z"/>
    <path class="cls-4" d="M87.42,22.66c0,.71-.03,1.41-.1,2.12-.07.7-.17,1.4-.31,2.1-.14.69-.31,1.38-.51,2.05-.21.68-.44,1.34-.71,1.99s-.57,1.29-.91,1.91c-.33.62-.7,1.23-1.09,1.82-.39.59-.81,1.15-1.26,1.7s-.92,1.07-1.42,1.57c-.5.5-1.02.97-1.57,1.42s-1.11.87-1.7,1.26c-.59.39-1.19.76-1.82,1.09-.62.33-1.26.64-1.91.91-.65.27-1.32.51-1.99.71-.68.21-1.36.38-2.05.51s-1.39.24-2.1.31c-.7.07-1.41.1-2.12.1s-1.41-.03-2.12-.1c-.7-.07-1.4-.17-2.1-.31-.69-.14-1.38-.31-2.05-.51-.68-.21-1.34-.44-1.99-.71-.65-.27-1.29-.57-1.91-.91-.62-.33-1.23-.7-1.82-1.09-.59-.39-1.15-.81-1.7-1.26-.55-.45-1.07-.92-1.57-1.42-.5-.5-.97-1.02-1.42-1.57s-.87-1.11-1.26-1.7c-.39-.59-.76-1.19-1.09-1.82-.33-.62-.64-1.26-.91-1.91-.27-.65-.51-1.32-.71-1.99-.21-.68-.38-1.36-.51-2.05-.14-.69-.24-1.39-.31-2.1-.07-.7-.1-1.41-.1-2.12,0-.71.03-1.41.1-2.12.07-.7.17-1.4.31-2.1.14-.69.31-1.38.51-2.05.21-.68.44-1.34.71-1.99.27-.65.57-1.29.91-1.91.33-.62.7-1.23,1.09-1.82.39-.59.81-1.15,1.26-1.7.45-.55.92-1.07,1.42-1.57.5-.5,1.02-.97,1.57-1.42.55-.45,1.11-.87,1.7-1.26.59-.39,1.19-.76,1.82-1.09.62-.33,1.26-.64,1.91-.91.65-.27,1.32-.51,1.99-.71.68-.21,1.36-.38,2.05-.51.69-.14,1.39-.24,2.1-.31.7-.07,1.41-.1,2.12-.1s1.41.03,2.12.1c.7.07,1.4.17,2.1.31s1.38.31,2.05.51c.68.21,1.34.44,1.99.71.65.27,1.29.57,1.91.91.62.33,1.23.7,1.82,1.09.59.39,1.15.81,1.7,1.26.55.45,1.07.92,1.57,1.42.5.5.97,1.02,1.42,1.57.45.55.87,1.11,1.26,1.7.39.59.76,1.19,1.09,1.82.33.62.64,1.26.91,1.91s.51,1.32.71,1.99c.21.68.38,1.36.51,2.05.14.69.24,1.39.31,2.1.07.7.1,1.41.1,2.12Z"/>
    <text class="cls-1" transform="translate(51.07 28.06)"><tspan x="0" y="0">SEA</tspan></text>
    <line class="cls-5" x1="22.3" y1="159.01" x2="39.11" y2="184.22"/>
    <line class="cls-5" x1="43.89" y1="137.42" x2="144.62" y2="130.23"/>
    <path class="cls-3" d="M44.25,137.78c0,.71-.03,1.41-.1,2.12-.07.7-.17,1.4-.31,2.1-.14.69-.31,1.38-.51,2.05-.21.68-.44,1.34-.71,1.99-.27.65-.57,1.29-.91,1.91-.33.62-.7,1.23-1.09,1.82-.39.59-.81,1.15-1.26,1.7-.45.55-.92,1.07-1.42,1.57-.5.5-1.02.97-1.57,1.42-.55.45-1.11.87-1.7,1.26-.59.39-1.19.76-1.82,1.09-.62.33-1.26.64-1.91.91-.65.27-1.32.51-1.99.71s-1.36.38-2.05.51c-.69.14-1.39.24-2.1.31-.7.07-1.41.1-2.12.1s-1.41-.03-2.12-.1-1.4-.17-2.1-.31c-.69-.14-1.38-.31-2.05-.51-.68-.21-1.34-.44-1.99-.71-.65-.27-1.29-.57-1.91-.91-.62-.33-1.23-.7-1.82-1.09-.59-.39-1.15-.81-1.7-1.26-.55-.45-1.07-.92-1.57-1.42-.5-.5-.97-1.02-1.42-1.57-.45-.55-.87-1.11-1.26-1.7-.39-.59-.76-1.19-1.09-1.82-.33-.62-.64-1.26-.91-1.91-.27-.65-.51-1.32-.71-1.99-.21-.68-.38-1.36-.51-2.05-.14-.69-.24-1.39-.31-2.1s-.1-1.41-.1-2.12.03-1.41.1-2.12.17-1.4.31-2.1c.14-.69.31-1.38.51-2.05.21-.68.44-1.34.71-1.99.27-.65.57-1.29.91-1.91.33-.62.7-1.23,1.09-1.82s.81-1.15,1.26-1.7c.45-.55.92-1.07,1.42-1.57.5-.5,1.02-.97,1.57-1.42.55-.45,1.11-.87,1.7-1.26.59-.39,1.19-.76,1.82-1.09.62-.33,1.26-.64,1.91-.91.65-.27,1.32-.51,1.99-.71.68-.21,1.36-.38,2.05-.51.69-.14,1.39-.24,2.1-.31.7-.07,1.41-.1,2.12-.1s1.41.03,2.12.1c.7.07,1.4.17,2.1.31.69.14,1.38.31,2.05.51.68.21,1.34.44,1.99.71.65.27,1.29.57,1.91.91.62.33,1.23.7,1.82,1.09.59.39,1.15.81,1.7,1.26.55.45,1.07.92,1.57,1.42.5.5.97,1.02,1.42,1.57.45.55.87,1.11,1.26,1.7.39.59.76,1.19,1.09,1.82.33.62.64,1.26.91,1.91.27.65.51,1.32.71,1.99.21.68.38,1.36.51,2.05.14.69.24,1.39.31,2.1.07.7.1,1.41.1,2.12Z"/>
    <path class="cls-4" d="M44.25,137.78c0,.71-.03,1.41-.1,2.12-.07.7-.17,1.4-.31,2.1-.14.69-.31,1.38-.51,2.05-.21.68-.44,1.34-.71,1.99-.27.65-.57,1.29-.91,1.91-.33.62-.7,1.23-1.09,1.82-.39.59-.81,1.15-1.26,1.7-.45.55-.92,1.07-1.42,1.57-.5.5-1.02.97-1.57,1.42-.55.45-1.11.87-1.7,1.26-.59.39-1.19.76-1.82,1.09-.62.33-1.26.64-1.91.91-.65.27-1.32.51-1.99.71s-1.36.38-2.05.51c-.69.14-1.39.24-2.1.31-.7.07-1.41.1-2.12.1s-1.41-.03-2.12-.1-1.4-.17-2.1-.31c-.69-.14-1.38-.31-2.05-.51-.68-.21-1.34-.44-1.99-.71-.65-.27-1.29-.57-1.91-.91-.62-.33-1.23-.7-1.82-1.09-.59-.39-1.15-.81-1.7-1.26-.55-.45-1.07-.92-1.57-1.42-.5-.5-.97-1.02-1.42-1.57-.45-.55-.87-1.11-1.26-1.7-.39-.59-.76-1.19-1.09-1.82-.33-.62-.64-1.26-.91-1.91-.27-.65-.51-1.32-.71-1.99-.21-.68-.38-1.36-.51-2.05-.14-.69-.24-1.39-.31-2.1s-.1-1.41-.1-2.12.03-1.41.1-2.12.17-1.4.31-2.1c.14-.69.31-1.38.51-2.05.21-.68.44-1.34.71-1.99.27-.65.57-1.29.91-1.91.33-.62.7-1.23,1.09-1.82s.81-1.15,1.26-1.7c.45-.55.92-1.07,1.42-1.57.5-.5,1.02-.97,1.57-1.42.55-.45,1.11-.87,1.7-1.26.59-.39,1.19-.76,1.82-1.09.62-.33,1.26-.64,1.91-.91.65-.27,1.32-.51,1.99-.71.68-.21,1.36-.38,2.05-.51.69-.14,1.39-.24,2.1-.31.7-.07,1.41-.1,2.12-.1s1.41.03,2.12.1c.7.07,1.4.17,2.1.31.69.14,1.38.31,2.05.51.68.21,1.34.44,1.99.71.65.27,1.29.57,1.91.91.62.33,1.23.7,1.82,1.09.59.39,1.15.81,1.7,1.26.55.45,1.07.92,1.57,1.42.5.5.97,1.02,1.42,1.57.45.55.87,1.11,1.26,1.7.39.59.76,1.19,1.09,1.82.33.62.64,1.26.91,1.91.27.65.51,1.32.71,1.99.21.68.38,1.36.51,2.05.14.69.24,1.39.31,2.1.07.7.1,1.41.1,2.12Z"/>
    <text class="cls-1" transform="translate(7.1 143.18)"><tspan x="0" y="0">SUN</tspan></text>
    <line class="cls-5" x1="71.87" y1="208" x2="230.96" y2="252.54"/>
    <path class="cls-3" d="M73.03,202.54c0,.71-.03,1.41-.1,2.12-.07.7-.17,1.4-.31,2.1-.14.69-.31,1.38-.51,2.05-.21.68-.44,1.34-.71,1.99-.27.65-.57,1.29-.91,1.91-.33.62-.7,1.23-1.09,1.82-.39.59-.81,1.15-1.26,1.7-.45.55-.92,1.07-1.42,1.57s-1.02.97-1.57,1.42c-.55.45-1.11.87-1.7,1.26-.59.39-1.19.76-1.82,1.09-.62.33-1.26.64-1.91.91-.65.27-1.32.51-1.99.71-.68.21-1.36.38-2.05.51-.69.14-1.39.24-2.1.31-.7.07-1.41.1-2.12.1s-1.41-.03-2.12-.1c-.7-.07-1.4-.17-2.1-.31-.69-.14-1.38-.31-2.05-.51-.68-.21-1.34-.44-1.99-.71-.65-.27-1.29-.57-1.91-.91-.62-.33-1.23-.7-1.82-1.09-.59-.39-1.15-.81-1.7-1.26-.55-.45-1.07-.92-1.57-1.42s-.97-1.02-1.42-1.57c-.45-.55-.87-1.11-1.26-1.7-.39-.59-.76-1.19-1.09-1.82-.33-.62-.64-1.26-.91-1.91-.27-.65-.51-1.32-.71-1.99-.21-.68-.38-1.36-.51-2.05-.14-.69-.24-1.39-.31-2.1-.07-.7-.1-1.41-.1-2.12s.03-1.41.1-2.12c.07-.7.17-1.4.31-2.1s.31-1.38.51-2.05c.21-.68.44-1.34.71-1.99.27-.65.57-1.29.91-1.91.33-.62.7-1.23,1.09-1.82.39-.59.81-1.15,1.26-1.7.45-.55.92-1.07,1.42-1.57.5-.5,1.02-.97,1.57-1.42.55-.45,1.11-.87,1.7-1.26.59-.39,1.19-.76,1.82-1.09.62-.33,1.26-.64,1.91-.91.65-.27,1.32-.51,1.99-.71.68-.21,1.36-.38,2.05-.51s1.39-.24,2.1-.31c.7-.07,1.41-.1,2.12-.1.71,0,1.41.03,2.12.1.7.07,1.4.17,2.1.31.69.14,1.38.31,2.05.51.68.21,1.34.44,1.99.71.65.27,1.29.57,1.91.91.62.33,1.23.7,1.82,1.09.59.39,1.15.81,1.7,1.26.55.45,1.07.92,1.57,1.42.5.5.97,1.02,1.42,1.57.45.55.87,1.11,1.26,1.7.39.59.76,1.19,1.09,1.82.33.62.64,1.26.91,1.91s.51,1.32.71,1.99c.21.68.38,1.36.51,2.05.14.69.24,1.39.31,2.1.07.7.1,1.41.1,2.12Z"/>
    <path class="cls-4" d="M73.03,202.54c0,.71-.03,1.41-.1,2.12-.07.7-.17,1.4-.31,2.1-.14.69-.31,1.38-.51,2.05-.21.68-.44,1.34-.71,1.99-.27.65-.57,1.29-.91,1.91-.33.62-.7,1.23-1.09,1.82-.39.59-.81,1.15-1.26,1.7-.45.55-.92,1.07-1.42,1.57s-1.02.97-1.57,1.42c-.55.45-1.11.87-1.7,1.26-.59.39-1.19.76-1.82,1.09-.62.33-1.26.64-1.91.91-.65.27-1.32.51-1.99.71-.68.21-1.36.38-2.05.51-.69.14-1.39.24-2.1.31-.7.07-1.41.1-2.12.1s-1.41-.03-2.12-.1c-.7-.07-1.4-.17-2.1-.31-.69-.14-1.38-.31-2.05-.51-.68-.21-1.34-.44-1.99-.71-.65-.27-1.29-.57-1.91-.91-.62-.33-1.23-.7-1.82-1.09-.59-.39-1.15-.81-1.7-1.26-.55-.45-1.07-.92-1.57-1.42s-.97-1.02-1.42-1.57c-.45-.55-.87-1.11-1.26-1.7-.39-.59-.76-1.19-1.09-1.82-.33-.62-.64-1.26-.91-1.91-.27-.65-.51-1.32-.71-1.99-.21-.68-.38-1.36-.51-2.05-.14-.69-.24-1.39-.31-2.1-.07-.7-.1-1.41-.1-2.12s.03-1.41.1-2.12c.07-.7.17-1.4.31-2.1s.31-1.38.51-2.05c.21-.68.44-1.34.71-1.99.27-.65.57-1.29.91-1.91.33-.62.7-1.23,1.09-1.82.39-.59.81-1.15,1.26-1.7.45-.55.92-1.07,1.42-1.57.5-.5,1.02-.97,1.57-1.42.55-.45,1.11-.87,1.7-1.26.59-.39,1.19-.76,1.82-1.09.62-.33,1.26-.64,1.91-.91.65-.27,1.32-.51,1.99-.71.68-.21,1.36-.38,2.05-.51s1.39-.24,2.1-.31c.7-.07,1.41-.1,2.12-.1.71,0,1.41.03,2.12.1.7.07,1.4.17,2.1.31.69.14,1.38.31,2.05.51.68.21,1.34.44,1.99.71.65.27,1.29.57,1.91.91.62.33,1.23.7,1.82,1.09.59.39,1.15.81,1.7,1.26.55.45,1.07.92,1.57,1.42.5.5.97,1.02,1.42,1.57.45.55.87,1.11,1.26,1.7.39.59.76,1.19,1.09,1.82.33.62.64,1.26.91,1.91s.51,1.32.71,1.99c.21.68.38,1.36.51,2.05.14.69.24,1.39.31,2.1.07.7.1,1.41.1,2.12Z"/>
    <text class="cls-1" transform="translate(42.28 207.93)"><tspan x="0" y="0">LA</tspan></text>
    <line class="cls-5" x1="274.13" y1="137.42" x2="353.75" y2="120.36"/>
    <line class="cls-5" x1="252.54" y1="159.01" x2="252.54" y2="230.96"/>
    <path class="cls-3" d="M274.49,137.78c0,.71-.03,1.41-.1,2.12-.07.7-.17,1.4-.31,2.1s-.31,1.38-.51,2.05c-.21.68-.44,1.34-.71,1.99-.27.65-.57,1.29-.91,1.91-.33.62-.7,1.23-1.09,1.82-.39.59-.81,1.15-1.26,1.7-.45.55-.92,1.07-1.42,1.57s-1.02.97-1.57,1.42c-.55.45-1.11.87-1.7,1.26-.59.39-1.19.76-1.82,1.09-.62.33-1.26.64-1.91.91-.65.27-1.32.51-1.99.71s-1.36.38-2.05.51c-.69.14-1.39.24-2.1.31-.7.07-1.41.1-2.12.1s-1.41-.03-2.12-.1c-.7-.07-1.4-.17-2.1-.31-.69-.14-1.38-.31-2.05-.51-.68-.21-1.34-.44-1.99-.71-.65-.27-1.29-.57-1.91-.91-.62-.33-1.23-.7-1.82-1.09-.59-.39-1.15-.81-1.7-1.26-.55-.45-1.07-.92-1.57-1.42-.5-.5-.97-1.02-1.42-1.57-.45-.55-.87-1.11-1.26-1.7-.39-.59-.76-1.19-1.09-1.82-.33-.62-.64-1.26-.91-1.91s-.51-1.32-.71-1.99c-.21-.68-.38-1.36-.51-2.05-.14-.69-.24-1.39-.31-2.1-.07-.7-.1-1.41-.1-2.12,0-.71.03-1.41.1-2.12.07-.7.17-1.4.31-2.1.14-.69.31-1.38.51-2.05.21-.68.44-1.34.71-1.99.27-.65.57-1.29.91-1.91.33-.62.7-1.23,1.09-1.82.39-.59.81-1.15,1.26-1.7.45-.55.92-1.07,1.42-1.57.5-.5,1.02-.97,1.57-1.42s1.11-.87,1.7-1.26c.59-.39,1.19-.76,1.82-1.09.62-.33,1.26-.64,1.91-.91.65-.27,1.32-.51,1.99-.71.68-.21,1.36-.38,2.05-.51.69-.14,1.39-.24,2.1-.31.7-.07,1.41-.1,2.12-.1s1.41.03,2.12.1c.7.07,1.4.17,2.1.31.69.14,1.38.31,2.05.51.68.21,1.34.44,1.99.71.65.27,1.29.57,1.91.91.62.33,1.23.7,1.82,1.09.59.39,1.15.81,1.7,1.26s1.07.92,1.57,1.42c.5.5.97,1.02,1.42,1.57.45.55.87,1.11,1.26,1.7.39.59.76,1.19,1.09,1.82.33.62.64,1.26.91,1.91.27.65.51,1.32.71,1.99.21.68.38,1.36.51,2.05.14.69.24,1.39.31,2.1.07.7.1,1.41.1,2.12Z"/>
    <path class="cls-4" d="M274.49,137.78c0,.71-.03,1.41-.1,2.12-.07.7-.17,1.4-.31,2.1s-.31,1.38-.51,2.05c-.21.68-.44,1.34-.71,1.99-.27.65-.57,1.29-.91,1.91-.33.62-.7,1.23-1.09,1.82-.39.59-.81,1.15-1.26,1.7-.45.55-.92,1.07-1.42,1.57s-1.02.97-1.57,1.42c-.55.45-1.11.87-1.7,1.26-.59.39-1.19.76-1.82,1.09-.62.33-1.26.64-1.91.91-.65.27-1.32.51-1.99.71s-1.36.38-2.05.51c-.69.14-1.39.24-2.1.31-.7.07-1.41.1-2.12.1s-1.41-.03-2.12-.1c-.7-.07-1.4-.17-2.1-.31-.69-.14-1.38-.31-2.05-.51-.68-.21-1.34-.44-1.99-.71-.65-.27-1.29-.57-1.91-.91-.62-.33-1.23-.7-1.82-1.09-.59-.39-1.15-.81-1.7-1.26-.55-.45-1.07-.92-1.57-1.42-.5-.5-.97-1.02-1.42-1.57-.45-.55-.87-1.11-1.26-1.7-.39-.59-.76-1.19-1.09-1.82-.33-.62-.64-1.26-.91-1.91s-.51-1.32-.71-1.99c-.21-.68-.38-1.36-.51-2.05-.14-.69-.24-1.39-.31-2.1-.07-.7-.1-1.41-.1-2.12,0-.71.03-1.41.1-2.12.07-.7.17-1.4.31-2.1.14-.69.31-1.38.51-2.05.21-.68.44-1.34.71-1.99.27-.65.57-1.29.91-1.91.33-.62.7-1.23,1.09-1.82.39-.59.81-1.15,1.26-1.7.45-.55.92-1.07,1.42-1.57.5-.5,1.02-.97,1.57-1.42s1.11-.87,1.7-1.26c.59-.39,1.19-.76,1.82-1.09.62-.33,1.26-.64,1.91-.91.65-.27,1.32-.51,1.99-.71.68-.21,1.36-.38,2.05-.51.69-.14,1.39-.24,2.1-.31.7-.07,1.41-.1,2.12-.1s1.41.03,2.12.1c.7.07,1.4.17,2.1.31.69.14,1.38.31,2.05.51.68.21,1.34.44,1.99.71.65.27,1.29.57,1.91.91.62.33,1.23.7,1.82,1.09.59.39,1.15.81,1.7,1.26s1.07.92,1.57,1.42c.5.5.97,1.02,1.42,1.57.45.55.87,1.11,1.26,1.7.39.59.76,1.19,1.09,1.82.33.62.64,1.26.91,1.91.27.65.51,1.32.71,1.99.21.68.38,1.36.51,2.05.14.69.24,1.39.31,2.1.07.7.1,1.41.1,2.12Z"/>
    <text class="cls-1" transform="translate(242.54 143.18)"><tspan x="0" y="0">KC</tspan></text>
    <line class="cls-5" x1="187.79" y1="130.23" x2="231.09" y2="135.04"/>
    <path class="cls-3" d="M188.15,130.59c0,.71-.03,1.41-.1,2.12-.07.7-.17,1.4-.31,2.1-.14.69-.31,1.38-.51,2.05-.21.68-.44,1.34-.71,1.99-.27.65-.57,1.29-.91,1.91-.33.62-.7,1.23-1.09,1.82s-.81,1.15-1.26,1.7c-.45.55-.92,1.07-1.42,1.57-.5.5-1.02.97-1.57,1.42-.55.45-1.11.87-1.7,1.26-.59.39-1.19.76-1.82,1.09-.62.33-1.26.64-1.91.91-.65.27-1.32.51-1.99.71-.68.21-1.36.38-2.05.51-.69.14-1.39.24-2.1.31s-1.41.1-2.12.1-1.41-.03-2.12-.1c-.7-.07-1.4-.17-2.1-.31-.69-.14-1.38-.31-2.05-.51s-1.34-.44-1.99-.71c-.65-.27-1.29-.57-1.91-.91-.62-.33-1.23-.7-1.82-1.09-.59-.39-1.15-.81-1.7-1.26-.55-.45-1.07-.92-1.57-1.42s-.97-1.02-1.42-1.57c-.45-.55-.87-1.11-1.26-1.7-.39-.59-.76-1.19-1.09-1.82-.33-.62-.64-1.26-.91-1.91-.27-.65-.51-1.32-.71-1.99-.21-.68-.38-1.36-.51-2.05-.14-.69-.24-1.39-.31-2.1s-.1-1.41-.1-2.12.03-1.41.1-2.12c.07-.7.17-1.4.31-2.1.14-.69.31-1.38.51-2.05.21-.68.44-1.34.71-1.99.27-.65.57-1.29.91-1.91.33-.62.7-1.23,1.09-1.82.39-.59.81-1.15,1.26-1.7.45-.55.92-1.07,1.42-1.57.5-.5,1.02-.97,1.57-1.42.55-.45,1.11-.87,1.7-1.26.59-.39,1.19-.76,1.82-1.09.62-.33,1.26-.64,1.91-.91.65-.27,1.32-.51,1.99-.71.68-.21,1.36-.38,2.05-.51.69-.14,1.39-.24,2.1-.31.7-.07,1.41-.1,2.12-.1s1.41.03,2.12.1c.7.07,1.4.17,2.1.31.69.14,1.38.31,2.05.51.68.21,1.34.44,1.99.71.65.27,1.29.57,1.91.91.62.33,1.23.7,1.82,1.09.59.39,1.15.81,1.7,1.26.55.45,1.07.92,1.57,1.42s.97,1.02,1.42,1.57c.45.55.87,1.11,1.26,1.7.39.59.76,1.19,1.09,1.82.33.62.64,1.26.91,1.91.27.65.51,1.32.71,1.99.21.68.38,1.36.51,2.05.14.69.24,1.39.31,2.1.07.7.1,1.41.1,2.12Z"/>
    <path class="cls-4" d="M188.15,130.59c0,.71-.03,1.41-.1,2.12-.07.7-.17,1.4-.31,2.1-.14.69-.31,1.38-.51,2.05-.21.68-.44,1.34-.71,1.99-.27.65-.57,1.29-.91,1.91-.33.62-.7,1.23-1.09,1.82s-.81,1.15-1.26,1.7c-.45.55-.92,1.07-1.42,1.57-.5.5-1.02.97-1.57,1.42-.55.45-1.11.87-1.7,1.26-.59.39-1.19.76-1.82,1.09-.62.33-1.26.64-1.91.91-.65.27-1.32.51-1.99.71-.68.21-1.36.38-2.05.51-.69.14-1.39.24-2.1.31s-1.41.1-2.12.1-1.41-.03-2.12-.1c-.7-.07-1.4-.17-2.1-.31-.69-.14-1.38-.31-2.05-.51s-1.34-.44-1.99-.71c-.65-.27-1.29-.57-1.91-.91-.62-.33-1.23-.7-1.82-1.09-.59-.39-1.15-.81-1.7-1.26-.55-.45-1.07-.92-1.57-1.42s-.97-1.02-1.42-1.57c-.45-.55-.87-1.11-1.26-1.7-.39-.59-.76-1.19-1.09-1.82-.33-.62-.64-1.26-.91-1.91-.27-.65-.51-1.32-.71-1.99-.21-.68-.38-1.36-.51-2.05-.14-.69-.24-1.39-.31-2.1s-.1-1.41-.1-2.12.03-1.41.1-2.12c.07-.7.17-1.4.31-2.1.14-.69.31-1.38.51-2.05.21-.68.44-1.34.71-1.99.27-.65.57-1.29.91-1.91.33-.62.7-1.23,1.09-1.82.39-.59.81-1.15,1.26-1.7.45-.55.92-1.07,1.42-1.57.5-.5,1.02-.97,1.57-1.42.55-.45,1.11-.87,1.7-1.26.59-.39,1.19-.76,1.82-1.09.62-.33,1.26-.64,1.91-.91.65-.27,1.32-.51,1.99-.71.68-.21,1.36-.38,2.05-.51.69-.14,1.39-.24,2.1-.31.7-.07,1.41-.1,2.12-.1s1.41.03,2.12.1c.7.07,1.4.17,2.1.31.69.14,1.38.31,2.05.51.68.21,1.34.44,1.99.71.65.27,1.29.57,1.91.91.62.33,1.23.7,1.82,1.09.59.39,1.15.81,1.7,1.26.55.45,1.07.92,1.57,1.42s.97,1.02,1.42,1.57c.45.55.87,1.11,1.26,1.7.39.59.76,1.19,1.09,1.82.33.62.64,1.26.91,1.91.27.65.51,1.32.71,1.99.21.68.38,1.36.51,2.05.14.69.24,1.39.31,2.1.07.7.1,1.41.1,2.12Z"/>
    <text class="cls-1" transform="translate(151 135.98)"><tspan x="0" y="0">DEN</tspan></text>
    <line class="cls-5" x1="359.6" y1="100.58" x2="339.75" y2="80.73"/>
    <line class="cls-5" x1="374.86" y1="137.42" x2="382.05" y2="194.98"/>
    <path class="cls-3" d="M396.8,116.2c0,.71-.03,1.41-.1,2.12-.07.7-.17,1.4-.31,2.1-.14.69-.31,1.38-.51,2.05-.21.68-.44,1.34-.71,1.99-.27.65-.57,1.29-.91,1.91-.33.62-.7,1.23-1.09,1.82-.39.59-.81,1.15-1.26,1.7s-.92,1.07-1.42,1.57c-.5.5-1.02.97-1.57,1.42-.55.45-1.11.87-1.7,1.26-.59.39-1.19.76-1.82,1.09s-1.26.64-1.91.91c-.65.27-1.32.51-1.99.71-.68.21-1.36.38-2.05.51-.69.14-1.39.24-2.1.31-.7.07-1.41.1-2.12.1s-1.41-.03-2.12-.1c-.7-.07-1.4-.17-2.1-.31-.69-.14-1.38-.31-2.05-.51-.68-.21-1.34-.44-1.99-.71-.65-.27-1.29-.57-1.91-.91-.62-.33-1.23-.7-1.82-1.09-.59-.39-1.15-.81-1.7-1.26-.55-.45-1.07-.92-1.57-1.42-.5-.5-.97-1.02-1.42-1.57-.45-.55-.87-1.11-1.26-1.7-.39-.59-.76-1.19-1.09-1.82-.33-.62-.64-1.26-.91-1.91-.27-.65-.51-1.32-.71-1.99-.21-.68-.38-1.36-.51-2.05-.14-.69-.24-1.39-.31-2.1-.07-.7-.1-1.41-.1-2.12,0-.71.03-1.41.1-2.12s.17-1.4.31-2.1c.14-.69.31-1.38.51-2.05.21-.68.44-1.34.71-1.99.27-.65.57-1.29.91-1.91.33-.62.7-1.23,1.09-1.82.39-.59.81-1.15,1.26-1.7s.92-1.07,1.42-1.57c.5-.5,1.02-.97,1.57-1.42.55-.45,1.11-.87,1.7-1.26.59-.39,1.19-.76,1.82-1.09.62-.33,1.26-.64,1.91-.91s1.32-.51,1.99-.71c.68-.21,1.36-.38,2.05-.51.69-.14,1.39-.24,2.1-.31.7-.07,1.41-.1,2.12-.1.71,0,1.41.03,2.12.1.7.07,1.4.17,2.1.31.69.14,1.38.31,2.05.51.68.21,1.34.44,1.99.71.65.27,1.29.57,1.91.91.62.33,1.23.7,1.82,1.09.59.39,1.15.81,1.7,1.26.55.45,1.07.92,1.57,1.42.5.5.97,1.02,1.42,1.57.45.55.87,1.11,1.26,1.7.39.59.76,1.19,1.09,1.82.33.62.64,1.26.91,1.91.27.65.51,1.32.71,1.99.21.68.38,1.36.51,2.05.14.69.24,1.39.31,2.1.07.7.1,1.41.1,2.12Z"/>
    <path class="cls-4" d="M396.8,116.2c0,.71-.03,1.41-.1,2.12-.07.7-.17,1.4-.31,2.1-.14.69-.31,1.38-.51,2.05-.21.68-.44,1.34-.71,1.99-.27.65-.57,1.29-.91,1.91-.33.62-.7,1.23-1.09,1.82-.39.59-.81,1.15-1.26,1.7s-.92,1.07-1.42,1.57c-.5.5-1.02.97-1.57,1.42-.55.45-1.11.87-1.7,1.26-.59.39-1.19.76-1.82,1.09s-1.26.64-1.91.91c-.65.27-1.32.51-1.99.71-.68.21-1.36.38-2.05.51-.69.14-1.39.24-2.1.31-.7.07-1.41.1-2.12.1s-1.41-.03-2.12-.1c-.7-.07-1.4-.17-2.1-.31-.69-.14-1.38-.31-2.05-.51-.68-.21-1.34-.44-1.99-.71-.65-.27-1.29-.57-1.91-.91-.62-.33-1.23-.7-1.82-1.09-.59-.39-1.15-.81-1.7-1.26-.55-.45-1.07-.92-1.57-1.42-.5-.5-.97-1.02-1.42-1.57-.45-.55-.87-1.11-1.26-1.7-.39-.59-.76-1.19-1.09-1.82-.33-.62-.64-1.26-.91-1.91-.27-.65-.51-1.32-.71-1.99-.21-.68-.38-1.36-.51-2.05-.14-.69-.24-1.39-.31-2.1-.07-.7-.1-1.41-.1-2.12,0-.71.03-1.41.1-2.12s.17-1.4.31-2.1c.14-.69.31-1.38.51-2.05.21-.68.44-1.34.71-1.99.27-.65.57-1.29.91-1.91.33-.62.7-1.23,1.09-1.82.39-.59.81-1.15,1.26-1.7s.92-1.07,1.42-1.57c.5-.5,1.02-.97,1.57-1.42.55-.45,1.11-.87,1.7-1.26.59-.39,1.19-.76,1.82-1.09.62-.33,1.26-.64,1.91-.91s1.32-.51,1.99-.71c.68-.21,1.36-.38,2.05-.51.69-.14,1.39-.24,2.1-.31.7-.07,1.41-.1,2.12-.1.71,0,1.41.03,2.12.1.7.07,1.4.17,2.1.31.69.14,1.38.31,2.05.51.68.21,1.34.44,1.99.71.65.27,1.29.57,1.91.91.62.33,1.23.7,1.82,1.09.59.39,1.15.81,1.7,1.26.55.45,1.07.92,1.57,1.42.5.5.97,1.02,1.42,1.57.45.55.87,1.11,1.26,1.7.39.59.76,1.19,1.09,1.82.33.62.64,1.26.91,1.91.27.65.51,1.32.71,1.99.21.68.38,1.36.51,2.05.14.69.24,1.39.31,2.1.07.7.1,1.41.1,2.12Z"/>
    <text class="cls-1" transform="translate(362.46 121.59)"><tspan x="0" y="0">IND</tspan></text>
    <line class="cls-5" x1="489.98" y1="72.67" x2="470.85" y2="110.92"/>
    <path class="cls-3" d="M511.92,51.44c0,.71-.03,1.41-.1,2.12-.07.7-.17,1.4-.31,2.1-.14.69-.31,1.38-.51,2.05-.21.68-.44,1.34-.71,1.99-.27.65-.57,1.29-.91,1.91s-.7,1.23-1.09,1.82c-.39.59-.81,1.15-1.26,1.7-.45.55-.92,1.07-1.42,1.57-.5.5-1.02.97-1.57,1.42-.55.45-1.11.87-1.7,1.26-.59.39-1.19.76-1.82,1.09-.62.33-1.26.64-1.91.91-.65.27-1.32.51-1.99.71-.68.21-1.36.38-2.05.51-.69.14-1.39.24-2.1.31-.7.07-1.41.1-2.12.1s-1.41-.03-2.12-.1c-.7-.07-1.4-.17-2.1-.31-.69-.14-1.38-.31-2.05-.51s-1.34-.44-1.99-.71-1.29-.57-1.91-.91c-.62-.33-1.23-.7-1.82-1.09-.59-.39-1.15-.81-1.7-1.26-.55-.45-1.07-.92-1.57-1.42s-.97-1.02-1.42-1.57c-.45-.55-.87-1.11-1.26-1.7-.39-.59-.76-1.19-1.09-1.82-.33-.62-.64-1.26-.91-1.91s-.51-1.32-.71-1.99c-.21-.68-.38-1.36-.51-2.05-.14-.69-.24-1.39-.31-2.1-.07-.7-.1-1.41-.1-2.12s.03-1.41.1-2.12c.07-.7.17-1.4.31-2.1.14-.69.31-1.38.51-2.05.21-.68.44-1.34.71-1.99.27-.65.57-1.29.91-1.91.33-.62.7-1.23,1.09-1.82.39-.59.81-1.15,1.26-1.7.45-.55.92-1.07,1.42-1.57.5-.5,1.02-.97,1.57-1.42.55-.45,1.11-.87,1.7-1.26.59-.39,1.19-.76,1.82-1.09.62-.33,1.26-.64,1.91-.91s1.32-.51,1.99-.71c.68-.21,1.36-.38,2.05-.51.69-.14,1.39-.24,2.1-.31.7-.07,1.41-.1,2.12-.1s1.41.03,2.12.1c.7.07,1.4.17,2.1.31.69.14,1.38.31,2.05.51.68.21,1.34.44,1.99.71.65.27,1.29.57,1.91.91.62.33,1.23.7,1.82,1.09.59.39,1.15.81,1.7,1.26.55.45,1.07.92,1.57,1.42.5.5.97,1.02,1.42,1.57.45.55.87,1.11,1.26,1.7.39.59.76,1.19,1.09,1.82.33.62.64,1.26.91,1.91.27.65.51,1.32.71,1.99.21.68.38,1.36.51,2.05.14.69.24,1.39.31,2.1.07.7.1,1.41.1,2.12Z"/>
    <path class="cls-4" d="M511.92,51.44c0,.71-.03,1.41-.1,2.12-.07.7-.17,1.4-.31,2.1-.14.69-.31,1.38-.51,2.05-.21.68-.44,1.34-.71,1.99-.27.65-.57,1.29-.91,1.91s-.7,1.23-1.09,1.82c-.39.59-.81,1.15-1.26,1.7-.45.55-.92,1.07-1.42,1.57-.5.5-1.02.97-1.57,1.42-.55.45-1.11.87-1.7,1.26-.59.39-1.19.76-1.82,1.09-.62.33-1.26.64-1.91.91-.65.27-1.32.51-1.99.71-.68.21-1.36.38-2.05.51-.69.14-1.39.24-2.1.31-.7.07-1.41.1-2.12.1s-1.41-.03-2.12-.1c-.7-.07-1.4-.17-2.1-.31-.69-.14-1.38-.31-2.05-.51s-1.34-.44-1.99-.71-1.29-.57-1.91-.91c-.62-.33-1.23-.7-1.82-1.09-.59-.39-1.15-.81-1.7-1.26-.55-.45-1.07-.92-1.57-1.42s-.97-1.02-1.42-1.57c-.45-.55-.87-1.11-1.26-1.7-.39-.59-.76-1.19-1.09-1.82-.33-.62-.64-1.26-.91-1.91s-.51-1.32-.71-1.99c-.21-.68-.38-1.36-.51-2.05-.14-.69-.24-1.39-.31-2.1-.07-.7-.1-1.41-.1-2.12s.03-1.41.1-2.12c.07-.7.17-1.4.31-2.1.14-.69.31-1.38.51-2.05.21-.68.44-1.34.71-1.99.27-.65.57-1.29.91-1.91.33-.62.7-1.23,1.09-1.82.39-.59.81-1.15,1.26-1.7.45-.55.92-1.07,1.42-1.57.5-.5,1.02-.97,1.57-1.42.55-.45,1.11-.87,1.7-1.26.59-.39,1.19-.76,1.82-1.09.62-.33,1.26-.64,1.91-.91s1.32-.51,1.99-.71c.68-.21,1.36-.38,2.05-.51.69-.14,1.39-.24,2.1-.31.7-.07,1.41-.1,2.12-.1s1.41.03,2.12.1c.7.07,1.4.17,2.1.31.69.14,1.38.31,2.05.51.68.21,1.34.44,1.99.71.65.27,1.29.57,1.91.91.62.33,1.23.7,1.82,1.09.59.39,1.15.81,1.7,1.26.55.45,1.07.92,1.57,1.42.5.5.97,1.02,1.42,1.57.45.55.87,1.11,1.26,1.7.39.59.76,1.19,1.09,1.82.33.62.64,1.26.91,1.91.27.65.51,1.32.71,1.99.21.68.38,1.36.51,2.05.14.69.24,1.39.31,2.1.07.7.1,1.41.1,2.12Z"/>
    <text class="cls-1" transform="translate(479.97 56.84)"><tspan x="0" y="0">NY</tspan></text>
    <path class="cls-3" d="M274.49,252.9c0,.71-.03,1.41-.1,2.12-.07.7-.17,1.4-.31,2.1-.14.69-.31,1.38-.51,2.05-.21.68-.44,1.34-.71,1.99-.27.65-.57,1.29-.91,1.91-.33.62-.7,1.23-1.09,1.82-.39.59-.81,1.15-1.26,1.7-.45.55-.92,1.07-1.42,1.57s-1.02.97-1.57,1.42c-.55.45-1.11.87-1.7,1.26-.59.39-1.19.76-1.82,1.09-.62.33-1.26.64-1.91.91-.65.27-1.32.51-1.99.71-.68.21-1.36.38-2.05.51-.69.14-1.39.24-2.1.31-.7.07-1.41.1-2.12.1s-1.41-.03-2.12-.1c-.7-.07-1.4-.17-2.1-.31-.69-.14-1.38-.31-2.05-.51-.68-.21-1.34-.44-1.99-.71-.65-.27-1.29-.57-1.91-.91-.62-.33-1.23-.7-1.82-1.09-.59-.39-1.15-.81-1.7-1.26-.55-.45-1.07-.92-1.57-1.42-.5-.5-.97-1.02-1.42-1.57s-.87-1.11-1.26-1.7c-.39-.59-.76-1.19-1.09-1.82-.33-.62-.64-1.26-.91-1.91-.27-.65-.51-1.32-.71-1.99-.21-.68-.38-1.36-.51-2.05-.14-.69-.24-1.39-.31-2.1-.07-.7-.1-1.41-.1-2.12,0-.71.03-1.41.1-2.12.07-.7.17-1.4.31-2.1.14-.69.31-1.38.51-2.05.21-.68.44-1.34.71-1.99.27-.65.57-1.29.91-1.91.33-.62.7-1.23,1.09-1.82.39-.59.81-1.15,1.26-1.7s.92-1.07,1.42-1.57c.5-.5,1.02-.97,1.57-1.42s1.11-.87,1.7-1.26c.59-.39,1.19-.76,1.82-1.09.62-.33,1.26-.64,1.91-.91.65-.27,1.32-.51,1.99-.71.68-.21,1.36-.38,2.05-.51.69-.14,1.39-.24,2.1-.31.7-.07,1.41-.1,2.12-.1s1.41.03,2.12.1c.7.07,1.4.17,2.1.31.69.14,1.38.31,2.05.51.68.21,1.34.44,1.99.71.65.27,1.29.57,1.91.91.62.33,1.23.7,1.82,1.09.59.39,1.15.81,1.7,1.26s1.07.92,1.57,1.42c.5.5.97,1.02,1.42,1.57.45.55.87,1.11,1.26,1.7.39.59.76,1.19,1.09,1.82.33.62.64,1.26.91,1.91.27.65.51,1.32.71,1.99.21.68.38,1.36.51,2.05.14.69.24,1.39.31,2.1.07.7.1,1.41.1,2.12Z"/>
    <path class="cls-4" d="M274.49,252.9c0,.71-.03,1.41-.1,2.12-.07.7-.17,1.4-.31,2.1-.14.69-.31,1.38-.51,2.05-.21.68-.44,1.34-.71,1.99-.27.65-.57,1.29-.91,1.91-.33.62-.7,1.23-1.09,1.82-.39.59-.81,1.15-1.26,1.7-.45.55-.92,1.07-1.42,1.57s-1.02.97-1.57,1.42c-.55.45-1.11.87-1.7,1.26-.59.39-1.19.76-1.82,1.09-.62.33-1.26.64-1.91.91-.65.27-1.32.51-1.99.71-.68.21-1.36.38-2.05.51-.69.14-1.39.24-2.1.31-.7.07-1.41.1-2.12.1s-1.41-.03-2.12-.1c-.7-.07-1.4-.17-2.1-.31-.69-.14-1.38-.31-2.05-.51-.68-.21-1.34-.44-1.99-.71-.65-.27-1.29-.57-1.91-.91-.62-.33-1.23-.7-1.82-1.09-.59-.39-1.15-.81-1.7-1.26-.55-.45-1.07-.92-1.57-1.42-.5-.5-.97-1.02-1.42-1.57s-.87-1.11-1.26-1.7c-.39-.59-.76-1.19-1.09-1.82-.33-.62-.64-1.26-.91-1.91-.27-.65-.51-1.32-.71-1.99-.21-.68-.38-1.36-.51-2.05-.14-.69-.24-1.39-.31-2.1-.07-.7-.1-1.41-.1-2.12,0-.71.03-1.41.1-2.12.07-.7.17-1.4.31-2.1.14-.69.31-1.38.51-2.05.21-.68.44-1.34.71-1.99.27-.65.57-1.29.91-1.91.33-.62.7-1.23,1.09-1.82.39-.59.81-1.15,1.26-1.7s.92-1.07,1.42-1.57c.5-.5,1.02-.97,1.57-1.42s1.11-.87,1.7-1.26c.59-.39,1.19-.76,1.82-1.09.62-.33,1.26-.64,1.91-.91.65-.27,1.32-.51,1.99-.71.68-.21,1.36-.38,2.05-.51.69-.14,1.39-.24,2.1-.31.7-.07,1.41-.1,2.12-.1s1.41.03,2.12.1c.7.07,1.4.17,2.1.31.69.14,1.38.31,2.05.51.68.21,1.34.44,1.99.71.65.27,1.29.57,1.91.91.62.33,1.23.7,1.82,1.09.59.39,1.15.81,1.7,1.26s1.07.92,1.57,1.42c.5.5.97,1.02,1.42,1.57.45.55.87,1.11,1.26,1.7.39.59.76,1.19,1.09,1.82.33.62.64,1.26.91,1.91.27.65.51,1.32.71,1.99.21.68.38,1.36.51,2.05.14.69.24,1.39.31,2.1.07.7.1,1.41.1,2.12Z"/>
    <text class="cls-1" transform="translate(236.54 258.3)"><tspan x="0" y="0">HOU</tspan></text>
    <line class="cls-5" x1="346.08" y1="65.47" x2="468.5" y2="53.24"/>
    <path class="cls-3" d="M346.44,65.83c0,.71-.03,1.41-.1,2.12-.07.7-.17,1.4-.31,2.1-.14.69-.31,1.38-.51,2.05s-.44,1.34-.71,1.99c-.27.65-.57,1.29-.91,1.91-.33.62-.7,1.23-1.09,1.82s-.81,1.15-1.26,1.7c-.45.55-.92,1.07-1.42,1.57-.5.5-1.02.97-1.57,1.42-.55.45-1.11.87-1.7,1.26s-1.19.76-1.82,1.09c-.62.33-1.26.64-1.91.91-.65.27-1.32.51-1.99.71-.68.21-1.36.38-2.05.51-.69.14-1.39.24-2.1.31-.7.07-1.41.1-2.12.1s-1.41-.03-2.12-.1c-.7-.07-1.4-.17-2.1-.31-.69-.14-1.38-.31-2.05-.51-.68-.21-1.34-.44-1.99-.71-.65-.27-1.29-.57-1.91-.91s-1.23-.7-1.82-1.09c-.59-.39-1.15-.81-1.7-1.26s-1.07-.92-1.57-1.42c-.5-.5-.97-1.02-1.42-1.57s-.87-1.11-1.26-1.7c-.39-.59-.76-1.19-1.09-1.82s-.64-1.26-.91-1.91c-.27-.65-.51-1.32-.71-1.99-.21-.68-.38-1.36-.51-2.05-.14-.69-.24-1.39-.31-2.1-.07-.7-.1-1.41-.1-2.12s.03-1.41.1-2.12c.07-.7.17-1.4.31-2.1s.31-1.38.51-2.05c.21-.68.44-1.34.71-1.99s.57-1.29.91-1.91c.33-.62.7-1.23,1.09-1.82.39-.59.81-1.15,1.26-1.7.45-.55.92-1.07,1.42-1.57.5-.5,1.02-.97,1.57-1.42.55-.45,1.11-.87,1.7-1.26.59-.39,1.19-.76,1.82-1.09.62-.33,1.26-.64,1.91-.91.65-.27,1.32-.51,1.99-.71.68-.21,1.36-.38,2.05-.51.69-.14,1.39-.24,2.1-.31.7-.07,1.41-.1,2.12-.1s1.41.03,2.12.1c.7.07,1.4.17,2.1.31.69.14,1.38.31,2.05.51.68.21,1.34.44,1.99.71.65.27,1.29.57,1.91.91.62.33,1.23.7,1.82,1.09.59.39,1.15.81,1.7,1.26.55.45,1.07.92,1.57,1.42.5.5.97,1.02,1.42,1.57.45.55.87,1.11,1.26,1.7.39.59.76,1.19,1.09,1.82.33.62.64,1.26.91,1.91.27.65.51,1.32.71,1.99.21.68.38,1.36.51,2.05.14.69.24,1.39.31,2.1s.1,1.41.1,2.12Z"/>
    <path class="cls-4" d="M346.44,65.83c0,.71-.03,1.41-.1,2.12-.07.7-.17,1.4-.31,2.1-.14.69-.31,1.38-.51,2.05s-.44,1.34-.71,1.99c-.27.65-.57,1.29-.91,1.91-.33.62-.7,1.23-1.09,1.82s-.81,1.15-1.26,1.7c-.45.55-.92,1.07-1.42,1.57-.5.5-1.02.97-1.57,1.42-.55.45-1.11.87-1.7,1.26s-1.19.76-1.82,1.09c-.62.33-1.26.64-1.91.91-.65.27-1.32.51-1.99.71-.68.21-1.36.38-2.05.51-.69.14-1.39.24-2.1.31-.7.07-1.41.1-2.12.1s-1.41-.03-2.12-.1c-.7-.07-1.4-.17-2.1-.31-.69-.14-1.38-.31-2.05-.51-.68-.21-1.34-.44-1.99-.71-.65-.27-1.29-.57-1.91-.91s-1.23-.7-1.82-1.09c-.59-.39-1.15-.81-1.7-1.26s-1.07-.92-1.57-1.42c-.5-.5-.97-1.02-1.42-1.57s-.87-1.11-1.26-1.7c-.39-.59-.76-1.19-1.09-1.82s-.64-1.26-.91-1.91c-.27-.65-.51-1.32-.71-1.99-.21-.68-.38-1.36-.51-2.05-.14-.69-.24-1.39-.31-2.1-.07-.7-.1-1.41-.1-2.12s.03-1.41.1-2.12c.07-.7.17-1.4.31-2.1s.31-1.38.51-2.05c.21-.68.44-1.34.71-1.99s.57-1.29.91-1.91c.33-.62.7-1.23,1.09-1.82.39-.59.81-1.15,1.26-1.7.45-.55.92-1.07,1.42-1.57.5-.5,1.02-.97,1.57-1.42.55-.45,1.11-.87,1.7-1.26.59-.39,1.19-.76,1.82-1.09.62-.33,1.26-.64,1.91-.91.65-.27,1.32-.51,1.99-.71.68-.21,1.36-.38,2.05-.51.69-.14,1.39-.24,2.1-.31.7-.07,1.41-.1,2.12-.1s1.41.03,2.12.1c.7.07,1.4.17,2.1.31.69.14,1.38.31,2.05.51.68.21,1.34.44,1.99.71.65.27,1.29.57,1.91.91.62.33,1.23.7,1.82,1.09.59.39,1.15.81,1.7,1.26.55.45,1.07.92,1.57,1.42.5.5.97,1.02,1.42,1.57.45.55.87,1.11,1.26,1.7.39.59.76,1.19,1.09,1.82.33.62.64,1.26.91,1.91.27.65.51,1.32.71,1.99.21.68.38,1.36.51,2.05.14.69.24,1.39.31,2.1s.1,1.41.1,2.12Z"/>
    <text class="cls-1" transform="translate(312.09 71.23)"><tspan x="0" y="0">CHI</tspan></text>
    <line class="cls-5" x1="366.79" y1="231.83" x2="274.13" y2="252.54"/>
    <path class="cls-3" d="M404,216.93c0,.71-.03,1.41-.1,2.12-.07.7-.17,1.4-.31,2.1-.14.69-.31,1.38-.51,2.05-.21.68-.44,1.34-.71,1.99-.27.65-.57,1.29-.91,1.91-.33.62-.7,1.23-1.09,1.82-.39.59-.81,1.15-1.26,1.7-.45.55-.92,1.07-1.42,1.57-.5.5-1.02.97-1.57,1.42-.55.45-1.11.87-1.7,1.26-.59.39-1.19.76-1.82,1.09-.62.33-1.26.64-1.91.91-.65.27-1.32.51-1.99.71-.68.21-1.36.38-2.05.51-.69.14-1.39.24-2.1.31-.7.07-1.41.1-2.12.1s-1.41-.03-2.12-.1c-.7-.07-1.4-.17-2.1-.31-.69-.14-1.38-.31-2.05-.51-.68-.21-1.34-.44-1.99-.71-.65-.27-1.29-.57-1.91-.91-.62-.33-1.23-.7-1.82-1.09-.59-.39-1.15-.81-1.7-1.26-.55-.45-1.07-.92-1.57-1.42-.5-.5-.97-1.02-1.42-1.57-.45-.55-.87-1.11-1.26-1.7-.39-.59-.76-1.19-1.09-1.82-.33-.62-.64-1.26-.91-1.91-.27-.65-.51-1.32-.71-1.99-.21-.68-.38-1.36-.51-2.05-.14-.69-.24-1.39-.31-2.1-.07-.7-.1-1.41-.1-2.12,0-.71.03-1.41.1-2.12.07-.7.17-1.4.31-2.1s.31-1.38.51-2.05.44-1.34.71-1.99c.27-.65.57-1.29.91-1.91.33-.62.7-1.23,1.09-1.82.39-.59.81-1.15,1.26-1.7.45-.55.92-1.07,1.42-1.57.5-.5,1.02-.97,1.57-1.42.55-.45,1.11-.87,1.7-1.26.59-.39,1.19-.76,1.82-1.09.62-.33,1.26-.64,1.91-.91.65-.27,1.32-.51,1.99-.71s1.36-.38,2.05-.51c.69-.14,1.39-.24,2.1-.31.7-.07,1.41-.1,2.12-.1.71,0,1.41.03,2.12.1.7.07,1.4.17,2.1.31.69.14,1.38.31,2.05.51.68.21,1.34.44,1.99.71.65.27,1.29.57,1.91.91.62.33,1.23.7,1.82,1.09.59.39,1.15.81,1.7,1.26.55.45,1.07.92,1.57,1.42.5.5.97,1.02,1.42,1.57.45.55.87,1.11,1.26,1.7.39.59.76,1.19,1.09,1.82.33.62.64,1.26.91,1.91.27.65.51,1.32.71,1.99.21.68.38,1.36.51,2.05.14.69.24,1.39.31,2.1.07.7.1,1.41.1,2.12Z"/>
    <path class="cls-4" d="M404,216.93c0,.71-.03,1.41-.1,2.12-.07.7-.17,1.4-.31,2.1-.14.69-.31,1.38-.51,2.05-.21.68-.44,1.34-.71,1.99-.27.65-.57,1.29-.91,1.91-.33.62-.7,1.23-1.09,1.82-.39.59-.81,1.15-1.26,1.7-.45.55-.92,1.07-1.42,1.57-.5.5-1.02.97-1.57,1.42-.55.45-1.11.87-1.7,1.26-.59.39-1.19.76-1.82,1.09-.62.33-1.26.64-1.91.91-.65.27-1.32.51-1.99.71-.68.21-1.36.38-2.05.51-.69.14-1.39.24-2.1.31-.7.07-1.41.1-2.12.1s-1.41-.03-2.12-.1c-.7-.07-1.4-.17-2.1-.31-.69-.14-1.38-.31-2.05-.51-.68-.21-1.34-.44-1.99-.71-.65-.27-1.29-.57-1.91-.91-.62-.33-1.23-.7-1.82-1.09-.59-.39-1.15-.81-1.7-1.26-.55-.45-1.07-.92-1.57-1.42-.5-.5-.97-1.02-1.42-1.57-.45-.55-.87-1.11-1.26-1.7-.39-.59-.76-1.19-1.09-1.82-.33-.62-.64-1.26-.91-1.91-.27-.65-.51-1.32-.71-1.99-.21-.68-.38-1.36-.51-2.05-.14-.69-.24-1.39-.31-2.1-.07-.7-.1-1.41-.1-2.12,0-.71.03-1.41.1-2.12.07-.7.17-1.4.31-2.1s.31-1.38.51-2.05.44-1.34.71-1.99c.27-.65.57-1.29.91-1.91.33-.62.7-1.23,1.09-1.82.39-.59.81-1.15,1.26-1.7.45-.55.92-1.07,1.42-1.57.5-.5,1.02-.97,1.57-1.42.55-.45,1.11-.87,1.7-1.26.59-.39,1.19-.76,1.82-1.09.62-.33,1.26-.64,1.91-.91.65-.27,1.32-.51,1.99-.71s1.36-.38,2.05-.51c.69-.14,1.39-.24,2.1-.31.7-.07,1.41-.1,2.12-.1.71,0,1.41.03,2.12.1.7.07,1.4.17,2.1.31.69.14,1.38.31,2.05.51.68.21,1.34.44,1.99.71.65.27,1.29.57,1.91.91.62.33,1.23.7,1.82,1.09.59.39,1.15.81,1.7,1.26.55.45,1.07.92,1.57,1.42.5.5.97,1.02,1.42,1.57.45.55.87,1.11,1.26,1.7.39.59.76,1.19,1.09,1.82.33.62.64,1.26.91,1.91.27.65.51,1.32.71,1.99.21.68.38,1.36.51,2.05.14.69.24,1.39.31,2.1.07.7.1,1.41.1,2.12Z"/>
    <text class="cls-1" transform="translate(369.38 222.32)"><tspan x="0" y="0">A</tspan></text>
    <text class="cls-1" transform="translate(377.91 222.32)"><tspan x="0" y="0">TL</tspan></text>
    <line class="cls-5" x1="445.94" y1="145.49" x2="397.31" y2="201.31"/>
    <path class="cls-3" d="M483.14,130.59c0,.71-.03,1.41-.1,2.12s-.17,1.4-.31,2.1c-.14.69-.31,1.38-.51,2.05-.21.68-.44,1.34-.71,1.99-.27.65-.57,1.29-.91,1.91-.33.62-.7,1.23-1.09,1.82-.39.59-.81,1.15-1.26,1.7-.45.55-.92,1.07-1.42,1.57s-1.02.97-1.57,1.42c-.55.45-1.11.87-1.7,1.26-.59.39-1.19.76-1.82,1.09-.62.33-1.26.64-1.91.91-.65.27-1.32.51-1.99.71s-1.36.38-2.05.51c-.69.14-1.39.24-2.1.31-.7.07-1.41.1-2.12.1s-1.41-.03-2.12-.1c-.7-.07-1.4-.17-2.1-.31-.69-.14-1.38-.31-2.05-.51-.68-.21-1.34-.44-1.99-.71-.65-.27-1.29-.57-1.91-.91-.62-.33-1.23-.7-1.82-1.09-.59-.39-1.15-.81-1.7-1.26-.55-.45-1.07-.92-1.57-1.42-.5-.5-.97-1.02-1.42-1.57-.45-.55-.87-1.11-1.26-1.7-.39-.59-.76-1.19-1.09-1.82-.33-.62-.64-1.26-.91-1.91-.27-.65-.51-1.32-.71-1.99-.21-.68-.38-1.36-.51-2.05-.14-.69-.24-1.39-.31-2.1-.07-.7-.1-1.41-.1-2.12,0-.71.03-1.41.1-2.12.07-.7.17-1.4.31-2.1.14-.69.31-1.38.51-2.05.21-.68.44-1.34.71-1.99.27-.65.57-1.29.91-1.91s.7-1.23,1.09-1.82c.39-.59.81-1.15,1.26-1.7.45-.55.92-1.07,1.42-1.57.5-.5,1.02-.97,1.57-1.42.55-.45,1.11-.87,1.7-1.26.59-.39,1.19-.76,1.82-1.09.62-.33,1.26-.64,1.91-.91s1.32-.51,1.99-.71c.68-.21,1.36-.38,2.05-.51.69-.14,1.39-.24,2.1-.31.7-.07,1.41-.1,2.12-.1s1.41.03,2.12.1c.7.07,1.4.17,2.1.31.69.14,1.38.31,2.05.51.68.21,1.34.44,1.99.71.65.27,1.29.57,1.91.91.62.33,1.23.7,1.82,1.09.59.39,1.15.81,1.7,1.26s1.07.92,1.57,1.42c.5.5.97,1.02,1.42,1.57.45.55.87,1.11,1.26,1.7.39.59.76,1.19,1.09,1.82.33.62.64,1.26.91,1.91.27.65.51,1.32.71,1.99.21.68.38,1.36.51,2.05.14.69.24,1.39.31,2.1.07.7.1,1.41.1,2.12Z"/>
    <path class="cls-4" d="M483.14,130.59c0,.71-.03,1.41-.1,2.12s-.17,1.4-.31,2.1c-.14.69-.31,1.38-.51,2.05-.21.68-.44,1.34-.71,1.99-.27.65-.57,1.29-.91,1.91-.33.62-.7,1.23-1.09,1.82-.39.59-.81,1.15-1.26,1.7-.45.55-.92,1.07-1.42,1.57s-1.02.97-1.57,1.42c-.55.45-1.11.87-1.7,1.26-.59.39-1.19.76-1.82,1.09-.62.33-1.26.64-1.91.91-.65.27-1.32.51-1.99.71s-1.36.38-2.05.51c-.69.14-1.39.24-2.1.31-.7.07-1.41.1-2.12.1s-1.41-.03-2.12-.1c-.7-.07-1.4-.17-2.1-.31-.69-.14-1.38-.31-2.05-.51-.68-.21-1.34-.44-1.99-.71-.65-.27-1.29-.57-1.91-.91-.62-.33-1.23-.7-1.82-1.09-.59-.39-1.15-.81-1.7-1.26-.55-.45-1.07-.92-1.57-1.42-.5-.5-.97-1.02-1.42-1.57-.45-.55-.87-1.11-1.26-1.7-.39-.59-.76-1.19-1.09-1.82-.33-.62-.64-1.26-.91-1.91-.27-.65-.51-1.32-.71-1.99-.21-.68-.38-1.36-.51-2.05-.14-.69-.24-1.39-.31-2.1-.07-.7-.1-1.41-.1-2.12,0-.71.03-1.41.1-2.12.07-.7.17-1.4.31-2.1.14-.69.31-1.38.51-2.05.21-.68.44-1.34.71-1.99.27-.65.57-1.29.91-1.91s.7-1.23,1.09-1.82c.39-.59.81-1.15,1.26-1.7.45-.55.92-1.07,1.42-1.57.5-.5,1.02-.97,1.57-1.42.55-.45,1.11-.87,1.7-1.26.59-.39,1.19-.76,1.82-1.09.62-.33,1.26-.64,1.91-.91s1.32-.51,1.99-.71c.68-.21,1.36-.38,2.05-.51.69-.14,1.39-.24,2.1-.31.7-.07,1.41-.1,2.12-.1s1.41.03,2.12.1c.7.07,1.4.17,2.1.31.69.14,1.38.31,2.05.51.68.21,1.34.44,1.99.71.65.27,1.29.57,1.91.91.62.33,1.23.7,1.82,1.09.59.39,1.15.81,1.7,1.26s1.07.92,1.57,1.42c.5.5.97,1.02,1.42,1.57.45.55.87,1.11,1.26,1.7.39.59.76,1.19,1.09,1.82.33.62.64,1.26.91,1.91.27.65.51,1.32.71,1.99.21.68.38,1.36.51,2.05.14.69.24,1.39.31,2.1.07.7.1,1.41.1,2.12Z"/>
    <text class="cls-1" transform="translate(445.06 135.98)"><tspan x="0" y="0">W</tspan></text>
    <text class="cls-1" transform="translate(458.11 135.98)"><tspan x="0" y="0">AS</tspan></text>
  </g>
</svg>