<?xml version="1.0" encoding="utf-8" standalone="no"?>
<!DOCTYPE svg PUBLIC "-//W3C//DTD SVG 1.1//EN"
  "http://www.w3.org/Graphics/SVG/1.1/DTD/svg11.dtd">
<svg xmlns:xlink="http://www.w3.org/1999/xlink" width="460.8pt" height="345.6pt" viewBox="0 0 460.8 345.6" xmlns="http://www.w3.org/2000/svg" version="1.1">
 <metadata>
  <rdf:RDF xmlns:dc="http://purl.org/dc/elements/1.1/" xmlns:cc="http://creativecommons.org/ns#" xmlns:rdf="http://www.w3.org/1999/02/22-rdf-syntax-ns#">
   <cc:Work>
    <dc:type rdf:resource="http://purl.org/dc/dcmitype/StillImage"/>
    <dc:date>2023-08-25T00:14:35.172003</dc:date>
    <dc:format>image/svg+xml</dc:format>
    <dc:creator>
     <cc:Agent>
      <dc:title>Matplotlib v3.7.2, https://matplotlib.org/</dc:title>
     </cc:Agent>
    </dc:creator>
   </cc:Work>
  </rdf:RDF>
 </metadata>
 <defs>
  <style type="text/css">*{stroke-linejoin: round; stroke-linecap: butt}</style>
 </defs>
 <g id="figure_1">
  <g id="patch_1">
   <path d="M 0 345.6 
L 460.8 345.6 
L 460.8 0 
L 0 0 
z
" style="fill: #ffffff"/>
  </g>
  <g id="axes_1">
   <g id="patch_2">
    <path d="M 57.6 307.584 
L 414.72 307.584 
L 414.72 41.472 
L 57.6 41.472 
z
" style="fill: #ffffff"/>
   </g>
   <g id="matplotlib.axis_1">
    <g id="xtick_1">
     <g id="line2d_1">
      <defs>
       <path id="m582076d132" d="M 0 0 
L 0 3.5 
" style="stroke: #000000; stroke-width: 0.8"/>
      </defs>
      <g>
       <use xlink:href="#m582076d132" x="73.832727" y="307.584" style="stroke: #000000; stroke-width: 0.8"/>
      </g>
     </g>
     <g id="text_1">
      <!-- $\mathdefault{0}$ -->
      <g transform="translate(71.34206 321.502498) scale(0.1 -0.1)">
       <defs>
        <path id="CMR17-30" d="M 2688 2025 
C 2688 2416 2682 3080 2413 3591 
C 2176 4039 1798 4198 1466 4198 
C 1158 4198 768 4058 525 3597 
C 269 3118 243 2524 243 2025 
C 243 1661 250 1106 448 619 
C 723 -39 1216 -128 1466 -128 
C 1760 -128 2208 -7 2470 600 
C 2662 1042 2688 1559 2688 2025 
z
M 1466 -26 
C 1056 -26 813 325 723 812 
C 653 1188 653 1738 653 2096 
C 653 2588 653 2997 736 3387 
C 858 3929 1216 4096 1466 4096 
C 1728 4096 2067 3923 2189 3400 
C 2272 3036 2278 2607 2278 2096 
C 2278 1680 2278 1169 2202 792 
C 2067 95 1690 -26 1466 -26 
z
" transform="scale(0.015625)"/>
       </defs>
       <use xlink:href="#CMR17-30" transform="scale(0.996264)"/>
      </g>
     </g>
    </g>
    <g id="xtick_2">
     <g id="line2d_2">
      <g>
       <use xlink:href="#m582076d132" x="139.419504" y="307.584" style="stroke: #000000; stroke-width: 0.8"/>
      </g>
     </g>
     <g id="text_2">
      <!-- $\mathdefault{20}$ -->
      <g transform="translate(134.438169 321.502498) scale(0.1 -0.1)">
       <defs>
        <path id="CMR17-32" d="M 2669 989 
L 2554 989 
C 2490 536 2438 459 2413 420 
C 2381 369 1920 369 1830 369 
L 602 369 
C 832 619 1280 1072 1824 1597 
C 2214 1967 2669 2402 2669 3035 
C 2669 3790 2067 4224 1395 4224 
C 691 4224 262 3604 262 3030 
C 262 2780 448 2748 525 2748 
C 589 2748 781 2787 781 3010 
C 781 3207 614 3264 525 3264 
C 486 3264 448 3258 422 3245 
C 544 3790 915 4058 1306 4058 
C 1862 4058 2227 3617 2227 3035 
C 2227 2479 1901 2000 1536 1584 
L 262 146 
L 262 0 
L 2515 0 
L 2669 989 
z
" transform="scale(0.015625)"/>
       </defs>
       <use xlink:href="#CMR17-32" transform="scale(0.996264)"/>
       <use xlink:href="#CMR17-30" transform="translate(45.690477 0) scale(0.996264)"/>
      </g>
     </g>
    </g>
    <g id="xtick_3">
     <g id="line2d_3">
      <g>
       <use xlink:href="#m582076d132" x="205.006281" y="307.584" style="stroke: #000000; stroke-width: 0.8"/>
      </g>
     </g>
     <g id="text_3">
      <!-- $\mathdefault{40}$ -->
      <g transform="translate(200.024946 321.502498) scale(0.1 -0.1)">
       <defs>
        <path id="CMR17-34" d="M 2150 4122 
C 2150 4256 2144 4256 2029 4256 
L 128 1254 
L 128 1088 
L 1779 1088 
L 1779 457 
C 1779 224 1766 160 1318 160 
L 1197 160 
L 1197 0 
C 1402 0 1747 0 1965 0 
C 2182 0 2528 0 2733 0 
L 2733 160 
L 2611 160 
C 2163 160 2150 224 2150 457 
L 2150 1088 
L 2803 1088 
L 2803 1254 
L 2150 1254 
L 2150 4122 
z
M 1798 3703 
L 1798 1254 
L 256 1254 
L 1798 3703 
z
" transform="scale(0.015625)"/>
       </defs>
       <use xlink:href="#CMR17-34" transform="scale(0.996264)"/>
       <use xlink:href="#CMR17-30" transform="translate(45.690477 0) scale(0.996264)"/>
      </g>
     </g>
    </g>
    <g id="xtick_4">
     <g id="line2d_4">
      <g>
       <use xlink:href="#m582076d132" x="270.593058" y="307.584" style="stroke: #000000; stroke-width: 0.8"/>
      </g>
     </g>
     <g id="text_4">
      <!-- $\mathdefault{60}$ -->
      <g transform="translate(265.611723 321.502498) scale(0.1 -0.1)">
       <defs>
        <path id="CMR17-36" d="M 678 2176 
C 678 3690 1395 4032 1811 4032 
C 1946 4032 2272 4009 2400 3776 
C 2298 3776 2106 3776 2106 3553 
C 2106 3381 2246 3323 2336 3323 
C 2394 3323 2566 3348 2566 3560 
C 2566 3954 2246 4179 1805 4179 
C 1043 4179 243 3390 243 1984 
C 243 253 966 -128 1478 -128 
C 2099 -128 2688 427 2688 1283 
C 2688 2081 2170 2662 1517 2662 
C 1126 2662 838 2407 678 1960 
L 678 2176 
z
M 1478 25 
C 691 25 691 1200 691 1436 
C 691 1896 909 2560 1504 2560 
C 1613 2560 1926 2560 2138 2120 
C 2253 1870 2253 1609 2253 1289 
C 2253 944 2253 690 2118 434 
C 1978 171 1773 25 1478 25 
z
" transform="scale(0.015625)"/>
       </defs>
       <use xlink:href="#CMR17-36" transform="scale(0.996264)"/>
       <use xlink:href="#CMR17-30" transform="translate(45.690477 0) scale(0.996264)"/>
      </g>
     </g>
    </g>
    <g id="xtick_5">
     <g id="line2d_5">
      <g>
       <use xlink:href="#m582076d132" x="336.179835" y="307.584" style="stroke: #000000; stroke-width: 0.8"/>
      </g>
     </g>
     <g id="text_5">
      <!-- $\mathdefault{80}$ -->
      <g transform="translate(331.198499 321.502498) scale(0.1 -0.1)">
       <defs>
        <path id="CMR17-38" d="M 1741 2264 
C 2144 2467 2554 2773 2554 3263 
C 2554 3841 1990 4179 1472 4179 
C 890 4179 378 3759 378 3180 
C 378 3021 416 2747 666 2505 
C 730 2442 998 2251 1171 2130 
C 883 1983 211 1634 211 934 
C 211 279 838 -128 1459 -128 
C 2144 -128 2720 362 2720 1010 
C 2720 1590 2330 1857 2074 2029 
L 1741 2264 
z
M 902 2822 
C 851 2854 595 3051 595 3351 
C 595 3739 998 4032 1459 4032 
C 1965 4032 2336 3676 2336 3262 
C 2336 2669 1670 2331 1638 2331 
C 1632 2331 1626 2331 1574 2370 
L 902 2822 
z
M 2080 1519 
C 2176 1449 2483 1240 2483 851 
C 2483 381 2010 25 1472 25 
C 890 25 448 438 448 940 
C 448 1443 838 1862 1280 2060 
L 2080 1519 
z
" transform="scale(0.015625)"/>
       </defs>
       <use xlink:href="#CMR17-38" transform="scale(0.996264)"/>
       <use xlink:href="#CMR17-30" transform="translate(45.690477 0) scale(0.996264)"/>
      </g>
     </g>
    </g>
    <g id="xtick_6">
     <g id="line2d_6">
      <g>
       <use xlink:href="#m582076d132" x="401.766612" y="307.584" style="stroke: #000000; stroke-width: 0.8"/>
      </g>
     </g>
     <g id="text_6">
      <!-- $\mathdefault{100}$ -->
      <g transform="translate(394.294609 321.502498) scale(0.1 -0.1)">
       <defs>
        <path id="CMR17-31" d="M 1702 4058 
C 1702 4192 1696 4192 1606 4192 
C 1357 3916 979 3827 621 3827 
C 602 3827 570 3827 563 3808 
C 557 3795 557 3782 557 3648 
C 755 3648 1088 3686 1344 3839 
L 1344 461 
C 1344 236 1331 160 781 160 
L 589 160 
L 589 0 
C 896 0 1216 0 1523 0 
C 1830 0 2150 0 2458 0 
L 2458 160 
L 2266 160 
C 1715 160 1702 230 1702 458 
L 1702 4058 
z
" transform="scale(0.015625)"/>
       </defs>
       <use xlink:href="#CMR17-31" transform="scale(0.996264)"/>
       <use xlink:href="#CMR17-30" transform="translate(45.690477 0) scale(0.996264)"/>
       <use xlink:href="#CMR17-30" transform="translate(91.380954 0) scale(0.996264)"/>
      </g>
     </g>
    </g>
    <g id="text_7">
     <!-- Request Rate at Forwarder (requests/sec) -->
     <g transform="translate(100.146537 339.394845) scale(0.16 -0.16)">
      <defs>
       <path id="CMSS17-52" d="M 2522 2109 
L 2534 2115 
C 3533 2459 3539 3147 3539 3268 
C 3539 3873 2925 4453 2003 4453 
L 570 4453 
L 570 32 
L 1094 32 
L 1094 2048 
L 2035 2048 
L 3168 32 
L 3706 32 
L 2522 2109 
z
M 1094 2437 
L 1094 4096 
L 1933 4096 
C 2746 4096 3034 3637 3034 3267 
C 3034 2922 2778 2437 1933 2437 
L 1094 2437 
z
" transform="scale(0.015625)"/>
       <path id="CMSS17-65" d="M 2502 1377 
C 2502 1590 2490 2003 2285 2345 
C 2061 2713 1696 2816 1421 2816 
C 755 2816 192 2188 192 1375 
C 192 582 774 -64 1510 -64 
C 1798 -64 2150 19 2470 248 
C 2470 274 2458 414 2451 420 
C 2451 433 2432 630 2432 656 
C 2125 407 1773 325 1517 325 
C 1107 325 666 667 646 1377 
L 2502 1377 
z
M 698 1728 
C 781 2084 1062 2421 1421 2421 
C 1517 2421 1965 2421 2080 1728 
L 698 1728 
z
" transform="scale(0.015625)"/>
       <path id="CMSS17-71" d="M 2611 2816 
L 2138 2816 
L 2138 2428 
C 2112 2460 1818 2816 1318 2816 
C 736 2816 211 2228 211 1399 
C 211 633 653 -5 1229 -5 
C 1498 -5 1837 91 2125 365 
L 2125 -1216 
L 2611 -1216 
L 2611 2816 
z
M 2138 914 
C 2138 832 2138 718 1939 554 
C 1888 510 1747 384 1504 384 
C 1050 384 698 850 698 1399 
C 698 2011 1126 2415 1562 2415 
C 1926 2415 2138 2061 2138 1797 
L 2138 914 
z
" transform="scale(0.015625)"/>
       <path id="CMSS17-75" d="M 2618 2739 
L 2131 2739 
L 2131 972 
C 2131 498 1786 306 1421 306 
C 998 306 960 447 960 709 
L 960 2739 
L 474 2739 
L 474 678 
C 474 179 646 -64 1088 -64 
C 1306 -64 1798 -13 2144 306 
L 2144 0 
L 2618 0 
L 2618 2739 
z
" transform="scale(0.015625)"/>
       <path id="CMSS17-73" d="M 2061 2627 
C 1683 2807 1389 2807 1197 2807 
C 742 2807 198 2648 198 2003 
C 198 1359 902 1218 1094 1179 
C 1389 1122 1715 1058 1715 740 
C 1715 337 1254 337 1171 337 
C 915 337 563 407 243 638 
L 166 210 
C 531 0 883 -64 1178 -64 
C 1965 -64 2163 416 2163 781 
C 2163 1094 1984 1305 1862 1401 
C 1651 1568 1574 1587 1050 1696 
C 960 1709 646 1779 646 2066 
C 646 2432 1050 2432 1139 2432 
C 1555 2432 1811 2303 1984 2208 
L 2061 2627 
z
" transform="scale(0.015625)"/>
       <path id="CMSS17-74" d="M 1069 2368 
L 1901 2368 
L 1901 2737 
L 1069 2737 
L 1069 3520 
L 614 3520 
L 614 2737 
L 109 2737 
L 109 2368 
L 602 2368 
L 602 749 
C 602 384 685 -64 1107 -64 
C 1427 -64 1722 25 2003 172 
L 1901 548 
C 1747 414 1562 337 1363 337 
C 1082 337 1069 696 1069 856 
L 1069 2368 
z
" transform="scale(0.015625)"/>
       <path id="CMSS17-61" d="M 2406 1791 
C 2406 2392 1978 2808 1402 2808 
C 1120 2808 813 2757 461 2553 
L 499 2135 
C 659 2248 934 2432 1395 2432 
C 1722 2432 1920 2180 1920 1782 
L 1920 1536 
C 896 1536 256 1238 256 726 
C 256 461 416 -64 947 -64 
C 1043 -64 1562 -64 1933 217 
L 1933 -19 
L 2406 -19 
L 2406 1791 
z
M 1920 816 
C 1920 701 1920 548 1728 434 
C 1562 325 1350 325 1261 325 
C 941 325 723 511 723 744 
C 723 1211 1722 1211 1920 1211 
L 1920 816 
z
" transform="scale(0.015625)"/>
       <path id="CMSS17-46" d="M 2918 1984 
L 2918 2373 
L 1101 2373 
L 1101 3968 
L 1882 3968 
C 1958 3968 2035 3968 2112 3968 
L 3168 3968 
L 3168 4375 
L 563 4375 
L 563 -32 
L 1101 -32 
L 1101 1984 
L 2918 1984 
z
" transform="scale(0.015625)"/>
       <path id="CMSS17-6f" d="M 2829 1356 
C 2829 2176 2221 2816 1504 2816 
C 768 2816 173 2157 173 1356 
C 173 544 787 -64 1498 -64 
C 2227 -64 2829 563 2829 1356 
z
M 1504 337 
C 1050 337 659 709 659 1408 
C 659 2151 1114 2427 1498 2427 
C 1914 2427 2342 2126 2342 1408 
C 2342 683 1926 337 1504 337 
z
" transform="scale(0.015625)"/>
       <path id="CMSS17-72" d="M 954 1363 
C 954 1965 1395 2368 1958 2368 
L 1958 2789 
C 1549 2789 1165 2585 934 2253 
L 934 2758 
L 480 2758 
L 480 0 
L 954 0 
L 954 1363 
z
" transform="scale(0.015625)"/>
       <path id="CMSS17-77" d="M 4013 2752 
L 3526 2752 
L 3187 1601 
C 3117 1358 2918 685 2893 371 
L 2886 371 
C 2874 564 2765 1024 2586 1633 
L 2259 2752 
L 1818 2752 
L 1498 1658 
C 1338 1101 1216 627 1203 371 
L 1197 371 
C 1171 749 909 1633 870 1773 
L 582 2752 
L 83 2752 
L 915 0 
L 1402 0 
C 1734 1096 1990 1943 2010 2370 
C 2022 2160 2131 1707 2195 1484 
L 2618 0 
L 3181 0 
L 4013 2752 
z
" transform="scale(0.015625)"/>
       <path id="CMSS17-64" d="M 2611 4416 
L 2138 4416 
L 2138 2438 
C 1939 2603 1613 2756 1254 2756 
C 672 2756 211 2131 211 1347 
C 211 562 666 -64 1235 -64 
C 1677 -64 1971 172 2125 306 
L 2125 -13 
L 2611 -13 
L 2611 4416 
z
M 2125 836 
C 2125 747 2125 653 1926 482 
C 1798 375 1645 325 1498 325 
C 1152 325 698 576 698 1340 
C 698 2134 1210 2368 1562 2368 
C 1798 2368 1990 2254 2125 2065 
L 2125 836 
z
" transform="scale(0.015625)"/>
       <path id="CMSS17-28" d="M 1613 4768 
C 1267 4417 474 3601 474 1588 
C 474 -433 1267 -1243 1613 -1600 
L 2003 -1600 
C 1216 -784 960 357 960 1581 
C 960 2798 1203 3946 2003 4768 
L 1613 4768 
z
" transform="scale(0.015625)"/>
       <path id="CMSS17-2f" d="M 2637 4545 
C 2669 4627 2669 4640 2669 4653 
C 2669 4729 2611 4768 2560 4768 
C 2483 4768 2458 4717 2432 4640 
L 365 -1377 
C 333 -1460 333 -1473 333 -1486 
C 333 -1562 390 -1600 442 -1600 
C 518 -1600 544 -1549 570 -1473 
L 2637 4545 
z
" transform="scale(0.015625)"/>
       <path id="CMSS17-63" d="M 2464 2541 
C 2464 2585 2170 2714 2093 2739 
C 1882 2816 1613 2816 1542 2816 
C 710 2816 211 2093 211 1363 
C 211 595 768 -64 1517 -64 
C 1946 -64 2253 76 2502 242 
L 2464 664 
C 2189 453 1869 337 1523 337 
C 1024 337 698 774 698 1369 
C 698 1831 909 2414 1549 2414 
C 1901 2414 2099 2343 2394 2145 
L 2464 2541 
z
" transform="scale(0.015625)"/>
       <path id="CMSS17-29" d="M 723 -1600 
C 1069 -1249 1862 -433 1862 1581 
C 1862 3601 1069 4411 723 4768 
L 333 4768 
C 1120 3952 1376 2811 1376 1588 
C 1376 370 1133 -778 333 -1600 
L 723 -1600 
z
" transform="scale(0.015625)"/>
      </defs>
      <use xlink:href="#CMSS17-52" transform="scale(0.996264)"/>
      <use xlink:href="#CMSS17-65" transform="translate(60.416155 0) scale(0.996264)"/>
      <use xlink:href="#CMSS17-71" transform="translate(102.054977 0) scale(0.996264)"/>
      <use xlink:href="#CMSS17-75" transform="translate(150.25992 0) scale(0.996264)"/>
      <use xlink:href="#CMSS17-65" transform="translate(198.464863 0) scale(0.996264)"/>
      <use xlink:href="#CMSS17-73" transform="translate(240.103685 0) scale(0.996264)"/>
      <use xlink:href="#CMSS17-74" transform="translate(276.017227 0) scale(0.996264)"/>
      <use xlink:href="#CMSS17-52" transform="translate(341.077907 0) scale(0.996264)"/>
      <use xlink:href="#CMSS17-61" transform="translate(401.494062 0) scale(0.996264)"/>
      <use xlink:href="#CMSS17-74" transform="translate(446.415982 0) scale(0.996264)"/>
      <use xlink:href="#CMSS17-65" transform="translate(480.247549 0) scale(0.996264)"/>
      <use xlink:href="#CMSS17-61" transform="translate(553.115484 0) scale(0.996264)"/>
      <use xlink:href="#CMSS17-74" transform="translate(598.037404 0) scale(0.996264)"/>
      <use xlink:href="#CMSS17-46" transform="translate(663.098084 0) scale(0.996264)"/>
      <use xlink:href="#CMSS17-6f" transform="translate(713.785189 0) scale(0.996264)"/>
      <use xlink:href="#CMSS17-72" transform="translate(758.026359 0) scale(0.996264)"/>
      <use xlink:href="#CMSS17-77" transform="translate(789.936131 0) scale(0.996264)"/>
      <use xlink:href="#CMSS17-61" transform="translate(851.153222 0) scale(0.996264)"/>
      <use xlink:href="#CMSS17-72" transform="translate(893.472689 0) scale(0.996264)"/>
      <use xlink:href="#CMSS17-64" transform="translate(925.382462 0) scale(0.996264)"/>
      <use xlink:href="#CMSS17-65" transform="translate(973.587405 0) scale(0.996264)"/>
      <use xlink:href="#CMSS17-72" transform="translate(1015.226227 0) scale(0.996264)"/>
      <use xlink:href="#CMSS17-28" transform="translate(1078.365112 0) scale(0.996264)"/>
      <use xlink:href="#CMSS17-72" transform="translate(1114.799026 0) scale(0.996264)"/>
      <use xlink:href="#CMSS17-65" transform="translate(1146.708799 0) scale(0.996264)"/>
      <use xlink:href="#CMSS17-71" transform="translate(1188.347621 0) scale(0.996264)"/>
      <use xlink:href="#CMSS17-75" transform="translate(1236.552564 0) scale(0.996264)"/>
      <use xlink:href="#CMSS17-65" transform="translate(1284.757507 0) scale(0.996264)"/>
      <use xlink:href="#CMSS17-73" transform="translate(1326.396329 0) scale(0.996264)"/>
      <use xlink:href="#CMSS17-74" transform="translate(1362.309871 0) scale(0.996264)"/>
      <use xlink:href="#CMSS17-73" transform="translate(1396.141438 0) scale(0.996264)"/>
      <use xlink:href="#CMSS17-2f" transform="translate(1432.05498 0) scale(0.996264)"/>
      <use xlink:href="#CMSS17-73" transform="translate(1478.898604 0) scale(0.996264)"/>
      <use xlink:href="#CMSS17-65" transform="translate(1514.812145 0) scale(0.996264)"/>
      <use xlink:href="#CMSS17-63" transform="translate(1556.450968 0) scale(0.996264)"/>
      <use xlink:href="#CMSS17-29" transform="translate(1598.08979 0) scale(0.996264)"/>
     </g>
    </g>
   </g>
   <g id="matplotlib.axis_2">
    <g id="ytick_1">
     <g id="line2d_7">
      <defs>
       <path id="me3ceb60d50" d="M 0 0 
L -3.5 0 
" style="stroke: #000000; stroke-width: 0.8"/>
      </defs>
      <g>
       <use xlink:href="#me3ceb60d50" x="57.6" y="295.488" style="stroke: #000000; stroke-width: 0.8"/>
      </g>
     </g>
     <g id="text_8">
      <!-- $\mathdefault{0}$ -->
      <g transform="translate(45.618665 298.947249) scale(0.1 -0.1)">
       <use xlink:href="#CMR17-30" transform="scale(0.996264)"/>
      </g>
     </g>
    </g>
    <g id="ytick_2">
     <g id="line2d_8">
      <g>
       <use xlink:href="#me3ceb60d50" x="57.6" y="252.948436" style="stroke: #000000; stroke-width: 0.8"/>
      </g>
     </g>
     <g id="text_9">
      <!-- $\mathdefault{1}$ -->
      <g transform="translate(45.618665 256.407685) scale(0.1 -0.1)">
       <use xlink:href="#CMR17-31" transform="scale(0.996264)"/>
      </g>
     </g>
    </g>
    <g id="ytick_3">
     <g id="line2d_9">
      <g>
       <use xlink:href="#me3ceb60d50" x="57.6" y="210.408872" style="stroke: #000000; stroke-width: 0.8"/>
      </g>
     </g>
     <g id="text_10">
      <!-- $\mathdefault{2}$ -->
      <g transform="translate(45.618665 213.868121) scale(0.1 -0.1)">
       <use xlink:href="#CMR17-32" transform="scale(0.996264)"/>
      </g>
     </g>
    </g>
    <g id="ytick_4">
     <g id="line2d_10">
      <g>
       <use xlink:href="#me3ceb60d50" x="57.6" y="167.869308" style="stroke: #000000; stroke-width: 0.8"/>
      </g>
     </g>
     <g id="text_11">
      <!-- $\mathdefault{3}$ -->
      <g transform="translate(45.618665 171.328558) scale(0.1 -0.1)">
       <defs>
        <path id="CMR17-33" d="M 1414 2157 
C 1984 2157 2234 1662 2234 1090 
C 2234 320 1824 25 1453 25 
C 1114 25 563 194 390 693 
C 422 680 454 680 486 680 
C 640 680 755 782 755 948 
C 755 1133 614 1216 486 1216 
C 378 1216 211 1165 211 926 
C 211 335 787 -128 1466 -128 
C 2176 -128 2720 430 2720 1085 
C 2720 1707 2208 2157 1600 2227 
C 2086 2328 2554 2756 2554 3329 
C 2554 3820 2048 4179 1472 4179 
C 890 4179 378 3829 378 3329 
C 378 3110 544 3072 627 3072 
C 762 3072 877 3155 877 3321 
C 877 3486 762 3569 627 3569 
C 602 3569 570 3569 544 3557 
C 730 3959 1235 4032 1459 4032 
C 1683 4032 2106 3925 2106 3320 
C 2106 3143 2080 2828 1862 2550 
C 1670 2304 1453 2304 1242 2284 
C 1210 2284 1062 2269 1037 2269 
C 992 2263 966 2257 966 2208 
C 966 2163 973 2157 1101 2157 
L 1414 2157 
z
" transform="scale(0.015625)"/>
       </defs>
       <use xlink:href="#CMR17-33" transform="scale(0.996264)"/>
      </g>
     </g>
    </g>
    <g id="ytick_5">
     <g id="line2d_11">
      <g>
       <use xlink:href="#me3ceb60d50" x="57.6" y="125.329745" style="stroke: #000000; stroke-width: 0.8"/>
      </g>
     </g>
     <g id="text_12">
      <!-- $\mathdefault{4}$ -->
      <g transform="translate(45.618665 128.788994) scale(0.1 -0.1)">
       <use xlink:href="#CMR17-34" transform="scale(0.996264)"/>
      </g>
     </g>
    </g>
    <g id="ytick_6">
     <g id="line2d_12">
      <g>
       <use xlink:href="#me3ceb60d50" x="57.6" y="82.790181" style="stroke: #000000; stroke-width: 0.8"/>
      </g>
     </g>
     <g id="text_13">
      <!-- $\mathdefault{5}$ -->
      <g transform="translate(45.618665 86.24943) scale(0.1 -0.1)">
       <defs>
        <path id="CMR17-35" d="M 730 3692 
C 794 3666 1056 3584 1325 3584 
C 1920 3584 2246 3911 2432 4100 
C 2432 4157 2432 4192 2394 4192 
C 2387 4192 2374 4192 2323 4163 
C 2099 4058 1837 3973 1517 3973 
C 1325 3973 1037 3999 723 4139 
C 653 4171 640 4171 634 4171 
C 602 4171 595 4164 595 4037 
L 595 2203 
C 595 2089 595 2057 659 2057 
C 691 2057 704 2070 736 2114 
C 941 2401 1222 2522 1542 2522 
C 1766 2522 2246 2382 2246 1289 
C 2246 1085 2246 715 2054 421 
C 1894 159 1645 25 1370 25 
C 947 25 518 320 403 814 
C 429 807 480 795 506 795 
C 589 795 749 840 749 1038 
C 749 1210 627 1280 506 1280 
C 358 1280 262 1190 262 1011 
C 262 454 704 -128 1382 -128 
C 2042 -128 2669 440 2669 1264 
C 2669 2030 2170 2624 1549 2624 
C 1222 2624 947 2503 730 2274 
L 730 3692 
z
" transform="scale(0.015625)"/>
       </defs>
       <use xlink:href="#CMR17-35" transform="scale(0.996264)"/>
      </g>
     </g>
    </g>
    <g id="text_14">
     <!-- Avg. \# of Pkts on Link $(a,b)$ -->
     <g transform="translate(37.633609 271.875753) rotate(-90) scale(0.16 -0.16)">
      <defs>
       <path id="CMSS17-41" d="M 2272 4416 
L 1722 4416 
L 166 0 
L 653 0 
L 1101 1280 
L 2816 1280 
L 3270 0 
L 3827 0 
L 2272 4416 
z
M 2694 1637 
L 1222 1637 
C 1530 2528 1914 3638 1958 3925 
L 1965 3925 
C 2010 3663 2138 3281 2246 2956 
L 2694 1637 
z
" transform="scale(0.015625)"/>
       <path id="CMSS17-76" d="M 2675 2752 
L 2176 2752 
L 1747 1556 
C 1613 1165 1421 627 1389 352 
L 1382 352 
C 1370 468 1318 634 1286 749 
C 1248 890 1197 1056 1158 1172 
L 595 2752 
L 83 2752 
L 1094 0 
L 1664 0 
L 2675 2752 
z
" transform="scale(0.015625)"/>
       <path id="CMSS17-67" d="M 2848 2808 
C 2483 2808 2170 2738 1914 2617 
C 1702 2777 1485 2808 1338 2808 
C 781 2808 358 2349 358 1814 
C 358 1468 550 1207 563 1195 
C 448 1035 384 863 384 672 
C 384 448 474 289 544 200 
C 211 -3 166 -314 166 -435 
C 166 -898 749 -1280 1498 -1280 
C 2253 -1280 2835 -898 2835 -428 
C 2835 448 1856 448 1587 448 
L 1069 448 
C 973 448 717 448 717 791 
C 717 921 774 1004 781 1010 
C 877 940 1075 832 1338 832 
C 1869 832 2310 1278 2310 1827 
C 2310 2132 2170 2355 2112 2432 
L 2131 2432 
C 2150 2432 2419 2432 2515 2432 
C 2720 2432 2739 2429 2918 2419 
L 2848 2808 
z
M 1338 1182 
C 1120 1182 813 1315 813 1823 
C 813 2375 1165 2464 1331 2464 
C 1549 2464 1856 2331 1856 1823 
C 1856 1271 1504 1182 1338 1182 
z
M 1581 -10 
C 1734 -10 2381 -10 2381 -442 
C 2381 -714 1984 -929 1504 -929 
C 1018 -929 621 -720 621 -435 
C 621 -403 621 -10 1062 -10 
L 1581 -10 
z
" transform="scale(0.015625)"/>
       <path id="CMSS17-2e" d="M 1088 510 
L 576 510 
L 576 0 
L 1088 0 
L 1088 510 
z
" transform="scale(0.015625)"/>
       <path id="CMSS17-23" d="M 3142 896 
L 4461 896 
C 4570 896 4678 896 4678 1011 
C 4678 1119 4582 1119 4486 1119 
L 3206 1119 
L 3424 2017 
L 4486 2017 
C 4582 2017 4678 2017 4678 2125 
C 4678 2240 4570 2240 4461 2240 
L 3488 2240 
L 3981 4184 
C 4000 4248 4006 4280 4006 4300 
C 4006 4364 3955 4416 3891 4416 
C 3802 4416 3782 4326 3770 4275 
L 3258 2240 
L 2099 2240 
L 2592 4184 
C 2611 4248 2618 4280 2618 4300 
C 2618 4364 2566 4416 2502 4416 
C 2413 4416 2394 4326 2381 4275 
L 1869 2240 
L 550 2240 
C 442 2240 333 2240 333 2125 
C 333 2017 429 2017 525 2017 
L 1805 2017 
L 1587 1119 
L 525 1119 
C 429 1119 333 1119 333 1011 
C 333 896 442 896 550 896 
L 1523 896 
L 1030 -1020 
C 1011 -1083 1005 -1114 1005 -1134 
C 1005 -1197 1056 -1248 1120 -1248 
C 1210 -1248 1229 -1159 1242 -1109 
L 1754 896 
L 2912 896 
L 2419 -1020 
C 2400 -1083 2394 -1114 2394 -1134 
C 2394 -1197 2445 -1248 2509 -1248 
C 2598 -1248 2618 -1159 2630 -1109 
L 3142 896 
z
M 1818 1119 
L 2035 2017 
L 3194 2017 
L 2976 1119 
L 1818 1119 
z
" transform="scale(0.015625)"/>
       <path id="CMSS17-66" d="M 1075 2368 
L 1722 2368 
L 1722 2737 
L 1062 2737 
L 1062 3559 
C 1062 4014 1408 4092 1606 4092 
C 1670 4092 1850 4092 2080 4009 
L 2080 4429 
C 1933 4461 1754 4480 1613 4480 
C 1018 4480 602 3993 602 3359 
L 602 2737 
L 160 2737 
L 160 2368 
L 602 2368 
L 602 0 
L 1075 0 
L 1075 2368 
z
" transform="scale(0.015625)"/>
       <path id="CMSS17-50" d="M 2106 1856 
C 2874 1856 3501 2453 3501 3158 
C 3501 3850 2899 4453 2067 4453 
L 570 4453 
L 570 0 
L 1107 0 
L 1107 1856 
L 2106 1856 
z
M 1926 4096 
C 2669 4096 2995 3627 2995 3157 
C 2995 2720 2694 2226 1926 2226 
L 1094 2226 
L 1094 4096 
L 1926 4096 
z
" transform="scale(0.015625)"/>
       <path id="CMSS17-6b" d="M 1696 1688 
L 2688 2739 
L 2074 2739 
L 954 1554 
L 954 4416 
L 480 4416 
L 480 0 
L 947 0 
L 947 892 
L 1376 1344 
L 2278 0 
L 2822 0 
L 1696 1688 
z
" transform="scale(0.015625)"/>
       <path id="CMSS17-6e" d="M 2618 1877 
C 2618 2283 2522 2816 1798 2816 
C 1389 2816 1120 2606 941 2389 
L 941 2758 
L 474 2758 
L 474 0 
L 960 0 
L 960 1559 
C 960 1964 1114 2428 1549 2428 
C 2112 2428 2131 2048 2131 1829 
L 2131 0 
L 2618 0 
L 2618 1877 
z
" transform="scale(0.015625)"/>
       <path id="CMSS17-4c" d="M 1670 414 
C 1594 414 1517 414 1440 414 
L 1101 414 
L 1101 4416 
L 563 4416 
L 563 0 
L 3002 0 
L 3002 414 
L 1670 414 
z
" transform="scale(0.015625)"/>
       <path id="CMSS17-69" d="M 979 4183 
L 442 4183 
L 442 3648 
L 979 3648 
L 979 4183 
z
M 947 2739 
L 474 2739 
L 474 0 
L 947 0 
L 947 2739 
z
" transform="scale(0.015625)"/>
       <path id="CMR17-28" d="M 1958 -1561 
C 1958 -1555 1958 -1542 1939 -1523 
C 1645 -1224 858 -407 858 1581 
C 858 3569 1632 4379 1946 4697 
C 1946 4704 1958 4717 1958 4736 
C 1958 4755 1939 4768 1914 4768 
C 1843 4768 1299 4296 986 3594 
C 666 2887 576 2199 576 1588 
C 576 1128 621 351 1005 -471 
C 1312 -1135 1837 -1600 1914 -1600 
C 1946 -1600 1958 -1587 1958 -1561 
z
" transform="scale(0.015625)"/>
       <path id="CMMI12-61" d="M 1926 760 
C 1894 651 1894 639 1805 517 
C 1664 338 1382 64 1082 64 
C 819 64 672 300 672 677 
C 672 1028 870 1743 992 2012 
C 1210 2459 1510 2689 1760 2689 
C 2182 2689 2266 2165 2266 2114 
C 2266 2108 2246 2024 2240 2012 
L 1926 760 
z
M 2336 2395 
C 2266 2561 2093 2816 1760 2816 
C 1037 2816 256 1884 256 939 
C 256 307 627 -64 1062 -64 
C 1414 -64 1715 211 1894 422 
C 1958 45 2259 -64 2451 -64 
C 2643 -64 2797 51 2912 281 
C 3014 498 3104 888 3104 913 
C 3104 945 3078 971 3040 971 
C 2982 971 2976 939 2950 843 
C 2854 466 2733 64 2470 64 
C 2285 64 2272 230 2272 358 
C 2272 505 2291 575 2349 824 
C 2394 984 2426 1124 2477 1309 
C 2714 2267 2771 2497 2771 2535 
C 2771 2625 2701 2695 2605 2695 
C 2400 2695 2349 2472 2336 2395 
z
" transform="scale(0.015625)"/>
       <path id="CMMI12-3b" d="M 1248 -31 
C 1248 343 1126 619 864 619 
C 659 619 557 453 557 313 
C 557 172 653 0 870 0 
C 954 0 1024 26 1082 83 
C 1094 96 1101 96 1107 96 
C 1120 96 1120 5 1120 -27 
C 1120 -240 1082 -659 710 -1080 
C 640 -1157 640 -1170 640 -1183 
C 640 -1216 672 -1248 704 -1248 
C 755 -1248 1248 -771 1248 -31 
z
" transform="scale(0.015625)"/>
       <path id="CMMI12-62" d="M 1478 4257 
C 1485 4283 1498 4321 1498 4352 
C 1498 4416 1434 4416 1421 4416 
C 1414 4416 1184 4393 1069 4377 
C 960 4377 864 4358 749 4358 
C 595 4345 550 4339 550 4224 
C 550 4160 614 4160 678 4160 
C 1005 4160 1005 4103 1005 4040 
C 1005 3996 954 3811 928 3696 
L 774 3085 
C 710 2831 346 1387 320 1272 
C 288 1114 288 1005 288 922 
C 288 274 653 -64 1069 -64 
C 1811 -64 2579 888 2579 1814 
C 2579 2401 2246 2816 1766 2816 
C 1434 2816 1133 2542 1011 2414 
L 1478 4257 
z
M 1075 64 
C 870 64 646 217 646 715 
C 646 926 666 1047 781 1494 
C 800 1577 902 1986 928 2069 
C 941 2120 1318 2689 1754 2689 
C 2035 2689 2163 2408 2163 2076 
C 2163 1769 1984 1047 1824 715 
C 1664 370 1370 64 1075 64 
z
" transform="scale(0.015625)"/>
       <path id="CMR17-29" d="M 1683 1581 
C 1683 2040 1638 2817 1254 3639 
C 947 4303 422 4768 346 4768 
C 326 4768 301 4761 301 4729 
C 301 4717 307 4710 314 4697 
C 621 4378 1402 3568 1402 1584 
C 1402 -407 627 -1217 314 -1537 
C 307 -1549 301 -1556 301 -1568 
C 301 -1600 326 -1600 346 -1600 
C 416 -1600 960 -1128 1274 -426 
C 1594 281 1683 969 1683 1581 
z
" transform="scale(0.015625)"/>
      </defs>
      <use xlink:href="#CMSS17-41" transform="scale(0.996264)"/>
      <use xlink:href="#CMSS17-76" transform="translate(62.217855 0) scale(0.996264)"/>
      <use xlink:href="#CMSS17-67" transform="translate(105.217997 0) scale(0.996264)"/>
      <use xlink:href="#CMSS17-2e" transform="translate(152.06162 0) scale(0.996264)"/>
      <use xlink:href="#CMSS17-23" transform="translate(219.724632 0) scale(0.996264)"/>
      <use xlink:href="#CMSS17-6f" transform="translate(329.026481 0) scale(0.996264)"/>
      <use xlink:href="#CMSS17-66" transform="translate(375.870104 0) scale(0.996264)"/>
      <use xlink:href="#CMSS17-50" transform="translate(435.725876 0) scale(0.996264)"/>
      <use xlink:href="#CMSS17-6b" transform="translate(495.461462 0) scale(0.996264)"/>
      <use xlink:href="#CMSS17-74" transform="translate(541.063951 0) scale(0.996264)"/>
      <use xlink:href="#CMSS17-73" transform="translate(574.895518 0) scale(0.996264)"/>
      <use xlink:href="#CMSS17-6f" transform="translate(642.038173 0) scale(0.996264)"/>
      <use xlink:href="#CMSS17-6e" transform="translate(688.881796 0) scale(0.996264)"/>
      <use xlink:href="#CMSS17-4c" transform="translate(768.315852 0) scale(0.996264)"/>
      <use xlink:href="#CMSS17-69" transform="translate(819.002958 0) scale(0.996264)"/>
      <use xlink:href="#CMSS17-6e" transform="translate(841.183681 0) scale(0.996264)"/>
      <use xlink:href="#CMSS17-6b" transform="translate(889.388624 0) scale(0.996264)"/>
      <use xlink:href="#CMR17-28" transform="translate(966.220226 0) scale(0.996264)"/>
      <use xlink:href="#CMMI12-61" transform="translate(1001.500994 0) scale(0.996264)"/>
      <use xlink:href="#CMMI12-3b" transform="translate(1052.708851 0) scale(0.996264)"/>
      <use xlink:href="#CMMI12-62" transform="translate(1096.410434 0) scale(0.996264)"/>
      <use xlink:href="#CMR17-29" transform="translate(1137.886308 0) scale(0.996264)"/>
     </g>
    </g>
   </g>
   <g id="line2d_13">
    <path d="M 73.832727 295.488 
L 77.112066 295.119399 
L 80.391405 294.744355 
L 83.670744 294.362697 
L 86.950083 293.974248 
L 90.229421 293.578826 
L 93.50876 293.176241 
L 96.788099 292.766297 
L 100.067438 292.348789 
L 103.346777 291.923508 
L 106.626116 291.490233 
L 109.905455 291.048737 
L 113.184793 290.598784 
L 116.464132 290.140128 
L 119.743471 289.672516 
L 123.02281 289.19568 
L 126.302149 288.709347 
L 129.581488 288.21323 
L 132.860826 287.707029 
L 136.140165 287.190435 
L 139.419504 286.663124 
L 142.698843 286.12476 
L 145.978182 285.574991 
L 149.257521 285.01345 
L 152.53686 284.439755 
L 155.816198 283.853509 
L 159.095537 283.254293 
L 162.374876 282.641674 
L 165.654215 282.015196 
L 168.933554 281.374383 
L 172.212893 280.718738 
L 175.492231 280.047739 
L 178.77157 279.360842 
L 182.050909 278.657474 
L 185.330248 277.937036 
L 188.609587 277.198898 
L 191.888926 276.442401 
L 195.168264 275.66685 
L 198.447603 274.871517 
L 201.726942 274.055635 
L 205.006281 273.218397 
L 208.28562 272.358954 
L 211.564959 271.47641 
L 214.844298 270.569821 
L 218.123636 269.638191 
L 221.402975 268.680468 
L 224.682314 267.69554 
L 227.961653 266.682232 
L 231.240992 265.639298 
L 234.520331 264.56542 
L 237.799669 263.459201 
L 241.079008 262.319157 
L 244.358347 261.143712 
L 247.637686 259.931192 
L 250.917025 258.679814 
L 254.196364 257.38768 
L 257.475702 256.052766 
L 260.755041 254.672912 
L 264.03438 253.245809 
L 267.313719 251.768989 
L 270.593058 250.239807 
L 273.872397 248.655428 
L 277.151736 247.012808 
L 280.431074 245.308677 
L 283.710413 243.539513 
L 286.989752 241.701521 
L 290.269091 239.790605 
L 293.54843 237.802337 
L 296.827769 235.731923 
L 300.107107 233.574165 
L 303.386446 231.323417 
L 306.665785 228.973535 
L 309.945124 226.517822 
L 313.224463 223.948965 
L 316.503802 221.258959 
L 319.78314 218.439027 
L 323.062479 215.479523 
L 326.341818 212.369822 
L 329.621157 209.098192 
L 332.900496 205.651648 
L 336.179835 202.015776 
L 339.459174 198.174536 
L 342.738512 194.110022 
L 346.017851 189.802185 
L 349.29719 185.2285 
L 352.576529 180.363574 
L 355.855868 175.178675 
L 359.135207 169.641161 
L 362.414545 163.713795 
L 365.693884 157.353906 
L 368.973223 150.512359 
L 372.252562 143.132283 
L 375.531901 135.147489 
L 378.81124 126.480476 
L 382.090579 117.039909 
L 385.369917 106.717389 
L 388.649256 95.383268 
L 391.928595 82.881181 
L 395.207934 69.020785 
L 398.487273 53.568 
" clip-path="url(#pbf1b54d9e8)" style="fill: none; stroke: #1f77b4; stroke-width: 2; stroke-linecap: square"/>
   </g>
   <g id="line2d_14">
    <path d="M 73.832727 295.488 
L 77.112066 295.143773 
L 80.391405 294.793929 
L 83.670744 294.438331 
L 86.950083 294.076834 
L 90.229421 293.709292 
L 93.50876 293.33555 
L 96.788099 292.955451 
L 100.067438 292.568831 
L 103.346777 292.175521 
L 106.626116 291.775346 
L 109.905455 291.368125 
L 113.184793 290.953669 
L 116.464132 290.531784 
L 119.743471 290.102268 
L 123.02281 289.664914 
L 126.302149 289.219503 
L 129.581488 288.765812 
L 132.860826 288.303607 
L 136.140165 287.832647 
L 139.419504 287.35268 
L 142.698843 286.863446 
L 145.978182 286.364673 
L 149.257521 285.856079 
L 152.53686 285.337372 
L 155.816198 284.808248 
L 159.095537 284.268388 
L 162.374876 283.717464 
L 165.654215 283.155131 
L 168.933554 282.581031 
L 172.212893 281.994791 
L 175.492231 281.396022 
L 178.77157 280.784318 
L 182.050909 280.159255 
L 185.330248 279.52039 
L 188.609587 278.867262 
L 191.888926 278.199387 
L 195.168264 277.516261 
L 198.447603 276.817354 
L 201.726942 276.102114 
L 205.006281 275.369961 
L 208.28562 274.620289 
L 211.564959 273.852459 
L 214.844298 273.065807 
L 218.123636 272.259629 
L 221.402975 271.43319 
L 224.682314 270.585717 
L 227.961653 269.716397 
L 231.240992 268.824372 
L 234.520331 267.908743 
L 237.799669 266.96856 
L 241.079008 266.002821 
L 244.358347 265.010471 
L 247.637686 263.990393 
L 250.917025 262.94141 
L 254.196364 261.862275 
L 257.475702 260.751669 
L 260.755041 259.608195 
L 264.03438 258.430372 
L 267.313719 257.216629 
L 270.593058 255.965298 
L 273.872397 254.674603 
L 277.151736 253.34266 
L 280.431074 251.967457 
L 283.710413 250.546853 
L 286.989752 249.078562 
L 290.269091 247.560141 
L 293.54843 245.988979 
L 296.827769 244.362279 
L 300.107107 242.677043 
L 303.386446 240.930055 
L 306.665785 239.117856 
L 309.945124 237.236726 
L 313.224463 235.282656 
L 316.503802 233.251319 
L 319.78314 231.13804 
L 323.062479 228.937759 
L 326.341818 226.64499 
L 329.621157 224.253777 
L 332.900496 221.75764 
L 336.179835 219.149518 
L 339.459174 216.421702 
L 342.738512 213.56576 
L 346.017851 210.572446 
L 349.29719 207.431606 
L 352.576529 204.132057 
L 355.855868 200.661458 
L 359.135207 197.006154 
L 362.414545 193.150998 
L 365.693884 189.079137 
L 368.973223 184.771772 
L 372.252562 180.207863 
L 375.531901 175.363788 
L 378.81124 170.212931 
L 382.090579 164.725195 
L 385.369917 158.866415 
L 388.649256 152.597643 
L 391.928595 145.874282 
L 395.207934 138.645023 
L 398.487273 130.850535 
" clip-path="url(#pbf1b54d9e8)" style="fill: none; stroke: #ff7f0e; stroke-width: 2; stroke-linecap: square"/>
   </g>
   <g id="line2d_15">
    <path d="M 73.832727 295.488 
L 77.112066 295.184296 
L 80.391405 294.876224 
L 83.670744 294.563689 
L 86.950083 294.246595 
L 90.229421 293.924839 
L 93.50876 293.59832 
L 96.788099 293.266929 
L 100.067438 292.930557 
L 103.346777 292.589092 
L 106.626116 292.242416 
L 109.905455 291.89041 
L 113.184793 291.532949 
L 116.464132 291.169906 
L 119.743471 290.801148 
L 123.02281 290.426541 
L 126.302149 290.045943 
L 129.581488 289.65921 
L 132.860826 289.266192 
L 136.140165 288.866734 
L 139.419504 288.460678 
L 142.698843 288.047859 
L 145.978182 287.628105 
L 149.257521 287.201241 
L 152.53686 286.767084 
L 155.816198 286.325446 
L 159.095537 285.876132 
L 162.374876 285.418941 
L 165.654215 284.953662 
L 168.933554 284.48008 
L 172.212893 283.99797 
L 175.492231 283.5071 
L 178.77157 283.007229 
L 182.050909 282.498107 
L 185.330248 281.979475 
L 188.609587 281.451064 
L 191.888926 280.912594 
L 195.168264 280.363776 
L 198.447603 279.804309 
L 201.726942 279.233879 
L 205.006281 278.652161 
L 208.28562 278.058817 
L 211.564959 277.453494 
L 214.844298 276.835827 
L 218.123636 276.205433 
L 221.402975 275.561915 
L 224.682314 274.90486 
L 227.961653 274.233835 
L 231.240992 273.54839 
L 234.520331 272.848055 
L 237.799669 272.13234 
L 241.079008 271.400732 
L 244.358347 270.652697 
L 247.637686 269.887674 
L 250.917025 269.105078 
L 254.196364 268.304297 
L 257.475702 267.484689 
L 260.755041 266.645583 
L 264.03438 265.786274 
L 267.313719 264.906024 
L 270.593058 264.004058 
L 273.872397 263.079562 
L 277.151736 262.131682 
L 280.431074 261.159519 
L 283.710413 260.162127 
L 286.989752 259.138512 
L 290.269091 258.087626 
L 293.54843 257.008364 
L 296.827769 255.899561 
L 300.107107 254.759987 
L 303.386446 253.588344 
L 306.665785 252.383259 
L 309.945124 251.143278 
L 313.224463 249.866865 
L 316.503802 248.552388 
L 319.78314 247.198121 
L 323.062479 245.802228 
L 326.341818 244.362761 
L 329.621157 242.877646 
L 332.900496 241.344678 
L 336.179835 239.761505 
L 339.459174 238.12562 
L 342.738512 236.434347 
L 346.017851 234.684823 
L 349.29719 232.873987 
L 352.576529 230.998558 
L 355.855868 229.055016 
L 359.135207 227.039584 
L 362.414545 224.948197 
L 365.693884 222.776478 
L 368.973223 220.519709 
L 372.252562 218.172794 
L 375.531901 215.730221 
L 378.81124 213.186021 
L 382.090579 210.533715 
L 385.369917 207.766265 
L 388.649256 204.876006 
L 391.928595 201.854577 
L 395.207934 198.692842 
L 398.487273 195.380795 
" clip-path="url(#pbf1b54d9e8)" style="fill: none; stroke: #2ca02c; stroke-width: 2; stroke-linecap: square"/>
   </g>
   <g id="line2d_16">
    <path d="M 73.832727 295.488 
L 77.112066 295.222177 
L 80.391405 294.95301 
L 83.670744 294.680437 
L 86.950083 294.404393 
L 90.229421 294.12481 
L 93.50876 293.84162 
L 96.788099 293.554754 
L 100.067438 293.264138 
L 103.346777 292.969699 
L 106.626116 292.67136 
L 109.905455 292.369045 
L 113.184793 292.062673 
L 116.464132 291.752161 
L 119.743471 291.437425 
L 123.02281 291.118379 
L 126.302149 290.794934 
L 129.581488 290.466996 
L 132.860826 290.134474 
L 136.140165 289.797268 
L 139.419504 289.455281 
L 142.698843 289.108409 
L 145.978182 288.756547 
L 149.257521 288.399587 
L 152.53686 288.037417 
L 155.816198 287.669922 
L 159.095537 287.296984 
L 162.374876 286.918481 
L 165.654215 286.534287 
L 168.933554 286.144274 
L 172.212893 285.748308 
L 175.492231 285.346251 
L 178.77157 284.937962 
L 182.050909 284.523295 
L 185.330248 284.102099 
L 188.609587 283.674219 
L 191.888926 283.239495 
L 195.168264 282.797761 
L 198.447603 282.348846 
L 201.726942 281.892573 
L 205.006281 281.428761 
L 208.28562 280.95722 
L 211.564959 280.477756 
L 214.844298 279.990167 
L 218.123636 279.494246 
L 221.402975 278.989777 
L 224.682314 278.476536 
L 227.961653 277.954294 
L 231.240992 277.422811 
L 234.520331 276.88184 
L 237.799669 276.331123 
L 241.079008 275.770397 
L 244.358347 275.199385 
L 247.637686 274.617801 
L 250.917025 274.02535 
L 254.196364 273.421723 
L 257.475702 272.806602 
L 260.755041 272.179655 
L 264.03438 271.540538 
L 267.313719 270.888893 
L 270.593058 270.224348 
L 273.872397 269.546516 
L 277.151736 268.854994 
L 280.431074 268.149364 
L 283.710413 267.429189 
L 286.989752 266.694015 
L 290.269091 265.943368 
L 293.54843 265.176756 
L 296.827769 264.393662 
L 300.107107 263.59355 
L 303.386446 262.775859 
L 306.665785 261.940002 
L 309.945124 261.085369 
L 313.224463 260.211319 
L 316.503802 259.317182 
L 319.78314 258.402259 
L 323.062479 257.465816 
L 326.341818 256.507084 
L 329.621157 255.525258 
L 332.900496 254.519494 
L 336.179835 253.488906 
L 339.459174 252.432562 
L 342.738512 251.349485 
L 346.017851 250.238647 
L 349.29719 249.098968 
L 352.576529 247.929309 
L 355.855868 246.728471 
L 359.135207 245.495191 
L 362.414545 244.228136 
L 365.693884 242.925899 
L 368.973223 241.586995 
L 372.252562 240.209853 
L 375.531901 238.792811 
L 378.81124 237.334109 
L 382.090579 235.831882 
L 385.369917 234.284155 
L 388.649256 232.688826 
L 391.928595 231.043666 
L 395.207934 229.346303 
L 398.487273 227.594213 
" clip-path="url(#pbf1b54d9e8)" style="fill: none; stroke: #d62728; stroke-width: 2; stroke-linecap: square"/>
   </g>
   <g id="line2d_17">
    <path d="M 73.832727 295.488 
L 77.112066 295.267378 
L 80.391405 295.044455 
L 83.670744 294.819196 
L 86.950083 294.591564 
L 90.229421 294.36152 
L 93.50876 294.129027 
L 96.788099 293.894045 
L 100.067438 293.656533 
L 103.346777 293.416452 
L 106.626116 293.173758 
L 109.905455 292.928409 
L 113.184793 292.680361 
L 116.464132 292.42957 
L 119.743471 292.175989 
L 123.02281 291.919572 
L 126.302149 291.660271 
L 129.581488 291.398037 
L 132.860826 291.132819 
L 136.140165 290.864568 
L 139.419504 290.59323 
L 142.698843 290.318752 
L 145.978182 290.041078 
L 149.257521 289.760154 
L 152.53686 289.475921 
L 155.816198 289.188321 
L 159.095537 288.897293 
L 162.374876 288.602776 
L 165.654215 288.304707 
L 168.933554 288.00302 
L 172.212893 287.697651 
L 175.492231 287.38853 
L 178.77157 287.075589 
L 182.050909 286.758756 
L 185.330248 286.437957 
L 188.609587 286.113119 
L 191.888926 285.784165 
L 195.168264 285.451014 
L 198.447603 285.113588 
L 201.726942 284.771803 
L 205.006281 284.425573 
L 208.28562 284.074813 
L 211.564959 283.719431 
L 214.844298 283.359337 
L 218.123636 282.994435 
L 221.402975 282.62463 
L 224.682314 282.24982 
L 227.961653 281.869906 
L 231.240992 281.48478 
L 234.520331 281.094335 
L 237.799669 280.698461 
L 241.079008 280.297042 
L 244.358347 279.889963 
L 247.637686 279.477102 
L 250.917025 279.058335 
L 254.196364 278.633535 
L 257.475702 278.20257 
L 260.755041 277.765305 
L 264.03438 277.321602 
L 267.313719 276.871315 
L 270.593058 276.414299 
L 273.872397 275.950401 
L 277.151736 275.479465 
L 280.431074 275.001328 
L 283.710413 274.515825 
L 286.989752 274.022784 
L 290.269091 273.522029 
L 293.54843 273.013376 
L 296.827769 272.496637 
L 300.107107 271.971618 
L 303.386446 271.438119 
L 306.665785 270.895932 
L 309.945124 270.344844 
L 313.224463 269.784632 
L 316.503802 269.21507 
L 319.78314 268.63592 
L 323.062479 268.046939 
L 326.341818 267.447874 
L 329.621157 266.838463 
L 332.900496 266.218438 
L 336.179835 265.587517 
L 339.459174 264.945411 
L 342.738512 264.291821 
L 346.017851 263.626434 
L 349.29719 262.948929 
L 352.576529 262.258972 
L 355.855868 261.556216 
L 359.135207 260.840302 
L 362.414545 260.110857 
L 365.693884 259.367493 
L 368.973223 258.609809 
L 372.252562 257.837386 
L 375.531901 257.04979 
L 378.81124 256.24657 
L 382.090579 255.427255 
L 385.369917 254.591359 
L 388.649256 253.738371 
L 391.928595 252.867762 
L 395.207934 251.978981 
L 398.487273 251.071452 
" clip-path="url(#pbf1b54d9e8)" style="fill: none; stroke: #9467bd; stroke-width: 2; stroke-linecap: square"/>
   </g>
   <g id="patch_3">
    <path d="M 57.6 307.584 
L 57.6 41.472 
" style="fill: none; stroke: #000000; stroke-width: 0.8; stroke-linejoin: miter; stroke-linecap: square"/>
   </g>
   <g id="patch_4">
    <path d="M 414.72 307.584 
L 414.72 41.472 
" style="fill: none; stroke: #000000; stroke-width: 0.8; stroke-linejoin: miter; stroke-linecap: square"/>
   </g>
   <g id="patch_5">
    <path d="M 57.6 307.584 
L 414.72 307.584 
" style="fill: none; stroke: #000000; stroke-width: 0.8; stroke-linejoin: miter; stroke-linecap: square"/>
   </g>
   <g id="patch_6">
    <path d="M 57.6 41.472 
L 414.72 41.472 
" style="fill: none; stroke: #000000; stroke-width: 0.8; stroke-linejoin: miter; stroke-linecap: square"/>
   </g>
   <g id="text_15">
    <!-- Impact of Cache Size on Delay -->
    <g transform="translate(135.948931 35.472) scale(0.16 -0.16)">
     <defs>
      <path id="CMSS17-49" d="M 1094 4416 
L 557 4416 
L 557 0 
L 1094 0 
L 1094 4416 
z
" transform="scale(0.015625)"/>
      <path id="CMSS17-6d" d="M 4288 1877 
C 4288 2308 4179 2816 3462 2816 
C 2982 2816 2694 2516 2566 2331 
C 2451 2670 2182 2816 1798 2816 
C 1363 2816 1088 2568 941 2389 
L 941 2758 
L 474 2758 
L 474 0 
L 960 0 
L 960 1559 
C 960 1939 1101 2428 1555 2428 
C 2138 2428 2138 2016 2138 1829 
L 2138 0 
L 2624 0 
L 2624 1559 
C 2624 1939 2765 2428 3219 2428 
C 3802 2428 3802 2016 3802 1829 
L 3802 0 
L 4288 0 
L 4288 1877 
z
" transform="scale(0.015625)"/>
      <path id="CMSS17-70" d="M 966 333 
C 1178 129 1466 -5 1773 -5 
C 2368 -5 2880 603 2880 1412 
C 2880 2159 2496 2816 1946 2816 
C 1626 2816 1242 2702 954 2472 
L 954 2765 
L 480 2765 
L 480 -1216 
L 966 -1216 
L 966 333 
z
M 966 2100 
C 1018 2176 1235 2415 1587 2415 
C 2035 2415 2394 1960 2394 1412 
C 2394 787 1958 384 1530 384 
C 1402 384 1267 415 1139 523 
C 966 674 966 768 966 857 
L 966 2100 
z
" transform="scale(0.015625)"/>
      <path id="CMSS17-43" d="M 3501 714 
C 3072 427 2874 344 2355 344 
C 1459 344 934 1303 934 2179 
C 934 3112 1472 4032 2381 4032 
C 2790 4032 3059 3918 3386 3715 
L 3475 4217 
C 3168 4370 2778 4440 2387 4440 
C 1158 4440 397 3316 397 2179 
C 397 927 1299 -64 2323 -64 
C 2874 -64 3066 -19 3539 280 
L 3501 714 
z
" transform="scale(0.015625)"/>
      <path id="CMSS17-68" d="M 2618 1891 
C 2618 2292 2522 2820 1798 2820 
C 1395 2820 1133 2623 947 2407 
L 947 4448 
L 474 4448 
L 474 32 
L 960 32 
L 960 1573 
C 960 1973 1114 2432 1549 2432 
C 2112 2432 2131 2056 2131 1839 
L 2131 32 
L 2618 32 
L 2618 1891 
z
" transform="scale(0.015625)"/>
      <path id="CMSS17-53" d="M 2797 4169 
C 2515 4334 2208 4480 1690 4480 
C 864 4480 333 3879 333 3266 
C 333 3025 403 2753 653 2475 
C 902 2196 1184 2121 1542 2033 
C 1690 1994 1939 1924 1984 1906 
C 2342 1767 2515 1444 2515 1140 
C 2515 742 2202 318 1645 318 
C 1453 318 890 318 358 819 
L 269 318 
C 794 -64 1363 -128 1651 -128 
C 2438 -128 3002 488 3002 1186 
C 3002 1440 2925 1763 2656 2061 
C 2394 2347 2163 2410 1638 2549 
C 1338 2626 1146 2677 986 2873 
C 877 3013 819 3146 819 3317 
C 819 3673 1126 4060 1690 4060 
C 1971 4060 2336 4002 2707 3660 
L 2797 4169 
z
" transform="scale(0.015625)"/>
      <path id="CMSS17-7a" d="M 2400 2502 
L 2400 2750 
L 250 2750 
L 250 2368 
L 1069 2368 
C 1146 2368 1222 2368 1299 2368 
L 1747 2368 
L 166 261 
L 166 0 
L 2419 0 
L 2419 395 
L 1549 395 
C 1472 395 1395 395 1318 395 
L 826 395 
L 2400 2502 
z
" transform="scale(0.015625)"/>
      <path id="CMSS17-44" d="M 570 4416 
L 570 0 
L 2144 0 
C 3194 0 4000 980 4000 2170 
C 4000 3398 3194 4416 2144 4416 
L 570 4416 
z
M 1094 357 
L 1094 4059 
L 2003 4059 
C 2861 4059 3475 3277 3475 2170 
C 3475 1107 2867 357 2003 357 
L 1094 357 
z
" transform="scale(0.015625)"/>
      <path id="CMSS17-6c" d="M 947 4416 
L 474 4416 
L 474 0 
L 947 0 
L 947 4416 
z
" transform="scale(0.015625)"/>
      <path id="CMSS17-79" d="M 2675 2752 
L 2176 2752 
C 1632 1294 1446 702 1434 383 
L 1427 383 
C 1408 696 1126 1460 902 2007 
L 602 2752 
L 83 2752 
L 1216 13 
C 1146 -178 1043 -465 1011 -529 
C 870 -885 774 -885 672 -885 
C 646 -885 442 -885 211 -809 
L 250 -1229 
C 410 -1261 570 -1280 685 -1280 
C 845 -1280 1165 -1280 1459 -497 
L 2675 2752 
z
" transform="scale(0.015625)"/>
     </defs>
     <use xlink:href="#CMSS17-49" transform="scale(0.996264)"/>
     <use xlink:href="#CMSS17-6d" transform="translate(25.783926 0) scale(0.996264)"/>
     <use xlink:href="#CMSS17-70" transform="translate(100.01318 0) scale(0.996264)"/>
     <use xlink:href="#CMSS17-61" transform="translate(148.218123 0) scale(0.996264)"/>
     <use xlink:href="#CMSS17-63" transform="translate(193.140044 0) scale(0.996264)"/>
     <use xlink:href="#CMSS17-74" transform="translate(234.778866 0) scale(0.996264)"/>
     <use xlink:href="#CMSS17-6f" transform="translate(299.839545 0) scale(0.996264)"/>
     <use xlink:href="#CMSS17-66" transform="translate(346.683169 0) scale(0.996264)"/>
     <use xlink:href="#CMSS17-43" transform="translate(406.53894 0) scale(0.996264)"/>
     <use xlink:href="#CMSS17-61" transform="translate(466.394712 0) scale(0.996264)"/>
     <use xlink:href="#CMSS17-63" transform="translate(511.316632 0) scale(0.996264)"/>
     <use xlink:href="#CMSS17-68" transform="translate(552.955455 0) scale(0.996264)"/>
     <use xlink:href="#CMSS17-65" transform="translate(601.160398 0) scale(0.996264)"/>
     <use xlink:href="#CMSS17-53" transform="translate(674.028332 0) scale(0.996264)"/>
     <use xlink:href="#CMSS17-69" transform="translate(726.076849 0) scale(0.996264)"/>
     <use xlink:href="#CMSS17-7a" transform="translate(748.257572 0) scale(0.996264)"/>
     <use xlink:href="#CMSS17-65" transform="translate(788.935444 0) scale(0.996264)"/>
     <use xlink:href="#CMSS17-6f" transform="translate(861.803378 0) scale(0.996264)"/>
     <use xlink:href="#CMSS17-6e" transform="translate(908.647002 0) scale(0.996264)"/>
     <use xlink:href="#CMSS17-44" transform="translate(988.081058 0) scale(0.996264)"/>
     <use xlink:href="#CMSS17-65" transform="translate(1055.623899 0) scale(0.996264)"/>
     <use xlink:href="#CMSS17-6c" transform="translate(1097.262721 0) scale(0.996264)"/>
     <use xlink:href="#CMSS17-61" transform="translate(1119.443445 0) scale(0.996264)"/>
     <use xlink:href="#CMSS17-79" transform="translate(1161.762911 0) scale(0.996264)"/>
    </g>
   </g>
   <g id="legend_1">
    <g id="patch_7">
     <path d="M 68.8 173.075282 
L 216.140389 173.075282 
Q 219.340389 173.075282 219.340389 169.875282 
L 219.340389 52.672 
Q 219.340389 49.472 216.140389 49.472 
L 68.8 49.472 
Q 65.6 49.472 65.6 52.672 
L 65.6 169.875282 
Q 65.6 173.075282 68.8 173.075282 
z
" style="fill: #ffffff; opacity: 0.8; stroke: #cccccc; stroke-linejoin: miter"/>
    </g>
    <g id="line2d_18">
     <path d="M 72 61.472 
L 88 61.472 
L 104 61.472 
" style="fill: none; stroke: #1f77b4; stroke-width: 2; stroke-linecap: square"/>
    </g>
    <g id="text_16">
     <!-- $L_f$ = 5 pkts -->
     <g transform="translate(116.8 67.072) scale(0.16 -0.16)">
      <defs>
       <path id="CMMI12-4c" d="M 2349 3861 
C 2406 4103 2426 4167 2989 4167 
C 3162 4167 3206 4167 3206 4288 
C 3206 4352 3136 4352 3110 4352 
C 2982 4352 2835 4352 2707 4352 
L 1850 4352 
C 1728 4352 1587 4352 1466 4352 
C 1414 4352 1344 4352 1344 4231 
C 1344 4167 1402 4167 1498 4167 
C 1888 4167 1888 4116 1888 4046 
C 1888 4034 1888 3995 1862 3899 
L 998 472 
C 941 249 928 185 480 185 
C 358 185 294 185 294 70 
C 294 0 333 0 461 0 
L 3328 0 
C 3469 0 3475 6 3520 121 
L 4013 1478 
C 4026 1510 4038 1548 4038 1567 
C 4038 1605 4006 1631 3974 1631 
C 3968 1631 3936 1631 3923 1605 
C 3910 1599 3910 1586 3859 1465 
C 3654 905 3366 185 2285 185 
L 1670 185 
C 1581 185 1568 185 1530 192 
C 1459 198 1453 211 1453 262 
C 1453 307 1466 345 1478 401 
L 2349 3861 
z
" transform="scale(0.015625)"/>
       <path id="CMMI12-66" d="M 2854 2566 
C 2982 2566 3034 2566 3034 2688 
C 3034 2752 2982 2752 2867 2752 
L 2349 2752 
C 2470 3429 2560 3897 2611 4107 
C 2650 4265 2784 4416 2950 4416 
C 3085 4416 3219 4358 3283 4298 
C 3034 4272 2957 4082 2957 3969 
C 2957 3837 3053 3759 3174 3759 
C 3302 3759 3494 3870 3494 4119 
C 3494 4393 3226 4544 2944 4544 
C 2669 4544 2400 4334 2272 4078 
C 2157 3848 2093 3611 1946 2752 
L 1517 2752 
C 1395 2752 1331 2752 1331 2637 
C 1331 2566 1370 2566 1498 2566 
L 1907 2566 
C 1792 1976 1530 542 1382 -137 
C 1274 -689 1178 -1152 858 -1152 
C 838 -1152 653 -1152 538 -1031 
C 864 -1005 864 -726 864 -720 
C 864 -593 768 -517 646 -517 
C 518 -517 326 -625 326 -867 
C 326 -1140 608 -1280 858 -1280 
C 1510 -1280 1779 -118 1850 199 
C 1965 688 2278 2376 2310 2566 
L 2854 2566 
z
" transform="scale(0.015625)"/>
       <path id="CMSS17-3d" d="M 4147 2017 
C 4243 2017 4339 2017 4339 2125 
C 4339 2240 4230 2240 4122 2240 
L 550 2240 
C 442 2240 333 2240 333 2125 
C 333 2017 429 2017 525 2017 
L 4147 2017 
z
M 4122 896 
C 4230 896 4339 896 4339 1011 
C 4339 1119 4243 1119 4147 1119 
L 525 1119 
C 429 1119 333 1119 333 1011 
C 333 896 442 896 550 896 
L 4122 896 
z
" transform="scale(0.015625)"/>
       <path id="CMSS17-35" d="M 934 3752 
L 2502 3752 
L 2502 4160 
L 467 4160 
L 467 1781 
L 896 1781 
C 1011 2046 1248 2240 1555 2240 
C 1843 2240 2163 1989 2163 1266 
C 2163 493 1709 267 1376 267 
C 966 267 589 512 422 851 
L 218 499 
C 512 49 992 -128 1376 -128 
C 2118 -128 2701 497 2701 1253 
C 2701 2030 2182 2629 1562 2629 
C 1338 2629 1120 2553 934 2399 
L 934 3752 
z
" transform="scale(0.015625)"/>
      </defs>
      <use xlink:href="#CMMI12-4c" transform="scale(0.996264)"/>
      <use xlink:href="#CMMI12-66" transform="translate(66.370875 -14.943915) scale(0.697382)"/>
      <use xlink:href="#CMSS17-3d" transform="translate(139.202144 0) scale(0.996264)"/>
      <use xlink:href="#CMSS17-35" transform="translate(243.299191 0) scale(0.996264)"/>
      <use xlink:href="#CMSS17-70" transform="translate(321.371927 0) scale(0.996264)"/>
      <use xlink:href="#CMSS17-6b" transform="translate(369.576871 0) scale(0.996264)"/>
      <use xlink:href="#CMSS17-74" transform="translate(415.17936 0) scale(0.996264)"/>
      <use xlink:href="#CMSS17-73" transform="translate(449.010926 0) scale(0.996264)"/>
     </g>
    </g>
    <g id="line2d_19">
     <path d="M 72 85.232656 
L 88 85.232656 
L 104 85.232656 
" style="fill: none; stroke: #ff7f0e; stroke-width: 2; stroke-linecap: square"/>
    </g>
    <g id="text_17">
     <!-- $L_f$ = 10 pkts -->
     <g transform="translate(116.8 90.832656) scale(0.16 -0.16)">
      <defs>
       <path id="CMSS17-31" d="M 1818 4288 
L 1696 4288 
C 1350 3940 947 3890 538 3890 
L 538 3520 
C 723 3520 1024 3520 1325 3667 
L 1325 369 
L 570 369 
L 570 0 
L 2573 0 
L 2573 369 
L 1818 369 
L 1818 4288 
z
" transform="scale(0.015625)"/>
       <path id="CMSS17-30" d="M 2758 2044 
C 2758 2405 2752 3077 2490 3596 
C 2227 4096 1805 4229 1504 4229 
C 1069 4229 698 3975 506 3570 
C 301 3146 243 2709 243 2044 
C 243 1589 262 1031 493 543 
C 755 5 1197 -128 1498 -128 
C 1894 -128 2278 81 2496 518 
C 2720 974 2758 1474 2758 2044 
z
M 1498 261 
C 1011 261 864 811 819 995 
C 742 1310 730 1614 730 2114 
C 730 2506 730 2948 851 3297 
C 998 3701 1254 3840 1498 3840 
C 1971 3840 2125 3372 2176 3208 
C 2272 2873 2272 2481 2272 2114 
C 2272 1526 2272 261 1498 261 
z
" transform="scale(0.015625)"/>
      </defs>
      <use xlink:href="#CMMI12-4c" transform="scale(0.996264)"/>
      <use xlink:href="#CMMI12-66" transform="translate(66.370875 -14.943915) scale(0.697382)"/>
      <use xlink:href="#CMSS17-3d" transform="translate(139.202144 0) scale(0.996264)"/>
      <use xlink:href="#CMSS17-31" transform="translate(243.299191 0) scale(0.996264)"/>
      <use xlink:href="#CMSS17-30" transform="translate(290.142815 0) scale(0.996264)"/>
      <use xlink:href="#CMSS17-70" transform="translate(368.215551 0) scale(0.996264)"/>
      <use xlink:href="#CMSS17-6b" transform="translate(416.420494 0) scale(0.996264)"/>
      <use xlink:href="#CMSS17-74" transform="translate(462.022983 0) scale(0.996264)"/>
      <use xlink:href="#CMSS17-73" transform="translate(495.85455 0) scale(0.996264)"/>
     </g>
    </g>
    <g id="line2d_20">
     <path d="M 72 108.993313 
L 88 108.993313 
L 104 108.993313 
" style="fill: none; stroke: #2ca02c; stroke-width: 2; stroke-linecap: square"/>
    </g>
    <g id="text_18">
     <!-- $L_f$ = 25 pkts -->
     <g transform="translate(116.8 114.593313) scale(0.16 -0.16)">
      <defs>
       <path id="CMSS17-32" d="M 1651 1357 
C 1830 1541 2099 1764 2285 1987 
C 2464 2204 2701 2511 2701 2957 
C 2701 3657 2227 4288 1421 4288 
C 787 4288 422 3893 250 3274 
L 499 2929 
C 640 3510 838 3880 1338 3880 
C 1888 3880 2195 3433 2195 2942 
C 2195 2355 1747 1901 1408 1563 
C 1030 1187 659 804 301 408 
L 301 0 
L 2701 0 
L 2701 433 
L 1613 433 
C 1536 433 1459 433 1382 433 
L 742 433 
L 742 439 
L 1651 1357 
z
" transform="scale(0.015625)"/>
      </defs>
      <use xlink:href="#CMMI12-4c" transform="scale(0.996264)"/>
      <use xlink:href="#CMMI12-66" transform="translate(66.370875 -14.943915) scale(0.697382)"/>
      <use xlink:href="#CMSS17-3d" transform="translate(139.202144 0) scale(0.996264)"/>
      <use xlink:href="#CMSS17-32" transform="translate(243.299191 0) scale(0.996264)"/>
      <use xlink:href="#CMSS17-35" transform="translate(290.142815 0) scale(0.996264)"/>
      <use xlink:href="#CMSS17-70" transform="translate(368.215551 0) scale(0.996264)"/>
      <use xlink:href="#CMSS17-6b" transform="translate(416.420494 0) scale(0.996264)"/>
      <use xlink:href="#CMSS17-74" transform="translate(462.022983 0) scale(0.996264)"/>
      <use xlink:href="#CMSS17-73" transform="translate(495.85455 0) scale(0.996264)"/>
     </g>
    </g>
    <g id="line2d_21">
     <path d="M 72 132.753969 
L 88 132.753969 
L 104 132.753969 
" style="fill: none; stroke: #d62728; stroke-width: 2; stroke-linecap: square"/>
    </g>
    <g id="text_19">
     <!-- $L_f$ = 50 pkts -->
     <g transform="translate(116.8 138.353969) scale(0.16 -0.16)">
      <use xlink:href="#CMMI12-4c" transform="scale(0.996264)"/>
      <use xlink:href="#CMMI12-66" transform="translate(66.370875 -14.943915) scale(0.697382)"/>
      <use xlink:href="#CMSS17-3d" transform="translate(139.202144 0) scale(0.996264)"/>
      <use xlink:href="#CMSS17-35" transform="translate(243.299191 0) scale(0.996264)"/>
      <use xlink:href="#CMSS17-30" transform="translate(290.142815 0) scale(0.996264)"/>
      <use xlink:href="#CMSS17-70" transform="translate(368.215551 0) scale(0.996264)"/>
      <use xlink:href="#CMSS17-6b" transform="translate(416.420494 0) scale(0.996264)"/>
      <use xlink:href="#CMSS17-74" transform="translate(462.022983 0) scale(0.996264)"/>
      <use xlink:href="#CMSS17-73" transform="translate(495.85455 0) scale(0.996264)"/>
     </g>
    </g>
    <g id="line2d_22">
     <path d="M 72 156.514625 
L 88 156.514625 
L 104 156.514625 
" style="fill: none; stroke: #9467bd; stroke-width: 2; stroke-linecap: square"/>
    </g>
    <g id="text_20">
     <!-- $L_f$ = 100 pkts -->
     <g transform="translate(116.8 162.114625) scale(0.16 -0.16)">
      <use xlink:href="#CMMI12-4c" transform="scale(0.996264)"/>
      <use xlink:href="#CMMI12-66" transform="translate(66.370875 -14.943915) scale(0.697382)"/>
      <use xlink:href="#CMSS17-3d" transform="translate(139.202144 0) scale(0.996264)"/>
      <use xlink:href="#CMSS17-31" transform="translate(243.299191 0) scale(0.996264)"/>
      <use xlink:href="#CMSS17-30" transform="translate(290.142815 0) scale(0.996264)"/>
      <use xlink:href="#CMSS17-30" transform="translate(336.986438 0) scale(0.996264)"/>
      <use xlink:href="#CMSS17-70" transform="translate(415.059174 0) scale(0.996264)"/>
      <use xlink:href="#CMSS17-6b" transform="translate(463.264118 0) scale(0.996264)"/>
      <use xlink:href="#CMSS17-74" transform="translate(508.866607 0) scale(0.996264)"/>
      <use xlink:href="#CMSS17-73" transform="translate(542.698173 0) scale(0.996264)"/>
     </g>
    </g>
   </g>
  </g>
 </g>
 <defs>
  <clipPath id="pbf1b54d9e8">
   <rect x="57.6" y="41.472" width="357.12" height="266.112"/>
  </clipPath>
 </defs>
</svg>
