<?xml version="1.0" encoding="UTF-8"?>
<svg id="Layer_1" data-name="Layer 1" xmlns="http://www.w3.org/2000/svg" version="1.1" xmlns:xlink="http://www.w3.org/1999/xlink" viewBox="0 0 618 582">
  <defs>
    <style>
      .cls-1 {
        letter-spacing: 0em;
      }

      .cls-2 {
        stroke-width: 1.03px;
      }

      .cls-2, .cls-3, .cls-4, .cls-5, .cls-6, .cls-7, .cls-8, .cls-9 {
        fill: none;
      }

      .cls-2, .cls-3, .cls-4, .cls-6, .cls-7, .cls-8, .cls-9 {
        stroke: #000;
        stroke-miterlimit: 10;
      }

      .cls-10 {
        letter-spacing: 0em;
      }

      .cls-11 {
        letter-spacing: -.08em;
      }

      .cls-12 {
        letter-spacing: 0em;
      }

      .cls-13 {
        letter-spacing: -.08em;
      }

      .cls-14 {
        clip-path: url(#clippath-2);
      }

      .cls-15 {
        letter-spacing: 0em;
      }

      .cls-16 {
        letter-spacing: 0em;
      }

      .cls-3 {
        stroke-width: 1.04px;
      }

      .cls-17 {
        letter-spacing: 0em;
      }

      .cls-18 {
        letter-spacing: -.01em;
      }

      .cls-19 {
        letter-spacing: -.04em;
      }

      .cls-5 {
        stroke-width: 0px;
      }

      .cls-6 {
        stroke-width: 1.27px;
      }

      .cls-7 {
        stroke-width: .93px;
      }

      .cls-20 {
        clip-path: url(#clippath-1);
      }

      .cls-8 {
        stroke-width: 1.05px;
      }

      .cls-21 {
        letter-spacing: -.07em;
      }

      .cls-22 {
        clip-path: url(#clippath);
      }

      .cls-23 {
        letter-spacing: 0em;
      }

      .cls-24 {
        letter-spacing: -.06em;
      }

      .cls-25 {
        letter-spacing: -.04em;
      }

      .cls-9 {
        stroke-width: .86px;
      }

      .cls-26 {
        fill: #000;
        font-family: MyriadPro-Regular, 'Myriad Pro';
        font-size: 9.55px;
      }

      .cls-27 {
        letter-spacing: -.03em;
      }

      .cls-28 {
        letter-spacing: -.02em;
      }
    </style>
    <clipPath id="clippath">
      <rect class="cls-5" width="618" height="582"/>
    </clipPath>
    <clipPath id="clippath-1">
      <rect class="cls-5" width="618" height="582"/>
    </clipPath>
    <clipPath id="clippath-2">
      <rect class="cls-5" width="618" height="582"/>
    </clipPath>
  </defs>
  <g class="cls-22">
    <circle class="cls-4" cx="59.5" cy="225.5" r="12"/>
    <circle class="cls-4" cx="159.5" cy="245.5" r="12"/>
    <circle class="cls-4" cx="199.5" cy="337.5" r="12"/>
    <circle class="cls-4" cx="118.5" cy="447.5" r="12"/>
    <circle class="cls-4" cx="118.5" cy="495.5" r="12"/>
    <circle class="cls-4" cx="12.5" cy="462.5" r="12"/>
    <circle class="cls-4" cx="12.5" cy="492.5" r="12"/>
    <circle class="cls-4" cx="12.5" cy="522.5" r="12"/>
    <circle class="cls-4" cx="261.5" cy="435.5" r="12"/>
    <circle class="cls-4" cx="301.5" cy="376.5" r="12"/>
    <circle class="cls-4" cx="249.5" cy="264.5" r="12"/>
    <circle class="cls-4" cx="279.5" cy="233.5" r="12"/>
    <circle class="cls-4" cx="279.5" cy="295.5" r="12"/>
    <circle class="cls-4" cx="342.5" cy="295.5" r="12"/>
    <circle class="cls-4" cx="342.5" cy="237.5" r="12"/>
    <circle class="cls-4" cx="342.5" cy="175.5" r="12"/>
    <circle class="cls-4" cx="564.5" cy="12.5" r="12"/>
    <circle class="cls-4" cx="564.5" cy="113.5" r="12"/>
    <circle class="cls-4" cx="533.5" cy="145.5" r="12"/>
    <circle class="cls-4" cx="533.5" cy="187.5" r="12"/>
    <circle class="cls-4" cx="484.5" cy="233.5" r="12"/>
    <circle class="cls-4" cx="422.5" cy="233.5" r="12"/>
    <circle class="cls-4" cx="422.5" cy="295.5" r="12"/>
    <circle class="cls-4" cx="422.5" cy="376.5" r="12"/>
    <circle class="cls-4" cx="422.5" cy="418.5" r="12"/>
    <circle class="cls-4" cx="342.5" cy="437.5" r="12"/>
    <circle class="cls-4" cx="463.5" cy="376.5" r="12"/>
    <circle class="cls-4" cx="463.5" cy="418.5" r="12"/>
    <circle class="cls-4" cx="504.5" cy="376.5" r="12"/>
    <circle class="cls-4" cx="484.5" cy="459.5" r="12"/>
    <circle class="cls-4" cx="564.5" cy="459.5" r="12"/>
    <circle class="cls-4" cx="605.5" cy="418.5" r="12"/>
    <circle class="cls-4" cx="564.5" cy="569.5" r="12"/>
    <circle class="cls-4" cx="564.5" cy="539.5" r="12"/>
  </g>
  <text class="cls-26" transform="translate(50.67 228.61) scale(1.04 1)"><tspan x="0" y="0">DUB</tspan></text>
  <text class="cls-26" transform="translate(526.67 190.62) scale(1.04 1)"><tspan x="0" y="0">VIL</tspan></text>
  <text class="cls-26" transform="translate(476.67 236.61) scale(1.04 1)"><tspan class="cls-24" x="0" y="0">V</tspan><tspan x="4.78" y="0">AR</tspan></text>
  <text class="cls-26" transform="translate(413.67 421.61) scale(1.04 1)"><tspan class="cls-27" x="0" y="0">L</tspan><tspan class="cls-10" x="4.17" y="0">UJ</tspan></text>
  <text class="cls-26" transform="translate(415.67 379.62) scale(1.04 1)"><tspan x="0" y="0">VIE</tspan></text>
  <text class="cls-26" transform="translate(414.67 236.61) scale(1.04 1)"><tspan x="0" y="0">BER</tspan></text>
  <text class="cls-26" transform="translate(413.67 298.61) scale(1.04 1)"><tspan x="0" y="0">P</tspan><tspan class="cls-16" x="5.08" y="0">R</tspan><tspan class="cls-10" x="10.26" y="0">A</tspan></text>
  <text class="cls-26" transform="translate(333.68 298.61) scale(1.04 1)"><tspan x="0" y="0">F</tspan><tspan class="cls-17" x="4.65" y="0">R</tspan><tspan x="9.83" y="0">A</tspan></text>
  <text class="cls-26" transform="translate(332.68 240.61) scale(1.04 1)"><tspan x="0" y="0">H</tspan><tspan class="cls-23" x="6.22" y="0">A</tspan><tspan x="12.03" y="0">M</tspan></text>
  <text class="cls-26" transform="translate(333.68 178.62) scale(1.04 1)"><tspan class="cls-28" x="0" y="0">C</tspan><tspan x="5.35" y="0">OP</tspan></text>
  <text class="cls-26" transform="translate(334.68 440.61) scale(1.04 1)"><tspan x="0" y="0">MIL</tspan></text>
  <text class="cls-26" transform="translate(251.67 437.61) scale(1.04 1)"><tspan class="cls-1" x="0" y="0">M</tspan><tspan x="7.59" y="0">AR</tspan></text>
  <text class="cls-26" transform="translate(292.67 379.62) scale(1.04 1)"><tspan x="0" y="0">GEN</tspan></text>
  <text class="cls-26" transform="translate(270.67 298.62) scale(1.04 1)"><tspan class="cls-25" x="0" y="0">L</tspan><tspan x="4.17" y="0">UX</tspan></text>
  <text class="cls-26" transform="translate(269.67 236.62) scale(1.04 1)"><tspan class="cls-15" x="0" y="0">A</tspan><tspan class="cls-12" x="5.8" y="0">MS</tspan></text>
  <text class="cls-26" transform="translate(241.67 267.62) scale(1.04 1)"><tspan x="0" y="0">BRU</tspan></text>
  <text class="cls-26" transform="translate(190.67 340.62) scale(1.04 1)"><tspan class="cls-11" x="0" y="0">P</tspan><tspan x="4.28" y="0">AR</tspan></text>
  <text class="cls-26" transform="translate(108.67 498.62) scale(1.04 1)"><tspan class="cls-1" x="0" y="0">M</tspan><tspan x="7.59" y="0">AD</tspan></text>
  <text class="cls-26" transform="translate(112.67 450.62) scale(1.04 1)"><tspan x="0" y="0">BIL</tspan></text>
  <g class="cls-20">
    <polyline class="cls-4" points="71.5 225.5 88.93 225.5 110.7 245.5 147.5 245.5"/>
    <polyline class="cls-4" points="159.5 257.5 159.5 295.5 191.53 328.53"/>
    <polyline class="cls-4" points="118.5 435.5 118.5 418.5 191.53 346.47"/>
    <polyline class="cls-4" points="24.5 462.5 51.52 462.5 67.16 450.5 106.5 450.5"/>
    <line class="cls-4" x1="24.5" y1="492.19" x2="107" y2="492.19"/>
    <line class="cls-4" x1="118.5" y1="459.5" x2="118.5" y2="483.5"/>
    <line class="cls-4" x1="12.5" y1="474.5" x2="12.5" y2="480.5"/>
    <line class="cls-4" x1="12.5" y1="510.5" x2="12.5" y2="504.5"/>
    <polyline class="cls-4" points="130.5 495.5 175.51 495.5 229.75 437.5 249.5 437.5"/>
    <polyline class="cls-4" points="261.5 423.5 261.5 418.5 293.43 385.38"/>
    <polyline class="cls-8" points="289.5 376.47 239.99 376.47 209.36 344.38"/>
    <polyline class="cls-4" points="199.5 325.5 199.5 317.11 242.93 274.54"/>
    <line class="cls-4" x1="259.23" y1="257.5" x2="273.5" y2="243.89"/>
    <line class="cls-4" x1="259.09" y1="271.72" x2="273.5" y2="285.11"/>
    <line class="cls-4" x1="291.5" y1="295.5" x2="330.5" y2="295.5"/>
    <polyline class="cls-4" points="342.5 307.5 342.5 337.5 311 369.17"/>
    <line class="cls-4" x1="354.5" y1="295.5" x2="410.5" y2="295.5"/>
    <line class="cls-2" x1="432.44" y1="288.75" x2="476.63" y2="242.36"/>
    <line class="cls-9" x1="473" y1="235.35" x2="434.5" y2="235.35"/>
    <line class="cls-4" x1="410.5" y1="233.5" x2="354.5" y2="233.5"/>
    <line class="cls-7" x1="330.35" y1="235.56" x2="291" y2="235.56"/>
    <line class="cls-4" x1="342.5" y1="225.5" x2="342.5" y2="187.5"/>
    <polyline class="cls-4" points="354.5 175.5 363.76 175.5 413.56 225.5"/>
    <line class="cls-4" x1="490.5" y1="223.11" x2="523.88" y2="194.67"/>
    <line class="cls-4" x1="533.5" y1="175.5" x2="533.5" y2="157.5"/>
    <line class="cls-4" x1="540.59" y1="135.82" x2="555.42" y2="121.34"/>
    <line class="cls-4" x1="564.5" y1="101.5" x2="564.5" y2="24.5"/>
    <polyline class="cls-4" points="555.42 20.34 533.5 44.32 472.5 44.32 350.42 166.5"/>
    <line class="cls-4" x1="422.5" y1="307.5" x2="422.5" y2="364.5"/>
    <polyline class="cls-4" points="301.5 388.5 301.5 400.1 332.76 430.5"/>
    <line class="cls-4" x1="273.5" y1="437.5" x2="330.5" y2="437.5"/>
    <polyline class="cls-4" points="342.5 425.5 342.5 409.5 372.6 376.5 410.5 376.5"/>
    <line class="cls-4" x1="434.5" y1="376.5" x2="451.5" y2="376.5"/>
    <line class="cls-4" x1="475.5" y1="376.5" x2="492.5" y2="376.5"/>
    <line class="cls-4" x1="496.5" y1="385.38" x2="471.43" y2="409.5"/>
    <line class="cls-4" x1="451.5" y1="418.5" x2="434.5" y2="418.5"/>
    <polyline class="cls-4" points="410.5 418.5 363.08 418.5 350.42 428.49"/>
    <polyline class="cls-4" points="472.5 426.43 484.5 437.5 484.5 447.5"/>
    <line class="cls-4" x1="496.5" y1="459.5" x2="552.5" y2="459.5"/>
    <line class="cls-4" x1="571.13" y1="449.5" x2="596.5" y2="426.43"/>
    <line class="cls-4" x1="564.5" y1="471.5" x2="564.5" y2="527.5"/>
    <line class="cls-4" x1="564.5" y1="557.5" x2="564.5" y2="551.5"/>
    <polyline class="cls-4" points="187.5 337.5 121.58 338.34 59.5 278.41 59.5 237.5"/>
    <line class="cls-3" x1="287.52" y1="241.9" x2="332.63" y2="287.64"/>
    <polyline class="cls-4" points="350.42 447.5 475.5 569.5 552.5 569.5"/>
    <polyline class="cls-6" points="168.43 237.5 173.33 233.5 267.5 233.5"/>
  </g>
  <text class="cls-26" transform="translate(150.67 249.61) scale(1.04 1)"><tspan class="cls-19" x="0" y="0">L</tspan><tspan x="4.14" y="0">ON</tspan></text>
  <text class="cls-26" transform="translate(4.44 465.69) scale(1.04 1)"><tspan x="0" y="0">POR</tspan></text>
  <text class="cls-26" transform="translate(6.44 495.68) scale(1.04 1)"><tspan x="0" y="0">LIS</tspan></text>
  <text class="cls-26" transform="translate(5.44 525.68) scale(1.04 1)"><tspan x="0" y="0">SIN</tspan></text>
  <text class="cls-26" transform="translate(526.55 148.96) scale(1.04 1)"><tspan x="0" y="0">RIG</tspan></text>
  <text class="cls-26" transform="translate(556.55 116.38) scale(1.04 1)"><tspan class="cls-21" x="0" y="0">T</tspan><tspan x="4.03" y="0">AL</tspan></text>
  <text class="cls-26" transform="translate(556.55 15.38) scale(1.04 1)"><tspan x="0" y="0">HEL</tspan></text>
  <g class="cls-14">
    <polyline class="cls-4" points="593.5 418.5 540.33 418.5 512.56 385.38"/>
  </g>
  <text class="cls-26" transform="translate(454.56 379.72) scale(1.04 1)"><tspan x="0" y="0">B</tspan><tspan class="cls-16" x="5.17" y="0">R</tspan><tspan x="10.36" y="0">A</tspan></text>
  <text class="cls-26" transform="translate(454.72 421.59) scale(1.04 1)"><tspan x="0" y="0">Z</tspan><tspan class="cls-18" x="5.28" y="0">A</tspan><tspan x="10.99" y="0">G</tspan></text>
  <text class="cls-26" transform="translate(495.72 379.59) scale(1.04 1)"><tspan x="0" y="0">BUD</tspan></text>
  <text class="cls-26" transform="translate(476.72 462.6) scale(1.04 1)"><tspan x="0" y="0">BEL</tspan></text>
  <text class="cls-26" transform="translate(555.72 462.6) scale(1.04 1)"><tspan x="0" y="0">SOF</tspan></text>
  <text class="cls-26" transform="translate(596.72 421.59) scale(1.04 1)"><tspan x="0" y="0">BUC</tspan></text>
  <text class="cls-26" transform="translate(556.44 541.97) scale(1.04 1)"><tspan x="0" y="0">THE</tspan></text>
  <text class="cls-26" transform="translate(556.44 571.96) scale(1.04 1)"><tspan class="cls-13" x="0" y="0">A</tspan><tspan class="cls-10" x="5.11" y="0">TH</tspan></text>
</svg>