<svg xmlns="http://www.w3.org/2000/svg" xmlns:xlink="http://www.w3.org/1999/xlink" version="1.1" width="380.3747pt" height="298.84199pt" viewBox="0 0 380.3747 298.84199">
<defs>
<clipPath id="clip_0">
<path transform="matrix(.5,0,0,.5,-9.934525,-16.986176)" d="M.00000572 .00003052H840V630H.00000572V.00003052Z"/>
</clipPath>
</defs>
<g clip-path="url(#clip_0)">
<path transform="matrix(.5,0,0,.5,-9.934525,-16.986176)" d="M0 0H840V630H0Z" fill="#ffffff"/>
</g>
<path transform="matrix(.5,0,0,.5,-9.934525,-16.986176)" d="M0 0H840V630H0Z" fill="#ffffff"/>
<path transform="matrix(.5,0,0,.5,-9.934525,-16.986176)" d="M109 558H760V47H109Z" fill="#ffffff"/>
<path transform="matrix(.5,0,0,.5,-9.934525,-16.986176)" stroke-width="1" stroke-linecap="square" stroke-linejoin="round" fill="none" stroke="#323232" d="M109 558H760"/>
<path transform="matrix(.5,0,0,.5,-9.934525,-16.986176)" stroke-width="1" stroke-linecap="square" stroke-linejoin="round" fill="none" stroke="#323232" d="M109 47H760"/>
<path transform="matrix(.5,0,0,.5,-9.934525,-16.986176)" stroke-width="1" stroke-linecap="square" stroke-linejoin="round" fill="none" stroke="#323232" d="M109 558V551.49"/>
<path transform="matrix(.5,0,0,.5,-9.934525,-16.986176)" stroke-width="1" stroke-linecap="square" stroke-linejoin="round" fill="none" stroke="#323232" d="M271.75 558V551.49"/>
<path transform="matrix(.5,0,0,.5,-9.934525,-16.986176)" stroke-width="1" stroke-linecap="square" stroke-linejoin="round" fill="none" stroke="#323232" d="M434.5 558V551.49"/>
<path transform="matrix(.5,0,0,.5,-9.934525,-16.986176)" stroke-width="1" stroke-linecap="square" stroke-linejoin="round" fill="none" stroke="#323232" d="M597.25 558V551.49"/>
<path transform="matrix(.5,0,0,.5,-9.934525,-16.986176)" stroke-width="1" stroke-linecap="square" stroke-linejoin="round" fill="none" stroke="#323232" d="M760 558V551.49"/>
<path transform="matrix(.5,0,0,.5,-9.934525,-16.986176)" stroke-width="1" stroke-linecap="square" stroke-linejoin="round" fill="none" stroke="#323232" d="M109 47V53.51001"/>
<path transform="matrix(.5,0,0,.5,-9.934525,-16.986176)" stroke-width="1" stroke-linecap="square" stroke-linejoin="round" fill="none" stroke="#323232" d="M271.75 47V53.51001"/>
<path transform="matrix(.5,0,0,.5,-9.934525,-16.986176)" stroke-width="1" stroke-linecap="square" stroke-linejoin="round" fill="none" stroke="#323232" d="M434.5 47V53.51001"/>
<path transform="matrix(.5,0,0,.5,-9.934525,-16.986176)" stroke-width="1" stroke-linecap="square" stroke-linejoin="round" fill="none" stroke="#323232" d="M597.25 47V53.51001"/>
<path transform="matrix(.5,0,0,.5,-9.934525,-16.986176)" stroke-width="1" stroke-linecap="square" stroke-linejoin="round" fill="none" stroke="#323232" d="M760 47V53.51001"/>
<text fill="#323232" xml:space="preserve" transform="matrix(.5 0 0 .5 44.565469 266.01387)" font-size="20" font-family="Helvetica"><tspan y="21" x="-6">0</tspan></text>
<text fill="#323232" xml:space="preserve" transform="matrix(.5 0 0 .5 125.94047 266.01387)" font-size="20" font-family="Helvetica"><tspan y="21" x="-14 -2.8799992 2.6800013">0.5</tspan></text>
<text fill="#323232" xml:space="preserve" transform="matrix(.5 0 0 .5 207.31549 266.01387)" font-size="20" font-family="Helvetica"><tspan y="21" x="-6">1</tspan></text>
<text fill="#323232" xml:space="preserve" transform="matrix(.5 0 0 .5 288.6905 266.01387)" font-size="20" font-family="Helvetica"><tspan y="21" x="-14 -2.8799992 2.6800013">1.5</tspan></text>
<text fill="#323232" xml:space="preserve" transform="matrix(.5 0 0 .5 370.0655 266.01387)" font-size="20" font-family="Helvetica"><tspan y="21" x="-6">2</tspan></text>
<path transform="matrix(.5,0,0,.5,207.31565,280.01387)" d="M.24447632 31.07489C.24447632 30.626975 .34603883 29.973328 .5491638 29.113953 .7522888 28.254578 .9970805 27.337912 1.2835388 26.363953 1.5699972 25.389994 1.817393 24.590516 2.0257264 23.965516 2.098643 22.975932 2.1351014 22.225932 2.1351014 21.715516 2.1351014 20.42385 2.007497 19.223328 1.7522888 18.113953 1.4970805 17.004578 1.0179138 16.077494 .31478883 15.332703-.38833619 14.587911-1.3648987 14.215515-2.6148988 14.215515-3.2815655 14.215515-3.945628 14.35614-4.607086 14.63739-5.2685449 14.91864-5.8362529 15.314473-6.310211 15.82489-6.7841699 16.335307-7.10969 16.913432-7.2867739 17.559266-7.3180239 17.67385-7.3961489 17.73114-7.5211489 17.73114H-7.8805239C-8.036774 17.73114-8.114899 17.6426-8.114899 17.465516V17.35614C-7.885732 16.460307-7.4872949 15.595723-6.919586 14.76239-6.3518779 13.929057-5.653961 13.251973-4.825836 12.73114-3.9977113 12.210307-3.1253155 11.94989-2.2086488 11.94989-1.2711487 11.94989-.46125285 12.264995 .22103882 12.895203 .9033305 13.525411 1.4502055 14.330098 1.8616638 15.309265 2.273122 16.288432 2.567393 17.275412 2.7444764 18.270203 2.9215596 19.264994 3.0101014 20.2051 3.0101014 21.090516 4.020518 18.350932 5.1507265 15.76239 6.4007265 13.32489L6.8538515 12.35614C6.9163515 12.29364 6.98406 12.26239 7.0569765 12.26239H7.4319765C7.5882265 12.26239 7.6663515 12.35614 7.6663515 12.54364 7.6663515 12.585307 7.645518 12.642598 7.6038515 12.715515L7.1507265 13.653015C6.2757265 15.382182 5.4762475 17.134787 4.752289 18.910828 4.0283305 20.686869 3.4059346 22.403016 2.8851014 24.059266 2.8121846 24.73635 2.663747 25.660828 2.4397889 26.832703 2.2158306 28.004578 1.9476013 29.095725 1.6351013 30.10614 1.3226013 31.116557 1.0101013 31.63739 .6976013 31.66864 .395518 31.66864 .24447632 31.470725 .24447632 31.07489Z" fill="#323232"/>
<path transform="matrix(.5,0,0,.5,-9.934525,-16.986176)" stroke-width="1" stroke-linecap="square" stroke-linejoin="round" fill="none" stroke="#323232" d="M109 558V47"/>
<path transform="matrix(.5,0,0,.5,-9.934525,-16.986176)" stroke-width="1" stroke-linecap="square" stroke-linejoin="round" fill="none" stroke="#323232" d="M760 558V47"/>
<path transform="matrix(.5,0,0,.5,-9.934525,-16.986176)" stroke-width="1" stroke-linecap="square" stroke-linejoin="round" fill="none" stroke="#323232" d="M109 558H115.51"/>
<path transform="matrix(.5,0,0,.5,-9.934525,-16.986176)" stroke-width="1" stroke-linecap="square" stroke-linejoin="round" fill="none" stroke="#323232" d="M109 506.9H115.51"/>
<path transform="matrix(.5,0,0,.5,-9.934525,-16.986176)" stroke-width="1" stroke-linecap="square" stroke-linejoin="round" fill="none" stroke="#323232" d="M109 455.8H115.51"/>
<path transform="matrix(.5,0,0,.5,-9.934525,-16.986176)" stroke-width="1" stroke-linecap="square" stroke-linejoin="round" fill="none" stroke="#323232" d="M109 404.7H115.51"/>
<path transform="matrix(.5,0,0,.5,-9.934525,-16.986176)" stroke-width="1" stroke-linecap="square" stroke-linejoin="round" fill="none" stroke="#323232" d="M109 353.6H115.51"/>
<path transform="matrix(.5,0,0,.5,-9.934525,-16.986176)" stroke-width="1" stroke-linecap="square" stroke-linejoin="round" fill="none" stroke="#323232" d="M109 302.5H115.51"/>
<path transform="matrix(.5,0,0,.5,-9.934525,-16.986176)" stroke-width="1" stroke-linecap="square" stroke-linejoin="round" fill="none" stroke="#323232" d="M109 251.4H115.51"/>
<path transform="matrix(.5,0,0,.5,-9.934525,-16.986176)" stroke-width="1" stroke-linecap="square" stroke-linejoin="round" fill="none" stroke="#323232" d="M109 200.3H115.51"/>
<path transform="matrix(.5,0,0,.5,-9.934525,-16.986176)" stroke-width="1" stroke-linecap="square" stroke-linejoin="round" fill="none" stroke="#323232" d="M109 149.2H115.51"/>
<path transform="matrix(.5,0,0,.5,-9.934525,-16.986176)" stroke-width="1" stroke-linecap="square" stroke-linejoin="round" fill="none" stroke="#323232" d="M109 98.1H115.51"/>
<path transform="matrix(.5,0,0,.5,-9.934525,-16.986176)" stroke-width="1" stroke-linecap="square" stroke-linejoin="round" fill="none" stroke="#323232" d="M109 47H115.51"/>
<path transform="matrix(.5,0,0,.5,-9.934525,-16.986176)" stroke-width="1" stroke-linecap="square" stroke-linejoin="round" fill="none" stroke="#323232" d="M760 558H753.49"/>
<path transform="matrix(.5,0,0,.5,-9.934525,-16.986176)" stroke-width="1" stroke-linecap="square" stroke-linejoin="round" fill="none" stroke="#323232" d="M760 506.9H753.49"/>
<path transform="matrix(.5,0,0,.5,-9.934525,-16.986176)" stroke-width="1" stroke-linecap="square" stroke-linejoin="round" fill="none" stroke="#323232" d="M760 455.8H753.49"/>
<path transform="matrix(.5,0,0,.5,-9.934525,-16.986176)" stroke-width="1" stroke-linecap="square" stroke-linejoin="round" fill="none" stroke="#323232" d="M760 404.7H753.49"/>
<path transform="matrix(.5,0,0,.5,-9.934525,-16.986176)" stroke-width="1" stroke-linecap="square" stroke-linejoin="round" fill="none" stroke="#323232" d="M760 353.6H753.49"/>
<path transform="matrix(.5,0,0,.5,-9.934525,-16.986176)" stroke-width="1" stroke-linecap="square" stroke-linejoin="round" fill="none" stroke="#323232" d="M760 302.5H753.49"/>
<path transform="matrix(.5,0,0,.5,-9.934525,-16.986176)" stroke-width="1" stroke-linecap="square" stroke-linejoin="round" fill="none" stroke="#323232" d="M760 251.4H753.49"/>
<path transform="matrix(.5,0,0,.5,-9.934525,-16.986176)" stroke-width="1" stroke-linecap="square" stroke-linejoin="round" fill="none" stroke="#323232" d="M760 200.3H753.49"/>
<path transform="matrix(.5,0,0,.5,-9.934525,-16.986176)" stroke-width="1" stroke-linecap="square" stroke-linejoin="round" fill="none" stroke="#323232" d="M760 149.2H753.49"/>
<path transform="matrix(.5,0,0,.5,-9.934525,-16.986176)" stroke-width="1" stroke-linecap="square" stroke-linejoin="round" fill="none" stroke="#323232" d="M760 98.1H753.49"/>
<path transform="matrix(.5,0,0,.5,-9.934525,-16.986176)" stroke-width="1" stroke-linecap="square" stroke-linejoin="round" fill="none" stroke="#323232" d="M760 47H753.49"/>
<text fill="#323232" xml:space="preserve" transform="matrix(.5 0 0 .5 40.565469 262.01387)" font-size="20" font-family="Helvetica"><tspan y="8" x="-45 -33.879999 -22.759997 -11.639996">1700</tspan></text>
<text fill="#323232" xml:space="preserve" transform="matrix(.5 0 0 .5 40.565469 236.4638)" font-size="20" font-family="Helvetica"><tspan y="8" x="-45 -33.879999 -22.759997 -11.639996">1800</tspan></text>
<text fill="#323232" xml:space="preserve" transform="matrix(.5 0 0 .5 40.565469 210.91382)" font-size="20" font-family="Helvetica"><tspan y="8" x="-45 -33.879999 -22.759997 -11.639996">1900</tspan></text>
<text fill="#323232" xml:space="preserve" transform="matrix(.5 0 0 .5 40.565469 185.36383)" font-size="20" font-family="Helvetica"><tspan y="8" x="-45 -33.879999 -22.759997 -11.639996">2000</tspan></text>
<text fill="#323232" xml:space="preserve" transform="matrix(.5 0 0 .5 40.565469 159.81385)" font-size="20" font-family="Helvetica"><tspan y="8" x="-45 -33.879999 -22.759997 -11.639996">2100</tspan></text>
<text fill="#323232" xml:space="preserve" transform="matrix(.5 0 0 .5 40.565469 134.26383)" font-size="20" font-family="Helvetica"><tspan y="8" x="-45 -33.879999 -22.759997 -11.639996">2200</tspan></text>
<text fill="#323232" xml:space="preserve" transform="matrix(.5 0 0 .5 40.565469 108.71384)" font-size="20" font-family="Helvetica"><tspan y="8" x="-45 -33.879999 -22.759997 -11.639996">2300</tspan></text>
<text fill="#323232" xml:space="preserve" transform="matrix(.5 0 0 .5 40.565469 83.16385)" font-size="20" font-family="Helvetica"><tspan y="8" x="-45 -33.879999 -22.759997 -11.639996">2400</tspan></text>
<text fill="#323232" xml:space="preserve" transform="matrix(.5 0 0 .5 40.565469 57.61383)" font-size="20" font-family="Helvetica"><tspan y="8" x="-45 -33.879999 -22.759997 -11.639996">2500</tspan></text>
<text fill="#323232" xml:space="preserve" transform="matrix(.5 0 0 .5 40.565469 32.063844)" font-size="20" font-family="Helvetica"><tspan y="8" x="-45 -33.879999 -22.759997 -11.639996">2600</tspan></text>
<text fill="#323232" xml:space="preserve" transform="matrix(.5 0 0 .5 40.565469 6.5138247)" font-size="20" font-family="Helvetica"><tspan y="8" x="-45 -33.879999 -22.759997 -11.639996">2700</tspan></text>
<path transform="matrix(-.00000002125,-.5,.5,-.00000002125,15.065475,134.2637)" d="M-14.91935-9.360095C-15.086017-9.360095-15.16935-9.474678-15.16935-9.703845-15.158933-9.745512-15.140704-9.818428-15.114662-9.922595-15.08862-10.026762-15.052162-10.1126999-15.005287-10.180408-14.958412-10.248116-14.903725-10.28197-14.841225-10.28197-13.778725-10.28197-13.039142-10.339262-12.622475-10.453845-12.403725-10.526762-12.242267-10.761137-12.1381-11.15697L-8.559975-25.438221C-8.528725-25.604887-8.5131-25.719471-8.5131-25.781971-8.5131-25.969471-8.617267-26.078846-8.8256-26.110096-9.148517-26.172596-9.773517-26.203846-10.7006-26.203846-10.867267-26.203846-10.9506-26.31843-10.9506-26.547596-10.940183-26.589262-10.924558-26.664784-10.903725-26.774159-10.882892-26.883534-10.849037-26.969471-10.802162-27.031971-10.755287-27.094471-10.695392-27.125721-10.622475-27.125721H-1.2787247C-.07039134-27.125721 .9869003-26.83145 1.8931503-26.242909 2.7994004-25.654368 3.4947129-24.8627 3.9790879-23.867909 4.463463-22.873118 4.7056505-21.771555 4.7056505-20.563221 4.7056505-19.240305 4.429609-17.914784 3.8775254-16.586659 3.325442-15.258533 2.5546087-14.044991 1.5650253-12.946033 .575442-11.8470749-.55476638-10.974678-1.8255997-10.328845-3.096433-9.683012-4.398516-9.360095-5.7318499-9.360095H-14.91935ZM-10.059975-10.485095C-10.059975-10.349678-9.7631-10.28197-9.16935-10.28197H-6.1380999C-5.179766-10.28197-4.2500789-10.479887-3.3490372-10.87572-2.4479955-11.271553-1.6485163-11.818428-.9505997-12.516345-.29434968-13.162178 .28117118-14.013741 .7759628-15.071033 1.2707545-16.128325 1.6561712-17.232493 1.9322128-18.383534 2.2082546-19.534575 2.3462754-20.594471 2.3462754-21.563221 2.3462754-22.261137 2.2421087-22.89395 2.0337754-23.461659 1.825442-24.029368 1.5337753-24.516346 1.1587753-24.922596 .7837753-25.328846 .31242118-25.64395-.25528718-25.867909-.8229955-26.091868-1.4610163-26.203846-2.1693497-26.203846H-5.0287249C-5.4974749-26.203846-5.8099749-26.164784-5.9662249-26.086659-6.1224749-26.008534-6.2630999-25.750721-6.3880999-25.313221L-9.934975-11.047595C-10.018308-10.839262-10.059975-10.651762-10.059975-10.485095Z" fill="#323232"/>
<path transform="matrix(-.00000002125,-.5,.5,-.00000002125,15.065475,134.2637)" d="M9.688083-18.592165C9.115166-18.592165 8.607353-18.727581 8.164645-18.998415 7.7219369-19.269249 7.380791-19.633831 7.1412079-20.092165 6.901624-20.550499 6.7818329-21.066124 6.7818329-21.63904 6.7818329-22.45154 7.008395-23.256228 7.46152-24.053103 7.914645-24.849978 8.518812-25.498415 9.27402-25.998415 10.029228-26.498415 10.818291-26.748415 11.641208-26.748415 12.089125-26.748415 12.487562-26.672894 12.83652-26.521853 13.185478-26.370812 13.487562-26.157269 13.74277-25.881228 13.997978-25.605187 14.195895-25.282269 14.33652-24.912478 14.477145-24.542687 14.547458-24.13904 14.547458-23.70154 14.547458-23.07654 14.414645-22.461956 14.14902-21.85779 13.883395-21.253624 13.521416-20.704144 13.063083-20.209353 12.60475-19.714562 12.078708-19.321331 11.484958-19.029665 10.891208-18.737999 10.29225-18.592165 9.688083-18.592165ZM9.719333-19.060915C10.250583-19.060915 10.737562-19.243206 11.18027-19.60779 11.622978-19.972374 11.987562-20.433312 12.27402-20.990603 12.560478-21.547894 12.779228-22.133831 12.93027-22.748415 13.081312-23.362999 13.156833-23.915081 13.156833-24.404665 13.156833-24.935915 13.026625-25.381228 12.766208-25.740603 12.505791-26.099978 12.120375-26.279665 11.609958-26.279665 10.901625-26.279665 10.284437-25.980187 9.758395-25.381228 9.232353-24.782269 8.83652-24.066124 8.570895-23.23279 8.30527-22.399456 8.172458-21.633831 8.172458-20.935915 8.172458-20.415081 8.30527-19.972374 8.570895-19.60779 8.83652-19.243206 9.219333-19.060915 9.719333-19.060915Z" fill="#323232"/>
<path transform="matrix(.5,0,0,.5,-9.934525,-16.986176)" stroke-width="3" stroke-linecap="butt" stroke-linejoin="round" fill="none" stroke="#0000ff" d="M109 405.24189 190.375 423.86058 271.75 439.56745 353.125 448.45219 434.5 462.6517 515.875 472.58067 597.25 486.503 678.625 494.90653 760 510.04093"/>
<path transform="matrix(.5,0,0,.5,44.565469,185.63477)" stroke-width="3" stroke-linecap="butt" stroke-miterlimit="10" stroke-linejoin="miter" fill="none" stroke="#0000ff" d="M0-10.664-9.2350239 5.332H9.2350239Z"/>
<path transform="matrix(.5,0,0,.5,85.25297,194.94412)" stroke-width="3" stroke-linecap="butt" stroke-miterlimit="10" stroke-linejoin="miter" fill="none" stroke="#0000ff" d="M0-10.664-9.2350239 5.332H9.2350239Z"/>
<path transform="matrix(.5,0,0,.5,125.94047,202.79755)" stroke-width="3" stroke-linecap="butt" stroke-miterlimit="10" stroke-linejoin="miter" fill="none" stroke="#0000ff" d="M0-10.664-9.2350239 5.332H9.2350239Z"/>
<path transform="matrix(.5,0,0,.5,166.62799,207.23993)" stroke-width="3" stroke-linecap="butt" stroke-miterlimit="10" stroke-linejoin="miter" fill="none" stroke="#0000ff" d="M0-10.664-9.2350239 5.332H9.2350239Z"/>
<path transform="matrix(.5,0,0,.5,207.31549,214.33969)" stroke-width="3" stroke-linecap="butt" stroke-miterlimit="10" stroke-linejoin="miter" fill="none" stroke="#0000ff" d="M0-10.664-9.2350239 5.332H9.2350239Z"/>
<path transform="matrix(.5,0,0,.5,248.00299,219.30417)" stroke-width="3" stroke-linecap="butt" stroke-miterlimit="10" stroke-linejoin="miter" fill="none" stroke="#0000ff" d="M0-10.664-9.2350239 5.332H9.2350239Z"/>
<path transform="matrix(.5,0,0,.5,288.6905,226.26532)" stroke-width="3" stroke-linecap="butt" stroke-miterlimit="10" stroke-linejoin="miter" fill="none" stroke="#0000ff" d="M0-10.664-9.2350239 5.332H9.2350239Z"/>
<path transform="matrix(.5,0,0,.5,329.378,230.4671)" stroke-width="3" stroke-linecap="butt" stroke-miterlimit="10" stroke-linejoin="miter" fill="none" stroke="#0000ff" d="M0-10.664-9.2350239 5.332H9.2350239Z"/>
<path transform="matrix(.5,0,0,.5,370.0655,238.0343)" stroke-width="3" stroke-linecap="butt" stroke-miterlimit="10" stroke-linejoin="miter" fill="none" stroke="#0000ff" d="M0-10.664-9.2350239 5.332H9.2350239Z"/>
<path transform="matrix(.5,0,0,.5,-9.934525,-16.986176)" stroke-width="3" stroke-linecap="butt" stroke-linejoin="round" fill="none" stroke="#ff0000" d="M109 414.21266 190.375 434.58409 271.75 447.9924 353.125 459.8555 434.5 472.5325 515.875 481.0478 597.25 492.50929 678.625 504.89106 760 512.62008"/>
<path transform="matrix(.5,0,0,.5,44.565469,190.12015)" stroke-width="3" stroke-linecap="butt" stroke-miterlimit="10" stroke-linejoin="miter" fill="none" stroke="#ff0000" d="M0 10.664-9.2350239-5.332H9.2350239Z"/>
<path transform="matrix(.5,0,0,.5,85.25297,200.30588)" stroke-width="3" stroke-linecap="butt" stroke-miterlimit="10" stroke-linejoin="miter" fill="none" stroke="#ff0000" d="M0 10.664-9.2350239-5.332H9.2350239Z"/>
<path transform="matrix(.5,0,0,.5,125.94047,207.01004)" stroke-width="3" stroke-linecap="butt" stroke-miterlimit="10" stroke-linejoin="miter" fill="none" stroke="#ff0000" d="M0 10.664-9.2350239-5.332H9.2350239Z"/>
<path transform="matrix(.5,0,0,.5,166.62799,212.94159)" stroke-width="3" stroke-linecap="butt" stroke-miterlimit="10" stroke-linejoin="miter" fill="none" stroke="#ff0000" d="M0 10.664-9.2350239-5.332H9.2350239Z"/>
<path transform="matrix(.5,0,0,.5,207.31549,219.28009)" stroke-width="3" stroke-linecap="butt" stroke-miterlimit="10" stroke-linejoin="miter" fill="none" stroke="#ff0000" d="M0 10.664-9.2350239-5.332H9.2350239Z"/>
<path transform="matrix(.5,0,0,.5,248.00299,223.53772)" stroke-width="3" stroke-linecap="butt" stroke-miterlimit="10" stroke-linejoin="miter" fill="none" stroke="#ff0000" d="M0 10.664-9.2350239-5.332H9.2350239Z"/>
<path transform="matrix(.5,0,0,.5,288.6905,229.26847)" stroke-width="3" stroke-linecap="butt" stroke-miterlimit="10" stroke-linejoin="miter" fill="none" stroke="#ff0000" d="M0 10.664-9.2350239-5.332H9.2350239Z"/>
<path transform="matrix(.5,0,0,.5,329.378,235.45935)" stroke-width="3" stroke-linecap="butt" stroke-miterlimit="10" stroke-linejoin="miter" fill="none" stroke="#ff0000" d="M0 10.664-9.2350239-5.332H9.2350239Z"/>
<path transform="matrix(.5,0,0,.5,370.0655,239.32386)" stroke-width="3" stroke-linecap="butt" stroke-miterlimit="10" stroke-linejoin="miter" fill="none" stroke="#ff0000" d="M0 10.664-9.2350239-5.332H9.2350239Z"/>
<path transform="matrix(.5,0,0,.5,-9.934525,-16.986176)" stroke-width="3" stroke-linecap="butt" stroke-linejoin="round" fill="none" stroke="#00cc00" d="M109 77.164348 190.375 96.11376 271.75 114.32362 353.125 146.0367 434.5 201.61106 515.875 246.24185 597.25 300.8596 678.625 336.80375 760 403.09034"/>
<path transform="matrix(.5,0,0,.5,44.565469,21.596009)" stroke-width="3" stroke-linecap="butt" stroke-miterlimit="10" stroke-linejoin="miter" fill="none" stroke="#00cc00" d="M0-8V8M-8 0H8M-5.6568548-5.6568548 5.6568548 5.6568548M-5.6568548 5.6568548 5.6568548-5.6568548"/>
<path transform="matrix(.5,0,0,.5,85.25297,31.07071)" stroke-width="3" stroke-linecap="butt" stroke-miterlimit="10" stroke-linejoin="miter" fill="none" stroke="#00cc00" d="M0-8V8M-8 0H8M-5.6568548-5.6568548 5.6568548 5.6568548M-5.6568548 5.6568548 5.6568548-5.6568548"/>
<path transform="matrix(.5,0,0,.5,125.94047,40.17566)" stroke-width="3" stroke-linecap="butt" stroke-miterlimit="10" stroke-linejoin="miter" fill="none" stroke="#00cc00" d="M0-8V8M-8 0H8M-5.6568548-5.6568548 5.6568548 5.6568548M-5.6568548 5.6568548 5.6568548-5.6568548"/>
<path transform="matrix(.5,0,0,.5,166.62799,56.032197)" stroke-width="3" stroke-linecap="butt" stroke-miterlimit="10" stroke-linejoin="miter" fill="none" stroke="#00cc00" d="M0-8V8M-8 0H8M-5.6568548-5.6568548 5.6568548 5.6568548M-5.6568548 5.6568548 5.6568548-5.6568548"/>
<path transform="matrix(.5,0,0,.5,207.31549,83.81937)" stroke-width="3" stroke-linecap="butt" stroke-miterlimit="10" stroke-linejoin="miter" fill="none" stroke="#00cc00" d="M0-8V8M-8 0H8M-5.6568548-5.6568548 5.6568548 5.6568548M-5.6568548 5.6568548 5.6568548-5.6568548"/>
<path transform="matrix(.5,0,0,.5,248.00299,106.134769)" stroke-width="3" stroke-linecap="butt" stroke-miterlimit="10" stroke-linejoin="miter" fill="none" stroke="#00cc00" d="M0-8V8M-8 0H8M-5.6568548-5.6568548 5.6568548 5.6568548M-5.6568548 5.6568548 5.6568548-5.6568548"/>
<path transform="matrix(.5,0,0,.5,288.6905,133.44364)" stroke-width="3" stroke-linecap="butt" stroke-miterlimit="10" stroke-linejoin="miter" fill="none" stroke="#00cc00" d="M0-8V8M-8 0H8M-5.6568548-5.6568548 5.6568548 5.6568548M-5.6568548 5.6568548 5.6568548-5.6568548"/>
<path transform="matrix(.5,0,0,.5,329.378,151.41571)" stroke-width="3" stroke-linecap="butt" stroke-miterlimit="10" stroke-linejoin="miter" fill="none" stroke="#00cc00" d="M0-8V8M-8 0H8M-5.6568548-5.6568548 5.6568548 5.6568548M-5.6568548 5.6568548 5.6568548-5.6568548"/>
<path transform="matrix(.5,0,0,.5,370.0655,184.55899)" stroke-width="3" stroke-linecap="butt" stroke-miterlimit="10" stroke-linejoin="miter" fill="none" stroke="#00cc00" d="M0-8V8M-8 0H8M-5.6568548-5.6568548 5.6568548 5.6568548M-5.6568548 5.6568548 5.6568548-5.6568548"/>
<path transform="matrix(.5,0,0,.5,-9.934525,-16.986176)" stroke-width="3" stroke-linecap="butt" stroke-linejoin="round" fill="none" stroke="#000000" d="M109 95.22388 190.375 106.80122 271.75 130.95272 353.125 178.97736 434.5 225.44342 515.875 284.0752 597.25 319.70133 678.625 358.0338 760 404.7879"/>
<path transform="matrix(.5,0,0,.5,44.565469,30.625763)" stroke-width="3" stroke-linecap="butt" stroke-miterlimit="10" stroke-linejoin="miter" fill="none" stroke="#000000" d="M-6-6V6H6V-6Z"/>
<path transform="matrix(.5,0,0,.5,85.25297,36.41446)" stroke-width="3" stroke-linecap="butt" stroke-miterlimit="10" stroke-linejoin="miter" fill="none" stroke="#000000" d="M-6-6V6H6V-6Z"/>
<path transform="matrix(.5,0,0,.5,125.94047,48.490205)" stroke-width="3" stroke-linecap="butt" stroke-miterlimit="10" stroke-linejoin="miter" fill="none" stroke="#000000" d="M-6-6V6H6V-6Z"/>
<path transform="matrix(.5,0,0,.5,166.62799,72.5025)" stroke-width="3" stroke-linecap="butt" stroke-miterlimit="10" stroke-linejoin="miter" fill="none" stroke="#000000" d="M-6-6V6H6V-6Z"/>
<path transform="matrix(.5,0,0,.5,207.31549,95.735538)" stroke-width="3" stroke-linecap="butt" stroke-miterlimit="10" stroke-linejoin="miter" fill="none" stroke="#000000" d="M-6-6V6H6V-6Z"/>
<path transform="matrix(.5,0,0,.5,248.00299,125.05142)" stroke-width="3" stroke-linecap="butt" stroke-miterlimit="10" stroke-linejoin="miter" fill="none" stroke="#000000" d="M-6-6V6H6V-6Z"/>
<path transform="matrix(.5,0,0,.5,288.6905,142.8645)" stroke-width="3" stroke-linecap="butt" stroke-miterlimit="10" stroke-linejoin="miter" fill="none" stroke="#000000" d="M-6-6V6H6V-6Z"/>
<path transform="matrix(.5,0,0,.5,329.378,162.03073)" stroke-width="3" stroke-linecap="butt" stroke-miterlimit="10" stroke-linejoin="miter" fill="none" stroke="#000000" d="M-6-6V6H6V-6Z"/>
<path transform="matrix(.5,0,0,.5,370.0655,185.40778)" stroke-width="3" stroke-linecap="butt" stroke-miterlimit="10" stroke-linejoin="miter" fill="none" stroke="#000000" d="M-6-6V6H6V-6Z"/>
<path transform="matrix(.5,0,0,.5,-9.934525,-16.986176)" stroke-width="3" stroke-linecap="butt" stroke-linejoin="round" fill="none" stroke="#ff00ff" d="M109 68.935077 190.375 93.063488 271.75 111.09432 353.125 137.16742 434.5 175.44165 515.875 205.6161 597.25 249.9572 678.625 271.97785 760 356.55097"/>
<path transform="matrix(.5,0,0,.5,44.565469,17.481385)" stroke-width="3" stroke-linecap="butt" stroke-miterlimit="10" stroke-linejoin="miter" fill="none" stroke="#ff00ff" d="M-8 0 0 10.64 8 0 0-10.64Z"/>
<path transform="matrix(.5,0,0,.5,85.25297,29.545594)" stroke-width="3" stroke-linecap="butt" stroke-miterlimit="10" stroke-linejoin="miter" fill="none" stroke="#ff00ff" d="M-8 0 0 10.64 8 0 0-10.64Z"/>
<path transform="matrix(.5,0,0,.5,125.94047,38.561006)" stroke-width="3" stroke-linecap="butt" stroke-miterlimit="10" stroke-linejoin="miter" fill="none" stroke="#ff00ff" d="M-8 0 0 10.64 8 0 0-10.64Z"/>
<path transform="matrix(.5,0,0,.5,166.62799,51.597536)" stroke-width="3" stroke-linecap="butt" stroke-miterlimit="10" stroke-linejoin="miter" fill="none" stroke="#ff00ff" d="M-8 0 0 10.64 8 0 0-10.64Z"/>
<path transform="matrix(.5,0,0,.5,207.31549,70.73465)" stroke-width="3" stroke-linecap="butt" stroke-miterlimit="10" stroke-linejoin="miter" fill="none" stroke="#ff00ff" d="M-8 0 0 10.64 8 0 0-10.64Z"/>
<path transform="matrix(.5,0,0,.5,248.00299,85.8219)" stroke-width="3" stroke-linecap="butt" stroke-miterlimit="10" stroke-linejoin="miter" fill="none" stroke="#ff00ff" d="M-8 0 0 10.64 8 0 0-10.64Z"/>
<path transform="matrix(.5,0,0,.5,288.6905,107.99243)" stroke-width="3" stroke-linecap="butt" stroke-miterlimit="10" stroke-linejoin="miter" fill="none" stroke="#ff00ff" d="M-8 0 0 10.64 8 0 0-10.64Z"/>
<path transform="matrix(.5,0,0,.5,329.378,119.00275)" stroke-width="3" stroke-linecap="butt" stroke-miterlimit="10" stroke-linejoin="miter" fill="none" stroke="#ff00ff" d="M-8 0 0 10.64 8 0 0-10.64Z"/>
<path transform="matrix(.5,0,0,.5,370.0655,161.2893)" stroke-width="3" stroke-linecap="butt" stroke-miterlimit="10" stroke-linejoin="miter" fill="none" stroke="#ff00ff" d="M-8 0 0 10.64 8 0 0-10.64Z"/>
<path transform="matrix(.5,0,0,.5,-9.934525,-16.986176)" d="M740 191V67H591V191Z" fill="#ffffff"/>
<text xml:space="preserve" transform="matrix(.5 0 0 .5 320.6976 23.763825)" font-size="18" font-family="Helvetica"><tspan y="7.5" x="0 12.0060009 25.002003">SUB</tspan></text>
<path transform="matrix(.5,0,0,.5,-9.934525,-16.986176)" stroke-width="3" stroke-linecap="butt" stroke-linejoin="round" fill="none" stroke="#0000ff" d="M596.9799 81.5H656.77926"/>
<path transform="matrix(.5,0,0,.5,303.50529,23.763825)" stroke-width="3" stroke-linecap="butt" stroke-miterlimit="10" stroke-linejoin="miter" fill="none" stroke="#0000ff" d="M0-10.664-9.2350239 5.332H9.2350239Z"/>
<text xml:space="preserve" transform="matrix(.5 0 0 .5 320.6976 35.638826)" font-size="18" font-family="Helvetica"><tspan y="7.5" x="0 12.0060009 22.014002">ALT</tspan></text>
<path transform="matrix(.5,0,0,.5,-9.934525,-16.986176)" stroke-width="3" stroke-linecap="butt" stroke-linejoin="round" fill="none" stroke="#ff0000" d="M596.9799 105.25H656.77926"/>
<path transform="matrix(.5,0,0,.5,303.50529,35.638826)" stroke-width="3" stroke-linecap="butt" stroke-miterlimit="10" stroke-linejoin="miter" fill="none" stroke="#ff0000" d="M0 10.664-9.2350239-5.332H9.2350239Z"/>
<text xml:space="preserve" transform="matrix(.5 0 0 .5 320.6976 47.513826)" font-size="18" font-family="Helvetica"><tspan y="7.5" x="0 12.0060009 26.010003 32.004 42.012 55.008005">PO-LRU</tspan></text>
<path transform="matrix(.5,0,0,.5,-9.934525,-16.986176)" stroke-width="3" stroke-linecap="butt" stroke-linejoin="round" fill="none" stroke="#00cc00" d="M596.9799 129H656.77926"/>
<path transform="matrix(.5,0,0,.5,303.50529,47.513826)" stroke-width="3" stroke-linecap="butt" stroke-miterlimit="10" stroke-linejoin="miter" fill="none" stroke="#00cc00" d="M0-8V8M-8 0H8M-5.6568548-5.6568548 5.6568548 5.6568548M-5.6568548 5.6568548 5.6568548-5.6568548"/>
<text xml:space="preserve" transform="matrix(.5 0 0 .5 320.6976 59.388826)" font-size="18" font-family="Helvetica"><tspan y="7.5" x="0 12.0060009 26.010003 32.004 42.012 53.010004">PO-LFU</tspan></text>
<path transform="matrix(.5,0,0,.5,-9.934525,-16.986176)" stroke-width="3" stroke-linecap="butt" stroke-linejoin="round" fill="none" stroke="#000000" d="M596.9799 152.75H656.77926"/>
<path transform="matrix(.5,0,0,.5,303.50529,59.388826)" stroke-width="3" stroke-linecap="butt" stroke-miterlimit="10" stroke-linejoin="miter" fill="none" stroke="#000000" d="M-6-6V6H6V-6Z"/>
<text xml:space="preserve" transform="matrix(.5 0 0 .5 320.6976 71.263828)" font-size="18" font-family="Helvetica"><tspan y="7.5" x="0 12.0060009 26.010003 32.004 43.002004 48.006006 59.004007">PO-FIFO</tspan></text>
<path transform="matrix(.5,0,0,.5,-9.934525,-16.986176)" stroke-width="3" stroke-linecap="butt" stroke-linejoin="round" fill="none" stroke="#ff00ff" d="M596.9799 176.5H656.77926"/>
<path transform="matrix(.5,0,0,.5,303.50529,71.263828)" stroke-width="3" stroke-linecap="butt" stroke-miterlimit="10" stroke-linejoin="miter" fill="none" stroke="#ff00ff" d="M-8 0 0 10.64 8 0 0-10.64Z"/>
<path transform="matrix(.5,0,0,.5,-9.934525,-16.986176)" stroke-width="1" stroke-linecap="butt" stroke-miterlimit="10" stroke-linejoin="miter" fill="none" stroke="#323232" d="M591 191V67H740V191Z"/>
</svg>
