<svg xmlns="http://www.w3.org/2000/svg" xmlns:xlink="http://www.w3.org/1999/xlink" version="1.1" width="385.0831pt" height="295.93605pt" viewBox="0 0 385.0831 295.93605">
<defs>
<clipPath id="clip_0">
<path transform="matrix(.5,0,0,.5,-2.5941239,-17.340119)" d="M.00000572 .00003052H840V630H.00000572V.00003052Z"/>
</clipPath>
</defs>
<g clip-path="url(#clip_0)">
<path transform="matrix(.5,0,0,.5,-2.5941239,-17.340119)" d="M0 0H840V630H0Z" fill="#ffffff"/>
</g>
<path transform="matrix(.5,0,0,.5,-2.5941239,-17.340119)" d="M0 0H840V630H0Z" fill="#ffffff"/>
<path transform="matrix(.5,0,0,.5,-2.5941239,-17.340119)" d="M109 558H760V47H109Z" fill="#ffffff"/>
<path transform="matrix(.5,0,0,.5,-2.5941239,-17.340119)" stroke-width="1" stroke-linecap="square" stroke-linejoin="round" fill="none" stroke="#323232" d="M109 558H760"/>
<path transform="matrix(.5,0,0,.5,-2.5941239,-17.340119)" stroke-width="1" stroke-linecap="square" stroke-linejoin="round" fill="none" stroke="#323232" d="M109 47H760"/>
<path transform="matrix(.5,0,0,.5,-2.5941239,-17.340119)" stroke-width="1" stroke-linecap="square" stroke-linejoin="round" fill="none" stroke="#323232" d="M109 558V551.49"/>
<path transform="matrix(.5,0,0,.5,-2.5941239,-17.340119)" stroke-width="1" stroke-linecap="square" stroke-linejoin="round" fill="none" stroke="#323232" d="M217.89929 558V551.49"/>
<path transform="matrix(.5,0,0,.5,-2.5941239,-17.340119)" stroke-width="1" stroke-linecap="square" stroke-linejoin="round" fill="none" stroke="#323232" d="M326.79859 558V551.49"/>
<path transform="matrix(.5,0,0,.5,-2.5941239,-17.340119)" stroke-width="1" stroke-linecap="square" stroke-linejoin="round" fill="none" stroke="#323232" d="M435.6979 558V551.49"/>
<path transform="matrix(.5,0,0,.5,-2.5941239,-17.340119)" stroke-width="1" stroke-linecap="square" stroke-linejoin="round" fill="none" stroke="#323232" d="M544.59719 558V551.49"/>
<path transform="matrix(.5,0,0,.5,-2.5941239,-17.340119)" stroke-width="1" stroke-linecap="square" stroke-linejoin="round" fill="none" stroke="#323232" d="M653.49649 558V551.49"/>
<path transform="matrix(.5,0,0,.5,-2.5941239,-17.340119)" stroke-width="1" stroke-linecap="square" stroke-linejoin="round" fill="none" stroke="#323232" d="M109 47V53.509984"/>
<path transform="matrix(.5,0,0,.5,-2.5941239,-17.340119)" stroke-width="1" stroke-linecap="square" stroke-linejoin="round" fill="none" stroke="#323232" d="M217.89929 47V53.509984"/>
<path transform="matrix(.5,0,0,.5,-2.5941239,-17.340119)" stroke-width="1" stroke-linecap="square" stroke-linejoin="round" fill="none" stroke="#323232" d="M326.79859 47V53.509984"/>
<path transform="matrix(.5,0,0,.5,-2.5941239,-17.340119)" stroke-width="1" stroke-linecap="square" stroke-linejoin="round" fill="none" stroke="#323232" d="M435.6979 47V53.509984"/>
<path transform="matrix(.5,0,0,.5,-2.5941239,-17.340119)" stroke-width="1" stroke-linecap="square" stroke-linejoin="round" fill="none" stroke="#323232" d="M544.59719 47V53.509984"/>
<path transform="matrix(.5,0,0,.5,-2.5941239,-17.340119)" stroke-width="1" stroke-linecap="square" stroke-linejoin="round" fill="none" stroke="#323232" d="M653.49649 47V53.509984"/>
<text fill="#323232" xml:space="preserve" transform="matrix(.5 0 0 .5 51.90587 265.6599)" font-size="20" font-family="Helvetica"><tspan y="21" x="-6">0</tspan></text>
<text fill="#323232" xml:space="preserve" transform="matrix(.5 0 0 .5 106.355518 265.6599)" font-size="20" font-family="Helvetica"><tspan y="21" x="-11.5 -.37999917">50</tspan></text>
<text fill="#323232" xml:space="preserve" transform="matrix(.5 0 0 .5 160.80516 265.6599)" font-size="20" font-family="Helvetica"><tspan y="21" x="-17 -5.879999 5.2400019">100</tspan></text>
<text fill="#323232" xml:space="preserve" transform="matrix(.5 0 0 .5 215.25482 265.6599)" font-size="20" font-family="Helvetica"><tspan y="21" x="-17 -5.879999 5.2400019">150</tspan></text>
<text fill="#323232" xml:space="preserve" transform="matrix(.5 0 0 .5 269.70448 265.6599)" font-size="20" font-family="Helvetica"><tspan y="21" x="-17 -5.879999 5.2400019">200</tspan></text>
<text fill="#323232" xml:space="preserve" transform="matrix(.5 0 0 .5 324.1541 265.6599)" font-size="20" font-family="Helvetica"><tspan y="21" x="-17 -5.879999 5.2400019">250</tspan></text>
<path transform="matrix(.5,0,0,.5,214.65604,279.6599)" d="M-8.002701 9.059265-8.596451 8.434265-4.549576 4.38739-.5339508 8.434265-1.1433258 9.059265-4.549576 6.059265-8.002701 9.059265Z" fill="#323232"/>
<path transform="matrix(.5,0,0,.5,214.65604,279.6599)" d="M-10.638168 23.371766C-10.106918 24.288432-9.028793 24.746766-7.4037935 24.746766-6.69546 24.746766-6.0261895 24.626975-5.395981 24.38739-4.7657725 24.147807-4.242335 23.788432-3.8256684 23.309266-3.4090017 22.8301-3.2006684 22.246766-3.2006684 21.559266-3.2006684 21.04885-3.385564 20.626975-3.7553559 20.29364-4.1251475 19.960307-4.580877 19.73635-5.1225435 19.621766L-6.7475435 19.29364C-7.487127 19.10614-8.096501 18.759787-8.575668 18.254578-9.054835 17.749369-9.294418 17.132182-9.294418 16.403016-9.294418 15.517598-9.052231 14.733745-8.567856 14.051453-8.083481 13.369161-7.44546 12.848328-6.6537935 12.488953-5.862127 12.129578-5.0444185 11.94989-4.2006685 11.94989-3.2840017 11.94989-2.4688977 12.166036-1.7553558 12.598328-1.0418142 13.03062-.68504336 13.673848-.68504336 14.528015-.68504336 14.986348-.8126475 15.389995-1.0678558 15.738953-1.3230642 16.087912-1.679835 16.26239-2.1381684 16.26239-2.4090017 16.26239-2.6381684 16.176453-2.8256684 16.004578-3.0131684 15.832703-3.1069184 15.616557-3.1069184 15.35614-3.1069184 15.116557-3.041814 14.88739-2.9116059 14.66864-2.7813977 14.44989-2.6069184 14.275411-2.3881684 14.145203-2.1694184 14.014995-1.9402517 13.94989-1.7006683 13.94989-1.8777517 13.522807-2.2084809 13.210307-2.6928559 13.01239-3.1772309 12.814473-3.69546 12.715515-4.2475435 12.715515-4.75796 12.715515-5.268377 12.819682-5.7787935 13.028015-6.28921 13.236348-6.6980645 13.538432-7.005356 13.934265-7.3126475 14.330098-7.4662935 14.79364-7.4662935 15.32489-7.4662935 15.689473-7.3386895 16.007182-7.083481 16.278016-6.8282725 16.54885-6.5131685 16.746766-6.1381685 16.871766L-4.4037935 17.215516C-3.8412934 17.3301-3.3282727 17.535828-2.8647309 17.832703-2.401189 18.129578-2.0366059 18.507182-1.7709808 18.965516-1.5053558 19.42385-1.3725433 19.944682-1.3725433 20.528016-1.3725433 21.2676-1.5782725 21.999369-1.9897308 22.723328-2.401189 23.447287-2.9090017 24.022807-3.5131684 24.44989-4.586085 25.179057-5.893377 25.54364-7.4350435 25.54364-8.497543 25.54364-9.474106 25.29885-10.364731 24.809266-11.255356 24.319682-11.700668 23.590516-11.700668 22.621766-11.700668 22.069682-11.541814 21.593119-11.224106 21.192078-10.906398 20.791037-10.471501 20.590516-9.919418 20.590516-9.596501 20.590516-9.325668 20.686869-9.106918 20.879578-8.888168 21.072287-8.778793 21.3301-8.778793 21.653016-8.778793 22.11135-8.950668 22.51239-9.294418 22.85614-9.638168 23.19989-10.03921 23.371766-10.497543 23.371766H-10.638168Z" fill="#323232"/>
<path transform="matrix(.5,0,0,.5,214.65604,279.6599)" d="M3.0649567 27.324845C3.0649567 27.012345 3.101415 26.668595 3.1743317 26.293595 3.2472485 25.918595 3.3227692 25.608698 3.4008942 25.363907 3.4790192 25.119116 3.6508942 24.645157 3.9165192 23.942032 4.182144 23.238907 4.3149569 22.876929 4.3149569 22.856095 4.5024569 22.33526 4.5962069 21.913386 4.5962069 21.59047 4.5962069 21.173804 4.445165 20.96547 4.1430819 20.96547 3.5805817 20.96547 3.1222485 21.249323 2.7680817 21.817032 2.413915 22.38474 2.14829 23.02276 1.9712067 23.731095 1.9503733 23.824845 1.8930817 23.87172 1.7993317 23.87172H1.5493317C1.4347483 23.87172 1.3774567 23.80401 1.3774567 23.668595V23.606095C1.6066233 22.77276 1.9529775 22.033179 2.4165192 21.387345 2.880061 20.74151 3.4659985 20.418595 4.1743319 20.418595 4.6743319 20.418595 5.0962069 20.582657 5.4399569 20.910782 5.7837069 21.238907 5.9555819 21.658179 5.9555819 22.168595 5.9555819 22.42901 5.89829 22.699845 5.7837069 22.981095 5.512873 23.689429 5.2993319 24.257136 5.1430819 24.68422 4.9868319 25.111304 4.840998 25.59047 4.7055819 26.12172 4.570165 26.65297 4.5024569 27.142554 4.5024569 27.59047 4.5024569 28.12172 4.6248528 28.55401 4.869644 28.887345 5.1144359 29.220679 5.49204 29.387345 6.0024569 29.387345 6.9712069 29.387345 7.8462069 28.637345 8.627457 27.137345 8.877457 26.64776 9.111832 26.074845 9.330582 25.418595 9.549332 24.762345 9.658707 24.231095 9.658707 23.824845 9.658707 23.39776 9.588394 23.067032 9.447769 22.832657 9.307144 22.598282 9.127457 22.35349 8.908707 22.098282 8.689957 21.843073 8.580582 21.637345 8.580582 21.481095 8.580582 21.21026 8.695165 20.962866 8.924332 20.738907 9.153499 20.514948 9.403499 20.40297 9.674332 20.40297 10.007665 20.40297 10.247249 20.556616 10.393082 20.863907 10.538915 21.171198 10.611832 21.517554 10.611832 21.90297 10.611832 22.37172 10.546727 22.926407 10.416519 23.567032 10.286311 24.207657 10.104019 24.874323 9.869644 25.567032 9.635269 26.25974 9.413915 26.80401 9.205582 27.199845 8.288915 29.02276 7.215998 29.93422 5.9868319 29.93422 5.101415 29.93422 4.3930819 29.712866 3.8618317 29.270157 3.3305817 28.827448 3.0649567 28.17901 3.0649567 27.324845Z" fill="#323232"/>
<path transform="matrix(.5,0,0,.5,-2.5941239,-17.340119)" stroke-width="1" stroke-linecap="square" stroke-linejoin="round" fill="none" stroke="#323232" d="M109 558V47"/>
<path transform="matrix(.5,0,0,.5,-2.5941239,-17.340119)" stroke-width="1" stroke-linecap="square" stroke-linejoin="round" fill="none" stroke="#323232" d="M760 558V47"/>
<path transform="matrix(.5,0,0,.5,-2.5941239,-17.340119)" stroke-width="1" stroke-linecap="square" stroke-linejoin="round" fill="none" stroke="#323232" d="M109 558H115.51"/>
<path transform="matrix(.5,0,0,.5,-2.5941239,-17.340119)" stroke-width="1" stroke-linecap="square" stroke-linejoin="round" fill="none" stroke="#323232" d="M109 501.22224H115.51"/>
<path transform="matrix(.5,0,0,.5,-2.5941239,-17.340119)" stroke-width="1" stroke-linecap="square" stroke-linejoin="round" fill="none" stroke="#323232" d="M109 444.44447H115.51"/>
<path transform="matrix(.5,0,0,.5,-2.5941239,-17.340119)" stroke-width="1" stroke-linecap="square" stroke-linejoin="round" fill="none" stroke="#323232" d="M109 387.66667H115.51"/>
<path transform="matrix(.5,0,0,.5,-2.5941239,-17.340119)" stroke-width="1" stroke-linecap="square" stroke-linejoin="round" fill="none" stroke="#323232" d="M109 330.8889H115.51"/>
<path transform="matrix(.5,0,0,.5,-2.5941239,-17.340119)" stroke-width="1" stroke-linecap="square" stroke-linejoin="round" fill="none" stroke="#323232" d="M109 274.1111H115.51"/>
<path transform="matrix(.5,0,0,.5,-2.5941239,-17.340119)" stroke-width="1" stroke-linecap="square" stroke-linejoin="round" fill="none" stroke="#323232" d="M109 217.33333H115.51"/>
<path transform="matrix(.5,0,0,.5,-2.5941239,-17.340119)" stroke-width="1" stroke-linecap="square" stroke-linejoin="round" fill="none" stroke="#323232" d="M109 160.55556H115.51"/>
<path transform="matrix(.5,0,0,.5,-2.5941239,-17.340119)" stroke-width="1" stroke-linecap="square" stroke-linejoin="round" fill="none" stroke="#323232" d="M109 103.77778H115.51"/>
<path transform="matrix(.5,0,0,.5,-2.5941239,-17.340119)" stroke-width="1" stroke-linecap="square" stroke-linejoin="round" fill="none" stroke="#323232" d="M109 47H115.51"/>
<path transform="matrix(.5,0,0,.5,-2.5941239,-17.340119)" stroke-width="1" stroke-linecap="square" stroke-linejoin="round" fill="none" stroke="#323232" d="M760 558H753.4899"/>
<path transform="matrix(.5,0,0,.5,-2.5941239,-17.340119)" stroke-width="1" stroke-linecap="square" stroke-linejoin="round" fill="none" stroke="#323232" d="M760 501.22224H753.4899"/>
<path transform="matrix(.5,0,0,.5,-2.5941239,-17.340119)" stroke-width="1" stroke-linecap="square" stroke-linejoin="round" fill="none" stroke="#323232" d="M760 444.44447H753.4899"/>
<path transform="matrix(.5,0,0,.5,-2.5941239,-17.340119)" stroke-width="1" stroke-linecap="square" stroke-linejoin="round" fill="none" stroke="#323232" d="M760 387.66667H753.4899"/>
<path transform="matrix(.5,0,0,.5,-2.5941239,-17.340119)" stroke-width="1" stroke-linecap="square" stroke-linejoin="round" fill="none" stroke="#323232" d="M760 330.8889H753.4899"/>
<path transform="matrix(.5,0,0,.5,-2.5941239,-17.340119)" stroke-width="1" stroke-linecap="square" stroke-linejoin="round" fill="none" stroke="#323232" d="M760 274.1111H753.4899"/>
<path transform="matrix(.5,0,0,.5,-2.5941239,-17.340119)" stroke-width="1" stroke-linecap="square" stroke-linejoin="round" fill="none" stroke="#323232" d="M760 217.33333H753.4899"/>
<path transform="matrix(.5,0,0,.5,-2.5941239,-17.340119)" stroke-width="1" stroke-linecap="square" stroke-linejoin="round" fill="none" stroke="#323232" d="M760 160.55556H753.4899"/>
<path transform="matrix(.5,0,0,.5,-2.5941239,-17.340119)" stroke-width="1" stroke-linecap="square" stroke-linejoin="round" fill="none" stroke="#323232" d="M760 103.77778H753.4899"/>
<path transform="matrix(.5,0,0,.5,-2.5941239,-17.340119)" stroke-width="1" stroke-linecap="square" stroke-linejoin="round" fill="none" stroke="#323232" d="M760 47H753.4899"/>
<text fill="#323232" xml:space="preserve" transform="matrix(.5 0 0 .5 47.90587 261.6599)" font-size="20" font-family="Helvetica"><tspan y="8" x="-45 -33.879999 -22.759997 -11.639996">1000</tspan></text>
<text fill="#323232" xml:space="preserve" transform="matrix(.5 0 0 .5 47.90587 233.271)" font-size="20" font-family="Helvetica"><tspan y="8" x="-45 -33.879999 -22.759997 -11.639996">2000</tspan></text>
<text fill="#323232" xml:space="preserve" transform="matrix(.5 0 0 .5 47.90587 204.88211)" font-size="20" font-family="Helvetica"><tspan y="8" x="-45 -33.879999 -22.759997 -11.639996">3000</tspan></text>
<text fill="#323232" xml:space="preserve" transform="matrix(.5 0 0 .5 47.90587 176.49323)" font-size="20" font-family="Helvetica"><tspan y="8" x="-45 -33.879999 -22.759997 -11.639996">4000</tspan></text>
<text fill="#323232" xml:space="preserve" transform="matrix(.5 0 0 .5 47.90587 148.10434)" font-size="20" font-family="Helvetica"><tspan y="8" x="-45 -33.879999 -22.759997 -11.639996">5000</tspan></text>
<text fill="#323232" xml:space="preserve" transform="matrix(.5 0 0 .5 47.90587 119.715457)" font-size="20" font-family="Helvetica"><tspan y="8" x="-45 -33.879999 -22.759997 -11.639996">6000</tspan></text>
<text fill="#323232" xml:space="preserve" transform="matrix(.5 0 0 .5 47.90587 91.32657)" font-size="20" font-family="Helvetica"><tspan y="8" x="-45 -33.879999 -22.759997 -11.639996">7000</tspan></text>
<text fill="#323232" xml:space="preserve" transform="matrix(.5 0 0 .5 47.90587 62.937685)" font-size="20" font-family="Helvetica"><tspan y="8" x="-45 -33.879999 -22.759997 -11.639996">8000</tspan></text>
<text fill="#323232" xml:space="preserve" transform="matrix(.5 0 0 .5 47.90587 34.548799)" font-size="20" font-family="Helvetica"><tspan y="8" x="-45 -33.879999 -22.759997 -11.639996">9000</tspan></text>
<text fill="#323232" xml:space="preserve" transform="matrix(.5 0 0 .5 47.90587 6.1598818)" font-size="20" font-family="Helvetica"><tspan y="8" x="-56 -44.879999 -33.759996 -22.639994 -11.519993">10000</tspan></text>
<path transform="matrix(-.00000002125,-.5,.5,-.00000002125,16.905877,133.90976)" d="M-14.91935-9.360095C-15.086017-9.360095-15.16935-9.474678-15.16935-9.703845-15.158933-9.745512-15.140704-9.818428-15.114662-9.922595-15.08862-10.026762-15.052162-10.1126999-15.005287-10.180408-14.958412-10.248116-14.903725-10.28197-14.841225-10.28197-13.778725-10.28197-13.039142-10.339262-12.622475-10.453845-12.403725-10.526762-12.242267-10.761137-12.1381-11.15697L-8.559975-25.438221C-8.528725-25.604887-8.5131-25.719471-8.5131-25.781971-8.5131-25.969471-8.617267-26.078846-8.8256-26.110096-9.148517-26.172596-9.773517-26.203846-10.7006-26.203846-10.867267-26.203846-10.9506-26.31843-10.9506-26.547596-10.940183-26.589262-10.924558-26.664784-10.903725-26.774159-10.882892-26.883534-10.849037-26.969471-10.802162-27.031971-10.755287-27.094471-10.695392-27.125721-10.622475-27.125721H-1.2787247C-.07039134-27.125721 .9869003-26.83145 1.8931503-26.242909 2.7994004-25.654368 3.4947129-24.8627 3.9790879-23.867909 4.463463-22.873118 4.7056505-21.771555 4.7056505-20.563221 4.7056505-19.240305 4.429609-17.914784 3.8775254-16.586659 3.325442-15.258533 2.5546087-14.044991 1.5650253-12.946033 .575442-11.8470749-.55476638-10.974678-1.8255997-10.328845-3.096433-9.683012-4.398516-9.360095-5.7318499-9.360095H-14.91935ZM-10.059975-10.485095C-10.059975-10.349678-9.7631-10.28197-9.16935-10.28197H-6.1380999C-5.179766-10.28197-4.2500789-10.479887-3.3490372-10.87572-2.4479955-11.271553-1.6485163-11.818428-.9505997-12.516345-.29434968-13.162178 .28117118-14.013741 .7759628-15.071033 1.2707545-16.128325 1.6561712-17.232493 1.9322128-18.383534 2.2082546-19.534575 2.3462754-20.594471 2.3462754-21.563221 2.3462754-22.261137 2.2421087-22.89395 2.0337754-23.461659 1.825442-24.029368 1.5337753-24.516346 1.1587753-24.922596 .7837753-25.328846 .31242118-25.64395-.25528718-25.867909-.8229955-26.091868-1.4610163-26.203846-2.1693497-26.203846H-5.0287249C-5.4974749-26.203846-5.8099749-26.164784-5.9662249-26.086659-6.1224749-26.008534-6.2630999-25.750721-6.3880999-25.313221L-9.934975-11.047595C-10.018308-10.839262-10.059975-10.651762-10.059975-10.485095Z" fill="#323232"/>
<path transform="matrix(-.00000002125,-.5,.5,-.00000002125,16.905877,133.90976)" d="M9.688083-18.592165C9.115166-18.592165 8.607353-18.727581 8.164645-18.998415 7.7219369-19.269249 7.380791-19.633831 7.1412079-20.092165 6.901624-20.550499 6.7818329-21.066124 6.7818329-21.63904 6.7818329-22.45154 7.008395-23.256228 7.46152-24.053103 7.914645-24.849978 8.518812-25.498415 9.27402-25.998415 10.029228-26.498415 10.818291-26.748415 11.641208-26.748415 12.089125-26.748415 12.487562-26.672894 12.83652-26.521853 13.185478-26.370812 13.487562-26.157269 13.74277-25.881228 13.997978-25.605187 14.195895-25.282269 14.33652-24.912478 14.477145-24.542687 14.547458-24.13904 14.547458-23.70154 14.547458-23.07654 14.414645-22.461956 14.14902-21.85779 13.883395-21.253624 13.521416-20.704144 13.063083-20.209353 12.60475-19.714562 12.078708-19.321331 11.484958-19.029665 10.891208-18.737999 10.29225-18.592165 9.688083-18.592165ZM9.719333-19.060915C10.250583-19.060915 10.737562-19.243206 11.18027-19.60779 11.622978-19.972374 11.987562-20.433312 12.27402-20.990603 12.560478-21.547894 12.779228-22.133831 12.93027-22.748415 13.081312-23.362999 13.156833-23.915081 13.156833-24.404665 13.156833-24.935915 13.026625-25.381228 12.766208-25.740603 12.505791-26.099978 12.120375-26.279665 11.609958-26.279665 10.901625-26.279665 10.284437-25.980187 9.758395-25.381228 9.232353-24.782269 8.83652-24.066124 8.570895-23.23279 8.30527-22.399456 8.172458-21.633831 8.172458-20.935915 8.172458-20.415081 8.30527-19.972374 8.570895-19.60779 8.83652-19.243206 9.219333-19.060915 9.719333-19.060915Z" fill="#323232"/>
<path transform="matrix(.5,0,0,.5,-2.5941239,-17.340119)" stroke-width="3" stroke-linecap="butt" stroke-linejoin="round" fill="none" stroke="#0000ff" d="M141.452 322.4136 149.07494 370.82865 158.65808 401.68516 170.637 426.18745 185.4473 436.51316 203.5246 456.95146 226.17565 470.64848 254.27165 477.91819 288.90165 489.25093 332.02577 493.40217 385.16865 493.65898 451.1616 498.77159 533.05386 508.08143 634.3302 501.02333 760 507.3816"/>
<path transform="matrix(.5,0,0,.5,68.13187,143.8667)" stroke-width="3" stroke-linecap="butt" stroke-miterlimit="10" stroke-linejoin="miter" fill="none" stroke="#0000ff" d="M0-10.664-9.2350239 5.332H9.2350239Z"/>
<path transform="matrix(.5,0,0,.5,71.943347,168.07422)" stroke-width="3" stroke-linecap="butt" stroke-miterlimit="10" stroke-linejoin="miter" fill="none" stroke="#0000ff" d="M0-10.664-9.2350239 5.332H9.2350239Z"/>
<path transform="matrix(.5,0,0,.5,76.73491,183.50247)" stroke-width="3" stroke-linecap="butt" stroke-miterlimit="10" stroke-linejoin="miter" fill="none" stroke="#0000ff" d="M0-10.664-9.2350239 5.332H9.2350239Z"/>
<path transform="matrix(.5,0,0,.5,82.724369,195.7536)" stroke-width="3" stroke-linecap="butt" stroke-miterlimit="10" stroke-linejoin="miter" fill="none" stroke="#0000ff" d="M0-10.664-9.2350239 5.332H9.2350239Z"/>
<path transform="matrix(.5,0,0,.5,90.12952,200.91648)" stroke-width="3" stroke-linecap="butt" stroke-miterlimit="10" stroke-linejoin="miter" fill="none" stroke="#0000ff" d="M0-10.664-9.2350239 5.332H9.2350239Z"/>
<path transform="matrix(.5,0,0,.5,99.16817,211.13562)" stroke-width="3" stroke-linecap="butt" stroke-miterlimit="10" stroke-linejoin="miter" fill="none" stroke="#0000ff" d="M0-10.664-9.2350239 5.332H9.2350239Z"/>
<path transform="matrix(.5,0,0,.5,110.4937,217.98413)" stroke-width="3" stroke-linecap="butt" stroke-miterlimit="10" stroke-linejoin="miter" fill="none" stroke="#0000ff" d="M0-10.664-9.2350239 5.332H9.2350239Z"/>
<path transform="matrix(.5,0,0,.5,124.5417,221.61899)" stroke-width="3" stroke-linecap="butt" stroke-miterlimit="10" stroke-linejoin="miter" fill="none" stroke="#0000ff" d="M0-10.664-9.2350239 5.332H9.2350239Z"/>
<path transform="matrix(.5,0,0,.5,141.85669,227.28534)" stroke-width="3" stroke-linecap="butt" stroke-miterlimit="10" stroke-linejoin="miter" fill="none" stroke="#0000ff" d="M0-10.664-9.2350239 5.332H9.2350239Z"/>
<path transform="matrix(.5,0,0,.5,163.41875,229.36096)" stroke-width="3" stroke-linecap="butt" stroke-miterlimit="10" stroke-linejoin="miter" fill="none" stroke="#0000ff" d="M0-10.664-9.2350239 5.332H9.2350239Z"/>
<path transform="matrix(.5,0,0,.5,189.9902,229.48938)" stroke-width="3" stroke-linecap="butt" stroke-miterlimit="10" stroke-linejoin="miter" fill="none" stroke="#0000ff" d="M0-10.664-9.2350239 5.332H9.2350239Z"/>
<path transform="matrix(.5,0,0,.5,222.98667,232.04566)" stroke-width="3" stroke-linecap="butt" stroke-miterlimit="10" stroke-linejoin="miter" fill="none" stroke="#0000ff" d="M0-10.664-9.2350239 5.332H9.2350239Z"/>
<path transform="matrix(.5,0,0,.5,263.9328,236.70063)" stroke-width="3" stroke-linecap="butt" stroke-miterlimit="10" stroke-linejoin="miter" fill="none" stroke="#0000ff" d="M0-10.664-9.2350239 5.332H9.2350239Z"/>
<path transform="matrix(.5,0,0,.5,314.57099,233.17157)" stroke-width="3" stroke-linecap="butt" stroke-miterlimit="10" stroke-linejoin="miter" fill="none" stroke="#0000ff" d="M0-10.664-9.2350239 5.332H9.2350239Z"/>
<path transform="matrix(.5,0,0,.5,377.40589,236.35071)" stroke-width="3" stroke-linecap="butt" stroke-miterlimit="10" stroke-linejoin="miter" fill="none" stroke="#0000ff" d="M0-10.664-9.2350239 5.332H9.2350239Z"/>
<path transform="matrix(.5,0,0,.5,-2.5941239,-17.340119)" stroke-width="3" stroke-linecap="butt" stroke-linejoin="round" fill="none" stroke="#ff0000" d="M141.452 324.84565 149.07494 376.46397 158.65808 408.07817 170.637 430.53334 185.4473 448.1065 203.5246 462.04893 226.17565 473.60279 254.27165 482.4931 288.90165 490.26225 332.02577 496.31373 385.16865 501.17619 451.1616 505.44343 533.05386 509.21257 634.3302 511.64744 760 514.49008"/>
<path transform="matrix(.5,0,0,.5,68.13187,145.0827)" stroke-width="3" stroke-linecap="butt" stroke-miterlimit="10" stroke-linejoin="miter" fill="none" stroke="#ff0000" d="M0 10.664-9.2350239-5.332H9.2350239Z"/>
<path transform="matrix(.5,0,0,.5,71.943347,170.89188)" stroke-width="3" stroke-linecap="butt" stroke-miterlimit="10" stroke-linejoin="miter" fill="none" stroke="#ff0000" d="M0 10.664-9.2350239-5.332H9.2350239Z"/>
<path transform="matrix(.5,0,0,.5,76.73491,186.69898)" stroke-width="3" stroke-linecap="butt" stroke-miterlimit="10" stroke-linejoin="miter" fill="none" stroke="#ff0000" d="M0 10.664-9.2350239-5.332H9.2350239Z"/>
<path transform="matrix(.5,0,0,.5,82.724369,197.92655)" stroke-width="3" stroke-linecap="butt" stroke-miterlimit="10" stroke-linejoin="miter" fill="none" stroke="#ff0000" d="M0 10.664-9.2350239-5.332H9.2350239Z"/>
<path transform="matrix(.5,0,0,.5,90.12952,206.71314)" stroke-width="3" stroke-linecap="butt" stroke-miterlimit="10" stroke-linejoin="miter" fill="none" stroke="#ff0000" d="M0 10.664-9.2350239-5.332H9.2350239Z"/>
<path transform="matrix(.5,0,0,.5,99.16817,213.68436)" stroke-width="3" stroke-linecap="butt" stroke-miterlimit="10" stroke-linejoin="miter" fill="none" stroke="#ff0000" d="M0 10.664-9.2350239-5.332H9.2350239Z"/>
<path transform="matrix(.5,0,0,.5,110.4937,219.46128)" stroke-width="3" stroke-linecap="butt" stroke-miterlimit="10" stroke-linejoin="miter" fill="none" stroke="#ff0000" d="M0 10.664-9.2350239-5.332H9.2350239Z"/>
<path transform="matrix(.5,0,0,.5,124.5417,223.90644)" stroke-width="3" stroke-linecap="butt" stroke-miterlimit="10" stroke-linejoin="miter" fill="none" stroke="#ff0000" d="M0 10.664-9.2350239-5.332H9.2350239Z"/>
<path transform="matrix(.5,0,0,.5,141.85669,227.79102)" stroke-width="3" stroke-linecap="butt" stroke-miterlimit="10" stroke-linejoin="miter" fill="none" stroke="#ff0000" d="M0 10.664-9.2350239-5.332H9.2350239Z"/>
<path transform="matrix(.5,0,0,.5,163.41875,230.81674)" stroke-width="3" stroke-linecap="butt" stroke-miterlimit="10" stroke-linejoin="miter" fill="none" stroke="#ff0000" d="M0 10.664-9.2350239-5.332H9.2350239Z"/>
<path transform="matrix(.5,0,0,.5,189.9902,233.24799)" stroke-width="3" stroke-linecap="butt" stroke-miterlimit="10" stroke-linejoin="miter" fill="none" stroke="#ff0000" d="M0 10.664-9.2350239-5.332H9.2350239Z"/>
<path transform="matrix(.5,0,0,.5,222.98667,235.38159)" stroke-width="3" stroke-linecap="butt" stroke-miterlimit="10" stroke-linejoin="miter" fill="none" stroke="#ff0000" d="M0 10.664-9.2350239-5.332H9.2350239Z"/>
<path transform="matrix(.5,0,0,.5,263.9328,237.26618)" stroke-width="3" stroke-linecap="butt" stroke-miterlimit="10" stroke-linejoin="miter" fill="none" stroke="#ff0000" d="M0 10.664-9.2350239-5.332H9.2350239Z"/>
<path transform="matrix(.5,0,0,.5,314.57099,238.48358)" stroke-width="3" stroke-linecap="butt" stroke-miterlimit="10" stroke-linejoin="miter" fill="none" stroke="#ff0000" d="M0 10.664-9.2350239-5.332H9.2350239Z"/>
<path transform="matrix(.5,0,0,.5,377.40589,239.9049)" stroke-width="3" stroke-linecap="butt" stroke-miterlimit="10" stroke-linejoin="miter" fill="none" stroke="#ff0000" d="M0 10.664-9.2350239-5.332H9.2350239Z"/>
<path transform="matrix(.5,0,0,.5,-2.5941239,-17.340119)" stroke-width="3" stroke-linecap="butt" stroke-linejoin="round" fill="none" stroke="#00cc00" d="M141.452 138.89046 149.07494 209.17896 158.65808 261.8202 170.637 303.3459 185.4473 334.12117 203.5246 354.79017 226.17565 374.81654 254.27165 393.56355 288.90165 408.00175 332.02577 417.215 385.16865 424.51539 451.1616 430.10716 533.05386 434.26188 634.3302 446.12297 760 447.69709"/>
<path transform="matrix(.5,0,0,.5,68.13187,52.105134)" stroke-width="3" stroke-linecap="butt" stroke-miterlimit="10" stroke-linejoin="miter" fill="none" stroke="#00cc00" d="M0-8V8M-8 0H8M-5.6568548-5.6568548 5.6568548 5.6568548M-5.6568548 5.6568548 5.6568548-5.6568548"/>
<path transform="matrix(.5,0,0,.5,71.943347,87.24936)" stroke-width="3" stroke-linecap="butt" stroke-miterlimit="10" stroke-linejoin="miter" fill="none" stroke="#00cc00" d="M0-8V8M-8 0H8M-5.6568548-5.6568548 5.6568548 5.6568548M-5.6568548 5.6568548 5.6568548-5.6568548"/>
<path transform="matrix(.5,0,0,.5,76.73491,113.56998)" stroke-width="3" stroke-linecap="butt" stroke-miterlimit="10" stroke-linejoin="miter" fill="none" stroke="#00cc00" d="M0-8V8M-8 0H8M-5.6568548-5.6568548 5.6568548 5.6568548M-5.6568548 5.6568548 5.6568548-5.6568548"/>
<path transform="matrix(.5,0,0,.5,82.724369,134.33283)" stroke-width="3" stroke-linecap="butt" stroke-miterlimit="10" stroke-linejoin="miter" fill="none" stroke="#00cc00" d="M0-8V8M-8 0H8M-5.6568548-5.6568548 5.6568548 5.6568548M-5.6568548 5.6568548 5.6568548-5.6568548"/>
<path transform="matrix(.5,0,0,.5,90.12952,149.72046)" stroke-width="3" stroke-linecap="butt" stroke-miterlimit="10" stroke-linejoin="miter" fill="none" stroke="#00cc00" d="M0-8V8M-8 0H8M-5.6568548-5.6568548 5.6568548 5.6568548M-5.6568548 5.6568548 5.6568548-5.6568548"/>
<path transform="matrix(.5,0,0,.5,99.16817,160.05496)" stroke-width="3" stroke-linecap="butt" stroke-miterlimit="10" stroke-linejoin="miter" fill="none" stroke="#00cc00" d="M0-8V8M-8 0H8M-5.6568548-5.6568548 5.6568548 5.6568548M-5.6568548 5.6568548 5.6568548-5.6568548"/>
<path transform="matrix(.5,0,0,.5,110.4937,170.06815)" stroke-width="3" stroke-linecap="butt" stroke-miterlimit="10" stroke-linejoin="miter" fill="none" stroke="#00cc00" d="M0-8V8M-8 0H8M-5.6568548-5.6568548 5.6568548 5.6568548M-5.6568548 5.6568548 5.6568548-5.6568548"/>
<path transform="matrix(.5,0,0,.5,124.5417,179.44165)" stroke-width="3" stroke-linecap="butt" stroke-miterlimit="10" stroke-linejoin="miter" fill="none" stroke="#00cc00" d="M0-8V8M-8 0H8M-5.6568548-5.6568548 5.6568548 5.6568548M-5.6568548 5.6568548 5.6568548-5.6568548"/>
<path transform="matrix(.5,0,0,.5,141.85669,186.66077)" stroke-width="3" stroke-linecap="butt" stroke-miterlimit="10" stroke-linejoin="miter" fill="none" stroke="#00cc00" d="M0-8V8M-8 0H8M-5.6568548-5.6568548 5.6568548 5.6568548M-5.6568548 5.6568548 5.6568548-5.6568548"/>
<path transform="matrix(.5,0,0,.5,163.41875,191.2674)" stroke-width="3" stroke-linecap="butt" stroke-miterlimit="10" stroke-linejoin="miter" fill="none" stroke="#00cc00" d="M0-8V8M-8 0H8M-5.6568548-5.6568548 5.6568548 5.6568548M-5.6568548 5.6568548 5.6568548-5.6568548"/>
<path transform="matrix(.5,0,0,.5,189.9902,194.91757)" stroke-width="3" stroke-linecap="butt" stroke-miterlimit="10" stroke-linejoin="miter" fill="none" stroke="#00cc00" d="M0-8V8M-8 0H8M-5.6568548-5.6568548 5.6568548 5.6568548M-5.6568548 5.6568548 5.6568548-5.6568548"/>
<path transform="matrix(.5,0,0,.5,222.98667,197.71347)" stroke-width="3" stroke-linecap="butt" stroke-miterlimit="10" stroke-linejoin="miter" fill="none" stroke="#00cc00" d="M0-8V8M-8 0H8M-5.6568548-5.6568548 5.6568548 5.6568548M-5.6568548 5.6568548 5.6568548-5.6568548"/>
<path transform="matrix(.5,0,0,.5,263.9328,199.79084)" stroke-width="3" stroke-linecap="butt" stroke-miterlimit="10" stroke-linejoin="miter" fill="none" stroke="#00cc00" d="M0-8V8M-8 0H8M-5.6568548-5.6568548 5.6568548 5.6568548M-5.6568548 5.6568548 5.6568548-5.6568548"/>
<path transform="matrix(.5,0,0,.5,314.57099,205.72138)" stroke-width="3" stroke-linecap="butt" stroke-miterlimit="10" stroke-linejoin="miter" fill="none" stroke="#00cc00" d="M0-8V8M-8 0H8M-5.6568548-5.6568548 5.6568548 5.6568548M-5.6568548 5.6568548 5.6568548-5.6568548"/>
<path transform="matrix(.5,0,0,.5,377.40589,206.50843)" stroke-width="3" stroke-linecap="butt" stroke-miterlimit="10" stroke-linejoin="miter" fill="none" stroke="#00cc00" d="M0-8V8M-8 0H8M-5.6568548-5.6568548 5.6568548 5.6568548M-5.6568548 5.6568548 5.6568548-5.6568548"/>
<path transform="matrix(.5,0,0,.5,-2.5941239,-17.340119)" stroke-width="3" stroke-linecap="butt" stroke-linejoin="round" fill="none" stroke="#000000" d="M141.452 168.6148 149.07494 237.81562 158.65808 284.7781 170.637 321.13749 185.4473 351.45365 203.5246 370.38429 226.17565 389.32273 254.27165 405.24717 288.90165 418.89286 332.02577 428.67826 385.16865 435.83848 451.1616 440.28349 533.05386 445.15736 634.3302 454.8936 760 455.13316"/>
<path transform="matrix(.5,0,0,.5,68.13187,66.967288)" stroke-width="3" stroke-linecap="butt" stroke-miterlimit="10" stroke-linejoin="miter" fill="none" stroke="#000000" d="M-6-6V6H6V-6Z"/>
<path transform="matrix(.5,0,0,.5,71.943347,101.56769)" stroke-width="3" stroke-linecap="butt" stroke-miterlimit="10" stroke-linejoin="miter" fill="none" stroke="#000000" d="M-6-6V6H6V-6Z"/>
<path transform="matrix(.5,0,0,.5,76.73491,125.04895)" stroke-width="3" stroke-linecap="butt" stroke-miterlimit="10" stroke-linejoin="miter" fill="none" stroke="#000000" d="M-6-6V6H6V-6Z"/>
<path transform="matrix(.5,0,0,.5,82.724369,143.22864)" stroke-width="3" stroke-linecap="butt" stroke-miterlimit="10" stroke-linejoin="miter" fill="none" stroke="#000000" d="M-6-6V6H6V-6Z"/>
<path transform="matrix(.5,0,0,.5,90.12952,158.38672)" stroke-width="3" stroke-linecap="butt" stroke-miterlimit="10" stroke-linejoin="miter" fill="none" stroke="#000000" d="M-6-6V6H6V-6Z"/>
<path transform="matrix(.5,0,0,.5,99.16817,167.85202)" stroke-width="3" stroke-linecap="butt" stroke-miterlimit="10" stroke-linejoin="miter" fill="none" stroke="#000000" d="M-6-6V6H6V-6Z"/>
<path transform="matrix(.5,0,0,.5,110.4937,177.32126)" stroke-width="3" stroke-linecap="butt" stroke-miterlimit="10" stroke-linejoin="miter" fill="none" stroke="#000000" d="M-6-6V6H6V-6Z"/>
<path transform="matrix(.5,0,0,.5,124.5417,185.28348)" stroke-width="3" stroke-linecap="butt" stroke-miterlimit="10" stroke-linejoin="miter" fill="none" stroke="#000000" d="M-6-6V6H6V-6Z"/>
<path transform="matrix(.5,0,0,.5,141.85669,192.10633)" stroke-width="3" stroke-linecap="butt" stroke-miterlimit="10" stroke-linejoin="miter" fill="none" stroke="#000000" d="M-6-6V6H6V-6Z"/>
<path transform="matrix(.5,0,0,.5,163.41875,196.99903)" stroke-width="3" stroke-linecap="butt" stroke-miterlimit="10" stroke-linejoin="miter" fill="none" stroke="#000000" d="M-6-6V6H6V-6Z"/>
<path transform="matrix(.5,0,0,.5,189.9902,200.57913)" stroke-width="3" stroke-linecap="butt" stroke-miterlimit="10" stroke-linejoin="miter" fill="none" stroke="#000000" d="M-6-6V6H6V-6Z"/>
<path transform="matrix(.5,0,0,.5,222.98667,202.80164)" stroke-width="3" stroke-linecap="butt" stroke-miterlimit="10" stroke-linejoin="miter" fill="none" stroke="#000000" d="M-6-6V6H6V-6Z"/>
<path transform="matrix(.5,0,0,.5,263.9328,205.23856)" stroke-width="3" stroke-linecap="butt" stroke-miterlimit="10" stroke-linejoin="miter" fill="none" stroke="#000000" d="M-6-6V6H6V-6Z"/>
<path transform="matrix(.5,0,0,.5,314.57099,210.10669)" stroke-width="3" stroke-linecap="butt" stroke-miterlimit="10" stroke-linejoin="miter" fill="none" stroke="#000000" d="M-6-6V6H6V-6Z"/>
<path transform="matrix(.5,0,0,.5,377.40589,210.22647)" stroke-width="3" stroke-linecap="butt" stroke-miterlimit="10" stroke-linejoin="miter" fill="none" stroke="#000000" d="M-6-6V6H6V-6Z"/>
<path transform="matrix(.5,0,0,.5,-2.5941239,-17.340119)" stroke-width="3" stroke-linecap="butt" stroke-linejoin="round" fill="none" stroke="#ff00ff" d="M141.452 85.6014 149.07494 171.82964 158.65808 230.81659 170.637 276.43424 185.4473 310.2556 203.5246 333.62379 226.17565 355.6935 254.27165 375.3997 288.90165 388.26457 332.02577 400.92457 385.16865 407.49659 451.1616 415.56297 533.05386 423.12898 634.3302 432.86213 760 433.03578"/>
<path transform="matrix(.5,0,0,.5,68.13187,25.460602)" stroke-width="3" stroke-linecap="butt" stroke-miterlimit="10" stroke-linejoin="miter" fill="none" stroke="#ff00ff" d="M-8 0 0 10.64 8 0 0-10.64Z"/>
<path transform="matrix(.5,0,0,.5,71.943347,68.57471)" stroke-width="3" stroke-linecap="butt" stroke-miterlimit="10" stroke-linejoin="miter" fill="none" stroke="#ff00ff" d="M-8 0 0 10.64 8 0 0-10.64Z"/>
<path transform="matrix(.5,0,0,.5,76.73491,98.06818)" stroke-width="3" stroke-linecap="butt" stroke-miterlimit="10" stroke-linejoin="miter" fill="none" stroke="#ff00ff" d="M-8 0 0 10.64 8 0 0-10.64Z"/>
<path transform="matrix(.5,0,0,.5,82.724369,120.877017)" stroke-width="3" stroke-linecap="butt" stroke-miterlimit="10" stroke-linejoin="miter" fill="none" stroke="#ff00ff" d="M-8 0 0 10.64 8 0 0-10.64Z"/>
<path transform="matrix(.5,0,0,.5,90.12952,137.78769)" stroke-width="3" stroke-linecap="butt" stroke-miterlimit="10" stroke-linejoin="miter" fill="none" stroke="#ff00ff" d="M-8 0 0 10.64 8 0 0-10.64Z"/>
<path transform="matrix(.5,0,0,.5,99.16817,149.47177)" stroke-width="3" stroke-linecap="butt" stroke-miterlimit="10" stroke-linejoin="miter" fill="none" stroke="#ff00ff" d="M-8 0 0 10.64 8 0 0-10.64Z"/>
<path transform="matrix(.5,0,0,.5,110.4937,160.50666)" stroke-width="3" stroke-linecap="butt" stroke-miterlimit="10" stroke-linejoin="miter" fill="none" stroke="#ff00ff" d="M-8 0 0 10.64 8 0 0-10.64Z"/>
<path transform="matrix(.5,0,0,.5,124.5417,170.35974)" stroke-width="3" stroke-linecap="butt" stroke-miterlimit="10" stroke-linejoin="miter" fill="none" stroke="#ff00ff" d="M-8 0 0 10.64 8 0 0-10.64Z"/>
<path transform="matrix(.5,0,0,.5,141.85669,176.79218)" stroke-width="3" stroke-linecap="butt" stroke-miterlimit="10" stroke-linejoin="miter" fill="none" stroke="#ff00ff" d="M-8 0 0 10.64 8 0 0-10.64Z"/>
<path transform="matrix(.5,0,0,.5,163.41875,183.12216)" stroke-width="3" stroke-linecap="butt" stroke-miterlimit="10" stroke-linejoin="miter" fill="none" stroke="#ff00ff" d="M-8 0 0 10.64 8 0 0-10.64Z"/>
<path transform="matrix(.5,0,0,.5,189.9902,186.40818)" stroke-width="3" stroke-linecap="butt" stroke-miterlimit="10" stroke-linejoin="miter" fill="none" stroke="#ff00ff" d="M-8 0 0 10.64 8 0 0-10.64Z"/>
<path transform="matrix(.5,0,0,.5,222.98667,190.44138)" stroke-width="3" stroke-linecap="butt" stroke-miterlimit="10" stroke-linejoin="miter" fill="none" stroke="#ff00ff" d="M-8 0 0 10.64 8 0 0-10.64Z"/>
<path transform="matrix(.5,0,0,.5,263.9328,194.22437)" stroke-width="3" stroke-linecap="butt" stroke-miterlimit="10" stroke-linejoin="miter" fill="none" stroke="#ff00ff" d="M-8 0 0 10.64 8 0 0-10.64Z"/>
<path transform="matrix(.5,0,0,.5,314.57099,199.09095)" stroke-width="3" stroke-linecap="butt" stroke-miterlimit="10" stroke-linejoin="miter" fill="none" stroke="#ff00ff" d="M-8 0 0 10.64 8 0 0-10.64Z"/>
<path transform="matrix(.5,0,0,.5,377.40589,199.17777)" stroke-width="3" stroke-linecap="butt" stroke-miterlimit="10" stroke-linejoin="miter" fill="none" stroke="#ff00ff" d="M-8 0 0 10.64 8 0 0-10.64Z"/>
<path transform="matrix(.5,0,0,.5,-2.5941239,-17.340119)" d="M740 191V67H591V191Z" fill="#ffffff"/>
<text xml:space="preserve" transform="matrix(.5 0 0 .5 328.038 23.409882)" font-size="18" font-family="Helvetica"><tspan y="7.5" x="0 12.0060009 25.002003">SUB</tspan></text>
<path transform="matrix(.5,0,0,.5,-2.5941239,-17.340119)" stroke-width="3" stroke-linecap="butt" stroke-linejoin="round" fill="none" stroke="#0000ff" d="M596.9799 81.5H656.77926"/>
<path transform="matrix(.5,0,0,.5,310.84568,23.409882)" stroke-width="3" stroke-linecap="butt" stroke-miterlimit="10" stroke-linejoin="miter" fill="none" stroke="#0000ff" d="M0-10.664-9.2350239 5.332H9.2350239Z"/>
<text xml:space="preserve" transform="matrix(.5 0 0 .5 328.038 35.28488)" font-size="18" font-family="Helvetica"><tspan y="7.5" x="0 12.0060009 22.014002">ALT</tspan></text>
<path transform="matrix(.5,0,0,.5,-2.5941239,-17.340119)" stroke-width="3" stroke-linecap="butt" stroke-linejoin="round" fill="none" stroke="#ff0000" d="M596.9799 105.25H656.77926"/>
<path transform="matrix(.5,0,0,.5,310.84568,35.28488)" stroke-width="3" stroke-linecap="butt" stroke-miterlimit="10" stroke-linejoin="miter" fill="none" stroke="#ff0000" d="M0 10.664-9.2350239-5.332H9.2350239Z"/>
<text xml:space="preserve" transform="matrix(.5 0 0 .5 328.038 47.15988)" font-size="18" font-family="Helvetica"><tspan y="7.5" x="0 12.0060009 26.010003 32.004 42.012 55.008005">PO-LRU</tspan></text>
<path transform="matrix(.5,0,0,.5,-2.5941239,-17.340119)" stroke-width="3" stroke-linecap="butt" stroke-linejoin="round" fill="none" stroke="#00cc00" d="M596.9799 129H656.77926"/>
<path transform="matrix(.5,0,0,.5,310.84568,47.15988)" stroke-width="3" stroke-linecap="butt" stroke-miterlimit="10" stroke-linejoin="miter" fill="none" stroke="#00cc00" d="M0-8V8M-8 0H8M-5.6568548-5.6568548 5.6568548 5.6568548M-5.6568548 5.6568548 5.6568548-5.6568548"/>
<text xml:space="preserve" transform="matrix(.5 0 0 .5 328.038 59.03488)" font-size="18" font-family="Helvetica"><tspan y="7.5" x="0 12.0060009 26.010003 32.004 42.012 53.010004">PO-LFU</tspan></text>
<path transform="matrix(.5,0,0,.5,-2.5941239,-17.340119)" stroke-width="3" stroke-linecap="butt" stroke-linejoin="round" fill="none" stroke="#000000" d="M596.9799 152.75H656.77926"/>
<path transform="matrix(.5,0,0,.5,310.84568,59.03488)" stroke-width="3" stroke-linecap="butt" stroke-miterlimit="10" stroke-linejoin="miter" fill="none" stroke="#000000" d="M-6-6V6H6V-6Z"/>
<text xml:space="preserve" transform="matrix(.5 0 0 .5 328.038 70.90988)" font-size="18" font-family="Helvetica"><tspan y="7.5" x="0 12.0060009 26.010003 32.004 43.002004 48.006006 59.004007">PO-FIFO</tspan></text>
<path transform="matrix(.5,0,0,.5,-2.5941239,-17.340119)" stroke-width="3" stroke-linecap="butt" stroke-linejoin="round" fill="none" stroke="#ff00ff" d="M596.9799 176.5H656.77926"/>
<path transform="matrix(.5,0,0,.5,310.84568,70.90988)" stroke-width="3" stroke-linecap="butt" stroke-miterlimit="10" stroke-linejoin="miter" fill="none" stroke="#ff00ff" d="M-8 0 0 10.64 8 0 0-10.64Z"/>
<path transform="matrix(.5,0,0,.5,-2.5941239,-17.340119)" stroke-width="1" stroke-linecap="butt" stroke-miterlimit="10" stroke-linejoin="miter" fill="none" stroke="#323232" d="M591 191V67H740V191Z"/>
</svg>
