<?xml version="1.0" encoding="UTF-8"?>
<svg id="Layer_1" data-name="Layer 1" xmlns="http://www.w3.org/2000/svg" version="1.1" xmlns:xlink="http://www.w3.org/1999/xlink" viewBox="0 0 418.33 316.18">
  <defs>
    <style>
      .cls-1 {
        fill: #000;
      }

      .cls-1, .cls-2, .cls-3, .cls-4 {
        stroke-width: 0px;
      }

      .cls-5 {
        clip-path: url(#clippath-2);
      }

      .cls-6 {
        stroke: blue;
      }

      .cls-6, .cls-7 {
        stroke-width: 3px;
      }

      .cls-6, .cls-7, .cls-2, .cls-8, .cls-9, .cls-10 {
        fill: none;
      }

      .cls-6, .cls-7, .cls-9 {
        stroke-linecap: square;
      }

      .cls-6, .cls-7, .cls-10 {
        stroke-linejoin: round;
      }

      .cls-7 {
        stroke: red;
      }

      .cls-11 {
        clip-path: url(#clippath-1);
      }

      .cls-3, .cls-8 {
        opacity: .8;
      }

      .cls-3, .cls-4 {
        fill: #fff;
      }

      .cls-8 {
        stroke: #ccc;
      }

      .cls-8, .cls-9 {
        stroke-miterlimit: 10;
      }

      .cls-12 {
        clip-path: url(#clippath);
      }

      .cls-9, .cls-10 {
        stroke: #000;
        stroke-width: .8px;
      }
    </style>
    <clipPath id="clippath">
      <rect class="cls-2" x="330.7" y="293.56" width="17.77" height="14.49"/>
    </clipPath>
    <clipPath id="clippath-1">
      <rect class="cls-2" x="54.01" y="7.2" width="357.12" height="266.11"/>
    </clipPath>
    <clipPath id="clippath-2">
      <rect class="cls-2" x="54.01" y="7.2" width="357.12" height="266.11"/>
    </clipPath>
  </defs>
  <rect class="cls-4" width="418.33" height="316.18"/>
  <rect class="cls-4" x="54.01" y="7.2" width="357.12" height="266.11"/>
  <line class="cls-1" x1="79.26" y1="273.31" x2="79.26" y2="276.81"/>
  <line class="cls-10" x1="79.26" y1="273.31" x2="79.26" y2="276.81"/>
  <path class="cls-1" d="M71.64,287.08h3.44v.83h-4.63v-.83c.37-.38.88-.9,1.53-1.56.64-.65,1.05-1.07,1.22-1.26.32-.35.54-.65.66-.9.12-.24.19-.49.19-.73,0-.38-.14-.7-.41-.94-.27-.24-.62-.37-1.06-.37-.31,0-.64.06-.98.16-.34.11-.71.27-1.1.49v-1c.4-.16.77-.28,1.11-.36.34-.08.66-.12.95-.12.75,0,1.35.19,1.8.57.45.38.68.88.68,1.51,0,.3-.06.59-.17.85-.11.27-.31.59-.61.95-.08.1-.34.37-.78.82-.44.45-1.05,1.08-1.84,1.89Z"/>
  <path class="cls-1" d="M77.16,280.62h3.87v.83h-2.97v1.79c.14-.05.29-.09.43-.11.14-.02.29-.04.43-.04.81,0,1.45.23,1.93.67.48.45.72,1.05.72,1.81s-.25,1.4-.74,1.83-1.18.64-2.06.64c-.31,0-.62-.03-.94-.07-.32-.05-.64-.12-.98-.23v-.99c.29.16.59.28.91.36.31.08.64.11.99.11.56,0,1.01-.14,1.34-.44.32-.3.49-.7.49-1.21s-.17-.9-.49-1.2c-.33-.3-.78-.45-1.34-.45-.26,0-.53.03-.79.09-.26.06-.53.15-.8.27v-3.66Z"/>
  <path class="cls-1" d="M85.62,280.49c.81,0,1.43.33,1.87.97.43.65.65,1.59.65,2.81s-.22,2.17-.65,2.81c-.44.64-1.06.96-1.88.96s-1.44-.32-1.87-.96-.64-1.58-.64-2.81.21-2.16.64-2.81c.43-.64,1.06-.97,1.88-.97ZM85.62,281.27c-.51,0-.89.25-1.15.75s-.38,1.25-.38,2.25.12,1.75.38,2.25.64.75,1.15.75.89-.25,1.15-.75c.25-.5.38-1.25.38-2.25s-.13-1.75-.38-2.25c-.26-.5-.64-.75-1.15-.75Z"/>
  <line class="cls-1" x1="124.35" y1="273.31" x2="124.35" y2="276.81"/>
  <line class="cls-10" x1="124.35" y1="273.31" x2="124.35" y2="276.81"/>
  <path class="cls-1" d="M115.9,280.62h3.87v.83h-2.97v1.79c.14-.05.29-.09.43-.11.14-.02.29-.04.43-.04.81,0,1.45.23,1.93.67.48.45.72,1.05.72,1.81s-.25,1.4-.74,1.83-1.18.64-2.06.64c-.31,0-.62-.03-.94-.07-.32-.05-.64-.12-.98-.23v-.99c.29.16.59.28.91.36.31.08.64.11.99.11.56,0,1.01-.14,1.34-.44.32-.3.49-.7.49-1.21s-.17-.9-.49-1.2c-.33-.3-.78-.45-1.34-.45-.26,0-.53.03-.79.09-.26.06-.53.15-.8.27v-3.66Z"/>
  <path class="cls-1" d="M124.36,280.49c.81,0,1.43.33,1.87.97.43.65.65,1.59.65,2.81s-.22,2.17-.65,2.81c-.44.64-1.06.96-1.88.96s-1.44-.32-1.87-.96-.64-1.58-.64-2.81.21-2.16.64-2.81c.43-.64,1.06-.97,1.88-.97ZM124.36,281.27c-.51,0-.89.25-1.15.75s-.38,1.25-.38,2.25.12,1.75.38,2.25.64.75,1.15.75.89-.25,1.15-.75c.25-.5.38-1.25.38-2.25s-.13-1.75-.38-2.25c-.26-.5-.64-.75-1.15-.75Z"/>
  <path class="cls-1" d="M130.72,280.49c.81,0,1.43.33,1.87.97.43.65.65,1.59.65,2.81s-.22,2.17-.65,2.81c-.44.64-1.06.96-1.88.96s-1.44-.32-1.87-.96c-.43-.64-.64-1.58-.64-2.81s.21-2.16.64-2.81c.43-.64,1.06-.97,1.88-.97ZM130.72,281.27c-.51,0-.89.25-1.15.75-.26.5-.38,1.25-.38,2.25s.12,1.75.38,2.25c.26.5.64.75,1.15.75s.89-.25,1.15-.75c.25-.5.38-1.25.38-2.25s-.13-1.75-.38-2.25c-.26-.5-.64-.75-1.15-.75Z"/>
  <line class="cls-1" x1="169.45" y1="273.31" x2="169.45" y2="276.81"/>
  <line class="cls-10" x1="169.45" y1="273.31" x2="169.45" y2="276.81"/>
  <polygon class="cls-1" points="160.73 280.62 165.42 280.62 165.42 281.04 162.77 287.91 161.74 287.91 164.23 281.45 160.73 281.45 160.73 280.62"/>
  <path class="cls-1" d="M167.35,280.62h3.87v.83h-2.97v1.79c.14-.05.29-.09.43-.11s.29-.04.43-.04c.81,0,1.45.23,1.93.67.48.45.72,1.05.72,1.81s-.25,1.4-.74,1.83-1.18.64-2.06.64c-.31,0-.62-.03-.94-.07-.32-.05-.64-.12-.98-.23v-.99c.29.16.59.28.91.36.31.08.64.11.99.11.56,0,1.01-.14,1.34-.44.32-.3.49-.7.49-1.21s-.17-.9-.49-1.2c-.33-.3-.78-.45-1.34-.45-.26,0-.53.03-.79.09-.26.06-.53.15-.8.27v-3.66Z"/>
  <path class="cls-1" d="M175.81,280.49c.81,0,1.43.33,1.87.97.43.65.65,1.59.65,2.81s-.22,2.17-.65,2.81c-.44.64-1.06.96-1.88.96s-1.44-.32-1.87-.96c-.43-.64-.64-1.58-.64-2.81s.21-2.16.64-2.81c.43-.64,1.06-.97,1.88-.97ZM175.81,281.27c-.51,0-.89.25-1.15.75s-.38,1.25-.38,2.25.12,1.75.38,2.25.64.75,1.15.75.89-.25,1.15-.75c.25-.5.38-1.25.38-2.25s-.13-1.75-.38-2.25c-.26-.5-.64-.75-1.15-.75Z"/>
  <line class="cls-1" x1="214.54" y1="273.31" x2="214.54" y2="276.81"/>
  <line class="cls-10" x1="214.54" y1="273.31" x2="214.54" y2="276.81"/>
  <polygon class="cls-1" points="203.06 287.08 204.67 287.08 204.67 281.52 202.92 281.87 202.92 280.97 204.66 280.62 205.65 280.62 205.65 287.08 207.26 287.08 207.26 287.91 203.06 287.91 203.06 287.08"/>
  <path class="cls-1" d="M211.36,280.49c.81,0,1.43.33,1.87.97.43.65.65,1.59.65,2.81s-.22,2.17-.65,2.81c-.44.64-1.06.96-1.88.96s-1.44-.32-1.87-.96c-.43-.64-.64-1.58-.64-2.81s.21-2.16.64-2.81c.43-.64,1.06-.97,1.88-.97ZM211.36,281.27c-.51,0-.89.25-1.15.75s-.38,1.25-.38,2.25.12,1.75.38,2.25.64.75,1.15.75.89-.25,1.15-.75c.25-.5.38-1.25.38-2.25s-.13-1.75-.38-2.25c-.26-.5-.64-.75-1.15-.75Z"/>
  <path class="cls-1" d="M217.72,280.49c.81,0,1.43.33,1.87.97.43.65.65,1.59.65,2.81s-.22,2.17-.65,2.81c-.44.64-1.06.96-1.88.96s-1.44-.32-1.87-.96c-.43-.64-.64-1.58-.64-2.81s.21-2.16.64-2.81c.43-.64,1.06-.97,1.88-.97ZM217.72,281.27c-.51,0-.89.25-1.15.75s-.38,1.25-.38,2.25.12,1.75.38,2.25.64.75,1.15.75.89-.25,1.15-.75c.25-.5.38-1.25.38-2.25s-.13-1.75-.38-2.25c-.26-.5-.64-.75-1.15-.75Z"/>
  <path class="cls-1" d="M224.08,280.49c.81,0,1.43.33,1.87.97.43.65.65,1.59.65,2.81s-.22,2.17-.65,2.81c-.44.64-1.06.96-1.88.96s-1.44-.32-1.87-.96c-.43-.64-.64-1.58-.64-2.81s.21-2.16.64-2.81c.43-.64,1.06-.97,1.88-.97ZM224.08,281.27c-.51,0-.89.25-1.15.75s-.38,1.25-.38,2.25.12,1.75.38,2.25.64.75,1.15.75.89-.25,1.15-.75c.25-.5.38-1.25.38-2.25s-.13-1.75-.38-2.25c-.26-.5-.64-.75-1.15-.75Z"/>
  <line class="cls-1" x1="259.63" y1="273.31" x2="259.63" y2="276.81"/>
  <line class="cls-10" x1="259.63" y1="273.31" x2="259.63" y2="276.81"/>
  <polygon class="cls-1" points="248.15 287.08 249.76 287.08 249.76 281.52 248.01 281.87 248.01 280.97 249.75 280.62 250.74 280.62 250.74 287.08 252.35 287.08 252.35 287.91 248.15 287.91 248.15 287.08"/>
  <path class="cls-1" d="M255.19,287.08h3.44v.83h-4.63v-.83c.37-.38.88-.9,1.53-1.56.64-.65,1.05-1.07,1.22-1.26.32-.35.54-.65.66-.9.12-.24.19-.49.19-.73,0-.38-.14-.7-.41-.94-.27-.24-.62-.37-1.06-.37-.31,0-.64.06-.98.16-.34.11-.71.27-1.1.49v-1c.4-.16.77-.28,1.11-.36.34-.08.66-.12.95-.12.75,0,1.35.19,1.8.57.45.38.68.88.68,1.51,0,.3-.06.59-.17.85-.11.27-.31.59-.61.95-.08.1-.34.37-.78.82-.44.45-1.05,1.08-1.84,1.89Z"/>
  <path class="cls-1" d="M260.71,280.62h3.87v.83h-2.97v1.79c.14-.05.29-.09.43-.11.14-.02.29-.04.43-.04.81,0,1.45.23,1.93.67.48.45.72,1.05.72,1.81s-.25,1.4-.74,1.83-1.18.64-2.06.64c-.31,0-.62-.03-.94-.07-.32-.05-.64-.12-.98-.23v-.99c.29.16.59.28.91.36.31.08.64.11.99.11.56,0,1.01-.14,1.34-.44.32-.3.49-.7.49-1.21s-.17-.9-.49-1.2c-.33-.3-.78-.45-1.34-.45-.26,0-.53.03-.79.09-.26.06-.53.15-.8.27v-3.66Z"/>
  <path class="cls-1" d="M269.17,280.49c.81,0,1.43.33,1.87.97.43.65.65,1.59.65,2.81s-.22,2.17-.65,2.81c-.44.64-1.06.96-1.88.96s-1.44-.32-1.87-.96c-.43-.64-.64-1.58-.64-2.81s.21-2.16.64-2.81c.43-.64,1.06-.97,1.88-.97ZM269.17,281.27c-.51,0-.89.25-1.15.75s-.38,1.25-.38,2.25.12,1.75.38,2.25.64.75,1.15.75.89-.25,1.15-.75c.25-.5.38-1.25.38-2.25s-.13-1.75-.38-2.25c-.26-.5-.64-.75-1.15-.75Z"/>
  <line class="cls-1" x1="304.72" y1="273.31" x2="304.72" y2="276.81"/>
  <line class="cls-10" x1="304.72" y1="273.31" x2="304.72" y2="276.81"/>
  <polygon class="cls-1" points="293.24 287.08 294.85 287.08 294.85 281.52 293.1 281.87 293.1 280.97 294.84 280.62 295.83 280.62 295.83 287.08 297.44 287.08 297.44 287.91 293.24 287.91 293.24 287.08"/>
  <path class="cls-1" d="M299.44,280.62h3.87v.83h-2.97v1.79c.14-.05.29-.09.43-.11.14-.02.29-.04.43-.04.81,0,1.45.23,1.93.67.48.45.72,1.05.72,1.81s-.25,1.4-.74,1.83-1.18.64-2.06.64c-.31,0-.62-.03-.94-.07-.32-.05-.64-.12-.98-.23v-.99c.29.16.59.28.91.36.31.08.64.11.99.11.56,0,1.01-.14,1.34-.44.32-.3.49-.7.49-1.21s-.17-.9-.49-1.2c-.33-.3-.78-.45-1.34-.45-.26,0-.53.03-.79.09-.26.06-.53.15-.8.27v-3.66Z"/>
  <path class="cls-1" d="M307.9,280.49c.81,0,1.43.33,1.87.97.43.65.65,1.59.65,2.81s-.22,2.17-.65,2.81c-.44.64-1.06.96-1.88.96s-1.44-.32-1.87-.96c-.43-.64-.64-1.58-.64-2.81s.21-2.16.64-2.81c.43-.64,1.06-.97,1.88-.97ZM307.9,281.27c-.51,0-.89.25-1.15.75s-.38,1.25-.38,2.25.12,1.75.38,2.25.64.75,1.15.75.89-.25,1.15-.75c.25-.5.38-1.25.38-2.25s-.13-1.75-.38-2.25c-.26-.5-.64-.75-1.15-.75Z"/>
  <path class="cls-1" d="M314.26,280.49c.81,0,1.43.33,1.87.97.43.65.65,1.59.65,2.81s-.22,2.17-.65,2.81c-.44.64-1.06.96-1.88.96s-1.44-.32-1.87-.96c-.43-.64-.64-1.58-.64-2.81s.21-2.16.64-2.81c.43-.64,1.06-.97,1.88-.97ZM314.26,281.27c-.51,0-.89.25-1.15.75s-.38,1.25-.38,2.25.12,1.75.38,2.25.64.75,1.15.75.89-.25,1.15-.75c.25-.5.38-1.25.38-2.25s-.13-1.75-.38-2.25c-.26-.5-.64-.75-1.15-.75Z"/>
  <line class="cls-1" x1="349.81" y1="273.31" x2="349.81" y2="276.81"/>
  <line class="cls-10" x1="349.81" y1="273.31" x2="349.81" y2="276.81"/>
  <polygon class="cls-1" points="338.33 287.08 339.94 287.08 339.94 281.52 338.19 281.87 338.19 280.97 339.93 280.62 340.92 280.62 340.92 287.08 342.53 287.08 342.53 287.91 338.33 287.91 338.33 287.08"/>
  <polygon class="cls-1" points="344.27 280.62 348.96 280.62 348.96 281.04 346.31 287.91 345.28 287.91 347.77 281.45 344.27 281.45 344.27 280.62"/>
  <path class="cls-1" d="M350.89,280.62h3.87v.83h-2.97v1.79c.14-.05.29-.09.43-.11.14-.02.29-.04.43-.04.81,0,1.45.23,1.93.67.48.45.72,1.05.72,1.81s-.25,1.4-.74,1.83-1.18.64-2.06.64c-.31,0-.62-.03-.94-.07-.32-.05-.64-.12-.98-.23v-.99c.29.16.59.28.91.36.31.08.64.11.99.11.56,0,1.01-.14,1.34-.44.32-.3.49-.7.49-1.21s-.17-.9-.49-1.2c-.33-.3-.78-.45-1.34-.45-.26,0-.53.03-.79.09-.26.06-.53.15-.8.27v-3.66Z"/>
  <path class="cls-1" d="M359.35,280.49c.81,0,1.43.33,1.87.97.43.65.65,1.59.65,2.81s-.22,2.17-.65,2.81c-.44.64-1.06.96-1.88.96s-1.44-.32-1.87-.96c-.43-.64-.64-1.58-.64-2.81s.21-2.16.64-2.81c.43-.64,1.06-.97,1.88-.97ZM359.35,281.27c-.51,0-.89.25-1.15.75s-.38,1.25-.38,2.25.12,1.75.38,2.25.64.75,1.15.75.89-.25,1.15-.75c.25-.5.38-1.25.38-2.25s-.13-1.75-.38-2.25c-.26-.5-.64-.75-1.15-.75Z"/>
  <line class="cls-1" x1="394.9" y1="273.31" x2="394.9" y2="276.81"/>
  <line class="cls-10" x1="394.9" y1="273.31" x2="394.9" y2="276.81"/>
  <path class="cls-1" d="M384.1,287.08h3.44v.83h-4.63v-.83c.37-.38.88-.9,1.53-1.56.64-.65,1.05-1.07,1.22-1.26.32-.35.54-.65.66-.9.12-.24.19-.49.19-.73,0-.38-.14-.7-.41-.94-.27-.24-.62-.37-1.06-.37-.31,0-.64.06-.98.16-.34.11-.71.27-1.1.49v-1c.4-.16.77-.28,1.11-.36.34-.08.66-.12.95-.12.75,0,1.35.19,1.8.57.45.38.68.88.68,1.51,0,.3-.06.59-.17.85-.11.27-.31.59-.61.95-.08.1-.34.37-.78.82-.44.45-1.05,1.08-1.84,1.89Z"/>
  <path class="cls-1" d="M391.72,280.49c.81,0,1.43.33,1.87.97.43.65.65,1.59.65,2.81s-.22,2.17-.65,2.81c-.44.64-1.06.96-1.88.96s-1.44-.32-1.87-.96c-.43-.64-.64-1.58-.64-2.81s.21-2.16.64-2.81c.43-.64,1.06-.97,1.88-.97ZM391.72,281.27c-.51,0-.89.25-1.15.75s-.38,1.25-.38,2.25.12,1.75.38,2.25.64.75,1.15.75.89-.25,1.15-.75c.25-.5.38-1.25.38-2.25s-.13-1.75-.38-2.25c-.26-.5-.64-.75-1.15-.75Z"/>
  <path class="cls-1" d="M398.08,280.49c.81,0,1.43.33,1.87.97.43.65.65,1.59.65,2.81s-.22,2.17-.65,2.81c-.44.64-1.06.96-1.88.96s-1.44-.32-1.87-.96c-.43-.64-.64-1.58-.64-2.81s.21-2.16.64-2.81c.43-.64,1.06-.97,1.88-.97ZM398.08,281.27c-.51,0-.89.25-1.15.75s-.38,1.25-.38,2.25.12,1.75.38,2.25.64.75,1.15.75.89-.25,1.15-.75c.25-.5.38-1.25.38-2.25s-.13-1.75-.38-2.25c-.26-.5-.64-.75-1.15-.75Z"/>
  <path class="cls-1" d="M404.44,280.49c.81,0,1.43.33,1.87.97.43.65.65,1.59.65,2.81s-.22,2.17-.65,2.81c-.44.64-1.06.96-1.88.96s-1.44-.32-1.87-.96c-.43-.64-.64-1.58-.64-2.81s.21-2.16.64-2.81c.43-.64,1.06-.97,1.88-.97ZM404.44,281.27c-.51,0-.89.25-1.15.75s-.38,1.25-.38,2.25.12,1.75.38,2.25.64.75,1.15.75.89-.25,1.15-.75c.25-.5.38-1.25.38-2.25s-.13-1.75-.38-2.25c-.26-.5-.64-.75-1.15-.75Z"/>
  <polygon class="cls-1" points="116.04 294.48 124.67 294.48 124.67 295.64 121.04 295.64 121.04 304.69 119.66 304.69 119.66 295.64 116.04 295.64 116.04 294.48"/>
  <path class="cls-1" d="M128.91,296.85c1.09,0,1.95.36,2.58,1.06.62.71.94,1.69.94,2.95s-.32,2.24-.94,2.94c-.63.71-1.48,1.06-2.58,1.06s-1.97-.35-2.59-1.06c-.62-.7-.92-1.68-.92-2.94s.31-2.24.92-2.95c.62-.7,1.48-1.06,2.59-1.06ZM128.91,297.91c-.67,0-1.2.27-1.6.8-.39.53-.59,1.25-.59,2.16s.18,1.64.57,2.17c.39.53.92.78,1.61.78s1.2-.25,1.6-.78c.39-.53.59-1.25.59-2.17s-.2-1.62-.59-2.16-.92-.8-1.6-.8Z"/>
  <path class="cls-1" d="M135.75,294.86v2.17h2.59v.98h-2.59v4.16c0,.63.08,1.04.25,1.2.17.18.52.27,1.05.27h1.29v1.05h-1.29c-.98,0-1.65-.18-2.02-.55-.36-.36-.55-1.02-.55-1.97v-4.16h-.92v-.98h.92v-2.17h1.26Z"/>
  <path class="cls-1" d="M145.99,300.32v4.37h-1.26v-1.16c-.29.48-.66.81-1.08,1.02s-.95.32-1.57.32c-.78,0-1.41-.21-1.88-.64s-.69-1.02-.69-1.76c0-.85.28-1.5.87-1.95.57-.43,1.43-.66,2.58-.66h1.76v-.13c0-.57-.2-1.02-.57-1.34-.38-.31-.91-.48-1.6-.48-.45,0-.87.06-1.29.17-.42.11-.81.27-1.19.46v-1.16c.45-.17.9-.31,1.33-.39.43-.08.85-.14,1.27-.14,1.11,0,1.93.29,2.48.87.55.57.83,1.44.83,2.6ZM143.48,300.84c-1.02,0-1.72.13-2.11.35-.39.24-.59.63-.59,1.19,0,.45.14.81.43,1.06.29.27.7.39,1.2.39.7,0,1.26-.24,1.68-.74.42-.49.63-1.15.63-1.97v-.28h-1.25Z"/>
  <rect class="cls-1" x="148.57" y="294.05" width="1.26" height="10.64"/>
  <path class="cls-1" d="M163.28,300.07v4.62h-1.26v-4.58c0-.73-.15-1.26-.43-1.62-.28-.36-.7-.55-1.26-.55-.69,0-1.22.22-1.61.66-.39.43-.59,1.02-.59,1.76v4.33h-1.26v-7.66h1.26v1.19c.29-.45.64-.8,1.06-1.02.41-.22.88-.35,1.41-.35.87,0,1.54.28,1.99.83.45.55.69,1.34.69,2.39Z"/>
  <path class="cls-1" d="M168.82,296.85h0ZM165.66,301.66v-4.63h1.26v4.59c0,.73.14,1.26.42,1.62.28.36.7.55,1.27.55.67,0,1.22-.21,1.61-.64s.59-1.02.59-1.78v-4.34h1.26v7.66h-1.26v-1.18c-.31.48-.67.81-1.06,1.04-.41.21-.87.32-1.4.32-.88,0-1.55-.27-2-.81-.46-.53-.69-1.33-.69-2.39Z"/>
  <path class="cls-1" d="M180.62,298.5c.31-.56.69-.97,1.12-1.25.43-.27.95-.41,1.55-.41.78,0,1.4.28,1.83.84.43.56.66,1.36.66,2.38v4.62h-1.26v-4.58c0-.73-.14-1.27-.39-1.64-.27-.35-.66-.53-1.19-.53-.66,0-1.18.22-1.55.66-.38.43-.56,1.02-.56,1.76v4.33h-1.26v-4.58c0-.73-.14-1.27-.39-1.64-.27-.35-.67-.53-1.2-.53-.64,0-1.16.22-1.54.66-.38.43-.56,1.02-.56,1.76v4.33h-1.26v-7.66h1.26v1.19c.28-.46.63-.81,1.04-1.04.39-.22.87-.34,1.43-.34s1.02.14,1.41.42c.39.28.67.7.87,1.23Z"/>
  <path class="cls-1" d="M189.52,298.19c.25-.45.59-.78.99-1.01.41-.22.9-.34,1.46-.34.92,0,1.68.38,2.27,1.11.57.74.87,1.71.87,2.91s-.29,2.18-.87,2.91c-.59.73-1.34,1.09-2.27,1.09-.56,0-1.05-.11-1.46-.32s-.74-.55-.99-1.01v1.15h-1.26v-10.64h1.26v4.14ZM193.8,300.86c0-.92-.2-1.64-.57-2.17-.39-.53-.91-.8-1.57-.8s-1.19.27-1.57.8c-.39.53-.57,1.25-.57,2.17s.18,1.65.57,2.18c.38.53.9.78,1.57.78s1.18-.25,1.57-.78c.38-.53.57-1.26.57-2.18Z"/>
  <path class="cls-1" d="M202.48,300.18c-.01-.69-.21-1.23-.57-1.65-.38-.41-.88-.62-1.5-.62-.7,0-1.26.21-1.68.6-.42.39-.67.95-.73,1.67h4.48ZM203.74,300.54v.62h-5.78c.06.87.31,1.54.78,1.99.46.45,1.11.67,1.95.67.48,0,.95-.06,1.4-.17.45-.11.91-.29,1.36-.55v1.19c-.45.2-.91.35-1.39.43-.48.08-.97.14-1.44.14-1.23,0-2.2-.35-2.91-1.05s-1.06-1.67-1.06-2.88.34-2.24,1.01-2.98c.67-.73,1.6-1.11,2.74-1.11,1.04,0,1.85.34,2.45.99.59.67.9,1.57.9,2.7Z"/>
  <path class="cls-1" d="M210.24,298.2c-.14-.08-.29-.14-.46-.18-.17-.03-.35-.06-.55-.06-.71,0-1.26.24-1.64.7-.39.46-.57,1.12-.57,1.99v4.03h-1.26v-7.66h1.26v1.19c.25-.46.6-.81,1.02-1.04.42-.22.94-.34,1.55-.34.08,0,.18.01.29.01.1.01.21.03.35.06v1.29Z"/>
  <path class="cls-1" d="M218.97,296.85c1.09,0,1.95.36,2.58,1.06.62.71.94,1.69.94,2.95s-.32,2.24-.94,2.94c-.63.71-1.48,1.06-2.58,1.06s-1.97-.35-2.59-1.06c-.62-.7-.92-1.68-.92-2.94s.31-2.24.92-2.95c.62-.7,1.48-1.06,2.59-1.06ZM218.97,297.91c-.67,0-1.2.27-1.6.8s-.59,1.25-.59,2.16.18,1.64.57,2.17c.39.53.92.78,1.61.78s1.2-.25,1.6-.78c.39-.53.59-1.25.59-2.17s-.2-1.62-.59-2.16-.92-.8-1.6-.8Z"/>
  <path class="cls-1" d="M228.45,294.05v1.05h-1.2c-.45,0-.77.1-.94.28-.18.18-.27.5-.27.98v.67h2.07v.98h-2.07v6.68h-1.26v-6.68h-1.2v-.98h1.2v-.53c0-.84.2-1.47.59-1.86.39-.39,1.02-.59,1.89-.59h1.19Z"/>
  <path class="cls-1" d="M234.7,300.86c0,.92.18,1.65.56,2.18.38.53.9.78,1.57.78s1.19-.25,1.58-.78c.38-.53.57-1.26.57-2.18s-.2-1.64-.57-2.17c-.39-.53-.91-.8-1.58-.8s-1.19.27-1.57.8c-.38.53-.56,1.25-.56,2.17ZM238.99,298.19v-4.14h1.26v10.64h-1.26v-1.15c-.27.46-.6.8-1.01,1.01-.41.21-.88.32-1.44.32-.92,0-1.68-.36-2.27-1.09s-.87-1.71-.87-2.91.28-2.17.87-2.91c.59-.73,1.34-1.11,2.27-1.11.56,0,1.04.11,1.44.34.41.22.74.56,1.01,1.01Z"/>
  <path class="cls-1" d="M248.83,300.32v4.37h-1.26v-1.16c-.29.48-.66.81-1.08,1.02s-.95.32-1.57.32c-.78,0-1.41-.21-1.88-.64s-.69-1.02-.69-1.76c0-.85.28-1.5.87-1.95.57-.43,1.43-.66,2.58-.66h1.76v-.13c0-.57-.2-1.02-.57-1.34-.38-.31-.91-.48-1.6-.48-.45,0-.87.06-1.29.17-.42.11-.81.27-1.19.46v-1.16c.45-.17.9-.31,1.33-.39.43-.08.85-.14,1.27-.14,1.11,0,1.93.29,2.48.87.55.57.83,1.44.83,2.6ZM246.32,300.84c-1.02,0-1.72.13-2.11.35-.39.24-.59.63-.59,1.19,0,.45.14.81.43,1.06.29.27.7.39,1.2.39.7,0,1.26-.24,1.68-.74.42-.49.63-1.15.63-1.97v-.28h-1.25Z"/>
  <path class="cls-1" d="M252.66,294.86v2.17h2.59v.98h-2.59v4.16c0,.63.08,1.04.25,1.2.17.18.52.27,1.05.27h1.29v1.05h-1.29c-.98,0-1.65-.18-2.02-.55-.36-.36-.55-1.02-.55-1.97v-4.16h-.92v-.98h.92v-2.17h1.26Z"/>
  <path class="cls-1" d="M262.9,300.32v4.37h-1.26v-1.16c-.29.48-.66.81-1.08,1.02s-.95.32-1.57.32c-.78,0-1.41-.21-1.88-.64s-.69-1.02-.69-1.76c0-.85.28-1.5.87-1.95.57-.43,1.43-.66,2.58-.66h1.76v-.13c0-.57-.2-1.02-.57-1.34-.38-.31-.91-.48-1.6-.48-.45,0-.87.06-1.29.17-.42.11-.81.27-1.19.46v-1.16c.45-.17.9-.31,1.33-.39.43-.08.85-.14,1.27-.14,1.11,0,1.93.29,2.48.87.55.57.83,1.44.83,2.6ZM260.39,300.84c-1.02,0-1.72.13-2.11.35-.39.24-.59.63-.59,1.19,0,.45.14.81.43,1.06.29.27.7.39,1.2.39.7,0,1.26-.24,1.68-.74.42-.49.63-1.15.63-1.97v-.28h-1.25Z"/>
  <path class="cls-1" d="M272.9,296.85c1.09,0,1.95.36,2.58,1.06.62.71.94,1.69.94,2.95s-.32,2.24-.94,2.94c-.63.71-1.48,1.06-2.58,1.06s-1.97-.35-2.59-1.06c-.62-.7-.92-1.68-.92-2.94s.31-2.24.92-2.95c.62-.7,1.48-1.06,2.59-1.06ZM272.9,297.91c-.67,0-1.2.27-1.6.8s-.59,1.25-.59,2.16.18,1.64.57,2.17c.39.53.92.78,1.61.78s1.2-.25,1.6-.78c.39-.53.59-1.25.59-2.17s-.2-1.62-.59-2.16-.92-.8-1.6-.8Z"/>
  <path class="cls-1" d="M279.72,298.19c.25-.45.59-.78.99-1.01.41-.22.9-.34,1.46-.34.92,0,1.68.38,2.27,1.11.57.74.87,1.71.87,2.91s-.29,2.18-.87,2.91c-.59.73-1.34,1.09-2.27,1.09-.56,0-1.05-.11-1.46-.32-.41-.21-.74-.55-.99-1.01v1.15h-1.26v-10.64h1.26v4.14ZM284,300.86c0-.92-.2-1.64-.57-2.17-.39-.53-.91-.8-1.57-.8s-1.19.27-1.57.8c-.39.53-.57,1.25-.57,2.17s.18,1.65.57,2.18c.38.53.9.78,1.57.78s1.18-.25,1.57-.78c.38-.53.57-1.26.57-2.18Z"/>
  <path class="cls-1" d="M287.38,294.05h1.26v1.6h-1.26v-1.6ZM287.38,297.03h1.26v7.78c0,.97-.2,1.67-.56,2.11-.38.43-.98.66-1.79.66h-.46v-1.06h.32c.48,0,.8-.11.97-.34s.27-.69.27-1.37v-7.78Z"/>
  <path class="cls-1" d="M296.57,300.18c-.01-.69-.21-1.23-.57-1.65-.38-.41-.88-.62-1.5-.62-.7,0-1.26.21-1.68.6-.42.39-.67.95-.73,1.67h4.48ZM297.83,300.54v.62h-5.78c.06.87.31,1.54.78,1.99.46.45,1.11.67,1.95.67.48,0,.95-.06,1.4-.17.45-.11.91-.29,1.36-.55v1.19c-.45.2-.91.35-1.39.43-.48.08-.97.14-1.44.14-1.23,0-2.2-.35-2.91-1.05-.71-.7-1.06-1.67-1.06-2.88s.34-2.24,1.01-2.98c.67-.73,1.6-1.11,2.74-1.11,1.04,0,1.85.34,2.45.99.59.67.9,1.57.9,2.7Z"/>
  <path class="cls-1" d="M305.4,297.32v1.18c-.36-.2-.71-.34-1.08-.43-.36-.1-.71-.15-1.08-.15-.81,0-1.46.27-1.9.78s-.67,1.25-.67,2.17.22,1.67.67,2.18c.45.52,1.09.77,1.9.77.36,0,.71-.04,1.08-.14.36-.1.71-.25,1.08-.45v1.16c-.36.17-.73.29-1.09.36-.38.07-.78.11-1.2.11-1.15,0-2.07-.35-2.74-1.08-.69-.71-1.02-1.69-1.02-2.93s.34-2.23,1.02-2.94c.69-.71,1.62-1.08,2.83-1.08.39,0,.77.04,1.13.13.36.08.73.2,1.08.35Z"/>
  <path class="cls-1" d="M308.83,294.86v2.17h2.59v.98h-2.59v4.16c0,.63.08,1.04.25,1.2.17.18.52.27,1.05.27h1.29v1.05h-1.29c-.98,0-1.65-.18-2.02-.55-.36-.36-.55-1.02-.55-1.97v-4.16h-.92v-.98h.92v-2.17h1.26Z"/>
  <path class="cls-1" d="M317.96,297.25v1.19c-.36-.17-.73-.31-1.11-.41-.39-.08-.78-.14-1.19-.14-.63,0-1.11.1-1.41.29-.31.2-.46.48-.46.85,0,.29.11.52.34.69.22.17.67.34,1.34.48l.43.1c.9.2,1.53.48,1.9.81.36.35.56.84.56,1.46,0,.71-.28,1.27-.84,1.68-.56.42-1.34.62-2.32.62-.42,0-.84-.04-1.29-.11-.45-.07-.91-.18-1.4-.35v-1.3c.46.25.92.43,1.37.55.45.13.9.18,1.34.18.59,0,1.05-.1,1.37-.29.31-.2.48-.49.48-.87,0-.34-.13-.6-.35-.78s-.73-.36-1.51-.53l-.43-.1c-.78-.17-1.36-.42-1.69-.76-.35-.34-.52-.8-.52-1.4,0-.71.25-1.27.76-1.67s1.23-.59,2.18-.59c.46,0,.9.04,1.32.11.41.07.78.17,1.13.29Z"/>
  <polygon class="cls-1" points="320.69 302.95 322.13 302.95 322.13 304.13 321.01 306.3 320.13 306.3 320.69 304.13 320.69 302.95"/>
  <rect class="cls-1" x="329.73" y="293.99" width="1.16" height="13.99"/>
  <rect class="cls-1" x="345.77" y="293.99" width="1.16" height="13.99"/>
  <g class="cls-12">
    <path class="cls-1" d="M336.98,298.4l.08.04c.76-.84,1.58-1.57,2.48-2.2.9-.62,1.72-.94,2.48-.94.5,0,.9.14,1.18.41.28.27.43.62.43,1.05,0,.39-.11.74-.32,1.02-.22.28-.49.42-.83.42-.21,0-.38-.07-.5-.21-.14-.14-.2-.31-.2-.5,0-.17.03-.31.11-.42.08-.1.17-.17.27-.2s.18-.08.27-.17c.08-.07.13-.17.13-.29,0-.14-.06-.27-.17-.38-.11-.11-.27-.17-.46-.17-.64,0-1.37.29-2.18.87-.81.59-1.62,1.36-2.44,2.34.31,1.43.84,2.6,1.57,3.51.73.92,1.5,1.37,2.34,1.37.31,0,.66-.08,1.02-.28.36-.2.64-.45.87-.76l.28.22c-.25.34-.49.62-.71.83-.22.22-.55.42-.97.6-.42.18-.9.28-1.4.28-.88,0-1.69-.41-2.45-1.22-.76-.81-1.25-1.71-1.48-2.69l-.56,1.96c-.22.81-.5,1.3-.84,1.5s-.97.28-1.88.28l.1-.34c.28,0,.5-.15.7-.48.18-.32.41-.92.66-1.81l1.44-5.07c.03-.11.06-.21.06-.32,0-.28-.22-.42-.66-.42-.11,0-.2.01-.25.01l.07-.35c1.05-.11,1.92-.28,2.62-.5l-.84,2.98Z"/>
  </g>
  <line class="cls-1" x1="54.01" y1="263.79" x2="50.51" y2="263.79"/>
  <line class="cls-10" x1="54.01" y1="263.79" x2="50.51" y2="263.79"/>
  <path class="cls-1" d="M34.29,260.17c.81,0,1.43.33,1.87.97.43.65.65,1.59.65,2.81s-.22,2.17-.65,2.81c-.44.64-1.06.96-1.88.96s-1.44-.32-1.87-.96c-.43-.64-.64-1.58-.64-2.81s.21-2.16.64-2.81c.43-.64,1.06-.97,1.88-.97ZM34.29,260.95c-.51,0-.89.25-1.15.75-.26.5-.38,1.25-.38,2.25s.12,1.75.38,2.25c.26.5.64.75,1.15.75s.89-.25,1.15-.75c.25-.5.38-1.25.38-2.25s-.13-1.75-.38-2.25c-.26-.5-.64-.75-1.15-.75Z"/>
  <rect class="cls-1" x="38.54" y="266.35" width="1.03" height="1.24"/>
  <path class="cls-1" d="M43.83,260.17c.81,0,1.43.33,1.87.97.43.65.65,1.59.65,2.81s-.22,2.17-.65,2.81c-.44.64-1.06.96-1.88.96s-1.44-.32-1.87-.96c-.43-.64-.64-1.58-.64-2.81s.21-2.16.64-2.81c.43-.64,1.06-.97,1.88-.97ZM43.83,260.95c-.51,0-.89.25-1.15.75-.26.5-.38,1.25-.38,2.25s.12,1.75.38,2.25c.26.5.64.75,1.15.75s.89-.25,1.15-.75c.25-.5.38-1.25.38-2.25s-.13-1.75-.38-2.25c-.26-.5-.64-.75-1.15-.75Z"/>
  <line class="cls-1" x1="54.01" y1="228.13" x2="50.51" y2="228.13"/>
  <line class="cls-10" x1="54.01" y1="228.13" x2="50.51" y2="228.13"/>
  <path class="cls-1" d="M33.03,231.1h3.44v.83h-4.63v-.83c.37-.38.88-.9,1.53-1.56.64-.65,1.05-1.07,1.22-1.26.32-.35.54-.65.66-.9.12-.24.19-.49.19-.73,0-.38-.14-.7-.41-.94-.27-.24-.62-.37-1.06-.37-.31,0-.64.06-.98.16-.34.11-.71.27-1.1.49v-1c.4-.16.77-.28,1.11-.36.34-.08.66-.12.95-.12.75,0,1.35.19,1.8.57.45.38.68.88.68,1.51,0,.3-.06.59-.17.85-.11.27-.31.59-.61.95-.08.1-.34.37-.78.82-.44.45-1.05,1.08-1.84,1.89Z"/>
  <rect class="cls-1" x="38.54" y="230.69" width="1.03" height="1.24"/>
  <path class="cls-1" d="M41.73,224.64h3.87v.83h-2.97v1.79c.14-.05.29-.09.43-.11.14-.02.29-.04.43-.04.81,0,1.45.23,1.93.67.48.45.72,1.05.72,1.81s-.25,1.4-.74,1.83-1.18.64-2.06.64c-.31,0-.62-.03-.94-.07-.32-.05-.64-.12-.98-.23v-.99c.29.16.59.28.91.36.31.08.64.11.99.11.56,0,1.01-.14,1.34-.44.32-.3.49-.7.49-1.21s-.17-.9-.49-1.2c-.33-.3-.78-.45-1.34-.45-.26,0-.53.03-.79.09-.26.06-.53.15-.8.27v-3.66Z"/>
  <line class="cls-1" x1="54.01" y1="192.47" x2="50.51" y2="192.47"/>
  <line class="cls-10" x1="54.01" y1="192.47" x2="50.51" y2="192.47"/>
  <path class="cls-1" d="M32.19,188.98h3.87v.83h-2.97v1.79c.14-.05.29-.09.43-.11.14-.02.29-.04.43-.04.81,0,1.45.23,1.93.67.48.45.72,1.05.72,1.81s-.25,1.4-.74,1.83-1.18.64-2.06.64c-.31,0-.62-.03-.94-.07-.32-.05-.64-.12-.98-.23v-.99c.29.16.59.28.91.36.31.08.64.11.99.11.56,0,1.01-.14,1.34-.44.32-.3.49-.7.49-1.21s-.17-.9-.49-1.2c-.33-.3-.78-.45-1.34-.45-.26,0-.53.03-.79.09-.26.06-.53.15-.8.27v-3.66Z"/>
  <rect class="cls-1" x="38.54" y="195.03" width="1.03" height="1.24"/>
  <path class="cls-1" d="M43.83,188.85c.81,0,1.43.33,1.87.97.43.65.65,1.59.65,2.81s-.22,2.17-.65,2.81c-.44.64-1.06.96-1.88.96s-1.44-.32-1.87-.96-.64-1.58-.64-2.81.21-2.16.64-2.81c.43-.64,1.06-.97,1.88-.97ZM43.83,189.63c-.51,0-.89.25-1.15.75-.26.5-.38,1.25-.38,2.25s.12,1.75.38,2.25c.26.5.64.75,1.15.75s.89-.25,1.15-.75c.25-.5.38-1.25.38-2.25s-.13-1.75-.38-2.25c-.26-.5-.64-.75-1.15-.75Z"/>
  <line class="cls-1" x1="54.01" y1="156.81" x2="50.51" y2="156.81"/>
  <line class="cls-10" x1="54.01" y1="156.81" x2="50.51" y2="156.81"/>
  <polygon class="cls-1" points="31.93 153.32 36.62 153.32 36.62 153.74 33.97 160.61 32.94 160.61 35.43 154.15 31.93 154.15 31.93 153.32"/>
  <rect class="cls-1" x="38.54" y="159.37" width="1.03" height="1.24"/>
  <path class="cls-1" d="M41.73,153.32h3.87v.83h-2.97v1.79c.14-.05.29-.09.43-.11s.29-.04.43-.04c.81,0,1.45.23,1.93.67.48.45.72,1.05.72,1.81s-.25,1.4-.74,1.83c-.49.43-1.18.64-2.06.64-.31,0-.62-.03-.94-.07-.32-.05-.64-.12-.98-.23v-.99c.29.16.59.28.91.36.31.08.64.11.99.11.56,0,1.01-.14,1.34-.44.32-.3.49-.7.49-1.21s-.17-.9-.49-1.2c-.33-.3-.78-.45-1.34-.45-.26,0-.53.03-.79.09-.26.06-.53.15-.8.27v-3.66Z"/>
  <line class="cls-1" x1="54.01" y1="121.15" x2="50.51" y2="121.15"/>
  <line class="cls-10" x1="54.01" y1="121.15" x2="50.51" y2="121.15"/>
  <polygon class="cls-1" points="25.99 124.12 27.6 124.12 27.6 118.56 25.85 118.91 25.85 118.01 27.59 117.66 28.58 117.66 28.58 124.12 30.19 124.12 30.19 124.95 25.99 124.95 25.99 124.12"/>
  <path class="cls-1" d="M34.29,117.53c.81,0,1.43.33,1.87.97.43.65.65,1.59.65,2.81s-.22,2.17-.65,2.81c-.44.64-1.06.96-1.88.96s-1.44-.32-1.87-.96c-.43-.64-.64-1.58-.64-2.81s.21-2.16.64-2.81c.43-.64,1.06-.97,1.88-.97ZM34.29,118.31c-.51,0-.89.25-1.15.75-.26.5-.38,1.25-.38,2.25s.12,1.75.38,2.25c.26.5.64.75,1.15.75s.89-.25,1.15-.75c.25-.5.38-1.25.38-2.25s-.13-1.75-.38-2.25c-.26-.5-.64-.75-1.15-.75Z"/>
  <rect class="cls-1" x="38.54" y="123.71" width="1.03" height="1.24"/>
  <path class="cls-1" d="M43.83,117.53c.81,0,1.43.33,1.87.97.43.65.65,1.59.65,2.81s-.22,2.17-.65,2.81c-.44.64-1.06.96-1.88.96s-1.44-.32-1.87-.96-.64-1.58-.64-2.81.21-2.16.64-2.81c.43-.64,1.06-.97,1.88-.97ZM43.83,118.31c-.51,0-.89.25-1.15.75-.26.5-.38,1.25-.38,2.25s.12,1.75.38,2.25c.26.5.64.75,1.15.75s.89-.25,1.15-.75c.25-.5.38-1.25.38-2.25s-.13-1.75-.38-2.25c-.26-.5-.64-.75-1.15-.75Z"/>
  <line class="cls-1" x1="54.01" y1="85.5" x2="50.51" y2="85.5"/>
  <line class="cls-10" x1="54.01" y1="85.5" x2="50.51" y2="85.5"/>
  <polygon class="cls-1" points="25.99 88.46 27.6 88.46 27.6 82.9 25.85 83.25 25.85 82.35 27.59 82 28.58 82 28.58 88.46 30.19 88.46 30.19 89.29 25.99 89.29 25.99 88.46"/>
  <path class="cls-1" d="M33.03,88.46h3.44v.83h-4.63v-.83c.37-.38.88-.9,1.53-1.56.64-.65,1.05-1.07,1.22-1.26.32-.35.54-.65.66-.9.12-.24.19-.49.19-.73,0-.38-.14-.7-.41-.94-.27-.24-.62-.37-1.06-.37-.31,0-.64.06-.98.16-.34.11-.71.27-1.1.49v-1c.4-.16.77-.28,1.11-.36s.66-.12.95-.12c.75,0,1.35.19,1.8.57.45.38.68.88.68,1.51,0,.3-.06.59-.17.85-.11.27-.31.59-.61.95-.08.1-.34.37-.78.82-.44.45-1.05,1.08-1.84,1.89Z"/>
  <rect class="cls-1" x="38.54" y="88.05" width="1.03" height="1.24"/>
  <path class="cls-1" d="M41.73,82h3.87v.83h-2.97v1.79c.14-.05.29-.09.43-.11s.29-.04.43-.04c.81,0,1.45.23,1.93.67.48.45.72,1.05.72,1.81s-.25,1.4-.74,1.83c-.49.43-1.18.64-2.06.64-.31,0-.62-.03-.94-.07-.32-.05-.64-.12-.98-.23v-.99c.29.16.59.28.91.36.31.08.64.11.99.11.56,0,1.01-.14,1.34-.44.32-.3.49-.7.49-1.21s-.17-.9-.49-1.2c-.33-.3-.78-.45-1.34-.45-.26,0-.53.03-.79.09-.26.06-.53.15-.8.27v-3.66Z"/>
  <line class="cls-1" x1="54.01" y1="49.84" x2="50.51" y2="49.84"/>
  <line class="cls-10" x1="54.01" y1="49.84" x2="50.51" y2="49.84"/>
  <polygon class="cls-1" points="25.99 52.8 27.6 52.8 27.6 47.24 25.85 47.59 25.85 46.69 27.59 46.34 28.58 46.34 28.58 52.8 30.19 52.8 30.19 53.63 25.99 53.63 25.99 52.8"/>
  <path class="cls-1" d="M32.19,46.34h3.87v.83h-2.97v1.79c.14-.05.29-.09.43-.11s.29-.04.43-.04c.81,0,1.45.23,1.93.67.48.45.72,1.05.72,1.81s-.25,1.4-.74,1.83c-.49.43-1.18.64-2.06.64-.31,0-.62-.03-.94-.07-.32-.05-.64-.12-.98-.23v-.99c.29.16.59.28.91.36.31.08.64.11.99.11.56,0,1.01-.14,1.34-.44.32-.3.49-.7.49-1.21s-.17-.9-.49-1.2c-.33-.3-.78-.45-1.34-.45-.26,0-.53.03-.79.09-.26.06-.53.15-.8.27v-3.66Z"/>
  <rect class="cls-1" x="38.54" y="52.39" width="1.03" height="1.24"/>
  <path class="cls-1" d="M43.83,46.21c.81,0,1.43.33,1.87.97.43.65.65,1.59.65,2.81s-.22,2.17-.65,2.81c-.44.64-1.06.96-1.88.96s-1.44-.32-1.87-.96c-.43-.64-.64-1.58-.64-2.81s.21-2.16.64-2.81c.43-.64,1.06-.97,1.88-.97ZM43.83,46.99c-.51,0-.89.25-1.15.75-.26.5-.38,1.25-.38,2.25s.12,1.75.38,2.25c.26.5.64.75,1.15.75s.89-.25,1.15-.75c.25-.5.38-1.25.38-2.25s-.13-1.75-.38-2.25c-.26-.5-.64-.75-1.15-.75Z"/>
  <line class="cls-1" x1="54.01" y1="14.18" x2="50.51" y2="14.18"/>
  <line class="cls-10" x1="54.01" y1="14.18" x2="50.51" y2="14.18"/>
  <polygon class="cls-1" points="25.99 17.14 27.6 17.14 27.6 11.58 25.85 11.93 25.85 11.03 27.59 10.68 28.58 10.68 28.58 17.14 30.19 17.14 30.19 17.97 25.99 17.97 25.99 17.14"/>
  <polygon class="cls-1" points="31.93 10.68 36.62 10.68 36.62 11.1 33.97 17.97 32.94 17.97 35.43 11.51 31.93 11.51 31.93 10.68"/>
  <rect class="cls-1" x="38.54" y="16.73" width="1.03" height="1.24"/>
  <path class="cls-1" d="M41.73,10.68h3.87v.83h-2.97v1.79c.14-.05.29-.09.43-.11s.29-.04.43-.04c.81,0,1.45.23,1.93.67.48.45.72,1.05.72,1.81s-.25,1.4-.74,1.83c-.49.43-1.18.64-2.06.64-.31,0-.62-.03-.94-.07-.32-.05-.64-.12-.98-.23v-.99c.29.16.59.28.91.36.31.08.64.11.99.11.56,0,1.01-.14,1.34-.44.32-.3.49-.7.49-1.21s-.17-.9-.49-1.2c-.33-.3-.78-.45-1.34-.45-.26,0-.53.03-.79.09-.26.06-.53.15-.8.27v-3.66Z"/>
  <polygon class="cls-1" points="7.63 209.46 7.63 203.01 8.8 203.01 8.8 208.08 11.82 208.08 11.82 203.22 12.98 203.22 12.98 208.08 16.68 208.08 16.68 202.88 17.84 202.88 17.84 209.46 7.63 209.46"/>
  <polygon class="cls-1" points="10.18 194.3 13.91 197.07 17.84 194.16 17.84 195.64 14.83 197.87 17.84 200.1 17.84 201.58 13.84 198.61 10.18 201.33 10.18 199.84 12.91 197.81 10.18 195.78 10.18 194.3"/>
  <path class="cls-1" d="M13.33,187.51c-.69.01-1.23.21-1.65.57-.41.38-.62.88-.62,1.5,0,.7.21,1.26.6,1.68.39.42.95.67,1.67.73v-4.48ZM13.7,186.25h.62v5.78c.87-.06,1.54-.31,1.99-.78.45-.46.67-1.11.67-1.95,0-.48-.06-.95-.17-1.4-.11-.45-.29-.91-.55-1.36h1.19c.2.45.35.91.43,1.39.08.48.14.97.14,1.44,0,1.23-.35,2.2-1.05,2.91s-1.67,1.06-2.88,1.06-2.24-.34-2.98-1.01c-.73-.67-1.11-1.6-1.11-2.74,0-1.04.34-1.85.99-2.45.67-.59,1.57-.9,2.7-.9Z"/>
  <path class="cls-1" d="M10.48,178.68h1.18c-.2.36-.34.71-.43,1.08-.1.36-.15.71-.15,1.08,0,.81.27,1.46.78,1.9.52.45,1.25.67,2.17.67s1.67-.22,2.18-.67.77-1.09.77-1.9c0-.36-.04-.71-.14-1.08-.1-.36-.25-.71-.45-1.08h1.16c.17.36.29.73.36,1.09.07.38.11.78.11,1.2,0,1.15-.35,2.07-1.08,2.74-.71.69-1.69,1.02-2.93,1.02s-2.23-.34-2.94-1.02c-.71-.69-1.08-1.62-1.08-2.83,0-.39.04-.77.13-1.13.08-.36.2-.73.35-1.08Z"/>
  <path class="cls-1" d="M10,173.46h0ZM14.82,176.62h-4.63v-1.26h4.59c.73,0,1.26-.14,1.62-.42s.55-.7.55-1.27c0-.67-.21-1.22-.64-1.61-.43-.39-1.02-.59-1.78-.59h-4.34v-1.26h7.66v1.26h-1.18c.48.31.81.67,1.04,1.06.21.41.32.87.32,1.4,0,.88-.27,1.55-.81,2-.53.46-1.33.69-2.39.69Z"/>
  <path class="cls-1" d="M8.01,166.37h2.17v-2.59h.98v2.59h4.16c.63,0,1.04-.08,1.2-.25.18-.17.27-.52.27-1.05v-1.29h1.05v1.29c0,.98-.18,1.65-.55,2.02-.36.36-1.02.55-1.97.55h-4.16v.92h-.98v-.92h-2.17v-1.26Z"/>
  <path class="cls-1" d="M7.2,162.13v-1.26h1.6v1.26h-1.6ZM10.18,162.13v-1.26h7.66v1.26h-7.66Z"/>
  <path class="cls-1" d="M10,155.27c0-1.09.36-1.95,1.06-2.58.71-.62,1.69-.94,2.95-.94s2.24.32,2.94.94c.71.63,1.06,1.48,1.06,2.58s-.35,1.97-1.06,2.59c-.7.62-1.68.92-2.94.92s-2.24-.31-2.95-.92c-.7-.62-1.06-1.48-1.06-2.59ZM11.06,155.27c0,.67.27,1.2.8,1.6.53.39,1.25.59,2.16.59s1.64-.18,2.17-.57.78-.92.78-1.61-.25-1.2-.78-1.6-1.25-.59-2.17-.59-1.62.2-2.16.59c-.53.39-.8.92-.8,1.6Z"/>
  <path class="cls-1" d="M13.22,143.3h4.62v1.26h-4.58c-.73,0-1.26.15-1.62.43-.36.28-.55.7-.55,1.26,0,.69.22,1.22.66,1.61.43.39,1.02.59,1.76.59h4.33v1.26h-7.66v-1.26h1.19c-.45-.29-.8-.64-1.02-1.06-.22-.41-.35-.88-.35-1.41,0-.87.28-1.54.83-1.99.55-.45,1.34-.69,2.39-.69Z"/>
  <path class="cls-1" d="M8.01,135.1h2.17v-2.59h.98v2.59h4.16c.63,0,1.04-.08,1.2-.25.18-.17.27-.52.27-1.05v-1.29h1.05v1.29c0,.98-.18,1.65-.55,2.02-.36.36-1.02.55-1.97.55h-4.16v.92h-.98v-.92h-2.17v-1.26Z"/>
  <path class="cls-1" d="M7.2,130.85v-1.26h1.6v1.26h-1.6ZM10.18,130.85v-1.26h7.66v1.26h-7.66Z"/>
  <path class="cls-1" d="M11.65,121c-.56-.31-.97-.69-1.25-1.12-.27-.43-.41-.95-.41-1.55,0-.78.28-1.4.84-1.83.56-.43,1.36-.66,2.38-.66h4.62v1.26h-4.58c-.73,0-1.27.14-1.64.39-.35.27-.53.66-.53,1.19,0,.66.22,1.18.66,1.55.43.38,1.02.56,1.76.56h4.33v1.26h-4.58c-.73,0-1.27.14-1.64.39-.35.27-.53.67-.53,1.2,0,.64.22,1.16.66,1.54.43.38,1.02.56,1.76.56h4.33v1.26h-7.66v-1.26h1.19c-.46-.28-.81-.63-1.04-1.04-.22-.39-.34-.87-.34-1.43s.14-1.02.42-1.41c.28-.39.7-.67,1.23-.87Z"/>
  <path class="cls-1" d="M13.33,108.03c-.69.01-1.23.21-1.65.57-.41.38-.62.88-.62,1.5,0,.7.21,1.26.6,1.68s.95.67,1.67.73v-4.48ZM13.7,106.77h.62v5.78c.87-.06,1.54-.31,1.99-.78.45-.46.67-1.11.67-1.95,0-.48-.06-.95-.17-1.4-.11-.45-.29-.91-.55-1.36h1.19c.2.45.35.91.43,1.39s.14.97.14,1.44c0,1.23-.35,2.2-1.05,2.91s-1.67,1.06-2.88,1.06-2.24-.34-2.98-1.01c-.73-.67-1.11-1.6-1.11-2.74,0-1.04.34-1.85.99-2.45.67-.59,1.57-.9,2.7-.9Z"/>
  <path class="cls-1" d="M7.21,97.24c1.06.62,2.1,1.06,3.12,1.36,1.02.31,2.06.45,3.11.45s2.1-.14,3.12-.45c1.04-.29,2.06-.74,3.11-1.36v1.09c-1.08.69-2.11,1.2-3.15,1.54-1.04.34-2.06.5-3.08.5s-2.03-.17-3.07-.5c-1.04-.34-2.09-.84-3.16-1.54v-1.09Z"/>
  <path class="cls-1" d="M11.65,88.84c-.56-.31-.97-.69-1.25-1.12-.27-.43-.41-.95-.41-1.55,0-.78.28-1.4.84-1.83.56-.43,1.36-.66,2.38-.66h4.62v1.26h-4.58c-.73,0-1.27.14-1.64.39-.35.27-.53.66-.53,1.19,0,.66.22,1.18.66,1.55.43.38,1.02.56,1.76.56h4.33v1.26h-4.58c-.73,0-1.27.14-1.64.39-.35.27-.53.67-.53,1.2,0,.64.22,1.16.66,1.54.43.38,1.02.56,1.76.56h4.33v1.26h-7.66v-1.26h1.19c-.46-.28-.81-.63-1.04-1.04-.22-.39-.34-.87-.34-1.43s.14-1.02.42-1.41c.28-.39.7-.67,1.23-.87Z"/>
  <path class="cls-1" d="M10.41,76.28h1.19c-.17.36-.31.73-.41,1.11-.08.39-.14.78-.14,1.19,0,.63.1,1.11.29,1.41s.48.46.85.46c.29,0,.52-.11.69-.34s.34-.67.48-1.34l.1-.43c.2-.9.48-1.53.81-1.9.35-.36.84-.56,1.46-.56.71,0,1.27.28,1.68.84.42.56.62,1.34.62,2.32,0,.42-.04.84-.11,1.29-.07.45-.18.91-.35,1.4h-1.3c.25-.46.43-.92.55-1.37.13-.45.18-.9.18-1.34,0-.59-.1-1.05-.29-1.37-.2-.31-.49-.48-.87-.48-.34,0-.6.13-.78.35s-.36.73-.53,1.51l-.1.43c-.17.78-.42,1.36-.76,1.69-.34.35-.8.52-1.4.52-.71,0-1.27-.25-1.67-.76-.39-.5-.59-1.23-.59-2.18,0-.46.04-.9.11-1.32.07-.41.17-.78.29-1.13Z"/>
  <path class="cls-1" d="M7.21,74.07v-1.09c1.08-.67,2.13-1.19,3.16-1.53,1.04-.34,2.06-.52,3.07-.52s2.04.18,3.08.52c1.04.34,2.07.85,3.15,1.53v1.09c-1.05-.6-2.07-1.05-3.11-1.36-1.02-.29-2.06-.45-3.12-.45s-2.09.15-3.11.45c-1.02.31-2.06.76-3.12,1.36Z"/>
  <g class="cls-11">
    <polyline class="cls-7" points="70.25 237.36 106.32 215.33 142.39 190.18 178.46 164.42 214.54 144.62 250.61 112.96 286.68 93.43 322.75 70.7 358.83 44.99 394.9 19.3"/>
  </g>
  <g class="cls-5">
    <polyline class="cls-6" points="70.25 261.22 106.32 260.32 142.39 259.08 178.46 257.24 214.54 256.09 250.61 252.78 286.68 253.65 322.75 251.91 358.83 249.98 394.9 248.82"/>
  </g>
  <line class="cls-9" x1="54.01" y1="273.31" x2="54.01" y2="7.2"/>
  <line class="cls-9" x1="411.13" y1="273.31" x2="411.13" y2="7.2"/>
  <line class="cls-9" x1="54.01" y1="273.31" x2="411.13" y2="273.31"/>
  <line class="cls-9" x1="54.01" y1="7.2" x2="411.13" y2="7.2"/>
  <g>
    <rect class="cls-3" x="60.01" y="13.2" width="149.54" height="38.85" rx="2.4" ry="2.4"/>
    <rect class="cls-8" x="60.01" y="13.2" width="149.54" height="38.85" rx="2.4" ry="2.4"/>
  </g>
  <polyline class="cls-7" points="64.81 22.92 76.81 22.92 88.81 22.92"/>
  <path class="cls-1" d="M104.83,18.67v1.15c-.46-.22-.88-.37-1.27-.48-.41-.1-.79-.16-1.15-.16-.65,0-1.15.13-1.5.37-.35.25-.52.61-.52,1.07,0,.38.11.68.35.88.23.2.67.36,1.32.48l.72.14c.88.17,1.52.47,1.94.89.42.43.64,1,.64,1.7,0,.85-.29,1.49-.85,1.92-.58.43-1.4.65-2.5.65-.42,0-.86-.05-1.33-.13-.47-.08-.95-.22-1.44-.41v-1.22c.48.28.95.48,1.4.61.46.14.91.2,1.37.2.67,0,1.19-.13,1.56-.4.36-.26.55-.64.55-1.14,0-.43-.13-.77-.4-1.01s-.7-.42-1.3-.54l-.72-.14c-.89-.17-1.52-.44-1.92-.83-.4-.37-.59-.89-.59-1.56,0-.77.26-1.38.82-1.82.54-.44,1.3-.67,2.26-.67.41,0,.82.04,1.25.11.42.07.85.19,1.31.34Z"/>
  <path class="cls-1" d="M108.23,18.7v1.86h2.22v.84h-2.22v3.56c0,.54.07.89.22,1.03.14.16.44.23.9.23h1.1v.9h-1.1c-.84,0-1.42-.16-1.73-.47-.31-.31-.47-.88-.47-1.69v-3.56h-.79v-.84h.79v-1.86h1.08Z"/>
  <path class="cls-1" d="M115.67,21.57c-.12-.07-.25-.12-.4-.16-.14-.02-.3-.05-.47-.05-.61,0-1.08.2-1.4.6-.34.4-.49.96-.49,1.7v3.46h-1.08v-6.56h1.08v1.02c.22-.4.52-.7.88-.89.36-.19.8-.29,1.33-.29.07,0,.16.01.25.01.08.01.18.02.3.05v1.1Z"/>
  <path class="cls-1" d="M119.4,20.4h0ZM116.69,24.53v-3.97h1.08v3.94c0,.62.12,1.08.36,1.39.24.31.6.47,1.09.47.58,0,1.04-.18,1.38-.55.34-.37.5-.88.5-1.52v-3.72h1.08v6.56h-1.08v-1.01c-.26.41-.58.7-.91.89-.35.18-.74.28-1.2.28-.76,0-1.33-.23-1.72-.7-.4-.46-.59-1.14-.59-2.05Z"/>
  <path class="cls-1" d="M129.13,20.81v1.01c-.31-.17-.61-.29-.92-.37-.31-.08-.61-.13-.92-.13-.7,0-1.25.23-1.63.67s-.58,1.07-.58,1.86.19,1.43.58,1.87.94.66,1.63.66c.31,0,.61-.04.92-.12.31-.08.61-.22.92-.38v1c-.31.14-.62.25-.94.31-.32.06-.67.1-1.03.1-.98,0-1.78-.3-2.35-.92-.59-.61-.88-1.45-.88-2.51s.29-1.91.88-2.52c.59-.61,1.39-.92,2.42-.92.34,0,.66.04.97.11s.62.17.92.3Z"/>
  <path class="cls-1" d="M132.07,18.7v1.86h2.22v.84h-2.22v3.56c0,.54.07.89.22,1.03.14.16.44.23.9.23h1.1v.9h-1.1c-.84,0-1.42-.16-1.73-.47-.31-.31-.47-.88-.47-1.69v-3.56h-.79v-.84h.79v-1.86h1.08Z"/>
  <path class="cls-1" d="M138.31,20.4h0ZM135.6,24.53v-3.97h1.08v3.94c0,.62.12,1.08.36,1.39.24.31.6.47,1.09.47.58,0,1.04-.18,1.38-.55.34-.37.5-.88.5-1.52v-3.72h1.08v6.56h-1.08v-1.01c-.26.41-.58.7-.91.89-.35.18-.74.28-1.2.28-.76,0-1.33-.23-1.72-.7-.4-.46-.59-1.14-.59-2.05Z"/>
  <path class="cls-1" d="M147.12,21.57c-.12-.07-.25-.12-.4-.16-.14-.02-.3-.05-.47-.05-.61,0-1.08.2-1.4.6-.34.4-.49.96-.49,1.7v3.46h-1.08v-6.56h1.08v1.02c.22-.4.52-.7.88-.89.36-.19.8-.29,1.33-.29.07,0,.16.01.25.01.08.01.18.02.3.05v1.1Z"/>
  <path class="cls-1" d="M152.53,23.26c-.01-.59-.18-1.06-.49-1.42-.32-.35-.76-.53-1.28-.53-.6,0-1.08.18-1.44.52s-.58.82-.62,1.43h3.84ZM153.61,23.57v.53h-4.96c.05.74.26,1.32.67,1.7.4.38.95.58,1.67.58.41,0,.82-.05,1.2-.14s.78-.25,1.16-.47v1.02c-.38.17-.78.3-1.19.37-.41.07-.83.12-1.24.12-1.06,0-1.88-.3-2.5-.9-.61-.6-.91-1.43-.91-2.47s.29-1.92.86-2.56c.58-.62,1.37-.95,2.35-.95.89,0,1.58.29,2.1.85.5.58.77,1.34.77,2.32Z"/>
  <path class="cls-1" d="M156.03,23.85c0,.79.16,1.42.48,1.87.32.46.77.67,1.34.67s1.02-.22,1.36-.67c.32-.46.49-1.08.49-1.87s-.17-1.4-.49-1.86c-.34-.46-.78-.68-1.36-.68s-1.02.23-1.34.68c-.32.46-.48,1.07-.48,1.86ZM159.7,21.56v-3.55h1.08v9.12h-1.08v-.98c-.23.4-.52.68-.86.86s-.76.28-1.24.28c-.79,0-1.44-.31-1.94-.94-.5-.62-.74-1.46-.74-2.5s.24-1.86.74-2.5c.5-.62,1.15-.95,1.94-.95.48,0,.89.1,1.24.29.35.19.64.48.86.86Z"/>
  <polygon class="cls-1" points="166.05 20.56 167.19 20.56 169.24 26.07 171.29 20.56 172.43 20.56 169.97 27.12 168.51 27.12 166.05 20.56"/>
  <path class="cls-1" d="M179.05,23.38v3.74h-1.08v-1c-.25.41-.56.7-.92.88s-.82.28-1.34.28c-.67,0-1.21-.18-1.61-.55s-.59-.88-.59-1.51c0-.73.24-1.28.74-1.67.49-.37,1.22-.56,2.21-.56h1.51v-.11c0-.49-.17-.88-.49-1.15-.32-.26-.78-.41-1.37-.41-.38,0-.74.05-1.1.14s-.7.23-1.02.4v-1c.38-.14.77-.26,1.14-.34.37-.07.73-.12,1.09-.12.95,0,1.66.25,2.12.74.47.49.71,1.24.71,2.23ZM176.91,23.83c-.88,0-1.48.11-1.81.3-.34.2-.5.54-.5,1.02,0,.38.12.7.37.91.25.23.6.34,1.03.34.6,0,1.08-.2,1.44-.64.36-.42.54-.98.54-1.69v-.24h-1.07Z"/>
  <rect class="cls-1" x="181.27" y="18.01" width="1.08" height="9.12"/>
  <path class="cls-1" d="M187.21,20.4h0ZM184.5,24.53v-3.97h1.08v3.94c0,.62.12,1.08.36,1.39.24.31.6.47,1.09.47.58,0,1.04-.18,1.38-.55.34-.37.5-.88.5-1.52v-3.72h1.08v6.56h-1.08v-1.01c-.26.41-.58.7-.91.89-.35.18-.74.28-1.2.28-.76,0-1.33-.23-1.72-.7-.4-.46-.59-1.14-.59-2.05Z"/>
  <path class="cls-1" d="M196.75,23.26c-.01-.59-.18-1.06-.49-1.42-.32-.35-.76-.53-1.28-.53-.6,0-1.08.18-1.44.52s-.58.82-.62,1.43h3.84ZM197.83,23.57v.53h-4.96c.05.74.26,1.32.67,1.7.4.38.95.58,1.67.58.41,0,.82-.05,1.2-.14s.78-.25,1.16-.47v1.02c-.38.17-.78.3-1.19.37-.41.07-.83.12-1.24.12-1.06,0-1.88-.3-2.5-.9-.61-.6-.91-1.43-.91-2.47s.29-1.92.86-2.56c.58-.62,1.37-.95,2.35-.95.89,0,1.58.29,2.1.85.5.58.77,1.34.77,2.32Z"/>
  <path class="cls-1" d="M203.79,20.75v1.02c-.31-.14-.62-.26-.95-.35-.34-.07-.67-.12-1.02-.12-.54,0-.95.08-1.21.25-.26.17-.4.41-.4.73,0,.25.1.44.29.59.19.14.58.29,1.15.41l.37.08c.77.17,1.31.41,1.63.7.31.3.48.72.48,1.25,0,.61-.24,1.09-.72,1.44-.48.36-1.15.53-1.99.53-.36,0-.72-.04-1.1-.1-.38-.06-.78-.16-1.2-.3v-1.12c.4.22.79.37,1.18.47.38.11.77.16,1.15.16.5,0,.9-.08,1.18-.25.26-.17.41-.42.41-.74,0-.29-.11-.52-.3-.67s-.62-.31-1.3-.46l-.37-.08c-.67-.14-1.16-.36-1.45-.65-.3-.29-.44-.68-.44-1.2,0-.61.22-1.09.65-1.43.43-.34,1.06-.5,1.87-.5.4,0,.77.04,1.13.1.35.06.67.14.97.25Z"/>
  <polyline class="cls-6" points="64.81 40.55 76.81 40.55 88.81 40.55"/>
  <path class="cls-1" d="M100.78,36.97v3.11h1.49c.56,0,1-.13,1.28-.4s.44-.65.44-1.16-.16-.89-.44-1.15-.72-.4-1.28-.4h-1.49ZM103.74,40.65c.25.1.5.28.74.55.24.29.48.67.72,1.16l1.2,2.39h-1.27l-1.12-2.24c-.29-.58-.58-.97-.84-1.16-.28-.19-.65-.29-1.12-.29h-1.28v3.7h-1.19v-8.75h2.68c1,0,1.74.22,2.23.62.49.42.74,1.06.74,1.9,0,.55-.13,1.02-.38,1.38-.26.36-.64.61-1.12.74Z"/>
  <path class="cls-1" d="M112.77,41.01v3.74h-1.08v-1c-.25.41-.56.7-.92.88s-.82.28-1.34.28c-.67,0-1.21-.18-1.61-.55-.4-.37-.59-.88-.59-1.51,0-.73.24-1.28.74-1.67.49-.37,1.22-.56,2.21-.56h1.51v-.11c0-.49-.17-.88-.49-1.15-.32-.26-.78-.41-1.37-.41-.38,0-.74.05-1.1.14s-.7.23-1.02.4v-1c.38-.14.77-.26,1.14-.34.37-.07.73-.12,1.09-.12.95,0,1.66.25,2.12.74.47.49.71,1.24.71,2.23ZM110.62,41.45c-.88,0-1.48.11-1.81.3-.34.2-.5.54-.5,1.02,0,.38.12.7.37.91.25.23.6.34,1.03.34.6,0,1.08-.2,1.44-.64.36-.42.54-.98.54-1.69v-.24h-1.07Z"/>
  <path class="cls-1" d="M120.45,40.79v3.96h-1.08v-3.92c0-.62-.13-1.08-.37-1.39-.24-.31-.6-.47-1.08-.47-.59,0-1.04.19-1.38.56-.34.37-.5.88-.5,1.51v3.71h-1.08v-6.56h1.08v1.02c.25-.38.55-.68.91-.88.35-.19.76-.3,1.21-.3.74,0,1.32.24,1.7.71.38.47.59,1.15.59,2.05Z"/>
  <path class="cls-1" d="M123.24,41.47c0,.79.16,1.42.48,1.87.32.46.77.67,1.34.67s1.02-.22,1.36-.67c.32-.46.49-1.08.49-1.87s-.17-1.4-.49-1.86c-.34-.46-.78-.68-1.36-.68s-1.02.23-1.34.68c-.32.46-.48,1.07-.48,1.86ZM126.91,39.18v-3.55h1.08v9.12h-1.08v-.98c-.23.4-.52.68-.86.86s-.76.28-1.24.28c-.79,0-1.44-.31-1.94-.94s-.74-1.46-.74-2.5.24-1.86.74-2.5c.5-.62,1.15-.95,1.94-.95.48,0,.89.1,1.24.29.35.19.64.48.86.86Z"/>
  <path class="cls-1" d="M132.76,38.03c.94,0,1.67.31,2.21.91.53.61.8,1.45.8,2.53s-.28,1.92-.8,2.52c-.54.61-1.27.91-2.21.91s-1.69-.3-2.22-.91c-.53-.6-.79-1.44-.79-2.52s.26-1.92.79-2.53c.53-.6,1.27-.91,2.22-.91ZM132.76,38.94c-.58,0-1.03.23-1.37.68s-.5,1.07-.5,1.85.16,1.4.49,1.86c.34.46.79.67,1.38.67s1.03-.22,1.37-.67c.34-.46.5-1.07.5-1.86s-.17-1.39-.5-1.85c-.34-.46-.79-.68-1.37-.68Z"/>
  <path class="cls-1" d="M142.67,39.45c.26-.48.59-.83.96-1.07.37-.23.82-.35,1.33-.35.67,0,1.2.24,1.57.72.37.48.56,1.16.56,2.04v3.96h-1.08v-3.92c0-.62-.12-1.09-.34-1.4-.23-.3-.56-.46-1.02-.46-.56,0-1.01.19-1.33.56-.32.37-.48.88-.48,1.51v3.71h-1.08v-3.92c0-.62-.12-1.09-.34-1.4-.23-.3-.58-.46-1.03-.46-.55,0-1,.19-1.32.56-.32.37-.48.88-.48,1.51v3.71h-1.08v-6.56h1.08v1.02c.24-.4.54-.7.89-.89.34-.19.74-.29,1.22-.29s.88.12,1.21.36c.34.24.58.6.74,1.06Z"/>
  <polygon class="cls-1" points="152.29 38.19 153.43 38.19 155.49 43.69 157.54 38.19 158.68 38.19 156.22 44.75 154.75 44.75 152.29 38.19"/>
  <path class="cls-1" d="M165.3,41.01v3.74h-1.08v-1c-.25.41-.56.7-.92.88s-.82.28-1.34.28c-.67,0-1.21-.18-1.61-.55s-.59-.88-.59-1.51c0-.73.24-1.28.74-1.67.49-.37,1.22-.56,2.21-.56h1.51v-.11c0-.49-.17-.88-.49-1.15-.32-.26-.78-.41-1.37-.41-.38,0-.74.05-1.1.14s-.7.23-1.02.4v-1c.38-.14.77-.26,1.14-.34.37-.07.73-.12,1.09-.12.95,0,1.66.25,2.12.74.47.49.71,1.24.71,2.23ZM163.15,41.45c-.88,0-1.48.11-1.81.3-.34.2-.5.54-.5,1.02,0,.38.12.7.37.91.25.23.6.34,1.03.34.6,0,1.08-.2,1.44-.64.36-.42.54-.98.54-1.69v-.24h-1.07Z"/>
  <rect class="cls-1" x="167.52" y="35.63" width="1.08" height="9.12"/>
  <path class="cls-1" d="M173.46,38.03h0ZM170.75,42.16v-3.97h1.08v3.94c0,.62.12,1.08.36,1.39.24.31.6.47,1.09.47.58,0,1.04-.18,1.38-.55.34-.37.5-.88.5-1.52v-3.72h1.08v6.56h-1.08v-1.01c-.26.41-.58.7-.91.89-.35.18-.74.28-1.2.28-.76,0-1.33-.23-1.72-.7-.4-.46-.59-1.14-.59-2.05Z"/>
  <path class="cls-1" d="M183,40.89c-.01-.59-.18-1.06-.49-1.42-.32-.35-.76-.53-1.28-.53-.6,0-1.08.18-1.44.52s-.58.82-.62,1.43h3.84ZM184.08,41.2v.53h-4.96c.05.74.26,1.32.67,1.7.4.38.95.58,1.67.58.41,0,.82-.05,1.2-.14s.78-.25,1.16-.47v1.02c-.38.17-.78.3-1.19.37-.41.07-.83.12-1.24.12-1.06,0-1.88-.3-2.5-.9-.61-.6-.91-1.43-.91-2.47s.29-1.92.86-2.56c.58-.62,1.37-.95,2.35-.95.89,0,1.58.29,2.1.85.5.58.77,1.34.77,2.32Z"/>
  <path class="cls-1" d="M190.03,38.38v1.02c-.31-.14-.62-.26-.95-.35-.34-.07-.67-.12-1.02-.12-.54,0-.95.08-1.21.25-.26.17-.4.41-.4.73,0,.25.1.44.29.59.19.14.58.29,1.15.41l.37.08c.77.17,1.31.41,1.63.7.31.3.48.72.48,1.25,0,.61-.24,1.09-.72,1.44-.48.36-1.15.53-1.99.53-.36,0-.72-.04-1.1-.1-.38-.06-.78-.16-1.2-.3v-1.12c.4.22.79.37,1.18.47.38.11.77.16,1.15.16.5,0,.9-.08,1.18-.25.26-.17.41-.42.41-.74,0-.29-.11-.52-.3-.67s-.62-.31-1.3-.46l-.37-.08c-.67-.14-1.16-.36-1.45-.65-.3-.29-.44-.68-.44-1.2,0-.61.22-1.09.65-1.43.43-.34,1.06-.5,1.87-.5.4,0,.77.04,1.13.1.35.06.67.14.97.25Z"/>
</svg>