<?xml version="1.0" encoding="UTF-8"?>
<svg id="Layer_1" data-name="Layer 1" xmlns="http://www.w3.org/2000/svg" version="1.1" xmlns:xlink="http://www.w3.org/1999/xlink" viewBox="0 0 399.88 325.65">
  <defs>
    <style>
      .cls-1 {
        clip-path: url(#clippath-62);
      }

      .cls-2 {
        clip-path: url(#clippath-45);
      }

      .cls-3 {
        clip-path: url(#clippath-63);
      }

      .cls-4 {
        clip-path: url(#clippath-20);
      }

      .cls-5 {
        clip-path: url(#clippath-11);
      }

      .cls-6 {
        clip-path: url(#clippath-16);
      }

      .cls-7 {
        clip-path: url(#clippath-59);
      }

      .cls-8 {
        clip-path: url(#clippath-33);
      }

      .cls-9 {
        fill: #000;
      }

      .cls-9, .cls-10, .cls-11, .cls-12, .cls-13 {
        stroke-width: 0px;
      }

      .cls-14 {
        clip-path: url(#clippath-64);
      }

      .cls-15 {
        clip-path: url(#clippath-47);
      }

      .cls-16 {
        clip-path: url(#clippath-41);
      }

      .cls-17 {
        clip-path: url(#clippath-32);
      }

      .cls-18 {
        clip-path: url(#clippath-2);
      }

      .cls-19 {
        clip-path: url(#clippath-13);
      }

      .cls-20 {
        clip-path: url(#clippath-37);
      }

      .cls-21 {
        clip-path: url(#clippath-46);
      }

      .cls-22 {
        clip-path: url(#clippath-25);
      }

      .cls-23 {
        clip-path: url(#clippath-15);
      }

      .cls-24 {
        clip-path: url(#clippath-6);
      }

      .cls-25 {
        clip-path: url(#clippath-40);
      }

      .cls-26 {
        clip-path: url(#clippath-26);
      }

      .cls-10, .cls-27, .cls-28, .cls-29, .cls-30, .cls-31, .cls-32, .cls-33, .cls-34, .cls-35, .cls-36, .cls-37, .cls-38 {
        fill: none;
      }

      .cls-27, .cls-29 {
        stroke: #ccc;
      }

      .cls-27, .cls-29, .cls-32, .cls-34, .cls-35 {
        stroke-miterlimit: 10;
      }

      .cls-27, .cls-36, .cls-13 {
        opacity: .5;
      }

      .cls-39 {
        clip-path: url(#clippath-7);
      }

      .cls-40 {
        clip-path: url(#clippath-21);
      }

      .cls-28, .cls-30, .cls-31, .cls-33, .cls-36, .cls-37, .cls-38 {
        stroke-linejoin: round;
      }

      .cls-28, .cls-30, .cls-31, .cls-33, .cls-37 {
        stroke-width: 1.5px;
      }

      .cls-28, .cls-30, .cls-35 {
        stroke: red;
      }

      .cls-28, .cls-31 {
        stroke-dasharray: 0 0 5.55 2.4;
      }

      .cls-41 {
        clip-path: url(#clippath-34);
      }

      .cls-42 {
        clip-path: url(#clippath-57);
      }

      .cls-43 {
        clip-path: url(#clippath-1);
      }

      .cls-44 {
        clip-path: url(#clippath-4);
      }

      .cls-45 {
        clip-path: url(#clippath-38);
      }

      .cls-46 {
        clip-path: url(#clippath-36);
      }

      .cls-47 {
        clip-path: url(#clippath-27);
      }

      .cls-48 {
        clip-path: url(#clippath-60);
      }

      .cls-11, .cls-29 {
        opacity: .8;
      }

      .cls-11, .cls-12, .cls-13 {
        fill: #fff;
      }

      .cls-49 {
        clip-path: url(#clippath-44);
      }

      .cls-50 {
        clip-path: url(#clippath-12);
      }

      .cls-30, .cls-32, .cls-33, .cls-37 {
        stroke-linecap: square;
      }

      .cls-51 {
        clip-path: url(#clippath-24);
      }

      .cls-52 {
        clip-path: url(#clippath-30);
      }

      .cls-31, .cls-34, .cls-37 {
        stroke: blue;
      }

      .cls-53 {
        clip-path: url(#clippath-22);
      }

      .cls-54 {
        clip-path: url(#clippath-9);
      }

      .cls-55 {
        clip-path: url(#clippath-52);
      }

      .cls-56 {
        clip-path: url(#clippath);
      }

      .cls-57 {
        clip-path: url(#clippath-50);
      }

      .cls-58 {
        clip-path: url(#clippath-48);
      }

      .cls-59 {
        clip-path: url(#clippath-61);
      }

      .cls-60 {
        clip-path: url(#clippath-39);
      }

      .cls-61 {
        clip-path: url(#clippath-19);
      }

      .cls-62 {
        clip-path: url(#clippath-31);
      }

      .cls-63 {
        clip-path: url(#clippath-54);
      }

      .cls-64 {
        clip-path: url(#clippath-3);
      }

      .cls-32, .cls-33, .cls-38 {
        stroke: #000;
      }

      .cls-32, .cls-36, .cls-38 {
        stroke-width: .8px;
      }

      .cls-65 {
        clip-path: url(#clippath-43);
      }

      .cls-66 {
        clip-path: url(#clippath-70);
      }

      .cls-67 {
        clip-path: url(#clippath-8);
      }

      .cls-68 {
        clip-path: url(#clippath-55);
      }

      .cls-69 {
        clip-path: url(#clippath-69);
      }

      .cls-70 {
        clip-path: url(#clippath-29);
      }

      .cls-71 {
        clip-path: url(#clippath-18);
      }

      .cls-72 {
        clip-path: url(#clippath-14);
      }

      .cls-73 {
        clip-path: url(#clippath-17);
      }

      .cls-74 {
        clip-path: url(#clippath-5);
      }

      .cls-75 {
        clip-path: url(#clippath-58);
      }

      .cls-36 {
        stroke: #b0b0b0;
        stroke-dasharray: 0 0 2.96 1.28;
      }

      .cls-76 {
        clip-path: url(#clippath-42);
      }

      .cls-77 {
        clip-path: url(#clippath-65);
      }

      .cls-78 {
        clip-path: url(#clippath-10);
      }

      .cls-79 {
        clip-path: url(#clippath-23);
      }

      .cls-80 {
        clip-path: url(#clippath-56);
      }

      .cls-81 {
        clip-path: url(#clippath-53);
      }

      .cls-82 {
        clip-path: url(#clippath-49);
      }

      .cls-83 {
        clip-path: url(#clippath-67);
      }

      .cls-84 {
        clip-path: url(#clippath-51);
      }

      .cls-85 {
        clip-path: url(#clippath-28);
      }

      .cls-86 {
        clip-path: url(#clippath-68);
      }

      .cls-87 {
        clip-path: url(#clippath-35);
      }

      .cls-88 {
        clip-path: url(#clippath-66);
      }
    </style>
    <clipPath id="clippath">
      <rect class="cls-10" x="30.2" y="18.12" width="357.12" height="120.96"/>
    </clipPath>
    <clipPath id="clippath-1">
      <rect class="cls-10" x="30.2" y="18.12" width="357.12" height="120.96"/>
    </clipPath>
    <clipPath id="clippath-2">
      <rect class="cls-10" x="30.2" y="18.12" width="357.12" height="120.96"/>
    </clipPath>
    <clipPath id="clippath-3">
      <rect class="cls-10" x="30.2" y="18.12" width="357.12" height="120.96"/>
    </clipPath>
    <clipPath id="clippath-4">
      <rect class="cls-10" x="30.2" y="18.12" width="357.12" height="120.96"/>
    </clipPath>
    <clipPath id="clippath-5">
      <rect class="cls-10" x="30.2" y="18.12" width="357.12" height="120.96"/>
    </clipPath>
    <clipPath id="clippath-6">
      <rect class="cls-10" x="30.2" y="18.12" width="357.12" height="120.96"/>
    </clipPath>
    <clipPath id="clippath-7">
      <rect class="cls-10" x="30.2" y="18.12" width="357.12" height="120.96"/>
    </clipPath>
    <clipPath id="clippath-8">
      <rect class="cls-10" x="30.2" y="18.12" width="357.12" height="120.96"/>
    </clipPath>
    <clipPath id="clippath-9">
      <rect class="cls-10" x="30.2" y="18.12" width="357.12" height="120.96"/>
    </clipPath>
    <clipPath id="clippath-10">
      <rect class="cls-10" x="30.2" y="18.12" width="357.12" height="120.96"/>
    </clipPath>
    <clipPath id="clippath-11">
      <rect class="cls-10" x="30.2" y="18.12" width="357.12" height="120.96"/>
    </clipPath>
    <clipPath id="clippath-12">
      <rect class="cls-10" x="30.2" y="18.12" width="357.12" height="120.96"/>
    </clipPath>
    <clipPath id="clippath-13">
      <rect class="cls-10" x="363.59" y="124.46" width="15" height="15"/>
    </clipPath>
    <clipPath id="clippath-14">
      <rect class="cls-10" x="263.91" y="125.78" width="15" height="15"/>
    </clipPath>
    <clipPath id="clippath-15">
      <rect class="cls-10" x="172.26" y="126.08" width="15" height="15"/>
    </clipPath>
    <clipPath id="clippath-16">
      <rect class="cls-10" x="125.34" y="124.47" width="15" height="15"/>
    </clipPath>
    <clipPath id="clippath-17">
      <rect class="cls-10" x="101.4" y="115.65" width="15" height="15"/>
    </clipPath>
    <clipPath id="clippath-18">
      <rect class="cls-10" x="69.89" y="84.77" width="15" height="15"/>
    </clipPath>
    <clipPath id="clippath-19">
      <rect class="cls-10" x="63.9" y="69.78" width="15" height="15"/>
    </clipPath>
    <clipPath id="clippath-20">
      <rect class="cls-10" x="53.1" y="40.8" width="15" height="15"/>
    </clipPath>
    <clipPath id="clippath-21">
      <rect class="cls-10" x="46.53" y="28.4" width="15" height="15"/>
    </clipPath>
    <clipPath id="clippath-22">
      <rect class="cls-10" x="42.88" y="16.12" width="15" height="15"/>
    </clipPath>
    <clipPath id="clippath-23">
      <rect class="cls-10" x="30.2" y="18.12" width="357.12" height="120.96"/>
    </clipPath>
    <clipPath id="clippath-24">
      <rect class="cls-10" x="298.88" y="101.69" width="15" height="15"/>
    </clipPath>
    <clipPath id="clippath-25">
      <rect class="cls-10" x="237.2" y="109.24" width="15" height="15"/>
    </clipPath>
    <clipPath id="clippath-26">
      <rect class="cls-10" x="203.07" y="119.18" width="15" height="15"/>
    </clipPath>
    <clipPath id="clippath-27">
      <rect class="cls-10" x="155.25" y="119.68" width="15" height="15"/>
    </clipPath>
    <clipPath id="clippath-28">
      <rect class="cls-10" x="123.98" y="118.29" width="15" height="15"/>
    </clipPath>
    <clipPath id="clippath-29">
      <rect class="cls-10" x="108.79" y="113.24" width="15" height="15"/>
    </clipPath>
    <clipPath id="clippath-30">
      <rect class="cls-10" x="99.69" y="106.46" width="15" height="15"/>
    </clipPath>
    <clipPath id="clippath-31">
      <rect class="cls-10" x="93.34" y="101.55" width="15" height="15"/>
    </clipPath>
    <clipPath id="clippath-32">
      <rect class="cls-10" x="88.66" y="96.6" width="15" height="15"/>
    </clipPath>
    <clipPath id="clippath-33">
      <rect class="cls-10" x="82.6" y="89.01" width="15" height="15"/>
    </clipPath>
    <clipPath id="clippath-34">
      <rect class="cls-10" x="74.41" y="78.3" width="15" height="15"/>
    </clipPath>
    <clipPath id="clippath-35">
      <rect class="cls-10" x="66.56" y="66.7" width="15" height="15"/>
    </clipPath>
    <clipPath id="clippath-36">
      <rect class="cls-10" x="30.2" y="163.27" width="357.12" height="120.96"/>
    </clipPath>
    <clipPath id="clippath-37">
      <rect class="cls-10" x="30.2" y="163.27" width="357.12" height="120.96"/>
    </clipPath>
    <clipPath id="clippath-38">
      <rect class="cls-10" x="30.2" y="163.27" width="357.12" height="120.96"/>
    </clipPath>
    <clipPath id="clippath-39">
      <rect class="cls-10" x="30.2" y="163.27" width="357.12" height="120.96"/>
    </clipPath>
    <clipPath id="clippath-40">
      <rect class="cls-10" x="30.2" y="163.27" width="357.12" height="120.96"/>
    </clipPath>
    <clipPath id="clippath-41">
      <rect class="cls-10" x="30.2" y="163.27" width="357.12" height="120.96"/>
    </clipPath>
    <clipPath id="clippath-42">
      <rect class="cls-10" x="30.2" y="163.27" width="357.12" height="120.96"/>
    </clipPath>
    <clipPath id="clippath-43">
      <rect class="cls-10" x="30.2" y="163.27" width="357.12" height="120.96"/>
    </clipPath>
    <clipPath id="clippath-44">
      <rect class="cls-10" x="30.2" y="163.27" width="357.12" height="120.96"/>
    </clipPath>
    <clipPath id="clippath-45">
      <rect class="cls-10" x="30.2" y="163.27" width="357.12" height="120.96"/>
    </clipPath>
    <clipPath id="clippath-46">
      <rect class="cls-10" x="30.2" y="163.27" width="357.12" height="120.96"/>
    </clipPath>
    <clipPath id="clippath-47">
      <rect class="cls-10" x="30.2" y="163.27" width="357.12" height="120.96"/>
    </clipPath>
    <clipPath id="clippath-48">
      <rect class="cls-10" x="305.29" y="238.81" width="15" height="15"/>
    </clipPath>
    <clipPath id="clippath-49">
      <rect class="cls-10" x="241.83" y="247.02" width="15" height="15"/>
    </clipPath>
    <clipPath id="clippath-50">
      <rect class="cls-10" x="173.47" y="264.05" width="15" height="15"/>
    </clipPath>
    <clipPath id="clippath-51">
      <rect class="cls-10" x="130.33" y="271.24" width="15" height="15"/>
    </clipPath>
    <clipPath id="clippath-52">
      <rect class="cls-10" x="104.68" y="261.98" width="15" height="15"/>
    </clipPath>
    <clipPath id="clippath-53">
      <rect class="cls-10" x="66.66" y="223.81" width="15" height="15"/>
    </clipPath>
    <clipPath id="clippath-54">
      <rect class="cls-10" x="59.9" y="210.53" width="15" height="15"/>
    </clipPath>
    <clipPath id="clippath-55">
      <rect class="cls-10" x="47.82" y="186.63" width="15" height="15"/>
    </clipPath>
    <clipPath id="clippath-56">
      <rect class="cls-10" x="41.66" y="178.23" width="15" height="15"/>
    </clipPath>
    <clipPath id="clippath-57">
      <rect class="cls-10" x="39.79" y="172.01" width="15" height="15"/>
    </clipPath>
    <clipPath id="clippath-58">
      <rect class="cls-10" x="30.2" y="163.27" width="357.12" height="120.96"/>
    </clipPath>
    <clipPath id="clippath-59">
      <rect class="cls-10" x="265.93" y="193.45" width="15" height="15"/>
    </clipPath>
    <clipPath id="clippath-60">
      <rect class="cls-10" x="196.01" y="233.91" width="15" height="15"/>
    </clipPath>
    <clipPath id="clippath-61">
      <rect class="cls-10" x="158.28" y="256.08" width="15" height="15"/>
    </clipPath>
    <clipPath id="clippath-62">
      <rect class="cls-10" x="116.54" y="256.58" width="15" height="15"/>
    </clipPath>
    <clipPath id="clippath-63">
      <rect class="cls-10" x="99.99" y="236.85" width="15" height="15"/>
    </clipPath>
    <clipPath id="clippath-64">
      <rect class="cls-10" x="87.94" y="217.04" width="15" height="15"/>
    </clipPath>
    <clipPath id="clippath-65">
      <rect class="cls-10" x="70.78" y="201.44" width="15" height="15"/>
    </clipPath>
    <clipPath id="clippath-66">
      <rect class="cls-10" x="58.68" y="191.29" width="15" height="15"/>
    </clipPath>
    <clipPath id="clippath-67">
      <rect class="cls-10" x="51.86" y="183.68" width="15" height="15"/>
    </clipPath>
    <clipPath id="clippath-68">
      <rect class="cls-10" x="46" y="175.42" width="15" height="15"/>
    </clipPath>
    <clipPath id="clippath-69">
      <rect class="cls-10" x="41.23" y="166.67" width="15" height="15"/>
    </clipPath>
    <clipPath id="clippath-70">
      <rect class="cls-10" x="38.93" y="161.27" width="15" height="15"/>
    </clipPath>
  </defs>
  <rect class="cls-12" width="399.88" height="325.65"/>
  <rect class="cls-12" x="30.2" y="18.12" width="357.12" height="120.96"/>
  <g class="cls-56">
    <line class="cls-36" x1="39.15" y1="139.08" x2="39.15" y2="18.12"/>
  </g>
  <line class="cls-9" x1="39.15" y1="18.12" x2="39.15" y2="14.62"/>
  <line class="cls-38" x1="39.15" y1="18.12" x2="39.15" y2="14.62"/>
  <g class="cls-43">
    <line class="cls-36" x1="103.46" y1="139.08" x2="103.46" y2="18.12"/>
  </g>
  <line class="cls-9" x1="103.46" y1="18.12" x2="103.46" y2="14.62"/>
  <line class="cls-38" x1="103.46" y1="18.12" x2="103.46" y2="14.62"/>
  <g class="cls-18">
    <line class="cls-36" x1="167.78" y1="139.08" x2="167.78" y2="18.12"/>
  </g>
  <line class="cls-9" x1="167.78" y1="18.12" x2="167.78" y2="14.62"/>
  <line class="cls-38" x1="167.78" y1="18.12" x2="167.78" y2="14.62"/>
  <g class="cls-64">
    <line class="cls-36" x1="232.09" y1="139.08" x2="232.09" y2="18.12"/>
  </g>
  <line class="cls-9" x1="232.09" y1="18.12" x2="232.09" y2="14.62"/>
  <line class="cls-38" x1="232.09" y1="18.12" x2="232.09" y2="14.62"/>
  <g class="cls-44">
    <line class="cls-36" x1="296.4" y1="139.08" x2="296.4" y2="18.12"/>
  </g>
  <line class="cls-9" x1="296.4" y1="18.12" x2="296.4" y2="14.62"/>
  <line class="cls-38" x1="296.4" y1="18.12" x2="296.4" y2="14.62"/>
  <g class="cls-74">
    <line class="cls-36" x1="360.71" y1="139.08" x2="360.71" y2="18.12"/>
  </g>
  <line class="cls-9" x1="360.71" y1="18.12" x2="360.71" y2="14.62"/>
  <line class="cls-38" x1="360.71" y1="18.12" x2="360.71" y2="14.62"/>
  <g class="cls-24">
    <line class="cls-36" x1="30.2" y1="136.15" x2="387.32" y2="136.15"/>
  </g>
  <line class="cls-9" x1="30.2" y1="136.15" x2="26.7" y2="136.15"/>
  <line class="cls-38" x1="30.2" y1="136.15" x2="26.7" y2="136.15"/>
  <polygon class="cls-9" points="8.44 138.54 10.05 138.54 10.05 132.98 8.3 133.33 8.3 132.43 10.04 132.08 11.03 132.08 11.03 138.54 12.64 138.54 12.64 139.37 8.44 139.37 8.44 138.54"/>
  <rect class="cls-9" x="14.63" y="138.13" width="1.03" height="1.24"/>
  <path class="cls-9" d="M18.16,138.54h3.44v.83h-4.63v-.83c.37-.38.88-.9,1.53-1.56.64-.65,1.05-1.07,1.22-1.26.32-.35.54-.65.66-.9.12-.24.19-.49.19-.73,0-.38-.14-.7-.41-.94s-.62-.37-1.06-.37c-.31,0-.64.06-.98.16-.34.11-.71.27-1.1.49v-1c.4-.16.77-.28,1.11-.36s.66-.12.95-.12c.75,0,1.35.19,1.8.57.45.38.68.88.68,1.51,0,.3-.06.59-.17.85-.11.27-.31.59-.61.95-.08.1-.34.37-.78.82s-1.05,1.08-1.84,1.89Z"/>
  <g class="cls-39">
    <line class="cls-36" x1="30.2" y1="113.39" x2="387.32" y2="113.39"/>
  </g>
  <line class="cls-9" x1="30.2" y1="113.39" x2="26.7" y2="113.39"/>
  <line class="cls-38" x1="30.2" y1="113.39" x2="26.7" y2="113.39"/>
  <polygon class="cls-9" points="8.44 115.65 10.05 115.65 10.05 110.09 8.3 110.44 8.3 109.54 10.04 109.19 11.03 109.19 11.03 115.65 12.64 115.65 12.64 116.48 8.44 116.48 8.44 115.65"/>
  <rect class="cls-9" x="14.63" y="115.24" width="1.03" height="1.24"/>
  <path class="cls-9" d="M20.26,109.19h1.24v4.75h1.04v.82h-1.04v1.72h-.98v-1.72h-3.29v-.95l3.03-4.62ZM20.52,110.05l-2.49,3.89h2.49v-3.89Z"/>
  <g class="cls-67">
    <line class="cls-36" x1="30.2" y1="90.62" x2="387.32" y2="90.62"/>
  </g>
  <line class="cls-9" x1="30.2" y1="90.62" x2="26.7" y2="90.62"/>
  <line class="cls-38" x1="30.2" y1="90.62" x2="26.7" y2="90.62"/>
  <polygon class="cls-9" points="8.44 93.01 10.05 93.01 10.05 87.45 8.3 87.8 8.3 86.9 10.04 86.55 11.03 86.55 11.03 93.01 12.64 93.01 12.64 93.84 8.44 93.84 8.44 93.01"/>
  <rect class="cls-9" x="14.63" y="92.6" width="1.03" height="1.24"/>
  <path class="cls-9" d="M22,86.71v.9c-.25-.12-.5-.21-.75-.27-.26-.06-.51-.09-.75-.09-.66,0-1.16.22-1.5.66-.34.44-.54,1.11-.58,1.99.19-.28.43-.5.72-.65.29-.15.61-.23.96-.23.73,0,1.31.23,1.73.67.42.44.64,1.05.64,1.81s-.23,1.35-.67,1.8c-.44.45-1.03.67-1.76.67-.84,0-1.49-.32-1.93-.96-.45-.64-.67-1.58-.67-2.81,0-1.15.27-2.07.82-2.75.54-.68,1.28-1.03,2.2-1.03.24,0,.49.03.75.07.25.05.51.12.79.22ZM20.04,89.8c-.44,0-.79.16-1.05.46s-.39.72-.39,1.24.13.95.39,1.25.61.45,1.05.45.79-.15,1.05-.45.39-.72.39-1.25-.13-.94-.39-1.24-.61-.46-1.05-.46Z"/>
  <g class="cls-54">
    <line class="cls-36" x1="30.2" y1="67.86" x2="387.32" y2="67.86"/>
  </g>
  <line class="cls-9" x1="30.2" y1="67.86" x2="26.7" y2="67.86"/>
  <line class="cls-38" x1="30.2" y1="67.86" x2="26.7" y2="67.86"/>
  <polygon class="cls-9" points="8.44 70.25 10.05 70.25 10.05 64.69 8.3 65.04 8.3 64.14 10.04 63.79 11.03 63.79 11.03 70.25 12.64 70.25 12.64 71.08 8.44 71.08 8.44 70.25"/>
  <rect class="cls-9" x="14.63" y="69.84" width="1.03" height="1.24"/>
  <path class="cls-9" d="M18.32,65.64c0,.38.11.68.35.89.24.21.57.31,1,.31s.75-.1.99-.31c.24-.21.36-.51.36-.89s-.12-.67-.36-.88c-.24-.21-.57-.32-.99-.32s-.76.11-1,.32c-.24.21-.35.5-.35.88ZM18.68,67.2c-.42-.1-.75-.3-.99-.59-.24-.29-.35-.64-.35-1.06,0-.58.2-1.04.62-1.38.41-.34.98-.51,1.71-.51s1.29.17,1.71.51c.41.34.62.8.62,1.38,0,.42-.12.77-.36,1.06-.24.29-.56.49-.98.59.47.11.84.33,1.11.65.26.32.4.72.4,1.18,0,.71-.22,1.25-.65,1.62-.44.38-1.06.56-1.86.56s-1.42-.18-1.85-.56c-.43-.37-.64-.91-.64-1.62,0-.46.13-.86.4-1.18.26-.32.63-.54,1.11-.65ZM19.67,67.62c-.47,0-.84.13-1.11.38s-.4.59-.4,1.03.13.79.4,1.04.64.37,1.11.37.83-.12,1.1-.38c.27-.25.41-.59.41-1.03s-.14-.78-.4-1.03c-.27-.25-.64-.38-1.11-.38Z"/>
  <g class="cls-78">
    <line class="cls-36" x1="30.2" y1="45.1" x2="387.32" y2="45.1"/>
  </g>
  <line class="cls-9" x1="30.2" y1="45.1" x2="26.7" y2="45.1"/>
  <line class="cls-38" x1="30.2" y1="45.1" x2="26.7" y2="45.1"/>
  <path class="cls-9" d="M9.12,47.49h3.44v.83h-4.63v-.83c.37-.38.88-.9,1.53-1.56.64-.65,1.05-1.07,1.22-1.26.32-.35.54-.65.66-.9.12-.24.19-.49.19-.73,0-.38-.14-.7-.41-.94-.27-.24-.62-.37-1.06-.37-.31,0-.64.06-.98.16-.34.11-.71.27-1.1.49v-1c.4-.16.77-.28,1.11-.36.34-.08.66-.12.95-.12.75,0,1.35.19,1.8.57s.68.88.68,1.51c0,.3-.06.59-.17.85-.11.27-.31.59-.61.95-.08.1-.34.37-.78.82s-1.05,1.08-1.84,1.89Z"/>
  <rect class="cls-9" x="14.63" y="47.08" width="1.03" height="1.24"/>
  <path class="cls-9" d="M19.92,40.9c.81,0,1.43.33,1.87.97.43.65.65,1.59.65,2.81s-.22,2.17-.65,2.81c-.44.64-1.06.96-1.88.96s-1.44-.32-1.87-.96c-.43-.64-.64-1.58-.64-2.81s.21-2.16.64-2.81c.43-.64,1.06-.97,1.88-.97ZM19.92,41.68c-.51,0-.89.25-1.15.75s-.38,1.25-.38,2.25.12,1.75.38,2.25.64.75,1.15.75.89-.25,1.15-.75c.25-.5.38-1.25.38-2.25s-.13-1.75-.38-2.25c-.26-.5-.64-.75-1.15-.75Z"/>
  <g class="cls-5">
    <line class="cls-36" x1="30.2" y1="22.34" x2="387.32" y2="22.34"/>
  </g>
  <line class="cls-9" x1="30.2" y1="22.34" x2="26.7" y2="22.34"/>
  <line class="cls-38" x1="30.2" y1="22.34" x2="26.7" y2="22.34"/>
  <path class="cls-9" d="M9.12,24.73h3.44v.83h-4.63v-.83c.37-.38.88-.9,1.53-1.56.64-.65,1.05-1.07,1.22-1.26.32-.35.54-.65.66-.9.12-.24.19-.49.19-.73,0-.38-.14-.7-.41-.94-.27-.24-.62-.37-1.06-.37-.31,0-.64.06-.98.16-.34.11-.71.27-1.1.49v-1c.4-.16.77-.28,1.11-.36.34-.08.66-.12.95-.12.75,0,1.35.19,1.8.57s.68.88.68,1.51c0,.3-.06.59-.17.85-.11.27-.31.59-.61.95-.08.1-.34.37-.78.82s-1.05,1.08-1.84,1.89Z"/>
  <rect class="cls-9" x="14.63" y="24.32" width="1.03" height="1.24"/>
  <path class="cls-9" d="M18.16,24.73h3.44v.83h-4.63v-.83c.37-.38.88-.9,1.53-1.56.64-.65,1.05-1.07,1.22-1.26.32-.35.54-.65.66-.9.12-.24.19-.49.19-.73,0-.38-.14-.7-.41-.94s-.62-.37-1.06-.37c-.31,0-.64.06-.98.16-.34.11-.71.27-1.1.49v-1c.4-.16.77-.28,1.11-.36.34-.08.66-.12.95-.12.75,0,1.35.19,1.8.57.45.38.68.88.68,1.51,0,.3-.06.59-.17.85-.11.27-.31.59-.61.95-.08.1-.34.37-.78.82s-1.05,1.08-1.84,1.89Z"/>
  <polygon class="cls-9" points="37.21 9.69 34.98 11.93 37.21 14.16 36.63 14.75 34.39 12.51 32.15 14.75 31.57 14.16 33.8 11.93 31.57 9.69 32.15 9.1 34.39 11.34 36.63 9.1 37.21 9.69"/>
  <polygon class="cls-9" points="39.82 14.23 41.43 14.23 41.43 8.67 39.68 9.02 39.68 8.12 41.42 7.77 42.41 7.77 42.41 14.23 44.02 14.23 44.02 15.06 39.82 15.06 39.82 14.23"/>
  <path class="cls-9" d="M48.12,7.64c.81,0,1.43.33,1.87.97.43.65.65,1.59.65,2.81s-.22,2.17-.65,2.81c-.44.64-1.06.96-1.88.96s-1.44-.32-1.87-.96c-.43-.64-.64-1.58-.64-2.81s.21-2.16.64-2.81c.43-.64,1.06-.97,1.88-.97ZM48.12,8.42c-.51,0-.89.25-1.15.75-.26.5-.38,1.25-.38,2.25s.12,1.75.38,2.25c.26.5.64.75,1.15.75s.89-.25,1.15-.75c.25-.5.38-1.25.38-2.25s-.13-1.75-.38-2.25c-.26-.5-.64-.75-1.15-.75Z"/>
  <polygon class="cls-9" points="51.97 6.13 55.26 6.13 55.26 6.42 53.4 11.23 52.68 11.23 54.42 6.71 51.97 6.71 51.97 6.13"/>
  <g class="cls-50">
    <polyline class="cls-30" points="371.09 131.96 271.41 133.28 179.76 133.58 132.84 131.97 108.9 123.15 77.39 92.27 71.4 77.28 60.6 48.3 54.03 35.9 50.38 23.62"/>
    <g class="cls-19">
      <polygon class="cls-35" points="371.09 129.46 368.59 134.46 373.59 134.46 371.09 129.46"/>
    </g>
    <g class="cls-72">
      <polygon class="cls-35" points="271.41 130.78 268.91 135.78 273.91 135.78 271.41 130.78"/>
    </g>
    <g class="cls-23">
      <polygon class="cls-35" points="179.76 131.08 177.26 136.08 182.26 136.08 179.76 131.08"/>
    </g>
    <g class="cls-6">
      <polygon class="cls-35" points="132.84 129.47 130.34 134.47 135.34 134.47 132.84 129.47"/>
    </g>
    <g class="cls-73">
      <polygon class="cls-35" points="108.9 120.65 106.4 125.65 111.4 125.65 108.9 120.65"/>
    </g>
    <g class="cls-71">
      <polygon class="cls-35" points="77.39 89.77 74.89 94.77 79.89 94.77 77.39 89.77"/>
    </g>
    <g class="cls-61">
      <polygon class="cls-35" points="71.4 74.78 68.9 79.78 73.9 79.78 71.4 74.78"/>
    </g>
    <g class="cls-4">
      <polygon class="cls-35" points="60.6 45.8 58.1 50.8 63.1 50.8 60.6 45.8"/>
    </g>
    <g class="cls-40">
      <polygon class="cls-35" points="54.03 33.4 51.53 38.4 56.53 38.4 54.03 33.4"/>
    </g>
    <g class="cls-53">
      <polygon class="cls-35" points="50.38 21.12 47.88 26.12 52.88 26.12 50.38 21.12"/>
    </g>
  </g>
  <g class="cls-79">
    <polyline class="cls-37" points="306.38 109.19 244.7 116.74 210.57 126.68 162.75 127.18 131.48 125.79 116.29 120.74 107.19 113.96 100.84 109.05 96.16 104.1 90.1 96.51 81.91 85.8 74.06 74.2"/>
    <g class="cls-51">
      <rect class="cls-34" x="303.88" y="106.69" width="5" height="5"/>
    </g>
    <g class="cls-22">
      <rect class="cls-34" x="242.2" y="114.24" width="5" height="5"/>
    </g>
    <g class="cls-26">
      <rect class="cls-34" x="208.07" y="124.18" width="5" height="5"/>
    </g>
    <g class="cls-47">
      <rect class="cls-34" x="160.25" y="124.68" width="5" height="5"/>
    </g>
    <g class="cls-85">
      <rect class="cls-34" x="128.98" y="123.29" width="5" height="5"/>
    </g>
    <g class="cls-70">
      <rect class="cls-34" x="113.79" y="118.24" width="5" height="5"/>
    </g>
    <g class="cls-52">
      <rect class="cls-34" x="104.69" y="111.46" width="5" height="5"/>
    </g>
    <g class="cls-62">
      <rect class="cls-34" x="98.34" y="106.55" width="5" height="5"/>
    </g>
    <g class="cls-17">
      <rect class="cls-34" x="93.66" y="101.6" width="5" height="5"/>
    </g>
    <g class="cls-8">
      <rect class="cls-34" x="87.6" y="94.01" width="5" height="5"/>
    </g>
    <g class="cls-41">
      <rect class="cls-34" x="79.41" y="83.3" width="5" height="5"/>
    </g>
    <g class="cls-87">
      <rect class="cls-34" x="71.56" y="71.7" width="5" height="5"/>
    </g>
  </g>
  <line class="cls-33" x1="24.84" y1="140.9" x2="35.56" y2="137.27"/>
  <line class="cls-33" x1="381.96" y1="140.9" x2="392.68" y2="137.27"/>
  <line class="cls-32" x1="30.2" y1="139.08" x2="30.2" y2="18.12"/>
  <line class="cls-32" x1="387.32" y1="139.08" x2="387.32" y2="18.12"/>
  <line class="cls-32" x1="30.2" y1="18.12" x2="387.32" y2="18.12"/>
  <g>
    <rect class="cls-11" x="281.89" y="25.12" width="98.43" height="45.29" rx="2.8" ry="2.8"/>
    <rect class="cls-29" x="281.89" y="25.12" width="98.43" height="45.29" rx="2.8" ry="2.8"/>
  </g>
  <polyline class="cls-30" points="287.49 36.46 301.49 36.46 315.49 36.46"/>
  <polygon class="cls-35" points="301.49 33.96 298.99 38.96 303.99 38.96 301.49 33.96"/>
  <polygon class="cls-9" points="328.06 31.16 330.12 31.16 332.72 38.1 335.34 31.16 337.4 31.16 337.4 41.36 336.05 41.36 336.05 32.4 333.42 39.4 332.04 39.4 329.4 32.4 329.4 41.36 328.06 41.36 328.06 31.16"/>
  <polygon class="cls-9" points="342.77 41.36 338.88 31.16 340.32 31.16 343.56 39.75 346.79 31.16 348.23 31.16 344.34 41.36 342.77 41.36"/>
  <rect class="cls-9" x="349.72" y="31.16" width="1.39" height="10.21"/>
  <path class="cls-9" d="M353.85,31.16h3.12c1.13,0,2,.27,2.59.78.59.52.88,1.27.88,2.27s-.29,1.78-.88,2.28c-.59.52-1.46.77-2.59.77h-1.74v4.1h-1.39v-10.21ZM355.23,32.29v3.84h1.74c.64,0,1.13-.15,1.48-.49s.53-.81.53-1.43-.18-1.08-.53-1.41-.84-.5-1.48-.5h-1.74Z"/>
  <polyline class="cls-37" points="287.49 57.01 301.49 57.01 315.49 57.01"/>
  <rect class="cls-34" x="298.99" y="54.51" width="5" height="5"/>
  <path class="cls-9" d="M328.06,51.7h3.12c1.13,0,2,.27,2.59.78.59.52.88,1.27.88,2.27s-.29,1.78-.88,2.28c-.59.52-1.46.77-2.59.77h-1.74v4.1h-1.39v-10.21ZM329.45,52.84v3.84h1.74c.64,0,1.13-.15,1.48-.49s.53-.81.53-1.43-.18-1.08-.53-1.41-.84-.5-1.48-.5h-1.74Z"/>
  <path class="cls-9" d="M338.24,51.7h1.57l3.89,10.21h-1.44l-.92-2.62h-4.61l-.92,2.62h-1.46l3.89-10.21ZM339.03,53.06l-1.88,5.08h3.75l-1.88-5.08Z"/>
  <rect class="cls-9" x="344.21" y="57.51" width="3.68" height="1.12"/>
  <polygon class="cls-9" points="349.95 51.7 351.33 51.7 351.33 60.75 356.3 60.75 356.3 61.91 349.95 61.91 349.95 51.7"/>
  <polygon class="cls-9" points="357.74 51.7 363.61 51.7 363.61 52.87 359.13 52.87 359.13 55.88 363.18 55.88 363.18 57.04 359.13 57.04 359.13 61.91 357.74 61.91 357.74 51.7"/>
  <path class="cls-9" d="M365.64,51.7h1.39v6.2c0,1.09.2,1.89.59,2.37.39.48,1.04.71,1.93.71s1.53-.24,1.92-.71.6-1.27.6-2.37v-6.2h1.39v6.37c0,1.34-.34,2.34-.99,3.01-.66.67-1.62,1.01-2.91,1.01s-2.27-.34-2.93-1.01-.98-1.67-.98-3.01v-6.37Z"/>
  <rect class="cls-12" x="30.2" y="163.27" width="357.12" height="120.96"/>
  <g class="cls-46">
    <line class="cls-36" x1="39.15" y1="284.23" x2="39.15" y2="163.27"/>
  </g>
  <line class="cls-9" x1="39.15" y1="284.23" x2="39.15" y2="287.73"/>
  <line class="cls-38" x1="39.15" y1="284.23" x2="39.15" y2="287.73"/>
  <path class="cls-9" d="M38.83,290.83c.81,0,1.43.33,1.87.97.43.65.65,1.59.65,2.81s-.22,2.17-.65,2.81c-.44.64-1.06.96-1.88.96s-1.44-.32-1.87-.96-.64-1.58-.64-2.81.21-2.16.64-2.81c.43-.64,1.06-.97,1.88-.97ZM38.83,291.61c-.51,0-.89.25-1.15.75-.26.5-.38,1.25-.38,2.25s.12,1.75.38,2.25c.26.5.64.75,1.15.75s.89-.25,1.15-.75c.25-.5.38-1.25.38-2.25s-.13-1.75-.38-2.25c-.26-.5-.64-.75-1.15-.75Z"/>
  <g class="cls-20">
    <line class="cls-36" x1="103.46" y1="284.23" x2="103.46" y2="163.27"/>
  </g>
  <line class="cls-9" x1="103.46" y1="284.23" x2="103.46" y2="287.73"/>
  <line class="cls-38" x1="103.46" y1="284.23" x2="103.46" y2="287.73"/>
  <polygon class="cls-9" points="101.2 297.29 102.81 297.29 102.81 291.73 101.06 292.08 101.06 291.18 102.8 290.83 103.79 290.83 103.79 297.29 105.4 297.29 105.4 298.12 101.2 298.12 101.2 297.29"/>
  <g class="cls-45">
    <line class="cls-36" x1="167.78" y1="284.23" x2="167.78" y2="163.27"/>
  </g>
  <line class="cls-9" x1="167.78" y1="284.23" x2="167.78" y2="287.73"/>
  <line class="cls-38" x1="167.78" y1="284.23" x2="167.78" y2="287.73"/>
  <path class="cls-9" d="M166.2,297.42h3.44v.83h-4.63v-.83c.37-.38.88-.9,1.53-1.56.64-.65,1.05-1.07,1.22-1.26.32-.35.54-.65.66-.9.12-.24.19-.49.19-.73,0-.38-.14-.7-.41-.94-.27-.24-.62-.37-1.06-.37-.31,0-.64.06-.98.16-.34.11-.71.27-1.1.49v-1c.4-.16.77-.28,1.11-.36.34-.08.66-.12.95-.12.75,0,1.35.19,1.8.57.45.38.68.88.68,1.51,0,.3-.06.59-.17.85-.11.27-.31.59-.61.95-.08.1-.34.37-.78.82-.44.45-1.05,1.08-1.84,1.89Z"/>
  <g class="cls-60">
    <line class="cls-36" x1="232.09" y1="284.23" x2="232.09" y2="163.27"/>
  </g>
  <line class="cls-9" x1="232.09" y1="284.23" x2="232.09" y2="287.73"/>
  <line class="cls-38" x1="232.09" y1="284.23" x2="232.09" y2="287.73"/>
  <path class="cls-9" d="M232.65,294.32c.47.1.84.31,1.1.63.26.32.4.72.4,1.18,0,.72-.25,1.28-.74,1.67-.5.39-1.2.58-2.11.58-.31,0-.63-.03-.95-.09-.32-.05-.66-.14-1-.26v-.95c.27.16.57.28.9.36.32.08.66.12,1.02.12.62,0,1.09-.12,1.41-.36.32-.24.49-.6.49-1.07,0-.42-.15-.76-.45-1-.3-.24-.72-.37-1.26-.37h-.85v-.81h.89c.48,0,.85-.09,1.11-.29.26-.19.39-.47.39-.84s-.14-.66-.4-.86c-.27-.2-.65-.3-1.14-.3-.27,0-.56.03-.87.09s-.65.15-1.02.27v-.88c.37-.1.72-.18,1.05-.23.32-.05.63-.08.93-.08.74,0,1.33.17,1.77.51s.66.8.66,1.38c0,.4-.12.74-.35,1.02-.23.28-.56.48-.98.58Z"/>
  <g class="cls-25">
    <line class="cls-36" x1="296.4" y1="284.23" x2="296.4" y2="163.27"/>
  </g>
  <line class="cls-9" x1="296.4" y1="284.23" x2="296.4" y2="287.73"/>
  <line class="cls-38" x1="296.4" y1="284.23" x2="296.4" y2="287.73"/>
  <path class="cls-9" d="M296.42,290.83h1.24v4.75h1.04v.82h-1.04v1.72h-.98v-1.72h-3.29v-.95l3.03-4.62ZM296.68,291.69l-2.49,3.89h2.49v-3.89Z"/>
  <g class="cls-16">
    <line class="cls-36" x1="360.71" y1="284.23" x2="360.71" y2="163.27"/>
  </g>
  <line class="cls-9" x1="360.71" y1="284.23" x2="360.71" y2="287.73"/>
  <line class="cls-38" x1="360.71" y1="284.23" x2="360.71" y2="287.73"/>
  <path class="cls-9" d="M358.29,290.83h3.87v.83h-2.97v1.79c.14-.05.29-.09.43-.11.14-.02.29-.04.43-.04.81,0,1.45.23,1.93.67.48.45.72,1.05.72,1.81s-.25,1.4-.74,1.83-1.18.64-2.06.64c-.31,0-.62-.03-.94-.07-.32-.05-.64-.12-.98-.23v-.99c.29.16.59.28.91.36.31.08.64.11.99.11.56,0,1.01-.14,1.34-.44.32-.3.49-.7.49-1.21s-.17-.9-.49-1.2c-.33-.3-.78-.45-1.34-.45-.26,0-.53.03-.79.09-.26.06-.53.15-.8.27v-3.66Z"/>
  <polygon class="cls-9" points="163.86 305.34 172.48 305.34 172.48 306.5 168.85 306.5 168.85 315.55 167.47 315.55 167.47 306.5 163.86 306.5 163.86 305.34"/>
  <path class="cls-9" d="M174.35,307.71c1.09,0,1.95.36,2.58,1.06.62.71.94,1.69.94,2.95s-.32,2.24-.94,2.94c-.63.71-1.48,1.06-2.58,1.06s-1.97-.35-2.59-1.06c-.62-.7-.92-1.68-.92-2.94s.31-2.24.92-2.95c.62-.7,1.48-1.06,2.59-1.06ZM174.35,308.77c-.67,0-1.2.27-1.6.8s-.59,1.25-.59,2.16.18,1.64.57,2.17c.39.53.92.78,1.61.78s1.2-.25,1.6-.78c.39-.53.59-1.25.59-2.17s-.2-1.62-.59-2.16-.92-.8-1.6-.8Z"/>
  <path class="cls-9" d="M181.19,305.72v2.17h2.59v.98h-2.59v4.16c0,.63.08,1.04.25,1.2.17.18.52.27,1.05.27h1.29v1.05h-1.29c-.98,0-1.65-.18-2.02-.55-.36-.36-.55-1.02-.55-1.97v-4.16h-.92v-.98h.92v-2.17h1.26Z"/>
  <path class="cls-9" d="M191.43,311.18v4.37h-1.26v-1.16c-.29.48-.66.81-1.08,1.02s-.95.32-1.57.32c-.78,0-1.41-.21-1.88-.64s-.69-1.02-.69-1.76c0-.85.28-1.5.87-1.95.57-.43,1.43-.66,2.58-.66h1.76v-.13c0-.57-.2-1.02-.57-1.34-.38-.31-.91-.48-1.6-.48-.45,0-.87.06-1.29.17-.42.11-.81.27-1.19.46v-1.16c.45-.17.9-.31,1.33-.39.43-.08.85-.14,1.27-.14,1.11,0,1.93.29,2.48.87.55.57.83,1.44.83,2.6ZM188.92,311.7c-1.02,0-1.72.13-2.11.35-.39.24-.59.63-.59,1.19,0,.45.14.81.43,1.06.29.27.7.39,1.2.39.7,0,1.26-.24,1.68-.74.42-.49.63-1.15.63-1.97v-.28h-1.25Z"/>
  <rect class="cls-9" x="194.02" y="304.91" width="1.26" height="10.64"/>
  <path class="cls-9" d="M207.86,311.72c0-.92-.2-1.64-.57-2.17-.39-.53-.91-.8-1.57-.8s-1.19.27-1.57.8c-.39.53-.57,1.25-.57,2.17s.18,1.65.57,2.18c.38.53.9.78,1.57.78s1.18-.25,1.57-.78c.38-.53.57-1.26.57-2.18ZM203.58,314.4v4.05h-1.26v-10.56h1.26v1.16c.25-.45.59-.78.99-1.01.41-.22.9-.34,1.46-.34.92,0,1.68.38,2.27,1.11.57.74.87,1.71.87,2.91s-.29,2.18-.87,2.91c-.59.73-1.34,1.09-2.27,1.09-.56,0-1.05-.11-1.46-.32s-.74-.55-.99-1.01Z"/>
  <path class="cls-9" d="M216.54,311.04c-.01-.69-.21-1.23-.57-1.65-.38-.41-.88-.62-1.5-.62-.7,0-1.26.21-1.68.6-.42.39-.67.95-.73,1.67h4.48ZM217.8,311.4v.62h-5.78c.06.87.31,1.54.78,1.99.46.45,1.11.67,1.95.67.48,0,.95-.06,1.4-.17.45-.11.91-.29,1.36-.55v1.19c-.45.2-.91.35-1.39.43-.48.08-.97.14-1.44.14-1.23,0-2.2-.35-2.91-1.05s-1.06-1.67-1.06-2.88.34-2.24,1.01-2.98c.67-.73,1.6-1.11,2.74-1.11,1.04,0,1.85.34,2.45.99.59.67.9,1.57.9,2.7Z"/>
  <path class="cls-9" d="M226.23,310.93v4.62h-1.26v-4.58c0-.73-.15-1.26-.43-1.62-.28-.36-.7-.55-1.26-.55-.69,0-1.22.22-1.61.66-.39.43-.59,1.02-.59,1.76v4.33h-1.26v-7.66h1.26v1.19c.29-.45.64-.8,1.06-1.02.41-.22.88-.35,1.41-.35.87,0,1.54.28,1.99.83.45.55.69,1.34.69,2.39Z"/>
  <path class="cls-9" d="M234.73,311.18v4.37h-1.26v-1.16c-.29.48-.66.81-1.08,1.02s-.95.32-1.57.32c-.78,0-1.41-.21-1.88-.64s-.69-1.02-.69-1.76c0-.85.28-1.5.87-1.95.57-.43,1.43-.66,2.58-.66h1.76v-.13c0-.57-.2-1.02-.57-1.34-.38-.31-.91-.48-1.6-.48-.45,0-.87.06-1.29.17-.42.11-.81.27-1.19.46v-1.16c.45-.17.9-.31,1.33-.39.43-.08.85-.14,1.27-.14,1.11,0,1.93.29,2.48.87.55.57.83,1.44.83,2.6ZM232.22,311.7c-1.02,0-1.72.13-2.11.35-.39.24-.59.63-.59,1.19,0,.45.14.81.43,1.06.29.27.7.39,1.2.39.7,0,1.26-.24,1.68-.74.42-.49.63-1.15.63-1.97v-.28h-1.25Z"/>
  <rect class="cls-9" x="237.32" y="304.91" width="1.26" height="10.64"/>
  <path class="cls-9" d="M242.46,305.72v2.17h2.59v.98h-2.59v4.16c0,.63.08,1.04.25,1.2.17.18.52.27,1.05.27h1.29v1.05h-1.29c-.98,0-1.65-.18-2.02-.55-.36-.36-.55-1.02-.55-1.97v-4.16h-.92v-.98h.92v-2.17h1.26Z"/>
  <path class="cls-9" d="M249.89,316.25c-.36.9-.71,1.5-1.05,1.78-.34.28-.78.42-1.34.42h-1.01v-1.05h.74c.34,0,.6-.08.8-.25.2-.17.41-.55.64-1.16l.22-.56-3.09-7.53h1.33l2.39,5.99,2.39-5.99h1.33l-3.36,8.36Z"/>
  <polygon class="cls-9" points="368.33 306.39 366.1 308.63 368.33 310.86 367.75 311.45 365.51 309.21 363.27 311.45 362.69 310.86 364.92 308.63 362.69 306.39 363.27 305.8 365.51 308.04 367.75 305.8 368.33 306.39"/>
  <polygon class="cls-9" points="370.94 310.93 372.55 310.93 372.55 305.37 370.8 305.72 370.8 304.82 372.54 304.47 373.53 304.47 373.53 310.93 375.14 310.93 375.14 311.76 370.94 311.76 370.94 310.93"/>
  <path class="cls-9" d="M379.24,304.34c.81,0,1.43.33,1.87.97.43.65.65,1.59.65,2.81s-.22,2.17-.65,2.81c-.44.64-1.06.96-1.88.96s-1.44-.32-1.87-.96c-.43-.64-.64-1.58-.64-2.81s.21-2.16.64-2.81c.43-.64,1.06-.97,1.88-.97ZM379.24,305.12c-.51,0-.89.25-1.15.75s-.38,1.25-.38,2.25.12,1.75.38,2.25.64.75,1.15.75.89-.25,1.15-.75c.25-.5.38-1.25.38-2.25s-.13-1.75-.38-2.25c-.26-.5-.64-.75-1.15-.75Z"/>
  <path class="cls-9" d="M384.98,302.83h.87v3.33h.73v.57h-.73v1.2h-.69v-1.2h-2.3v-.66l2.12-3.23ZM385.17,303.43l-1.74,2.72h1.74v-2.72Z"/>
  <g class="cls-76">
    <line class="cls-36" x1="30.2" y1="262.48" x2="387.32" y2="262.48"/>
  </g>
  <line class="cls-9" x1="30.2" y1="262.48" x2="26.7" y2="262.48"/>
  <line class="cls-38" x1="30.2" y1="262.48" x2="26.7" y2="262.48"/>
  <path class="cls-9" d="M9.12,264.87h3.44v.83h-4.63v-.83c.37-.38.88-.9,1.53-1.56.64-.65,1.05-1.07,1.22-1.26.32-.35.54-.65.66-.9.12-.24.19-.49.19-.73,0-.38-.14-.7-.41-.94-.27-.24-.62-.37-1.06-.37-.31,0-.64.06-.98.16-.34.11-.71.27-1.1.49v-1c.4-.16.77-.28,1.11-.36s.66-.12.95-.12c.75,0,1.35.19,1.8.57.45.38.68.88.68,1.51,0,.3-.06.59-.17.85-.11.27-.31.59-.61.95-.08.1-.34.37-.78.82s-1.05,1.08-1.84,1.89Z"/>
  <rect class="cls-9" x="14.63" y="264.46" width="1.03" height="1.24"/>
  <path class="cls-9" d="M18.16,264.87h3.44v.83h-4.63v-.83c.37-.38.88-.9,1.53-1.56.64-.65,1.05-1.07,1.22-1.26.32-.35.54-.65.66-.9.12-.24.19-.49.19-.73,0-.38-.14-.7-.41-.94-.27-.24-.62-.37-1.06-.37-.31,0-.64.06-.98.16-.34.11-.71.27-1.1.49v-1c.4-.16.77-.28,1.11-.36s.66-.12.95-.12c.75,0,1.35.19,1.8.57.45.38.68.88.68,1.51,0,.3-.06.59-.17.85-.11.27-.31.59-.61.95-.08.1-.34.37-.78.82s-1.05,1.08-1.84,1.89Z"/>
  <g class="cls-65">
    <line class="cls-36" x1="30.2" y1="239.33" x2="387.32" y2="239.33"/>
  </g>
  <line class="cls-9" x1="30.2" y1="239.33" x2="26.7" y2="239.33"/>
  <line class="cls-38" x1="30.2" y1="239.33" x2="26.7" y2="239.33"/>
  <path class="cls-9" d="M9.12,241.72h3.44v.83h-4.63v-.83c.37-.38.88-.9,1.53-1.56.64-.65,1.05-1.07,1.22-1.26.32-.35.54-.65.66-.9.12-.24.19-.49.19-.73,0-.38-.14-.7-.41-.94-.27-.24-.62-.37-1.06-.37-.31,0-.64.06-.98.16-.34.11-.71.27-1.1.49v-1c.4-.16.77-.28,1.11-.36.34-.08.66-.12.95-.12.75,0,1.35.19,1.8.57.45.38.68.88.68,1.51,0,.3-.06.59-.17.85-.11.27-.31.59-.61.95-.08.1-.34.37-.78.82-.44.45-1.05,1.08-1.84,1.89Z"/>
  <rect class="cls-9" x="14.63" y="241.31" width="1.03" height="1.24"/>
  <path class="cls-9" d="M20.26,235.26h1.24v4.75h1.04v.82h-1.04v1.72h-.98v-1.72h-3.29v-.95l3.03-4.62ZM20.52,236.12l-2.49,3.89h2.49v-3.89Z"/>
  <g class="cls-49">
    <line class="cls-36" x1="30.2" y1="216.18" x2="387.32" y2="216.18"/>
  </g>
  <line class="cls-9" x1="30.2" y1="216.18" x2="26.7" y2="216.18"/>
  <line class="cls-38" x1="30.2" y1="216.18" x2="26.7" y2="216.18"/>
  <path class="cls-9" d="M9.12,218.56h3.44v.83h-4.63v-.83c.37-.38.88-.9,1.53-1.56.64-.65,1.05-1.07,1.22-1.26.32-.35.54-.65.66-.9.12-.24.19-.49.19-.73,0-.38-.14-.7-.41-.94-.27-.24-.62-.37-1.06-.37-.31,0-.64.06-.98.16-.34.11-.71.27-1.1.49v-1c.4-.16.77-.28,1.11-.36.34-.08.66-.12.95-.12.75,0,1.35.19,1.8.57.45.38.68.88.68,1.51,0,.3-.06.59-.17.85-.11.27-.31.59-.61.95-.08.1-.34.37-.78.82-.44.45-1.05,1.08-1.84,1.89Z"/>
  <rect class="cls-9" x="14.63" y="218.15" width="1.03" height="1.24"/>
  <path class="cls-9" d="M22,212.26v.9c-.25-.12-.5-.21-.75-.27-.26-.06-.51-.09-.75-.09-.66,0-1.16.22-1.5.66s-.54,1.11-.58,1.99c.19-.28.43-.5.72-.65.29-.15.61-.23.96-.23.73,0,1.31.23,1.73.67s.64,1.05.64,1.81-.23,1.35-.67,1.8c-.44.45-1.03.67-1.76.67-.84,0-1.49-.32-1.93-.96-.45-.64-.67-1.58-.67-2.81,0-1.15.27-2.07.82-2.75.54-.68,1.28-1.03,2.2-1.03.24,0,.49.03.75.07.25.05.51.12.79.22ZM20.04,215.35c-.44,0-.79.16-1.05.46-.26.3-.39.72-.39,1.24s.13.95.39,1.25c.26.3.61.45,1.05.45s.79-.15,1.05-.45c.26-.3.39-.72.39-1.25s-.13-.94-.39-1.24c-.26-.3-.61-.46-1.05-.46Z"/>
  <g class="cls-2">
    <line class="cls-36" x1="30.2" y1="193.02" x2="387.32" y2="193.02"/>
  </g>
  <line class="cls-9" x1="30.2" y1="193.02" x2="26.7" y2="193.02"/>
  <line class="cls-38" x1="30.2" y1="193.02" x2="26.7" y2="193.02"/>
  <path class="cls-9" d="M9.12,195.41h3.44v.83h-4.63v-.83c.37-.38.88-.9,1.53-1.56.64-.65,1.05-1.07,1.22-1.26.32-.35.54-.65.66-.9.12-.24.19-.49.19-.73,0-.38-.14-.7-.41-.94-.27-.24-.62-.37-1.06-.37-.31,0-.64.06-.98.16-.34.11-.71.27-1.1.49v-1c.4-.16.77-.28,1.11-.36s.66-.12.95-.12c.75,0,1.35.19,1.8.57.45.38.68.88.68,1.51,0,.3-.06.59-.17.85-.11.27-.31.59-.61.95-.08.1-.34.37-.78.82s-1.05,1.08-1.84,1.89Z"/>
  <rect class="cls-9" x="14.63" y="195" width="1.03" height="1.24"/>
  <path class="cls-9" d="M18.32,190.8c0,.38.11.68.35.89.24.21.57.31,1,.31s.75-.1.99-.31c.24-.21.36-.51.36-.89s-.12-.67-.36-.88c-.24-.21-.57-.32-.99-.32s-.76.11-1,.32c-.24.21-.35.5-.35.88ZM18.68,192.36c-.42-.1-.75-.3-.99-.59-.24-.29-.35-.64-.35-1.06,0-.58.2-1.04.62-1.38.41-.34.98-.51,1.71-.51s1.29.17,1.71.51c.41.34.62.8.62,1.38,0,.42-.12.77-.36,1.06-.24.29-.56.49-.98.59.47.11.84.33,1.11.65.26.32.4.72.4,1.18,0,.71-.22,1.25-.65,1.62-.44.38-1.06.56-1.86.56s-1.42-.18-1.85-.56c-.43-.37-.64-.91-.64-1.62,0-.46.13-.86.4-1.18.26-.32.63-.54,1.11-.65ZM19.67,192.78c-.47,0-.84.13-1.11.38s-.4.59-.4,1.03.13.79.4,1.04.64.37,1.11.37.83-.12,1.1-.38c.27-.25.41-.59.41-1.03s-.14-.78-.4-1.03c-.27-.25-.64-.38-1.11-.38Z"/>
  <g class="cls-21">
    <line class="cls-36" x1="30.2" y1="169.87" x2="387.32" y2="169.87"/>
  </g>
  <line class="cls-9" x1="30.2" y1="169.87" x2="26.7" y2="169.87"/>
  <line class="cls-38" x1="30.2" y1="169.87" x2="26.7" y2="169.87"/>
  <path class="cls-9" d="M11.26,169.16c.47.1.84.31,1.1.63.26.32.4.72.4,1.18,0,.72-.25,1.28-.74,1.67-.5.39-1.2.58-2.11.58-.31,0-.63-.03-.95-.09-.32-.05-.66-.14-1-.26v-.95c.27.16.57.28.9.36.32.08.66.12,1.02.12.62,0,1.09-.12,1.41-.36.32-.24.49-.6.49-1.07,0-.42-.15-.76-.45-1-.3-.24-.72-.37-1.26-.37h-.85v-.81h.89c.48,0,.85-.09,1.11-.29.26-.19.39-.47.39-.84s-.14-.66-.4-.86c-.27-.2-.65-.3-1.14-.3-.27,0-.56.03-.87.09-.31.06-.65.15-1.02.27v-.88c.37-.1.72-.18,1.05-.23.32-.05.63-.08.93-.08.74,0,1.33.17,1.77.51s.66.8.66,1.38c0,.4-.12.74-.35,1.02-.23.28-.56.48-.98.58Z"/>
  <rect class="cls-9" x="14.63" y="171.85" width="1.03" height="1.24"/>
  <path class="cls-9" d="M19.92,165.67c.81,0,1.43.33,1.87.97.43.65.65,1.59.65,2.81s-.22,2.17-.65,2.81c-.44.64-1.06.96-1.88.96s-1.44-.32-1.87-.96c-.43-.64-.64-1.58-.64-2.81s.21-2.16.64-2.81c.43-.64,1.06-.97,1.88-.97ZM19.92,166.45c-.51,0-.89.25-1.15.75s-.38,1.25-.38,2.25.12,1.75.38,2.25.64.75,1.15.75.89-.25,1.15-.75c.25-.5.38-1.25.38-2.25s-.13-1.75-.38-2.25c-.26-.5-.64-.75-1.15-.75Z"/>
  <polygon class="cls-9" points="37.21 153.93 34.98 156.17 37.21 158.4 36.63 158.99 34.39 156.75 32.15 158.99 31.57 158.4 33.8 156.17 31.57 153.93 32.15 153.34 34.39 155.58 36.63 153.34 37.21 153.93"/>
  <polygon class="cls-9" points="39.82 158.47 41.43 158.47 41.43 152.91 39.68 153.26 39.68 152.36 41.42 152.01 42.41 152.01 42.41 158.47 44.02 158.47 44.02 159.3 39.82 159.3 39.82 158.47"/>
  <path class="cls-9" d="M48.12,151.88c.81,0,1.43.33,1.87.97.43.65.65,1.59.65,2.81s-.22,2.17-.65,2.81c-.44.64-1.06.96-1.88.96s-1.44-.32-1.87-.96-.64-1.58-.64-2.81.21-2.16.64-2.81c.43-.64,1.06-.97,1.88-.97ZM48.12,152.66c-.51,0-.89.25-1.15.75-.26.5-.38,1.25-.38,2.25s.12,1.75.38,2.25c.26.5.64.75,1.15.75s.89-.25,1.15-.75c.25-.5.38-1.25.38-2.25s-.13-1.75-.38-2.25c-.26-.5-.64-.75-1.15-.75Z"/>
  <path class="cls-9" d="M55.08,150.48v.63c-.17-.08-.35-.15-.52-.19-.18-.04-.36-.06-.53-.06-.46,0-.81.15-1.05.46s-.38.78-.41,1.39c.13-.2.3-.35.5-.46s.43-.16.67-.16c.51,0,.92.16,1.21.47s.45.74.45,1.27-.16.95-.47,1.26c-.31.32-.72.47-1.23.47-.59,0-1.04-.22-1.35-.67-.31-.45-.47-1.11-.47-1.97,0-.8.19-1.45.57-1.93.38-.48.9-.72,1.54-.72.17,0,.34.02.53.05.17.04.36.08.55.15ZM53.71,152.64c-.31,0-.55.11-.74.32-.18.21-.27.5-.27.87s.09.66.27.88.43.32.74.32.55-.1.74-.32c.18-.21.27-.5.27-.88s-.09-.66-.27-.87c-.18-.21-.43-.32-.74-.32Z"/>
  <g class="cls-15">
    <polyline class="cls-28" points="312.79 246.31 249.33 254.52 180.97 271.55 137.83 278.74 112.18 269.48 74.16 231.31 67.4 218.03 55.32 194.13 49.16 185.73 47.29 179.51"/>
    <g class="cls-58">
      <polygon class="cls-35" points="312.79 243.81 310.29 248.81 315.29 248.81 312.79 243.81"/>
    </g>
    <g class="cls-82">
      <polygon class="cls-35" points="249.33 252.02 246.83 257.02 251.83 257.02 249.33 252.02"/>
    </g>
    <g class="cls-57">
      <polygon class="cls-35" points="180.97 269.05 178.47 274.05 183.47 274.05 180.97 269.05"/>
    </g>
    <g class="cls-84">
      <polygon class="cls-35" points="137.83 276.24 135.33 281.24 140.33 281.24 137.83 276.24"/>
    </g>
    <g class="cls-55">
      <polygon class="cls-35" points="112.18 266.98 109.68 271.98 114.68 271.98 112.18 266.98"/>
    </g>
    <g class="cls-81">
      <polygon class="cls-35" points="74.16 228.81 71.66 233.81 76.66 233.81 74.16 228.81"/>
    </g>
    <g class="cls-63">
      <polygon class="cls-35" points="67.4 215.53 64.9 220.53 69.9 220.53 67.4 215.53"/>
    </g>
    <g class="cls-68">
      <polygon class="cls-35" points="55.32 191.63 52.82 196.63 57.82 196.63 55.32 191.63"/>
    </g>
    <g class="cls-80">
      <polygon class="cls-35" points="49.16 183.23 46.66 188.23 51.66 188.23 49.16 183.23"/>
    </g>
    <g class="cls-42">
      <polygon class="cls-35" points="47.29 177.01 44.79 182.01 49.79 182.01 47.29 177.01"/>
    </g>
  </g>
  <g class="cls-75">
    <polyline class="cls-31" points="273.43 200.95 203.51 241.41 165.78 263.58 124.04 264.08 107.49 244.35 95.44 224.54 78.28 208.94 66.18 198.79 59.36 191.18 53.5 182.92 48.73 174.17 46.43 168.77"/>
    <g class="cls-7">
      <rect class="cls-34" x="270.93" y="198.45" width="5" height="5"/>
    </g>
    <g class="cls-48">
      <rect class="cls-34" x="201.01" y="238.91" width="5" height="5"/>
    </g>
    <g class="cls-59">
      <rect class="cls-34" x="163.28" y="261.08" width="5" height="5"/>
    </g>
    <g class="cls-1">
      <rect class="cls-34" x="121.54" y="261.58" width="5" height="5"/>
    </g>
    <g class="cls-3">
      <rect class="cls-34" x="104.99" y="241.85" width="5" height="5"/>
    </g>
    <g class="cls-14">
      <rect class="cls-34" x="92.94" y="222.04" width="5" height="5"/>
    </g>
    <g class="cls-77">
      <rect class="cls-34" x="75.78" y="206.44" width="5" height="5"/>
    </g>
    <g class="cls-88">
      <rect class="cls-34" x="63.68" y="196.29" width="5" height="5"/>
    </g>
    <g class="cls-83">
      <rect class="cls-34" x="56.86" y="188.68" width="5" height="5"/>
    </g>
    <g class="cls-86">
      <rect class="cls-34" x="51" y="180.42" width="5" height="5"/>
    </g>
    <g class="cls-69">
      <rect class="cls-34" x="46.23" y="171.67" width="5" height="5"/>
    </g>
    <g class="cls-66">
      <rect class="cls-34" x="43.93" y="166.27" width="5" height="5"/>
    </g>
  </g>
  <line class="cls-33" x1="24.84" y1="165.09" x2="35.56" y2="161.46"/>
  <line class="cls-33" x1="381.96" y1="165.09" x2="392.68" y2="161.46"/>
  <line class="cls-32" x1="30.2" y1="284.23" x2="30.2" y2="163.27"/>
  <line class="cls-32" x1="387.32" y1="284.23" x2="387.32" y2="163.27"/>
  <line class="cls-32" x1="30.2" y1="284.23" x2="387.32" y2="284.23"/>
  <g>
    <rect class="cls-13" x="104.29" y="169.77" width="137.52" height="42.06" rx="2.6" ry="2.6"/>
    <rect class="cls-27" x="104.29" y="169.77" width="137.52" height="42.06" rx="2.6" ry="2.6"/>
  </g>
  <polyline class="cls-28" points="109.49 180.3 122.49 180.3 135.49 180.3"/>
  <polygon class="cls-35" points="122.49 177.8 119.99 182.8 124.99 182.8 122.49 177.8"/>
  <polygon class="cls-9" points="147.16 175.37 149.07 175.37 151.49 181.82 153.92 175.37 155.83 175.37 155.83 184.85 154.59 184.85 154.59 176.53 152.14 183.03 150.85 183.03 148.41 176.53 148.41 184.85 147.16 184.85 147.16 175.37"/>
  <polygon class="cls-9" points="160.83 184.85 157.21 175.37 158.55 175.37 161.55 183.35 164.56 175.37 165.9 175.37 162.28 184.85 160.83 184.85"/>
  <rect class="cls-9" x="167.27" y="175.37" width="1.29" height="9.48"/>
  <path class="cls-9" d="M171.11,175.37h2.9c1.05,0,1.86.25,2.4.73.55.48.82,1.18.82,2.11s-.27,1.65-.82,2.12c-.55.48-1.35.71-2.4.71h-1.61v3.81h-1.29v-9.48ZM172.4,176.42v3.56h1.61c.6,0,1.05-.14,1.38-.46.33-.31.49-.75.49-1.33s-.17-1-.49-1.31c-.32-.31-.78-.47-1.38-.47h-1.61Z"/>
  <path class="cls-9" d="M185.84,174.98c-.57.99-.99,1.95-1.26,2.9-.29.95-.42,1.91-.42,2.89s.13,1.95.42,2.9c.27.96.69,1.91,1.26,2.89h-1.01c-.64-1-1.12-1.96-1.43-2.93s-.47-1.91-.47-2.86.16-1.88.47-2.85.78-1.94,1.43-2.94h1.01Z"/>
  <polygon class="cls-9" points="187.42 177.74 188.59 177.74 190.05 183.29 191.51 177.74 192.88 177.74 194.34 183.29 195.8 177.74 196.97 177.74 195.11 184.85 193.73 184.85 192.19 179.02 190.66 184.85 189.28 184.85 187.42 177.74"/>
  <polygon class="cls-9" points="200.81 175.37 201.89 175.37 198.59 186.04 197.51 186.04 200.81 175.37"/>
  <rect class="cls-9" x="207.3" y="175.37" width="1.29" height="9.48"/>
  <path class="cls-9" d="M213.58,175.37h1.46l3.61,9.48h-1.34l-.86-2.43h-4.28l-.86,2.43h-1.35l3.61-9.48ZM214.31,176.63l-1.74,4.72h3.48l-1.74-4.72Z"/>
  <path class="cls-9" d="M219.79,174.98h1.01c.62,1,1.1,1.98,1.42,2.94.31.96.48,1.91.48,2.85s-.17,1.9-.48,2.86c-.31.96-.79,1.92-1.42,2.93h-1.01c.56-.98.98-1.92,1.26-2.89.27-.95.42-1.91.42-2.9s-.14-1.94-.42-2.89c-.29-.95-.7-1.91-1.26-2.9Z"/>
  <polyline class="cls-31" points="109.49 199.38 122.49 199.38 135.49 199.38"/>
  <rect class="cls-34" x="119.99" y="196.88" width="5" height="5"/>
  <path class="cls-9" d="M147.16,194.45h2.9c1.05,0,1.86.25,2.4.73.55.48.82,1.18.82,2.11s-.27,1.65-.82,2.12c-.55.48-1.35.72-2.4.72h-1.61v3.81h-1.29v-9.48ZM148.45,195.5v3.56h1.61c.6,0,1.05-.14,1.38-.46.33-.31.49-.75.49-1.33s-.17-1-.49-1.31c-.32-.31-.78-.47-1.38-.47h-1.61Z"/>
  <path class="cls-9" d="M156.62,194.45h1.46l3.61,9.48h-1.34l-.86-2.43h-4.28l-.86,2.43h-1.35l3.61-9.48ZM157.35,195.71l-1.74,4.72h3.48l-1.74-4.72Z"/>
  <rect class="cls-9" x="162.15" y="199.84" width="3.42" height="1.04"/>
  <polygon class="cls-9" points="167.48 194.45 168.76 194.45 168.76 202.85 173.38 202.85 173.38 203.93 167.48 203.93 167.48 194.45"/>
  <polygon class="cls-9" points="174.72 194.45 180.17 194.45 180.17 195.53 176.01 195.53 176.01 198.32 179.76 198.32 179.76 199.4 176.01 199.4 176.01 203.93 174.72 203.93 174.72 194.45"/>
  <path class="cls-9" d="M182.05,194.45h1.29v5.76c0,1.01.18,1.76.55,2.2.36.44.96.66,1.79.66s1.42-.22,1.78-.66c.36-.44.56-1.18.56-2.2v-5.76h1.29v5.92c0,1.25-.31,2.17-.92,2.79-.61.62-1.51.94-2.7.94s-2.11-.31-2.72-.94c-.61-.62-.91-1.55-.91-2.79v-5.92Z"/>
  <path class="cls-9" d="M198.6,194.06c-.57.99-.99,1.95-1.26,2.9-.29.95-.42,1.91-.42,2.89s.13,1.95.42,2.9c.27.96.69,1.91,1.26,2.89h-1.01c-.64-1-1.12-1.96-1.43-2.93s-.47-1.91-.47-2.86.16-1.89.47-2.85c.31-.96.78-1.94,1.43-2.94h1.01Z"/>
  <polygon class="cls-9" points="200.19 196.82 201.36 196.82 202.81 202.37 204.27 196.82 205.65 196.82 207.1 202.37 208.56 196.82 209.73 196.82 207.87 203.93 206.49 203.93 204.96 198.1 203.42 203.93 202.04 203.93 200.19 196.82"/>
  <polygon class="cls-9" points="213.57 194.45 214.65 194.45 211.35 205.12 210.27 205.12 213.57 194.45"/>
  <rect class="cls-9" x="220.06" y="194.45" width="1.29" height="9.48"/>
  <path class="cls-9" d="M226.34,194.45h1.46l3.61,9.48h-1.34l-.86-2.43h-4.28l-.86,2.43h-1.35l3.61-9.48ZM227.07,195.71l-1.74,4.72h3.48l-1.74-4.72Z"/>
  <path class="cls-9" d="M232.56,194.06h1.01c.62,1,1.1,1.98,1.42,2.94.31.96.48,1.91.48,2.85s-.17,1.9-.48,2.86c-.31.96-.79,1.92-1.42,2.93h-1.01c.56-.98.98-1.92,1.26-2.89.27-.95.42-1.91.42-2.9s-.14-1.94-.42-2.89c-.29-.95-.7-1.91-1.26-2.9Z"/>
</svg>