<?xml version="1.0" encoding="UTF-8"?>
<svg xmlns="http://www.w3.org/2000/svg" version="1.1" xmlns:xlink="http://www.w3.org/1999/xlink" viewBox="0 0 428.1 338.71">
  <defs>
    <style>
      .cls-1 {
        stroke: #ccc;
      }

      .cls-1, .cls-2, .cls-3, .cls-4, .cls-5, .cls-6, .cls-7, .cls-8 {
        fill: none;
      }

      .cls-1, .cls-2, .cls-7 {
        stroke-miterlimit: 10;
      }

      .cls-1, .cls-9 {
        opacity: .8;
      }

      .cls-10 {
        clip-path: url(#clippath-21);
      }

      .cls-11 {
        clip-path: url(#clippath-6);
      }

      .cls-12 {
        clip-path: url(#clippath-7);
      }

      .cls-13 {
        clip-path: url(#clippath-17);
      }

      .cls-2, .cls-3, .cls-6, .cls-7, .cls-8 {
        stroke: #000;
      }

      .cls-14 {
        clip-path: url(#clippath-31);
      }

      .cls-3, .cls-4, .cls-6, .cls-8 {
        stroke-linejoin: round;
      }

      .cls-3, .cls-6 {
        stroke-width: 1.5px;
      }

      .cls-3, .cls-7 {
        stroke-linecap: square;
      }

      .cls-15 {
        clip-path: url(#clippath-15);
      }

      .cls-16 {
        clip-path: url(#clippath-33);
      }

      .cls-17 {
        clip-path: url(#clippath-18);
      }

      .cls-18 {
        clip-path: url(#clippath-4);
      }

      .cls-19 {
        clip-path: url(#clippath-22);
      }

      .cls-20 {
        clip-path: url(#clippath-23);
      }

      .cls-4 {
        opacity: .5;
        stroke: #b0b0b0;
        stroke-dasharray: 2.96 1.28;
      }

      .cls-4, .cls-7, .cls-8 {
        stroke-width: .8px;
      }

      .cls-21 {
        clip-path: url(#clippath-9);
      }

      .cls-22 {
        clip-path: url(#clippath-10);
      }

      .cls-23, .cls-9 {
        fill: #fff;
      }

      .cls-24 {
        clip-path: url(#clippath-25);
      }

      .cls-25 {
        clip-path: url(#clippath-27);
      }

      .cls-26 {
        clip-path: url(#clippath-11);
      }

      .cls-27 {
        clip-path: url(#clippath-28);
      }

      .cls-28 {
        clip-path: url(#clippath-1);
      }

      .cls-29 {
        clip-path: url(#clippath-5);
      }

      .cls-30 {
        clip-path: url(#clippath-20);
      }

      .cls-6 {
        stroke-dasharray: 5.55 2.4;
      }

      .cls-31 {
        clip-path: url(#clippath-8);
      }

      .cls-32 {
        clip-path: url(#clippath-3);
      }

      .cls-33 {
        clip-path: url(#clippath-26);
      }

      .cls-34 {
        clip-path: url(#clippath-12);
      }

      .cls-35 {
        clip-path: url(#clippath-14);
      }

      .cls-36 {
        clip-path: url(#clippath-30);
      }

      .cls-37 {
        clip-path: url(#clippath-19);
      }

      .cls-38 {
        clip-path: url(#clippath-32);
      }

      .cls-39 {
        clip-path: url(#clippath-16);
      }

      .cls-40 {
        clip-path: url(#clippath-2);
      }

      .cls-41 {
        clip-path: url(#clippath-29);
      }

      .cls-42 {
        clip-path: url(#clippath-13);
      }

      .cls-43 {
        clip-path: url(#clippath-24);
      }

      .cls-44 {
        clip-path: url(#clippath);
      }
    </style>
    <clipPath id="clippath">
      <rect class="cls-5" x="48.72" y="19.12" width="372.19" height="277.2"/>
    </clipPath>
    <clipPath id="clippath-1">
      <rect class="cls-5" x="48.72" y="19.12" width="372.19" height="277.2"/>
    </clipPath>
    <clipPath id="clippath-2">
      <rect class="cls-5" x="48.72" y="19.12" width="372.19" height="277.2"/>
    </clipPath>
    <clipPath id="clippath-3">
      <rect class="cls-5" x="48.72" y="19.12" width="372.19" height="277.2"/>
    </clipPath>
    <clipPath id="clippath-4">
      <rect class="cls-5" x="48.72" y="19.12" width="372.19" height="277.2"/>
    </clipPath>
    <clipPath id="clippath-5">
      <rect class="cls-5" x="48.72" y="19.12" width="372.19" height="277.2"/>
    </clipPath>
    <clipPath id="clippath-6">
      <rect class="cls-5" x="48.72" y="19.12" width="372.19" height="277.2"/>
    </clipPath>
    <clipPath id="clippath-7">
      <rect class="cls-5" x="48.72" y="19.12" width="372.19" height="277.2"/>
    </clipPath>
    <clipPath id="clippath-8">
      <rect class="cls-5" x="48.72" y="19.12" width="372.19" height="277.2"/>
    </clipPath>
    <clipPath id="clippath-9">
      <rect class="cls-5" x="48.72" y="19.12" width="372.19" height="277.2"/>
    </clipPath>
    <clipPath id="clippath-10">
      <rect class="cls-5" x="48.72" y="19.12" width="372.19" height="277.2"/>
    </clipPath>
    <clipPath id="clippath-11">
      <rect class="cls-5" x="48.72" y="19.12" width="372.19" height="277.2"/>
    </clipPath>
    <clipPath id="clippath-12">
      <rect class="cls-5" x="48.72" y="19.12" width="372.19" height="277.2"/>
    </clipPath>
    <clipPath id="clippath-13">
      <rect class="cls-5" x="48.72" y="19.12" width="372.19" height="277.2"/>
    </clipPath>
    <clipPath id="clippath-14">
      <rect class="cls-5" x="48.72" y="19.12" width="372.19" height="277.2"/>
    </clipPath>
    <clipPath id="clippath-15">
      <rect class="cls-5" x="57.63" y="275.72" width="16" height="16"/>
    </clipPath>
    <clipPath id="clippath-16">
      <rect class="cls-5" x="99.93" y="257.73" width="16" height="16"/>
    </clipPath>
    <clipPath id="clippath-17">
      <rect class="cls-5" x="142.22" y="235.94" width="16" height="16"/>
    </clipPath>
    <clipPath id="clippath-18">
      <rect class="cls-5" x="184.51" y="212.62" width="16" height="16"/>
    </clipPath>
    <clipPath id="clippath-19">
      <rect class="cls-5" x="226.81" y="188.12" width="16" height="16"/>
    </clipPath>
    <clipPath id="clippath-20">
      <rect class="cls-5" x="269.1" y="161.76" width="16" height="16"/>
    </clipPath>
    <clipPath id="clippath-21">
      <rect class="cls-5" x="311.4" y="135.43" width="16" height="16"/>
    </clipPath>
    <clipPath id="clippath-22">
      <rect class="cls-5" x="353.69" y="107.89" width="16" height="16"/>
    </clipPath>
    <clipPath id="clippath-23">
      <rect class="cls-5" x="395.98" y="78.93" width="16" height="16"/>
    </clipPath>
    <clipPath id="clippath-24">
      <rect class="cls-5" x="48.72" y="19.12" width="372.19" height="277.2"/>
    </clipPath>
    <clipPath id="clippath-25">
      <rect class="cls-5" x="57.63" y="261.76" width="16" height="16"/>
    </clipPath>
    <clipPath id="clippath-26">
      <rect class="cls-5" x="99.93" y="238.7" width="16" height="16"/>
    </clipPath>
    <clipPath id="clippath-27">
      <rect class="cls-5" x="142.22" y="211.6" width="16" height="16"/>
    </clipPath>
    <clipPath id="clippath-28">
      <rect class="cls-5" x="184.51" y="182.53" width="16" height="16"/>
    </clipPath>
    <clipPath id="clippath-29">
      <rect class="cls-5" x="226.81" y="153.05" width="16" height="16"/>
    </clipPath>
    <clipPath id="clippath-30">
      <rect class="cls-5" x="269.1" y="120.99" width="16" height="16"/>
    </clipPath>
    <clipPath id="clippath-31">
      <rect class="cls-5" x="311.4" y="89.85" width="16" height="16"/>
    </clipPath>
    <clipPath id="clippath-32">
      <rect class="cls-5" x="353.69" y="56.69" width="16" height="16"/>
    </clipPath>
    <clipPath id="clippath-33">
      <rect class="cls-5" x="395.98" y="23.72" width="16" height="16"/>
    </clipPath>
  </defs>
  <!-- Generator: Adobe Illustrator 28.6.0, SVG Export Plug-In . SVG Version: 1.2.0 Build 709)  -->
  <g>
    <g id="Layer_1">
      <rect class="cls-23" width="428.1" height="338.71"/>
      <rect class="cls-23" x="48.72" y="19.12" width="372.19" height="277.2"/>
      <g class="cls-44">
        <line class="cls-4" x1="65.63" y1="296.32" x2="65.63" y2="19.12"/>
      </g>
      <line x1="65.63" y1="296.32" x2="65.63" y2="299.82"/>
      <line class="cls-8" x1="65.63" y1="296.32" x2="65.63" y2="299.82"/>
      <polygon points="55.74 310.09 57.35 310.09 57.35 304.53 55.6 304.88 55.6 303.98 57.34 303.63 58.33 303.63 58.33 310.09 59.94 310.09 59.94 310.92 55.74 310.92 55.74 310.09"/>
      <path d="M64.04,303.5c.81,0,1.43.33,1.87.97.43.65.65,1.59.65,2.81s-.22,2.17-.65,2.81c-.44.64-1.06.96-1.88.96s-1.44-.32-1.87-.96-.64-1.58-.64-2.81.21-2.16.64-2.81c.43-.64,1.06-.97,1.88-.97ZM64.04,304.28c-.51,0-.89.25-1.15.75-.26.5-.38,1.25-.38,2.25s.12,1.75.38,2.25c.26.5.64.75,1.15.75s.89-.25,1.15-.75c.25-.5.38-1.25.38-2.25s-.13-1.75-.38-2.25c-.26-.5-.64-.75-1.15-.75Z"/>
      <rect x="68.29" y="309.68" width="1.03" height="1.24"/>
      <path d="M73.58,303.5c.81,0,1.43.33,1.87.97.43.65.65,1.59.65,2.81s-.22,2.17-.65,2.81c-.44.64-1.06.96-1.88.96s-1.44-.32-1.87-.96-.64-1.58-.64-2.81.21-2.16.64-2.81c.43-.64,1.06-.97,1.88-.97ZM73.58,304.28c-.51,0-.89.25-1.15.75s-.38,1.25-.38,2.25.12,1.75.38,2.25.64.75,1.15.75.89-.25,1.15-.75c.25-.5.38-1.25.38-2.25s-.13-1.75-.38-2.25c-.26-.5-.64-.75-1.15-.75Z"/>
      <g class="cls-28">
        <line class="cls-4" x1="107.93" y1="296.32" x2="107.93" y2="19.12"/>
      </g>
      <line x1="107.93" y1="296.32" x2="107.93" y2="299.82"/>
      <line class="cls-8" x1="107.93" y1="296.32" x2="107.93" y2="299.82"/>
      <polygon points="98.03 310.09 99.64 310.09 99.64 304.53 97.89 304.88 97.89 303.98 99.63 303.63 100.62 303.63 100.62 310.09 102.23 310.09 102.23 310.92 98.03 310.92 98.03 310.09"/>
      <path d="M105.07,310.09h3.44v.83h-4.63v-.83c.37-.38.88-.9,1.53-1.56.64-.65,1.05-1.07,1.22-1.26.32-.35.54-.65.66-.9.12-.24.19-.49.19-.73,0-.38-.14-.7-.41-.94-.27-.24-.62-.37-1.06-.37-.31,0-.64.06-.98.16-.34.11-.71.27-1.1.49v-1c.4-.16.77-.28,1.11-.36.34-.08.66-.12.95-.12.75,0,1.35.19,1.8.57.45.38.68.88.68,1.51,0,.3-.06.59-.17.85-.11.27-.31.59-.61.95-.08.1-.34.37-.78.82-.44.45-1.05,1.08-1.84,1.89Z"/>
      <rect x="110.58" y="309.68" width="1.03" height="1.24"/>
      <path d="M113.77,303.63h3.87v.83h-2.97v1.79c.14-.05.29-.09.43-.11.14-.02.29-.04.43-.04.81,0,1.45.23,1.93.67.48.45.72,1.05.72,1.81s-.25,1.4-.74,1.83-1.18.64-2.06.64c-.31,0-.62-.03-.94-.07-.32-.05-.64-.12-.98-.23v-.99c.29.16.59.28.91.36.31.08.64.11.99.11.56,0,1.01-.14,1.34-.44.32-.3.49-.7.49-1.21s-.17-.9-.49-1.2c-.33-.3-.78-.45-1.34-.45-.26,0-.53.03-.79.09-.26.06-.53.15-.8.27v-3.66Z"/>
      <g class="cls-40">
        <line class="cls-4" x1="150.22" y1="296.32" x2="150.22" y2="19.12"/>
      </g>
      <line x1="150.22" y1="296.32" x2="150.22" y2="299.82"/>
      <line class="cls-8" x1="150.22" y1="296.32" x2="150.22" y2="299.82"/>
      <polygon points="140.33 310.09 141.94 310.09 141.94 304.53 140.19 304.88 140.19 303.98 141.93 303.63 142.92 303.63 142.92 310.09 144.53 310.09 144.53 310.92 140.33 310.92 140.33 310.09"/>
      <path d="M146.53,303.63h3.87v.83h-2.97v1.79c.14-.05.29-.09.43-.11s.29-.04.43-.04c.81,0,1.45.23,1.93.67.48.45.72,1.05.72,1.81s-.25,1.4-.74,1.83-1.18.64-2.06.64c-.31,0-.62-.03-.94-.07-.32-.05-.64-.12-.98-.23v-.99c.29.16.59.28.91.36.31.08.64.11.99.11.56,0,1.01-.14,1.34-.44.32-.3.49-.7.49-1.21s-.17-.9-.49-1.2c-.33-.3-.78-.45-1.34-.45-.26,0-.53.03-.79.09-.26.06-.53.15-.8.27v-3.66Z"/>
      <rect x="152.88" y="309.68" width="1.03" height="1.24"/>
      <path d="M158.17,303.5c.81,0,1.43.33,1.87.97.43.65.65,1.59.65,2.81s-.22,2.17-.65,2.81c-.44.64-1.06.96-1.88.96s-1.44-.32-1.87-.96c-.43-.64-.64-1.58-.64-2.81s.21-2.16.64-2.81c.43-.64,1.06-.97,1.88-.97ZM158.17,304.28c-.51,0-.89.25-1.15.75s-.38,1.25-.38,2.25.12,1.75.38,2.25.64.75,1.15.75.89-.25,1.15-.75c.25-.5.38-1.25.38-2.25s-.13-1.75-.38-2.25c-.26-.5-.64-.75-1.15-.75Z"/>
      <g class="cls-32">
        <line class="cls-4" x1="192.51" y1="296.32" x2="192.51" y2="19.12"/>
      </g>
      <line x1="192.51" y1="296.32" x2="192.51" y2="299.82"/>
      <line class="cls-8" x1="192.51" y1="296.32" x2="192.51" y2="299.82"/>
      <polygon points="182.62 310.09 184.23 310.09 184.23 304.53 182.48 304.88 182.48 303.98 184.22 303.63 185.21 303.63 185.21 310.09 186.82 310.09 186.82 310.92 182.62 310.92 182.62 310.09"/>
      <polygon points="188.56 303.63 193.25 303.63 193.25 304.05 190.6 310.92 189.57 310.92 192.06 304.46 188.56 304.46 188.56 303.63"/>
      <rect x="195.17" y="309.68" width="1.03" height="1.24"/>
      <path d="M198.36,303.63h3.87v.83h-2.97v1.79c.14-.05.29-.09.43-.11s.29-.04.43-.04c.81,0,1.45.23,1.93.67.48.45.72,1.05.72,1.81s-.25,1.4-.74,1.83-1.18.64-2.06.64c-.31,0-.62-.03-.94-.07-.32-.05-.64-.12-.98-.23v-.99c.29.16.59.28.91.36.31.08.64.11.99.11.56,0,1.01-.14,1.34-.44.32-.3.49-.7.49-1.21s-.17-.9-.49-1.2c-.33-.3-.78-.45-1.34-.45-.26,0-.53.03-.79.09-.26.06-.53.15-.8.27v-3.66Z"/>
      <g class="cls-18">
        <line class="cls-4" x1="234.81" y1="296.32" x2="234.81" y2="19.12"/>
      </g>
      <line x1="234.81" y1="296.32" x2="234.81" y2="299.82"/>
      <line class="cls-8" x1="234.81" y1="296.32" x2="234.81" y2="299.82"/>
      <path d="M225.6,310.09h3.44v.83h-4.63v-.83c.37-.38.88-.9,1.53-1.56.64-.65,1.05-1.07,1.22-1.26.32-.35.54-.65.66-.9.12-.24.19-.49.19-.73,0-.38-.14-.7-.41-.94-.27-.24-.62-.37-1.06-.37-.31,0-.64.06-.98.16-.34.11-.71.27-1.1.49v-1c.4-.16.77-.28,1.11-.36.34-.08.66-.12.95-.12.75,0,1.35.19,1.8.57.45.38.68.88.68,1.51,0,.3-.06.59-.17.85-.11.27-.31.59-.61.95-.08.1-.34.37-.78.82-.44.45-1.05,1.08-1.84,1.89Z"/>
      <path d="M233.22,303.5c.81,0,1.43.33,1.87.97.43.65.65,1.59.65,2.81s-.22,2.17-.65,2.81c-.44.64-1.06.96-1.88.96s-1.44-.32-1.87-.96c-.43-.64-.64-1.58-.64-2.81s.21-2.16.64-2.81c.43-.64,1.06-.97,1.88-.97ZM233.22,304.28c-.51,0-.89.25-1.15.75s-.38,1.25-.38,2.25.12,1.75.38,2.25.64.75,1.15.75.89-.25,1.15-.75c.25-.5.38-1.25.38-2.25s-.13-1.75-.38-2.25c-.26-.5-.64-.75-1.15-.75Z"/>
      <rect x="237.47" y="309.68" width="1.03" height="1.24"/>
      <path d="M242.76,303.5c.81,0,1.43.33,1.87.97.43.65.65,1.59.65,2.81s-.22,2.17-.65,2.81c-.44.64-1.06.96-1.88.96s-1.44-.32-1.87-.96c-.43-.64-.64-1.58-.64-2.81s.21-2.16.64-2.81c.43-.64,1.06-.97,1.88-.97ZM242.76,304.28c-.51,0-.89.25-1.15.75s-.38,1.25-.38,2.25.12,1.75.38,2.25.64.75,1.15.75.89-.25,1.15-.75c.25-.5.38-1.25.38-2.25s-.13-1.75-.38-2.25c-.26-.5-.64-.75-1.15-.75Z"/>
      <g class="cls-29">
        <line class="cls-4" x1="277.1" y1="296.32" x2="277.1" y2="19.12"/>
      </g>
      <line x1="277.1" y1="296.32" x2="277.1" y2="299.82"/>
      <line class="cls-8" x1="277.1" y1="296.32" x2="277.1" y2="299.82"/>
      <path d="M267.89,310.09h3.44v.83h-4.63v-.83c.37-.38.88-.9,1.53-1.56.64-.65,1.05-1.07,1.22-1.26.32-.35.54-.65.66-.9.12-.24.19-.49.19-.73,0-.38-.14-.7-.41-.94-.27-.24-.62-.37-1.06-.37-.31,0-.64.06-.98.16-.34.11-.71.27-1.1.49v-1c.4-.16.77-.28,1.11-.36.34-.08.66-.12.95-.12.75,0,1.35.19,1.8.57.45.38.68.88.68,1.51,0,.3-.06.59-.17.85-.11.27-.31.59-.61.95-.08.1-.34.37-.78.82-.44.45-1.05,1.08-1.84,1.89Z"/>
      <path d="M274.25,310.09h3.44v.83h-4.63v-.83c.37-.38.88-.9,1.53-1.56.64-.65,1.05-1.07,1.22-1.26.32-.35.54-.65.66-.9.12-.24.19-.49.19-.73,0-.38-.14-.7-.41-.94-.27-.24-.62-.37-1.06-.37-.31,0-.64.06-.98.16-.34.11-.71.27-1.1.49v-1c.4-.16.77-.28,1.11-.36.34-.08.66-.12.95-.12.75,0,1.35.19,1.8.57.45.38.68.88.68,1.51,0,.3-.06.59-.17.85-.11.27-.31.59-.61.95-.08.1-.34.37-.78.82-.44.45-1.05,1.08-1.84,1.89Z"/>
      <rect x="279.76" y="309.68" width="1.03" height="1.24"/>
      <path d="M282.95,303.63h3.87v.83h-2.97v1.79c.14-.05.29-.09.43-.11.14-.02.29-.04.43-.04.81,0,1.45.23,1.93.67.48.45.72,1.05.72,1.81s-.25,1.4-.74,1.83-1.18.64-2.06.64c-.31,0-.62-.03-.94-.07-.32-.05-.64-.12-.98-.23v-.99c.29.16.59.28.91.36.31.08.64.11.99.11.56,0,1.01-.14,1.34-.44.32-.3.49-.7.49-1.21s-.17-.9-.49-1.2c-.33-.3-.78-.45-1.34-.45-.26,0-.53.03-.79.09-.26.06-.53.15-.8.27v-3.66Z"/>
      <g class="cls-11">
        <line class="cls-4" x1="319.4" y1="296.32" x2="319.4" y2="19.12"/>
      </g>
      <line x1="319.4" y1="296.32" x2="319.4" y2="299.82"/>
      <line class="cls-8" x1="319.4" y1="296.32" x2="319.4" y2="299.82"/>
      <path d="M310.18,310.09h3.44v.83h-4.63v-.83c.37-.38.88-.9,1.53-1.56.64-.65,1.05-1.07,1.22-1.26.32-.35.54-.65.66-.9.12-.24.19-.49.19-.73,0-.38-.14-.7-.41-.94-.27-.24-.62-.37-1.06-.37-.31,0-.64.06-.98.16-.34.11-.71.27-1.1.49v-1c.4-.16.77-.28,1.11-.36.34-.08.66-.12.95-.12.75,0,1.35.19,1.8.57.45.38.68.88.68,1.51,0,.3-.06.59-.17.85-.11.27-.31.59-.61.95-.08.1-.34.37-.78.82-.44.45-1.05,1.08-1.84,1.89Z"/>
      <path d="M315.7,303.63h3.87v.83h-2.97v1.79c.14-.05.29-.09.43-.11.14-.02.29-.04.43-.04.81,0,1.45.23,1.93.67.48.45.72,1.05.72,1.81s-.25,1.4-.74,1.83-1.18.64-2.06.64c-.31,0-.62-.03-.94-.07-.32-.05-.64-.12-.98-.23v-.99c.29.16.59.28.91.36.31.08.64.11.99.11.56,0,1.01-.14,1.34-.44.32-.3.49-.7.49-1.21s-.17-.9-.49-1.2c-.33-.3-.78-.45-1.34-.45-.26,0-.53.03-.79.09-.26.06-.53.15-.8.27v-3.66Z"/>
      <rect x="322.05" y="309.68" width="1.03" height="1.24"/>
      <path d="M327.34,303.5c.81,0,1.43.33,1.87.97.43.65.65,1.59.65,2.81s-.22,2.17-.65,2.81c-.44.64-1.06.96-1.88.96s-1.44-.32-1.87-.96c-.43-.64-.64-1.58-.64-2.81s.21-2.16.64-2.81c.43-.64,1.06-.97,1.88-.97ZM327.34,304.28c-.51,0-.89.25-1.15.75s-.38,1.25-.38,2.25.12,1.75.38,2.25.64.75,1.15.75.89-.25,1.15-.75c.25-.5.38-1.25.38-2.25s-.13-1.75-.38-2.25c-.26-.5-.64-.75-1.15-.75Z"/>
      <g class="cls-12">
        <line class="cls-4" x1="361.69" y1="296.32" x2="361.69" y2="19.12"/>
      </g>
      <line x1="361.69" y1="296.32" x2="361.69" y2="299.82"/>
      <line class="cls-8" x1="361.69" y1="296.32" x2="361.69" y2="299.82"/>
      <path d="M352.48,310.09h3.44v.83h-4.63v-.83c.37-.38.88-.9,1.53-1.56.64-.65,1.05-1.07,1.22-1.26.32-.35.54-.65.66-.9.12-.24.19-.49.19-.73,0-.38-.14-.7-.41-.94-.27-.24-.62-.37-1.06-.37-.31,0-.64.06-.98.16-.34.11-.71.27-1.1.49v-1c.4-.16.77-.28,1.11-.36.34-.08.66-.12.95-.12.75,0,1.35.19,1.8.57.45.38.68.88.68,1.51,0,.3-.06.59-.17.85-.11.27-.31.59-.61.95-.08.1-.34.37-.78.82-.44.45-1.05,1.08-1.84,1.89Z"/>
      <polygon points="357.74 303.63 362.43 303.63 362.43 304.05 359.78 310.92 358.75 310.92 361.24 304.46 357.74 304.46 357.74 303.63"/>
      <rect x="364.35" y="309.68" width="1.03" height="1.24"/>
      <path d="M367.54,303.63h3.87v.83h-2.97v1.79c.14-.05.29-.09.43-.11.14-.02.29-.04.43-.04.81,0,1.45.23,1.93.67.48.45.72,1.05.72,1.81s-.25,1.4-.74,1.83-1.18.64-2.06.64c-.31,0-.62-.03-.94-.07-.32-.05-.64-.12-.98-.23v-.99c.29.16.59.28.91.36.31.08.64.11.99.11.56,0,1.01-.14,1.34-.44.32-.3.49-.7.49-1.21s-.17-.9-.49-1.2c-.33-.3-.78-.45-1.34-.45-.26,0-.53.03-.79.09-.26.06-.53.15-.8.27v-3.66Z"/>
      <g class="cls-31">
        <line class="cls-4" x1="403.98" y1="296.32" x2="403.98" y2="19.12"/>
      </g>
      <line x1="403.98" y1="296.32" x2="403.98" y2="299.82"/>
      <line class="cls-8" x1="403.98" y1="296.32" x2="403.98" y2="299.82"/>
      <path d="M396.91,306.99c.47.1.84.31,1.1.63.26.32.4.72.4,1.18,0,.72-.25,1.28-.74,1.67-.5.39-1.2.58-2.11.58-.31,0-.63-.03-.95-.09-.32-.05-.66-.14-1-.26v-.95c.27.16.57.28.9.36.32.08.66.12,1.02.12.62,0,1.09-.12,1.41-.36.32-.24.49-.6.49-1.07,0-.42-.15-.76-.45-1-.3-.24-.72-.37-1.26-.37h-.85v-.81h.89c.48,0,.85-.09,1.11-.29.26-.19.39-.47.39-.84s-.14-.66-.4-.86c-.27-.2-.65-.3-1.14-.3-.27,0-.56.03-.87.09s-.65.15-1.02.27v-.88c.37-.1.72-.18,1.05-.23.32-.05.63-.08.93-.08.74,0,1.33.17,1.77.51s.66.8.66,1.38c0,.4-.12.74-.35,1.02-.23.28-.56.48-.98.58Z"/>
      <path d="M402.39,303.5c.81,0,1.43.33,1.87.97.43.65.65,1.59.65,2.81s-.22,2.17-.65,2.81c-.44.64-1.06.96-1.88.96s-1.44-.32-1.87-.96c-.43-.64-.64-1.58-.64-2.81s.21-2.16.64-2.81c.43-.64,1.06-.97,1.88-.97ZM402.39,304.28c-.51,0-.89.25-1.15.75s-.38,1.25-.38,2.25.12,1.75.38,2.25.64.75,1.15.75.89-.25,1.15-.75c.25-.5.38-1.25.38-2.25s-.13-1.75-.38-2.25c-.26-.5-.64-.75-1.15-.75Z"/>
      <rect x="406.64" y="309.68" width="1.03" height="1.24"/>
      <path d="M411.93,303.5c.81,0,1.43.33,1.87.97.43.65.65,1.59.65,2.81s-.22,2.17-.65,2.81c-.44.64-1.06.96-1.88.96s-1.44-.32-1.87-.96c-.43-.64-.64-1.58-.64-2.81s.21-2.16.64-2.81c.43-.64,1.06-.97,1.88-.97ZM411.93,304.28c-.51,0-.89.25-1.15.75s-.38,1.25-.38,2.25.12,1.75.38,2.25.64.75,1.15.75.89-.25,1.15-.75c.25-.5.38-1.25.38-2.25s-.13-1.75-.38-2.25c-.26-.5-.64-.75-1.15-.75Z"/>
      <path d="M115.59,318.66v3.89h1.86c.71,0,1.24-.17,1.6-.5s.56-.81.56-1.45-.19-1.11-.56-1.44c-.36-.33-.9-.5-1.6-.5h-1.86ZM119.3,323.25c.31.12.63.34.93.69.3.36.6.84.9,1.45l1.5,2.98h-1.59l-1.4-2.81c-.36-.72-.72-1.21-1.05-1.45-.35-.24-.81-.36-1.4-.36h-1.6v4.62h-1.49v-10.94h3.35c1.24,0,2.17.27,2.79.78.61.52.93,1.32.93,2.37,0,.69-.17,1.28-.48,1.73-.33.45-.79.77-1.39.93Z"/>
      <path d="M129.47,323.55c-.01-.73-.23-1.32-.62-1.77-.4-.44-.94-.66-1.6-.66-.75,0-1.35.22-1.8.64-.45.42-.72,1.02-.78,1.78h4.8ZM130.82,323.94v.66h-6.19c.06.93.33,1.65.84,2.13.5.48,1.19.72,2.09.72.51,0,1.02-.06,1.5-.18.48-.12.97-.32,1.46-.59v1.27c-.48.21-.98.38-1.49.47-.51.09-1.04.15-1.55.15-1.32,0-2.35-.38-3.12-1.12-.76-.75-1.14-1.78-1.14-3.09s.36-2.4,1.08-3.2c.72-.78,1.71-1.18,2.94-1.18,1.11,0,1.98.36,2.62,1.07.63.72.96,1.68.96,2.9Z"/>
      <path d="M138.43,327.15c-.29.5-.65.86-1.08,1.08-.43.22-.94.34-1.54.34-.99,0-1.8-.39-2.43-1.17-.63-.78-.93-1.83-.93-3.12s.3-2.32.93-3.12c.63-.78,1.44-1.18,2.43-1.18.6,0,1.11.12,1.54.36s.79.6,1.08,1.08v-1.24h1.35v11.31h-1.35v-4.34ZM133.84,324.29c0,.99.19,1.77.6,2.34.4.57.96.84,1.68.84s1.27-.27,1.7-.84c.4-.57.61-1.35.61-2.34s-.21-1.75-.61-2.32c-.42-.57-.98-.86-1.7-.86s-1.27.28-1.68.86c-.41.57-.6,1.33-.6,2.32Z"/>
      <path d="M145.8,319.98h0ZM142.41,325.14v-4.96h1.35v4.92c0,.78.15,1.35.45,1.74s.75.59,1.37.59c.72,0,1.3-.23,1.72-.69.42-.46.63-1.09.63-1.9v-4.65h1.35v8.2h-1.35v-1.26c-.33.51-.72.87-1.14,1.11-.43.22-.93.34-1.5.34-.94,0-1.66-.28-2.15-.87-.49-.57-.74-1.43-.74-2.57Z"/>
      <path d="M157.73,323.55c-.01-.73-.23-1.32-.62-1.77-.4-.44-.94-.66-1.6-.66-.75,0-1.35.22-1.8.64s-.72,1.02-.78,1.78h4.8ZM159.08,323.94v.66h-6.19c.06.93.33,1.65.84,2.13.5.48,1.18.72,2.09.72.51,0,1.02-.06,1.5-.18.48-.12.97-.32,1.46-.59v1.27c-.48.21-.98.38-1.49.47-.51.09-1.04.15-1.54.15-1.32,0-2.36-.38-3.12-1.12s-1.14-1.78-1.14-3.09.36-2.4,1.08-3.2c.72-.78,1.71-1.18,2.94-1.18,1.11,0,1.98.36,2.62,1.07.63.72.96,1.68.96,2.9Z"/>
      <path d="M166.52,320.42v1.28c-.39-.18-.78-.33-1.18-.44-.42-.09-.84-.15-1.28-.15-.68,0-1.18.11-1.51.32s-.49.51-.49.92c0,.31.12.55.36.73.24.18.72.36,1.44.51l.46.1c.96.21,1.63.51,2.04.87.39.38.6.9.6,1.56,0,.77-.3,1.37-.9,1.8-.6.45-1.44.66-2.49.66-.45,0-.9-.05-1.38-.12s-.97-.19-1.5-.38v-1.39c.49.27.99.46,1.47.59.48.13.96.19,1.44.19.63,0,1.12-.1,1.47-.32.33-.21.51-.52.51-.93,0-.36-.13-.65-.38-.84-.24-.2-.78-.39-1.62-.57l-.46-.1c-.84-.18-1.46-.45-1.82-.81-.38-.36-.56-.86-.56-1.5,0-.77.27-1.36.81-1.79.54-.42,1.32-.63,2.34-.63.49,0,.96.05,1.41.12.43.08.84.18,1.21.31Z"/>
      <path d="M170.44,317.85v2.33h2.78v1.05h-2.78v4.45c0,.67.09,1.11.27,1.29.18.19.56.28,1.12.28h1.38v1.12h-1.38c-1.05,0-1.77-.19-2.16-.59s-.58-1.1-.58-2.11v-4.45h-.99v-1.05h.99v-2.33h1.35Z"/>
      <path d="M184.5,321.44c-.15-.09-.31-.15-.49-.19-.18-.03-.38-.06-.58-.06-.76,0-1.35.25-1.76.75-.42.49-.62,1.2-.62,2.13v4.32h-1.35v-8.2h1.35v1.27c.27-.49.65-.87,1.1-1.11s1.01-.36,1.67-.36c.09,0,.19.02.31.02.11.01.23.03.38.06v1.38Z"/>
      <path d="M192.33,323.7v4.68h-1.35v-1.24c-.32.51-.71.87-1.15,1.1-.45.22-1.02.34-1.68.34-.84,0-1.51-.22-2.01-.69-.49-.47-.74-1.1-.74-1.89,0-.91.3-1.61.93-2.09.62-.47,1.53-.7,2.76-.7h1.89v-.14c0-.61-.21-1.09-.61-1.44-.4-.33-.98-.51-1.71-.51-.48,0-.93.06-1.38.18-.45.12-.87.29-1.27.5v-1.25c.48-.18.96-.33,1.43-.42s.91-.15,1.36-.15c1.19,0,2.07.32,2.66.93.58.61.88,1.55.88,2.79ZM189.65,324.26c-1.1,0-1.85.13-2.26.38-.42.26-.63.68-.63,1.27,0,.48.15.87.46,1.14.32.28.75.42,1.29.42.75,0,1.35-.26,1.8-.8.45-.52.68-1.23.68-2.11v-.3h-1.33Z"/>
      <path d="M196.44,317.85v2.33h2.78v1.05h-2.78v4.45c0,.67.09,1.11.27,1.29.18.19.56.28,1.12.28h1.38v1.12h-1.38c-1.05,0-1.77-.19-2.16-.59s-.58-1.1-.58-2.11v-4.45h-.99v-1.05h.99v-2.33h1.35Z"/>
      <path d="M206.66,323.55c-.01-.73-.23-1.32-.62-1.77-.4-.44-.94-.66-1.6-.66-.75,0-1.35.22-1.8.64s-.72,1.02-.78,1.78h4.8ZM208.01,323.94v.66h-6.19c.06.93.33,1.65.84,2.13.5.48,1.18.72,2.09.72.51,0,1.02-.06,1.5-.18.48-.12.97-.32,1.46-.59v1.27c-.48.21-.98.38-1.49.47-.51.09-1.04.15-1.54.15-1.32,0-2.36-.38-3.12-1.12s-1.14-1.78-1.14-3.09.36-2.4,1.08-3.2c.72-.78,1.71-1.18,2.94-1.18,1.11,0,1.98.36,2.62,1.07.63.72.96,1.68.96,2.9Z"/>
      <path d="M218.22,317c-.66,1.14-1.14,2.25-1.45,3.34-.33,1.09-.48,2.2-.48,3.33s.15,2.25.48,3.35c.31,1.11.79,2.2,1.45,3.33h-1.17c-.74-1.15-1.29-2.27-1.65-3.38s-.54-2.21-.54-3.3.18-2.17.54-3.28.9-2.24,1.65-3.39h1.17Z"/>
      <path d="M226.73,324.29c0-.99-.21-1.75-.61-2.32-.42-.57-.98-.86-1.68-.86s-1.27.28-1.68.86c-.42.57-.62,1.33-.62,2.32s.2,1.77.62,2.34c.4.57.96.84,1.68.84s1.26-.27,1.68-.84c.4-.57.61-1.35.61-2.34ZM222.14,327.15v4.34h-1.35v-11.31h1.35v1.24c.27-.48.63-.84,1.07-1.08s.96-.36,1.56-.36c.99,0,1.8.41,2.43,1.18.61.8.93,1.83.93,3.12s-.32,2.34-.93,3.12c-.63.78-1.44,1.17-2.43,1.17-.6,0-1.12-.12-1.56-.34-.43-.23-.79-.59-1.07-1.08Z"/>
      <path d="M236.03,323.55c-.01-.73-.23-1.32-.62-1.77-.4-.44-.94-.66-1.6-.66-.75,0-1.35.22-1.8.64s-.72,1.02-.78,1.78h4.8ZM237.38,323.94v.66h-6.2c.06.93.33,1.65.84,2.13.5.48,1.18.72,2.09.72.51,0,1.02-.06,1.5-.18.48-.12.97-.32,1.46-.59v1.27c-.48.21-.98.38-1.49.47-.51.09-1.04.15-1.54.15-1.32,0-2.36-.38-3.12-1.12s-1.14-1.78-1.14-3.09.36-2.4,1.08-3.2c.72-.78,1.71-1.18,2.94-1.18,1.11,0,1.98.36,2.62,1.07.63.72.96,1.68.96,2.9Z"/>
      <path d="M244.34,321.44c-.15-.09-.31-.15-.49-.19-.18-.03-.38-.06-.58-.06-.76,0-1.35.25-1.76.75-.42.49-.62,1.2-.62,2.13v4.32h-1.35v-8.2h1.35v1.27c.27-.49.65-.87,1.1-1.11s1.01-.36,1.67-.36c.09,0,.19.02.31.02.11.01.23.03.38.06v1.38Z"/>
      <path d="M255.75,320.42v1.28c-.39-.18-.78-.33-1.18-.44-.42-.09-.84-.15-1.28-.15-.68,0-1.18.11-1.51.32s-.49.51-.49.92c0,.31.12.55.36.73.24.18.72.36,1.44.51l.46.1c.96.21,1.63.51,2.04.87.39.38.6.9.6,1.56,0,.77-.3,1.37-.9,1.8-.6.45-1.44.66-2.49.66-.45,0-.9-.05-1.38-.12s-.97-.19-1.5-.38v-1.39c.49.27.99.46,1.47.59.48.13.96.19,1.44.19.63,0,1.12-.1,1.47-.32.33-.21.51-.52.51-.93,0-.36-.13-.65-.38-.84-.24-.2-.78-.39-1.62-.57l-.46-.1c-.84-.18-1.46-.45-1.82-.81-.38-.36-.56-.86-.56-1.5,0-.77.27-1.36.81-1.79.54-.42,1.32-.63,2.34-.63.49,0,.96.05,1.41.12.44.08.84.18,1.22.31Z"/>
      <path d="M264,323.55c-.01-.73-.22-1.32-.61-1.77-.4-.44-.95-.66-1.61-.66-.75,0-1.35.22-1.8.64s-.72,1.02-.78,1.78h4.8ZM265.35,323.94v.66h-6.2c.06.93.33,1.65.84,2.13.49.48,1.18.72,2.08.72.51,0,1.02-.06,1.5-.18.48-.12.98-.32,1.45-.59v1.27c-.48.21-.97.38-1.48.47s-1.04.15-1.55.15c-1.32,0-2.35-.38-3.12-1.12-.76-.75-1.14-1.78-1.14-3.09s.36-2.4,1.08-3.2c.72-.78,1.71-1.18,2.94-1.18,1.11,0,1.98.36,2.62,1.07.63.72.96,1.68.96,2.9Z"/>
      <path d="M273.47,320.49v1.26c-.39-.21-.77-.36-1.15-.47-.39-.1-.77-.16-1.15-.16-.87,0-1.56.28-2.04.84-.48.55-.72,1.33-.72,2.32s.24,1.78.72,2.34,1.17.82,2.04.82c.39,0,.76-.05,1.15-.15.39-.11.76-.27,1.15-.48v1.25c-.39.18-.78.31-1.17.39-.4.07-.84.12-1.29.12-1.23,0-2.22-.38-2.94-1.15-.74-.77-1.1-1.82-1.1-3.14s.36-2.39,1.1-3.15c.73-.76,1.74-1.16,3.03-1.16.42,0,.82.05,1.21.14.39.09.78.21,1.15.38Z"/>
      <polygon points="276.15 326.52 277.7 326.52 277.7 327.78 276.5 330.11 275.55 330.11 276.15 327.78 276.15 326.52"/>
      <path d="M291.24,324.29c0-.99-.21-1.75-.61-2.32-.42-.57-.98-.86-1.68-.86s-1.28.28-1.68.86c-.42.57-.61,1.33-.61,2.32s.2,1.77.61,2.34c.4.57.96.84,1.68.84s1.26-.27,1.68-.84c.4-.57.61-1.35.61-2.34ZM286.65,327.15v4.34h-1.35v-11.31h1.35v1.24c.27-.48.63-.84,1.07-1.08s.96-.36,1.56-.36c.99,0,1.8.41,2.43,1.18.62.8.93,1.83.93,3.12s-.32,2.34-.93,3.12c-.63.78-1.44,1.17-2.43,1.17-.6,0-1.12-.12-1.56-.34-.43-.23-.8-.59-1.07-1.08Z"/>
      <path d="M300.54,323.55c-.01-.73-.22-1.32-.61-1.77-.4-.44-.95-.66-1.61-.66-.75,0-1.35.22-1.8.64s-.72,1.02-.78,1.78h4.8ZM301.89,323.94v.66h-6.2c.06.93.33,1.65.84,2.13.49.48,1.18.72,2.08.72.51,0,1.02-.06,1.5-.18.48-.12.98-.32,1.45-.59v1.27c-.48.21-.97.38-1.48.47s-1.04.15-1.55.15c-1.32,0-2.35-.38-3.12-1.12-.76-.75-1.14-1.78-1.14-3.09s.36-2.4,1.08-3.2c.72-.78,1.71-1.18,2.94-1.18,1.11,0,1.98.36,2.62,1.07.63.72.96,1.68.96,2.9Z"/>
      <path d="M308.85,321.44c-.15-.09-.32-.15-.49-.19-.18-.03-.38-.06-.59-.06-.76,0-1.35.25-1.76.75-.42.49-.61,1.2-.61,2.13v4.32h-1.35v-8.2h1.35v1.27c.27-.49.64-.87,1.1-1.11s1.01-.36,1.67-.36c.09,0,.2.02.32.02.1.01.23.03.38.06v1.38Z"/>
      <path d="M321.86,323.43v4.95h-1.35v-4.9c0-.78-.17-1.35-.46-1.74-.3-.39-.75-.58-1.35-.58-.74,0-1.3.24-1.73.7s-.63,1.1-.63,1.89v4.64h-1.35v-8.2h1.35v1.27c.32-.48.69-.85,1.14-1.09.43-.24.94-.38,1.51-.38.93,0,1.65.3,2.13.89s.74,1.44.74,2.57Z"/>
      <path d="M327.72,319.98c1.17,0,2.08.39,2.76,1.14.66.76,1.01,1.81,1.01,3.16s-.35,2.4-1.01,3.15c-.68.76-1.59,1.14-2.76,1.14s-2.11-.38-2.77-1.14c-.66-.75-.99-1.8-.99-3.15s.33-2.4.99-3.16c.66-.75,1.59-1.14,2.77-1.14ZM327.72,321.12c-.72,0-1.29.28-1.71.85-.42.57-.63,1.33-.63,2.31s.2,1.76.61,2.32c.42.57.99.84,1.73.84s1.29-.27,1.71-.84c.42-.57.63-1.34.63-2.32s-.21-1.74-.63-2.31c-.42-.57-.99-.85-1.71-.85Z"/>
      <path d="M334.53,324.29c0,.99.2,1.77.6,2.34s.96.84,1.68.84,1.27-.27,1.7-.84c.4-.57.61-1.35.61-2.34s-.21-1.75-.61-2.32c-.42-.57-.98-.86-1.7-.86s-1.27.28-1.68.86c-.4.57-.6,1.33-.6,2.32ZM339.12,321.42v-4.44h1.35v11.4h-1.35v-1.23c-.29.5-.64.86-1.08,1.08-.43.22-.95.34-1.55.34-.99,0-1.8-.39-2.43-1.17-.63-.78-.93-1.83-.93-3.12s.3-2.32.93-3.12c.63-.78,1.44-1.18,2.43-1.18.6,0,1.11.12,1.55.36s.79.6,1.08,1.08Z"/>
      <path d="M348.92,323.55c-.01-.73-.22-1.32-.61-1.77-.4-.44-.95-.66-1.61-.66-.75,0-1.35.22-1.8.64s-.72,1.02-.78,1.78h4.8ZM350.27,323.94v.66h-6.2c.06.93.33,1.65.84,2.13.49.48,1.18.72,2.08.72.51,0,1.02-.06,1.5-.18.48-.12.98-.32,1.45-.59v1.27c-.48.21-.97.38-1.48.47s-1.04.15-1.55.15c-1.32,0-2.35-.38-3.12-1.12-.76-.75-1.14-1.78-1.14-3.09s.36-2.4,1.08-3.2c.72-.78,1.71-1.18,2.94-1.18,1.11,0,1.98.36,2.62,1.07.63.72.96,1.68.96,2.9Z"/>
      <path d="M352.26,317h1.17c.72,1.15,1.27,2.28,1.64,3.39.36,1.11.55,2.2.55,3.28s-.2,2.19-.55,3.3c-.36,1.11-.92,2.22-1.64,3.38h-1.17c.64-1.12,1.12-2.22,1.45-3.33.32-1.1.48-2.21.48-3.35s-.17-2.24-.48-3.33c-.33-1.09-.81-2.2-1.45-3.34Z"/>
      <g class="cls-21">
        <line class="cls-4" x1="48.72" y1="262.8" x2="420.9" y2="262.8"/>
      </g>
      <line x1="48.72" y1="262.8" x2="45.22" y2="262.8"/>
      <line class="cls-8" x1="48.72" y1="262.8" x2="45.22" y2="262.8"/>
      <path d="M28.9,258.6c.81,0,1.43.33,1.87.97.43.65.65,1.59.65,2.81s-.22,2.17-.65,2.81c-.44.64-1.06.96-1.88.96s-1.44-.32-1.87-.96c-.43-.64-.64-1.58-.64-2.81s.21-2.16.64-2.81c.43-.64,1.06-.97,1.88-.97ZM28.9,259.38c-.51,0-.89.25-1.15.75s-.38,1.25-.38,2.25.12,1.75.38,2.25.64.75,1.15.75.89-.25,1.15-.75c.25-.5.38-1.25.38-2.25s-.13-1.75-.38-2.25c-.26-.5-.64-.75-1.15-.75Z"/>
      <rect x="33.15" y="264.78" width="1.03" height="1.24"/>
      <path d="M36.34,258.73h3.87v.83h-2.97v1.79c.14-.05.29-.09.43-.11.14-.02.29-.04.43-.04.81,0,1.45.23,1.93.67.48.45.72,1.05.72,1.81s-.25,1.4-.74,1.83-1.18.64-2.06.64c-.31,0-.62-.03-.94-.07-.32-.05-.64-.12-.98-.23v-.99c.29.16.59.28.91.36.31.08.64.11.99.11.56,0,1.01-.14,1.34-.44.32-.3.49-.7.49-1.21s-.17-.9-.49-1.2c-.33-.3-.78-.45-1.34-.45-.26,0-.53.03-.79.09-.26.06-.53.15-.8.27v-3.66Z"/>
      <g class="cls-22">
        <line class="cls-4" x1="48.72" y1="212.87" x2="420.9" y2="212.87"/>
      </g>
      <line x1="48.72" y1="212.87" x2="45.22" y2="212.87"/>
      <line class="cls-8" x1="48.72" y1="212.87" x2="45.22" y2="212.87"/>
      <polygon points="26.96 215.26 28.57 215.26 28.57 209.7 26.82 210.05 26.82 209.15 28.56 208.8 29.55 208.8 29.55 215.26 31.16 215.26 31.16 216.09 26.96 216.09 26.96 215.26"/>
      <rect x="33.15" y="214.85" width="1.03" height="1.24"/>
      <path d="M38.44,208.67c.81,0,1.43.33,1.87.97.43.65.65,1.59.65,2.81s-.22,2.17-.65,2.81c-.44.64-1.06.96-1.88.96s-1.44-.32-1.87-.96-.64-1.58-.64-2.81.21-2.16.64-2.81c.43-.64,1.06-.97,1.88-.97ZM38.44,209.45c-.51,0-.89.25-1.15.75-.26.5-.38,1.25-.38,2.25s.12,1.75.38,2.25c.26.5.64.75,1.15.75s.89-.25,1.15-.75c.25-.5.38-1.25.38-2.25s-.13-1.75-.38-2.25c-.26-.5-.64-.75-1.15-.75Z"/>
      <g class="cls-26">
        <line class="cls-4" x1="48.72" y1="162.95" x2="420.9" y2="162.95"/>
      </g>
      <line x1="48.72" y1="162.95" x2="45.22" y2="162.95"/>
      <line class="cls-8" x1="48.72" y1="162.95" x2="45.22" y2="162.95"/>
      <polygon points="26.96 165.22 28.57 165.22 28.57 159.66 26.82 160.01 26.82 159.11 28.56 158.76 29.55 158.76 29.55 165.22 31.16 165.22 31.16 166.05 26.96 166.05 26.96 165.22"/>
      <rect x="33.15" y="164.81" width="1.03" height="1.24"/>
      <path d="M36.34,158.76h3.87v.83h-2.97v1.79c.14-.05.29-.09.43-.11s.29-.04.43-.04c.81,0,1.45.23,1.93.67.48.45.72,1.05.72,1.81s-.25,1.4-.74,1.83c-.49.43-1.18.64-2.06.64-.31,0-.62-.03-.94-.07-.32-.05-.64-.12-.98-.23v-.99c.29.16.59.28.91.36.31.08.64.11.99.11.56,0,1.01-.14,1.34-.44.32-.3.49-.7.49-1.21s-.17-.9-.49-1.2c-.33-.3-.78-.45-1.34-.45-.26,0-.53.03-.79.09-.26.06-.53.15-.8.27v-3.66Z"/>
      <g class="cls-34">
        <line class="cls-4" x1="48.72" y1="113.03" x2="420.9" y2="113.03"/>
      </g>
      <line x1="48.72" y1="113.03" x2="45.22" y2="113.03"/>
      <line class="cls-8" x1="48.72" y1="113.03" x2="45.22" y2="113.03"/>
      <path d="M27.64,115.42h3.44v.83h-4.63v-.83c.37-.38.88-.9,1.53-1.56.64-.65,1.05-1.07,1.22-1.26.32-.35.54-.65.66-.9.12-.24.19-.49.19-.73,0-.38-.14-.7-.41-.94s-.62-.37-1.06-.37c-.31,0-.64.06-.98.16-.34.11-.71.27-1.1.49v-1c.4-.16.77-.28,1.11-.36s.66-.12.95-.12c.75,0,1.35.19,1.8.57.45.38.68.88.68,1.51,0,.3-.06.59-.17.85-.11.27-.31.59-.61.95-.08.1-.34.37-.78.82s-1.05,1.08-1.84,1.89Z"/>
      <rect x="33.15" y="115.01" width="1.03" height="1.24"/>
      <path d="M38.44,108.83c.81,0,1.43.33,1.87.97.43.65.65,1.59.65,2.81s-.22,2.17-.65,2.81c-.44.64-1.06.96-1.88.96s-1.44-.32-1.87-.96-.64-1.58-.64-2.81.21-2.16.64-2.81c.43-.64,1.06-.97,1.88-.97ZM38.44,109.61c-.51,0-.89.25-1.15.75-.26.5-.38,1.25-.38,2.25s.12,1.75.38,2.25c.26.5.64.75,1.15.75s.89-.25,1.15-.75c.25-.5.38-1.25.38-2.25s-.13-1.75-.38-2.25c-.26-.5-.64-.75-1.15-.75Z"/>
      <g class="cls-42">
        <line class="cls-4" x1="48.72" y1="63.11" x2="420.9" y2="63.11"/>
      </g>
      <line x1="48.72" y1="63.11" x2="45.22" y2="63.11"/>
      <line class="cls-8" x1="48.72" y1="63.11" x2="45.22" y2="63.11"/>
      <path d="M27.64,65.5h3.44v.83h-4.63v-.83c.37-.38.88-.9,1.53-1.56.64-.65,1.05-1.07,1.22-1.26.32-.35.54-.65.66-.9.12-.24.19-.49.19-.73,0-.38-.14-.7-.41-.94s-.62-.37-1.06-.37c-.31,0-.64.06-.98.16-.34.11-.71.27-1.1.49v-1c.4-.16.77-.28,1.11-.36.34-.08.66-.12.95-.12.75,0,1.35.19,1.8.57.45.38.68.88.68,1.51,0,.3-.06.59-.17.85-.11.27-.31.59-.61.95-.08.1-.34.37-.78.82s-1.05,1.08-1.84,1.89Z"/>
      <rect x="33.15" y="65.09" width="1.03" height="1.24"/>
      <path d="M36.34,59.04h3.87v.83h-2.97v1.79c.14-.05.29-.09.43-.11s.29-.04.43-.04c.81,0,1.45.23,1.93.67.48.45.72,1.05.72,1.81s-.25,1.4-.74,1.83c-.49.43-1.18.64-2.06.64-.31,0-.62-.03-.94-.07-.32-.05-.64-.12-.98-.23v-.99c.29.16.59.28.91.36.31.08.64.11.99.11.56,0,1.01-.14,1.34-.44.32-.3.49-.7.49-1.21s-.17-.9-.49-1.2c-.33-.3-.78-.45-1.34-.45-.26,0-.53.03-.79.09-.26.06-.53.15-.8.27v-3.66Z"/>
      <polygon points="7.66 219.05 7.66 209.81 8.9 209.81 8.9 213.69 18.59 213.69 18.59 215.18 8.9 215.18 8.9 219.05 7.66 219.05"/>
      <path d="M10.19,207.81c0-1.17.39-2.09,1.14-2.76.76-.66,1.82-1,3.16-1s2.4.35,3.15,1c.76.68,1.14,1.59,1.14,2.76s-.38,2.11-1.14,2.77c-.75.66-1.8.99-3.15.99s-2.4-.33-3.16-.99c-.75-.66-1.14-1.59-1.14-2.77ZM11.33,207.81c0,.72.28,1.29.85,1.71.57.42,1.34.63,2.31.63s1.76-.2,2.32-.62.84-.99.84-1.72-.27-1.29-.84-1.71-1.33-.63-2.32-.63-1.74.21-2.31.63c-.57.42-.85.99-.85,1.71Z"/>
      <path d="M8.06,200.48h2.33v-2.78h1.05v2.78h4.46c.68,0,1.11-.09,1.29-.27.19-.18.28-.56.28-1.12v-1.38h1.12v1.38c0,1.05-.19,1.77-.58,2.16-.39.39-1.1.58-2.12.58h-4.46v.99h-1.05v-.99h-2.33v-1.35Z"/>
      <path d="M13.91,189.51h4.68v1.35h-1.25c.51.32.87.71,1.1,1.15s.34,1.02.34,1.68c0,.84-.23,1.51-.69,2.01-.46.49-1.09.74-1.89.74-.91,0-1.6-.3-2.09-.93-.47-.62-.7-1.53-.7-2.76v-1.89h-.14c-.61,0-1.1.21-1.44.61-.33.4-.51.98-.51,1.71,0,.48.06.93.18,1.38.12.45.28.87.49,1.27h-1.24c-.18-.48-.33-.96-.42-1.43s-.15-.91-.15-1.36c0-1.19.32-2.07.93-2.66.61-.58,1.55-.88,2.79-.88ZM14.47,192.2c0,1.1.14,1.85.38,2.26.26.42.68.63,1.27.63.48,0,.87-.15,1.14-.46.28-.32.42-.75.42-1.29,0-.75-.25-1.35-.79-1.8-.53-.45-1.23-.67-2.12-.67h-.3v1.33Z"/>
      <rect x="7.19" y="185.39" width="11.4" height="1.35"/>
      <path d="M14.5,176.99c.99,0,1.77-.19,2.34-.6.57-.4.84-.96.84-1.68s-.27-1.27-.84-1.7c-.57-.4-1.35-.61-2.34-.61s-1.76.21-2.32.61c-.57.42-.85.98-.85,1.7s.28,1.27.85,1.68c.57.41,1.34.6,2.32.6ZM11.63,172.4h-4.44v-1.35h11.4v1.35h-1.23c.49.29.85.65,1.08,1.08s.34.94.34,1.54c0,.99-.39,1.8-1.17,2.43-.78.63-1.83.93-3.12.93s-2.32-.3-3.12-.93c-.78-.63-1.19-1.44-1.19-2.43,0-.6.12-1.11.36-1.54.24-.43.6-.79,1.08-1.08Z"/>
      <path d="M13.76,162.6c-.74.01-1.32.23-1.77.62-.43.4-.66.94-.66,1.6,0,.75.23,1.35.65,1.8s1.02.72,1.78.78v-4.8ZM14.15,161.25h.66v6.2c.93-.06,1.65-.33,2.13-.84.48-.5.72-1.18.72-2.09,0-.51-.06-1.02-.18-1.5-.12-.48-.31-.97-.58-1.46h1.27c.21.48.38.98.47,1.49.09.51.15,1.04.15,1.54,0,1.32-.38,2.36-1.12,3.12s-1.78,1.14-3.09,1.14-2.4-.36-3.19-1.08c-.78-.72-1.19-1.71-1.19-2.94,0-1.11.36-1.98,1.06-2.62.72-.63,1.68-.96,2.9-.96Z"/>
      <rect x="7.19" y="157.7" width="11.4" height="1.35"/>
      <path d="M13.91,148.46h4.68v1.35h-1.25c.51.32.87.71,1.1,1.15s.34,1.02.34,1.68c0,.84-.23,1.51-.69,2.01-.46.49-1.09.74-1.89.74-.91,0-1.6-.3-2.09-.93-.47-.62-.7-1.53-.7-2.76v-1.89h-.14c-.61,0-1.1.21-1.44.61-.33.4-.51.98-.51,1.71,0,.48.06.93.18,1.38.12.45.28.87.49,1.27h-1.24c-.18-.48-.33-.96-.42-1.43s-.15-.91-.15-1.36c0-1.19.32-2.07.93-2.66.61-.58,1.55-.88,2.79-.88ZM14.47,151.14c0,1.1.14,1.85.38,2.26.26.42.68.63,1.27.63.48,0,.87-.15,1.14-.46.28-.32.42-.75.42-1.29,0-.75-.25-1.35-.79-1.8-.53-.45-1.23-.67-2.12-.67h-.3v1.33Z"/>
      <path d="M19.34,142.26c.96.39,1.6.76,1.91,1.12.3.36.45.84.45,1.44v1.08h-1.12v-.79c0-.36-.09-.65-.27-.86-.18-.21-.58-.43-1.24-.69l-.6-.24-8.07,3.32v-1.43l6.42-2.57-6.42-2.57v-1.43l8.95,3.6Z"/>
      <path d="M7.21,128.79c1.14.66,2.25,1.14,3.35,1.45,1.1.33,2.2.48,3.33.48s2.25-.15,3.35-.48c1.11-.31,2.2-.79,3.33-1.45v1.17c-1.16.74-2.26,1.29-3.38,1.65s-2.2.54-3.3.54-2.18-.18-3.29-.54c-1.11-.36-2.23-.9-3.39-1.65v-1.17Z"/>
      <path d="M10.63,120.95h1.27c-.18.39-.33.78-.43,1.18-.09.42-.15.84-.15,1.28,0,.68.1,1.18.31,1.51s.51.49.91.49c.32,0,.56-.12.73-.36.18-.24.36-.72.51-1.44l.11-.46c.21-.96.51-1.63.87-2.04.38-.39.9-.6,1.56-.6.76,0,1.36.3,1.8.9.45.6.66,1.44.66,2.49,0,.45-.05.9-.12,1.38-.08.48-.2.97-.38,1.5h-1.4c.27-.49.47-.99.58-1.47.14-.48.19-.96.19-1.44,0-.63-.1-1.12-.31-1.47-.21-.33-.53-.51-.93-.51-.36,0-.65.13-.84.38-.19.24-.39.78-.57,1.62l-.11.46c-.18.84-.45,1.46-.81,1.82-.36.38-.85.56-1.5.56-.76,0-1.36-.27-1.78-.81-.42-.54-.63-1.32-.63-2.34,0-.49.05-.96.12-1.41.08-.43.18-.84.32-1.21Z"/>
      <path d="M13.76,112.7c-.74.01-1.32.23-1.77.62-.43.4-.66.94-.66,1.6,0,.75.23,1.35.65,1.8s1.02.72,1.78.78v-4.8ZM14.15,111.35h.66v6.2c.93-.06,1.65-.33,2.13-.84.48-.5.72-1.18.72-2.09,0-.51-.06-1.02-.18-1.5-.12-.48-.31-.97-.58-1.46h1.27c.21.48.38.98.47,1.49.09.51.15,1.04.15,1.54,0,1.32-.38,2.36-1.12,3.12s-1.78,1.14-3.09,1.14-2.4-.36-3.19-1.08c-.78-.72-1.19-1.71-1.19-2.94,0-1.11.36-1.98,1.06-2.62.72-.63,1.68-.96,2.9-.96Z"/>
      <path d="M10.7,103.23h1.26c-.21.39-.36.77-.47,1.16s-.16.76-.16,1.15c0,.87.28,1.56.84,2.04s1.34.72,2.32.72,1.79-.24,2.34-.72c.56-.48.83-1.17.83-2.04,0-.39-.05-.76-.15-1.15s-.27-.76-.48-1.16h1.24c.18.39.32.78.39,1.17.07.4.12.84.12,1.29,0,1.23-.38,2.22-1.15,2.94-.77.74-1.82,1.1-3.14,1.1s-2.39-.36-3.15-1.1c-.76-.74-1.15-1.74-1.15-3.03,0-.42.05-.82.14-1.21s.21-.78.38-1.16Z"/>
      <path d="M7.21,101.1v-1.17c1.15-.72,2.28-1.28,3.39-1.64,1.11-.36,2.2-.55,3.29-.55s2.19.19,3.3.55,2.22.92,3.38,1.64v1.17c-1.12-.65-2.22-1.12-3.33-1.46-1.09-.32-2.2-.48-3.35-.48s-2.23.16-3.33.48c-1.1.33-2.21.81-3.35,1.46Z"/>
      <polygon points="55.73 9.78 53.5 12.02 55.73 14.25 55.15 14.84 52.91 12.6 50.67 14.84 50.09 14.25 52.32 12.02 50.09 9.78 50.67 9.19 52.91 11.43 55.15 9.19 55.73 9.78"/>
      <polygon points="58.33 14.32 59.94 14.32 59.94 8.76 58.19 9.11 58.19 8.21 59.93 7.86 60.92 7.86 60.92 14.32 62.53 14.32 62.53 15.15 58.33 15.15 58.33 14.32"/>
      <path d="M66.64,7.73c.81,0,1.43.33,1.87.97.43.65.65,1.59.65,2.81s-.22,2.17-.65,2.81c-.44.64-1.06.96-1.88.96s-1.44-.32-1.87-.96c-.43-.64-.64-1.58-.64-2.81s.21-2.16.64-2.81c.43-.64,1.06-.97,1.88-.97ZM66.64,8.51c-.51,0-.89.25-1.15.75-.26.5-.38,1.25-.38,2.25s.12,1.75.38,2.25c.26.5.64.75,1.15.75s.89-.25,1.15-.75c.25-.5.38-1.25.38-2.25s-.13-1.75-.38-2.25c-.26-.5-.64-.75-1.15-.75Z"/>
      <path d="M73.6,6.33v.63c-.17-.08-.35-.15-.53-.19-.18-.04-.36-.06-.52-.06-.46,0-.81.15-1.05.46s-.38.78-.41,1.39c.13-.2.3-.35.5-.46.2-.1.43-.16.67-.16.51,0,.92.16,1.21.47.29.31.45.73.45,1.27s-.16.95-.47,1.26-.72.47-1.23.47c-.59,0-1.04-.22-1.35-.67-.32-.45-.47-1.11-.47-1.97,0-.8.19-1.45.57-1.92.38-.48.9-.72,1.54-.72.17,0,.34.02.52.05.18.04.36.08.55.15ZM72.22,8.49c-.31,0-.55.11-.74.32-.18.21-.27.5-.27.87s.09.67.27.88c.18.21.43.32.74.32s.55-.11.74-.32.27-.5.27-.88-.09-.66-.27-.87c-.18-.21-.43-.32-.74-.32Z"/>
      <g class="cls-35">
        <polyline class="cls-3" points="65.63 283.72 107.93 265.73 150.22 243.94 192.51 220.62 234.81 196.12 277.1 169.76 319.4 143.43 361.69 115.89 403.98 86.93"/>
        <g class="cls-15">
          <polygon class="cls-2" points="65.63 280.72 62.63 286.72 68.63 286.72 65.63 280.72"/>
        </g>
        <g class="cls-39">
          <polygon class="cls-2" points="107.93 262.73 104.93 268.73 110.93 268.73 107.93 262.73"/>
        </g>
        <g class="cls-13">
          <polygon class="cls-2" points="150.22 240.94 147.22 246.94 153.22 246.94 150.22 240.94"/>
        </g>
        <g class="cls-17">
          <polygon class="cls-2" points="192.51 217.62 189.51 223.62 195.51 223.62 192.51 217.62"/>
        </g>
        <g class="cls-37">
          <polygon class="cls-2" points="234.81 193.12 231.81 199.12 237.81 199.12 234.81 193.12"/>
        </g>
        <g class="cls-30">
          <polygon class="cls-2" points="277.1 166.76 274.1 172.76 280.1 172.76 277.1 166.76"/>
        </g>
        <g class="cls-10">
          <polygon class="cls-2" points="319.4 140.43 316.4 146.43 322.4 146.43 319.4 140.43"/>
        </g>
        <g class="cls-19">
          <polygon class="cls-2" points="361.69 112.89 358.69 118.89 364.69 118.89 361.69 112.89"/>
        </g>
        <g class="cls-20">
          <polygon class="cls-2" points="403.98 83.93 400.98 89.93 406.98 89.93 403.98 83.93"/>
        </g>
      </g>
      <g class="cls-43">
        <polyline class="cls-6" points="65.63 269.76 107.93 246.7 150.22 219.6 192.51 190.53 234.81 161.05 277.1 128.99 319.4 97.85 361.69 64.69 403.98 31.72"/>
        <g class="cls-24">
          <polygon class="cls-2" points="65.63 266.76 62.63 272.76 68.63 272.76 65.63 266.76"/>
        </g>
        <g class="cls-33">
          <polygon class="cls-2" points="107.93 243.7 104.93 249.7 110.93 249.7 107.93 243.7"/>
        </g>
        <g class="cls-25">
          <polygon class="cls-2" points="150.22 216.6 147.22 222.6 153.22 222.6 150.22 216.6"/>
        </g>
        <g class="cls-27">
          <polygon class="cls-2" points="192.51 187.53 189.51 193.53 195.51 193.53 192.51 187.53"/>
        </g>
        <g class="cls-41">
          <polygon class="cls-2" points="234.81 158.05 231.81 164.05 237.81 164.05 234.81 158.05"/>
        </g>
        <g class="cls-36">
          <polygon class="cls-2" points="277.1 125.99 274.1 131.99 280.1 131.99 277.1 125.99"/>
        </g>
        <g class="cls-14">
          <polygon class="cls-2" points="319.4 94.85 316.4 100.85 322.4 100.85 319.4 94.85"/>
        </g>
        <g class="cls-38">
          <polygon class="cls-2" points="361.69 61.69 358.69 67.69 364.69 67.69 361.69 61.69"/>
        </g>
        <g class="cls-16">
          <polygon class="cls-2" points="403.98 28.72 400.98 34.72 406.98 34.72 403.98 28.72"/>
        </g>
      </g>
      <line class="cls-7" x1="48.72" y1="296.32" x2="48.72" y2="19.12"/>
      <line class="cls-7" x1="420.9" y1="296.32" x2="420.9" y2="19.12"/>
      <line class="cls-7" x1="48.72" y1="296.32" x2="420.9" y2="296.32"/>
      <line class="cls-7" x1="48.72" y1="19.12" x2="420.9" y2="19.12"/>
      <g>
        <rect class="cls-9" x="56.22" y="26.62" width="143.94" height="48.53" rx="3" ry="3"/>
        <rect class="cls-1" x="56.22" y="26.62" width="143.94" height="48.53" rx="3" ry="3"/>
      </g>
      <polyline class="cls-3" points="62.22 38.76 77.22 38.76 92.22 38.76"/>
      <polygon class="cls-2" points="77.22 35.76 74.22 41.76 80.22 41.76 77.22 35.76"/>
      <polygon points="105.69 33.08 107.89 33.08 110.68 40.52 113.49 33.08 115.69 33.08 115.69 44.01 114.25 44.01 114.25 34.41 111.43 41.91 109.95 41.91 107.13 34.41 107.13 44.01 105.69 44.01 105.69 33.08"/>
      <polygon points="121.45 44.01 117.28 33.08 118.83 33.08 122.29 42.29 125.76 33.08 127.3 33.08 123.13 44.01 121.45 44.01"/>
      <rect x="128.89" y="33.08" width="1.49" height="10.93"/>
      <path d="M133.32,33.08h3.35c1.21,0,2.15.29,2.77.84.63.55.95,1.36.95,2.43s-.32,1.9-.95,2.45c-.63.55-1.56.83-2.77.83h-1.86v4.39h-1.49v-10.93ZM134.8,34.29v4.11h1.86c.69,0,1.21-.17,1.59-.53.38-.36.57-.87.57-1.53s-.2-1.15-.57-1.51c-.38-.36-.9-.54-1.59-.54h-1.86Z"/>
      <path d="M150.31,32.63c-.66,1.14-1.14,2.25-1.45,3.35-.33,1.1-.48,2.21-.48,3.33s.15,2.25.48,3.35c.31,1.11.79,2.2,1.45,3.33h-1.17c-.74-1.15-1.29-2.26-1.65-3.38-.36-1.11-.54-2.2-.54-3.3s.18-2.18.54-3.29c.36-1.11.9-2.24,1.65-3.39h1.17Z"/>
      <polygon points="152.14 35.81 153.49 35.81 155.17 42.21 156.85 35.81 158.44 35.81 160.12 42.21 161.8 35.81 163.15 35.81 161.01 44.01 159.42 44.01 157.65 37.29 155.88 44.01 154.29 44.01 152.14 35.81"/>
      <polygon points="167.59 33.08 168.84 33.08 165.03 45.39 163.78 45.39 167.59 33.08"/>
      <rect x="175.08" y="33.08" width="1.49" height="10.93"/>
      <path d="M182.32,33.08h1.68l4.17,10.93h-1.54l-.99-2.8h-4.93l-.99,2.8h-1.56l4.17-10.93ZM183.16,34.53l-2.01,5.45h4.02l-2.01-5.45Z"/>
      <path d="M189.49,32.63h1.17c.72,1.15,1.28,2.28,1.64,3.39.36,1.11.55,2.2.55,3.29s-.19,2.19-.55,3.3c-.36,1.11-.92,2.22-1.64,3.38h-1.17c.65-1.12,1.12-2.22,1.46-3.33.32-1.1.48-2.21.48-3.35s-.16-2.24-.48-3.33c-.33-1.1-.81-2.2-1.46-3.35Z"/>
      <polyline class="cls-6" points="62.22 60.78 77.22 60.78 92.22 60.78"/>
      <polygon class="cls-2" points="77.22 57.78 74.22 63.78 80.22 63.78 77.22 57.78"/>
      <polygon points="108.51 66.03 104.34 55.09 105.88 55.09 109.35 64.3 112.81 55.09 114.36 55.09 110.19 66.03 108.51 66.03"/>
      <rect x="115.95" y="55.09" width="1.49" height="10.93"/>
      <path d="M120.37,55.09h3.35c1.21,0,2.14.29,2.77.84.63.55.95,1.36.95,2.43s-.32,1.9-.95,2.45c-.63.55-1.56.83-2.77.83h-1.86v4.39h-1.49v-10.93ZM121.86,56.31v4.11h1.86c.69,0,1.21-.17,1.59-.53.38-.36.57-.87.57-1.53s-.19-1.15-.57-1.51c-.38-.36-.9-.54-1.59-.54h-1.86Z"/>
      <path d="M137.37,54.64c-.66,1.14-1.14,2.25-1.45,3.35-.33,1.1-.48,2.21-.48,3.33s.15,2.25.48,3.35c.31,1.11.79,2.2,1.45,3.33h-1.17c-.74-1.15-1.29-2.26-1.65-3.38-.36-1.11-.54-2.2-.54-3.3s.18-2.18.54-3.29c.36-1.11.9-2.24,1.65-3.39h1.17Z"/>
      <polygon points="139.2 57.82 140.55 57.82 142.23 64.23 143.91 57.82 145.5 57.82 147.18 64.23 148.86 57.82 150.21 57.82 148.06 66.03 146.47 66.03 144.7 59.31 142.93 66.03 141.34 66.03 139.2 57.82"/>
      <polygon points="154.65 55.09 155.89 55.09 152.08 67.41 150.84 67.41 154.65 55.09"/>
      <rect x="162.13" y="55.09" width="1.49" height="10.93"/>
      <path d="M169.38,55.09h1.68l4.17,10.93h-1.54l-.99-2.8h-4.93l-.99,2.8h-1.56l4.17-10.93ZM170.22,56.55l-2.01,5.45h4.02l-2.01-5.45Z"/>
      <path d="M176.55,54.64h1.17c.72,1.15,1.28,2.28,1.64,3.39.36,1.11.55,2.2.55,3.29s-.19,2.19-.55,3.3c-.36,1.11-.92,2.22-1.64,3.38h-1.17c.65-1.12,1.12-2.22,1.46-3.33.32-1.1.48-2.21.48-3.35s-.16-2.24-.48-3.33c-.33-1.1-.81-2.2-1.46-3.35Z"/>
    </g>
  </g>
</svg>