<?xml version="1.0" encoding="UTF-8"?>
<svg id="Layer_1" data-name="Layer 1" xmlns="http://www.w3.org/2000/svg" version="1.1" xmlns:xlink="http://www.w3.org/1999/xlink" viewBox="0 0 435.1 337.71">
  <defs>
    <style>
      .cls-1, .cls-2, .cls-3, .cls-4, .cls-5, .cls-6, .cls-7, .cls-8, .cls-9, .cls-10, .cls-11 {
        fill: none;
      }

      .cls-1, .cls-2, .cls-7, .cls-8, .cls-11 {
        stroke: #000;
      }

      .cls-1, .cls-4 {
        stroke-dasharray: 0 0 5.55 2.4;
      }

      .cls-1, .cls-4, .cls-6, .cls-8 {
        stroke-width: 1.5px;
      }

      .cls-1, .cls-4, .cls-6, .cls-8, .cls-10, .cls-11 {
        stroke-linejoin: round;
      }

      .cls-12 {
        clip-path: url(#clippath-45);
      }

      .cls-13 {
        clip-path: url(#clippath-20);
      }

      .cls-14 {
        clip-path: url(#clippath-11);
      }

      .cls-15 {
        clip-path: url(#clippath-16);
      }

      .cls-16 {
        clip-path: url(#clippath-33);
      }

      .cls-17 {
        fill: #000;
      }

      .cls-17, .cls-3, .cls-18, .cls-19 {
        stroke-width: 0px;
      }

      .cls-20 {
        clip-path: url(#clippath-47);
      }

      .cls-21 {
        clip-path: url(#clippath-41);
      }

      .cls-22 {
        clip-path: url(#clippath-32);
      }

      .cls-23 {
        clip-path: url(#clippath-2);
      }

      .cls-24 {
        clip-path: url(#clippath-13);
      }

      .cls-25 {
        clip-path: url(#clippath-37);
      }

      .cls-26 {
        clip-path: url(#clippath-46);
      }

      .cls-27 {
        clip-path: url(#clippath-25);
      }

      .cls-28 {
        clip-path: url(#clippath-15);
      }

      .cls-29 {
        clip-path: url(#clippath-6);
      }

      .cls-2, .cls-5, .cls-7, .cls-9 {
        stroke-miterlimit: 10;
      }

      .cls-30 {
        clip-path: url(#clippath-40);
      }

      .cls-31 {
        clip-path: url(#clippath-26);
      }

      .cls-32 {
        clip-path: url(#clippath-7);
      }

      .cls-33 {
        clip-path: url(#clippath-21);
      }

      .cls-4, .cls-6, .cls-9 {
        stroke: red;
      }

      .cls-34 {
        clip-path: url(#clippath-34);
      }

      .cls-35 {
        clip-path: url(#clippath-57);
      }

      .cls-36 {
        clip-path: url(#clippath-1);
      }

      .cls-37 {
        clip-path: url(#clippath-4);
      }

      .cls-38 {
        clip-path: url(#clippath-38);
      }

      .cls-39 {
        clip-path: url(#clippath-36);
      }

      .cls-40 {
        clip-path: url(#clippath-27);
      }

      .cls-18, .cls-5 {
        opacity: .8;
      }

      .cls-18, .cls-19 {
        fill: #fff;
      }

      .cls-41 {
        clip-path: url(#clippath-44);
      }

      .cls-42 {
        clip-path: url(#clippath-12);
      }

      .cls-5 {
        stroke: #ccc;
      }

      .cls-6, .cls-7, .cls-8 {
        stroke-linecap: square;
      }

      .cls-43 {
        clip-path: url(#clippath-24);
      }

      .cls-44 {
        clip-path: url(#clippath-30);
      }

      .cls-45 {
        clip-path: url(#clippath-22);
      }

      .cls-46 {
        clip-path: url(#clippath-9);
      }

      .cls-47 {
        clip-path: url(#clippath-52);
      }

      .cls-48 {
        clip-path: url(#clippath);
      }

      .cls-49 {
        clip-path: url(#clippath-50);
      }

      .cls-50 {
        clip-path: url(#clippath-48);
      }

      .cls-51 {
        clip-path: url(#clippath-39);
      }

      .cls-52 {
        clip-path: url(#clippath-19);
      }

      .cls-53 {
        clip-path: url(#clippath-31);
      }

      .cls-54 {
        clip-path: url(#clippath-54);
      }

      .cls-55 {
        clip-path: url(#clippath-3);
      }

      .cls-7, .cls-10, .cls-11 {
        stroke-width: .8px;
      }

      .cls-56 {
        clip-path: url(#clippath-43);
      }

      .cls-57 {
        clip-path: url(#clippath-8);
      }

      .cls-58 {
        clip-path: url(#clippath-55);
      }

      .cls-59 {
        clip-path: url(#clippath-29);
      }

      .cls-60 {
        clip-path: url(#clippath-18);
      }

      .cls-61 {
        clip-path: url(#clippath-14);
      }

      .cls-62 {
        clip-path: url(#clippath-17);
      }

      .cls-63 {
        clip-path: url(#clippath-5);
      }

      .cls-10 {
        opacity: .5;
        stroke: #b0b0b0;
        stroke-dasharray: 0 0 2.96 1.28;
      }

      .cls-64 {
        clip-path: url(#clippath-42);
      }

      .cls-65 {
        clip-path: url(#clippath-10);
      }

      .cls-66 {
        clip-path: url(#clippath-23);
      }

      .cls-67 {
        clip-path: url(#clippath-56);
      }

      .cls-68 {
        clip-path: url(#clippath-53);
      }

      .cls-69 {
        clip-path: url(#clippath-49);
      }

      .cls-70 {
        clip-path: url(#clippath-51);
      }

      .cls-71 {
        clip-path: url(#clippath-28);
      }

      .cls-72 {
        clip-path: url(#clippath-35);
      }
    </style>
    <clipPath id="clippath">
      <rect class="cls-3" x="55.72" y="18.12" width="372.19" height="277.2"/>
    </clipPath>
    <clipPath id="clippath-1">
      <rect class="cls-3" x="55.72" y="18.12" width="372.19" height="277.2"/>
    </clipPath>
    <clipPath id="clippath-2">
      <rect class="cls-3" x="55.72" y="18.12" width="372.19" height="277.2"/>
    </clipPath>
    <clipPath id="clippath-3">
      <rect class="cls-3" x="55.72" y="18.12" width="372.19" height="277.2"/>
    </clipPath>
    <clipPath id="clippath-4">
      <rect class="cls-3" x="55.72" y="18.12" width="372.19" height="277.2"/>
    </clipPath>
    <clipPath id="clippath-5">
      <rect class="cls-3" x="55.72" y="18.12" width="372.19" height="277.2"/>
    </clipPath>
    <clipPath id="clippath-6">
      <rect class="cls-3" x="55.72" y="18.12" width="372.19" height="277.2"/>
    </clipPath>
    <clipPath id="clippath-7">
      <rect class="cls-3" x="55.72" y="18.12" width="372.19" height="277.2"/>
    </clipPath>
    <clipPath id="clippath-8">
      <rect class="cls-3" x="55.72" y="18.12" width="372.19" height="277.2"/>
    </clipPath>
    <clipPath id="clippath-9">
      <rect class="cls-3" x="55.72" y="18.12" width="372.19" height="277.2"/>
    </clipPath>
    <clipPath id="clippath-10">
      <rect class="cls-3" x="55.72" y="18.12" width="372.19" height="277.2"/>
    </clipPath>
    <clipPath id="clippath-11">
      <rect class="cls-3" x="55.72" y="18.12" width="372.19" height="277.2"/>
    </clipPath>
    <clipPath id="clippath-12">
      <rect class="cls-3" x="55.72" y="18.12" width="372.19" height="277.2"/>
    </clipPath>
    <clipPath id="clippath-13">
      <rect class="cls-3" x="55.72" y="18.12" width="372.19" height="277.2"/>
    </clipPath>
    <clipPath id="clippath-14">
      <rect class="cls-3" x="55.72" y="18.12" width="372.19" height="277.2"/>
    </clipPath>
    <clipPath id="clippath-15">
      <rect class="cls-3" x="55.72" y="18.12" width="372.19" height="277.2"/>
    </clipPath>
    <clipPath id="clippath-16">
      <rect class="cls-3" x="55.72" y="18.12" width="372.19" height="277.2"/>
    </clipPath>
    <clipPath id="clippath-17">
      <rect class="cls-3" x="55.72" y="18.12" width="372.19" height="277.2"/>
    </clipPath>
    <clipPath id="clippath-18">
      <rect class="cls-3" x="55.72" y="18.12" width="372.19" height="277.2"/>
    </clipPath>
    <clipPath id="clippath-19">
      <rect class="cls-3" x="64.63" y="268.72" width="16" height="16"/>
    </clipPath>
    <clipPath id="clippath-20">
      <rect class="cls-3" x="106.93" y="260.22" width="16" height="16"/>
    </clipPath>
    <clipPath id="clippath-21">
      <rect class="cls-3" x="149.22" y="247.53" width="16" height="16"/>
    </clipPath>
    <clipPath id="clippath-22">
      <rect class="cls-3" x="191.51" y="234.85" width="16" height="16"/>
    </clipPath>
    <clipPath id="clippath-23">
      <rect class="cls-3" x="233.81" y="216.72" width="16" height="16"/>
    </clipPath>
    <clipPath id="clippath-24">
      <rect class="cls-3" x="276.1" y="200.11" width="16" height="16"/>
    </clipPath>
    <clipPath id="clippath-25">
      <rect class="cls-3" x="318.4" y="177.57" width="16" height="16"/>
    </clipPath>
    <clipPath id="clippath-26">
      <rect class="cls-3" x="360.69" y="156.43" width="16" height="16"/>
    </clipPath>
    <clipPath id="clippath-27">
      <rect class="cls-3" x="402.98" y="123.67" width="16" height="16"/>
    </clipPath>
    <clipPath id="clippath-28">
      <rect class="cls-3" x="55.72" y="18.12" width="372.19" height="277.2"/>
    </clipPath>
    <clipPath id="clippath-29">
      <rect class="cls-3" x="64.63" y="274.72" width="16" height="16"/>
    </clipPath>
    <clipPath id="clippath-30">
      <rect class="cls-3" x="106.93" y="272.47" width="16" height="16"/>
    </clipPath>
    <clipPath id="clippath-31">
      <rect class="cls-3" x="149.22" y="269.74" width="16" height="16"/>
    </clipPath>
    <clipPath id="clippath-32">
      <rect class="cls-3" x="191.51" y="266.82" width="16" height="16"/>
    </clipPath>
    <clipPath id="clippath-33">
      <rect class="cls-3" x="233.81" y="263.75" width="16" height="16"/>
    </clipPath>
    <clipPath id="clippath-34">
      <rect class="cls-3" x="276.1" y="260.45" width="16" height="16"/>
    </clipPath>
    <clipPath id="clippath-35">
      <rect class="cls-3" x="318.4" y="257.15" width="16" height="16"/>
    </clipPath>
    <clipPath id="clippath-36">
      <rect class="cls-3" x="360.69" y="253.7" width="16" height="16"/>
    </clipPath>
    <clipPath id="clippath-37">
      <rect class="cls-3" x="402.98" y="250.07" width="16" height="16"/>
    </clipPath>
    <clipPath id="clippath-38">
      <rect class="cls-3" x="55.72" y="18.12" width="372.19" height="277.2"/>
    </clipPath>
    <clipPath id="clippath-39">
      <rect class="cls-3" x="64.63" y="258.52" width="16" height="16"/>
    </clipPath>
    <clipPath id="clippath-40">
      <rect class="cls-3" x="106.93" y="243.51" width="16" height="16"/>
    </clipPath>
    <clipPath id="clippath-41">
      <rect class="cls-3" x="149.22" y="223.13" width="16" height="16"/>
    </clipPath>
    <clipPath id="clippath-42">
      <rect class="cls-3" x="191.51" y="200.97" width="16" height="16"/>
    </clipPath>
    <clipPath id="clippath-43">
      <rect class="cls-3" x="233.81" y="172.66" width="16" height="16"/>
    </clipPath>
    <clipPath id="clippath-44">
      <rect class="cls-3" x="276.1" y="144.15" width="16" height="16"/>
    </clipPath>
    <clipPath id="clippath-45">
      <rect class="cls-3" x="318.4" y="107.93" width="16" height="16"/>
    </clipPath>
    <clipPath id="clippath-46">
      <rect class="cls-3" x="360.69" y="72.49" width="16" height="16"/>
    </clipPath>
    <clipPath id="clippath-47">
      <rect class="cls-3" x="402.98" y="22.72" width="16" height="16"/>
    </clipPath>
    <clipPath id="clippath-48">
      <rect class="cls-3" x="55.72" y="18.12" width="372.19" height="277.2"/>
    </clipPath>
    <clipPath id="clippath-49">
      <rect class="cls-3" x="64.63" y="272.97" width="16" height="16"/>
    </clipPath>
    <clipPath id="clippath-50">
      <rect class="cls-3" x="106.93" y="270.08" width="16" height="16"/>
    </clipPath>
    <clipPath id="clippath-51">
      <rect class="cls-3" x="149.22" y="266.69" width="16" height="16"/>
    </clipPath>
    <clipPath id="clippath-52">
      <rect class="cls-3" x="191.51" y="263.05" width="16" height="16"/>
    </clipPath>
    <clipPath id="clippath-53">
      <rect class="cls-3" x="233.81" y="259.36" width="16" height="16"/>
    </clipPath>
    <clipPath id="clippath-54">
      <rect class="cls-3" x="276.1" y="255.34" width="16" height="16"/>
    </clipPath>
    <clipPath id="clippath-55">
      <rect class="cls-3" x="318.4" y="251.44" width="16" height="16"/>
    </clipPath>
    <clipPath id="clippath-56">
      <rect class="cls-3" x="360.69" y="247.28" width="16" height="16"/>
    </clipPath>
    <clipPath id="clippath-57">
      <rect class="cls-3" x="402.98" y="243.16" width="16" height="16"/>
    </clipPath>
  </defs>
  <rect class="cls-19" width="435.1" height="337.71"/>
  <rect class="cls-19" x="55.72" y="18.12" width="372.19" height="277.2"/>
  <g class="cls-48">
    <line class="cls-10" x1="72.63" y1="295.32" x2="72.63" y2="18.12"/>
  </g>
  <line class="cls-17" x1="72.63" y1="295.32" x2="72.63" y2="298.82"/>
  <line class="cls-11" x1="72.63" y1="295.32" x2="72.63" y2="298.82"/>
  <polygon class="cls-17" points="62.74 309.09 64.35 309.09 64.35 303.53 62.6 303.88 62.6 302.98 64.34 302.63 65.33 302.63 65.33 309.09 66.94 309.09 66.94 309.92 62.74 309.92 62.74 309.09"/>
  <path class="cls-17" d="M71.04,302.5c.81,0,1.43.33,1.87.97.43.65.65,1.59.65,2.81s-.22,2.17-.65,2.81c-.44.64-1.06.96-1.88.96s-1.44-.32-1.87-.96-.64-1.58-.64-2.81.21-2.16.64-2.81c.43-.64,1.06-.97,1.88-.97ZM71.04,303.28c-.51,0-.89.25-1.15.75s-.38,1.25-.38,2.25.12,1.75.38,2.25.64.75,1.15.75.89-.25,1.15-.75c.25-.5.38-1.25.38-2.25s-.13-1.75-.38-2.25c-.26-.5-.64-.75-1.15-.75Z"/>
  <rect class="cls-17" x="75.29" y="308.68" width="1.03" height="1.24"/>
  <path class="cls-17" d="M80.58,302.5c.81,0,1.43.33,1.87.97.43.65.65,1.59.65,2.81s-.22,2.17-.65,2.81c-.44.64-1.06.96-1.88.96s-1.44-.32-1.87-.96-.64-1.58-.64-2.81.21-2.16.64-2.81c.43-.64,1.06-.97,1.88-.97ZM80.58,303.28c-.51,0-.89.25-1.15.75s-.38,1.25-.38,2.25.12,1.75.38,2.25.64.75,1.15.75.89-.25,1.15-.75c.25-.5.38-1.25.38-2.25s-.13-1.75-.38-2.25c-.26-.5-.64-.75-1.15-.75Z"/>
  <g class="cls-36">
    <line class="cls-10" x1="114.93" y1="295.32" x2="114.93" y2="18.12"/>
  </g>
  <line class="cls-17" x1="114.93" y1="295.32" x2="114.93" y2="298.82"/>
  <line class="cls-11" x1="114.93" y1="295.32" x2="114.93" y2="298.82"/>
  <polygon class="cls-17" points="105.03 309.09 106.64 309.09 106.64 303.53 104.89 303.88 104.89 302.98 106.63 302.63 107.62 302.63 107.62 309.09 109.23 309.09 109.23 309.92 105.03 309.92 105.03 309.09"/>
  <path class="cls-17" d="M112.07,309.09h3.44v.83h-4.63v-.83c.37-.38.88-.9,1.53-1.56.64-.65,1.05-1.07,1.22-1.26.32-.35.54-.65.66-.9.12-.24.19-.49.19-.73,0-.38-.14-.7-.41-.94-.27-.24-.62-.37-1.06-.37-.31,0-.64.06-.98.16-.34.11-.71.27-1.1.49v-1c.4-.16.77-.28,1.11-.36.34-.08.66-.12.95-.12.75,0,1.35.19,1.8.57.45.38.68.88.68,1.51,0,.3-.06.59-.17.85-.11.27-.31.59-.61.95-.08.1-.34.37-.78.82-.44.45-1.05,1.08-1.84,1.89Z"/>
  <rect class="cls-17" x="117.58" y="308.68" width="1.03" height="1.24"/>
  <path class="cls-17" d="M120.77,302.63h3.87v.83h-2.97v1.79c.14-.05.29-.09.43-.11.14-.02.29-.04.43-.04.81,0,1.45.23,1.93.67.48.45.72,1.05.72,1.81s-.25,1.4-.74,1.83-1.18.64-2.06.64c-.31,0-.62-.03-.94-.07-.32-.05-.64-.12-.98-.23v-.99c.29.16.59.28.91.36.31.08.64.11.99.11.56,0,1.01-.14,1.34-.44.32-.3.49-.7.49-1.21s-.17-.9-.49-1.2c-.33-.3-.78-.45-1.34-.45-.26,0-.53.03-.79.09-.26.06-.53.15-.8.27v-3.66Z"/>
  <g class="cls-23">
    <line class="cls-10" x1="157.22" y1="295.32" x2="157.22" y2="18.12"/>
  </g>
  <line class="cls-17" x1="157.22" y1="295.32" x2="157.22" y2="298.82"/>
  <line class="cls-11" x1="157.22" y1="295.32" x2="157.22" y2="298.82"/>
  <polygon class="cls-17" points="147.33 309.09 148.94 309.09 148.94 303.53 147.19 303.88 147.19 302.98 148.93 302.63 149.92 302.63 149.92 309.09 151.53 309.09 151.53 309.92 147.33 309.92 147.33 309.09"/>
  <path class="cls-17" d="M153.53,302.63h3.87v.83h-2.97v1.79c.14-.05.29-.09.43-.11s.29-.04.43-.04c.81,0,1.45.23,1.93.67.48.45.72,1.05.72,1.81s-.25,1.4-.74,1.83-1.18.64-2.06.64c-.31,0-.62-.03-.94-.07-.32-.05-.64-.12-.98-.23v-.99c.29.16.59.28.91.36.31.08.64.11.99.11.56,0,1.01-.14,1.34-.44.32-.3.49-.7.49-1.21s-.17-.9-.49-1.2c-.33-.3-.78-.45-1.34-.45-.26,0-.53.03-.79.09-.26.06-.53.15-.8.27v-3.66Z"/>
  <rect class="cls-17" x="159.88" y="308.68" width="1.03" height="1.24"/>
  <path class="cls-17" d="M165.17,302.5c.81,0,1.43.33,1.87.97.43.65.65,1.59.65,2.81s-.22,2.17-.65,2.81c-.44.64-1.06.96-1.88.96s-1.44-.32-1.87-.96c-.43-.64-.64-1.58-.64-2.81s.21-2.16.64-2.81c.43-.64,1.06-.97,1.88-.97ZM165.17,303.28c-.51,0-.89.25-1.15.75s-.38,1.25-.38,2.25.12,1.75.38,2.25.64.75,1.15.75.89-.25,1.15-.75c.25-.5.38-1.25.38-2.25s-.13-1.75-.38-2.25c-.26-.5-.64-.75-1.15-.75Z"/>
  <g class="cls-55">
    <line class="cls-10" x1="199.51" y1="295.32" x2="199.51" y2="18.12"/>
  </g>
  <line class="cls-17" x1="199.51" y1="295.32" x2="199.51" y2="298.82"/>
  <line class="cls-11" x1="199.51" y1="295.32" x2="199.51" y2="298.82"/>
  <polygon class="cls-17" points="189.62 309.09 191.23 309.09 191.23 303.53 189.48 303.88 189.48 302.98 191.22 302.63 192.21 302.63 192.21 309.09 193.82 309.09 193.82 309.92 189.62 309.92 189.62 309.09"/>
  <polygon class="cls-17" points="195.56 302.63 200.25 302.63 200.25 303.05 197.6 309.92 196.57 309.92 199.06 303.46 195.56 303.46 195.56 302.63"/>
  <rect class="cls-17" x="202.17" y="308.68" width="1.03" height="1.24"/>
  <path class="cls-17" d="M205.36,302.63h3.87v.83h-2.97v1.79c.14-.05.29-.09.43-.11s.29-.04.43-.04c.81,0,1.45.23,1.93.67.48.45.72,1.05.72,1.81s-.25,1.4-.74,1.83-1.18.64-2.06.64c-.31,0-.62-.03-.94-.07-.32-.05-.64-.12-.98-.23v-.99c.29.16.59.28.91.36.31.08.64.11.99.11.56,0,1.01-.14,1.34-.44.32-.3.49-.7.49-1.21s-.17-.9-.49-1.2c-.33-.3-.78-.45-1.34-.45-.26,0-.53.03-.79.09-.26.06-.53.15-.8.27v-3.66Z"/>
  <g class="cls-37">
    <line class="cls-10" x1="241.81" y1="295.32" x2="241.81" y2="18.12"/>
  </g>
  <line class="cls-17" x1="241.81" y1="295.32" x2="241.81" y2="298.82"/>
  <line class="cls-11" x1="241.81" y1="295.32" x2="241.81" y2="298.82"/>
  <path class="cls-17" d="M232.6,309.09h3.44v.83h-4.63v-.83c.37-.38.88-.9,1.53-1.56.64-.65,1.05-1.07,1.22-1.26.32-.35.54-.65.66-.9.12-.24.19-.49.19-.73,0-.38-.14-.7-.41-.94-.27-.24-.62-.37-1.06-.37-.31,0-.64.06-.98.16-.34.11-.71.27-1.1.49v-1c.4-.16.77-.28,1.11-.36.34-.08.66-.12.95-.12.75,0,1.35.19,1.8.57.45.38.68.88.68,1.51,0,.3-.06.59-.17.85-.11.27-.31.59-.61.95-.08.1-.34.37-.78.82-.44.45-1.05,1.08-1.84,1.89Z"/>
  <path class="cls-17" d="M240.22,302.5c.81,0,1.43.33,1.87.97.43.65.65,1.59.65,2.81s-.22,2.17-.65,2.81c-.44.64-1.06.96-1.88.96s-1.44-.32-1.87-.96c-.43-.64-.64-1.58-.64-2.81s.21-2.16.64-2.81c.43-.64,1.06-.97,1.88-.97ZM240.22,303.28c-.51,0-.89.25-1.15.75s-.38,1.25-.38,2.25.12,1.75.38,2.25.64.75,1.15.75.89-.25,1.15-.75c.25-.5.38-1.25.38-2.25s-.13-1.75-.38-2.25c-.26-.5-.64-.75-1.15-.75Z"/>
  <rect class="cls-17" x="244.47" y="308.68" width="1.03" height="1.24"/>
  <path class="cls-17" d="M249.76,302.5c.81,0,1.43.33,1.87.97.43.65.65,1.59.65,2.81s-.22,2.17-.65,2.81c-.44.64-1.06.96-1.88.96s-1.44-.32-1.87-.96c-.43-.64-.64-1.58-.64-2.81s.21-2.16.64-2.81c.43-.64,1.06-.97,1.88-.97ZM249.76,303.28c-.51,0-.89.25-1.15.75s-.38,1.25-.38,2.25.12,1.75.38,2.25.64.75,1.15.75.89-.25,1.15-.75c.25-.5.38-1.25.38-2.25s-.13-1.75-.38-2.25c-.26-.5-.64-.75-1.15-.75Z"/>
  <g class="cls-63">
    <line class="cls-10" x1="284.1" y1="295.32" x2="284.1" y2="18.12"/>
  </g>
  <line class="cls-17" x1="284.1" y1="295.32" x2="284.1" y2="298.82"/>
  <line class="cls-11" x1="284.1" y1="295.32" x2="284.1" y2="298.82"/>
  <path class="cls-17" d="M274.89,309.09h3.44v.83h-4.63v-.83c.37-.38.88-.9,1.53-1.56.64-.65,1.05-1.07,1.22-1.26.32-.35.54-.65.66-.9.12-.24.19-.49.19-.73,0-.38-.14-.7-.41-.94-.27-.24-.62-.37-1.06-.37-.31,0-.64.06-.98.16-.34.11-.71.27-1.1.49v-1c.4-.16.77-.28,1.11-.36.34-.08.66-.12.95-.12.75,0,1.35.19,1.8.57.45.38.68.88.68,1.51,0,.3-.06.59-.17.85-.11.27-.31.59-.61.95-.08.1-.34.37-.78.82-.44.45-1.05,1.08-1.84,1.89Z"/>
  <path class="cls-17" d="M281.25,309.09h3.44v.83h-4.63v-.83c.37-.38.88-.9,1.53-1.56.64-.65,1.05-1.07,1.22-1.26.32-.35.54-.65.66-.9.12-.24.19-.49.19-.73,0-.38-.14-.7-.41-.94-.27-.24-.62-.37-1.06-.37-.31,0-.64.06-.98.16-.34.11-.71.27-1.1.49v-1c.4-.16.77-.28,1.11-.36.34-.08.66-.12.95-.12.75,0,1.35.19,1.8.57.45.38.68.88.68,1.51,0,.3-.06.59-.17.85-.11.27-.31.59-.61.95-.08.1-.34.37-.78.82-.44.45-1.05,1.08-1.84,1.89Z"/>
  <rect class="cls-17" x="286.76" y="308.68" width="1.03" height="1.24"/>
  <path class="cls-17" d="M289.95,302.63h3.87v.83h-2.97v1.79c.14-.05.29-.09.43-.11.14-.02.29-.04.43-.04.81,0,1.45.23,1.93.67.48.45.72,1.05.72,1.81s-.25,1.4-.74,1.83-1.18.64-2.06.64c-.31,0-.62-.03-.94-.07-.32-.05-.64-.12-.98-.23v-.99c.29.16.59.28.91.36.31.08.64.11.99.11.56,0,1.01-.14,1.34-.44.32-.3.49-.7.49-1.21s-.17-.9-.49-1.2c-.33-.3-.78-.45-1.34-.45-.26,0-.53.03-.79.09-.26.06-.53.15-.8.27v-3.66Z"/>
  <g class="cls-29">
    <line class="cls-10" x1="326.4" y1="295.32" x2="326.4" y2="18.12"/>
  </g>
  <line class="cls-17" x1="326.4" y1="295.32" x2="326.4" y2="298.82"/>
  <line class="cls-11" x1="326.4" y1="295.32" x2="326.4" y2="298.82"/>
  <path class="cls-17" d="M317.18,309.09h3.44v.83h-4.63v-.83c.37-.38.88-.9,1.53-1.56.64-.65,1.05-1.07,1.22-1.26.32-.35.54-.65.66-.9.12-.24.19-.49.19-.73,0-.38-.14-.7-.41-.94-.27-.24-.62-.37-1.06-.37-.31,0-.64.06-.98.16-.34.11-.71.27-1.1.49v-1c.4-.16.77-.28,1.11-.36.34-.08.66-.12.95-.12.75,0,1.35.19,1.8.57.45.38.68.88.68,1.51,0,.3-.06.59-.17.85-.11.27-.31.59-.61.95-.08.1-.34.37-.78.82-.44.45-1.05,1.08-1.84,1.89Z"/>
  <path class="cls-17" d="M322.7,302.63h3.87v.83h-2.97v1.79c.14-.05.29-.09.43-.11.14-.02.29-.04.43-.04.81,0,1.45.23,1.93.67.48.45.72,1.05.72,1.81s-.25,1.4-.74,1.83-1.18.64-2.06.64c-.31,0-.62-.03-.94-.07-.32-.05-.64-.12-.98-.23v-.99c.29.16.59.28.91.36.31.08.64.11.99.11.56,0,1.01-.14,1.34-.44.32-.3.49-.7.49-1.21s-.17-.9-.49-1.2c-.33-.3-.78-.45-1.34-.45-.26,0-.53.03-.79.09-.26.06-.53.15-.8.27v-3.66Z"/>
  <rect class="cls-17" x="329.05" y="308.68" width="1.03" height="1.24"/>
  <path class="cls-17" d="M334.34,302.5c.81,0,1.43.33,1.87.97.43.65.65,1.59.65,2.81s-.22,2.17-.65,2.81c-.44.64-1.06.96-1.88.96s-1.44-.32-1.87-.96c-.43-.64-.64-1.58-.64-2.81s.21-2.16.64-2.81c.43-.64,1.06-.97,1.88-.97ZM334.34,303.28c-.51,0-.89.25-1.15.75s-.38,1.25-.38,2.25.12,1.75.38,2.25.64.75,1.15.75.89-.25,1.15-.75c.25-.5.38-1.25.38-2.25s-.13-1.75-.38-2.25c-.26-.5-.64-.75-1.15-.75Z"/>
  <g class="cls-32">
    <line class="cls-10" x1="368.69" y1="295.32" x2="368.69" y2="18.12"/>
  </g>
  <line class="cls-17" x1="368.69" y1="295.32" x2="368.69" y2="298.82"/>
  <line class="cls-11" x1="368.69" y1="295.32" x2="368.69" y2="298.82"/>
  <path class="cls-17" d="M359.48,309.09h3.44v.83h-4.63v-.83c.37-.38.88-.9,1.53-1.56.64-.65,1.05-1.07,1.22-1.26.32-.35.54-.65.66-.9.12-.24.19-.49.19-.73,0-.38-.14-.7-.41-.94-.27-.24-.62-.37-1.06-.37-.31,0-.64.06-.98.16-.34.11-.71.27-1.1.49v-1c.4-.16.77-.28,1.11-.36.34-.08.66-.12.95-.12.75,0,1.35.19,1.8.57.45.38.68.88.68,1.51,0,.3-.06.59-.17.85-.11.27-.31.59-.61.95-.08.1-.34.37-.78.82-.44.45-1.05,1.08-1.84,1.89Z"/>
  <polygon class="cls-17" points="364.74 302.63 369.43 302.63 369.43 303.05 366.78 309.92 365.75 309.92 368.24 303.46 364.74 303.46 364.74 302.63"/>
  <rect class="cls-17" x="371.35" y="308.68" width="1.03" height="1.24"/>
  <path class="cls-17" d="M374.54,302.63h3.87v.83h-2.97v1.79c.14-.05.29-.09.43-.11.14-.02.29-.04.43-.04.81,0,1.45.23,1.93.67.48.45.72,1.05.72,1.81s-.25,1.4-.74,1.83-1.18.64-2.06.64c-.31,0-.62-.03-.94-.07-.32-.05-.64-.12-.98-.23v-.99c.29.16.59.28.91.36.31.08.64.11.99.11.56,0,1.01-.14,1.34-.44.32-.3.49-.7.49-1.21s-.17-.9-.49-1.2c-.33-.3-.78-.45-1.34-.45-.26,0-.53.03-.79.09-.26.06-.53.15-.8.27v-3.66Z"/>
  <g class="cls-57">
    <line class="cls-10" x1="410.98" y1="295.32" x2="410.98" y2="18.12"/>
  </g>
  <line class="cls-17" x1="410.98" y1="295.32" x2="410.98" y2="298.82"/>
  <line class="cls-11" x1="410.98" y1="295.32" x2="410.98" y2="298.82"/>
  <path class="cls-17" d="M403.91,305.99c.47.1.84.31,1.1.63.26.32.4.72.4,1.18,0,.72-.25,1.28-.74,1.67-.5.39-1.2.58-2.11.58-.31,0-.63-.03-.95-.09-.32-.05-.66-.14-1-.26v-.95c.27.16.57.28.9.36.32.08.66.12,1.02.12.62,0,1.09-.12,1.41-.36.32-.24.49-.6.49-1.07,0-.42-.15-.76-.45-1-.3-.24-.72-.37-1.26-.37h-.85v-.81h.89c.48,0,.85-.09,1.11-.29.26-.19.39-.47.39-.84s-.14-.66-.4-.86c-.27-.2-.65-.3-1.14-.3-.27,0-.56.03-.87.09s-.65.15-1.02.27v-.88c.37-.1.72-.18,1.05-.23.32-.05.63-.08.93-.08.74,0,1.33.17,1.77.51s.66.8.66,1.38c0,.4-.12.74-.35,1.02-.23.28-.56.48-.98.58Z"/>
  <path class="cls-17" d="M409.39,302.5c.81,0,1.43.33,1.87.97.43.65.65,1.59.65,2.81s-.22,2.17-.65,2.81c-.44.64-1.06.96-1.88.96s-1.44-.32-1.87-.96c-.43-.64-.64-1.58-.64-2.81s.21-2.16.64-2.81c.43-.64,1.06-.97,1.88-.97ZM409.39,303.28c-.51,0-.89.25-1.15.75s-.38,1.25-.38,2.25.12,1.75.38,2.25.64.75,1.15.75.89-.25,1.15-.75c.25-.5.38-1.25.38-2.25s-.13-1.75-.38-2.25c-.26-.5-.64-.75-1.15-.75Z"/>
  <rect class="cls-17" x="413.64" y="308.68" width="1.03" height="1.24"/>
  <path class="cls-17" d="M418.93,302.5c.81,0,1.43.33,1.87.97.43.65.65,1.59.65,2.81s-.22,2.17-.65,2.81c-.44.64-1.06.96-1.88.96s-1.44-.32-1.87-.96c-.43-.64-.64-1.58-.64-2.81s.21-2.16.64-2.81c.43-.64,1.06-.97,1.88-.97ZM418.93,303.28c-.51,0-.89.25-1.15.75s-.38,1.25-.38,2.25.12,1.75.38,2.25.64.75,1.15.75.89-.25,1.15-.75c.25-.5.38-1.25.38-2.25s-.13-1.75-.38-2.25c-.26-.5-.64-.75-1.15-.75Z"/>
  <path class="cls-17" d="M122.59,317.66v3.89h1.86c.71,0,1.24-.17,1.6-.5s.56-.81.56-1.45-.19-1.11-.56-1.44c-.36-.33-.9-.5-1.6-.5h-1.86ZM126.3,322.25c.31.12.63.34.93.69.3.36.6.84.9,1.45l1.5,2.98h-1.59l-1.39-2.81c-.36-.72-.72-1.21-1.05-1.45-.35-.24-.81-.36-1.4-.36h-1.6v4.62h-1.49v-10.94h3.35c1.24,0,2.17.27,2.79.78.61.52.93,1.32.93,2.37,0,.69-.17,1.28-.48,1.73-.33.45-.79.77-1.39.93Z"/>
  <path class="cls-17" d="M136.47,322.55c-.01-.73-.23-1.32-.62-1.77-.4-.44-.94-.66-1.6-.66-.75,0-1.35.22-1.8.64s-.72,1.02-.78,1.78h4.8ZM137.82,322.94v.66h-6.19c.06.93.33,1.65.84,2.13.5.48,1.18.72,2.09.72.51,0,1.02-.06,1.5-.18.48-.12.97-.32,1.46-.59v1.27c-.48.21-.98.38-1.49.47-.51.09-1.04.15-1.54.15-1.32,0-2.36-.38-3.12-1.12s-1.14-1.78-1.14-3.09.36-2.4,1.08-3.2c.72-.78,1.71-1.18,2.94-1.18,1.11,0,1.98.36,2.62,1.07.63.72.96,1.68.96,2.9Z"/>
  <path class="cls-17" d="M145.43,326.15c-.29.5-.65.86-1.08,1.08-.43.22-.94.34-1.54.34-.99,0-1.8-.39-2.43-1.17-.63-.78-.93-1.83-.93-3.12s.3-2.32.93-3.12c.63-.78,1.44-1.18,2.43-1.18.6,0,1.11.12,1.54.36s.79.6,1.08,1.08v-1.24h1.35v11.31h-1.35v-4.34ZM140.84,323.29c0,.99.19,1.77.6,2.34.4.57.96.84,1.68.84s1.27-.27,1.7-.84c.4-.57.61-1.35.61-2.34s-.21-1.75-.61-2.32c-.42-.57-.98-.86-1.7-.86s-1.27.28-1.68.86c-.41.57-.6,1.33-.6,2.32Z"/>
  <path class="cls-17" d="M152.8,318.98h0ZM149.41,324.14v-4.96h1.35v4.92c0,.78.15,1.35.45,1.74s.75.59,1.37.59c.72,0,1.3-.23,1.72-.69.42-.46.63-1.09.63-1.9v-4.65h1.35v8.2h-1.35v-1.26c-.33.51-.72.87-1.14,1.11-.43.22-.93.34-1.5.34-.94,0-1.66-.28-2.15-.87-.49-.57-.74-1.43-.74-2.57Z"/>
  <path class="cls-17" d="M164.73,322.55c-.01-.73-.23-1.32-.62-1.77-.4-.44-.94-.66-1.6-.66-.75,0-1.35.22-1.8.64s-.72,1.02-.78,1.78h4.8ZM166.08,322.94v.66h-6.19c.06.93.33,1.65.84,2.13.5.48,1.18.72,2.09.72.51,0,1.02-.06,1.5-.18.48-.12.97-.32,1.46-.59v1.27c-.48.21-.98.38-1.49.47-.51.09-1.04.15-1.54.15-1.32,0-2.36-.38-3.12-1.12s-1.14-1.78-1.14-3.09.36-2.4,1.08-3.2c.72-.78,1.71-1.18,2.94-1.18,1.11,0,1.98.36,2.62,1.07.63.72.96,1.68.96,2.9Z"/>
  <path class="cls-17" d="M173.52,319.42v1.28c-.39-.18-.78-.33-1.18-.44-.42-.09-.84-.15-1.28-.15-.68,0-1.18.11-1.51.32s-.49.51-.49.92c0,.31.12.55.36.73.24.18.72.36,1.44.51l.46.1c.96.21,1.63.51,2.04.87.39.38.6.9.6,1.56,0,.77-.3,1.37-.9,1.8-.6.45-1.44.66-2.49.66-.45,0-.9-.05-1.38-.12s-.97-.19-1.5-.38v-1.39c.49.27.99.46,1.47.59.48.13.96.19,1.44.19.63,0,1.12-.1,1.47-.32.33-.21.51-.52.51-.93,0-.36-.13-.65-.38-.84-.24-.2-.78-.39-1.62-.57l-.46-.1c-.84-.18-1.46-.45-1.82-.81-.38-.36-.56-.86-.56-1.5,0-.77.27-1.36.81-1.79.54-.42,1.32-.63,2.34-.63.49,0,.96.05,1.41.12.43.08.84.18,1.21.31Z"/>
  <path class="cls-17" d="M177.44,316.85v2.33h2.78v1.05h-2.78v4.45c0,.67.09,1.11.27,1.29.18.19.56.28,1.12.28h1.38v1.12h-1.38c-1.05,0-1.77-.19-2.16-.59s-.58-1.1-.58-2.11v-4.45h-.99v-1.05h.99v-2.33h1.35Z"/>
  <path class="cls-17" d="M191.5,320.44c-.15-.09-.31-.15-.49-.19-.18-.03-.38-.06-.58-.06-.76,0-1.35.25-1.76.75-.42.49-.62,1.2-.62,2.13v4.32h-1.35v-8.2h1.35v1.27c.27-.49.65-.87,1.1-1.11s1.01-.36,1.67-.36c.09,0,.19.02.31.02.11.01.23.03.38.06v1.38Z"/>
  <path class="cls-17" d="M199.33,322.7v4.68h-1.35v-1.24c-.32.51-.71.87-1.15,1.1-.45.22-1.02.34-1.68.34-.84,0-1.51-.22-2.01-.69-.49-.47-.74-1.1-.74-1.89,0-.91.3-1.61.93-2.09.62-.47,1.53-.7,2.76-.7h1.89v-.14c0-.61-.21-1.09-.61-1.44-.4-.33-.98-.51-1.71-.51-.48,0-.93.06-1.38.18-.45.12-.87.29-1.27.5v-1.25c.48-.18.96-.33,1.43-.42s.91-.15,1.36-.15c1.19,0,2.07.32,2.66.93.58.61.88,1.55.88,2.79ZM196.65,323.26c-1.1,0-1.85.13-2.26.38-.42.26-.63.68-.63,1.27,0,.48.15.87.46,1.14.32.28.75.42,1.29.42.75,0,1.35-.26,1.8-.8.45-.52.68-1.23.68-2.11v-.3h-1.33Z"/>
  <path class="cls-17" d="M203.44,316.85v2.33h2.78v1.05h-2.78v4.45c0,.67.09,1.11.27,1.29.18.19.56.28,1.12.28h1.38v1.12h-1.38c-1.05,0-1.77-.19-2.16-.59s-.58-1.1-.58-2.11v-4.45h-.99v-1.05h.99v-2.33h1.35Z"/>
  <path class="cls-17" d="M213.66,322.55c-.01-.73-.23-1.32-.62-1.77-.4-.44-.94-.66-1.6-.66-.75,0-1.35.22-1.8.64s-.72,1.02-.78,1.78h4.8ZM215.01,322.94v.66h-6.19c.06.93.33,1.65.84,2.13.5.48,1.18.72,2.09.72.51,0,1.02-.06,1.5-.18.48-.12.97-.32,1.46-.59v1.27c-.48.21-.98.38-1.49.47-.51.09-1.04.15-1.54.15-1.32,0-2.36-.38-3.12-1.12s-1.14-1.78-1.14-3.09.36-2.4,1.08-3.2c.72-.78,1.71-1.18,2.94-1.18,1.11,0,1.98.36,2.62,1.07.63.72.96,1.68.96,2.9Z"/>
  <path class="cls-17" d="M225.22,316c-.66,1.14-1.14,2.25-1.45,3.34-.33,1.09-.48,2.2-.48,3.33s.15,2.25.48,3.35c.31,1.11.79,2.2,1.45,3.33h-1.17c-.74-1.15-1.29-2.27-1.65-3.38s-.54-2.21-.54-3.3.18-2.17.54-3.28.9-2.24,1.65-3.39h1.17Z"/>
  <path class="cls-17" d="M233.73,323.29c0-.99-.21-1.75-.61-2.32-.42-.57-.98-.86-1.68-.86s-1.27.28-1.68.86c-.42.57-.62,1.33-.62,2.32s.2,1.77.62,2.34c.4.57.96.84,1.68.84s1.26-.27,1.68-.84c.4-.57.61-1.35.61-2.34ZM229.14,326.15v4.34h-1.35v-11.31h1.35v1.24c.27-.48.63-.84,1.07-1.08s.96-.36,1.56-.36c.99,0,1.8.41,2.43,1.18.61.8.93,1.83.93,3.12s-.32,2.34-.93,3.12c-.63.78-1.44,1.17-2.43,1.17-.6,0-1.12-.12-1.56-.34-.43-.23-.79-.59-1.07-1.08Z"/>
  <path class="cls-17" d="M243.03,322.55c-.01-.73-.23-1.32-.62-1.77-.4-.44-.94-.66-1.6-.66-.75,0-1.35.22-1.8.64s-.72,1.02-.78,1.78h4.8ZM244.38,322.94v.66h-6.2c.06.93.33,1.65.84,2.13.5.48,1.18.72,2.09.72.51,0,1.02-.06,1.5-.18.48-.12.97-.32,1.46-.59v1.27c-.48.21-.98.38-1.49.47-.51.09-1.04.15-1.54.15-1.32,0-2.36-.38-3.12-1.12s-1.14-1.78-1.14-3.09.36-2.4,1.08-3.2c.72-.78,1.71-1.18,2.94-1.18,1.11,0,1.98.36,2.62,1.07.63.72.96,1.68.96,2.9Z"/>
  <path class="cls-17" d="M251.34,320.44c-.15-.09-.31-.15-.49-.19-.18-.03-.38-.06-.58-.06-.76,0-1.35.25-1.76.75-.42.49-.62,1.2-.62,2.13v4.32h-1.35v-8.2h1.35v1.27c.27-.49.65-.87,1.1-1.11s1.01-.36,1.67-.36c.09,0,.19.02.31.02.11.01.23.03.38.06v1.38Z"/>
  <path class="cls-17" d="M262.75,319.42v1.28c-.39-.18-.78-.33-1.18-.44-.42-.09-.84-.15-1.27-.15-.67,0-1.18.11-1.51.32-.33.21-.5.51-.5.92,0,.31.12.55.36.73s.72.36,1.44.51l.46.1c.96.21,1.64.51,2.04.87.39.38.6.9.6,1.56,0,.77-.3,1.37-.9,1.8-.6.45-1.44.66-2.49.66-.45,0-.9-.05-1.38-.12s-.98-.19-1.5-.38v-1.39c.49.27.99.46,1.47.59.48.13.96.19,1.44.19.63,0,1.12-.1,1.47-.32.33-.21.51-.52.51-.93,0-.36-.14-.65-.38-.84-.24-.2-.78-.39-1.62-.57l-.46-.1c-.84-.18-1.45-.45-1.82-.81-.38-.36-.55-.86-.55-1.5,0-.77.27-1.36.81-1.79.54-.42,1.32-.63,2.34-.63.5,0,.96.05,1.41.12.43.08.84.18,1.21.31Z"/>
  <path class="cls-17" d="M271,322.55c-.01-.73-.22-1.32-.61-1.77-.4-.44-.95-.66-1.61-.66-.75,0-1.35.22-1.8.64s-.72,1.02-.78,1.78h4.8ZM272.35,322.94v.66h-6.2c.06.93.33,1.65.84,2.13.49.48,1.18.72,2.08.72.51,0,1.02-.06,1.5-.18.48-.12.98-.32,1.45-.59v1.27c-.48.21-.97.38-1.48.47s-1.04.15-1.55.15c-1.32,0-2.35-.38-3.12-1.12-.76-.75-1.14-1.78-1.14-3.09s.36-2.4,1.08-3.2c.72-.78,1.71-1.18,2.94-1.18,1.11,0,1.98.36,2.62,1.07.63.72.96,1.68.96,2.9Z"/>
  <path class="cls-17" d="M280.47,319.49v1.26c-.39-.21-.77-.36-1.15-.47-.39-.1-.77-.16-1.15-.16-.87,0-1.56.28-2.04.84-.48.55-.72,1.33-.72,2.32s.24,1.78.72,2.34,1.17.82,2.04.82c.39,0,.76-.05,1.15-.15.39-.11.76-.27,1.15-.48v1.25c-.39.18-.78.31-1.17.39-.4.07-.84.12-1.29.12-1.23,0-2.22-.38-2.94-1.15-.74-.77-1.1-1.82-1.1-3.14s.36-2.39,1.1-3.15c.73-.76,1.74-1.16,3.03-1.16.42,0,.82.05,1.21.14.39.09.78.21,1.15.38Z"/>
  <polygon class="cls-17" points="283.15 325.52 284.7 325.52 284.7 326.78 283.5 329.11 282.55 329.11 283.15 326.78 283.15 325.52"/>
  <path class="cls-17" d="M298.24,323.29c0-.99-.21-1.75-.61-2.32-.42-.57-.98-.86-1.68-.86s-1.28.28-1.68.86c-.42.57-.61,1.33-.61,2.32s.2,1.77.61,2.34c.4.57.96.84,1.68.84s1.26-.27,1.68-.84c.4-.57.61-1.35.61-2.34ZM293.65,326.15v4.34h-1.35v-11.31h1.35v1.24c.27-.48.63-.84,1.07-1.08s.96-.36,1.56-.36c.99,0,1.8.41,2.43,1.18.62.8.93,1.83.93,3.12s-.32,2.34-.93,3.12c-.63.78-1.44,1.17-2.43,1.17-.6,0-1.12-.12-1.56-.34-.43-.23-.8-.59-1.07-1.08Z"/>
  <path class="cls-17" d="M307.54,322.55c-.01-.73-.22-1.32-.61-1.77-.4-.44-.95-.66-1.61-.66-.75,0-1.35.22-1.8.64s-.72,1.02-.78,1.78h4.8ZM308.89,322.94v.66h-6.2c.06.93.33,1.65.84,2.13.49.48,1.18.72,2.08.72.51,0,1.02-.06,1.5-.18.48-.12.98-.32,1.45-.59v1.27c-.48.21-.97.38-1.48.47s-1.04.15-1.55.15c-1.32,0-2.35-.38-3.12-1.12-.76-.75-1.14-1.78-1.14-3.09s.36-2.4,1.08-3.2c.72-.78,1.71-1.18,2.94-1.18,1.11,0,1.98.36,2.62,1.07.63.72.96,1.68.96,2.9Z"/>
  <path class="cls-17" d="M315.85,320.44c-.15-.09-.32-.15-.49-.19-.18-.03-.38-.06-.59-.06-.76,0-1.35.25-1.76.75-.42.49-.61,1.2-.61,2.13v4.32h-1.35v-8.2h1.35v1.27c.27-.49.64-.87,1.1-1.11s1.01-.36,1.67-.36c.09,0,.2.02.32.02.1.01.23.03.38.06v1.38Z"/>
  <path class="cls-17" d="M328.86,322.43v4.95h-1.35v-4.9c0-.78-.17-1.35-.46-1.74-.3-.39-.75-.58-1.35-.58-.74,0-1.3.24-1.73.7s-.63,1.1-.63,1.89v4.64h-1.35v-8.2h1.35v1.27c.32-.48.69-.85,1.14-1.09.43-.24.94-.38,1.51-.38.93,0,1.65.3,2.13.89s.74,1.44.74,2.57Z"/>
  <path class="cls-17" d="M334.72,318.98c1.17,0,2.08.39,2.76,1.14.66.76,1.01,1.81,1.01,3.16s-.35,2.4-1.01,3.15c-.68.76-1.59,1.14-2.76,1.14s-2.11-.38-2.77-1.14c-.66-.75-.99-1.8-.99-3.15s.33-2.4.99-3.16c.66-.75,1.59-1.14,2.77-1.14ZM334.72,320.12c-.72,0-1.29.28-1.71.85-.42.57-.63,1.33-.63,2.31s.2,1.76.61,2.32c.42.57.99.84,1.73.84s1.29-.27,1.71-.84c.42-.57.63-1.34.63-2.32s-.21-1.74-.63-2.31c-.42-.57-.99-.85-1.71-.85Z"/>
  <path class="cls-17" d="M341.53,323.29c0,.99.2,1.77.6,2.34s.96.84,1.68.84,1.27-.27,1.7-.84c.4-.57.61-1.35.61-2.34s-.21-1.75-.61-2.32c-.42-.57-.98-.86-1.7-.86s-1.27.28-1.68.86c-.4.57-.6,1.33-.6,2.32ZM346.12,320.42v-4.44h1.35v11.4h-1.35v-1.23c-.29.5-.64.86-1.08,1.08-.43.22-.95.34-1.55.34-.99,0-1.8-.39-2.43-1.17-.63-.78-.93-1.83-.93-3.12s.3-2.32.93-3.12c.63-.78,1.44-1.18,2.43-1.18.6,0,1.11.12,1.55.36s.79.6,1.08,1.08Z"/>
  <path class="cls-17" d="M355.92,322.55c-.01-.73-.22-1.32-.61-1.77-.4-.44-.95-.66-1.61-.66-.75,0-1.35.22-1.8.64s-.72,1.02-.78,1.78h4.8ZM357.27,322.94v.66h-6.2c.06.93.33,1.65.84,2.13.49.48,1.18.72,2.08.72.51,0,1.02-.06,1.5-.18.48-.12.98-.32,1.45-.59v1.27c-.48.21-.97.38-1.48.47s-1.04.15-1.55.15c-1.32,0-2.35-.38-3.12-1.12-.76-.75-1.14-1.78-1.14-3.09s.36-2.4,1.08-3.2c.72-.78,1.71-1.18,2.94-1.18,1.11,0,1.98.36,2.62,1.07.63.72.96,1.68.96,2.9Z"/>
  <path class="cls-17" d="M359.26,316h1.17c.72,1.15,1.27,2.28,1.64,3.39.36,1.11.55,2.2.55,3.28s-.2,2.19-.55,3.3c-.36,1.11-.92,2.22-1.64,3.38h-1.17c.64-1.12,1.12-2.22,1.45-3.33.32-1.1.48-2.21.48-3.35s-.17-2.24-.48-3.33c-.33-1.09-.81-2.2-1.45-3.34Z"/>
  <g class="cls-46">
    <line class="cls-10" x1="55.72" y1="286.35" x2="427.9" y2="286.35"/>
  </g>
  <line class="cls-17" x1="55.72" y1="286.35" x2="52.22" y2="286.35"/>
  <line class="cls-11" x1="55.72" y1="286.35" x2="52.22" y2="286.35"/>
  <path class="cls-17" d="M28.9,282.15c.81,0,1.43.33,1.87.97.43.65.65,1.59.65,2.81s-.22,2.17-.65,2.81c-.44.64-1.06.96-1.88.96s-1.44-.32-1.87-.96c-.43-.64-.64-1.58-.64-2.81s.21-2.16.64-2.81c.43-.64,1.06-.97,1.88-.97ZM28.9,282.93c-.51,0-.89.25-1.15.75s-.38,1.25-.38,2.25.12,1.75.38,2.25.64.75,1.15.75.89-.25,1.15-.75c.25-.5.38-1.25.38-2.25s-.13-1.75-.38-2.25c-.26-.5-.64-.75-1.15-.75Z"/>
  <rect class="cls-17" x="33.15" y="288.33" width="1.03" height="1.24"/>
  <path class="cls-17" d="M38.44,282.15c.81,0,1.43.33,1.87.97.43.65.65,1.59.65,2.81s-.22,2.17-.65,2.81c-.44.64-1.06.96-1.88.96s-1.44-.32-1.87-.96c-.43-.64-.64-1.58-.64-2.81s.21-2.16.64-2.81c.43-.64,1.06-.97,1.88-.97ZM38.44,282.93c-.51,0-.89.25-1.15.75-.26.5-.38,1.25-.38,2.25s.12,1.75.38,2.25c.26.5.64.75,1.15.75s.89-.25,1.15-.75c.25-.5.38-1.25.38-2.25s-.13-1.75-.38-2.25c-.26-.5-.64-.75-1.15-.75Z"/>
  <path class="cls-17" d="M44.8,282.15c.81,0,1.43.33,1.87.97.43.65.65,1.59.65,2.81s-.22,2.17-.65,2.81c-.44.64-1.06.96-1.88.96s-1.44-.32-1.87-.96c-.43-.64-.64-1.58-.64-2.81s.21-2.16.64-2.81c.43-.64,1.06-.97,1.88-.97ZM44.8,282.93c-.51,0-.89.25-1.15.75-.26.5-.38,1.25-.38,2.25s.12,1.75.38,2.25c.26.5.64.75,1.15.75s.89-.25,1.15-.75c.25-.5.38-1.25.38-2.25s-.13-1.75-.38-2.25c-.26-.5-.64-.75-1.15-.75Z"/>
  <g class="cls-65">
    <line class="cls-10" x1="55.72" y1="255.09" x2="427.9" y2="255.09"/>
  </g>
  <line class="cls-17" x1="55.72" y1="255.09" x2="52.22" y2="255.09"/>
  <line class="cls-11" x1="55.72" y1="255.09" x2="52.22" y2="255.09"/>
  <path class="cls-17" d="M29.9,250.89c.81,0,1.43.33,1.87.97.43.65.65,1.59.65,2.81s-.22,2.17-.65,2.81c-.44.64-1.06.96-1.88.96s-1.44-.32-1.87-.96c-.43-.64-.64-1.58-.64-2.81s.21-2.16.64-2.81c.43-.64,1.06-.97,1.88-.97ZM29.9,251.67c-.51,0-.89.25-1.15.75s-.38,1.25-.38,2.25.12,1.75.38,2.25.64.75,1.15.75.89-.25,1.15-.75c.25-.5.38-1.25.38-2.25s-.13-1.75-.38-2.25c-.26-.5-.64-.75-1.15-.75Z"/>
  <rect class="cls-17" x="34.15" y="257.07" width="1.03" height="1.24"/>
  <path class="cls-17" d="M37.68,257.48h3.44v.83h-4.63v-.83c.37-.38.88-.9,1.53-1.56.64-.65,1.05-1.07,1.22-1.26.32-.35.54-.65.66-.9.12-.24.19-.49.19-.73,0-.38-.14-.7-.41-.94-.27-.24-.62-.37-1.06-.37-.31,0-.64.06-.98.16-.34.11-.71.27-1.1.49v-1c.4-.16.77-.28,1.11-.36.34-.08.66-.12.95-.12.75,0,1.35.19,1.8.57.45.38.68.88.68,1.51,0,.3-.06.59-.17.85-.11.27-.31.59-.61.95-.08.1-.34.37-.78.82-.44.45-1.05,1.08-1.84,1.89Z"/>
  <path class="cls-17" d="M43.2,251.02h3.87v.83h-2.97v1.79c.14-.05.29-.09.43-.11.14-.02.29-.04.43-.04.81,0,1.45.23,1.93.67.48.45.72,1.05.72,1.81s-.25,1.4-.74,1.83-1.18.64-2.06.64c-.31,0-.62-.03-.94-.07-.32-.05-.64-.12-.98-.23v-.99c.29.16.59.28.91.36.31.08.64.11.99.11.56,0,1.01-.14,1.34-.44.32-.3.49-.7.49-1.21s-.17-.9-.49-1.2c-.33-.3-.78-.45-1.34-.45-.26,0-.53.03-.79.09-.26.06-.53.15-.8.27v-3.66Z"/>
  <g class="cls-14">
    <line class="cls-10" x1="55.72" y1="223.82" x2="427.9" y2="223.82"/>
  </g>
  <line class="cls-17" x1="55.72" y1="223.82" x2="52.22" y2="223.82"/>
  <line class="cls-11" x1="55.72" y1="223.82" x2="52.22" y2="223.82"/>
  <path class="cls-17" d="M28.9,219.62c.81,0,1.43.33,1.87.97.43.65.65,1.59.65,2.81s-.22,2.17-.65,2.81c-.44.64-1.06.96-1.88.96s-1.44-.32-1.87-.96c-.43-.64-.64-1.58-.64-2.81s.21-2.16.64-2.81c.43-.64,1.06-.97,1.88-.97ZM28.9,220.4c-.51,0-.89.25-1.15.75s-.38,1.25-.38,2.25.12,1.75.38,2.25.64.75,1.15.75.89-.25,1.15-.75c.25-.5.38-1.25.38-2.25s-.13-1.75-.38-2.25c-.26-.5-.64-.75-1.15-.75Z"/>
  <rect class="cls-17" x="33.15" y="225.8" width="1.03" height="1.24"/>
  <path class="cls-17" d="M36.34,219.75h3.87v.83h-2.97v1.79c.14-.05.29-.09.43-.11.14-.02.29-.04.43-.04.81,0,1.45.23,1.93.67.48.45.72,1.05.72,1.81s-.25,1.4-.74,1.83-1.18.64-2.06.64c-.31,0-.62-.03-.94-.07-.32-.05-.64-.12-.98-.23v-.99c.29.16.59.28.91.36.31.08.64.11.99.11.56,0,1.01-.14,1.34-.44.32-.3.49-.7.49-1.21s-.17-.9-.49-1.2c-.33-.3-.78-.45-1.34-.45-.26,0-.53.03-.79.09-.26.06-.53.15-.8.27v-3.66Z"/>
  <path class="cls-17" d="M44.8,219.62c.81,0,1.43.33,1.87.97.43.65.65,1.59.65,2.81s-.22,2.17-.65,2.81c-.44.64-1.06.96-1.88.96s-1.44-.32-1.87-.96-.64-1.58-.64-2.81.21-2.16.64-2.81c.43-.64,1.06-.97,1.88-.97ZM44.8,220.4c-.51,0-.89.25-1.15.75-.26.5-.38,1.25-.38,2.25s.12,1.75.38,2.25c.26.5.64.75,1.15.75s.89-.25,1.15-.75c.25-.5.38-1.25.38-2.25s-.13-1.75-.38-2.25c-.26-.5-.64-.75-1.15-.75Z"/>
  <g class="cls-42">
    <line class="cls-10" x1="55.72" y1="192.55" x2="427.9" y2="192.55"/>
  </g>
  <line class="cls-17" x1="55.72" y1="192.55" x2="52.22" y2="192.55"/>
  <line class="cls-11" x1="55.72" y1="192.55" x2="52.22" y2="192.55"/>
  <path class="cls-17" d="M29.9,188.35c.81,0,1.43.33,1.87.97.43.65.65,1.59.65,2.81s-.22,2.17-.65,2.81c-.44.64-1.06.96-1.88.96s-1.44-.32-1.87-.96c-.43-.64-.64-1.58-.64-2.81s.21-2.16.64-2.81c.43-.64,1.06-.97,1.88-.97ZM29.9,189.13c-.51,0-.89.25-1.15.75s-.38,1.25-.38,2.25.12,1.75.38,2.25.64.75,1.15.75.89-.25,1.15-.75c.25-.5.38-1.25.38-2.25s-.13-1.75-.38-2.25c-.26-.5-.64-.75-1.15-.75Z"/>
  <rect class="cls-17" x="34.15" y="194.53" width="1.03" height="1.24"/>
  <polygon class="cls-17" points="36.33 188.48 41.02 188.48 41.02 188.9 38.37 195.77 37.34 195.77 39.83 189.31 36.33 189.31 36.33 188.48"/>
  <path class="cls-17" d="M42.95,188.48h3.87v.83h-2.97v1.79c.14-.05.29-.09.43-.11s.29-.04.43-.04c.81,0,1.45.23,1.93.67.48.45.72,1.05.72,1.81s-.25,1.4-.74,1.83c-.49.43-1.18.64-2.06.64-.31,0-.62-.03-.94-.07-.32-.05-.64-.12-.98-.23v-.99c.29.16.59.28.91.36.31.08.64.11.99.11.56,0,1.01-.14,1.34-.44.32-.3.49-.7.49-1.21s-.17-.9-.49-1.2c-.33-.3-.78-.45-1.34-.45-.26,0-.53.03-.79.09-.26.06-.53.15-.8.27v-3.66Z"/>
  <g class="cls-24">
    <line class="cls-10" x1="55.72" y1="161.29" x2="427.9" y2="161.29"/>
  </g>
  <line class="cls-17" x1="55.72" y1="161.29" x2="52.22" y2="161.29"/>
  <line class="cls-11" x1="55.72" y1="161.29" x2="52.22" y2="161.29"/>
  <polygon class="cls-17" points="26.96 163.68 28.57 163.68 28.57 158.12 26.82 158.47 26.82 157.57 28.56 157.22 29.55 157.22 29.55 163.68 31.16 163.68 31.16 164.51 26.96 164.51 26.96 163.68"/>
  <rect class="cls-17" x="33.15" y="163.27" width="1.03" height="1.24"/>
  <path class="cls-17" d="M38.44,157.09c.81,0,1.43.33,1.87.97.43.65.65,1.59.65,2.81s-.22,2.17-.65,2.81c-.44.64-1.06.96-1.88.96s-1.44-.32-1.87-.96-.64-1.58-.64-2.81.21-2.16.64-2.81c.43-.64,1.06-.97,1.88-.97ZM38.44,157.87c-.51,0-.89.25-1.15.75-.26.5-.38,1.25-.38,2.25s.12,1.75.38,2.25c.26.5.64.75,1.15.75s.89-.25,1.15-.75c.25-.5.38-1.25.38-2.25s-.13-1.75-.38-2.25c-.26-.5-.64-.75-1.15-.75Z"/>
  <path class="cls-17" d="M44.8,157.09c.81,0,1.43.33,1.87.97.43.65.65,1.59.65,2.81s-.22,2.17-.65,2.81c-.44.64-1.06.96-1.88.96s-1.44-.32-1.87-.96-.64-1.58-.64-2.81.21-2.16.64-2.81c.43-.64,1.06-.97,1.88-.97ZM44.8,157.87c-.51,0-.89.25-1.15.75-.26.5-.38,1.25-.38,2.25s.12,1.75.38,2.25c.26.5.64.75,1.15.75s.89-.25,1.15-.75c.25-.5.38-1.25.38-2.25s-.13-1.75-.38-2.25c-.26-.5-.64-.75-1.15-.75Z"/>
  <g class="cls-61">
    <line class="cls-10" x1="55.72" y1="130.02" x2="427.9" y2="130.02"/>
  </g>
  <line class="cls-17" x1="55.72" y1="130.02" x2="52.22" y2="130.02"/>
  <line class="cls-11" x1="55.72" y1="130.02" x2="52.22" y2="130.02"/>
  <polygon class="cls-17" points="27.96 132.41 29.57 132.41 29.57 126.85 27.82 127.2 27.82 126.3 29.56 125.95 30.55 125.95 30.55 132.41 32.16 132.41 32.16 133.24 27.96 133.24 27.96 132.41"/>
  <rect class="cls-17" x="34.15" y="132" width="1.03" height="1.24"/>
  <path class="cls-17" d="M37.68,132.41h3.44v.83h-4.63v-.83c.37-.38.88-.9,1.53-1.56.64-.65,1.05-1.07,1.22-1.26.32-.35.54-.65.66-.9.12-.24.19-.49.19-.73,0-.38-.14-.7-.41-.94-.27-.24-.62-.37-1.06-.37-.31,0-.64.06-.98.16-.34.11-.71.27-1.1.49v-1c.4-.16.77-.28,1.11-.36s.66-.12.95-.12c.75,0,1.35.19,1.8.57.45.38.68.88.68,1.51,0,.3-.06.59-.17.85-.11.27-.31.59-.61.95-.08.1-.34.37-.78.82-.44.45-1.05,1.08-1.84,1.89Z"/>
  <path class="cls-17" d="M43.2,125.95h3.87v.83h-2.97v1.79c.14-.05.29-.09.43-.11s.29-.04.43-.04c.81,0,1.45.23,1.93.67.48.45.72,1.05.72,1.81s-.25,1.4-.74,1.83c-.49.43-1.18.64-2.06.64-.31,0-.62-.03-.94-.07-.32-.05-.64-.12-.98-.23v-.99c.29.16.59.28.91.36.31.08.64.11.99.11.56,0,1.01-.14,1.34-.44.32-.3.49-.7.49-1.21s-.17-.9-.49-1.2c-.33-.3-.78-.45-1.34-.45-.26,0-.53.03-.79.09-.26.06-.53.15-.8.27v-3.66Z"/>
  <g class="cls-28">
    <line class="cls-10" x1="55.72" y1="98.75" x2="427.9" y2="98.75"/>
  </g>
  <line class="cls-17" x1="55.72" y1="98.75" x2="52.22" y2="98.75"/>
  <line class="cls-11" x1="55.72" y1="98.75" x2="52.22" y2="98.75"/>
  <polygon class="cls-17" points="26.96 101.14 28.57 101.14 28.57 95.58 26.82 95.93 26.82 95.03 28.56 94.68 29.55 94.68 29.55 101.14 31.16 101.14 31.16 101.97 26.96 101.97 26.96 101.14"/>
  <rect class="cls-17" x="33.15" y="100.73" width="1.03" height="1.24"/>
  <path class="cls-17" d="M36.34,94.68h3.87v.83h-2.97v1.79c.14-.05.29-.09.43-.11s.29-.04.43-.04c.81,0,1.45.23,1.93.67.48.45.72,1.05.72,1.81s-.25,1.4-.74,1.83c-.49.43-1.18.64-2.06.64-.31,0-.62-.03-.94-.07-.32-.05-.64-.12-.98-.23v-.99c.29.16.59.28.91.36.31.08.64.11.99.11.56,0,1.01-.14,1.34-.44.32-.3.49-.7.49-1.21s-.17-.9-.49-1.2c-.33-.3-.78-.45-1.34-.45-.26,0-.53.03-.79.09-.26.06-.53.15-.8.27v-3.66Z"/>
  <path class="cls-17" d="M44.8,94.55c.81,0,1.43.33,1.87.97.43.65.65,1.59.65,2.81s-.22,2.17-.65,2.81c-.44.64-1.06.96-1.88.96s-1.44-.32-1.87-.96-.64-1.58-.64-2.81.21-2.16.64-2.81c.43-.64,1.06-.97,1.88-.97ZM44.8,95.33c-.51,0-.89.25-1.15.75-.26.5-.38,1.25-.38,2.25s.12,1.75.38,2.25c.26.5.64.75,1.15.75s.89-.25,1.15-.75c.25-.5.38-1.25.38-2.25s-.13-1.75-.38-2.25c-.26-.5-.64-.75-1.15-.75Z"/>
  <g class="cls-15">
    <line class="cls-10" x1="55.72" y1="67.49" x2="427.9" y2="67.49"/>
  </g>
  <line class="cls-17" x1="55.72" y1="67.49" x2="52.22" y2="67.49"/>
  <line class="cls-11" x1="55.72" y1="67.49" x2="52.22" y2="67.49"/>
  <polygon class="cls-17" points="27.96 69.75 29.57 69.75 29.57 64.19 27.82 64.54 27.82 63.64 29.56 63.29 30.55 63.29 30.55 69.75 32.16 69.75 32.16 70.58 27.96 70.58 27.96 69.75"/>
  <rect class="cls-17" x="34.15" y="69.34" width="1.03" height="1.24"/>
  <polygon class="cls-17" points="36.33 63.29 41.02 63.29 41.02 63.71 38.37 70.58 37.34 70.58 39.83 64.12 36.33 64.12 36.33 63.29"/>
  <path class="cls-17" d="M42.95,63.29h3.87v.83h-2.97v1.79c.14-.05.29-.09.43-.11s.29-.04.43-.04c.81,0,1.45.23,1.93.67.48.45.72,1.05.72,1.81s-.25,1.4-.74,1.83c-.49.43-1.18.64-2.06.64-.31,0-.62-.03-.94-.07-.32-.05-.64-.12-.98-.23v-.99c.29.16.59.28.91.36.31.08.64.11.99.11.56,0,1.01-.14,1.34-.44.32-.3.49-.7.49-1.21s-.17-.9-.49-1.2c-.33-.3-.78-.45-1.34-.45-.26,0-.53.03-.79.09-.26.06-.53.15-.8.27v-3.66Z"/>
  <g class="cls-62">
    <line class="cls-10" x1="55.72" y1="36.22" x2="427.9" y2="36.22"/>
  </g>
  <line class="cls-17" x1="55.72" y1="36.22" x2="52.22" y2="36.22"/>
  <line class="cls-11" x1="55.72" y1="36.22" x2="52.22" y2="36.22"/>
  <path class="cls-17" d="M27.64,38.61h3.44v.83h-4.63v-.83c.37-.38.88-.9,1.53-1.56.64-.65,1.05-1.07,1.22-1.26.32-.35.54-.65.66-.9.12-.24.19-.49.19-.73,0-.38-.14-.7-.41-.94s-.62-.37-1.06-.37c-.31,0-.64.06-.98.16-.34.11-.71.27-1.1.49v-1c.4-.16.77-.28,1.11-.36.34-.08.66-.12.95-.12.75,0,1.35.19,1.8.57.45.38.68.88.68,1.51,0,.3-.06.59-.17.85-.11.27-.31.59-.61.95-.08.1-.34.37-.78.82s-1.05,1.08-1.84,1.89Z"/>
  <rect class="cls-17" x="33.15" y="38.2" width="1.03" height="1.24"/>
  <path class="cls-17" d="M38.44,32.02c.81,0,1.43.33,1.87.97.43.65.65,1.59.65,2.81s-.22,2.17-.65,2.81c-.44.64-1.06.96-1.88.96s-1.44-.32-1.87-.96c-.43-.64-.64-1.58-.64-2.81s.21-2.16.64-2.81c.43-.64,1.06-.97,1.88-.97ZM38.44,32.8c-.51,0-.89.25-1.15.75-.26.5-.38,1.25-.38,2.25s.12,1.75.38,2.25c.26.5.64.75,1.15.75s.89-.25,1.15-.75c.25-.5.38-1.25.38-2.25s-.13-1.75-.38-2.25c-.26-.5-.64-.75-1.15-.75Z"/>
  <path class="cls-17" d="M44.8,32.02c.81,0,1.43.33,1.87.97.43.65.65,1.59.65,2.81s-.22,2.17-.65,2.81c-.44.64-1.06.96-1.88.96s-1.44-.32-1.87-.96c-.43-.64-.64-1.58-.64-2.81s.21-2.16.64-2.81c.43-.64,1.06-.97,1.88-.97ZM44.8,32.8c-.51,0-.89.25-1.15.75-.26.5-.38,1.25-.38,2.25s.12,1.75.38,2.25c.26.5.64.75,1.15.75s.89-.25,1.15-.75c.25-.5.38-1.25.38-2.25s-.13-1.75-.38-2.25c-.26-.5-.64-.75-1.15-.75Z"/>
  <polygon class="cls-17" points="7.66 218.05 7.66 208.81 8.9 208.81 8.9 212.69 18.59 212.69 18.59 214.18 8.9 214.18 8.9 218.05 7.66 218.05"/>
  <path class="cls-17" d="M10.19,206.81c0-1.17.39-2.09,1.14-2.76.76-.66,1.82-1,3.16-1s2.4.35,3.15,1c.76.68,1.14,1.59,1.14,2.76s-.38,2.11-1.14,2.77c-.75.66-1.8.99-3.15.99s-2.4-.33-3.16-.99c-.75-.66-1.14-1.59-1.14-2.77ZM11.33,206.81c0,.72.28,1.29.85,1.71.57.42,1.34.63,2.31.63s1.76-.2,2.32-.62.84-.99.84-1.72-.27-1.29-.84-1.71-1.33-.63-2.32-.63-1.74.21-2.31.63c-.57.42-.85.99-.85,1.71Z"/>
  <path class="cls-17" d="M8.06,199.48h2.33v-2.78h1.05v2.78h4.46c.68,0,1.11-.09,1.29-.27.19-.18.28-.56.28-1.12v-1.38h1.12v1.38c0,1.05-.19,1.77-.58,2.16-.39.39-1.1.58-2.12.58h-4.46v.99h-1.05v-.99h-2.33v-1.35Z"/>
  <path class="cls-17" d="M13.91,188.51h4.68v1.35h-1.25c.51.32.87.71,1.1,1.15s.34,1.02.34,1.68c0,.84-.23,1.51-.69,2.01-.46.49-1.09.74-1.89.74-.91,0-1.6-.3-2.09-.93-.47-.62-.7-1.53-.7-2.76v-1.89h-.14c-.61,0-1.1.21-1.44.61-.33.4-.51.98-.51,1.71,0,.48.06.93.18,1.38.12.45.28.87.49,1.27h-1.24c-.18-.48-.33-.96-.42-1.43s-.15-.91-.15-1.36c0-1.19.32-2.07.93-2.66.61-.58,1.55-.88,2.79-.88ZM14.47,191.2c0,1.1.14,1.85.38,2.26.26.42.68.63,1.27.63.48,0,.87-.15,1.14-.46.28-.32.42-.75.42-1.29,0-.75-.25-1.35-.79-1.8-.53-.45-1.23-.67-2.12-.67h-.3v1.33Z"/>
  <rect class="cls-17" x="7.19" y="184.39" width="11.4" height="1.35"/>
  <path class="cls-17" d="M14.5,175.99c.99,0,1.77-.19,2.34-.6.57-.4.84-.96.84-1.68s-.27-1.27-.84-1.7c-.57-.4-1.35-.61-2.34-.61s-1.76.21-2.32.61c-.57.42-.85.98-.85,1.7s.28,1.27.85,1.68c.57.41,1.34.6,2.32.6ZM11.63,171.4h-4.44v-1.35h11.4v1.35h-1.23c.49.29.85.65,1.08,1.08s.34.94.34,1.54c0,.99-.39,1.8-1.17,2.43-.78.63-1.83.93-3.12.93s-2.32-.3-3.12-.93c-.78-.63-1.19-1.44-1.19-2.43,0-.6.12-1.11.36-1.54.24-.43.6-.79,1.08-1.08Z"/>
  <path class="cls-17" d="M13.76,161.6c-.74.01-1.32.23-1.77.62-.43.4-.66.94-.66,1.6,0,.75.23,1.35.65,1.8s1.02.72,1.78.78v-4.8ZM14.15,160.25h.66v6.2c.93-.06,1.65-.33,2.13-.84.48-.5.72-1.18.72-2.09,0-.51-.06-1.02-.18-1.5-.12-.48-.31-.97-.58-1.46h1.27c.21.48.38.98.47,1.49.09.51.15,1.04.15,1.54,0,1.32-.38,2.36-1.12,3.12s-1.78,1.14-3.09,1.14-2.4-.36-3.19-1.08c-.78-.72-1.19-1.71-1.19-2.94,0-1.11.36-1.98,1.06-2.62.72-.63,1.68-.96,2.9-.96Z"/>
  <rect class="cls-17" x="7.19" y="156.7" width="11.4" height="1.35"/>
  <path class="cls-17" d="M13.91,147.46h4.68v1.35h-1.25c.51.32.87.71,1.1,1.15s.34,1.02.34,1.68c0,.84-.23,1.51-.69,2.01-.46.49-1.09.74-1.89.74-.91,0-1.6-.3-2.09-.93-.47-.62-.7-1.53-.7-2.76v-1.89h-.14c-.61,0-1.1.21-1.44.61-.33.4-.51.98-.51,1.71,0,.48.06.93.18,1.38.12.45.28.87.49,1.27h-1.24c-.18-.48-.33-.96-.42-1.43s-.15-.91-.15-1.36c0-1.19.32-2.07.93-2.66.61-.58,1.55-.88,2.79-.88ZM14.47,150.14c0,1.1.14,1.85.38,2.26.26.42.68.63,1.27.63.48,0,.87-.15,1.14-.46.28-.32.42-.75.42-1.29,0-.75-.25-1.35-.79-1.8-.53-.45-1.23-.67-2.12-.67h-.3v1.33Z"/>
  <path class="cls-17" d="M19.34,141.26c.96.39,1.6.76,1.91,1.12.3.36.45.84.45,1.44v1.08h-1.12v-.79c0-.36-.09-.65-.27-.86-.18-.21-.58-.43-1.24-.69l-.6-.24-8.07,3.32v-1.43l6.42-2.57-6.42-2.57v-1.43l8.95,3.6Z"/>
  <path class="cls-17" d="M7.21,127.79c1.14.66,2.25,1.14,3.35,1.45,1.1.33,2.2.48,3.33.48s2.25-.15,3.35-.48c1.11-.31,2.2-.79,3.33-1.45v1.17c-1.16.74-2.26,1.29-3.38,1.65s-2.2.54-3.3.54-2.18-.18-3.29-.54c-1.11-.36-2.23-.9-3.39-1.65v-1.17Z"/>
  <path class="cls-17" d="M10.63,119.95h1.27c-.18.39-.33.78-.43,1.18-.09.42-.15.84-.15,1.28,0,.68.1,1.18.31,1.51s.51.49.91.49c.32,0,.56-.12.73-.36.18-.24.36-.72.51-1.44l.11-.46c.21-.96.51-1.63.87-2.04.38-.39.9-.6,1.56-.6.76,0,1.36.3,1.8.9.45.6.66,1.44.66,2.49,0,.45-.05.9-.12,1.38-.08.48-.2.97-.38,1.5h-1.4c.27-.49.47-.99.58-1.47.14-.48.19-.96.19-1.44,0-.63-.1-1.12-.31-1.47-.21-.33-.53-.51-.93-.51-.36,0-.65.13-.84.38-.19.24-.39.78-.57,1.62l-.11.46c-.18.84-.45,1.46-.81,1.82-.36.38-.85.56-1.5.56-.76,0-1.36-.27-1.78-.81-.42-.54-.63-1.32-.63-2.34,0-.49.05-.96.12-1.41.08-.43.18-.84.32-1.21Z"/>
  <path class="cls-17" d="M13.76,111.7c-.74.01-1.32.23-1.77.62-.43.4-.66.94-.66,1.6,0,.75.23,1.35.65,1.8s1.02.72,1.78.78v-4.8ZM14.15,110.35h.66v6.2c.93-.06,1.65-.33,2.13-.84.48-.5.72-1.18.72-2.09,0-.51-.06-1.02-.18-1.5-.12-.48-.31-.97-.58-1.46h1.27c.21.48.38.98.47,1.49.09.51.15,1.04.15,1.54,0,1.32-.38,2.36-1.12,3.12s-1.78,1.14-3.09,1.14-2.4-.36-3.19-1.08c-.78-.72-1.19-1.71-1.19-2.94,0-1.11.36-1.98,1.06-2.62.72-.63,1.68-.96,2.9-.96Z"/>
  <path class="cls-17" d="M10.7,102.23h1.26c-.21.39-.36.77-.47,1.16s-.16.76-.16,1.15c0,.87.28,1.56.84,2.04s1.34.72,2.32.72,1.79-.24,2.34-.72c.56-.48.83-1.17.83-2.04,0-.39-.05-.76-.15-1.15s-.27-.76-.48-1.16h1.24c.18.39.32.78.39,1.17.07.4.12.84.12,1.29,0,1.23-.38,2.22-1.15,2.94-.77.74-1.82,1.1-3.14,1.1s-2.39-.36-3.15-1.1c-.76-.74-1.15-1.74-1.15-3.03,0-.42.05-.82.14-1.21s.21-.78.38-1.16Z"/>
  <path class="cls-17" d="M7.21,100.1v-1.17c1.15-.72,2.28-1.28,3.39-1.64,1.11-.36,2.2-.55,3.29-.55s2.19.19,3.3.55,2.22.92,3.38,1.64v1.17c-1.12-.65-2.22-1.12-3.33-1.46-1.09-.32-2.2-.48-3.35-.48s-2.23.16-3.33.48c-1.1.33-2.21.81-3.35,1.46Z"/>
  <polygon class="cls-17" points="62.73 9.69 60.5 11.93 62.73 14.16 62.15 14.75 59.91 12.51 57.67 14.75 57.09 14.16 59.32 11.93 57.09 9.69 57.67 9.1 59.91 11.34 62.15 9.1 62.73 9.69"/>
  <polygon class="cls-17" points="65.33 14.23 66.94 14.23 66.94 8.67 65.19 9.02 65.19 8.12 66.93 7.77 67.92 7.77 67.92 14.23 69.53 14.23 69.53 15.06 65.33 15.06 65.33 14.23"/>
  <path class="cls-17" d="M73.64,7.64c.81,0,1.43.33,1.87.97.43.65.65,1.59.65,2.81s-.22,2.17-.65,2.81c-.44.64-1.06.96-1.88.96s-1.44-.32-1.87-.96c-.43-.64-.64-1.58-.64-2.81s.21-2.16.64-2.81c.43-.64,1.06-.97,1.88-.97ZM73.64,8.42c-.51,0-.89.25-1.15.75s-.38,1.25-.38,2.25.12,1.75.38,2.25.64.75,1.15.75.89-.25,1.15-.75c.25-.5.38-1.25.38-2.25s-.13-1.75-.38-2.25c-.26-.5-.64-.75-1.15-.75Z"/>
  <polygon class="cls-17" points="77.49 6.13 80.77 6.13 80.77 6.42 78.92 11.23 78.2 11.23 79.94 6.71 77.49 6.71 77.49 6.13"/>
  <g class="cls-60">
    <polyline class="cls-6" points="72.63 276.72 114.93 268.22 157.22 255.53 199.51 242.85 241.81 224.72 284.1 208.11 326.4 185.57 368.69 164.43 410.98 131.67"/>
    <g class="cls-52">
      <polygon class="cls-9" points="72.63 273.72 69.63 279.72 75.63 279.72 72.63 273.72"/>
    </g>
    <g class="cls-13">
      <polygon class="cls-9" points="114.93 265.22 111.93 271.22 117.93 271.22 114.93 265.22"/>
    </g>
    <g class="cls-33">
      <polygon class="cls-9" points="157.22 252.53 154.22 258.53 160.22 258.53 157.22 252.53"/>
    </g>
    <g class="cls-45">
      <polygon class="cls-9" points="199.51 239.85 196.51 245.85 202.51 245.85 199.51 239.85"/>
    </g>
    <g class="cls-66">
      <polygon class="cls-9" points="241.81 221.72 238.81 227.72 244.81 227.72 241.81 221.72"/>
    </g>
    <g class="cls-43">
      <polygon class="cls-9" points="284.1 205.11 281.1 211.11 287.1 211.11 284.1 205.11"/>
    </g>
    <g class="cls-27">
      <polygon class="cls-9" points="326.4 182.57 323.4 188.57 329.4 188.57 326.4 182.57"/>
    </g>
    <g class="cls-31">
      <polygon class="cls-9" points="368.69 161.43 365.69 167.43 371.69 167.43 368.69 161.43"/>
    </g>
    <g class="cls-40">
      <polygon class="cls-9" points="410.98 128.67 407.98 134.67 413.98 134.67 410.98 128.67"/>
    </g>
  </g>
  <g class="cls-71">
    <polyline class="cls-8" points="72.63 282.72 114.93 280.47 157.22 277.74 199.51 274.82 241.81 271.75 284.1 268.45 326.4 265.15 368.69 261.7 410.98 258.07"/>
    <g class="cls-59">
      <polygon class="cls-2" points="72.63 279.72 69.63 285.72 75.63 285.72 72.63 279.72"/>
    </g>
    <g class="cls-44">
      <polygon class="cls-2" points="114.93 277.47 111.93 283.47 117.93 283.47 114.93 277.47"/>
    </g>
    <g class="cls-53">
      <polygon class="cls-2" points="157.22 274.74 154.22 280.74 160.22 280.74 157.22 274.74"/>
    </g>
    <g class="cls-22">
      <polygon class="cls-2" points="199.51 271.82 196.51 277.82 202.51 277.82 199.51 271.82"/>
    </g>
    <g class="cls-16">
      <polygon class="cls-2" points="241.81 268.75 238.81 274.75 244.81 274.75 241.81 268.75"/>
    </g>
    <g class="cls-34">
      <polygon class="cls-2" points="284.1 265.45 281.1 271.45 287.1 271.45 284.1 265.45"/>
    </g>
    <g class="cls-72">
      <polygon class="cls-2" points="326.4 262.15 323.4 268.15 329.4 268.15 326.4 262.15"/>
    </g>
    <g class="cls-39">
      <polygon class="cls-2" points="368.69 258.7 365.69 264.7 371.69 264.7 368.69 258.7"/>
    </g>
    <g class="cls-25">
      <polygon class="cls-2" points="410.98 255.07 407.98 261.07 413.98 261.07 410.98 255.07"/>
    </g>
  </g>
  <g class="cls-38">
    <polyline class="cls-4" points="72.63 266.52 114.93 251.51 157.22 231.13 199.51 208.97 241.81 180.66 284.1 152.15 326.4 115.93 368.69 80.49 410.98 30.72"/>
    <g class="cls-51">
      <polygon class="cls-9" points="72.63 263.52 69.63 269.52 75.63 269.52 72.63 263.52"/>
    </g>
    <g class="cls-30">
      <polygon class="cls-9" points="114.93 248.51 111.93 254.51 117.93 254.51 114.93 248.51"/>
    </g>
    <g class="cls-21">
      <polygon class="cls-9" points="157.22 228.13 154.22 234.13 160.22 234.13 157.22 228.13"/>
    </g>
    <g class="cls-64">
      <polygon class="cls-9" points="199.51 205.97 196.51 211.97 202.51 211.97 199.51 205.97"/>
    </g>
    <g class="cls-56">
      <polygon class="cls-9" points="241.81 177.66 238.81 183.66 244.81 183.66 241.81 177.66"/>
    </g>
    <g class="cls-41">
      <polygon class="cls-9" points="284.1 149.15 281.1 155.15 287.1 155.15 284.1 149.15"/>
    </g>
    <g class="cls-12">
      <polygon class="cls-9" points="326.4 112.93 323.4 118.93 329.4 118.93 326.4 112.93"/>
    </g>
    <g class="cls-26">
      <polygon class="cls-9" points="368.69 77.49 365.69 83.49 371.69 83.49 368.69 77.49"/>
    </g>
    <g class="cls-20">
      <polygon class="cls-9" points="410.98 27.72 407.98 33.72 413.98 33.72 410.98 27.72"/>
    </g>
  </g>
  <g class="cls-50">
    <polyline class="cls-1" points="72.63 280.97 114.93 278.08 157.22 274.69 199.51 271.05 241.81 267.36 284.1 263.34 326.4 259.44 368.69 255.28 410.98 251.16"/>
    <g class="cls-69">
      <polygon class="cls-2" points="72.63 277.97 69.63 283.97 75.63 283.97 72.63 277.97"/>
    </g>
    <g class="cls-49">
      <polygon class="cls-2" points="114.93 275.08 111.93 281.08 117.93 281.08 114.93 275.08"/>
    </g>
    <g class="cls-70">
      <polygon class="cls-2" points="157.22 271.69 154.22 277.69 160.22 277.69 157.22 271.69"/>
    </g>
    <g class="cls-47">
      <polygon class="cls-2" points="199.51 268.05 196.51 274.05 202.51 274.05 199.51 268.05"/>
    </g>
    <g class="cls-68">
      <polygon class="cls-2" points="241.81 264.36 238.81 270.36 244.81 270.36 241.81 264.36"/>
    </g>
    <g class="cls-54">
      <polygon class="cls-2" points="284.1 260.34 281.1 266.34 287.1 266.34 284.1 260.34"/>
    </g>
    <g class="cls-58">
      <polygon class="cls-2" points="326.4 256.44 323.4 262.44 329.4 262.44 326.4 256.44"/>
    </g>
    <g class="cls-67">
      <polygon class="cls-2" points="368.69 252.28 365.69 258.28 371.69 258.28 368.69 252.28"/>
    </g>
    <g class="cls-35">
      <polygon class="cls-2" points="410.98 248.16 407.98 254.16 413.98 254.16 410.98 248.16"/>
    </g>
  </g>
  <line class="cls-7" x1="55.72" y1="295.32" x2="55.72" y2="18.12"/>
  <line class="cls-7" x1="427.9" y1="295.32" x2="427.9" y2="18.12"/>
  <line class="cls-7" x1="55.72" y1="295.32" x2="427.9" y2="295.32"/>
  <line class="cls-7" x1="55.72" y1="18.12" x2="427.9" y2="18.12"/>
  <g>
    <rect class="cls-18" x="63.22" y="25.62" width="143.94" height="92.56" rx="3" ry="3"/>
    <rect class="cls-5" x="63.22" y="25.62" width="143.94" height="92.56" rx="3" ry="3"/>
  </g>
  <polyline class="cls-6" points="69.22 37.76 84.22 37.76 99.22 37.76"/>
  <polygon class="cls-9" points="84.22 34.76 81.22 40.76 87.22 40.76 84.22 34.76"/>
  <polygon class="cls-17" points="112.69 32.08 114.89 32.08 117.68 39.52 120.49 32.08 122.69 32.08 122.69 43.01 121.25 43.01 121.25 33.41 118.43 40.91 116.95 40.91 114.13 33.41 114.13 43.01 112.69 43.01 112.69 32.08"/>
  <polygon class="cls-17" points="128.45 43.01 124.28 32.08 125.83 32.08 129.29 41.29 132.76 32.08 134.3 32.08 130.13 43.01 128.45 43.01"/>
  <rect class="cls-17" x="135.89" y="32.08" width="1.49" height="10.93"/>
  <path class="cls-17" d="M140.32,32.08h3.35c1.21,0,2.15.29,2.77.84.63.55.95,1.36.95,2.43s-.32,1.9-.95,2.45c-.63.55-1.56.83-2.77.83h-1.86v4.39h-1.49v-10.93ZM141.8,33.29v4.11h1.86c.69,0,1.21-.17,1.59-.53.38-.36.57-.87.57-1.53s-.2-1.15-.57-1.51c-.38-.36-.9-.54-1.59-.54h-1.86Z"/>
  <polyline class="cls-8" points="69.22 59.78 84.22 59.78 99.22 59.78"/>
  <polygon class="cls-2" points="84.22 56.78 81.22 62.78 87.22 62.78 84.22 56.78"/>
  <polygon class="cls-17" points="112.69 54.09 114.89 54.09 117.68 61.53 120.49 54.09 122.69 54.09 122.69 65.03 121.25 65.03 121.25 55.43 118.43 62.93 116.95 62.93 114.13 55.43 114.13 65.03 112.69 65.03 112.69 54.09"/>
  <polygon class="cls-17" points="128.45 65.03 124.28 54.09 125.83 54.09 129.29 63.3 132.76 54.09 134.3 54.09 130.13 65.03 128.45 65.03"/>
  <rect class="cls-17" x="135.89" y="54.09" width="1.49" height="10.93"/>
  <path class="cls-17" d="M140.32,54.09h3.35c1.21,0,2.15.29,2.77.84.63.55.95,1.36.95,2.43s-.32,1.9-.95,2.45c-.63.55-1.56.83-2.77.83h-1.86v4.39h-1.49v-10.93ZM141.8,55.31v4.11h1.86c.69,0,1.21-.17,1.59-.53.38-.36.57-.87.57-1.53s-.2-1.15-.57-1.51c-.38-.36-.9-.54-1.59-.54h-1.86Z"/>
  <path class="cls-17" d="M157.31,53.64c-.66,1.14-1.14,2.25-1.45,3.35-.33,1.1-.48,2.21-.48,3.33s.15,2.25.48,3.35c.31,1.11.79,2.2,1.45,3.33h-1.17c-.74-1.15-1.29-2.26-1.65-3.38-.36-1.11-.54-2.2-.54-3.3s.18-2.18.54-3.29c.36-1.11.9-2.24,1.65-3.39h1.17Z"/>
  <polygon class="cls-17" points="159.14 56.82 160.49 56.82 162.17 63.23 163.85 56.82 165.44 56.82 167.12 63.23 168.8 56.82 170.15 56.82 168.01 65.03 166.42 65.03 164.65 58.31 162.88 65.03 161.29 65.03 159.14 56.82"/>
  <polygon class="cls-17" points="174.59 54.09 175.84 54.09 172.03 66.41 170.78 66.41 174.59 54.09"/>
  <rect class="cls-17" x="182.08" y="54.09" width="1.49" height="10.93"/>
  <path class="cls-17" d="M189.32,54.09h1.68l4.17,10.93h-1.54l-.99-2.8h-4.93l-.99,2.8h-1.56l4.17-10.93ZM190.16,55.55l-2.01,5.45h4.02l-2.01-5.45Z"/>
  <path class="cls-17" d="M196.49,53.64h1.17c.72,1.15,1.28,2.28,1.64,3.39.36,1.11.55,2.2.55,3.29s-.19,2.19-.55,3.3c-.36,1.11-.92,2.22-1.64,3.38h-1.17c.65-1.12,1.12-2.22,1.46-3.33.32-1.1.48-2.21.48-3.35s-.16-2.24-.48-3.33c-.33-1.1-.81-2.2-1.46-3.35Z"/>
  <polyline class="cls-4" points="69.22 81.79 84.22 81.79 99.22 81.79"/>
  <polygon class="cls-9" points="84.22 78.79 81.22 84.79 87.22 84.79 84.22 78.79"/>
  <polygon class="cls-17" points="115.51 87.04 111.34 76.11 112.88 76.11 116.35 85.32 119.81 76.11 121.36 76.11 117.19 87.04 115.51 87.04"/>
  <rect class="cls-17" x="122.95" y="76.11" width="1.49" height="10.93"/>
  <path class="cls-17" d="M127.37,76.11h3.35c1.21,0,2.15.29,2.77.84.63.55.95,1.36.95,2.43s-.32,1.9-.95,2.45c-.63.56-1.56.82-2.77.82h-1.86v4.4h-1.49v-10.93ZM128.86,77.32v4.11h1.86c.69,0,1.21-.17,1.59-.53.38-.36.57-.87.57-1.53s-.2-1.15-.57-1.51c-.38-.36-.9-.54-1.59-.54h-1.86Z"/>
  <polyline class="cls-1" points="69.22 103.81 84.22 103.81 99.22 103.81"/>
  <polygon class="cls-2" points="84.22 100.81 81.22 106.81 87.22 106.81 84.22 100.81"/>
  <polygon class="cls-17" points="115.51 109.06 111.34 98.12 112.88 98.12 116.35 107.33 119.81 98.12 121.36 98.12 117.19 109.06 115.51 109.06"/>
  <rect class="cls-17" x="122.95" y="98.12" width="1.49" height="10.93"/>
  <path class="cls-17" d="M127.37,98.12h3.35c1.21,0,2.15.29,2.77.84.63.56.95,1.37.95,2.43s-.32,1.9-.95,2.44c-.63.56-1.56.82-2.77.82h-1.86v4.4h-1.49v-10.93ZM128.86,99.34v4.11h1.86c.69,0,1.21-.16,1.59-.52s.57-.87.57-1.53-.2-1.16-.57-1.51c-.38-.36-.9-.54-1.59-.54h-1.86Z"/>
  <path class="cls-17" d="M144.37,97.67c-.66,1.14-1.14,2.25-1.45,3.35-.33,1.09-.48,2.2-.48,3.33s.15,2.25.48,3.35c.31,1.11.79,2.21,1.45,3.33h-1.17c-.74-1.15-1.29-2.26-1.65-3.38s-.54-2.21-.54-3.3.18-2.17.54-3.28.9-2.24,1.65-3.39h1.17Z"/>
  <polygon class="cls-17" points="146.2 100.85 147.55 100.85 149.23 107.26 150.91 100.85 152.5 100.85 154.18 107.26 155.86 100.85 157.21 100.85 155.06 109.06 153.47 109.06 151.7 102.34 149.93 109.06 148.34 109.06 146.2 100.85"/>
  <polygon class="cls-17" points="161.65 98.12 162.89 98.12 159.08 110.44 157.84 110.44 161.65 98.12"/>
  <rect class="cls-17" x="169.13" y="98.12" width="1.49" height="10.93"/>
  <path class="cls-17" d="M176.38,98.12h1.68l4.17,10.93h-1.54l-.99-2.8h-4.93l-.99,2.8h-1.56l4.17-10.93ZM177.22,99.58l-2.01,5.44h4.02l-2.01-5.44Z"/>
  <path class="cls-17" d="M183.55,97.67h1.17c.72,1.15,1.28,2.28,1.64,3.39s.55,2.21.55,3.28-.19,2.19-.55,3.3-.92,2.22-1.64,3.38h-1.17c.65-1.12,1.12-2.22,1.46-3.33.32-1.1.48-2.21.48-3.35s-.16-2.24-.48-3.33c-.33-1.1-.81-2.21-1.46-3.35Z"/>
</svg>