<svg version="1.1" viewBox="0.0 0.0 960.0 540.0" fill="none" stroke="none" stroke-linecap="square" stroke-miterlimit="10" xmlns:xlink="http://www.w3.org/1999/xlink" xmlns="http://www.w3.org/2000/svg"><clipPath id="g2f102a8ae0b_0_1.0"><path d="m0 0l960.0 0l0 540.0l-960.0 0l0 -540.0z" clip-rule="nonzero"/></clipPath><g clip-path="url(#g2f102a8ae0b_0_1.0)"><path fill="#ffffff" d="m0 0l960.0 0l0 540.0l-960.0 0z" fill-rule="evenodd"/><path fill="#eeeeee" d="m638.1039 144.93964l255.33862 0l0 49.637787l-255.33862 0z" fill-rule="evenodd"/><path stroke="#595959" stroke-width="1.0" stroke-linejoin="round" stroke-linecap="butt" d="m638.1039 144.93964l255.33862 0l0 49.637787l-255.33862 0z" fill-rule="evenodd"/><path fill="#efefef" d="m-0.007874016 -2.9396326E-5l609.2598 0l0 425.35434l-609.2598 0z" fill-rule="evenodd"/><path stroke="#595959" stroke-width="1.0" stroke-linejoin="round" stroke-linecap="butt" d="m-0.007874016 -2.9396326E-5l609.2598 0l0 425.35434l-609.2598 0z" fill-rule="evenodd"/><defs><radialGradient id="g2f102a8ae0b_0_1.1" gradientUnits="userSpaceOnUse" gradientTransform="matrix(11.741293823214058 0.0 0.0 11.741293823214058 0.0 0.0)" spreadMethod="pad" cx="30.56321056573635" cy="18.669602986369743" fx="30.56321056573635" fy="18.669602986369743" r="11.741293907165527"><stop offset="0.0" stop-color="#f5d0d0"/><stop offset="1.0" stop-color="#d96868"/></radialGradient></defs><path fill="url(#g2f102a8ae0b_0_1.1)" d="m261.3713 219.20529l97.480316 -97.480316l97.480316 97.480316l-97.480316 97.480316z" fill-rule="evenodd"/><path stroke="#595959" stroke-width="1.0" stroke-linejoin="round" stroke-linecap="butt" d="m261.3713 219.20529l97.480316 -97.480316l97.480316 97.480316l-97.480316 97.480316z" fill-rule="evenodd"/><path fill="#434343" d="m341.711 209.38966l1.890625 0.46875q-0.59375 2.34375 -2.140625 3.578125q-1.546875 1.21875 -3.796875 1.21875q-2.3125 0 -3.765625 -0.9375q-1.4375 -0.953125 -2.203125 -2.734375q-0.75 -1.796875 -0.75 -3.84375q0 -2.234375 0.84375 -3.890625q0.859375 -1.671875 2.4375 -2.53125q1.578125 -0.875 3.46875 -0.875q2.15625 0 3.609375 1.09375q1.46875 1.09375 2.046875 3.078125l-1.859375 0.4375q-0.5 -1.5625 -1.453125 -2.265625q-0.9375 -0.71875 -2.375 -0.71875q-1.65625 0 -2.765625 0.796875q-1.109375 0.78125 -1.5625 2.125q-0.4375 1.328125 -0.4375 2.734375q0 1.828125 0.53125 3.203125q0.53125 1.359375 1.65625 2.03125q1.125 0.671875 2.421875 0.671875q1.59375 0 2.703125 -0.921875q1.109375 -0.921875 1.5 -2.71875zm10.771484 3.734375q-0.984375 0.828125 -1.890625 1.171875q-0.90625 0.34375 -1.9375 0.34375q-1.703125 0 -2.625 -0.828125q-0.921875 -0.84375 -0.921875 -2.140625q0 -0.765625 0.34375 -1.390625q0.359375 -0.625 0.921875 -1.0q0.5625 -0.390625 1.265625 -0.59375q0.515625 -0.125 1.5625 -0.265625q2.125 -0.25 3.125 -0.59375q0.015625 -0.359375 0.015625 -0.46875q0 -1.0625 -0.5 -1.515625q-0.671875 -0.59375 -2.0 -0.59375q-1.25 0 -1.84375 0.4375q-0.578125 0.4375 -0.859375 1.546875l-1.71875 -0.234375q0.234375 -1.109375 0.765625 -1.78125q0.53125 -0.6875 1.546875 -1.046875q1.015625 -0.375 2.359375 -0.375q1.328125 0 2.15625 0.3125q0.828125 0.3125 1.21875 0.796875q0.390625 0.46875 0.546875 1.1875q0.09375 0.453125 0.09375 1.625l0 2.34375q0 2.453125 0.109375 3.109375q0.109375 0.640625 0.453125 1.234375l-1.84375 0q-0.265625 -0.546875 -0.34375 -1.28125zm-0.15625 -3.921875q-0.953125 0.390625 -2.875 0.65625q-1.078125 0.15625 -1.53125 0.359375q-0.4375 0.1875 -0.6875 0.5625q-0.25 0.375 -0.25 0.84375q0 0.703125 0.53125 1.171875q0.53125 0.46875 1.5625 0.46875q1.015625 0 1.796875 -0.4375q0.796875 -0.453125 1.171875 -1.21875q0.28125 -0.609375 0.28125 -1.765625l0 -0.640625zm11.279297 1.40625l1.71875 0.21875q-0.28125 1.796875 -1.453125 2.8125q-1.15625 1.0 -2.859375 1.0q-2.125 0 -3.421875 -1.390625q-1.296875 -1.390625 -1.296875 -3.984375q0 -1.6875 0.546875 -2.9375q0.5625 -1.265625 1.703125 -1.890625q1.140625 -0.640625 2.484375 -0.640625q1.6875 0 2.75 0.859375q1.078125 0.859375 1.390625 2.421875l-1.71875 0.265625q-0.234375 -1.046875 -0.859375 -1.5625q-0.625 -0.53125 -1.5 -0.53125q-1.328125 0 -2.15625 0.953125q-0.828125 0.953125 -0.828125 3.0q0 2.09375 0.796875 3.046875q0.796875 0.9375 2.09375 0.9375q1.03125 0 1.71875 -0.625q0.703125 -0.640625 0.890625 -1.953125zm3.21875 3.796875l0 -14.3125l1.765625 0l0 5.125q1.234375 -1.421875 3.109375 -1.421875q1.140625 0 1.984375 0.453125q0.859375 0.453125 1.21875 1.265625q0.375 0.796875 0.375 2.3125l0 6.578125l-1.75 0l0 -6.578125q0 -1.3125 -0.578125 -1.90625q-0.578125 -0.609375 -1.609375 -0.609375q-0.78125 0 -1.484375 0.40625q-0.6875 0.40625 -0.984375 1.109375q-0.28125 0.6875 -0.28125 1.90625l0 5.671875l-1.765625 0zm18.232422 -3.34375l1.8125 0.234375q-0.421875 1.578125 -1.59375 2.46875q-1.15625 0.875 -2.96875 0.875q-2.265625 0 -3.609375 -1.390625q-1.328125 -1.40625 -1.328125 -3.9375q0 -2.625 1.34375 -4.0625q1.34375 -1.453125 3.5 -1.453125q2.078125 0 3.390625 1.421875q1.328125 1.40625 1.328125 3.984375q0 0.15625 -0.015625 0.46875l-7.734375 0q0.09375 1.703125 0.96875 2.609375q0.875 0.90625 2.171875 0.90625q0.96875 0 1.640625 -0.5q0.6875 -0.515625 1.09375 -1.625zm-5.78125 -2.84375l5.796875 0q-0.109375 -1.296875 -0.65625 -1.953125q-0.84375 -1.015625 -2.1875 -1.015625q-1.203125 0 -2.03125 0.8125q-0.828125 0.796875 -0.921875 2.15625z" fill-rule="nonzero"/><path fill="#434343" d="m327.26764 233.38966l1.890625 0.46875q-0.59375 2.34375 -2.140625 3.578125q-1.546875 1.21875 -3.796875 1.21875q-2.3125 0 -3.765625 -0.9375q-1.4375 -0.953125 -2.203125 -2.734375q-0.75 -1.796875 -0.75 -3.84375q0 -2.234375 0.84375 -3.890625q0.859375 -1.671875 2.4375 -2.53125q1.578125 -0.875 3.46875 -0.875q2.15625 0 3.609375 1.09375q1.46875 1.09375 2.046875 3.078125l-1.859375 0.4375q-0.5 -1.5625 -1.453125 -2.265625q-0.9375 -0.71875 -2.375 -0.71875q-1.65625 0 -2.765625 0.796875q-1.109375 0.78125 -1.5625 2.125q-0.4375 1.328125 -0.4375 2.734375q0 1.828125 0.53125 3.203125q0.53125 1.359375 1.65625 2.03125q1.125 0.671875 2.421875 0.671875q1.59375 0 2.703125 -0.921875q1.109375 -0.921875 1.5 -2.71875zm3.3496094 -0.171875q0 -2.875 1.59375 -4.265625q1.34375 -1.15625 3.265625 -1.15625q2.140625 0 3.484375 1.40625q1.359375 1.40625 1.359375 3.875q0 2.0 -0.59375 3.15625q-0.59375 1.140625 -1.75 1.78125q-1.140625 0.625 -2.5 0.625q-2.1875 0 -3.53125 -1.390625q-1.328125 -1.40625 -1.328125 -4.03125zm1.796875 0q0 2.0 0.859375 2.984375q0.875 0.984375 2.203125 0.984375q1.3125 0 2.171875 -0.984375q0.875 -1.0 0.875 -3.046875q0 -1.921875 -0.875 -2.90625q-0.875 -1.0 -2.171875 -1.0q-1.328125 0 -2.203125 1.0q-0.859375 0.984375 -0.859375 2.96875zm9.966797 5.1875l0 -10.375l1.59375 0l0 1.484375q1.140625 -1.71875 3.296875 -1.71875q0.9375 0 1.71875 0.34375q0.796875 0.328125 1.1875 0.875q0.390625 0.546875 0.546875 1.296875q0.09375 0.5 0.09375 1.71875l0 6.375l-1.765625 0l0 -6.3125q0 -1.078125 -0.203125 -1.609375q-0.203125 -0.53125 -0.734375 -0.84375q-0.515625 -0.3125 -1.21875 -0.3125q-1.125 0 -1.9375 0.71875q-0.8125 0.703125 -0.8125 2.6875l0 5.671875l-1.765625 0zm14.966797 -1.578125l0.25 1.5625q-0.734375 0.15625 -1.328125 0.15625q-0.953125 0 -1.484375 -0.296875q-0.515625 -0.3125 -0.734375 -0.796875q-0.21875 -0.5 -0.21875 -2.078125l0 -5.96875l-1.28125 0l0 -1.375l1.28125 0l0 -2.5625l1.75 -1.0625l0 3.625l1.765625 0l0 1.375l-1.765625 0l0 6.0625q0 0.75 0.09375 0.96875q0.09375 0.203125 0.296875 0.34375q0.21875 0.125 0.609375 0.125q0.28125 0 0.765625 -0.078125zm1.6972656 1.578125l0 -10.375l1.578125 0l0 1.578125q0.609375 -1.109375 1.125 -1.453125q0.515625 -0.359375 1.125 -0.359375q0.890625 0 1.8125 0.5625l-0.609375 1.640625q-0.640625 -0.390625 -1.28125 -0.390625q-0.578125 0 -1.046875 0.359375q-0.453125 0.34375 -0.65625 0.953125q-0.28125 0.9375 -0.28125 2.046875l0 5.4375l-1.765625 0zm6.0351562 -5.1875q0 -2.875 1.59375 -4.265625q1.34375 -1.15625 3.265625 -1.15625q2.140625 0 3.484375 1.40625q1.359375 1.40625 1.359375 3.875q0 2.0 -0.59375 3.15625q-0.59375 1.140625 -1.75 1.78125q-1.140625 0.625 -2.5 0.625q-2.1875 0 -3.53125 -1.390625q-1.328125 -1.40625 -1.328125 -4.03125zm1.796875 0q0 2.0 0.859375 2.984375q0.875 0.984375 2.203125 0.984375q1.3125 0 2.171875 -0.984375q0.875 -1.0 0.875 -3.046875q0 -1.921875 -0.875 -2.90625q-0.875 -1.0 -2.171875 -1.0q-1.328125 0 -2.203125 1.0q-0.859375 0.984375 -0.859375 2.96875zm9.935547 5.1875l0 -14.3125l1.75 0l0 14.3125l-1.75 0zm4.4433594 0l0 -14.3125l1.75 0l0 14.3125l-1.75 0zm11.583984 -3.34375l1.8125 0.234375q-0.421875 1.578125 -1.59375 2.46875q-1.15625 0.875 -2.96875 0.875q-2.265625 0 -3.609375 -1.390625q-1.328125 -1.40625 -1.328125 -3.9375q0 -2.625 1.34375 -4.0625q1.34375 -1.453125 3.5 -1.453125q2.078125 0 3.390625 1.421875q1.328125 1.40625 1.328125 3.984375q0 0.15625 -0.015625 0.46875l-7.734375 0q0.09375 1.703125 0.96875 2.609375q0.875 0.90625 2.171875 0.90625q0.96875 0 1.640625 -0.5q0.6875 -0.515625 1.09375 -1.625zm-5.78125 -2.84375l5.796875 0q-0.109375 -1.296875 -0.65625 -1.953125q-0.84375 -1.015625 -2.1875 -1.015625q-1.203125 0 -2.03125 0.8125q-0.828125 0.796875 -0.921875 2.15625zm9.779297 6.1875l0 -10.375l1.578125 0l0 1.578125q0.609375 -1.109375 1.125 -1.453125q0.515625 -0.359375 1.125 -0.359375q0.890625 0 1.8125 0.5625l-0.609375 1.640625q-0.640625 -0.390625 -1.28125 -0.390625q-0.578125 0 -1.046875 0.359375q-0.453125 0.34375 -0.65625 0.953125q-0.28125 0.9375 -0.28125 2.046875l0 5.4375l-1.765625 0z" fill-rule="nonzero"/><defs><linearGradient id="g2f102a8ae0b_0_1.2" gradientUnits="userSpaceOnUse" gradientTransform="matrix(20.152192413483874 0.0 0.0 20.152192413483874 0.0 0.0)" spreadMethod="pad" x1="1.4897311375230693" y1="0.47760700528527866" x2="1.4896582576867656" y2="20.62979941863737"><stop offset="0.0" stop-color="#dfeafb"/><stop offset="1.0" stop-color="#6e9ce7"/></linearGradient></defs><path fill="url(#g2f102a8ae0b_0_1.2)" d="m30.021349 9.625444l170.48819 0l0 406.11023l-170.48819 0z" fill-rule="evenodd"/><path stroke="#595959" stroke-width="1.0" stroke-linejoin="round" stroke-linecap="butt" d="m30.021349 9.625444l170.48819 0l0 406.11023l-170.48819 0z" fill-rule="evenodd"/><path fill="#434343" d="m72.05091 201.17244l2.265625 -0.1875q0.15625 1.359375 0.734375 2.234375q0.59375 0.859375 1.828125 1.40625q1.234375 0.53125 2.78125 0.53125q1.375 0 2.421875 -0.40625q1.0625 -0.40625 1.5625 -1.109375q0.515625 -0.71875 0.515625 -1.5625q0 -0.859375 -0.5 -1.484375q-0.484375 -0.640625 -1.625 -1.078125q-0.71875 -0.28125 -3.21875 -0.875q-2.5 -0.609375 -3.5 -1.140625q-1.296875 -0.671875 -1.9375 -1.671875q-0.640625 -1.015625 -0.640625 -2.265625q0 -1.375 0.78125 -2.5625q0.78125 -1.203125 2.265625 -1.8125q1.5 -0.625 3.34375 -0.625q2.015625 0 3.546875 0.65625q1.546875 0.640625 2.375 1.90625q0.828125 1.25 0.890625 2.859375l-2.3125 0.171875q-0.171875 -1.71875 -1.25 -2.59375q-1.0625 -0.890625 -3.15625 -0.890625q-2.171875 0 -3.171875 0.796875q-1.0 0.796875 -1.0 1.921875q0 0.984375 0.703125 1.609375q0.703125 0.640625 3.625 1.296875q2.921875 0.65625 4.015625 1.15625q1.578125 0.734375 2.328125 1.859375q0.765625 1.109375 0.765625 2.5625q0 1.453125 -0.84375 2.734375q-0.828125 1.28125 -2.375 2.0q-1.546875 0.703125 -3.484375 0.703125q-2.46875 0 -4.140625 -0.71875q-1.65625 -0.71875 -2.609375 -2.15625q-0.9375 -1.4375 -0.984375 -3.265625zm22.284286 3.84375l0.3125 1.953125q-0.9375 0.203125 -1.671875 0.203125q-1.21875 0 -1.890625 -0.375q-0.65625 -0.390625 -0.9375 -1.015625q-0.265625 -0.625 -0.265625 -2.625l0 -7.5625l-1.640625 0l0 -1.734375l1.640625 0l0 -3.25l2.21875 -1.328125l0 4.578125l2.234375 0l0 1.734375l-2.234375 0l0 7.6875q0 0.953125 0.109375 1.234375q0.125 0.265625 0.390625 0.421875q0.265625 0.15625 0.75 0.15625q0.375 0 0.984375 -0.078125zm1.349472 -4.578125q0 -3.65625 2.03125 -5.40625q1.6875 -1.46875 4.125 -1.46875q2.703125 0 4.421875 1.78125q1.71875 1.78125 1.71875 4.90625q0 2.53125 -0.765625 3.984375q-0.75 1.453125 -2.203125 2.265625q-1.453125 0.796875 -3.171875 0.796875q-2.765625 0 -4.46875 -1.765625q-1.6875 -1.765625 -1.6875 -5.09375zm2.28125 0q0 2.515625 1.09375 3.78125q1.109375 1.25 2.78125 1.25q1.65625 0 2.75 -1.265625q1.109375 -1.265625 1.109375 -3.84375q0 -2.4375 -1.109375 -3.6875q-1.109375 -1.265625 -2.75 -1.265625q-1.671875 0 -2.78125 1.25q-1.09375 1.25 -1.09375 3.78125zm12.601929 6.5625l0 -13.140625l2.0 0l0 2.0q0.78125 -1.40625 1.421875 -1.84375q0.65625 -0.453125 1.4375 -0.453125q1.125 0 2.28125 0.71875l-0.765625 2.078125q-0.8125 -0.484375 -1.640625 -0.484375q-0.71875 0 -1.3125 0.4375q-0.578125 0.4375 -0.828125 1.21875q-0.359375 1.1875 -0.359375 2.59375l0 6.875l-2.234375 0zm17.028214 -1.625q-1.234375 1.0625 -2.375 1.5q-1.140625 0.421875 -2.453125 0.421875q-2.171875 0 -3.328125 -1.046875q-1.15625 -1.0625 -1.15625 -2.71875q0 -0.953125 0.4375 -1.75q0.4375 -0.796875 1.140625 -1.28125q0.71875 -0.484375 1.609375 -0.734375q0.65625 -0.171875 1.96875 -0.328125q2.703125 -0.328125 3.96875 -0.765625q0.015625 -0.46875 0.015625 -0.59375q0 -1.359375 -0.625 -1.90625q-0.859375 -0.765625 -2.53125 -0.765625q-1.578125 0 -2.328125 0.5625q-0.75 0.546875 -1.109375 1.9375l-2.171875 -0.296875q0.296875 -1.390625 0.96875 -2.25q0.6875 -0.859375 1.96875 -1.328125q1.296875 -0.46875 2.984375 -0.46875q1.6875 0 2.734375 0.40625q1.0468826 0.390625 1.5468826 1.0q0.5 0.59375 0.6875 1.5q0.125 0.578125 0.125 2.0625l0 2.96875q0 3.09375 0.140625 3.921875q0.140625 0.828125 0.5625 1.578125l-2.328125 0q-0.34375763 -0.6875 -0.45313263 -1.625zm-0.1875 -4.96875q-1.203125 0.5 -3.625 0.84375q-1.375 0.203125 -1.953125 0.453125q-0.5625 0.234375 -0.875 0.71875q-0.296875 0.46875 -0.296875 1.046875q0 0.890625 0.671875 1.484375q0.671875 0.59375 1.96875 0.59375q1.28125 0 2.28125 -0.5625q1.0 -0.5625 1.484375 -1.53125q0.34375 -0.75 0.34375 -2.234375l0 -0.8125zm5.3050613 7.6875l2.15625 0.3125q0.140625 1.0 0.765625 1.46875q0.828125 0.609375 2.25 0.609375q1.546875 0 2.390625 -0.625q0.84375 -0.609375 1.140625 -1.71875q0.171875 -0.6875 0.15625 -2.859375q-1.453125 1.71875 -3.625 1.71875q-2.71875 0 -4.203125 -1.953125q-1.484375 -1.953125 -1.484375 -4.6875q0 -1.875 0.671875 -3.46875q0.6875 -1.59375 1.984375 -2.453125q1.296875 -0.875 3.03125 -0.875q2.328125 0 3.84375 1.890625l0 -1.59375l2.046875 0l0 11.359375q0 3.0625 -0.625 4.34375q-0.625 1.28125 -1.984375 2.015625q-1.34375 0.75 -3.328125 0.75q-2.34375 0 -3.796875 -1.0625q-1.4375 -1.046875 -1.390625 -3.171875zm1.84375 -7.890625q0 2.578125 1.015625 3.765625q1.03125 1.1875 2.578125 1.1875q1.53125 0 2.5625 -1.171875q1.046875 -1.1875 1.046875 -3.71875q0 -2.40625 -1.078125 -3.625q-1.0625 -1.234375 -2.5625 -1.234375q-1.484375 0 -2.53125 1.21875q-1.03125 1.203125 -1.03125 3.578125zm21.633179 2.5625l2.2968597 0.296875q-0.53123474 2.015625 -2.0156097 3.125q-1.46875 1.109375 -3.75 1.109375q-2.890625 0 -4.578125 -1.765625q-1.6875 -1.78125 -1.6875 -4.984375q0 -3.3125 1.703125 -5.140625q1.71875 -1.84375 4.4375 -1.84375q2.640625 0 4.296875 1.796875q1.6718597 1.796875 1.6718597 5.046875q0 0.203125 -0.015625 0.59375l-9.781235 0q0.109375 2.171875 1.203125 3.328125q1.109375 1.140625 2.765625 1.140625q1.21875 0 2.078125 -0.640625q0.875 -0.640625 1.375 -2.0625zm-7.3125 -3.59375l7.34375 0q-0.15625 -1.65625 -0.84375 -2.484375q-1.0625 -1.28125 -2.75 -1.28125q-1.546875 0 -2.59375 1.03125q-1.03125 1.015625 -1.15625 2.734375z" fill-rule="nonzero"/><path fill="#434343" d="m86.15722 237.00056l0 -18.125l6.796875 0q2.078125 0 3.328125 0.546875q1.265625 0.546875 1.96875 1.703125q0.71875 1.140625 0.71875 2.375q0 1.171875 -0.640625 2.203125q-0.625 1.015625 -1.90625 1.65625q1.65625 0.46875 2.53125 1.640625q0.890625 1.15625 0.890625 2.75q0 1.265625 -0.546875 2.359375q-0.53125 1.09375 -1.328125 1.6875q-0.78125 0.59375 -1.984375 0.90625q-1.1875 0.296875 -2.921875 0.296875l-6.90625 0zm2.390625 -10.515625l3.921875 0q1.59375 0 2.296875 -0.203125q0.90625 -0.28125 1.375 -0.90625q0.46875 -0.625 0.46875 -1.578125q0 -0.90625 -0.4375 -1.59375q-0.4375 -0.6875 -1.25 -0.9375q-0.796875 -0.25 -2.75 -0.25l-3.625 0l0 5.46875zm0 8.375l4.515625 0q1.171875 0 1.640625 -0.078125q0.828125 -0.15625 1.375 -0.5q0.5625 -0.34375 0.921875 -1.0q0.359375 -0.671875 0.359375 -1.53125q0 -1.015625 -0.53125 -1.765625q-0.515625 -0.75 -1.4375 -1.046875q-0.921875 -0.3125 -2.640625 -0.3125l-4.203125 0l0 6.234375zm14.2686615 2.140625l0 -18.125l2.21875 0l0 18.125l-2.21875 0zm4.8458557 -6.5625q0 -3.65625 2.03125 -5.40625q1.6875 -1.46875 4.125 -1.46875q2.703125 0 4.421875 1.78125q1.71875 1.78125 1.71875 4.90625q0 2.53125 -0.765625 3.984375q-0.75 1.453125 -2.203125 2.265625q-1.453125 0.796875 -3.171875 0.796875q-2.765625 0 -4.46875 -1.765625q-1.6875 -1.765625 -1.6875 -5.09375zm2.28125 0q0 2.515625 1.09375 3.78125q1.109375 1.25 2.78125 1.25q1.65625 0 2.75 -1.265625q1.109375 -1.265625 1.109375 -3.84375q0 -2.4375 -1.109375 -3.6875q-1.109375 -1.265625 -2.75 -1.265625q-1.671875 0 -2.78125 1.25q-1.09375 1.25 -1.09375 3.78125zm21.195686 1.75l2.1875 0.28125q-0.34375 2.265625 -1.828125 3.546875q-1.484375 1.28125 -3.6250076 1.28125q-2.703125 0 -4.34375 -1.765625q-1.640625 -1.765625 -1.640625 -5.046875q0 -2.125 0.703125 -3.71875q0.71875 -1.59375 2.15625 -2.390625q1.4375 -0.8125 3.125 -0.8125q2.1406326 0 3.5000076 1.09375q1.359375 1.078125 1.75 3.0625l-2.171875 0.34375q-0.296875 -1.328125 -1.09375 -1.984375q-0.78125 -0.671875 -1.8906326 -0.671875q-1.6875 0 -2.734375 1.203125q-1.046875 1.203125 -1.046875 3.8125q0 2.640625 1.015625 3.84375q1.015625 1.203125 2.640625 1.203125q1.3125076 0 2.1875076 -0.796875q0.875 -0.8125 1.109375 -2.484375zm4.1171875 4.8125l0 -18.125l2.21875 0l0 10.328125l5.265625 -5.34375l2.890625 0l-5.03125 4.875l5.53125 8.265625l-2.75 0l-4.328125 -6.71875l-1.578125 1.515625l0 5.203125l-2.21875 0z" fill-rule="nonzero"/><path fill="#a64d79" d="m488.8118 145.16025l120.44095 0l0 49.480316l-120.44095 0z" fill-rule="evenodd"/><path stroke="#595959" stroke-width="1.0" stroke-linejoin="round" stroke-linecap="butt" d="m488.8118 145.16025l120.44095 0l0 49.480316l-120.44095 0z" fill-rule="evenodd"/><path fill="#ffffff" d="m504.09775 176.8204l0 -11.78125l-4.40625 0l0 -1.578125l10.578125 0l0 1.578125l-4.40625 0l0 11.78125l-1.765625 0zm12.030121 -1.1875q-0.921875 0.765625 -1.765625 1.09375q-0.828125 0.3125 -1.796875 0.3125q-1.5937805 0 -2.4531555 -0.78125q-0.859375 -0.78125 -0.859375 -1.984375q0 -0.71875 0.328125 -1.296875q0.328125 -0.59375 0.84375 -0.9375q0.53125 -0.359375 1.1875 -0.546875q0.46878052 -0.125 1.4531555 -0.25q1.984375 -0.234375 2.921875 -0.5625q0.015625 -0.34375 0.015625 -0.421875q0 -1.0 -0.46875 -1.421875q-0.625 -0.546875 -1.875 -0.546875q-1.15625 0 -1.7031555 0.40625q-0.546875 0.40625 -0.8125 1.421875l-1.609375 -0.21875q0.21875 -1.015625 0.71875 -1.640625q0.5 -0.640625 1.453125 -0.984375q0.9531555 -0.34375 2.1875305 -0.34375q1.25 0 2.015625 0.296875q0.78125 0.28125 1.140625 0.734375q0.375 0.4375 0.515625 1.109375q0.078125 0.421875 0.078125 1.515625l0 2.1875q0 2.28125 0.109375 2.890625q0.109375 0.59375 0.40625 1.15625l-1.703125 0q-0.265625 -0.515625 -0.328125 -1.1875zm-0.140625 -3.671875q-0.890625 0.375 -2.671875 0.625q-1.015625 0.140625 -1.4375305 0.328125q-0.421875 0.1875 -0.65625 0.53125q-0.21875 0.34375 -0.21875 0.78125q0 0.65625 0.5 1.09375q0.5000305 0.4375 1.4531555 0.4375q0.9375 0 1.671875 -0.40625q0.75 -0.421875 1.09375 -1.140625q0.265625 -0.5625 0.265625 -1.640625l0 -0.609375zm3.5475464 1.96875l1.625 -0.25q0.125 0.96875 0.75 1.5q0.625 0.515625 1.75 0.515625q1.125 0 1.671875 -0.453125q0.546875 -0.46875 0.546875 -1.09375q0 -0.546875 -0.484375 -0.875q-0.328125 -0.21875 -1.671875 -0.546875q-1.8125 -0.46875 -2.515625 -0.796875q-0.6875 -0.328125 -1.046875 -0.90625q-0.359375 -0.59375 -0.359375 -1.3125q0 -0.640625 0.296875 -1.1875q0.296875 -0.5625 0.8125 -0.921875q0.375 -0.28125 1.03125 -0.46875q0.671875 -0.203125 1.421875 -0.203125q1.140625 0 2.0 0.328125q0.859375 0.328125 1.265625 0.890625q0.421875 0.5625 0.578125 1.5l-1.609375 0.21875q-0.109375 -0.75 -0.640625 -1.171875q-0.515625 -0.421875 -1.46875 -0.421875q-1.140625 0 -1.625 0.375q-0.46875 0.375 -0.46875 0.875q0 0.3125 0.1875 0.578125q0.203125 0.265625 0.640625 0.4375q0.234375 0.09375 1.4375 0.421875q1.75 0.453125 2.4375 0.75q0.6875 0.296875 1.078125 0.859375q0.390625 0.5625 0.390625 1.40625q0 0.828125 -0.484375 1.546875q-0.46875 0.71875 -1.375 1.125q-0.90625 0.390625 -2.046875 0.390625q-1.875 0 -2.875 -0.78125q-0.984375 -0.78125 -1.25 -2.328125zm9.984375 2.890625l0 -13.359375l1.640625 0l0 7.625l3.890625 -3.9375l2.109375 0l-3.6875 3.59375l4.0625 6.078125l-2.015625 0l-3.203125 -4.953125l-1.15625 1.125l0 3.828125l-1.640625 0zm24.8396 -1.4375q1.234375 0.859375 2.265625 1.25l-0.515625 1.21875q-1.4375 -0.515625 -2.875 -1.625q-1.484375 0.828125 -3.28125 0.828125q-1.8125 0 -3.296875 -0.875q-1.46875 -0.875 -2.265625 -2.453125q-0.796875 -1.59375 -0.796875 -3.578125q0 -1.984375 0.796875 -3.59375q0.8125 -1.625 2.28125 -2.46875q1.484375 -0.859375 3.328125 -0.859375q1.84375 0 3.328125 0.890625q1.484375 0.875 2.265625 2.453125q0.78125 1.578125 0.78125 3.5625q0 1.65625 -0.5 2.96875q-0.5 1.3125 -1.515625 2.28125zm-3.890625 -2.25q1.53125 0.421875 2.515625 1.28125q1.5625 -1.421875 1.5625 -4.28125q0 -1.625 -0.546875 -2.828125q-0.546875 -1.21875 -1.609375 -1.875q-1.0625 -0.671875 -2.390625 -0.671875q-1.96875 0 -3.28125 1.359375q-1.296875 1.34375 -1.296875 4.03125q0 2.59375 1.28125 4.0q1.296875 1.390625 3.296875 1.390625q0.953125 0 1.78125 -0.359375q-0.828125 -0.53125 -1.75 -0.765625l0.4375 -1.28125zm14.402039 3.6875l0 -1.421875q-1.125 1.640625 -3.0625 1.640625q-0.859375 0 -1.609375 -0.328125q-0.734375 -0.328125 -1.09375 -0.828125q-0.359375 -0.5 -0.5 -1.21875q-0.109375 -0.46875 -0.109375 -1.53125l0 -5.984375l1.640625 0l0 5.359375q0 1.28125 0.109375 1.734375q0.15625 0.640625 0.65625 1.015625q0.5 0.375 1.234375 0.375q0.734375 0 1.375 -0.375q0.65625 -0.390625 0.921875 -1.03125q0.265625 -0.65625 0.265625 -1.890625l0 -5.1875l1.640625 0l0 9.671875l-1.46875 0zm10.672607 -3.109375l1.6875 0.203125q-0.40625 1.484375 -1.484375 2.3125q-1.078125 0.8125 -2.765625 0.8125q-2.125 0 -3.375 -1.296875q-1.234375 -1.3125 -1.234375 -3.671875q0 -2.453125 1.25 -3.796875q1.265625 -1.34375 3.265625 -1.34375q1.9375 0 3.15625 1.328125q1.234375 1.3125 1.234375 3.703125q0 0.15625 0 0.4375l-7.21875 0q0.09375 1.59375 0.90625 2.453125q0.8125 0.84375 2.015625 0.84375q0.90625 0 1.546875 -0.46875q0.640625 -0.484375 1.015625 -1.515625zm-5.390625 -2.65625l5.40625 0q-0.109375 -1.21875 -0.625 -1.828125q-0.78125 -0.953125 -2.03125 -0.953125q-1.125 0 -1.90625 0.765625q-0.765625 0.75 -0.84375 2.015625zm15.469421 5.765625l0 -1.421875q-1.125 1.640625 -3.0625 1.640625q-0.859375 0 -1.609375 -0.328125q-0.734375 -0.328125 -1.09375 -0.828125q-0.359375 -0.5 -0.5 -1.21875q-0.109375 -0.46875 -0.109375 -1.53125l0 -5.984375l1.640625 0l0 5.359375q0 1.28125 0.109375 1.734375q0.15625 0.640625 0.65625 1.015625q0.5 0.375 1.234375 0.375q0.734375 0 1.375 -0.375q0.65625 -0.390625 0.921875 -1.03125q0.265625 -0.65625 0.265625 -1.890625l0 -5.1875l1.640625 0l0 9.671875l-1.46875 0zm10.672607 -3.109375l1.6875 0.203125q-0.40625 1.484375 -1.484375 2.3125q-1.078125 0.8125 -2.765625 0.8125q-2.125 0 -3.375 -1.296875q-1.234375 -1.3125 -1.234375 -3.671875q0 -2.453125 1.25 -3.796875q1.265625 -1.34375 3.265625 -1.34375q1.9375 0 3.15625 1.328125q1.234375 1.3125 1.234375 3.703125q0 0.15625 0 0.4375l-7.21875 0q0.09375 1.59375 0.90625 2.453125q0.8125 0.84375 2.015625 0.84375q0.90625 0 1.546875 -0.46875q0.640625 -0.484375 1.015625 -1.515625zm-5.390625 -2.65625l5.40625 0q-0.109375 -1.21875 -0.625 -1.828125q-0.78125 -0.953125 -2.03125 -0.953125q-1.125 0 -1.90625 0.765625q-0.765625 0.75 -0.84375 2.015625z" fill-rule="nonzero"/><path fill="#a64d79" d="m488.8118 243.78508l120.44095 0l0 49.4803l-120.44095 0z" fill-rule="evenodd"/><path stroke="#595959" stroke-width="1.0" stroke-linejoin="round" stroke-linecap="butt" d="m488.8118 243.78508l120.44095 0l0 49.4803l-120.44095 0z" fill-rule="evenodd"/><path fill="#ffffff" d="m494.62576 268.94522q0 -3.328125 1.78125 -5.203125q1.78125 -1.890625 4.609375 -1.890625q1.84375 0 3.328125 0.890625q1.484375 0.875 2.265625 2.46875q0.78125 1.578125 0.78125 3.578125q0 2.03125 -0.828125 3.640625q-0.8125 1.59375 -2.3125 2.421875q-1.5 0.828125 -3.25 0.828125q-1.875 0 -3.359375 -0.90625q-1.484375 -0.921875 -2.25 -2.5q-0.765625 -1.578125 -0.765625 -3.328125zm1.8125 0.015625q0 2.421875 1.296875 3.8125q1.296875 1.390625 3.265625 1.390625q2.0 0 3.28125 -1.40625q1.28125 -1.40625 1.28125 -3.984375q0 -1.625 -0.546875 -2.84375q-0.546875 -1.21875 -1.609375 -1.875q-1.0625 -0.671875 -2.375 -0.671875q-1.890625 0 -3.25 1.296875q-1.34375 1.28125 -1.34375 4.28125zm19.355194 6.484375l0 -1.421875q-1.125 1.640625 -3.0625 1.640625q-0.8594055 0 -1.6094055 -0.328125q-0.734375 -0.328125 -1.09375 -0.828125q-0.359375 -0.5 -0.5 -1.21875q-0.109375 -0.46875 -0.109375 -1.53125l0 -5.984375l1.640625 0l0 5.359375q0 1.28125 0.109375 1.734375q0.15625 0.640625 0.65625 1.015625q0.5000305 0.375 1.2344055 0.375q0.734375 0 1.375 -0.375q0.65625 -0.390625 0.921875 -1.03125q0.265625 -0.65625 0.265625 -1.890625l0 -5.1875l1.640625 0l0 9.671875l-1.46875 0zm7.6256714 -1.46875l0.234375 1.453125q-0.6875 0.140625 -1.234375 0.140625q-0.890625 0 -1.390625 -0.28125q-0.484375 -0.28125 -0.6875 -0.734375q-0.203125 -0.46875 -0.203125 -1.9375l0 -5.578125l-1.203125 0l0 -1.265625l1.203125 0l0 -2.390625l1.625 -0.984375l0 3.375l1.65625 0l0 1.265625l-1.65625 0l0 5.671875q0 0.6875 0.078125 0.890625q0.09375 0.203125 0.28125 0.328125q0.203125 0.109375 0.578125 0.109375q0.265625 0 0.71875 -0.0625zm1.6052246 5.171875l0 -13.375l1.484375 0l0 1.25q0.53125 -0.734375 1.1875 -1.09375q0.671875 -0.375 1.625 -0.375q1.234375 0 2.171875 0.640625q0.953125 0.625 1.4375 1.796875q0.484375 1.15625 0.484375 2.546875q0 1.484375 -0.53125 2.671875q-0.53125 1.1875 -1.546875 1.828125q-1.015625 0.625 -2.140625 0.625q-0.8125 0 -1.46875 -0.34375q-0.65625 -0.34375 -1.0625 -0.875l0 4.703125l-1.640625 0zm1.484375 -8.484375q0 1.859375 0.75 2.765625q0.765625 0.890625 1.828125 0.890625q1.09375 0 1.875 -0.921875q0.78125 -0.9375 0.78125 -2.875q0 -1.84375 -0.765625 -2.765625q-0.75 -0.921875 -1.8125 -0.921875q-1.046875 0 -1.859375 0.984375q-0.796875 0.96875 -0.796875 2.84375zm15.219421 4.78125l0 -1.421875q-1.125 1.640625 -3.0625 1.640625q-0.859375 0 -1.609375 -0.328125q-0.734375 -0.328125 -1.09375 -0.828125q-0.359375 -0.5 -0.5 -1.21875q-0.109375 -0.46875 -0.109375 -1.53125l0 -5.984375l1.640625 0l0 5.359375q0 1.28125 0.109375 1.734375q0.15625 0.640625 0.65625 1.015625q0.5 0.375 1.234375 0.375q0.734375 0 1.375 -0.375q0.65625 -0.390625 0.921875 -1.03125q0.265625 -0.65625 0.265625 -1.890625l0 -5.1875l1.640625 0l0 9.671875l-1.46875 0zm7.6257324 -1.46875l0.234375 1.453125q-0.6875 0.140625 -1.234375 0.140625q-0.890625 0 -1.390625 -0.28125q-0.484375 -0.28125 -0.6875 -0.734375q-0.203125 -0.46875 -0.203125 -1.9375l0 -5.578125l-1.203125 0l0 -1.265625l1.203125 0l0 -2.390625l1.625 -0.984375l0 3.375l1.65625 0l0 1.265625l-1.65625 0l0 5.671875q0 0.6875 0.078125 0.890625q0.09375 0.203125 0.28125 0.328125q0.203125 0.109375 0.578125 0.109375q0.265625 0 0.71875 -0.0625zm6.913513 1.46875l0 -13.359375l5.015625 0q1.53125 0 2.453125 0.40625q0.921875 0.40625 1.4375 1.25q0.53125 0.84375 0.53125 1.765625q0 0.859375 -0.46875 1.625q-0.453125 0.75 -1.390625 1.203125q1.203125 0.359375 1.859375 1.21875q0.65625 0.859375 0.65625 2.015625q0 0.9375 -0.40625 1.75q-0.390625 0.796875 -0.984375 1.234375q-0.578125 0.4375 -1.453125 0.671875q-0.875 0.21875 -2.15625 0.21875l-5.09375 0zm1.78125 -7.75l2.875 0q1.1875 0 1.6875 -0.140625q0.671875 -0.203125 1.015625 -0.671875q0.34375 -0.46875 0.34375 -1.171875q0 -0.65625 -0.328125 -1.15625q-0.3125 -0.515625 -0.90625 -0.703125q-0.59375 -0.1875 -2.03125 -0.1875l-2.65625 0l0 4.03125zm0 6.171875l3.3125 0q0.859375 0 1.203125 -0.0625q0.609375 -0.109375 1.015625 -0.359375q0.421875 -0.265625 0.6875 -0.75q0.265625 -0.484375 0.265625 -1.125q0 -0.75 -0.390625 -1.296875q-0.375 -0.546875 -1.0625 -0.765625q-0.671875 -0.234375 -1.953125 -0.234375l-3.078125 0l0 4.59375zm16.865417 1.578125l0 -1.421875q-1.125 1.640625 -3.0625 1.640625q-0.859375 0 -1.609375 -0.328125q-0.734375 -0.328125 -1.09375 -0.828125q-0.359375 -0.5 -0.5 -1.21875q-0.109375 -0.46875 -0.109375 -1.53125l0 -5.984375l1.640625 0l0 5.359375q0 1.28125 0.109375 1.734375q0.15625 0.640625 0.65625 1.015625q0.5 0.375 1.234375 0.375q0.734375 0 1.375 -0.375q0.65625 -0.390625 0.921875 -1.03125q0.265625 -0.65625 0.265625 -1.890625l0 -5.1875l1.640625 0l0 9.671875l-1.46875 0zm4.4382324 0l0 -8.40625l-1.453125 0l0 -1.265625l1.453125 0l0 -1.03125q0 -0.96875 0.171875 -1.453125q0.234375 -0.640625 0.828125 -1.03125q0.59375 -0.390625 1.671875 -0.390625q0.6875 0 1.53125 0.15625l-0.25 1.4375q-0.5 -0.09375 -0.953125 -0.09375q-0.75 0 -1.0625 0.328125q-0.3125 0.3125 -0.3125 1.1875l0 0.890625l1.890625 0l0 1.265625l-1.890625 0l0 8.40625l-1.625 0zm4.8460693 0l0 -8.40625l-1.453125 0l0 -1.265625l1.453125 0l0 -1.03125q0 -0.96875 0.171875 -1.453125q0.234375 -0.640625 0.828125 -1.03125q0.59375 -0.390625 1.671875 -0.390625q0.6875 0 1.53125 0.15625l-0.25 1.4375q-0.5 -0.09375 -0.953125 -0.09375q-0.75 0 -1.0625 0.328125q-0.3125 0.3125 -0.3125 1.1875l0 0.890625l1.890625 0l0 1.265625l-1.890625 0l0 8.40625l-1.625 0zm11.417664 -3.109375l1.6875 0.203125q-0.40625 1.484375 -1.484375 2.3125q-1.078125 0.8125 -2.765625 0.8125q-2.125 0 -3.375 -1.296875q-1.234375 -1.3125 -1.234375 -3.671875q0 -2.453125 1.25 -3.796875q1.265625 -1.34375 3.265625 -1.34375q1.9375 0 3.15625 1.328125q1.234375 1.3125 1.234375 3.703125q0 0.15625 0 0.4375l-7.21875 0q0.09375 1.59375 0.90625 2.453125q0.8125 0.84375 2.015625 0.84375q0.90625 0 1.546875 -0.46875q0.640625 -0.484375 1.015625 -1.515625zm-5.390625 -2.65625l5.40625 0q-0.109375 -1.21875 -0.625 -1.828125q-0.78125 -0.953125 -2.03125 -0.953125q-1.125 0 -1.90625 0.765625q-0.765625 0.75 -0.84375 2.015625zm9.125732 5.765625l0 -9.671875l1.46875 0l0 1.46875q0.5625 -1.03125 1.03125 -1.359375q0.484375 -0.328125 1.0625 -0.328125q0.828125 0 1.6875 0.53125l-0.5625 1.515625q-0.609375 -0.359375 -1.203125 -0.359375q-0.546875 0 -0.96875 0.328125q-0.421875 0.328125 -0.609375 0.890625q-0.28125 0.875 -0.28125 1.921875l0 5.0625l-1.625 0z" fill-rule="nonzero"/><path fill="#3c78d8" d="m849.82666 150.75623l37.984253 0l0 37.984253l-37.984253 0z" fill-rule="evenodd"/><path stroke="#595959" stroke-width="1.0" stroke-linejoin="round" stroke-linecap="butt" d="m849.82666 150.75623l37.984253 0l0 37.984253l-37.984253 0z" fill-rule="evenodd"/><path fill="#ffffff" d="m864.5024 175.60835l-3.03125 -11.453125l1.546875 0l1.75 7.5q0.28125 1.1875 0.484375 2.34375q0.4375 -1.828125 0.515625 -2.109375l2.171875 -7.734375l1.828125 0l1.640625 5.796875q0.625 2.15625 0.890625 4.046875q0.21875 -1.078125 0.578125 -2.484375l1.796875 -7.359375l1.515625 0l-3.140625 11.453125l-1.453125 0l-2.421875 -8.734375q-0.296875 -1.09375 -0.359375 -1.34375q-0.171875 0.796875 -0.328125 1.34375l-2.4375 8.734375l-1.546875 0z" fill-rule="nonzero"/><path fill="#e06666" d="m746.61395 151.81499l37.984253 0l0 37.984238l-37.984253 0z" fill-rule="evenodd"/><path stroke="#595959" stroke-width="1.0" stroke-linejoin="round" stroke-linecap="butt" d="m746.61395 151.81499l37.984253 0l0 37.984238l-37.984253 0z" fill-rule="evenodd"/><path fill="#ffffff" d="m761.09436 176.6671l0 -11.453125l5.078125 0q1.53125 0 2.328125 0.3125q0.796875 0.296875 1.265625 1.078125q0.484375 0.78125 0.484375 1.734375q0 1.21875 -0.796875 2.0625q-0.78125 0.828125 -2.4375 1.046875q0.609375 0.296875 0.921875 0.578125q0.65625 0.609375 1.25 1.515625l2.0 3.125l-1.90625 0l-1.515625 -2.390625q-0.671875 -1.03125 -1.109375 -1.578125q-0.421875 -0.546875 -0.765625 -0.765625q-0.328125 -0.21875 -0.6875 -0.296875q-0.25 -0.0625 -0.84375 -0.0625l-1.75 0l0 5.09375l-1.515625 0zm1.515625 -6.40625l3.25 0q1.046875 0 1.625 -0.203125q0.59375 -0.21875 0.890625 -0.6875q0.3125 -0.484375 0.3125 -1.03125q0 -0.8125 -0.59375 -1.328125q-0.59375 -0.53125 -1.859375 -0.53125l-3.625 0l0 3.78125z" fill-rule="nonzero"/><path fill="#e06666" d="m695.0076 151.81319l37.984253 0l0 37.984253l-37.984253 0z" fill-rule="evenodd"/><path stroke="#595959" stroke-width="1.0" stroke-linejoin="round" stroke-linecap="butt" d="m695.0076 151.81319l37.984253 0l0 37.984253l-37.984253 0z" fill-rule="evenodd"/><path fill="#ffffff" d="m709.48804 176.66531l0 -11.453125l5.078125 0q1.53125 0 2.328125 0.3125q0.796875 0.296875 1.265625 1.078125q0.484375 0.78125 0.484375 1.734375q0 1.21875 -0.796875 2.0625q-0.78125 0.828125 -2.4375 1.046875q0.609375 0.296875 0.921875 0.578125q0.65625 0.609375 1.25 1.515625l2.0 3.125l-1.90625 0l-1.515625 -2.390625q-0.671875 -1.03125 -1.109375 -1.578125q-0.421875 -0.546875 -0.765625 -0.765625q-0.328125 -0.21875 -0.6875 -0.296875q-0.25 -0.0625 -0.84375 -0.0625l-1.75 0l0 5.09375l-1.515625 0zm1.515625 -6.40625l3.25 0q1.046875 0 1.625 -0.203125q0.59375 -0.21875 0.890625 -0.6875q0.3125 -0.484375 0.3125 -1.03125q0 -0.8125 -0.59375 -1.328125q-0.59375 -0.53125 -1.859375 -0.53125l-3.625 0l0 3.78125z" fill-rule="nonzero"/><path fill="#3c78d8" d="m644.8374 151.81319l37.984253 0l0 37.984253l-37.984253 0z" fill-rule="evenodd"/><path stroke="#595959" stroke-width="1.0" stroke-linejoin="round" stroke-linecap="butt" d="m644.8374 151.81319l37.984253 0l0 37.984253l-37.984253 0z" fill-rule="evenodd"/><path fill="#ffffff" d="m659.5131 176.66531l-3.03125 -11.453125l1.546875 0l1.75 7.5q0.28125 1.1875 0.484375 2.34375q0.4375 -1.828125 0.515625 -2.109375l2.171875 -7.734375l1.828125 0l1.640625 5.796875q0.625 2.15625 0.890625 4.046875q0.21875 -1.078125 0.578125 -2.484375l1.796875 -7.359375l1.515625 0l-3.140625 11.453125l-1.453125 0l-2.421875 -8.734375q-0.296875 -1.09375 -0.359375 -1.34375q-0.171875 0.796875 -0.328125 1.34375l-2.4375 8.734375l-1.546875 0z" fill-rule="nonzero"/><path fill="#000000" fill-opacity="0.0" d="m358.85162 316.6856l0 38.377045l-127.88846 0l0 -142.37704l-30.442245 0" fill-rule="evenodd"/><path stroke="#595959" stroke-width="1.0" stroke-linejoin="round" stroke-linecap="butt" d="m358.85162 316.6856l0 38.377045l-127.88846 0l0 -142.37704l-30.442245 0" fill-rule="evenodd"/><path fill="#000000" fill-opacity="0.0" d="m358.85162 121.724976l0 -38.404488l-127.88846 0l0 129.36511l-30.442245 0" fill-rule="evenodd"/><path stroke="#595959" stroke-width="1.0" stroke-linejoin="round" stroke-linecap="butt" d="m358.85162 121.724976l0 -38.404488l-127.88846 0l0 129.36511l-30.442245 0" fill-rule="evenodd"/><path fill="#000000" fill-opacity="0.0" d="m456.33194 219.20529l16.240448 0l0 -49.291336l16.231995 0" fill-rule="evenodd"/><path stroke="#595959" stroke-width="1.0" stroke-linejoin="round" stroke-linecap="butt" d="m456.33194 219.20529l16.240448 0l0 -49.291336l16.231995 0" fill-rule="evenodd"/><path fill="#000000" fill-opacity="0.0" d="m456.33194 219.20529l16.240448 0l0 49.322845l16.231995 0" fill-rule="evenodd"/><path stroke="#595959" stroke-width="1.0" stroke-linejoin="round" stroke-linecap="butt" d="m456.33194 219.20529l16.240448 0l0 49.322845l16.231995 0" fill-rule="evenodd"/><path fill="#000000" fill-opacity="0.0" d="m609.25275 169.9004l28.850403 -0.15748596" fill-rule="evenodd"/><path stroke="#595959" stroke-width="1.0" stroke-linejoin="round" stroke-linecap="butt" d="m609.25275 169.9004l28.850403 -0.15748596" fill-rule="evenodd"/><path fill="#eeeeee" d="m638.1057 243.71l133.88977 0l0 49.637802l-133.88977 0z" fill-rule="evenodd"/><path stroke="#595959" stroke-width="1.0" stroke-linejoin="round" stroke-linecap="butt" d="m638.1057 243.71l133.88977 0l0 49.637802l-133.88977 0z" fill-rule="evenodd"/><path fill="#38761d" d="m644.0099 248.99527l38.015747 0l0 38.015747l-38.015747 0z" fill-rule="evenodd"/><path stroke="#595959" stroke-width="1.0" stroke-linejoin="round" stroke-linecap="butt" d="m644.0099 248.99527l38.015747 0l0 38.015747l-38.015747 0z" fill-rule="evenodd"/><path fill="#ffffff" d="m655.63104 273.86313l0 -11.453125l1.40625 0l0 6.53125l3.328125 -3.375l1.828125 0l-3.171875 3.078125l3.484375 5.21875l-1.734375 0l-2.734375 -4.25l-1.0 0.953125l0 3.296875l-1.40625 0zm12.90625 0l-1.40625 0l0 -8.96875q-0.515625 0.484375 -1.34375 0.96875q-0.8125 0.484375 -1.46875 0.734375l0 -1.359375q1.171875 -0.5625 2.046875 -1.34375q0.890625 -0.796875 1.265625 -1.53125l0.90625 0l0 11.5z" fill-rule="nonzero"/><path fill="#38761d" d="m686.04193 248.9769l38.015747 0l0 38.015747l-38.015747 0z" fill-rule="evenodd"/><path stroke="#595959" stroke-width="1.0" stroke-linejoin="round" stroke-linecap="butt" d="m686.04193 248.9769l38.015747 0l0 38.015747l-38.015747 0z" fill-rule="evenodd"/><path fill="#ffffff" d="m697.6631 273.84476l0 -11.453125l1.40625 0l0 6.53125l3.328125 -3.375l1.828125 0l-3.171875 3.078125l3.484375 5.21875l-1.734375 0l-2.734375 -4.25l-1.0 0.953125l0 3.296875l-1.40625 0zm15.0 -1.359375l0 1.359375l-7.578125 0q-0.015625 -0.515625 0.171875 -0.984375q0.28125 -0.765625 0.921875 -1.515625q0.640625 -0.75 1.84375 -1.734375q1.859375 -1.53125 2.515625 -2.421875q0.65625 -0.90625 0.65625 -1.703125q0 -0.828125 -0.59375 -1.40625q-0.59375 -0.578125 -1.5625 -0.578125q-1.015625 0 -1.625 0.609375q-0.609375 0.609375 -0.609375 1.6875l-1.453125 -0.140625q0.15625 -1.625 1.125 -2.46875q0.96875 -0.84375 2.59375 -0.84375q1.65625 0 2.609375 0.921875q0.96875 0.90625 0.96875 2.25q0 0.6875 -0.28125 1.359375q-0.28125 0.65625 -0.9375 1.390625q-0.65625 0.734375 -2.171875 2.015625q-1.265625 1.0625 -1.625 1.453125q-0.359375 0.375 -0.59375 0.75l5.625 0z" fill-rule="nonzero"/><path fill="#000000" fill-opacity="0.0" d="m648.28345 72.08662l311.71655 0l0 49.637794l-311.71655 0z" fill-rule="evenodd"/><path fill="#000000" d="m675.28235 99.08989l1.890625 0.46875q-0.59375 2.34375 -2.140625 3.578125q-1.546875 1.21875 -3.796875 1.21875q-2.3125 0 -3.765625 -0.9375q-1.4375 -0.953125 -2.203125 -2.734375q-0.75 -1.796875 -0.75 -3.84375q0 -2.234375 0.84375 -3.890625q0.859375 -1.671875 2.4375 -2.53125q1.578125 -0.875 3.46875 -0.875q2.15625 0 3.609375 1.09375q1.46875 1.09375 2.046875 3.078125l-1.859375 0.4375q-0.5 -1.5625 -1.453125 -2.265625q-0.9375 -0.71875 -2.375 -0.71875q-1.65625 0 -2.765625 0.796875q-1.109375 0.78125 -1.5625 2.125q-0.4375 1.328125 -0.4375 2.734375q0 1.828125 0.53125 3.203125q0.53125 1.359375 1.65625 2.03125q1.125 0.671875 2.421875 0.671875q1.59375 0 2.703125 -0.921875q1.109375 -0.921875 1.5 -2.71875zm10.771484 3.734375q-0.984375 0.828125 -1.890625 1.171875q-0.90625 0.34375 -1.9375 0.34375q-1.703125 0 -2.625 -0.828125q-0.921875 -0.84375 -0.921875 -2.140625q0 -0.765625 0.34375 -1.390625q0.359375 -0.625 0.921875 -1.0q0.5625 -0.390625 1.265625 -0.59375q0.515625 -0.125 1.5625 -0.265625q2.125 -0.25 3.125 -0.59375q0.015625 -0.359375 0.015625 -0.46875q0 -1.0625 -0.5 -1.515625q-0.671875 -0.59375 -2.0 -0.59375q-1.25 0 -1.84375 0.4375q-0.578125 0.4375 -0.859375 1.546875l-1.71875 -0.234375q0.234375 -1.109375 0.765625 -1.78125q0.53125 -0.6875 1.546875 -1.046875q1.015625 -0.375 2.359375 -0.375q1.328125 0 2.15625 0.3125q0.828125 0.3125 1.21875 0.796875q0.390625 0.46875 0.546875 1.1875q0.09375 0.453125 0.09375 1.625l0 2.34375q0 2.453125 0.109375 3.109375q0.109375 0.640625 0.453125 1.234375l-1.84375 0q-0.265625 -0.546875 -0.34375 -1.28125zm-0.15625 -3.921875q-0.953125 0.390625 -2.875 0.65625q-1.078125 0.15625 -1.53125 0.359375q-0.4375 0.1875 -0.6875 0.5625q-0.25 0.375 -0.25 0.84375q0 0.703125 0.53125 1.171875q0.53125 0.46875 1.5625 0.46875q1.015625 0 1.796875 -0.4375q0.796875 -0.453125 1.171875 -1.21875q0.28125 -0.609375 0.28125 -1.765625l0 -0.640625zm11.279297 1.40625l1.71875 0.21875q-0.28125 1.796875 -1.453125 2.8125q-1.15625 1.0 -2.859375 1.0q-2.125 0 -3.421875 -1.390625q-1.296875 -1.390625 -1.296875 -3.984375q0 -1.6875 0.546875 -2.9375q0.5625 -1.265625 1.703125 -1.890625q1.140625 -0.640625 2.484375 -0.640625q1.6875 0 2.75 0.859375q1.078125 0.859375 1.390625 2.421875l-1.71875 0.265625q-0.234375 -1.046875 -0.859375 -1.5625q-0.625 -0.53125 -1.5 -0.53125q-1.328125 0 -2.15625 0.953125q-0.828125 0.953125 -0.828125 3.0q0 2.09375 0.796875 3.046875q0.796875 0.9375 2.09375 0.9375q1.03125 0 1.71875 -0.625q0.703125 -0.640625 0.890625 -1.953125zm3.21875 3.796875l0 -14.3125l1.765625 0l0 5.125q1.234375 -1.421875 3.109375 -1.421875q1.140625 0 1.984375 0.453125q0.859375 0.453125 1.21875 1.265625q0.375 0.796875 0.375 2.3125l0 6.578125l-1.75 0l0 -6.578125q0 -1.3125 -0.578125 -1.90625q-0.578125 -0.609375 -1.609375 -0.609375q-0.78125 0 -1.484375 0.40625q-0.6875 0.40625 -0.984375 1.109375q-0.28125 0.6875 -0.28125 1.90625l0 5.671875l-1.765625 0zm18.232422 -3.34375l1.8125 0.234375q-0.421875 1.578125 -1.59375 2.46875q-1.15625 0.875 -2.96875 0.875q-2.265625 0 -3.609375 -1.390625q-1.328125 -1.40625 -1.328125 -3.9375q0 -2.625 1.34375 -4.0625q1.34375 -1.453125 3.5 -1.453125q2.078125 0 3.390625 1.421875q1.328125 1.40625 1.328125 3.984375q0 0.15625 -0.015625 0.46875l-7.734375 0q0.09375 1.703125 0.96875 2.609375q0.875 0.90625 2.171875 0.90625q0.96875 0 1.640625 -0.5q0.6875 -0.515625 1.09375 -1.625zm-5.78125 -2.84375l5.796875 0q-0.109375 -1.296875 -0.65625 -1.953125q-0.84375 -1.015625 -2.1875 -1.015625q-1.203125 0 -2.03125 0.8125q-0.828125 0.796875 -0.921875 2.15625zm8.435547 1.71875l0 -1.421875l11.125 0l0 1.421875l-11.125 0zm12.466797 4.46875l0 -10.375l1.578125 0l0 1.578125q0.609375 -1.109375 1.125 -1.453125q0.515625 -0.359375 1.125 -0.359375q0.890625 0 1.8125 0.5625l-0.609375 1.640625q-0.640625 -0.390625 -1.28125 -0.390625q-0.578125 0 -1.046875 0.359375q-0.453125 0.34375 -0.65625 0.953125q-0.28125 0.9375 -0.28125 2.046875l0 5.4375l-1.765625 0zm13.785156 -3.34375l1.8125 0.234375q-0.421875 1.578125 -1.59375 2.46875q-1.15625 0.875 -2.96875 0.875q-2.265625 0 -3.609375 -1.390625q-1.328125 -1.40625 -1.328125 -3.9375q0 -2.625 1.34375 -4.0625q1.34375 -1.453125 3.5 -1.453125q2.078125 0 3.390625 1.421875q1.328125 1.40625 1.328125 3.984375q0 0.15625 -0.015625 0.46875l-7.734375 0q0.09375 1.703125 0.96875 2.609375q0.875 0.90625 2.171875 0.90625q0.96875 0 1.640625 -0.5q0.6875 -0.515625 1.09375 -1.625zm-5.78125 -2.84375l5.796875 0q-0.109375 -1.296875 -0.65625 -1.953125q-0.84375 -1.015625 -2.1875 -1.015625q-1.203125 0 -2.03125 0.8125q-0.828125 0.796875 -0.921875 2.15625zm9.763672 6.1875l0 -14.3125l1.75 0l0 14.3125l-1.75 0zm11.255859 -1.28125q-0.984375 0.828125 -1.890625 1.171875q-0.90625 0.34375 -1.9375 0.34375q-1.703125 0 -2.625 -0.828125q-0.921875 -0.84375 -0.921875 -2.140625q0 -0.765625 0.34375 -1.390625q0.359375 -0.625 0.921875 -1.0q0.5625 -0.390625 1.265625 -0.59375q0.515625 -0.125 1.5625 -0.265625q2.125 -0.25 3.125 -0.59375q0.015625 -0.359375 0.015625 -0.46875q0 -1.0625 -0.5 -1.515625q-0.671875 -0.59375 -2.0 -0.59375q-1.25 0 -1.84375 0.4375q-0.578125 0.4375 -0.859375 1.546875l-1.71875 -0.234375q0.234375 -1.109375 0.765625 -1.78125q0.53125 -0.6875 1.546875 -1.046875q1.015625 -0.375 2.359375 -0.375q1.328125 0 2.15625 0.3125q0.828125 0.3125 1.21875 0.796875q0.390625 0.46875 0.546875 1.1875q0.09375 0.453125 0.09375 1.625l0 2.34375q0 2.453125 0.109375 3.109375q0.109375 0.640625 0.453125 1.234375l-1.84375 0q-0.265625 -0.546875 -0.34375 -1.28125zm-0.15625 -3.921875q-0.953125 0.390625 -2.875 0.65625q-1.078125 0.15625 -1.53125 0.359375q-0.4375 0.1875 -0.6875 0.5625q-0.25 0.375 -0.25 0.84375q0 0.703125 0.53125 1.171875q0.53125 0.46875 1.5625 0.46875q1.015625 0 1.796875 -0.4375q0.796875 -0.453125 1.171875 -1.21875q0.28125 -0.609375 0.28125 -1.765625l0 -0.640625zm8.341797 3.625l0.25 1.5625q-0.734375 0.15625 -1.328125 0.15625q-0.953125 0 -1.484375 -0.296875q-0.515625 -0.3125 -0.734375 -0.796875q-0.21875 -0.5 -0.21875 -2.078125l0 -5.96875l-1.28125 0l0 -1.375l1.28125 0l0 -2.5625l1.75 -1.0625l0 3.625l1.765625 0l0 1.375l-1.765625 0l0 6.0625q0 0.75 0.09375 0.96875q0.09375 0.203125 0.296875 0.34375q0.21875 0.125 0.609375 0.125q0.28125 0 0.765625 -0.078125zm8.822266 -1.765625l1.8125 0.234375q-0.421875 1.578125 -1.59375 2.46875q-1.15625 0.875 -2.96875 0.875q-2.265625 0 -3.609375 -1.390625q-1.328125 -1.40625 -1.328125 -3.9375q0 -2.625 1.34375 -4.0625q1.34375 -1.453125 3.5 -1.453125q2.078125 0 3.390625 1.421875q1.328125 1.40625 1.328125 3.984375q0 0.15625 -0.015625 0.46875l-7.734375 0q0.09375 1.703125 0.96875 2.609375q0.875 0.90625 2.171875 0.90625q0.96875 0 1.640625 -0.5q0.6875 -0.515625 1.09375 -1.625zm-5.78125 -2.84375l5.796875 0q-0.109375 -1.296875 -0.65625 -1.953125q-0.84375 -1.015625 -2.1875 -1.015625q-1.203125 0 -2.03125 0.8125q-0.828125 0.796875 -0.921875 2.15625zm16.529297 6.1875l0 -1.3125q-0.984375 1.546875 -2.90625 1.546875q-1.234375 0 -2.28125 -0.6875q-1.03125 -0.6875 -1.609375 -1.90625q-0.5625 -1.21875 -0.5625 -2.8125q0 -1.5625 0.515625 -2.828125q0.515625 -1.265625 1.546875 -1.9375q1.046875 -0.671875 2.3125 -0.671875q0.9375 0 1.671875 0.40625q0.734375 0.390625 1.203125 1.015625l0 -5.125l1.734375 0l0 14.3125l-1.625 0zm-5.5625 -5.171875q0 1.984375 0.84375 2.96875q0.84375 0.984375 1.984375 0.984375q1.15625 0 1.953125 -0.9375q0.8125 -0.9375 0.8125 -2.875q0 -2.125 -0.828125 -3.125q-0.8125 -1.0 -2.015625 -1.0q-1.171875 0 -1.96875 0.96875q-0.78125 0.953125 -0.78125 3.015625zm19.351562 3.59375l0.25 1.5625q-0.734375 0.15625 -1.328125 0.15625q-0.953125 0 -1.484375 -0.296875q-0.515625 -0.3125 -0.734375 -0.796875q-0.21875 -0.5 -0.21875 -2.078125l0 -5.96875l-1.28125 0l0 -1.375l1.28125 0l0 -2.5625l1.75 -1.0625l0 3.625l1.765625 0l0 1.375l-1.765625 0l0 6.0625q0 0.75 0.09375 0.96875q0.09375 0.203125 0.296875 0.34375q0.21875 0.125 0.609375 0.125q0.28125 0 0.765625 -0.078125zm8.494141 0.296875q-0.984375 0.828125 -1.890625 1.171875q-0.90625 0.34375 -1.9375 0.34375q-1.703125 0 -2.625 -0.828125q-0.921875 -0.84375 -0.921875 -2.140625q0 -0.765625 0.34375 -1.390625q0.359375 -0.625 0.921875 -1.0q0.5625 -0.390625 1.265625 -0.59375q0.515625 -0.125 1.5625 -0.265625q2.125 -0.25 3.125 -0.59375q0.015625 -0.359375 0.015625 -0.46875q0 -1.0625 -0.5 -1.515625q-0.671875 -0.59375 -2.0 -0.59375q-1.25 0 -1.84375 0.4375q-0.578125 0.4375 -0.859375 1.546875l-1.71875 -0.234375q0.234375 -1.109375 0.765625 -1.78125q0.53125 -0.6875 1.546875 -1.046875q1.015625 -0.375 2.359375 -0.375q1.328125 0 2.15625 0.3125q0.828125 0.3125 1.21875 0.796875q0.390625 0.46875 0.546875 1.1875q0.09375 0.453125 0.09375 1.625l0 2.34375q0 2.453125 0.109375 3.109375q0.109375 0.640625 0.453125 1.234375l-1.84375 0q-0.265625 -0.546875 -0.34375 -1.28125zm-0.15625 -3.921875q-0.953125 0.390625 -2.875 0.65625q-1.078125 0.15625 -1.53125 0.359375q-0.4375 0.1875 -0.6875 0.5625q-0.25 0.375 -0.25 0.84375q0 0.703125 0.53125 1.171875q0.53125 0.46875 1.5625 0.46875q1.015625 0 1.796875 -0.4375q0.796875 -0.453125 1.171875 -1.21875q0.28125 -0.609375 0.28125 -1.765625l0 -0.640625zm3.7949219 2.109375l1.75 -0.28125q0.140625 1.046875 0.8125 1.609375q0.671875 0.546875 1.875 0.546875q1.203125 0 1.78125 -0.484375q0.59375 -0.5 0.59375 -1.15625q0 -0.59375 -0.515625 -0.9375q-0.359375 -0.234375 -1.796875 -0.59375q-1.9375 -0.5 -2.6875 -0.84375q-0.734375 -0.359375 -1.125 -0.984375q-0.390625 -0.640625 -0.390625 -1.40625q0 -0.6875 0.3125 -1.28125q0.328125 -0.59375 0.875 -0.984375q0.40625 -0.296875 1.109375 -0.5q0.71875 -0.21875 1.53125 -0.21875q1.21875 0 2.140625 0.359375q0.921875 0.34375 1.359375 0.953125q0.4375 0.59375 0.609375 1.59375l-1.71875 0.234375q-0.125 -0.796875 -0.6875 -1.234375q-0.5625 -0.453125 -1.578125 -0.453125q-1.21875 0 -1.734375 0.40625q-0.515625 0.390625 -0.515625 0.921875q0 0.34375 0.21875 0.625q0.203125 0.28125 0.671875 0.46875q0.265625 0.09375 1.546875 0.4375q1.875 0.5 2.609375 0.828125q0.734375 0.3125 1.15625 0.921875q0.421875 0.59375 0.421875 1.5q0 0.875 -0.515625 1.65625q-0.515625 0.78125 -1.484375 1.203125q-0.96875 0.421875 -2.1875 0.421875q-2.015625 0 -3.078125 -0.84375q-1.0625 -0.84375 -1.359375 -2.484375zm10.71875 3.09375l0 -14.3125l1.765625 0l0 8.15625l4.15625 -4.21875l2.265625 0l-3.953125 3.84375l4.359375 6.53125l-2.171875 0l-3.421875 -5.296875l-1.234375 1.1875l0 4.109375l-1.765625 0zm9.28125 -3.09375l1.75 -0.28125q0.140625 1.046875 0.8125 1.609375q0.671875 0.546875 1.875 0.546875q1.203125 0 1.78125 -0.484375q0.59375 -0.5 0.59375 -1.15625q0 -0.59375 -0.515625 -0.9375q-0.359375 -0.234375 -1.796875 -0.59375q-1.9375 -0.5 -2.6875 -0.84375q-0.734375 -0.359375 -1.125 -0.984375q-0.390625 -0.640625 -0.390625 -1.40625q0 -0.6875 0.3125 -1.28125q0.328125 -0.59375 0.875 -0.984375q0.40625 -0.296875 1.109375 -0.5q0.71875 -0.21875 1.53125 -0.21875q1.21875 0 2.140625 0.359375q0.921875 0.34375 1.359375 0.953125q0.4375 0.59375 0.609375 1.59375l-1.71875 0.234375q-0.125 -0.796875 -0.6875 -1.234375q-0.5625 -0.453125 -1.578125 -0.453125q-1.21875 0 -1.734375 0.40625q-0.515625 0.390625 -0.515625 0.921875q0 0.34375 0.21875 0.625q0.203125 0.28125 0.671875 0.46875q0.265625 0.09375 1.546875 0.4375q1.875 0.5 2.609375 0.828125q0.734375 0.3125 1.15625 0.921875q0.421875 0.59375 0.421875 1.5q0 0.875 -0.515625 1.65625q-0.515625 0.78125 -1.484375 1.203125q-0.96875 0.421875 -2.1875 0.421875q-2.015625 0 -3.078125 -0.84375q-1.0625 -0.84375 -1.359375 -2.484375zm16.68164 3.09375l0 -9.0l-1.546875 0l0 -1.375l1.546875 0l0 -1.09375q0 -1.046875 0.1875 -1.5625q0.25 -0.6875 0.890625 -1.109375q0.640625 -0.421875 1.796875 -0.421875q0.75 0 1.640625 0.171875l-0.265625 1.53125q-0.546875 -0.09375 -1.03125 -0.09375q-0.796875 0 -1.140625 0.34375q-0.328125 0.34375 -0.328125 1.28125l0 0.953125l2.03125 0l0 1.375l-2.03125 0l0 9.0l-1.75 0zm5.1191406 0l0 -10.375l1.578125 0l0 1.578125q0.609375 -1.109375 1.125 -1.453125q0.515625 -0.359375 1.125 -0.359375q0.890625 0 1.8125 0.5625l-0.609375 1.640625q-0.640625 -0.390625 -1.28125 -0.390625q-0.578125 0 -1.046875 0.359375q-0.453125 0.34375 -0.65625 0.953125q-0.28125 0.9375 -0.28125 2.046875l0 5.4375l-1.765625 0zm6.0351562 -5.1875q0 -2.875 1.59375 -4.265625q1.34375 -1.15625 3.265625 -1.15625q2.140625 0 3.484375 1.40625q1.359375 1.40625 1.359375 3.875q0 2.0 -0.59375 3.15625q-0.59375 1.140625 -1.75 1.78125q-1.140625 0.625 -2.5 0.625q-2.1875 0 -3.53125 -1.390625q-1.328125 -1.40625 -1.328125 -4.03125zm1.796875 0q0 2.0 0.859375 2.984375q0.875 0.984375 2.203125 0.984375q1.3125 0 2.171875 -0.984375q0.875 -1.0 0.875 -3.046875q0 -1.921875 -0.875 -2.90625q-0.875 -1.0 -2.171875 -1.0q-1.328125 0 -2.203125 1.0q-0.859375 0.984375 -0.859375 2.96875zm9.966797 5.1875l0 -10.375l1.578125 0l0 1.453125q0.484375 -0.75 1.296875 -1.21875q0.8125 -0.46875 1.84375 -0.46875q1.15625 0 1.890625 0.484375q0.734375 0.46875 1.046875 1.328125q1.234375 -1.8125 3.203125 -1.8125q1.546875 0 2.375 0.859375q0.828125 0.859375 0.828125 2.625l0 7.125l-1.75 0l0 -6.53125q0 -1.0625 -0.171875 -1.515625q-0.171875 -0.46875 -0.625 -0.75q-0.4375 -0.28125 -1.046875 -0.28125q-1.09375 0 -1.828125 0.734375q-0.71875 0.71875 -0.71875 2.3125l0 6.03125l-1.75 0l0 -6.734375q0 -1.171875 -0.4375 -1.75q-0.421875 -0.59375 -1.40625 -0.59375q-0.734375 0 -1.375 0.390625q-0.625 0.390625 -0.90625 1.140625q-0.28125 0.75 -0.28125 2.171875l0 5.375l-1.765625 0zm22.435547 0l0 -14.3125l1.9375 0l7.515625 11.234375l0 -11.234375l1.8125 0l0 14.3125l-1.9375 0l-7.515625 -11.25l0 11.25l-1.8125 0zm13.583984 -5.1875q0 -2.875 1.59375 -4.265625q1.34375 -1.15625 3.265625 -1.15625q2.140625 0 3.484375 1.40625q1.359375 1.40625 1.359375 3.875q0 2.0 -0.59375 3.15625q-0.59375 1.140625 -1.75 1.78125q-1.140625 0.625 -2.5 0.625q-2.1875 0 -3.53125 -1.390625q-1.328125 -1.40625 -1.328125 -4.03125zm1.796875 0q0 2.0 0.859375 2.984375q0.875 0.984375 2.203125 0.984375q1.3125 0 2.171875 -0.984375q0.875 -1.0 0.875 -3.046875q0 -1.921875 -0.875 -2.90625q-0.875 -1.0 -2.171875 -1.0q-1.328125 0 -2.203125 1.0q-0.859375 0.984375 -0.859375 2.96875zm16.701172 5.1875l0 -1.3125q-0.984375 1.546875 -2.90625 1.546875q-1.234375 0 -2.28125 -0.6875q-1.03125 -0.6875 -1.609375 -1.90625q-0.5625 -1.21875 -0.5625 -2.8125q0 -1.5625 0.515625 -2.828125q0.515625 -1.265625 1.546875 -1.9375q1.046875 -0.671875 2.3125 -0.671875q0.9375 0 1.671875 0.40625q0.734375 0.390625 1.203125 1.015625l0 -5.125l1.734375 0l0 14.3125l-1.625 0zm-5.5625 -5.171875q0 1.984375 0.84375 2.96875q0.84375 0.984375 1.984375 0.984375q1.15625 0 1.953125 -0.9375q0.8125 -0.9375 0.8125 -2.875q0 -2.125 -0.828125 -3.125q-0.8125 -1.0 -2.015625 -1.0q-1.171875 0 -1.96875 0.96875q-0.78125 0.953125 -0.78125 3.015625zm17.060547 1.828125l1.8125 0.234375q-0.421875 1.578125 -1.59375 2.46875q-1.15625 0.875 -2.96875 0.875q-2.265625 0 -3.609375 -1.390625q-1.328125 -1.40625 -1.328125 -3.9375q0 -2.625 1.34375 -4.0625q1.34375 -1.453125 3.5 -1.453125q2.078125 0 3.390625 1.421875q1.328125 1.40625 1.328125 3.984375q0 0.15625 -0.015625 0.46875l-7.734375 0q0.09375 1.703125 0.96875 2.609375q0.875 0.90625 2.171875 0.90625q0.96875 0 1.640625 -0.5q0.6875 -0.515625 1.09375 -1.625zm-5.78125 -2.84375l5.796875 0q-0.109375 -1.296875 -0.65625 -1.953125q-0.84375 -1.015625 -2.1875 -1.015625q-1.203125 0 -2.03125 0.8125q-0.828125 0.796875 -0.921875 2.15625z" fill-rule="nonzero"/><path fill="#000000" fill-opacity="0.0" d="m740.43134 293.26382l182.99213 0l0 60.661438l-182.99213 0z" fill-rule="evenodd"/><path fill="#000000" d="m745.24054 331.27454l0 -15.265625l5.265625 0q1.78125 0 2.71875 0.21875q1.3125 0.296875 2.234375 1.09375q1.203125 1.015625 1.796875 2.609375q0.609375 1.578125 0.609375 3.625q0 1.734375 -0.40625 3.078125q-0.40625 1.34375 -1.046875 2.234375q-0.625 0.875 -1.390625 1.390625q-0.75 0.5 -1.8125 0.765625q-1.0625 0.25 -2.453125 0.25l-5.515625 0zm2.03125 -1.796875l3.25 0q1.515625 0 2.375 -0.28125q0.859375 -0.28125 1.375 -0.796875q0.703125 -0.71875 1.109375 -1.921875q0.40625 -1.21875 0.40625 -2.953125q0 -2.390625 -0.796875 -3.671875q-0.78125 -1.296875 -1.90625 -1.734375q-0.8125 -0.3125 -2.609375 -0.3125l-3.203125 0l0 11.671875zm20.355652 0.4375q-1.046875 0.875 -2.015625 1.25q-0.953125 0.359375 -2.0625 0.359375q-1.8125 0 -2.796875 -0.890625q-0.984375 -0.890625 -0.984375 -2.28125q0 -0.8125 0.375 -1.484375q0.375 -0.671875 0.96875 -1.078125q0.59375 -0.40625 1.34375 -0.609375q0.5625 -0.140625 1.671875 -0.28125q2.265625 -0.265625 3.34375 -0.640625q0.015625 -0.390625 0.015625 -0.5q0 -1.140625 -0.53125 -1.609375q-0.71875 -0.640625 -2.140625 -0.640625q-1.328125 0 -1.953125 0.46875q-0.625 0.46875 -0.9375 1.640625l-1.828125 -0.25q0.25 -1.171875 0.8125 -1.890625q0.578125 -0.734375 1.65625 -1.125q1.09375 -0.390625 2.515625 -0.390625q1.421875 0 2.296875 0.34375q0.890625 0.328125 1.3125 0.828125q0.421875 0.5 0.578125 1.28125q0.09375 0.46875 0.09375 1.71875l0 2.5q0 2.625 0.125 3.3125q0.125 0.6875 0.46875 1.328125l-1.953125 0q-0.296875 -0.578125 -0.375 -1.359375zm-0.15625 -4.1875q-1.015625 0.40625 -3.0625 0.703125q-1.15625 0.171875 -1.640625 0.375q-0.46875 0.203125 -0.734375 0.609375q-0.265625 0.40625 -0.265625 0.890625q0 0.75 0.5625 1.25q0.578125 0.5 1.671875 0.5q1.078125 0 1.921875 -0.46875q0.84375 -0.484375 1.25 -1.296875q0.296875 -0.640625 0.296875 -1.875l0 -0.6875zm8.892944 3.875l0.265625 1.65625q-0.78125 0.15625 -1.40625 0.15625q-1.03125 0 -1.59375 -0.3125q-0.5625 -0.328125 -0.796875 -0.84375q-0.21875 -0.53125 -0.21875 -2.21875l0 -6.375l-1.375 0l0 -1.453125l1.375 0l0 -2.734375l1.859375 -1.125l0 3.859375l1.890625 0l0 1.453125l-1.890625 0l0 6.46875q0 0.8125 0.09375 1.046875q0.109375 0.21875 0.328125 0.359375q0.234375 0.125 0.640625 0.125q0.3125 0 0.828125 -0.0625zm9.050659 0.3125q-1.046875 0.875 -2.015625 1.25q-0.953125 0.359375 -2.0625 0.359375q-1.8125 0 -2.796875 -0.890625q-0.984375 -0.890625 -0.984375 -2.28125q0 -0.8125 0.375 -1.484375q0.375 -0.671875 0.96875 -1.078125q0.59375 -0.40625 1.34375 -0.609375q0.5625 -0.140625 1.671875 -0.28125q2.265625 -0.265625 3.34375 -0.640625q0.015625 -0.390625 0.015625 -0.5q0 -1.140625 -0.53125 -1.609375q-0.71875 -0.640625 -2.140625 -0.640625q-1.328125 0 -1.953125 0.46875q-0.625 0.46875 -0.9375 1.640625l-1.828125 -0.25q0.25 -1.171875 0.8125 -1.890625q0.578125 -0.734375 1.65625 -1.125q1.09375 -0.390625 2.515625 -0.390625q1.421875 0 2.296875 0.34375q0.890625 0.328125 1.3125 0.828125q0.421875 0.5 0.578125 1.28125q0.09375 0.46875 0.09375 1.71875l0 2.5q0 2.625 0.125 3.3125q0.125 0.6875 0.46875 1.328125l-1.953125 0q-0.296875 -0.578125 -0.375 -1.359375zm-0.15625 -4.1875q-1.015625 0.40625 -3.0625 0.703125q-1.15625 0.171875 -1.640625 0.375q-0.46875 0.203125 -0.734375 0.609375q-0.265625 0.40625 -0.265625 0.890625q0 0.75 0.5625 1.25q0.578125 0.5 1.671875 0.5q1.078125 0 1.921875 -0.46875q0.84375 -0.484375 1.25 -1.296875q0.296875 -0.640625 0.296875 -1.875l0 -0.6875zm12.4591675 5.546875l-1.75 0l0 -15.265625l1.875 0l0 5.4375q1.1875 -1.484375 3.03125 -1.484375q1.03125 0 1.9375 0.421875q0.90625 0.40625 1.5 1.15625q0.59375 0.734375 0.921875 1.796875q0.328125 1.046875 0.328125 2.234375q0 2.84375 -1.40625 4.40625q-1.40625 1.546875 -3.375 1.546875q-1.953125 0 -3.0625 -1.640625l0 1.390625zm-0.03125 -5.609375q0 1.984375 0.546875 2.875q0.890625 1.4375 2.390625 1.4375q1.234375 0 2.125 -1.0625q0.90625 -1.0625 0.90625 -3.1875q0 -2.15625 -0.859375 -3.1875q-0.859375 -1.03125 -2.078125 -1.03125q-1.234375 0 -2.140625 1.0625q-0.890625 1.0625 -0.890625 3.09375zm17.37732 4.25q-1.046875 0.875 -2.015625 1.25q-0.953125 0.359375 -2.0625 0.359375q-1.8125 0 -2.796875 -0.890625q-0.984375 -0.890625 -0.984375 -2.28125q0 -0.8125 0.375 -1.484375q0.375 -0.671875 0.96875 -1.078125q0.59375 -0.40625 1.34375 -0.609375q0.5625 -0.140625 1.671875 -0.28125q2.265625 -0.265625 3.34375 -0.640625q0.015625 -0.390625 0.015625 -0.5q0 -1.140625 -0.53125 -1.609375q-0.71875 -0.640625 -2.140625 -0.640625q-1.328125 0 -1.953125 0.46875q-0.625 0.46875 -0.9375 1.640625l-1.828125 -0.25q0.25 -1.171875 0.8125 -1.890625q0.578125 -0.734375 1.65625 -1.125q1.09375 -0.390625 2.515625 -0.390625q1.421875 0 2.296875 0.34375q0.890625 0.328125 1.3125 0.828125q0.421875 0.5 0.578125 1.28125q0.09375 0.46875 0.09375 1.71875l0 2.5q0 2.625 0.125 3.3125q0.125 0.6875 0.46875 1.328125l-1.953125 0q-0.296875 -0.578125 -0.375 -1.359375zm-0.15625 -4.1875q-1.015625 0.40625 -3.0625 0.703125q-1.15625 0.171875 -1.640625 0.375q-0.46875 0.203125 -0.734375 0.609375q-0.265625 0.40625 -0.265625 0.890625q0 0.75 0.5625 1.25q0.578125 0.5 1.671875 0.5q1.078125 0 1.921875 -0.46875q0.84375 -0.484375 1.25 -1.296875q0.296875 -0.640625 0.296875 -1.875l0 -0.6875zm12.017944 1.5l1.84375 0.234375q-0.296875 1.90625 -1.546875 2.984375q-1.25 1.078125 -3.0625 1.078125q-2.265625 0 -3.65625 -1.484375q-1.375 -1.484375 -1.375 -4.25q0 -1.796875 0.59375 -3.140625q0.59375 -1.34375 1.8125 -2.015625q1.21875 -0.671875 2.640625 -0.671875q1.796875 0 2.9375 0.921875q1.15625 0.90625 1.484375 2.578125l-1.828125 0.28125q-0.265625 -1.109375 -0.921875 -1.671875q-0.65625 -0.5625 -1.59375 -0.5625q-1.421875 0 -2.3125 1.015625q-0.875 1.015625 -0.875 3.203125q0 2.234375 0.84375 3.25q0.859375 1.0 2.234375 1.0q1.109375 0 1.84375 -0.671875q0.734375 -0.671875 0.9375 -2.078125zm3.4609375 4.046875l0 -15.265625l1.875 0l0 8.703125l4.4375 -4.5l2.421875 0l-4.234375 4.109375l4.65625 6.953125l-2.3125 0l-3.65625 -5.65625l-1.3125 1.265625l0 4.390625l-1.875 0zm20.667847 -1.671875l0.265625 1.65625q-0.78125 0.15625 -1.40625 0.15625q-1.03125 0 -1.59375 -0.3125q-0.5625 -0.328125 -0.796875 -0.84375q-0.21875 -0.53125 -0.21875 -2.21875l0 -6.375l-1.375 0l0 -1.453125l1.375 0l0 -2.734375l1.859375 -1.125l0 3.859375l1.890625 0l0 1.453125l-1.890625 0l0 6.46875q0 0.8125 0.09375 1.046875q0.109375 0.21875 0.328125 0.359375q0.234375 0.125 0.640625 0.125q0.3125 0 0.828125 -0.0625zm1.1287842 -3.859375q0 -3.078125 1.71875 -4.546875q1.421875 -1.234375 3.46875 -1.234375q2.28125 0 3.71875 1.5q1.453125 1.484375 1.453125 4.125q0 2.140625 -0.640625 3.359375q-0.625 1.21875 -1.859375 1.90625q-1.21875 0.671875 -2.671875 0.671875q-2.3125 0 -3.75 -1.484375q-1.4375 -1.5 -1.4375 -4.296875zm1.9375 0q0 2.125 0.921875 3.1875q0.921875 1.046875 2.328125 1.046875q1.40625 0 2.328125 -1.0625q0.921875 -1.0625 0.921875 -3.234375q0 -2.046875 -0.9375 -3.109375q-0.921875 -1.0625 -2.3125 -1.0625q-1.40625 0 -2.328125 1.0625q-0.921875 1.046875 -0.921875 3.171875zm16.771729 5.53125l0 -15.265625l2.078125 0l8.015625 11.984375l0 -11.984375l1.9375 0l0 15.265625l-2.078125 0l-8.015625 -12.0l0 12.0l-1.9375 0zm14.480591 -5.53125q0 -3.078125 1.71875 -4.546875q1.421875 -1.234375 3.46875 -1.234375q2.28125 0 3.71875 1.5q1.453125 1.484375 1.453125 4.125q0 2.140625 -0.640625 3.359375q-0.625 1.21875 -1.859375 1.90625q-1.21875 0.671875 -2.671875 0.671875q-2.3125 0 -3.75 -1.484375q-1.4375 -1.5 -1.4375 -4.296875zm1.9375 0q0 2.125 0.921875 3.1875q0.921875 1.046875 2.328125 1.046875q1.40625 0 2.328125 -1.0625q0.921875 -1.0625 0.921875 -3.234375q0 -2.046875 -0.9375 -3.109375q-0.921875 -1.0625 -2.3125 -1.0625q-1.40625 0 -2.328125 1.0625q-0.921875 1.046875 -0.921875 3.171875zm17.799194 5.53125l0 -1.390625q-1.046875 1.640625 -3.09375 1.640625q-1.3125 0 -2.421875 -0.71875q-1.109375 -0.734375 -1.71875 -2.046875q-0.609375 -1.3125 -0.609375 -3.0q0 -1.65625 0.546875 -3.0q0.546875 -1.359375 1.65625 -2.078125q1.109375 -0.71875 2.46875 -0.71875q1.0 0 1.78125 0.421875q0.78125 0.421875 1.265625 1.09375l0 -5.46875l1.875 0l0 15.265625l-1.75 0zm-5.921875 -5.515625q0 2.125 0.890625 3.171875q0.90625 1.046875 2.125 1.046875q1.21875 0 2.078125 -1.0q0.859375 -1.0 0.859375 -3.0625q0 -2.28125 -0.875 -3.34375q-0.875 -1.0625 -2.15625 -1.0625q-1.25 0 -2.09375 1.03125q-0.828125 1.015625 -0.828125 3.21875zm18.18982 1.953125l1.921875 0.234375q-0.453125 1.703125 -1.6875 2.640625q-1.234375 0.9375 -3.171875 0.9375q-2.421875 0 -3.84375 -1.484375q-1.421875 -1.5 -1.421875 -4.203125q0 -2.796875 1.4375 -4.328125q1.4375 -1.546875 3.734375 -1.546875q2.21875 0 3.609375 1.515625q1.40625 1.5 1.40625 4.25q0 0.15625 0 0.5l-8.25 0q0.109375 1.8125 1.03125 2.78125q0.921875 0.96875 2.3125 0.96875q1.03125 0 1.75 -0.53125q0.734375 -0.546875 1.171875 -1.734375zm-6.15625 -3.03125l6.171875 0q-0.125 -1.390625 -0.703125 -2.09375q-0.90625 -1.078125 -2.328125 -1.078125q-1.296875 0 -2.171875 0.859375q-0.875 0.859375 -0.96875 2.3125z" fill-rule="nonzero"/><path fill="#000000" fill-opacity="0.0" d="m471.3622 0l137.88974 0l0 58.17323l-137.88974 0z" fill-rule="evenodd"/><path fill="#000000" d="m512.86957 32.575363l3.03125 0.765625q-0.953125 3.734375 -3.4375 5.703125q-2.4687195 1.953125 -6.0468445 1.953125q-3.703125 0 -6.03125 -1.5q-2.3125 -1.515625 -3.53125 -4.375q-1.203125 -2.859375 -1.203125 -6.140625q0 -3.578125 1.359375 -6.234375q1.375 -2.671875 3.890625 -4.046875q2.53125 -1.390625 5.5625 -1.390625q3.4375 0 5.7812195 1.75q2.34375 1.75 3.265625 4.921875l-2.984375 0.703125q-0.7968445 -2.5 -2.3124695 -3.640625q-1.515625 -1.140625 -3.8125 -1.140625q-2.640625 0 -4.421875 1.265625q-1.765625 1.265625 -2.484375 3.40625q-0.71875 2.125 -0.71875 4.390625q0 2.921875 0.84375 5.109375q0.859375 2.171875 2.65625 3.25q1.796875 1.078125 3.890625 1.078125q2.546875 0 4.3125 -1.46875q1.7655945 -1.46875 2.3905945 -4.359375zm17.234375 5.984375q-1.5625 1.328125 -3.015625 1.875q-1.4375 0.546875 -3.09375 0.546875q-2.734375 0 -4.203125 -1.328125q-1.46875 -1.34375 -1.46875 -3.421875q0 -1.21875 0.546875 -2.21875q0.5625 -1.015625 1.453125 -1.625q0.90625 -0.609375 2.03125 -0.921875q0.828125 -0.21875 2.5 -0.421875q3.40625 -0.40625 5.015625 -0.96875q0.015625 -0.578125 0.015625 -0.734375q0 -1.71875 -0.796875 -2.421875q-1.078125 -0.953125 -3.203125 -0.953125q-1.984375 0 -2.9375 0.703125q-0.9375 0.6875 -1.390625 2.453125l-2.75 -0.375q0.375 -1.765625 1.234375 -2.84375q0.859375 -1.09375 2.484375 -1.671875q1.625 -0.59375 3.765625 -0.59375q2.125 0 3.453125 0.5q1.328125 0.5 1.953125 1.265625q0.625 0.75 0.875 1.90625q0.140625 0.71875 0.140625 2.59375l0 3.75q0 3.921875 0.171875 4.96875q0.1875 1.03125 0.71875 1.984375l-2.9375 0q-0.4375 -0.875 -0.5625 -2.046875zm-0.234375 -6.28125q-1.53125 0.625 -4.59375 1.0625q-1.734375 0.25 -2.453125 0.5625q-0.71875 0.3125 -1.109375 0.921875q-0.390625 0.59375 -0.390625 1.328125q0 1.125 0.84375 1.875q0.859375 0.75 2.5 0.75q1.625 0 2.890625 -0.703125q1.265625 -0.71875 1.859375 -1.953125q0.453125 -0.953125 0.453125 -2.8125l0 -1.03125zm18.03125 2.25l2.765625 0.359375q-0.453125 2.859375 -2.328125 4.484375q-1.859375 1.609375 -4.578125 1.609375q-3.40625 0 -5.484375 -2.21875q-2.0625 -2.234375 -2.0625 -6.390625q0 -2.6875 0.890625 -4.703125q0.890625 -2.015625 2.703125 -3.015625q1.828125 -1.015625 3.96875 -1.015625q2.703125 0 4.421875 1.375q1.71875 1.359375 2.203125 3.875l-2.734375 0.421875q-0.390625 -1.671875 -1.390625 -2.515625q-0.984375 -0.84375 -2.390625 -0.84375q-2.125 0 -3.453125 1.53125q-1.328125 1.515625 -1.328125 4.8125q0 3.34375 1.28125 4.859375q1.28125 1.515625 3.34375 1.515625q1.65625 0 2.765625 -1.015625q1.109375 -1.015625 1.40625 -3.125zm5.171875 6.078125l0 -22.90625l2.8125 0l0 8.21875q1.96875 -2.28125 4.96875 -2.28125q1.84375 0 3.203125 0.734375q1.359375 0.71875 1.9375 2.0q0.59375 1.28125 0.59375 3.71875l0 10.515625l-2.8125 0l0 -10.515625q0 -2.109375 -0.921875 -3.0625q-0.90625 -0.96875 -2.578125 -0.96875q-1.25 0 -2.359375 0.65625q-1.09375 0.640625 -1.5625 1.75q-0.46875 1.109375 -0.46875 3.0625l0 9.078125l-2.8125 0zm29.15625 -5.34375l2.90625 0.359375q-0.6875 2.546875 -2.546875 3.953125q-1.859375 1.40625 -4.75 1.40625q-3.640625 0 -5.78125 -2.234375q-2.125 -2.25 -2.125 -6.296875q0 -4.1875 2.15625 -6.5q2.15625 -2.3125 5.59375 -2.3125q3.328125 0 5.4375 2.265625q2.109375 2.265625 2.109375 6.375q0 0.25 -0.015625 0.75l-12.375 0q0.15625 2.734375 1.546875 4.1875q1.390625 1.453125 3.46875 1.453125q1.546875 0 2.640625 -0.8125q1.09375 -0.8125 1.734375 -2.59375zm-9.234375 -4.546875l9.265625 0q-0.1875 -2.09375 -1.0625 -3.140625q-1.34375 -1.625 -3.484375 -1.625q-1.9375 0 -3.265625 1.296875q-1.3125 1.296875 -1.453125 3.46875z" fill-rule="nonzero"/><path fill="#e06666" d="m798.2203 150.75679l37.984253 0l0 37.984253l-37.984253 0z" fill-rule="evenodd"/><path stroke="#595959" stroke-width="1.0" stroke-linejoin="round" stroke-linecap="butt" d="m798.2203 150.75679l37.984253 0l0 37.984253l-37.984253 0z" fill-rule="evenodd"/><path fill="#ffffff" d="m812.7007 175.60892l0 -11.453125l5.078125 0q1.53125 0 2.328125 0.3125q0.796875 0.296875 1.265625 1.078125q0.484375 0.78125 0.484375 1.734375q0 1.21875 -0.796875 2.0625q-0.78125 0.828125 -2.4375 1.046875q0.609375 0.296875 0.921875 0.578125q0.65625 0.609375 1.25 1.515625l2.0 3.125l-1.90625 0l-1.515625 -2.390625q-0.671875 -1.03125 -1.109375 -1.578125q-0.421875 -0.546875 -0.765625 -0.765625q-0.328125 -0.21875 -0.6875 -0.296875q-0.25 -0.0625 -0.84375 -0.0625l-1.75 0l0 5.09375l-1.515625 0zm1.515625 -6.40625l3.25 0q1.046875 0 1.625 -0.203125q0.59375 -0.21875 0.890625 -0.6875q0.3125 -0.484375 0.3125 -1.03125q0 -0.8125 -0.59375 -1.328125q-0.59375 -0.53125 -1.859375 -0.53125l-3.625 0l0 3.78125z" fill-rule="nonzero"/><path fill="#eeeeee" d="m931.2045 121.72441l0 39.170456l-14.036438 0l0 -6.1417084l-22.110352 13.154907l22.110352 13.1549225l0 -6.1417084l28.062866 0l0 -53.19687z" fill-rule="evenodd"/><path stroke="#595959" stroke-width="1.0" stroke-linejoin="round" stroke-linecap="butt" d="m931.2045 121.72441l0 39.170456l-14.036438 0l0 -6.1417084l-22.110352 13.154907l22.110352 13.1549225l0 -6.1417084l28.062866 0l0 -53.19687z" fill-rule="evenodd"/><path fill="#38761d" d="m728.9632 248.9769l38.015747 0l0 38.015747l-38.015747 0z" fill-rule="evenodd"/><path stroke="#595959" stroke-width="1.0" stroke-linejoin="round" stroke-linecap="butt" d="m728.9632 248.9769l38.015747 0l0 38.015747l-38.015747 0z" fill-rule="evenodd"/><path fill="#ffffff" d="m740.58435 273.84476l0 -11.453125l1.40625 0l0 6.53125l3.328125 -3.375l1.828125 0l-3.171875 3.078125l3.484375 5.21875l-1.734375 0l-2.734375 -4.25l-1.0 0.953125l0 3.296875l-1.40625 0zm7.609375 -3.03125l1.40625 -0.1875q0.25 1.203125 0.828125 1.734375q0.578125 0.515625 1.421875 0.515625q0.984375 0 1.671875 -0.6875q0.6875 -0.6875 0.6875 -1.703125q0 -0.96875 -0.640625 -1.59375q-0.625 -0.625 -1.609375 -0.625q-0.390625 0 -0.984375 0.15625l0.15625 -1.234375q0.140625 0.015625 0.21875 0.015625q0.90625 0 1.625 -0.46875q0.71875 -0.46875 0.71875 -1.453125q0 -0.765625 -0.53125 -1.265625q-0.515625 -0.515625 -1.34375 -0.515625q-0.828125 0 -1.375 0.515625q-0.546875 0.515625 -0.703125 1.546875l-1.40625 -0.25q0.265625 -1.421875 1.171875 -2.1875q0.921875 -0.78125 2.28125 -0.78125q0.9375 0 1.71875 0.40625q0.796875 0.390625 1.203125 1.09375q0.421875 0.6875 0.421875 1.46875q0 0.75 -0.40625 1.359375q-0.390625 0.609375 -1.171875 0.96875q1.015625 0.234375 1.578125 0.96875q0.5625 0.734375 0.5625 1.84375q0 1.5 -1.09375 2.546875q-1.09375 1.046875 -2.765625 1.046875q-1.5 0 -2.5 -0.890625q-1.0 -0.90625 -1.140625 -2.34375z" fill-rule="nonzero"/><path fill="#000000" fill-opacity="0.0" d="m609.25275 268.52524l28.850403 0" fill-rule="evenodd"/><path stroke="#595959" stroke-width="1.0" stroke-linejoin="round" stroke-linecap="butt" d="m609.25275 268.52524l28.850403 0" fill-rule="evenodd"/><path fill="#eeeeee" d="m784.59845 272.81384l39.17041 0l0 14.036438l-6.1416626 0l13.154907 22.110352l13.154907 -22.110352l-6.1417236 0l0 -28.062866l-53.19684 0z" fill-rule="evenodd"/><path stroke="#595959" stroke-width="1.0" stroke-linejoin="round" stroke-linecap="butt" d="m784.59845 272.81384l39.17041 0l0 14.036438l-6.1416626 0l13.154907 22.110352l13.154907 -22.110352l-6.1417236 0l0 -28.062866l-53.19684 0z" fill-rule="evenodd"/></g></svg>