<?xml version="1.0" encoding="UTF-8"?>
<svg id="Layer_1" data-name="Layer 1" xmlns="http://www.w3.org/2000/svg" version="1.1" xmlns:xlink="http://www.w3.org/1999/xlink" viewBox="0 0 428.1 339.19">
  <defs>
    <style>
      .cls-1, .cls-2, .cls-3, .cls-4, .cls-5, .cls-6, .cls-7, .cls-8, .cls-9, .cls-10, .cls-11, .cls-12, .cls-13, .cls-14, .cls-15, .cls-16, .cls-17, .cls-18, .cls-19, .cls-20, .cls-21, .cls-22, .cls-23, .cls-24, .cls-25, .cls-26, .cls-27 {
        fill: none;
      }

      .cls-1, .cls-3, .cls-4, .cls-5, .cls-8, .cls-9, .cls-10, .cls-11, .cls-13, .cls-14, .cls-15, .cls-16, .cls-18, .cls-19, .cls-22, .cls-24, .cls-25, .cls-26 {
        stroke-linejoin: round;
      }

      .cls-1, .cls-4, .cls-8, .cls-9, .cls-11, .cls-13, .cls-14, .cls-15, .cls-18, .cls-19, .cls-24, .cls-25 {
        stroke-width: 1.5px;
      }

      .cls-1, .cls-4, .cls-8, .cls-11, .cls-14, .cls-25 {
        stroke-dasharray: 0 0 5.55 2.4;
      }

      .cls-1, .cls-17, .cls-18, .cls-26 {
        stroke: #000;
      }

      .cls-28 {
        clip-path: url(#clippath-73);
      }

      .cls-29 {
        clip-path: url(#clippath-72);
      }

      .cls-30 {
        clip-path: url(#clippath-62);
      }

      .cls-31 {
        clip-path: url(#clippath-45);
      }

      .cls-32 {
        clip-path: url(#clippath-63);
      }

      .cls-33 {
        clip-path: url(#clippath-20);
      }

      .cls-34 {
        clip-path: url(#clippath-11);
      }

      .cls-35 {
        clip-path: url(#clippath-16);
      }

      .cls-2, .cls-7, .cls-12, .cls-17, .cls-20, .cls-21, .cls-23, .cls-27 {
        stroke-miterlimit: 10;
      }

      .cls-2, .cls-7, .cls-19, .cls-25 {
        stroke: #bf00bf;
      }

      .cls-36 {
        clip-path: url(#clippath-59);
      }

      .cls-37 {
        clip-path: url(#clippath-78);
      }

      .cls-38 {
        clip-path: url(#clippath-93);
      }

      .cls-39 {
        clip-path: url(#clippath-89);
      }

      .cls-40 {
        clip-path: url(#clippath-33);
      }

      .cls-41 {
        fill: #000;
      }

      .cls-41, .cls-6, .cls-42, .cls-43 {
        stroke-width: 0px;
      }

      .cls-44 {
        clip-path: url(#clippath-64);
      }

      .cls-45 {
        clip-path: url(#clippath-47);
      }

      .cls-46 {
        clip-path: url(#clippath-94);
      }

      .cls-47 {
        clip-path: url(#clippath-77);
      }

      .cls-3, .cls-4, .cls-5, .cls-15 {
        stroke: #bfbf00;
      }

      .cls-48 {
        clip-path: url(#clippath-116);
      }

      .cls-49 {
        clip-path: url(#clippath-41);
      }

      .cls-50 {
        clip-path: url(#clippath-32);
      }

      .cls-51 {
        clip-path: url(#clippath-108);
      }

      .cls-52 {
        clip-path: url(#clippath-112);
      }

      .cls-53 {
        clip-path: url(#clippath-87);
      }

      .cls-54 {
        clip-path: url(#clippath-83);
      }

      .cls-55 {
        clip-path: url(#clippath-114);
      }

      .cls-56 {
        clip-path: url(#clippath-105);
      }

      .cls-57 {
        clip-path: url(#clippath-2);
      }

      .cls-58 {
        clip-path: url(#clippath-13);
      }

      .cls-59 {
        clip-path: url(#clippath-88);
      }

      .cls-60 {
        clip-path: url(#clippath-115);
      }

      .cls-61 {
        clip-path: url(#clippath-37);
      }

      .cls-62 {
        clip-path: url(#clippath-46);
      }

      .cls-63 {
        clip-path: url(#clippath-25);
      }

      .cls-64 {
        clip-path: url(#clippath-98);
      }

      .cls-65 {
        clip-path: url(#clippath-107);
      }

      .cls-66 {
        clip-path: url(#clippath-15);
      }

      .cls-67 {
        clip-path: url(#clippath-6);
      }

      .cls-68 {
        clip-path: url(#clippath-104);
      }

      .cls-69 {
        clip-path: url(#clippath-76);
      }

      .cls-70 {
        clip-path: url(#clippath-40);
      }

      .cls-71 {
        clip-path: url(#clippath-117);
      }

      .cls-72 {
        clip-path: url(#clippath-26);
      }

      .cls-73 {
        clip-path: url(#clippath-81);
      }

      .cls-5, .cls-7, .cls-16, .cls-23, .cls-27 {
        stroke-width: 2px;
      }

      .cls-74 {
        clip-path: url(#clippath-111);
      }

      .cls-75 {
        clip-path: url(#clippath-75);
      }

      .cls-76 {
        clip-path: url(#clippath-7);
      }

      .cls-77 {
        clip-path: url(#clippath-21);
      }

      .cls-8, .cls-13, .cls-21, .cls-23 {
        stroke: red;
      }

      .cls-78 {
        clip-path: url(#clippath-34);
      }

      .cls-79 {
        clip-path: url(#clippath-57);
      }

      .cls-80 {
        clip-path: url(#clippath-102);
      }

      .cls-81 {
        clip-path: url(#clippath-1);
      }

      .cls-82 {
        clip-path: url(#clippath-4);
      }

      .cls-83 {
        clip-path: url(#clippath-38);
      }

      .cls-9, .cls-10, .cls-11, .cls-16 {
        stroke: green;
      }

      .cls-9, .cls-13, .cls-15, .cls-17, .cls-18, .cls-19, .cls-24 {
        stroke-linecap: square;
      }

      .cls-84 {
        clip-path: url(#clippath-36);
      }

      .cls-85 {
        clip-path: url(#clippath-27);
      }

      .cls-86 {
        clip-path: url(#clippath-109);
      }

      .cls-87 {
        clip-path: url(#clippath-101);
      }

      .cls-88 {
        clip-path: url(#clippath-60);
      }

      .cls-42, .cls-12 {
        opacity: .8;
      }

      .cls-42, .cls-43 {
        fill: #fff;
      }

      .cls-89 {
        clip-path: url(#clippath-44);
      }

      .cls-90 {
        clip-path: url(#clippath-12);
      }

      .cls-91 {
        clip-path: url(#clippath-113);
      }

      .cls-92 {
        clip-path: url(#clippath-95);
      }

      .cls-93 {
        clip-path: url(#clippath-80);
      }

      .cls-12 {
        stroke: #ccc;
      }

      .cls-94 {
        clip-path: url(#clippath-24);
      }

      .cls-95 {
        clip-path: url(#clippath-99);
      }

      .cls-96 {
        clip-path: url(#clippath-30);
      }

      .cls-14, .cls-20, .cls-24, .cls-27 {
        stroke: blue;
      }

      .cls-97 {
        clip-path: url(#clippath-79);
      }

      .cls-98 {
        clip-path: url(#clippath-22);
      }

      .cls-99 {
        clip-path: url(#clippath-96);
      }

      .cls-100 {
        clip-path: url(#clippath-103);
      }

      .cls-101 {
        clip-path: url(#clippath-9);
      }

      .cls-102 {
        clip-path: url(#clippath-82);
      }

      .cls-103 {
        clip-path: url(#clippath-52);
      }

      .cls-104 {
        clip-path: url(#clippath);
      }

      .cls-105 {
        clip-path: url(#clippath-50);
      }

      .cls-106 {
        clip-path: url(#clippath-48);
      }

      .cls-107 {
        clip-path: url(#clippath-61);
      }

      .cls-108 {
        clip-path: url(#clippath-39);
      }

      .cls-109 {
        clip-path: url(#clippath-19);
      }

      .cls-110 {
        clip-path: url(#clippath-31);
      }

      .cls-111 {
        clip-path: url(#clippath-86);
      }

      .cls-112 {
        clip-path: url(#clippath-54);
      }

      .cls-113 {
        clip-path: url(#clippath-3);
      }

      .cls-114 {
        clip-path: url(#clippath-91);
      }

      .cls-17, .cls-22, .cls-26 {
        stroke-width: .8px;
      }

      .cls-115 {
        clip-path: url(#clippath-43);
      }

      .cls-116 {
        clip-path: url(#clippath-70);
      }

      .cls-117 {
        clip-path: url(#clippath-8);
      }

      .cls-118 {
        clip-path: url(#clippath-55);
      }

      .cls-119 {
        clip-path: url(#clippath-69);
      }

      .cls-120 {
        clip-path: url(#clippath-29);
      }

      .cls-121 {
        clip-path: url(#clippath-18);
      }

      .cls-122 {
        clip-path: url(#clippath-90);
      }

      .cls-123 {
        clip-path: url(#clippath-14);
      }

      .cls-124 {
        clip-path: url(#clippath-17);
      }

      .cls-125 {
        clip-path: url(#clippath-97);
      }

      .cls-126 {
        clip-path: url(#clippath-5);
      }

      .cls-127 {
        clip-path: url(#clippath-58);
      }

      .cls-128 {
        clip-path: url(#clippath-84);
      }

      .cls-22 {
        opacity: .5;
        stroke: #b0b0b0;
        stroke-dasharray: 0 0 2.96 1.28;
      }

      .cls-129 {
        clip-path: url(#clippath-42);
      }

      .cls-130 {
        clip-path: url(#clippath-65);
      }

      .cls-131 {
        clip-path: url(#clippath-10);
      }

      .cls-132 {
        clip-path: url(#clippath-23);
      }

      .cls-133 {
        clip-path: url(#clippath-100);
      }

      .cls-134 {
        clip-path: url(#clippath-92);
      }

      .cls-135 {
        clip-path: url(#clippath-74);
      }

      .cls-136 {
        clip-path: url(#clippath-56);
      }

      .cls-137 {
        clip-path: url(#clippath-53);
      }

      .cls-138 {
        clip-path: url(#clippath-49);
      }

      .cls-139 {
        clip-path: url(#clippath-110);
      }

      .cls-140 {
        clip-path: url(#clippath-67);
      }

      .cls-141 {
        clip-path: url(#clippath-51);
      }

      .cls-142 {
        clip-path: url(#clippath-28);
      }

      .cls-143 {
        clip-path: url(#clippath-71);
      }

      .cls-144 {
        clip-path: url(#clippath-85);
      }

      .cls-145 {
        clip-path: url(#clippath-106);
      }

      .cls-146 {
        clip-path: url(#clippath-68);
      }

      .cls-147 {
        clip-path: url(#clippath-35);
      }

      .cls-148 {
        clip-path: url(#clippath-66);
      }
    </style>
    <clipPath id="clippath">
      <rect class="cls-6" x="48.72" y="18.12" width="372.19" height="277.2"/>
    </clipPath>
    <clipPath id="clippath-1">
      <rect class="cls-6" x="48.72" y="18.12" width="372.19" height="277.2"/>
    </clipPath>
    <clipPath id="clippath-2">
      <rect class="cls-6" x="48.72" y="18.12" width="372.19" height="277.2"/>
    </clipPath>
    <clipPath id="clippath-3">
      <rect class="cls-6" x="48.72" y="18.12" width="372.19" height="277.2"/>
    </clipPath>
    <clipPath id="clippath-4">
      <rect class="cls-6" x="48.72" y="18.12" width="372.19" height="277.2"/>
    </clipPath>
    <clipPath id="clippath-5">
      <rect class="cls-6" x="48.72" y="18.12" width="372.19" height="277.2"/>
    </clipPath>
    <clipPath id="clippath-6">
      <rect class="cls-6" x="48.72" y="18.12" width="372.19" height="277.2"/>
    </clipPath>
    <clipPath id="clippath-7">
      <rect class="cls-6" x="48.72" y="18.12" width="372.19" height="277.2"/>
    </clipPath>
    <clipPath id="clippath-8">
      <rect class="cls-6" x="48.72" y="18.12" width="372.19" height="277.2"/>
    </clipPath>
    <clipPath id="clippath-9">
      <rect class="cls-6" x="297.37" y="308.89" width="42.22" height="25.44"/>
    </clipPath>
    <clipPath id="clippath-10">
      <rect class="cls-6" x="48.72" y="18.12" width="372.19" height="277.2"/>
    </clipPath>
    <clipPath id="clippath-11">
      <rect class="cls-6" x="48.72" y="18.12" width="372.19" height="277.2"/>
    </clipPath>
    <clipPath id="clippath-12">
      <rect class="cls-6" x="48.72" y="18.12" width="372.19" height="277.2"/>
    </clipPath>
    <clipPath id="clippath-13">
      <rect class="cls-6" x="48.72" y="18.12" width="372.19" height="277.2"/>
    </clipPath>
    <clipPath id="clippath-14">
      <rect class="cls-6" x="48.72" y="18.12" width="372.19" height="277.2"/>
    </clipPath>
    <clipPath id="clippath-15">
      <rect class="cls-6" x="48.72" y="18.12" width="372.19" height="277.2"/>
    </clipPath>
    <clipPath id="clippath-16">
      <rect class="cls-6" x="48.72" y="18.12" width="372.19" height="277.2"/>
    </clipPath>
    <clipPath id="clippath-17">
      <rect class="cls-6" x="48.72" y="18.12" width="372.19" height="277.2"/>
    </clipPath>
    <clipPath id="clippath-18">
      <rect class="cls-6" x="48.72" y="18.12" width="372.19" height="277.2"/>
    </clipPath>
    <clipPath id="clippath-19">
      <rect class="cls-6" x="57.63" y="210.05" width="16" height="16"/>
    </clipPath>
    <clipPath id="clippath-20">
      <rect class="cls-6" x="99.93" y="240.19" width="16" height="16"/>
    </clipPath>
    <clipPath id="clippath-21">
      <rect class="cls-6" x="142.22" y="242.41" width="16" height="16"/>
    </clipPath>
    <clipPath id="clippath-22">
      <rect class="cls-6" x="184.51" y="243.26" width="16" height="16"/>
    </clipPath>
    <clipPath id="clippath-23">
      <rect class="cls-6" x="226.81" y="243.8" width="16" height="16"/>
    </clipPath>
    <clipPath id="clippath-24">
      <rect class="cls-6" x="269.1" y="243.88" width="16" height="16"/>
    </clipPath>
    <clipPath id="clippath-25">
      <rect class="cls-6" x="311.4" y="244" width="16" height="16"/>
    </clipPath>
    <clipPath id="clippath-26">
      <rect class="cls-6" x="353.69" y="244.04" width="16" height="16"/>
    </clipPath>
    <clipPath id="clippath-27">
      <rect class="cls-6" x="395.98" y="244.14" width="16" height="16"/>
    </clipPath>
    <clipPath id="clippath-28">
      <rect class="cls-6" x="48.72" y="18.12" width="372.19" height="277.2"/>
    </clipPath>
    <clipPath id="clippath-29">
      <rect class="cls-6" x="57.63" y="274.72" width="16" height="16"/>
    </clipPath>
    <clipPath id="clippath-30">
      <rect class="cls-6" x="99.93" y="194.55" width="16" height="16"/>
    </clipPath>
    <clipPath id="clippath-31">
      <rect class="cls-6" x="142.22" y="169.82" width="16" height="16"/>
    </clipPath>
    <clipPath id="clippath-32">
      <rect class="cls-6" x="184.51" y="154.15" width="16" height="16"/>
    </clipPath>
    <clipPath id="clippath-33">
      <rect class="cls-6" x="226.81" y="141.44" width="16" height="16"/>
    </clipPath>
    <clipPath id="clippath-34">
      <rect class="cls-6" x="269.1" y="130.7" width="16" height="16"/>
    </clipPath>
    <clipPath id="clippath-35">
      <rect class="cls-6" x="311.4" y="121.85" width="16" height="16"/>
    </clipPath>
    <clipPath id="clippath-36">
      <rect class="cls-6" x="353.69" y="114.25" width="16" height="16"/>
    </clipPath>
    <clipPath id="clippath-37">
      <rect class="cls-6" x="395.98" y="107.69" width="16" height="16"/>
    </clipPath>
    <clipPath id="clippath-38">
      <rect class="cls-6" x="48.72" y="18.12" width="372.19" height="277.2"/>
    </clipPath>
    <clipPath id="clippath-39">
      <rect class="cls-6" x="57.63" y="191.43" width="16" height="16"/>
    </clipPath>
    <clipPath id="clippath-40">
      <rect class="cls-6" x="99.93" y="240.16" width="16" height="16"/>
    </clipPath>
    <clipPath id="clippath-41">
      <rect class="cls-6" x="142.22" y="243.49" width="16" height="16"/>
    </clipPath>
    <clipPath id="clippath-42">
      <rect class="cls-6" x="184.51" y="244.16" width="16" height="16"/>
    </clipPath>
    <clipPath id="clippath-43">
      <rect class="cls-6" x="226.81" y="244.56" width="16" height="16"/>
    </clipPath>
    <clipPath id="clippath-44">
      <rect class="cls-6" x="269.1" y="244.74" width="16" height="16"/>
    </clipPath>
    <clipPath id="clippath-45">
      <rect class="cls-6" x="311.4" y="245.08" width="16" height="16"/>
    </clipPath>
    <clipPath id="clippath-46">
      <rect class="cls-6" x="353.69" y="245.11" width="16" height="16"/>
    </clipPath>
    <clipPath id="clippath-47">
      <rect class="cls-6" x="395.98" y="245.3" width="16" height="16"/>
    </clipPath>
    <clipPath id="clippath-48">
      <rect class="cls-6" x="48.72" y="18.12" width="372.19" height="277.2"/>
    </clipPath>
    <clipPath id="clippath-49">
      <rect class="cls-6" x="57.63" y="274.72" width="16" height="16"/>
    </clipPath>
    <clipPath id="clippath-50">
      <rect class="cls-6" x="99.93" y="159.15" width="16" height="16"/>
    </clipPath>
    <clipPath id="clippath-51">
      <rect class="cls-6" x="142.22" y="125.7" width="16" height="16"/>
    </clipPath>
    <clipPath id="clippath-52">
      <rect class="cls-6" x="184.51" y="103.4" width="16" height="16"/>
    </clipPath>
    <clipPath id="clippath-53">
      <rect class="cls-6" x="226.81" y="86.2" width="16" height="16"/>
    </clipPath>
    <clipPath id="clippath-54">
      <rect class="cls-6" x="269.1" y="72.59" width="16" height="16"/>
    </clipPath>
    <clipPath id="clippath-55">
      <rect class="cls-6" x="311.4" y="61.02" width="16" height="16"/>
    </clipPath>
    <clipPath id="clippath-56">
      <rect class="cls-6" x="353.69" y="51.33" width="16" height="16"/>
    </clipPath>
    <clipPath id="clippath-57">
      <rect class="cls-6" x="395.98" y="43.11" width="16" height="16"/>
    </clipPath>
    <clipPath id="clippath-58">
      <rect class="cls-6" x="48.72" y="18.12" width="372.19" height="277.2"/>
    </clipPath>
    <clipPath id="clippath-59">
      <rect class="cls-6" x="57.63" y="209.5" width="16" height="16"/>
    </clipPath>
    <clipPath id="clippath-60">
      <rect class="cls-6" x="99.93" y="253.45" width="16" height="16"/>
    </clipPath>
    <clipPath id="clippath-61">
      <rect class="cls-6" x="142.22" y="260.84" width="16" height="16"/>
    </clipPath>
    <clipPath id="clippath-62">
      <rect class="cls-6" x="184.51" y="263.93" width="16" height="16"/>
    </clipPath>
    <clipPath id="clippath-63">
      <rect class="cls-6" x="226.81" y="265.24" width="16" height="16"/>
    </clipPath>
    <clipPath id="clippath-64">
      <rect class="cls-6" x="269.1" y="266.24" width="16" height="16"/>
    </clipPath>
    <clipPath id="clippath-65">
      <rect class="cls-6" x="311.4" y="266.84" width="16" height="16"/>
    </clipPath>
    <clipPath id="clippath-66">
      <rect class="cls-6" x="353.69" y="267.28" width="16" height="16"/>
    </clipPath>
    <clipPath id="clippath-67">
      <rect class="cls-6" x="395.98" y="267.67" width="16" height="16"/>
    </clipPath>
    <clipPath id="clippath-68">
      <rect class="cls-6" x="48.72" y="18.12" width="372.19" height="277.2"/>
    </clipPath>
    <clipPath id="clippath-69">
      <rect class="cls-6" x="57.63" y="274.72" width="16" height="16"/>
    </clipPath>
    <clipPath id="clippath-70">
      <rect class="cls-6" x="99.93" y="160.9" width="16" height="16"/>
    </clipPath>
    <clipPath id="clippath-71">
      <rect class="cls-6" x="142.22" y="114.49" width="16" height="16"/>
    </clipPath>
    <clipPath id="clippath-72">
      <rect class="cls-6" x="184.51" y="84.98" width="16" height="16"/>
    </clipPath>
    <clipPath id="clippath-73">
      <rect class="cls-6" x="226.81" y="64.61" width="16" height="16"/>
    </clipPath>
    <clipPath id="clippath-74">
      <rect class="cls-6" x="269.1" y="50.32" width="16" height="16"/>
    </clipPath>
    <clipPath id="clippath-75">
      <rect class="cls-6" x="311.4" y="39.48" width="16" height="16"/>
    </clipPath>
    <clipPath id="clippath-76">
      <rect class="cls-6" x="353.69" y="30.32" width="16" height="16"/>
    </clipPath>
    <clipPath id="clippath-77">
      <rect class="cls-6" x="395.98" y="22.72" width="16" height="16"/>
    </clipPath>
    <clipPath id="clippath-78">
      <rect class="cls-6" x="48.72" y="18.12" width="372.19" height="277.2"/>
    </clipPath>
    <clipPath id="clippath-79">
      <rect class="cls-6" x="58.09" y="235.23" width="15.09" height="18.49"/>
    </clipPath>
    <clipPath id="clippath-80">
      <rect class="cls-6" x="100.38" y="254.95" width="15.09" height="18.49"/>
    </clipPath>
    <clipPath id="clippath-81">
      <rect class="cls-6" x="142.68" y="258.75" width="15.09" height="18.49"/>
    </clipPath>
    <clipPath id="clippath-82">
      <rect class="cls-6" x="184.97" y="261.03" width="15.09" height="18.49"/>
    </clipPath>
    <clipPath id="clippath-83">
      <rect class="cls-6" x="227.26" y="262.19" width="15.09" height="18.49"/>
    </clipPath>
    <clipPath id="clippath-84">
      <rect class="cls-6" x="269.56" y="263.3" width="15.09" height="18.49"/>
    </clipPath>
    <clipPath id="clippath-85">
      <rect class="cls-6" x="311.85" y="264.05" width="15.09" height="18.49"/>
    </clipPath>
    <clipPath id="clippath-86">
      <rect class="cls-6" x="354.14" y="264.62" width="15.09" height="18.49"/>
    </clipPath>
    <clipPath id="clippath-87">
      <rect class="cls-6" x="396.44" y="264.98" width="15.09" height="18.49"/>
    </clipPath>
    <clipPath id="clippath-88">
      <rect class="cls-6" x="48.72" y="18.12" width="372.19" height="277.2"/>
    </clipPath>
    <clipPath id="clippath-89">
      <rect class="cls-6" x="58.09" y="273.48" width="15.09" height="18.49"/>
    </clipPath>
    <clipPath id="clippath-90">
      <rect class="cls-6" x="100.38" y="186.36" width="15.09" height="18.49"/>
    </clipPath>
    <clipPath id="clippath-91">
      <rect class="cls-6" x="142.68" y="151.08" width="15.09" height="18.49"/>
    </clipPath>
    <clipPath id="clippath-92">
      <rect class="cls-6" x="184.97" y="127.31" width="15.09" height="18.49"/>
    </clipPath>
    <clipPath id="clippath-93">
      <rect class="cls-6" x="227.26" y="109.38" width="15.09" height="18.49"/>
    </clipPath>
    <clipPath id="clippath-94">
      <rect class="cls-6" x="269.56" y="94.64" width="15.09" height="18.49"/>
    </clipPath>
    <clipPath id="clippath-95">
      <rect class="cls-6" x="311.85" y="83.12" width="15.09" height="18.49"/>
    </clipPath>
    <clipPath id="clippath-96">
      <rect class="cls-6" x="354.14" y="73.74" width="15.09" height="18.49"/>
    </clipPath>
    <clipPath id="clippath-97">
      <rect class="cls-6" x="396.44" y="65.58" width="15.09" height="18.49"/>
    </clipPath>
    <clipPath id="clippath-98">
      <rect class="cls-6" x="48.72" y="18.12" width="372.19" height="277.2"/>
    </clipPath>
    <clipPath id="clippath-99">
      <rect class="cls-6" x="57.63" y="236.22" width="16" height="16"/>
    </clipPath>
    <clipPath id="clippath-100">
      <rect class="cls-6" x="99.93" y="257.23" width="16" height="16"/>
    </clipPath>
    <clipPath id="clippath-101">
      <rect class="cls-6" x="142.22" y="261.83" width="16" height="16"/>
    </clipPath>
    <clipPath id="clippath-102">
      <rect class="cls-6" x="184.51" y="264.18" width="16" height="16"/>
    </clipPath>
    <clipPath id="clippath-103">
      <rect class="cls-6" x="226.81" y="265.53" width="16" height="16"/>
    </clipPath>
    <clipPath id="clippath-104">
      <rect class="cls-6" x="269.1" y="266.69" width="16" height="16"/>
    </clipPath>
    <clipPath id="clippath-105">
      <rect class="cls-6" x="311.4" y="267.21" width="16" height="16"/>
    </clipPath>
    <clipPath id="clippath-106">
      <rect class="cls-6" x="353.69" y="267.82" width="16" height="16"/>
    </clipPath>
    <clipPath id="clippath-107">
      <rect class="cls-6" x="395.98" y="268.06" width="16" height="16"/>
    </clipPath>
    <clipPath id="clippath-108">
      <rect class="cls-6" x="48.72" y="18.12" width="372.19" height="277.2"/>
    </clipPath>
    <clipPath id="clippath-109">
      <rect class="cls-6" x="57.63" y="274.72" width="16" height="16"/>
    </clipPath>
    <clipPath id="clippath-110">
      <rect class="cls-6" x="99.93" y="184.26" width="16" height="16"/>
    </clipPath>
    <clipPath id="clippath-111">
      <rect class="cls-6" x="142.22" y="143.89" width="16" height="16"/>
    </clipPath>
    <clipPath id="clippath-112">
      <rect class="cls-6" x="184.51" y="116.45" width="16" height="16"/>
    </clipPath>
    <clipPath id="clippath-113">
      <rect class="cls-6" x="226.81" y="95.56" width="16" height="16"/>
    </clipPath>
    <clipPath id="clippath-114">
      <rect class="cls-6" x="269.1" y="78.26" width="16" height="16"/>
    </clipPath>
    <clipPath id="clippath-115">
      <rect class="cls-6" x="311.4" y="64.68" width="16" height="16"/>
    </clipPath>
    <clipPath id="clippath-116">
      <rect class="cls-6" x="353.69" y="53.77" width="16" height="16"/>
    </clipPath>
    <clipPath id="clippath-117">
      <rect class="cls-6" x="395.98" y="44.35" width="16" height="16"/>
    </clipPath>
  </defs>
  <rect class="cls-43" width="428.1" height="339.19"/>
  <rect class="cls-43" x="48.72" y="18.12" width="372.19" height="277.2"/>
  <g class="cls-104">
    <line class="cls-22" x1="65.63" y1="295.32" x2="65.63" y2="18.12"/>
  </g>
  <line class="cls-41" x1="65.63" y1="295.32" x2="65.63" y2="298.82"/>
  <line class="cls-26" x1="65.63" y1="295.32" x2="65.63" y2="298.82"/>
  <path class="cls-41" d="M65.63,302.5c.81,0,1.43.33,1.87.97.43.65.65,1.59.65,2.81s-.22,2.17-.65,2.81c-.44.64-1.06.96-1.88.96s-1.44-.32-1.87-.96c-.43-.64-.64-1.58-.64-2.81s.21-2.16.64-2.81c.43-.64,1.06-.97,1.88-.97ZM65.63,303.28c-.51,0-.89.25-1.15.75s-.38,1.25-.38,2.25.12,1.75.38,2.25.64.75,1.15.75.89-.25,1.15-.75c.25-.5.38-1.25.38-2.25s-.13-1.75-.38-2.25c-.26-.5-.64-.75-1.15-.75Z"/>
  <g class="cls-81">
    <line class="cls-22" x1="107.93" y1="295.32" x2="107.93" y2="18.12"/>
  </g>
  <line class="cls-41" x1="107.93" y1="295.32" x2="107.93" y2="298.82"/>
  <line class="cls-26" x1="107.93" y1="295.32" x2="107.93" y2="298.82"/>
  <polygon class="cls-41" points="105.99 309.09 107.6 309.09 107.6 303.53 105.85 303.88 105.85 302.98 107.59 302.63 108.58 302.63 108.58 309.09 110.19 309.09 110.19 309.92 105.99 309.92 105.99 309.09"/>
  <g class="cls-57">
    <line class="cls-22" x1="150.22" y1="295.32" x2="150.22" y2="18.12"/>
  </g>
  <line class="cls-41" x1="150.22" y1="295.32" x2="150.22" y2="298.82"/>
  <line class="cls-26" x1="150.22" y1="295.32" x2="150.22" y2="298.82"/>
  <path class="cls-41" d="M148.96,309.09h3.44v.83h-4.63v-.83c.37-.38.88-.9,1.53-1.56.64-.65,1.05-1.07,1.22-1.26.32-.35.54-.65.66-.9.12-.24.19-.49.19-.73,0-.38-.14-.7-.41-.94-.27-.24-.62-.37-1.06-.37-.31,0-.64.06-.98.16-.34.11-.71.27-1.1.49v-1c.4-.16.77-.28,1.11-.36.34-.08.66-.12.95-.12.75,0,1.35.19,1.8.57.45.38.68.88.68,1.51,0,.3-.06.59-.17.85-.11.27-.31.59-.61.95-.08.1-.34.37-.78.82-.44.45-1.05,1.08-1.84,1.89Z"/>
  <g class="cls-113">
    <line class="cls-22" x1="192.51" y1="295.32" x2="192.51" y2="18.12"/>
  </g>
  <line class="cls-41" x1="192.51" y1="295.32" x2="192.51" y2="298.82"/>
  <line class="cls-26" x1="192.51" y1="295.32" x2="192.51" y2="298.82"/>
  <path class="cls-41" d="M193.4,305.99c.47.1.84.31,1.1.63.26.32.4.72.4,1.18,0,.72-.25,1.28-.74,1.67-.5.39-1.2.58-2.11.58-.31,0-.63-.03-.95-.09-.32-.05-.66-.14-1-.26v-.95c.27.16.57.28.9.36.32.08.66.12,1.02.12.62,0,1.09-.12,1.41-.36.32-.24.49-.6.49-1.07,0-.42-.15-.76-.45-1-.3-.24-.72-.37-1.26-.37h-.85v-.81h.89c.48,0,.85-.09,1.11-.29.26-.19.39-.47.39-.84s-.14-.66-.4-.86c-.27-.2-.65-.3-1.14-.3-.27,0-.56.03-.87.09s-.65.15-1.02.27v-.88c.37-.1.72-.18,1.05-.23.32-.05.63-.08.93-.08.74,0,1.33.17,1.77.51s.66.8.66,1.38c0,.4-.12.74-.35,1.02-.23.28-.56.48-.98.58Z"/>
  <g class="cls-82">
    <line class="cls-22" x1="234.81" y1="295.32" x2="234.81" y2="18.12"/>
  </g>
  <line class="cls-41" x1="234.81" y1="295.32" x2="234.81" y2="298.82"/>
  <line class="cls-26" x1="234.81" y1="295.32" x2="234.81" y2="298.82"/>
  <path class="cls-41" d="M235.15,302.63h1.24v4.75h1.04v.82h-1.04v1.72h-.98v-1.72h-3.29v-.95l3.03-4.62ZM235.41,303.49l-2.49,3.89h2.49v-3.89Z"/>
  <g class="cls-126">
    <line class="cls-22" x1="277.1" y1="295.32" x2="277.1" y2="18.12"/>
  </g>
  <line class="cls-41" x1="277.1" y1="295.32" x2="277.1" y2="298.82"/>
  <line class="cls-26" x1="277.1" y1="295.32" x2="277.1" y2="298.82"/>
  <path class="cls-41" d="M275,302.63h3.87v.83h-2.97v1.79c.14-.05.29-.09.43-.11.14-.02.29-.04.43-.04.81,0,1.45.23,1.93.67.48.45.72,1.05.72,1.81s-.25,1.4-.74,1.83-1.18.64-2.06.64c-.31,0-.62-.03-.94-.07-.32-.05-.64-.12-.98-.23v-.99c.29.16.59.28.91.36.31.08.64.11.99.11.56,0,1.01-.14,1.34-.44.32-.3.49-.7.49-1.21s-.17-.9-.49-1.2c-.33-.3-.78-.45-1.34-.45-.26,0-.53.03-.79.09-.26.06-.53.15-.8.27v-3.66Z"/>
  <g class="cls-67">
    <line class="cls-22" x1="319.4" y1="295.32" x2="319.4" y2="18.12"/>
  </g>
  <line class="cls-41" x1="319.4" y1="295.32" x2="319.4" y2="298.82"/>
  <line class="cls-26" x1="319.4" y1="295.32" x2="319.4" y2="298.82"/>
  <path class="cls-41" d="M321.48,302.79v.9c-.25-.12-.5-.21-.75-.27-.26-.06-.51-.09-.75-.09-.66,0-1.16.22-1.5.66s-.54,1.11-.58,1.99c.19-.28.43-.5.72-.65s.61-.23.96-.23c.73,0,1.31.23,1.73.67.42.44.64,1.05.64,1.81s-.23,1.35-.67,1.8c-.44.45-1.03.67-1.76.67-.84,0-1.49-.32-1.93-.96-.45-.64-.67-1.58-.67-2.81,0-1.15.27-2.07.82-2.75.54-.68,1.28-1.03,2.2-1.03.24,0,.49.03.75.07.25.05.51.12.79.22ZM319.52,305.88c-.44,0-.79.16-1.05.46-.26.3-.39.72-.39,1.24s.13.95.39,1.25.61.45,1.05.45.79-.15,1.05-.45c.26-.3.39-.72.39-1.25s-.13-.94-.39-1.24c-.26-.3-.61-.46-1.05-.46Z"/>
  <g class="cls-76">
    <line class="cls-22" x1="361.69" y1="295.32" x2="361.69" y2="18.12"/>
  </g>
  <line class="cls-41" x1="361.69" y1="295.32" x2="361.69" y2="298.82"/>
  <line class="cls-26" x1="361.69" y1="295.32" x2="361.69" y2="298.82"/>
  <polygon class="cls-41" points="359.33 302.63 364.02 302.63 364.02 303.05 361.37 309.92 360.34 309.92 362.83 303.46 359.33 303.46 359.33 302.63"/>
  <g class="cls-117">
    <line class="cls-22" x1="403.98" y1="295.32" x2="403.98" y2="18.12"/>
  </g>
  <line class="cls-41" x1="403.98" y1="295.32" x2="403.98" y2="298.82"/>
  <line class="cls-26" x1="403.98" y1="295.32" x2="403.98" y2="298.82"/>
  <path class="cls-41" d="M402.63,304.48c0,.38.11.68.35.89.24.21.57.31,1,.31s.75-.1.99-.31c.24-.21.36-.51.36-.89s-.12-.67-.36-.88c-.24-.21-.57-.32-.99-.32s-.76.11-1,.32c-.24.21-.35.5-.35.88ZM402.99,306.04c-.42-.1-.75-.3-.99-.59-.24-.29-.35-.64-.35-1.06,0-.58.2-1.04.62-1.38.41-.34.98-.51,1.71-.51s1.29.17,1.71.51c.41.34.62.8.62,1.38,0,.42-.12.77-.36,1.06-.24.29-.56.49-.98.59.47.11.84.33,1.11.65.26.32.4.72.4,1.18,0,.71-.22,1.25-.65,1.62-.44.38-1.06.56-1.86.56s-1.42-.18-1.85-.56c-.43-.37-.64-.91-.64-1.62,0-.46.13-.86.4-1.18.26-.32.63-.54,1.11-.65ZM403.98,306.46c-.47,0-.84.13-1.11.38-.27.25-.4.59-.4,1.03s.13.79.4,1.04c.27.25.64.37,1.11.37s.83-.12,1.1-.38c.27-.25.41-.59.41-1.03s-.14-.78-.4-1.03c-.27-.25-.64-.38-1.11-.38Z"/>
  <path class="cls-41" d="M142.1,316.45h1.68l4.17,10.94h-1.54l-.99-2.81h-4.93l-.99,2.81h-1.56l4.17-10.94ZM142.94,317.9l-2.01,5.44h4.02l-2.01-5.44Z"/>
  <path class="cls-41" d="M150.29,323.29c0,.99.19,1.77.6,2.34.4.57.96.84,1.68.84s1.27-.27,1.7-.84c.4-.57.61-1.35.61-2.34s-.21-1.75-.61-2.32c-.42-.57-.98-.86-1.7-.86s-1.27.28-1.68.86c-.41.57-.6,1.33-.6,2.32ZM154.88,320.42v-4.44h1.35v11.4h-1.35v-1.23c-.29.5-.65.86-1.08,1.08-.43.22-.94.34-1.54.34-.99,0-1.8-.39-2.43-1.17-.63-.78-.93-1.83-.93-3.12s.3-2.32.93-3.12c.63-.78,1.44-1.18,2.43-1.18.6,0,1.11.12,1.54.36s.79.6,1.08,1.08Z"/>
  <path class="cls-41" d="M159.81,323.29c0,.99.19,1.77.6,2.34.4.57.96.84,1.68.84s1.27-.27,1.7-.84c.4-.57.61-1.35.61-2.34s-.21-1.75-.61-2.32c-.42-.57-.98-.86-1.7-.86s-1.27.28-1.68.86c-.41.57-.6,1.33-.6,2.32ZM164.4,320.42v-4.44h1.35v11.4h-1.35v-1.23c-.29.5-.65.86-1.08,1.08-.43.22-.94.34-1.54.34-.99,0-1.8-.39-2.43-1.17-.63-.78-.93-1.83-.93-3.12s.3-2.32.93-3.12c.63-.78,1.44-1.18,2.43-1.18.6,0,1.11.12,1.54.36s.79.6,1.08,1.08Z"/>
  <path class="cls-41" d="M174.19,322.55c-.01-.73-.23-1.32-.62-1.77-.4-.44-.94-.66-1.6-.66-.75,0-1.35.22-1.8.64s-.72,1.02-.78,1.78h4.8ZM175.54,322.94v.66h-6.19c.06.93.33,1.65.84,2.13.5.48,1.18.72,2.09.72.51,0,1.02-.06,1.5-.18.48-.12.97-.32,1.46-.59v1.27c-.48.21-.98.38-1.49.47-.51.09-1.04.15-1.54.15-1.32,0-2.36-.38-3.12-1.12s-1.14-1.78-1.14-3.09.36-2.4,1.08-3.2c.72-.78,1.71-1.18,2.94-1.18,1.11,0,1.98.36,2.62,1.07.63.72.96,1.68.96,2.9Z"/>
  <path class="cls-41" d="M178.56,323.29c0,.99.19,1.77.6,2.34.4.57.96.84,1.68.84s1.27-.27,1.7-.84c.4-.57.61-1.35.61-2.34s-.21-1.75-.61-2.32c-.42-.57-.98-.86-1.7-.86s-1.27.28-1.68.86c-.41.57-.6,1.33-.6,2.32ZM183.15,320.42v-4.44h1.35v11.4h-1.35v-1.23c-.29.5-.65.86-1.08,1.08-.43.22-.94.34-1.54.34-.99,0-1.8-.39-2.43-1.17-.63-.78-.93-1.83-.93-3.12s.3-2.32.93-3.12c.63-.78,1.44-1.18,2.43-1.18.6,0,1.11.12,1.54.36s.79.6,1.08,1.08Z"/>
  <path class="cls-41" d="M197.95,319.49v1.26c-.39-.21-.77-.36-1.16-.47s-.76-.16-1.15-.16c-.87,0-1.56.28-2.04.84-.48.55-.72,1.33-.72,2.32s.24,1.78.72,2.34,1.17.82,2.04.82c.39,0,.76-.05,1.15-.15.39-.11.76-.27,1.16-.48v1.25c-.39.18-.78.31-1.17.39-.4.07-.84.12-1.29.12-1.23,0-2.22-.38-2.94-1.15-.74-.77-1.1-1.82-1.1-3.14s.36-2.39,1.1-3.15,1.74-1.16,3.03-1.16c.42,0,.82.05,1.21.14s.78.21,1.16.38Z"/>
  <path class="cls-41" d="M206.71,322.7v4.68h-1.35v-1.24c-.32.51-.71.87-1.15,1.1-.45.22-1.02.34-1.68.34-.84,0-1.51-.22-2.01-.69-.49-.47-.74-1.1-.74-1.89,0-.91.3-1.61.93-2.09.62-.47,1.53-.7,2.76-.7h1.89v-.14c0-.61-.21-1.09-.61-1.44-.4-.33-.98-.51-1.71-.51-.48,0-.93.06-1.38.18-.45.12-.87.29-1.27.5v-1.25c.48-.18.96-.33,1.43-.42s.91-.15,1.36-.15c1.19,0,2.07.32,2.66.93.58.61.88,1.55.88,2.79ZM204.02,323.26c-1.1,0-1.85.13-2.26.38-.42.26-.63.68-.63,1.27,0,.48.15.87.46,1.14.32.28.75.42,1.29.42.75,0,1.35-.26,1.8-.8.45-.52.68-1.23.68-2.11v-.3h-1.33Z"/>
  <path class="cls-41" d="M215.39,319.49v1.26c-.39-.21-.77-.36-1.16-.47s-.76-.16-1.15-.16c-.87,0-1.56.28-2.04.84-.48.55-.72,1.33-.72,2.32s.24,1.78.72,2.34,1.17.82,2.04.82c.39,0,.76-.05,1.15-.15.39-.11.76-.27,1.16-.48v1.25c-.39.18-.78.31-1.17.39-.4.07-.84.12-1.29.12-1.23,0-2.22-.38-2.94-1.15-.74-.77-1.1-1.82-1.1-3.14s.36-2.39,1.1-3.15,1.74-1.16,3.03-1.16c.42,0,.82.05,1.21.14s.78.21,1.16.38Z"/>
  <path class="cls-41" d="M224.55,322.43v4.95h-1.35v-4.9c0-.78-.16-1.35-.46-1.74-.3-.39-.75-.58-1.35-.58-.74,0-1.31.24-1.73.7s-.63,1.09-.63,1.89v4.63h-1.35v-11.4h1.35v4.47c.32-.48.69-.85,1.14-1.09.43-.24.95-.38,1.51-.38.93,0,1.65.3,2.13.89s.74,1.44.74,2.57Z"/>
  <path class="cls-41" d="M232.9,322.55c-.01-.73-.23-1.32-.62-1.77-.4-.44-.94-.66-1.6-.66-.75,0-1.35.22-1.8.64s-.72,1.02-.78,1.78h4.8ZM234.25,322.94v.66h-6.19c.06.93.33,1.65.84,2.13.5.48,1.18.72,2.09.72.51,0,1.02-.06,1.5-.18.48-.12.97-.32,1.46-.59v1.27c-.48.21-.98.38-1.49.47-.51.09-1.04.15-1.54.15-1.32,0-2.36-.38-3.12-1.12s-1.14-1.78-1.14-3.09.36-2.4,1.08-3.2c.72-.78,1.71-1.18,2.94-1.18,1.11,0,1.98.36,2.62,1.07.63.72.96,1.68.96,2.9Z"/>
  <path class="cls-41" d="M247.14,319.49v1.26c-.39-.21-.77-.36-1.16-.47s-.76-.16-1.15-.16c-.87,0-1.56.28-2.04.84-.48.55-.72,1.33-.72,2.32s.24,1.78.72,2.34,1.17.82,2.04.82c.39,0,.76-.05,1.15-.15.39-.11.76-.27,1.16-.48v1.25c-.39.18-.78.31-1.17.39-.4.07-.84.12-1.29.12-1.23,0-2.22-.38-2.94-1.15-.74-.77-1.1-1.82-1.1-3.14s.36-2.39,1.1-3.15,1.74-1.16,3.03-1.16c.42,0,.82.05,1.21.14s.78.21,1.16.38Z"/>
  <path class="cls-41" d="M255.9,322.7v4.68h-1.35v-1.24c-.32.51-.71.87-1.15,1.1-.45.22-1.02.34-1.68.34-.84,0-1.51-.22-2.01-.69-.49-.47-.74-1.1-.74-1.89,0-.91.3-1.61.93-2.09.62-.47,1.53-.7,2.76-.7h1.89v-.14c0-.61-.21-1.09-.61-1.44-.4-.33-.98-.51-1.71-.51-.48,0-.93.06-1.38.18-.45.12-.87.29-1.27.5v-1.25c.48-.18.96-.33,1.43-.42s.91-.15,1.36-.15c1.19,0,2.07.32,2.66.93.58.61.88,1.55.88,2.79ZM253.21,323.26c-1.1,0-1.85.13-2.26.38-.42.26-.63.68-.63,1.27,0,.48.15.87.46,1.14.32.28.75.42,1.29.42.75,0,1.35-.26,1.8-.8.45-.52.68-1.23.68-2.11v-.3h-1.33Z"/>
  <path class="cls-41" d="M264.56,323.29c0-.99-.21-1.75-.61-2.32-.42-.57-.98-.86-1.68-.86s-1.28.28-1.68.86c-.42.57-.61,1.33-.61,2.32s.2,1.77.61,2.34c.4.57.96.84,1.68.84s1.26-.27,1.68-.84c.4-.57.61-1.35.61-2.34ZM259.97,326.15v4.34h-1.35v-11.31h1.35v1.24c.27-.48.63-.84,1.07-1.08s.96-.36,1.56-.36c.99,0,1.8.41,2.43,1.18.62.8.93,1.83.93,3.12s-.32,2.34-.93,3.12c-.63.78-1.44,1.17-2.43,1.17-.6,0-1.12-.12-1.56-.34-.43-.23-.8-.59-1.07-1.08Z"/>
  <path class="cls-41" d="M274.61,322.7v4.68h-1.35v-1.24c-.32.51-.71.87-1.15,1.1-.45.22-1.02.34-1.68.34-.84,0-1.51-.22-2.01-.69s-.74-1.1-.74-1.89c0-.91.3-1.61.93-2.09.62-.47,1.53-.7,2.76-.7h1.89v-.14c0-.61-.21-1.09-.62-1.44-.4-.33-.97-.51-1.71-.51-.48,0-.93.06-1.38.18-.45.12-.87.29-1.27.5v-1.25c.48-.18.96-.33,1.42-.42.47-.09.92-.15,1.37-.15,1.18,0,2.07.32,2.65.93.58.61.88,1.55.88,2.79ZM271.93,323.26c-1.1,0-1.85.13-2.26.38-.42.26-.63.68-.63,1.27,0,.48.15.87.46,1.14.32.28.75.42,1.29.42.75,0,1.35-.26,1.8-.8.45-.52.68-1.23.68-2.11v-.3h-1.34Z"/>
  <path class="cls-41" d="M283.29,319.49v1.26c-.39-.21-.77-.36-1.15-.47-.39-.1-.77-.16-1.15-.16-.87,0-1.56.28-2.04.84-.48.55-.72,1.33-.72,2.32s.24,1.78.72,2.34,1.17.82,2.04.82c.39,0,.76-.05,1.15-.15.39-.11.76-.27,1.15-.48v1.25c-.39.18-.78.31-1.17.39-.4.07-.84.12-1.29.12-1.23,0-2.22-.38-2.94-1.15-.74-.77-1.1-1.82-1.1-3.14s.36-2.39,1.1-3.15c.73-.76,1.74-1.16,3.03-1.16.42,0,.82.05,1.21.14.39.09.78.21,1.15.38Z"/>
  <path class="cls-41" d="M285.63,315.98h1.35v1.71h-1.35v-1.71ZM285.63,319.18h1.35v8.2h-1.35v-8.2Z"/>
  <path class="cls-41" d="M291.13,316.85v2.33h2.77v1.05h-2.77v4.45c0,.67.09,1.11.27,1.29.18.19.55.28,1.12.28h1.38v1.12h-1.38c-1.05,0-1.77-.19-2.16-.59-.39-.39-.59-1.1-.59-2.11v-4.45h-.99v-1.05h.99v-2.33h1.35Z"/>
  <path class="cls-41" d="M299.1,328.13c-.39.96-.76,1.61-1.12,1.9-.36.3-.84.45-1.44.45h-1.08v-1.12h.8c.36,0,.64-.09.85-.27.21-.18.43-.59.69-1.24l.24-.6-3.32-8.07h1.42l2.57,6.42,2.57-6.42h1.42l-3.6,8.95Z"/>
  <polygon class="cls-41" points="304.9 325.52 306.45 325.52 306.45 326.78 305.25 329.11 304.3 329.11 304.9 326.78 304.9 325.52"/>
  <polygon class="cls-41" points="325.46 316.45 326.95 316.45 325.07 326.15 330.4 326.15 330.16 327.38 323.35 327.38 325.46 316.45"/>
  <g class="cls-101">
    <path class="cls-41" d="M312.8,327.38l4.17-10.93h1.68l4.17,10.93h-10.02ZM317.81,317.9l-3,8.25h6l-3-8.25Z"/>
  </g>
  <g class="cls-131">
    <line class="cls-22" x1="48.72" y1="282.72" x2="420.9" y2="282.72"/>
  </g>
  <line class="cls-41" x1="48.72" y1="282.72" x2="45.22" y2="282.72"/>
  <line class="cls-26" x1="48.72" y1="282.72" x2="45.22" y2="282.72"/>
  <path class="cls-41" d="M28.9,278.52c.81,0,1.43.33,1.87.97.43.65.65,1.59.65,2.81s-.22,2.17-.65,2.81c-.44.64-1.06.96-1.88.96s-1.44-.32-1.87-.96c-.43-.64-.64-1.58-.64-2.81s.21-2.16.64-2.81c.43-.64,1.06-.97,1.88-.97ZM28.9,279.3c-.51,0-.89.25-1.15.75s-.38,1.25-.38,2.25.12,1.75.38,2.25.64.75,1.15.75.89-.25,1.15-.75c.25-.5.38-1.25.38-2.25s-.13-1.75-.38-2.25c-.26-.5-.64-.75-1.15-.75Z"/>
  <rect class="cls-41" x="33.15" y="284.7" width="1.03" height="1.24"/>
  <path class="cls-41" d="M38.44,278.52c.81,0,1.43.33,1.87.97.43.65.65,1.59.65,2.81s-.22,2.17-.65,2.81c-.44.64-1.06.96-1.88.96s-1.44-.32-1.87-.96c-.43-.64-.64-1.58-.64-2.81s.21-2.16.64-2.81c.43-.64,1.06-.97,1.88-.97ZM38.44,279.3c-.51,0-.89.25-1.15.75-.26.5-.38,1.25-.38,2.25s.12,1.75.38,2.25c.26.5.64.75,1.15.75s.89-.25,1.15-.75c.25-.5.38-1.25.38-2.25s-.13-1.75-.38-2.25c-.26-.5-.64-.75-1.15-.75Z"/>
  <g class="cls-34">
    <line class="cls-22" x1="48.72" y1="247.53" x2="420.9" y2="247.53"/>
  </g>
  <line class="cls-41" x1="48.72" y1="247.53" x2="45.22" y2="247.53"/>
  <line class="cls-26" x1="48.72" y1="247.53" x2="45.22" y2="247.53"/>
  <path class="cls-41" d="M28.9,243.33c.81,0,1.43.33,1.87.97.43.65.65,1.59.65,2.81s-.22,2.17-.65,2.81c-.44.64-1.06.96-1.88.96s-1.44-.32-1.87-.96c-.43-.64-.64-1.58-.64-2.81s.21-2.16.64-2.81c.43-.64,1.06-.97,1.88-.97ZM28.9,244.11c-.51,0-.89.25-1.15.75s-.38,1.25-.38,2.25.12,1.75.38,2.25.64.75,1.15.75.89-.25,1.15-.75c.25-.5.38-1.25.38-2.25s-.13-1.75-.38-2.25c-.26-.5-.64-.75-1.15-.75Z"/>
  <rect class="cls-41" x="33.15" y="249.51" width="1.03" height="1.24"/>
  <path class="cls-41" d="M36.34,243.46h3.87v.83h-2.97v1.79c.14-.05.29-.09.43-.11.14-.02.29-.04.43-.04.81,0,1.45.23,1.93.67.48.45.72,1.05.72,1.81s-.25,1.4-.74,1.83-1.18.64-2.06.64c-.31,0-.62-.03-.94-.07-.32-.05-.64-.12-.98-.23v-.99c.29.16.59.28.91.36.31.08.64.11.99.11.56,0,1.01-.14,1.34-.44.32-.3.49-.7.49-1.21s-.17-.9-.49-1.2c-.33-.3-.78-.45-1.34-.45-.26,0-.53.03-.79.09-.26.06-.53.15-.8.27v-3.66Z"/>
  <g class="cls-90">
    <line class="cls-22" x1="48.72" y1="212.34" x2="420.9" y2="212.34"/>
  </g>
  <line class="cls-41" x1="48.72" y1="212.34" x2="45.22" y2="212.34"/>
  <line class="cls-26" x1="48.72" y1="212.34" x2="45.22" y2="212.34"/>
  <polygon class="cls-41" points="26.96 214.73 28.57 214.73 28.57 209.17 26.82 209.52 26.82 208.62 28.56 208.27 29.55 208.27 29.55 214.73 31.16 214.73 31.16 215.56 26.96 215.56 26.96 214.73"/>
  <rect class="cls-41" x="33.15" y="214.32" width="1.03" height="1.24"/>
  <path class="cls-41" d="M38.44,208.14c.81,0,1.43.33,1.87.97.43.65.65,1.59.65,2.81s-.22,2.17-.65,2.81c-.44.64-1.06.96-1.88.96s-1.44-.32-1.87-.96-.64-1.58-.64-2.81.21-2.16.64-2.81c.43-.64,1.06-.97,1.88-.97ZM38.44,208.92c-.51,0-.89.25-1.15.75-.26.5-.38,1.25-.38,2.25s.12,1.75.38,2.25c.26.5.64.75,1.15.75s.89-.25,1.15-.75c.25-.5.38-1.25.38-2.25s-.13-1.75-.38-2.25c-.26-.5-.64-.75-1.15-.75Z"/>
  <g class="cls-58">
    <line class="cls-22" x1="48.72" y1="177.16" x2="420.9" y2="177.16"/>
  </g>
  <line class="cls-41" x1="48.72" y1="177.16" x2="45.22" y2="177.16"/>
  <line class="cls-26" x1="48.72" y1="177.16" x2="45.22" y2="177.16"/>
  <polygon class="cls-41" points="26.96 179.42 28.57 179.42 28.57 173.86 26.82 174.21 26.82 173.31 28.56 172.96 29.55 172.96 29.55 179.42 31.16 179.42 31.16 180.25 26.96 180.25 26.96 179.42"/>
  <rect class="cls-41" x="33.15" y="179.01" width="1.03" height="1.24"/>
  <path class="cls-41" d="M36.34,172.96h3.87v.83h-2.97v1.79c.14-.05.29-.09.43-.11s.29-.04.43-.04c.81,0,1.45.23,1.93.67.48.45.72,1.05.72,1.81s-.25,1.4-.74,1.83c-.49.43-1.18.64-2.06.64-.31,0-.62-.03-.94-.07-.32-.05-.64-.12-.98-.23v-.99c.29.16.59.28.91.36.31.08.64.11.99.11.56,0,1.01-.14,1.34-.44.32-.3.49-.7.49-1.21s-.17-.9-.49-1.2c-.33-.3-.78-.45-1.34-.45-.26,0-.53.03-.79.09-.26.06-.53.15-.8.27v-3.66Z"/>
  <g class="cls-123">
    <line class="cls-22" x1="48.72" y1="141.97" x2="420.9" y2="141.97"/>
  </g>
  <line class="cls-41" x1="48.72" y1="141.97" x2="45.22" y2="141.97"/>
  <line class="cls-26" x1="48.72" y1="141.97" x2="45.22" y2="141.97"/>
  <path class="cls-41" d="M27.64,144.36h3.44v.83h-4.63v-.83c.37-.38.88-.9,1.53-1.56.64-.65,1.05-1.07,1.22-1.26.32-.35.54-.65.66-.9.12-.24.19-.49.19-.73,0-.38-.14-.7-.41-.94s-.62-.37-1.06-.37c-.31,0-.64.06-.98.16-.34.11-.71.27-1.1.49v-1c.4-.16.77-.28,1.11-.36s.66-.12.95-.12c.75,0,1.35.19,1.8.57.45.38.68.88.68,1.51,0,.3-.06.59-.17.85-.11.27-.31.59-.61.95-.08.1-.34.37-.78.82s-1.05,1.08-1.84,1.89Z"/>
  <rect class="cls-41" x="33.15" y="143.95" width="1.03" height="1.24"/>
  <path class="cls-41" d="M38.44,137.77c.81,0,1.43.33,1.87.97.43.65.65,1.59.65,2.81s-.22,2.17-.65,2.81c-.44.64-1.06.96-1.88.96s-1.44-.32-1.87-.96-.64-1.58-.64-2.81.21-2.16.64-2.81c.43-.64,1.06-.97,1.88-.97ZM38.44,138.55c-.51,0-.89.25-1.15.75-.26.5-.38,1.25-.38,2.25s.12,1.75.38,2.25c.26.5.64.75,1.15.75s.89-.25,1.15-.75c.25-.5.38-1.25.38-2.25s-.13-1.75-.38-2.25c-.26-.5-.64-.75-1.15-.75Z"/>
  <g class="cls-66">
    <line class="cls-22" x1="48.72" y1="106.78" x2="420.9" y2="106.78"/>
  </g>
  <line class="cls-41" x1="48.72" y1="106.78" x2="45.22" y2="106.78"/>
  <line class="cls-26" x1="48.72" y1="106.78" x2="45.22" y2="106.78"/>
  <path class="cls-41" d="M27.64,109.17h3.44v.83h-4.63v-.83c.37-.38.88-.9,1.53-1.56.64-.65,1.05-1.07,1.22-1.26.32-.35.54-.65.66-.9.12-.24.19-.49.19-.73,0-.38-.14-.7-.41-.94s-.62-.37-1.06-.37c-.31,0-.64.06-.98.16-.34.11-.71.27-1.1.49v-1c.4-.16.77-.28,1.11-.36s.66-.12.95-.12c.75,0,1.35.19,1.8.57.45.38.68.88.68,1.51,0,.3-.06.59-.17.85-.11.27-.31.59-.61.95-.08.1-.34.37-.78.82s-1.05,1.08-1.84,1.89Z"/>
  <rect class="cls-41" x="33.15" y="108.76" width="1.03" height="1.24"/>
  <path class="cls-41" d="M36.34,102.71h3.87v.83h-2.97v1.79c.14-.05.29-.09.43-.11s.29-.04.43-.04c.81,0,1.45.23,1.93.67.48.45.72,1.05.72,1.81s-.25,1.4-.74,1.83c-.49.43-1.18.64-2.06.64-.31,0-.62-.03-.94-.07-.32-.05-.64-.12-.98-.23v-.99c.29.16.59.28.91.36.31.08.64.11.99.11.56,0,1.01-.14,1.34-.44.32-.3.49-.7.49-1.21s-.17-.9-.49-1.2c-.33-.3-.78-.45-1.34-.45-.26,0-.53.03-.79.09-.26.06-.53.15-.8.27v-3.66Z"/>
  <g class="cls-35">
    <line class="cls-22" x1="48.72" y1="71.59" x2="420.9" y2="71.59"/>
  </g>
  <line class="cls-41" x1="48.72" y1="71.59" x2="45.22" y2="71.59"/>
  <line class="cls-26" x1="48.72" y1="71.59" x2="45.22" y2="71.59"/>
  <path class="cls-41" d="M29.78,70.88c.47.1.84.31,1.1.63.26.32.4.72.4,1.18,0,.72-.25,1.28-.74,1.67-.5.39-1.2.58-2.11.58-.31,0-.63-.03-.95-.09-.32-.05-.66-.14-1-.26v-.95c.27.16.57.28.9.36.32.08.66.12,1.02.12.62,0,1.09-.12,1.41-.36.32-.24.49-.6.49-1.07,0-.42-.15-.76-.45-1-.3-.24-.72-.37-1.26-.37h-.85v-.81h.89c.48,0,.85-.09,1.11-.29.26-.19.39-.47.39-.84s-.14-.66-.4-.86c-.27-.2-.65-.3-1.14-.3-.27,0-.56.03-.87.09s-.65.15-1.02.27v-.88c.37-.1.72-.18,1.05-.23.32-.05.63-.08.93-.08.74,0,1.33.17,1.77.51.44.34.66.8.66,1.38,0,.4-.12.74-.35,1.02s-.56.48-.98.58Z"/>
  <rect class="cls-41" x="33.15" y="73.57" width="1.03" height="1.24"/>
  <path class="cls-41" d="M38.44,67.39c.81,0,1.43.33,1.87.97.43.65.65,1.59.65,2.81s-.22,2.17-.65,2.81c-.44.64-1.06.96-1.88.96s-1.44-.32-1.87-.96c-.43-.64-.64-1.58-.64-2.81s.21-2.16.64-2.81c.43-.64,1.06-.97,1.88-.97ZM38.44,68.17c-.51,0-.89.25-1.15.75-.26.5-.38,1.25-.38,2.25s.12,1.75.38,2.25c.26.5.64.75,1.15.75s.89-.25,1.15-.75c.25-.5.38-1.25.38-2.25s-.13-1.75-.38-2.25c-.26-.5-.64-.75-1.15-.75Z"/>
  <g class="cls-124">
    <line class="cls-22" x1="48.72" y1="36.4" x2="420.9" y2="36.4"/>
  </g>
  <line class="cls-41" x1="48.72" y1="36.4" x2="45.22" y2="36.4"/>
  <line class="cls-26" x1="48.72" y1="36.4" x2="45.22" y2="36.4"/>
  <path class="cls-41" d="M29.78,35.69c.47.1.84.31,1.1.63.26.32.4.72.4,1.18,0,.72-.25,1.28-.74,1.67-.5.39-1.2.58-2.11.58-.31,0-.63-.03-.95-.09-.32-.05-.66-.14-1-.26v-.95c.27.16.57.28.9.36.32.08.66.12,1.02.12.62,0,1.09-.12,1.41-.36.32-.24.49-.6.49-1.07,0-.42-.15-.76-.45-1-.3-.24-.72-.37-1.26-.37h-.85v-.81h.89c.48,0,.85-.09,1.11-.29.26-.19.39-.47.39-.84s-.14-.66-.4-.86c-.27-.2-.65-.3-1.14-.3-.27,0-.56.03-.87.09s-.65.15-1.02.27v-.88c.37-.1.72-.18,1.05-.23.32-.05.63-.08.93-.08.74,0,1.33.17,1.77.51.44.34.66.8.66,1.38,0,.4-.12.74-.35,1.02s-.56.48-.98.58Z"/>
  <rect class="cls-41" x="33.15" y="38.38" width="1.03" height="1.24"/>
  <path class="cls-41" d="M36.34,32.33h3.87v.83h-2.97v1.79c.14-.05.29-.09.43-.11s.29-.04.43-.04c.81,0,1.45.23,1.93.67.48.45.72,1.05.72,1.81s-.25,1.4-.74,1.83c-.49.43-1.18.64-2.06.64-.31,0-.62-.03-.94-.07-.32-.05-.64-.12-.98-.23v-.99c.29.16.59.28.91.36.31.08.64.11.99.11.56,0,1.01-.14,1.34-.44.32-.3.49-.7.49-1.21s-.17-.9-.49-1.2c-.33-.3-.78-.45-1.34-.45-.26,0-.53.03-.79.09-.26.06-.53.15-.8.27v-3.66Z"/>
  <polygon class="cls-41" points="7.66 214.96 7.66 205.71 8.9 205.71 8.9 209.6 18.59 209.6 18.59 211.09 8.9 211.09 8.9 214.96 7.66 214.96"/>
  <path class="cls-41" d="M10.19,203.72c0-1.17.39-2.09,1.14-2.76.76-.66,1.82-1,3.16-1s2.4.35,3.15,1c.76.68,1.14,1.59,1.14,2.76s-.38,2.11-1.14,2.77c-.75.66-1.8.99-3.15.99s-2.4-.33-3.16-.99c-.75-.66-1.14-1.59-1.14-2.77ZM11.33,203.72c0,.72.28,1.29.85,1.71.57.42,1.34.63,2.31.63s1.76-.2,2.32-.62.84-.99.84-1.72-.27-1.29-.84-1.71-1.33-.63-2.32-.63-1.74.21-2.31.63c-.57.42-.85.99-.85,1.71Z"/>
  <path class="cls-41" d="M8.06,196.38h2.33v-2.78h1.05v2.78h4.46c.68,0,1.11-.09,1.29-.27.19-.18.28-.56.28-1.12v-1.38h1.12v1.38c0,1.05-.19,1.77-.58,2.16-.39.39-1.1.58-2.12.58h-4.46v.99h-1.05v-.99h-2.33v-1.35Z"/>
  <path class="cls-41" d="M13.91,185.42h4.68v1.35h-1.25c.51.32.87.71,1.1,1.15s.34,1.02.34,1.68c0,.84-.23,1.51-.69,2.01-.46.49-1.09.74-1.89.74-.91,0-1.6-.3-2.09-.93-.47-.62-.7-1.53-.7-2.76v-1.89h-.14c-.61,0-1.1.21-1.44.61-.33.4-.51.98-.51,1.71,0,.48.06.93.18,1.38.12.45.28.87.49,1.27h-1.24c-.18-.48-.33-.96-.42-1.43s-.15-.91-.15-1.36c0-1.19.32-2.07.93-2.66.61-.58,1.55-.88,2.79-.88ZM14.47,188.1c0,1.1.14,1.85.38,2.26.26.42.68.63,1.27.63.48,0,.87-.15,1.14-.46.28-.32.42-.75.42-1.29,0-.75-.25-1.35-.79-1.8-.53-.45-1.23-.67-2.12-.67h-.3v1.33Z"/>
  <rect class="cls-41" x="7.19" y="181.29" width="11.4" height="1.35"/>
  <path class="cls-41" d="M10.7,167.79h1.26c-.21.39-.36.77-.47,1.16s-.16.76-.16,1.15c0,.87.28,1.56.84,2.04s1.34.72,2.32.72,1.79-.24,2.34-.72c.56-.48.83-1.17.83-2.04,0-.39-.05-.76-.15-1.15s-.27-.76-.48-1.16h1.24c.18.39.32.78.39,1.17.07.4.12.84.12,1.29,0,1.23-.38,2.22-1.15,2.94-.77.74-1.82,1.1-3.14,1.1s-2.39-.36-3.15-1.1c-.76-.74-1.15-1.74-1.15-3.03,0-.42.05-.82.14-1.21s.21-.78.38-1.16Z"/>
  <path class="cls-41" d="M13.91,159.03h4.68v1.35h-1.25c.51.32.87.71,1.1,1.15s.34,1.02.34,1.68c0,.84-.23,1.51-.69,2.01-.46.49-1.09.74-1.89.74-.91,0-1.6-.3-2.09-.93-.47-.62-.7-1.53-.7-2.76v-1.89h-.14c-.61,0-1.1.21-1.44.61-.33.4-.51.98-.51,1.71,0,.48.06.93.18,1.38.12.45.28.87.49,1.27h-1.24c-.18-.48-.33-.96-.42-1.43s-.15-.91-.15-1.36c0-1.19.32-2.07.93-2.66.61-.58,1.55-.88,2.79-.88ZM14.47,161.72c0,1.1.14,1.85.38,2.26.26.42.68.63,1.27.63.48,0,.87-.15,1.14-.46.28-.32.42-.75.42-1.29,0-.75-.25-1.35-.79-1.8-.53-.45-1.23-.67-2.12-.67h-.3v1.33Z"/>
  <path class="cls-41" d="M10.7,150.35h1.26c-.21.39-.36.76-.47,1.16-.11.39-.16.76-.16,1.15,0,.87.28,1.56.84,2.04s1.34.72,2.32.72,1.79-.24,2.34-.72c.56-.48.83-1.17.83-2.04,0-.39-.05-.76-.15-1.15-.1-.39-.27-.77-.48-1.16h1.24c.18.39.32.78.39,1.17.07.4.12.84.12,1.29,0,1.23-.38,2.22-1.15,2.94-.77.74-1.82,1.1-3.14,1.1s-2.39-.36-3.15-1.1c-.76-.74-1.15-1.74-1.15-3.03,0-.42.05-.82.14-1.21.09-.39.21-.78.38-1.16Z"/>
  <path class="cls-41" d="M13.64,141.18h4.95v1.35h-4.91c-.78,0-1.35.16-1.74.46-.39.3-.59.75-.59,1.35,0,.74.24,1.31.71,1.73.46.42,1.09.63,1.89.63h4.64v1.35H7.19v-1.35h4.47c-.48-.32-.85-.69-1.1-1.14-.24-.43-.38-.95-.38-1.51,0-.93.3-1.65.89-2.13s1.44-.74,2.56-.74Z"/>
  <path class="cls-41" d="M13.76,132.83c-.74.01-1.32.23-1.77.62-.43.4-.66.94-.66,1.6,0,.75.23,1.35.65,1.8s1.02.72,1.78.78v-4.8ZM14.15,131.48h.66v6.19c.93-.06,1.65-.33,2.13-.84.48-.5.72-1.18.72-2.09,0-.51-.06-1.02-.18-1.5-.12-.48-.31-.97-.58-1.46h1.27c.21.48.38.98.47,1.49.09.51.15,1.04.15,1.54,0,1.32-.38,2.36-1.12,3.12s-1.78,1.14-3.09,1.14-2.4-.36-3.19-1.08c-.78-.72-1.19-1.71-1.19-2.94,0-1.11.36-1.98,1.06-2.62.72-.63,1.68-.96,2.9-.96Z"/>
  <path class="cls-41" d="M13.64,117.68h4.95v1.35h-4.91c-.78,0-1.35.16-1.74.46-.39.3-.59.75-.59,1.35,0,.74.24,1.31.71,1.73.46.42,1.09.63,1.89.63h4.64v1.35H7.19v-1.35h4.47c-.48-.32-.85-.69-1.1-1.14-.24-.43-.38-.95-.38-1.51,0-.93.3-1.65.89-2.13s1.44-.74,2.56-.74Z"/>
  <path class="cls-41" d="M7.19,114.99v-1.35h1.71v1.35h-1.71ZM10.39,114.99v-1.35h8.2v1.35h-8.2Z"/>
  <path class="cls-41" d="M8.06,109.49h2.33v-2.78h1.05v2.78h4.46c.68,0,1.11-.09,1.29-.27.19-.18.28-.56.28-1.12v-1.38h1.12v1.38c0,1.05-.19,1.77-.58,2.16-.39.39-1.1.58-2.12.58h-4.46v.99h-1.05v-.99h-2.33v-1.35Z"/>
  <path class="cls-41" d="M10.63,99.71h1.27c-.18.39-.33.78-.43,1.18-.09.42-.15.84-.15,1.28,0,.68.1,1.18.31,1.51s.51.49.91.49c.32,0,.56-.12.73-.36.18-.24.36-.72.51-1.44l.11-.46c.21-.96.51-1.63.87-2.04.38-.39.9-.6,1.56-.6.76,0,1.36.3,1.8.9.45.6.66,1.44.66,2.49,0,.45-.05.9-.12,1.38-.08.48-.2.97-.38,1.5h-1.4c.27-.49.47-.99.58-1.47.14-.48.19-.96.19-1.44,0-.63-.1-1.12-.31-1.47-.21-.33-.53-.51-.93-.51-.36,0-.65.13-.84.38-.19.24-.39.78-.57,1.62l-.11.46c-.18.84-.45,1.46-.81,1.82-.36.38-.85.56-1.5.56-.76,0-1.36-.27-1.78-.81-.42-.54-.63-1.32-.63-2.34,0-.49.05-.96.12-1.41.08-.44.18-.84.32-1.22Z"/>
  <polygon class="cls-41" points="55.73 9.69 53.5 11.93 55.73 14.16 55.15 14.75 52.91 12.51 50.67 14.75 50.09 14.16 52.32 11.93 50.09 9.69 50.67 9.1 52.91 11.34 55.15 9.1 55.73 9.69"/>
  <polygon class="cls-41" points="58.33 14.23 59.94 14.23 59.94 8.67 58.19 9.02 58.19 8.12 59.93 7.77 60.92 7.77 60.92 14.23 62.53 14.23 62.53 15.06 58.33 15.06 58.33 14.23"/>
  <path class="cls-41" d="M66.64,7.64c.81,0,1.43.33,1.87.97.43.65.65,1.59.65,2.81s-.22,2.17-.65,2.81c-.44.64-1.06.96-1.88.96s-1.44-.32-1.87-.96c-.43-.64-.64-1.58-.64-2.81s.21-2.16.64-2.81c.43-.64,1.06-.97,1.88-.97ZM66.64,8.42c-.51,0-.89.25-1.15.75-.26.5-.38,1.25-.38,2.25s.12,1.75.38,2.25c.26.5.64.75,1.15.75s.89-.25,1.15-.75c.25-.5.38-1.25.38-2.25s-.13-1.75-.38-2.25c-.26-.5-.64-.75-1.15-.75Z"/>
  <path class="cls-41" d="M72.38,6.13h.87v3.32h.73v.57h-.73v1.2h-.69v-1.2h-2.3v-.66l2.12-3.23ZM72.56,6.73l-1.74,2.72h1.74v-2.72Z"/>
  <g class="cls-121">
    <polyline class="cls-13" points="65.63 218.05 107.93 248.19 150.22 250.41 192.51 251.26 234.81 251.8 277.1 251.88 319.4 252 361.69 252.04 403.98 252.14"/>
    <g class="cls-109">
      <polygon class="cls-21" points="65.63 215.05 62.63 221.05 68.63 221.05 65.63 215.05"/>
    </g>
    <g class="cls-33">
      <polygon class="cls-21" points="107.93 245.19 104.93 251.19 110.93 251.19 107.93 245.19"/>
    </g>
    <g class="cls-77">
      <polygon class="cls-21" points="150.22 247.41 147.22 253.41 153.22 253.41 150.22 247.41"/>
    </g>
    <g class="cls-98">
      <polygon class="cls-21" points="192.51 248.26 189.51 254.26 195.51 254.26 192.51 248.26"/>
    </g>
    <g class="cls-132">
      <polygon class="cls-21" points="234.81 248.8 231.81 254.8 237.81 254.8 234.81 248.8"/>
    </g>
    <g class="cls-94">
      <polygon class="cls-21" points="277.1 248.88 274.1 254.88 280.1 254.88 277.1 248.88"/>
    </g>
    <g class="cls-63">
      <polygon class="cls-21" points="319.4 249 316.4 255 322.4 255 319.4 249"/>
    </g>
    <g class="cls-72">
      <polygon class="cls-21" points="361.69 249.04 358.69 255.04 364.69 255.04 361.69 249.04"/>
    </g>
    <g class="cls-85">
      <polygon class="cls-21" points="403.98 249.14 400.98 255.14 406.98 255.14 403.98 249.14"/>
    </g>
  </g>
  <g class="cls-142">
    <polyline class="cls-8" points="65.63 282.72 107.93 202.55 150.22 177.82 192.51 162.15 234.81 149.44 277.1 138.7 319.4 129.85 361.69 122.25 403.98 115.69"/>
    <g class="cls-120">
      <polygon class="cls-21" points="65.63 279.72 62.63 285.72 68.63 285.72 65.63 279.72"/>
    </g>
    <g class="cls-96">
      <polygon class="cls-21" points="107.93 199.55 104.93 205.55 110.93 205.55 107.93 199.55"/>
    </g>
    <g class="cls-110">
      <polygon class="cls-21" points="150.22 174.82 147.22 180.82 153.22 180.82 150.22 174.82"/>
    </g>
    <g class="cls-50">
      <polygon class="cls-21" points="192.51 159.15 189.51 165.15 195.51 165.15 192.51 159.15"/>
    </g>
    <g class="cls-40">
      <polygon class="cls-21" points="234.81 146.44 231.81 152.44 237.81 152.44 234.81 146.44"/>
    </g>
    <g class="cls-78">
      <polygon class="cls-21" points="277.1 135.7 274.1 141.7 280.1 141.7 277.1 135.7"/>
    </g>
    <g class="cls-147">
      <polygon class="cls-21" points="319.4 126.85 316.4 132.85 322.4 132.85 319.4 126.85"/>
    </g>
    <g class="cls-84">
      <polygon class="cls-21" points="361.69 119.25 358.69 125.25 364.69 125.25 361.69 119.25"/>
    </g>
    <g class="cls-61">
      <polygon class="cls-21" points="403.98 112.69 400.98 118.69 406.98 118.69 403.98 112.69"/>
    </g>
  </g>
  <g class="cls-83">
    <polyline class="cls-24" points="65.63 199.43 107.93 248.16 150.22 251.49 192.51 252.16 234.81 252.56 277.1 252.74 319.4 253.08 361.69 253.11 403.98 253.3"/>
    <g class="cls-108">
      <rect class="cls-20" x="62.63" y="196.43" width="6" height="6"/>
    </g>
    <g class="cls-70">
      <rect class="cls-20" x="104.93" y="245.16" width="6" height="6"/>
    </g>
    <g class="cls-49">
      <rect class="cls-20" x="147.22" y="248.49" width="6" height="6"/>
    </g>
    <g class="cls-129">
      <rect class="cls-20" x="189.51" y="249.16" width="6" height="6"/>
    </g>
    <g class="cls-115">
      <rect class="cls-20" x="231.81" y="249.56" width="6" height="6"/>
    </g>
    <g class="cls-89">
      <rect class="cls-20" x="274.1" y="249.74" width="6" height="6"/>
    </g>
    <g class="cls-31">
      <rect class="cls-20" x="316.4" y="250.08" width="6" height="6"/>
    </g>
    <g class="cls-62">
      <rect class="cls-20" x="358.69" y="250.11" width="6" height="6"/>
    </g>
    <g class="cls-45">
      <rect class="cls-20" x="400.98" y="250.3" width="6" height="6"/>
    </g>
  </g>
  <g class="cls-106">
    <polyline class="cls-14" points="65.63 282.72 107.93 167.15 150.22 133.7 192.51 111.4 234.81 94.2 277.1 80.59 319.4 69.02 361.69 59.33 403.98 51.11"/>
    <g class="cls-138">
      <rect class="cls-20" x="62.63" y="279.72" width="6" height="6"/>
    </g>
    <g class="cls-105">
      <rect class="cls-20" x="104.93" y="164.15" width="6" height="6"/>
    </g>
    <g class="cls-141">
      <rect class="cls-20" x="147.22" y="130.7" width="6" height="6"/>
    </g>
    <g class="cls-103">
      <rect class="cls-20" x="189.51" y="108.4" width="6" height="6"/>
    </g>
    <g class="cls-137">
      <rect class="cls-20" x="231.81" y="91.2" width="6" height="6"/>
    </g>
    <g class="cls-112">
      <rect class="cls-20" x="274.1" y="77.59" width="6" height="6"/>
    </g>
    <g class="cls-118">
      <rect class="cls-20" x="316.4" y="66.02" width="6" height="6"/>
    </g>
    <g class="cls-136">
      <rect class="cls-20" x="358.69" y="56.33" width="6" height="6"/>
    </g>
    <g class="cls-79">
      <rect class="cls-20" x="400.98" y="48.11" width="6" height="6"/>
    </g>
  </g>
  <g class="cls-127">
    <polyline class="cls-9" points="65.63 217.5 107.93 261.45 150.22 268.84 192.51 271.93 234.81 273.24 277.1 274.24 319.4 274.84 361.69 275.28 403.98 275.67"/>
    <g class="cls-36">
      <path class="cls-10" d="M62.63,214.5l6,6M62.63,220.5l6-6"/>
    </g>
    <g class="cls-88">
      <path class="cls-10" d="M104.93,258.45l6,6M104.93,264.45l6-6"/>
    </g>
    <g class="cls-107">
      <path class="cls-10" d="M147.22,265.84l6,6M147.22,271.84l6-6"/>
    </g>
    <g class="cls-30">
      <path class="cls-10" d="M189.51,268.93l6,6M189.51,274.93l6-6"/>
    </g>
    <g class="cls-32">
      <path class="cls-10" d="M231.81,270.24l6,6M231.81,276.24l6-6"/>
    </g>
    <g class="cls-44">
      <path class="cls-10" d="M274.1,271.24l6,6M274.1,277.24l6-6"/>
    </g>
    <g class="cls-130">
      <path class="cls-10" d="M316.4,271.84l6,6M316.4,277.84l6-6"/>
    </g>
    <g class="cls-148">
      <path class="cls-10" d="M358.69,272.28l6,6M358.69,278.28l6-6"/>
    </g>
    <g class="cls-140">
      <path class="cls-10" d="M400.98,272.67l6,6M400.98,278.67l6-6"/>
    </g>
  </g>
  <g class="cls-146">
    <polyline class="cls-11" points="65.63 282.72 107.93 168.9 150.22 122.49 192.51 92.98 234.81 72.61 277.1 58.32 319.4 47.48 361.69 38.32 403.98 30.72"/>
    <g class="cls-119">
      <path class="cls-10" d="M62.63,279.72l6,6M62.63,285.72l6-6"/>
    </g>
    <g class="cls-116">
      <path class="cls-10" d="M104.93,165.9l6,6M104.93,171.9l6-6"/>
    </g>
    <g class="cls-143">
      <path class="cls-10" d="M147.22,119.49l6,6M147.22,125.49l6-6"/>
    </g>
    <g class="cls-29">
      <path class="cls-10" d="M189.51,89.98l6,6M189.51,95.98l6-6"/>
    </g>
    <g class="cls-28">
      <path class="cls-10" d="M231.81,69.61l6,6M231.81,75.61l6-6"/>
    </g>
    <g class="cls-135">
      <path class="cls-10" d="M274.1,55.32l6,6M274.1,61.32l6-6"/>
    </g>
    <g class="cls-75">
      <path class="cls-10" d="M316.4,44.48l6,6M316.4,50.48l6-6"/>
    </g>
    <g class="cls-69">
      <path class="cls-10" d="M358.69,35.32l6,6M358.69,41.32l6-6"/>
    </g>
    <g class="cls-47">
      <path class="cls-10" d="M400.98,27.72l6,6M400.98,33.72l6-6"/>
    </g>
  </g>
  <g class="cls-37">
    <polyline class="cls-19" points="65.63 244.47 107.93 264.2 150.22 268 192.51 270.27 234.81 271.43 277.1 272.54 319.4 273.3 361.69 273.86 403.98 274.22"/>
    <g class="cls-97">
      <polygon class="cls-2" points="65.63 248.72 68.18 244.47 65.63 240.23 63.09 244.47 65.63 248.72"/>
    </g>
    <g class="cls-93">
      <polygon class="cls-2" points="107.93 268.44 110.47 264.2 107.93 259.95 105.38 264.2 107.93 268.44"/>
    </g>
    <g class="cls-73">
      <polygon class="cls-2" points="150.22 272.24 152.77 268 150.22 263.75 147.68 268 150.22 272.24"/>
    </g>
    <g class="cls-102">
      <polygon class="cls-2" points="192.51 274.51 195.06 270.27 192.51 266.03 189.97 270.27 192.51 274.51"/>
    </g>
    <g class="cls-54">
      <polygon class="cls-2" points="234.81 275.67 237.35 271.43 234.81 267.19 232.26 271.43 234.81 275.67"/>
    </g>
    <g class="cls-128">
      <polygon class="cls-2" points="277.1 276.78 279.65 272.54 277.1 268.3 274.56 272.54 277.1 276.78"/>
    </g>
    <g class="cls-144">
      <polygon class="cls-2" points="319.4 277.54 321.94 273.3 319.4 269.05 316.85 273.3 319.4 277.54"/>
    </g>
    <g class="cls-111">
      <polygon class="cls-2" points="361.69 278.1 364.24 273.86 361.69 269.62 359.14 273.86 361.69 278.1"/>
    </g>
    <g class="cls-53">
      <polygon class="cls-2" points="403.98 278.47 406.53 274.22 403.98 269.98 401.44 274.22 403.98 278.47"/>
    </g>
  </g>
  <g class="cls-59">
    <polyline class="cls-25" points="65.63 282.72 107.93 195.6 150.22 160.33 192.51 136.55 234.81 118.63 277.1 103.88 319.4 92.36 361.69 82.98 403.98 74.83"/>
    <g class="cls-39">
      <polygon class="cls-2" points="65.63 286.96 68.18 282.72 65.63 278.48 63.09 282.72 65.63 286.96"/>
    </g>
    <g class="cls-122">
      <polygon class="cls-2" points="107.93 199.84 110.47 195.6 107.93 191.36 105.38 195.6 107.93 199.84"/>
    </g>
    <g class="cls-114">
      <polygon class="cls-2" points="150.22 164.57 152.77 160.33 150.22 156.08 147.68 160.33 150.22 164.57"/>
    </g>
    <g class="cls-134">
      <polygon class="cls-2" points="192.51 140.79 195.06 136.55 192.51 132.31 189.97 136.55 192.51 140.79"/>
    </g>
    <g class="cls-38">
      <polygon class="cls-2" points="234.81 122.87 237.35 118.63 234.81 114.38 232.26 118.63 234.81 122.87"/>
    </g>
    <g class="cls-46">
      <polygon class="cls-2" points="277.1 108.12 279.65 103.88 277.1 99.64 274.56 103.88 277.1 108.12"/>
    </g>
    <g class="cls-92">
      <polygon class="cls-2" points="319.4 96.6 321.94 92.36 319.4 88.12 316.85 92.36 319.4 96.6"/>
    </g>
    <g class="cls-99">
      <polygon class="cls-2" points="361.69 87.22 364.24 82.98 361.69 78.74 359.14 82.98 361.69 87.22"/>
    </g>
    <g class="cls-125">
      <polygon class="cls-2" points="403.98 79.07 406.53 74.83 403.98 70.58 401.44 74.83 403.98 79.07"/>
    </g>
  </g>
  <g class="cls-64">
    <polyline class="cls-15" points="65.63 244.22 107.93 265.23 150.22 269.83 192.51 272.18 234.81 273.53 277.1 274.69 319.4 275.21 361.69 275.82 403.98 276.06"/>
    <g class="cls-95">
      <path class="cls-3" d="M65.63,247.22c.8,0,1.56-.32,2.12-.88.56-.56.88-1.33.88-2.12s-.32-1.56-.88-2.12c-.56-.56-1.33-.88-2.12-.88s-1.56.32-2.12.88c-.56.56-.88,1.33-.88,2.12s.32,1.56.88,2.12c.56.56,1.33.88,2.12.88Z"/>
    </g>
    <g class="cls-133">
      <path class="cls-3" d="M107.93,268.23c.8,0,1.56-.32,2.12-.88.56-.56.88-1.33.88-2.12s-.32-1.56-.88-2.12c-.56-.56-1.33-.88-2.12-.88s-1.56.32-2.12.88c-.56.56-.88,1.33-.88,2.12s.32,1.56.88,2.12c.56.56,1.33.88,2.12.88Z"/>
    </g>
    <g class="cls-87">
      <path class="cls-3" d="M150.22,272.83c.8,0,1.56-.32,2.12-.88.56-.56.88-1.33.88-2.12s-.32-1.56-.88-2.12c-.56-.56-1.33-.88-2.12-.88s-1.56.32-2.12.88c-.56.56-.88,1.33-.88,2.12s.32,1.56.88,2.12c.56.56,1.33.88,2.12.88Z"/>
    </g>
    <g class="cls-80">
      <path class="cls-3" d="M192.51,275.18c.8,0,1.56-.32,2.12-.88.56-.56.88-1.33.88-2.12s-.32-1.56-.88-2.12c-.56-.56-1.33-.88-2.12-.88s-1.56.32-2.12.88c-.56.56-.88,1.33-.88,2.12s.32,1.56.88,2.12c.56.56,1.33.88,2.12.88Z"/>
    </g>
    <g class="cls-100">
      <path class="cls-3" d="M234.81,276.53c.8,0,1.56-.32,2.12-.88.56-.56.88-1.33.88-2.12s-.32-1.56-.88-2.12c-.56-.56-1.33-.88-2.12-.88s-1.56.32-2.12.88c-.56.56-.88,1.33-.88,2.12s.32,1.56.88,2.12c.56.56,1.33.88,2.12.88Z"/>
    </g>
    <g class="cls-68">
      <path class="cls-3" d="M277.1,277.69c.8,0,1.56-.32,2.12-.88.56-.56.88-1.33.88-2.12s-.32-1.56-.88-2.12c-.56-.56-1.33-.88-2.12-.88s-1.56.32-2.12.88c-.56.56-.88,1.33-.88,2.12s.32,1.56.88,2.12c.56.56,1.33.88,2.12.88Z"/>
    </g>
    <g class="cls-56">
      <path class="cls-3" d="M319.4,278.21c.8,0,1.56-.32,2.12-.88.56-.56.88-1.33.88-2.12s-.32-1.56-.88-2.12c-.56-.56-1.33-.88-2.12-.88s-1.56.32-2.12.88c-.56.56-.88,1.33-.88,2.12s.32,1.56.88,2.12c.56.56,1.33.88,2.12.88Z"/>
    </g>
    <g class="cls-145">
      <path class="cls-3" d="M361.69,278.82c.8,0,1.56-.32,2.12-.88.56-.56.88-1.33.88-2.12s-.32-1.56-.88-2.12c-.56-.56-1.33-.88-2.12-.88s-1.56.32-2.12.88c-.56.56-.88,1.33-.88,2.12s.32,1.56.88,2.12c.56.56,1.33.88,2.12.88Z"/>
    </g>
    <g class="cls-65">
      <path class="cls-3" d="M403.98,279.06c.8,0,1.56-.32,2.12-.88.56-.56.88-1.33.88-2.12s-.32-1.56-.88-2.12c-.56-.56-1.33-.88-2.12-.88s-1.56.32-2.12.88c-.56.56-.88,1.33-.88,2.12s.32,1.56.88,2.12c.56.56,1.33.88,2.12.88Z"/>
    </g>
  </g>
  <g class="cls-51">
    <polyline class="cls-4" points="65.63 282.72 107.93 192.26 150.22 151.89 192.51 124.45 234.81 103.56 277.1 86.26 319.4 72.68 361.69 61.77 403.98 52.35"/>
    <g class="cls-86">
      <path class="cls-3" d="M65.63,285.72c.8,0,1.56-.32,2.12-.88.56-.56.88-1.33.88-2.12s-.32-1.56-.88-2.12c-.56-.56-1.33-.88-2.12-.88s-1.56.32-2.12.88c-.56.56-.88,1.33-.88,2.12s.32,1.56.88,2.12c.56.56,1.33.88,2.12.88Z"/>
    </g>
    <g class="cls-139">
      <path class="cls-3" d="M107.93,195.26c.8,0,1.56-.32,2.12-.88.56-.56.88-1.33.88-2.12s-.32-1.56-.88-2.12c-.56-.56-1.33-.88-2.12-.88s-1.56.32-2.12.88c-.56.56-.88,1.33-.88,2.12s.32,1.56.88,2.12c.56.56,1.33.88,2.12.88Z"/>
    </g>
    <g class="cls-74">
      <path class="cls-3" d="M150.22,154.89c.8,0,1.56-.32,2.12-.88s.88-1.33.88-2.12-.32-1.56-.88-2.12-1.33-.88-2.12-.88-1.56.32-2.12.88-.88,1.33-.88,2.12.32,1.56.88,2.12,1.33.88,2.12.88Z"/>
    </g>
    <g class="cls-52">
      <path class="cls-3" d="M192.51,127.45c.8,0,1.56-.32,2.12-.88s.88-1.33.88-2.12-.32-1.56-.88-2.12-1.33-.88-2.12-.88-1.56.32-2.12.88-.88,1.33-.88,2.12.32,1.56.88,2.12,1.33.88,2.12.88Z"/>
    </g>
    <g class="cls-91">
      <path class="cls-3" d="M234.81,106.56c.8,0,1.56-.32,2.12-.88s.88-1.33.88-2.12-.32-1.56-.88-2.12-1.33-.88-2.12-.88-1.56.32-2.12.88-.88,1.33-.88,2.12.32,1.56.88,2.12,1.33.88,2.12.88Z"/>
    </g>
    <g class="cls-55">
      <path class="cls-3" d="M277.1,89.26c.8,0,1.56-.32,2.12-.88.56-.56.88-1.33.88-2.12s-.32-1.56-.88-2.12c-.56-.56-1.33-.88-2.12-.88s-1.56.32-2.12.88c-.56.56-.88,1.33-.88,2.12s.32,1.56.88,2.12c.56.56,1.33.88,2.12.88Z"/>
    </g>
    <g class="cls-60">
      <path class="cls-3" d="M319.4,75.68c.8,0,1.56-.32,2.12-.88.56-.56.88-1.33.88-2.12s-.32-1.56-.88-2.12c-.56-.56-1.33-.88-2.12-.88s-1.56.32-2.12.88c-.56.56-.88,1.33-.88,2.12s.32,1.56.88,2.12c.56.56,1.33.88,2.12.88Z"/>
    </g>
    <g class="cls-48">
      <path class="cls-3" d="M361.69,64.77c.8,0,1.56-.32,2.12-.88.56-.56.88-1.33.88-2.12s-.32-1.56-.88-2.12c-.56-.56-1.33-.88-2.12-.88s-1.56.32-2.12.88c-.56.56-.88,1.33-.88,2.12s.32,1.56.88,2.12c.56.56,1.33.88,2.12.88Z"/>
    </g>
    <g class="cls-71">
      <path class="cls-3" d="M403.98,55.35c.8,0,1.56-.32,2.12-.88.56-.56.88-1.33.88-2.12s-.32-1.56-.88-2.12c-.56-.56-1.33-.88-2.12-.88s-1.56.32-2.12.88c-.56.56-.88,1.33-.88,2.12s.32,1.56.88,2.12c.56.56,1.33.88,2.12.88Z"/>
    </g>
  </g>
  <line class="cls-17" x1="48.72" y1="295.32" x2="48.72" y2="18.12"/>
  <line class="cls-17" x1="420.9" y1="295.32" x2="420.9" y2="18.12"/>
  <line class="cls-17" x1="48.72" y1="295.32" x2="420.9" y2="295.32"/>
  <line class="cls-17" x1="48.72" y1="18.12" x2="420.9" y2="18.12"/>
  <g>
    <rect class="cls-42" x="158.93" y="199.79" width="254.97" height="24.75" rx="2.8" ry="2.8"/>
    <rect class="cls-12" x="158.93" y="199.79" width="254.97" height="24.75" rx="2.8" ry="2.8"/>
  </g>
  <polyline class="cls-18" points="164.53 211.13 178.53 211.13 192.53 211.13"/>
  <polygon class="cls-41" points="205.1 205.82 210.96 205.82 210.96 206.99 206.48 206.99 206.48 210 210.53 210 210.53 211.16 206.48 211.16 206.48 216.03 205.1 216.03 205.1 205.82"/>
  <path class="cls-41" d="M212.08,205.39h1.26v1.6h-1.26v-1.6ZM212.08,208.37h1.26v7.66h-1.26v-7.66Z"/>
  <path class="cls-41" d="M220.41,209.55c-.14-.08-.29-.14-.46-.18-.17-.03-.35-.06-.55-.06-.71,0-1.26.24-1.64.7-.39.46-.57,1.12-.57,1.99v4.03h-1.26v-7.66h1.26v1.19c.25-.46.6-.81,1.02-1.04s.94-.34,1.55-.34c.08,0,.18.01.29.01.1.01.21.03.35.06v1.29Z"/>
  <path class="cls-41" d="M226.61,208.6v1.19c-.36-.17-.73-.31-1.11-.41-.39-.08-.78-.14-1.19-.14-.63,0-1.11.1-1.41.29s-.46.48-.46.85c0,.29.11.52.34.69.22.17.67.34,1.34.48l.43.1c.9.2,1.53.48,1.9.81.36.35.56.84.56,1.46,0,.71-.28,1.27-.84,1.68-.56.42-1.34.62-2.32.62-.42,0-.84-.04-1.29-.11-.45-.07-.91-.18-1.4-.35v-1.3c.46.25.92.43,1.37.55.45.13.9.18,1.34.18.59,0,1.05-.1,1.37-.29.31-.2.48-.49.48-.87,0-.34-.13-.6-.35-.78-.22-.18-.73-.36-1.51-.53l-.43-.1c-.78-.17-1.36-.42-1.69-.76-.35-.34-.52-.8-.52-1.4,0-.71.25-1.27.76-1.67.5-.39,1.23-.59,2.18-.59.46,0,.9.04,1.32.11.41.07.78.17,1.13.29Z"/>
  <path class="cls-41" d="M230.26,206.2v2.17h2.59v.98h-2.59v4.16c0,.63.08,1.04.25,1.2.17.18.52.27,1.05.27h1.29v1.05h-1.29c-.98,0-1.65-.18-2.02-.55-.36-.36-.55-1.02-.55-1.97v-4.16h-.92v-.98h.92v-2.17h1.26Z"/>
  <path class="cls-41" d="M240.2,206.2v2.17h2.59v.98h-2.59v4.16c0,.63.08,1.04.25,1.2.17.18.52.27,1.05.27h1.29v1.05h-1.29c-.98,0-1.65-.18-2.02-.55-.36-.36-.55-1.02-.55-1.97v-4.16h-.92v-.98h.92v-2.17h1.26Z"/>
  <path class="cls-41" d="M244.44,205.39h1.26v1.6h-1.26v-1.6ZM244.44,208.37h1.26v7.66h-1.26v-7.66Z"/>
  <path class="cls-41" d="M253.63,211.52c-.01-.69-.21-1.23-.57-1.65-.38-.41-.88-.62-1.5-.62-.7,0-1.26.21-1.68.6s-.67.95-.73,1.67h4.48ZM254.89,211.89v.62h-5.78c.06.87.31,1.54.78,1.99.46.45,1.11.67,1.95.67.48,0,.95-.06,1.4-.17s.91-.29,1.36-.55v1.19c-.45.2-.91.35-1.39.43s-.97.14-1.44.14c-1.23,0-2.2-.35-2.91-1.05-.71-.7-1.06-1.67-1.06-2.88s.34-2.24,1.01-2.98c.67-.73,1.6-1.11,2.74-1.11,1.04,0,1.85.34,2.45.99.59.67.9,1.57.9,2.7Z"/>
  <path class="cls-41" d="M261.38,209.55c-.14-.08-.29-.14-.46-.18-.17-.03-.35-.06-.55-.06-.71,0-1.26.24-1.64.7-.39.46-.57,1.12-.57,1.99v4.03h-1.26v-7.66h1.26v1.19c.25-.46.6-.81,1.02-1.04s.94-.34,1.55-.34c.08,0,.18.01.29.01.1.01.21.03.35.06v1.29Z"/>
  <polyline class="cls-1" points="289.38 211.13 303.38 211.13 317.38 211.13"/>
  <path class="cls-41" d="M336.07,206.16v1.34c-.53-.25-1.02-.43-1.48-.56-.48-.11-.92-.18-1.34-.18-.76,0-1.34.15-1.75.43-.41.29-.6.71-.6,1.25,0,.45.13.8.41,1.02.27.24.78.42,1.54.56l.84.17c1.02.2,1.78.55,2.27,1.04.49.5.74,1.16.74,1.99,0,.99-.34,1.74-.99,2.24-.67.5-1.64.76-2.91.76-.49,0-1.01-.06-1.55-.15s-1.11-.25-1.68-.48v-1.43c.56.32,1.11.56,1.64.71.53.17,1.06.24,1.6.24.78,0,1.39-.15,1.82-.46.42-.31.64-.74.64-1.33,0-.5-.15-.9-.46-1.18-.31-.28-.81-.49-1.51-.63l-.84-.17c-1.04-.2-1.78-.52-2.24-.97-.46-.43-.69-1.04-.69-1.82,0-.9.31-1.61.95-2.13.63-.52,1.51-.78,2.63-.78.48,0,.95.04,1.46.13.49.08.99.22,1.53.39Z"/>
  <path class="cls-41" d="M344.08,211.52c-.01-.69-.21-1.23-.57-1.65-.38-.41-.88-.62-1.5-.62-.7,0-1.26.21-1.68.6-.42.39-.67.95-.73,1.67h4.48ZM345.34,211.89v.62h-5.78c.06.87.31,1.54.78,1.99.46.45,1.11.67,1.95.67.48,0,.95-.06,1.4-.17s.91-.29,1.36-.55v1.19c-.45.2-.91.35-1.39.43-.48.08-.97.14-1.44.14-1.23,0-2.2-.35-2.91-1.05-.71-.7-1.06-1.67-1.06-2.88s.34-2.24,1.01-2.98c.67-.73,1.6-1.11,2.74-1.11,1.04,0,1.85.34,2.45.99.59.67.9,1.57.9,2.7Z"/>
  <path class="cls-41" d="M352.91,208.67v1.18c-.36-.2-.71-.34-1.08-.43-.36-.1-.71-.15-1.08-.15-.81,0-1.46.27-1.9.78-.45.52-.67,1.25-.67,2.17s.22,1.67.67,2.18,1.09.77,1.9.77c.36,0,.71-.04,1.08-.14.36-.1.71-.25,1.08-.45v1.16c-.36.17-.73.29-1.09.36-.38.07-.78.11-1.2.11-1.15,0-2.07-.35-2.74-1.08-.69-.71-1.02-1.69-1.02-2.93s.34-2.23,1.02-2.94c.69-.71,1.62-1.08,2.83-1.08.39,0,.77.04,1.13.13.36.08.73.2,1.08.35Z"/>
  <path class="cls-41" d="M358.07,208.19c1.09,0,1.95.36,2.58,1.06.62.71.94,1.69.94,2.95s-.32,2.24-.94,2.94c-.63.71-1.48,1.06-2.58,1.06s-1.97-.35-2.59-1.06c-.62-.7-.92-1.68-.92-2.94s.31-2.24.92-2.95c.62-.7,1.48-1.06,2.59-1.06ZM358.07,209.25c-.67,0-1.2.27-1.6.8s-.59,1.25-.59,2.16.18,1.64.57,2.17.92.78,1.61.78,1.2-.25,1.6-.78.59-1.25.59-2.17-.2-1.62-.59-2.16-.92-.8-1.6-.8Z"/>
  <path class="cls-41" d="M370.04,211.41v4.62h-1.26v-4.58c0-.73-.15-1.26-.43-1.62s-.7-.55-1.26-.55c-.69,0-1.22.22-1.61.66-.39.43-.59,1.02-.59,1.76v4.33h-1.26v-7.66h1.26v1.19c.29-.45.64-.8,1.06-1.02.41-.22.88-.35,1.41-.35.87,0,1.54.28,1.99.83.45.55.69,1.34.69,2.39Z"/>
  <path class="cls-41" d="M373.3,212.21c0,.92.18,1.65.56,2.18.38.53.9.78,1.57.78s1.19-.25,1.58-.78c.38-.53.57-1.26.57-2.18s-.2-1.64-.57-2.17c-.39-.53-.91-.8-1.58-.8s-1.19.27-1.57.8c-.38.53-.56,1.25-.56,2.17ZM377.58,209.53v-4.14h1.26v10.64h-1.26v-1.15c-.27.46-.6.8-1.01,1.01s-.88.32-1.44.32c-.92,0-1.68-.36-2.27-1.09-.59-.73-.87-1.71-.87-2.91s.28-2.17.87-2.91c.59-.73,1.34-1.11,2.27-1.11.56,0,1.04.11,1.44.34s.74.56,1.01,1.01Z"/>
  <path class="cls-41" d="M387.13,206.2v2.17h2.59v.98h-2.59v4.16c0,.63.08,1.04.25,1.2.17.18.52.27,1.05.27h1.29v1.05h-1.29c-.98,0-1.65-.18-2.02-.55-.36-.36-.55-1.02-.55-1.97v-4.16h-.92v-.98h.92v-2.17h1.26Z"/>
  <path class="cls-41" d="M391.37,205.39h1.26v1.6h-1.26v-1.6ZM391.37,208.37h1.26v7.66h-1.26v-7.66Z"/>
  <path class="cls-41" d="M400.56,211.52c-.01-.69-.21-1.23-.57-1.65-.38-.41-.88-.62-1.5-.62-.7,0-1.26.21-1.68.6-.42.39-.67.95-.73,1.67h4.48ZM401.82,211.89v.62h-5.78c.06.87.31,1.54.78,1.99.46.45,1.11.67,1.95.67.48,0,.95-.06,1.4-.17s.91-.29,1.36-.55v1.19c-.45.2-.91.35-1.39.43-.48.08-.97.14-1.44.14-1.23,0-2.2-.35-2.91-1.05-.71-.7-1.06-1.67-1.06-2.88s.34-2.24,1.01-2.98c.67-.73,1.6-1.11,2.74-1.11,1.04,0,1.85.34,2.45.99.59.67.9,1.57.9,2.7Z"/>
  <path class="cls-41" d="M408.31,209.55c-.14-.08-.29-.14-.46-.18-.17-.03-.35-.06-.55-.06-.71,0-1.26.24-1.64.7-.39.46-.57,1.12-.57,1.99v4.03h-1.26v-7.66h1.26v1.19c.25-.46.6-.81,1.02-1.04s.94-.34,1.55-.34c.08,0,.18.01.29.01.1.01.21.03.35.06v1.29Z"/>
  <g>
    <rect class="cls-42" x="55.22" y="24.62" width="78.58" height="99.29" rx="2.6" ry="2.6"/>
    <rect class="cls-12" x="55.22" y="24.62" width="78.58" height="99.29" rx="2.6" ry="2.6"/>
  </g>
  <polygon class="cls-23" points="73.42 30.15 68.42 40.15 78.42 40.15 73.42 30.15"/>
  <polygon class="cls-41" points="98.09 30.22 100 30.22 102.42 36.67 104.85 30.22 106.76 30.22 106.76 39.7 105.51 39.7 105.51 31.38 103.07 37.88 101.78 37.88 99.34 31.38 99.34 39.7 98.09 39.7 98.09 30.22"/>
  <polygon class="cls-41" points="111.75 39.7 108.14 30.22 109.48 30.22 112.48 38.2 115.48 30.22 116.82 30.22 113.21 39.7 111.75 39.7"/>
  <rect class="cls-41" x="118.2" y="30.22" width="1.29" height="9.48"/>
  <path class="cls-41" d="M122.04,30.22h2.9c1.05,0,1.86.25,2.41.73.55.48.82,1.18.82,2.11s-.27,1.65-.82,2.12c-.55.48-1.35.71-2.41.71h-1.61v3.81h-1.29v-9.48ZM123.32,31.27v3.56h1.61c.6,0,1.05-.14,1.38-.45.32-.31.49-.75.49-1.33s-.17-1-.49-1.31c-.33-.31-.78-.47-1.38-.47h-1.61Z"/>
  <rect class="cls-27" x="68.42" y="49.23" width="10" height="10"/>
  <polygon class="cls-41" points="98.09 49.3 99.38 49.3 99.38 57.7 103.99 57.7 103.99 58.77 98.09 58.77 98.09 49.3"/>
  <polygon class="cls-41" points="105.33 49.3 110.78 49.3 110.78 50.38 106.62 50.38 106.62 53.17 110.37 53.17 110.37 54.25 106.62 54.25 106.62 58.77 105.33 58.77 105.33 49.3"/>
  <path class="cls-41" d="M112.66,49.3h1.29v5.76c0,1.01.18,1.75.55,2.2.36.44.96.66,1.79.66s1.42-.22,1.78-.66c.36-.44.56-1.18.56-2.2v-5.76h1.29v5.91c0,1.25-.31,2.17-.92,2.8s-1.51.94-2.7.94-2.11-.31-2.72-.94-.91-1.55-.91-2.8v-5.91Z"/>
  <path class="cls-16" d="M68.42,68.3l10,10M68.42,78.3l10-10"/>
  <polygon class="cls-41" points="98.09 68.38 99.38 68.38 99.38 76.77 103.99 76.77 103.99 77.85 98.09 77.85 98.09 68.38"/>
  <path class="cls-41" d="M106.62,69.43v3.37h1.61c.61,0,1.08-.14,1.39-.43.31-.29.48-.7.48-1.26s-.17-.96-.48-1.25c-.31-.29-.78-.43-1.39-.43h-1.61ZM109.83,73.41c.27.1.55.3.81.6.26.31.52.73.78,1.26l1.3,2.59h-1.38l-1.21-2.43c-.31-.62-.62-1.05-.91-1.26-.3-.21-.7-.31-1.21-.31h-1.39v4h-1.29v-9.48h2.9c1.08,0,1.89.23,2.42.68.53.45.81,1.14.81,2.05,0,.6-.14,1.11-.42,1.49-.29.39-.69.66-1.21.81Z"/>
  <path class="cls-41" d="M114.22,68.38h1.29v5.76c0,1.01.18,1.75.55,2.2.36.44.96.66,1.79.66s1.42-.22,1.78-.66c.36-.44.56-1.18.56-2.2v-5.76h1.29v5.91c0,1.25-.31,2.17-.92,2.8s-1.51.94-2.7.94-2.11-.31-2.72-.94-.91-1.55-.91-2.8v-5.91Z"/>
  <polygon class="cls-7" points="73.42 99.45 77.66 92.38 73.42 85.31 69.17 92.38 73.42 99.45"/>
  <polygon class="cls-41" points="98.09 87.45 103.54 87.45 103.54 88.53 99.38 88.53 99.38 91.33 103.13 91.33 103.13 92.41 99.38 92.41 99.38 96.93 98.09 96.93 98.09 87.45"/>
  <rect class="cls-41" x="105.56" y="87.45" width="1.29" height="9.48"/>
  <polygon class="cls-41" points="109.4 87.45 114.85 87.45 114.85 88.53 110.69 88.53 110.69 91.33 114.44 91.33 114.44 92.41 110.69 92.41 110.69 96.93 109.4 96.93 109.4 87.45"/>
  <path class="cls-41" d="M120.72,87.29c1.33,0,2.38.46,3.18,1.34.79.88,1.2,2.08,1.2,3.58s-.4,2.69-1.2,3.57c-.81.88-1.86,1.33-3.18,1.33s-2.4-.44-3.2-1.33c-.81-.88-1.2-2.07-1.2-3.57s.39-2.69,1.2-3.58c.79-.88,1.86-1.34,3.2-1.34ZM120.72,88.33c-.94,0-1.68.35-2.22,1.04-.55.7-.82,1.64-.82,2.83s.27,2.14.82,2.83c.55.7,1.29,1.04,2.22,1.04s1.66-.34,2.21-1.04c.55-.69.82-1.64.82-2.83s-.27-2.13-.82-2.83c-.55-.69-1.29-1.04-2.21-1.04Z"/>
  <path class="cls-5" d="M73.42,116.46c1.33,0,2.6-.53,3.54-1.46.94-.94,1.46-2.21,1.46-3.54s-.53-2.6-1.46-3.54c-.94-.94-2.21-1.46-3.54-1.46s-2.6.53-3.54,1.46c-.94.94-1.46,2.21-1.46,3.54s.53,2.6,1.46,3.54c.94.94,2.21,1.46,3.54,1.46Z"/>
  <path class="cls-41" d="M97.95,106.53h1.29v5.76c0,1.01.18,1.76.55,2.2.36.44.96.66,1.79.66s1.42-.22,1.78-.66.56-1.18.56-2.2v-5.76h1.29v5.92c0,1.25-.31,2.17-.92,2.79-.61.62-1.51.94-2.7.94s-2.11-.31-2.72-.94c-.61-.62-.91-1.55-.91-2.79v-5.92Z"/>
  <polygon class="cls-41" points="107.61 106.53 109.33 106.53 113.53 114.46 113.53 106.53 114.78 106.53 114.78 116.01 113.05 116.01 108.85 108.08 108.85 116.01 107.61 116.01 107.61 106.53"/>
  <rect class="cls-41" x="117.33" y="106.53" width="1.29" height="9.48"/>
  <polygon class="cls-41" points="121.16 106.53 126.61 106.53 126.61 107.61 122.45 107.61 122.45 110.41 126.21 110.41 126.21 111.49 122.45 111.49 122.45 116.01 121.16 116.01 121.16 106.53"/>
</svg>