<?xml version="1.0" encoding="UTF-8"?>
<svg id="Layer_1" data-name="Layer 1" xmlns="http://www.w3.org/2000/svg" version="1.1" xmlns:xlink="http://www.w3.org/1999/xlink" viewBox="0 0 514.65 363.35">
  <defs>
    <style>
      .cls-1, .cls-2, .cls-3, .cls-4, .cls-5, .cls-6, .cls-7, .cls-8, .cls-9, .cls-10, .cls-11, .cls-12, .cls-13, .cls-14, .cls-15, .cls-16, .cls-17, .cls-18, .cls-19, .cls-20, .cls-21, .cls-22, .cls-23, .cls-24, .cls-25, .cls-26, .cls-27 {
        fill: none;
      }

      .cls-1, .cls-3, .cls-4, .cls-5, .cls-8, .cls-9, .cls-10, .cls-11, .cls-13, .cls-14, .cls-15, .cls-16, .cls-18, .cls-19, .cls-22, .cls-24, .cls-25, .cls-26 {
        stroke-linejoin: round;
      }

      .cls-1, .cls-4, .cls-8, .cls-9, .cls-11, .cls-13, .cls-14, .cls-15, .cls-18, .cls-19, .cls-24, .cls-25 {
        stroke-width: 1.5px;
      }

      .cls-1, .cls-4, .cls-8, .cls-11, .cls-14, .cls-25 {
        stroke-dasharray: 0 0 5.55 2.4;
      }

      .cls-1, .cls-17, .cls-18, .cls-26 {
        stroke: #000;
      }

      .cls-28 {
        clip-path: url(#clippath-73);
      }

      .cls-29 {
        clip-path: url(#clippath-72);
      }

      .cls-30 {
        clip-path: url(#clippath-62);
      }

      .cls-31 {
        clip-path: url(#clippath-45);
      }

      .cls-32 {
        clip-path: url(#clippath-63);
      }

      .cls-33 {
        clip-path: url(#clippath-20);
      }

      .cls-34 {
        clip-path: url(#clippath-11);
      }

      .cls-35 {
        clip-path: url(#clippath-16);
      }

      .cls-2, .cls-7, .cls-12, .cls-17, .cls-20, .cls-21, .cls-23, .cls-27 {
        stroke-miterlimit: 10;
      }

      .cls-2, .cls-7, .cls-19, .cls-25 {
        stroke: #bf00bf;
      }

      .cls-36 {
        clip-path: url(#clippath-59);
      }

      .cls-37 {
        clip-path: url(#clippath-78);
      }

      .cls-38 {
        clip-path: url(#clippath-33);
      }

      .cls-39 {
        fill: #000;
      }

      .cls-39, .cls-6, .cls-40, .cls-41 {
        stroke-width: 0px;
      }

      .cls-42 {
        clip-path: url(#clippath-64);
      }

      .cls-43 {
        clip-path: url(#clippath-47);
      }

      .cls-44 {
        clip-path: url(#clippath-77);
      }

      .cls-3, .cls-4, .cls-5, .cls-15 {
        stroke: #bfbf00;
      }

      .cls-45 {
        clip-path: url(#clippath-41);
      }

      .cls-46 {
        clip-path: url(#clippath-32);
      }

      .cls-47 {
        clip-path: url(#clippath-83);
      }

      .cls-48 {
        clip-path: url(#clippath-2);
      }

      .cls-49 {
        clip-path: url(#clippath-13);
      }

      .cls-50 {
        clip-path: url(#clippath-37);
      }

      .cls-51 {
        clip-path: url(#clippath-46);
      }

      .cls-52 {
        clip-path: url(#clippath-25);
      }

      .cls-53 {
        clip-path: url(#clippath-15);
      }

      .cls-54 {
        clip-path: url(#clippath-6);
      }

      .cls-55 {
        clip-path: url(#clippath-76);
      }

      .cls-56 {
        clip-path: url(#clippath-40);
      }

      .cls-57 {
        clip-path: url(#clippath-26);
      }

      .cls-58 {
        clip-path: url(#clippath-81);
      }

      .cls-5, .cls-7, .cls-16, .cls-23, .cls-27 {
        stroke-width: 2px;
      }

      .cls-59 {
        clip-path: url(#clippath-75);
      }

      .cls-60 {
        clip-path: url(#clippath-7);
      }

      .cls-61 {
        clip-path: url(#clippath-21);
      }

      .cls-8, .cls-13, .cls-21, .cls-23 {
        stroke: red;
      }

      .cls-62 {
        clip-path: url(#clippath-34);
      }

      .cls-63 {
        clip-path: url(#clippath-57);
      }

      .cls-64 {
        clip-path: url(#clippath-1);
      }

      .cls-65 {
        clip-path: url(#clippath-4);
      }

      .cls-66 {
        clip-path: url(#clippath-38);
      }

      .cls-9, .cls-10, .cls-11, .cls-16 {
        stroke: green;
      }

      .cls-9, .cls-13, .cls-15, .cls-17, .cls-18, .cls-19, .cls-24 {
        stroke-linecap: square;
      }

      .cls-67 {
        clip-path: url(#clippath-36);
      }

      .cls-68 {
        clip-path: url(#clippath-27);
      }

      .cls-69 {
        clip-path: url(#clippath-60);
      }

      .cls-40, .cls-12 {
        opacity: .8;
      }

      .cls-40, .cls-41 {
        fill: #fff;
      }

      .cls-70 {
        clip-path: url(#clippath-44);
      }

      .cls-71 {
        clip-path: url(#clippath-12);
      }

      .cls-72 {
        clip-path: url(#clippath-80);
      }

      .cls-12 {
        stroke: #ccc;
      }

      .cls-73 {
        clip-path: url(#clippath-24);
      }

      .cls-74 {
        clip-path: url(#clippath-30);
      }

      .cls-14, .cls-20, .cls-24, .cls-27 {
        stroke: blue;
      }

      .cls-75 {
        clip-path: url(#clippath-79);
      }

      .cls-76 {
        clip-path: url(#clippath-22);
      }

      .cls-77 {
        clip-path: url(#clippath-9);
      }

      .cls-78 {
        clip-path: url(#clippath-82);
      }

      .cls-79 {
        clip-path: url(#clippath-52);
      }

      .cls-80 {
        clip-path: url(#clippath);
      }

      .cls-81 {
        clip-path: url(#clippath-50);
      }

      .cls-82 {
        clip-path: url(#clippath-48);
      }

      .cls-83 {
        clip-path: url(#clippath-61);
      }

      .cls-84 {
        clip-path: url(#clippath-39);
      }

      .cls-85 {
        clip-path: url(#clippath-19);
      }

      .cls-86 {
        clip-path: url(#clippath-31);
      }

      .cls-87 {
        clip-path: url(#clippath-54);
      }

      .cls-88 {
        clip-path: url(#clippath-3);
      }

      .cls-17, .cls-22, .cls-26 {
        stroke-width: .8px;
      }

      .cls-89 {
        clip-path: url(#clippath-43);
      }

      .cls-90 {
        clip-path: url(#clippath-70);
      }

      .cls-91 {
        clip-path: url(#clippath-8);
      }

      .cls-92 {
        clip-path: url(#clippath-55);
      }

      .cls-93 {
        clip-path: url(#clippath-69);
      }

      .cls-94 {
        clip-path: url(#clippath-29);
      }

      .cls-95 {
        clip-path: url(#clippath-18);
      }

      .cls-96 {
        clip-path: url(#clippath-14);
      }

      .cls-97 {
        clip-path: url(#clippath-17);
      }

      .cls-98 {
        clip-path: url(#clippath-5);
      }

      .cls-99 {
        clip-path: url(#clippath-58);
      }

      .cls-100 {
        clip-path: url(#clippath-84);
      }

      .cls-22 {
        opacity: .5;
        stroke: #b0b0b0;
        stroke-dasharray: 0 0 2.96 1.28;
      }

      .cls-101 {
        clip-path: url(#clippath-42);
      }

      .cls-102 {
        clip-path: url(#clippath-65);
      }

      .cls-103 {
        clip-path: url(#clippath-10);
      }

      .cls-104 {
        clip-path: url(#clippath-23);
      }

      .cls-105 {
        clip-path: url(#clippath-74);
      }

      .cls-106 {
        clip-path: url(#clippath-56);
      }

      .cls-107 {
        clip-path: url(#clippath-53);
      }

      .cls-108 {
        clip-path: url(#clippath-49);
      }

      .cls-109 {
        clip-path: url(#clippath-67);
      }

      .cls-110 {
        clip-path: url(#clippath-51);
      }

      .cls-111 {
        clip-path: url(#clippath-28);
      }

      .cls-112 {
        clip-path: url(#clippath-71);
      }

      .cls-113 {
        clip-path: url(#clippath-68);
      }

      .cls-114 {
        clip-path: url(#clippath-35);
      }

      .cls-115 {
        clip-path: url(#clippath-66);
      }
    </style>
    <clipPath id="clippath">
      <rect class="cls-6" x="48.72" y="42.28" width="372.19" height="277.2"/>
    </clipPath>
    <clipPath id="clippath-1">
      <rect class="cls-6" x="48.72" y="42.28" width="372.19" height="277.2"/>
    </clipPath>
    <clipPath id="clippath-2">
      <rect class="cls-6" x="48.72" y="42.28" width="372.19" height="277.2"/>
    </clipPath>
    <clipPath id="clippath-3">
      <rect class="cls-6" x="48.72" y="42.28" width="372.19" height="277.2"/>
    </clipPath>
    <clipPath id="clippath-4">
      <rect class="cls-6" x="48.72" y="42.28" width="372.19" height="277.2"/>
    </clipPath>
    <clipPath id="clippath-5">
      <rect class="cls-6" x="48.72" y="42.28" width="372.19" height="277.2"/>
    </clipPath>
    <clipPath id="clippath-6">
      <rect class="cls-6" x="297.37" y="333.05" width="42.22" height="25.44"/>
    </clipPath>
    <clipPath id="clippath-7">
      <rect class="cls-6" x="48.72" y="42.28" width="372.19" height="277.2"/>
    </clipPath>
    <clipPath id="clippath-8">
      <rect class="cls-6" x="48.72" y="42.28" width="372.19" height="277.2"/>
    </clipPath>
    <clipPath id="clippath-9">
      <rect class="cls-6" x="48.72" y="42.28" width="372.19" height="277.2"/>
    </clipPath>
    <clipPath id="clippath-10">
      <rect class="cls-6" x="48.72" y="42.28" width="372.19" height="277.2"/>
    </clipPath>
    <clipPath id="clippath-11">
      <rect class="cls-6" x="48.72" y="42.28" width="372.19" height="277.2"/>
    </clipPath>
    <clipPath id="clippath-12">
      <rect class="cls-6" x="48.72" y="42.28" width="372.19" height="277.2"/>
    </clipPath>
    <clipPath id="clippath-13">
      <rect class="cls-6" x="48.72" y="42.28" width="372.19" height="277.2"/>
    </clipPath>
    <clipPath id="clippath-14">
      <rect class="cls-6" x="48.72" y="42.28" width="372.19" height="277.2"/>
    </clipPath>
    <clipPath id="clippath-15">
      <rect class="cls-6" x="48.72" y="42.28" width="372.19" height="277.2"/>
    </clipPath>
    <clipPath id="clippath-16">
      <rect class="cls-6" x="57.63" y="298.88" width="16" height="16"/>
    </clipPath>
    <clipPath id="clippath-17">
      <rect class="cls-6" x="125.3" y="298.8" width="16" height="16"/>
    </clipPath>
    <clipPath id="clippath-18">
      <rect class="cls-6" x="192.97" y="298.57" width="16" height="16"/>
    </clipPath>
    <clipPath id="clippath-19">
      <rect class="cls-6" x="260.64" y="297.7" width="16" height="16"/>
    </clipPath>
    <clipPath id="clippath-20">
      <rect class="cls-6" x="328.31" y="295.5" width="16" height="16"/>
    </clipPath>
    <clipPath id="clippath-21">
      <rect class="cls-6" x="395.98" y="292.04" width="16" height="16"/>
    </clipPath>
    <clipPath id="clippath-22">
      <rect class="cls-6" x="48.72" y="42.28" width="372.19" height="277.2"/>
    </clipPath>
    <clipPath id="clippath-23">
      <rect class="cls-6" x="57.63" y="298.88" width="16" height="16"/>
    </clipPath>
    <clipPath id="clippath-24">
      <rect class="cls-6" x="125.3" y="298.54" width="16" height="16"/>
    </clipPath>
    <clipPath id="clippath-25">
      <rect class="cls-6" x="192.97" y="294.73" width="16" height="16"/>
    </clipPath>
    <clipPath id="clippath-26">
      <rect class="cls-6" x="260.64" y="285.05" width="16" height="16"/>
    </clipPath>
    <clipPath id="clippath-27">
      <rect class="cls-6" x="328.31" y="273.54" width="16" height="16"/>
    </clipPath>
    <clipPath id="clippath-28">
      <rect class="cls-6" x="395.98" y="261.88" width="16" height="16"/>
    </clipPath>
    <clipPath id="clippath-29">
      <rect class="cls-6" x="48.72" y="42.28" width="372.19" height="277.2"/>
    </clipPath>
    <clipPath id="clippath-30">
      <rect class="cls-6" x="57.63" y="298.88" width="16" height="16"/>
    </clipPath>
    <clipPath id="clippath-31">
      <rect class="cls-6" x="125.3" y="231.35" width="16" height="16"/>
    </clipPath>
    <clipPath id="clippath-32">
      <rect class="cls-6" x="192.97" y="175.66" width="16" height="16"/>
    </clipPath>
    <clipPath id="clippath-33">
      <rect class="cls-6" x="260.64" y="137.01" width="16" height="16"/>
    </clipPath>
    <clipPath id="clippath-34">
      <rect class="cls-6" x="328.31" y="95.09" width="16" height="16"/>
    </clipPath>
    <clipPath id="clippath-35">
      <rect class="cls-6" x="395.98" y="60.51" width="16" height="16"/>
    </clipPath>
    <clipPath id="clippath-36">
      <rect class="cls-6" x="48.72" y="42.28" width="372.19" height="277.2"/>
    </clipPath>
    <clipPath id="clippath-37">
      <rect class="cls-6" x="58.09" y="297.64" width="15.09" height="18.49"/>
    </clipPath>
    <clipPath id="clippath-38">
      <rect class="cls-6" x="125.76" y="238.51" width="15.09" height="18.49"/>
    </clipPath>
    <clipPath id="clippath-39">
      <rect class="cls-6" x="193.43" y="211.58" width="15.09" height="18.49"/>
    </clipPath>
    <clipPath id="clippath-40">
      <rect class="cls-6" x="261.1" y="196.33" width="15.09" height="18.49"/>
    </clipPath>
    <clipPath id="clippath-41">
      <rect class="cls-6" x="328.77" y="183.19" width="15.09" height="18.49"/>
    </clipPath>
    <clipPath id="clippath-42">
      <rect class="cls-6" x="396.44" y="168.75" width="15.09" height="18.49"/>
    </clipPath>
    <clipPath id="clippath-43">
      <rect class="cls-6" x="48.72" y="42.28" width="372.19" height="277.2"/>
    </clipPath>
    <clipPath id="clippath-44">
      <rect class="cls-6" x="57.63" y="298.88" width="16" height="16"/>
    </clipPath>
    <clipPath id="clippath-45">
      <rect class="cls-6" x="125.3" y="250.62" width="16" height="16"/>
    </clipPath>
    <clipPath id="clippath-46">
      <rect class="cls-6" x="192.97" y="226.55" width="16" height="16"/>
    </clipPath>
    <clipPath id="clippath-47">
      <rect class="cls-6" x="260.64" y="210.16" width="16" height="16"/>
    </clipPath>
    <clipPath id="clippath-48">
      <rect class="cls-6" x="328.31" y="199.21" width="16" height="16"/>
    </clipPath>
    <clipPath id="clippath-49">
      <rect class="cls-6" x="395.98" y="187.87" width="16" height="16"/>
    </clipPath>
    <clipPath id="clippath-50">
      <rect class="cls-6" x="48.72" y="42.28" width="372.19" height="277.2"/>
    </clipPath>
    <clipPath id="clippath-51">
      <rect class="cls-6" x="57.63" y="232.57" width="16" height="16"/>
    </clipPath>
    <clipPath id="clippath-52">
      <rect class="cls-6" x="125.3" y="258.3" width="16" height="16"/>
    </clipPath>
    <clipPath id="clippath-53">
      <rect class="cls-6" x="192.97" y="266.24" width="16" height="16"/>
    </clipPath>
    <clipPath id="clippath-54">
      <rect class="cls-6" x="260.64" y="270" width="16" height="16"/>
    </clipPath>
    <clipPath id="clippath-55">
      <rect class="cls-6" x="328.31" y="271.66" width="16" height="16"/>
    </clipPath>
    <clipPath id="clippath-56">
      <rect class="cls-6" x="395.98" y="271.57" width="16" height="16"/>
    </clipPath>
    <clipPath id="clippath-57">
      <rect class="cls-6" x="48.72" y="42.28" width="372.19" height="277.2"/>
    </clipPath>
    <clipPath id="clippath-58">
      <rect class="cls-6" x="57.63" y="234.95" width="16" height="16"/>
    </clipPath>
    <clipPath id="clippath-59">
      <rect class="cls-6" x="125.3" y="261.1" width="16" height="16"/>
    </clipPath>
    <clipPath id="clippath-60">
      <rect class="cls-6" x="192.97" y="265.93" width="16" height="16"/>
    </clipPath>
    <clipPath id="clippath-61">
      <rect class="cls-6" x="260.64" y="262.87" width="16" height="16"/>
    </clipPath>
    <clipPath id="clippath-62">
      <rect class="cls-6" x="328.31" y="257.08" width="16" height="16"/>
    </clipPath>
    <clipPath id="clippath-63">
      <rect class="cls-6" x="395.98" y="249.71" width="16" height="16"/>
    </clipPath>
    <clipPath id="clippath-64">
      <rect class="cls-6" x="48.72" y="42.28" width="372.19" height="277.2"/>
    </clipPath>
    <clipPath id="clippath-65">
      <rect class="cls-6" x="57.63" y="213.94" width="16" height="16"/>
    </clipPath>
    <clipPath id="clippath-66">
      <rect class="cls-6" x="125.3" y="185.24" width="16" height="16"/>
    </clipPath>
    <clipPath id="clippath-67">
      <rect class="cls-6" x="192.97" y="143.26" width="16" height="16"/>
    </clipPath>
    <clipPath id="clippath-68">
      <rect class="cls-6" x="260.64" y="112.98" width="16" height="16"/>
    </clipPath>
    <clipPath id="clippath-69">
      <rect class="cls-6" x="328.31" y="77.45" width="16" height="16"/>
    </clipPath>
    <clipPath id="clippath-70">
      <rect class="cls-6" x="395.98" y="46.88" width="16" height="16"/>
    </clipPath>
    <clipPath id="clippath-71">
      <rect class="cls-6" x="48.72" y="42.28" width="372.19" height="277.2"/>
    </clipPath>
    <clipPath id="clippath-72">
      <rect class="cls-6" x="58.09" y="204.35" width="15.09" height="18.49"/>
    </clipPath>
    <clipPath id="clippath-73">
      <rect class="cls-6" x="125.76" y="179.43" width="15.09" height="18.49"/>
    </clipPath>
    <clipPath id="clippath-74">
      <rect class="cls-6" x="193.43" y="166.04" width="15.09" height="18.49"/>
    </clipPath>
    <clipPath id="clippath-75">
      <rect class="cls-6" x="261.1" y="158.72" width="15.09" height="18.49"/>
    </clipPath>
    <clipPath id="clippath-76">
      <rect class="cls-6" x="328.77" y="152.32" width="15.09" height="18.49"/>
    </clipPath>
    <clipPath id="clippath-77">
      <rect class="cls-6" x="396.44" y="143.48" width="15.09" height="18.49"/>
    </clipPath>
    <clipPath id="clippath-78">
      <rect class="cls-6" x="48.72" y="42.28" width="372.19" height="277.2"/>
    </clipPath>
    <clipPath id="clippath-79">
      <rect class="cls-6" x="57.63" y="206.16" width="16" height="16"/>
    </clipPath>
    <clipPath id="clippath-80">
      <rect class="cls-6" x="125.3" y="194.13" width="16" height="16"/>
    </clipPath>
    <clipPath id="clippath-81">
      <rect class="cls-6" x="192.97" y="185.21" width="16" height="16"/>
    </clipPath>
    <clipPath id="clippath-82">
      <rect class="cls-6" x="260.64" y="178.25" width="16" height="16"/>
    </clipPath>
    <clipPath id="clippath-83">
      <rect class="cls-6" x="328.31" y="174.87" width="16" height="16"/>
    </clipPath>
    <clipPath id="clippath-84">
      <rect class="cls-6" x="395.98" y="168.97" width="16" height="16"/>
    </clipPath>
  </defs>
  <rect class="cls-41" width="514.65" height="363.35"/>
  <rect class="cls-41" x="48.72" y="42.28" width="372.19" height="277.2"/>
  <g class="cls-80">
    <line class="cls-22" x1="65.63" y1="319.48" x2="65.63" y2="42.28"/>
  </g>
  <line class="cls-39" x1="65.63" y1="319.48" x2="65.63" y2="322.98"/>
  <line class="cls-26" x1="65.63" y1="319.48" x2="65.63" y2="322.98"/>
  <path class="cls-39" d="M65.63,326.65c.81,0,1.43.33,1.87.97.43.65.65,1.59.65,2.81s-.22,2.17-.65,2.81c-.44.64-1.06.96-1.88.96s-1.44-.32-1.87-.96c-.43-.64-.64-1.58-.64-2.81s.21-2.16.64-2.81c.43-.64,1.06-.97,1.88-.97ZM65.63,327.43c-.51,0-.89.25-1.15.75s-.38,1.25-.38,2.25.12,1.75.38,2.25.64.75,1.15.75.89-.25,1.15-.75c.25-.5.38-1.25.38-2.25s-.13-1.75-.38-2.25c-.26-.5-.64-.75-1.15-.75Z"/>
  <g class="cls-64">
    <line class="cls-22" x1="133.3" y1="319.48" x2="133.3" y2="42.28"/>
  </g>
  <line class="cls-39" x1="133.3" y1="319.48" x2="133.3" y2="322.98"/>
  <line class="cls-26" x1="133.3" y1="319.48" x2="133.3" y2="322.98"/>
  <polygon class="cls-39" points="131.36 333.24 132.97 333.24 132.97 327.68 131.22 328.03 131.22 327.13 132.96 326.78 133.95 326.78 133.95 333.24 135.56 333.24 135.56 334.07 131.36 334.07 131.36 333.24"/>
  <g class="cls-48">
    <line class="cls-22" x1="200.97" y1="319.48" x2="200.97" y2="42.28"/>
  </g>
  <line class="cls-39" x1="200.97" y1="319.48" x2="200.97" y2="322.98"/>
  <line class="cls-26" x1="200.97" y1="319.48" x2="200.97" y2="322.98"/>
  <path class="cls-39" d="M199.71,333.24h3.44v.83h-4.63v-.83c.37-.38.88-.9,1.53-1.56.64-.65,1.05-1.07,1.22-1.26.32-.35.54-.65.66-.9.12-.24.19-.49.19-.73,0-.38-.14-.7-.41-.94-.27-.24-.62-.37-1.06-.37-.31,0-.64.06-.98.16-.34.11-.71.27-1.1.49v-1c.4-.16.77-.28,1.11-.36.34-.08.66-.12.95-.12.75,0,1.35.19,1.8.57.45.38.68.88.68,1.51,0,.3-.06.59-.17.85-.11.27-.31.59-.61.95-.08.1-.34.37-.78.82-.44.45-1.05,1.08-1.84,1.89Z"/>
  <g class="cls-88">
    <line class="cls-22" x1="268.64" y1="319.48" x2="268.64" y2="42.28"/>
  </g>
  <line class="cls-39" x1="268.64" y1="319.48" x2="268.64" y2="322.98"/>
  <line class="cls-26" x1="268.64" y1="319.48" x2="268.64" y2="322.98"/>
  <path class="cls-39" d="M269.52,330.14c.47.1.84.31,1.1.63s.4.72.4,1.18c0,.72-.25,1.28-.74,1.67-.5.39-1.2.58-2.11.58-.31,0-.63-.03-.95-.09-.32-.05-.66-.14-1-.26v-.95c.27.16.57.28.9.36.32.08.66.12,1.02.12.62,0,1.09-.12,1.41-.36.32-.24.49-.6.49-1.07,0-.42-.15-.76-.45-1-.3-.24-.72-.37-1.26-.37h-.85v-.81h.89c.48,0,.85-.09,1.11-.29.26-.19.39-.47.39-.84s-.14-.66-.4-.86c-.27-.2-.65-.3-1.14-.3-.27,0-.56.03-.87.09s-.65.15-1.02.27v-.88c.37-.1.72-.18,1.05-.23.32-.05.63-.08.93-.08.74,0,1.33.17,1.77.51s.66.8.66,1.38c0,.4-.12.74-.35,1.02-.23.28-.56.48-.98.58Z"/>
  <g class="cls-65">
    <line class="cls-22" x1="336.31" y1="319.48" x2="336.31" y2="42.28"/>
  </g>
  <line class="cls-39" x1="336.31" y1="319.48" x2="336.31" y2="322.98"/>
  <line class="cls-26" x1="336.31" y1="319.48" x2="336.31" y2="322.98"/>
  <path class="cls-39" d="M336.65,326.78h1.24v4.75h1.04v.82h-1.04v1.72h-.98v-1.72h-3.29v-.95l3.03-4.62ZM336.91,327.64l-2.49,3.89h2.49v-3.89Z"/>
  <g class="cls-98">
    <line class="cls-22" x1="403.98" y1="319.48" x2="403.98" y2="42.28"/>
  </g>
  <line class="cls-39" x1="403.98" y1="319.48" x2="403.98" y2="322.98"/>
  <line class="cls-26" x1="403.98" y1="319.48" x2="403.98" y2="322.98"/>
  <path class="cls-39" d="M401.88,326.78h3.87v.83h-2.97v1.79c.14-.05.29-.09.43-.11.14-.02.29-.04.43-.04.81,0,1.45.23,1.93.67.48.45.72,1.05.72,1.81s-.25,1.4-.74,1.83-1.18.64-2.06.64c-.31,0-.62-.03-.94-.07-.32-.05-.64-.12-.98-.23v-.99c.29.16.59.28.91.36.31.08.64.11.99.11.56,0,1.01-.14,1.34-.44.32-.3.49-.7.49-1.21s-.17-.9-.49-1.2c-.33-.3-.78-.45-1.34-.45-.26,0-.53.03-.79.09-.26.06-.53.15-.8.27v-3.66Z"/>
  <path class="cls-39" d="M142.1,340.61h1.68l4.17,10.94h-1.54l-.99-2.81h-4.93l-.99,2.81h-1.56l4.17-10.94ZM142.94,342.06l-2.01,5.44h4.02l-2.01-5.44Z"/>
  <path class="cls-39" d="M150.29,347.45c0,.99.19,1.77.6,2.34.4.57.96.84,1.68.84s1.27-.27,1.7-.84c.4-.57.61-1.35.61-2.34s-.21-1.75-.61-2.32c-.42-.57-.98-.86-1.7-.86s-1.27.28-1.68.86c-.41.57-.6,1.33-.6,2.32ZM154.88,344.58v-4.44h1.35v11.4h-1.35v-1.23c-.29.5-.65.86-1.08,1.08-.43.22-.94.34-1.54.34-.99,0-1.8-.39-2.43-1.17-.63-.78-.93-1.83-.93-3.12s.3-2.32.93-3.12c.63-.78,1.44-1.18,2.43-1.18.6,0,1.11.12,1.54.36s.79.6,1.08,1.08Z"/>
  <path class="cls-39" d="M159.81,347.45c0,.99.19,1.77.6,2.34.4.57.96.84,1.68.84s1.27-.27,1.7-.84c.4-.57.61-1.35.61-2.34s-.21-1.75-.61-2.32c-.42-.57-.98-.86-1.7-.86s-1.27.28-1.68.86c-.41.57-.6,1.33-.6,2.32ZM164.4,344.58v-4.44h1.35v11.4h-1.35v-1.23c-.29.5-.65.86-1.08,1.08-.43.22-.94.34-1.54.34-.99,0-1.8-.39-2.43-1.17-.63-.78-.93-1.83-.93-3.12s.3-2.32.93-3.12c.63-.78,1.44-1.18,2.43-1.18.6,0,1.11.12,1.54.36s.79.6,1.08,1.08Z"/>
  <path class="cls-39" d="M174.19,346.71c-.01-.73-.23-1.32-.62-1.77-.4-.44-.94-.66-1.6-.66-.75,0-1.35.22-1.8.64s-.72,1.02-.78,1.78h4.8ZM175.54,347.1v.66h-6.19c.06.93.33,1.65.84,2.13.5.48,1.18.72,2.09.72.51,0,1.02-.06,1.5-.18.48-.12.97-.32,1.46-.59v1.27c-.48.21-.98.38-1.49.47-.51.09-1.04.15-1.54.15-1.32,0-2.36-.38-3.12-1.12s-1.14-1.78-1.14-3.09.36-2.4,1.08-3.2c.72-.78,1.71-1.18,2.94-1.18,1.11,0,1.98.36,2.62,1.07.63.72.96,1.68.96,2.9Z"/>
  <path class="cls-39" d="M178.56,347.45c0,.99.19,1.77.6,2.34.4.57.96.84,1.68.84s1.27-.27,1.7-.84c.4-.57.61-1.35.61-2.34s-.21-1.75-.61-2.32c-.42-.57-.98-.86-1.7-.86s-1.27.28-1.68.86c-.41.57-.6,1.33-.6,2.32ZM183.15,344.58v-4.44h1.35v11.4h-1.35v-1.23c-.29.5-.65.86-1.08,1.08-.43.22-.94.34-1.54.34-.99,0-1.8-.39-2.43-1.17-.63-.78-.93-1.83-.93-3.12s.3-2.32.93-3.12c.63-.78,1.44-1.18,2.43-1.18.6,0,1.11.12,1.54.36s.79.6,1.08,1.08Z"/>
  <path class="cls-39" d="M197.95,343.65v1.26c-.39-.21-.77-.36-1.16-.47s-.76-.16-1.15-.16c-.87,0-1.56.28-2.04.84-.48.55-.72,1.33-.72,2.32s.24,1.78.72,2.34,1.17.82,2.04.82c.39,0,.76-.05,1.15-.15.39-.11.76-.27,1.16-.48v1.25c-.39.18-.78.31-1.17.39-.4.07-.84.12-1.29.12-1.23,0-2.22-.38-2.94-1.15-.74-.77-1.1-1.82-1.1-3.14s.36-2.39,1.1-3.15,1.74-1.16,3.03-1.16c.42,0,.82.05,1.21.14s.78.21,1.16.38Z"/>
  <path class="cls-39" d="M206.71,346.86v4.68h-1.35v-1.24c-.32.51-.71.87-1.15,1.1-.45.22-1.02.34-1.68.34-.84,0-1.51-.22-2.01-.69-.49-.47-.74-1.1-.74-1.89,0-.91.3-1.61.93-2.09.62-.47,1.53-.7,2.76-.7h1.89v-.14c0-.61-.21-1.09-.61-1.44-.4-.33-.98-.51-1.71-.51-.48,0-.93.06-1.38.18-.45.12-.87.29-1.27.5v-1.25c.48-.18.96-.33,1.43-.42s.91-.15,1.36-.15c1.19,0,2.07.32,2.66.93.58.61.88,1.55.88,2.79ZM204.02,347.42c-1.1,0-1.85.13-2.26.38-.42.26-.63.68-.63,1.27,0,.48.15.87.46,1.14.32.28.75.42,1.29.42.75,0,1.35-.26,1.8-.8.45-.52.68-1.23.68-2.11v-.3h-1.33Z"/>
  <path class="cls-39" d="M215.39,343.65v1.26c-.39-.21-.77-.36-1.16-.47s-.76-.16-1.15-.16c-.87,0-1.56.28-2.04.84-.48.55-.72,1.33-.72,2.32s.24,1.78.72,2.34,1.17.82,2.04.82c.39,0,.76-.05,1.15-.15.39-.11.76-.27,1.16-.48v1.25c-.39.18-.78.31-1.17.39-.4.07-.84.12-1.29.12-1.23,0-2.22-.38-2.94-1.15-.74-.77-1.1-1.82-1.1-3.14s.36-2.39,1.1-3.15,1.74-1.16,3.03-1.16c.42,0,.82.05,1.21.14s.78.21,1.16.38Z"/>
  <path class="cls-39" d="M224.55,346.59v4.95h-1.35v-4.9c0-.78-.16-1.35-.46-1.74-.3-.39-.75-.58-1.35-.58-.74,0-1.31.24-1.73.7s-.63,1.09-.63,1.89v4.63h-1.35v-11.4h1.35v4.47c.32-.48.69-.85,1.14-1.09.43-.24.95-.38,1.51-.38.93,0,1.65.3,2.13.89s.74,1.44.74,2.57Z"/>
  <path class="cls-39" d="M232.9,346.71c-.01-.73-.23-1.32-.62-1.77-.4-.44-.94-.66-1.6-.66-.75,0-1.35.22-1.8.64s-.72,1.02-.78,1.78h4.8ZM234.25,347.1v.66h-6.19c.06.93.33,1.65.84,2.13.5.48,1.18.72,2.09.72.51,0,1.02-.06,1.5-.18.48-.12.97-.32,1.46-.59v1.27c-.48.21-.98.38-1.49.47-.51.09-1.04.15-1.54.15-1.32,0-2.36-.38-3.12-1.12s-1.14-1.78-1.14-3.09.36-2.4,1.08-3.2c.72-.78,1.71-1.18,2.94-1.18,1.11,0,1.98.36,2.62,1.07.63.72.96,1.68.96,2.9Z"/>
  <path class="cls-39" d="M247.14,343.65v1.26c-.39-.21-.77-.36-1.16-.47s-.76-.16-1.15-.16c-.87,0-1.56.28-2.04.84-.48.55-.72,1.33-.72,2.32s.24,1.78.72,2.34,1.17.82,2.04.82c.39,0,.76-.05,1.15-.15.39-.11.76-.27,1.16-.48v1.25c-.39.18-.78.31-1.17.39-.4.07-.84.12-1.29.12-1.23,0-2.22-.38-2.94-1.15-.74-.77-1.1-1.82-1.1-3.14s.36-2.39,1.1-3.15,1.74-1.16,3.03-1.16c.42,0,.82.05,1.21.14s.78.21,1.16.38Z"/>
  <path class="cls-39" d="M255.9,346.86v4.68h-1.35v-1.24c-.32.51-.71.87-1.15,1.1-.45.22-1.02.34-1.68.34-.84,0-1.51-.22-2.01-.69-.49-.47-.74-1.1-.74-1.89,0-.91.3-1.61.93-2.09.62-.47,1.53-.7,2.76-.7h1.89v-.14c0-.61-.21-1.09-.61-1.44-.4-.33-.98-.51-1.71-.51-.48,0-.93.06-1.38.18-.45.12-.87.29-1.27.5v-1.25c.48-.18.96-.33,1.43-.42s.91-.15,1.36-.15c1.19,0,2.07.32,2.66.93.58.61.88,1.55.88,2.79ZM253.21,347.42c-1.1,0-1.85.13-2.26.38-.42.26-.63.68-.63,1.27,0,.48.15.87.46,1.14.32.28.75.42,1.29.42.75,0,1.35-.26,1.8-.8.45-.52.68-1.23.68-2.11v-.3h-1.33Z"/>
  <path class="cls-39" d="M264.56,347.45c0-.99-.21-1.75-.61-2.32-.42-.57-.98-.86-1.68-.86s-1.28.28-1.68.86c-.42.57-.61,1.33-.61,2.32s.2,1.77.61,2.34c.4.57.96.84,1.68.84s1.26-.27,1.68-.84c.4-.57.61-1.35.61-2.34ZM259.97,350.31v4.34h-1.35v-11.31h1.35v1.24c.27-.48.63-.84,1.07-1.08s.96-.36,1.56-.36c.99,0,1.8.41,2.43,1.18.62.8.93,1.83.93,3.12s-.32,2.34-.93,3.12c-.63.78-1.44,1.17-2.43,1.17-.6,0-1.12-.12-1.56-.34-.43-.23-.8-.59-1.07-1.08Z"/>
  <path class="cls-39" d="M274.61,346.86v4.68h-1.35v-1.24c-.32.51-.71.87-1.15,1.1-.45.22-1.02.34-1.68.34-.84,0-1.51-.22-2.01-.69s-.74-1.1-.74-1.89c0-.91.3-1.61.93-2.09.62-.47,1.53-.7,2.76-.7h1.89v-.14c0-.61-.21-1.09-.62-1.44-.4-.33-.97-.51-1.71-.51-.48,0-.93.06-1.38.18-.45.12-.87.29-1.27.5v-1.25c.48-.18.96-.33,1.42-.42.47-.09.92-.15,1.37-.15,1.18,0,2.07.32,2.65.93.58.61.88,1.55.88,2.79ZM271.93,347.42c-1.1,0-1.85.13-2.26.38-.42.26-.63.68-.63,1.27,0,.48.15.87.46,1.14.32.28.75.42,1.29.42.75,0,1.35-.26,1.8-.8.45-.52.68-1.23.68-2.11v-.3h-1.34Z"/>
  <path class="cls-39" d="M283.29,343.65v1.26c-.39-.21-.77-.36-1.15-.47-.39-.1-.77-.16-1.15-.16-.87,0-1.56.28-2.04.84-.48.55-.72,1.33-.72,2.32s.24,1.78.72,2.34,1.17.82,2.04.82c.39,0,.76-.05,1.15-.15.39-.11.76-.27,1.15-.48v1.25c-.39.18-.78.31-1.17.39-.4.07-.84.12-1.29.12-1.23,0-2.22-.38-2.94-1.15-.74-.77-1.1-1.82-1.1-3.14s.36-2.39,1.1-3.15c.73-.76,1.74-1.16,3.03-1.16.42,0,.82.05,1.21.14.39.09.78.21,1.15.38Z"/>
  <path class="cls-39" d="M285.63,340.14h1.35v1.71h-1.35v-1.71ZM285.63,343.34h1.35v8.2h-1.35v-8.2Z"/>
  <path class="cls-39" d="M291.13,341.01v2.33h2.77v1.05h-2.77v4.45c0,.67.09,1.11.27,1.29.18.19.55.28,1.12.28h1.38v1.12h-1.38c-1.05,0-1.77-.19-2.16-.59-.39-.39-.59-1.1-.59-2.11v-4.45h-.99v-1.05h.99v-2.33h1.35Z"/>
  <path class="cls-39" d="M299.1,352.29c-.39.96-.76,1.61-1.12,1.9-.36.3-.84.45-1.44.45h-1.08v-1.12h.8c.36,0,.64-.09.85-.27.21-.18.43-.59.69-1.24l.24-.6-3.32-8.07h1.42l2.57,6.42,2.57-6.42h1.42l-3.6,8.95Z"/>
  <polygon class="cls-39" points="304.9 349.68 306.45 349.68 306.45 350.94 305.25 353.27 304.3 353.27 304.9 350.94 304.9 349.68"/>
  <polygon class="cls-39" points="325.46 340.61 326.95 340.61 325.07 350.31 330.4 350.31 330.16 351.54 323.35 351.54 325.46 340.61"/>
  <g class="cls-54">
    <path class="cls-39" d="M312.8,351.54l4.17-10.93h1.68l4.17,10.93h-10.02ZM317.81,342.06l-3,8.25h6l-3-8.25Z"/>
  </g>
  <g class="cls-60">
    <line class="cls-22" x1="48.72" y1="306.88" x2="420.9" y2="306.88"/>
  </g>
  <line class="cls-39" x1="48.72" y1="306.88" x2="45.22" y2="306.88"/>
  <line class="cls-26" x1="48.72" y1="306.88" x2="45.22" y2="306.88"/>
  <path class="cls-39" d="M28.9,302.68c.81,0,1.43.33,1.87.97.43.65.65,1.59.65,2.81s-.22,2.17-.65,2.81c-.44.64-1.06.96-1.88.96s-1.44-.32-1.87-.96c-.43-.64-.64-1.58-.64-2.81s.21-2.16.64-2.81c.43-.64,1.06-.97,1.88-.97ZM28.9,303.46c-.51,0-.89.25-1.15.75s-.38,1.25-.38,2.25.12,1.75.38,2.25.64.75,1.15.75.89-.25,1.15-.75c.25-.5.38-1.25.38-2.25s-.13-1.75-.38-2.25c-.26-.5-.64-.75-1.15-.75Z"/>
  <rect class="cls-39" x="33.15" y="308.86" width="1.03" height="1.24"/>
  <path class="cls-39" d="M38.44,302.68c.81,0,1.43.33,1.87.97.43.65.65,1.59.65,2.81s-.22,2.17-.65,2.81c-.44.64-1.06.96-1.88.96s-1.44-.32-1.87-.96c-.43-.64-.64-1.58-.64-2.81s.21-2.16.64-2.81c.43-.64,1.06-.97,1.88-.97ZM38.44,303.46c-.51,0-.89.25-1.15.75-.26.5-.38,1.25-.38,2.25s.12,1.75.38,2.25c.26.5.64.75,1.15.75s.89-.25,1.15-.75c.25-.5.38-1.25.38-2.25s-.13-1.75-.38-2.25c-.26-.5-.64-.75-1.15-.75Z"/>
  <g class="cls-91">
    <line class="cls-22" x1="48.72" y1="272.8" x2="420.9" y2="272.8"/>
  </g>
  <line class="cls-39" x1="48.72" y1="272.8" x2="45.22" y2="272.8"/>
  <line class="cls-26" x1="48.72" y1="272.8" x2="45.22" y2="272.8"/>
  <path class="cls-39" d="M28.9,268.6c.81,0,1.43.33,1.87.97.43.65.65,1.59.65,2.81s-.22,2.17-.65,2.81c-.44.64-1.06.96-1.88.96s-1.44-.32-1.87-.96c-.43-.64-.64-1.58-.64-2.81s.21-2.16.64-2.81c.43-.64,1.06-.97,1.88-.97ZM28.9,269.38c-.51,0-.89.25-1.15.75s-.38,1.25-.38,2.25.12,1.75.38,2.25.64.75,1.15.75.89-.25,1.15-.75c.25-.5.38-1.25.38-2.25s-.13-1.75-.38-2.25c-.26-.5-.64-.75-1.15-.75Z"/>
  <rect class="cls-39" x="33.15" y="274.78" width="1.03" height="1.24"/>
  <path class="cls-39" d="M36.68,275.19h3.44v.83h-4.63v-.83c.37-.38.88-.9,1.53-1.56.64-.65,1.05-1.07,1.22-1.26.32-.35.54-.65.66-.9.12-.24.19-.49.19-.73,0-.38-.14-.7-.41-.94-.27-.24-.62-.37-1.06-.37-.31,0-.64.06-.98.16-.34.11-.71.27-1.1.49v-1c.4-.16.77-.28,1.11-.36.34-.08.66-.12.95-.12.75,0,1.35.19,1.8.57.45.38.68.88.68,1.51,0,.3-.06.59-.17.85-.11.27-.31.59-.61.95-.08.1-.34.37-.78.82-.44.45-1.05,1.08-1.84,1.89Z"/>
  <g class="cls-77">
    <line class="cls-22" x1="48.72" y1="238.72" x2="420.9" y2="238.72"/>
  </g>
  <line class="cls-39" x1="48.72" y1="238.72" x2="45.22" y2="238.72"/>
  <line class="cls-26" x1="48.72" y1="238.72" x2="45.22" y2="238.72"/>
  <path class="cls-39" d="M28.9,234.52c.81,0,1.43.33,1.87.97.43.65.65,1.59.65,2.81s-.22,2.17-.65,2.81c-.44.64-1.06.96-1.88.96s-1.44-.32-1.87-.96c-.43-.64-.64-1.58-.64-2.81s.21-2.16.64-2.81c.43-.64,1.06-.97,1.88-.97ZM28.9,235.3c-.51,0-.89.25-1.15.75s-.38,1.25-.38,2.25.12,1.75.38,2.25.64.75,1.15.75.89-.25,1.15-.75c.25-.5.38-1.25.38-2.25s-.13-1.75-.38-2.25c-.26-.5-.64-.75-1.15-.75Z"/>
  <rect class="cls-39" x="33.15" y="240.7" width="1.03" height="1.24"/>
  <path class="cls-39" d="M38.78,234.65h1.24v4.75h1.04v.82h-1.04v1.72h-.98v-1.72h-3.29v-.95l3.03-4.62ZM39.04,235.51l-2.49,3.89h2.49v-3.89Z"/>
  <g class="cls-103">
    <line class="cls-22" x1="48.72" y1="204.65" x2="420.9" y2="204.65"/>
  </g>
  <line class="cls-39" x1="48.72" y1="204.65" x2="45.22" y2="204.65"/>
  <line class="cls-26" x1="48.72" y1="204.65" x2="45.22" y2="204.65"/>
  <path class="cls-39" d="M28.9,200.45c.81,0,1.43.33,1.87.97.43.65.65,1.59.65,2.81s-.22,2.17-.65,2.81c-.44.64-1.06.96-1.88.96s-1.44-.32-1.87-.96c-.43-.64-.64-1.58-.64-2.81s.21-2.16.64-2.81c.43-.64,1.06-.97,1.88-.97ZM28.9,201.23c-.51,0-.89.25-1.15.75s-.38,1.25-.38,2.25.12,1.75.38,2.25.64.75,1.15.75.89-.25,1.15-.75c.25-.5.38-1.25.38-2.25s-.13-1.75-.38-2.25c-.26-.5-.64-.75-1.15-.75Z"/>
  <rect class="cls-39" x="33.15" y="206.63" width="1.03" height="1.24"/>
  <path class="cls-39" d="M40.52,200.74v.9c-.25-.12-.5-.21-.75-.27-.26-.06-.51-.09-.75-.09-.66,0-1.16.22-1.5.66-.34.44-.54,1.11-.58,1.99.19-.28.43-.5.72-.65.29-.15.61-.23.96-.23.73,0,1.31.23,1.73.67.42.44.64,1.05.64,1.81s-.23,1.35-.67,1.8c-.44.45-1.03.67-1.76.67-.84,0-1.49-.32-1.93-.96-.45-.64-.67-1.58-.67-2.81,0-1.15.27-2.07.82-2.75.54-.68,1.28-1.03,2.2-1.03.24,0,.49.03.75.07.25.05.51.12.79.22ZM38.56,203.83c-.44,0-.79.16-1.05.46s-.39.72-.39,1.24.13.95.39,1.25.61.45,1.05.45.79-.15,1.05-.45c.26-.3.39-.72.39-1.25s-.13-.94-.39-1.24c-.26-.3-.61-.46-1.05-.46Z"/>
  <g class="cls-34">
    <line class="cls-22" x1="48.72" y1="170.57" x2="420.9" y2="170.57"/>
  </g>
  <line class="cls-39" x1="48.72" y1="170.57" x2="45.22" y2="170.57"/>
  <line class="cls-26" x1="48.72" y1="170.57" x2="45.22" y2="170.57"/>
  <path class="cls-39" d="M28.9,166.37c.81,0,1.43.33,1.87.97.43.65.65,1.59.65,2.81s-.22,2.17-.65,2.81c-.44.64-1.06.96-1.88.96s-1.44-.32-1.87-.96c-.43-.64-.64-1.58-.64-2.81s.21-2.16.64-2.81c.43-.64,1.06-.97,1.88-.97ZM28.9,167.15c-.51,0-.89.25-1.15.75s-.38,1.25-.38,2.25.12,1.75.38,2.25.64.75,1.15.75.89-.25,1.15-.75c.25-.5.38-1.25.38-2.25s-.13-1.75-.38-2.25c-.26-.5-.64-.75-1.15-.75Z"/>
  <rect class="cls-39" x="33.15" y="172.55" width="1.03" height="1.24"/>
  <path class="cls-39" d="M36.84,168.35c0,.38.11.68.35.89.24.21.57.31,1,.31s.75-.1.99-.31c.24-.21.36-.51.36-.89s-.12-.67-.36-.88c-.24-.21-.57-.32-.99-.32s-.76.11-1,.32c-.24.21-.35.5-.35.88ZM37.2,169.91c-.42-.1-.75-.3-.99-.59-.24-.29-.35-.64-.35-1.06,0-.58.2-1.04.62-1.38.41-.34.98-.51,1.71-.51s1.29.17,1.71.51c.41.34.62.8.62,1.38,0,.42-.12.77-.36,1.06-.24.29-.56.49-.98.59.47.11.84.33,1.11.65.26.32.4.72.4,1.18,0,.71-.22,1.25-.65,1.62-.44.38-1.06.56-1.86.56s-1.42-.18-1.85-.56c-.43-.37-.64-.91-.64-1.62,0-.46.13-.86.4-1.18.26-.32.63-.54,1.11-.65ZM38.19,170.33c-.47,0-.84.13-1.11.38s-.4.59-.4,1.03.13.79.4,1.04.64.37,1.11.37.83-.12,1.1-.38c.27-.25.41-.59.41-1.03s-.14-.78-.4-1.03c-.27-.25-.64-.38-1.11-.38Z"/>
  <g class="cls-71">
    <line class="cls-22" x1="48.72" y1="136.49" x2="420.9" y2="136.49"/>
  </g>
  <line class="cls-39" x1="48.72" y1="136.49" x2="45.22" y2="136.49"/>
  <line class="cls-26" x1="48.72" y1="136.49" x2="45.22" y2="136.49"/>
  <polygon class="cls-39" points="26.96 138.88 28.57 138.88 28.57 133.32 26.82 133.67 26.82 132.77 28.56 132.42 29.55 132.42 29.55 138.88 31.16 138.88 31.16 139.71 26.96 139.71 26.96 138.88"/>
  <rect class="cls-39" x="33.15" y="138.47" width="1.03" height="1.24"/>
  <path class="cls-39" d="M38.44,132.29c.81,0,1.43.33,1.87.97.43.65.65,1.59.65,2.81s-.22,2.17-.65,2.81c-.44.64-1.06.96-1.88.96s-1.44-.32-1.87-.96-.64-1.58-.64-2.81.21-2.16.64-2.81c.43-.64,1.06-.97,1.88-.97ZM38.44,133.07c-.51,0-.89.25-1.15.75-.26.5-.38,1.25-.38,2.25s.12,1.75.38,2.25c.26.5.64.75,1.15.75s.89-.25,1.15-.75c.25-.5.38-1.25.38-2.25s-.13-1.75-.38-2.25c-.26-.5-.64-.75-1.15-.75Z"/>
  <g class="cls-49">
    <line class="cls-22" x1="48.72" y1="102.41" x2="420.9" y2="102.41"/>
  </g>
  <line class="cls-39" x1="48.72" y1="102.41" x2="45.22" y2="102.41"/>
  <line class="cls-26" x1="48.72" y1="102.41" x2="45.22" y2="102.41"/>
  <polygon class="cls-39" points="26.96 104.8 28.57 104.8 28.57 99.24 26.82 99.59 26.82 98.69 28.56 98.34 29.55 98.34 29.55 104.8 31.16 104.8 31.16 105.63 26.96 105.63 26.96 104.8"/>
  <rect class="cls-39" x="33.15" y="104.39" width="1.03" height="1.24"/>
  <path class="cls-39" d="M36.68,104.8h3.44v.83h-4.63v-.83c.37-.38.88-.9,1.53-1.56.64-.65,1.05-1.07,1.22-1.26.32-.35.54-.65.66-.9.12-.24.19-.49.19-.73,0-.38-.14-.7-.41-.94-.27-.24-.62-.37-1.06-.37-.31,0-.64.06-.98.16-.34.11-.71.27-1.1.49v-1c.4-.16.77-.28,1.11-.36.34-.08.66-.12.95-.12.75,0,1.35.19,1.8.57s.68.88.68,1.51c0,.3-.06.59-.17.85-.11.27-.31.59-.61.95-.08.1-.34.37-.78.82-.44.45-1.05,1.08-1.84,1.89Z"/>
  <g class="cls-96">
    <line class="cls-22" x1="48.72" y1="68.34" x2="420.9" y2="68.34"/>
  </g>
  <line class="cls-39" x1="48.72" y1="68.34" x2="45.22" y2="68.34"/>
  <line class="cls-26" x1="48.72" y1="68.34" x2="45.22" y2="68.34"/>
  <polygon class="cls-39" points="26.96 70.6 28.57 70.6 28.57 65.04 26.82 65.39 26.82 64.49 28.56 64.14 29.55 64.14 29.55 70.6 31.16 70.6 31.16 71.43 26.96 71.43 26.96 70.6"/>
  <rect class="cls-39" x="33.15" y="70.19" width="1.03" height="1.24"/>
  <path class="cls-39" d="M38.78,64.14h1.24v4.75h1.04v.82h-1.04v1.72h-.98v-1.72h-3.29v-.95l3.03-4.62ZM39.04,65l-2.49,3.89h2.49v-3.89Z"/>
  <path class="cls-39" d="M7.66,221.81v-3.04c0-2.12.45-3.68,1.32-4.67.89-.99,2.27-1.48,4.14-1.48s3.27.51,4.16,1.5c.89.99,1.32,2.55,1.32,4.65v3.04H7.66ZM8.87,220.32h8.51v-1.79c0-1.5-.33-2.61-1.02-3.32-.69-.69-1.77-1.05-3.24-1.05s-2.53.36-3.23,1.05c-.67.71-1.02,1.82-1.02,3.32v1.79Z"/>
  <path class="cls-39" d="M13.76,204.65c-.74.01-1.32.23-1.77.62-.43.4-.66.94-.66,1.6,0,.75.23,1.35.65,1.8s1.02.72,1.78.78v-4.8ZM14.15,203.3h.66v6.19c.93-.06,1.65-.33,2.13-.84.48-.5.72-1.18.72-2.09,0-.51-.06-1.02-.18-1.5-.12-.48-.31-.97-.58-1.46h1.27c.21.48.38.98.47,1.49.09.51.15,1.04.15,1.54,0,1.32-.38,2.36-1.12,3.12s-1.78,1.14-3.09,1.14-2.4-.36-3.19-1.08c-.78-.72-1.19-1.71-1.19-2.94,0-1.11.36-1.98,1.06-2.62.72-.63,1.68-.96,2.9-.96Z"/>
  <rect class="cls-39" x="7.19" y="199.74" width="11.4" height="1.35"/>
  <path class="cls-39" d="M13.91,190.5h4.68v1.35h-1.25c.51.32.87.71,1.1,1.15s.34,1.02.34,1.68c0,.84-.23,1.51-.69,2.01-.46.49-1.09.74-1.89.74-.91,0-1.6-.3-2.09-.93-.47-.62-.7-1.53-.7-2.76v-1.89h-.14c-.61,0-1.1.21-1.44.61-.33.4-.51.98-.51,1.71,0,.48.06.93.18,1.38.12.45.28.87.49,1.27h-1.24c-.18-.48-.33-.96-.42-1.43s-.15-.91-.15-1.36c0-1.19.32-2.07.93-2.66.61-.58,1.55-.88,2.79-.88ZM14.47,193.19c0,1.1.14,1.85.38,2.26.26.42.68.63,1.27.63.48,0,.87-.15,1.14-.46.28-.32.42-.75.42-1.29,0-.75-.25-1.35-.79-1.8-.53-.45-1.23-.68-2.12-.68h-.3v1.33Z"/>
  <path class="cls-39" d="M19.34,184.31c.96.39,1.6.76,1.91,1.12.3.36.45.84.45,1.44v1.08h-1.12v-.79c0-.36-.09-.65-.27-.86-.18-.21-.58-.43-1.24-.69l-.6-.24-8.07,3.32v-1.43l6.42-2.57-6.42-2.57v-1.42l8.95,3.6Z"/>
  <path class="cls-39" d="M7.21,170.84c1.14.66,2.25,1.14,3.35,1.45,1.1.33,2.2.48,3.33.48s2.25-.15,3.35-.48c1.11-.31,2.2-.79,3.33-1.45v1.17c-1.16.74-2.26,1.29-3.38,1.65s-2.2.54-3.3.54-2.18-.18-3.29-.54c-1.11-.36-2.23-.9-3.39-1.65v-1.17Z"/>
  <path class="cls-39" d="M10.63,162.99h1.27c-.18.39-.33.78-.43,1.18-.09.42-.15.84-.15,1.28,0,.68.1,1.18.31,1.51s.51.49.91.49c.32,0,.56-.12.73-.36.18-.24.36-.72.51-1.44l.11-.46c.21-.96.51-1.63.87-2.04.38-.39.9-.6,1.56-.6.76,0,1.36.3,1.8.9.45.6.66,1.44.66,2.49,0,.45-.05.9-.12,1.38-.08.48-.2.97-.38,1.5h-1.4c.27-.49.47-.99.58-1.47.14-.48.19-.96.19-1.44,0-.63-.1-1.12-.31-1.47-.21-.33-.53-.51-.93-.51-.36,0-.65.13-.84.38-.19.24-.39.78-.57,1.62l-.11.46c-.18.84-.45,1.46-.81,1.82-.36.38-.85.56-1.5.56-.76,0-1.36-.27-1.78-.81-.42-.54-.63-1.32-.63-2.34,0-.49.05-.96.12-1.41.08-.44.18-.84.32-1.22Z"/>
  <path class="cls-39" d="M13.76,154.74c-.74.01-1.32.23-1.77.62-.43.4-.66.94-.66,1.6,0,.75.23,1.35.65,1.8s1.02.72,1.78.78v-4.8ZM14.15,153.39h.66v6.19c.93-.06,1.65-.33,2.13-.84.48-.5.72-1.18.72-2.09,0-.51-.06-1.02-.18-1.5-.12-.48-.31-.97-.58-1.46h1.27c.21.48.38.98.47,1.49.09.51.15,1.04.15,1.54,0,1.32-.38,2.36-1.12,3.12s-1.78,1.14-3.09,1.14-2.4-.36-3.19-1.08c-.78-.72-1.19-1.71-1.19-2.94,0-1.11.36-1.98,1.06-2.62.72-.63,1.68-.96,2.9-.96Z"/>
  <path class="cls-39" d="M10.7,145.28h1.26c-.21.39-.36.76-.47,1.16-.11.39-.16.76-.16,1.15,0,.87.28,1.56.84,2.04s1.34.72,2.32.72,1.79-.24,2.34-.72c.56-.48.83-1.17.83-2.04,0-.39-.05-.76-.15-1.15-.1-.39-.27-.77-.48-1.16h1.24c.18.39.32.78.39,1.17.07.4.12.84.12,1.29,0,1.23-.38,2.22-1.15,2.94-.77.74-1.82,1.1-3.14,1.1s-2.39-.36-3.15-1.1c-.76-.74-1.15-1.74-1.15-3.03,0-.42.05-.82.14-1.21.09-.39.21-.78.38-1.16Z"/>
  <path class="cls-39" d="M7.21,143.15v-1.17c1.15-.72,2.28-1.28,3.39-1.64,1.11-.36,2.2-.55,3.29-.55s2.19.19,3.3.55,2.22.92,3.38,1.64v1.17c-1.12-.65-2.22-1.12-3.33-1.46-1.09-.32-2.2-.48-3.35-.48s-2.23.16-3.33.48c-1.1.33-2.21.81-3.35,1.46Z"/>
  <polygon class="cls-39" points="55.73 32.93 53.5 35.17 55.73 37.4 55.15 37.99 52.91 35.75 50.67 37.99 50.09 37.4 52.32 35.17 50.09 32.93 50.67 32.34 52.91 34.58 55.15 32.34 55.73 32.93"/>
  <polygon class="cls-39" points="58.33 37.47 59.94 37.47 59.94 31.91 58.19 32.26 58.19 31.36 59.93 31.01 60.92 31.01 60.92 37.47 62.53 37.47 62.53 38.3 58.33 38.3 58.33 37.47"/>
  <path class="cls-39" d="M66.64,30.88c.81,0,1.43.33,1.87.97.43.65.65,1.59.65,2.81s-.22,2.17-.65,2.81c-.44.64-1.06.96-1.88.96s-1.44-.32-1.87-.96c-.43-.64-.64-1.58-.64-2.81s.21-2.16.64-2.81c.43-.64,1.06-.97,1.88-.97ZM66.64,31.66c-.51,0-.89.25-1.15.75-.26.5-.38,1.25-.38,2.25s.12,1.75.38,2.25c.26.5.64.75,1.15.75s.89-.25,1.15-.75c.25-.5.38-1.25.38-2.25s-.13-1.75-.38-2.25c-.26-.5-.64-.75-1.15-.75Z"/>
  <path class="cls-39" d="M73.6,29.48v.63c-.17-.08-.35-.15-.53-.19-.18-.04-.36-.06-.52-.06-.46,0-.81.15-1.05.46s-.38.78-.41,1.39c.13-.2.3-.35.5-.46.2-.1.43-.16.67-.16.51,0,.92.16,1.21.47.29.31.45.73.45,1.27s-.16.95-.47,1.26-.72.47-1.23.47c-.59,0-1.04-.22-1.35-.67-.32-.45-.47-1.11-.47-1.97,0-.8.19-1.45.57-1.92.38-.48.9-.72,1.54-.72.17,0,.34.02.52.05.18.04.36.08.55.15ZM72.22,31.65c-.31,0-.55.11-.74.32-.18.21-.27.5-.27.87s.09.67.27.88c.18.21.43.32.74.32s.55-.11.74-.32.27-.5.27-.88-.09-.66-.27-.87c-.18-.21-.43-.32-.74-.32Z"/>
  <g class="cls-53">
    <polyline class="cls-8" points="65.63 306.88 133.3 306.8 200.97 306.57 268.64 305.7 336.31 303.5 403.98 300.04"/>
    <g class="cls-35">
      <polygon class="cls-21" points="65.63 303.88 62.63 309.88 68.63 309.88 65.63 303.88"/>
    </g>
    <g class="cls-97">
      <polygon class="cls-21" points="133.3 303.8 130.3 309.8 136.3 309.8 133.3 303.8"/>
    </g>
    <g class="cls-95">
      <polygon class="cls-21" points="200.97 303.57 197.97 309.57 203.97 309.57 200.97 303.57"/>
    </g>
    <g class="cls-85">
      <polygon class="cls-21" points="268.64 302.7 265.64 308.7 271.64 308.7 268.64 302.7"/>
    </g>
    <g class="cls-33">
      <polygon class="cls-21" points="336.31 300.5 333.31 306.5 339.31 306.5 336.31 300.5"/>
    </g>
    <g class="cls-61">
      <polygon class="cls-21" points="403.98 297.04 400.98 303.04 406.98 303.04 403.98 297.04"/>
    </g>
  </g>
  <g class="cls-76">
    <polyline class="cls-14" points="65.63 306.88 133.3 306.54 200.97 302.73 268.64 293.05 336.31 281.54 403.98 269.88"/>
    <g class="cls-104">
      <rect class="cls-20" x="62.63" y="303.88" width="6" height="6"/>
    </g>
    <g class="cls-73">
      <rect class="cls-20" x="130.3" y="303.54" width="6" height="6"/>
    </g>
    <g class="cls-52">
      <rect class="cls-20" x="197.97" y="299.73" width="6" height="6"/>
    </g>
    <g class="cls-57">
      <rect class="cls-20" x="265.64" y="290.05" width="6" height="6"/>
    </g>
    <g class="cls-68">
      <rect class="cls-20" x="333.31" y="278.54" width="6" height="6"/>
    </g>
    <g class="cls-111">
      <rect class="cls-20" x="400.98" y="266.88" width="6" height="6"/>
    </g>
  </g>
  <g class="cls-94">
    <polyline class="cls-11" points="65.63 306.88 133.3 239.35 200.97 183.66 268.64 145.01 336.31 103.09 403.98 68.51"/>
    <g class="cls-74">
      <path class="cls-10" d="M62.63,303.88l6,6M62.63,309.88l6-6"/>
    </g>
    <g class="cls-86">
      <path class="cls-10" d="M130.3,236.35l6,6M130.3,242.35l6-6"/>
    </g>
    <g class="cls-46">
      <path class="cls-10" d="M197.97,180.66l6,6M197.97,186.66l6-6"/>
    </g>
    <g class="cls-38">
      <path class="cls-10" d="M265.64,142.01l6,6M265.64,148.01l6-6"/>
    </g>
    <g class="cls-62">
      <path class="cls-10" d="M333.31,100.09l6,6M333.31,106.09l6-6"/>
    </g>
    <g class="cls-114">
      <path class="cls-10" d="M400.98,65.51l6,6M400.98,71.51l6-6"/>
    </g>
  </g>
  <g class="cls-67">
    <polyline class="cls-25" points="65.63 306.88 133.3 247.76 200.97 220.82 268.64 205.57 336.31 192.43 403.98 177.99"/>
    <g class="cls-50">
      <polygon class="cls-2" points="65.63 311.12 68.18 306.88 65.63 302.64 63.09 306.88 65.63 311.12"/>
    </g>
    <g class="cls-66">
      <polygon class="cls-2" points="133.3 252 135.85 247.76 133.3 243.51 130.76 247.76 133.3 252"/>
    </g>
    <g class="cls-84">
      <polygon class="cls-2" points="200.97 225.07 203.52 220.82 200.97 216.58 198.43 220.82 200.97 225.07"/>
    </g>
    <g class="cls-56">
      <polygon class="cls-2" points="268.64 209.81 271.19 205.57 268.64 201.33 266.1 205.57 268.64 209.81"/>
    </g>
    <g class="cls-45">
      <polygon class="cls-2" points="336.31 196.67 338.86 192.43 336.31 188.19 333.77 192.43 336.31 196.67"/>
    </g>
    <g class="cls-101">
      <polygon class="cls-2" points="403.98 182.24 406.53 177.99 403.98 173.75 401.44 177.99 403.98 182.24"/>
    </g>
  </g>
  <g class="cls-89">
    <polyline class="cls-4" points="65.63 306.88 133.3 258.62 200.97 234.55 268.64 218.16 336.31 207.21 403.98 195.87"/>
    <g class="cls-70">
      <path class="cls-3" d="M65.63,309.88c.8,0,1.56-.32,2.12-.88.56-.56.88-1.33.88-2.12s-.32-1.56-.88-2.12c-.56-.56-1.33-.88-2.12-.88s-1.56.32-2.12.88c-.56.56-.88,1.33-.88,2.12s.32,1.56.88,2.12c.56.56,1.33.88,2.12.88Z"/>
    </g>
    <g class="cls-31">
      <path class="cls-3" d="M133.3,261.62c.8,0,1.56-.32,2.12-.88.56-.56.88-1.33.88-2.12s-.32-1.56-.88-2.12c-.56-.56-1.33-.88-2.12-.88s-1.56.32-2.12.88c-.56.56-.88,1.33-.88,2.12s.32,1.56.88,2.12c.56.56,1.33.88,2.12.88Z"/>
    </g>
    <g class="cls-51">
      <path class="cls-3" d="M200.97,237.55c.8,0,1.56-.32,2.12-.88.56-.56.88-1.33.88-2.12s-.32-1.56-.88-2.12-1.33-.88-2.12-.88-1.56.32-2.12.88-.88,1.33-.88,2.12.32,1.56.88,2.12c.56.56,1.33.88,2.12.88Z"/>
    </g>
    <g class="cls-43">
      <path class="cls-3" d="M268.64,221.16c.8,0,1.56-.32,2.12-.88.56-.56.88-1.33.88-2.12s-.32-1.56-.88-2.12c-.56-.56-1.33-.88-2.12-.88s-1.56.32-2.12.88c-.56.56-.88,1.33-.88,2.12s.32,1.56.88,2.12c.56.56,1.33.88,2.12.88Z"/>
    </g>
    <g class="cls-82">
      <path class="cls-3" d="M336.31,210.21c.8,0,1.56-.32,2.12-.88.56-.56.88-1.33.88-2.12s-.32-1.56-.88-2.12c-.56-.56-1.33-.88-2.12-.88s-1.56.32-2.12.88c-.56.56-.88,1.33-.88,2.12s.32,1.56.88,2.12c.56.56,1.33.88,2.12.88Z"/>
    </g>
    <g class="cls-108">
      <path class="cls-3" d="M403.98,198.87c.8,0,1.56-.32,2.12-.88.56-.56.88-1.33.88-2.12s-.32-1.56-.88-2.12c-.56-.56-1.33-.88-2.12-.88s-1.56.32-2.12.88c-.56.56-.88,1.33-.88,2.12s.32,1.56.88,2.12c.56.56,1.33.88,2.12.88Z"/>
    </g>
  </g>
  <g class="cls-81">
    <polyline class="cls-13" points="65.63 240.57 133.3 266.3 200.97 274.24 268.64 278 336.31 279.66 403.98 279.57"/>
    <g class="cls-110">
      <polygon class="cls-21" points="65.63 237.57 62.63 243.57 68.63 243.57 65.63 237.57"/>
    </g>
    <g class="cls-79">
      <polygon class="cls-21" points="133.3 263.3 130.3 269.3 136.3 269.3 133.3 263.3"/>
    </g>
    <g class="cls-107">
      <polygon class="cls-21" points="200.97 271.24 197.97 277.24 203.97 277.24 200.97 271.24"/>
    </g>
    <g class="cls-87">
      <polygon class="cls-21" points="268.64 275 265.64 281 271.64 281 268.64 275"/>
    </g>
    <g class="cls-92">
      <polygon class="cls-21" points="336.31 276.66 333.31 282.66 339.31 282.66 336.31 276.66"/>
    </g>
    <g class="cls-106">
      <polygon class="cls-21" points="403.98 276.57 400.98 282.57 406.98 282.57 403.98 276.57"/>
    </g>
  </g>
  <g class="cls-63">
    <polyline class="cls-24" points="65.63 242.95 133.3 269.1 200.97 273.93 268.64 270.87 336.31 265.08 403.98 257.71"/>
    <g class="cls-99">
      <rect class="cls-20" x="62.63" y="239.95" width="6" height="6"/>
    </g>
    <g class="cls-36">
      <rect class="cls-20" x="130.3" y="266.1" width="6" height="6"/>
    </g>
    <g class="cls-69">
      <rect class="cls-20" x="197.97" y="270.93" width="6" height="6"/>
    </g>
    <g class="cls-83">
      <rect class="cls-20" x="265.64" y="267.87" width="6" height="6"/>
    </g>
    <g class="cls-30">
      <rect class="cls-20" x="333.31" y="262.08" width="6" height="6"/>
    </g>
    <g class="cls-32">
      <rect class="cls-20" x="400.98" y="254.71" width="6" height="6"/>
    </g>
  </g>
  <g class="cls-42">
    <polyline class="cls-9" points="65.63 221.94 133.3 193.24 200.97 151.26 268.64 120.98 336.31 85.45 403.98 54.88"/>
    <g class="cls-102">
      <path class="cls-10" d="M62.63,218.94l6,6M62.63,224.94l6-6"/>
    </g>
    <g class="cls-115">
      <path class="cls-10" d="M130.3,190.24l6,6M130.3,196.24l6-6"/>
    </g>
    <g class="cls-109">
      <path class="cls-10" d="M197.97,148.26l6,6M197.97,154.26l6-6"/>
    </g>
    <g class="cls-113">
      <path class="cls-10" d="M265.64,117.98l6,6M265.64,123.98l6-6"/>
    </g>
    <g class="cls-93">
      <path class="cls-10" d="M333.31,82.45l6,6M333.31,88.45l6-6"/>
    </g>
    <g class="cls-90">
      <path class="cls-10" d="M400.98,51.88l6,6M400.98,57.88l6-6"/>
    </g>
  </g>
  <g class="cls-112">
    <polyline class="cls-19" points="65.63 213.6 133.3 188.67 200.97 175.28 268.64 167.96 336.31 161.57 403.98 152.72"/>
    <g class="cls-29">
      <polygon class="cls-2" points="65.63 217.84 68.18 213.6 65.63 209.35 63.09 213.6 65.63 217.84"/>
    </g>
    <g class="cls-28">
      <polygon class="cls-2" points="133.3 192.91 135.85 188.67 133.3 184.43 130.76 188.67 133.3 192.91"/>
    </g>
    <g class="cls-105">
      <polygon class="cls-2" points="200.97 179.52 203.52 175.28 200.97 171.04 198.43 175.28 200.97 179.52"/>
    </g>
    <g class="cls-59">
      <polygon class="cls-2" points="268.64 172.2 271.19 167.96 268.64 163.72 266.1 167.96 268.64 172.2"/>
    </g>
    <g class="cls-55">
      <polygon class="cls-2" points="336.31 165.81 338.86 161.57 336.31 157.32 333.77 161.57 336.31 165.81"/>
    </g>
    <g class="cls-44">
      <polygon class="cls-2" points="403.98 156.96 406.53 152.72 403.98 148.48 401.44 152.72 403.98 156.96"/>
    </g>
  </g>
  <g class="cls-37">
    <polyline class="cls-15" points="65.63 214.16 133.3 202.13 200.97 193.21 268.64 186.25 336.31 182.87 403.98 176.97"/>
    <g class="cls-75">
      <path class="cls-3" d="M65.63,217.16c.8,0,1.56-.32,2.12-.88.56-.56.88-1.33.88-2.12s-.32-1.56-.88-2.12c-.56-.56-1.33-.88-2.12-.88s-1.56.32-2.12.88c-.56.56-.88,1.33-.88,2.12s.32,1.56.88,2.12c.56.56,1.33.88,2.12.88Z"/>
    </g>
    <g class="cls-72">
      <path class="cls-3" d="M133.3,205.13c.8,0,1.56-.32,2.12-.88s.88-1.33.88-2.12-.32-1.56-.88-2.12-1.33-.88-2.12-.88-1.56.32-2.12.88-.88,1.33-.88,2.12.32,1.56.88,2.12,1.33.88,2.12.88Z"/>
    </g>
    <g class="cls-58">
      <path class="cls-3" d="M200.97,196.21c.8,0,1.56-.32,2.12-.88s.88-1.33.88-2.12-.32-1.56-.88-2.12-1.33-.88-2.12-.88-1.56.32-2.12.88-.88,1.33-.88,2.12.32,1.56.88,2.12,1.33.88,2.12.88Z"/>
    </g>
    <g class="cls-78">
      <path class="cls-3" d="M268.64,189.25c.8,0,1.56-.32,2.12-.88.56-.56.88-1.33.88-2.12s-.32-1.56-.88-2.12c-.56-.56-1.33-.88-2.12-.88s-1.56.32-2.12.88c-.56.56-.88,1.33-.88,2.12s.32,1.56.88,2.12c.56.56,1.33.88,2.12.88Z"/>
    </g>
    <g class="cls-47">
      <path class="cls-3" d="M336.31,185.87c.8,0,1.56-.32,2.12-.88.56-.56.88-1.33.88-2.12s-.32-1.56-.88-2.12c-.56-.56-1.33-.88-2.12-.88s-1.56.32-2.12.88c-.56.56-.88,1.33-.88,2.12s.32,1.56.88,2.12c.56.56,1.33.88,2.12.88Z"/>
    </g>
    <g class="cls-100">
      <path class="cls-3" d="M403.98,179.97c.8,0,1.56-.32,2.12-.88.56-.56.88-1.33.88-2.12s-.32-1.56-.88-2.12c-.56-.56-1.33-.88-2.12-.88s-1.56.32-2.12.88c-.56.56-.88,1.33-.88,2.12s.32,1.56.88,2.12c.56.56,1.33.88,2.12.88Z"/>
    </g>
  </g>
  <line class="cls-17" x1="48.72" y1="319.48" x2="48.72" y2="42.28"/>
  <line class="cls-17" x1="420.9" y1="319.48" x2="420.9" y2="42.28"/>
  <line class="cls-17" x1="48.72" y1="319.48" x2="420.9" y2="319.48"/>
  <line class="cls-17" x1="48.72" y1="42.28" x2="420.9" y2="42.28"/>
  <g>
    <rect class="cls-40" x="77.84" y="7.2" width="313.93" height="22.98" rx="2.6" ry="2.6"/>
    <rect class="cls-12" x="77.84" y="7.2" width="313.93" height="22.98" rx="2.6" ry="2.6"/>
  </g>
  <polyline class="cls-18" points="83.04 17.73 96.04 17.73 109.04 17.73"/>
  <polygon class="cls-39" points="119.42 12.8 127.42 12.8 127.42 13.88 124.06 13.88 124.06 22.27 122.77 22.27 122.77 13.88 119.42 13.88 119.42 12.8"/>
  <path class="cls-39" d="M129.16,14.99c1.01,0,1.81.34,2.39.99.57.66.87,1.57.87,2.74s-.3,2.08-.87,2.73c-.58.66-1.38.99-2.39.99s-1.83-.33-2.4-.99c-.57-.65-.86-1.56-.86-2.73s.29-2.08.86-2.74c.57-.65,1.38-.99,2.4-.99ZM129.16,15.98c-.62,0-1.12.25-1.48.74-.36.49-.55,1.16-.55,2s.17,1.52.53,2.02c.36.49.86.73,1.49.73s1.12-.23,1.48-.73c.36-.49.55-1.16.55-2.02s-.18-1.51-.55-2c-.36-.49-.86-.74-1.48-.74Z"/>
  <path class="cls-39" d="M135.52,13.15v2.02h2.4v.91h-2.4v3.86c0,.58.08.96.23,1.12.16.17.48.25.97.25h1.2v.98h-1.2c-.91,0-1.53-.17-1.87-.51-.34-.34-.51-.95-.51-1.83v-3.86h-.86v-.91h.86v-2.02h1.17Z"/>
  <path class="cls-39" d="M145.02,18.22v4.06h-1.17v-1.08c-.27.44-.61.75-1,.95s-.88.3-1.46.3c-.73,0-1.31-.2-1.74-.6-.43-.4-.64-.95-.64-1.64,0-.79.26-1.39.81-1.81.53-.4,1.33-.61,2.39-.61h1.64v-.12c0-.53-.18-.95-.53-1.25-.35-.29-.85-.44-1.48-.44-.42,0-.81.05-1.2.16-.39.1-.75.25-1.1.43v-1.08c.42-.16.83-.29,1.24-.36s.79-.13,1.18-.13c1.03,0,1.79.27,2.3.81s.77,1.34.77,2.42ZM142.69,18.7c-.95,0-1.6.12-1.96.33-.36.22-.55.58-.55,1.11,0,.42.13.75.4.99.27.25.65.36,1.12.36.65,0,1.17-.22,1.56-.69.39-.46.58-1.07.58-1.83v-.26h-1.16Z"/>
  <rect class="cls-39" x="147.42" y="12.39" width="1.17" height="9.88"/>
  <path class="cls-39" d="M155.87,18.73c0,.86.17,1.53.52,2.03.35.49.83.73,1.46.73s1.11-.23,1.47-.73c.35-.49.53-1.17.53-2.03s-.18-1.52-.53-2.01c-.36-.49-.85-.74-1.47-.74s-1.1.25-1.46.74c-.35.49-.52,1.16-.52,2.01ZM159.85,16.24v-3.85h1.17v9.88h-1.17v-1.07c-.25.43-.56.74-.94.94s-.82.3-1.34.3c-.86,0-1.56-.34-2.11-1.01-.55-.68-.81-1.59-.81-2.7s.26-2.01.81-2.7c.55-.68,1.25-1.03,2.11-1.03.52,0,.96.1,1.34.31.38.21.69.52.94.94Z"/>
  <path class="cls-39" d="M168.34,18.09c-.01-.64-.2-1.14-.53-1.53-.35-.38-.82-.57-1.39-.57-.65,0-1.17.19-1.56.56-.39.36-.62.88-.68,1.55h4.16ZM169.51,18.43v.57h-5.37c.05.81.29,1.43.73,1.85.43.42,1.03.62,1.81.62.44,0,.88-.05,1.3-.16s.85-.27,1.26-.51v1.1c-.42.18-.85.33-1.29.4s-.9.13-1.34.13c-1.14,0-2.04-.33-2.7-.98-.66-.65-.99-1.55-.99-2.68s.31-2.08.94-2.77c.62-.68,1.48-1.03,2.55-1.03.96,0,1.72.31,2.27.92.55.62.83,1.46.83,2.51Z"/>
  <rect class="cls-39" x="171.42" y="12.39" width="1.17" height="9.88"/>
  <path class="cls-39" d="M180.6,18.22v4.06h-1.17v-1.08c-.27.44-.61.75-1,.95s-.88.3-1.46.3c-.73,0-1.31-.2-1.74-.6-.43-.4-.64-.95-.64-1.64,0-.79.26-1.39.81-1.81.53-.4,1.33-.61,2.39-.61h1.64v-.12c0-.53-.18-.95-.53-1.25-.35-.29-.85-.44-1.48-.44-.42,0-.81.05-1.2.16-.39.1-.75.25-1.1.43v-1.08c.42-.16.83-.29,1.24-.36s.79-.13,1.18-.13c1.03,0,1.79.27,2.3.81s.77,1.34.77,2.42ZM178.27,18.7c-.95,0-1.6.12-1.96.33-.36.22-.55.58-.55,1.11,0,.42.13.75.4.99.27.25.65.36,1.12.36.65,0,1.17-.22,1.56-.69.39-.46.58-1.07.58-1.83v-.26h-1.16Z"/>
  <path class="cls-39" d="M185.97,22.92c-.34.83-.66,1.39-.98,1.65s-.73.39-1.25.39h-.94v-.98h.69c.31,0,.56-.08.74-.23s.38-.51.6-1.08l.21-.52-2.87-6.99h1.24l2.22,5.56,2.22-5.56h1.24l-3.12,7.76Z"/>
  <polyline class="cls-1" points="215.41 17.73 228.41 17.73 241.41 17.73"/>
  <path class="cls-39" d="M258.77,13.11v1.25c-.49-.23-.95-.4-1.38-.52-.44-.1-.86-.17-1.25-.17-.7,0-1.25.14-1.63.4-.38.27-.56.66-.56,1.16,0,.42.12.74.38.95.25.22.73.39,1.43.52l.78.16c.95.18,1.65.51,2.11.96.45.47.69,1.08.69,1.85,0,.92-.31,1.61-.92,2.08-.62.47-1.52.7-2.7.7-.45,0-.94-.05-1.44-.14s-1.03-.23-1.56-.44v-1.33c.52.3,1.03.52,1.52.66.49.16.99.22,1.48.22.73,0,1.29-.14,1.69-.43.39-.29.6-.69.6-1.24,0-.47-.14-.83-.43-1.09-.29-.26-.75-.45-1.4-.58l-.78-.16c-.96-.18-1.65-.48-2.08-.9-.43-.4-.64-.96-.64-1.69,0-.83.29-1.5.88-1.98.58-.48,1.4-.73,2.44-.73.44,0,.88.04,1.35.12.46.08.92.21,1.42.36Z"/>
  <path class="cls-39" d="M266.2,18.09c-.01-.64-.19-1.14-.53-1.53-.35-.38-.82-.57-1.39-.57-.65,0-1.17.19-1.56.56-.39.36-.62.88-.68,1.55h4.16ZM267.37,18.43v.57h-5.37c.05.81.29,1.43.73,1.85.43.42,1.03.62,1.81.62.44,0,.88-.05,1.3-.16.42-.1.85-.27,1.26-.51v1.1c-.42.18-.85.33-1.29.4-.44.08-.9.13-1.34.13-1.14,0-2.04-.33-2.7-.98s-.99-1.55-.99-2.68.31-2.08.94-2.77c.62-.68,1.48-1.03,2.55-1.03.96,0,1.72.31,2.27.92.55.62.83,1.46.83,2.51Z"/>
  <path class="cls-39" d="M274.4,15.44v1.09c-.34-.18-.66-.31-1-.4-.34-.09-.66-.14-1-.14-.75,0-1.35.25-1.77.73-.42.48-.62,1.16-.62,2.01s.21,1.55.62,2.03c.42.48,1.01.71,1.77.71.34,0,.66-.04,1-.13.34-.09.66-.23,1-.42v1.08c-.34.16-.68.27-1.01.34-.35.07-.73.1-1.12.1-1.07,0-1.92-.33-2.55-1-.64-.66-.95-1.57-.95-2.72s.31-2.07.95-2.73,1.51-1,2.63-1c.36,0,.71.04,1.05.12.34.08.68.18,1,.32Z"/>
  <path class="cls-39" d="M279.19,14.99c1.01,0,1.81.34,2.39.99.57.66.87,1.57.87,2.74s-.3,2.08-.87,2.73c-.58.66-1.38.99-2.39.99s-1.83-.33-2.4-.99c-.57-.65-.86-1.56-.86-2.73s.29-2.08.86-2.74c.57-.65,1.38-.99,2.4-.99ZM279.19,15.98c-.62,0-1.12.25-1.48.74-.36.49-.55,1.16-.55,2s.17,1.52.53,2.02c.36.49.86.73,1.49.73s1.12-.23,1.48-.73c.36-.49.55-1.16.55-2.02s-.18-1.51-.55-2c-.36-.49-.86-.74-1.48-.74Z"/>
  <path class="cls-39" d="M290.3,17.98v4.29h-1.17v-4.25c0-.68-.14-1.17-.4-1.51s-.65-.51-1.17-.51c-.64,0-1.13.21-1.5.61-.36.4-.55.95-.55,1.64v4.02h-1.17v-7.11h1.17v1.1c.27-.42.6-.74.99-.95.38-.21.82-.33,1.31-.33.81,0,1.43.26,1.85.77.42.51.64,1.25.64,2.22Z"/>
  <path class="cls-39" d="M293.33,18.73c0,.86.17,1.53.52,2.03.35.49.83.73,1.46.73s1.11-.23,1.47-.73c.35-.49.53-1.17.53-2.03s-.18-1.52-.53-2.01c-.36-.49-.85-.74-1.47-.74s-1.1.25-1.46.74c-.35.49-.52,1.16-.52,2.01ZM297.31,16.24v-3.85h1.17v9.88h-1.17v-1.07c-.25.43-.56.74-.94.94-.38.2-.82.3-1.34.3-.86,0-1.56-.34-2.11-1.01s-.81-1.59-.81-2.7.26-2.01.81-2.7c.55-.68,1.25-1.03,2.11-1.03.52,0,.96.1,1.34.31.38.21.69.52.94.94Z"/>
  <path class="cls-39" d="M306.18,13.15v2.02h2.4v.91h-2.4v3.86c0,.58.08.96.23,1.12.16.17.48.25.98.25h1.2v.98h-1.2c-.91,0-1.53-.17-1.87-.51s-.51-.95-.51-1.83v-3.86h-.86v-.91h.86v-2.02h1.17Z"/>
  <path class="cls-39" d="M310.12,12.39h1.17v1.48h-1.17v-1.48ZM310.12,15.16h1.17v7.11h-1.17v-7.11Z"/>
  <path class="cls-39" d="M318.64,18.09c-.01-.64-.19-1.14-.53-1.53-.35-.38-.82-.57-1.39-.57-.65,0-1.17.19-1.56.56-.39.36-.62.88-.68,1.55h4.16ZM319.81,18.43v.57h-5.37c.05.81.29,1.43.73,1.85.43.42,1.03.62,1.81.62.44,0,.88-.05,1.3-.16.42-.1.85-.27,1.26-.51v1.1c-.42.18-.85.33-1.29.4-.44.08-.9.13-1.34.13-1.14,0-2.04-.33-2.7-.98s-.99-1.55-.99-2.68.31-2.08.94-2.77c.62-.68,1.48-1.03,2.55-1.03.96,0,1.72.31,2.27.92.55.62.83,1.46.83,2.51Z"/>
  <path class="cls-39" d="M325.85,16.26c-.13-.08-.27-.13-.43-.17-.16-.03-.33-.05-.51-.05-.66,0-1.17.22-1.52.65-.36.43-.53,1.04-.53,1.85v3.74h-1.17v-7.11h1.17v1.1c.23-.43.56-.75.95-.96.39-.21.87-.31,1.44-.31.08,0,.17.01.27.01.09.01.2.03.32.05v1.2Z"/>
  <path class="cls-39" d="M337.12,17.98v4.29h-1.17v-4.25c0-.68-.14-1.17-.4-1.51s-.65-.51-1.17-.51c-.64,0-1.13.21-1.5.61-.36.4-.55.95-.55,1.64v4.02h-1.17v-9.88h1.17v3.87c.27-.42.6-.74.99-.95.38-.21.82-.33,1.31-.33.81,0,1.43.26,1.85.77.42.51.64,1.25.64,2.22Z"/>
  <path class="cls-39" d="M339.44,12.39h1.17v1.48h-1.17v-1.48ZM339.44,15.16h1.17v7.11h-1.17v-7.11Z"/>
  <path class="cls-39" d="M344.21,13.15v2.02h2.4v.91h-2.4v3.86c0,.58.08.96.23,1.12.16.17.48.25.98.25h1.2v.98h-1.2c-.91,0-1.53-.17-1.87-.51s-.51-.95-.51-1.83v-3.86h-.86v-.91h.86v-2.02h1.17Z"/>
  <path class="cls-39" d="M352.99,18.73c0,.86.17,1.53.52,2.03.35.49.83.73,1.46.73s1.11-.23,1.47-.73c.35-.49.53-1.17.53-2.03s-.18-1.52-.53-2.01c-.36-.49-.85-.74-1.47-.74s-1.1.25-1.46.74c-.35.49-.52,1.16-.52,2.01ZM356.97,16.24v-3.85h1.17v9.88h-1.17v-1.07c-.25.43-.56.74-.94.94-.38.2-.82.3-1.34.3-.86,0-1.56-.34-2.11-1.01s-.81-1.59-.81-2.7.26-2.01.81-2.7c.55-.68,1.25-1.03,2.11-1.03.52,0,.96.1,1.34.31.38.21.69.52.94.94Z"/>
  <path class="cls-39" d="M365.46,18.09c-.01-.64-.19-1.14-.53-1.53-.35-.38-.82-.57-1.39-.57-.65,0-1.17.19-1.56.56-.39.36-.62.88-.68,1.55h4.16ZM366.63,18.43v.57h-5.37c.05.81.29,1.43.73,1.85.43.42,1.03.62,1.81.62.44,0,.88-.05,1.3-.16.42-.1.85-.27,1.26-.51v1.1c-.42.18-.85.33-1.29.4-.44.08-.9.13-1.34.13-1.14,0-2.04-.33-2.7-.98s-.99-1.55-.99-2.68.31-2.08.94-2.77c.62-.68,1.48-1.03,2.55-1.03.96,0,1.72.31,2.27.92.55.62.83,1.46.83,2.51Z"/>
  <rect class="cls-39" x="368.54" y="12.39" width="1.17" height="9.88"/>
  <path class="cls-39" d="M377.71,18.22v4.06h-1.17v-1.08c-.27.44-.61.75-1,.95-.39.2-.88.3-1.46.3-.73,0-1.31-.2-1.74-.6-.43-.4-.64-.95-.64-1.64,0-.79.26-1.39.81-1.81.53-.4,1.33-.61,2.39-.61h1.64v-.12c0-.53-.18-.95-.53-1.25-.35-.29-.85-.44-1.48-.44-.42,0-.81.05-1.2.16-.39.1-.75.25-1.11.43v-1.08c.42-.16.83-.29,1.24-.36.4-.08.79-.13,1.18-.13,1.03,0,1.79.27,2.3.81.51.53.77,1.34.77,2.42ZM375.39,18.7c-.95,0-1.6.12-1.96.33-.36.22-.55.58-.55,1.11,0,.42.13.75.4.99.27.25.65.36,1.12.36.65,0,1.17-.22,1.56-.69.39-.46.58-1.07.58-1.83v-.26h-1.16Z"/>
  <path class="cls-39" d="M383.08,22.92c-.34.83-.66,1.39-.98,1.65s-.73.39-1.25.39h-.94v-.98h.69c.31,0,.56-.08.74-.23s.38-.51.6-1.08l.21-.52-2.87-6.99h1.23l2.22,5.56,2.22-5.56h1.23l-3.12,7.76Z"/>
  <g>
    <rect class="cls-40" x="428.87" y="131.23" width="78.58" height="99.29" rx="2.6" ry="2.6"/>
    <rect class="cls-12" x="428.87" y="131.23" width="78.58" height="99.29" rx="2.6" ry="2.6"/>
  </g>
  <polygon class="cls-23" points="447.07 136.76 442.07 146.76 452.07 146.76 447.07 136.76"/>
  <polygon class="cls-39" points="471.74 136.83 473.65 136.83 476.07 143.28 478.5 136.83 480.41 136.83 480.41 146.31 479.16 146.31 479.16 137.99 476.72 144.49 475.43 144.49 472.99 137.99 472.99 146.31 471.74 146.31 471.74 136.83"/>
  <polygon class="cls-39" points="485.4 146.31 481.79 136.83 483.13 136.83 486.13 144.81 489.13 136.83 490.47 136.83 486.86 146.31 485.4 146.31"/>
  <rect class="cls-39" x="491.85" y="136.83" width="1.29" height="9.48"/>
  <path class="cls-39" d="M495.69,136.83h2.9c1.05,0,1.86.25,2.4.73.55.48.82,1.18.82,2.11s-.27,1.65-.82,2.12c-.55.48-1.35.71-2.4.71h-1.61v3.81h-1.29v-9.48ZM496.97,137.89v3.56h1.61c.6,0,1.05-.14,1.38-.46.33-.31.49-.75.49-1.33s-.17-1-.49-1.31c-.32-.31-.78-.47-1.38-.47h-1.61Z"/>
  <rect class="cls-27" x="442.07" y="155.84" width="10" height="10"/>
  <polygon class="cls-39" points="471.74 155.91 473.03 155.91 473.03 164.31 477.64 164.31 477.64 165.39 471.74 165.39 471.74 155.91"/>
  <polygon class="cls-39" points="478.98 155.91 484.43 155.91 484.43 156.99 480.27 156.99 480.27 159.78 484.03 159.78 484.03 160.86 480.27 160.86 480.27 165.39 478.98 165.39 478.98 155.91"/>
  <path class="cls-39" d="M486.31,155.91h1.29v5.76c0,1.01.18,1.76.55,2.2.36.44.96.66,1.79.66s1.42-.22,1.78-.66.56-1.18.56-2.2v-5.76h1.29v5.92c0,1.25-.31,2.17-.92,2.79-.61.62-1.51.94-2.7.94s-2.11-.31-2.72-.94c-.61-.62-.91-1.55-.91-2.79v-5.92Z"/>
  <path class="cls-16" d="M442.07,174.92l10,10M442.07,184.92l10-10"/>
  <polygon class="cls-39" points="471.74 174.99 473.03 174.99 473.03 183.39 477.64 183.39 477.64 184.47 471.74 184.47 471.74 174.99"/>
  <path class="cls-39" d="M480.27,176.04v3.37h1.61c.61,0,1.08-.14,1.39-.43.31-.29.48-.7.48-1.26s-.17-.96-.48-1.25c-.31-.29-.78-.43-1.39-.43h-1.61ZM483.48,180.02c.27.1.55.3.81.6.26.31.52.73.78,1.26l1.3,2.59h-1.38l-1.21-2.43c-.31-.62-.62-1.05-.91-1.26-.3-.21-.7-.31-1.21-.31h-1.39v4h-1.29v-9.48h2.9c1.08,0,1.89.23,2.42.68.53.46.81,1.14.81,2.05,0,.6-.14,1.1-.42,1.49-.29.39-.69.66-1.21.81Z"/>
  <path class="cls-39" d="M487.87,174.99h1.29v5.76c0,1.01.18,1.76.55,2.2.36.44.96.66,1.79.66s1.42-.22,1.78-.66.56-1.18.56-2.2v-5.76h1.29v5.92c0,1.25-.31,2.17-.92,2.79-.61.62-1.51.94-2.7.94s-2.11-.31-2.72-.94c-.61-.62-.91-1.55-.91-2.79v-5.92Z"/>
  <polygon class="cls-7" points="447.07 206.07 451.31 198.99 447.07 191.92 442.82 198.99 447.07 206.07"/>
  <polygon class="cls-39" points="471.74 194.07 477.19 194.07 477.19 195.15 473.03 195.15 473.03 197.94 476.78 197.94 476.78 199.02 473.03 199.02 473.03 203.54 471.74 203.54 471.74 194.07"/>
  <rect class="cls-39" x="479.22" y="194.07" width="1.29" height="9.48"/>
  <polygon class="cls-39" points="483.05 194.07 488.5 194.07 488.5 195.15 484.34 195.15 484.34 197.94 488.09 197.94 488.09 199.02 484.34 199.02 484.34 203.54 483.05 203.54 483.05 194.07"/>
  <path class="cls-39" d="M494.37,193.9c1.33,0,2.38.46,3.18,1.34.79.88,1.2,2.08,1.2,3.58s-.4,2.69-1.2,3.57c-.81.88-1.86,1.33-3.18,1.33s-2.4-.44-3.2-1.33c-.81-.88-1.2-2.07-1.2-3.57s.39-2.69,1.2-3.58c.79-.88,1.86-1.34,3.2-1.34ZM494.37,194.94c-.94,0-1.68.35-2.22,1.04-.55.7-.82,1.64-.82,2.83s.27,2.14.82,2.83c.55.7,1.29,1.04,2.22,1.04s1.66-.34,2.21-1.04c.55-.69.82-1.64.82-2.83s-.27-2.13-.82-2.83c-.55-.69-1.29-1.04-2.21-1.04Z"/>
  <path class="cls-5" d="M447.07,223.07c1.33,0,2.6-.53,3.54-1.46.94-.94,1.46-2.21,1.46-3.54s-.53-2.6-1.46-3.54c-.94-.94-2.21-1.46-3.54-1.46s-2.6.53-3.54,1.46c-.94.94-1.46,2.21-1.46,3.54s.53,2.6,1.46,3.54,2.21,1.46,3.54,1.46Z"/>
  <path class="cls-39" d="M471.6,213.15h1.29v5.76c0,1.01.18,1.76.55,2.2.36.44.96.66,1.79.66s1.42-.22,1.78-.66.56-1.18.56-2.2v-5.76h1.29v5.92c0,1.25-.31,2.17-.92,2.79-.61.62-1.51.94-2.7.94s-2.11-.31-2.72-.94c-.61-.62-.91-1.55-.91-2.79v-5.92Z"/>
  <polygon class="cls-39" points="481.26 213.15 482.99 213.15 487.18 221.08 487.18 213.15 488.43 213.15 488.43 222.62 486.7 222.62 482.5 214.69 482.5 222.62 481.26 222.62 481.26 213.15"/>
  <rect class="cls-39" x="490.98" y="213.15" width="1.29" height="9.48"/>
  <polygon class="cls-39" points="494.82 213.15 500.26 213.15 500.26 214.22 496.1 214.22 496.1 217.02 499.86 217.02 499.86 218.1 496.1 218.1 496.1 222.62 494.82 222.62 494.82 213.15"/>
  <g>
    <rect class="cls-40" x="428.87" y="131.23" width="78.58" height="99.29" rx="2.6" ry="2.6"/>
    <rect class="cls-12" x="428.87" y="131.23" width="78.58" height="99.29" rx="2.6" ry="2.6"/>
  </g>
  <polygon class="cls-23" points="447.07 136.76 442.07 146.76 452.07 146.76 447.07 136.76"/>
  <polygon class="cls-39" points="471.74 136.83 473.65 136.83 476.07 143.28 478.5 136.83 480.41 136.83 480.41 146.31 479.16 146.31 479.16 137.99 476.72 144.49 475.43 144.49 472.99 137.99 472.99 146.31 471.74 146.31 471.74 136.83"/>
  <polygon class="cls-39" points="485.4 146.31 481.79 136.83 483.13 136.83 486.13 144.81 489.13 136.83 490.47 136.83 486.86 146.31 485.4 146.31"/>
  <rect class="cls-39" x="491.85" y="136.83" width="1.29" height="9.48"/>
  <path class="cls-39" d="M495.69,136.83h2.9c1.05,0,1.86.25,2.4.73.55.48.82,1.18.82,2.11s-.27,1.65-.82,2.12c-.55.48-1.35.71-2.4.71h-1.61v3.81h-1.29v-9.48ZM496.97,137.89v3.56h1.61c.6,0,1.05-.14,1.38-.46.33-.31.49-.75.49-1.33s-.17-1-.49-1.31c-.32-.31-.78-.47-1.38-.47h-1.61Z"/>
  <rect class="cls-27" x="442.07" y="155.84" width="10" height="10"/>
  <polygon class="cls-39" points="471.74 155.91 473.03 155.91 473.03 164.31 477.64 164.31 477.64 165.39 471.74 165.39 471.74 155.91"/>
  <polygon class="cls-39" points="478.98 155.91 484.43 155.91 484.43 156.99 480.27 156.99 480.27 159.78 484.03 159.78 484.03 160.86 480.27 160.86 480.27 165.39 478.98 165.39 478.98 155.91"/>
  <path class="cls-39" d="M486.31,155.91h1.29v5.76c0,1.01.18,1.76.55,2.2.36.44.96.66,1.79.66s1.42-.22,1.78-.66.56-1.18.56-2.2v-5.76h1.29v5.92c0,1.25-.31,2.17-.92,2.79-.61.62-1.51.94-2.7.94s-2.11-.31-2.72-.94c-.61-.62-.91-1.55-.91-2.79v-5.92Z"/>
  <path class="cls-16" d="M442.07,174.92l10,10M442.07,184.92l10-10"/>
  <polygon class="cls-39" points="471.74 174.99 473.03 174.99 473.03 183.39 477.64 183.39 477.64 184.47 471.74 184.47 471.74 174.99"/>
  <path class="cls-39" d="M480.27,176.04v3.37h1.61c.61,0,1.08-.14,1.39-.43.31-.29.48-.7.48-1.26s-.17-.96-.48-1.25c-.31-.29-.78-.43-1.39-.43h-1.61ZM483.48,180.02c.27.1.55.3.81.6.26.31.52.73.78,1.26l1.3,2.59h-1.38l-1.21-2.43c-.31-.62-.62-1.05-.91-1.26-.3-.21-.7-.31-1.21-.31h-1.39v4h-1.29v-9.48h2.9c1.08,0,1.89.23,2.42.68.53.46.81,1.14.81,2.05,0,.6-.14,1.1-.42,1.49-.29.39-.69.66-1.21.81Z"/>
  <path class="cls-39" d="M487.87,174.99h1.29v5.76c0,1.01.18,1.76.55,2.2.36.44.96.66,1.79.66s1.42-.22,1.78-.66.56-1.18.56-2.2v-5.76h1.29v5.92c0,1.25-.31,2.17-.92,2.79-.61.62-1.51.94-2.7.94s-2.11-.31-2.72-.94c-.61-.62-.91-1.55-.91-2.79v-5.92Z"/>
  <polygon class="cls-7" points="447.07 206.07 451.31 198.99 447.07 191.92 442.82 198.99 447.07 206.07"/>
  <polygon class="cls-39" points="471.74 194.07 477.19 194.07 477.19 195.15 473.03 195.15 473.03 197.94 476.78 197.94 476.78 199.02 473.03 199.02 473.03 203.54 471.74 203.54 471.74 194.07"/>
  <rect class="cls-39" x="479.22" y="194.07" width="1.29" height="9.48"/>
  <polygon class="cls-39" points="483.05 194.07 488.5 194.07 488.5 195.15 484.34 195.15 484.34 197.94 488.09 197.94 488.09 199.02 484.34 199.02 484.34 203.54 483.05 203.54 483.05 194.07"/>
  <path class="cls-39" d="M494.37,193.9c1.33,0,2.38.46,3.18,1.34.79.88,1.2,2.08,1.2,3.58s-.4,2.69-1.2,3.57c-.81.88-1.86,1.33-3.18,1.33s-2.4-.44-3.2-1.33c-.81-.88-1.2-2.07-1.2-3.57s.39-2.69,1.2-3.58c.79-.88,1.86-1.34,3.2-1.34ZM494.37,194.94c-.94,0-1.68.35-2.22,1.04-.55.7-.82,1.64-.82,2.83s.27,2.14.82,2.83c.55.7,1.29,1.04,2.22,1.04s1.66-.34,2.21-1.04c.55-.69.82-1.64.82-2.83s-.27-2.13-.82-2.83c-.55-.69-1.29-1.04-2.21-1.04Z"/>
  <path class="cls-5" d="M447.07,223.07c1.33,0,2.6-.53,3.54-1.46.94-.94,1.46-2.21,1.46-3.54s-.53-2.6-1.46-3.54c-.94-.94-2.21-1.46-3.54-1.46s-2.6.53-3.54,1.46c-.94.94-1.46,2.21-1.46,3.54s.53,2.6,1.46,3.54,2.21,1.46,3.54,1.46Z"/>
  <path class="cls-39" d="M471.6,213.15h1.29v5.76c0,1.01.18,1.76.55,2.2.36.44.96.66,1.79.66s1.42-.22,1.78-.66.56-1.18.56-2.2v-5.76h1.29v5.92c0,1.25-.31,2.17-.92,2.79-.61.62-1.51.94-2.7.94s-2.11-.31-2.72-.94c-.61-.62-.91-1.55-.91-2.79v-5.92Z"/>
  <polygon class="cls-39" points="481.26 213.15 482.99 213.15 487.18 221.08 487.18 213.15 488.43 213.15 488.43 222.62 486.7 222.62 482.5 214.69 482.5 222.62 481.26 222.62 481.26 213.15"/>
  <rect class="cls-39" x="490.98" y="213.15" width="1.29" height="9.48"/>
  <polygon class="cls-39" points="494.82 213.15 500.26 213.15 500.26 214.22 496.1 214.22 496.1 217.02 499.86 217.02 499.86 218.1 496.1 218.1 496.1 222.62 494.82 222.62 494.82 213.15"/>
</svg>