<?xml version="1.0" encoding="UTF-8"?>
<svg xmlns="http://www.w3.org/2000/svg" version="1.1" xmlns:xlink="http://www.w3.org/1999/xlink" viewBox="0 0 523.76 340.19">
  <defs>
    <style>
      .cls-1 {
        clip-path: url(#clippath-76);
      }

      .cls-2 {
        clip-path: url(#clippath-51);
      }

      .cls-3 {
        stroke: #ccc;
      }

      .cls-3, .cls-4, .cls-5, .cls-6, .cls-7, .cls-8, .cls-9, .cls-10, .cls-11, .cls-12, .cls-13, .cls-14, .cls-15, .cls-16, .cls-17, .cls-18, .cls-19, .cls-20, .cls-21, .cls-22, .cls-23, .cls-24, .cls-25, .cls-26, .cls-27, .cls-28, .cls-29 {
        fill: none;
      }

      .cls-3, .cls-4, .cls-6, .cls-9, .cls-11, .cls-12, .cls-18, .cls-21 {
        stroke-miterlimit: 10;
      }

      .cls-3, .cls-30 {
        opacity: .8;
      }

      .cls-31 {
        clip-path: url(#clippath-34);
      }

      .cls-32 {
        clip-path: url(#clippath-107);
      }

      .cls-33 {
        clip-path: url(#clippath-38);
      }

      .cls-34 {
        clip-path: url(#clippath-21);
      }

      .cls-4, .cls-9, .cls-15, .cls-25 {
        stroke: #bf00bf;
      }

      .cls-35 {
        clip-path: url(#clippath-6);
      }

      .cls-36 {
        clip-path: url(#clippath-7);
      }

      .cls-37 {
        clip-path: url(#clippath-17);
      }

      .cls-38 {
        clip-path: url(#clippath-80);
      }

      .cls-39 {
        clip-path: url(#clippath-31);
      }

      .cls-5, .cls-7, .cls-8, .cls-10, .cls-13, .cls-15, .cls-16, .cls-17, .cls-19, .cls-20, .cls-22, .cls-23, .cls-24, .cls-25, .cls-26, .cls-27, .cls-28, .cls-29 {
        stroke-linejoin: round;
      }

      .cls-5, .cls-10, .cls-13, .cls-15, .cls-16, .cls-17, .cls-19, .cls-22, .cls-24, .cls-25, .cls-27, .cls-28 {
        stroke-width: 1.5px;
      }

      .cls-5, .cls-15, .cls-16, .cls-18, .cls-19, .cls-22, .cls-27 {
        stroke-linecap: square;
      }

      .cls-5, .cls-17, .cls-18, .cls-20 {
        stroke: #000;
      }

      .cls-40 {
        clip-path: url(#clippath-79);
      }

      .cls-41 {
        clip-path: url(#clippath-75);
      }

      .cls-42 {
        clip-path: url(#clippath-15);
      }

      .cls-43 {
        clip-path: url(#clippath-33);
      }

      .cls-44 {
        clip-path: url(#clippath-61);
      }

      .cls-6, .cls-8, .cls-9, .cls-21, .cls-23 {
        stroke-width: 2px;
      }

      .cls-6, .cls-12, .cls-19, .cls-24 {
        stroke: blue;
      }

      .cls-45 {
        clip-path: url(#clippath-100);
      }

      .cls-46 {
        clip-path: url(#clippath-18);
      }

      .cls-47 {
        clip-path: url(#clippath-47);
      }

      .cls-48 {
        clip-path: url(#clippath-4);
      }

      .cls-49 {
        clip-path: url(#clippath-71);
      }

      .cls-50 {
        clip-path: url(#clippath-22);
      }

      .cls-51 {
        clip-path: url(#clippath-103);
      }

      .cls-52 {
        clip-path: url(#clippath-23);
      }

      .cls-7 {
        opacity: .5;
        stroke: #b0b0b0;
        stroke-dasharray: 2.96 1.28;
      }

      .cls-7, .cls-18, .cls-20 {
        stroke-width: .8px;
      }

      .cls-8, .cls-16, .cls-26, .cls-28 {
        stroke: green;
      }

      .cls-53 {
        clip-path: url(#clippath-82);
      }

      .cls-54 {
        clip-path: url(#clippath-54);
      }

      .cls-55 {
        clip-path: url(#clippath-66);
      }

      .cls-56 {
        clip-path: url(#clippath-114);
      }

      .cls-57 {
        clip-path: url(#clippath-9);
      }

      .cls-58 {
        clip-path: url(#clippath-102);
      }

      .cls-59 {
        clip-path: url(#clippath-70);
      }

      .cls-60 {
        clip-path: url(#clippath-10);
      }

      .cls-61 {
        clip-path: url(#clippath-42);
      }

      .cls-62 {
        clip-path: url(#clippath-59);
      }

      .cls-63, .cls-30 {
        fill: #fff;
      }

      .cls-10, .cls-13, .cls-17, .cls-24, .cls-25, .cls-28 {
        stroke-dasharray: 5.55 2.4;
      }

      .cls-10, .cls-23, .cls-27, .cls-29 {
        stroke: #bfbf00;
      }

      .cls-64 {
        clip-path: url(#clippath-43);
      }

      .cls-65 {
        clip-path: url(#clippath-64);
      }

      .cls-66 {
        clip-path: url(#clippath-101);
      }

      .cls-11, .cls-13, .cls-21, .cls-22 {
        stroke: red;
      }

      .cls-67 {
        clip-path: url(#clippath-25);
      }

      .cls-68 {
        clip-path: url(#clippath-27);
      }

      .cls-69 {
        clip-path: url(#clippath-109);
      }

      .cls-70 {
        clip-path: url(#clippath-60);
      }

      .cls-71 {
        clip-path: url(#clippath-113);
      }

      .cls-72 {
        clip-path: url(#clippath-93);
      }

      .cls-73 {
        clip-path: url(#clippath-11);
      }

      .cls-74 {
        clip-path: url(#clippath-57);
      }

      .cls-75 {
        clip-path: url(#clippath-88);
      }

      .cls-76 {
        clip-path: url(#clippath-85);
      }

      .cls-77 {
        clip-path: url(#clippath-111);
      }

      .cls-78 {
        clip-path: url(#clippath-105);
      }

      .cls-79 {
        clip-path: url(#clippath-36);
      }

      .cls-80 {
        clip-path: url(#clippath-92);
      }

      .cls-81 {
        clip-path: url(#clippath-35);
      }

      .cls-82 {
        clip-path: url(#clippath-98);
      }

      .cls-83 {
        clip-path: url(#clippath-48);
      }

      .cls-84 {
        clip-path: url(#clippath-104);
      }

      .cls-85 {
        clip-path: url(#clippath-28);
      }

      .cls-86 {
        clip-path: url(#clippath-1);
      }

      .cls-87 {
        clip-path: url(#clippath-56);
      }

      .cls-88 {
        clip-path: url(#clippath-108);
      }

      .cls-89 {
        clip-path: url(#clippath-90);
      }

      .cls-90 {
        clip-path: url(#clippath-45);
      }

      .cls-91 {
        clip-path: url(#clippath-110);
      }

      .cls-92 {
        clip-path: url(#clippath-99);
      }

      .cls-93 {
        clip-path: url(#clippath-89);
      }

      .cls-94 {
        clip-path: url(#clippath-46);
      }

      .cls-95 {
        clip-path: url(#clippath-40);
      }

      .cls-96 {
        clip-path: url(#clippath-96);
      }

      .cls-97 {
        clip-path: url(#clippath-5);
      }

      .cls-98 {
        clip-path: url(#clippath-20);
      }

      .cls-99 {
        clip-path: url(#clippath-95);
      }

      .cls-100 {
        clip-path: url(#clippath-8);
      }

      .cls-101 {
        clip-path: url(#clippath-52);
      }

      .cls-102 {
        clip-path: url(#clippath-41);
      }

      .cls-103 {
        clip-path: url(#clippath-67);
      }

      .cls-104 {
        clip-path: url(#clippath-74);
      }

      .cls-105 {
        clip-path: url(#clippath-3);
      }

      .cls-106 {
        clip-path: url(#clippath-26);
      }

      .cls-107 {
        clip-path: url(#clippath-91);
      }

      .cls-108 {
        clip-path: url(#clippath-12);
      }

      .cls-109 {
        clip-path: url(#clippath-50);
      }

      .cls-110 {
        clip-path: url(#clippath-14);
      }

      .cls-111 {
        clip-path: url(#clippath-97);
      }

      .cls-112 {
        clip-path: url(#clippath-30);
      }

      .cls-113 {
        clip-path: url(#clippath-112);
      }

      .cls-114 {
        clip-path: url(#clippath-77);
      }

      .cls-115 {
        clip-path: url(#clippath-19);
      }

      .cls-116 {
        clip-path: url(#clippath-78);
      }

      .cls-117 {
        clip-path: url(#clippath-72);
      }

      .cls-118 {
        clip-path: url(#clippath-84);
      }

      .cls-119 {
        clip-path: url(#clippath-32);
      }

      .cls-120 {
        clip-path: url(#clippath-55);
      }

      .cls-121 {
        clip-path: url(#clippath-73);
      }

      .cls-122 {
        clip-path: url(#clippath-53);
      }

      .cls-123 {
        clip-path: url(#clippath-39);
      }

      .cls-124 {
        clip-path: url(#clippath-81);
      }

      .cls-125 {
        clip-path: url(#clippath-106);
      }

      .cls-126 {
        clip-path: url(#clippath-16);
      }

      .cls-127 {
        clip-path: url(#clippath-2);
      }

      .cls-128 {
        clip-path: url(#clippath-29);
      }

      .cls-129 {
        clip-path: url(#clippath-49);
      }

      .cls-130 {
        clip-path: url(#clippath-37);
      }

      .cls-131 {
        clip-path: url(#clippath-58);
      }

      .cls-132 {
        clip-path: url(#clippath-13);
      }

      .cls-133 {
        clip-path: url(#clippath-86);
      }

      .cls-134 {
        clip-path: url(#clippath-63);
      }

      .cls-135 {
        clip-path: url(#clippath-24);
      }

      .cls-136 {
        clip-path: url(#clippath-94);
      }

      .cls-137 {
        clip-path: url(#clippath);
      }

      .cls-138 {
        clip-path: url(#clippath-87);
      }

      .cls-139 {
        clip-path: url(#clippath-68);
      }

      .cls-140 {
        clip-path: url(#clippath-83);
      }

      .cls-141 {
        clip-path: url(#clippath-65);
      }

      .cls-142 {
        clip-path: url(#clippath-44);
      }

      .cls-143 {
        clip-path: url(#clippath-115);
      }

      .cls-144 {
        clip-path: url(#clippath-62);
      }

      .cls-145 {
        clip-path: url(#clippath-69);
      }
    </style>
    <clipPath id="clippath">
      <rect class="cls-14" x="39.72" y="19.12" width="372.19" height="277.2"/>
    </clipPath>
    <clipPath id="clippath-1">
      <rect class="cls-14" x="39.72" y="19.12" width="372.19" height="277.2"/>
    </clipPath>
    <clipPath id="clippath-2">
      <rect class="cls-14" x="39.72" y="19.12" width="372.19" height="277.2"/>
    </clipPath>
    <clipPath id="clippath-3">
      <rect class="cls-14" x="39.72" y="19.12" width="372.19" height="277.2"/>
    </clipPath>
    <clipPath id="clippath-4">
      <rect class="cls-14" x="39.72" y="19.12" width="372.19" height="277.2"/>
    </clipPath>
    <clipPath id="clippath-5">
      <rect class="cls-14" x="39.72" y="19.12" width="372.19" height="277.2"/>
    </clipPath>
    <clipPath id="clippath-6">
      <rect class="cls-14" x="39.72" y="19.12" width="372.19" height="277.2"/>
    </clipPath>
    <clipPath id="clippath-7">
      <rect class="cls-14" x="39.72" y="19.12" width="372.19" height="277.2"/>
    </clipPath>
    <clipPath id="clippath-8">
      <rect class="cls-14" x="39.72" y="19.12" width="372.19" height="277.2"/>
    </clipPath>
    <clipPath id="clippath-9">
      <rect class="cls-14" x="288.37" y="309.89" width="42.22" height="25.44"/>
    </clipPath>
    <clipPath id="clippath-10">
      <rect class="cls-14" x="39.72" y="19.12" width="372.19" height="277.2"/>
    </clipPath>
    <clipPath id="clippath-11">
      <rect class="cls-14" x="39.72" y="19.12" width="372.19" height="277.2"/>
    </clipPath>
    <clipPath id="clippath-12">
      <rect class="cls-14" x="39.72" y="19.12" width="372.19" height="277.2"/>
    </clipPath>
    <clipPath id="clippath-13">
      <rect class="cls-14" x="39.72" y="19.12" width="372.19" height="277.2"/>
    </clipPath>
    <clipPath id="clippath-14">
      <rect class="cls-14" x="39.72" y="19.12" width="372.19" height="277.2"/>
    </clipPath>
    <clipPath id="clippath-15">
      <rect class="cls-14" x="39.72" y="19.12" width="372.19" height="277.2"/>
    </clipPath>
    <clipPath id="clippath-16">
      <rect class="cls-14" x="39.72" y="19.12" width="372.19" height="277.2"/>
    </clipPath>
    <clipPath id="clippath-17">
      <rect class="cls-14" x="48.63" y="159.54" width="16" height="16"/>
    </clipPath>
    <clipPath id="clippath-18">
      <rect class="cls-14" x="90.93" y="224.83" width="16" height="16"/>
    </clipPath>
    <clipPath id="clippath-19">
      <rect class="cls-14" x="133.22" y="247.71" width="16" height="16"/>
    </clipPath>
    <clipPath id="clippath-20">
      <rect class="cls-14" x="175.51" y="259.36" width="16" height="16"/>
    </clipPath>
    <clipPath id="clippath-21">
      <rect class="cls-14" x="217.81" y="266.54" width="16" height="16"/>
    </clipPath>
    <clipPath id="clippath-22">
      <rect class="cls-14" x="260.1" y="271.22" width="16" height="16"/>
    </clipPath>
    <clipPath id="clippath-23">
      <rect class="cls-14" x="302.4" y="273.58" width="16" height="16"/>
    </clipPath>
    <clipPath id="clippath-24">
      <rect class="cls-14" x="344.69" y="275" width="16" height="16"/>
    </clipPath>
    <clipPath id="clippath-25">
      <rect class="cls-14" x="386.98" y="275.72" width="16" height="16"/>
    </clipPath>
    <clipPath id="clippath-26">
      <rect class="cls-14" x="39.72" y="19.12" width="372.19" height="277.2"/>
    </clipPath>
    <clipPath id="clippath-27">
      <rect class="cls-14" x="48.63" y="164.99" width="16" height="16"/>
    </clipPath>
    <clipPath id="clippath-28">
      <rect class="cls-14" x="90.93" y="237.14" width="16" height="16"/>
    </clipPath>
    <clipPath id="clippath-29">
      <rect class="cls-14" x="133.22" y="255.58" width="16" height="16"/>
    </clipPath>
    <clipPath id="clippath-30">
      <rect class="cls-14" x="175.51" y="257.09" width="16" height="16"/>
    </clipPath>
    <clipPath id="clippath-31">
      <rect class="cls-14" x="217.81" y="253.49" width="16" height="16"/>
    </clipPath>
    <clipPath id="clippath-32">
      <rect class="cls-14" x="260.1" y="248.07" width="16" height="16"/>
    </clipPath>
    <clipPath id="clippath-33">
      <rect class="cls-14" x="302.4" y="241.25" width="16" height="16"/>
    </clipPath>
    <clipPath id="clippath-34">
      <rect class="cls-14" x="344.69" y="233.61" width="16" height="16"/>
    </clipPath>
    <clipPath id="clippath-35">
      <rect class="cls-14" x="386.98" y="225.26" width="16" height="16"/>
    </clipPath>
    <clipPath id="clippath-36">
      <rect class="cls-14" x="39.72" y="19.12" width="372.19" height="277.2"/>
    </clipPath>
    <clipPath id="clippath-37">
      <rect class="cls-14" x="48.63" y="120.17" width="16" height="16"/>
    </clipPath>
    <clipPath id="clippath-38">
      <rect class="cls-14" x="90.93" y="141.24" width="16" height="16"/>
    </clipPath>
    <clipPath id="clippath-39">
      <rect class="cls-14" x="133.22" y="122.32" width="16" height="16"/>
    </clipPath>
    <clipPath id="clippath-40">
      <rect class="cls-14" x="175.51" y="98.73" width="16" height="16"/>
    </clipPath>
    <clipPath id="clippath-41">
      <rect class="cls-14" x="217.81" y="74.64" width="16" height="16"/>
    </clipPath>
    <clipPath id="clippath-42">
      <rect class="cls-14" x="260.1" y="57.32" width="16" height="16"/>
    </clipPath>
    <clipPath id="clippath-43">
      <rect class="cls-14" x="302.4" y="43.25" width="16" height="16"/>
    </clipPath>
    <clipPath id="clippath-44">
      <rect class="cls-14" x="344.69" y="31.13" width="16" height="16"/>
    </clipPath>
    <clipPath id="clippath-45">
      <rect class="cls-14" x="386.98" y="23.72" width="16" height="16"/>
    </clipPath>
    <clipPath id="clippath-46">
      <rect class="cls-14" x="39.72" y="19.12" width="372.19" height="277.2"/>
    </clipPath>
    <clipPath id="clippath-47">
      <rect class="cls-14" x="49.09" y="89.15" width="15.09" height="18.49"/>
    </clipPath>
    <clipPath id="clippath-48">
      <rect class="cls-14" x="91.38" y="88.39" width="15.09" height="18.49"/>
    </clipPath>
    <clipPath id="clippath-49">
      <rect class="cls-14" x="133.68" y="93.01" width="15.09" height="18.49"/>
    </clipPath>
    <clipPath id="clippath-50">
      <rect class="cls-14" x="175.97" y="96.65" width="15.09" height="18.49"/>
    </clipPath>
    <clipPath id="clippath-51">
      <rect class="cls-14" x="218.26" y="99.08" width="15.09" height="18.49"/>
    </clipPath>
    <clipPath id="clippath-52">
      <rect class="cls-14" x="260.56" y="100.85" width="15.09" height="18.49"/>
    </clipPath>
    <clipPath id="clippath-53">
      <rect class="cls-14" x="302.85" y="103.58" width="15.09" height="18.49"/>
    </clipPath>
    <clipPath id="clippath-54">
      <rect class="cls-14" x="345.14" y="106.67" width="15.09" height="18.49"/>
    </clipPath>
    <clipPath id="clippath-55">
      <rect class="cls-14" x="387.44" y="109.78" width="15.09" height="18.49"/>
    </clipPath>
    <clipPath id="clippath-56">
      <rect class="cls-14" x="39.72" y="19.12" width="372.19" height="277.2"/>
    </clipPath>
    <clipPath id="clippath-57">
      <rect class="cls-14" x="48.63" y="91.31" width="16" height="16"/>
    </clipPath>
    <clipPath id="clippath-58">
      <rect class="cls-14" x="90.93" y="99.01" width="16" height="16"/>
    </clipPath>
    <clipPath id="clippath-59">
      <rect class="cls-14" x="133.22" y="106.87" width="16" height="16"/>
    </clipPath>
    <clipPath id="clippath-60">
      <rect class="cls-14" x="175.51" y="114.86" width="16" height="16"/>
    </clipPath>
    <clipPath id="clippath-61">
      <rect class="cls-14" x="217.81" y="122.21" width="16" height="16"/>
    </clipPath>
    <clipPath id="clippath-62">
      <rect class="cls-14" x="260.1" y="126.66" width="16" height="16"/>
    </clipPath>
    <clipPath id="clippath-63">
      <rect class="cls-14" x="302.4" y="130.76" width="16" height="16"/>
    </clipPath>
    <clipPath id="clippath-64">
      <rect class="cls-14" x="344.69" y="134.12" width="16" height="16"/>
    </clipPath>
    <clipPath id="clippath-65">
      <rect class="cls-14" x="386.98" y="138.52" width="16" height="16"/>
    </clipPath>
    <clipPath id="clippath-66">
      <rect class="cls-14" x="39.72" y="19.12" width="372.19" height="277.2"/>
    </clipPath>
    <clipPath id="clippath-67">
      <rect class="cls-14" x="48.63" y="159.59" width="16" height="16"/>
    </clipPath>
    <clipPath id="clippath-68">
      <rect class="cls-14" x="90.93" y="165.62" width="16" height="16"/>
    </clipPath>
    <clipPath id="clippath-69">
      <rect class="cls-14" x="133.22" y="170.88" width="16" height="16"/>
    </clipPath>
    <clipPath id="clippath-70">
      <rect class="cls-14" x="175.51" y="175.45" width="16" height="16"/>
    </clipPath>
    <clipPath id="clippath-71">
      <rect class="cls-14" x="217.81" y="179.93" width="16" height="16"/>
    </clipPath>
    <clipPath id="clippath-72">
      <rect class="cls-14" x="260.1" y="183.96" width="16" height="16"/>
    </clipPath>
    <clipPath id="clippath-73">
      <rect class="cls-14" x="302.4" y="186.79" width="16" height="16"/>
    </clipPath>
    <clipPath id="clippath-74">
      <rect class="cls-14" x="344.69" y="189.84" width="16" height="16"/>
    </clipPath>
    <clipPath id="clippath-75">
      <rect class="cls-14" x="386.98" y="193.26" width="16" height="16"/>
    </clipPath>
    <clipPath id="clippath-76">
      <rect class="cls-14" x="39.72" y="19.12" width="372.19" height="277.2"/>
    </clipPath>
    <clipPath id="clippath-77">
      <rect class="cls-14" x="48.63" y="164.99" width="16" height="16"/>
    </clipPath>
    <clipPath id="clippath-78">
      <rect class="cls-14" x="90.93" y="171.13" width="16" height="16"/>
    </clipPath>
    <clipPath id="clippath-79">
      <rect class="cls-14" x="133.22" y="176.86" width="16" height="16"/>
    </clipPath>
    <clipPath id="clippath-80">
      <rect class="cls-14" x="175.51" y="180.96" width="16" height="16"/>
    </clipPath>
    <clipPath id="clippath-81">
      <rect class="cls-14" x="217.81" y="185.93" width="16" height="16"/>
    </clipPath>
    <clipPath id="clippath-82">
      <rect class="cls-14" x="260.1" y="190.03" width="16" height="16"/>
    </clipPath>
    <clipPath id="clippath-83">
      <rect class="cls-14" x="302.4" y="192.95" width="16" height="16"/>
    </clipPath>
    <clipPath id="clippath-84">
      <rect class="cls-14" x="344.69" y="196.25" width="16" height="16"/>
    </clipPath>
    <clipPath id="clippath-85">
      <rect class="cls-14" x="386.98" y="200.36" width="16" height="16"/>
    </clipPath>
    <clipPath id="clippath-86">
      <rect class="cls-14" x="39.72" y="19.12" width="372.19" height="277.2"/>
    </clipPath>
    <clipPath id="clippath-87">
      <rect class="cls-14" x="48.63" y="120.17" width="16" height="16"/>
    </clipPath>
    <clipPath id="clippath-88">
      <rect class="cls-14" x="90.93" y="124.85" width="16" height="16"/>
    </clipPath>
    <clipPath id="clippath-89">
      <rect class="cls-14" x="133.22" y="129.14" width="16" height="16"/>
    </clipPath>
    <clipPath id="clippath-90">
      <rect class="cls-14" x="175.51" y="133.95" width="16" height="16"/>
    </clipPath>
    <clipPath id="clippath-91">
      <rect class="cls-14" x="217.81" y="137.35" width="16" height="16"/>
    </clipPath>
    <clipPath id="clippath-92">
      <rect class="cls-14" x="260.1" y="141.01" width="16" height="16"/>
    </clipPath>
    <clipPath id="clippath-93">
      <rect class="cls-14" x="302.4" y="143.64" width="16" height="16"/>
    </clipPath>
    <clipPath id="clippath-94">
      <rect class="cls-14" x="344.69" y="147.05" width="16" height="16"/>
    </clipPath>
    <clipPath id="clippath-95">
      <rect class="cls-14" x="386.98" y="149.26" width="16" height="16"/>
    </clipPath>
    <clipPath id="clippath-96">
      <rect class="cls-14" x="39.72" y="19.12" width="372.19" height="277.2"/>
    </clipPath>
    <clipPath id="clippath-97">
      <rect class="cls-14" x="49.09" y="89.15" width="15.09" height="18.49"/>
    </clipPath>
    <clipPath id="clippath-98">
      <rect class="cls-14" x="91.38" y="93.58" width="15.09" height="18.49"/>
    </clipPath>
    <clipPath id="clippath-99">
      <rect class="cls-14" x="133.68" y="96.75" width="15.09" height="18.49"/>
    </clipPath>
    <clipPath id="clippath-100">
      <rect class="cls-14" x="175.97" y="98.75" width="15.09" height="18.49"/>
    </clipPath>
    <clipPath id="clippath-101">
      <rect class="cls-14" x="218.26" y="102.72" width="15.09" height="18.49"/>
    </clipPath>
    <clipPath id="clippath-102">
      <rect class="cls-14" x="260.56" y="104.33" width="15.09" height="18.49"/>
    </clipPath>
    <clipPath id="clippath-103">
      <rect class="cls-14" x="302.85" y="106.98" width="15.09" height="18.49"/>
    </clipPath>
    <clipPath id="clippath-104">
      <rect class="cls-14" x="345.14" y="109.88" width="15.09" height="18.49"/>
    </clipPath>
    <clipPath id="clippath-105">
      <rect class="cls-14" x="387.44" y="111.98" width="15.09" height="18.49"/>
    </clipPath>
    <clipPath id="clippath-106">
      <rect class="cls-14" x="39.72" y="19.12" width="372.19" height="277.2"/>
    </clipPath>
    <clipPath id="clippath-107">
      <rect class="cls-14" x="48.63" y="91.07" width="16" height="16"/>
    </clipPath>
    <clipPath id="clippath-108">
      <rect class="cls-14" x="90.93" y="94.37" width="16" height="16"/>
    </clipPath>
    <clipPath id="clippath-109">
      <rect class="cls-14" x="133.22" y="97.57" width="16" height="16"/>
    </clipPath>
    <clipPath id="clippath-110">
      <rect class="cls-14" x="175.51" y="99.91" width="16" height="16"/>
    </clipPath>
    <clipPath id="clippath-111">
      <rect class="cls-14" x="217.81" y="103.57" width="16" height="16"/>
    </clipPath>
    <clipPath id="clippath-112">
      <rect class="cls-14" x="260.1" y="106.04" width="16" height="16"/>
    </clipPath>
    <clipPath id="clippath-113">
      <rect class="cls-14" x="302.4" y="108.95" width="16" height="16"/>
    </clipPath>
    <clipPath id="clippath-114">
      <rect class="cls-14" x="344.69" y="111.56" width="16" height="16"/>
    </clipPath>
    <clipPath id="clippath-115">
      <rect class="cls-14" x="386.98" y="113.68" width="16" height="16"/>
    </clipPath>
  </defs>
  <!-- Generator: Adobe Illustrator 28.6.0, SVG Export Plug-In . SVG Version: 1.2.0 Build 709)  -->
  <g>
    <g id="Layer_1">
      <rect class="cls-63" width="523.76" height="340.19"/>
      <rect class="cls-63" x="39.72" y="19.12" width="372.19" height="277.2"/>
      <g class="cls-137">
        <line class="cls-7" x1="56.63" y1="296.32" x2="56.63" y2="19.12"/>
      </g>
      <line x1="56.63" y1="296.32" x2="56.63" y2="299.82"/>
      <line class="cls-20" x1="56.63" y1="296.32" x2="56.63" y2="299.82"/>
      <path d="M56.63,303.5c.81,0,1.43.33,1.87.97.43.65.65,1.59.65,2.81s-.22,2.17-.65,2.81c-.44.64-1.06.96-1.88.96s-1.44-.32-1.87-.96-.64-1.58-.64-2.81.21-2.16.64-2.81c.43-.64,1.06-.97,1.88-.97ZM56.63,304.28c-.51,0-.89.25-1.15.75-.26.5-.38,1.25-.38,2.25s.12,1.75.38,2.25c.26.5.64.75,1.15.75s.89-.25,1.15-.75c.25-.5.38-1.25.38-2.25s-.13-1.75-.38-2.25c-.26-.5-.64-.75-1.15-.75Z"/>
      <g class="cls-86">
        <line class="cls-7" x1="98.93" y1="296.32" x2="98.93" y2="19.12"/>
      </g>
      <line x1="98.93" y1="296.32" x2="98.93" y2="299.82"/>
      <line class="cls-20" x1="98.93" y1="296.32" x2="98.93" y2="299.82"/>
      <polygon points="96.99 310.09 98.6 310.09 98.6 304.53 96.85 304.88 96.85 303.98 98.59 303.63 99.58 303.63 99.58 310.09 101.19 310.09 101.19 310.92 96.99 310.92 96.99 310.09"/>
      <g class="cls-127">
        <line class="cls-7" x1="141.22" y1="296.32" x2="141.22" y2="19.12"/>
      </g>
      <line x1="141.22" y1="296.32" x2="141.22" y2="299.82"/>
      <line class="cls-20" x1="141.22" y1="296.32" x2="141.22" y2="299.82"/>
      <path d="M139.96,310.09h3.44v.83h-4.63v-.83c.37-.38.88-.9,1.53-1.56.64-.65,1.05-1.07,1.22-1.26.32-.35.54-.65.66-.9.12-.24.19-.49.19-.73,0-.38-.14-.7-.41-.94-.27-.24-.62-.37-1.06-.37-.31,0-.64.06-.98.16-.34.11-.71.27-1.1.49v-1c.4-.16.77-.28,1.11-.36.34-.08.66-.12.95-.12.75,0,1.35.19,1.8.57.45.38.68.88.68,1.51,0,.3-.06.59-.17.85-.11.27-.31.59-.61.95-.08.1-.34.37-.78.82-.44.45-1.05,1.08-1.84,1.89Z"/>
      <g class="cls-105">
        <line class="cls-7" x1="183.51" y1="296.32" x2="183.51" y2="19.12"/>
      </g>
      <line x1="183.51" y1="296.32" x2="183.51" y2="299.82"/>
      <line class="cls-20" x1="183.51" y1="296.32" x2="183.51" y2="299.82"/>
      <path d="M184.4,306.99c.47.1.84.31,1.1.63.26.32.4.72.4,1.18,0,.72-.25,1.28-.74,1.67-.5.39-1.2.58-2.11.58-.31,0-.63-.03-.95-.09-.32-.05-.66-.14-1-.26v-.95c.27.16.57.28.9.36.32.08.66.12,1.02.12.62,0,1.09-.12,1.41-.36.32-.24.49-.6.49-1.07,0-.42-.15-.76-.45-1-.3-.24-.72-.37-1.26-.37h-.85v-.81h.89c.48,0,.85-.09,1.11-.29.26-.19.39-.47.39-.84s-.14-.66-.4-.86c-.27-.2-.65-.3-1.14-.3-.27,0-.56.03-.87.09s-.65.15-1.02.27v-.88c.37-.1.72-.18,1.05-.23.32-.05.63-.08.93-.08.74,0,1.33.17,1.77.51s.66.8.66,1.38c0,.4-.12.74-.35,1.02-.23.28-.56.48-.98.58Z"/>
      <g class="cls-48">
        <line class="cls-7" x1="225.81" y1="296.32" x2="225.81" y2="19.12"/>
      </g>
      <line x1="225.81" y1="296.32" x2="225.81" y2="299.82"/>
      <line class="cls-20" x1="225.81" y1="296.32" x2="225.81" y2="299.82"/>
      <path d="M226.15,303.63h1.24v4.75h1.04v.82h-1.04v1.72h-.98v-1.72h-3.29v-.95l3.03-4.62ZM226.41,304.49l-2.49,3.89h2.49v-3.89Z"/>
      <g class="cls-97">
        <line class="cls-7" x1="268.1" y1="296.32" x2="268.1" y2="19.12"/>
      </g>
      <line x1="268.1" y1="296.32" x2="268.1" y2="299.82"/>
      <line class="cls-20" x1="268.1" y1="296.32" x2="268.1" y2="299.82"/>
      <path d="M266,303.63h3.87v.83h-2.97v1.79c.14-.05.29-.09.43-.11.14-.02.29-.04.43-.04.81,0,1.45.23,1.93.67.48.45.72,1.05.72,1.81s-.25,1.4-.74,1.83-1.18.64-2.06.64c-.31,0-.62-.03-.94-.07-.32-.05-.64-.12-.98-.23v-.99c.29.16.59.28.91.36.31.08.64.11.99.11.56,0,1.01-.14,1.34-.44.32-.3.49-.7.49-1.21s-.17-.9-.49-1.2c-.33-.3-.78-.45-1.34-.45-.26,0-.53.03-.79.09-.26.06-.53.15-.8.27v-3.66Z"/>
      <g class="cls-35">
        <line class="cls-7" x1="310.4" y1="296.32" x2="310.4" y2="19.12"/>
      </g>
      <line x1="310.4" y1="296.32" x2="310.4" y2="299.82"/>
      <line class="cls-20" x1="310.4" y1="296.32" x2="310.4" y2="299.82"/>
      <path d="M312.48,303.79v.9c-.25-.12-.5-.21-.75-.27-.26-.06-.51-.09-.75-.09-.66,0-1.16.22-1.5.66s-.54,1.11-.58,1.99c.19-.28.43-.5.72-.65s.61-.23.96-.23c.73,0,1.31.23,1.73.67.42.44.64,1.05.64,1.81s-.23,1.35-.67,1.8c-.44.45-1.03.67-1.76.67-.84,0-1.49-.32-1.93-.96-.45-.64-.67-1.58-.67-2.81,0-1.15.27-2.07.82-2.75.54-.68,1.28-1.03,2.2-1.03.24,0,.49.03.75.07.25.05.51.12.79.22ZM310.52,306.88c-.44,0-.79.16-1.05.46-.26.3-.39.72-.39,1.24s.13.95.39,1.25.61.45,1.05.45.79-.15,1.05-.45c.26-.3.39-.72.39-1.25s-.13-.94-.39-1.24c-.26-.3-.61-.46-1.05-.46Z"/>
      <g class="cls-36">
        <line class="cls-7" x1="352.69" y1="296.32" x2="352.69" y2="19.12"/>
      </g>
      <line x1="352.69" y1="296.32" x2="352.69" y2="299.82"/>
      <line class="cls-20" x1="352.69" y1="296.32" x2="352.69" y2="299.82"/>
      <polygon points="350.33 303.63 355.02 303.63 355.02 304.05 352.37 310.92 351.34 310.92 353.83 304.46 350.33 304.46 350.33 303.63"/>
      <g class="cls-100">
        <line class="cls-7" x1="394.98" y1="296.32" x2="394.98" y2="19.12"/>
      </g>
      <line x1="394.98" y1="296.32" x2="394.98" y2="299.82"/>
      <line class="cls-20" x1="394.98" y1="296.32" x2="394.98" y2="299.82"/>
      <path d="M393.63,305.48c0,.38.11.68.35.89.24.21.57.31,1,.31s.75-.1.99-.31c.24-.21.36-.51.36-.89s-.12-.67-.36-.88c-.24-.21-.57-.32-.99-.32s-.76.11-1,.32c-.24.21-.35.5-.35.88ZM393.99,307.04c-.42-.1-.75-.3-.99-.59-.24-.29-.35-.64-.35-1.06,0-.58.2-1.04.62-1.38.41-.34.98-.51,1.71-.51s1.29.17,1.71.51c.41.34.62.8.62,1.38,0,.42-.12.77-.36,1.06-.24.29-.56.49-.98.59.47.11.84.33,1.11.65.26.32.4.72.4,1.18,0,.71-.22,1.25-.65,1.62-.44.38-1.06.56-1.86.56s-1.42-.18-1.85-.56c-.43-.37-.64-.91-.64-1.62,0-.46.13-.86.4-1.18.26-.32.63-.54,1.11-.65ZM394.98,307.46c-.47,0-.84.13-1.11.38-.27.25-.4.59-.4,1.03s.13.79.4,1.04c.27.25.64.37,1.11.37s.83-.12,1.1-.38c.27-.25.41-.59.41-1.03s-.14-.78-.4-1.03c-.27-.25-.64-.38-1.11-.38Z"/>
      <path d="M133.1,317.45h1.68l4.17,10.94h-1.54l-.99-2.81h-4.93l-.99,2.81h-1.56l4.17-10.94ZM133.94,318.9l-2.01,5.44h4.02l-2.01-5.44Z"/>
      <path d="M141.29,324.29c0,.99.19,1.77.6,2.34.4.57.96.84,1.68.84s1.27-.27,1.7-.84c.4-.57.61-1.35.61-2.34s-.21-1.75-.61-2.32c-.42-.57-.98-.86-1.7-.86s-1.27.28-1.68.86c-.41.57-.6,1.33-.6,2.32ZM145.88,321.42v-4.44h1.35v11.4h-1.35v-1.23c-.29.5-.65.86-1.08,1.08-.43.22-.94.34-1.54.34-.99,0-1.8-.39-2.43-1.17-.63-.78-.93-1.83-.93-3.12s.3-2.32.93-3.12c.63-.78,1.44-1.18,2.43-1.18.6,0,1.11.12,1.54.36s.79.6,1.08,1.08Z"/>
      <path d="M150.81,324.29c0,.99.19,1.77.6,2.34.4.57.96.84,1.68.84s1.27-.27,1.7-.84c.4-.57.61-1.35.61-2.34s-.21-1.75-.61-2.32c-.42-.57-.98-.86-1.7-.86s-1.27.28-1.68.86c-.41.57-.6,1.33-.6,2.32ZM155.4,321.42v-4.44h1.35v11.4h-1.35v-1.23c-.29.5-.65.86-1.08,1.08-.43.22-.94.34-1.54.34-.99,0-1.8-.39-2.43-1.17-.63-.78-.93-1.83-.93-3.12s.3-2.32.93-3.12c.63-.78,1.44-1.18,2.43-1.18.6,0,1.11.12,1.54.36s.79.6,1.08,1.08Z"/>
      <path d="M165.19,323.55c-.01-.73-.23-1.32-.62-1.77-.4-.44-.94-.66-1.6-.66-.75,0-1.35.22-1.8.64s-.72,1.02-.78,1.78h4.8ZM166.54,323.94v.66h-6.19c.06.93.33,1.65.84,2.13.5.48,1.18.72,2.09.72.51,0,1.02-.06,1.5-.18.48-.12.97-.32,1.46-.59v1.27c-.48.21-.98.38-1.49.47-.51.09-1.04.15-1.54.15-1.32,0-2.36-.38-3.12-1.12s-1.14-1.78-1.14-3.09.36-2.4,1.08-3.2c.72-.78,1.71-1.18,2.94-1.18,1.11,0,1.98.36,2.62,1.07.63.72.96,1.68.96,2.9Z"/>
      <path d="M169.56,324.29c0,.99.19,1.77.6,2.34.4.57.96.84,1.68.84s1.27-.27,1.7-.84c.4-.57.61-1.35.61-2.34s-.21-1.75-.61-2.32c-.42-.57-.98-.86-1.7-.86s-1.27.28-1.68.86c-.41.57-.6,1.33-.6,2.32ZM174.15,321.42v-4.44h1.35v11.4h-1.35v-1.23c-.29.5-.65.86-1.08,1.08-.43.22-.94.34-1.54.34-.99,0-1.8-.39-2.43-1.17-.63-.78-.93-1.83-.93-3.12s.3-2.32.93-3.12c.63-.78,1.44-1.18,2.43-1.18.6,0,1.11.12,1.54.36s.79.6,1.08,1.08Z"/>
      <path d="M188.95,320.49v1.26c-.39-.21-.77-.36-1.16-.47s-.76-.16-1.15-.16c-.87,0-1.56.28-2.04.84-.48.55-.72,1.33-.72,2.32s.24,1.78.72,2.34,1.17.82,2.04.82c.39,0,.76-.05,1.15-.15.39-.11.76-.27,1.16-.48v1.25c-.39.18-.78.31-1.17.39-.4.07-.84.12-1.29.12-1.23,0-2.22-.38-2.94-1.15-.74-.77-1.1-1.82-1.1-3.14s.36-2.39,1.1-3.15,1.74-1.16,3.03-1.16c.42,0,.82.05,1.21.14s.78.21,1.16.38Z"/>
      <path d="M197.71,323.7v4.68h-1.35v-1.24c-.32.51-.71.87-1.15,1.1-.45.22-1.02.34-1.68.34-.84,0-1.51-.22-2.01-.69-.49-.47-.74-1.1-.74-1.89,0-.91.3-1.61.93-2.09.62-.47,1.53-.7,2.76-.7h1.89v-.14c0-.61-.21-1.09-.61-1.44-.4-.33-.98-.51-1.71-.51-.48,0-.93.06-1.38.18-.45.12-.87.29-1.27.5v-1.25c.48-.18.96-.33,1.43-.42s.91-.15,1.36-.15c1.19,0,2.07.32,2.66.93.58.61.88,1.55.88,2.79ZM195.02,324.26c-1.1,0-1.85.13-2.26.38-.42.26-.63.68-.63,1.27,0,.48.15.87.46,1.14.32.28.75.42,1.29.42.75,0,1.35-.26,1.8-.8.45-.52.68-1.23.68-2.11v-.3h-1.33Z"/>
      <path d="M206.39,320.49v1.26c-.39-.21-.77-.36-1.16-.47s-.76-.16-1.15-.16c-.87,0-1.56.28-2.04.84-.48.55-.72,1.33-.72,2.32s.24,1.78.72,2.34,1.17.82,2.04.82c.39,0,.76-.05,1.15-.15.39-.11.76-.27,1.16-.48v1.25c-.39.18-.78.31-1.17.39-.4.07-.84.12-1.29.12-1.23,0-2.22-.38-2.94-1.15-.74-.77-1.1-1.82-1.1-3.14s.36-2.39,1.1-3.15,1.74-1.16,3.03-1.16c.42,0,.82.05,1.21.14s.78.21,1.16.38Z"/>
      <path d="M215.55,323.43v4.95h-1.35v-4.9c0-.78-.16-1.35-.46-1.74-.3-.39-.75-.58-1.35-.58-.74,0-1.31.24-1.73.7s-.63,1.09-.63,1.89v4.63h-1.35v-11.4h1.35v4.47c.32-.48.69-.85,1.14-1.09.43-.24.95-.38,1.51-.38.93,0,1.65.3,2.13.89s.74,1.44.74,2.57Z"/>
      <path d="M223.9,323.55c-.01-.73-.23-1.32-.62-1.77-.4-.44-.94-.66-1.6-.66-.75,0-1.35.22-1.8.64s-.72,1.02-.78,1.78h4.8ZM225.25,323.94v.66h-6.19c.06.93.33,1.65.84,2.13.5.48,1.18.72,2.09.72.51,0,1.02-.06,1.5-.18.48-.12.97-.32,1.46-.59v1.27c-.48.21-.98.38-1.49.47-.51.09-1.04.15-1.54.15-1.32,0-2.36-.38-3.12-1.12s-1.14-1.78-1.14-3.09.36-2.4,1.08-3.2c.72-.78,1.71-1.18,2.94-1.18,1.11,0,1.98.36,2.62,1.07.63.72.96,1.68.96,2.9Z"/>
      <path d="M238.14,320.49v1.26c-.39-.21-.77-.36-1.16-.47s-.76-.16-1.15-.16c-.87,0-1.56.28-2.04.84-.48.55-.72,1.33-.72,2.32s.24,1.78.72,2.34,1.17.82,2.04.82c.39,0,.76-.05,1.15-.15.39-.11.76-.27,1.16-.48v1.25c-.39.18-.78.31-1.17.39-.4.07-.84.12-1.29.12-1.23,0-2.22-.38-2.94-1.15-.74-.77-1.1-1.82-1.1-3.14s.36-2.39,1.1-3.15,1.74-1.16,3.03-1.16c.42,0,.82.05,1.21.14s.78.21,1.16.38Z"/>
      <path d="M246.9,323.7v4.68h-1.35v-1.24c-.32.51-.71.87-1.15,1.1-.45.22-1.02.34-1.68.34-.84,0-1.51-.22-2.01-.69-.49-.47-.74-1.1-.74-1.89,0-.91.3-1.61.93-2.09.62-.47,1.53-.7,2.76-.7h1.89v-.14c0-.61-.21-1.09-.61-1.44-.4-.33-.98-.51-1.71-.51-.48,0-.93.06-1.38.18-.45.12-.87.29-1.27.5v-1.25c.48-.18.96-.33,1.43-.42s.91-.15,1.36-.15c1.19,0,2.07.32,2.66.93.58.61.88,1.55.88,2.79ZM244.21,324.26c-1.1,0-1.85.13-2.26.38-.42.26-.63.68-.63,1.27,0,.48.15.87.46,1.14.32.28.75.42,1.29.42.75,0,1.35-.26,1.8-.8.45-.52.68-1.23.68-2.11v-.3h-1.33Z"/>
      <path d="M255.56,324.29c0-.99-.21-1.75-.61-2.32-.42-.57-.98-.86-1.68-.86s-1.27.28-1.68.86c-.42.57-.62,1.33-.62,2.32s.2,1.77.62,2.34c.4.57.96.84,1.68.84s1.26-.27,1.68-.84c.4-.57.61-1.35.61-2.34ZM250.97,327.15v4.34h-1.35v-11.31h1.35v1.24c.27-.48.63-.84,1.07-1.08s.96-.36,1.56-.36c.99,0,1.8.41,2.43,1.18.62.8.93,1.83.93,3.12s-.32,2.34-.93,3.12c-.63.78-1.44,1.17-2.43,1.17-.6,0-1.12-.12-1.56-.34-.43-.23-.79-.59-1.07-1.08Z"/>
      <path d="M265.61,323.7v4.68h-1.35v-1.24c-.32.51-.71.87-1.15,1.1-.45.22-1.02.34-1.68.34-.84,0-1.51-.22-2.01-.69s-.74-1.1-.74-1.89c0-.91.3-1.61.93-2.09.62-.47,1.53-.7,2.76-.7h1.89v-.14c0-.61-.21-1.09-.62-1.44-.4-.33-.97-.51-1.71-.51-.48,0-.93.06-1.38.18-.45.12-.87.29-1.27.5v-1.25c.48-.18.96-.33,1.42-.42.47-.09.92-.15,1.37-.15,1.18,0,2.07.32,2.65.93.58.61.88,1.55.88,2.79ZM262.93,324.26c-1.1,0-1.85.13-2.26.38-.42.26-.63.68-.63,1.27,0,.48.15.87.46,1.14.32.28.75.42,1.29.42.75,0,1.35-.26,1.8-.8.45-.52.68-1.23.68-2.11v-.3h-1.34Z"/>
      <path d="M274.29,320.49v1.26c-.39-.21-.77-.36-1.15-.47-.39-.1-.77-.16-1.15-.16-.87,0-1.56.28-2.04.84-.48.55-.72,1.33-.72,2.32s.24,1.78.72,2.34,1.17.82,2.04.82c.39,0,.76-.05,1.15-.15.39-.11.76-.27,1.15-.48v1.25c-.39.18-.78.31-1.17.39-.4.07-.84.12-1.29.12-1.23,0-2.22-.38-2.94-1.15-.74-.77-1.1-1.82-1.1-3.14s.36-2.39,1.1-3.15c.73-.76,1.74-1.16,3.03-1.16.42,0,.82.05,1.21.14.39.09.78.21,1.15.38Z"/>
      <path d="M276.63,316.98h1.35v1.71h-1.35v-1.71ZM276.63,320.18h1.35v8.2h-1.35v-8.2Z"/>
      <path d="M282.13,317.85v2.33h2.77v1.05h-2.77v4.45c0,.67.09,1.11.27,1.29.18.19.55.28,1.12.28h1.38v1.12h-1.38c-1.05,0-1.77-.19-2.16-.59-.39-.39-.59-1.1-.59-2.11v-4.45h-.99v-1.05h.99v-2.33h1.35Z"/>
      <path d="M290.1,329.13c-.39.96-.76,1.61-1.12,1.9-.36.3-.84.45-1.44.45h-1.08v-1.12h.8c.36,0,.64-.09.85-.27.21-.18.43-.59.69-1.24l.24-.6-3.32-8.07h1.42l2.57,6.42,2.57-6.42h1.42l-3.6,8.95Z"/>
      <polygon points="295.9 326.52 297.45 326.52 297.45 327.78 296.25 330.11 295.3 330.11 295.9 327.78 295.9 326.52"/>
      <polygon points="316.46 317.45 317.95 317.45 316.07 327.15 321.4 327.15 321.16 328.38 314.35 328.38 316.46 317.45"/>
      <g class="cls-57">
        <path d="M303.8,328.38l4.17-10.93h1.68l4.17,10.93h-10.02ZM308.81,318.9l-3,8.25h6l-3-8.25Z"/>
      </g>
      <g class="cls-60">
        <line class="cls-7" x1="39.72" y1="261.1" x2="411.9" y2="261.1"/>
      </g>
      <line x1="39.72" y1="261.1" x2="36.22" y2="261.1"/>
      <line class="cls-20" x1="39.72" y1="261.1" x2="36.22" y2="261.1"/>
      <path d="M29.78,260.39c.47.1.84.31,1.1.63.26.32.4.72.4,1.18,0,.72-.25,1.28-.74,1.67-.5.39-1.2.58-2.11.58-.31,0-.63-.03-.95-.09-.32-.05-.66-.14-1-.26v-.95c.27.16.57.28.9.36.32.08.66.12,1.02.12.62,0,1.09-.12,1.41-.36.32-.24.49-.6.49-1.07,0-.42-.15-.76-.45-1-.3-.24-.72-.37-1.26-.37h-.85v-.81h.89c.48,0,.85-.09,1.11-.29.26-.19.39-.47.39-.84s-.14-.66-.4-.86c-.27-.2-.65-.3-1.14-.3-.27,0-.56.03-.87.09s-.65.15-1.02.27v-.88c.37-.1.72-.18,1.05-.23.32-.05.63-.08.93-.08.74,0,1.33.17,1.77.51.44.34.66.8.66,1.38,0,.4-.12.74-.35,1.02s-.56.48-.98.58Z"/>
      <g class="cls-73">
        <line class="cls-7" x1="39.72" y1="218.82" x2="411.9" y2="218.82"/>
      </g>
      <line x1="39.72" y1="218.82" x2="36.22" y2="218.82"/>
      <line class="cls-20" x1="39.72" y1="218.82" x2="36.22" y2="218.82"/>
      <path d="M29.24,214.62h1.24v4.75h1.04v.82h-1.04v1.72h-.98v-1.72h-3.29v-.95l3.03-4.62ZM29.5,215.48l-2.49,3.89h2.49v-3.89Z"/>
      <g class="cls-108">
        <line class="cls-7" x1="39.72" y1="176.54" x2="411.9" y2="176.54"/>
      </g>
      <line x1="39.72" y1="176.54" x2="36.22" y2="176.54"/>
      <line class="cls-20" x1="39.72" y1="176.54" x2="36.22" y2="176.54"/>
      <path d="M26.8,172.35h3.87v.83h-2.97v1.79c.14-.05.29-.09.43-.11s.29-.04.43-.04c.81,0,1.45.23,1.93.67.48.45.72,1.05.72,1.81s-.25,1.4-.74,1.83c-.49.43-1.18.64-2.06.64-.31,0-.62-.03-.94-.07-.32-.05-.64-.12-.98-.23v-.99c.29.16.59.28.91.36.31.08.64.11.99.11.56,0,1.01-.14,1.34-.44.32-.3.49-.7.49-1.21s-.17-.9-.49-1.2c-.33-.3-.78-.45-1.34-.45-.26,0-.53.03-.79.09-.26.06-.53.15-.8.27v-3.66Z"/>
      <g class="cls-132">
        <line class="cls-7" x1="39.72" y1="134.26" x2="411.9" y2="134.26"/>
      </g>
      <line x1="39.72" y1="134.26" x2="36.22" y2="134.26"/>
      <line class="cls-20" x1="39.72" y1="134.26" x2="36.22" y2="134.26"/>
      <path d="M30.98,130.35v.9c-.25-.12-.5-.21-.75-.27-.26-.06-.51-.09-.75-.09-.66,0-1.16.22-1.5.66-.34.44-.54,1.11-.58,1.99.19-.28.43-.5.72-.65.29-.15.61-.23.96-.23.73,0,1.31.23,1.73.67.42.44.64,1.05.64,1.81s-.23,1.35-.67,1.8c-.44.45-1.03.67-1.76.67-.84,0-1.49-.32-1.93-.96-.45-.64-.67-1.58-.67-2.81,0-1.15.27-2.07.82-2.75.54-.68,1.28-1.03,2.2-1.03.24,0,.49.03.75.07.25.05.51.12.79.22ZM29.02,133.44c-.44,0-.79.16-1.05.46s-.39.72-.39,1.24.13.95.39,1.25.61.45,1.05.45.79-.15,1.05-.45.39-.72.39-1.25-.13-.94-.39-1.24-.61-.46-1.05-.46Z"/>
      <g class="cls-110">
        <line class="cls-7" x1="39.72" y1="91.99" x2="411.9" y2="91.99"/>
      </g>
      <line x1="39.72" y1="91.99" x2="36.22" y2="91.99"/>
      <line class="cls-20" x1="39.72" y1="91.99" x2="36.22" y2="91.99"/>
      <polygon points="26.54 87.79 31.23 87.79 31.23 88.21 28.58 95.08 27.55 95.08 30.04 88.62 26.54 88.62 26.54 87.79"/>
      <g class="cls-42">
        <line class="cls-7" x1="39.72" y1="49.71" x2="411.9" y2="49.71"/>
      </g>
      <line x1="39.72" y1="49.71" x2="36.22" y2="49.71"/>
      <line class="cls-20" x1="39.72" y1="49.71" x2="36.22" y2="49.71"/>
      <path d="M27.55,47.49c0,.38.11.68.35.89.24.21.57.31,1,.31s.75-.1.99-.31c.24-.21.36-.51.36-.89s-.12-.67-.36-.88c-.24-.21-.57-.32-.99-.32s-.76.11-1,.32c-.24.21-.35.5-.35.88ZM27.91,49.05c-.42-.1-.75-.3-.99-.59-.24-.29-.35-.64-.35-1.06,0-.58.2-1.04.62-1.38.41-.34.98-.51,1.71-.51s1.29.17,1.71.51c.41.34.62.8.62,1.38,0,.42-.12.77-.36,1.06-.24.29-.56.49-.98.59.47.11.84.33,1.11.65.26.32.4.72.4,1.18,0,.71-.22,1.25-.65,1.62-.44.38-1.06.56-1.86.56s-1.42-.18-1.85-.56c-.43-.37-.64-.91-.64-1.62,0-.46.13-.86.4-1.18.26-.32.63-.54,1.11-.65ZM28.9,49.47c-.47,0-.84.13-1.11.38s-.4.59-.4,1.03.13.79.4,1.04.64.37,1.11.37.83-.12,1.1-.38c.27-.25.41-.59.41-1.03s-.14-.78-.4-1.03c-.27-.25-.64-.38-1.11-.38Z"/>
      <polygon points="7.66 219.05 7.66 209.81 8.9 209.81 8.9 213.69 18.59 213.69 18.59 215.18 8.9 215.18 8.9 219.05 7.66 219.05"/>
      <path d="M10.19,207.81c0-1.17.39-2.09,1.14-2.76.76-.66,1.82-1,3.16-1s2.4.35,3.15,1c.76.68,1.14,1.59,1.14,2.76s-.38,2.11-1.14,2.77c-.75.66-1.8.99-3.15.99s-2.4-.33-3.16-.99c-.75-.66-1.14-1.59-1.14-2.77ZM11.33,207.81c0,.72.28,1.29.85,1.71.57.42,1.34.63,2.31.63s1.76-.2,2.32-.62.84-.99.84-1.72-.27-1.29-.84-1.71-1.33-.63-2.32-.63-1.74.21-2.31.63c-.57.42-.85.99-.85,1.71Z"/>
      <path d="M8.06,200.48h2.33v-2.78h1.05v2.78h4.46c.68,0,1.11-.09,1.29-.27.19-.18.28-.56.28-1.12v-1.38h1.12v1.38c0,1.05-.19,1.77-.58,2.16-.39.39-1.1.58-2.12.58h-4.46v.99h-1.05v-.99h-2.33v-1.35Z"/>
      <path d="M13.91,189.51h4.68v1.35h-1.25c.51.32.87.71,1.1,1.15s.34,1.02.34,1.68c0,.84-.23,1.51-.69,2.01-.46.49-1.09.74-1.89.74-.91,0-1.6-.3-2.09-.93-.47-.62-.7-1.53-.7-2.76v-1.89h-.14c-.61,0-1.1.21-1.44.61-.33.4-.51.98-.51,1.71,0,.48.06.93.18,1.38.12.45.28.87.49,1.27h-1.24c-.18-.48-.33-.96-.42-1.43s-.15-.91-.15-1.36c0-1.19.32-2.07.93-2.66.61-.58,1.55-.88,2.79-.88ZM14.47,192.2c0,1.1.14,1.85.38,2.26.26.42.68.63,1.27.63.48,0,.87-.15,1.14-.46.28-.32.42-.75.42-1.29,0-.75-.25-1.35-.79-1.8-.53-.45-1.23-.67-2.12-.67h-.3v1.33Z"/>
      <rect x="7.19" y="185.39" width="11.4" height="1.35"/>
      <path d="M14.5,176.99c.99,0,1.77-.19,2.34-.6.57-.4.84-.96.84-1.68s-.27-1.27-.84-1.7c-.57-.4-1.35-.61-2.34-.61s-1.76.21-2.32.61c-.57.42-.85.98-.85,1.7s.28,1.27.85,1.68c.57.41,1.34.6,2.32.6ZM11.63,172.4h-4.44v-1.35h11.4v1.35h-1.23c.49.29.85.65,1.08,1.08s.34.94.34,1.54c0,.99-.39,1.8-1.17,2.43-.78.63-1.83.93-3.12.93s-2.32-.3-3.12-.93c-.78-.63-1.19-1.44-1.19-2.43,0-.6.12-1.11.36-1.54.24-.43.6-.79,1.08-1.08Z"/>
      <path d="M13.76,162.6c-.74.01-1.32.23-1.77.62-.43.4-.66.94-.66,1.6,0,.75.23,1.35.65,1.8s1.02.72,1.78.78v-4.8ZM14.15,161.25h.66v6.2c.93-.06,1.65-.33,2.13-.84.48-.5.72-1.18.72-2.09,0-.51-.06-1.02-.18-1.5-.12-.48-.31-.97-.58-1.46h1.27c.21.48.38.98.47,1.49.09.51.15,1.04.15,1.54,0,1.32-.38,2.36-1.12,3.12s-1.78,1.14-3.09,1.14-2.4-.36-3.19-1.08c-.78-.72-1.19-1.71-1.19-2.94,0-1.11.36-1.98,1.06-2.62.72-.63,1.68-.96,2.9-.96Z"/>
      <rect x="7.19" y="157.7" width="11.4" height="1.35"/>
      <path d="M13.91,148.46h4.68v1.35h-1.25c.51.32.87.71,1.1,1.15s.34,1.02.34,1.68c0,.84-.23,1.51-.69,2.01-.46.49-1.09.74-1.89.74-.91,0-1.6-.3-2.09-.93-.47-.62-.7-1.53-.7-2.76v-1.89h-.14c-.61,0-1.1.21-1.44.61-.33.4-.51.98-.51,1.71,0,.48.06.93.18,1.38.12.45.28.87.49,1.27h-1.24c-.18-.48-.33-.96-.42-1.43s-.15-.91-.15-1.36c0-1.19.32-2.07.93-2.66.61-.58,1.55-.88,2.79-.88ZM14.47,151.14c0,1.1.14,1.85.38,2.26.26.42.68.63,1.27.63.48,0,.87-.15,1.14-.46.28-.32.42-.75.42-1.29,0-.75-.25-1.35-.79-1.8-.53-.45-1.23-.67-2.12-.67h-.3v1.33Z"/>
      <path d="M19.34,142.26c.96.39,1.6.76,1.91,1.12.3.36.45.84.45,1.44v1.08h-1.12v-.79c0-.36-.09-.65-.27-.86-.18-.21-.58-.43-1.24-.69l-.6-.24-8.07,3.32v-1.43l6.42-2.57-6.42-2.57v-1.43l8.95,3.6Z"/>
      <path d="M7.21,128.79c1.14.66,2.25,1.14,3.35,1.45,1.1.33,2.2.48,3.33.48s2.25-.15,3.35-.48c1.11-.31,2.2-.79,3.33-1.45v1.17c-1.16.74-2.26,1.29-3.38,1.65s-2.2.54-3.3.54-2.18-.18-3.29-.54c-1.11-.36-2.23-.9-3.39-1.65v-1.17Z"/>
      <path d="M10.63,120.95h1.27c-.18.39-.33.78-.43,1.18-.09.42-.15.84-.15,1.28,0,.68.1,1.18.31,1.51s.51.49.91.49c.32,0,.56-.12.73-.36.18-.24.36-.72.51-1.44l.11-.46c.21-.96.51-1.63.87-2.04.38-.39.9-.6,1.56-.6.76,0,1.36.3,1.8.9.45.6.66,1.44.66,2.49,0,.45-.05.9-.12,1.38-.08.48-.2.97-.38,1.5h-1.4c.27-.49.47-.99.58-1.47.14-.48.19-.96.19-1.44,0-.63-.1-1.12-.31-1.47-.21-.33-.53-.51-.93-.51-.36,0-.65.13-.84.38-.19.24-.39.78-.57,1.62l-.11.46c-.18.84-.45,1.46-.81,1.82-.36.38-.85.56-1.5.56-.76,0-1.36-.27-1.78-.81-.42-.54-.63-1.32-.63-2.34,0-.49.05-.96.12-1.41.08-.43.18-.84.32-1.21Z"/>
      <path d="M13.76,112.7c-.74.01-1.32.23-1.77.62-.43.4-.66.94-.66,1.6,0,.75.23,1.35.65,1.8s1.02.72,1.78.78v-4.8ZM14.15,111.35h.66v6.2c.93-.06,1.65-.33,2.13-.84.48-.5.72-1.18.72-2.09,0-.51-.06-1.02-.18-1.5-.12-.48-.31-.97-.58-1.46h1.27c.21.48.38.98.47,1.49.09.51.15,1.04.15,1.54,0,1.32-.38,2.36-1.12,3.12s-1.78,1.14-3.09,1.14-2.4-.36-3.19-1.08c-.78-.72-1.19-1.71-1.19-2.94,0-1.11.36-1.98,1.06-2.62.72-.63,1.68-.96,2.9-.96Z"/>
      <path d="M10.7,103.23h1.26c-.21.39-.36.77-.47,1.16s-.16.76-.16,1.15c0,.87.28,1.56.84,2.04s1.34.72,2.32.72,1.79-.24,2.34-.72c.56-.48.83-1.17.83-2.04,0-.39-.05-.76-.15-1.15s-.27-.76-.48-1.16h1.24c.18.39.32.78.39,1.17.07.4.12.84.12,1.29,0,1.23-.38,2.22-1.15,2.94-.77.74-1.82,1.1-3.14,1.1s-2.39-.36-3.15-1.1c-.76-.74-1.15-1.74-1.15-3.03,0-.42.05-.82.14-1.21s.21-.78.38-1.16Z"/>
      <path d="M7.21,101.1v-1.17c1.15-.72,2.28-1.28,3.39-1.64,1.11-.36,2.2-.55,3.29-.55s2.19.19,3.3.55,2.22.92,3.38,1.64v1.17c-1.12-.65-2.22-1.12-3.33-1.46-1.09-.32-2.2-.48-3.35-.48s-2.23.16-3.33.48c-1.1.33-2.21.81-3.35,1.46Z"/>
      <polygon points="46.73 9.78 44.5 12.02 46.73 14.25 46.15 14.84 43.91 12.6 41.67 14.84 41.09 14.25 43.32 12.02 41.09 9.78 41.67 9.19 43.91 11.43 46.15 9.19 46.73 9.78"/>
      <polygon points="49.33 14.32 50.94 14.32 50.94 8.76 49.19 9.11 49.19 8.21 50.93 7.86 51.92 7.86 51.92 14.32 53.53 14.32 53.53 15.15 49.33 15.15 49.33 14.32"/>
      <path d="M57.64,7.73c.81,0,1.43.33,1.87.97.43.65.65,1.59.65,2.81s-.22,2.17-.65,2.81c-.44.64-1.06.96-1.88.96s-1.44-.32-1.87-.96c-.43-.64-.64-1.58-.64-2.81s.21-2.16.64-2.81c.43-.64,1.06-.97,1.88-.97ZM57.64,8.51c-.51,0-.89.25-1.15.75-.26.5-.38,1.25-.38,2.25s.12,1.75.38,2.25c.26.5.64.75,1.15.75s.89-.25,1.15-.75c.25-.5.38-1.25.38-2.25s-.13-1.75-.38-2.25c-.26-.5-.64-.75-1.15-.75Z"/>
      <path d="M64.6,6.33v.63c-.18-.08-.35-.15-.53-.19-.18-.04-.36-.06-.53-.06-.46,0-.81.15-1.05.46s-.38.78-.41,1.39c.13-.2.3-.35.5-.46.2-.1.43-.16.67-.16.51,0,.92.16,1.21.47.29.31.45.73.45,1.27s-.16.95-.47,1.26c-.31.32-.72.47-1.23.47-.59,0-1.04-.22-1.35-.67-.31-.45-.47-1.11-.47-1.97,0-.8.19-1.45.57-1.92.38-.48.9-.72,1.54-.72.17,0,.34.02.53.05.17.04.36.08.55.15ZM63.22,8.49c-.31,0-.55.11-.74.32-.18.21-.27.5-.27.87s.09.67.27.88.43.32.74.32.55-.11.74-.32c.18-.21.27-.5.27-.88s-.09-.66-.27-.87c-.18-.21-.43-.32-.74-.32Z"/>
      <g class="cls-126">
        <polyline class="cls-22" points="56.63 167.54 98.93 232.83 141.22 255.71 183.51 267.36 225.81 274.54 268.1 279.22 310.4 281.58 352.69 283 394.98 283.72"/>
        <g class="cls-37">
          <polygon class="cls-11" points="56.63 164.54 53.63 170.54 59.63 170.54 56.63 164.54"/>
        </g>
        <g class="cls-46">
          <polygon class="cls-11" points="98.93 229.83 95.93 235.83 101.93 235.83 98.93 229.83"/>
        </g>
        <g class="cls-115">
          <polygon class="cls-11" points="141.22 252.71 138.22 258.71 144.22 258.71 141.22 252.71"/>
        </g>
        <g class="cls-98">
          <polygon class="cls-11" points="183.51 264.36 180.51 270.36 186.51 270.36 183.51 264.36"/>
        </g>
        <g class="cls-34">
          <polygon class="cls-11" points="225.81 271.54 222.81 277.54 228.81 277.54 225.81 271.54"/>
        </g>
        <g class="cls-50">
          <polygon class="cls-11" points="268.1 276.22 265.1 282.22 271.1 282.22 268.1 276.22"/>
        </g>
        <g class="cls-52">
          <polygon class="cls-11" points="310.4 278.58 307.4 284.58 313.4 284.58 310.4 278.58"/>
        </g>
        <g class="cls-135">
          <polygon class="cls-11" points="352.69 280 349.69 286 355.69 286 352.69 280"/>
        </g>
        <g class="cls-67">
          <polygon class="cls-11" points="394.98 280.72 391.98 286.72 397.98 286.72 394.98 280.72"/>
        </g>
      </g>
      <g class="cls-106">
        <polyline class="cls-19" points="56.63 172.99 98.93 245.14 141.22 263.58 183.51 265.09 225.81 261.49 268.1 256.07 310.4 249.25 352.69 241.61 394.98 233.26"/>
        <g class="cls-68">
          <rect class="cls-12" x="53.63" y="169.99" width="6" height="6"/>
        </g>
        <g class="cls-85">
          <rect class="cls-12" x="95.93" y="242.14" width="6" height="6"/>
        </g>
        <g class="cls-128">
          <rect class="cls-12" x="138.22" y="260.58" width="6" height="6"/>
        </g>
        <g class="cls-112">
          <rect class="cls-12" x="180.51" y="262.09" width="6" height="6"/>
        </g>
        <g class="cls-39">
          <rect class="cls-12" x="222.81" y="258.49" width="6" height="6"/>
        </g>
        <g class="cls-119">
          <rect class="cls-12" x="265.1" y="253.07" width="6" height="6"/>
        </g>
        <g class="cls-43">
          <rect class="cls-12" x="307.4" y="246.25" width="6" height="6"/>
        </g>
        <g class="cls-31">
          <rect class="cls-12" x="349.69" y="238.61" width="6" height="6"/>
        </g>
        <g class="cls-81">
          <rect class="cls-12" x="391.98" y="230.26" width="6" height="6"/>
        </g>
      </g>
      <g class="cls-79">
        <polyline class="cls-16" points="56.63 128.17 98.93 149.24 141.22 130.32 183.51 106.73 225.81 82.64 268.1 65.32 310.4 51.25 352.69 39.13 394.98 31.72"/>
        <g class="cls-130">
          <path class="cls-26" d="M53.63,125.17l6,6M53.63,131.17l6-6"/>
        </g>
        <g class="cls-33">
          <path class="cls-26" d="M95.93,146.24l6,6M95.93,152.24l6-6"/>
        </g>
        <g class="cls-123">
          <path class="cls-26" d="M138.22,127.32l6,6M138.22,133.32l6-6"/>
        </g>
        <g class="cls-95">
          <path class="cls-26" d="M180.51,103.73l6,6M180.51,109.73l6-6"/>
        </g>
        <g class="cls-102">
          <path class="cls-26" d="M222.81,79.64l6,6M222.81,85.64l6-6"/>
        </g>
        <g class="cls-61">
          <path class="cls-26" d="M265.1,62.32l6,6M265.1,68.32l6-6"/>
        </g>
        <g class="cls-64">
          <path class="cls-26" d="M307.4,48.25l6,6M307.4,54.25l6-6"/>
        </g>
        <g class="cls-142">
          <path class="cls-26" d="M349.69,36.13l6,6M349.69,42.13l6-6"/>
        </g>
        <g class="cls-90">
          <path class="cls-26" d="M391.98,28.72l6,6M391.98,34.72l6-6"/>
        </g>
      </g>
      <g class="cls-94">
        <polyline class="cls-15" points="56.63 98.4 98.93 97.63 141.22 102.26 183.51 105.89 225.81 108.33 268.1 110.1 310.4 112.82 352.69 115.91 394.98 119.02"/>
        <g class="cls-47">
          <polygon class="cls-4" points="56.63 102.64 59.18 98.4 56.63 94.15 54.09 98.4 56.63 102.64"/>
        </g>
        <g class="cls-83">
          <polygon class="cls-4" points="98.93 101.88 101.47 97.63 98.93 93.39 96.38 97.63 98.93 101.88"/>
        </g>
        <g class="cls-129">
          <polygon class="cls-4" points="141.22 106.5 143.77 102.26 141.22 98.01 138.68 102.26 141.22 106.5"/>
        </g>
        <g class="cls-109">
          <polygon class="cls-4" points="183.51 110.13 186.06 105.89 183.51 101.65 180.97 105.89 183.51 110.13"/>
        </g>
        <g class="cls-2">
          <polygon class="cls-4" points="225.81 112.57 228.35 108.33 225.81 104.08 223.26 108.33 225.81 112.57"/>
        </g>
        <g class="cls-101">
          <polygon class="cls-4" points="268.1 114.34 270.65 110.1 268.1 105.85 265.56 110.1 268.1 114.34"/>
        </g>
        <g class="cls-122">
          <polygon class="cls-4" points="310.4 117.07 312.94 112.82 310.4 108.58 307.85 112.82 310.4 117.07"/>
        </g>
        <g class="cls-54">
          <polygon class="cls-4" points="352.69 120.15 355.24 115.91 352.69 111.67 350.14 115.91 352.69 120.15"/>
        </g>
        <g class="cls-120">
          <polygon class="cls-4" points="394.98 123.26 397.53 119.02 394.98 114.78 392.44 119.02 394.98 123.26"/>
        </g>
      </g>
      <g class="cls-87">
        <polyline class="cls-27" points="56.63 99.31 98.93 107.01 141.22 114.87 183.51 122.86 225.81 130.21 268.1 134.66 310.4 138.76 352.69 142.12 394.98 146.52"/>
        <g class="cls-74">
          <path class="cls-29" d="M56.63,102.31c.8,0,1.56-.32,2.12-.88.56-.56.88-1.33.88-2.12s-.32-1.56-.88-2.12c-.56-.56-1.33-.88-2.12-.88s-1.56.32-2.12.88c-.56.56-.88,1.33-.88,2.12s.32,1.56.88,2.12c.56.56,1.33.88,2.12.88Z"/>
        </g>
        <g class="cls-131">
          <path class="cls-29" d="M98.93,110.01c.8,0,1.56-.32,2.12-.88.56-.56.88-1.33.88-2.12s-.32-1.56-.88-2.12c-.56-.56-1.33-.88-2.12-.88s-1.56.32-2.12.88c-.56.56-.88,1.33-.88,2.12s.32,1.56.88,2.12c.56.56,1.33.88,2.12.88Z"/>
        </g>
        <g class="cls-62">
          <path class="cls-29" d="M141.22,117.87c.8,0,1.56-.32,2.12-.88s.88-1.33.88-2.12-.32-1.56-.88-2.12-1.33-.88-2.12-.88-1.56.32-2.12.88-.88,1.33-.88,2.12.32,1.56.88,2.12,1.33.88,2.12.88Z"/>
        </g>
        <g class="cls-70">
          <path class="cls-29" d="M183.51,125.86c.8,0,1.56-.32,2.12-.88s.88-1.33.88-2.12-.32-1.56-.88-2.12-1.33-.88-2.12-.88-1.56.32-2.12.88-.88,1.33-.88,2.12.32,1.56.88,2.12,1.33.88,2.12.88Z"/>
        </g>
        <g class="cls-44">
          <path class="cls-29" d="M225.81,133.21c.8,0,1.56-.32,2.12-.88s.88-1.33.88-2.12-.32-1.56-.88-2.12-1.33-.88-2.12-.88-1.56.32-2.12.88-.88,1.33-.88,2.12.32,1.56.88,2.12,1.33.88,2.12.88Z"/>
        </g>
        <g class="cls-144">
          <path class="cls-29" d="M268.1,137.66c.8,0,1.56-.32,2.12-.88.56-.56.88-1.33.88-2.12s-.32-1.56-.88-2.12c-.56-.56-1.33-.88-2.12-.88s-1.56.32-2.12.88c-.56.56-.88,1.33-.88,2.12s.32,1.56.88,2.12c.56.56,1.33.88,2.12.88Z"/>
        </g>
        <g class="cls-134">
          <path class="cls-29" d="M310.4,141.76c.8,0,1.56-.32,2.12-.88.56-.56.88-1.33.88-2.12s-.32-1.56-.88-2.12c-.56-.56-1.33-.88-2.12-.88s-1.56.32-2.12.88c-.56.56-.88,1.33-.88,2.12s.32,1.56.88,2.12c.56.56,1.33.88,2.12.88Z"/>
        </g>
        <g class="cls-65">
          <path class="cls-29" d="M352.69,145.12c.8,0,1.56-.32,2.12-.88.56-.56.88-1.33.88-2.12s-.32-1.56-.88-2.12c-.56-.56-1.33-.88-2.12-.88s-1.56.32-2.12.88c-.56.56-.88,1.33-.88,2.12s.32,1.56.88,2.12c.56.56,1.33.88,2.12.88Z"/>
        </g>
        <g class="cls-141">
          <path class="cls-29" d="M394.98,149.52c.8,0,1.56-.32,2.12-.88.56-.56.88-1.33.88-2.12s-.32-1.56-.88-2.12c-.56-.56-1.33-.88-2.12-.88s-1.56.32-2.12.88c-.56.56-.88,1.33-.88,2.12s.32,1.56.88,2.12c.56.56,1.33.88,2.12.88Z"/>
        </g>
      </g>
      <g class="cls-55">
        <polyline class="cls-13" points="56.63 167.59 98.93 173.62 141.22 178.88 183.51 183.45 225.81 187.93 268.1 191.96 310.4 194.79 352.69 197.84 394.98 201.26"/>
        <g class="cls-103">
          <polygon class="cls-11" points="56.63 164.59 53.63 170.59 59.63 170.59 56.63 164.59"/>
        </g>
        <g class="cls-139">
          <polygon class="cls-11" points="98.93 170.62 95.93 176.62 101.93 176.62 98.93 170.62"/>
        </g>
        <g class="cls-145">
          <polygon class="cls-11" points="141.22 175.88 138.22 181.88 144.22 181.88 141.22 175.88"/>
        </g>
        <g class="cls-59">
          <polygon class="cls-11" points="183.51 180.45 180.51 186.45 186.51 186.45 183.51 180.45"/>
        </g>
        <g class="cls-49">
          <polygon class="cls-11" points="225.81 184.93 222.81 190.93 228.81 190.93 225.81 184.93"/>
        </g>
        <g class="cls-117">
          <polygon class="cls-11" points="268.1 188.96 265.1 194.96 271.1 194.96 268.1 188.96"/>
        </g>
        <g class="cls-121">
          <polygon class="cls-11" points="310.4 191.79 307.4 197.79 313.4 197.79 310.4 191.79"/>
        </g>
        <g class="cls-104">
          <polygon class="cls-11" points="352.69 194.84 349.69 200.84 355.69 200.84 352.69 194.84"/>
        </g>
        <g class="cls-41">
          <polygon class="cls-11" points="394.98 198.26 391.98 204.26 397.98 204.26 394.98 198.26"/>
        </g>
      </g>
      <g class="cls-1">
        <polyline class="cls-24" points="56.63 172.99 98.93 179.13 141.22 184.86 183.51 188.96 225.81 193.93 268.1 198.03 310.4 200.95 352.69 204.25 394.98 208.36"/>
        <g class="cls-114">
          <rect class="cls-12" x="53.63" y="169.99" width="6" height="6"/>
        </g>
        <g class="cls-116">
          <rect class="cls-12" x="95.93" y="176.13" width="6" height="6"/>
        </g>
        <g class="cls-40">
          <rect class="cls-12" x="138.22" y="181.86" width="6" height="6"/>
        </g>
        <g class="cls-38">
          <rect class="cls-12" x="180.51" y="185.96" width="6" height="6"/>
        </g>
        <g class="cls-124">
          <rect class="cls-12" x="222.81" y="190.93" width="6" height="6"/>
        </g>
        <g class="cls-53">
          <rect class="cls-12" x="265.1" y="195.03" width="6" height="6"/>
        </g>
        <g class="cls-140">
          <rect class="cls-12" x="307.4" y="197.95" width="6" height="6"/>
        </g>
        <g class="cls-118">
          <rect class="cls-12" x="349.69" y="201.25" width="6" height="6"/>
        </g>
        <g class="cls-76">
          <rect class="cls-12" x="391.98" y="205.36" width="6" height="6"/>
        </g>
      </g>
      <g class="cls-133">
        <polyline class="cls-28" points="56.63 128.17 98.93 132.85 141.22 137.14 183.51 141.95 225.81 145.35 268.1 149.01 310.4 151.64 352.69 155.05 394.98 157.26"/>
        <g class="cls-138">
          <path class="cls-26" d="M53.63,125.17l6,6M53.63,131.17l6-6"/>
        </g>
        <g class="cls-75">
          <path class="cls-26" d="M95.93,129.85l6,6M95.93,135.85l6-6"/>
        </g>
        <g class="cls-93">
          <path class="cls-26" d="M138.22,134.14l6,6M138.22,140.14l6-6"/>
        </g>
        <g class="cls-89">
          <path class="cls-26" d="M180.51,138.95l6,6M180.51,144.95l6-6"/>
        </g>
        <g class="cls-107">
          <path class="cls-26" d="M222.81,142.35l6,6M222.81,148.35l6-6"/>
        </g>
        <g class="cls-80">
          <path class="cls-26" d="M265.1,146.01l6,6M265.1,152.01l6-6"/>
        </g>
        <g class="cls-72">
          <path class="cls-26" d="M307.4,148.64l6,6M307.4,154.64l6-6"/>
        </g>
        <g class="cls-136">
          <path class="cls-26" d="M349.69,152.05l6,6M349.69,158.05l6-6"/>
        </g>
        <g class="cls-99">
          <path class="cls-26" d="M391.98,154.26l6,6M391.98,160.26l6-6"/>
        </g>
      </g>
      <g class="cls-96">
        <polyline class="cls-25" points="56.63 98.4 98.93 102.82 141.22 105.99 183.51 107.99 225.81 111.96 268.1 113.57 310.4 116.22 352.69 119.12 394.98 121.22"/>
        <g class="cls-111">
          <polygon class="cls-4" points="56.63 102.64 59.18 98.4 56.63 94.15 54.09 98.4 56.63 102.64"/>
        </g>
        <g class="cls-82">
          <polygon class="cls-4" points="98.93 107.07 101.47 102.82 98.93 98.58 96.38 102.82 98.93 107.07"/>
        </g>
        <g class="cls-92">
          <polygon class="cls-4" points="141.22 110.23 143.77 105.99 141.22 101.75 138.68 105.99 141.22 110.23"/>
        </g>
        <g class="cls-45">
          <polygon class="cls-4" points="183.51 112.23 186.06 107.99 183.51 103.75 180.97 107.99 183.51 112.23"/>
        </g>
        <g class="cls-66">
          <polygon class="cls-4" points="225.81 116.2 228.35 111.96 225.81 107.72 223.26 111.96 225.81 116.2"/>
        </g>
        <g class="cls-58">
          <polygon class="cls-4" points="268.1 117.82 270.65 113.57 268.1 109.33 265.56 113.57 268.1 117.82"/>
        </g>
        <g class="cls-51">
          <polygon class="cls-4" points="310.4 120.46 312.94 116.22 310.4 111.98 307.85 116.22 310.4 120.46"/>
        </g>
        <g class="cls-84">
          <polygon class="cls-4" points="352.69 123.36 355.24 119.12 352.69 114.88 350.14 119.12 352.69 123.36"/>
        </g>
        <g class="cls-78">
          <polygon class="cls-4" points="394.98 125.46 397.53 121.22 394.98 116.98 392.44 121.22 394.98 125.46"/>
        </g>
      </g>
      <g class="cls-125">
        <polyline class="cls-10" points="56.63 99.07 98.93 102.37 141.22 105.57 183.51 107.91 225.81 111.57 268.1 114.04 310.4 116.95 352.69 119.56 394.98 121.68"/>
        <g class="cls-32">
          <path class="cls-29" d="M56.63,102.07c.8,0,1.56-.32,2.12-.88.56-.56.88-1.33.88-2.12s-.32-1.56-.88-2.12c-.56-.56-1.33-.88-2.12-.88s-1.56.32-2.12.88c-.56.56-.88,1.33-.88,2.12s.32,1.56.88,2.12c.56.56,1.33.88,2.12.88Z"/>
        </g>
        <g class="cls-88">
          <path class="cls-29" d="M98.93,105.37c.8,0,1.56-.32,2.12-.88.56-.56.88-1.33.88-2.12s-.32-1.56-.88-2.12c-.56-.56-1.33-.88-2.12-.88s-1.56.32-2.12.88c-.56.56-.88,1.33-.88,2.12s.32,1.56.88,2.12c.56.56,1.33.88,2.12.88Z"/>
        </g>
        <g class="cls-69">
          <path class="cls-29" d="M141.22,108.57c.8,0,1.56-.32,2.12-.88s.88-1.33.88-2.12-.32-1.56-.88-2.12-1.33-.88-2.12-.88-1.56.32-2.12.88-.88,1.33-.88,2.12.32,1.56.88,2.12,1.33.88,2.12.88Z"/>
        </g>
        <g class="cls-91">
          <path class="cls-29" d="M183.51,110.91c.8,0,1.56-.32,2.12-.88s.88-1.33.88-2.12-.32-1.56-.88-2.12-1.33-.88-2.12-.88-1.56.32-2.12.88-.88,1.33-.88,2.12.32,1.56.88,2.12,1.33.88,2.12.88Z"/>
        </g>
        <g class="cls-77">
          <path class="cls-29" d="M225.81,114.57c.8,0,1.56-.32,2.12-.88s.88-1.33.88-2.12-.32-1.56-.88-2.12-1.33-.88-2.12-.88-1.56.32-2.12.88-.88,1.33-.88,2.12.32,1.56.88,2.12,1.33.88,2.12.88Z"/>
        </g>
        <g class="cls-113">
          <path class="cls-29" d="M268.1,117.04c.8,0,1.56-.32,2.12-.88.56-.56.88-1.33.88-2.12s-.32-1.56-.88-2.12c-.56-.56-1.33-.88-2.12-.88s-1.56.32-2.12.88c-.56.56-.88,1.33-.88,2.12s.32,1.56.88,2.12c.56.56,1.33.88,2.12.88Z"/>
        </g>
        <g class="cls-71">
          <path class="cls-29" d="M310.4,119.95c.8,0,1.56-.32,2.12-.88.56-.56.88-1.33.88-2.12s-.32-1.56-.88-2.12c-.56-.56-1.33-.88-2.12-.88s-1.56.32-2.12.88c-.56.56-.88,1.33-.88,2.12s.32,1.56.88,2.12c.56.56,1.33.88,2.12.88Z"/>
        </g>
        <g class="cls-56">
          <path class="cls-29" d="M352.69,122.56c.8,0,1.56-.32,2.12-.88.56-.56.88-1.33.88-2.12s-.32-1.56-.88-2.12c-.56-.56-1.33-.88-2.12-.88s-1.56.32-2.12.88c-.56.56-.88,1.33-.88,2.12s.32,1.56.88,2.12c.56.56,1.33.88,2.12.88Z"/>
        </g>
        <g class="cls-143">
          <path class="cls-29" d="M394.98,124.68c.8,0,1.56-.32,2.12-.88.56-.56.88-1.33.88-2.12s-.32-1.56-.88-2.12c-.56-.56-1.33-.88-2.12-.88s-1.56.32-2.12.88c-.56.56-.88,1.33-.88,2.12s.32,1.56.88,2.12c.56.56,1.33.88,2.12.88Z"/>
        </g>
      </g>
      <line class="cls-18" x1="39.72" y1="296.32" x2="39.72" y2="19.12"/>
      <line class="cls-18" x1="411.9" y1="296.32" x2="411.9" y2="19.12"/>
      <line class="cls-18" x1="39.72" y1="296.32" x2="411.9" y2="296.32"/>
      <line class="cls-18" x1="39.72" y1="19.12" x2="411.9" y2="19.12"/>
      <g>
        <rect class="cls-30" x="43.77" y="26.12" width="252.43" height="24.75" rx="2.8" ry="2.8"/>
        <rect class="cls-3" x="43.77" y="26.12" width="252.43" height="24.75" rx="2.8" ry="2.8"/>
      </g>
      <polyline class="cls-5" points="49.37 37.46 63.37 37.46 77.37 37.46"/>
      <polygon points="89.94 32.16 92 32.16 94.6 39.1 97.22 32.16 99.28 32.16 99.28 42.36 97.93 42.36 97.93 33.4 95.3 40.4 93.91 40.4 91.28 33.4 91.28 42.36 89.94 42.36 89.94 32.16"/>
      <path d="M105,34.52h0ZM101.84,39.34v-4.63h1.26v4.59c0,.73.14,1.26.42,1.62.28.36.7.55,1.27.55.67,0,1.22-.21,1.61-.64.39-.43.59-1.02.59-1.78v-4.34h1.26v7.66h-1.26v-1.18c-.31.48-.67.81-1.06,1.04-.41.21-.87.32-1.4.32-.88,0-1.55-.27-2-.81-.46-.53-.69-1.33-.69-2.39Z"/>
      <rect x="110.84" y="31.72" width="1.26" height="10.64"/>
      <path d="M115.98,32.53v2.17h2.59v.98h-2.59v4.16c0,.63.08,1.04.25,1.2.17.18.52.27,1.05.27h1.29v1.05h-1.29c-.98,0-1.65-.18-2.02-.55-.36-.36-.55-1.02-.55-1.97v-4.16h-.92v-.98h.92v-2.17h1.26Z"/>
      <path d="M120.22,31.72h1.26v1.6h-1.26v-1.6ZM120.22,34.7h1.26v7.66h-1.26v-7.66Z"/>
      <rect x="123.48" y="37.97" width="3.68" height="1.12"/>
      <path d="M130.41,32.53v2.17h2.59v.98h-2.59v4.16c0,.63.08,1.04.25,1.2.17.18.52.27,1.05.27h1.29v1.05h-1.29c-.98,0-1.65-.18-2.02-.55-.36-.36-.55-1.02-.55-1.97v-4.16h-.92v-.98h.92v-2.17h1.26Z"/>
      <path d="M134.65,31.72h1.26v1.6h-1.26v-1.6ZM134.65,34.7h1.26v7.66h-1.26v-7.66Z"/>
      <path d="M143.84,37.85c-.01-.69-.21-1.23-.57-1.65-.38-.41-.88-.62-1.5-.62-.7,0-1.26.21-1.68.6s-.67.95-.73,1.67h4.48ZM145.1,38.22v.62h-5.78c.06.87.31,1.54.78,1.99.46.45,1.11.67,1.95.67.48,0,.95-.06,1.4-.17s.91-.29,1.36-.55v1.19c-.45.2-.91.35-1.39.43-.48.08-.97.14-1.44.14-1.23,0-2.2-.35-2.91-1.05-.71-.7-1.06-1.67-1.06-2.88s.34-2.24,1.01-2.98c.67-.73,1.6-1.11,2.74-1.11,1.04,0,1.85.34,2.45.99.59.67.9,1.57.9,2.7Z"/>
      <path d="M151.59,35.88c-.14-.08-.29-.14-.46-.18-.17-.03-.35-.06-.55-.06-.71,0-1.26.24-1.64.7-.39.46-.57,1.12-.57,1.99v4.03h-1.26v-7.66h1.26v1.19c.25-.46.6-.81,1.02-1.04s.94-.34,1.55-.34c.08,0,.18.01.29.01.1.01.21.03.35.06v1.29Z"/>
      <polyline class="cls-17" points="179.57 37.46 193.57 37.46 207.57 37.46"/>
      <path d="M226.26,32.49v1.34c-.53-.25-1.02-.43-1.48-.56-.48-.11-.92-.18-1.34-.18-.76,0-1.34.15-1.75.43-.41.29-.6.71-.6,1.25,0,.45.13.8.41,1.02.27.24.78.42,1.54.56l.84.17c1.02.2,1.78.55,2.27,1.04.49.5.74,1.16.74,1.99,0,.99-.34,1.74-.99,2.24-.67.5-1.64.76-2.91.76-.49,0-1.01-.06-1.55-.15-.55-.1-1.11-.25-1.68-.48v-1.43c.56.32,1.11.56,1.64.71.53.17,1.06.24,1.6.24.78,0,1.39-.15,1.82-.46.42-.31.64-.74.64-1.33,0-.5-.15-.9-.46-1.18s-.81-.49-1.51-.63l-.84-.17c-1.04-.2-1.78-.52-2.24-.97-.46-.43-.69-1.04-.69-1.82,0-.9.31-1.61.95-2.13.63-.52,1.51-.78,2.63-.78.48,0,.95.04,1.46.13.49.08.99.22,1.53.39Z"/>
      <path d="M228.97,31.72h1.26v1.6h-1.26v-1.6ZM228.97,34.7h1.26v7.66h-1.26v-7.66Z"/>
      <path d="M239.23,37.74v4.62h-1.26v-4.58c0-.73-.15-1.26-.43-1.62-.28-.36-.7-.55-1.26-.55-.69,0-1.22.22-1.61.66-.39.43-.59,1.02-.59,1.76v4.33h-1.26v-7.66h1.26v1.19c.29-.45.64-.8,1.06-1.02.41-.22.88-.35,1.41-.35.87,0,1.54.28,1.99.83.45.55.69,1.34.69,2.39Z"/>
      <path d="M248.04,41.41c0,1.29-.29,2.25-.87,2.9-.59.63-1.47.95-2.66.95-.45,0-.85-.04-1.25-.1-.39-.07-.78-.17-1.15-.31v-1.22c.36.2.73.34,1.09.43.36.1.73.15,1.11.15.81,0,1.43-.22,1.85-.64.41-.43.62-1.08.62-1.95v-.62c-.27.45-.6.78-1.01,1.01-.41.22-.88.34-1.44.34-.95,0-1.71-.35-2.28-1.06-.57-.71-.85-1.67-.85-2.86s.28-2.13.85-2.84c.57-.71,1.33-1.08,2.28-1.08.56,0,1.04.11,1.44.34.41.22.74.56,1.01,1.01v-1.16h1.26v6.71ZM246.78,38.44c0-.9-.2-1.61-.56-2.11-.38-.5-.91-.76-1.58-.76s-1.2.25-1.58.76c-.38.5-.56,1.22-.56,2.11s.18,1.61.56,2.11c.38.5.91.76,1.58.76s1.2-.25,1.58-.76c.36-.5.56-1.2.56-2.11Z"/>
      <rect x="250.63" y="31.72" width="1.26" height="10.64"/>
      <path d="M259.81,37.85c-.01-.69-.21-1.23-.57-1.65-.38-.41-.88-.62-1.5-.62-.7,0-1.26.21-1.68.6-.42.39-.67.95-.73,1.67h4.48ZM261.07,38.22v.62h-5.78c.06.87.31,1.54.78,1.99.46.45,1.11.67,1.95.67.48,0,.95-.06,1.4-.17s.91-.29,1.36-.55v1.19c-.45.2-.91.35-1.39.43-.48.08-.97.14-1.44.14-1.23,0-2.2-.35-2.91-1.05-.71-.7-1.06-1.67-1.06-2.88s.34-2.24,1.01-2.98c.67-.73,1.6-1.11,2.74-1.11,1.04,0,1.85.34,2.45.99.59.67.9,1.57.9,2.7Z"/>
      <rect x="262.5" y="37.97" width="3.68" height="1.12"/>
      <path d="M269.43,32.53v2.17h2.59v.98h-2.59v4.16c0,.63.08,1.04.25,1.2.17.18.52.27,1.05.27h1.29v1.05h-1.29c-.98,0-1.65-.18-2.02-.55-.36-.36-.55-1.02-.55-1.97v-4.16h-.92v-.98h.92v-2.17h1.26Z"/>
      <path d="M273.67,31.72h1.26v1.6h-1.26v-1.6ZM273.67,34.7h1.26v7.66h-1.26v-7.66Z"/>
      <path d="M282.86,37.85c-.01-.69-.21-1.23-.57-1.65-.38-.41-.88-.62-1.5-.62-.7,0-1.26.21-1.68.6-.42.39-.67.95-.73,1.67h4.48ZM284.12,38.22v.62h-5.78c.06.87.31,1.54.78,1.99.46.45,1.11.67,1.95.67.48,0,.95-.06,1.4-.17s.91-.29,1.36-.55v1.19c-.45.2-.91.35-1.39.43-.48.08-.97.14-1.44.14-1.23,0-2.2-.35-2.91-1.05-.71-.7-1.06-1.67-1.06-2.88s.34-2.24,1.01-2.98c.67-.73,1.6-1.11,2.74-1.11,1.04,0,1.85.34,2.45.99.59.67.9,1.57.9,2.7Z"/>
      <path d="M290.61,35.88c-.14-.08-.29-.14-.46-.18-.17-.03-.35-.06-.55-.06-.71,0-1.26.24-1.64.7-.39.46-.57,1.12-.57,1.99v4.03h-1.26v-7.66h1.26v1.19c.25-.46.6-.81,1.02-1.04s.94-.34,1.55-.34c.08,0,.18.01.29.01.1.01.21.03.35.06v1.29Z"/>
      <g>
        <rect class="cls-30" x="421" y="104.25" width="95.56" height="106.93" rx="2.8" ry="2.8"/>
        <rect class="cls-3" x="421" y="104.25" width="95.56" height="106.93" rx="2.8" ry="2.8"/>
      </g>
      <polygon class="cls-21" points="440.6 110.6 435.6 120.6 445.6 120.6 440.6 110.6"/>
      <path d="M470.14,109.87c-.62,1.06-1.06,2.1-1.36,3.12-.31,1.02-.45,2.06-.45,3.11s.14,2.1.45,3.12c.29,1.04.74,2.06,1.36,3.11h-1.09c-.69-1.08-1.2-2.11-1.54-3.15-.34-1.04-.5-2.06-.5-3.08s.17-2.03.5-3.07c.34-1.04.84-2.09,1.54-3.16h1.09Z"/>
      <polygon points="472.63 110.29 474.69 110.29 477.3 117.23 479.91 110.29 481.97 110.29 481.97 120.5 480.63 120.5 480.63 111.54 478 118.54 476.61 118.54 473.98 111.54 473.98 120.5 472.63 120.5 472.63 110.29"/>
      <path d="M484.46,109.87h1.09c.67,1.08,1.19,2.13,1.53,3.16.34,1.04.52,2.06.52,3.07s-.18,2.04-.52,3.08c-.34,1.04-.85,2.07-1.53,3.15h-1.09c.6-1.05,1.05-2.07,1.36-3.11.29-1.02.45-2.06.45-3.12s-.15-2.09-.45-3.11c-.31-1.02-.76-2.06-1.36-3.12Z"/>
      <polygon points="492.81 120.5 488.92 110.29 490.36 110.29 493.59 118.89 496.83 110.29 498.27 110.29 494.38 120.5 492.81 120.5"/>
      <rect x="499.75" y="110.29" width="1.39" height="10.21"/>
      <path d="M503.88,110.29h3.12c1.13,0,2,.27,2.59.78.59.52.88,1.27.88,2.27s-.29,1.78-.88,2.28c-.59.52-1.46.77-2.59.77h-1.74v4.1h-1.39v-10.21ZM505.27,111.42v3.84h1.74c.64,0,1.13-.15,1.48-.49s.53-.81.53-1.43-.18-1.08-.53-1.41c-.35-.34-.84-.5-1.48-.5h-1.74Z"/>
      <rect class="cls-6" x="435.6" y="131.14" width="10" height="10"/>
      <polygon points="467.17 130.84 468.56 130.84 468.56 139.88 473.53 139.88 473.53 141.04 467.17 141.04 467.17 130.84"/>
      <polygon points="474.97 130.84 480.84 130.84 480.84 132 476.36 132 476.36 135.01 480.4 135.01 480.4 136.17 476.36 136.17 476.36 141.04 474.97 141.04 474.97 130.84"/>
      <path d="M482.87,130.84h1.39v6.2c0,1.09.2,1.89.59,2.37.39.48,1.04.71,1.93.71s1.53-.24,1.92-.71.6-1.27.6-2.37v-6.2h1.39v6.37c0,1.34-.34,2.34-.99,3.01-.66.67-1.62,1.01-2.91,1.01s-2.27-.34-2.93-1.01-.98-1.67-.98-3.01v-6.37Z"/>
      <path class="cls-8" d="M435.6,151.69l10,10M435.6,161.69l10-10"/>
      <polygon points="467.17 151.38 468.56 151.38 468.56 160.43 473.53 160.43 473.53 161.59 467.17 161.59 467.17 151.38"/>
      <path d="M476.36,152.52v3.63h1.74c.66,0,1.16-.15,1.5-.46s.52-.76.52-1.36-.18-1.04-.52-1.34-.84-.46-1.5-.46h-1.74ZM479.82,156.8c.29.11.59.32.87.64.28.34.56.78.84,1.36l1.4,2.79h-1.48l-1.3-2.62c-.34-.67-.67-1.13-.98-1.36-.32-.22-.76-.34-1.3-.34h-1.5v4.31h-1.39v-10.21h3.12c1.16,0,2.03.25,2.6.73.57.49.87,1.23.87,2.21,0,.64-.15,1.19-.45,1.61-.31.42-.74.71-1.3.87Z"/>
      <path d="M484.55,151.38h1.39v6.2c0,1.09.2,1.89.59,2.37.39.48,1.04.71,1.93.71s1.53-.24,1.92-.71.6-1.27.6-2.37v-6.2h1.39v6.37c0,1.34-.34,2.34-.99,3.01-.66.67-1.62,1.01-2.91,1.01s-2.27-.34-2.93-1.01-.98-1.67-.98-3.01v-6.37Z"/>
      <polygon class="cls-9" points="440.6 184.31 444.84 177.24 440.6 170.16 436.36 177.24 440.6 184.31"/>
      <polygon points="467.17 171.93 473.04 171.93 473.04 173.09 468.56 173.09 468.56 176.1 472.61 176.1 472.61 177.26 468.56 177.26 468.56 182.14 467.17 182.14 467.17 171.93"/>
      <rect x="475.22" y="171.93" width="1.39" height="10.21"/>
      <polygon points="479.35 171.93 485.22 171.93 485.22 173.09 480.74 173.09 480.74 176.1 484.79 176.1 484.79 177.26 480.74 177.26 480.74 182.14 479.35 182.14 479.35 171.93"/>
      <path d="M491.55,171.75c1.43,0,2.56.49,3.43,1.44.85.95,1.29,2.24,1.29,3.85s-.43,2.9-1.29,3.85c-.87.95-2,1.43-3.43,1.43s-2.59-.48-3.44-1.43c-.87-.95-1.29-2.23-1.29-3.85s.42-2.9,1.29-3.85c.85-.95,2-1.44,3.44-1.44ZM491.55,172.87c-1.01,0-1.81.38-2.39,1.12-.59.76-.88,1.76-.88,3.05s.29,2.31.88,3.05c.59.76,1.39,1.12,2.39,1.12s1.79-.36,2.38-1.12c.59-.74.88-1.76.88-3.05s-.29-2.3-.88-3.05c-.59-.74-1.39-1.12-2.38-1.12Z"/>
      <path class="cls-23" d="M440.6,202.78c1.33,0,2.6-.53,3.54-1.46.94-.94,1.46-2.21,1.46-3.54s-.53-2.6-1.46-3.54c-.94-.94-2.21-1.46-3.54-1.46s-2.6.53-3.54,1.46-1.46,2.21-1.46,3.54.53,2.6,1.46,3.54c.94.94,2.21,1.46,3.54,1.46Z"/>
      <path d="M467.02,192.48h1.39v6.2c0,1.09.2,1.89.59,2.37.39.48,1.04.71,1.93.71s1.53-.24,1.92-.71.6-1.27.6-2.37v-6.2h1.39v6.37c0,1.34-.34,2.34-.99,3.01-.66.67-1.62,1.01-2.91,1.01s-2.27-.34-2.93-1.01-.98-1.67-.98-3.01v-6.37Z"/>
      <polygon points="477.42 192.48 479.28 192.48 483.81 201.02 483.81 192.48 485.15 192.48 485.15 202.68 483.29 202.68 478.77 194.14 478.77 202.68 477.42 202.68 477.42 192.48"/>
      <rect x="487.89" y="192.48" width="1.39" height="10.21"/>
      <polygon points="492.02 192.48 497.89 192.48 497.89 193.64 493.41 193.64 493.41 196.65 497.46 196.65 497.46 197.81 493.41 197.81 493.41 202.68 492.02 202.68 492.02 192.48"/>
      <g>
        <rect class="cls-30" x="421" y="104.25" width="95.56" height="106.93" rx="2.8" ry="2.8"/>
        <rect class="cls-3" x="421" y="104.25" width="95.56" height="106.93" rx="2.8" ry="2.8"/>
      </g>
      <polygon class="cls-21" points="440.6 110.6 435.6 120.6 445.6 120.6 440.6 110.6"/>
      <path d="M470.14,109.87c-.62,1.06-1.06,2.1-1.36,3.12-.31,1.02-.45,2.06-.45,3.11s.14,2.1.45,3.12c.29,1.04.74,2.06,1.36,3.11h-1.09c-.69-1.08-1.2-2.11-1.54-3.15-.34-1.04-.5-2.06-.5-3.08s.17-2.03.5-3.07c.34-1.04.84-2.09,1.54-3.16h1.09Z"/>
      <polygon points="472.63 110.29 474.69 110.29 477.3 117.23 479.91 110.29 481.97 110.29 481.97 120.5 480.63 120.5 480.63 111.54 478 118.54 476.61 118.54 473.98 111.54 473.98 120.5 472.63 120.5 472.63 110.29"/>
      <path d="M484.46,109.87h1.09c.67,1.08,1.19,2.13,1.53,3.16.34,1.04.52,2.06.52,3.07s-.18,2.04-.52,3.08c-.34,1.04-.85,2.07-1.53,3.15h-1.09c.6-1.05,1.05-2.07,1.36-3.11.29-1.02.45-2.06.45-3.12s-.15-2.09-.45-3.11c-.31-1.02-.76-2.06-1.36-3.12Z"/>
      <polygon points="492.81 120.5 488.92 110.29 490.36 110.29 493.59 118.89 496.83 110.29 498.27 110.29 494.38 120.5 492.81 120.5"/>
      <rect x="499.75" y="110.29" width="1.39" height="10.21"/>
      <path d="M503.88,110.29h3.12c1.13,0,2,.27,2.59.78.59.52.88,1.27.88,2.27s-.29,1.78-.88,2.28c-.59.52-1.46.77-2.59.77h-1.74v4.1h-1.39v-10.21ZM505.27,111.42v3.84h1.74c.64,0,1.13-.15,1.48-.49s.53-.81.53-1.43-.18-1.08-.53-1.41c-.35-.34-.84-.5-1.48-.5h-1.74Z"/>
      <rect class="cls-6" x="435.6" y="131.14" width="10" height="10"/>
      <polygon points="467.17 130.84 468.56 130.84 468.56 139.88 473.53 139.88 473.53 141.04 467.17 141.04 467.17 130.84"/>
      <polygon points="474.97 130.84 480.84 130.84 480.84 132 476.36 132 476.36 135.01 480.4 135.01 480.4 136.17 476.36 136.17 476.36 141.04 474.97 141.04 474.97 130.84"/>
      <path d="M482.87,130.84h1.39v6.2c0,1.09.2,1.89.59,2.37.39.48,1.04.71,1.93.71s1.53-.24,1.92-.71.6-1.27.6-2.37v-6.2h1.39v6.37c0,1.34-.34,2.34-.99,3.01-.66.67-1.62,1.01-2.91,1.01s-2.27-.34-2.93-1.01-.98-1.67-.98-3.01v-6.37Z"/>
      <path class="cls-8" d="M435.6,151.69l10,10M435.6,161.69l10-10"/>
      <polygon points="467.17 151.38 468.56 151.38 468.56 160.43 473.53 160.43 473.53 161.59 467.17 161.59 467.17 151.38"/>
      <path d="M476.36,152.52v3.63h1.74c.66,0,1.16-.15,1.5-.46s.52-.76.52-1.36-.18-1.04-.52-1.34-.84-.46-1.5-.46h-1.74ZM479.82,156.8c.29.11.59.32.87.64.28.34.56.78.84,1.36l1.4,2.79h-1.48l-1.3-2.62c-.34-.67-.67-1.13-.98-1.36-.32-.22-.76-.34-1.3-.34h-1.5v4.31h-1.39v-10.21h3.12c1.16,0,2.03.25,2.6.73.57.49.87,1.23.87,2.21,0,.64-.15,1.19-.45,1.61-.31.42-.74.71-1.3.87Z"/>
      <path d="M484.55,151.38h1.39v6.2c0,1.09.2,1.89.59,2.37.39.48,1.04.71,1.93.71s1.53-.24,1.92-.71.6-1.27.6-2.37v-6.2h1.39v6.37c0,1.34-.34,2.34-.99,3.01-.66.67-1.62,1.01-2.91,1.01s-2.27-.34-2.93-1.01-.98-1.67-.98-3.01v-6.37Z"/>
      <polygon class="cls-9" points="440.6 184.31 444.84 177.24 440.6 170.16 436.36 177.24 440.6 184.31"/>
      <polygon points="467.17 171.93 473.04 171.93 473.04 173.09 468.56 173.09 468.56 176.1 472.61 176.1 472.61 177.26 468.56 177.26 468.56 182.14 467.17 182.14 467.17 171.93"/>
      <rect x="475.22" y="171.93" width="1.39" height="10.21"/>
      <polygon points="479.35 171.93 485.22 171.93 485.22 173.09 480.74 173.09 480.74 176.1 484.79 176.1 484.79 177.26 480.74 177.26 480.74 182.14 479.35 182.14 479.35 171.93"/>
      <path d="M491.55,171.75c1.43,0,2.56.49,3.43,1.44.85.95,1.29,2.24,1.29,3.85s-.43,2.9-1.29,3.85c-.87.95-2,1.43-3.43,1.43s-2.59-.48-3.44-1.43c-.87-.95-1.29-2.23-1.29-3.85s.42-2.9,1.29-3.85c.85-.95,2-1.44,3.44-1.44ZM491.55,172.87c-1.01,0-1.81.38-2.39,1.12-.59.76-.88,1.76-.88,3.05s.29,2.31.88,3.05c.59.76,1.39,1.12,2.39,1.12s1.79-.36,2.38-1.12c.59-.74.88-1.76.88-3.05s-.29-2.3-.88-3.05c-.59-.74-1.39-1.12-2.38-1.12Z"/>
      <path class="cls-23" d="M440.6,202.78c1.33,0,2.6-.53,3.54-1.46.94-.94,1.46-2.21,1.46-3.54s-.53-2.6-1.46-3.54c-.94-.94-2.21-1.46-3.54-1.46s-2.6.53-3.54,1.46-1.46,2.21-1.46,3.54.53,2.6,1.46,3.54c.94.94,2.21,1.46,3.54,1.46Z"/>
      <path d="M467.02,192.48h1.39v6.2c0,1.09.2,1.89.59,2.37.39.48,1.04.71,1.93.71s1.53-.24,1.92-.71.6-1.27.6-2.37v-6.2h1.39v6.37c0,1.34-.34,2.34-.99,3.01-.66.67-1.62,1.01-2.91,1.01s-2.27-.34-2.93-1.01-.98-1.67-.98-3.01v-6.37Z"/>
      <polygon points="477.42 192.48 479.28 192.48 483.81 201.02 483.81 192.48 485.15 192.48 485.15 202.68 483.29 202.68 478.77 194.14 478.77 202.68 477.42 202.68 477.42 192.48"/>
      <rect x="487.89" y="192.48" width="1.39" height="10.21"/>
      <polygon points="492.02 192.48 497.89 192.48 497.89 193.64 493.41 193.64 493.41 196.65 497.46 196.65 497.46 197.81 493.41 197.81 493.41 202.68 492.02 202.68 492.02 192.48"/>
    </g>
  </g>
</svg>