<?xml version="1.0" encoding="UTF-8"?>
<svg id="Layer_1" data-name="Layer 1" xmlns="http://www.w3.org/2000/svg" version="1.1" xmlns:xlink="http://www.w3.org/1999/xlink" viewBox="0 0 505.65 363.35">
  <defs>
    <style>
      .cls-1, .cls-2, .cls-3, .cls-4, .cls-5, .cls-6, .cls-7, .cls-8, .cls-9, .cls-10, .cls-11, .cls-12, .cls-13, .cls-14, .cls-15, .cls-16, .cls-17, .cls-18, .cls-19, .cls-20, .cls-21, .cls-22, .cls-23, .cls-24, .cls-25, .cls-26, .cls-27 {
        fill: none;
      }

      .cls-1, .cls-3, .cls-4, .cls-5, .cls-8, .cls-9, .cls-10, .cls-11, .cls-13, .cls-14, .cls-15, .cls-16, .cls-18, .cls-19, .cls-22, .cls-24, .cls-25, .cls-26 {
        stroke-linejoin: round;
      }

      .cls-1, .cls-4, .cls-8, .cls-9, .cls-11, .cls-13, .cls-14, .cls-15, .cls-18, .cls-19, .cls-24, .cls-25 {
        stroke-width: 1.5px;
      }

      .cls-1, .cls-4, .cls-8, .cls-11, .cls-14, .cls-25 {
        stroke-dasharray: 0 0 5.55 2.4;
      }

      .cls-1, .cls-17, .cls-18, .cls-26 {
        stroke: #000;
      }

      .cls-28 {
        clip-path: url(#clippath-73);
      }

      .cls-29 {
        clip-path: url(#clippath-72);
      }

      .cls-30 {
        clip-path: url(#clippath-62);
      }

      .cls-31 {
        clip-path: url(#clippath-45);
      }

      .cls-32 {
        clip-path: url(#clippath-63);
      }

      .cls-33 {
        clip-path: url(#clippath-20);
      }

      .cls-34 {
        clip-path: url(#clippath-11);
      }

      .cls-35 {
        clip-path: url(#clippath-16);
      }

      .cls-2, .cls-7, .cls-12, .cls-17, .cls-20, .cls-21, .cls-23, .cls-27 {
        stroke-miterlimit: 10;
      }

      .cls-2, .cls-7, .cls-19, .cls-25 {
        stroke: #bf00bf;
      }

      .cls-36 {
        clip-path: url(#clippath-59);
      }

      .cls-37 {
        clip-path: url(#clippath-78);
      }

      .cls-38 {
        clip-path: url(#clippath-93);
      }

      .cls-39 {
        clip-path: url(#clippath-89);
      }

      .cls-40 {
        clip-path: url(#clippath-33);
      }

      .cls-41 {
        fill: #000;
      }

      .cls-41, .cls-6, .cls-42, .cls-43 {
        stroke-width: 0px;
      }

      .cls-44 {
        clip-path: url(#clippath-64);
      }

      .cls-45 {
        clip-path: url(#clippath-47);
      }

      .cls-46 {
        clip-path: url(#clippath-94);
      }

      .cls-47 {
        clip-path: url(#clippath-77);
      }

      .cls-3, .cls-4, .cls-5, .cls-15 {
        stroke: #bfbf00;
      }

      .cls-48 {
        clip-path: url(#clippath-41);
      }

      .cls-49 {
        clip-path: url(#clippath-32);
      }

      .cls-50 {
        clip-path: url(#clippath-108);
      }

      .cls-51 {
        clip-path: url(#clippath-112);
      }

      .cls-52 {
        clip-path: url(#clippath-87);
      }

      .cls-53 {
        clip-path: url(#clippath-83);
      }

      .cls-54 {
        clip-path: url(#clippath-114);
      }

      .cls-55 {
        clip-path: url(#clippath-105);
      }

      .cls-56 {
        clip-path: url(#clippath-2);
      }

      .cls-57 {
        clip-path: url(#clippath-13);
      }

      .cls-58 {
        clip-path: url(#clippath-88);
      }

      .cls-59 {
        clip-path: url(#clippath-37);
      }

      .cls-60 {
        clip-path: url(#clippath-46);
      }

      .cls-61 {
        clip-path: url(#clippath-25);
      }

      .cls-62 {
        clip-path: url(#clippath-98);
      }

      .cls-63 {
        clip-path: url(#clippath-107);
      }

      .cls-64 {
        clip-path: url(#clippath-15);
      }

      .cls-65 {
        clip-path: url(#clippath-6);
      }

      .cls-66 {
        clip-path: url(#clippath-104);
      }

      .cls-67 {
        clip-path: url(#clippath-76);
      }

      .cls-68 {
        clip-path: url(#clippath-40);
      }

      .cls-69 {
        clip-path: url(#clippath-26);
      }

      .cls-70 {
        clip-path: url(#clippath-81);
      }

      .cls-5, .cls-7, .cls-16, .cls-23, .cls-27 {
        stroke-width: 2px;
      }

      .cls-71 {
        clip-path: url(#clippath-111);
      }

      .cls-72 {
        clip-path: url(#clippath-75);
      }

      .cls-73 {
        clip-path: url(#clippath-7);
      }

      .cls-74 {
        clip-path: url(#clippath-21);
      }

      .cls-8, .cls-13, .cls-21, .cls-23 {
        stroke: red;
      }

      .cls-75 {
        clip-path: url(#clippath-34);
      }

      .cls-76 {
        clip-path: url(#clippath-57);
      }

      .cls-77 {
        clip-path: url(#clippath-102);
      }

      .cls-78 {
        clip-path: url(#clippath-1);
      }

      .cls-79 {
        clip-path: url(#clippath-4);
      }

      .cls-80 {
        clip-path: url(#clippath-38);
      }

      .cls-9, .cls-10, .cls-11, .cls-16 {
        stroke: green;
      }

      .cls-9, .cls-13, .cls-15, .cls-17, .cls-18, .cls-19, .cls-24 {
        stroke-linecap: square;
      }

      .cls-81 {
        clip-path: url(#clippath-36);
      }

      .cls-82 {
        clip-path: url(#clippath-27);
      }

      .cls-83 {
        clip-path: url(#clippath-109);
      }

      .cls-84 {
        clip-path: url(#clippath-101);
      }

      .cls-85 {
        clip-path: url(#clippath-60);
      }

      .cls-42, .cls-12 {
        opacity: .8;
      }

      .cls-42, .cls-43 {
        fill: #fff;
      }

      .cls-86 {
        clip-path: url(#clippath-44);
      }

      .cls-87 {
        clip-path: url(#clippath-12);
      }

      .cls-88 {
        clip-path: url(#clippath-113);
      }

      .cls-89 {
        clip-path: url(#clippath-95);
      }

      .cls-90 {
        clip-path: url(#clippath-80);
      }

      .cls-12 {
        stroke: #ccc;
      }

      .cls-91 {
        clip-path: url(#clippath-24);
      }

      .cls-92 {
        clip-path: url(#clippath-99);
      }

      .cls-93 {
        clip-path: url(#clippath-30);
      }

      .cls-14, .cls-20, .cls-24, .cls-27 {
        stroke: blue;
      }

      .cls-94 {
        clip-path: url(#clippath-79);
      }

      .cls-95 {
        clip-path: url(#clippath-22);
      }

      .cls-96 {
        clip-path: url(#clippath-96);
      }

      .cls-97 {
        clip-path: url(#clippath-103);
      }

      .cls-98 {
        clip-path: url(#clippath-9);
      }

      .cls-99 {
        clip-path: url(#clippath-82);
      }

      .cls-100 {
        clip-path: url(#clippath-52);
      }

      .cls-101 {
        clip-path: url(#clippath);
      }

      .cls-102 {
        clip-path: url(#clippath-50);
      }

      .cls-103 {
        clip-path: url(#clippath-48);
      }

      .cls-104 {
        clip-path: url(#clippath-61);
      }

      .cls-105 {
        clip-path: url(#clippath-39);
      }

      .cls-106 {
        clip-path: url(#clippath-19);
      }

      .cls-107 {
        clip-path: url(#clippath-31);
      }

      .cls-108 {
        clip-path: url(#clippath-86);
      }

      .cls-109 {
        clip-path: url(#clippath-54);
      }

      .cls-110 {
        clip-path: url(#clippath-3);
      }

      .cls-111 {
        clip-path: url(#clippath-91);
      }

      .cls-17, .cls-22, .cls-26 {
        stroke-width: .8px;
      }

      .cls-112 {
        clip-path: url(#clippath-43);
      }

      .cls-113 {
        clip-path: url(#clippath-70);
      }

      .cls-114 {
        clip-path: url(#clippath-8);
      }

      .cls-115 {
        clip-path: url(#clippath-55);
      }

      .cls-116 {
        clip-path: url(#clippath-69);
      }

      .cls-117 {
        clip-path: url(#clippath-29);
      }

      .cls-118 {
        clip-path: url(#clippath-18);
      }

      .cls-119 {
        clip-path: url(#clippath-90);
      }

      .cls-120 {
        clip-path: url(#clippath-14);
      }

      .cls-121 {
        clip-path: url(#clippath-17);
      }

      .cls-122 {
        clip-path: url(#clippath-97);
      }

      .cls-123 {
        clip-path: url(#clippath-5);
      }

      .cls-124 {
        clip-path: url(#clippath-58);
      }

      .cls-125 {
        clip-path: url(#clippath-84);
      }

      .cls-22 {
        opacity: .5;
        stroke: #b0b0b0;
        stroke-dasharray: 0 0 2.96 1.28;
      }

      .cls-126 {
        clip-path: url(#clippath-42);
      }

      .cls-127 {
        clip-path: url(#clippath-65);
      }

      .cls-128 {
        clip-path: url(#clippath-10);
      }

      .cls-129 {
        clip-path: url(#clippath-23);
      }

      .cls-130 {
        clip-path: url(#clippath-100);
      }

      .cls-131 {
        clip-path: url(#clippath-92);
      }

      .cls-132 {
        clip-path: url(#clippath-74);
      }

      .cls-133 {
        clip-path: url(#clippath-56);
      }

      .cls-134 {
        clip-path: url(#clippath-53);
      }

      .cls-135 {
        clip-path: url(#clippath-49);
      }

      .cls-136 {
        clip-path: url(#clippath-110);
      }

      .cls-137 {
        clip-path: url(#clippath-67);
      }

      .cls-138 {
        clip-path: url(#clippath-51);
      }

      .cls-139 {
        clip-path: url(#clippath-28);
      }

      .cls-140 {
        clip-path: url(#clippath-71);
      }

      .cls-141 {
        clip-path: url(#clippath-85);
      }

      .cls-142 {
        clip-path: url(#clippath-106);
      }

      .cls-143 {
        clip-path: url(#clippath-68);
      }

      .cls-144 {
        clip-path: url(#clippath-35);
      }

      .cls-145 {
        clip-path: url(#clippath-66);
      }
    </style>
    <clipPath id="clippath">
      <rect class="cls-6" x="39.72" y="42.28" width="372.19" height="277.2"/>
    </clipPath>
    <clipPath id="clippath-1">
      <rect class="cls-6" x="39.72" y="42.28" width="372.19" height="277.2"/>
    </clipPath>
    <clipPath id="clippath-2">
      <rect class="cls-6" x="39.72" y="42.28" width="372.19" height="277.2"/>
    </clipPath>
    <clipPath id="clippath-3">
      <rect class="cls-6" x="39.72" y="42.28" width="372.19" height="277.2"/>
    </clipPath>
    <clipPath id="clippath-4">
      <rect class="cls-6" x="39.72" y="42.28" width="372.19" height="277.2"/>
    </clipPath>
    <clipPath id="clippath-5">
      <rect class="cls-6" x="39.72" y="42.28" width="372.19" height="277.2"/>
    </clipPath>
    <clipPath id="clippath-6">
      <rect class="cls-6" x="39.72" y="42.28" width="372.19" height="277.2"/>
    </clipPath>
    <clipPath id="clippath-7">
      <rect class="cls-6" x="39.72" y="42.28" width="372.19" height="277.2"/>
    </clipPath>
    <clipPath id="clippath-8">
      <rect class="cls-6" x="39.72" y="42.28" width="372.19" height="277.2"/>
    </clipPath>
    <clipPath id="clippath-9">
      <rect class="cls-6" x="288.37" y="333.05" width="42.22" height="25.44"/>
    </clipPath>
    <clipPath id="clippath-10">
      <rect class="cls-6" x="39.72" y="42.28" width="372.19" height="277.2"/>
    </clipPath>
    <clipPath id="clippath-11">
      <rect class="cls-6" x="39.72" y="42.28" width="372.19" height="277.2"/>
    </clipPath>
    <clipPath id="clippath-12">
      <rect class="cls-6" x="39.72" y="42.28" width="372.19" height="277.2"/>
    </clipPath>
    <clipPath id="clippath-13">
      <rect class="cls-6" x="39.72" y="42.28" width="372.19" height="277.2"/>
    </clipPath>
    <clipPath id="clippath-14">
      <rect class="cls-6" x="39.72" y="42.28" width="372.19" height="277.2"/>
    </clipPath>
    <clipPath id="clippath-15">
      <rect class="cls-6" x="39.72" y="42.28" width="372.19" height="277.2"/>
    </clipPath>
    <clipPath id="clippath-16">
      <rect class="cls-6" x="48.63" y="298.88" width="16" height="16"/>
    </clipPath>
    <clipPath id="clippath-17">
      <rect class="cls-6" x="90.93" y="298.8" width="16" height="16"/>
    </clipPath>
    <clipPath id="clippath-18">
      <rect class="cls-6" x="133.22" y="298.35" width="16" height="16"/>
    </clipPath>
    <clipPath id="clippath-19">
      <rect class="cls-6" x="175.51" y="296.68" width="16" height="16"/>
    </clipPath>
    <clipPath id="clippath-20">
      <rect class="cls-6" x="217.81" y="294" width="16" height="16"/>
    </clipPath>
    <clipPath id="clippath-21">
      <rect class="cls-6" x="260.1" y="290.73" width="16" height="16"/>
    </clipPath>
    <clipPath id="clippath-22">
      <rect class="cls-6" x="302.4" y="287.41" width="16" height="16"/>
    </clipPath>
    <clipPath id="clippath-23">
      <rect class="cls-6" x="344.69" y="284.13" width="16" height="16"/>
    </clipPath>
    <clipPath id="clippath-24">
      <rect class="cls-6" x="386.98" y="281" width="16" height="16"/>
    </clipPath>
    <clipPath id="clippath-25">
      <rect class="cls-6" x="39.72" y="42.28" width="372.19" height="277.2"/>
    </clipPath>
    <clipPath id="clippath-26">
      <rect class="cls-6" x="48.63" y="298.88" width="16" height="16"/>
    </clipPath>
    <clipPath id="clippath-27">
      <rect class="cls-6" x="90.93" y="297.74" width="16" height="16"/>
    </clipPath>
    <clipPath id="clippath-28">
      <rect class="cls-6" x="133.22" y="289.25" width="16" height="16"/>
    </clipPath>
    <clipPath id="clippath-29">
      <rect class="cls-6" x="175.51" y="276.02" width="16" height="16"/>
    </clipPath>
    <clipPath id="clippath-30">
      <rect class="cls-6" x="217.81" y="261.83" width="16" height="16"/>
    </clipPath>
    <clipPath id="clippath-31">
      <rect class="cls-6" x="260.1" y="247.77" width="16" height="16"/>
    </clipPath>
    <clipPath id="clippath-32">
      <rect class="cls-6" x="302.4" y="234.15" width="16" height="16"/>
    </clipPath>
    <clipPath id="clippath-33">
      <rect class="cls-6" x="344.69" y="221.51" width="16" height="16"/>
    </clipPath>
    <clipPath id="clippath-34">
      <rect class="cls-6" x="386.98" y="209.63" width="16" height="16"/>
    </clipPath>
    <clipPath id="clippath-35">
      <rect class="cls-6" x="39.72" y="42.28" width="372.19" height="277.2"/>
    </clipPath>
    <clipPath id="clippath-36">
      <rect class="cls-6" x="48.63" y="298.88" width="16" height="16"/>
    </clipPath>
    <clipPath id="clippath-37">
      <rect class="cls-6" x="90.93" y="238.85" width="16" height="16"/>
    </clipPath>
    <clipPath id="clippath-38">
      <rect class="cls-6" x="133.22" y="188.69" width="16" height="16"/>
    </clipPath>
    <clipPath id="clippath-39">
      <rect class="cls-6" x="175.51" y="150.13" width="16" height="16"/>
    </clipPath>
    <clipPath id="clippath-40">
      <rect class="cls-6" x="217.81" y="119.92" width="16" height="16"/>
    </clipPath>
    <clipPath id="clippath-41">
      <rect class="cls-6" x="260.1" y="98.72" width="16" height="16"/>
    </clipPath>
    <clipPath id="clippath-42">
      <rect class="cls-6" x="302.4" y="82.77" width="16" height="16"/>
    </clipPath>
    <clipPath id="clippath-43">
      <rect class="cls-6" x="344.69" y="69.63" width="16" height="16"/>
    </clipPath>
    <clipPath id="clippath-44">
      <rect class="cls-6" x="386.98" y="61.07" width="16" height="16"/>
    </clipPath>
    <clipPath id="clippath-45">
      <rect class="cls-6" x="39.72" y="42.28" width="372.19" height="277.2"/>
    </clipPath>
    <clipPath id="clippath-46">
      <rect class="cls-6" x="49.09" y="297.64" width="15.09" height="18.49"/>
    </clipPath>
    <clipPath id="clippath-47">
      <rect class="cls-6" x="91.38" y="217.94" width="15.09" height="18.49"/>
    </clipPath>
    <clipPath id="clippath-48">
      <rect class="cls-6" x="133.68" y="190.69" width="15.09" height="18.49"/>
    </clipPath>
    <clipPath id="clippath-49">
      <rect class="cls-6" x="175.97" y="174.49" width="15.09" height="18.49"/>
    </clipPath>
    <clipPath id="clippath-50">
      <rect class="cls-6" x="218.26" y="163.8" width="15.09" height="18.49"/>
    </clipPath>
    <clipPath id="clippath-51">
      <rect class="cls-6" x="260.56" y="155.92" width="15.09" height="18.49"/>
    </clipPath>
    <clipPath id="clippath-52">
      <rect class="cls-6" x="302.85" y="151.04" width="15.09" height="18.49"/>
    </clipPath>
    <clipPath id="clippath-53">
      <rect class="cls-6" x="345.14" y="147.96" width="15.09" height="18.49"/>
    </clipPath>
    <clipPath id="clippath-54">
      <rect class="cls-6" x="387.44" y="146.28" width="15.09" height="18.49"/>
    </clipPath>
    <clipPath id="clippath-55">
      <rect class="cls-6" x="39.72" y="42.28" width="372.19" height="277.2"/>
    </clipPath>
    <clipPath id="clippath-56">
      <rect class="cls-6" x="48.63" y="298.88" width="16" height="16"/>
    </clipPath>
    <clipPath id="clippath-57">
      <rect class="cls-6" x="90.93" y="225.93" width="16" height="16"/>
    </clipPath>
    <clipPath id="clippath-58">
      <rect class="cls-6" x="133.22" y="199.08" width="16" height="16"/>
    </clipPath>
    <clipPath id="clippath-59">
      <rect class="cls-6" x="175.51" y="183.3" width="16" height="16"/>
    </clipPath>
    <clipPath id="clippath-60">
      <rect class="cls-6" x="217.81" y="174.17" width="16" height="16"/>
    </clipPath>
    <clipPath id="clippath-61">
      <rect class="cls-6" x="260.1" y="167.44" width="16" height="16"/>
    </clipPath>
    <clipPath id="clippath-62">
      <rect class="cls-6" x="302.4" y="162.04" width="16" height="16"/>
    </clipPath>
    <clipPath id="clippath-63">
      <rect class="cls-6" x="344.69" y="158.37" width="16" height="16"/>
    </clipPath>
    <clipPath id="clippath-64">
      <rect class="cls-6" x="386.98" y="156.56" width="16" height="16"/>
    </clipPath>
    <clipPath id="clippath-65">
      <rect class="cls-6" x="39.72" y="42.28" width="372.19" height="277.2"/>
    </clipPath>
    <clipPath id="clippath-66">
      <rect class="cls-6" x="48.63" y="142.97" width="16" height="16"/>
    </clipPath>
    <clipPath id="clippath-67">
      <rect class="cls-6" x="90.93" y="189.15" width="16" height="16"/>
    </clipPath>
    <clipPath id="clippath-68">
      <rect class="cls-6" x="133.22" y="205.34" width="16" height="16"/>
    </clipPath>
    <clipPath id="clippath-69">
      <rect class="cls-6" x="175.51" y="213.58" width="16" height="16"/>
    </clipPath>
    <clipPath id="clippath-70">
      <rect class="cls-6" x="217.81" y="218.66" width="16" height="16"/>
    </clipPath>
    <clipPath id="clippath-71">
      <rect class="cls-6" x="260.1" y="221.98" width="16" height="16"/>
    </clipPath>
    <clipPath id="clippath-72">
      <rect class="cls-6" x="302.4" y="223.64" width="16" height="16"/>
    </clipPath>
    <clipPath id="clippath-73">
      <rect class="cls-6" x="344.69" y="224.65" width="16" height="16"/>
    </clipPath>
    <clipPath id="clippath-74">
      <rect class="cls-6" x="386.98" y="225.16" width="16" height="16"/>
    </clipPath>
    <clipPath id="clippath-75">
      <rect class="cls-6" x="39.72" y="42.28" width="372.19" height="277.2"/>
    </clipPath>
    <clipPath id="clippath-76">
      <rect class="cls-6" x="48.63" y="146.82" width="16" height="16"/>
    </clipPath>
    <clipPath id="clippath-77">
      <rect class="cls-6" x="90.93" y="197.86" width="16" height="16"/>
    </clipPath>
    <clipPath id="clippath-78">
      <rect class="cls-6" x="133.22" y="210.91" width="16" height="16"/>
    </clipPath>
    <clipPath id="clippath-79">
      <rect class="cls-6" x="175.51" y="211.97" width="16" height="16"/>
    </clipPath>
    <clipPath id="clippath-80">
      <rect class="cls-6" x="217.81" y="209.43" width="16" height="16"/>
    </clipPath>
    <clipPath id="clippath-81">
      <rect class="cls-6" x="260.1" y="205.59" width="16" height="16"/>
    </clipPath>
    <clipPath id="clippath-82">
      <rect class="cls-6" x="302.4" y="200.77" width="16" height="16"/>
    </clipPath>
    <clipPath id="clippath-83">
      <rect class="cls-6" x="344.69" y="195.37" width="16" height="16"/>
    </clipPath>
    <clipPath id="clippath-84">
      <rect class="cls-6" x="386.98" y="189.46" width="16" height="16"/>
    </clipPath>
    <clipPath id="clippath-85">
      <rect class="cls-6" x="39.72" y="42.28" width="372.19" height="277.2"/>
    </clipPath>
    <clipPath id="clippath-86">
      <rect class="cls-6" x="48.63" y="115.11" width="16" height="16"/>
    </clipPath>
    <clipPath id="clippath-87">
      <rect class="cls-6" x="90.93" y="130.02" width="16" height="16"/>
    </clipPath>
    <clipPath id="clippath-88">
      <rect class="cls-6" x="133.22" y="116.63" width="16" height="16"/>
    </clipPath>
    <clipPath id="clippath-89">
      <rect class="cls-6" x="175.51" y="99.95" width="16" height="16"/>
    </clipPath>
    <clipPath id="clippath-90">
      <rect class="cls-6" x="217.81" y="82.9" width="16" height="16"/>
    </clipPath>
    <clipPath id="clippath-91">
      <rect class="cls-6" x="260.1" y="70.65" width="16" height="16"/>
    </clipPath>
    <clipPath id="clippath-92">
      <rect class="cls-6" x="302.4" y="60.69" width="16" height="16"/>
    </clipPath>
    <clipPath id="clippath-93">
      <rect class="cls-6" x="344.69" y="52.12" width="16" height="16"/>
    </clipPath>
    <clipPath id="clippath-94">
      <rect class="cls-6" x="386.98" y="46.88" width="16" height="16"/>
    </clipPath>
    <clipPath id="clippath-95">
      <rect class="cls-6" x="39.72" y="42.28" width="372.19" height="277.2"/>
    </clipPath>
    <clipPath id="clippath-96">
      <rect class="cls-6" x="49.09" y="92.81" width="15.09" height="18.49"/>
    </clipPath>
    <clipPath id="clippath-97">
      <rect class="cls-6" x="91.38" y="92.27" width="15.09" height="18.49"/>
    </clipPath>
    <clipPath id="clippath-98">
      <rect class="cls-6" x="133.68" y="95.54" width="15.09" height="18.49"/>
    </clipPath>
    <clipPath id="clippath-99">
      <rect class="cls-6" x="175.97" y="98.11" width="15.09" height="18.49"/>
    </clipPath>
    <clipPath id="clippath-100">
      <rect class="cls-6" x="218.26" y="99.83" width="15.09" height="18.49"/>
    </clipPath>
    <clipPath id="clippath-101">
      <rect class="cls-6" x="260.56" y="101.08" width="15.09" height="18.49"/>
    </clipPath>
    <clipPath id="clippath-102">
      <rect class="cls-6" x="302.85" y="103.01" width="15.09" height="18.49"/>
    </clipPath>
    <clipPath id="clippath-103">
      <rect class="cls-6" x="345.14" y="105.19" width="15.09" height="18.49"/>
    </clipPath>
    <clipPath id="clippath-104">
      <rect class="cls-6" x="387.44" y="107.39" width="15.09" height="18.49"/>
    </clipPath>
    <clipPath id="clippath-105">
      <rect class="cls-6" x="39.72" y="42.28" width="372.19" height="277.2"/>
    </clipPath>
    <clipPath id="clippath-106">
      <rect class="cls-6" x="48.63" y="94.69" width="16" height="16"/>
    </clipPath>
    <clipPath id="clippath-107">
      <rect class="cls-6" x="90.93" y="100.14" width="16" height="16"/>
    </clipPath>
    <clipPath id="clippath-108">
      <rect class="cls-6" x="133.22" y="105.71" width="16" height="16"/>
    </clipPath>
    <clipPath id="clippath-109">
      <rect class="cls-6" x="175.51" y="111.36" width="16" height="16"/>
    </clipPath>
    <clipPath id="clippath-110">
      <rect class="cls-6" x="217.81" y="116.56" width="16" height="16"/>
    </clipPath>
    <clipPath id="clippath-111">
      <rect class="cls-6" x="260.1" y="119.7" width="16" height="16"/>
    </clipPath>
    <clipPath id="clippath-112">
      <rect class="cls-6" x="302.4" y="122.61" width="16" height="16"/>
    </clipPath>
    <clipPath id="clippath-113">
      <rect class="cls-6" x="344.69" y="124.98" width="16" height="16"/>
    </clipPath>
    <clipPath id="clippath-114">
      <rect class="cls-6" x="386.98" y="128.09" width="16" height="16"/>
    </clipPath>
  </defs>
  <rect class="cls-43" width="505.65" height="363.35"/>
  <rect class="cls-43" x="39.72" y="42.28" width="372.19" height="277.2"/>
  <g class="cls-101">
    <line class="cls-22" x1="56.63" y1="319.48" x2="56.63" y2="42.28"/>
  </g>
  <line class="cls-41" x1="56.63" y1="319.48" x2="56.63" y2="322.98"/>
  <line class="cls-26" x1="56.63" y1="319.48" x2="56.63" y2="322.98"/>
  <path class="cls-41" d="M56.63,326.65c.81,0,1.43.33,1.87.97.43.65.65,1.59.65,2.81s-.22,2.17-.65,2.81c-.44.64-1.06.96-1.88.96s-1.44-.32-1.87-.96-.64-1.58-.64-2.81.21-2.16.64-2.81c.43-.64,1.06-.97,1.88-.97ZM56.63,327.43c-.51,0-.89.25-1.15.75-.26.5-.38,1.25-.38,2.25s.12,1.75.38,2.25c.26.5.64.75,1.15.75s.89-.25,1.15-.75c.25-.5.38-1.25.38-2.25s-.13-1.75-.38-2.25c-.26-.5-.64-.75-1.15-.75Z"/>
  <g class="cls-78">
    <line class="cls-22" x1="98.93" y1="319.48" x2="98.93" y2="42.28"/>
  </g>
  <line class="cls-41" x1="98.93" y1="319.48" x2="98.93" y2="322.98"/>
  <line class="cls-26" x1="98.93" y1="319.48" x2="98.93" y2="322.98"/>
  <polygon class="cls-41" points="96.99 333.24 98.6 333.24 98.6 327.68 96.85 328.03 96.85 327.13 98.59 326.78 99.58 326.78 99.58 333.24 101.19 333.24 101.19 334.07 96.99 334.07 96.99 333.24"/>
  <g class="cls-56">
    <line class="cls-22" x1="141.22" y1="319.48" x2="141.22" y2="42.28"/>
  </g>
  <line class="cls-41" x1="141.22" y1="319.48" x2="141.22" y2="322.98"/>
  <line class="cls-26" x1="141.22" y1="319.48" x2="141.22" y2="322.98"/>
  <path class="cls-41" d="M139.96,333.24h3.44v.83h-4.63v-.83c.37-.38.88-.9,1.53-1.56.64-.65,1.05-1.07,1.22-1.26.32-.35.54-.65.66-.9.12-.24.19-.49.19-.73,0-.38-.14-.7-.41-.94-.27-.24-.62-.37-1.06-.37-.31,0-.64.06-.98.16-.34.11-.71.27-1.1.49v-1c.4-.16.77-.28,1.11-.36.34-.08.66-.12.95-.12.75,0,1.35.19,1.8.57.45.38.68.88.68,1.51,0,.3-.06.59-.17.85-.11.27-.31.59-.61.95-.08.1-.34.37-.78.82-.44.45-1.05,1.08-1.84,1.89Z"/>
  <g class="cls-110">
    <line class="cls-22" x1="183.51" y1="319.48" x2="183.51" y2="42.28"/>
  </g>
  <line class="cls-41" x1="183.51" y1="319.48" x2="183.51" y2="322.98"/>
  <line class="cls-26" x1="183.51" y1="319.48" x2="183.51" y2="322.98"/>
  <path class="cls-41" d="M184.4,330.14c.47.1.84.31,1.1.63.26.32.4.72.4,1.18,0,.72-.25,1.28-.74,1.67-.5.39-1.2.58-2.11.58-.31,0-.63-.03-.95-.09-.32-.05-.66-.14-1-.26v-.95c.27.16.57.28.9.36.32.08.66.12,1.02.12.62,0,1.09-.12,1.41-.36.32-.24.49-.6.49-1.07,0-.42-.15-.76-.45-1-.3-.24-.72-.37-1.26-.37h-.85v-.81h.89c.48,0,.85-.09,1.11-.29.26-.19.39-.47.39-.84s-.14-.66-.4-.86c-.27-.2-.65-.3-1.14-.3-.27,0-.56.03-.87.09s-.65.15-1.02.27v-.88c.37-.1.72-.18,1.05-.23.32-.05.63-.08.93-.08.74,0,1.33.17,1.77.51s.66.8.66,1.38c0,.4-.12.74-.35,1.02-.23.28-.56.48-.98.58Z"/>
  <g class="cls-79">
    <line class="cls-22" x1="225.81" y1="319.48" x2="225.81" y2="42.28"/>
  </g>
  <line class="cls-41" x1="225.81" y1="319.48" x2="225.81" y2="322.98"/>
  <line class="cls-26" x1="225.81" y1="319.48" x2="225.81" y2="322.98"/>
  <path class="cls-41" d="M226.15,326.78h1.24v4.75h1.04v.82h-1.04v1.72h-.98v-1.72h-3.29v-.95l3.03-4.62ZM226.41,327.64l-2.49,3.89h2.49v-3.89Z"/>
  <g class="cls-123">
    <line class="cls-22" x1="268.1" y1="319.48" x2="268.1" y2="42.28"/>
  </g>
  <line class="cls-41" x1="268.1" y1="319.48" x2="268.1" y2="322.98"/>
  <line class="cls-26" x1="268.1" y1="319.48" x2="268.1" y2="322.98"/>
  <path class="cls-41" d="M266,326.78h3.87v.83h-2.97v1.79c.14-.05.29-.09.43-.11.14-.02.29-.04.43-.04.81,0,1.45.23,1.93.67.48.45.72,1.05.72,1.81s-.25,1.4-.74,1.83-1.18.64-2.06.64c-.31,0-.62-.03-.94-.07-.32-.05-.64-.12-.98-.23v-.99c.29.16.59.28.91.36.31.08.64.11.99.11.56,0,1.01-.14,1.34-.44.32-.3.49-.7.49-1.21s-.17-.9-.49-1.2c-.33-.3-.78-.45-1.34-.45-.26,0-.53.03-.79.09-.26.06-.53.15-.8.27v-3.66Z"/>
  <g class="cls-65">
    <line class="cls-22" x1="310.4" y1="319.48" x2="310.4" y2="42.28"/>
  </g>
  <line class="cls-41" x1="310.4" y1="319.48" x2="310.4" y2="322.98"/>
  <line class="cls-26" x1="310.4" y1="319.48" x2="310.4" y2="322.98"/>
  <path class="cls-41" d="M312.48,326.94v.9c-.25-.12-.5-.21-.75-.27-.26-.06-.51-.09-.75-.09-.66,0-1.16.22-1.5.66s-.54,1.11-.58,1.99c.19-.28.43-.5.72-.65s.61-.23.96-.23c.73,0,1.31.23,1.73.67.42.44.64,1.05.64,1.81s-.23,1.35-.67,1.8c-.44.45-1.03.67-1.76.67-.84,0-1.49-.32-1.93-.96-.45-.64-.67-1.58-.67-2.81,0-1.15.27-2.07.82-2.75.54-.68,1.28-1.03,2.2-1.03.24,0,.49.03.75.07.25.05.51.12.79.22ZM310.52,330.03c-.44,0-.79.16-1.05.46-.26.3-.39.72-.39,1.24s.13.95.39,1.25.61.45,1.05.45.79-.15,1.05-.45c.26-.3.39-.72.39-1.25s-.13-.94-.39-1.24c-.26-.3-.61-.46-1.05-.46Z"/>
  <g class="cls-73">
    <line class="cls-22" x1="352.69" y1="319.48" x2="352.69" y2="42.28"/>
  </g>
  <line class="cls-41" x1="352.69" y1="319.48" x2="352.69" y2="322.98"/>
  <line class="cls-26" x1="352.69" y1="319.48" x2="352.69" y2="322.98"/>
  <polygon class="cls-41" points="350.33 326.78 355.02 326.78 355.02 327.2 352.37 334.07 351.34 334.07 353.83 327.61 350.33 327.61 350.33 326.78"/>
  <g class="cls-114">
    <line class="cls-22" x1="394.98" y1="319.48" x2="394.98" y2="42.28"/>
  </g>
  <line class="cls-41" x1="394.98" y1="319.48" x2="394.98" y2="322.98"/>
  <line class="cls-26" x1="394.98" y1="319.48" x2="394.98" y2="322.98"/>
  <path class="cls-41" d="M393.63,328.63c0,.38.11.68.35.89.24.21.57.31,1,.31s.75-.1.99-.31c.24-.21.36-.51.36-.89s-.12-.67-.36-.88c-.24-.21-.57-.32-.99-.32s-.76.11-1,.32c-.24.21-.35.5-.35.88ZM393.99,330.19c-.42-.1-.75-.3-.99-.59-.24-.29-.35-.64-.35-1.06,0-.58.2-1.04.62-1.38.41-.34.98-.51,1.71-.51s1.29.17,1.71.51c.41.34.62.8.62,1.38,0,.42-.12.77-.36,1.06-.24.29-.56.49-.98.59.47.11.84.33,1.11.65.26.32.4.72.4,1.18,0,.71-.22,1.25-.65,1.62-.44.38-1.06.56-1.86.56s-1.42-.18-1.85-.56c-.43-.37-.64-.91-.64-1.62,0-.46.13-.86.4-1.18.26-.32.63-.54,1.11-.65ZM394.98,330.61c-.47,0-.84.13-1.11.38-.27.25-.4.59-.4,1.03s.13.79.4,1.04c.27.25.64.37,1.11.37s.83-.12,1.1-.38c.27-.25.41-.59.41-1.03s-.14-.78-.4-1.03c-.27-.25-.64-.38-1.11-.38Z"/>
  <path class="cls-41" d="M133.1,340.61h1.68l4.17,10.94h-1.54l-.99-2.81h-4.93l-.99,2.81h-1.56l4.17-10.94ZM133.94,342.06l-2.01,5.44h4.02l-2.01-5.44Z"/>
  <path class="cls-41" d="M141.29,347.45c0,.99.19,1.77.6,2.34.4.57.96.84,1.68.84s1.27-.27,1.7-.84c.4-.57.61-1.35.61-2.34s-.21-1.75-.61-2.32c-.42-.57-.98-.86-1.7-.86s-1.27.28-1.68.86c-.41.57-.6,1.33-.6,2.32ZM145.88,344.58v-4.44h1.35v11.4h-1.35v-1.23c-.29.5-.65.86-1.08,1.08-.43.22-.94.34-1.54.34-.99,0-1.8-.39-2.43-1.17-.63-.78-.93-1.83-.93-3.12s.3-2.32.93-3.12c.63-.78,1.44-1.18,2.43-1.18.6,0,1.11.12,1.54.36s.79.6,1.08,1.08Z"/>
  <path class="cls-41" d="M150.81,347.45c0,.99.19,1.77.6,2.34.4.57.96.84,1.68.84s1.27-.27,1.7-.84c.4-.57.61-1.35.61-2.34s-.21-1.75-.61-2.32c-.42-.57-.98-.86-1.7-.86s-1.27.28-1.68.86c-.41.57-.6,1.33-.6,2.32ZM155.4,344.58v-4.44h1.35v11.4h-1.35v-1.23c-.29.5-.65.86-1.08,1.08-.43.22-.94.34-1.54.34-.99,0-1.8-.39-2.43-1.17-.63-.78-.93-1.83-.93-3.12s.3-2.32.93-3.12c.63-.78,1.44-1.18,2.43-1.18.6,0,1.11.12,1.54.36s.79.6,1.08,1.08Z"/>
  <path class="cls-41" d="M165.19,346.71c-.01-.73-.23-1.32-.62-1.77-.4-.44-.94-.66-1.6-.66-.75,0-1.35.22-1.8.64s-.72,1.02-.78,1.78h4.8ZM166.54,347.1v.66h-6.19c.06.93.33,1.65.84,2.13.5.48,1.18.72,2.09.72.51,0,1.02-.06,1.5-.18.48-.12.97-.32,1.46-.59v1.27c-.48.21-.98.38-1.49.47-.51.09-1.04.15-1.54.15-1.32,0-2.36-.38-3.12-1.12s-1.14-1.78-1.14-3.09.36-2.4,1.08-3.2c.72-.78,1.71-1.18,2.94-1.18,1.11,0,1.98.36,2.62,1.07.63.72.96,1.68.96,2.9Z"/>
  <path class="cls-41" d="M169.56,347.45c0,.99.19,1.77.6,2.34.4.57.96.84,1.68.84s1.27-.27,1.7-.84c.4-.57.61-1.35.61-2.34s-.21-1.75-.61-2.32c-.42-.57-.98-.86-1.7-.86s-1.27.28-1.68.86c-.41.57-.6,1.33-.6,2.32ZM174.15,344.58v-4.44h1.35v11.4h-1.35v-1.23c-.29.5-.65.86-1.08,1.08-.43.22-.94.34-1.54.34-.99,0-1.8-.39-2.43-1.17-.63-.78-.93-1.83-.93-3.12s.3-2.32.93-3.12c.63-.78,1.44-1.18,2.43-1.18.6,0,1.11.12,1.54.36s.79.6,1.08,1.08Z"/>
  <path class="cls-41" d="M188.95,343.65v1.26c-.39-.21-.77-.36-1.16-.47s-.76-.16-1.15-.16c-.87,0-1.56.28-2.04.84-.48.55-.72,1.33-.72,2.32s.24,1.78.72,2.34,1.17.82,2.04.82c.39,0,.76-.05,1.15-.15.39-.11.76-.27,1.16-.48v1.25c-.39.18-.78.31-1.17.39-.4.07-.84.12-1.29.12-1.23,0-2.22-.38-2.94-1.15-.74-.77-1.1-1.82-1.1-3.14s.36-2.39,1.1-3.15,1.74-1.16,3.03-1.16c.42,0,.82.05,1.21.14s.78.21,1.16.38Z"/>
  <path class="cls-41" d="M197.71,346.86v4.68h-1.35v-1.24c-.32.51-.71.87-1.15,1.1-.45.22-1.02.34-1.68.34-.84,0-1.51-.22-2.01-.69-.49-.47-.74-1.1-.74-1.89,0-.91.3-1.61.93-2.09.62-.47,1.53-.7,2.76-.7h1.89v-.14c0-.61-.21-1.09-.61-1.44-.4-.33-.98-.51-1.71-.51-.48,0-.93.06-1.38.18-.45.12-.87.29-1.27.5v-1.25c.48-.18.96-.33,1.43-.42s.91-.15,1.36-.15c1.19,0,2.07.32,2.66.93.58.61.88,1.55.88,2.79ZM195.02,347.42c-1.1,0-1.85.13-2.26.38-.42.26-.63.68-.63,1.27,0,.48.15.87.46,1.14.32.28.75.42,1.29.42.75,0,1.35-.26,1.8-.8.45-.52.68-1.23.68-2.11v-.3h-1.33Z"/>
  <path class="cls-41" d="M206.39,343.65v1.26c-.39-.21-.77-.36-1.16-.47s-.76-.16-1.15-.16c-.87,0-1.56.28-2.04.84-.48.55-.72,1.33-.72,2.32s.24,1.78.72,2.34,1.17.82,2.04.82c.39,0,.76-.05,1.15-.15.39-.11.76-.27,1.16-.48v1.25c-.39.18-.78.31-1.17.39-.4.07-.84.12-1.29.12-1.23,0-2.22-.38-2.94-1.15-.74-.77-1.1-1.82-1.1-3.14s.36-2.39,1.1-3.15,1.74-1.16,3.03-1.16c.42,0,.82.05,1.21.14s.78.21,1.16.38Z"/>
  <path class="cls-41" d="M215.55,346.59v4.95h-1.35v-4.9c0-.78-.16-1.35-.46-1.74-.3-.39-.75-.58-1.35-.58-.74,0-1.31.24-1.73.7s-.63,1.09-.63,1.89v4.63h-1.35v-11.4h1.35v4.47c.32-.48.69-.85,1.14-1.09.43-.24.95-.38,1.51-.38.93,0,1.65.3,2.13.89s.74,1.44.74,2.57Z"/>
  <path class="cls-41" d="M223.9,346.71c-.01-.73-.23-1.32-.62-1.77-.4-.44-.94-.66-1.6-.66-.75,0-1.35.22-1.8.64s-.72,1.02-.78,1.78h4.8ZM225.25,347.1v.66h-6.19c.06.93.33,1.65.84,2.13.5.48,1.18.72,2.09.72.51,0,1.02-.06,1.5-.18.48-.12.97-.32,1.46-.59v1.27c-.48.21-.98.38-1.49.47-.51.09-1.04.15-1.54.15-1.32,0-2.36-.38-3.12-1.12s-1.14-1.78-1.14-3.09.36-2.4,1.08-3.2c.72-.78,1.71-1.18,2.94-1.18,1.11,0,1.98.36,2.62,1.07.63.72.96,1.68.96,2.9Z"/>
  <path class="cls-41" d="M238.14,343.65v1.26c-.39-.21-.77-.36-1.16-.47s-.76-.16-1.15-.16c-.87,0-1.56.28-2.04.84-.48.55-.72,1.33-.72,2.32s.24,1.78.72,2.34,1.17.82,2.04.82c.39,0,.76-.05,1.15-.15.39-.11.76-.27,1.16-.48v1.25c-.39.18-.78.31-1.17.39-.4.07-.84.12-1.29.12-1.23,0-2.22-.38-2.94-1.15-.74-.77-1.1-1.82-1.1-3.14s.36-2.39,1.1-3.15,1.74-1.16,3.03-1.16c.42,0,.82.05,1.21.14s.78.21,1.16.38Z"/>
  <path class="cls-41" d="M246.9,346.86v4.68h-1.35v-1.24c-.32.51-.71.87-1.15,1.1-.45.22-1.02.34-1.68.34-.84,0-1.51-.22-2.01-.69-.49-.47-.74-1.1-.74-1.89,0-.91.3-1.61.93-2.09.62-.47,1.53-.7,2.76-.7h1.89v-.14c0-.61-.21-1.09-.61-1.44-.4-.33-.98-.51-1.71-.51-.48,0-.93.06-1.38.18-.45.12-.87.29-1.27.5v-1.25c.48-.18.96-.33,1.43-.42s.91-.15,1.36-.15c1.19,0,2.07.32,2.66.93.58.61.88,1.55.88,2.79ZM244.21,347.42c-1.1,0-1.85.13-2.26.38-.42.26-.63.68-.63,1.27,0,.48.15.87.46,1.14.32.28.75.42,1.29.42.75,0,1.35-.26,1.8-.8.45-.52.68-1.23.68-2.11v-.3h-1.33Z"/>
  <path class="cls-41" d="M255.56,347.45c0-.99-.21-1.75-.61-2.32-.42-.57-.98-.86-1.68-.86s-1.27.28-1.68.86c-.42.57-.62,1.33-.62,2.32s.2,1.77.62,2.34c.4.57.96.84,1.68.84s1.26-.27,1.68-.84c.4-.57.61-1.35.61-2.34ZM250.97,350.31v4.34h-1.35v-11.31h1.35v1.24c.27-.48.63-.84,1.07-1.08s.96-.36,1.56-.36c.99,0,1.8.41,2.43,1.18.62.8.93,1.83.93,3.12s-.32,2.34-.93,3.12c-.63.78-1.44,1.17-2.43,1.17-.6,0-1.12-.12-1.56-.34-.43-.23-.79-.59-1.07-1.08Z"/>
  <path class="cls-41" d="M265.61,346.86v4.68h-1.35v-1.24c-.32.51-.71.87-1.15,1.1-.45.22-1.02.34-1.68.34-.84,0-1.51-.22-2.01-.69s-.74-1.1-.74-1.89c0-.91.3-1.61.93-2.09.62-.47,1.53-.7,2.76-.7h1.89v-.14c0-.61-.21-1.09-.62-1.44-.4-.33-.97-.51-1.71-.51-.48,0-.93.06-1.38.18-.45.12-.87.29-1.27.5v-1.25c.48-.18.96-.33,1.42-.42.47-.09.92-.15,1.37-.15,1.18,0,2.07.32,2.65.93.58.61.88,1.55.88,2.79ZM262.93,347.42c-1.1,0-1.85.13-2.26.38-.42.26-.63.68-.63,1.27,0,.48.15.87.46,1.14.32.28.75.42,1.29.42.75,0,1.35-.26,1.8-.8.45-.52.68-1.23.68-2.11v-.3h-1.34Z"/>
  <path class="cls-41" d="M274.29,343.65v1.26c-.39-.21-.77-.36-1.15-.47-.39-.1-.77-.16-1.15-.16-.87,0-1.56.28-2.04.84-.48.55-.72,1.33-.72,2.32s.24,1.78.72,2.34,1.17.82,2.04.82c.39,0,.76-.05,1.15-.15.39-.11.76-.27,1.15-.48v1.25c-.39.18-.78.31-1.17.39-.4.07-.84.12-1.29.12-1.23,0-2.22-.38-2.94-1.15-.74-.77-1.1-1.82-1.1-3.14s.36-2.39,1.1-3.15c.73-.76,1.74-1.16,3.03-1.16.42,0,.82.05,1.21.14.39.09.78.21,1.15.38Z"/>
  <path class="cls-41" d="M276.63,340.14h1.35v1.71h-1.35v-1.71ZM276.63,343.34h1.35v8.2h-1.35v-8.2Z"/>
  <path class="cls-41" d="M282.13,341.01v2.33h2.77v1.05h-2.77v4.45c0,.67.09,1.11.27,1.29.18.19.55.28,1.12.28h1.38v1.12h-1.38c-1.05,0-1.77-.19-2.16-.59-.39-.39-.59-1.1-.59-2.11v-4.45h-.99v-1.05h.99v-2.33h1.35Z"/>
  <path class="cls-41" d="M290.1,352.29c-.39.96-.76,1.61-1.12,1.9-.36.3-.84.45-1.44.45h-1.08v-1.12h.8c.36,0,.64-.09.85-.27.21-.18.43-.59.69-1.24l.24-.6-3.32-8.07h1.42l2.57,6.42,2.57-6.42h1.42l-3.6,8.95Z"/>
  <polygon class="cls-41" points="295.9 349.68 297.45 349.68 297.45 350.94 296.25 353.27 295.3 353.27 295.9 350.94 295.9 349.68"/>
  <polygon class="cls-41" points="316.46 340.61 317.95 340.61 316.07 350.31 321.4 350.31 321.16 351.54 314.35 351.54 316.46 340.61"/>
  <g class="cls-98">
    <path class="cls-41" d="M303.8,351.54l4.17-10.93h1.68l4.17,10.93h-10.02ZM308.81,342.06l-3,8.25h6l-3-8.25Z"/>
  </g>
  <g class="cls-128">
    <line class="cls-22" x1="39.72" y1="306.88" x2="411.9" y2="306.88"/>
  </g>
  <line class="cls-41" x1="39.72" y1="306.88" x2="36.22" y2="306.88"/>
  <line class="cls-26" x1="39.72" y1="306.88" x2="36.22" y2="306.88"/>
  <path class="cls-41" d="M28.9,302.68c.81,0,1.43.33,1.87.97.43.65.65,1.59.65,2.81s-.22,2.17-.65,2.81c-.44.64-1.06.96-1.88.96s-1.44-.32-1.87-.96c-.43-.64-.64-1.58-.64-2.81s.21-2.16.64-2.81c.43-.64,1.06-.97,1.88-.97ZM28.9,303.46c-.51,0-.89.25-1.15.75s-.38,1.25-.38,2.25.12,1.75.38,2.25.64.75,1.15.75.89-.25,1.15-.75c.25-.5.38-1.25.38-2.25s-.13-1.75-.38-2.25c-.26-.5-.64-.75-1.15-.75Z"/>
  <g class="cls-34">
    <line class="cls-22" x1="39.72" y1="247.06" x2="411.9" y2="247.06"/>
  </g>
  <line class="cls-41" x1="39.72" y1="247.06" x2="36.22" y2="247.06"/>
  <line class="cls-26" x1="39.72" y1="247.06" x2="36.22" y2="247.06"/>
  <path class="cls-41" d="M27.64,249.45h3.44v.83h-4.63v-.83c.37-.38.88-.9,1.53-1.56.64-.65,1.05-1.07,1.22-1.26.32-.35.54-.65.66-.9.12-.24.19-.49.19-.73,0-.38-.14-.7-.41-.94s-.62-.37-1.06-.37c-.31,0-.64.06-.98.16-.34.11-.71.27-1.1.49v-1c.4-.16.77-.28,1.11-.36.34-.08.66-.12.95-.12.75,0,1.35.19,1.8.57.45.38.68.88.68,1.51,0,.3-.06.59-.17.85-.11.27-.31.59-.61.95-.08.1-.34.37-.78.82-.44.45-1.05,1.08-1.84,1.89Z"/>
  <g class="cls-87">
    <line class="cls-22" x1="39.72" y1="187.24" x2="411.9" y2="187.24"/>
  </g>
  <line class="cls-41" x1="39.72" y1="187.24" x2="36.22" y2="187.24"/>
  <line class="cls-26" x1="39.72" y1="187.24" x2="36.22" y2="187.24"/>
  <path class="cls-41" d="M29.24,183.05h1.24v4.75h1.04v.82h-1.04v1.72h-.98v-1.72h-3.29v-.95l3.03-4.62ZM29.5,183.91l-2.49,3.89h2.49v-3.89Z"/>
  <g class="cls-57">
    <line class="cls-22" x1="39.72" y1="127.42" x2="411.9" y2="127.42"/>
  </g>
  <line class="cls-41" x1="39.72" y1="127.42" x2="36.22" y2="127.42"/>
  <line class="cls-26" x1="39.72" y1="127.42" x2="36.22" y2="127.42"/>
  <path class="cls-41" d="M30.98,123.51v.9c-.25-.12-.5-.21-.75-.27-.26-.06-.51-.09-.75-.09-.66,0-1.16.22-1.5.66-.34.44-.54,1.11-.58,1.99.19-.28.43-.5.72-.65.29-.15.61-.23.96-.23.73,0,1.31.23,1.73.67.42.44.64,1.05.64,1.81s-.23,1.35-.67,1.8c-.44.45-1.03.67-1.76.67-.84,0-1.49-.32-1.93-.96-.45-.64-.67-1.58-.67-2.81,0-1.15.27-2.07.82-2.75.54-.68,1.28-1.03,2.2-1.03.24,0,.49.03.75.07.25.05.51.12.79.22ZM29.02,126.6c-.44,0-.79.16-1.05.46s-.39.72-.39,1.24.13.95.39,1.25.61.45,1.05.45.79-.15,1.05-.45.39-.72.39-1.25-.13-.94-.39-1.24-.61-.46-1.05-.46Z"/>
  <g class="cls-120">
    <line class="cls-22" x1="39.72" y1="67.6" x2="411.9" y2="67.6"/>
  </g>
  <line class="cls-41" x1="39.72" y1="67.6" x2="36.22" y2="67.6"/>
  <line class="cls-26" x1="39.72" y1="67.6" x2="36.22" y2="67.6"/>
  <path class="cls-41" d="M27.55,65.38c0,.38.11.68.35.89.24.21.57.31,1,.31s.75-.1.99-.31c.24-.21.36-.51.36-.89s-.12-.67-.36-.88c-.24-.21-.57-.32-.99-.32s-.76.11-1,.32c-.24.21-.35.5-.35.88ZM27.91,66.94c-.42-.1-.75-.3-.99-.59-.24-.29-.35-.64-.35-1.06,0-.58.2-1.04.62-1.38.41-.34.98-.51,1.71-.51s1.29.17,1.71.51c.41.34.62.8.62,1.38,0,.42-.12.77-.36,1.06-.24.29-.56.49-.98.59.47.11.84.33,1.11.65.26.32.4.72.4,1.18,0,.71-.22,1.25-.65,1.62-.44.38-1.06.56-1.86.56s-1.42-.18-1.85-.56c-.43-.37-.64-.91-.64-1.62,0-.46.13-.86.4-1.18.26-.32.63-.54,1.11-.65ZM28.9,67.36c-.47,0-.84.13-1.11.38s-.4.59-.4,1.03.13.79.4,1.04.64.37,1.11.37.83-.12,1.1-.38c.27-.25.41-.59.41-1.03s-.14-.78-.4-1.03c-.27-.25-.64-.38-1.11-.38Z"/>
  <path class="cls-41" d="M7.66,221.81v-3.04c0-2.12.45-3.68,1.32-4.67.89-.99,2.27-1.48,4.14-1.48s3.27.51,4.16,1.5c.89.99,1.32,2.55,1.32,4.65v3.04H7.66ZM8.87,220.32h8.51v-1.79c0-1.5-.33-2.61-1.02-3.32-.69-.69-1.77-1.05-3.24-1.05s-2.53.36-3.23,1.05c-.67.71-1.02,1.82-1.02,3.32v1.79Z"/>
  <path class="cls-41" d="M13.76,204.65c-.74.01-1.32.23-1.77.62-.43.4-.66.94-.66,1.6,0,.75.23,1.35.65,1.8s1.02.72,1.78.78v-4.8ZM14.15,203.3h.66v6.19c.93-.06,1.65-.33,2.13-.84.48-.5.72-1.18.72-2.09,0-.51-.06-1.02-.18-1.5-.12-.48-.31-.97-.58-1.46h1.27c.21.48.38.98.47,1.49.09.51.15,1.04.15,1.54,0,1.32-.38,2.36-1.12,3.12s-1.78,1.14-3.09,1.14-2.4-.36-3.19-1.08c-.78-.72-1.19-1.71-1.19-2.94,0-1.11.36-1.98,1.06-2.62.72-.63,1.68-.96,2.9-.96Z"/>
  <rect class="cls-41" x="7.19" y="199.74" width="11.4" height="1.35"/>
  <path class="cls-41" d="M13.91,190.5h4.68v1.35h-1.25c.51.32.87.71,1.1,1.15s.34,1.02.34,1.68c0,.84-.23,1.51-.69,2.01-.46.49-1.09.74-1.89.74-.91,0-1.6-.3-2.09-.93-.47-.62-.7-1.53-.7-2.76v-1.89h-.14c-.61,0-1.1.21-1.44.61-.33.4-.51.98-.51,1.71,0,.48.06.93.18,1.38.12.45.28.87.49,1.27h-1.24c-.18-.48-.33-.96-.42-1.43s-.15-.91-.15-1.36c0-1.19.32-2.07.93-2.66.61-.58,1.55-.88,2.79-.88ZM14.47,193.19c0,1.1.14,1.85.38,2.26.26.42.68.63,1.27.63.48,0,.87-.15,1.14-.46.28-.32.42-.75.42-1.29,0-.75-.25-1.35-.79-1.8-.53-.45-1.23-.68-2.12-.68h-.3v1.33Z"/>
  <path class="cls-41" d="M19.34,184.31c.96.39,1.6.76,1.91,1.12.3.36.45.84.45,1.44v1.08h-1.12v-.79c0-.36-.09-.65-.27-.86-.18-.21-.58-.43-1.24-.69l-.6-.24-8.07,3.32v-1.43l6.42-2.57-6.42-2.57v-1.42l8.95,3.6Z"/>
  <path class="cls-41" d="M7.21,170.84c1.14.66,2.25,1.14,3.35,1.45,1.1.33,2.2.48,3.33.48s2.25-.15,3.35-.48c1.11-.31,2.2-.79,3.33-1.45v1.17c-1.16.74-2.26,1.29-3.38,1.65s-2.2.54-3.3.54-2.18-.18-3.29-.54c-1.11-.36-2.23-.9-3.39-1.65v-1.17Z"/>
  <path class="cls-41" d="M10.63,162.99h1.27c-.18.39-.33.78-.43,1.18-.09.42-.15.84-.15,1.28,0,.68.1,1.18.31,1.51s.51.49.91.49c.32,0,.56-.12.73-.36.18-.24.36-.72.51-1.44l.11-.46c.21-.96.51-1.63.87-2.04.38-.39.9-.6,1.56-.6.76,0,1.36.3,1.8.9.45.6.66,1.44.66,2.49,0,.45-.05.9-.12,1.38-.08.48-.2.97-.38,1.5h-1.4c.27-.49.47-.99.58-1.47.14-.48.19-.96.19-1.44,0-.63-.1-1.12-.31-1.47-.21-.33-.53-.51-.93-.51-.36,0-.65.13-.84.38-.19.24-.39.78-.57,1.62l-.11.46c-.18.84-.45,1.46-.81,1.82-.36.38-.85.56-1.5.56-.76,0-1.36-.27-1.78-.81-.42-.54-.63-1.32-.63-2.34,0-.49.05-.96.12-1.41.08-.44.18-.84.32-1.22Z"/>
  <path class="cls-41" d="M13.76,154.74c-.74.01-1.32.23-1.77.62-.43.4-.66.94-.66,1.6,0,.75.23,1.35.65,1.8s1.02.72,1.78.78v-4.8ZM14.15,153.39h.66v6.19c.93-.06,1.65-.33,2.13-.84.48-.5.72-1.18.72-2.09,0-.51-.06-1.02-.18-1.5-.12-.48-.31-.97-.58-1.46h1.27c.21.48.38.98.47,1.49.09.51.15,1.04.15,1.54,0,1.32-.38,2.36-1.12,3.12s-1.78,1.14-3.09,1.14-2.4-.36-3.19-1.08c-.78-.72-1.19-1.71-1.19-2.94,0-1.11.36-1.98,1.06-2.62.72-.63,1.68-.96,2.9-.96Z"/>
  <path class="cls-41" d="M10.7,145.28h1.26c-.21.39-.36.76-.47,1.16-.11.39-.16.76-.16,1.15,0,.87.28,1.56.84,2.04s1.34.72,2.32.72,1.79-.24,2.34-.72c.56-.48.83-1.17.83-2.04,0-.39-.05-.76-.15-1.15-.1-.39-.27-.77-.48-1.16h1.24c.18.39.32.78.39,1.17.07.4.12.84.12,1.29,0,1.23-.38,2.22-1.15,2.94-.77.74-1.82,1.1-3.14,1.1s-2.39-.36-3.15-1.1c-.76-.74-1.15-1.74-1.15-3.03,0-.42.05-.82.14-1.21.09-.39.21-.78.38-1.16Z"/>
  <path class="cls-41" d="M7.21,143.15v-1.17c1.15-.72,2.28-1.28,3.39-1.64,1.11-.36,2.2-.55,3.29-.55s2.19.19,3.3.55,2.22.92,3.38,1.64v1.17c-1.12-.65-2.22-1.12-3.33-1.46-1.09-.32-2.2-.48-3.35-.48s-2.23.16-3.33.48c-1.1.33-2.21.81-3.35,1.46Z"/>
  <polygon class="cls-41" points="46.73 32.93 44.5 35.17 46.73 37.4 46.15 37.99 43.91 35.75 41.67 37.99 41.09 37.4 43.32 35.17 41.09 32.93 41.67 32.34 43.91 34.58 46.15 32.34 46.73 32.93"/>
  <polygon class="cls-41" points="49.33 37.47 50.94 37.47 50.94 31.91 49.19 32.26 49.19 31.36 50.93 31.01 51.92 31.01 51.92 37.47 53.53 37.47 53.53 38.3 49.33 38.3 49.33 37.47"/>
  <path class="cls-41" d="M57.64,30.88c.81,0,1.43.33,1.87.97.43.65.65,1.59.65,2.81s-.22,2.17-.65,2.81c-.44.64-1.06.96-1.88.96s-1.44-.32-1.87-.96c-.43-.64-.64-1.58-.64-2.81s.21-2.16.64-2.81c.43-.64,1.06-.97,1.88-.97ZM57.64,31.66c-.51,0-.89.25-1.15.75-.26.5-.38,1.25-.38,2.25s.12,1.75.38,2.25c.26.5.64.75,1.15.75s.89-.25,1.15-.75c.25-.5.38-1.25.38-2.25s-.13-1.75-.38-2.25c-.26-.5-.64-.75-1.15-.75Z"/>
  <path class="cls-41" d="M64.6,29.48v.63c-.18-.08-.35-.15-.53-.19-.18-.04-.36-.06-.53-.06-.46,0-.81.15-1.05.46s-.38.78-.41,1.39c.13-.2.3-.35.5-.46.2-.1.43-.16.67-.16.51,0,.92.16,1.21.47.29.31.45.73.45,1.27s-.16.95-.47,1.26c-.31.32-.72.47-1.23.47-.59,0-1.04-.22-1.35-.67-.31-.45-.47-1.11-.47-1.97,0-.8.19-1.45.57-1.92.38-.48.9-.72,1.54-.72.17,0,.34.02.53.05.17.04.36.08.55.15ZM63.22,31.65c-.31,0-.55.11-.74.32-.18.21-.27.5-.27.87s.09.67.27.88.43.32.74.32.55-.11.74-.32c.18-.21.27-.5.27-.88s-.09-.66-.27-.87c-.18-.21-.43-.32-.74-.32Z"/>
  <g class="cls-64">
    <polyline class="cls-8" points="56.63 306.88 98.93 306.8 141.22 306.35 183.51 304.68 225.81 302 268.1 298.73 310.4 295.41 352.69 292.13 394.98 289"/>
    <g class="cls-35">
      <polygon class="cls-21" points="56.63 303.88 53.63 309.88 59.63 309.88 56.63 303.88"/>
    </g>
    <g class="cls-121">
      <polygon class="cls-21" points="98.93 303.8 95.93 309.8 101.93 309.8 98.93 303.8"/>
    </g>
    <g class="cls-118">
      <polygon class="cls-21" points="141.22 303.35 138.22 309.35 144.22 309.35 141.22 303.35"/>
    </g>
    <g class="cls-106">
      <polygon class="cls-21" points="183.51 301.68 180.51 307.68 186.51 307.68 183.51 301.68"/>
    </g>
    <g class="cls-33">
      <polygon class="cls-21" points="225.81 299 222.81 305 228.81 305 225.81 299"/>
    </g>
    <g class="cls-74">
      <polygon class="cls-21" points="268.1 295.73 265.1 301.73 271.1 301.73 268.1 295.73"/>
    </g>
    <g class="cls-95">
      <polygon class="cls-21" points="310.4 292.41 307.4 298.41 313.4 298.41 310.4 292.41"/>
    </g>
    <g class="cls-129">
      <polygon class="cls-21" points="352.69 289.13 349.69 295.13 355.69 295.13 352.69 289.13"/>
    </g>
    <g class="cls-91">
      <polygon class="cls-21" points="394.98 286 391.98 292 397.98 292 394.98 286"/>
    </g>
  </g>
  <g class="cls-61">
    <polyline class="cls-14" points="56.63 306.88 98.93 305.74 141.22 297.25 183.51 284.02 225.81 269.83 268.1 255.77 310.4 242.15 352.69 229.51 394.98 217.63"/>
    <g class="cls-69">
      <rect class="cls-20" x="53.63" y="303.88" width="6" height="6"/>
    </g>
    <g class="cls-82">
      <rect class="cls-20" x="95.93" y="302.74" width="6" height="6"/>
    </g>
    <g class="cls-139">
      <rect class="cls-20" x="138.22" y="294.25" width="6" height="6"/>
    </g>
    <g class="cls-117">
      <rect class="cls-20" x="180.51" y="281.02" width="6" height="6"/>
    </g>
    <g class="cls-93">
      <rect class="cls-20" x="222.81" y="266.83" width="6" height="6"/>
    </g>
    <g class="cls-107">
      <rect class="cls-20" x="265.1" y="252.77" width="6" height="6"/>
    </g>
    <g class="cls-49">
      <rect class="cls-20" x="307.4" y="239.15" width="6" height="6"/>
    </g>
    <g class="cls-40">
      <rect class="cls-20" x="349.69" y="226.51" width="6" height="6"/>
    </g>
    <g class="cls-75">
      <rect class="cls-20" x="391.98" y="214.63" width="6" height="6"/>
    </g>
  </g>
  <g class="cls-144">
    <polyline class="cls-11" points="56.63 306.88 98.93 246.85 141.22 196.69 183.51 158.13 225.81 127.92 268.1 106.72 310.4 90.77 352.69 77.63 394.98 69.07"/>
    <g class="cls-81">
      <path class="cls-10" d="M53.63,303.88l6,6M53.63,309.88l6-6"/>
    </g>
    <g class="cls-59">
      <path class="cls-10" d="M95.93,243.85l6,6M95.93,249.85l6-6"/>
    </g>
    <g class="cls-80">
      <path class="cls-10" d="M138.22,193.69l6,6M138.22,199.69l6-6"/>
    </g>
    <g class="cls-105">
      <path class="cls-10" d="M180.51,155.13l6,6M180.51,161.13l6-6"/>
    </g>
    <g class="cls-68">
      <path class="cls-10" d="M222.81,124.92l6,6M222.81,130.92l6-6"/>
    </g>
    <g class="cls-48">
      <path class="cls-10" d="M265.1,103.72l6,6M265.1,109.72l6-6"/>
    </g>
    <g class="cls-126">
      <path class="cls-10" d="M307.4,87.77l6,6M307.4,93.77l6-6"/>
    </g>
    <g class="cls-112">
      <path class="cls-10" d="M349.69,74.63l6,6M349.69,80.63l6-6"/>
    </g>
    <g class="cls-86">
      <path class="cls-10" d="M391.98,66.07l6,6M391.98,72.07l6-6"/>
    </g>
  </g>
  <g class="cls-31">
    <polyline class="cls-25" points="56.63 306.88 98.93 227.19 141.22 199.94 183.51 183.73 225.81 173.04 268.1 165.16 310.4 160.28 352.69 157.21 394.98 155.53"/>
    <g class="cls-60">
      <polygon class="cls-2" points="56.63 311.12 59.18 306.88 56.63 302.64 54.09 306.88 56.63 311.12"/>
    </g>
    <g class="cls-45">
      <polygon class="cls-2" points="98.93 231.43 101.47 227.19 98.93 222.94 96.38 227.19 98.93 231.43"/>
    </g>
    <g class="cls-103">
      <polygon class="cls-2" points="141.22 204.18 143.77 199.94 141.22 195.69 138.68 199.94 141.22 204.18"/>
    </g>
    <g class="cls-135">
      <polygon class="cls-2" points="183.51 187.97 186.06 183.73 183.51 179.49 180.97 183.73 183.51 187.97"/>
    </g>
    <g class="cls-102">
      <polygon class="cls-2" points="225.81 177.28 228.35 173.04 225.81 168.8 223.26 173.04 225.81 177.28"/>
    </g>
    <g class="cls-138">
      <polygon class="cls-2" points="268.1 169.4 270.65 165.16 268.1 160.92 265.56 165.16 268.1 169.4"/>
    </g>
    <g class="cls-100">
      <polygon class="cls-2" points="310.4 164.52 312.94 160.28 310.4 156.04 307.85 160.28 310.4 164.52"/>
    </g>
    <g class="cls-134">
      <polygon class="cls-2" points="352.69 161.45 355.24 157.21 352.69 152.96 350.14 157.21 352.69 161.45"/>
    </g>
    <g class="cls-109">
      <polygon class="cls-2" points="394.98 159.77 397.53 155.53 394.98 151.28 392.44 155.53 394.98 159.77"/>
    </g>
  </g>
  <g class="cls-115">
    <polyline class="cls-4" points="56.63 306.88 98.93 233.93 141.22 207.08 183.51 191.3 225.81 182.17 268.1 175.44 310.4 170.04 352.69 166.37 394.98 164.56"/>
    <g class="cls-133">
      <path class="cls-3" d="M56.63,309.88c.8,0,1.56-.32,2.12-.88.56-.56.88-1.33.88-2.12s-.32-1.56-.88-2.12c-.56-.56-1.33-.88-2.12-.88s-1.56.32-2.12.88c-.56.56-.88,1.33-.88,2.12s.32,1.56.88,2.12c.56.56,1.33.88,2.12.88Z"/>
    </g>
    <g class="cls-76">
      <path class="cls-3" d="M98.93,236.93c.8,0,1.56-.32,2.12-.88.56-.56.88-1.33.88-2.12s-.32-1.56-.88-2.12c-.56-.56-1.33-.88-2.12-.88s-1.56.32-2.12.88c-.56.56-.88,1.33-.88,2.12s.32,1.56.88,2.12c.56.56,1.33.88,2.12.88Z"/>
    </g>
    <g class="cls-124">
      <path class="cls-3" d="M141.22,210.08c.8,0,1.56-.32,2.12-.88s.88-1.33.88-2.12-.32-1.56-.88-2.12-1.33-.88-2.12-.88-1.56.32-2.12.88-.88,1.33-.88,2.12.32,1.56.88,2.12,1.33.88,2.12.88Z"/>
    </g>
    <g class="cls-36">
      <path class="cls-3" d="M183.51,194.3c.8,0,1.56-.32,2.12-.88s.88-1.33.88-2.12-.32-1.56-.88-2.12-1.33-.88-2.12-.88-1.56.32-2.12.88-.88,1.33-.88,2.12.32,1.56.88,2.12,1.33.88,2.12.88Z"/>
    </g>
    <g class="cls-85">
      <path class="cls-3" d="M225.81,185.17c.8,0,1.56-.32,2.12-.88s.88-1.33.88-2.12-.32-1.56-.88-2.12-1.33-.88-2.12-.88-1.56.32-2.12.88-.88,1.33-.88,2.12.32,1.56.88,2.12,1.33.88,2.12.88Z"/>
    </g>
    <g class="cls-104">
      <path class="cls-3" d="M268.1,178.44c.8,0,1.56-.32,2.12-.88.56-.56.88-1.33.88-2.12s-.32-1.56-.88-2.12c-.56-.56-1.33-.88-2.12-.88s-1.56.32-2.12.88c-.56.56-.88,1.33-.88,2.12s.32,1.56.88,2.12c.56.56,1.33.88,2.12.88Z"/>
    </g>
    <g class="cls-30">
      <path class="cls-3" d="M310.4,173.04c.8,0,1.56-.32,2.12-.88.56-.56.88-1.33.88-2.12s-.32-1.56-.88-2.12c-.56-.56-1.33-.88-2.12-.88s-1.56.32-2.12.88c-.56.56-.88,1.33-.88,2.12s.32,1.56.88,2.12c.56.56,1.33.88,2.12.88Z"/>
    </g>
    <g class="cls-32">
      <path class="cls-3" d="M352.69,169.37c.8,0,1.56-.32,2.12-.88.56-.56.88-1.33.88-2.12s-.32-1.56-.88-2.12c-.56-.56-1.33-.88-2.12-.88s-1.56.32-2.12.88c-.56.56-.88,1.33-.88,2.12s.32,1.56.88,2.12c.56.56,1.33.88,2.12.88Z"/>
    </g>
    <g class="cls-44">
      <path class="cls-3" d="M394.98,167.56c.8,0,1.56-.32,2.12-.88.56-.56.88-1.33.88-2.12s-.32-1.56-.88-2.12c-.56-.56-1.33-.88-2.12-.88s-1.56.32-2.12.88c-.56.56-.88,1.33-.88,2.12s.32,1.56.88,2.12c.56.56,1.33.88,2.12.88Z"/>
    </g>
  </g>
  <g class="cls-127">
    <polyline class="cls-13" points="56.63 150.97 98.93 197.15 141.22 213.34 183.51 221.58 225.81 226.66 268.1 229.98 310.4 231.64 352.69 232.65 394.98 233.16"/>
    <g class="cls-145">
      <polygon class="cls-21" points="56.63 147.97 53.63 153.97 59.63 153.97 56.63 147.97"/>
    </g>
    <g class="cls-137">
      <polygon class="cls-21" points="98.93 194.15 95.93 200.15 101.93 200.15 98.93 194.15"/>
    </g>
    <g class="cls-143">
      <polygon class="cls-21" points="141.22 210.34 138.22 216.34 144.22 216.34 141.22 210.34"/>
    </g>
    <g class="cls-116">
      <polygon class="cls-21" points="183.51 218.58 180.51 224.58 186.51 224.58 183.51 218.58"/>
    </g>
    <g class="cls-113">
      <polygon class="cls-21" points="225.81 223.66 222.81 229.66 228.81 229.66 225.81 223.66"/>
    </g>
    <g class="cls-140">
      <polygon class="cls-21" points="268.1 226.98 265.1 232.98 271.1 232.98 268.1 226.98"/>
    </g>
    <g class="cls-29">
      <polygon class="cls-21" points="310.4 228.64 307.4 234.64 313.4 234.64 310.4 228.64"/>
    </g>
    <g class="cls-28">
      <polygon class="cls-21" points="352.69 229.65 349.69 235.65 355.69 235.65 352.69 229.65"/>
    </g>
    <g class="cls-132">
      <polygon class="cls-21" points="394.98 230.16 391.98 236.16 397.98 236.16 394.98 230.16"/>
    </g>
  </g>
  <g class="cls-72">
    <polyline class="cls-24" points="56.63 154.82 98.93 205.86 141.22 218.91 183.51 219.97 225.81 217.43 268.1 213.59 310.4 208.77 352.69 203.37 394.98 197.46"/>
    <g class="cls-67">
      <rect class="cls-20" x="53.63" y="151.82" width="6" height="6"/>
    </g>
    <g class="cls-47">
      <rect class="cls-20" x="95.93" y="202.86" width="6" height="6"/>
    </g>
    <g class="cls-37">
      <rect class="cls-20" x="138.22" y="215.91" width="6" height="6"/>
    </g>
    <g class="cls-94">
      <rect class="cls-20" x="180.51" y="216.97" width="6" height="6"/>
    </g>
    <g class="cls-90">
      <rect class="cls-20" x="222.81" y="214.43" width="6" height="6"/>
    </g>
    <g class="cls-70">
      <rect class="cls-20" x="265.1" y="210.59" width="6" height="6"/>
    </g>
    <g class="cls-99">
      <rect class="cls-20" x="307.4" y="205.77" width="6" height="6"/>
    </g>
    <g class="cls-53">
      <rect class="cls-20" x="349.69" y="200.37" width="6" height="6"/>
    </g>
    <g class="cls-125">
      <rect class="cls-20" x="391.98" y="194.46" width="6" height="6"/>
    </g>
  </g>
  <g class="cls-141">
    <polyline class="cls-9" points="56.63 123.11 98.93 138.02 141.22 124.63 183.51 107.95 225.81 90.9 268.1 78.65 310.4 68.69 352.69 60.12 394.98 54.88"/>
    <g class="cls-108">
      <path class="cls-10" d="M53.63,120.11l6,6M53.63,126.11l6-6"/>
    </g>
    <g class="cls-52">
      <path class="cls-10" d="M95.93,135.02l6,6M95.93,141.02l6-6"/>
    </g>
    <g class="cls-58">
      <path class="cls-10" d="M138.22,121.63l6,6M138.22,127.63l6-6"/>
    </g>
    <g class="cls-39">
      <path class="cls-10" d="M180.51,104.95l6,6M180.51,110.95l6-6"/>
    </g>
    <g class="cls-119">
      <path class="cls-10" d="M222.81,87.9l6,6M222.81,93.9l6-6"/>
    </g>
    <g class="cls-111">
      <path class="cls-10" d="M265.1,75.65l6,6M265.1,81.65l6-6"/>
    </g>
    <g class="cls-131">
      <path class="cls-10" d="M307.4,65.69l6,6M307.4,71.69l6-6"/>
    </g>
    <g class="cls-38">
      <path class="cls-10" d="M349.69,57.12l6,6M349.69,63.12l6-6"/>
    </g>
    <g class="cls-46">
      <path class="cls-10" d="M391.98,51.88l6,6M391.98,57.88l6-6"/>
    </g>
  </g>
  <g class="cls-89">
    <polyline class="cls-19" points="56.63 102.05 98.93 101.51 141.22 104.78 183.51 107.35 225.81 109.07 268.1 110.33 310.4 112.26 352.69 114.44 394.98 116.64"/>
    <g class="cls-96">
      <polygon class="cls-2" points="56.63 106.29 59.18 102.05 56.63 97.81 54.09 102.05 56.63 106.29"/>
    </g>
    <g class="cls-122">
      <polygon class="cls-2" points="98.93 105.75 101.47 101.51 98.93 97.27 96.38 101.51 98.93 105.75"/>
    </g>
    <g class="cls-62">
      <polygon class="cls-2" points="141.22 109.02 143.77 104.78 141.22 100.54 138.68 104.78 141.22 109.02"/>
    </g>
    <g class="cls-92">
      <polygon class="cls-2" points="183.51 111.59 186.06 107.35 183.51 103.11 180.97 107.35 183.51 111.59"/>
    </g>
    <g class="cls-130">
      <polygon class="cls-2" points="225.81 113.32 228.35 109.07 225.81 104.83 223.26 109.07 225.81 113.32"/>
    </g>
    <g class="cls-84">
      <polygon class="cls-2" points="268.1 114.57 270.65 110.33 268.1 106.08 265.56 110.33 268.1 114.57"/>
    </g>
    <g class="cls-77">
      <polygon class="cls-2" points="310.4 116.5 312.94 112.26 310.4 108.01 307.85 112.26 310.4 116.5"/>
    </g>
    <g class="cls-97">
      <polygon class="cls-2" points="352.69 118.68 355.24 114.44 352.69 110.19 350.14 114.44 352.69 118.68"/>
    </g>
    <g class="cls-66">
      <polygon class="cls-2" points="394.98 120.88 397.53 116.64 394.98 112.39 392.44 116.64 394.98 120.88"/>
    </g>
  </g>
  <g class="cls-55">
    <polyline class="cls-15" points="56.63 102.69 98.93 108.14 141.22 113.71 183.51 119.36 225.81 124.56 268.1 127.7 310.4 130.61 352.69 132.98 394.98 136.09"/>
    <g class="cls-142">
      <path class="cls-3" d="M56.63,105.69c.8,0,1.56-.32,2.12-.88.56-.56.88-1.33.88-2.12s-.32-1.56-.88-2.12c-.56-.56-1.33-.88-2.12-.88s-1.56.32-2.12.88c-.56.56-.88,1.33-.88,2.12s.32,1.56.88,2.12c.56.56,1.33.88,2.12.88Z"/>
    </g>
    <g class="cls-63">
      <path class="cls-3" d="M98.93,111.14c.8,0,1.56-.32,2.12-.88.56-.56.88-1.33.88-2.12s-.32-1.56-.88-2.12c-.56-.56-1.33-.88-2.12-.88s-1.56.32-2.12.88c-.56.56-.88,1.33-.88,2.12s.32,1.56.88,2.12c.56.56,1.33.88,2.12.88Z"/>
    </g>
    <g class="cls-50">
      <path class="cls-3" d="M141.22,116.71c.8,0,1.56-.32,2.12-.88s.88-1.33.88-2.12-.32-1.56-.88-2.12-1.33-.88-2.12-.88-1.56.32-2.12.88-.88,1.33-.88,2.12.32,1.56.88,2.12,1.33.88,2.12.88Z"/>
    </g>
    <g class="cls-83">
      <path class="cls-3" d="M183.51,122.36c.8,0,1.56-.32,2.12-.88s.88-1.33.88-2.12-.32-1.56-.88-2.12-1.33-.88-2.12-.88-1.56.32-2.12.88-.88,1.33-.88,2.12.32,1.56.88,2.12,1.33.88,2.12.88Z"/>
    </g>
    <g class="cls-136">
      <path class="cls-3" d="M225.81,127.56c.8,0,1.56-.32,2.12-.88s.88-1.33.88-2.12-.32-1.56-.88-2.12-1.33-.88-2.12-.88-1.56.32-2.12.88-.88,1.33-.88,2.12.32,1.56.88,2.12,1.33.88,2.12.88Z"/>
    </g>
    <g class="cls-71">
      <path class="cls-3" d="M268.1,130.7c.8,0,1.56-.32,2.12-.88.56-.56.88-1.33.88-2.12s-.32-1.56-.88-2.12c-.56-.56-1.33-.88-2.12-.88s-1.56.32-2.12.88c-.56.56-.88,1.33-.88,2.12s.32,1.56.88,2.12c.56.56,1.33.88,2.12.88Z"/>
    </g>
    <g class="cls-51">
      <path class="cls-3" d="M310.4,133.61c.8,0,1.56-.32,2.12-.88.56-.56.88-1.33.88-2.12s-.32-1.56-.88-2.12c-.56-.56-1.33-.88-2.12-.88s-1.56.32-2.12.88c-.56.56-.88,1.33-.88,2.12s.32,1.56.88,2.12c.56.56,1.33.88,2.12.88Z"/>
    </g>
    <g class="cls-88">
      <path class="cls-3" d="M352.69,135.98c.8,0,1.56-.32,2.12-.88.56-.56.88-1.33.88-2.12s-.32-1.56-.88-2.12c-.56-.56-1.33-.88-2.12-.88s-1.56.32-2.12.88c-.56.56-.88,1.33-.88,2.12s.32,1.56.88,2.12c.56.56,1.33.88,2.12.88Z"/>
    </g>
    <g class="cls-54">
      <path class="cls-3" d="M394.98,139.09c.8,0,1.56-.32,2.12-.88.56-.56.88-1.33.88-2.12s-.32-1.56-.88-2.12c-.56-.56-1.33-.88-2.12-.88s-1.56.32-2.12.88c-.56.56-.88,1.33-.88,2.12s.32,1.56.88,2.12c.56.56,1.33.88,2.12.88Z"/>
    </g>
  </g>
  <line class="cls-17" x1="39.72" y1="319.48" x2="39.72" y2="42.28"/>
  <line class="cls-17" x1="411.9" y1="319.48" x2="411.9" y2="42.28"/>
  <line class="cls-17" x1="39.72" y1="319.48" x2="411.9" y2="319.48"/>
  <line class="cls-17" x1="39.72" y1="42.28" x2="411.9" y2="42.28"/>
  <g>
    <rect class="cls-42" x="68.84" y="7.2" width="313.93" height="22.98" rx="2.6" ry="2.6"/>
    <rect class="cls-12" x="68.84" y="7.2" width="313.93" height="22.98" rx="2.6" ry="2.6"/>
  </g>
  <polyline class="cls-18" points="74.04 17.73 87.04 17.73 100.04 17.73"/>
  <polygon class="cls-41" points="110.42 12.8 118.42 12.8 118.42 13.88 115.06 13.88 115.06 22.27 113.77 22.27 113.77 13.88 110.42 13.88 110.42 12.8"/>
  <path class="cls-41" d="M120.16,14.99c1.01,0,1.81.34,2.39.99.57.66.87,1.57.87,2.74s-.3,2.08-.87,2.73c-.58.66-1.38.99-2.39.99s-1.83-.33-2.4-.99c-.57-.65-.86-1.56-.86-2.73s.29-2.08.86-2.74c.57-.65,1.38-.99,2.4-.99ZM120.16,15.98c-.62,0-1.12.25-1.48.74-.36.49-.55,1.16-.55,2s.17,1.52.53,2.02c.36.49.86.73,1.49.73s1.12-.23,1.48-.73c.36-.49.55-1.16.55-2.02s-.18-1.51-.55-2c-.36-.49-.86-.74-1.48-.74Z"/>
  <path class="cls-41" d="M126.52,13.15v2.02h2.4v.91h-2.4v3.86c0,.58.08.96.23,1.12.16.17.48.25.97.25h1.2v.98h-1.2c-.91,0-1.53-.17-1.87-.51-.34-.34-.51-.95-.51-1.83v-3.86h-.86v-.91h.86v-2.02h1.17Z"/>
  <path class="cls-41" d="M136.02,18.22v4.06h-1.17v-1.08c-.27.44-.61.75-1,.95s-.88.3-1.46.3c-.73,0-1.31-.2-1.74-.6-.43-.4-.64-.95-.64-1.64,0-.79.26-1.39.81-1.81.53-.4,1.33-.61,2.39-.61h1.64v-.12c0-.53-.18-.95-.53-1.25-.35-.29-.85-.44-1.48-.44-.42,0-.81.05-1.2.16-.39.1-.75.25-1.1.43v-1.08c.42-.16.83-.29,1.24-.36s.79-.13,1.18-.13c1.03,0,1.79.27,2.3.81s.77,1.34.77,2.42ZM133.69,18.7c-.95,0-1.6.12-1.96.33-.36.22-.55.58-.55,1.11,0,.42.13.75.4.99.27.25.65.36,1.12.36.65,0,1.17-.22,1.56-.69.39-.46.58-1.07.58-1.83v-.26h-1.16Z"/>
  <rect class="cls-41" x="138.42" y="12.39" width="1.17" height="9.88"/>
  <path class="cls-41" d="M146.87,18.73c0,.86.17,1.53.52,2.03.35.49.83.73,1.46.73s1.11-.23,1.47-.73c.35-.49.53-1.17.53-2.03s-.18-1.52-.53-2.01c-.36-.49-.85-.74-1.47-.74s-1.1.25-1.46.74c-.35.49-.52,1.16-.52,2.01ZM150.85,16.24v-3.85h1.17v9.88h-1.17v-1.07c-.25.43-.56.74-.94.94s-.82.3-1.34.3c-.86,0-1.56-.34-2.11-1.01-.55-.68-.81-1.59-.81-2.7s.26-2.01.81-2.7c.55-.68,1.25-1.03,2.11-1.03.52,0,.96.1,1.34.31.38.21.69.52.94.94Z"/>
  <path class="cls-41" d="M159.34,18.09c-.01-.64-.2-1.14-.53-1.53-.35-.38-.82-.57-1.39-.57-.65,0-1.17.19-1.56.56-.39.36-.62.88-.68,1.55h4.16ZM160.51,18.43v.57h-5.37c.05.81.29,1.43.73,1.85.43.42,1.03.62,1.81.62.44,0,.88-.05,1.3-.16s.85-.27,1.26-.51v1.1c-.42.18-.85.33-1.29.4s-.9.13-1.34.13c-1.14,0-2.04-.33-2.7-.98-.66-.65-.99-1.55-.99-2.68s.31-2.08.94-2.77c.62-.68,1.48-1.03,2.55-1.03.96,0,1.72.31,2.27.92.55.62.83,1.46.83,2.51Z"/>
  <rect class="cls-41" x="162.42" y="12.39" width="1.17" height="9.88"/>
  <path class="cls-41" d="M171.6,18.22v4.06h-1.17v-1.08c-.27.44-.61.75-1,.95s-.88.3-1.46.3c-.73,0-1.31-.2-1.74-.6-.43-.4-.64-.95-.64-1.64,0-.79.26-1.39.81-1.81.53-.4,1.33-.61,2.39-.61h1.64v-.12c0-.53-.18-.95-.53-1.25-.35-.29-.85-.44-1.48-.44-.42,0-.81.05-1.2.16-.39.1-.75.25-1.1.43v-1.08c.42-.16.83-.29,1.24-.36s.79-.13,1.18-.13c1.03,0,1.79.27,2.3.81s.77,1.34.77,2.42ZM169.27,18.7c-.95,0-1.6.12-1.96.33-.36.22-.55.58-.55,1.11,0,.42.13.75.4.99.27.25.65.36,1.12.36.65,0,1.17-.22,1.56-.69.39-.46.58-1.07.58-1.83v-.26h-1.16Z"/>
  <path class="cls-41" d="M176.97,22.92c-.34.83-.66,1.39-.98,1.65s-.73.39-1.25.39h-.94v-.98h.69c.31,0,.56-.08.74-.23s.38-.51.6-1.08l.21-.52-2.87-6.99h1.24l2.22,5.56,2.22-5.56h1.24l-3.12,7.76Z"/>
  <polyline class="cls-1" points="206.41 17.73 219.41 17.73 232.41 17.73"/>
  <path class="cls-41" d="M249.77,13.11v1.25c-.49-.23-.95-.4-1.38-.52-.44-.1-.86-.17-1.25-.17-.7,0-1.25.14-1.62.4-.38.27-.56.66-.56,1.16,0,.42.12.74.38.95.25.22.73.39,1.43.52l.78.16c.95.18,1.65.51,2.11.96.46.47.69,1.08.69,1.85,0,.92-.31,1.61-.92,2.08-.62.47-1.52.7-2.7.7-.45,0-.94-.05-1.44-.14s-1.03-.23-1.56-.44v-1.33c.52.3,1.03.52,1.52.66.49.16.99.22,1.48.22.73,0,1.29-.14,1.69-.43.39-.29.6-.69.6-1.24,0-.47-.14-.83-.43-1.09-.29-.26-.75-.45-1.4-.58l-.78-.16c-.96-.18-1.65-.48-2.08-.9-.43-.4-.64-.96-.64-1.69,0-.83.29-1.5.88-1.98.58-.48,1.4-.73,2.44-.73.44,0,.88.04,1.35.12.46.08.92.21,1.42.36Z"/>
  <path class="cls-41" d="M257.2,18.09c-.01-.64-.2-1.14-.53-1.53-.35-.38-.82-.57-1.39-.57-.65,0-1.17.19-1.56.56-.39.36-.62.88-.68,1.55h4.16ZM258.37,18.43v.57h-5.37c.05.81.29,1.43.73,1.85.43.42,1.03.62,1.81.62.44,0,.88-.05,1.3-.16.42-.1.85-.27,1.26-.51v1.1c-.42.18-.85.33-1.29.4-.44.08-.9.13-1.34.13-1.14,0-2.04-.33-2.7-.98-.66-.65-.99-1.55-.99-2.68s.31-2.08.94-2.77c.62-.68,1.48-1.03,2.55-1.03.96,0,1.72.31,2.28.92.55.62.83,1.46.83,2.51Z"/>
  <path class="cls-41" d="M265.4,15.44v1.09c-.34-.18-.66-.31-1-.4-.34-.09-.66-.14-1-.14-.75,0-1.35.25-1.77.73-.42.48-.62,1.16-.62,2.01s.21,1.55.62,2.03c.42.48,1.01.71,1.77.71.34,0,.66-.04,1-.13.34-.09.66-.23,1-.42v1.08c-.34.16-.68.27-1.01.34-.35.07-.73.1-1.12.1-1.07,0-1.92-.33-2.55-1-.64-.66-.95-1.57-.95-2.72s.31-2.07.95-2.73,1.51-1,2.63-1c.36,0,.71.04,1.05.12.34.08.68.18,1,.32Z"/>
  <path class="cls-41" d="M270.19,14.99c1.01,0,1.81.34,2.39.99.57.66.87,1.57.87,2.74s-.3,2.08-.87,2.73c-.58.66-1.38.99-2.39.99s-1.83-.33-2.4-.99c-.57-.65-.86-1.56-.86-2.73s.29-2.08.86-2.74c.57-.65,1.38-.99,2.4-.99ZM270.19,15.98c-.62,0-1.12.25-1.48.74-.36.49-.55,1.16-.55,2s.17,1.52.53,2.02c.36.49.86.73,1.49.73s1.12-.23,1.48-.73c.36-.49.55-1.16.55-2.02s-.18-1.51-.55-2c-.36-.49-.86-.74-1.48-.74Z"/>
  <path class="cls-41" d="M281.3,17.98v4.29h-1.17v-4.25c0-.68-.14-1.17-.4-1.51s-.65-.51-1.17-.51c-.64,0-1.13.21-1.5.61-.36.4-.55.95-.55,1.64v4.02h-1.17v-7.11h1.17v1.1c.27-.42.6-.74.99-.95.38-.21.82-.33,1.31-.33.81,0,1.43.26,1.85.77.42.51.64,1.25.64,2.22Z"/>
  <path class="cls-41" d="M284.33,18.73c0,.86.17,1.53.52,2.03.35.49.83.73,1.46.73s1.11-.23,1.47-.73c.35-.49.53-1.17.53-2.03s-.18-1.52-.53-2.01c-.36-.49-.85-.74-1.47-.74s-1.1.25-1.46.74c-.35.49-.52,1.16-.52,2.01ZM288.31,16.24v-3.85h1.17v9.88h-1.17v-1.07c-.25.43-.56.74-.94.94-.38.2-.82.3-1.34.3-.86,0-1.56-.34-2.11-1.01s-.81-1.59-.81-2.7.26-2.01.81-2.7c.55-.68,1.25-1.03,2.11-1.03.52,0,.96.1,1.34.31.38.21.69.52.94.94Z"/>
  <path class="cls-41" d="M297.18,13.15v2.02h2.4v.91h-2.4v3.86c0,.58.08.96.23,1.12.16.17.48.25.98.25h1.2v.98h-1.2c-.91,0-1.53-.17-1.87-.51s-.51-.95-.51-1.83v-3.86h-.86v-.91h.86v-2.02h1.17Z"/>
  <path class="cls-41" d="M301.12,12.39h1.17v1.48h-1.17v-1.48ZM301.12,15.16h1.17v7.11h-1.17v-7.11Z"/>
  <path class="cls-41" d="M309.64,18.09c-.01-.64-.19-1.14-.53-1.53-.35-.38-.82-.57-1.39-.57-.65,0-1.17.19-1.56.56-.39.36-.62.88-.68,1.55h4.16ZM310.81,18.43v.57h-5.37c.05.81.29,1.43.73,1.85.43.42,1.03.62,1.81.62.44,0,.88-.05,1.3-.16.42-.1.85-.27,1.26-.51v1.1c-.42.18-.85.33-1.29.4-.44.08-.9.13-1.34.13-1.14,0-2.04-.33-2.7-.98s-.99-1.55-.99-2.68.31-2.08.94-2.77c.62-.68,1.48-1.03,2.55-1.03.96,0,1.72.31,2.27.92.55.62.83,1.46.83,2.51Z"/>
  <path class="cls-41" d="M316.85,16.26c-.13-.08-.27-.13-.43-.17-.16-.03-.33-.05-.51-.05-.66,0-1.17.22-1.52.65-.36.43-.53,1.04-.53,1.85v3.74h-1.17v-7.11h1.17v1.1c.23-.43.56-.75.95-.96.39-.21.87-.31,1.44-.31.08,0,.17.01.27.01.09.01.2.03.32.05v1.2Z"/>
  <path class="cls-41" d="M328.12,17.98v4.29h-1.17v-4.25c0-.68-.14-1.17-.4-1.51s-.65-.51-1.17-.51c-.64,0-1.13.21-1.5.61-.36.4-.55.95-.55,1.64v4.02h-1.17v-9.88h1.17v3.87c.27-.42.6-.74.99-.95.38-.21.82-.33,1.31-.33.81,0,1.43.26,1.85.77.42.51.64,1.25.64,2.22Z"/>
  <path class="cls-41" d="M330.44,12.39h1.17v1.48h-1.17v-1.48ZM330.44,15.16h1.17v7.11h-1.17v-7.11Z"/>
  <path class="cls-41" d="M335.21,13.15v2.02h2.4v.91h-2.4v3.86c0,.58.08.96.23,1.12.16.17.48.25.98.25h1.2v.98h-1.2c-.91,0-1.53-.17-1.87-.51s-.51-.95-.51-1.83v-3.86h-.86v-.91h.86v-2.02h1.17Z"/>
  <path class="cls-41" d="M343.99,18.73c0,.86.17,1.53.52,2.03.35.49.83.73,1.46.73s1.11-.23,1.47-.73c.35-.49.53-1.17.53-2.03s-.18-1.52-.53-2.01c-.36-.49-.85-.74-1.47-.74s-1.1.25-1.46.74c-.35.49-.52,1.16-.52,2.01ZM347.97,16.24v-3.85h1.17v9.88h-1.17v-1.07c-.25.43-.56.74-.94.94-.38.2-.82.3-1.34.3-.86,0-1.56-.34-2.11-1.01s-.81-1.59-.81-2.7.26-2.01.81-2.7c.55-.68,1.25-1.03,2.11-1.03.52,0,.96.1,1.34.31.38.21.69.52.94.94Z"/>
  <path class="cls-41" d="M356.46,18.09c-.01-.64-.19-1.14-.53-1.53-.35-.38-.82-.57-1.39-.57-.65,0-1.17.19-1.56.56-.39.36-.62.88-.68,1.55h4.16ZM357.63,18.43v.57h-5.37c.05.81.29,1.43.73,1.85.43.42,1.03.62,1.81.62.44,0,.88-.05,1.3-.16.42-.1.85-.27,1.26-.51v1.1c-.42.18-.85.33-1.29.4-.44.08-.9.13-1.34.13-1.14,0-2.04-.33-2.7-.98s-.99-1.55-.99-2.68.31-2.08.94-2.77c.62-.68,1.48-1.03,2.55-1.03.96,0,1.72.31,2.27.92.55.62.83,1.46.83,2.51Z"/>
  <rect class="cls-41" x="359.54" y="12.39" width="1.17" height="9.88"/>
  <path class="cls-41" d="M368.71,18.22v4.06h-1.17v-1.08c-.27.44-.61.75-1,.95-.39.2-.88.3-1.46.3-.73,0-1.31-.2-1.74-.6-.43-.4-.64-.95-.64-1.64,0-.79.26-1.39.81-1.81.53-.4,1.33-.61,2.39-.61h1.64v-.12c0-.53-.18-.95-.53-1.25-.35-.29-.85-.44-1.48-.44-.42,0-.81.05-1.2.16-.39.1-.75.25-1.11.43v-1.08c.42-.16.83-.29,1.24-.36.4-.08.79-.13,1.18-.13,1.03,0,1.79.27,2.3.81.51.53.77,1.34.77,2.42ZM366.39,18.7c-.95,0-1.6.12-1.96.33-.36.22-.55.58-.55,1.11,0,.42.13.75.4.99.27.25.65.36,1.12.36.65,0,1.17-.22,1.56-.69.39-.46.58-1.07.58-1.83v-.26h-1.16Z"/>
  <path class="cls-41" d="M374.08,22.92c-.34.83-.66,1.39-.98,1.65s-.73.39-1.25.39h-.94v-.98h.69c.31,0,.56-.08.74-.23s.38-.51.6-1.08l.21-.52-2.87-6.99h1.23l2.22,5.56,2.22-5.56h1.23l-3.12,7.76Z"/>
  <g>
    <rect class="cls-42" x="419.87" y="131.23" width="78.58" height="99.29" rx="2.6" ry="2.6"/>
    <rect class="cls-12" x="419.87" y="131.23" width="78.58" height="99.29" rx="2.6" ry="2.6"/>
  </g>
  <polygon class="cls-23" points="438.07 136.76 433.07 146.76 443.07 146.76 438.07 136.76"/>
  <polygon class="cls-41" points="462.74 136.83 464.65 136.83 467.07 143.28 469.5 136.83 471.41 136.83 471.41 146.31 470.16 146.31 470.16 137.99 467.72 144.49 466.43 144.49 463.99 137.99 463.99 146.31 462.74 146.31 462.74 136.83"/>
  <polygon class="cls-41" points="476.4 146.31 472.79 136.83 474.13 136.83 477.13 144.81 480.13 136.83 481.47 136.83 477.86 146.31 476.4 146.31"/>
  <rect class="cls-41" x="482.85" y="136.83" width="1.29" height="9.48"/>
  <path class="cls-41" d="M486.69,136.83h2.9c1.05,0,1.86.25,2.4.73.55.48.82,1.18.82,2.11s-.27,1.65-.82,2.12c-.55.48-1.35.71-2.4.71h-1.61v3.81h-1.29v-9.48ZM487.97,137.89v3.56h1.61c.6,0,1.05-.14,1.38-.46.33-.31.49-.75.49-1.33s-.17-1-.49-1.31c-.32-.31-.78-.47-1.38-.47h-1.61Z"/>
  <rect class="cls-27" x="433.07" y="155.84" width="10" height="10"/>
  <polygon class="cls-41" points="462.74 155.91 464.03 155.91 464.03 164.31 468.64 164.31 468.64 165.39 462.74 165.39 462.74 155.91"/>
  <polygon class="cls-41" points="469.98 155.91 475.43 155.91 475.43 156.99 471.27 156.99 471.27 159.78 475.03 159.78 475.03 160.86 471.27 160.86 471.27 165.39 469.98 165.39 469.98 155.91"/>
  <path class="cls-41" d="M477.31,155.91h1.29v5.76c0,1.01.18,1.76.55,2.2.36.44.96.66,1.79.66s1.42-.22,1.78-.66.56-1.18.56-2.2v-5.76h1.29v5.92c0,1.25-.31,2.17-.92,2.79-.61.62-1.51.94-2.7.94s-2.11-.31-2.72-.94c-.61-.62-.91-1.55-.91-2.79v-5.92Z"/>
  <path class="cls-16" d="M433.07,174.92l10,10M433.07,184.92l10-10"/>
  <polygon class="cls-41" points="462.74 174.99 464.03 174.99 464.03 183.39 468.64 183.39 468.64 184.47 462.74 184.47 462.74 174.99"/>
  <path class="cls-41" d="M471.27,176.04v3.37h1.61c.61,0,1.08-.14,1.39-.43.31-.29.48-.7.48-1.26s-.17-.96-.48-1.25c-.31-.29-.78-.43-1.39-.43h-1.61ZM474.48,180.02c.27.1.55.3.81.6.26.31.52.73.78,1.26l1.3,2.59h-1.38l-1.21-2.43c-.31-.62-.62-1.05-.91-1.26-.3-.21-.7-.31-1.21-.31h-1.39v4h-1.29v-9.48h2.9c1.08,0,1.89.23,2.42.68.53.46.81,1.14.81,2.05,0,.6-.14,1.1-.42,1.49-.29.39-.69.66-1.21.81Z"/>
  <path class="cls-41" d="M478.87,174.99h1.29v5.76c0,1.01.18,1.76.55,2.2.36.44.96.66,1.79.66s1.42-.22,1.78-.66.56-1.18.56-2.2v-5.76h1.29v5.92c0,1.25-.31,2.17-.92,2.79-.61.62-1.51.94-2.7.94s-2.11-.31-2.72-.94c-.61-.62-.91-1.55-.91-2.79v-5.92Z"/>
  <polygon class="cls-7" points="438.07 206.07 442.31 198.99 438.07 191.92 433.82 198.99 438.07 206.07"/>
  <polygon class="cls-41" points="462.74 194.07 468.19 194.07 468.19 195.15 464.03 195.15 464.03 197.94 467.78 197.94 467.78 199.02 464.03 199.02 464.03 203.54 462.74 203.54 462.74 194.07"/>
  <rect class="cls-41" x="470.22" y="194.07" width="1.29" height="9.48"/>
  <polygon class="cls-41" points="474.05 194.07 479.5 194.07 479.5 195.15 475.34 195.15 475.34 197.94 479.09 197.94 479.09 199.02 475.34 199.02 475.34 203.54 474.05 203.54 474.05 194.07"/>
  <path class="cls-41" d="M485.37,193.9c1.33,0,2.38.46,3.18,1.34.79.88,1.2,2.08,1.2,3.58s-.4,2.69-1.2,3.57c-.81.88-1.86,1.33-3.18,1.33s-2.4-.44-3.2-1.33c-.81-.88-1.2-2.07-1.2-3.57s.39-2.69,1.2-3.58c.79-.88,1.86-1.34,3.2-1.34ZM485.37,194.94c-.94,0-1.68.35-2.22,1.04-.55.7-.82,1.64-.82,2.83s.27,2.14.82,2.83c.55.7,1.29,1.04,2.22,1.04s1.66-.34,2.21-1.04c.55-.69.82-1.64.82-2.83s-.27-2.13-.82-2.83c-.55-.69-1.29-1.04-2.21-1.04Z"/>
  <path class="cls-5" d="M438.07,223.07c1.33,0,2.6-.53,3.54-1.46.94-.94,1.46-2.21,1.46-3.54s-.53-2.6-1.46-3.54c-.94-.94-2.21-1.46-3.54-1.46s-2.6.53-3.54,1.46c-.94.94-1.46,2.21-1.46,3.54s.53,2.6,1.46,3.54,2.21,1.46,3.54,1.46Z"/>
  <path class="cls-41" d="M462.6,213.15h1.29v5.76c0,1.01.18,1.76.55,2.2.36.44.96.66,1.79.66s1.42-.22,1.78-.66.56-1.18.56-2.2v-5.76h1.29v5.92c0,1.25-.31,2.17-.92,2.79-.61.62-1.51.94-2.7.94s-2.11-.31-2.72-.94c-.61-.62-.91-1.55-.91-2.79v-5.92Z"/>
  <polygon class="cls-41" points="472.26 213.15 473.99 213.15 478.18 221.08 478.18 213.15 479.43 213.15 479.43 222.62 477.7 222.62 473.5 214.69 473.5 222.62 472.26 222.62 472.26 213.15"/>
  <rect class="cls-41" x="481.98" y="213.15" width="1.29" height="9.48"/>
  <polygon class="cls-41" points="485.82 213.15 491.26 213.15 491.26 214.22 487.1 214.22 487.1 217.02 490.86 217.02 490.86 218.1 487.1 218.1 487.1 222.62 485.82 222.62 485.82 213.15"/>
  <g>
    <rect class="cls-42" x="419.87" y="131.23" width="78.58" height="99.29" rx="2.6" ry="2.6"/>
    <rect class="cls-12" x="419.87" y="131.23" width="78.58" height="99.29" rx="2.6" ry="2.6"/>
  </g>
  <polygon class="cls-23" points="438.07 136.76 433.07 146.76 443.07 146.76 438.07 136.76"/>
  <polygon class="cls-41" points="462.74 136.83 464.65 136.83 467.07 143.28 469.5 136.83 471.41 136.83 471.41 146.31 470.16 146.31 470.16 137.99 467.72 144.49 466.43 144.49 463.99 137.99 463.99 146.31 462.74 146.31 462.74 136.83"/>
  <polygon class="cls-41" points="476.4 146.31 472.79 136.83 474.13 136.83 477.13 144.81 480.13 136.83 481.47 136.83 477.86 146.31 476.4 146.31"/>
  <rect class="cls-41" x="482.85" y="136.83" width="1.29" height="9.48"/>
  <path class="cls-41" d="M486.69,136.83h2.9c1.05,0,1.86.25,2.4.73.55.48.82,1.18.82,2.11s-.27,1.65-.82,2.12c-.55.48-1.35.71-2.4.71h-1.61v3.81h-1.29v-9.48ZM487.97,137.89v3.56h1.61c.6,0,1.05-.14,1.38-.46.33-.31.49-.75.49-1.33s-.17-1-.49-1.31c-.32-.31-.78-.47-1.38-.47h-1.61Z"/>
  <rect class="cls-27" x="433.07" y="155.84" width="10" height="10"/>
  <polygon class="cls-41" points="462.74 155.91 464.03 155.91 464.03 164.31 468.64 164.31 468.64 165.39 462.74 165.39 462.74 155.91"/>
  <polygon class="cls-41" points="469.98 155.91 475.43 155.91 475.43 156.99 471.27 156.99 471.27 159.78 475.03 159.78 475.03 160.86 471.27 160.86 471.27 165.39 469.98 165.39 469.98 155.91"/>
  <path class="cls-41" d="M477.31,155.91h1.29v5.76c0,1.01.18,1.76.55,2.2.36.44.96.66,1.79.66s1.42-.22,1.78-.66.56-1.18.56-2.2v-5.76h1.29v5.92c0,1.25-.31,2.17-.92,2.79-.61.62-1.51.94-2.7.94s-2.11-.31-2.72-.94c-.61-.62-.91-1.55-.91-2.79v-5.92Z"/>
  <path class="cls-16" d="M433.07,174.92l10,10M433.07,184.92l10-10"/>
  <polygon class="cls-41" points="462.74 174.99 464.03 174.99 464.03 183.39 468.64 183.39 468.64 184.47 462.74 184.47 462.74 174.99"/>
  <path class="cls-41" d="M471.27,176.04v3.37h1.61c.61,0,1.08-.14,1.39-.43.31-.29.48-.7.48-1.26s-.17-.96-.48-1.25c-.31-.29-.78-.43-1.39-.43h-1.61ZM474.48,180.02c.27.1.55.3.81.6.26.31.52.73.78,1.26l1.3,2.59h-1.38l-1.21-2.43c-.31-.62-.62-1.05-.91-1.26-.3-.21-.7-.31-1.21-.31h-1.39v4h-1.29v-9.48h2.9c1.08,0,1.89.23,2.42.68.53.46.81,1.14.81,2.05,0,.6-.14,1.1-.42,1.49-.29.39-.69.66-1.21.81Z"/>
  <path class="cls-41" d="M478.87,174.99h1.29v5.76c0,1.01.18,1.76.55,2.2.36.44.96.66,1.79.66s1.42-.22,1.78-.66.56-1.18.56-2.2v-5.76h1.29v5.92c0,1.25-.31,2.17-.92,2.79-.61.62-1.51.94-2.7.94s-2.11-.31-2.72-.94c-.61-.62-.91-1.55-.91-2.79v-5.92Z"/>
  <polygon class="cls-7" points="438.07 206.07 442.31 198.99 438.07 191.92 433.82 198.99 438.07 206.07"/>
  <polygon class="cls-41" points="462.74 194.07 468.19 194.07 468.19 195.15 464.03 195.15 464.03 197.94 467.78 197.94 467.78 199.02 464.03 199.02 464.03 203.54 462.74 203.54 462.74 194.07"/>
  <rect class="cls-41" x="470.22" y="194.07" width="1.29" height="9.48"/>
  <polygon class="cls-41" points="474.05 194.07 479.5 194.07 479.5 195.15 475.34 195.15 475.34 197.94 479.09 197.94 479.09 199.02 475.34 199.02 475.34 203.54 474.05 203.54 474.05 194.07"/>
  <path class="cls-41" d="M485.37,193.9c1.33,0,2.38.46,3.18,1.34.79.88,1.2,2.08,1.2,3.58s-.4,2.69-1.2,3.57c-.81.88-1.86,1.33-3.18,1.33s-2.4-.44-3.2-1.33c-.81-.88-1.2-2.07-1.2-3.57s.39-2.69,1.2-3.58c.79-.88,1.86-1.34,3.2-1.34ZM485.37,194.94c-.94,0-1.68.35-2.22,1.04-.55.7-.82,1.64-.82,2.83s.27,2.14.82,2.83c.55.7,1.29,1.04,2.22,1.04s1.66-.34,2.21-1.04c.55-.69.82-1.64.82-2.83s-.27-2.13-.82-2.83c-.55-.69-1.29-1.04-2.21-1.04Z"/>
  <path class="cls-5" d="M438.07,223.07c1.33,0,2.6-.53,3.54-1.46.94-.94,1.46-2.21,1.46-3.54s-.53-2.6-1.46-3.54c-.94-.94-2.21-1.46-3.54-1.46s-2.6.53-3.54,1.46c-.94.94-1.46,2.21-1.46,3.54s.53,2.6,1.46,3.54,2.21,1.46,3.54,1.46Z"/>
  <path class="cls-41" d="M462.6,213.15h1.29v5.76c0,1.01.18,1.76.55,2.2.36.44.96.66,1.79.66s1.42-.22,1.78-.66.56-1.18.56-2.2v-5.76h1.29v5.92c0,1.25-.31,2.17-.92,2.79-.61.62-1.51.94-2.7.94s-2.11-.31-2.72-.94c-.61-.62-.91-1.55-.91-2.79v-5.92Z"/>
  <polygon class="cls-41" points="472.26 213.15 473.99 213.15 478.18 221.08 478.18 213.15 479.43 213.15 479.43 222.62 477.7 222.62 473.5 214.69 473.5 222.62 472.26 222.62 472.26 213.15"/>
  <rect class="cls-41" x="481.98" y="213.15" width="1.29" height="9.48"/>
  <polygon class="cls-41" points="485.82 213.15 491.26 213.15 491.26 214.22 487.1 214.22 487.1 217.02 490.86 217.02 490.86 218.1 487.1 218.1 487.1 222.62 485.82 222.62 485.82 213.15"/>
</svg>