<?xml version="1.0" encoding="UTF-8"?>
<svg xmlns="http://www.w3.org/2000/svg" version="1.1" xmlns:xlink="http://www.w3.org/1999/xlink" viewBox="0 0 435.1 390.57">
  <defs>
    <style>
      .cls-1 {
        stroke: #ccc;
      }

      .cls-1, .cls-2, .cls-3, .cls-4, .cls-5, .cls-6, .cls-7, .cls-8, .cls-9, .cls-10, .cls-11 {
        fill: none;
      }

      .cls-1, .cls-3, .cls-4, .cls-7 {
        stroke-miterlimit: 10;
      }

      .cls-1, .cls-12 {
        opacity: .8;
      }

      .cls-13 {
        clip-path: url(#clippath-34);
      }

      .cls-14 {
        clip-path: url(#clippath-38);
      }

      .cls-15 {
        clip-path: url(#clippath-21);
      }

      .cls-16 {
        clip-path: url(#clippath-6);
      }

      .cls-17 {
        clip-path: url(#clippath-7);
      }

      .cls-18 {
        clip-path: url(#clippath-17);
      }

      .cls-19 {
        clip-path: url(#clippath-31);
      }

      .cls-20 {
        clip-path: url(#clippath-15);
      }

      .cls-21 {
        clip-path: url(#clippath-33);
      }

      .cls-22 {
        clip-path: url(#clippath-18);
      }

      .cls-23 {
        clip-path: url(#clippath-4);
      }

      .cls-24 {
        clip-path: url(#clippath-22);
      }

      .cls-25 {
        clip-path: url(#clippath-23);
      }

      .cls-2 {
        opacity: .5;
        stroke: #b0b0b0;
        stroke-dasharray: 2.96 1.28;
      }

      .cls-2, .cls-5, .cls-8, .cls-9, .cls-10, .cls-11 {
        stroke-linejoin: round;
      }

      .cls-2, .cls-7, .cls-9 {
        stroke-width: .8px;
      }

      .cls-26 {
        clip-path: url(#clippath-9);
      }

      .cls-27 {
        clip-path: url(#clippath-10);
      }

      .cls-28 {
        clip-path: url(#clippath-42);
      }

      .cls-29, .cls-12 {
        fill: #fff;
      }

      .cls-30 {
        clip-path: url(#clippath-43);
      }

      .cls-3, .cls-5, .cls-10 {
        stroke: red;
      }

      .cls-31 {
        clip-path: url(#clippath-25);
      }

      .cls-32 {
        clip-path: url(#clippath-27);
      }

      .cls-4, .cls-8, .cls-11 {
        stroke: blue;
      }

      .cls-5, .cls-8, .cls-10, .cls-11 {
        stroke-width: 1.5px;
      }

      .cls-5, .cls-11 {
        stroke-dasharray: 5.55 2.4;
      }

      .cls-33 {
        clip-path: url(#clippath-11);
      }

      .cls-34 {
        clip-path: url(#clippath-36);
      }

      .cls-35 {
        clip-path: url(#clippath-35);
      }

      .cls-36 {
        clip-path: url(#clippath-28);
      }

      .cls-37 {
        clip-path: url(#clippath-1);
      }

      .cls-38 {
        clip-path: url(#clippath-40);
      }

      .cls-39 {
        clip-path: url(#clippath-5);
      }

      .cls-40 {
        clip-path: url(#clippath-20);
      }

      .cls-41 {
        clip-path: url(#clippath-8);
      }

      .cls-42 {
        clip-path: url(#clippath-41);
      }

      .cls-43 {
        clip-path: url(#clippath-3);
      }

      .cls-44 {
        clip-path: url(#clippath-26);
      }

      .cls-45 {
        clip-path: url(#clippath-12);
      }

      .cls-46 {
        clip-path: url(#clippath-14);
      }

      .cls-47 {
        clip-path: url(#clippath-30);
      }

      .cls-48 {
        clip-path: url(#clippath-19);
      }

      .cls-7, .cls-8, .cls-10 {
        stroke-linecap: square;
      }

      .cls-7, .cls-9 {
        stroke: #000;
      }

      .cls-49 {
        clip-path: url(#clippath-32);
      }

      .cls-50 {
        clip-path: url(#clippath-39);
      }

      .cls-51 {
        clip-path: url(#clippath-16);
      }

      .cls-52 {
        clip-path: url(#clippath-2);
      }

      .cls-53 {
        clip-path: url(#clippath-29);
      }

      .cls-54 {
        clip-path: url(#clippath-37);
      }

      .cls-55 {
        clip-path: url(#clippath-13);
      }

      .cls-56 {
        clip-path: url(#clippath-24);
      }

      .cls-57 {
        clip-path: url(#clippath);
      }
    </style>
    <clipPath id="clippath">
      <rect class="cls-6" x="55.72" y="69.5" width="372.19" height="277.2"/>
    </clipPath>
    <clipPath id="clippath-1">
      <rect class="cls-6" x="55.72" y="69.5" width="372.19" height="277.2"/>
    </clipPath>
    <clipPath id="clippath-2">
      <rect class="cls-6" x="55.72" y="69.5" width="372.19" height="277.2"/>
    </clipPath>
    <clipPath id="clippath-3">
      <rect class="cls-6" x="55.72" y="69.5" width="372.19" height="277.2"/>
    </clipPath>
    <clipPath id="clippath-4">
      <rect class="cls-6" x="55.72" y="69.5" width="372.19" height="277.2"/>
    </clipPath>
    <clipPath id="clippath-5">
      <rect class="cls-6" x="55.72" y="69.5" width="372.19" height="277.2"/>
    </clipPath>
    <clipPath id="clippath-6">
      <rect class="cls-6" x="304.37" y="360.27" width="42.22" height="25.44"/>
    </clipPath>
    <clipPath id="clippath-7">
      <rect class="cls-6" x="55.72" y="69.5" width="372.19" height="277.2"/>
    </clipPath>
    <clipPath id="clippath-8">
      <rect class="cls-6" x="55.72" y="69.5" width="372.19" height="277.2"/>
    </clipPath>
    <clipPath id="clippath-9">
      <rect class="cls-6" x="55.72" y="69.5" width="372.19" height="277.2"/>
    </clipPath>
    <clipPath id="clippath-10">
      <rect class="cls-6" x="55.72" y="69.5" width="372.19" height="277.2"/>
    </clipPath>
    <clipPath id="clippath-11">
      <rect class="cls-6" x="55.72" y="69.5" width="372.19" height="277.2"/>
    </clipPath>
    <clipPath id="clippath-12">
      <rect class="cls-6" x="55.72" y="69.5" width="372.19" height="277.2"/>
    </clipPath>
    <clipPath id="clippath-13">
      <rect class="cls-6" x="55.72" y="69.5" width="372.19" height="277.2"/>
    </clipPath>
    <clipPath id="clippath-14">
      <rect class="cls-6" x="55.72" y="69.5" width="372.19" height="277.2"/>
    </clipPath>
    <clipPath id="clippath-15">
      <rect class="cls-6" x="55.72" y="69.5" width="372.19" height="277.2"/>
    </clipPath>
    <clipPath id="clippath-16">
      <rect class="cls-6" x="55.72" y="69.5" width="372.19" height="277.2"/>
    </clipPath>
    <clipPath id="clippath-17">
      <rect class="cls-6" x="64.63" y="296.35" width="16" height="16"/>
    </clipPath>
    <clipPath id="clippath-18">
      <rect class="cls-6" x="132.3" y="312.5" width="16" height="16"/>
    </clipPath>
    <clipPath id="clippath-19">
      <rect class="cls-6" x="199.97" y="315.42" width="16" height="16"/>
    </clipPath>
    <clipPath id="clippath-20">
      <rect class="cls-6" x="267.64" y="315.86" width="16" height="16"/>
    </clipPath>
    <clipPath id="clippath-21">
      <rect class="cls-6" x="335.31" y="316.71" width="16" height="16"/>
    </clipPath>
    <clipPath id="clippath-22">
      <rect class="cls-6" x="402.98" y="316.91" width="16" height="16"/>
    </clipPath>
    <clipPath id="clippath-23">
      <rect class="cls-6" x="55.72" y="69.5" width="372.19" height="277.2"/>
    </clipPath>
    <clipPath id="clippath-24">
      <rect class="cls-6" x="64.63" y="326.1" width="16" height="16"/>
    </clipPath>
    <clipPath id="clippath-25">
      <rect class="cls-6" x="132.3" y="236.89" width="16" height="16"/>
    </clipPath>
    <clipPath id="clippath-26">
      <rect class="cls-6" x="199.97" y="193.41" width="16" height="16"/>
    </clipPath>
    <clipPath id="clippath-27">
      <rect class="cls-6" x="267.64" y="161.89" width="16" height="16"/>
    </clipPath>
    <clipPath id="clippath-28">
      <rect class="cls-6" x="335.31" y="140.16" width="16" height="16"/>
    </clipPath>
    <clipPath id="clippath-29">
      <rect class="cls-6" x="402.98" y="130.35" width="16" height="16"/>
    </clipPath>
    <clipPath id="clippath-30">
      <rect class="cls-6" x="55.72" y="69.5" width="372.19" height="277.2"/>
    </clipPath>
    <clipPath id="clippath-31">
      <rect class="cls-6" x="64.63" y="303.54" width="16" height="16"/>
    </clipPath>
    <clipPath id="clippath-32">
      <rect class="cls-6" x="132.3" y="311.95" width="16" height="16"/>
    </clipPath>
    <clipPath id="clippath-33">
      <rect class="cls-6" x="199.97" y="312.87" width="16" height="16"/>
    </clipPath>
    <clipPath id="clippath-34">
      <rect class="cls-6" x="267.64" y="312.79" width="16" height="16"/>
    </clipPath>
    <clipPath id="clippath-35">
      <rect class="cls-6" x="335.31" y="312.6" width="16" height="16"/>
    </clipPath>
    <clipPath id="clippath-36">
      <rect class="cls-6" x="402.98" y="312.69" width="16" height="16"/>
    </clipPath>
    <clipPath id="clippath-37">
      <rect class="cls-6" x="55.72" y="69.5" width="372.19" height="277.2"/>
    </clipPath>
    <clipPath id="clippath-38">
      <rect class="cls-6" x="64.63" y="326.1" width="16" height="16"/>
    </clipPath>
    <clipPath id="clippath-39">
      <rect class="cls-6" x="132.3" y="233.51" width="16" height="16"/>
    </clipPath>
    <clipPath id="clippath-40">
      <rect class="cls-6" x="199.97" y="178.09" width="16" height="16"/>
    </clipPath>
    <clipPath id="clippath-41">
      <rect class="cls-6" x="267.64" y="134.47" width="16" height="16"/>
    </clipPath>
    <clipPath id="clippath-42">
      <rect class="cls-6" x="335.31" y="100.89" width="16" height="16"/>
    </clipPath>
    <clipPath id="clippath-43">
      <rect class="cls-6" x="402.98" y="74.1" width="16" height="16"/>
    </clipPath>
  </defs>
  <!-- Generator: Adobe Illustrator 28.6.0, SVG Export Plug-In . SVG Version: 1.2.0 Build 709)  -->
  <g>
    <g id="Layer_1">
      <rect class="cls-29" width="435.1" height="390.57"/>
      <rect class="cls-29" x="55.72" y="69.5" width="372.19" height="277.2"/>
      <g class="cls-57">
        <line class="cls-2" x1="72.63" y1="346.7" x2="72.63" y2="69.5"/>
      </g>
      <line x1="72.63" y1="346.7" x2="72.63" y2="350.2"/>
      <line class="cls-9" x1="72.63" y1="346.7" x2="72.63" y2="350.2"/>
      <path d="M72.63,353.87c.81,0,1.43.33,1.87.97.43.65.65,1.59.65,2.81s-.22,2.17-.65,2.81c-.44.64-1.06.96-1.88.96s-1.44-.32-1.87-.96-.64-1.58-.64-2.81.21-2.16.64-2.81c.43-.64,1.06-.97,1.88-.97ZM72.63,354.65c-.51,0-.89.25-1.15.75s-.38,1.25-.38,2.25.12,1.75.38,2.25.64.75,1.15.75.89-.25,1.15-.75c.25-.5.38-1.25.38-2.25s-.13-1.75-.38-2.25c-.26-.5-.64-.75-1.15-.75Z"/>
      <g class="cls-37">
        <line class="cls-2" x1="140.3" y1="346.7" x2="140.3" y2="69.5"/>
      </g>
      <line x1="140.3" y1="346.7" x2="140.3" y2="350.2"/>
      <line class="cls-9" x1="140.3" y1="346.7" x2="140.3" y2="350.2"/>
      <polygon points="138.36 360.46 139.97 360.46 139.97 354.9 138.22 355.25 138.22 354.35 139.96 354 140.95 354 140.95 360.46 142.56 360.46 142.56 361.29 138.36 361.29 138.36 360.46"/>
      <g class="cls-52">
        <line class="cls-2" x1="207.97" y1="346.7" x2="207.97" y2="69.5"/>
      </g>
      <line x1="207.97" y1="346.7" x2="207.97" y2="350.2"/>
      <line class="cls-9" x1="207.97" y1="346.7" x2="207.97" y2="350.2"/>
      <path d="M206.71,360.46h3.44v.83h-4.63v-.83c.37-.38.88-.9,1.53-1.56.64-.65,1.05-1.07,1.22-1.26.32-.35.54-.65.66-.9.12-.24.19-.49.19-.73,0-.38-.14-.7-.41-.94-.27-.24-.62-.37-1.06-.37-.31,0-.64.06-.98.16-.34.11-.71.27-1.1.49v-1c.4-.16.77-.28,1.11-.36.34-.08.66-.12.95-.12.75,0,1.35.19,1.8.57.45.38.68.88.68,1.51,0,.3-.06.59-.17.85-.11.27-.31.59-.61.95-.08.1-.34.37-.78.82-.44.45-1.05,1.08-1.84,1.89Z"/>
      <g class="cls-43">
        <line class="cls-2" x1="275.64" y1="346.7" x2="275.64" y2="69.5"/>
      </g>
      <line x1="275.64" y1="346.7" x2="275.64" y2="350.2"/>
      <line class="cls-9" x1="275.64" y1="346.7" x2="275.64" y2="350.2"/>
      <path d="M276.52,357.36c.47.1.84.31,1.1.63s.4.72.4,1.18c0,.72-.25,1.28-.74,1.67-.5.39-1.2.58-2.11.58-.31,0-.63-.03-.95-.09-.32-.05-.66-.14-1-.26v-.95c.27.16.57.28.9.36.32.08.66.12,1.02.12.62,0,1.09-.12,1.41-.36.32-.24.49-.6.49-1.07,0-.42-.15-.76-.45-1-.3-.24-.72-.37-1.26-.37h-.85v-.81h.89c.48,0,.85-.09,1.11-.29.26-.19.39-.47.39-.84s-.14-.66-.4-.86c-.27-.2-.65-.3-1.14-.3-.27,0-.56.03-.87.09s-.65.15-1.02.27v-.88c.37-.1.72-.18,1.05-.23.32-.05.63-.08.93-.08.74,0,1.33.17,1.77.51s.66.8.66,1.38c0,.4-.12.74-.35,1.02-.23.28-.56.48-.98.58Z"/>
      <g class="cls-23">
        <line class="cls-2" x1="343.31" y1="346.7" x2="343.31" y2="69.5"/>
      </g>
      <line x1="343.31" y1="346.7" x2="343.31" y2="350.2"/>
      <line class="cls-9" x1="343.31" y1="346.7" x2="343.31" y2="350.2"/>
      <path d="M343.65,354h1.24v4.75h1.04v.82h-1.04v1.72h-.98v-1.72h-3.29v-.95l3.03-4.62ZM343.91,354.86l-2.49,3.89h2.49v-3.89Z"/>
      <g class="cls-39">
        <line class="cls-2" x1="410.98" y1="346.7" x2="410.98" y2="69.5"/>
      </g>
      <line x1="410.98" y1="346.7" x2="410.98" y2="350.2"/>
      <line class="cls-9" x1="410.98" y1="346.7" x2="410.98" y2="350.2"/>
      <path d="M408.88,354h3.87v.83h-2.97v1.79c.14-.05.29-.09.43-.11.14-.02.29-.04.43-.04.81,0,1.45.23,1.93.67.48.45.72,1.05.72,1.81s-.25,1.4-.74,1.83-1.18.64-2.06.64c-.31,0-.62-.03-.94-.07-.32-.05-.64-.12-.98-.23v-.99c.29.16.59.28.91.36.31.08.64.11.99.11.56,0,1.01-.14,1.34-.44.32-.3.49-.7.49-1.21s-.17-.9-.49-1.2c-.33-.3-.78-.45-1.34-.45-.26,0-.53.03-.79.09-.26.06-.53.15-.8.27v-3.66Z"/>
      <path d="M149.1,367.83h1.68l4.17,10.94h-1.54l-.99-2.81h-4.93l-.99,2.81h-1.56l4.17-10.94ZM149.94,369.28l-2.01,5.44h4.02l-2.01-5.44Z"/>
      <path d="M157.29,374.67c0,.99.19,1.77.6,2.34.4.57.96.84,1.68.84s1.27-.27,1.7-.84c.4-.57.61-1.35.61-2.34s-.21-1.75-.61-2.32c-.42-.57-.98-.86-1.7-.86s-1.27.28-1.68.86c-.41.57-.6,1.33-.6,2.32ZM161.88,371.8v-4.44h1.35v11.4h-1.35v-1.23c-.29.5-.65.86-1.08,1.08-.43.22-.94.34-1.54.34-.99,0-1.8-.39-2.43-1.17-.63-.78-.93-1.83-.93-3.12s.3-2.32.93-3.12c.63-.78,1.44-1.18,2.43-1.18.6,0,1.11.12,1.54.36s.79.6,1.08,1.08Z"/>
      <path d="M166.81,374.67c0,.99.19,1.77.6,2.34.4.57.96.84,1.68.84s1.27-.27,1.7-.84c.4-.57.61-1.35.61-2.34s-.21-1.75-.61-2.32c-.42-.57-.98-.86-1.7-.86s-1.27.28-1.68.86c-.41.57-.6,1.33-.6,2.32ZM171.4,371.8v-4.44h1.35v11.4h-1.35v-1.23c-.29.5-.65.86-1.08,1.08-.43.22-.94.34-1.54.34-.99,0-1.8-.39-2.43-1.17-.63-.78-.93-1.83-.93-3.12s.3-2.32.93-3.12c.63-.78,1.44-1.18,2.43-1.18.6,0,1.11.12,1.54.36s.79.6,1.08,1.08Z"/>
      <path d="M181.19,373.93c-.01-.73-.23-1.32-.62-1.77-.4-.44-.94-.66-1.6-.66-.75,0-1.35.22-1.8.64s-.72,1.02-.78,1.78h4.8ZM182.54,374.32v.66h-6.19c.06.93.33,1.65.84,2.13.5.48,1.18.72,2.09.72.51,0,1.02-.06,1.5-.18.48-.12.97-.32,1.46-.59v1.27c-.48.21-.98.38-1.49.47-.51.09-1.04.15-1.54.15-1.32,0-2.36-.38-3.12-1.12s-1.14-1.78-1.14-3.09.36-2.4,1.08-3.2c.72-.78,1.71-1.18,2.94-1.18,1.11,0,1.98.36,2.62,1.07.63.72.96,1.68.96,2.9Z"/>
      <path d="M185.56,374.67c0,.99.19,1.77.6,2.34.4.57.96.84,1.68.84s1.27-.27,1.7-.84c.4-.57.61-1.35.61-2.34s-.21-1.75-.61-2.32c-.42-.57-.98-.86-1.7-.86s-1.27.28-1.68.86c-.41.57-.6,1.33-.6,2.32ZM190.15,371.8v-4.44h1.35v11.4h-1.35v-1.23c-.29.5-.65.86-1.08,1.08-.43.22-.94.34-1.54.34-.99,0-1.8-.39-2.43-1.17-.63-.78-.93-1.83-.93-3.12s.3-2.32.93-3.12c.63-.78,1.44-1.18,2.43-1.18.6,0,1.11.12,1.54.36s.79.6,1.08,1.08Z"/>
      <path d="M204.95,370.87v1.26c-.39-.21-.77-.36-1.16-.47s-.76-.16-1.15-.16c-.87,0-1.56.28-2.04.84-.48.55-.72,1.33-.72,2.32s.24,1.78.72,2.34,1.17.82,2.04.82c.39,0,.76-.05,1.15-.15.39-.11.76-.27,1.16-.48v1.25c-.39.18-.78.31-1.17.39-.4.07-.84.12-1.29.12-1.23,0-2.22-.38-2.94-1.15-.74-.77-1.1-1.82-1.1-3.14s.36-2.39,1.1-3.15,1.74-1.16,3.03-1.16c.42,0,.82.05,1.21.14s.78.21,1.16.38Z"/>
      <path d="M213.71,374.08v4.68h-1.35v-1.24c-.32.51-.71.87-1.15,1.1-.45.22-1.02.34-1.68.34-.84,0-1.51-.22-2.01-.69-.49-.47-.74-1.1-.74-1.89,0-.91.3-1.61.93-2.09.62-.47,1.53-.7,2.76-.7h1.89v-.14c0-.61-.21-1.09-.61-1.44-.4-.33-.98-.51-1.71-.51-.48,0-.93.06-1.38.18-.45.12-.87.29-1.27.5v-1.25c.48-.18.96-.33,1.43-.42s.91-.15,1.36-.15c1.19,0,2.07.32,2.66.93.58.61.88,1.55.88,2.79ZM211.02,374.64c-1.1,0-1.85.13-2.26.38-.42.26-.63.68-.63,1.27,0,.48.15.87.46,1.14.32.28.75.42,1.29.42.75,0,1.35-.26,1.8-.8.45-.52.68-1.23.68-2.11v-.3h-1.33Z"/>
      <path d="M222.39,370.87v1.26c-.39-.21-.77-.36-1.16-.47s-.76-.16-1.15-.16c-.87,0-1.56.28-2.04.84-.48.55-.72,1.33-.72,2.32s.24,1.78.72,2.34,1.17.82,2.04.82c.39,0,.76-.05,1.15-.15.39-.11.76-.27,1.16-.48v1.25c-.39.18-.78.31-1.17.39-.4.07-.84.12-1.29.12-1.23,0-2.22-.38-2.94-1.15-.74-.77-1.1-1.82-1.1-3.14s.36-2.39,1.1-3.15,1.74-1.16,3.03-1.16c.42,0,.82.05,1.21.14s.78.21,1.16.38Z"/>
      <path d="M231.55,373.81v4.95h-1.35v-4.9c0-.78-.16-1.35-.46-1.74-.3-.39-.75-.58-1.35-.58-.74,0-1.31.24-1.73.7s-.63,1.09-.63,1.89v4.63h-1.35v-11.4h1.35v4.47c.32-.48.69-.85,1.14-1.09.43-.24.95-.38,1.51-.38.93,0,1.65.3,2.13.89s.74,1.44.74,2.57Z"/>
      <path d="M239.9,373.93c-.01-.73-.23-1.32-.62-1.77-.4-.44-.94-.66-1.6-.66-.75,0-1.35.22-1.8.64s-.72,1.02-.78,1.78h4.8ZM241.25,374.32v.66h-6.19c.06.93.33,1.65.84,2.13.5.48,1.18.72,2.09.72.51,0,1.02-.06,1.5-.18.48-.12.97-.32,1.46-.59v1.27c-.48.21-.98.38-1.49.47-.51.09-1.04.15-1.54.15-1.32,0-2.36-.38-3.12-1.12s-1.14-1.78-1.14-3.09.36-2.4,1.08-3.2c.72-.78,1.71-1.18,2.94-1.18,1.11,0,1.98.36,2.62,1.07.63.72.96,1.68.96,2.9Z"/>
      <path d="M254.14,370.87v1.26c-.39-.21-.77-.36-1.16-.47s-.76-.16-1.15-.16c-.87,0-1.56.28-2.04.84-.48.55-.72,1.33-.72,2.32s.24,1.78.72,2.34,1.17.82,2.04.82c.39,0,.76-.05,1.15-.15.39-.11.76-.27,1.16-.48v1.25c-.39.18-.78.31-1.17.39-.4.07-.84.12-1.29.12-1.23,0-2.22-.38-2.94-1.15-.74-.77-1.1-1.82-1.1-3.14s.36-2.39,1.1-3.15,1.74-1.16,3.03-1.16c.42,0,.82.05,1.21.14s.78.21,1.16.38Z"/>
      <path d="M262.9,374.08v4.68h-1.35v-1.24c-.32.51-.71.87-1.15,1.1-.45.22-1.02.34-1.68.34-.84,0-1.51-.22-2.01-.69s-.74-1.1-.74-1.89c0-.91.3-1.61.93-2.09.62-.47,1.53-.7,2.76-.7h1.89v-.14c0-.61-.21-1.09-.62-1.44-.4-.33-.97-.51-1.71-.51-.48,0-.93.06-1.38.18-.45.12-.87.29-1.27.5v-1.25c.48-.18.96-.33,1.42-.42.47-.09.92-.15,1.37-.15,1.18,0,2.07.32,2.65.93.58.61.88,1.55.88,2.79ZM260.21,374.64c-1.1,0-1.85.13-2.26.38-.42.26-.63.68-.63,1.27,0,.48.15.87.46,1.14.32.28.75.42,1.29.42.75,0,1.35-.26,1.8-.8.45-.52.68-1.23.68-2.11v-.3h-1.34Z"/>
      <path d="M271.56,374.67c0-.99-.21-1.75-.61-2.32-.42-.57-.98-.86-1.68-.86s-1.28.28-1.68.86c-.42.57-.61,1.33-.61,2.32s.2,1.77.61,2.34c.4.57.96.84,1.68.84s1.26-.27,1.68-.84c.4-.57.61-1.35.61-2.34ZM266.97,377.53v4.34h-1.35v-11.31h1.35v1.24c.27-.48.63-.84,1.07-1.08s.96-.36,1.56-.36c.99,0,1.8.41,2.43,1.18.62.8.93,1.83.93,3.12s-.32,2.34-.93,3.12c-.63.78-1.44,1.17-2.43,1.17-.6,0-1.12-.12-1.56-.34-.43-.23-.8-.59-1.07-1.08Z"/>
      <path d="M281.61,374.08v4.68h-1.35v-1.24c-.32.51-.71.87-1.15,1.1-.45.22-1.02.34-1.68.34-.84,0-1.51-.22-2.01-.69s-.74-1.1-.74-1.89c0-.91.3-1.61.93-2.09.62-.47,1.53-.7,2.76-.7h1.89v-.14c0-.61-.21-1.09-.62-1.44-.4-.33-.97-.51-1.71-.51-.48,0-.93.06-1.38.18-.45.12-.87.29-1.27.5v-1.25c.48-.18.96-.33,1.42-.42.47-.09.92-.15,1.37-.15,1.18,0,2.07.32,2.65.93.58.61.88,1.55.88,2.79ZM278.93,374.64c-1.1,0-1.85.13-2.26.38-.42.26-.63.68-.63,1.27,0,.48.15.87.46,1.14.32.28.75.42,1.29.42.75,0,1.35-.26,1.8-.8.45-.52.68-1.23.68-2.11v-.3h-1.34Z"/>
      <path d="M290.29,370.87v1.26c-.39-.21-.77-.36-1.15-.47-.39-.1-.77-.16-1.15-.16-.87,0-1.56.28-2.04.84-.48.55-.72,1.33-.72,2.32s.24,1.78.72,2.34,1.17.82,2.04.82c.39,0,.76-.05,1.15-.15.39-.11.76-.27,1.15-.48v1.25c-.39.18-.78.31-1.17.39-.4.07-.84.12-1.29.12-1.23,0-2.22-.38-2.94-1.15-.74-.77-1.1-1.82-1.1-3.14s.36-2.39,1.1-3.15c.73-.76,1.74-1.16,3.03-1.16.42,0,.82.05,1.21.14.39.09.78.21,1.15.38Z"/>
      <path d="M292.63,367.36h1.35v1.71h-1.35v-1.71ZM292.63,370.56h1.35v8.2h-1.35v-8.2Z"/>
      <path d="M298.13,368.23v2.33h2.77v1.05h-2.77v4.45c0,.67.09,1.11.27,1.29.18.19.55.28,1.12.28h1.38v1.12h-1.38c-1.05,0-1.77-.19-2.16-.59-.39-.39-.59-1.1-.59-2.11v-4.45h-.99v-1.05h.99v-2.33h1.35Z"/>
      <path d="M306.1,379.51c-.39.96-.76,1.61-1.12,1.9-.36.3-.84.45-1.44.45h-1.08v-1.12h.8c.36,0,.64-.09.85-.27.21-.18.43-.59.69-1.24l.24-.6-3.32-8.07h1.42l2.57,6.42,2.57-6.42h1.42l-3.6,8.95Z"/>
      <polygon points="311.9 376.9 313.45 376.9 313.45 378.16 312.25 380.49 311.3 380.49 311.9 378.16 311.9 376.9"/>
      <polygon points="332.46 367.83 333.95 367.83 332.07 377.53 337.4 377.53 337.16 378.76 330.35 378.76 332.46 367.83"/>
      <g class="cls-16">
        <path d="M319.8,378.76l4.17-10.93h1.68l4.17,10.93h-10.02ZM324.81,369.28l-3,8.25h6l-3-8.25Z"/>
      </g>
      <g class="cls-17">
        <line class="cls-2" x1="55.72" y1="334.1" x2="427.9" y2="334.1"/>
      </g>
      <line x1="55.72" y1="334.1" x2="52.22" y2="334.1"/>
      <line class="cls-9" x1="55.72" y1="334.1" x2="52.22" y2="334.1"/>
      <path d="M28.9,329.9c.81,0,1.43.33,1.87.97.43.65.65,1.59.65,2.81s-.22,2.17-.65,2.81c-.44.64-1.06.96-1.88.96s-1.44-.32-1.87-.96c-.43-.64-.64-1.58-.64-2.81s.21-2.16.64-2.81c.43-.64,1.06-.97,1.88-.97ZM28.9,330.68c-.51,0-.89.25-1.15.75s-.38,1.25-.38,2.25.12,1.75.38,2.25.64.75,1.15.75.89-.25,1.15-.75c.25-.5.38-1.25.38-2.25s-.13-1.75-.38-2.25c-.26-.5-.64-.75-1.15-.75Z"/>
      <rect x="33.15" y="336.08" width="1.03" height="1.24"/>
      <path d="M38.44,329.9c.81,0,1.43.33,1.87.97.43.65.65,1.59.65,2.81s-.22,2.17-.65,2.81c-.44.64-1.06.96-1.88.96s-1.44-.32-1.87-.96c-.43-.64-.64-1.58-.64-2.81s.21-2.16.64-2.81c.43-.64,1.06-.97,1.88-.97ZM38.44,330.68c-.51,0-.89.25-1.15.75-.26.5-.38,1.25-.38,2.25s.12,1.75.38,2.25c.26.5.64.75,1.15.75s.89-.25,1.15-.75c.25-.5.38-1.25.38-2.25s-.13-1.75-.38-2.25c-.26-.5-.64-.75-1.15-.75Z"/>
      <path d="M44.8,329.9c.81,0,1.43.33,1.87.97.43.65.65,1.59.65,2.81s-.22,2.17-.65,2.81c-.44.64-1.06.96-1.88.96s-1.44-.32-1.87-.96c-.43-.64-.64-1.58-.64-2.81s.21-2.16.64-2.81c.43-.64,1.06-.97,1.88-.97ZM44.8,330.68c-.51,0-.89.25-1.15.75-.26.5-.38,1.25-.38,2.25s.12,1.75.38,2.25c.26.5.64.75,1.15.75s.89-.25,1.15-.75c.25-.5.38-1.25.38-2.25s-.13-1.75-.38-2.25c-.26-.5-.64-.75-1.15-.75Z"/>
      <g class="cls-41">
        <line class="cls-2" x1="55.72" y1="301.8" x2="427.9" y2="301.8"/>
      </g>
      <line x1="55.72" y1="301.8" x2="52.22" y2="301.8"/>
      <line class="cls-9" x1="55.72" y1="301.8" x2="52.22" y2="301.8"/>
      <path d="M29.9,297.6c.81,0,1.43.33,1.87.97.43.65.65,1.59.65,2.81s-.22,2.17-.65,2.81c-.44.64-1.06.96-1.88.96s-1.44-.32-1.87-.96c-.43-.64-.64-1.58-.64-2.81s.21-2.16.64-2.81c.43-.64,1.06-.97,1.88-.97ZM29.9,298.38c-.51,0-.89.25-1.15.75s-.38,1.25-.38,2.25.12,1.75.38,2.25.64.75,1.15.75.89-.25,1.15-.75c.25-.5.38-1.25.38-2.25s-.13-1.75-.38-2.25c-.26-.5-.64-.75-1.15-.75Z"/>
      <rect x="34.15" y="303.78" width="1.03" height="1.24"/>
      <path d="M37.68,304.19h3.44v.83h-4.63v-.83c.37-.38.88-.9,1.53-1.56.64-.65,1.05-1.07,1.22-1.26.32-.35.54-.65.66-.9.12-.24.19-.49.19-.73,0-.38-.14-.7-.41-.94-.27-.24-.62-.37-1.06-.37-.31,0-.64.06-.98.16-.34.11-.71.27-1.1.49v-1c.4-.16.77-.28,1.11-.36.34-.08.66-.12.95-.12.75,0,1.35.19,1.8.57.45.38.68.88.68,1.51,0,.3-.06.59-.17.85-.11.27-.31.59-.61.95-.08.1-.34.37-.78.82-.44.45-1.05,1.08-1.84,1.89Z"/>
      <path d="M43.2,297.73h3.87v.83h-2.97v1.79c.14-.05.29-.09.43-.11.14-.02.29-.04.43-.04.81,0,1.45.23,1.93.67.48.45.72,1.05.72,1.81s-.25,1.4-.74,1.83-1.18.64-2.06.64c-.31,0-.62-.03-.94-.07-.32-.05-.64-.12-.98-.23v-.99c.29.16.59.28.91.36.31.08.64.11.99.11.56,0,1.01-.14,1.34-.44.32-.3.49-.7.49-1.21s-.17-.9-.49-1.2c-.33-.3-.78-.45-1.34-.45-.26,0-.53.03-.79.09-.26.06-.53.15-.8.27v-3.66Z"/>
      <g class="cls-26">
        <line class="cls-2" x1="55.72" y1="269.5" x2="427.9" y2="269.5"/>
      </g>
      <line x1="55.72" y1="269.5" x2="52.22" y2="269.5"/>
      <line class="cls-9" x1="55.72" y1="269.5" x2="52.22" y2="269.5"/>
      <path d="M28.9,265.3c.81,0,1.43.33,1.87.97.43.65.65,1.59.65,2.81s-.22,2.17-.65,2.81c-.44.64-1.06.96-1.88.96s-1.44-.32-1.87-.96c-.43-.64-.64-1.58-.64-2.81s.21-2.16.64-2.81c.43-.64,1.06-.97,1.88-.97ZM28.9,266.08c-.51,0-.89.25-1.15.75s-.38,1.25-.38,2.25.12,1.75.38,2.25.64.75,1.15.75.89-.25,1.15-.75c.25-.5.38-1.25.38-2.25s-.13-1.75-.38-2.25c-.26-.5-.64-.75-1.15-.75Z"/>
      <rect x="33.15" y="271.48" width="1.03" height="1.24"/>
      <path d="M36.34,265.43h3.87v.83h-2.97v1.79c.14-.05.29-.09.43-.11.14-.02.29-.04.43-.04.81,0,1.45.23,1.93.67.48.45.72,1.05.72,1.81s-.25,1.4-.74,1.83-1.18.64-2.06.64c-.31,0-.62-.03-.94-.07-.32-.05-.64-.12-.98-.23v-.99c.29.16.59.28.91.36.31.08.64.11.99.11.56,0,1.01-.14,1.34-.44.32-.3.49-.7.49-1.21s-.17-.9-.49-1.2c-.33-.3-.78-.45-1.34-.45-.26,0-.53.03-.79.09-.26.06-.53.15-.8.27v-3.66Z"/>
      <path d="M44.8,265.3c.81,0,1.43.33,1.87.97.43.65.65,1.59.65,2.81s-.22,2.17-.65,2.81c-.44.64-1.06.96-1.88.96s-1.44-.32-1.87-.96-.64-1.58-.64-2.81.21-2.16.64-2.81c.43-.64,1.06-.97,1.88-.97ZM44.8,266.08c-.51,0-.89.25-1.15.75-.26.5-.38,1.25-.38,2.25s.12,1.75.38,2.25c.26.5.64.75,1.15.75s.89-.25,1.15-.75c.25-.5.38-1.25.38-2.25s-.13-1.75-.38-2.25c-.26-.5-.64-.75-1.15-.75Z"/>
      <g class="cls-27">
        <line class="cls-2" x1="55.72" y1="237.21" x2="427.9" y2="237.21"/>
      </g>
      <line x1="55.72" y1="237.21" x2="52.22" y2="237.21"/>
      <line class="cls-9" x1="55.72" y1="237.21" x2="52.22" y2="237.21"/>
      <path d="M29.9,233.01c.81,0,1.43.33,1.87.97.43.65.65,1.59.65,2.81s-.22,2.17-.65,2.81c-.44.64-1.06.96-1.88.96s-1.44-.32-1.87-.96c-.43-.64-.64-1.58-.64-2.81s.21-2.16.64-2.81c.43-.64,1.06-.97,1.88-.97ZM29.9,233.79c-.51,0-.89.25-1.15.75s-.38,1.25-.38,2.25.12,1.75.38,2.25.64.75,1.15.75.89-.25,1.15-.75c.25-.5.38-1.25.38-2.25s-.13-1.75-.38-2.25c-.26-.5-.64-.75-1.15-.75Z"/>
      <rect x="34.15" y="239.19" width="1.03" height="1.24"/>
      <polygon points="36.33 233.14 41.02 233.14 41.02 233.56 38.37 240.43 37.34 240.43 39.83 233.97 36.33 233.97 36.33 233.14"/>
      <path d="M42.95,233.14h3.87v.83h-2.97v1.79c.14-.05.29-.09.43-.11s.29-.04.43-.04c.81,0,1.45.23,1.93.67.48.45.72,1.05.72,1.81s-.25,1.4-.74,1.83c-.49.43-1.18.64-2.06.64-.31,0-.62-.03-.94-.07-.32-.05-.64-.12-.98-.23v-.99c.29.16.59.28.91.36.31.08.64.11.99.11.56,0,1.01-.14,1.34-.44.32-.3.49-.7.49-1.21s-.17-.9-.49-1.2c-.33-.3-.78-.45-1.34-.45-.26,0-.53.03-.79.09-.26.06-.53.15-.8.27v-3.66Z"/>
      <g class="cls-33">
        <line class="cls-2" x1="55.72" y1="204.91" x2="427.9" y2="204.91"/>
      </g>
      <line x1="55.72" y1="204.91" x2="52.22" y2="204.91"/>
      <line class="cls-9" x1="55.72" y1="204.91" x2="52.22" y2="204.91"/>
      <polygon points="26.96 207.3 28.57 207.3 28.57 201.74 26.82 202.09 26.82 201.19 28.56 200.84 29.55 200.84 29.55 207.3 31.16 207.3 31.16 208.13 26.96 208.13 26.96 207.3"/>
      <rect x="33.15" y="206.89" width="1.03" height="1.24"/>
      <path d="M38.44,200.71c.81,0,1.43.33,1.87.97.43.65.65,1.59.65,2.81s-.22,2.17-.65,2.81c-.44.64-1.06.96-1.88.96s-1.44-.32-1.87-.96-.64-1.58-.64-2.81.21-2.16.64-2.81c.43-.64,1.06-.97,1.88-.97ZM38.44,201.49c-.51,0-.89.25-1.15.75-.26.5-.38,1.25-.38,2.25s.12,1.75.38,2.25c.26.5.64.75,1.15.75s.89-.25,1.15-.75c.25-.5.38-1.25.38-2.25s-.13-1.75-.38-2.25c-.26-.5-.64-.75-1.15-.75Z"/>
      <path d="M44.8,200.71c.81,0,1.43.33,1.87.97.43.65.65,1.59.65,2.81s-.22,2.17-.65,2.81c-.44.64-1.06.96-1.88.96s-1.44-.32-1.87-.96-.64-1.58-.64-2.81.21-2.16.64-2.81c.43-.64,1.06-.97,1.88-.97ZM44.8,201.49c-.51,0-.89.25-1.15.75-.26.5-.38,1.25-.38,2.25s.12,1.75.38,2.25c.26.5.64.75,1.15.75s.89-.25,1.15-.75c.25-.5.38-1.25.38-2.25s-.13-1.75-.38-2.25c-.26-.5-.64-.75-1.15-.75Z"/>
      <g class="cls-45">
        <line class="cls-2" x1="55.72" y1="172.61" x2="427.9" y2="172.61"/>
      </g>
      <line x1="55.72" y1="172.61" x2="52.22" y2="172.61"/>
      <line class="cls-9" x1="55.72" y1="172.61" x2="52.22" y2="172.61"/>
      <polygon points="27.96 175 29.57 175 29.57 169.44 27.82 169.79 27.82 168.89 29.56 168.54 30.55 168.54 30.55 175 32.16 175 32.16 175.83 27.96 175.83 27.96 175"/>
      <rect x="34.15" y="174.59" width="1.03" height="1.24"/>
      <path d="M37.68,175h3.44v.83h-4.63v-.83c.37-.38.88-.9,1.53-1.56.64-.65,1.05-1.07,1.22-1.26.32-.35.54-.65.66-.9.12-.24.19-.49.19-.73,0-.38-.14-.7-.41-.94-.27-.24-.62-.37-1.06-.37-.31,0-.64.06-.98.16-.34.11-.71.27-1.1.49v-1c.4-.16.77-.28,1.11-.36s.66-.12.95-.12c.75,0,1.35.19,1.8.57.45.38.68.88.68,1.51,0,.3-.06.59-.17.85-.11.27-.31.59-.61.95-.08.1-.34.37-.78.82-.44.45-1.05,1.08-1.84,1.89Z"/>
      <path d="M43.2,168.54h3.87v.83h-2.97v1.79c.14-.05.29-.09.43-.11s.29-.04.43-.04c.81,0,1.45.23,1.93.67.48.45.72,1.05.72,1.81s-.25,1.4-.74,1.83c-.49.43-1.18.64-2.06.64-.31,0-.62-.03-.94-.07-.32-.05-.64-.12-.98-.23v-.99c.29.16.59.28.91.36.31.08.64.11.99.11.56,0,1.01-.14,1.34-.44.32-.3.49-.7.49-1.21s-.17-.9-.49-1.2c-.33-.3-.78-.45-1.34-.45-.26,0-.53.03-.79.09-.26.06-.53.15-.8.27v-3.66Z"/>
      <g class="cls-55">
        <line class="cls-2" x1="55.72" y1="140.31" x2="427.9" y2="140.31"/>
      </g>
      <line x1="55.72" y1="140.31" x2="52.22" y2="140.31"/>
      <line class="cls-9" x1="55.72" y1="140.31" x2="52.22" y2="140.31"/>
      <polygon points="26.96 142.7 28.57 142.7 28.57 137.14 26.82 137.49 26.82 136.59 28.56 136.24 29.55 136.24 29.55 142.7 31.16 142.7 31.16 143.53 26.96 143.53 26.96 142.7"/>
      <rect x="33.15" y="142.29" width="1.03" height="1.24"/>
      <path d="M36.34,136.24h3.87v.83h-2.97v1.79c.14-.05.29-.09.43-.11s.29-.04.43-.04c.81,0,1.45.23,1.93.67.48.45.72,1.05.72,1.81s-.25,1.4-.74,1.83c-.49.43-1.18.64-2.06.64-.31,0-.62-.03-.94-.07-.32-.05-.64-.12-.98-.23v-.99c.29.16.59.28.91.36.31.08.64.11.99.11.56,0,1.01-.14,1.34-.44.32-.3.49-.7.49-1.21s-.17-.9-.49-1.2c-.33-.3-.78-.45-1.34-.45-.26,0-.53.03-.79.09-.26.06-.53.15-.8.27v-3.66Z"/>
      <path d="M44.8,136.11c.81,0,1.43.33,1.87.97.43.65.65,1.59.65,2.81s-.22,2.17-.65,2.81c-.44.64-1.06.96-1.88.96s-1.44-.32-1.87-.96-.64-1.58-.64-2.81.21-2.16.64-2.81c.43-.64,1.06-.97,1.88-.97ZM44.8,136.89c-.51,0-.89.25-1.15.75-.26.5-.38,1.25-.38,2.25s.12,1.75.38,2.25c.26.5.64.75,1.15.75s.89-.25,1.15-.75c.25-.5.38-1.25.38-2.25s-.13-1.75-.38-2.25c-.26-.5-.64-.75-1.15-.75Z"/>
      <g class="cls-46">
        <line class="cls-2" x1="55.72" y1="108.02" x2="427.9" y2="108.02"/>
      </g>
      <line x1="55.72" y1="108.02" x2="52.22" y2="108.02"/>
      <line class="cls-9" x1="55.72" y1="108.02" x2="52.22" y2="108.02"/>
      <polygon points="27.96 110.28 29.57 110.28 29.57 104.72 27.82 105.07 27.82 104.17 29.56 103.82 30.55 103.82 30.55 110.28 32.16 110.28 32.16 111.11 27.96 111.11 27.96 110.28"/>
      <rect x="34.15" y="109.87" width="1.03" height="1.24"/>
      <polygon points="36.33 103.82 41.02 103.82 41.02 104.24 38.37 111.11 37.34 111.11 39.83 104.65 36.33 104.65 36.33 103.82"/>
      <path d="M42.95,103.82h3.87v.83h-2.97v1.79c.14-.05.29-.09.43-.11s.29-.04.43-.04c.81,0,1.45.23,1.93.67.48.45.72,1.05.72,1.81s-.25,1.4-.74,1.83c-.49.43-1.18.64-2.06.64-.31,0-.62-.03-.94-.07-.32-.05-.64-.12-.98-.23v-.99c.29.16.59.28.91.36.31.08.64.11.99.11.56,0,1.01-.14,1.34-.44.32-.3.49-.7.49-1.21s-.17-.9-.49-1.2c-.33-.3-.78-.45-1.34-.45-.26,0-.53.03-.79.09-.26.06-.53.15-.8.27v-3.66Z"/>
      <g class="cls-20">
        <line class="cls-2" x1="55.72" y1="75.72" x2="427.9" y2="75.72"/>
      </g>
      <line x1="55.72" y1="75.72" x2="52.22" y2="75.72"/>
      <line class="cls-9" x1="55.72" y1="75.72" x2="52.22" y2="75.72"/>
      <path d="M27.64,78.11h3.44v.83h-4.63v-.83c.37-.38.88-.9,1.53-1.56.64-.65,1.05-1.07,1.22-1.26.32-.35.54-.65.66-.9.12-.24.19-.49.19-.73,0-.38-.14-.7-.41-.94s-.62-.37-1.06-.37c-.31,0-.64.06-.98.16-.34.11-.71.27-1.1.49v-1c.4-.16.77-.28,1.11-.36.34-.08.66-.12.95-.12.75,0,1.35.19,1.8.57.45.38.68.88.68,1.51,0,.3-.06.59-.17.85-.11.27-.31.59-.61.95-.08.1-.34.37-.78.82s-1.05,1.08-1.84,1.89Z"/>
      <rect x="33.15" y="77.7" width="1.03" height="1.24"/>
      <path d="M38.44,71.52c.81,0,1.43.33,1.87.97.43.65.65,1.59.65,2.81s-.22,2.17-.65,2.81c-.44.64-1.06.96-1.88.96s-1.44-.32-1.87-.96c-.43-.64-.64-1.58-.64-2.81s.21-2.16.64-2.81c.43-.64,1.06-.97,1.88-.97ZM38.44,72.3c-.51,0-.89.25-1.15.75-.26.5-.38,1.25-.38,2.25s.12,1.75.38,2.25c.26.5.64.75,1.15.75s.89-.25,1.15-.75c.25-.5.38-1.25.38-2.25s-.13-1.75-.38-2.25c-.26-.5-.64-.75-1.15-.75Z"/>
      <path d="M44.8,71.52c.81,0,1.43.33,1.87.97.43.65.65,1.59.65,2.81s-.22,2.17-.65,2.81c-.44.64-1.06.96-1.88.96s-1.44-.32-1.87-.96c-.43-.64-.64-1.58-.64-2.81s.21-2.16.64-2.81c.43-.64,1.06-.97,1.88-.97ZM44.8,72.3c-.51,0-.89.25-1.15.75-.26.5-.38,1.25-.38,2.25s.12,1.75.38,2.25c.26.5.64.75,1.15.75s.89-.25,1.15-.75c.25-.5.38-1.25.38-2.25s-.13-1.75-.38-2.25c-.26-.5-.64-.75-1.15-.75Z"/>
      <polygon points="7.66 303.86 7.66 294.62 8.9 294.62 8.9 298.51 18.59 298.51 18.59 299.99 8.9 299.99 8.9 303.86 7.66 303.86"/>
      <path d="M10.19,292.63c0-1.17.39-2.09,1.14-2.76.76-.66,1.82-1.01,3.16-1.01s2.4.35,3.15,1.01c.76.67,1.14,1.59,1.14,2.76s-.38,2.11-1.14,2.77c-.75.66-1.8.99-3.15.99s-2.4-.33-3.16-.99c-.75-.66-1.14-1.59-1.14-2.77ZM11.33,292.63c0,.72.28,1.29.85,1.71.57.42,1.34.63,2.31.63s1.76-.19,2.32-.61c.57-.42.84-.99.84-1.72s-.27-1.29-.84-1.71c-.57-.42-1.33-.63-2.32-.63s-1.74.21-2.31.63c-.57.42-.85.99-.85,1.71Z"/>
      <path d="M8.06,285.29h2.33v-2.78h1.05v2.78h4.46c.68,0,1.11-.09,1.29-.27.19-.18.28-.56.28-1.12v-1.38h1.12v1.38c0,1.05-.19,1.77-.58,2.16-.39.39-1.1.59-2.12.59h-4.46v.99h-1.05v-.99h-2.33v-1.35Z"/>
      <path d="M13.91,274.33h4.68v1.35h-1.25c.51.32.87.71,1.1,1.16.23.45.34,1.02.34,1.68,0,.84-.23,1.51-.69,2.01-.46.5-1.09.74-1.89.74-.91,0-1.6-.3-2.09-.93-.47-.61-.7-1.53-.7-2.76v-1.89h-.14c-.61,0-1.1.21-1.44.62-.33.4-.51.97-.51,1.71,0,.48.06.93.18,1.38.12.45.28.87.49,1.28h-1.24c-.18-.48-.33-.96-.42-1.43-.09-.46-.15-.91-.15-1.36,0-1.18.32-2.07.93-2.65s1.55-.89,2.79-.89ZM14.47,277.01c0,1.09.14,1.84.38,2.26.26.42.68.63,1.27.63.48,0,.87-.15,1.14-.46.28-.32.42-.75.42-1.29,0-.75-.25-1.35-.79-1.8-.53-.45-1.23-.68-2.12-.68h-.3v1.34Z"/>
      <rect x="7.19" y="270.2" width="11.4" height="1.35"/>
      <path d="M10.7,256.7h1.26c-.21.39-.36.77-.47,1.16s-.16.76-.16,1.15c0,.87.28,1.56.84,2.04s1.34.72,2.32.72,1.79-.24,2.34-.72c.56-.48.83-1.17.83-2.04,0-.39-.05-.76-.15-1.15s-.27-.76-.48-1.16h1.24c.18.39.32.78.39,1.17.07.4.12.84.12,1.29,0,1.23-.38,2.22-1.15,2.94-.77.74-1.82,1.1-3.14,1.1s-2.39-.36-3.15-1.1c-.76-.74-1.15-1.74-1.15-3.03,0-.42.05-.82.14-1.21s.21-.78.38-1.16Z"/>
      <path d="M13.91,247.94h4.68v1.35h-1.25c.51.32.87.71,1.1,1.15s.34,1.02.34,1.68c0,.84-.23,1.51-.69,2.01-.46.49-1.09.74-1.89.74-.91,0-1.6-.3-2.09-.93-.47-.62-.7-1.53-.7-2.76v-1.89h-.14c-.61,0-1.1.21-1.44.61-.33.4-.51.98-.51,1.71,0,.48.06.93.18,1.38.12.45.28.87.49,1.27h-1.24c-.18-.48-.33-.96-.42-1.43s-.15-.91-.15-1.36c0-1.19.32-2.07.93-2.66.61-.58,1.55-.88,2.79-.88ZM14.47,250.63c0,1.1.14,1.85.38,2.26.26.42.68.63,1.27.63.48,0,.87-.15,1.14-.46.28-.32.42-.75.42-1.29,0-.75-.25-1.35-.79-1.8-.53-.45-1.23-.67-2.12-.67h-.3v1.33Z"/>
      <path d="M10.7,239.26h1.26c-.21.39-.36.76-.47,1.16-.11.39-.16.76-.16,1.15,0,.87.28,1.56.84,2.04s1.34.72,2.32.72,1.79-.24,2.34-.72c.56-.48.83-1.17.83-2.04,0-.39-.05-.76-.15-1.15-.1-.39-.27-.77-.48-1.16h1.24c.18.39.32.78.39,1.17.07.4.12.84.12,1.29,0,1.23-.38,2.22-1.15,2.94-.77.74-1.82,1.1-3.14,1.1s-2.39-.36-3.15-1.1c-.76-.74-1.15-1.74-1.15-3.03,0-.42.05-.82.14-1.21.09-.39.21-.78.38-1.16Z"/>
      <path d="M13.64,230.09h4.95v1.35h-4.91c-.78,0-1.35.16-1.74.46-.39.3-.59.75-.59,1.35,0,.74.24,1.31.71,1.73.46.42,1.09.63,1.89.63h4.64v1.35H7.19v-1.35h4.47c-.48-.32-.85-.69-1.1-1.14-.24-.43-.38-.95-.38-1.51,0-.93.3-1.65.89-2.13s1.44-.74,2.56-.74Z"/>
      <path d="M13.76,221.74c-.74.01-1.32.23-1.77.62-.43.4-.66.94-.66,1.6,0,.75.23,1.35.65,1.8s1.02.72,1.78.78v-4.8ZM14.15,220.39h.66v6.19c.93-.06,1.65-.33,2.13-.84.48-.5.72-1.18.72-2.09,0-.51-.06-1.02-.18-1.5-.12-.48-.31-.97-.58-1.46h1.27c.21.48.38.98.47,1.49.09.51.15,1.04.15,1.54,0,1.32-.38,2.36-1.12,3.12s-1.78,1.14-3.09,1.14-2.4-.36-3.19-1.08c-.78-.72-1.19-1.71-1.19-2.94,0-1.11.36-1.98,1.06-2.62.72-.63,1.68-.96,2.9-.96Z"/>
      <path d="M11.65,208.66c-.09.15-.15.31-.2.49-.03.18-.06.38-.06.58,0,.76.26,1.35.75,1.76.5.42,1.2.62,2.13.62h4.32v1.35h-8.2v-1.35h1.27c-.49-.27-.87-.65-1.11-1.1-.24-.45-.36-1.01-.36-1.67,0-.09.02-.19.02-.31.02-.11.03-.23.06-.38h1.38Z"/>
      <path d="M13.76,201.9c-.74.01-1.32.23-1.77.62-.43.4-.66.94-.66,1.6,0,.75.23,1.35.65,1.8s1.02.72,1.78.78v-4.8ZM14.15,200.55h.66v6.19c.93-.06,1.65-.33,2.13-.84.48-.5.72-1.18.72-2.09,0-.51-.06-1.02-.18-1.5-.12-.48-.31-.97-.58-1.46h1.27c.21.48.38.98.47,1.49.09.51.15,1.04.15,1.54,0,1.32-.38,2.36-1.12,3.12s-1.78,1.14-3.09,1.14-2.4-.36-3.19-1.08c-.78-.72-1.19-1.71-1.19-2.94,0-1.11.36-1.98,1.06-2.62.72-.63,1.68-.96,2.9-.96Z"/>
      <path d="M14.5,192.45c-.99,0-1.76.21-2.32.62-.57.42-.85.98-.85,1.68s.28,1.27.85,1.68c.57.42,1.34.62,2.32.62s1.77-.2,2.34-.62c.57-.4.84-.96.84-1.68s-.27-1.26-.84-1.68c-.57-.4-1.35-.62-2.34-.62ZM17.36,197.04h4.33v1.35h-11.31v-1.35h1.24c-.48-.27-.84-.63-1.08-1.07-.24-.43-.36-.96-.36-1.56,0-.99.4-1.8,1.19-2.43.8-.61,1.83-.93,3.12-.93s2.34.32,3.12.93c.78.63,1.17,1.44,1.17,2.43,0,.6-.12,1.12-.34,1.56s-.59.79-1.08,1.07Z"/>
      <rect x="7.19" y="187.47" width="11.4" height="1.35"/>
      <path d="M13.91,178.23h4.68v1.35h-1.25c.51.32.87.71,1.1,1.15s.34,1.02.34,1.68c0,.84-.23,1.51-.69,2.01-.46.49-1.09.74-1.89.74-.91,0-1.6-.3-2.09-.93-.47-.62-.7-1.53-.7-2.76v-1.89h-.14c-.61,0-1.1.21-1.44.61-.33.4-.51.98-.51,1.71,0,.48.06.93.18,1.38.12.45.28.87.49,1.27h-1.24c-.18-.48-.33-.96-.42-1.43s-.15-.91-.15-1.36c0-1.19.32-2.07.93-2.66.61-.58,1.55-.88,2.79-.88ZM14.47,180.92c0,1.1.14,1.85.38,2.26.26.42.68.63,1.27.63.48,0,.87-.15,1.14-.46.28-.32.42-.75.42-1.29,0-.75-.25-1.35-.79-1.8-.53-.45-1.23-.67-2.12-.67h-.3v1.33Z"/>
      <path d="M10.7,169.55h1.26c-.21.39-.36.76-.47,1.16-.11.39-.16.76-.16,1.15,0,.87.28,1.56.84,2.04s1.34.72,2.32.72,1.79-.24,2.34-.72c.56-.48.83-1.17.83-2.04,0-.39-.05-.76-.15-1.15-.1-.39-.27-.77-.48-1.16h1.24c.18.39.32.78.39,1.17.07.4.12.84.12,1.29,0,1.23-.38,2.22-1.15,2.94-.77.74-1.82,1.1-3.14,1.1s-2.39-.36-3.15-1.1c-.76-.74-1.15-1.74-1.15-3.03,0-.42.05-.82.14-1.21.09-.39.21-.78.38-1.16Z"/>
      <path d="M13.76,161.54c-.74.01-1.32.23-1.77.62-.43.4-.66.94-.66,1.6,0,.75.23,1.35.65,1.8s1.02.72,1.78.78v-4.8ZM14.15,160.19h.66v6.19c.93-.06,1.65-.33,2.13-.84.48-.5.72-1.18.72-2.09,0-.51-.06-1.02-.18-1.5-.12-.48-.31-.97-.58-1.46h1.27c.21.48.38.98.47,1.49.09.51.15,1.04.15,1.54,0,1.32-.38,2.36-1.12,3.12s-1.78,1.14-3.09,1.14-2.4-.36-3.19-1.08c-.78-.72-1.19-1.71-1.19-2.94,0-1.11.36-1.98,1.06-2.62.72-.63,1.68-.96,2.9-.96Z"/>
      <path d="M11.96,151.59c-.6-.33-1.04-.74-1.34-1.2-.28-.46-.44-1.02-.44-1.66,0-.84.3-1.5.9-1.97.6-.46,1.45-.71,2.55-.71h4.95v1.35h-4.91c-.78,0-1.36.15-1.75.42-.38.29-.57.71-.57,1.28,0,.7.24,1.26.71,1.66.46.4,1.09.6,1.89.6h4.64v1.35h-4.91c-.78,0-1.36.15-1.75.42-.38.29-.57.72-.57,1.29,0,.69.24,1.24.71,1.65.46.4,1.09.6,1.89.6h4.64v1.35h-8.2v-1.35h1.27c-.49-.3-.87-.68-1.11-1.11-.24-.42-.36-.93-.36-1.53s.15-1.1.45-1.51c.3-.42.75-.72,1.32-.93Z"/>
      <path d="M13.76,137.7c-.74.01-1.32.23-1.77.62-.43.4-.66.94-.66,1.6,0,.75.23,1.35.65,1.8s1.02.72,1.78.78v-4.8ZM14.15,136.35h.66v6.2c.93-.06,1.65-.33,2.13-.84.48-.5.72-1.18.72-2.09,0-.51-.06-1.02-.18-1.5-.12-.48-.31-.97-.58-1.46h1.27c.21.48.38.98.47,1.49.09.51.15,1.04.15,1.54,0,1.32-.38,2.36-1.12,3.12s-1.78,1.14-3.09,1.14-2.4-.36-3.19-1.08c-.78-.72-1.19-1.71-1.19-2.94,0-1.11.36-1.98,1.06-2.62.72-.63,1.68-.96,2.9-.96Z"/>
      <path d="M13.64,127.32h4.95v1.35h-4.91c-.78,0-1.35.17-1.74.46-.39.3-.59.75-.59,1.35,0,.74.24,1.3.71,1.73.46.42,1.09.63,1.89.63h4.64v1.35h-8.2v-1.35h1.27c-.48-.32-.85-.69-1.1-1.14-.24-.43-.38-.94-.38-1.51,0-.93.3-1.65.89-2.13s1.44-.74,2.56-.74Z"/>
      <path d="M8.06,123.3h2.33v-2.77h1.05v2.77h4.46c.68,0,1.11-.09,1.29-.27.19-.18.28-.55.28-1.12v-1.38h1.12v1.38c0,1.05-.19,1.77-.58,2.16-.39.39-1.1.59-2.12.59h-4.46v.99h-1.05v-.99h-2.33v-1.35Z"/>
      <path d="M10.63,113.52h1.27c-.18.39-.33.78-.43,1.18-.09.42-.15.84-.15,1.27,0,.67.1,1.18.31,1.51.21.33.51.5.91.5.32,0,.56-.12.73-.36.18-.24.36-.72.51-1.44l.11-.46c.21-.96.51-1.64.87-2.04.38-.39.9-.6,1.56-.6.76,0,1.36.3,1.8.9.45.6.66,1.44.66,2.49,0,.45-.05.9-.12,1.38-.08.48-.2.98-.38,1.5h-1.4c.27-.49.47-.99.58-1.47.14-.48.19-.96.19-1.44,0-.63-.1-1.12-.31-1.47-.21-.33-.53-.51-.93-.51-.36,0-.65.14-.84.38-.19.24-.39.78-.57,1.62l-.11.46c-.18.84-.45,1.45-.81,1.82-.36.38-.85.55-1.5.55-.76,0-1.36-.27-1.78-.81-.42-.54-.63-1.32-.63-2.34,0-.5.05-.96.12-1.41.08-.43.18-.84.32-1.21Z"/>
      <polygon points="62.73 60.15 60.5 62.39 62.73 64.62 62.15 65.21 59.91 62.97 57.67 65.21 57.09 64.62 59.32 62.39 57.09 60.15 57.67 59.56 59.91 61.8 62.15 59.56 62.73 60.15"/>
      <polygon points="65.33 64.69 66.94 64.69 66.94 59.13 65.19 59.48 65.19 58.58 66.93 58.23 67.92 58.23 67.92 64.69 69.53 64.69 69.53 65.52 65.33 65.52 65.33 64.69"/>
      <path d="M73.64,58.1c.81,0,1.43.33,1.87.97.43.65.65,1.59.65,2.81s-.22,2.17-.65,2.81c-.44.64-1.06.96-1.88.96s-1.44-.32-1.87-.96c-.43-.64-.64-1.58-.64-2.81s.21-2.16.64-2.81c.43-.64,1.06-.97,1.88-.97ZM73.64,58.88c-.51,0-.89.25-1.15.75s-.38,1.25-.38,2.25.12,1.75.38,2.25.64.75,1.15.75.89-.25,1.15-.75c.25-.5.38-1.25.38-2.25s-.13-1.75-.38-2.25c-.26-.5-.64-.75-1.15-.75Z"/>
      <path d="M79.76,58.94c.33.07.59.22.77.44s.28.5.28.83c0,.5-.17.9-.52,1.17-.35.27-.84.41-1.48.41-.22,0-.44-.02-.67-.06-.22-.04-.46-.1-.7-.18v-.67c.19.11.4.2.63.25.22.06.46.08.71.08.43,0,.76-.08.99-.25.22-.17.34-.42.34-.75,0-.29-.11-.53-.32-.7s-.5-.26-.88-.26h-.6v-.57h.62c.34,0,.6-.06.78-.2.18-.13.27-.33.27-.59s-.1-.46-.28-.6c-.19-.14-.46-.21-.8-.21-.19,0-.39.02-.61.06-.22.04-.46.1-.71.19v-.62c.26-.07.5-.13.74-.16.22-.04.44-.06.65-.06.52,0,.93.12,1.24.36.31.24.46.56.46.97,0,.28-.08.52-.25.71-.16.2-.39.34-.69.41Z"/>
      <g class="cls-51">
        <polyline class="cls-10" points="72.63 304.35 140.3 320.5 207.97 323.42 275.64 323.86 343.31 324.71 410.98 324.91"/>
        <g class="cls-18">
          <polygon class="cls-3" points="72.63 301.35 69.63 307.35 75.63 307.35 72.63 301.35"/>
        </g>
        <g class="cls-22">
          <polygon class="cls-3" points="140.3 317.5 137.3 323.5 143.3 323.5 140.3 317.5"/>
        </g>
        <g class="cls-48">
          <polygon class="cls-3" points="207.97 320.42 204.97 326.42 210.97 326.42 207.97 320.42"/>
        </g>
        <g class="cls-40">
          <polygon class="cls-3" points="275.64 320.86 272.64 326.86 278.64 326.86 275.64 320.86"/>
        </g>
        <g class="cls-15">
          <polygon class="cls-3" points="343.31 321.71 340.31 327.71 346.31 327.71 343.31 321.71"/>
        </g>
        <g class="cls-24">
          <polygon class="cls-3" points="410.98 321.91 407.98 327.91 413.98 327.91 410.98 321.91"/>
        </g>
      </g>
      <g class="cls-25">
        <polyline class="cls-5" points="72.63 334.1 140.3 244.89 207.97 201.41 275.64 169.89 343.31 148.16 410.98 138.35"/>
        <g class="cls-56">
          <polygon class="cls-3" points="72.63 331.1 69.63 337.1 75.63 337.1 72.63 331.1"/>
        </g>
        <g class="cls-31">
          <polygon class="cls-3" points="140.3 241.89 137.3 247.89 143.3 247.89 140.3 241.89"/>
        </g>
        <g class="cls-44">
          <polygon class="cls-3" points="207.97 198.41 204.97 204.41 210.97 204.41 207.97 198.41"/>
        </g>
        <g class="cls-32">
          <polygon class="cls-3" points="275.64 166.89 272.64 172.89 278.64 172.89 275.64 166.89"/>
        </g>
        <g class="cls-36">
          <polygon class="cls-3" points="343.31 145.16 340.31 151.16 346.31 151.16 343.31 145.16"/>
        </g>
        <g class="cls-53">
          <polygon class="cls-3" points="410.98 135.35 407.98 141.35 413.98 141.35 410.98 135.35"/>
        </g>
      </g>
      <g class="cls-47">
        <polyline class="cls-8" points="72.63 311.54 140.3 319.95 207.97 320.87 275.64 320.79 343.31 320.6 410.98 320.69"/>
        <g class="cls-19">
          <rect class="cls-4" x="69.63" y="308.54" width="6" height="6"/>
        </g>
        <g class="cls-49">
          <rect class="cls-4" x="137.3" y="316.95" width="6" height="6"/>
        </g>
        <g class="cls-21">
          <rect class="cls-4" x="204.97" y="317.87" width="6" height="6"/>
        </g>
        <g class="cls-13">
          <rect class="cls-4" x="272.64" y="317.79" width="6" height="6"/>
        </g>
        <g class="cls-35">
          <rect class="cls-4" x="340.31" y="317.6" width="6" height="6"/>
        </g>
        <g class="cls-34">
          <rect class="cls-4" x="407.98" y="317.69" width="6" height="6"/>
        </g>
      </g>
      <g class="cls-54">
        <polyline class="cls-11" points="72.63 334.1 140.3 241.51 207.97 186.09 275.64 142.47 343.31 108.89 410.98 82.1"/>
        <g class="cls-14">
          <rect class="cls-4" x="69.63" y="331.1" width="6" height="6"/>
        </g>
        <g class="cls-50">
          <rect class="cls-4" x="137.3" y="238.51" width="6" height="6"/>
        </g>
        <g class="cls-38">
          <rect class="cls-4" x="204.97" y="183.09" width="6" height="6"/>
        </g>
        <g class="cls-42">
          <rect class="cls-4" x="272.64" y="139.47" width="6" height="6"/>
        </g>
        <g class="cls-28">
          <rect class="cls-4" x="340.31" y="105.89" width="6" height="6"/>
        </g>
        <g class="cls-30">
          <rect class="cls-4" x="407.98" y="79.1" width="6" height="6"/>
        </g>
      </g>
      <line class="cls-7" x1="55.72" y1="346.7" x2="55.72" y2="69.5"/>
      <line class="cls-7" x1="427.9" y1="346.7" x2="427.9" y2="69.5"/>
      <line class="cls-7" x1="55.72" y1="346.7" x2="427.9" y2="346.7"/>
      <line class="cls-7" x1="55.72" y1="69.5" x2="427.9" y2="69.5"/>
      <g>
        <rect class="cls-12" x="59.34" y="7.2" width="364.94" height="45.29" rx="2.8" ry="2.8"/>
        <rect class="cls-1" x="59.34" y="7.2" width="364.94" height="45.29" rx="2.8" ry="2.8"/>
      </g>
      <polyline class="cls-10" points="64.94 18.54 78.94 18.54 92.94 18.54"/>
      <polygon class="cls-3" points="78.94 15.54 75.94 21.54 81.94 21.54 78.94 15.54"/>
      <polygon points="105.51 13.23 107.57 13.23 110.17 20.18 112.79 13.23 114.85 13.23 114.85 23.44 113.5 23.44 113.5 14.48 110.87 21.48 109.48 21.48 106.85 14.48 106.85 23.44 105.51 23.44 105.51 13.23"/>
      <polygon points="120.22 23.44 116.33 13.23 117.77 13.23 121.01 21.83 124.24 13.23 125.68 13.23 121.79 23.44 120.22 23.44"/>
      <rect x="127.17" y="13.23" width="1.39" height="10.21"/>
      <path d="M131.3,13.23h3.12c1.13,0,2,.27,2.59.78s.88,1.27.88,2.27-.29,1.78-.88,2.28c-.59.52-1.46.77-2.59.77h-1.74v4.1h-1.39v-10.21ZM132.68,14.37v3.84h1.74c.64,0,1.13-.15,1.48-.49.35-.34.53-.81.53-1.43s-.18-1.08-.53-1.41c-.35-.34-.84-.5-1.48-.5h-1.74Z"/>
      <path d="M147.16,12.81c-.62,1.06-1.06,2.1-1.36,3.12-.31,1.02-.45,2.06-.45,3.11s.14,2.1.45,3.12c.29,1.04.74,2.06,1.36,3.11h-1.09c-.69-1.08-1.2-2.11-1.54-3.15-.34-1.04-.5-2.06-.5-3.08s.17-2.03.5-3.07c.34-1.04.84-2.09,1.54-3.16h1.09Z"/>
      <path d="M153.47,12.8v1.05h-1.2c-.45,0-.77.1-.94.28-.18.18-.27.5-.27.98v.67h2.07v.98h-2.07v6.68h-1.26v-6.68h-1.2v-.98h1.2v-.53c0-.84.2-1.47.59-1.86s1.02-.59,1.89-.59h1.19Z"/>
      <path d="M154.52,12.8h1.26v1.6h-1.26v-1.6ZM154.52,15.78h1.26v7.66h-1.26v-7.66Z"/>
      <path d="M162.85,16.96c-.14-.08-.29-.14-.46-.18-.17-.03-.35-.06-.55-.06-.71,0-1.26.24-1.64.7-.39.46-.57,1.12-.57,1.99v4.03h-1.26v-7.66h1.26v1.19c.25-.46.6-.81,1.02-1.04s.94-.34,1.55-.34c.08,0,.18.01.29.01.1.01.21.03.35.06v1.29Z"/>
      <path d="M169.05,16.01v1.19c-.36-.17-.73-.31-1.11-.41-.39-.08-.78-.14-1.19-.14-.63,0-1.11.1-1.41.29-.31.2-.46.48-.46.85,0,.29.11.52.34.69s.67.34,1.34.48l.43.1c.9.2,1.53.48,1.9.81.36.35.56.84.56,1.46,0,.71-.28,1.27-.84,1.68-.56.42-1.34.62-2.32.62-.42,0-.84-.04-1.29-.11-.45-.07-.91-.18-1.4-.35v-1.3c.46.25.92.43,1.37.55.45.13.9.18,1.34.18.59,0,1.05-.1,1.37-.29.31-.2.48-.49.48-.87,0-.34-.13-.6-.35-.78-.22-.18-.73-.36-1.51-.53l-.43-.1c-.78-.17-1.36-.42-1.69-.76-.35-.34-.52-.8-.52-1.4,0-.71.25-1.27.76-1.67.5-.39,1.23-.59,2.18-.59.46,0,.9.04,1.32.11.41.07.78.17,1.13.29Z"/>
      <path d="M172.71,13.61v2.17h2.59v.98h-2.59v4.16c0,.63.08,1.04.25,1.2.17.18.52.27,1.05.27h1.29v1.05h-1.29c-.98,0-1.65-.18-2.02-.55-.36-.36-.55-1.02-.55-1.97v-4.16h-.92v-.98h.92v-2.17h1.26Z"/>
      <path d="M182.65,13.61v2.17h2.59v.98h-2.59v4.16c0,.63.08,1.04.25,1.2.17.18.52.27,1.05.27h1.29v1.05h-1.29c-.98,0-1.65-.18-2.02-.55-.36-.36-.55-1.02-.55-1.97v-4.16h-.92v-.98h.92v-2.17h1.26Z"/>
      <path d="M186.89,12.8h1.26v1.6h-1.26v-1.6ZM186.89,15.78h1.26v7.66h-1.26v-7.66Z"/>
      <path d="M196.07,18.93c-.01-.69-.21-1.23-.57-1.65-.38-.41-.88-.62-1.5-.62-.7,0-1.26.21-1.68.6s-.67.95-.73,1.67h4.48ZM197.33,19.3v.62h-5.78c.06.87.31,1.54.78,1.99.46.45,1.11.67,1.95.67.48,0,.95-.06,1.4-.17s.91-.29,1.36-.55v1.19c-.45.2-.91.35-1.39.43-.48.08-.97.14-1.44.14-1.23,0-2.2-.35-2.91-1.05-.71-.7-1.06-1.67-1.06-2.88s.34-2.24,1.01-2.98c.67-.73,1.6-1.11,2.74-1.11,1.04,0,1.85.34,2.45.99.59.67.9,1.57.9,2.7Z"/>
      <path d="M203.83,16.96c-.14-.08-.29-.14-.46-.18-.17-.03-.35-.06-.55-.06-.71,0-1.26.24-1.64.7-.39.46-.57,1.12-.57,1.99v4.03h-1.26v-7.66h1.26v1.19c.25-.46.6-.81,1.02-1.04s.94-.34,1.55-.34c.08,0,.18.01.29.01.1.01.21.03.35.06v1.29Z"/>
      <path d="M204.95,12.81h1.09c.67,1.08,1.19,2.13,1.53,3.16.34,1.04.52,2.06.52,3.07s-.18,2.04-.52,3.08c-.34,1.04-.85,2.07-1.53,3.15h-1.09c.6-1.05,1.05-2.07,1.36-3.11.29-1.02.45-2.06.45-3.12s-.15-2.09-.45-3.11c-.31-1.02-.76-2.06-1.36-3.12Z"/>
      <polyline class="cls-5" points="64.94 39.09 78.94 39.09 92.94 39.09"/>
      <polygon class="cls-3" points="78.94 36.09 75.94 42.09 81.94 42.09 78.94 36.09"/>
      <polygon points="105.51 33.78 107.57 33.78 110.17 40.73 112.79 33.78 114.85 33.78 114.85 43.99 113.5 43.99 113.5 35.03 110.87 42.03 109.48 42.03 106.85 35.03 106.85 43.99 105.51 43.99 105.51 33.78"/>
      <polygon points="120.22 43.99 116.33 33.78 117.77 33.78 121.01 42.38 124.24 33.78 125.68 33.78 121.79 43.99 120.22 43.99"/>
      <rect x="127.17" y="33.78" width="1.39" height="10.21"/>
      <path d="M131.3,33.78h3.12c1.13,0,2,.27,2.59.78s.88,1.27.88,2.27-.29,1.78-.88,2.28c-.59.52-1.46.77-2.59.77h-1.74v4.1h-1.39v-10.21ZM132.68,34.92v3.84h1.74c.64,0,1.13-.15,1.48-.49.35-.34.53-.81.53-1.43s-.18-1.08-.53-1.41c-.35-.34-.84-.5-1.48-.5h-1.74Z"/>
      <path d="M147.16,33.36c-.62,1.06-1.06,2.1-1.36,3.12-.31,1.02-.45,2.06-.45,3.11s.14,2.1.45,3.12c.29,1.04.74,2.06,1.36,3.11h-1.09c-.69-1.08-1.2-2.11-1.54-3.15-.34-1.04-.5-2.06-.5-3.08s.17-2.03.5-3.07c.34-1.04.84-2.09,1.54-3.16h1.09Z"/>
      <path d="M154.48,36.55v1.19c-.36-.17-.73-.31-1.11-.41-.39-.08-.78-.14-1.19-.14-.63,0-1.11.1-1.41.29-.31.2-.46.48-.46.85,0,.29.11.52.34.69s.67.34,1.34.48l.43.1c.9.2,1.53.48,1.9.81.36.35.56.84.56,1.46,0,.71-.28,1.27-.84,1.68-.56.42-1.34.62-2.32.62-.42,0-.84-.04-1.29-.11-.45-.07-.91-.18-1.4-.35v-1.3c.46.25.92.43,1.37.55.45.13.9.18,1.34.18.59,0,1.05-.1,1.37-.29.31-.2.48-.49.48-.87,0-.34-.13-.6-.35-.78-.22-.18-.73-.36-1.51-.53l-.43-.1c-.78-.17-1.36-.42-1.69-.76-.35-.34-.52-.8-.52-1.4,0-.71.25-1.27.76-1.67.5-.39,1.23-.59,2.18-.59.46,0,.9.04,1.32.11.41.07.78.17,1.13.29Z"/>
      <path d="M162.18,39.48c-.01-.69-.21-1.23-.57-1.65-.38-.41-.88-.62-1.5-.62-.7,0-1.26.21-1.68.6s-.67.95-.73,1.67h4.48ZM163.44,39.84v.62h-5.78c.06.87.31,1.54.78,1.99.46.45,1.11.67,1.95.67.48,0,.95-.06,1.4-.17s.91-.29,1.36-.55v1.19c-.45.2-.91.35-1.39.43-.48.08-.97.14-1.44.14-1.23,0-2.2-.35-2.91-1.05-.71-.7-1.06-1.67-1.06-2.88s.34-2.24,1.01-2.98c.67-.73,1.6-1.11,2.74-1.11,1.04,0,1.85.34,2.45.99.59.67.9,1.57.9,2.7Z"/>
      <path d="M171.01,36.62v1.18c-.36-.2-.71-.34-1.08-.43-.36-.1-.71-.15-1.08-.15-.81,0-1.46.27-1.9.78s-.67,1.25-.67,2.17.22,1.67.67,2.18,1.09.77,1.9.77c.36,0,.71-.04,1.08-.14s.71-.25,1.08-.45v1.16c-.36.17-.73.29-1.09.36-.38.07-.78.11-1.2.11-1.15,0-2.07-.35-2.74-1.08-.69-.71-1.02-1.69-1.02-2.93s.34-2.23,1.02-2.94c.69-.71,1.62-1.08,2.83-1.08.39,0,.77.04,1.13.13.36.08.73.2,1.08.35Z"/>
      <path d="M176.17,36.15c1.09,0,1.95.36,2.58,1.06.62.71.94,1.69.94,2.95s-.32,2.24-.94,2.94c-.63.71-1.48,1.06-2.58,1.06s-1.97-.35-2.59-1.06c-.62-.7-.92-1.68-.92-2.94s.31-2.24.92-2.95c.62-.7,1.48-1.06,2.59-1.06ZM176.17,37.21c-.67,0-1.2.27-1.6.8-.39.53-.59,1.25-.59,2.16s.18,1.64.57,2.17c.39.53.92.78,1.61.78s1.2-.25,1.6-.78c.39-.53.59-1.25.59-2.17s-.2-1.62-.59-2.16c-.39-.53-.92-.8-1.6-.8Z"/>
      <path d="M188.14,39.37v4.62h-1.26v-4.58c0-.73-.15-1.26-.43-1.62-.28-.36-.7-.55-1.26-.55-.69,0-1.22.22-1.61.66-.39.43-.59,1.02-.59,1.76v4.33h-1.26v-7.66h1.26v1.19c.29-.45.64-.8,1.06-1.02.41-.22.88-.35,1.41-.35.87,0,1.54.28,1.99.83.45.55.69,1.34.69,2.39Z"/>
      <path d="M191.4,40.17c0,.92.18,1.65.56,2.18.38.53.9.78,1.57.78s1.19-.25,1.58-.78c.38-.53.57-1.26.57-2.18s-.2-1.64-.57-2.17c-.39-.53-.91-.8-1.58-.8s-1.19.27-1.57.8c-.38.53-.56,1.25-.56,2.17ZM195.68,37.49v-4.14h1.26v10.64h-1.26v-1.15c-.27.46-.6.8-1.01,1.01-.41.21-.88.32-1.44.32-.92,0-1.68-.36-2.27-1.09s-.87-1.71-.87-2.91.28-2.17.87-2.91c.59-.73,1.34-1.11,2.27-1.11.56,0,1.04.11,1.44.34.41.22.74.56,1.01,1.01Z"/>
      <path d="M205.23,34.16v2.17h2.59v.98h-2.59v4.16c0,.63.08,1.04.25,1.2.17.18.52.27,1.05.27h1.29v1.05h-1.29c-.98,0-1.65-.18-2.02-.55-.36-.36-.55-1.02-.55-1.97v-4.16h-.92v-.98h.92v-2.17h1.26Z"/>
      <path d="M209.47,33.35h1.26v1.6h-1.26v-1.6ZM209.47,36.33h1.26v7.66h-1.26v-7.66Z"/>
      <path d="M218.66,39.48c-.01-.69-.21-1.23-.57-1.65-.38-.41-.88-.62-1.5-.62-.7,0-1.26.21-1.68.6s-.67.95-.73,1.67h4.48ZM219.92,39.84v.62h-5.78c.06.87.31,1.54.78,1.99.46.45,1.11.67,1.95.67.48,0,.95-.06,1.4-.17s.91-.29,1.36-.55v1.19c-.45.2-.91.35-1.39.43-.48.08-.97.14-1.44.14-1.23,0-2.2-.35-2.91-1.05-.71-.7-1.06-1.67-1.06-2.88s.34-2.24,1.01-2.98c.67-.73,1.6-1.11,2.74-1.11,1.04,0,1.85.34,2.45.99.59.67.9,1.57.9,2.7Z"/>
      <path d="M226.41,37.51c-.14-.08-.29-.14-.46-.18-.17-.03-.35-.06-.55-.06-.71,0-1.26.24-1.64.7-.39.46-.57,1.12-.57,1.99v4.03h-1.26v-7.66h1.26v1.19c.25-.46.6-.81,1.02-1.04s.94-.34,1.55-.34c.08,0,.18.01.29.01.1.01.21.03.35.06v1.29Z"/>
      <path d="M227.53,33.36h1.09c.67,1.08,1.19,2.13,1.53,3.16.34,1.04.52,2.06.52,3.07s-.18,2.04-.52,3.08c-.34,1.04-.85,2.07-1.53,3.15h-1.09c.6-1.05,1.05-2.07,1.36-3.11.29-1.02.45-2.06.45-3.12s-.15-2.09-.45-3.11c-.31-1.02-.76-2.06-1.36-3.12Z"/>
      <polyline class="cls-8" points="259.87 18.54 273.87 18.54 287.87 18.54"/>
      <rect class="cls-4" x="270.87" y="15.54" width="6" height="6"/>
      <polygon points="300.44 13.23 301.83 13.23 301.83 22.28 306.8 22.28 306.8 23.44 300.44 23.44 300.44 13.23"/>
      <polygon points="308.24 13.23 314.11 13.23 314.11 14.4 309.63 14.4 309.63 17.41 313.67 17.41 313.67 18.57 309.63 18.57 309.63 23.44 308.24 23.44 308.24 13.23"/>
      <path d="M316.14,13.23h1.39v6.2c0,1.09.2,1.89.59,2.37.39.48,1.04.71,1.93.71s1.53-.24,1.92-.71.6-1.27.6-2.37v-6.2h1.39v6.37c0,1.34-.34,2.34-.99,3.01-.66.67-1.62,1.01-2.91,1.01s-2.27-.34-2.93-1.01-.98-1.67-.98-3.01v-6.37Z"/>
      <path d="M333.96,12.81c-.62,1.06-1.06,2.1-1.36,3.12-.31,1.02-.45,2.06-.45,3.11s.14,2.1.45,3.12c.29,1.04.74,2.06,1.36,3.11h-1.09c-.69-1.08-1.2-2.11-1.54-3.15-.34-1.04-.5-2.06-.5-3.08s.17-2.03.5-3.07c.34-1.04.84-2.09,1.54-3.16h1.09Z"/>
      <path d="M340.27,12.8v1.05h-1.2c-.45,0-.77.1-.94.28-.18.18-.27.5-.27.98v.67h2.07v.98h-2.07v6.68h-1.26v-6.68h-1.2v-.98h1.2v-.53c0-.84.2-1.47.59-1.86.39-.39,1.02-.59,1.89-.59h1.19Z"/>
      <path d="M341.32,12.8h1.26v1.6h-1.26v-1.6ZM341.32,15.78h1.26v7.66h-1.26v-7.66Z"/>
      <path d="M349.65,16.96c-.14-.08-.29-.14-.46-.18-.17-.03-.35-.06-.55-.06-.71,0-1.26.24-1.64.7-.39.46-.57,1.12-.57,1.99v4.03h-1.26v-7.66h1.26v1.19c.25-.46.6-.81,1.02-1.04s.94-.34,1.55-.34c.08,0,.18.01.29.01.1.01.21.03.35.06v1.29Z"/>
      <path d="M355.86,16.01v1.19c-.36-.17-.73-.31-1.11-.41-.39-.08-.78-.14-1.19-.14-.63,0-1.11.1-1.41.29-.31.2-.46.48-.46.85,0,.29.11.52.34.69s.67.34,1.34.48l.43.1c.9.2,1.53.48,1.9.81.36.35.56.84.56,1.46,0,.71-.28,1.27-.84,1.68-.56.42-1.34.62-2.32.62-.42,0-.84-.04-1.29-.11s-.91-.18-1.4-.35v-1.3c.46.25.92.43,1.37.55.45.13.9.18,1.34.18.59,0,1.05-.1,1.37-.29.31-.2.48-.49.48-.87,0-.34-.13-.6-.35-.78-.22-.18-.73-.36-1.51-.53l-.43-.1c-.78-.17-1.36-.42-1.69-.76-.35-.34-.52-.8-.52-1.4,0-.71.25-1.27.76-1.67.5-.39,1.23-.59,2.18-.59.46,0,.9.04,1.32.11.41.07.78.17,1.13.29Z"/>
      <path d="M359.51,13.61v2.17h2.59v.98h-2.59v4.16c0,.63.08,1.04.25,1.2.17.18.52.27,1.05.27h1.29v1.05h-1.29c-.98,0-1.65-.18-2.02-.55-.36-.36-.55-1.02-.55-1.97v-4.16h-.92v-.98h.92v-2.17h1.26Z"/>
      <path d="M369.45,13.61v2.17h2.59v.98h-2.59v4.16c0,.63.08,1.04.25,1.2.17.18.52.27,1.05.27h1.29v1.05h-1.29c-.98,0-1.65-.18-2.02-.55-.36-.36-.55-1.02-.55-1.97v-4.16h-.92v-.98h.92v-2.17h1.26Z"/>
      <path d="M373.69,12.8h1.26v1.6h-1.26v-1.6ZM373.69,15.78h1.26v7.66h-1.26v-7.66Z"/>
      <path d="M382.87,18.93c-.01-.69-.21-1.23-.57-1.65-.38-.41-.88-.62-1.5-.62-.7,0-1.26.21-1.68.6-.42.39-.67.95-.73,1.67h4.48ZM384.13,19.3v.62h-5.78c.06.87.31,1.54.78,1.99.46.45,1.11.67,1.95.67.48,0,.95-.06,1.4-.17s.91-.29,1.36-.55v1.19c-.45.2-.91.35-1.39.43-.48.08-.97.14-1.44.14-1.23,0-2.2-.35-2.91-1.05-.71-.7-1.06-1.67-1.06-2.88s.34-2.24,1.01-2.98c.67-.73,1.6-1.11,2.74-1.11,1.04,0,1.85.34,2.45.99.59.67.9,1.57.9,2.7Z"/>
      <path d="M390.63,16.96c-.14-.08-.29-.14-.46-.18-.17-.03-.35-.06-.55-.06-.71,0-1.26.24-1.64.7-.39.46-.57,1.12-.57,1.99v4.03h-1.26v-7.66h1.26v1.19c.25-.46.6-.81,1.02-1.04s.94-.34,1.55-.34c.08,0,.18.01.29.01.1.01.21.03.35.06v1.29Z"/>
      <path d="M391.75,12.81h1.09c.67,1.08,1.19,2.13,1.53,3.16.34,1.04.52,2.06.52,3.07s-.18,2.04-.52,3.08c-.34,1.04-.85,2.07-1.53,3.15h-1.09c.6-1.05,1.05-2.07,1.36-3.11.29-1.02.45-2.06.45-3.12s-.15-2.09-.45-3.11c-.31-1.02-.76-2.06-1.36-3.12Z"/>
      <polyline class="cls-11" points="259.87 39.09 273.87 39.09 287.87 39.09"/>
      <rect class="cls-4" x="270.87" y="36.09" width="6" height="6"/>
      <polygon points="300.44 33.78 301.83 33.78 301.83 42.83 306.8 42.83 306.8 43.99 300.44 43.99 300.44 33.78"/>
      <polygon points="308.24 33.78 314.11 33.78 314.11 34.94 309.63 34.94 309.63 37.95 313.67 37.95 313.67 39.12 309.63 39.12 309.63 43.99 308.24 43.99 308.24 33.78"/>
      <path d="M316.14,33.78h1.39v6.2c0,1.09.2,1.89.59,2.37.39.48,1.04.71,1.93.71s1.53-.24,1.92-.71.6-1.27.6-2.37v-6.2h1.39v6.37c0,1.34-.34,2.34-.99,3.01-.66.67-1.62,1.01-2.91,1.01s-2.27-.34-2.93-1.01-.98-1.67-.98-3.01v-6.37Z"/>
      <path d="M333.96,33.36c-.62,1.06-1.06,2.1-1.36,3.12-.31,1.02-.45,2.06-.45,3.11s.14,2.1.45,3.12c.29,1.04.74,2.06,1.36,3.11h-1.09c-.69-1.08-1.2-2.11-1.54-3.15-.34-1.04-.5-2.06-.5-3.08s.17-2.03.5-3.07c.34-1.04.84-2.09,1.54-3.16h1.09Z"/>
      <path d="M341.28,36.55v1.19c-.36-.17-.73-.31-1.11-.41-.39-.08-.78-.14-1.19-.14-.63,0-1.11.1-1.41.29-.31.2-.46.48-.46.85,0,.29.11.52.34.69s.67.34,1.34.48l.43.1c.9.2,1.53.48,1.9.81.36.35.56.84.56,1.46,0,.71-.28,1.27-.84,1.68-.56.42-1.34.62-2.32.62-.42,0-.84-.04-1.29-.11s-.91-.18-1.4-.35v-1.3c.46.25.92.43,1.37.55.45.13.9.18,1.34.18.59,0,1.05-.1,1.37-.29.31-.2.48-.49.48-.87,0-.34-.13-.6-.35-.78-.22-.18-.73-.36-1.51-.53l-.43-.1c-.78-.17-1.36-.42-1.69-.76-.35-.34-.52-.8-.52-1.4,0-.71.25-1.27.76-1.67.5-.39,1.23-.59,2.18-.59.46,0,.9.04,1.32.11.41.07.78.17,1.13.29Z"/>
      <path d="M348.98,39.48c-.01-.69-.21-1.23-.57-1.65-.38-.41-.88-.62-1.5-.62-.7,0-1.26.21-1.68.6-.42.39-.67.95-.73,1.67h4.48ZM350.24,39.84v.62h-5.78c.06.87.31,1.54.78,1.99.46.45,1.11.67,1.95.67.48,0,.95-.06,1.4-.17s.91-.29,1.36-.55v1.19c-.45.2-.91.35-1.39.43-.48.08-.97.14-1.44.14-1.23,0-2.2-.35-2.91-1.05-.71-.7-1.06-1.67-1.06-2.88s.34-2.24,1.01-2.98c.67-.73,1.6-1.11,2.74-1.11,1.04,0,1.85.34,2.45.99.59.67.9,1.57.9,2.7Z"/>
      <path d="M357.82,36.62v1.18c-.36-.2-.71-.34-1.08-.43-.36-.1-.71-.15-1.08-.15-.81,0-1.46.27-1.9.78s-.67,1.25-.67,2.17.22,1.67.67,2.18,1.09.77,1.9.77c.36,0,.71-.04,1.08-.14.36-.1.71-.25,1.08-.45v1.16c-.36.17-.73.29-1.09.36-.38.07-.78.11-1.2.11-1.15,0-2.07-.35-2.74-1.08-.69-.71-1.02-1.69-1.02-2.93s.34-2.23,1.02-2.94c.69-.71,1.62-1.08,2.83-1.08.39,0,.77.04,1.13.13.36.08.73.2,1.08.35Z"/>
      <path d="M362.97,36.15c1.09,0,1.95.36,2.58,1.06.62.71.94,1.69.94,2.95s-.32,2.24-.94,2.94c-.63.71-1.48,1.06-2.58,1.06s-1.97-.35-2.59-1.06c-.62-.7-.92-1.68-.92-2.94s.31-2.24.92-2.95c.62-.7,1.48-1.06,2.59-1.06ZM362.97,37.21c-.67,0-1.2.27-1.6.8-.39.53-.59,1.25-.59,2.16s.18,1.64.57,2.17c.39.53.92.78,1.61.78s1.2-.25,1.6-.78c.39-.53.59-1.25.59-2.17s-.2-1.62-.59-2.16c-.39-.53-.92-.8-1.6-.8Z"/>
      <path d="M374.94,39.37v4.62h-1.26v-4.58c0-.73-.15-1.26-.43-1.62-.28-.36-.7-.55-1.26-.55-.69,0-1.22.22-1.61.66s-.59,1.02-.59,1.76v4.33h-1.26v-7.66h1.26v1.19c.29-.45.64-.8,1.06-1.02.41-.22.88-.35,1.41-.35.87,0,1.54.28,1.99.83.45.55.69,1.34.69,2.39Z"/>
      <path d="M378.2,40.17c0,.92.18,1.65.56,2.18.38.53.9.78,1.57.78s1.19-.25,1.58-.78c.38-.53.57-1.26.57-2.18s-.2-1.64-.57-2.17c-.39-.53-.91-.8-1.58-.8s-1.19.27-1.57.8c-.38.53-.56,1.25-.56,2.17ZM382.48,37.49v-4.14h1.26v10.64h-1.26v-1.15c-.27.46-.6.8-1.01,1.01-.41.21-.88.32-1.44.32-.92,0-1.68-.36-2.27-1.09s-.87-1.71-.87-2.91.28-2.17.87-2.91c.59-.73,1.34-1.11,2.27-1.11.56,0,1.04.11,1.44.34s.74.56,1.01,1.01Z"/>
      <path d="M392.03,34.16v2.17h2.59v.98h-2.59v4.16c0,.63.08,1.04.25,1.2.17.18.52.27,1.05.27h1.29v1.05h-1.29c-.98,0-1.65-.18-2.02-.55-.36-.36-.55-1.02-.55-1.97v-4.16h-.92v-.98h.92v-2.17h1.26Z"/>
      <path d="M396.27,33.35h1.26v1.6h-1.26v-1.6ZM396.27,36.33h1.26v7.66h-1.26v-7.66Z"/>
      <path d="M405.46,39.48c-.01-.69-.21-1.23-.57-1.65-.38-.41-.88-.62-1.5-.62-.7,0-1.26.21-1.68.6-.42.39-.67.95-.73,1.67h4.48ZM406.72,39.84v.62h-5.78c.06.87.31,1.54.78,1.99.46.45,1.11.67,1.95.67.48,0,.95-.06,1.4-.17s.91-.29,1.36-.55v1.19c-.45.2-.91.35-1.39.43-.48.08-.97.14-1.44.14-1.23,0-2.2-.35-2.91-1.05-.71-.7-1.06-1.67-1.06-2.88s.34-2.24,1.01-2.98c.67-.73,1.6-1.11,2.74-1.11,1.04,0,1.85.34,2.45.99.59.67.9,1.57.9,2.7Z"/>
      <path d="M413.21,37.51c-.14-.08-.29-.14-.46-.18-.17-.03-.35-.06-.55-.06-.71,0-1.26.24-1.64.7-.39.46-.57,1.12-.57,1.99v4.03h-1.26v-7.66h1.26v1.19c.25-.46.6-.81,1.02-1.04s.94-.34,1.55-.34c.08,0,.18.01.29.01.1.01.21.03.35.06v1.29Z"/>
      <path d="M414.33,33.36h1.09c.67,1.08,1.19,2.13,1.53,3.16.34,1.04.52,2.06.52,3.07s-.18,2.04-.52,3.08c-.34,1.04-.85,2.07-1.53,3.15h-1.09c.6-1.05,1.05-2.07,1.36-3.11.29-1.02.45-2.06.45-3.12s-.15-2.09-.45-3.11c-.31-1.02-.76-2.06-1.36-3.12Z"/>
    </g>
  </g>
</svg>