<?xml version="1.0" encoding="UTF-8"?>
<svg id="Layer_1" data-name="Layer 1" xmlns="http://www.w3.org/2000/svg" version="1.1" xmlns:xlink="http://www.w3.org/1999/xlink" viewBox="0 0 428.1 340.19">
  <defs>
    <style>
      .cls-1 {
        clip-path: url(#clippath-45);
      }

      .cls-2 {
        clip-path: url(#clippath-20);
      }

      .cls-3 {
        clip-path: url(#clippath-11);
      }

      .cls-4 {
        clip-path: url(#clippath-16);
      }

      .cls-5, .cls-6, .cls-7, .cls-8, .cls-9, .cls-10, .cls-11, .cls-12, .cls-13, .cls-14, .cls-15, .cls-16, .cls-17, .cls-18, .cls-19 {
        fill: none;
      }

      .cls-5, .cls-13, .cls-15 {
        stroke-miterlimit: 10;
      }

      .cls-5, .cls-16, .cls-18 {
        stroke: #bf00bf;
      }

      .cls-20 {
        clip-path: url(#clippath-33);
      }

      .cls-21 {
        fill: #000;
      }

      .cls-21, .cls-9, .cls-22, .cls-23 {
        stroke-width: 0px;
      }

      .cls-24 {
        clip-path: url(#clippath-47);
      }

      .cls-6, .cls-7, .cls-8, .cls-10, .cls-11, .cls-12, .cls-14, .cls-16, .cls-17, .cls-18, .cls-19 {
        stroke-linejoin: round;
      }

      .cls-6, .cls-7, .cls-14 {
        stroke: #bfbf00;
      }

      .cls-25 {
        clip-path: url(#clippath-41);
      }

      .cls-26 {
        clip-path: url(#clippath-32);
      }

      .cls-7, .cls-10, .cls-12, .cls-14, .cls-16, .cls-18 {
        stroke-width: 1.5px;
      }

      .cls-7, .cls-12, .cls-18 {
        stroke-dasharray: 0 0 5.55 2.4;
      }

      .cls-27 {
        clip-path: url(#clippath-2);
      }

      .cls-28 {
        clip-path: url(#clippath-13);
      }

      .cls-29 {
        clip-path: url(#clippath-37);
      }

      .cls-30 {
        clip-path: url(#clippath-46);
      }

      .cls-31 {
        clip-path: url(#clippath-25);
      }

      .cls-32 {
        clip-path: url(#clippath-15);
      }

      .cls-33 {
        clip-path: url(#clippath-6);
      }

      .cls-34 {
        clip-path: url(#clippath-40);
      }

      .cls-35 {
        clip-path: url(#clippath-26);
      }

      .cls-8 {
        stroke-dasharray: 0 0 2 3.3;
        stroke-width: 2px;
      }

      .cls-8, .cls-15, .cls-19 {
        stroke: #000;
      }

      .cls-36 {
        clip-path: url(#clippath-7);
      }

      .cls-37 {
        clip-path: url(#clippath-21);
      }

      .cls-38 {
        clip-path: url(#clippath-34);
      }

      .cls-39 {
        clip-path: url(#clippath-1);
      }

      .cls-40 {
        clip-path: url(#clippath-4);
      }

      .cls-41 {
        clip-path: url(#clippath-38);
      }

      .cls-10, .cls-11, .cls-12 {
        stroke: green;
      }

      .cls-10, .cls-14, .cls-15, .cls-16 {
        stroke-linecap: square;
      }

      .cls-42 {
        clip-path: url(#clippath-36);
      }

      .cls-43 {
        clip-path: url(#clippath-27);
      }

      .cls-22, .cls-13 {
        opacity: .8;
      }

      .cls-22, .cls-23 {
        fill: #fff;
      }

      .cls-44 {
        clip-path: url(#clippath-44);
      }

      .cls-45 {
        clip-path: url(#clippath-12);
      }

      .cls-13 {
        stroke: #ccc;
      }

      .cls-46 {
        clip-path: url(#clippath-24);
      }

      .cls-47 {
        clip-path: url(#clippath-30);
      }

      .cls-48 {
        clip-path: url(#clippath-22);
      }

      .cls-49 {
        clip-path: url(#clippath-9);
      }

      .cls-50 {
        clip-path: url(#clippath-52);
      }

      .cls-51 {
        clip-path: url(#clippath);
      }

      .cls-52 {
        clip-path: url(#clippath-50);
      }

      .cls-53 {
        clip-path: url(#clippath-48);
      }

      .cls-54 {
        clip-path: url(#clippath-39);
      }

      .cls-55 {
        clip-path: url(#clippath-19);
      }

      .cls-56 {
        clip-path: url(#clippath-31);
      }

      .cls-57 {
        clip-path: url(#clippath-54);
      }

      .cls-58 {
        clip-path: url(#clippath-3);
      }

      .cls-15, .cls-17, .cls-19 {
        stroke-width: .8px;
      }

      .cls-59 {
        clip-path: url(#clippath-43);
      }

      .cls-60 {
        clip-path: url(#clippath-8);
      }

      .cls-61 {
        clip-path: url(#clippath-29);
      }

      .cls-62 {
        clip-path: url(#clippath-18);
      }

      .cls-63 {
        clip-path: url(#clippath-14);
      }

      .cls-64 {
        clip-path: url(#clippath-17);
      }

      .cls-65 {
        clip-path: url(#clippath-5);
      }

      .cls-17 {
        opacity: .5;
        stroke: #b0b0b0;
        stroke-dasharray: 0 0 2.96 1.28;
      }

      .cls-66 {
        clip-path: url(#clippath-42);
      }

      .cls-67 {
        clip-path: url(#clippath-10);
      }

      .cls-68 {
        clip-path: url(#clippath-23);
      }

      .cls-69 {
        clip-path: url(#clippath-53);
      }

      .cls-70 {
        clip-path: url(#clippath-49);
      }

      .cls-71 {
        clip-path: url(#clippath-51);
      }

      .cls-72 {
        clip-path: url(#clippath-28);
      }

      .cls-73 {
        clip-path: url(#clippath-35);
      }
    </style>
    <clipPath id="clippath">
      <rect class="cls-9" x="48.72" y="19.12" width="372.19" height="277.2"/>
    </clipPath>
    <clipPath id="clippath-1">
      <rect class="cls-9" x="48.72" y="19.12" width="372.19" height="277.2"/>
    </clipPath>
    <clipPath id="clippath-2">
      <rect class="cls-9" x="48.72" y="19.12" width="372.19" height="277.2"/>
    </clipPath>
    <clipPath id="clippath-3">
      <rect class="cls-9" x="48.72" y="19.12" width="372.19" height="277.2"/>
    </clipPath>
    <clipPath id="clippath-4">
      <rect class="cls-9" x="48.72" y="19.12" width="372.19" height="277.2"/>
    </clipPath>
    <clipPath id="clippath-5">
      <rect class="cls-9" x="48.72" y="19.12" width="372.19" height="277.2"/>
    </clipPath>
    <clipPath id="clippath-6">
      <rect class="cls-9" x="297.37" y="309.89" width="42.22" height="25.44"/>
    </clipPath>
    <clipPath id="clippath-7">
      <rect class="cls-9" x="48.72" y="19.12" width="372.19" height="277.2"/>
    </clipPath>
    <clipPath id="clippath-8">
      <rect class="cls-9" x="48.72" y="19.12" width="372.19" height="277.2"/>
    </clipPath>
    <clipPath id="clippath-9">
      <rect class="cls-9" x="48.72" y="19.12" width="372.19" height="277.2"/>
    </clipPath>
    <clipPath id="clippath-10">
      <rect class="cls-9" x="48.72" y="19.12" width="372.19" height="277.2"/>
    </clipPath>
    <clipPath id="clippath-11">
      <rect class="cls-9" x="48.72" y="19.12" width="372.19" height="277.2"/>
    </clipPath>
    <clipPath id="clippath-12">
      <rect class="cls-9" x="48.72" y="19.12" width="372.19" height="277.2"/>
    </clipPath>
    <clipPath id="clippath-13">
      <rect class="cls-9" x="57.63" y="264.51" width="16" height="16"/>
    </clipPath>
    <clipPath id="clippath-14">
      <rect class="cls-9" x="125.3" y="223.15" width="16" height="16"/>
    </clipPath>
    <clipPath id="clippath-15">
      <rect class="cls-9" x="192.97" y="162.64" width="16" height="16"/>
    </clipPath>
    <clipPath id="clippath-16">
      <rect class="cls-9" x="260.64" y="119" width="16" height="16"/>
    </clipPath>
    <clipPath id="clippath-17">
      <rect class="cls-9" x="328.31" y="67.78" width="16" height="16"/>
    </clipPath>
    <clipPath id="clippath-18">
      <rect class="cls-9" x="395.98" y="23.72" width="16" height="16"/>
    </clipPath>
    <clipPath id="clippath-19">
      <rect class="cls-9" x="48.72" y="19.12" width="372.19" height="277.2"/>
    </clipPath>
    <clipPath id="clippath-20">
      <rect class="cls-9" x="58.09" y="251.24" width="15.09" height="18.49"/>
    </clipPath>
    <clipPath id="clippath-21">
      <rect class="cls-9" x="125.76" y="215.32" width="15.09" height="18.49"/>
    </clipPath>
    <clipPath id="clippath-22">
      <rect class="cls-9" x="193.43" y="196.02" width="15.09" height="18.49"/>
    </clipPath>
    <clipPath id="clippath-23">
      <rect class="cls-9" x="261.1" y="185.46" width="15.09" height="18.49"/>
    </clipPath>
    <clipPath id="clippath-24">
      <rect class="cls-9" x="328.77" y="176.25" width="15.09" height="18.49"/>
    </clipPath>
    <clipPath id="clippath-25">
      <rect class="cls-9" x="396.44" y="163.5" width="15.09" height="18.49"/>
    </clipPath>
    <clipPath id="clippath-26">
      <rect class="cls-9" x="48.72" y="19.12" width="372.19" height="277.2"/>
    </clipPath>
    <clipPath id="clippath-27">
      <rect class="cls-9" x="57.63" y="253.29" width="16" height="16"/>
    </clipPath>
    <clipPath id="clippath-28">
      <rect class="cls-9" x="125.3" y="235.95" width="16" height="16"/>
    </clipPath>
    <clipPath id="clippath-29">
      <rect class="cls-9" x="192.97" y="223.09" width="16" height="16"/>
    </clipPath>
    <clipPath id="clippath-30">
      <rect class="cls-9" x="260.64" y="213.07" width="16" height="16"/>
    </clipPath>
    <clipPath id="clippath-31">
      <rect class="cls-9" x="328.31" y="208.2" width="16" height="16"/>
    </clipPath>
    <clipPath id="clippath-32">
      <rect class="cls-9" x="395.98" y="199.7" width="16" height="16"/>
    </clipPath>
    <clipPath id="clippath-33">
      <rect class="cls-9" x="48.72" y="19.12" width="372.19" height="277.2"/>
    </clipPath>
    <clipPath id="clippath-34">
      <rect class="cls-9" x="48.72" y="19.12" width="372.19" height="277.2"/>
    </clipPath>
    <clipPath id="clippath-35">
      <rect class="cls-9" x="57.63" y="264.51" width="16" height="16"/>
    </clipPath>
    <clipPath id="clippath-36">
      <rect class="cls-9" x="125.3" y="267.49" width="16" height="16"/>
    </clipPath>
    <clipPath id="clippath-37">
      <rect class="cls-9" x="192.97" y="268.47" width="16" height="16"/>
    </clipPath>
    <clipPath id="clippath-38">
      <rect class="cls-9" x="260.64" y="271.4" width="16" height="16"/>
    </clipPath>
    <clipPath id="clippath-39">
      <rect class="cls-9" x="328.31" y="273.01" width="16" height="16"/>
    </clipPath>
    <clipPath id="clippath-40">
      <rect class="cls-9" x="395.98" y="275.72" width="16" height="16"/>
    </clipPath>
    <clipPath id="clippath-41">
      <rect class="cls-9" x="48.72" y="19.12" width="372.19" height="277.2"/>
    </clipPath>
    <clipPath id="clippath-42">
      <rect class="cls-9" x="58.09" y="251.24" width="15.09" height="18.49"/>
    </clipPath>
    <clipPath id="clippath-43">
      <rect class="cls-9" x="125.76" y="252.96" width="15.09" height="18.49"/>
    </clipPath>
    <clipPath id="clippath-44">
      <rect class="cls-9" x="193.43" y="254.78" width="15.09" height="18.49"/>
    </clipPath>
    <clipPath id="clippath-45">
      <rect class="cls-9" x="261.1" y="255" width="15.09" height="18.49"/>
    </clipPath>
    <clipPath id="clippath-46">
      <rect class="cls-9" x="328.77" y="256.98" width="15.09" height="18.49"/>
    </clipPath>
    <clipPath id="clippath-47">
      <rect class="cls-9" x="396.44" y="257.05" width="15.09" height="18.49"/>
    </clipPath>
    <clipPath id="clippath-48">
      <rect class="cls-9" x="48.72" y="19.12" width="372.19" height="277.2"/>
    </clipPath>
    <clipPath id="clippath-49">
      <rect class="cls-9" x="57.63" y="253.6" width="16" height="16"/>
    </clipPath>
    <clipPath id="clippath-50">
      <rect class="cls-9" x="125.3" y="254.24" width="16" height="16"/>
    </clipPath>
    <clipPath id="clippath-51">
      <rect class="cls-9" x="192.97" y="255.4" width="16" height="16"/>
    </clipPath>
    <clipPath id="clippath-52">
      <rect class="cls-9" x="260.64" y="256.78" width="16" height="16"/>
    </clipPath>
    <clipPath id="clippath-53">
      <rect class="cls-9" x="328.31" y="258.44" width="16" height="16"/>
    </clipPath>
    <clipPath id="clippath-54">
      <rect class="cls-9" x="395.98" y="258.69" width="16" height="16"/>
    </clipPath>
  </defs>
  <rect class="cls-23" width="428.1" height="340.19"/>
  <rect class="cls-23" x="48.72" y="19.12" width="372.19" height="277.2"/>
  <g class="cls-51">
    <line class="cls-17" x1="65.63" y1="296.32" x2="65.63" y2="19.12"/>
  </g>
  <line class="cls-21" x1="65.63" y1="296.32" x2="65.63" y2="299.82"/>
  <line class="cls-19" x1="65.63" y1="296.32" x2="65.63" y2="299.82"/>
  <path class="cls-21" d="M65.63,303.5c.81,0,1.43.33,1.87.97.43.65.65,1.59.65,2.81s-.22,2.17-.65,2.81c-.44.64-1.06.96-1.88.96s-1.44-.32-1.87-.96c-.43-.64-.64-1.58-.64-2.81s.21-2.16.64-2.81c.43-.64,1.06-.97,1.88-.97ZM65.63,304.28c-.51,0-.89.25-1.15.75s-.38,1.25-.38,2.25.12,1.75.38,2.25.64.75,1.15.75.89-.25,1.15-.75c.25-.5.38-1.25.38-2.25s-.13-1.75-.38-2.25c-.26-.5-.64-.75-1.15-.75Z"/>
  <g class="cls-39">
    <line class="cls-17" x1="133.3" y1="296.32" x2="133.3" y2="19.12"/>
  </g>
  <line class="cls-21" x1="133.3" y1="296.32" x2="133.3" y2="299.82"/>
  <line class="cls-19" x1="133.3" y1="296.32" x2="133.3" y2="299.82"/>
  <polygon class="cls-21" points="131.36 310.09 132.97 310.09 132.97 304.53 131.22 304.88 131.22 303.98 132.96 303.63 133.95 303.63 133.95 310.09 135.56 310.09 135.56 310.92 131.36 310.92 131.36 310.09"/>
  <g class="cls-27">
    <line class="cls-17" x1="200.97" y1="296.32" x2="200.97" y2="19.12"/>
  </g>
  <line class="cls-21" x1="200.97" y1="296.32" x2="200.97" y2="299.82"/>
  <line class="cls-19" x1="200.97" y1="296.32" x2="200.97" y2="299.82"/>
  <path class="cls-21" d="M199.71,310.09h3.44v.83h-4.63v-.83c.37-.38.88-.9,1.53-1.56.64-.65,1.05-1.07,1.22-1.26.32-.35.54-.65.66-.9.12-.24.19-.49.19-.73,0-.38-.14-.7-.41-.94-.27-.24-.62-.37-1.06-.37-.31,0-.64.06-.98.16-.34.11-.71.27-1.1.49v-1c.4-.16.77-.28,1.11-.36.34-.08.66-.12.95-.12.75,0,1.35.19,1.8.57.45.38.68.88.68,1.51,0,.3-.06.59-.17.85-.11.27-.31.59-.61.95-.08.1-.34.37-.78.82-.44.45-1.05,1.08-1.84,1.89Z"/>
  <g class="cls-58">
    <line class="cls-17" x1="268.64" y1="296.32" x2="268.64" y2="19.12"/>
  </g>
  <line class="cls-21" x1="268.64" y1="296.32" x2="268.64" y2="299.82"/>
  <line class="cls-19" x1="268.64" y1="296.32" x2="268.64" y2="299.82"/>
  <path class="cls-21" d="M269.52,306.99c.47.1.84.31,1.1.63s.4.72.4,1.18c0,.72-.25,1.28-.74,1.67-.5.39-1.2.58-2.11.58-.31,0-.63-.03-.95-.09-.32-.05-.66-.14-1-.26v-.95c.27.16.57.28.9.36.32.08.66.12,1.02.12.62,0,1.09-.12,1.41-.36.32-.24.49-.6.49-1.07,0-.42-.15-.76-.45-1-.3-.24-.72-.37-1.26-.37h-.85v-.81h.89c.48,0,.85-.09,1.11-.29.26-.19.39-.47.39-.84s-.14-.66-.4-.86c-.27-.2-.65-.3-1.14-.3-.27,0-.56.03-.87.09s-.65.15-1.02.27v-.88c.37-.1.72-.18,1.05-.23.32-.05.63-.08.93-.08.74,0,1.33.17,1.77.51s.66.8.66,1.38c0,.4-.12.74-.35,1.02-.23.28-.56.48-.98.58Z"/>
  <g class="cls-40">
    <line class="cls-17" x1="336.31" y1="296.32" x2="336.31" y2="19.12"/>
  </g>
  <line class="cls-21" x1="336.31" y1="296.32" x2="336.31" y2="299.82"/>
  <line class="cls-19" x1="336.31" y1="296.32" x2="336.31" y2="299.82"/>
  <path class="cls-21" d="M336.65,303.63h1.24v4.75h1.04v.82h-1.04v1.72h-.98v-1.72h-3.29v-.95l3.03-4.62ZM336.91,304.49l-2.49,3.89h2.49v-3.89Z"/>
  <g class="cls-65">
    <line class="cls-17" x1="403.98" y1="296.32" x2="403.98" y2="19.12"/>
  </g>
  <line class="cls-21" x1="403.98" y1="296.32" x2="403.98" y2="299.82"/>
  <line class="cls-19" x1="403.98" y1="296.32" x2="403.98" y2="299.82"/>
  <path class="cls-21" d="M401.88,303.63h3.87v.83h-2.97v1.79c.14-.05.29-.09.43-.11.14-.02.29-.04.43-.04.81,0,1.45.23,1.93.67.48.45.72,1.05.72,1.81s-.25,1.4-.74,1.83-1.18.64-2.06.64c-.31,0-.62-.03-.94-.07-.32-.05-.64-.12-.98-.23v-.99c.29.16.59.28.91.36.31.08.64.11.99.11.56,0,1.01-.14,1.34-.44.32-.3.49-.7.49-1.21s-.17-.9-.49-1.2c-.33-.3-.78-.45-1.34-.45-.26,0-.53.03-.79.09-.26.06-.53.15-.8.27v-3.66Z"/>
  <path class="cls-21" d="M142.1,317.45h1.68l4.17,10.94h-1.54l-.99-2.81h-4.93l-.99,2.81h-1.56l4.17-10.94ZM142.94,318.9l-2.01,5.44h4.02l-2.01-5.44Z"/>
  <path class="cls-21" d="M150.29,324.29c0,.99.19,1.77.6,2.34.4.57.96.84,1.68.84s1.27-.27,1.7-.84c.4-.57.61-1.35.61-2.34s-.21-1.75-.61-2.32c-.42-.57-.98-.86-1.7-.86s-1.27.28-1.68.86c-.41.57-.6,1.33-.6,2.32ZM154.88,321.42v-4.44h1.35v11.4h-1.35v-1.23c-.29.5-.65.86-1.08,1.08-.43.22-.94.34-1.54.34-.99,0-1.8-.39-2.43-1.17-.63-.78-.93-1.83-.93-3.12s.3-2.32.93-3.12c.63-.78,1.44-1.18,2.43-1.18.6,0,1.11.12,1.54.36s.79.6,1.08,1.08Z"/>
  <path class="cls-21" d="M159.81,324.29c0,.99.19,1.77.6,2.34.4.57.96.84,1.68.84s1.27-.27,1.7-.84c.4-.57.61-1.35.61-2.34s-.21-1.75-.61-2.32c-.42-.57-.98-.86-1.7-.86s-1.27.28-1.68.86c-.41.57-.6,1.33-.6,2.32ZM164.4,321.42v-4.44h1.35v11.4h-1.35v-1.23c-.29.5-.65.86-1.08,1.08-.43.22-.94.34-1.54.34-.99,0-1.8-.39-2.43-1.17-.63-.78-.93-1.83-.93-3.12s.3-2.32.93-3.12c.63-.78,1.44-1.18,2.43-1.18.6,0,1.11.12,1.54.36s.79.6,1.08,1.08Z"/>
  <path class="cls-21" d="M174.19,323.55c-.01-.73-.23-1.32-.62-1.77-.4-.44-.94-.66-1.6-.66-.75,0-1.35.22-1.8.64s-.72,1.02-.78,1.78h4.8ZM175.54,323.94v.66h-6.19c.06.93.33,1.65.84,2.13.5.48,1.18.72,2.09.72.51,0,1.02-.06,1.5-.18.48-.12.97-.32,1.46-.59v1.27c-.48.21-.98.38-1.49.47-.51.09-1.04.15-1.54.15-1.32,0-2.36-.38-3.12-1.12s-1.14-1.78-1.14-3.09.36-2.4,1.08-3.2c.72-.78,1.71-1.18,2.94-1.18,1.11,0,1.98.36,2.62,1.07.63.72.96,1.68.96,2.9Z"/>
  <path class="cls-21" d="M178.56,324.29c0,.99.19,1.77.6,2.34.4.57.96.84,1.68.84s1.27-.27,1.7-.84c.4-.57.61-1.35.61-2.34s-.21-1.75-.61-2.32c-.42-.57-.98-.86-1.7-.86s-1.27.28-1.68.86c-.41.57-.6,1.33-.6,2.32ZM183.15,321.42v-4.44h1.35v11.4h-1.35v-1.23c-.29.5-.65.86-1.08,1.08-.43.22-.94.34-1.54.34-.99,0-1.8-.39-2.43-1.17-.63-.78-.93-1.83-.93-3.12s.3-2.32.93-3.12c.63-.78,1.44-1.18,2.43-1.18.6,0,1.11.12,1.54.36s.79.6,1.08,1.08Z"/>
  <path class="cls-21" d="M197.95,320.49v1.26c-.39-.21-.77-.36-1.16-.47s-.76-.16-1.15-.16c-.87,0-1.56.28-2.04.84-.48.55-.72,1.33-.72,2.32s.24,1.78.72,2.34,1.17.82,2.04.82c.39,0,.76-.05,1.15-.15.39-.11.76-.27,1.16-.48v1.25c-.39.18-.78.31-1.17.39-.4.07-.84.12-1.29.12-1.23,0-2.22-.38-2.94-1.15-.74-.77-1.1-1.82-1.1-3.14s.36-2.39,1.1-3.15,1.74-1.16,3.03-1.16c.42,0,.82.05,1.21.14s.78.21,1.16.38Z"/>
  <path class="cls-21" d="M206.71,323.7v4.68h-1.35v-1.24c-.32.51-.71.87-1.15,1.1-.45.22-1.02.34-1.68.34-.84,0-1.51-.22-2.01-.69-.49-.47-.74-1.1-.74-1.89,0-.91.3-1.61.93-2.09.62-.47,1.53-.7,2.76-.7h1.89v-.14c0-.61-.21-1.09-.61-1.44-.4-.33-.98-.51-1.71-.51-.48,0-.93.06-1.38.18-.45.12-.87.29-1.27.5v-1.25c.48-.18.96-.33,1.43-.42s.91-.15,1.36-.15c1.19,0,2.07.32,2.66.93.58.61.88,1.55.88,2.79ZM204.02,324.26c-1.1,0-1.85.13-2.26.38-.42.26-.63.68-.63,1.27,0,.48.15.87.46,1.14.32.28.75.42,1.29.42.75,0,1.35-.26,1.8-.8.45-.52.68-1.23.68-2.11v-.3h-1.33Z"/>
  <path class="cls-21" d="M215.39,320.49v1.26c-.39-.21-.77-.36-1.16-.47s-.76-.16-1.15-.16c-.87,0-1.56.28-2.04.84-.48.55-.72,1.33-.72,2.32s.24,1.78.72,2.34,1.17.82,2.04.82c.39,0,.76-.05,1.15-.15.39-.11.76-.27,1.16-.48v1.25c-.39.18-.78.31-1.17.39-.4.07-.84.12-1.29.12-1.23,0-2.22-.38-2.94-1.15-.74-.77-1.1-1.82-1.1-3.14s.36-2.39,1.1-3.15,1.74-1.16,3.03-1.16c.42,0,.82.05,1.21.14s.78.21,1.16.38Z"/>
  <path class="cls-21" d="M224.55,323.43v4.95h-1.35v-4.9c0-.78-.16-1.35-.46-1.74-.3-.39-.75-.58-1.35-.58-.74,0-1.31.24-1.73.7s-.63,1.09-.63,1.89v4.63h-1.35v-11.4h1.35v4.47c.32-.48.69-.85,1.14-1.09.43-.24.95-.38,1.51-.38.93,0,1.65.3,2.13.89s.74,1.44.74,2.57Z"/>
  <path class="cls-21" d="M232.9,323.55c-.01-.73-.23-1.32-.62-1.77-.4-.44-.94-.66-1.6-.66-.75,0-1.35.22-1.8.64s-.72,1.02-.78,1.78h4.8ZM234.25,323.94v.66h-6.19c.06.93.33,1.65.84,2.13.5.48,1.18.72,2.09.72.51,0,1.02-.06,1.5-.18.48-.12.97-.32,1.46-.59v1.27c-.48.21-.98.38-1.49.47-.51.09-1.04.15-1.54.15-1.32,0-2.36-.38-3.12-1.12s-1.14-1.78-1.14-3.09.36-2.4,1.08-3.2c.72-.78,1.71-1.18,2.94-1.18,1.11,0,1.98.36,2.62,1.07.63.72.96,1.68.96,2.9Z"/>
  <path class="cls-21" d="M247.14,320.49v1.26c-.39-.21-.77-.36-1.16-.47s-.76-.16-1.15-.16c-.87,0-1.56.28-2.04.84-.48.55-.72,1.33-.72,2.32s.24,1.78.72,2.34,1.17.82,2.04.82c.39,0,.76-.05,1.15-.15.39-.11.76-.27,1.16-.48v1.25c-.39.18-.78.31-1.17.39-.4.07-.84.12-1.29.12-1.23,0-2.22-.38-2.94-1.15-.74-.77-1.1-1.82-1.1-3.14s.36-2.39,1.1-3.15,1.74-1.16,3.03-1.16c.42,0,.82.05,1.21.14s.78.21,1.16.38Z"/>
  <path class="cls-21" d="M255.9,323.7v4.68h-1.35v-1.24c-.32.51-.71.87-1.15,1.1-.45.22-1.02.34-1.68.34-.84,0-1.51-.22-2.01-.69-.49-.47-.74-1.1-.74-1.89,0-.91.3-1.61.93-2.09.62-.47,1.53-.7,2.76-.7h1.89v-.14c0-.61-.21-1.09-.61-1.44-.4-.33-.98-.51-1.71-.51-.48,0-.93.06-1.38.18-.45.12-.87.29-1.27.5v-1.25c.48-.18.96-.33,1.43-.42s.91-.15,1.36-.15c1.19,0,2.07.32,2.66.93.58.61.88,1.55.88,2.79ZM253.21,324.26c-1.1,0-1.85.13-2.26.38-.42.26-.63.68-.63,1.27,0,.48.15.87.46,1.14.32.28.75.42,1.29.42.75,0,1.35-.26,1.8-.8.45-.52.68-1.23.68-2.11v-.3h-1.33Z"/>
  <path class="cls-21" d="M264.56,324.29c0-.99-.21-1.75-.61-2.32-.42-.57-.98-.86-1.68-.86s-1.28.28-1.68.86c-.42.57-.61,1.33-.61,2.32s.2,1.77.61,2.34c.4.57.96.84,1.68.84s1.26-.27,1.68-.84c.4-.57.61-1.35.61-2.34ZM259.97,327.15v4.34h-1.35v-11.31h1.35v1.24c.27-.48.63-.84,1.07-1.08s.96-.36,1.56-.36c.99,0,1.8.41,2.43,1.18.62.8.93,1.83.93,3.12s-.32,2.34-.93,3.12c-.63.78-1.44,1.17-2.43,1.17-.6,0-1.12-.12-1.56-.34-.43-.23-.8-.59-1.07-1.08Z"/>
  <path class="cls-21" d="M274.61,323.7v4.68h-1.35v-1.24c-.32.51-.71.87-1.15,1.1-.45.22-1.02.34-1.68.34-.84,0-1.51-.22-2.01-.69s-.74-1.1-.74-1.89c0-.91.3-1.61.93-2.09.62-.47,1.53-.7,2.76-.7h1.89v-.14c0-.61-.21-1.09-.62-1.44-.4-.33-.97-.51-1.71-.51-.48,0-.93.06-1.38.18-.45.12-.87.29-1.27.5v-1.25c.48-.18.96-.33,1.42-.42.47-.09.92-.15,1.37-.15,1.18,0,2.07.32,2.65.93.58.61.88,1.55.88,2.79ZM271.93,324.26c-1.1,0-1.85.13-2.26.38-.42.26-.63.68-.63,1.27,0,.48.15.87.46,1.14.32.28.75.42,1.29.42.75,0,1.35-.26,1.8-.8.45-.52.68-1.23.68-2.11v-.3h-1.34Z"/>
  <path class="cls-21" d="M283.29,320.49v1.26c-.39-.21-.77-.36-1.15-.47-.39-.1-.77-.16-1.15-.16-.87,0-1.56.28-2.04.84-.48.55-.72,1.33-.72,2.32s.24,1.78.72,2.34,1.17.82,2.04.82c.39,0,.76-.05,1.15-.15.39-.11.76-.27,1.15-.48v1.25c-.39.18-.78.31-1.17.39-.4.07-.84.12-1.29.12-1.23,0-2.22-.38-2.94-1.15-.74-.77-1.1-1.82-1.1-3.14s.36-2.39,1.1-3.15c.73-.76,1.74-1.16,3.03-1.16.42,0,.82.05,1.21.14.39.09.78.21,1.15.38Z"/>
  <path class="cls-21" d="M285.63,316.98h1.35v1.71h-1.35v-1.71ZM285.63,320.18h1.35v8.2h-1.35v-8.2Z"/>
  <path class="cls-21" d="M291.13,317.85v2.33h2.77v1.05h-2.77v4.45c0,.67.09,1.11.27,1.29.18.19.55.28,1.12.28h1.38v1.12h-1.38c-1.05,0-1.77-.19-2.16-.59-.39-.39-.59-1.1-.59-2.11v-4.45h-.99v-1.05h.99v-2.33h1.35Z"/>
  <path class="cls-21" d="M299.1,329.13c-.39.96-.76,1.61-1.12,1.9-.36.3-.84.45-1.44.45h-1.08v-1.12h.8c.36,0,.64-.09.85-.27.21-.18.43-.59.69-1.24l.24-.6-3.32-8.07h1.42l2.57,6.42,2.57-6.42h1.42l-3.6,8.95Z"/>
  <polygon class="cls-21" points="304.9 326.52 306.45 326.52 306.45 327.78 305.25 330.11 304.3 330.11 304.9 327.78 304.9 326.52"/>
  <polygon class="cls-21" points="325.46 317.45 326.95 317.45 325.07 327.15 330.4 327.15 330.16 328.38 323.35 328.38 325.46 317.45"/>
  <g class="cls-33">
    <path class="cls-21" d="M312.8,328.38l4.17-10.93h1.68l4.17,10.93h-10.02ZM317.81,318.9l-3,8.25h6l-3-8.25Z"/>
  </g>
  <g class="cls-36">
    <line class="cls-17" x1="48.72" y1="247.59" x2="420.9" y2="247.59"/>
  </g>
  <line class="cls-21" x1="48.72" y1="247.59" x2="45.22" y2="247.59"/>
  <line class="cls-19" x1="48.72" y1="247.59" x2="45.22" y2="247.59"/>
  <path class="cls-21" d="M28.9,243.38c.81,0,1.43.33,1.87.97.43.65.65,1.59.65,2.81s-.22,2.17-.65,2.81c-.44.64-1.06.96-1.88.96s-1.44-.32-1.87-.96c-.43-.64-.64-1.58-.64-2.81s.21-2.16.64-2.81c.43-.64,1.06-.97,1.88-.97ZM28.9,244.16c-.51,0-.89.25-1.15.75s-.38,1.25-.38,2.25.12,1.75.38,2.25.64.75,1.15.75.89-.25,1.15-.75c.25-.5.38-1.25.38-2.25s-.13-1.75-.38-2.25c-.26-.5-.64-.75-1.15-.75Z"/>
  <rect class="cls-21" x="33.15" y="249.56" width="1.03" height="1.24"/>
  <path class="cls-21" d="M40.52,243.67v.9c-.25-.12-.5-.21-.75-.27-.26-.06-.51-.09-.75-.09-.66,0-1.16.22-1.5.66-.34.44-.54,1.11-.58,1.99.19-.28.43-.5.72-.65.29-.15.61-.23.96-.23.73,0,1.31.23,1.73.67.42.44.64,1.05.64,1.81s-.23,1.35-.67,1.8c-.44.45-1.03.67-1.76.67-.84,0-1.49-.32-1.93-.96-.45-.64-.67-1.58-.67-2.81,0-1.15.27-2.07.82-2.75.54-.68,1.28-1.03,2.2-1.03.24,0,.49.03.75.07.25.05.51.12.79.22ZM38.56,246.76c-.44,0-.79.16-1.05.46-.26.3-.39.72-.39,1.24s.13.95.39,1.25c.26.3.61.45,1.05.45s.79-.15,1.05-.45c.26-.3.39-.72.39-1.25s-.13-.94-.39-1.24c-.26-.3-.61-.46-1.05-.46Z"/>
  <g class="cls-60">
    <line class="cls-17" x1="48.72" y1="198.47" x2="420.9" y2="198.47"/>
  </g>
  <line class="cls-21" x1="48.72" y1="198.47" x2="45.22" y2="198.47"/>
  <line class="cls-19" x1="48.72" y1="198.47" x2="45.22" y2="198.47"/>
  <path class="cls-21" d="M28.9,194.27c.81,0,1.43.33,1.87.97.43.65.65,1.59.65,2.81s-.22,2.17-.65,2.81c-.44.64-1.06.96-1.88.96s-1.44-.32-1.87-.96c-.43-.64-.64-1.58-.64-2.81s.21-2.16.64-2.81c.43-.64,1.06-.97,1.88-.97ZM28.9,195.05c-.51,0-.89.25-1.15.75s-.38,1.25-.38,2.25.12,1.75.38,2.25.64.75,1.15.75.89-.25,1.15-.75c.25-.5.38-1.25.38-2.25s-.13-1.75-.38-2.25c-.26-.5-.64-.75-1.15-.75Z"/>
  <rect class="cls-21" x="33.15" y="200.45" width="1.03" height="1.24"/>
  <path class="cls-21" d="M36.84,196.25c0,.38.11.68.35.89.24.21.57.31,1,.31s.75-.1.99-.31c.24-.21.36-.51.36-.89s-.12-.67-.36-.88c-.24-.21-.57-.32-.99-.32s-.76.11-1,.32c-.24.21-.35.5-.35.88ZM37.2,197.81c-.42-.1-.75-.3-.99-.59-.24-.29-.35-.64-.35-1.06,0-.58.2-1.04.62-1.38.41-.34.98-.51,1.71-.51s1.29.17,1.71.51c.41.34.62.8.62,1.38,0,.42-.12.77-.36,1.06-.24.29-.56.49-.98.59.47.11.84.33,1.11.65.26.32.4.72.4,1.18,0,.71-.22,1.25-.65,1.62-.44.38-1.06.56-1.86.56s-1.42-.18-1.85-.56c-.43-.37-.64-.91-.64-1.62,0-.46.13-.86.4-1.18.26-.32.63-.54,1.11-.65ZM38.19,198.23c-.47,0-.84.13-1.11.38s-.4.59-.4,1.03.13.79.4,1.04.64.37,1.11.37.83-.12,1.1-.38c.27-.25.41-.59.41-1.03s-.14-.78-.4-1.03c-.27-.25-.64-.38-1.11-.38Z"/>
  <g class="cls-49">
    <line class="cls-17" x1="48.72" y1="149.35" x2="420.9" y2="149.35"/>
  </g>
  <line class="cls-21" x1="48.72" y1="149.35" x2="45.22" y2="149.35"/>
  <line class="cls-19" x1="48.72" y1="149.35" x2="45.22" y2="149.35"/>
  <polygon class="cls-21" points="26.96 151.74 28.57 151.74 28.57 146.18 26.82 146.53 26.82 145.63 28.56 145.28 29.55 145.28 29.55 151.74 31.16 151.74 31.16 152.57 26.96 152.57 26.96 151.74"/>
  <rect class="cls-21" x="33.15" y="151.33" width="1.03" height="1.24"/>
  <path class="cls-21" d="M38.44,145.15c.81,0,1.43.33,1.87.97.43.65.65,1.59.65,2.81s-.22,2.17-.65,2.81c-.44.64-1.06.96-1.88.96s-1.44-.32-1.87-.96-.64-1.58-.64-2.81.21-2.16.64-2.81c.43-.64,1.06-.97,1.88-.97ZM38.44,145.93c-.51,0-.89.25-1.15.75-.26.5-.38,1.25-.38,2.25s.12,1.75.38,2.25c.26.5.64.75,1.15.75s.89-.25,1.15-.75c.25-.5.38-1.25.38-2.25s-.13-1.75-.38-2.25c-.26-.5-.64-.75-1.15-.75Z"/>
  <g class="cls-67">
    <line class="cls-17" x1="48.72" y1="100.23" x2="420.9" y2="100.23"/>
  </g>
  <line class="cls-21" x1="48.72" y1="100.23" x2="45.22" y2="100.23"/>
  <line class="cls-19" x1="48.72" y1="100.23" x2="45.22" y2="100.23"/>
  <polygon class="cls-21" points="26.96 102.62 28.57 102.62 28.57 97.06 26.82 97.41 26.82 96.51 28.56 96.16 29.55 96.16 29.55 102.62 31.16 102.62 31.16 103.45 26.96 103.45 26.96 102.62"/>
  <rect class="cls-21" x="33.15" y="102.21" width="1.03" height="1.24"/>
  <path class="cls-21" d="M36.68,102.62h3.44v.83h-4.63v-.83c.37-.38.88-.9,1.53-1.56.64-.65,1.05-1.07,1.22-1.26.32-.35.54-.65.66-.9.12-.24.19-.49.19-.73,0-.38-.14-.7-.41-.94-.27-.24-.62-.37-1.06-.37-.31,0-.64.06-.98.16-.34.11-.71.27-1.1.49v-1c.4-.16.77-.28,1.11-.36s.66-.12.95-.12c.75,0,1.35.19,1.8.57.45.38.68.88.68,1.51,0,.3-.06.59-.17.85-.11.27-.31.59-.61.95-.08.1-.34.37-.78.82-.44.45-1.05,1.08-1.84,1.89Z"/>
  <g class="cls-3">
    <line class="cls-17" x1="48.72" y1="51.12" x2="420.9" y2="51.12"/>
  </g>
  <line class="cls-21" x1="48.72" y1="51.12" x2="45.22" y2="51.12"/>
  <line class="cls-19" x1="48.72" y1="51.12" x2="45.22" y2="51.12"/>
  <polygon class="cls-21" points="26.96 53.38 28.57 53.38 28.57 47.82 26.82 48.17 26.82 47.27 28.56 46.92 29.55 46.92 29.55 53.38 31.16 53.38 31.16 54.21 26.96 54.21 26.96 53.38"/>
  <rect class="cls-21" x="33.15" y="52.97" width="1.03" height="1.24"/>
  <path class="cls-21" d="M38.78,46.92h1.24v4.75h1.04v.82h-1.04v1.72h-.98v-1.72h-3.29v-.95l3.03-4.62ZM39.04,47.78l-2.49,3.89h2.49v-3.89Z"/>
  <polygon class="cls-21" points="7.66 219.05 7.66 209.81 8.9 209.81 8.9 213.69 18.59 213.69 18.59 215.18 8.9 215.18 8.9 219.05 7.66 219.05"/>
  <path class="cls-21" d="M10.19,207.81c0-1.17.39-2.09,1.14-2.76.76-.66,1.82-1,3.16-1s2.4.35,3.15,1c.76.68,1.14,1.59,1.14,2.76s-.38,2.11-1.14,2.77c-.75.66-1.8.99-3.15.99s-2.4-.33-3.16-.99c-.75-.66-1.14-1.59-1.14-2.77ZM11.33,207.81c0,.72.28,1.29.85,1.71.57.42,1.34.63,2.31.63s1.76-.2,2.32-.62.84-.99.84-1.72-.27-1.29-.84-1.71-1.33-.63-2.32-.63-1.74.21-2.31.63c-.57.42-.85.99-.85,1.71Z"/>
  <path class="cls-21" d="M8.06,200.48h2.33v-2.78h1.05v2.78h4.46c.68,0,1.11-.09,1.29-.27.19-.18.28-.56.28-1.12v-1.38h1.12v1.38c0,1.05-.19,1.77-.58,2.16-.39.39-1.1.58-2.12.58h-4.46v.99h-1.05v-.99h-2.33v-1.35Z"/>
  <path class="cls-21" d="M13.91,189.51h4.68v1.35h-1.25c.51.32.87.71,1.1,1.15s.34,1.02.34,1.68c0,.84-.23,1.51-.69,2.01-.46.49-1.09.74-1.89.74-.91,0-1.6-.3-2.09-.93-.47-.62-.7-1.53-.7-2.76v-1.89h-.14c-.61,0-1.1.21-1.44.61-.33.4-.51.98-.51,1.71,0,.48.06.93.18,1.38.12.45.28.87.49,1.27h-1.24c-.18-.48-.33-.96-.42-1.43s-.15-.91-.15-1.36c0-1.19.32-2.07.93-2.66.61-.58,1.55-.88,2.79-.88ZM14.47,192.2c0,1.1.14,1.85.38,2.26.26.42.68.63,1.27.63.48,0,.87-.15,1.14-.46.28-.32.42-.75.42-1.29,0-.75-.25-1.35-.79-1.8-.53-.45-1.23-.67-2.12-.67h-.3v1.33Z"/>
  <rect class="cls-21" x="7.19" y="185.39" width="11.4" height="1.35"/>
  <path class="cls-21" d="M14.5,176.99c.99,0,1.77-.19,2.34-.6.57-.4.84-.96.84-1.68s-.27-1.27-.84-1.7c-.57-.4-1.35-.61-2.34-.61s-1.76.21-2.32.61c-.57.42-.85.98-.85,1.7s.28,1.27.85,1.68c.57.41,1.34.6,2.32.6ZM11.63,172.4h-4.44v-1.35h11.4v1.35h-1.23c.49.29.85.65,1.08,1.08s.34.94.34,1.54c0,.99-.39,1.8-1.17,2.43-.78.63-1.83.93-3.12.93s-2.32-.3-3.12-.93c-.78-.63-1.19-1.44-1.19-2.43,0-.6.12-1.11.36-1.54.24-.43.6-.79,1.08-1.08Z"/>
  <path class="cls-21" d="M13.76,162.6c-.74.01-1.32.23-1.77.62-.43.4-.66.94-.66,1.6,0,.75.23,1.35.65,1.8s1.02.72,1.78.78v-4.8ZM14.15,161.25h.66v6.2c.93-.06,1.65-.33,2.13-.84.48-.5.72-1.18.72-2.09,0-.51-.06-1.02-.18-1.5-.12-.48-.31-.97-.58-1.46h1.27c.21.48.38.98.47,1.49.09.51.15,1.04.15,1.54,0,1.32-.38,2.36-1.12,3.12s-1.78,1.14-3.09,1.14-2.4-.36-3.19-1.08c-.78-.72-1.19-1.71-1.19-2.94,0-1.11.36-1.98,1.06-2.62.72-.63,1.68-.96,2.9-.96Z"/>
  <rect class="cls-21" x="7.19" y="157.7" width="11.4" height="1.35"/>
  <path class="cls-21" d="M13.91,148.46h4.68v1.35h-1.25c.51.32.87.71,1.1,1.15s.34,1.02.34,1.68c0,.84-.23,1.51-.69,2.01-.46.49-1.09.74-1.89.74-.91,0-1.6-.3-2.09-.93-.47-.62-.7-1.53-.7-2.76v-1.89h-.14c-.61,0-1.1.21-1.44.61-.33.4-.51.98-.51,1.71,0,.48.06.93.18,1.38.12.45.28.87.49,1.27h-1.24c-.18-.48-.33-.96-.42-1.43s-.15-.91-.15-1.36c0-1.19.32-2.07.93-2.66.61-.58,1.55-.88,2.79-.88ZM14.47,151.14c0,1.1.14,1.85.38,2.26.26.42.68.63,1.27.63.48,0,.87-.15,1.14-.46.28-.32.42-.75.42-1.29,0-.75-.25-1.35-.79-1.8-.53-.45-1.23-.67-2.12-.67h-.3v1.33Z"/>
  <path class="cls-21" d="M19.34,142.26c.96.39,1.6.76,1.91,1.12.3.36.45.84.45,1.44v1.08h-1.12v-.79c0-.36-.09-.65-.27-.86-.18-.21-.58-.43-1.24-.69l-.6-.24-8.07,3.32v-1.43l6.42-2.57-6.42-2.57v-1.43l8.95,3.6Z"/>
  <path class="cls-21" d="M7.21,128.79c1.14.66,2.25,1.14,3.35,1.45,1.1.33,2.2.48,3.33.48s2.25-.15,3.35-.48c1.11-.31,2.2-.79,3.33-1.45v1.17c-1.16.74-2.26,1.29-3.38,1.65s-2.2.54-3.3.54-2.18-.18-3.29-.54c-1.11-.36-2.23-.9-3.39-1.65v-1.17Z"/>
  <path class="cls-21" d="M10.63,120.95h1.27c-.18.39-.33.78-.43,1.18-.09.42-.15.84-.15,1.28,0,.68.1,1.18.31,1.51s.51.49.91.49c.32,0,.56-.12.73-.36.18-.24.36-.72.51-1.44l.11-.46c.21-.96.51-1.63.87-2.04.38-.39.9-.6,1.56-.6.76,0,1.36.3,1.8.9.45.6.66,1.44.66,2.49,0,.45-.05.9-.12,1.38-.08.48-.2.97-.38,1.5h-1.4c.27-.49.47-.99.58-1.47.14-.48.19-.96.19-1.44,0-.63-.1-1.12-.31-1.47-.21-.33-.53-.51-.93-.51-.36,0-.65.13-.84.38-.19.24-.39.78-.57,1.62l-.11.46c-.18.84-.45,1.46-.81,1.82-.36.38-.85.56-1.5.56-.76,0-1.36-.27-1.78-.81-.42-.54-.63-1.32-.63-2.34,0-.49.05-.96.12-1.41.08-.43.18-.84.32-1.21Z"/>
  <path class="cls-21" d="M13.76,112.7c-.74.01-1.32.23-1.77.62-.43.4-.66.94-.66,1.6,0,.75.23,1.35.65,1.8s1.02.72,1.78.78v-4.8ZM14.15,111.35h.66v6.2c.93-.06,1.65-.33,2.13-.84.48-.5.72-1.18.72-2.09,0-.51-.06-1.02-.18-1.5-.12-.48-.31-.97-.58-1.46h1.27c.21.48.38.98.47,1.49.09.51.15,1.04.15,1.54,0,1.32-.38,2.36-1.12,3.12s-1.78,1.14-3.09,1.14-2.4-.36-3.19-1.08c-.78-.72-1.19-1.71-1.19-2.94,0-1.11.36-1.98,1.06-2.62.72-.63,1.68-.96,2.9-.96Z"/>
  <path class="cls-21" d="M10.7,103.23h1.26c-.21.39-.36.77-.47,1.16s-.16.76-.16,1.15c0,.87.28,1.56.84,2.04s1.34.72,2.32.72,1.79-.24,2.34-.72c.56-.48.83-1.17.83-2.04,0-.39-.05-.76-.15-1.15s-.27-.76-.48-1.16h1.24c.18.39.32.78.39,1.17.07.4.12.84.12,1.29,0,1.23-.38,2.22-1.15,2.94-.77.74-1.82,1.1-3.14,1.1s-2.39-.36-3.15-1.1c-.76-.74-1.15-1.74-1.15-3.03,0-.42.05-.82.14-1.21s.21-.78.38-1.16Z"/>
  <path class="cls-21" d="M7.21,101.1v-1.17c1.15-.72,2.28-1.28,3.39-1.64,1.11-.36,2.2-.55,3.29-.55s2.19.19,3.3.55,2.22.92,3.38,1.64v1.17c-1.12-.65-2.22-1.12-3.33-1.46-1.09-.32-2.2-.48-3.35-.48s-2.23.16-3.33.48c-1.1.33-2.21.81-3.35,1.46Z"/>
  <polygon class="cls-21" points="55.73 9.78 53.5 12.02 55.73 14.25 55.15 14.84 52.91 12.6 50.67 14.84 50.09 14.25 52.32 12.02 50.09 9.78 50.67 9.19 52.91 11.43 55.15 9.19 55.73 9.78"/>
  <polygon class="cls-21" points="58.33 14.32 59.94 14.32 59.94 8.76 58.19 9.11 58.19 8.21 59.93 7.86 60.92 7.86 60.92 14.32 62.53 14.32 62.53 15.15 58.33 15.15 58.33 14.32"/>
  <path class="cls-21" d="M66.64,7.73c.81,0,1.43.33,1.87.97.43.65.65,1.59.65,2.81s-.22,2.17-.65,2.81c-.44.64-1.06.96-1.88.96s-1.44-.32-1.87-.96c-.43-.64-.64-1.58-.64-2.81s.21-2.16.64-2.81c.43-.64,1.06-.97,1.88-.97ZM66.64,8.51c-.51,0-.89.25-1.15.75-.26.5-.38,1.25-.38,2.25s.12,1.75.38,2.25c.26.5.64.75,1.15.75s.89-.25,1.15-.75c.25-.5.38-1.25.38-2.25s-.13-1.75-.38-2.25c-.26-.5-.64-.75-1.15-.75Z"/>
  <path class="cls-21" d="M73.6,6.33v.63c-.17-.08-.35-.15-.53-.19-.18-.04-.36-.06-.52-.06-.46,0-.81.15-1.05.46s-.38.78-.41,1.39c.13-.2.3-.35.5-.46.2-.1.43-.16.67-.16.51,0,.92.16,1.21.47.29.31.45.73.45,1.27s-.16.95-.47,1.26-.72.47-1.23.47c-.59,0-1.04-.22-1.35-.67-.32-.45-.47-1.11-.47-1.97,0-.8.19-1.45.57-1.92.38-.48.9-.72,1.54-.72.17,0,.34.02.52.05.18.04.36.08.55.15ZM72.22,8.49c-.31,0-.55.11-.74.32-.18.21-.27.5-.27.87s.09.67.27.88c.18.21.43.32.74.32s.55-.11.74-.32.27-.5.27-.88-.09-.66-.27-.87c-.18-.21-.43-.32-.74-.32Z"/>
  <g class="cls-45">
    <polyline class="cls-10" points="65.63 272.51 133.3 231.15 200.97 170.64 268.64 127 336.31 75.78 403.98 31.72"/>
    <g class="cls-28">
      <path class="cls-11" d="M62.63,269.51l6,6M62.63,275.51l6-6"/>
    </g>
    <g class="cls-63">
      <path class="cls-11" d="M130.3,228.15l6,6M130.3,234.15l6-6"/>
    </g>
    <g class="cls-32">
      <path class="cls-11" d="M197.97,167.64l6,6M197.97,173.64l6-6"/>
    </g>
    <g class="cls-4">
      <path class="cls-11" d="M265.64,124l6,6M265.64,130l6-6"/>
    </g>
    <g class="cls-64">
      <path class="cls-11" d="M333.31,72.78l6,6M333.31,78.78l6-6"/>
    </g>
    <g class="cls-62">
      <path class="cls-11" d="M400.98,28.72l6,6M400.98,34.72l6-6"/>
    </g>
  </g>
  <g class="cls-55">
    <polyline class="cls-16" points="65.63 260.49 133.3 224.56 200.97 205.26 268.64 194.71 336.31 185.49 403.98 172.74"/>
    <g class="cls-2">
      <polygon class="cls-5" points="65.63 264.73 68.18 260.49 65.63 256.24 63.09 260.49 65.63 264.73"/>
    </g>
    <g class="cls-37">
      <polygon class="cls-5" points="133.3 228.8 135.85 224.56 133.3 220.32 130.76 224.56 133.3 228.8"/>
    </g>
    <g class="cls-48">
      <polygon class="cls-5" points="200.97 209.5 203.52 205.26 200.97 201.02 198.43 205.26 200.97 209.5"/>
    </g>
    <g class="cls-68">
      <polygon class="cls-5" points="268.64 198.95 271.19 194.71 268.64 190.46 266.1 194.71 268.64 198.95"/>
    </g>
    <g class="cls-46">
      <polygon class="cls-5" points="336.31 189.74 338.86 185.49 336.31 181.25 333.77 185.49 336.31 189.74"/>
    </g>
    <g class="cls-31">
      <polygon class="cls-5" points="403.98 176.99 406.53 172.74 403.98 168.5 401.44 172.74 403.98 176.99"/>
    </g>
  </g>
  <g class="cls-35">
    <polyline class="cls-14" points="65.63 261.29 133.3 243.95 200.97 231.09 268.64 221.07 336.31 216.2 403.98 207.7"/>
    <g class="cls-43">
      <path class="cls-6" d="M65.63,264.29c.8,0,1.56-.32,2.12-.88.56-.56.88-1.33.88-2.12s-.32-1.56-.88-2.12c-.56-.56-1.33-.88-2.12-.88s-1.56.32-2.12.88c-.56.56-.88,1.33-.88,2.12s.32,1.56.88,2.12c.56.56,1.33.88,2.12.88Z"/>
    </g>
    <g class="cls-72">
      <path class="cls-6" d="M133.3,246.95c.8,0,1.56-.32,2.12-.88.56-.56.88-1.33.88-2.12s-.32-1.56-.88-2.12c-.56-.56-1.33-.88-2.12-.88s-1.56.32-2.12.88c-.56.56-.88,1.33-.88,2.12s.32,1.56.88,2.12c.56.56,1.33.88,2.12.88Z"/>
    </g>
    <g class="cls-61">
      <path class="cls-6" d="M200.97,234.09c.8,0,1.56-.32,2.12-.88.56-.56.88-1.33.88-2.12s-.32-1.56-.88-2.12c-.56-.56-1.33-.88-2.12-.88s-1.56.32-2.12.88c-.56.56-.88,1.33-.88,2.12s.32,1.56.88,2.12c.56.56,1.33.88,2.12.88Z"/>
    </g>
    <g class="cls-47">
      <path class="cls-6" d="M268.64,224.07c.8,0,1.56-.32,2.12-.88.56-.56.88-1.33.88-2.12s-.32-1.56-.88-2.12c-.56-.56-1.33-.88-2.12-.88s-1.56.32-2.12.88c-.56.56-.88,1.33-.88,2.12s.32,1.56.88,2.12c.56.56,1.33.88,2.12.88Z"/>
    </g>
    <g class="cls-56">
      <path class="cls-6" d="M336.31,219.2c.8,0,1.56-.32,2.12-.88.56-.56.88-1.33.88-2.12s-.32-1.56-.88-2.12c-.56-.56-1.33-.88-2.12-.88s-1.56.32-2.12.88c-.56.56-.88,1.33-.88,2.12s.32,1.56.88,2.12c.56.56,1.33.88,2.12.88Z"/>
    </g>
    <g class="cls-26">
      <path class="cls-6" d="M403.98,210.7c.8,0,1.56-.32,2.12-.88.56-.56.88-1.33.88-2.12s-.32-1.56-.88-2.12c-.56-.56-1.33-.88-2.12-.88s-1.56.32-2.12.88c-.56.56-.88,1.33-.88,2.12s.32,1.56.88,2.12c.56.56,1.33.88,2.12.88Z"/>
    </g>
  </g>
  <g class="cls-20">
    <polyline class="cls-8" points="65.63 251.19 133.3 251.19 200.97 251.19 268.64 251.19 336.31 251.19 403.98 251.19"/>
  </g>
  <g class="cls-38">
    <polyline class="cls-12" points="65.63 272.51 133.3 275.49 200.97 276.47 268.64 279.4 336.31 281.01 403.98 283.72"/>
    <g class="cls-73">
      <path class="cls-11" d="M62.63,269.51l6,6M62.63,275.51l6-6"/>
    </g>
    <g class="cls-42">
      <path class="cls-11" d="M130.3,272.49l6,6M130.3,278.49l6-6"/>
    </g>
    <g class="cls-29">
      <path class="cls-11" d="M197.97,273.47l6,6M197.97,279.47l6-6"/>
    </g>
    <g class="cls-41">
      <path class="cls-11" d="M265.64,276.4l6,6M265.64,282.4l6-6"/>
    </g>
    <g class="cls-54">
      <path class="cls-11" d="M333.31,278.01l6,6M333.31,284.01l6-6"/>
    </g>
    <g class="cls-34">
      <path class="cls-11" d="M400.98,280.72l6,6M400.98,286.72l6-6"/>
    </g>
  </g>
  <g class="cls-25">
    <polyline class="cls-18" points="65.63 260.49 133.3 262.2 200.97 264.03 268.64 264.24 336.31 266.22 403.98 266.29"/>
    <g class="cls-66">
      <polygon class="cls-5" points="65.63 264.73 68.18 260.49 65.63 256.24 63.09 260.49 65.63 264.73"/>
    </g>
    <g class="cls-59">
      <polygon class="cls-5" points="133.3 266.44 135.85 262.2 133.3 257.96 130.76 262.2 133.3 266.44"/>
    </g>
    <g class="cls-44">
      <polygon class="cls-5" points="200.97 268.27 203.52 264.03 200.97 259.78 198.43 264.03 200.97 268.27"/>
    </g>
    <g class="cls-1">
      <polygon class="cls-5" points="268.64 268.49 271.19 264.24 268.64 260 266.1 264.24 268.64 268.49"/>
    </g>
    <g class="cls-30">
      <polygon class="cls-5" points="336.31 270.46 338.86 266.22 336.31 261.98 333.77 266.22 336.31 270.46"/>
    </g>
    <g class="cls-24">
      <polygon class="cls-5" points="403.98 270.53 406.53 266.29 403.98 262.05 401.44 266.29 403.98 270.53"/>
    </g>
  </g>
  <g class="cls-53">
    <polyline class="cls-7" points="65.63 261.6 133.3 262.24 200.97 263.4 268.64 264.78 336.31 266.44 403.98 266.69"/>
    <g class="cls-70">
      <path class="cls-6" d="M65.63,264.6c.8,0,1.56-.32,2.12-.88.56-.56.88-1.33.88-2.12s-.32-1.56-.88-2.12c-.56-.56-1.33-.88-2.12-.88s-1.56.32-2.12.88c-.56.56-.88,1.33-.88,2.12s.32,1.56.88,2.12c.56.56,1.33.88,2.12.88Z"/>
    </g>
    <g class="cls-52">
      <path class="cls-6" d="M133.3,265.24c.8,0,1.56-.32,2.12-.88.56-.56.88-1.33.88-2.12s-.32-1.56-.88-2.12c-.56-.56-1.33-.88-2.12-.88s-1.56.32-2.12.88c-.56.56-.88,1.33-.88,2.12s.32,1.56.88,2.12c.56.56,1.33.88,2.12.88Z"/>
    </g>
    <g class="cls-71">
      <path class="cls-6" d="M200.97,266.4c.8,0,1.56-.32,2.12-.88.56-.56.88-1.33.88-2.12s-.32-1.56-.88-2.12c-.56-.56-1.33-.88-2.12-.88s-1.56.32-2.12.88c-.56.56-.88,1.33-.88,2.12s.32,1.56.88,2.12c.56.56,1.33.88,2.12.88Z"/>
    </g>
    <g class="cls-50">
      <path class="cls-6" d="M268.64,267.78c.8,0,1.56-.32,2.12-.88.56-.56.88-1.33.88-2.12s-.32-1.56-.88-2.12c-.56-.56-1.33-.88-2.12-.88s-1.56.32-2.12.88c-.56.56-.88,1.33-.88,2.12s.32,1.56.88,2.12c.56.56,1.33.88,2.12.88Z"/>
    </g>
    <g class="cls-69">
      <path class="cls-6" d="M336.31,269.44c.8,0,1.56-.32,2.12-.88.56-.56.88-1.33.88-2.12s-.32-1.56-.88-2.12c-.56-.56-1.33-.88-2.12-.88s-1.56.32-2.12.88c-.56.56-.88,1.33-.88,2.12s.32,1.56.88,2.12c.56.56,1.33.88,2.12.88Z"/>
    </g>
    <g class="cls-57">
      <path class="cls-6" d="M403.98,269.69c.8,0,1.56-.32,2.12-.88.56-.56.88-1.33.88-2.12s-.32-1.56-.88-2.12c-.56-.56-1.33-.88-2.12-.88s-1.56.32-2.12.88c-.56.56-.88,1.33-.88,2.12s.32,1.56.88,2.12c.56.56,1.33.88,2.12.88Z"/>
    </g>
  </g>
  <line class="cls-15" x1="48.72" y1="296.32" x2="48.72" y2="19.12"/>
  <line class="cls-15" x1="420.9" y1="296.32" x2="420.9" y2="19.12"/>
  <line class="cls-15" x1="48.72" y1="296.32" x2="420.9" y2="296.32"/>
  <line class="cls-15" x1="48.72" y1="19.12" x2="420.9" y2="19.12"/>
  <g>
    <rect class="cls-22" x="55.22" y="25.62" width="324.06" height="80.21" rx="2.6" ry="2.6"/>
    <rect class="cls-13" x="55.22" y="25.62" width="324.06" height="80.21" rx="2.6" ry="2.6"/>
  </g>
  <polyline class="cls-10" points="60.42 36.15 73.42 36.15 86.42 36.15"/>
  <path class="cls-11" d="M70.42,33.15l6,6M70.42,39.15l6-6"/>
  <polygon class="cls-21" points="98.09 31.22 99.38 31.22 99.38 39.62 103.99 39.62 103.99 40.7 98.09 40.7 98.09 31.22"/>
  <path class="cls-21" d="M106.62,32.27v3.37h1.61c.61,0,1.08-.14,1.39-.43.31-.29.48-.7.48-1.26s-.17-.96-.48-1.25c-.31-.29-.78-.43-1.39-.43h-1.61ZM109.83,36.25c.27.1.55.3.81.6.26.31.52.73.78,1.26l1.3,2.59h-1.38l-1.21-2.43c-.31-.62-.62-1.05-.91-1.26-.3-.21-.7-.31-1.21-.31h-1.39v4h-1.29v-9.48h2.9c1.08,0,1.89.23,2.42.68.53.45.81,1.14.81,2.05,0,.6-.14,1.11-.42,1.49-.29.39-.69.66-1.21.81Z"/>
  <path class="cls-21" d="M114.22,31.22h1.29v5.76c0,1.01.18,1.75.55,2.2.36.44.96.66,1.79.66s1.42-.22,1.78-.66c.36-.44.56-1.18.56-2.2v-5.76h1.29v5.91c0,1.25-.31,2.17-.92,2.8s-1.51.94-2.7.94-2.11-.31-2.72-.94-.91-1.55-.91-2.8v-5.91Z"/>
  <path class="cls-21" d="M130.77,30.83c-.57.99-.99,1.95-1.26,2.9-.29.95-.42,1.91-.42,2.89s.13,1.95.42,2.9c.27.96.69,1.91,1.26,2.89h-1.01c-.64-1-1.12-1.96-1.43-2.92-.31-.96-.47-1.91-.47-2.86s.16-1.89.47-2.85c.31-.96.78-1.94,1.43-2.94h1.01Z"/>
  <path class="cls-21" d="M138.57,34.95c.29-.52.64-.9,1.04-1.16.4-.25.88-.38,1.44-.38.73,0,1.3.26,1.7.78s.61,1.26.61,2.21v4.29h-1.17v-4.25c0-.68-.13-1.18-.36-1.52-.25-.32-.61-.49-1.1-.49-.61,0-1.09.21-1.44.61-.35.4-.52.95-.52,1.64v4.02h-1.17v-4.25c0-.68-.13-1.18-.36-1.52-.25-.32-.62-.49-1.12-.49-.6,0-1.08.21-1.43.61-.35.4-.52.95-.52,1.64v4.02h-1.17v-7.11h1.17v1.1c.26-.43.59-.75.96-.96.36-.21.81-.31,1.33-.31s.95.13,1.31.39c.36.26.62.65.81,1.14Z"/>
  <path class="cls-21" d="M148.52,33.42h0ZM145.58,37.89v-4.3h1.17v4.26c0,.68.13,1.17.39,1.51.26.34.65.51,1.18.51.62,0,1.13-.2,1.49-.6.36-.4.55-.95.55-1.65v-4.03h1.17v7.11h-1.17v-1.09c-.29.44-.62.75-.99.96-.38.2-.81.3-1.3.3-.82,0-1.44-.25-1.86-.75-.43-.49-.64-1.24-.64-2.22Z"/>
  <rect class="cls-21" x="153.94" y="30.82" width="1.17" height="9.88"/>
  <path class="cls-21" d="M158.71,31.57v2.02h2.4v.91h-2.4v3.86c0,.58.08.96.23,1.12.16.17.48.25.97.25h1.2v.98h-1.2c-.91,0-1.53-.17-1.87-.51-.34-.34-.51-.95-.51-1.83v-3.86h-.86v-.91h.86v-2.02h1.17Z"/>
  <path class="cls-21" d="M162.65,30.82h1.17v1.48h-1.17v-1.48ZM162.65,33.59h1.17v7.11h-1.17v-7.11Z"/>
  <rect class="cls-21" x="165.68" y="36.61" width="3.42" height="1.04"/>
  <path class="cls-21" d="M172.11,31.57v2.02h2.4v.91h-2.4v3.86c0,.58.08.96.23,1.12.16.17.48.25.97.25h1.2v.98h-1.2c-.91,0-1.53-.17-1.87-.51-.34-.34-.51-.95-.51-1.83v-3.86h-.86v-.91h.86v-2.02h1.17Z"/>
  <path class="cls-21" d="M176.05,30.82h1.17v1.48h-1.17v-1.48ZM176.05,33.59h1.17v7.11h-1.17v-7.11Z"/>
  <path class="cls-21" d="M184.58,36.51c-.01-.64-.2-1.14-.53-1.53-.35-.38-.82-.57-1.39-.57-.65,0-1.17.2-1.56.56-.39.36-.62.88-.68,1.55h4.16ZM185.75,36.85v.57h-5.37c.05.81.29,1.43.73,1.85.43.42,1.03.62,1.81.62.44,0,.88-.05,1.3-.16s.85-.27,1.26-.51v1.1c-.42.18-.85.33-1.29.4s-.9.13-1.34.13c-1.14,0-2.04-.33-2.7-.98-.66-.65-.99-1.55-.99-2.68s.31-2.08.94-2.77c.62-.68,1.48-1.03,2.55-1.03.96,0,1.72.31,2.27.92.55.62.83,1.46.83,2.51Z"/>
  <path class="cls-21" d="M191.78,34.68c-.13-.08-.27-.13-.43-.17-.16-.03-.32-.05-.51-.05-.66,0-1.17.22-1.52.65-.36.43-.53,1.04-.53,1.85v3.74h-1.17v-7.11h1.17v1.1c.23-.43.56-.75.95-.96.39-.21.87-.31,1.44-.31.08,0,.17.01.27.01.09.01.19.03.32.05v1.2Z"/>
  <path class="cls-21" d="M192.82,30.83h1.01c.62,1,1.1,1.98,1.42,2.94.31.96.48,1.91.48,2.85s-.17,1.9-.48,2.86c-.31.96-.79,1.92-1.42,2.92h-1.01c.56-.98.98-1.92,1.26-2.89.27-.95.42-1.91.42-2.9s-.14-1.94-.42-2.89c-.29-.95-.7-1.91-1.26-2.9Z"/>
  <polyline class="cls-16" points="60.42 55.23 73.42 55.23 86.42 55.23"/>
  <polygon class="cls-5" points="73.42 59.47 75.96 55.23 73.42 50.98 70.87 55.23 73.42 59.47"/>
  <polygon class="cls-21" points="98.09 50.3 103.54 50.3 103.54 51.38 99.38 51.38 99.38 54.17 103.13 54.17 103.13 55.25 99.38 55.25 99.38 59.77 98.09 59.77 98.09 50.3"/>
  <rect class="cls-21" x="105.56" y="50.3" width="1.29" height="9.48"/>
  <polygon class="cls-21" points="109.4 50.3 114.85 50.3 114.85 51.38 110.69 51.38 110.69 54.17 114.44 54.17 114.44 55.25 110.69 55.25 110.69 59.77 109.4 59.77 109.4 50.3"/>
  <path class="cls-21" d="M120.72,50.13c1.33,0,2.38.45,3.18,1.34.79.88,1.2,2.08,1.2,3.58s-.4,2.69-1.2,3.57c-.81.88-1.86,1.33-3.18,1.33s-2.4-.44-3.2-1.33c-.81-.88-1.2-2.07-1.2-3.57s.39-2.69,1.2-3.58c.79-.88,1.86-1.34,3.2-1.34ZM120.72,51.17c-.94,0-1.68.35-2.22,1.04-.55.7-.82,1.64-.82,2.83s.27,2.14.82,2.83c.55.7,1.29,1.04,2.22,1.04s1.66-.34,2.21-1.04c.55-.69.82-1.64.82-2.83s-.27-2.13-.82-2.83c-.55-.69-1.29-1.04-2.21-1.04Z"/>
  <path class="cls-21" d="M134,49.91c-.57.99-.99,1.95-1.26,2.9-.29.95-.42,1.91-.42,2.89s.13,1.95.42,2.9c.27.96.69,1.91,1.26,2.89h-1.01c-.64-1-1.12-1.96-1.43-2.92-.31-.96-.47-1.91-.47-2.86s.16-1.89.47-2.85c.31-.96.78-1.94,1.43-2.94h1.01Z"/>
  <path class="cls-21" d="M141.8,54.03c.29-.52.64-.9,1.04-1.16.4-.25.88-.38,1.44-.38.73,0,1.3.26,1.7.78s.61,1.26.61,2.21v4.29h-1.17v-4.25c0-.68-.13-1.18-.36-1.52-.25-.32-.61-.49-1.1-.49-.61,0-1.09.21-1.44.61-.35.4-.52.95-.52,1.64v4.02h-1.17v-4.25c0-.68-.13-1.18-.36-1.52-.25-.32-.62-.49-1.12-.49-.6,0-1.08.21-1.43.61-.35.4-.52.95-.52,1.64v4.02h-1.17v-7.11h1.17v1.1c.26-.43.59-.75.96-.96.36-.21.81-.31,1.33-.31s.95.13,1.31.39c.36.26.62.65.81,1.14Z"/>
  <path class="cls-21" d="M151.74,52.49h0ZM148.8,56.97v-4.3h1.17v4.26c0,.68.13,1.17.39,1.51.26.34.65.51,1.18.51.62,0,1.13-.2,1.49-.6.36-.4.55-.95.55-1.65v-4.03h1.17v7.11h-1.17v-1.09c-.29.44-.62.75-.99.96-.38.2-.81.3-1.3.3-.82,0-1.44-.25-1.86-.75-.43-.49-.64-1.24-.64-2.22Z"/>
  <rect class="cls-21" x="157.16" y="49.89" width="1.17" height="9.88"/>
  <path class="cls-21" d="M161.93,50.65v2.02h2.4v.91h-2.4v3.86c0,.58.08.96.23,1.12.16.17.48.25.97.25h1.2v.98h-1.2c-.91,0-1.53-.17-1.87-.51-.34-.34-.51-.95-.51-1.83v-3.86h-.86v-.91h.86v-2.02h1.17Z"/>
  <path class="cls-21" d="M165.87,49.89h1.17v1.48h-1.17v-1.48ZM165.87,52.66h1.17v7.11h-1.17v-7.11Z"/>
  <rect class="cls-21" x="168.9" y="55.69" width="3.42" height="1.04"/>
  <path class="cls-21" d="M175.34,50.65v2.02h2.4v.91h-2.4v3.86c0,.58.08.96.23,1.12.16.17.48.25.97.25h1.2v.98h-1.2c-.91,0-1.53-.17-1.87-.51-.34-.34-.51-.95-.51-1.83v-3.86h-.86v-.91h.86v-2.02h1.17Z"/>
  <path class="cls-21" d="M179.27,49.89h1.17v1.48h-1.17v-1.48ZM179.27,52.66h1.17v7.11h-1.17v-7.11Z"/>
  <path class="cls-21" d="M187.8,55.59c-.01-.64-.2-1.14-.53-1.53-.35-.38-.82-.57-1.39-.57-.65,0-1.17.2-1.56.56-.39.36-.62.88-.68,1.55h4.16ZM188.97,55.93v.57h-5.37c.05.81.29,1.43.73,1.85.43.42,1.03.62,1.81.62.44,0,.88-.05,1.3-.16s.85-.27,1.26-.51v1.1c-.42.18-.85.33-1.29.4s-.9.13-1.34.13c-1.14,0-2.04-.33-2.7-.98-.66-.65-.99-1.55-.99-2.68s.31-2.08.94-2.77c.62-.68,1.48-1.03,2.55-1.03.96,0,1.72.31,2.27.92.55.62.83,1.46.83,2.51Z"/>
  <path class="cls-21" d="M195,53.76c-.13-.08-.27-.13-.43-.17-.16-.03-.32-.05-.51-.05-.66,0-1.17.22-1.52.65-.36.43-.53,1.04-.53,1.85v3.74h-1.17v-7.11h1.17v1.1c.23-.43.56-.75.95-.96.39-.21.87-.31,1.44-.31.08,0,.17.01.27.01.09.01.19.03.32.05v1.2Z"/>
  <path class="cls-21" d="M196.04,49.91h1.01c.62,1,1.1,1.98,1.42,2.94.31.96.48,1.91.48,2.85s-.17,1.9-.48,2.86c-.31.96-.79,1.92-1.42,2.92h-1.01c.56-.98.98-1.92,1.26-2.89.27-.95.42-1.91.42-2.9s-.14-1.94-.42-2.89c-.29-.95-.7-1.91-1.26-2.9Z"/>
  <polyline class="cls-14" points="60.42 74.3 73.42 74.3 86.42 74.3"/>
  <path class="cls-6" d="M73.42,77.3c.8,0,1.56-.32,2.12-.88.56-.56.88-1.33.88-2.12s-.32-1.56-.88-2.12c-.56-.56-1.33-.88-2.12-.88s-1.56.32-2.12.88c-.56.56-.88,1.33-.88,2.12s.32,1.56.88,2.12c.56.56,1.33.88,2.12.88Z"/>
  <path class="cls-21" d="M97.95,69.38h1.29v5.76c0,1.01.18,1.75.55,2.2.36.44.96.66,1.79.66s1.42-.22,1.78-.66c.36-.44.56-1.18.56-2.2v-5.76h1.29v5.91c0,1.25-.31,2.17-.92,2.8s-1.51.94-2.7.94-2.11-.31-2.72-.94-.91-1.55-.91-2.8v-5.91Z"/>
  <polygon class="cls-21" points="107.61 69.38 109.33 69.38 113.53 77.31 113.53 69.38 114.78 69.38 114.78 78.85 113.05 78.85 108.85 70.92 108.85 78.85 107.61 78.85 107.61 69.38"/>
  <rect class="cls-21" x="117.33" y="69.38" width="1.29" height="9.48"/>
  <polygon class="cls-21" points="121.16 69.38 126.61 69.38 126.61 70.46 122.45 70.46 122.45 73.25 126.21 73.25 126.21 74.33 122.45 74.33 122.45 78.85 121.16 78.85 121.16 69.38"/>
  <path class="cls-21" d="M135.53,68.99c-.57.99-.99,1.95-1.26,2.9-.29.95-.42,1.91-.42,2.89s.13,1.95.42,2.9c.27.96.69,1.91,1.26,2.89h-1.01c-.64-1-1.12-1.96-1.43-2.92-.31-.96-.47-1.91-.47-2.86s.16-1.89.47-2.85c.31-.96.78-1.94,1.43-2.94h1.01Z"/>
  <path class="cls-21" d="M143.33,73.11c.29-.52.64-.9,1.04-1.16.4-.25.88-.38,1.44-.38.73,0,1.3.26,1.7.78s.61,1.26.61,2.21v4.29h-1.17v-4.25c0-.68-.13-1.18-.36-1.52-.25-.32-.61-.49-1.1-.49-.61,0-1.09.21-1.44.61-.35.4-.52.95-.52,1.64v4.02h-1.17v-4.25c0-.68-.13-1.18-.36-1.52-.25-.32-.62-.49-1.12-.49-.6,0-1.08.21-1.43.61-.35.4-.52.95-.52,1.64v4.02h-1.17v-7.11h1.17v1.1c.26-.43.59-.75.96-.96.36-.21.81-.31,1.33-.31s.95.13,1.31.39c.36.26.62.65.81,1.14Z"/>
  <path class="cls-21" d="M153.27,71.57h0ZM150.34,76.05v-4.3h1.17v4.26c0,.68.13,1.17.39,1.51.26.34.65.51,1.18.51.62,0,1.13-.2,1.49-.6.36-.4.55-.95.55-1.65v-4.03h1.17v7.11h-1.17v-1.09c-.29.44-.62.75-.99.96-.38.2-.81.3-1.3.3-.82,0-1.44-.25-1.86-.75-.43-.49-.64-1.24-.64-2.22Z"/>
  <rect class="cls-21" x="158.7" y="68.97" width="1.17" height="9.88"/>
  <path class="cls-21" d="M163.47,69.73v2.02h2.4v.91h-2.4v3.86c0,.58.08.96.23,1.12.16.17.48.25.97.25h1.2v.98h-1.2c-.91,0-1.53-.17-1.87-.51-.34-.34-.51-.95-.51-1.83v-3.86h-.86v-.91h.86v-2.02h1.17Z"/>
  <path class="cls-21" d="M167.41,68.97h1.17v1.48h-1.17v-1.48ZM167.41,71.74h1.17v7.11h-1.17v-7.11Z"/>
  <rect class="cls-21" x="170.43" y="74.77" width="3.42" height="1.04"/>
  <path class="cls-21" d="M176.87,69.73v2.02h2.4v.91h-2.4v3.86c0,.58.08.96.23,1.12.16.17.48.25.97.25h1.2v.98h-1.2c-.91,0-1.53-.17-1.87-.51-.34-.34-.51-.95-.51-1.83v-3.86h-.86v-.91h.86v-2.02h1.17Z"/>
  <path class="cls-21" d="M180.81,68.97h1.17v1.48h-1.17v-1.48ZM180.81,71.74h1.17v7.11h-1.17v-7.11Z"/>
  <path class="cls-21" d="M189.34,74.67c-.01-.64-.2-1.14-.53-1.53-.35-.38-.82-.57-1.39-.57-.65,0-1.17.2-1.56.56-.39.36-.62.88-.68,1.55h4.16ZM190.51,75.01v.57h-5.37c.05.81.29,1.43.73,1.85.43.42,1.03.62,1.81.62.44,0,.88-.05,1.3-.16s.85-.27,1.26-.51v1.1c-.42.18-.85.33-1.29.4s-.9.13-1.34.13c-1.14,0-2.04-.33-2.7-.98-.66-.65-.99-1.55-.99-2.68s.31-2.08.94-2.77c.62-.68,1.48-1.03,2.55-1.03.96,0,1.72.31,2.27.92.55.62.83,1.46.83,2.51Z"/>
  <path class="cls-21" d="M196.54,72.83c-.13-.08-.27-.13-.43-.17-.16-.03-.32-.05-.51-.05-.66,0-1.17.22-1.52.65-.36.43-.53,1.04-.53,1.85v3.74h-1.17v-7.11h1.17v1.1c.23-.43.56-.75.95-.96.39-.21.87-.31,1.44-.31.08,0,.17.01.27.01.09.01.19.03.32.05v1.2Z"/>
  <path class="cls-21" d="M197.58,68.99h1.01c.62,1,1.1,1.98,1.42,2.94.31.96.48,1.91.48,2.85s-.17,1.9-.48,2.86c-.31.96-.79,1.92-1.42,2.92h-1.01c.56-.98.98-1.92,1.26-2.89.27-.95.42-1.91.42-2.9s-.14-1.94-.42-2.89c-.29-.95-.7-1.91-1.26-2.9Z"/>
  <polyline class="cls-8" points="60.42 93.38 73.42 93.38 86.42 93.38"/>
  <polygon class="cls-21" points="98.09 88.45 99.82 88.45 104.02 96.38 104.02 88.45 105.27 88.45 105.27 97.93 103.54 97.93 99.34 90 99.34 97.93 98.09 97.93 98.09 88.45"/>
  <path class="cls-21" d="M110.52,90.65c1.01,0,1.81.34,2.39.99.57.66.87,1.57.87,2.74s-.3,2.08-.87,2.73c-.58.66-1.38.99-2.39.99s-1.83-.33-2.4-.99c-.57-.65-.86-1.56-.86-2.73s.29-2.08.86-2.74c.57-.65,1.38-.99,2.4-.99ZM110.52,91.64c-.62,0-1.12.25-1.48.74-.36.49-.55,1.16-.55,2s.17,1.52.53,2.01.86.73,1.49.73,1.12-.23,1.48-.73.55-1.16.55-2.01-.18-1.51-.55-2c-.36-.49-.86-.74-1.48-.74Z"/>
  <path class="cls-21" d="M124.97,91.09v1.09c-.34-.18-.66-.31-1-.4-.34-.09-.66-.14-1-.14-.75,0-1.35.25-1.77.73s-.62,1.16-.62,2.01.21,1.55.62,2.03,1.01.71,1.77.71c.34,0,.66-.04,1-.13.34-.09.66-.23,1-.42v1.08c-.34.16-.68.27-1.01.34-.35.07-.73.1-1.12.1-1.07,0-1.92-.33-2.55-1-.64-.66-.95-1.57-.95-2.72s.31-2.07.95-2.73c.64-.66,1.51-1,2.63-1,.36,0,.71.04,1.05.12.34.08.68.18,1,.32Z"/>
  <path class="cls-21" d="M132.57,93.88v4.06h-1.17v-1.08c-.27.44-.61.75-1,.95-.39.2-.88.3-1.46.3-.73,0-1.31-.2-1.74-.6s-.64-.95-.64-1.64c0-.79.26-1.39.81-1.81.53-.4,1.33-.61,2.39-.61h1.64v-.12c0-.53-.18-.95-.53-1.25-.35-.29-.84-.44-1.48-.44-.42,0-.81.05-1.2.16s-.75.25-1.1.43v-1.08c.42-.16.83-.29,1.24-.36.4-.08.79-.13,1.18-.13,1.03,0,1.79.27,2.3.81s.77,1.34.77,2.42ZM130.24,94.36c-.95,0-1.6.12-1.96.32-.36.22-.55.59-.55,1.1,0,.42.13.75.4.99.27.25.65.36,1.12.36.65,0,1.17-.22,1.56-.69.39-.46.58-1.07.58-1.83v-.26h-1.16Z"/>
  <path class="cls-21" d="M140.09,91.09v1.09c-.34-.18-.66-.31-1-.4s-.66-.14-1-.14c-.75,0-1.35.25-1.77.73s-.62,1.16-.62,2.01.21,1.55.62,2.03,1.01.71,1.77.71c.34,0,.66-.04,1-.13.34-.09.66-.23,1-.42v1.08c-.34.16-.68.27-1.01.34-.35.07-.73.1-1.12.1-1.07,0-1.92-.33-2.55-1-.64-.66-.95-1.57-.95-2.72s.31-2.07.95-2.73c.64-.66,1.51-1,2.63-1,.36,0,.72.04,1.05.12.34.08.68.18,1,.32Z"/>
  <path class="cls-21" d="M148.04,93.64v4.29h-1.17v-4.25c0-.68-.14-1.17-.4-1.51-.26-.34-.65-.51-1.17-.51-.64,0-1.13.21-1.49.61s-.55.95-.55,1.64v4.02h-1.17v-9.88h1.17v3.87c.27-.42.6-.74.99-.95.38-.21.82-.32,1.31-.32.81,0,1.43.26,1.85.77s.64,1.25.64,2.22Z"/>
  <path class="cls-21" d="M150.36,88.05h1.17v1.48h-1.17v-1.48ZM150.36,90.82h1.17v7.11h-1.17v-7.11Z"/>
  <path class="cls-21" d="M159.89,93.64v4.29h-1.17v-4.25c0-.68-.14-1.17-.4-1.51-.26-.34-.65-.51-1.17-.51-.64,0-1.13.21-1.49.61s-.55.95-.55,1.64v4.02h-1.17v-7.11h1.17v1.11c.27-.42.6-.74.99-.95.38-.21.82-.32,1.31-.32.81,0,1.43.26,1.85.77s.64,1.25.64,2.22Z"/>
  <path class="cls-21" d="M168.07,97.05c0,1.2-.27,2.09-.81,2.69-.55.58-1.37.88-2.47.88-.42,0-.79-.04-1.16-.09-.36-.07-.73-.16-1.07-.29v-1.13c.34.18.68.31,1.01.4.34.09.68.14,1.03.14.75,0,1.33-.21,1.72-.6.38-.4.57-1,.57-1.81v-.57c-.25.42-.56.73-.94.94-.38.21-.82.31-1.34.31-.88,0-1.59-.32-2.12-.99-.53-.66-.79-1.55-.79-2.65s.26-1.98.79-2.64c.53-.66,1.24-1,2.12-1,.52,0,.96.1,1.34.31.38.21.69.52.94.94v-1.08h1.17v6.23ZM166.9,94.29c0-.83-.18-1.49-.52-1.96-.35-.47-.85-.7-1.47-.7s-1.12.23-1.47.7-.52,1.13-.52,1.96.17,1.49.52,1.96.85.7,1.47.7,1.12-.23,1.47-.7c.34-.47.52-1.12.52-1.96Z"/>
  <polyline class="cls-12" points="227.61 36.15 240.61 36.15 253.61 36.15"/>
  <path class="cls-11" d="M237.61,33.15l6,6M237.61,39.15l6-6"/>
  <polygon class="cls-21" points="265.29 31.22 266.57 31.22 266.57 39.62 271.19 39.62 271.19 40.7 265.29 40.7 265.29 31.22"/>
  <path class="cls-21" d="M273.81,32.27v3.37h1.61c.61,0,1.08-.14,1.39-.43.31-.29.48-.7.48-1.26s-.17-.96-.48-1.25c-.31-.29-.78-.43-1.39-.43h-1.61ZM277.03,36.25c.27.1.55.3.81.6.26.31.52.73.78,1.26l1.3,2.59h-1.38l-1.21-2.43c-.31-.62-.62-1.05-.91-1.26-.3-.21-.7-.31-1.21-.31h-1.39v4h-1.29v-9.48h2.9c1.08,0,1.89.23,2.42.68.53.45.81,1.14.81,2.05,0,.6-.14,1.11-.42,1.49-.29.39-.69.66-1.21.81Z"/>
  <path class="cls-21" d="M281.42,31.22h1.29v5.76c0,1.01.18,1.75.55,2.2.36.44.96.66,1.79.66s1.42-.22,1.78-.66c.36-.44.56-1.18.56-2.2v-5.76h1.29v5.91c0,1.25-.31,2.17-.92,2.8s-1.51.94-2.7.94-2.11-.31-2.72-.94c-.61-.62-.91-1.55-.91-2.8v-5.91Z"/>
  <path class="cls-21" d="M297.97,30.83c-.57.99-.99,1.95-1.26,2.9-.29.95-.42,1.91-.42,2.89s.13,1.95.42,2.9c.27.96.69,1.91,1.26,2.89h-1.01c-.64-1-1.12-1.96-1.43-2.92-.31-.96-.47-1.91-.47-2.86s.16-1.89.47-2.85c.31-.96.78-1.94,1.43-2.94h1.01Z"/>
  <path class="cls-21" d="M304.77,33.79v1.11c-.34-.16-.68-.29-1.03-.38-.36-.08-.73-.13-1.1-.13-.59,0-1.03.09-1.31.27-.29.18-.43.44-.43.79,0,.27.1.48.31.64.21.16.62.31,1.25.44l.4.09c.83.18,1.42.44,1.77.75.34.33.52.78.52,1.35,0,.66-.26,1.18-.78,1.56-.52.39-1.25.57-2.16.57-.39,0-.78-.04-1.2-.1-.42-.07-.85-.17-1.3-.33v-1.21c.43.23.86.4,1.27.51.42.12.83.17,1.25.17.55,0,.98-.09,1.27-.27.29-.18.44-.45.44-.81,0-.31-.12-.56-.33-.73-.21-.17-.68-.34-1.4-.49l-.4-.09c-.73-.16-1.26-.39-1.57-.7-.32-.31-.48-.74-.48-1.3,0-.66.23-1.18.7-1.55.47-.36,1.14-.55,2.03-.55.43,0,.83.04,1.22.1.38.07.73.16,1.05.27Z"/>
  <path class="cls-21" d="M307,30.82h1.17v1.48h-1.17v-1.48ZM307,33.59h1.17v7.11h-1.17v-7.11Z"/>
  <path class="cls-21" d="M316.53,36.41v4.29h-1.17v-4.25c0-.68-.14-1.17-.4-1.51-.26-.34-.65-.51-1.17-.51-.64,0-1.13.21-1.5.61-.36.4-.55.95-.55,1.64v4.02h-1.17v-7.11h1.17v1.1c.27-.42.6-.74.99-.95.38-.21.82-.33,1.31-.33.81,0,1.43.26,1.85.77s.64,1.25.64,2.22Z"/>
  <path class="cls-21" d="M324.71,39.81c0,1.2-.27,2.09-.81,2.69-.55.58-1.36.88-2.47.88-.42,0-.79-.04-1.16-.09-.36-.07-.73-.16-1.07-.29v-1.13c.34.18.68.31,1.01.4.34.09.68.14,1.03.14.75,0,1.33-.21,1.72-.6.38-.4.57-1,.57-1.81v-.57c-.25.42-.56.73-.94.94-.38.21-.82.31-1.34.31-.88,0-1.59-.33-2.12-.99s-.79-1.55-.79-2.65.26-1.98.79-2.64,1.24-1,2.12-1c.52,0,.96.1,1.34.31.38.21.69.52.94.94v-1.08h1.17v6.23ZM323.54,37.06c0-.83-.18-1.49-.52-1.96-.35-.47-.85-.7-1.47-.7s-1.12.23-1.47.7c-.35.47-.52,1.13-.52,1.96s.17,1.5.52,1.96.85.7,1.47.7,1.12-.23,1.47-.7c.34-.47.52-1.12.52-1.96Z"/>
  <rect class="cls-21" x="327.11" y="30.82" width="1.17" height="9.88"/>
  <path class="cls-21" d="M335.64,36.51c-.01-.64-.19-1.14-.53-1.53-.35-.38-.82-.57-1.39-.57-.65,0-1.17.2-1.56.56-.39.36-.62.88-.68,1.55h4.16ZM336.81,36.85v.57h-5.37c.05.81.29,1.43.73,1.85.43.42,1.03.62,1.81.62.44,0,.88-.05,1.3-.16.42-.1.85-.27,1.26-.51v1.1c-.42.18-.85.33-1.29.4-.44.08-.9.13-1.34.13-1.14,0-2.04-.33-2.7-.98s-.99-1.55-.99-2.68.31-2.08.94-2.77c.62-.68,1.48-1.03,2.55-1.03.96,0,1.72.31,2.27.92.55.62.83,1.46.83,2.51Z"/>
  <rect class="cls-21" x="338.14" y="36.61" width="3.42" height="1.04"/>
  <path class="cls-21" d="M344.57,31.57v2.02h2.4v.91h-2.4v3.86c0,.58.08.96.23,1.12.16.17.48.25.98.25h1.2v.98h-1.2c-.91,0-1.53-.17-1.87-.51s-.51-.95-.51-1.83v-3.86h-.86v-.91h.86v-2.02h1.17Z"/>
  <path class="cls-21" d="M348.51,30.82h1.17v1.48h-1.17v-1.48ZM348.51,33.59h1.17v7.11h-1.17v-7.11Z"/>
  <path class="cls-21" d="M357.04,36.51c-.01-.64-.19-1.14-.53-1.53-.35-.38-.82-.57-1.39-.57-.65,0-1.17.2-1.56.56-.39.36-.62.88-.68,1.55h4.16ZM358.21,36.85v.57h-5.37c.05.81.29,1.43.73,1.85.43.42,1.03.62,1.81.62.44,0,.88-.05,1.3-.16.42-.1.85-.27,1.26-.51v1.1c-.42.18-.85.33-1.29.4-.44.08-.9.13-1.34.13-1.14,0-2.04-.33-2.7-.98s-.99-1.55-.99-2.68.31-2.08.94-2.77c.62-.68,1.48-1.03,2.55-1.03.96,0,1.72.31,2.27.92.55.62.83,1.46.83,2.51Z"/>
  <path class="cls-21" d="M364.24,34.68c-.13-.08-.27-.13-.43-.17-.16-.03-.33-.05-.51-.05-.66,0-1.17.22-1.52.65-.36.43-.53,1.04-.53,1.85v3.74h-1.17v-7.11h1.17v1.1c.23-.43.56-.75.95-.96.39-.21.87-.31,1.44-.31.08,0,.17.01.27.01.09.01.2.03.32.05v1.2Z"/>
  <path class="cls-21" d="M365.28,30.83h1.01c.62,1,1.11,1.98,1.42,2.94.31.96.48,1.91.48,2.85s-.17,1.9-.48,2.86c-.31.96-.79,1.92-1.42,2.92h-1.01c.56-.98.98-1.92,1.26-2.89.27-.95.42-1.91.42-2.9s-.14-1.94-.42-2.89c-.29-.95-.7-1.91-1.26-2.9Z"/>
  <polyline class="cls-18" points="227.61 55.23 240.61 55.23 253.61 55.23"/>
  <polygon class="cls-5" points="240.61 59.47 243.16 55.23 240.61 50.98 238.07 55.23 240.61 59.47"/>
  <polygon class="cls-21" points="265.29 50.3 270.73 50.3 270.73 51.38 266.57 51.38 266.57 54.17 270.33 54.17 270.33 55.25 266.57 55.25 266.57 59.77 265.29 59.77 265.29 50.3"/>
  <rect class="cls-21" x="272.76" y="50.3" width="1.29" height="9.48"/>
  <polygon class="cls-21" points="276.6 50.3 282.04 50.3 282.04 51.38 277.88 51.38 277.88 54.17 281.64 54.17 281.64 55.25 277.88 55.25 277.88 59.77 276.6 59.77 276.6 50.3"/>
  <path class="cls-21" d="M287.92,50.13c1.33,0,2.38.45,3.18,1.34.79.88,1.2,2.08,1.2,3.58s-.4,2.69-1.2,3.57c-.81.88-1.86,1.33-3.18,1.33s-2.4-.44-3.2-1.33c-.81-.88-1.2-2.07-1.2-3.57s.39-2.69,1.2-3.58c.79-.88,1.86-1.34,3.2-1.34ZM287.92,51.17c-.94,0-1.68.35-2.22,1.04-.55.7-.82,1.64-.82,2.83s.27,2.14.82,2.83c.55.7,1.29,1.04,2.22,1.04s1.66-.34,2.21-1.04c.55-.69.82-1.64.82-2.83s-.27-2.13-.82-2.83c-.55-.69-1.29-1.04-2.21-1.04Z"/>
  <path class="cls-21" d="M301.19,49.91c-.57.99-.99,1.95-1.26,2.9-.29.95-.42,1.91-.42,2.89s.13,1.95.42,2.9c.27.96.69,1.91,1.26,2.89h-1.01c-.64-1-1.12-1.96-1.43-2.92-.31-.96-.47-1.91-.47-2.86s.16-1.89.47-2.85c.31-.96.78-1.94,1.43-2.94h1.01Z"/>
  <path class="cls-21" d="M307.99,52.87v1.11c-.34-.16-.68-.29-1.03-.38-.36-.08-.73-.13-1.1-.13-.59,0-1.03.09-1.31.27-.29.18-.43.44-.43.79,0,.27.1.48.31.64.21.16.62.31,1.25.44l.4.09c.83.18,1.42.44,1.77.75.34.33.52.78.52,1.35,0,.66-.26,1.18-.78,1.56-.52.39-1.25.57-2.16.57-.39,0-.78-.04-1.2-.1-.42-.07-.85-.17-1.3-.33v-1.21c.43.23.86.4,1.27.51.42.12.83.17,1.25.17.55,0,.98-.09,1.27-.27.29-.18.44-.45.44-.81,0-.31-.12-.56-.33-.73-.21-.17-.68-.34-1.4-.49l-.4-.09c-.73-.16-1.26-.39-1.57-.7-.32-.31-.48-.74-.48-1.3,0-.66.23-1.18.7-1.55.47-.36,1.14-.55,2.03-.55.43,0,.83.04,1.22.1.38.07.73.16,1.05.27Z"/>
  <path class="cls-21" d="M310.23,49.89h1.17v1.48h-1.17v-1.48ZM310.23,52.66h1.17v7.11h-1.17v-7.11Z"/>
  <path class="cls-21" d="M319.76,55.48v4.29h-1.17v-4.25c0-.68-.14-1.17-.4-1.51-.26-.34-.65-.51-1.17-.51-.64,0-1.13.21-1.5.61-.36.4-.55.95-.55,1.64v4.02h-1.17v-7.11h1.17v1.1c.27-.42.6-.74.99-.95.38-.21.82-.33,1.31-.33.81,0,1.43.26,1.85.77s.64,1.25.64,2.22Z"/>
  <path class="cls-21" d="M327.93,58.89c0,1.2-.27,2.09-.81,2.69-.55.58-1.36.88-2.47.88-.42,0-.79-.04-1.16-.09-.36-.07-.73-.16-1.07-.29v-1.13c.34.18.68.31,1.01.4.34.09.68.14,1.03.14.75,0,1.33-.21,1.72-.6.38-.4.57-1,.57-1.81v-.57c-.25.42-.56.73-.94.94-.38.21-.82.31-1.34.31-.88,0-1.59-.33-2.12-.99s-.79-1.55-.79-2.65.26-1.98.79-2.64,1.24-1,2.12-1c.52,0,.96.1,1.34.31.38.21.69.52.94.94v-1.08h1.17v6.23ZM326.76,56.13c0-.83-.18-1.49-.52-1.96-.35-.47-.85-.7-1.47-.7s-1.12.23-1.47.7c-.35.47-.52,1.13-.52,1.96s.17,1.5.52,1.96.85.7,1.47.7,1.12-.23,1.47-.7c.34-.47.52-1.12.52-1.96Z"/>
  <rect class="cls-21" x="330.34" y="49.89" width="1.17" height="9.88"/>
  <path class="cls-21" d="M338.87,55.59c-.01-.64-.19-1.14-.53-1.53-.35-.38-.82-.57-1.39-.57-.65,0-1.17.2-1.56.56-.39.36-.62.88-.68,1.55h4.16ZM340.04,55.93v.57h-5.37c.05.81.29,1.43.73,1.85.43.42,1.03.62,1.81.62.44,0,.88-.05,1.3-.16.42-.1.85-.27,1.26-.51v1.1c-.42.18-.85.33-1.29.4-.44.08-.9.13-1.34.13-1.14,0-2.04-.33-2.7-.98s-.99-1.55-.99-2.68.31-2.08.94-2.77c.62-.68,1.48-1.03,2.55-1.03.96,0,1.72.31,2.27.92.55.62.83,1.46.83,2.51Z"/>
  <rect class="cls-21" x="341.36" y="55.69" width="3.42" height="1.04"/>
  <path class="cls-21" d="M347.8,50.65v2.02h2.4v.91h-2.4v3.86c0,.58.08.96.23,1.12.16.17.48.25.98.25h1.2v.98h-1.2c-.91,0-1.53-.17-1.87-.51s-.51-.95-.51-1.83v-3.86h-.86v-.91h.86v-2.02h1.17Z"/>
  <path class="cls-21" d="M351.74,49.89h1.17v1.48h-1.17v-1.48ZM351.74,52.66h1.17v7.11h-1.17v-7.11Z"/>
  <path class="cls-21" d="M360.26,55.59c-.01-.64-.19-1.14-.53-1.53-.35-.38-.82-.57-1.39-.57-.65,0-1.17.2-1.56.56-.39.36-.62.88-.68,1.55h4.16ZM361.43,55.93v.57h-5.37c.05.81.29,1.43.73,1.85.43.42,1.03.62,1.81.62.44,0,.88-.05,1.3-.16.42-.1.85-.27,1.26-.51v1.1c-.42.18-.85.33-1.29.4-.44.08-.9.13-1.34.13-1.14,0-2.04-.33-2.7-.98s-.99-1.55-.99-2.68.31-2.08.94-2.77c.62-.68,1.48-1.03,2.55-1.03.96,0,1.72.31,2.27.92.55.62.83,1.46.83,2.51Z"/>
  <path class="cls-21" d="M367.47,53.76c-.13-.08-.27-.13-.43-.17-.16-.03-.33-.05-.51-.05-.66,0-1.17.22-1.52.65-.36.43-.53,1.04-.53,1.85v3.74h-1.17v-7.11h1.17v1.1c.23-.43.56-.75.95-.96.39-.21.87-.31,1.44-.31.08,0,.17.01.27.01.09.01.2.03.32.05v1.2Z"/>
  <path class="cls-21" d="M368.51,49.91h1.01c.62,1,1.11,1.98,1.42,2.94.31.96.48,1.91.48,2.85s-.17,1.9-.48,2.86c-.31.96-.79,1.92-1.42,2.92h-1.01c.56-.98.98-1.92,1.26-2.89.27-.95.42-1.91.42-2.9s-.14-1.94-.42-2.89c-.29-.95-.7-1.91-1.26-2.9Z"/>
  <polyline class="cls-7" points="227.61 74.3 240.61 74.3 253.61 74.3"/>
  <path class="cls-6" d="M240.61,77.3c.8,0,1.56-.32,2.12-.88.56-.56.88-1.33.88-2.12s-.32-1.56-.88-2.12c-.56-.56-1.33-.88-2.12-.88s-1.56.32-2.12.88c-.56.56-.88,1.33-.88,2.12s.32,1.56.88,2.12c.56.56,1.33.88,2.12.88Z"/>
  <path class="cls-21" d="M265.14,69.38h1.29v5.76c0,1.01.18,1.75.55,2.2.36.44.96.66,1.79.66s1.42-.22,1.78-.66c.36-.44.56-1.18.56-2.2v-5.76h1.29v5.91c0,1.25-.31,2.17-.92,2.8s-1.51.94-2.7.94-2.11-.31-2.72-.94c-.61-.62-.91-1.55-.91-2.8v-5.91Z"/>
  <polygon class="cls-21" points="274.8 69.38 276.53 69.38 280.73 77.31 280.73 69.38 281.98 69.38 281.98 78.85 280.25 78.85 276.05 70.92 276.05 78.85 274.8 78.85 274.8 69.38"/>
  <rect class="cls-21" x="284.53" y="69.38" width="1.29" height="9.48"/>
  <polygon class="cls-21" points="288.36 69.38 293.81 69.38 293.81 70.46 289.65 70.46 289.65 73.25 293.41 73.25 293.41 74.33 289.65 74.33 289.65 78.85 288.36 78.85 288.36 69.38"/>
  <path class="cls-21" d="M302.73,68.99c-.57.99-.99,1.95-1.26,2.9-.29.95-.42,1.91-.42,2.89s.13,1.95.42,2.9c.27.96.69,1.91,1.26,2.89h-1.01c-.64-1-1.12-1.96-1.43-2.92-.31-.96-.47-1.91-.47-2.86s.16-1.89.47-2.85c.31-.96.78-1.94,1.43-2.94h1.01Z"/>
  <path class="cls-21" d="M309.53,71.95v1.11c-.34-.16-.68-.29-1.03-.38-.36-.08-.73-.13-1.1-.13-.59,0-1.03.09-1.31.27-.29.18-.43.44-.43.79,0,.27.1.48.31.64.21.16.62.31,1.25.44l.4.09c.83.18,1.42.44,1.77.75.34.33.52.78.52,1.35,0,.66-.26,1.18-.78,1.56-.52.39-1.25.57-2.16.57-.39,0-.78-.04-1.2-.1-.42-.07-.85-.17-1.3-.33v-1.21c.43.23.86.4,1.27.51.42.12.83.17,1.25.17.55,0,.98-.09,1.27-.27.29-.18.44-.45.44-.81,0-.31-.12-.56-.33-.73-.21-.17-.68-.34-1.4-.49l-.4-.09c-.73-.16-1.26-.39-1.57-.7-.32-.31-.48-.74-.48-1.3,0-.66.23-1.18.7-1.55.47-.36,1.14-.55,2.03-.55.43,0,.83.04,1.22.1.38.07.73.16,1.05.27Z"/>
  <path class="cls-21" d="M311.76,68.97h1.17v1.48h-1.17v-1.48ZM311.76,71.74h1.17v7.11h-1.17v-7.11Z"/>
  <path class="cls-21" d="M321.29,74.56v4.29h-1.17v-4.25c0-.68-.14-1.17-.4-1.51-.26-.34-.65-.51-1.17-.51-.64,0-1.13.21-1.5.61-.36.4-.55.95-.55,1.64v4.02h-1.17v-7.11h1.17v1.1c.27-.42.6-.74.99-.95.38-.21.82-.33,1.31-.33.81,0,1.43.26,1.85.77.42.51.64,1.25.64,2.22Z"/>
  <path class="cls-21" d="M329.47,77.97c0,1.2-.27,2.09-.81,2.69-.55.58-1.36.88-2.47.88-.42,0-.79-.04-1.16-.09-.36-.07-.73-.16-1.07-.29v-1.13c.34.18.68.31,1.01.4.34.09.68.14,1.03.14.75,0,1.33-.21,1.72-.6.38-.4.57-1,.57-1.81v-.57c-.25.42-.56.73-.94.94-.38.21-.82.31-1.34.31-.88,0-1.59-.33-2.12-.99s-.79-1.55-.79-2.65.26-1.98.79-2.64,1.24-1,2.12-1c.52,0,.96.1,1.34.31.38.21.69.52.94.94v-1.08h1.17v6.23ZM328.3,75.21c0-.83-.18-1.49-.52-1.96-.35-.47-.85-.7-1.47-.7s-1.12.23-1.47.7c-.35.47-.52,1.13-.52,1.96s.17,1.5.52,1.96.85.7,1.47.7,1.12-.23,1.47-.7c.34-.47.52-1.12.52-1.96Z"/>
  <rect class="cls-21" x="331.87" y="68.97" width="1.17" height="9.88"/>
  <path class="cls-21" d="M340.4,74.67c-.01-.64-.19-1.14-.53-1.53-.35-.38-.82-.57-1.39-.57-.65,0-1.17.2-1.56.56-.39.36-.62.88-.68,1.55h4.16ZM341.57,75.01v.57h-5.37c.05.81.29,1.43.73,1.85.43.42,1.03.62,1.81.62.44,0,.88-.05,1.3-.16.42-.1.85-.27,1.26-.51v1.1c-.42.18-.85.33-1.29.4-.44.08-.9.13-1.34.13-1.14,0-2.04-.33-2.7-.98s-.99-1.55-.99-2.68.31-2.08.94-2.77c.62-.68,1.48-1.03,2.55-1.03.96,0,1.72.31,2.27.92.55.62.83,1.46.83,2.51Z"/>
  <rect class="cls-21" x="342.9" y="74.77" width="3.42" height="1.04"/>
  <path class="cls-21" d="M349.33,69.73v2.02h2.4v.91h-2.4v3.86c0,.58.08.96.23,1.12.16.17.48.25.98.25h1.2v.98h-1.2c-.91,0-1.53-.17-1.87-.51s-.51-.95-.51-1.83v-3.86h-.86v-.91h.86v-2.02h1.17Z"/>
  <path class="cls-21" d="M353.27,68.97h1.17v1.48h-1.17v-1.48ZM353.27,71.74h1.17v7.11h-1.17v-7.11Z"/>
  <path class="cls-21" d="M361.8,74.67c-.01-.64-.19-1.14-.53-1.53-.35-.38-.82-.57-1.39-.57-.65,0-1.17.2-1.56.56-.39.36-.62.88-.68,1.55h4.16ZM362.97,75.01v.57h-5.37c.05.81.29,1.43.73,1.85.43.42,1.03.62,1.81.62.44,0,.88-.05,1.3-.16.42-.1.85-.27,1.26-.51v1.1c-.42.18-.85.33-1.29.4-.44.08-.9.13-1.34.13-1.14,0-2.04-.33-2.7-.98s-.99-1.55-.99-2.68.31-2.08.94-2.77c.62-.68,1.48-1.03,2.55-1.03.96,0,1.72.31,2.27.92.55.62.83,1.46.83,2.51Z"/>
  <path class="cls-21" d="M369,72.83c-.13-.08-.27-.13-.43-.17-.16-.03-.33-.05-.51-.05-.66,0-1.17.22-1.52.65-.36.43-.53,1.04-.53,1.85v3.74h-1.17v-7.11h1.17v1.1c.23-.43.56-.75.95-.96.39-.21.87-.31,1.44-.31.08,0,.17.01.27.01.09.01.2.03.32.05v1.2Z"/>
  <path class="cls-21" d="M370.04,68.99h1.01c.62,1,1.11,1.98,1.42,2.94.31.96.48,1.91.48,2.85s-.17,1.9-.48,2.86c-.31.96-.79,1.92-1.42,2.92h-1.01c.56-.98.98-1.92,1.26-2.89.27-.95.42-1.91.42-2.9s-.14-1.94-.42-2.89c-.29-.95-.7-1.91-1.26-2.9Z"/>
</svg>