<?xml version="1.0" encoding="UTF-8"?>
<svg id="Layer_1" data-name="Layer 1" xmlns="http://www.w3.org/2000/svg" version="1.1" xmlns:xlink="http://www.w3.org/1999/xlink" viewBox="0 0 428.1 340.19">
  <defs>
    <style>
      .cls-1 {
        clip-path: url(#clippath-45);
      }

      .cls-2 {
        clip-path: url(#clippath-20);
      }

      .cls-3 {
        clip-path: url(#clippath-11);
      }

      .cls-4 {
        clip-path: url(#clippath-16);
      }

      .cls-5 {
        clip-path: url(#clippath-33);
      }

      .cls-6 {
        fill: #000;
      }

      .cls-6, .cls-7, .cls-8, .cls-9 {
        stroke-width: 0px;
      }

      .cls-10 {
        clip-path: url(#clippath-41);
      }

      .cls-11 {
        clip-path: url(#clippath-32);
      }

      .cls-12 {
        clip-path: url(#clippath-2);
      }

      .cls-13 {
        clip-path: url(#clippath-13);
      }

      .cls-14 {
        clip-path: url(#clippath-37);
      }

      .cls-15 {
        clip-path: url(#clippath-46);
      }

      .cls-16 {
        clip-path: url(#clippath-25);
      }

      .cls-17 {
        clip-path: url(#clippath-15);
      }

      .cls-18 {
        clip-path: url(#clippath-6);
      }

      .cls-19 {
        clip-path: url(#clippath-40);
      }

      .cls-20 {
        clip-path: url(#clippath-26);
      }

      .cls-7, .cls-21, .cls-22, .cls-23, .cls-24, .cls-25, .cls-26, .cls-27, .cls-28, .cls-29, .cls-30 {
        fill: none;
      }

      .cls-31 {
        clip-path: url(#clippath-7);
      }

      .cls-32 {
        clip-path: url(#clippath-21);
      }

      .cls-21, .cls-23, .cls-24, .cls-28, .cls-29, .cls-30 {
        stroke-linejoin: round;
      }

      .cls-21, .cls-23, .cls-24, .cls-29 {
        stroke-width: 1.5px;
      }

      .cls-21, .cls-23, .cls-27 {
        stroke: red;
      }

      .cls-21, .cls-24 {
        stroke-dasharray: 0 0 5.55 2.4;
      }

      .cls-33 {
        clip-path: url(#clippath-34);
      }

      .cls-34 {
        clip-path: url(#clippath-1);
      }

      .cls-35 {
        clip-path: url(#clippath-4);
      }

      .cls-36 {
        clip-path: url(#clippath-38);
      }

      .cls-37 {
        clip-path: url(#clippath-36);
      }

      .cls-38 {
        clip-path: url(#clippath-27);
      }

      .cls-8, .cls-22 {
        opacity: .8;
      }

      .cls-8, .cls-9 {
        fill: #fff;
      }

      .cls-39 {
        clip-path: url(#clippath-44);
      }

      .cls-40 {
        clip-path: url(#clippath-12);
      }

      .cls-22 {
        stroke: #ccc;
      }

      .cls-22, .cls-25, .cls-26, .cls-27 {
        stroke-miterlimit: 10;
      }

      .cls-23, .cls-25, .cls-29 {
        stroke-linecap: square;
      }

      .cls-41 {
        clip-path: url(#clippath-24);
      }

      .cls-42 {
        clip-path: url(#clippath-30);
      }

      .cls-24, .cls-26, .cls-29 {
        stroke: blue;
      }

      .cls-43 {
        clip-path: url(#clippath-22);
      }

      .cls-44 {
        clip-path: url(#clippath-9);
      }

      .cls-45 {
        clip-path: url(#clippath);
      }

      .cls-46 {
        clip-path: url(#clippath-39);
      }

      .cls-47 {
        clip-path: url(#clippath-19);
      }

      .cls-48 {
        clip-path: url(#clippath-31);
      }

      .cls-49 {
        clip-path: url(#clippath-3);
      }

      .cls-25, .cls-28, .cls-30 {
        stroke-width: .8px;
      }

      .cls-25, .cls-30 {
        stroke: #000;
      }

      .cls-50 {
        clip-path: url(#clippath-43);
      }

      .cls-51 {
        clip-path: url(#clippath-8);
      }

      .cls-52 {
        clip-path: url(#clippath-29);
      }

      .cls-53 {
        clip-path: url(#clippath-18);
      }

      .cls-54 {
        clip-path: url(#clippath-14);
      }

      .cls-55 {
        clip-path: url(#clippath-17);
      }

      .cls-56 {
        clip-path: url(#clippath-5);
      }

      .cls-28 {
        opacity: .5;
        stroke: #b0b0b0;
        stroke-dasharray: 0 0 2.96 1.28;
      }

      .cls-57 {
        clip-path: url(#clippath-42);
      }

      .cls-58 {
        clip-path: url(#clippath-10);
      }

      .cls-59 {
        clip-path: url(#clippath-23);
      }

      .cls-60 {
        clip-path: url(#clippath-28);
      }

      .cls-61 {
        clip-path: url(#clippath-35);
      }
    </style>
    <clipPath id="clippath">
      <rect class="cls-7" x="48.72" y="19.12" width="372.19" height="277.2"/>
    </clipPath>
    <clipPath id="clippath-1">
      <rect class="cls-7" x="48.72" y="19.12" width="372.19" height="277.2"/>
    </clipPath>
    <clipPath id="clippath-2">
      <rect class="cls-7" x="48.72" y="19.12" width="372.19" height="277.2"/>
    </clipPath>
    <clipPath id="clippath-3">
      <rect class="cls-7" x="48.72" y="19.12" width="372.19" height="277.2"/>
    </clipPath>
    <clipPath id="clippath-4">
      <rect class="cls-7" x="48.72" y="19.12" width="372.19" height="277.2"/>
    </clipPath>
    <clipPath id="clippath-5">
      <rect class="cls-7" x="48.72" y="19.12" width="372.19" height="277.2"/>
    </clipPath>
    <clipPath id="clippath-6">
      <rect class="cls-7" x="48.72" y="19.12" width="372.19" height="277.2"/>
    </clipPath>
    <clipPath id="clippath-7">
      <rect class="cls-7" x="297.37" y="309.89" width="42.22" height="25.44"/>
    </clipPath>
    <clipPath id="clippath-8">
      <rect class="cls-7" x="48.72" y="19.12" width="372.19" height="277.2"/>
    </clipPath>
    <clipPath id="clippath-9">
      <rect class="cls-7" x="48.72" y="19.12" width="372.19" height="277.2"/>
    </clipPath>
    <clipPath id="clippath-10">
      <rect class="cls-7" x="48.72" y="19.12" width="372.19" height="277.2"/>
    </clipPath>
    <clipPath id="clippath-11">
      <rect class="cls-7" x="48.72" y="19.12" width="372.19" height="277.2"/>
    </clipPath>
    <clipPath id="clippath-12">
      <rect class="cls-7" x="48.72" y="19.12" width="372.19" height="277.2"/>
    </clipPath>
    <clipPath id="clippath-13">
      <rect class="cls-7" x="48.72" y="19.12" width="372.19" height="277.2"/>
    </clipPath>
    <clipPath id="clippath-14">
      <rect class="cls-7" x="48.72" y="19.12" width="372.19" height="277.2"/>
    </clipPath>
    <clipPath id="clippath-15">
      <rect class="cls-7" x="48.72" y="19.12" width="372.19" height="277.2"/>
    </clipPath>
    <clipPath id="clippath-16">
      <rect class="cls-7" x="57.63" y="24.21" width="16" height="16"/>
    </clipPath>
    <clipPath id="clippath-17">
      <rect class="cls-7" x="114.02" y="163.55" width="16" height="16"/>
    </clipPath>
    <clipPath id="clippath-18">
      <rect class="cls-7" x="170.42" y="230.59" width="16" height="16"/>
    </clipPath>
    <clipPath id="clippath-19">
      <rect class="cls-7" x="226.81" y="262.96" width="16" height="16"/>
    </clipPath>
    <clipPath id="clippath-20">
      <rect class="cls-7" x="283.2" y="275.72" width="16" height="16"/>
    </clipPath>
    <clipPath id="clippath-21">
      <rect class="cls-7" x="339.59" y="275.37" width="16" height="16"/>
    </clipPath>
    <clipPath id="clippath-22">
      <rect class="cls-7" x="395.98" y="265.69" width="16" height="16"/>
    </clipPath>
    <clipPath id="clippath-23">
      <rect class="cls-7" x="48.72" y="19.12" width="372.19" height="277.2"/>
    </clipPath>
    <clipPath id="clippath-24">
      <rect class="cls-7" x="57.63" y="26.58" width="16" height="16"/>
    </clipPath>
    <clipPath id="clippath-25">
      <rect class="cls-7" x="114.02" y="171.58" width="16" height="16"/>
    </clipPath>
    <clipPath id="clippath-26">
      <rect class="cls-7" x="170.42" y="231.59" width="16" height="16"/>
    </clipPath>
    <clipPath id="clippath-27">
      <rect class="cls-7" x="226.81" y="244.63" width="16" height="16"/>
    </clipPath>
    <clipPath id="clippath-28">
      <rect class="cls-7" x="283.2" y="229.61" width="16" height="16"/>
    </clipPath>
    <clipPath id="clippath-29">
      <rect class="cls-7" x="339.59" y="195.98" width="16" height="16"/>
    </clipPath>
    <clipPath id="clippath-30">
      <rect class="cls-7" x="395.98" y="153.3" width="16" height="16"/>
    </clipPath>
    <clipPath id="clippath-31">
      <rect class="cls-7" x="48.72" y="19.12" width="372.19" height="277.2"/>
    </clipPath>
    <clipPath id="clippath-32">
      <rect class="cls-7" x="57.63" y="23.72" width="16" height="16"/>
    </clipPath>
    <clipPath id="clippath-33">
      <rect class="cls-7" x="114.02" y="35.83" width="16" height="16"/>
    </clipPath>
    <clipPath id="clippath-34">
      <rect class="cls-7" x="170.42" y="43.7" width="16" height="16"/>
    </clipPath>
    <clipPath id="clippath-35">
      <rect class="cls-7" x="226.81" y="53.35" width="16" height="16"/>
    </clipPath>
    <clipPath id="clippath-36">
      <rect class="cls-7" x="283.2" y="60.73" width="16" height="16"/>
    </clipPath>
    <clipPath id="clippath-37">
      <rect class="cls-7" x="339.59" y="67.42" width="16" height="16"/>
    </clipPath>
    <clipPath id="clippath-38">
      <rect class="cls-7" x="395.98" y="74.97" width="16" height="16"/>
    </clipPath>
    <clipPath id="clippath-39">
      <rect class="cls-7" x="48.72" y="19.12" width="372.19" height="277.2"/>
    </clipPath>
    <clipPath id="clippath-40">
      <rect class="cls-7" x="57.63" y="26.58" width="16" height="16"/>
    </clipPath>
    <clipPath id="clippath-41">
      <rect class="cls-7" x="114.02" y="34.67" width="16" height="16"/>
    </clipPath>
    <clipPath id="clippath-42">
      <rect class="cls-7" x="170.42" y="45.58" width="16" height="16"/>
    </clipPath>
    <clipPath id="clippath-43">
      <rect class="cls-7" x="226.81" y="54.23" width="16" height="16"/>
    </clipPath>
    <clipPath id="clippath-44">
      <rect class="cls-7" x="283.2" y="62.06" width="16" height="16"/>
    </clipPath>
    <clipPath id="clippath-45">
      <rect class="cls-7" x="339.59" y="70.11" width="16" height="16"/>
    </clipPath>
    <clipPath id="clippath-46">
      <rect class="cls-7" x="395.98" y="78" width="16" height="16"/>
    </clipPath>
  </defs>
  <rect class="cls-9" width="428.1" height="340.19"/>
  <rect class="cls-9" x="48.72" y="19.12" width="372.19" height="277.2"/>
  <g class="cls-45">
    <line class="cls-28" x1="65.63" y1="296.32" x2="65.63" y2="19.12"/>
  </g>
  <line class="cls-6" x1="65.63" y1="296.32" x2="65.63" y2="299.82"/>
  <line class="cls-30" x1="65.63" y1="296.32" x2="65.63" y2="299.82"/>
  <path class="cls-6" d="M65.63,303.5c.81,0,1.43.33,1.87.97.43.65.65,1.59.65,2.81s-.22,2.17-.65,2.81c-.44.64-1.06.96-1.88.96s-1.44-.32-1.87-.96c-.43-.64-.64-1.58-.64-2.81s.21-2.16.64-2.81c.43-.64,1.06-.97,1.88-.97ZM65.63,304.28c-.51,0-.89.25-1.15.75s-.38,1.25-.38,2.25.12,1.75.38,2.25.64.75,1.15.75.89-.25,1.15-.75c.25-.5.38-1.25.38-2.25s-.13-1.75-.38-2.25c-.26-.5-.64-.75-1.15-.75Z"/>
  <g class="cls-34">
    <line class="cls-28" x1="122.02" y1="296.32" x2="122.02" y2="19.12"/>
  </g>
  <line class="cls-6" x1="122.02" y1="296.32" x2="122.02" y2="299.82"/>
  <line class="cls-30" x1="122.02" y1="296.32" x2="122.02" y2="299.82"/>
  <polygon class="cls-6" points="120.09 310.09 121.7 310.09 121.7 304.53 119.95 304.88 119.95 303.98 121.69 303.63 122.68 303.63 122.68 310.09 124.29 310.09 124.29 310.92 120.09 310.92 120.09 310.09"/>
  <g class="cls-12">
    <line class="cls-28" x1="178.42" y1="296.32" x2="178.42" y2="19.12"/>
  </g>
  <line class="cls-6" x1="178.42" y1="296.32" x2="178.42" y2="299.82"/>
  <line class="cls-30" x1="178.42" y1="296.32" x2="178.42" y2="299.82"/>
  <path class="cls-6" d="M177.16,310.09h3.44v.83h-4.63v-.83c.37-.38.88-.9,1.53-1.56.64-.65,1.05-1.07,1.22-1.26.32-.35.54-.65.66-.9.12-.24.19-.49.19-.73,0-.38-.14-.7-.41-.94-.27-.24-.62-.37-1.06-.37-.31,0-.64.06-.98.16-.34.11-.71.27-1.1.49v-1c.4-.16.77-.28,1.11-.36.34-.08.66-.12.95-.12.75,0,1.35.19,1.8.57.45.38.68.88.68,1.51,0,.3-.06.59-.17.85-.11.27-.31.59-.61.95-.08.1-.34.37-.78.82-.44.45-1.05,1.08-1.84,1.89Z"/>
  <g class="cls-49">
    <line class="cls-28" x1="234.81" y1="296.32" x2="234.81" y2="19.12"/>
  </g>
  <line class="cls-6" x1="234.81" y1="296.32" x2="234.81" y2="299.82"/>
  <line class="cls-30" x1="234.81" y1="296.32" x2="234.81" y2="299.82"/>
  <path class="cls-6" d="M235.69,306.99c.47.1.84.31,1.1.63.26.32.4.72.4,1.18,0,.72-.25,1.28-.74,1.67-.5.39-1.2.58-2.11.58-.31,0-.63-.03-.95-.09-.32-.05-.66-.14-1-.26v-.95c.27.16.57.28.9.36.32.08.66.12,1.02.12.62,0,1.09-.12,1.41-.36.32-.24.49-.6.49-1.07,0-.42-.15-.76-.45-1-.3-.24-.72-.37-1.26-.37h-.85v-.81h.89c.48,0,.85-.09,1.11-.29.26-.19.39-.47.39-.84s-.14-.66-.4-.86c-.27-.2-.65-.3-1.14-.3-.27,0-.56.03-.87.09s-.65.15-1.02.27v-.88c.37-.1.72-.18,1.05-.23.32-.05.63-.08.93-.08.74,0,1.33.17,1.77.51s.66.8.66,1.38c0,.4-.12.74-.35,1.02-.23.28-.56.48-.98.58Z"/>
  <g class="cls-35">
    <line class="cls-28" x1="291.2" y1="296.32" x2="291.2" y2="19.12"/>
  </g>
  <line class="cls-6" x1="291.2" y1="296.32" x2="291.2" y2="299.82"/>
  <line class="cls-30" x1="291.2" y1="296.32" x2="291.2" y2="299.82"/>
  <path class="cls-6" d="M291.54,303.63h1.24v4.75h1.04v.82h-1.04v1.72h-.98v-1.72h-3.29v-.95l3.03-4.62ZM291.8,304.49l-2.49,3.89h2.49v-3.89Z"/>
  <g class="cls-56">
    <line class="cls-28" x1="347.59" y1="296.32" x2="347.59" y2="19.12"/>
  </g>
  <line class="cls-6" x1="347.59" y1="296.32" x2="347.59" y2="299.82"/>
  <line class="cls-30" x1="347.59" y1="296.32" x2="347.59" y2="299.82"/>
  <path class="cls-6" d="M345.49,303.63h3.87v.83h-2.97v1.79c.14-.05.29-.09.43-.11.14-.02.29-.04.43-.04.81,0,1.45.23,1.93.67.48.45.72,1.05.72,1.81s-.25,1.4-.74,1.83-1.18.64-2.06.64c-.31,0-.62-.03-.94-.07-.32-.05-.64-.12-.98-.23v-.99c.29.16.59.28.91.36.31.08.64.11.99.11.56,0,1.01-.14,1.34-.44.32-.3.49-.7.49-1.21s-.17-.9-.49-1.2c-.33-.3-.78-.45-1.34-.45-.26,0-.53.03-.79.09-.26.06-.53.15-.8.27v-3.66Z"/>
  <g class="cls-18">
    <line class="cls-28" x1="403.98" y1="296.32" x2="403.98" y2="19.12"/>
  </g>
  <line class="cls-6" x1="403.98" y1="296.32" x2="403.98" y2="299.82"/>
  <line class="cls-30" x1="403.98" y1="296.32" x2="403.98" y2="299.82"/>
  <path class="cls-6" d="M406.06,303.79v.9c-.25-.12-.5-.21-.75-.27-.26-.06-.51-.09-.75-.09-.66,0-1.16.22-1.5.66s-.54,1.11-.58,1.99c.19-.28.43-.5.72-.65s.61-.23.96-.23c.73,0,1.31.23,1.73.67.42.44.64,1.05.64,1.81s-.23,1.35-.67,1.8c-.44.45-1.03.67-1.76.67-.84,0-1.49-.32-1.93-.96-.45-.64-.67-1.58-.67-2.81,0-1.15.27-2.07.82-2.75.54-.68,1.28-1.03,2.2-1.03.24,0,.49.03.75.07.25.05.51.12.79.22ZM404.1,306.88c-.44,0-.79.16-1.05.46-.26.3-.39.72-.39,1.24s.13.95.39,1.25.61.45,1.05.45.79-.15,1.05-.45c.26-.3.39-.72.39-1.25s-.13-.94-.39-1.24c-.26-.3-.61-.46-1.05-.46Z"/>
  <path class="cls-6" d="M142.1,317.45h1.68l4.17,10.94h-1.54l-.99-2.81h-4.93l-.99,2.81h-1.56l4.17-10.94ZM142.94,318.9l-2.01,5.44h4.02l-2.01-5.44Z"/>
  <path class="cls-6" d="M150.29,324.29c0,.99.19,1.77.6,2.34.4.57.96.84,1.68.84s1.27-.27,1.7-.84c.4-.57.61-1.35.61-2.34s-.21-1.75-.61-2.32c-.42-.57-.98-.86-1.7-.86s-1.27.28-1.68.86c-.41.57-.6,1.33-.6,2.32ZM154.88,321.42v-4.44h1.35v11.4h-1.35v-1.23c-.29.5-.65.86-1.08,1.08-.43.22-.94.34-1.54.34-.99,0-1.8-.39-2.43-1.17-.63-.78-.93-1.83-.93-3.12s.3-2.32.93-3.12c.63-.78,1.44-1.18,2.43-1.18.6,0,1.11.12,1.54.36s.79.6,1.08,1.08Z"/>
  <path class="cls-6" d="M159.81,324.29c0,.99.19,1.77.6,2.34.4.57.96.84,1.68.84s1.27-.27,1.7-.84c.4-.57.61-1.35.61-2.34s-.21-1.75-.61-2.32c-.42-.57-.98-.86-1.7-.86s-1.27.28-1.68.86c-.41.57-.6,1.33-.6,2.32ZM164.4,321.42v-4.44h1.35v11.4h-1.35v-1.23c-.29.5-.65.86-1.08,1.08-.43.22-.94.34-1.54.34-.99,0-1.8-.39-2.43-1.17-.63-.78-.93-1.83-.93-3.12s.3-2.32.93-3.12c.63-.78,1.44-1.18,2.43-1.18.6,0,1.11.12,1.54.36s.79.6,1.08,1.08Z"/>
  <path class="cls-6" d="M174.19,323.55c-.01-.73-.23-1.32-.62-1.77-.4-.44-.94-.66-1.6-.66-.75,0-1.35.22-1.8.64s-.72,1.02-.78,1.78h4.8ZM175.54,323.94v.66h-6.19c.06.93.33,1.65.84,2.13.5.48,1.18.72,2.09.72.51,0,1.02-.06,1.5-.18.48-.12.97-.32,1.46-.59v1.27c-.48.21-.98.38-1.49.47-.51.09-1.04.15-1.54.15-1.32,0-2.36-.38-3.12-1.12s-1.14-1.78-1.14-3.09.36-2.4,1.08-3.2c.72-.78,1.71-1.18,2.94-1.18,1.11,0,1.98.36,2.62,1.07.63.72.96,1.68.96,2.9Z"/>
  <path class="cls-6" d="M178.56,324.29c0,.99.19,1.77.6,2.34.4.57.96.84,1.68.84s1.27-.27,1.7-.84c.4-.57.61-1.35.61-2.34s-.21-1.75-.61-2.32c-.42-.57-.98-.86-1.7-.86s-1.27.28-1.68.86c-.41.57-.6,1.33-.6,2.32ZM183.15,321.42v-4.44h1.35v11.4h-1.35v-1.23c-.29.5-.65.86-1.08,1.08-.43.22-.94.34-1.54.34-.99,0-1.8-.39-2.43-1.17-.63-.78-.93-1.83-.93-3.12s.3-2.32.93-3.12c.63-.78,1.44-1.18,2.43-1.18.6,0,1.11.12,1.54.36s.79.6,1.08,1.08Z"/>
  <path class="cls-6" d="M197.95,320.49v1.26c-.39-.21-.77-.36-1.16-.47s-.76-.16-1.15-.16c-.87,0-1.56.28-2.04.84-.48.55-.72,1.33-.72,2.32s.24,1.78.72,2.34,1.17.82,2.04.82c.39,0,.76-.05,1.15-.15.39-.11.76-.27,1.16-.48v1.25c-.39.18-.78.31-1.17.39-.4.07-.84.12-1.29.12-1.23,0-2.22-.38-2.94-1.15-.74-.77-1.1-1.82-1.1-3.14s.36-2.39,1.1-3.15,1.74-1.16,3.03-1.16c.42,0,.82.05,1.21.14s.78.21,1.16.38Z"/>
  <path class="cls-6" d="M206.71,323.7v4.68h-1.35v-1.24c-.32.51-.71.87-1.15,1.1-.45.22-1.02.34-1.68.34-.84,0-1.51-.22-2.01-.69-.49-.47-.74-1.1-.74-1.89,0-.91.3-1.61.93-2.09.62-.47,1.53-.7,2.76-.7h1.89v-.14c0-.61-.21-1.09-.61-1.44-.4-.33-.98-.51-1.71-.51-.48,0-.93.06-1.38.18-.45.12-.87.29-1.27.5v-1.25c.48-.18.96-.33,1.43-.42s.91-.15,1.36-.15c1.19,0,2.07.32,2.66.93.58.61.88,1.55.88,2.79ZM204.02,324.26c-1.1,0-1.85.13-2.26.38-.42.26-.63.68-.63,1.27,0,.48.15.87.46,1.14.32.28.75.42,1.29.42.75,0,1.35-.26,1.8-.8.45-.52.68-1.23.68-2.11v-.3h-1.33Z"/>
  <path class="cls-6" d="M215.39,320.49v1.26c-.39-.21-.77-.36-1.16-.47s-.76-.16-1.15-.16c-.87,0-1.56.28-2.04.84-.48.55-.72,1.33-.72,2.32s.24,1.78.72,2.34,1.17.82,2.04.82c.39,0,.76-.05,1.15-.15.39-.11.76-.27,1.16-.48v1.25c-.39.18-.78.31-1.17.39-.4.07-.84.12-1.29.12-1.23,0-2.22-.38-2.94-1.15-.74-.77-1.1-1.82-1.1-3.14s.36-2.39,1.1-3.15,1.74-1.16,3.03-1.16c.42,0,.82.05,1.21.14s.78.21,1.16.38Z"/>
  <path class="cls-6" d="M224.55,323.43v4.95h-1.35v-4.9c0-.78-.16-1.35-.46-1.74-.3-.39-.75-.58-1.35-.58-.74,0-1.31.24-1.73.7s-.63,1.09-.63,1.89v4.63h-1.35v-11.4h1.35v4.47c.32-.48.69-.85,1.14-1.09.43-.24.95-.38,1.51-.38.93,0,1.65.3,2.13.89s.74,1.44.74,2.57Z"/>
  <path class="cls-6" d="M232.9,323.55c-.01-.73-.23-1.32-.62-1.77-.4-.44-.94-.66-1.6-.66-.75,0-1.35.22-1.8.64s-.72,1.02-.78,1.78h4.8ZM234.25,323.94v.66h-6.19c.06.93.33,1.65.84,2.13.5.48,1.18.72,2.09.72.51,0,1.02-.06,1.5-.18.48-.12.97-.32,1.46-.59v1.27c-.48.21-.98.38-1.49.47-.51.09-1.04.15-1.54.15-1.32,0-2.36-.38-3.12-1.12s-1.14-1.78-1.14-3.09.36-2.4,1.08-3.2c.72-.78,1.71-1.18,2.94-1.18,1.11,0,1.98.36,2.62,1.07.63.72.96,1.68.96,2.9Z"/>
  <path class="cls-6" d="M247.14,320.49v1.26c-.39-.21-.77-.36-1.16-.47s-.76-.16-1.15-.16c-.87,0-1.56.28-2.04.84-.48.55-.72,1.33-.72,2.32s.24,1.78.72,2.34,1.17.82,2.04.82c.39,0,.76-.05,1.15-.15.39-.11.76-.27,1.16-.48v1.25c-.39.18-.78.31-1.17.39-.4.07-.84.12-1.29.12-1.23,0-2.22-.38-2.94-1.15-.74-.77-1.1-1.82-1.1-3.14s.36-2.39,1.1-3.15,1.74-1.16,3.03-1.16c.42,0,.82.05,1.21.14s.78.21,1.16.38Z"/>
  <path class="cls-6" d="M255.9,323.7v4.68h-1.35v-1.24c-.32.51-.71.87-1.15,1.1-.45.22-1.02.34-1.68.34-.84,0-1.51-.22-2.01-.69-.49-.47-.74-1.1-.74-1.89,0-.91.3-1.61.93-2.09.62-.47,1.53-.7,2.76-.7h1.89v-.14c0-.61-.21-1.09-.61-1.44-.4-.33-.98-.51-1.71-.51-.48,0-.93.06-1.38.18-.45.12-.87.29-1.27.5v-1.25c.48-.18.96-.33,1.43-.42s.91-.15,1.36-.15c1.19,0,2.07.32,2.66.93.58.61.88,1.55.88,2.79ZM253.21,324.26c-1.1,0-1.85.13-2.26.38-.42.26-.63.68-.63,1.27,0,.48.15.87.46,1.14.32.28.75.42,1.29.42.75,0,1.35-.26,1.8-.8.45-.52.68-1.23.68-2.11v-.3h-1.33Z"/>
  <path class="cls-6" d="M264.56,324.29c0-.99-.21-1.75-.61-2.32-.42-.57-.98-.86-1.68-.86s-1.28.28-1.68.86c-.42.57-.61,1.33-.61,2.32s.2,1.77.61,2.34c.4.57.96.84,1.68.84s1.26-.27,1.68-.84c.4-.57.61-1.35.61-2.34ZM259.97,327.15v4.34h-1.35v-11.31h1.35v1.24c.27-.48.63-.84,1.07-1.08s.96-.36,1.56-.36c.99,0,1.8.41,2.43,1.18.62.8.93,1.83.93,3.12s-.32,2.34-.93,3.12c-.63.78-1.44,1.17-2.43,1.17-.6,0-1.12-.12-1.56-.34-.43-.23-.8-.59-1.07-1.08Z"/>
  <path class="cls-6" d="M274.61,323.7v4.68h-1.35v-1.24c-.32.51-.71.87-1.15,1.1-.45.22-1.02.34-1.68.34-.84,0-1.51-.22-2.01-.69s-.74-1.1-.74-1.89c0-.91.3-1.61.93-2.09.62-.47,1.53-.7,2.76-.7h1.89v-.14c0-.61-.21-1.09-.62-1.44-.4-.33-.97-.51-1.71-.51-.48,0-.93.06-1.38.18-.45.12-.87.29-1.27.5v-1.25c.48-.18.96-.33,1.42-.42.47-.09.92-.15,1.37-.15,1.18,0,2.07.32,2.65.93.58.61.88,1.55.88,2.79ZM271.93,324.26c-1.1,0-1.85.13-2.26.38-.42.26-.63.68-.63,1.27,0,.48.15.87.46,1.14.32.28.75.42,1.29.42.75,0,1.35-.26,1.8-.8.45-.52.68-1.23.68-2.11v-.3h-1.34Z"/>
  <path class="cls-6" d="M283.29,320.49v1.26c-.39-.21-.77-.36-1.15-.47-.39-.1-.77-.16-1.15-.16-.87,0-1.56.28-2.04.84-.48.55-.72,1.33-.72,2.32s.24,1.78.72,2.34,1.17.82,2.04.82c.39,0,.76-.05,1.15-.15.39-.11.76-.27,1.15-.48v1.25c-.39.18-.78.31-1.17.39-.4.07-.84.12-1.29.12-1.23,0-2.22-.38-2.94-1.15-.74-.77-1.1-1.82-1.1-3.14s.36-2.39,1.1-3.15c.73-.76,1.74-1.16,3.03-1.16.42,0,.82.05,1.21.14.39.09.78.21,1.15.38Z"/>
  <path class="cls-6" d="M285.63,316.98h1.35v1.71h-1.35v-1.71ZM285.63,320.18h1.35v8.2h-1.35v-8.2Z"/>
  <path class="cls-6" d="M291.13,317.85v2.33h2.77v1.05h-2.77v4.45c0,.67.09,1.11.27,1.29.18.19.55.28,1.12.28h1.38v1.12h-1.38c-1.05,0-1.77-.19-2.16-.59-.39-.39-.59-1.1-.59-2.11v-4.45h-.99v-1.05h.99v-2.33h1.35Z"/>
  <path class="cls-6" d="M299.1,329.13c-.39.96-.76,1.61-1.12,1.9-.36.3-.84.45-1.44.45h-1.08v-1.12h.8c.36,0,.64-.09.85-.27.21-.18.43-.59.69-1.24l.24-.6-3.32-8.07h1.42l2.57,6.42,2.57-6.42h1.42l-3.6,8.95Z"/>
  <polygon class="cls-6" points="304.9 326.52 306.45 326.52 306.45 327.78 305.25 330.11 304.3 330.11 304.9 327.78 304.9 326.52"/>
  <polygon class="cls-6" points="325.46 317.45 326.95 317.45 325.07 327.15 330.4 327.15 330.16 328.38 323.35 328.38 325.46 317.45"/>
  <g class="cls-31">
    <path class="cls-6" d="M312.8,328.38l4.17-10.93h1.68l4.17,10.93h-10.02ZM317.81,318.9l-3,8.25h6l-3-8.25Z"/>
  </g>
  <g class="cls-51">
    <line class="cls-28" x1="48.72" y1="271.57" x2="420.9" y2="271.57"/>
  </g>
  <line class="cls-6" x1="48.72" y1="271.57" x2="45.22" y2="271.57"/>
  <line class="cls-30" x1="48.72" y1="271.57" x2="45.22" y2="271.57"/>
  <path class="cls-6" d="M29.24,267.49h1.24v4.75h1.04v.82h-1.04v1.72h-.98v-1.72h-3.29v-.95l3.03-4.62ZM29.5,268.35l-2.49,3.89h2.49v-3.89Z"/>
  <rect class="cls-6" x="33.15" y="273.54" width="1.03" height="1.24"/>
  <path class="cls-6" d="M36.84,269.34c0,.38.11.68.35.89.24.21.57.31,1,.31s.75-.1.99-.31c.24-.21.36-.51.36-.89s-.12-.67-.36-.88c-.24-.21-.57-.32-.99-.32s-.76.11-1,.32-.35.5-.35.88ZM37.2,270.9c-.42-.1-.75-.3-.99-.59-.24-.29-.35-.64-.35-1.06,0-.58.2-1.04.62-1.38.41-.34.98-.51,1.71-.51s1.29.17,1.71.51c.41.34.62.8.62,1.38,0,.42-.12.77-.36,1.06-.24.29-.56.49-.98.59.47.11.84.33,1.11.65.26.32.4.72.4,1.18,0,.71-.22,1.25-.65,1.62-.44.38-1.06.56-1.86.56s-1.42-.18-1.85-.56c-.43-.37-.64-.91-.64-1.62,0-.46.13-.86.4-1.18.26-.32.63-.54,1.11-.65ZM38.19,271.32c-.47,0-.84.13-1.11.38s-.4.59-.4,1.03.13.79.4,1.04.64.37,1.11.37.83-.12,1.1-.38c.27-.25.41-.59.41-1.03s-.14-.78-.4-1.03c-.27-.25-.64-.38-1.11-.38Z"/>
  <g class="cls-44">
    <line class="cls-28" x1="48.72" y1="233.31" x2="420.9" y2="233.31"/>
  </g>
  <line class="cls-6" x1="48.72" y1="233.31" x2="45.22" y2="233.31"/>
  <line class="cls-30" x1="48.72" y1="233.31" x2="45.22" y2="233.31"/>
  <path class="cls-6" d="M26.8,229.24h3.87v.83h-2.97v1.79c.14-.05.29-.09.43-.11.14-.02.29-.04.43-.04.81,0,1.45.23,1.93.67.48.45.72,1.05.72,1.81s-.25,1.4-.74,1.83-1.18.64-2.06.64c-.31,0-.62-.03-.94-.07-.32-.05-.64-.12-.98-.23v-.99c.29.16.59.28.91.36.31.08.64.11.99.11.56,0,1.01-.14,1.34-.44.32-.3.49-.7.49-1.21s-.17-.9-.49-1.2c-.33-.3-.78-.45-1.34-.45-.26,0-.53.03-.79.09-.26.06-.53.15-.8.27v-3.66Z"/>
  <rect class="cls-6" x="33.15" y="235.29" width="1.03" height="1.24"/>
  <path class="cls-6" d="M38.44,229.11c.81,0,1.43.33,1.87.97.43.65.65,1.59.65,2.81s-.22,2.17-.65,2.81c-.44.64-1.06.96-1.88.96s-1.44-.32-1.87-.96-.64-1.58-.64-2.81.21-2.16.64-2.81c.43-.64,1.06-.97,1.88-.97ZM38.44,229.89c-.51,0-.89.25-1.15.75-.26.5-.38,1.25-.38,2.25s.12,1.75.38,2.25c.26.5.64.75,1.15.75s.89-.25,1.15-.75c.25-.5.38-1.25.38-2.25s-.13-1.75-.38-2.25c-.26-.5-.64-.75-1.15-.75Z"/>
  <g class="cls-58">
    <line class="cls-28" x1="48.72" y1="195.05" x2="420.9" y2="195.05"/>
  </g>
  <line class="cls-6" x1="48.72" y1="195.05" x2="45.22" y2="195.05"/>
  <line class="cls-30" x1="48.72" y1="195.05" x2="45.22" y2="195.05"/>
  <path class="cls-6" d="M26.8,190.98h3.87v.83h-2.97v1.79c.14-.05.29-.09.43-.11s.29-.04.43-.04c.81,0,1.45.23,1.93.67.48.45.72,1.05.72,1.81s-.25,1.4-.74,1.83c-.49.43-1.18.64-2.06.64-.31,0-.62-.03-.94-.07-.32-.05-.64-.12-.98-.23v-.99c.29.16.59.28.91.36.31.08.64.11.99.11.56,0,1.01-.14,1.34-.44.32-.3.49-.7.49-1.21s-.17-.9-.49-1.2c-.33-.3-.78-.45-1.34-.45-.26,0-.53.03-.79.09-.26.06-.53.15-.8.27v-3.66Z"/>
  <rect class="cls-6" x="33.15" y="197.03" width="1.03" height="1.24"/>
  <path class="cls-6" d="M36.68,197.44h3.44v.83h-4.63v-.83c.37-.38.88-.9,1.53-1.56.64-.65,1.05-1.07,1.22-1.26.32-.35.54-.65.66-.9.12-.24.19-.49.19-.73,0-.38-.14-.7-.41-.94-.27-.24-.62-.37-1.06-.37-.31,0-.64.06-.98.16-.34.11-.71.27-1.1.49v-1c.4-.16.77-.28,1.11-.36s.66-.12.95-.12c.75,0,1.35.19,1.8.57.45.38.68.88.68,1.51,0,.3-.06.59-.17.85-.11.27-.31.59-.61.95-.08.1-.34.37-.78.82-.44.45-1.05,1.08-1.84,1.89Z"/>
  <g class="cls-3">
    <line class="cls-28" x1="48.72" y1="156.8" x2="420.9" y2="156.8"/>
  </g>
  <line class="cls-6" x1="48.72" y1="156.8" x2="45.22" y2="156.8"/>
  <line class="cls-30" x1="48.72" y1="156.8" x2="45.22" y2="156.8"/>
  <path class="cls-6" d="M26.8,152.6h3.87v.83h-2.97v1.79c.14-.05.29-.09.43-.11s.29-.04.43-.04c.81,0,1.45.23,1.93.67.48.45.72,1.05.72,1.81s-.25,1.4-.74,1.83c-.49.43-1.18.64-2.06.64-.31,0-.62-.03-.94-.07-.32-.05-.64-.12-.98-.23v-.99c.29.16.59.28.91.36.31.08.64.11.99.11.56,0,1.01-.14,1.34-.44.32-.3.49-.7.49-1.21s-.17-.9-.49-1.2c-.33-.3-.78-.45-1.34-.45-.26,0-.53.03-.79.09-.26.06-.53.15-.8.27v-3.66Z"/>
  <rect class="cls-6" x="33.15" y="158.65" width="1.03" height="1.24"/>
  <path class="cls-6" d="M38.78,152.6h1.24v4.75h1.04v.82h-1.04v1.72h-.98v-1.72h-3.29v-.95l3.03-4.62ZM39.04,153.46l-2.49,3.89h2.49v-3.89Z"/>
  <g class="cls-40">
    <line class="cls-28" x1="48.72" y1="118.54" x2="420.9" y2="118.54"/>
  </g>
  <line class="cls-6" x1="48.72" y1="118.54" x2="45.22" y2="118.54"/>
  <line class="cls-30" x1="48.72" y1="118.54" x2="45.22" y2="118.54"/>
  <path class="cls-6" d="M26.8,114.47h3.87v.83h-2.97v1.79c.14-.05.29-.09.43-.11s.29-.04.43-.04c.81,0,1.45.23,1.93.67.48.45.72,1.05.72,1.81s-.25,1.4-.74,1.83c-.49.43-1.18.64-2.06.64-.31,0-.62-.03-.94-.07-.32-.05-.64-.12-.98-.23v-.99c.29.16.59.28.91.36.31.08.64.11.99.11.56,0,1.01-.14,1.34-.44.32-.3.49-.7.49-1.21s-.17-.9-.49-1.2c-.33-.3-.78-.45-1.34-.45-.26,0-.53.03-.79.09-.26.06-.53.15-.8.27v-3.66Z"/>
  <rect class="cls-6" x="33.15" y="120.52" width="1.03" height="1.24"/>
  <path class="cls-6" d="M40.52,114.63v.9c-.25-.12-.5-.21-.75-.27-.26-.06-.51-.09-.75-.09-.66,0-1.16.22-1.5.66-.34.44-.54,1.11-.58,1.99.19-.28.43-.5.72-.65.29-.15.61-.23.96-.23.73,0,1.31.23,1.73.67.42.44.64,1.05.64,1.81s-.23,1.35-.67,1.8c-.44.45-1.03.67-1.76.67-.84,0-1.49-.32-1.93-.96-.45-.64-.67-1.58-.67-2.81,0-1.15.27-2.07.82-2.75.54-.68,1.28-1.03,2.2-1.03.24,0,.49.03.75.07.25.05.51.12.79.22ZM38.56,117.72c-.44,0-.79.16-1.05.46s-.39.72-.39,1.24.13.95.39,1.25.61.45,1.05.45.79-.15,1.05-.45c.26-.3.39-.72.39-1.25s-.13-.94-.39-1.24c-.26-.3-.61-.46-1.05-.46Z"/>
  <g class="cls-13">
    <line class="cls-28" x1="48.72" y1="80.28" x2="420.9" y2="80.28"/>
  </g>
  <line class="cls-6" x1="48.72" y1="80.28" x2="45.22" y2="80.28"/>
  <line class="cls-30" x1="48.72" y1="80.28" x2="45.22" y2="80.28"/>
  <path class="cls-6" d="M26.8,76.21h3.87v.83h-2.97v1.79c.14-.05.29-.09.43-.11s.29-.04.43-.04c.81,0,1.45.23,1.93.67.48.45.72,1.05.72,1.81s-.25,1.4-.74,1.83c-.49.43-1.18.64-2.06.64-.31,0-.62-.03-.94-.07-.32-.05-.64-.12-.98-.23v-.99c.29.16.59.28.91.36.31.08.64.11.99.11.56,0,1.01-.14,1.34-.44.32-.3.49-.7.49-1.21s-.17-.9-.49-1.2c-.33-.3-.78-.45-1.34-.45-.26,0-.53.03-.79.09-.26.06-.53.15-.8.27v-3.66Z"/>
  <rect class="cls-6" x="33.15" y="82.26" width="1.03" height="1.24"/>
  <path class="cls-6" d="M36.84,78.06c0,.38.11.68.35.89.24.21.57.31,1,.31s.75-.1.99-.31c.24-.21.36-.51.36-.89s-.12-.67-.36-.88c-.24-.21-.57-.32-.99-.32s-.76.11-1,.32-.35.5-.35.88ZM37.2,79.62c-.42-.1-.75-.3-.99-.59-.24-.29-.35-.64-.35-1.06,0-.58.2-1.04.62-1.38.41-.34.98-.51,1.71-.51s1.29.17,1.71.51c.41.34.62.8.62,1.38,0,.42-.12.77-.36,1.06-.24.29-.56.49-.98.59.47.11.84.33,1.11.65.26.32.4.72.4,1.18,0,.71-.22,1.25-.65,1.62-.44.38-1.06.56-1.86.56s-1.42-.18-1.85-.56c-.43-.37-.64-.91-.64-1.62,0-.46.13-.86.4-1.18.26-.32.63-.54,1.11-.65ZM38.19,80.04c-.47,0-.84.13-1.11.38s-.4.59-.4,1.03.13.79.4,1.04.64.37,1.11.37.83-.12,1.1-.38c.27-.25.41-.59.41-1.03s-.14-.78-.4-1.03c-.27-.25-.64-.38-1.11-.38Z"/>
  <g class="cls-54">
    <line class="cls-28" x1="48.72" y1="42.03" x2="420.9" y2="42.03"/>
  </g>
  <line class="cls-6" x1="48.72" y1="42.03" x2="45.22" y2="42.03"/>
  <line class="cls-30" x1="48.72" y1="42.03" x2="45.22" y2="42.03"/>
  <path class="cls-6" d="M30.98,38.11v.9c-.25-.12-.5-.21-.75-.27-.26-.06-.51-.09-.75-.09-.66,0-1.16.22-1.5.66s-.54,1.11-.58,1.99c.19-.28.43-.5.72-.65.29-.15.61-.23.96-.23.73,0,1.31.23,1.73.67s.64,1.05.64,1.81-.23,1.35-.67,1.8c-.44.45-1.03.67-1.76.67-.84,0-1.49-.32-1.93-.96-.45-.64-.67-1.58-.67-2.81,0-1.15.27-2.07.82-2.75.54-.68,1.28-1.03,2.2-1.03.24,0,.49.03.75.07.25.05.51.12.79.22ZM29.02,41.2c-.44,0-.79.16-1.05.46-.26.3-.39.72-.39,1.24s.13.95.39,1.25c.26.3.61.45,1.05.45s.79-.15,1.05-.45c.26-.3.39-.72.39-1.25s-.13-.94-.39-1.24c-.26-.3-.61-.46-1.05-.46Z"/>
  <rect class="cls-6" x="33.15" y="44" width="1.03" height="1.24"/>
  <path class="cls-6" d="M38.44,37.82c.81,0,1.43.33,1.87.97.43.65.65,1.59.65,2.81s-.22,2.17-.65,2.81c-.44.64-1.06.96-1.88.96s-1.44-.32-1.87-.96c-.43-.64-.64-1.58-.64-2.81s.21-2.16.64-2.81c.43-.64,1.06-.97,1.88-.97ZM38.44,38.6c-.51,0-.89.25-1.15.75-.26.5-.38,1.25-.38,2.25s.12,1.75.38,2.25c.26.5.64.75,1.15.75s.89-.25,1.15-.75c.25-.5.38-1.25.38-2.25s-.13-1.75-.38-2.25c-.26-.5-.64-.75-1.15-.75Z"/>
  <polygon class="cls-6" points="7.66 219.05 7.66 209.81 8.9 209.81 8.9 213.69 18.59 213.69 18.59 215.18 8.9 215.18 8.9 219.05 7.66 219.05"/>
  <path class="cls-6" d="M10.19,207.81c0-1.17.39-2.09,1.14-2.76.76-.66,1.82-1,3.16-1s2.4.35,3.15,1c.76.68,1.14,1.59,1.14,2.76s-.38,2.11-1.14,2.77c-.75.66-1.8.99-3.15.99s-2.4-.33-3.16-.99c-.75-.66-1.14-1.59-1.14-2.77ZM11.33,207.81c0,.72.28,1.29.85,1.71.57.42,1.34.63,2.31.63s1.76-.2,2.32-.62.84-.99.84-1.72-.27-1.29-.84-1.71-1.33-.63-2.32-.63-1.74.21-2.31.63c-.57.42-.85.99-.85,1.71Z"/>
  <path class="cls-6" d="M8.06,200.48h2.33v-2.78h1.05v2.78h4.46c.68,0,1.11-.09,1.29-.27.19-.18.28-.56.28-1.12v-1.38h1.12v1.38c0,1.05-.19,1.77-.58,2.16-.39.39-1.1.58-2.12.58h-4.46v.99h-1.05v-.99h-2.33v-1.35Z"/>
  <path class="cls-6" d="M13.91,189.51h4.68v1.35h-1.25c.51.32.87.71,1.1,1.15s.34,1.02.34,1.68c0,.84-.23,1.51-.69,2.01-.46.49-1.09.74-1.89.74-.91,0-1.6-.3-2.09-.93-.47-.62-.7-1.53-.7-2.76v-1.89h-.14c-.61,0-1.1.21-1.44.61-.33.4-.51.98-.51,1.71,0,.48.06.93.18,1.38.12.45.28.87.49,1.27h-1.24c-.18-.48-.33-.96-.42-1.43s-.15-.91-.15-1.36c0-1.19.32-2.07.93-2.66.61-.58,1.55-.88,2.79-.88ZM14.47,192.2c0,1.1.14,1.85.38,2.26.26.42.68.63,1.27.63.48,0,.87-.15,1.14-.46.28-.32.42-.75.42-1.29,0-.75-.25-1.35-.79-1.8-.53-.45-1.23-.67-2.12-.67h-.3v1.33Z"/>
  <rect class="cls-6" x="7.19" y="185.39" width="11.4" height="1.35"/>
  <path class="cls-6" d="M14.5,176.99c.99,0,1.77-.19,2.34-.6.57-.4.84-.96.84-1.68s-.27-1.27-.84-1.7c-.57-.4-1.35-.61-2.34-.61s-1.76.21-2.32.61c-.57.42-.85.98-.85,1.7s.28,1.27.85,1.68c.57.41,1.34.6,2.32.6ZM11.63,172.4h-4.44v-1.35h11.4v1.35h-1.23c.49.29.85.65,1.08,1.08s.34.94.34,1.54c0,.99-.39,1.8-1.17,2.43-.78.63-1.83.93-3.12.93s-2.32-.3-3.12-.93c-.78-.63-1.19-1.44-1.19-2.43,0-.6.12-1.11.36-1.54.24-.43.6-.79,1.08-1.08Z"/>
  <path class="cls-6" d="M13.76,162.6c-.74.01-1.32.23-1.77.62-.43.4-.66.94-.66,1.6,0,.75.23,1.35.65,1.8s1.02.72,1.78.78v-4.8ZM14.15,161.25h.66v6.2c.93-.06,1.65-.33,2.13-.84.48-.5.72-1.18.72-2.09,0-.51-.06-1.02-.18-1.5-.12-.48-.31-.97-.58-1.46h1.27c.21.48.38.98.47,1.49.09.51.15,1.04.15,1.54,0,1.32-.38,2.36-1.12,3.12s-1.78,1.14-3.09,1.14-2.4-.36-3.19-1.08c-.78-.72-1.19-1.71-1.19-2.94,0-1.11.36-1.98,1.06-2.62.72-.63,1.68-.96,2.9-.96Z"/>
  <rect class="cls-6" x="7.19" y="157.7" width="11.4" height="1.35"/>
  <path class="cls-6" d="M13.91,148.46h4.68v1.35h-1.25c.51.32.87.71,1.1,1.15s.34,1.02.34,1.68c0,.84-.23,1.51-.69,2.01-.46.49-1.09.74-1.89.74-.91,0-1.6-.3-2.09-.93-.47-.62-.7-1.53-.7-2.76v-1.89h-.14c-.61,0-1.1.21-1.44.61-.33.4-.51.98-.51,1.71,0,.48.06.93.18,1.38.12.45.28.87.49,1.27h-1.24c-.18-.48-.33-.96-.42-1.43s-.15-.91-.15-1.36c0-1.19.32-2.07.93-2.66.61-.58,1.55-.88,2.79-.88ZM14.47,151.14c0,1.1.14,1.85.38,2.26.26.42.68.63,1.27.63.48,0,.87-.15,1.14-.46.28-.32.42-.75.42-1.29,0-.75-.25-1.35-.79-1.8-.53-.45-1.23-.67-2.12-.67h-.3v1.33Z"/>
  <path class="cls-6" d="M19.34,142.26c.96.39,1.6.76,1.91,1.12.3.36.45.84.45,1.44v1.08h-1.12v-.79c0-.36-.09-.65-.27-.86-.18-.21-.58-.43-1.24-.69l-.6-.24-8.07,3.32v-1.43l6.42-2.57-6.42-2.57v-1.43l8.95,3.6Z"/>
  <path class="cls-6" d="M7.21,128.79c1.14.66,2.25,1.14,3.35,1.45,1.1.33,2.2.48,3.33.48s2.25-.15,3.35-.48c1.11-.31,2.2-.79,3.33-1.45v1.17c-1.16.74-2.26,1.29-3.38,1.65s-2.2.54-3.3.54-2.18-.18-3.29-.54c-1.11-.36-2.23-.9-3.39-1.65v-1.17Z"/>
  <path class="cls-6" d="M10.63,120.95h1.27c-.18.39-.33.78-.43,1.18-.09.42-.15.84-.15,1.28,0,.68.1,1.18.31,1.51s.51.49.91.49c.32,0,.56-.12.73-.36.18-.24.36-.72.51-1.44l.11-.46c.21-.96.51-1.63.87-2.04.38-.39.9-.6,1.56-.6.76,0,1.36.3,1.8.9.45.6.66,1.44.66,2.49,0,.45-.05.9-.12,1.38-.08.48-.2.97-.38,1.5h-1.4c.27-.49.47-.99.58-1.47.14-.48.19-.96.19-1.44,0-.63-.1-1.12-.31-1.47-.21-.33-.53-.51-.93-.51-.36,0-.65.13-.84.38-.19.24-.39.78-.57,1.62l-.11.46c-.18.84-.45,1.46-.81,1.82-.36.38-.85.56-1.5.56-.76,0-1.36-.27-1.78-.81-.42-.54-.63-1.32-.63-2.34,0-.49.05-.96.12-1.41.08-.43.18-.84.32-1.21Z"/>
  <path class="cls-6" d="M13.76,112.7c-.74.01-1.32.23-1.77.62-.43.4-.66.94-.66,1.6,0,.75.23,1.35.65,1.8s1.02.72,1.78.78v-4.8ZM14.15,111.35h.66v6.2c.93-.06,1.65-.33,2.13-.84.48-.5.72-1.18.72-2.09,0-.51-.06-1.02-.18-1.5-.12-.48-.31-.97-.58-1.46h1.27c.21.48.38.98.47,1.49.09.51.15,1.04.15,1.54,0,1.32-.38,2.36-1.12,3.12s-1.78,1.14-3.09,1.14-2.4-.36-3.19-1.08c-.78-.72-1.19-1.71-1.19-2.94,0-1.11.36-1.98,1.06-2.62.72-.63,1.68-.96,2.9-.96Z"/>
  <path class="cls-6" d="M10.7,103.23h1.26c-.21.39-.36.77-.47,1.16s-.16.76-.16,1.15c0,.87.28,1.56.84,2.04s1.34.72,2.32.72,1.79-.24,2.34-.72c.56-.48.83-1.17.83-2.04,0-.39-.05-.76-.15-1.15s-.27-.76-.48-1.16h1.24c.18.39.32.78.39,1.17.07.4.12.84.12,1.29,0,1.23-.38,2.22-1.15,2.94-.77.74-1.82,1.1-3.14,1.1s-2.39-.36-3.15-1.1c-.76-.74-1.15-1.74-1.15-3.03,0-.42.05-.82.14-1.21s.21-.78.38-1.16Z"/>
  <path class="cls-6" d="M7.21,101.1v-1.17c1.15-.72,2.28-1.28,3.39-1.64,1.11-.36,2.2-.55,3.29-.55s2.19.19,3.3.55,2.22.92,3.38,1.64v1.17c-1.12-.65-2.22-1.12-3.33-1.46-1.09-.32-2.2-.48-3.35-.48s-2.23.16-3.33.48c-1.1.33-2.21.81-3.35,1.46Z"/>
  <polygon class="cls-6" points="55.73 9.78 53.5 12.02 55.73 14.25 55.15 14.84 52.91 12.6 50.67 14.84 50.09 14.25 52.32 12.02 50.09 9.78 50.67 9.19 52.91 11.43 55.15 9.19 55.73 9.78"/>
  <polygon class="cls-6" points="58.33 14.32 59.94 14.32 59.94 8.76 58.19 9.11 58.19 8.21 59.93 7.86 60.92 7.86 60.92 14.32 62.53 14.32 62.53 15.15 58.33 15.15 58.33 14.32"/>
  <path class="cls-6" d="M66.64,7.73c.81,0,1.43.33,1.87.97.43.65.65,1.59.65,2.81s-.22,2.17-.65,2.81c-.44.64-1.06.96-1.88.96s-1.44-.32-1.87-.96c-.43-.64-.64-1.58-.64-2.81s.21-2.16.64-2.81c.43-.64,1.06-.97,1.88-.97ZM66.64,8.51c-.51,0-.89.25-1.15.75-.26.5-.38,1.25-.38,2.25s.12,1.75.38,2.25c.26.5.64.75,1.15.75s.89-.25,1.15-.75c.25-.5.38-1.25.38-2.25s-.13-1.75-.38-2.25c-.26-.5-.64-.75-1.15-.75Z"/>
  <path class="cls-6" d="M73.6,6.33v.63c-.17-.08-.35-.15-.53-.19-.18-.04-.36-.06-.52-.06-.46,0-.81.15-1.05.46s-.38.78-.41,1.39c.13-.2.3-.35.5-.46.2-.1.43-.16.67-.16.51,0,.92.16,1.21.47.29.31.45.73.45,1.27s-.16.95-.47,1.26-.72.47-1.23.47c-.59,0-1.04-.22-1.35-.67-.32-.45-.47-1.11-.47-1.97,0-.8.19-1.45.57-1.92.38-.48.9-.72,1.54-.72.17,0,.34.02.52.05.18.04.36.08.55.15ZM72.22,8.49c-.31,0-.55.11-.74.32-.18.21-.27.5-.27.87s.09.67.27.88c.18.21.43.32.74.32s.55-.11.74-.32.27-.5.27-.88-.09-.66-.27-.87c-.18-.21-.43-.32-.74-.32Z"/>
  <g class="cls-17">
    <polyline class="cls-23" points="65.63 32.21 122.02 171.55 178.42 238.59 234.81 270.96 291.2 283.72 347.59 283.37 403.98 273.69"/>
    <g class="cls-4">
      <polygon class="cls-27" points="65.63 29.21 62.63 35.21 68.63 35.21 65.63 29.21"/>
    </g>
    <g class="cls-55">
      <polygon class="cls-27" points="122.02 168.55 119.02 174.55 125.02 174.55 122.02 168.55"/>
    </g>
    <g class="cls-53">
      <polygon class="cls-27" points="178.42 235.59 175.42 241.59 181.42 241.59 178.42 235.59"/>
    </g>
    <g class="cls-47">
      <polygon class="cls-27" points="234.81 267.96 231.81 273.96 237.81 273.96 234.81 267.96"/>
    </g>
    <g class="cls-2">
      <polygon class="cls-27" points="291.2 280.72 288.2 286.72 294.2 286.72 291.2 280.72"/>
    </g>
    <g class="cls-32">
      <polygon class="cls-27" points="347.59 280.37 344.59 286.37 350.59 286.37 347.59 280.37"/>
    </g>
    <g class="cls-43">
      <polygon class="cls-27" points="403.98 270.69 400.98 276.69 406.98 276.69 403.98 270.69"/>
    </g>
  </g>
  <g class="cls-59">
    <polyline class="cls-29" points="65.63 34.58 122.02 179.58 178.42 239.59 234.81 252.63 291.2 237.61 347.59 203.98 403.98 161.3"/>
    <g class="cls-41">
      <rect class="cls-26" x="62.63" y="31.58" width="6" height="6"/>
    </g>
    <g class="cls-16">
      <rect class="cls-26" x="119.02" y="176.58" width="6" height="6"/>
    </g>
    <g class="cls-20">
      <rect class="cls-26" x="175.42" y="236.59" width="6" height="6"/>
    </g>
    <g class="cls-38">
      <rect class="cls-26" x="231.81" y="249.63" width="6" height="6"/>
    </g>
    <g class="cls-60">
      <rect class="cls-26" x="288.2" y="234.61" width="6" height="6"/>
    </g>
    <g class="cls-52">
      <rect class="cls-26" x="344.59" y="200.98" width="6" height="6"/>
    </g>
    <g class="cls-42">
      <rect class="cls-26" x="400.98" y="158.3" width="6" height="6"/>
    </g>
  </g>
  <g class="cls-48">
    <polyline class="cls-21" points="65.63 31.72 122.02 43.83 178.42 51.7 234.81 61.35 291.2 68.73 347.59 75.42 403.98 82.97"/>
    <g class="cls-11">
      <polygon class="cls-27" points="65.63 28.72 62.63 34.72 68.63 34.72 65.63 28.72"/>
    </g>
    <g class="cls-5">
      <polygon class="cls-27" points="122.02 40.83 119.02 46.83 125.02 46.83 122.02 40.83"/>
    </g>
    <g class="cls-33">
      <polygon class="cls-27" points="178.42 48.7 175.42 54.7 181.42 54.7 178.42 48.7"/>
    </g>
    <g class="cls-61">
      <polygon class="cls-27" points="234.81 58.35 231.81 64.35 237.81 64.35 234.81 58.35"/>
    </g>
    <g class="cls-37">
      <polygon class="cls-27" points="291.2 65.73 288.2 71.73 294.2 71.73 291.2 65.73"/>
    </g>
    <g class="cls-14">
      <polygon class="cls-27" points="347.59 72.42 344.59 78.42 350.59 78.42 347.59 72.42"/>
    </g>
    <g class="cls-36">
      <polygon class="cls-27" points="403.98 79.97 400.98 85.97 406.98 85.97 403.98 79.97"/>
    </g>
  </g>
  <g class="cls-46">
    <polyline class="cls-24" points="65.63 34.58 122.02 42.67 178.42 53.58 234.81 62.23 291.2 70.06 347.59 78.11 403.98 86"/>
    <g class="cls-19">
      <rect class="cls-26" x="62.63" y="31.58" width="6" height="6"/>
    </g>
    <g class="cls-10">
      <rect class="cls-26" x="119.02" y="39.67" width="6" height="6"/>
    </g>
    <g class="cls-57">
      <rect class="cls-26" x="175.42" y="50.58" width="6" height="6"/>
    </g>
    <g class="cls-50">
      <rect class="cls-26" x="231.81" y="59.23" width="6" height="6"/>
    </g>
    <g class="cls-39">
      <rect class="cls-26" x="288.2" y="67.06" width="6" height="6"/>
    </g>
    <g class="cls-1">
      <rect class="cls-26" x="344.59" y="75.11" width="6" height="6"/>
    </g>
    <g class="cls-15">
      <rect class="cls-26" x="400.98" y="83" width="6" height="6"/>
    </g>
  </g>
  <line class="cls-25" x1="48.72" y1="296.32" x2="48.72" y2="19.12"/>
  <line class="cls-25" x1="420.9" y1="296.32" x2="420.9" y2="19.12"/>
  <line class="cls-25" x1="48.72" y1="296.32" x2="420.9" y2="296.32"/>
  <line class="cls-25" x1="48.72" y1="19.12" x2="420.9" y2="19.12"/>
  <g>
    <rect class="cls-8" x="159.97" y="103.44" width="164.57" height="86.39" rx="2.8" ry="2.8"/>
    <rect class="cls-22" x="159.97" y="103.44" width="164.57" height="86.39" rx="2.8" ry="2.8"/>
  </g>
  <polyline class="cls-23" points="165.57 114.78 179.57 114.78 193.57 114.78"/>
  <polygon class="cls-27" points="179.57 111.78 176.57 117.78 182.57 117.78 179.57 111.78"/>
  <polygon class="cls-6" points="206.14 109.47 208.2 109.47 210.8 116.42 213.42 109.47 215.48 109.47 215.48 119.68 214.13 119.68 214.13 110.72 211.5 117.72 210.11 117.72 207.48 110.72 207.48 119.68 206.14 119.68 206.14 109.47"/>
  <polygon class="cls-6" points="220.85 119.68 216.96 109.47 218.4 109.47 221.64 118.07 224.87 109.47 226.31 109.47 222.42 119.68 220.85 119.68"/>
  <rect class="cls-6" x="227.8" y="109.47" width="1.39" height="10.21"/>
  <path class="cls-6" d="M231.93,109.47h3.12c1.13,0,2,.27,2.59.78.59.52.88,1.27.88,2.27s-.29,1.78-.88,2.28c-.59.52-1.46.77-2.59.77h-1.74v4.1h-1.39v-10.21ZM233.31,110.61v3.84h1.74c.64,0,1.13-.15,1.48-.49.35-.34.53-.81.53-1.43s-.18-1.08-.53-1.41c-.35-.34-.84-.5-1.48-.5h-1.74Z"/>
  <path class="cls-6" d="M247.79,109.05c-.62,1.06-1.06,2.1-1.36,3.12-.31,1.02-.45,2.06-.45,3.11s.14,2.1.45,3.12c.29,1.04.74,2.06,1.36,3.11h-1.09c-.69-1.08-1.2-2.11-1.54-3.15-.34-1.04-.5-2.06-.5-3.08s.17-2.03.5-3.07c.34-1.04.84-2.09,1.54-3.16h1.09Z"/>
  <path class="cls-6" d="M256.19,113.49c.31-.56.69-.97,1.12-1.25.43-.27.95-.41,1.55-.41.78,0,1.4.28,1.83.84.43.56.66,1.36.66,2.38v4.62h-1.26v-4.58c0-.73-.14-1.27-.39-1.64-.27-.35-.66-.53-1.19-.53-.66,0-1.18.22-1.55.66-.38.43-.56,1.02-.56,1.76v4.33h-1.26v-4.58c0-.73-.14-1.27-.39-1.64-.27-.35-.67-.53-1.2-.53-.64,0-1.16.22-1.54.66-.38.43-.56,1.02-.56,1.76v4.33h-1.26v-7.66h1.26v1.19c.28-.46.63-.81,1.04-1.04.39-.22.87-.34,1.43-.34s1.02.14,1.41.42.67.7.87,1.23Z"/>
  <path class="cls-6" d="M266.9,111.84h0ZM263.73,116.66v-4.63h1.26v4.59c0,.73.14,1.26.42,1.62s.7.55,1.27.55c.67,0,1.22-.21,1.61-.64.39-.43.59-1.02.59-1.78v-4.34h1.26v7.66h-1.26v-1.18c-.31.48-.67.81-1.06,1.04-.41.21-.87.32-1.4.32-.88,0-1.55-.27-2-.81-.46-.53-.69-1.33-.69-2.39Z"/>
  <rect class="cls-6" x="272.74" y="109.04" width="1.26" height="10.64"/>
  <path class="cls-6" d="M277.87,109.85v2.17h2.59v.98h-2.59v4.16c0,.63.08,1.04.25,1.2.17.18.52.27,1.05.27h1.29v1.05h-1.29c-.98,0-1.65-.18-2.02-.55-.36-.36-.55-1.02-.55-1.97v-4.16h-.92v-.98h.92v-2.17h1.26Z"/>
  <path class="cls-6" d="M282.12,109.04h1.26v1.6h-1.26v-1.6ZM282.12,112.02h1.26v7.66h-1.26v-7.66Z"/>
  <rect class="cls-6" x="285.38" y="115.28" width="3.68" height="1.12"/>
  <path class="cls-6" d="M292.31,109.85v2.17h2.59v.98h-2.59v4.16c0,.63.08,1.04.25,1.2.17.18.52.27,1.05.27h1.29v1.05h-1.29c-.98,0-1.65-.18-2.02-.55-.36-.36-.55-1.02-.55-1.97v-4.16h-.92v-.98h.92v-2.17h1.26Z"/>
  <path class="cls-6" d="M296.55,109.04h1.26v1.6h-1.26v-1.6ZM296.55,112.02h1.26v7.66h-1.26v-7.66Z"/>
  <path class="cls-6" d="M305.73,115.17c-.01-.69-.21-1.23-.57-1.65-.38-.41-.88-.62-1.5-.62-.7,0-1.26.21-1.68.6-.42.39-.67.95-.73,1.67h4.48ZM306.99,115.54v.62h-5.78c.06.87.31,1.54.78,1.99.46.45,1.11.67,1.95.67.48,0,.95-.06,1.4-.17s.91-.29,1.36-.55v1.19c-.45.2-.91.35-1.39.43-.48.08-.97.14-1.44.14-1.23,0-2.2-.35-2.91-1.05-.71-.7-1.06-1.67-1.06-2.88s.34-2.24,1.01-2.98c.67-.73,1.6-1.11,2.74-1.11,1.04,0,1.85.34,2.45.99.59.67.9,1.57.9,2.7Z"/>
  <path class="cls-6" d="M313.49,113.2c-.14-.08-.29-.14-.46-.18-.17-.03-.35-.06-.55-.06-.71,0-1.26.24-1.64.7-.39.46-.57,1.12-.57,1.99v4.03h-1.26v-7.66h1.26v1.19c.25-.46.6-.81,1.02-1.04s.94-.34,1.55-.34c.08,0,.18.01.29.01.1.01.21.03.35.06v1.29Z"/>
  <path class="cls-6" d="M314.61,109.05h1.09c.67,1.08,1.19,2.13,1.53,3.16.34,1.04.52,2.06.52,3.07s-.18,2.04-.52,3.08c-.34,1.04-.85,2.07-1.53,3.15h-1.09c.6-1.05,1.05-2.07,1.36-3.11.29-1.02.45-2.06.45-3.12s-.15-2.09-.45-3.11c-.31-1.02-.76-2.06-1.36-3.12Z"/>
  <polyline class="cls-29" points="165.57 135.33 179.57 135.33 193.57 135.33"/>
  <rect class="cls-26" x="176.57" y="132.33" width="6" height="6"/>
  <polygon class="cls-6" points="206.14 130.02 207.52 130.02 207.52 139.07 212.49 139.07 212.49 140.23 206.14 140.23 206.14 130.02"/>
  <polygon class="cls-6" points="213.94 130.02 219.8 130.02 219.8 131.18 215.32 131.18 215.32 134.19 219.37 134.19 219.37 135.36 215.32 135.36 215.32 140.23 213.94 140.23 213.94 130.02"/>
  <path class="cls-6" d="M221.83,130.02h1.39v6.2c0,1.09.2,1.89.59,2.37s1.04.71,1.93.71,1.53-.24,1.92-.71c.39-.48.6-1.27.6-2.37v-6.2h1.39v6.37c0,1.34-.34,2.34-.99,3.01-.66.67-1.62,1.01-2.91,1.01s-2.27-.34-2.93-1.01-.98-1.67-.98-3.01v-6.37Z"/>
  <path class="cls-6" d="M239.65,129.6c-.62,1.06-1.06,2.1-1.36,3.12-.31,1.02-.45,2.06-.45,3.11s.14,2.1.45,3.12c.29,1.04.74,2.06,1.36,3.11h-1.09c-.69-1.08-1.2-2.11-1.54-3.15-.34-1.04-.5-2.06-.5-3.08s.17-2.03.5-3.07c.34-1.04.84-2.09,1.54-3.16h1.09Z"/>
  <path class="cls-6" d="M248.05,134.04c.31-.56.69-.97,1.12-1.25.43-.27.95-.41,1.55-.41.78,0,1.4.28,1.83.84.43.56.66,1.36.66,2.38v4.62h-1.26v-4.58c0-.73-.14-1.27-.39-1.64-.27-.35-.66-.53-1.19-.53-.66,0-1.18.22-1.55.66-.38.43-.56,1.02-.56,1.76v4.33h-1.26v-4.58c0-.73-.14-1.27-.39-1.64-.27-.35-.67-.53-1.2-.53-.64,0-1.16.22-1.54.66-.38.43-.56,1.02-.56,1.76v4.33h-1.26v-7.66h1.26v1.19c.28-.46.63-.81,1.04-1.04.39-.22.87-.34,1.43-.34s1.02.14,1.41.42.67.7.87,1.23Z"/>
  <path class="cls-6" d="M258.76,132.39h0ZM255.6,137.2v-4.63h1.26v4.59c0,.73.14,1.26.42,1.62s.7.55,1.27.55c.67,0,1.22-.21,1.61-.64.39-.43.59-1.02.59-1.78v-4.34h1.26v7.66h-1.26v-1.18c-.31.48-.67.81-1.06,1.04-.41.21-.87.32-1.4.32-.88,0-1.55-.27-2-.81-.46-.53-.69-1.33-.69-2.39Z"/>
  <rect class="cls-6" x="264.6" y="129.59" width="1.26" height="10.64"/>
  <path class="cls-6" d="M269.74,130.4v2.17h2.59v.98h-2.59v4.16c0,.63.08,1.04.25,1.2.17.18.52.27,1.05.27h1.29v1.05h-1.29c-.98,0-1.65-.18-2.02-.55-.36-.36-.55-1.02-.55-1.97v-4.16h-.92v-.98h.92v-2.17h1.26Z"/>
  <path class="cls-6" d="M273.98,129.59h1.26v1.6h-1.26v-1.6ZM273.98,132.57h1.26v7.66h-1.26v-7.66Z"/>
  <rect class="cls-6" x="277.24" y="135.83" width="3.68" height="1.12"/>
  <path class="cls-6" d="M284.17,130.4v2.17h2.59v.98h-2.59v4.16c0,.63.08,1.04.25,1.2.17.18.52.27,1.05.27h1.29v1.05h-1.29c-.98,0-1.65-.18-2.02-.55-.36-.36-.55-1.02-.55-1.97v-4.16h-.92v-.98h.92v-2.17h1.26Z"/>
  <path class="cls-6" d="M288.42,129.59h1.26v1.6h-1.26v-1.6ZM288.42,132.57h1.26v7.66h-1.26v-7.66Z"/>
  <path class="cls-6" d="M297.6,135.72c-.01-.69-.21-1.23-.57-1.65-.38-.41-.88-.62-1.5-.62-.7,0-1.26.21-1.68.6-.42.39-.67.95-.73,1.67h4.48ZM298.86,136.08v.62h-5.78c.06.87.31,1.54.78,1.99.46.45,1.11.67,1.95.67.48,0,.95-.06,1.4-.17s.91-.29,1.36-.55v1.19c-.45.2-.91.35-1.39.43-.48.08-.97.14-1.44.14-1.23,0-2.2-.35-2.91-1.05-.71-.7-1.06-1.67-1.06-2.88s.34-2.24,1.01-2.98c.67-.73,1.6-1.11,2.74-1.11,1.04,0,1.85.34,2.45.99.59.67.9,1.57.9,2.7Z"/>
  <path class="cls-6" d="M305.36,133.75c-.14-.08-.29-.14-.46-.18-.17-.03-.35-.06-.55-.06-.71,0-1.26.24-1.64.7-.39.46-.57,1.12-.57,1.99v4.03h-1.26v-7.66h1.26v1.19c.25-.46.6-.81,1.02-1.04s.94-.34,1.55-.34c.08,0,.18.01.29.01.1.01.21.03.35.06v1.29Z"/>
  <path class="cls-6" d="M306.48,129.6h1.09c.67,1.08,1.19,2.13,1.53,3.16.34,1.04.52,2.06.52,3.07s-.18,2.04-.52,3.08c-.34,1.04-.85,2.07-1.53,3.15h-1.09c.6-1.05,1.05-2.07,1.36-3.11.29-1.02.45-2.06.45-3.12s-.15-2.09-.45-3.11c-.31-1.02-.76-2.06-1.36-3.12Z"/>
  <polyline class="cls-21" points="165.57 155.87 179.57 155.87 193.57 155.87"/>
  <polygon class="cls-27" points="179.57 152.87 176.57 158.87 182.57 158.87 179.57 152.87"/>
  <polygon class="cls-6" points="208.77 160.77 204.88 150.57 206.32 150.57 209.55 159.16 212.79 150.57 214.23 150.57 210.34 160.77 208.77 160.77"/>
  <rect class="cls-6" x="215.71" y="150.57" width="1.39" height="10.21"/>
  <path class="cls-6" d="M219.84,150.57h3.12c1.13,0,2,.27,2.59.78.59.52.88,1.27.88,2.27s-.29,1.78-.88,2.28c-.59.52-1.46.77-2.59.77h-1.74v4.1h-1.39v-10.21ZM221.23,151.7v3.84h1.74c.64,0,1.13-.15,1.48-.49.35-.34.53-.81.53-1.43s-.18-1.08-.53-1.41c-.35-.34-.84-.5-1.48-.5h-1.74Z"/>
  <path class="cls-6" d="M235.71,150.15c-.62,1.06-1.06,2.1-1.36,3.12-.31,1.02-.45,2.06-.45,3.11s.14,2.1.45,3.12c.29,1.04.74,2.06,1.36,3.11h-1.09c-.69-1.08-1.2-2.11-1.54-3.15-.34-1.04-.5-2.06-.5-3.08s.17-2.03.5-3.07c.34-1.04.84-2.09,1.54-3.16h1.09Z"/>
  <path class="cls-6" d="M243.03,153.34v1.19c-.36-.17-.73-.31-1.11-.41-.39-.08-.78-.14-1.19-.14-.63,0-1.11.1-1.41.29s-.46.48-.46.85c0,.29.11.52.34.69s.67.34,1.34.48l.43.1c.9.2,1.53.48,1.9.81.36.35.56.84.56,1.46,0,.71-.28,1.27-.84,1.68-.56.42-1.34.62-2.32.62-.42,0-.84-.04-1.29-.11-.45-.07-.91-.18-1.4-.35v-1.3c.46.25.92.43,1.37.55.45.13.9.18,1.34.18.59,0,1.05-.1,1.37-.29.31-.2.48-.49.48-.87,0-.34-.13-.6-.35-.78-.22-.18-.73-.36-1.51-.53l-.43-.1c-.78-.17-1.36-.42-1.69-.76-.35-.34-.52-.8-.52-1.4,0-.71.25-1.27.76-1.67.5-.39,1.23-.59,2.18-.59.46,0,.9.04,1.32.11.41.07.78.17,1.13.29Z"/>
  <path class="cls-6" d="M245.44,150.13h1.26v1.6h-1.26v-1.6ZM245.44,153.12h1.26v7.66h-1.26v-7.66Z"/>
  <path class="cls-6" d="M255.7,156.15v4.62h-1.26v-4.58c0-.73-.15-1.26-.43-1.62s-.7-.55-1.26-.55c-.69,0-1.22.22-1.61.66-.39.43-.59,1.02-.59,1.76v4.33h-1.26v-7.66h1.26v1.19c.29-.45.64-.8,1.06-1.02.41-.22.88-.35,1.41-.35.87,0,1.54.28,1.99.83.45.55.69,1.34.69,2.39Z"/>
  <path class="cls-6" d="M264.5,159.82c0,1.29-.29,2.25-.87,2.9-.59.63-1.47.95-2.66.95-.45,0-.85-.04-1.25-.1-.39-.07-.78-.17-1.15-.31v-1.22c.36.2.73.34,1.09.43.36.1.73.15,1.11.15.81,0,1.43-.22,1.85-.64.41-.43.62-1.08.62-1.95v-.62c-.27.45-.6.78-1.01,1.01s-.88.34-1.44.34c-.95,0-1.71-.35-2.28-1.06-.57-.71-.85-1.67-.85-2.86s.28-2.13.85-2.84c.57-.71,1.33-1.08,2.28-1.08.56,0,1.04.11,1.44.34s.74.56,1.01,1.01v-1.16h1.26v6.71ZM263.24,156.85c0-.9-.2-1.61-.56-2.11-.38-.5-.91-.76-1.58-.76s-1.2.25-1.58.76c-.38.5-.56,1.22-.56,2.11s.18,1.61.56,2.11c.38.5.91.76,1.58.76s1.2-.25,1.58-.76c.36-.5.56-1.2.56-2.11Z"/>
  <rect class="cls-6" x="267.09" y="150.13" width="1.26" height="10.64"/>
  <path class="cls-6" d="M276.28,156.27c-.01-.69-.21-1.23-.57-1.65-.38-.41-.88-.62-1.5-.62-.7,0-1.26.21-1.68.6-.42.39-.67.95-.73,1.67h4.48ZM277.54,156.63v.62h-5.78c.06.87.31,1.54.78,1.99.46.45,1.11.67,1.95.67.48,0,.95-.06,1.4-.17s.91-.29,1.36-.55v1.19c-.45.2-.91.35-1.39.43-.48.08-.97.14-1.44.14-1.23,0-2.2-.35-2.91-1.05-.71-.7-1.06-1.67-1.06-2.88s.34-2.24,1.01-2.98c.67-.73,1.6-1.11,2.74-1.11,1.04,0,1.85.34,2.45.99.59.67.9,1.57.9,2.7Z"/>
  <rect class="cls-6" x="278.97" y="156.38" width="3.68" height="1.12"/>
  <path class="cls-6" d="M285.9,150.95v2.17h2.59v.98h-2.59v4.16c0,.63.08,1.04.25,1.2.17.18.52.27,1.05.27h1.29v1.05h-1.29c-.98,0-1.65-.18-2.02-.55-.36-.36-.55-1.02-.55-1.97v-4.16h-.92v-.98h.92v-2.17h1.26Z"/>
  <path class="cls-6" d="M290.14,150.13h1.26v1.6h-1.26v-1.6ZM290.14,153.12h1.26v7.66h-1.26v-7.66Z"/>
  <path class="cls-6" d="M299.32,156.27c-.01-.69-.21-1.23-.57-1.65-.38-.41-.88-.62-1.5-.62-.7,0-1.26.21-1.68.6-.42.39-.67.95-.73,1.67h4.48ZM300.58,156.63v.62h-5.78c.06.87.31,1.54.78,1.99.46.45,1.11.67,1.95.67.48,0,.95-.06,1.4-.17s.91-.29,1.36-.55v1.19c-.45.2-.91.35-1.39.43-.48.08-.97.14-1.44.14-1.23,0-2.2-.35-2.91-1.05-.71-.7-1.06-1.67-1.06-2.88s.34-2.24,1.01-2.98c.67-.73,1.6-1.11,2.74-1.11,1.04,0,1.85.34,2.45.99.59.67.9,1.57.9,2.7Z"/>
  <path class="cls-6" d="M307.08,154.29c-.14-.08-.29-.14-.46-.18-.17-.03-.35-.06-.55-.06-.71,0-1.26.24-1.64.7-.39.46-.57,1.12-.57,1.99v4.03h-1.26v-7.66h1.26v1.19c.25-.46.6-.81,1.02-1.04s.94-.34,1.55-.34c.08,0,.18.01.29.01.1.01.21.03.35.06v1.29Z"/>
  <path class="cls-6" d="M308.2,150.15h1.09c.67,1.08,1.19,2.13,1.53,3.16.34,1.04.52,2.06.52,3.07s-.18,2.04-.52,3.08c-.34,1.04-.85,2.07-1.53,3.15h-1.09c.6-1.05,1.05-2.07,1.36-3.11.29-1.02.45-2.06.45-3.12s-.15-2.09-.45-3.11c-.31-1.02-.76-2.06-1.36-3.12Z"/>
  <polyline class="cls-24" points="165.57 176.42 179.57 176.42 193.57 176.42"/>
  <rect class="cls-26" x="176.57" y="173.42" width="6" height="6"/>
  <polygon class="cls-6" points="206.14 171.12 207.52 171.12 207.52 180.16 212.49 180.16 212.49 181.32 206.14 181.32 206.14 171.12"/>
  <polygon class="cls-6" points="213.94 171.12 219.8 171.12 219.8 172.28 215.32 172.28 215.32 175.29 219.37 175.29 219.37 176.45 215.32 176.45 215.32 181.32 213.94 181.32 213.94 171.12"/>
  <path class="cls-6" d="M221.83,171.12h1.39v6.2c0,1.09.2,1.89.59,2.37s1.04.71,1.93.71,1.53-.24,1.92-.71c.39-.48.6-1.27.6-2.37v-6.2h1.39v6.37c0,1.34-.34,2.34-.99,3.01-.66.67-1.62,1.01-2.91,1.01s-2.27-.34-2.93-1.01-.98-1.67-.98-3.01v-6.37Z"/>
  <path class="cls-6" d="M239.65,170.7c-.62,1.06-1.06,2.1-1.36,3.12-.31,1.02-.45,2.06-.45,3.11s.14,2.1.45,3.12c.29,1.04.74,2.06,1.36,3.11h-1.09c-.69-1.08-1.2-2.11-1.54-3.15-.34-1.04-.5-2.06-.5-3.08s.17-2.03.5-3.07c.34-1.04.84-2.09,1.54-3.16h1.09Z"/>
  <path class="cls-6" d="M246.98,173.89v1.19c-.36-.17-.73-.31-1.11-.41-.39-.08-.78-.14-1.19-.14-.63,0-1.11.1-1.41.29s-.46.48-.46.85c0,.29.11.52.34.69s.67.34,1.34.48l.43.1c.9.2,1.53.48,1.9.81.36.35.56.84.56,1.46,0,.71-.28,1.27-.84,1.68-.56.42-1.34.62-2.32.62-.42,0-.84-.04-1.29-.11-.45-.07-.91-.18-1.4-.35v-1.3c.46.25.92.43,1.37.55.45.13.9.18,1.34.18.59,0,1.05-.1,1.37-.29.31-.2.48-.49.48-.87,0-.34-.13-.6-.35-.78-.22-.18-.73-.36-1.51-.53l-.43-.1c-.78-.17-1.36-.42-1.69-.76-.35-.34-.52-.8-.52-1.4,0-.71.25-1.27.76-1.67.5-.39,1.23-.59,2.18-.59.46,0,.9.04,1.32.11.41.07.78.17,1.13.29Z"/>
  <path class="cls-6" d="M249.38,170.68h1.26v1.6h-1.26v-1.6ZM249.38,173.66h1.26v7.66h-1.26v-7.66Z"/>
  <path class="cls-6" d="M259.65,176.7v4.62h-1.26v-4.58c0-.73-.15-1.26-.43-1.62s-.7-.55-1.26-.55c-.69,0-1.22.22-1.61.66-.39.43-.59,1.02-.59,1.76v4.33h-1.26v-7.66h1.26v1.19c.29-.45.64-.8,1.06-1.02.41-.22.88-.35,1.41-.35.87,0,1.54.28,1.99.83.45.55.69,1.34.69,2.39Z"/>
  <path class="cls-6" d="M268.45,180.37c0,1.29-.29,2.25-.87,2.9-.59.63-1.47.95-2.66.95-.45,0-.85-.04-1.25-.1-.39-.07-.78-.17-1.15-.31v-1.22c.36.2.73.34,1.09.43.36.1.73.15,1.11.15.81,0,1.43-.22,1.85-.64.41-.43.62-1.08.62-1.95v-.62c-.27.45-.6.78-1.01,1.01s-.88.34-1.44.34c-.95,0-1.71-.35-2.28-1.06-.57-.71-.85-1.67-.85-2.86s.28-2.13.85-2.84c.57-.71,1.33-1.08,2.28-1.08.56,0,1.04.11,1.44.34s.74.56,1.01,1.01v-1.16h1.26v6.71ZM267.19,177.4c0-.9-.2-1.61-.56-2.11-.38-.5-.91-.76-1.58-.76s-1.2.25-1.58.76c-.38.5-.56,1.22-.56,2.11s.18,1.61.56,2.11c.38.5.91.76,1.58.76s1.2-.25,1.58-.76c.36-.5.56-1.2.56-2.11Z"/>
  <rect class="cls-6" x="271.04" y="170.68" width="1.26" height="10.64"/>
  <path class="cls-6" d="M280.23,176.81c-.01-.69-.21-1.23-.57-1.65-.38-.41-.88-.62-1.5-.62-.7,0-1.26.21-1.68.6-.42.39-.67.95-.73,1.67h4.48ZM281.49,177.18v.62h-5.78c.06.87.31,1.54.78,1.99.46.45,1.11.67,1.95.67.48,0,.95-.06,1.4-.17s.91-.29,1.36-.55v1.19c-.45.2-.91.35-1.39.43-.48.08-.97.14-1.44.14-1.23,0-2.2-.35-2.91-1.05-.71-.7-1.06-1.67-1.06-2.88s.34-2.24,1.01-2.98c.67-.73,1.6-1.11,2.74-1.11,1.04,0,1.85.34,2.45.99.59.67.9,1.57.9,2.7Z"/>
  <rect class="cls-6" x="282.91" y="176.93" width="3.68" height="1.12"/>
  <path class="cls-6" d="M289.84,171.49v2.17h2.59v.98h-2.59v4.16c0,.63.08,1.04.25,1.2.17.18.52.27,1.05.27h1.29v1.05h-1.29c-.98,0-1.65-.18-2.02-.55-.36-.36-.55-1.02-.55-1.97v-4.16h-.92v-.98h.92v-2.17h1.26Z"/>
  <path class="cls-6" d="M294.09,170.68h1.26v1.6h-1.26v-1.6ZM294.09,173.66h1.26v7.66h-1.26v-7.66Z"/>
  <path class="cls-6" d="M303.27,176.81c-.01-.69-.21-1.23-.57-1.65-.38-.41-.88-.62-1.5-.62-.7,0-1.26.21-1.68.6-.42.39-.67.95-.73,1.67h4.48ZM304.53,177.18v.62h-5.78c.06.87.31,1.54.78,1.99.46.45,1.11.67,1.95.67.48,0,.95-.06,1.4-.17s.91-.29,1.36-.55v1.19c-.45.2-.91.35-1.39.43-.48.08-.97.14-1.44.14-1.23,0-2.2-.35-2.91-1.05-.71-.7-1.06-1.67-1.06-2.88s.34-2.24,1.01-2.98c.67-.73,1.6-1.11,2.74-1.11,1.04,0,1.85.34,2.45.99.59.67.9,1.57.9,2.7Z"/>
  <path class="cls-6" d="M311.03,174.84c-.14-.08-.29-.14-.46-.18-.17-.03-.35-.06-.55-.06-.71,0-1.26.24-1.64.7-.39.46-.57,1.12-.57,1.99v4.03h-1.26v-7.66h1.26v1.19c.25-.46.6-.81,1.02-1.04s.94-.34,1.55-.34c.08,0,.18.01.29.01.1.01.21.03.35.06v1.29Z"/>
  <path class="cls-6" d="M312.15,170.7h1.09c.67,1.08,1.19,2.13,1.53,3.16.34,1.04.52,2.06.52,3.07s-.18,2.04-.52,3.08c-.34,1.04-.85,2.07-1.53,3.15h-1.09c.6-1.05,1.05-2.07,1.36-3.11.29-1.02.45-2.06.45-3.12s-.15-2.09-.45-3.11c-.31-1.02-.76-2.06-1.36-3.12Z"/>
</svg>