<?xml version="1.0" encoding="UTF-8"?>
<svg xmlns="http://www.w3.org/2000/svg" version="1.1" xmlns:xlink="http://www.w3.org/1999/xlink" viewBox="0 0 419.1 340.19">
  <defs>
    <style>
      .cls-1 {
        clip-path: url(#clippath-51);
      }

      .cls-2 {
        stroke: #ccc;
      }

      .cls-2, .cls-3, .cls-4, .cls-5, .cls-6, .cls-7, .cls-8, .cls-9, .cls-10, .cls-11, .cls-12, .cls-13, .cls-14, .cls-15, .cls-16 {
        fill: none;
      }

      .cls-2, .cls-4, .cls-6, .cls-7, .cls-11, .cls-14 {
        stroke-miterlimit: 10;
      }

      .cls-2, .cls-17 {
        opacity: .8;
      }

      .cls-18 {
        clip-path: url(#clippath-34);
      }

      .cls-19 {
        clip-path: url(#clippath-38);
      }

      .cls-20 {
        clip-path: url(#clippath-21);
      }

      .cls-21 {
        clip-path: url(#clippath-6);
      }

      .cls-22 {
        clip-path: url(#clippath-7);
      }

      .cls-23 {
        clip-path: url(#clippath-17);
      }

      .cls-24 {
        clip-path: url(#clippath-31);
      }

      .cls-3, .cls-5, .cls-8, .cls-10, .cls-12, .cls-13, .cls-15, .cls-16 {
        stroke-linejoin: round;
      }

      .cls-3, .cls-8, .cls-10, .cls-12, .cls-15, .cls-16 {
        stroke-width: 1.5px;
      }

      .cls-3, .cls-10, .cls-11, .cls-13 {
        stroke: #000;
      }

      .cls-3, .cls-11, .cls-12, .cls-15 {
        stroke-linecap: square;
      }

      .cls-25 {
        clip-path: url(#clippath-15);
      }

      .cls-26 {
        clip-path: url(#clippath-33);
      }

      .cls-4, .cls-7, .cls-12, .cls-16 {
        stroke: blue;
      }

      .cls-4, .cls-14 {
        stroke-width: 2px;
      }

      .cls-27 {
        clip-path: url(#clippath-18);
      }

      .cls-28 {
        clip-path: url(#clippath-47);
      }

      .cls-29 {
        clip-path: url(#clippath-4);
      }

      .cls-30 {
        clip-path: url(#clippath-22);
      }

      .cls-31 {
        clip-path: url(#clippath-23);
      }

      .cls-5 {
        opacity: .5;
        stroke: #b0b0b0;
        stroke-dasharray: 2.96 1.28;
      }

      .cls-5, .cls-11, .cls-13 {
        stroke-width: .8px;
      }

      .cls-32 {
        clip-path: url(#clippath-54);
      }

      .cls-33 {
        clip-path: url(#clippath-9);
      }

      .cls-34 {
        clip-path: url(#clippath-10);
      }

      .cls-35 {
        clip-path: url(#clippath-42);
      }

      .cls-36, .cls-17 {
        fill: #fff;
      }

      .cls-37 {
        clip-path: url(#clippath-43);
      }

      .cls-6, .cls-8, .cls-14, .cls-15 {
        stroke: red;
      }

      .cls-38 {
        clip-path: url(#clippath-25);
      }

      .cls-39 {
        clip-path: url(#clippath-27);
      }

      .cls-8, .cls-10, .cls-16 {
        stroke-dasharray: 5.55 2.4;
      }

      .cls-40 {
        clip-path: url(#clippath-11);
      }

      .cls-41 {
        clip-path: url(#clippath-36);
      }

      .cls-42 {
        clip-path: url(#clippath-35);
      }

      .cls-43 {
        clip-path: url(#clippath-48);
      }

      .cls-44 {
        clip-path: url(#clippath-28);
      }

      .cls-45 {
        clip-path: url(#clippath-1);
      }

      .cls-46 {
        clip-path: url(#clippath-45);
      }

      .cls-47 {
        clip-path: url(#clippath-46);
      }

      .cls-48 {
        clip-path: url(#clippath-40);
      }

      .cls-49 {
        clip-path: url(#clippath-5);
      }

      .cls-50 {
        clip-path: url(#clippath-20);
      }

      .cls-51 {
        clip-path: url(#clippath-8);
      }

      .cls-52 {
        clip-path: url(#clippath-52);
      }

      .cls-53 {
        clip-path: url(#clippath-41);
      }

      .cls-54 {
        clip-path: url(#clippath-3);
      }

      .cls-55 {
        clip-path: url(#clippath-26);
      }

      .cls-56 {
        clip-path: url(#clippath-12);
      }

      .cls-57 {
        clip-path: url(#clippath-50);
      }

      .cls-58 {
        clip-path: url(#clippath-14);
      }

      .cls-59 {
        clip-path: url(#clippath-30);
      }

      .cls-60 {
        clip-path: url(#clippath-19);
      }

      .cls-61 {
        clip-path: url(#clippath-32);
      }

      .cls-62 {
        clip-path: url(#clippath-53);
      }

      .cls-63 {
        clip-path: url(#clippath-39);
      }

      .cls-64 {
        clip-path: url(#clippath-16);
      }

      .cls-65 {
        clip-path: url(#clippath-2);
      }

      .cls-66 {
        clip-path: url(#clippath-29);
      }

      .cls-67 {
        clip-path: url(#clippath-49);
      }

      .cls-68 {
        clip-path: url(#clippath-37);
      }

      .cls-69 {
        clip-path: url(#clippath-13);
      }

      .cls-70 {
        clip-path: url(#clippath-24);
      }

      .cls-71 {
        clip-path: url(#clippath);
      }

      .cls-72 {
        clip-path: url(#clippath-44);
      }
    </style>
    <clipPath id="clippath">
      <rect class="cls-9" x="39.72" y="19.12" width="372.19" height="277.2"/>
    </clipPath>
    <clipPath id="clippath-1">
      <rect class="cls-9" x="39.72" y="19.12" width="372.19" height="277.2"/>
    </clipPath>
    <clipPath id="clippath-2">
      <rect class="cls-9" x="39.72" y="19.12" width="372.19" height="277.2"/>
    </clipPath>
    <clipPath id="clippath-3">
      <rect class="cls-9" x="39.72" y="19.12" width="372.19" height="277.2"/>
    </clipPath>
    <clipPath id="clippath-4">
      <rect class="cls-9" x="39.72" y="19.12" width="372.19" height="277.2"/>
    </clipPath>
    <clipPath id="clippath-5">
      <rect class="cls-9" x="39.72" y="19.12" width="372.19" height="277.2"/>
    </clipPath>
    <clipPath id="clippath-6">
      <rect class="cls-9" x="39.72" y="19.12" width="372.19" height="277.2"/>
    </clipPath>
    <clipPath id="clippath-7">
      <rect class="cls-9" x="39.72" y="19.12" width="372.19" height="277.2"/>
    </clipPath>
    <clipPath id="clippath-8">
      <rect class="cls-9" x="39.72" y="19.12" width="372.19" height="277.2"/>
    </clipPath>
    <clipPath id="clippath-9">
      <rect class="cls-9" x="288.37" y="309.89" width="42.22" height="25.44"/>
    </clipPath>
    <clipPath id="clippath-10">
      <rect class="cls-9" x="39.72" y="19.12" width="372.19" height="277.2"/>
    </clipPath>
    <clipPath id="clippath-11">
      <rect class="cls-9" x="39.72" y="19.12" width="372.19" height="277.2"/>
    </clipPath>
    <clipPath id="clippath-12">
      <rect class="cls-9" x="39.72" y="19.12" width="372.19" height="277.2"/>
    </clipPath>
    <clipPath id="clippath-13">
      <rect class="cls-9" x="39.72" y="19.12" width="372.19" height="277.2"/>
    </clipPath>
    <clipPath id="clippath-14">
      <rect class="cls-9" x="39.72" y="19.12" width="372.19" height="277.2"/>
    </clipPath>
    <clipPath id="clippath-15">
      <rect class="cls-9" x="39.72" y="19.12" width="372.19" height="277.2"/>
    </clipPath>
    <clipPath id="clippath-16">
      <rect class="cls-9" x="48.63" y="228.75" width="16" height="16"/>
    </clipPath>
    <clipPath id="clippath-17">
      <rect class="cls-9" x="90.93" y="251.77" width="16" height="16"/>
    </clipPath>
    <clipPath id="clippath-18">
      <rect class="cls-9" x="133.22" y="255.12" width="16" height="16"/>
    </clipPath>
    <clipPath id="clippath-19">
      <rect class="cls-9" x="175.51" y="257.22" width="16" height="16"/>
    </clipPath>
    <clipPath id="clippath-20">
      <rect class="cls-9" x="217.81" y="258.22" width="16" height="16"/>
    </clipPath>
    <clipPath id="clippath-21">
      <rect class="cls-9" x="260.1" y="258.93" width="16" height="16"/>
    </clipPath>
    <clipPath id="clippath-22">
      <rect class="cls-9" x="302.4" y="260.42" width="16" height="16"/>
    </clipPath>
    <clipPath id="clippath-23">
      <rect class="cls-9" x="344.69" y="261.37" width="16" height="16"/>
    </clipPath>
    <clipPath id="clippath-24">
      <rect class="cls-9" x="386.98" y="262.7" width="16" height="16"/>
    </clipPath>
    <clipPath id="clippath-25">
      <rect class="cls-9" x="39.72" y="19.12" width="372.19" height="277.2"/>
    </clipPath>
    <clipPath id="clippath-26">
      <rect class="cls-9" x="48.63" y="275.72" width="16" height="16"/>
    </clipPath>
    <clipPath id="clippath-27">
      <rect class="cls-9" x="90.93" y="177.77" width="16" height="16"/>
    </clipPath>
    <clipPath id="clippath-28">
      <rect class="cls-9" x="133.22" y="145.11" width="16" height="16"/>
    </clipPath>
    <clipPath id="clippath-29">
      <rect class="cls-9" x="175.51" y="118.74" width="16" height="16"/>
    </clipPath>
    <clipPath id="clippath-30">
      <rect class="cls-9" x="217.81" y="93.86" width="16" height="16"/>
    </clipPath>
    <clipPath id="clippath-31">
      <rect class="cls-9" x="260.1" y="75.41" width="16" height="16"/>
    </clipPath>
    <clipPath id="clippath-32">
      <rect class="cls-9" x="302.4" y="70.53" width="16" height="16"/>
    </clipPath>
    <clipPath id="clippath-33">
      <rect class="cls-9" x="344.69" y="63.23" width="16" height="16"/>
    </clipPath>
    <clipPath id="clippath-34">
      <rect class="cls-9" x="386.98" y="55.24" width="16" height="16"/>
    </clipPath>
    <clipPath id="clippath-35">
      <rect class="cls-9" x="39.72" y="19.12" width="372.19" height="277.2"/>
    </clipPath>
    <clipPath id="clippath-36">
      <rect class="cls-9" x="48.63" y="256.84" width="16" height="16"/>
    </clipPath>
    <clipPath id="clippath-37">
      <rect class="cls-9" x="90.93" y="263.91" width="16" height="16"/>
    </clipPath>
    <clipPath id="clippath-38">
      <rect class="cls-9" x="133.22" y="264.68" width="16" height="16"/>
    </clipPath>
    <clipPath id="clippath-39">
      <rect class="cls-9" x="175.51" y="264.44" width="16" height="16"/>
    </clipPath>
    <clipPath id="clippath-40">
      <rect class="cls-9" x="217.81" y="264.11" width="16" height="16"/>
    </clipPath>
    <clipPath id="clippath-41">
      <rect class="cls-9" x="260.1" y="263.98" width="16" height="16"/>
    </clipPath>
    <clipPath id="clippath-42">
      <rect class="cls-9" x="302.4" y="263.9" width="16" height="16"/>
    </clipPath>
    <clipPath id="clippath-43">
      <rect class="cls-9" x="344.69" y="263.68" width="16" height="16"/>
    </clipPath>
    <clipPath id="clippath-44">
      <rect class="cls-9" x="386.98" y="263.55" width="16" height="16"/>
    </clipPath>
    <clipPath id="clippath-45">
      <rect class="cls-9" x="39.72" y="19.12" width="372.19" height="277.2"/>
    </clipPath>
    <clipPath id="clippath-46">
      <rect class="cls-9" x="48.63" y="275.72" width="16" height="16"/>
    </clipPath>
    <clipPath id="clippath-47">
      <rect class="cls-9" x="90.93" y="198.88" width="16" height="16"/>
    </clipPath>
    <clipPath id="clippath-48">
      <rect class="cls-9" x="133.22" y="155.93" width="16" height="16"/>
    </clipPath>
    <clipPath id="clippath-49">
      <rect class="cls-9" x="175.51" y="121.8" width="16" height="16"/>
    </clipPath>
    <clipPath id="clippath-50">
      <rect class="cls-9" x="217.81" y="94.84" width="16" height="16"/>
    </clipPath>
    <clipPath id="clippath-51">
      <rect class="cls-9" x="260.1" y="72.14" width="16" height="16"/>
    </clipPath>
    <clipPath id="clippath-52">
      <rect class="cls-9" x="302.4" y="52.36" width="16" height="16"/>
    </clipPath>
    <clipPath id="clippath-53">
      <rect class="cls-9" x="344.69" y="37.52" width="16" height="16"/>
    </clipPath>
    <clipPath id="clippath-54">
      <rect class="cls-9" x="386.98" y="23.72" width="16" height="16"/>
    </clipPath>
  </defs>
  <!-- Generator: Adobe Illustrator 28.6.0, SVG Export Plug-In . SVG Version: 1.2.0 Build 709)  -->
  <g>
    <g id="Layer_1">
      <rect class="cls-36" width="419.1" height="340.19"/>
      <rect class="cls-36" x="39.72" y="19.12" width="372.19" height="277.2"/>
      <g class="cls-71">
        <line class="cls-5" x1="56.63" y1="296.32" x2="56.63" y2="19.12"/>
      </g>
      <line x1="56.63" y1="296.32" x2="56.63" y2="299.82"/>
      <line class="cls-13" x1="56.63" y1="296.32" x2="56.63" y2="299.82"/>
      <path d="M56.63,303.5c.81,0,1.43.33,1.87.97.43.65.65,1.59.65,2.81s-.22,2.17-.65,2.81c-.44.64-1.06.96-1.88.96s-1.44-.32-1.87-.96-.64-1.58-.64-2.81.21-2.16.64-2.81c.43-.64,1.06-.97,1.88-.97ZM56.63,304.28c-.51,0-.89.25-1.15.75-.26.5-.38,1.25-.38,2.25s.12,1.75.38,2.25c.26.5.64.75,1.15.75s.89-.25,1.15-.75c.25-.5.38-1.25.38-2.25s-.13-1.75-.38-2.25c-.26-.5-.64-.75-1.15-.75Z"/>
      <g class="cls-45">
        <line class="cls-5" x1="98.93" y1="296.32" x2="98.93" y2="19.12"/>
      </g>
      <line x1="98.93" y1="296.32" x2="98.93" y2="299.82"/>
      <line class="cls-13" x1="98.93" y1="296.32" x2="98.93" y2="299.82"/>
      <polygon points="96.99 310.09 98.6 310.09 98.6 304.53 96.85 304.88 96.85 303.98 98.59 303.63 99.58 303.63 99.58 310.09 101.19 310.09 101.19 310.92 96.99 310.92 96.99 310.09"/>
      <g class="cls-65">
        <line class="cls-5" x1="141.22" y1="296.32" x2="141.22" y2="19.12"/>
      </g>
      <line x1="141.22" y1="296.32" x2="141.22" y2="299.82"/>
      <line class="cls-13" x1="141.22" y1="296.32" x2="141.22" y2="299.82"/>
      <path d="M139.96,310.09h3.44v.83h-4.63v-.83c.37-.38.88-.9,1.53-1.56.64-.65,1.05-1.07,1.22-1.26.32-.35.54-.65.66-.9.12-.24.19-.49.19-.73,0-.38-.14-.7-.41-.94-.27-.24-.62-.37-1.06-.37-.31,0-.64.06-.98.16-.34.11-.71.27-1.1.49v-1c.4-.16.77-.28,1.11-.36.34-.08.66-.12.95-.12.75,0,1.35.19,1.8.57.45.38.68.88.68,1.51,0,.3-.06.59-.17.85-.11.27-.31.59-.61.95-.08.1-.34.37-.78.82-.44.45-1.05,1.08-1.84,1.89Z"/>
      <g class="cls-54">
        <line class="cls-5" x1="183.51" y1="296.32" x2="183.51" y2="19.12"/>
      </g>
      <line x1="183.51" y1="296.32" x2="183.51" y2="299.82"/>
      <line class="cls-13" x1="183.51" y1="296.32" x2="183.51" y2="299.82"/>
      <path d="M184.4,306.99c.47.1.84.31,1.1.63.26.32.4.72.4,1.18,0,.72-.25,1.28-.74,1.67-.5.39-1.2.58-2.11.58-.31,0-.63-.03-.95-.09-.32-.05-.66-.14-1-.26v-.95c.27.16.57.28.9.36.32.08.66.12,1.02.12.62,0,1.09-.12,1.41-.36.32-.24.49-.6.49-1.07,0-.42-.15-.76-.45-1-.3-.24-.72-.37-1.26-.37h-.85v-.81h.89c.48,0,.85-.09,1.11-.29.26-.19.39-.47.39-.84s-.14-.66-.4-.86c-.27-.2-.65-.3-1.14-.3-.27,0-.56.03-.87.09s-.65.15-1.02.27v-.88c.37-.1.72-.18,1.05-.23.32-.05.63-.08.93-.08.74,0,1.33.17,1.77.51s.66.8.66,1.38c0,.4-.12.74-.35,1.02-.23.28-.56.48-.98.58Z"/>
      <g class="cls-29">
        <line class="cls-5" x1="225.81" y1="296.32" x2="225.81" y2="19.12"/>
      </g>
      <line x1="225.81" y1="296.32" x2="225.81" y2="299.82"/>
      <line class="cls-13" x1="225.81" y1="296.32" x2="225.81" y2="299.82"/>
      <path d="M226.15,303.63h1.24v4.75h1.04v.82h-1.04v1.72h-.98v-1.72h-3.29v-.95l3.03-4.62ZM226.41,304.49l-2.49,3.89h2.49v-3.89Z"/>
      <g class="cls-49">
        <line class="cls-5" x1="268.1" y1="296.32" x2="268.1" y2="19.12"/>
      </g>
      <line x1="268.1" y1="296.32" x2="268.1" y2="299.82"/>
      <line class="cls-13" x1="268.1" y1="296.32" x2="268.1" y2="299.82"/>
      <path d="M266,303.63h3.87v.83h-2.97v1.79c.14-.05.29-.09.43-.11.14-.02.29-.04.43-.04.81,0,1.45.23,1.93.67.48.45.72,1.05.72,1.81s-.25,1.4-.74,1.83-1.18.64-2.06.64c-.31,0-.62-.03-.94-.07-.32-.05-.64-.12-.98-.23v-.99c.29.16.59.28.91.36.31.08.64.11.99.11.56,0,1.01-.14,1.34-.44.32-.3.49-.7.49-1.21s-.17-.9-.49-1.2c-.33-.3-.78-.45-1.34-.45-.26,0-.53.03-.79.09-.26.06-.53.15-.8.27v-3.66Z"/>
      <g class="cls-21">
        <line class="cls-5" x1="310.4" y1="296.32" x2="310.4" y2="19.12"/>
      </g>
      <line x1="310.4" y1="296.32" x2="310.4" y2="299.82"/>
      <line class="cls-13" x1="310.4" y1="296.32" x2="310.4" y2="299.82"/>
      <path d="M312.48,303.79v.9c-.25-.12-.5-.21-.75-.27-.26-.06-.51-.09-.75-.09-.66,0-1.16.22-1.5.66s-.54,1.11-.58,1.99c.19-.28.43-.5.72-.65s.61-.23.96-.23c.73,0,1.31.23,1.73.67.42.44.64,1.05.64,1.81s-.23,1.35-.67,1.8c-.44.45-1.03.67-1.76.67-.84,0-1.49-.32-1.93-.96-.45-.64-.67-1.58-.67-2.81,0-1.15.27-2.07.82-2.75.54-.68,1.28-1.03,2.2-1.03.24,0,.49.03.75.07.25.05.51.12.79.22ZM310.52,306.88c-.44,0-.79.16-1.05.46-.26.3-.39.72-.39,1.24s.13.95.39,1.25.61.45,1.05.45.79-.15,1.05-.45c.26-.3.39-.72.39-1.25s-.13-.94-.39-1.24c-.26-.3-.61-.46-1.05-.46Z"/>
      <g class="cls-22">
        <line class="cls-5" x1="352.69" y1="296.32" x2="352.69" y2="19.12"/>
      </g>
      <line x1="352.69" y1="296.32" x2="352.69" y2="299.82"/>
      <line class="cls-13" x1="352.69" y1="296.32" x2="352.69" y2="299.82"/>
      <polygon points="350.33 303.63 355.02 303.63 355.02 304.05 352.37 310.92 351.34 310.92 353.83 304.46 350.33 304.46 350.33 303.63"/>
      <g class="cls-51">
        <line class="cls-5" x1="394.98" y1="296.32" x2="394.98" y2="19.12"/>
      </g>
      <line x1="394.98" y1="296.32" x2="394.98" y2="299.82"/>
      <line class="cls-13" x1="394.98" y1="296.32" x2="394.98" y2="299.82"/>
      <path d="M393.63,305.48c0,.38.11.68.35.89.24.21.57.31,1,.31s.75-.1.99-.31c.24-.21.36-.51.36-.89s-.12-.67-.36-.88c-.24-.21-.57-.32-.99-.32s-.76.11-1,.32c-.24.21-.35.5-.35.88ZM393.99,307.04c-.42-.1-.75-.3-.99-.59-.24-.29-.35-.64-.35-1.06,0-.58.2-1.04.62-1.38.41-.34.98-.51,1.71-.51s1.29.17,1.71.51c.41.34.62.8.62,1.38,0,.42-.12.77-.36,1.06-.24.29-.56.49-.98.59.47.11.84.33,1.11.65.26.32.4.72.4,1.18,0,.71-.22,1.25-.65,1.62-.44.38-1.06.56-1.86.56s-1.42-.18-1.85-.56c-.43-.37-.64-.91-.64-1.62,0-.46.13-.86.4-1.18.26-.32.63-.54,1.11-.65ZM394.98,307.46c-.47,0-.84.13-1.11.38-.27.25-.4.59-.4,1.03s.13.79.4,1.04c.27.25.64.37,1.11.37s.83-.12,1.1-.38c.27-.25.41-.59.41-1.03s-.14-.78-.4-1.03c-.27-.25-.64-.38-1.11-.38Z"/>
      <path d="M133.1,317.45h1.68l4.17,10.94h-1.54l-.99-2.81h-4.93l-.99,2.81h-1.56l4.17-10.94ZM133.94,318.9l-2.01,5.44h4.02l-2.01-5.44Z"/>
      <path d="M141.29,324.29c0,.99.19,1.77.6,2.34.4.57.96.84,1.68.84s1.27-.27,1.7-.84c.4-.57.61-1.35.61-2.34s-.21-1.75-.61-2.32c-.42-.57-.98-.86-1.7-.86s-1.27.28-1.68.86c-.41.57-.6,1.33-.6,2.32ZM145.88,321.42v-4.44h1.35v11.4h-1.35v-1.23c-.29.5-.65.86-1.08,1.08-.43.22-.94.34-1.54.34-.99,0-1.8-.39-2.43-1.17-.63-.78-.93-1.83-.93-3.12s.3-2.32.93-3.12c.63-.78,1.44-1.18,2.43-1.18.6,0,1.11.12,1.54.36s.79.6,1.08,1.08Z"/>
      <path d="M150.81,324.29c0,.99.19,1.77.6,2.34.4.57.96.84,1.68.84s1.27-.27,1.7-.84c.4-.57.61-1.35.61-2.34s-.21-1.75-.61-2.32c-.42-.57-.98-.86-1.7-.86s-1.27.28-1.68.86c-.41.57-.6,1.33-.6,2.32ZM155.4,321.42v-4.44h1.35v11.4h-1.35v-1.23c-.29.5-.65.86-1.08,1.08-.43.22-.94.34-1.54.34-.99,0-1.8-.39-2.43-1.17-.63-.78-.93-1.83-.93-3.12s.3-2.32.93-3.12c.63-.78,1.44-1.18,2.43-1.18.6,0,1.11.12,1.54.36s.79.6,1.08,1.08Z"/>
      <path d="M165.19,323.55c-.01-.73-.23-1.32-.62-1.77-.4-.44-.94-.66-1.6-.66-.75,0-1.35.22-1.8.64s-.72,1.02-.78,1.78h4.8ZM166.54,323.94v.66h-6.19c.06.93.33,1.65.84,2.13.5.48,1.18.72,2.09.72.51,0,1.02-.06,1.5-.18.48-.12.97-.32,1.46-.59v1.27c-.48.21-.98.38-1.49.47-.51.09-1.04.15-1.54.15-1.32,0-2.36-.38-3.12-1.12s-1.14-1.78-1.14-3.09.36-2.4,1.08-3.2c.72-.78,1.71-1.18,2.94-1.18,1.11,0,1.98.36,2.62,1.07.63.72.96,1.68.96,2.9Z"/>
      <path d="M169.56,324.29c0,.99.19,1.77.6,2.34.4.57.96.84,1.68.84s1.27-.27,1.7-.84c.4-.57.61-1.35.61-2.34s-.21-1.75-.61-2.32c-.42-.57-.98-.86-1.7-.86s-1.27.28-1.68.86c-.41.57-.6,1.33-.6,2.32ZM174.15,321.42v-4.44h1.35v11.4h-1.35v-1.23c-.29.5-.65.86-1.08,1.08-.43.22-.94.34-1.54.34-.99,0-1.8-.39-2.43-1.17-.63-.78-.93-1.83-.93-3.12s.3-2.32.93-3.12c.63-.78,1.44-1.18,2.43-1.18.6,0,1.11.12,1.54.36s.79.6,1.08,1.08Z"/>
      <path d="M188.95,320.49v1.26c-.39-.21-.77-.36-1.16-.47s-.76-.16-1.15-.16c-.87,0-1.56.28-2.04.84-.48.55-.72,1.33-.72,2.32s.24,1.78.72,2.34,1.17.82,2.04.82c.39,0,.76-.05,1.15-.15.39-.11.76-.27,1.16-.48v1.25c-.39.18-.78.31-1.17.39-.4.07-.84.12-1.29.12-1.23,0-2.22-.38-2.94-1.15-.74-.77-1.1-1.82-1.1-3.14s.36-2.39,1.1-3.15,1.74-1.16,3.03-1.16c.42,0,.82.05,1.21.14s.78.21,1.16.38Z"/>
      <path d="M197.71,323.7v4.68h-1.35v-1.24c-.32.51-.71.87-1.15,1.1-.45.22-1.02.34-1.68.34-.84,0-1.51-.22-2.01-.69-.49-.47-.74-1.1-.74-1.89,0-.91.3-1.61.93-2.09.62-.47,1.53-.7,2.76-.7h1.89v-.14c0-.61-.21-1.09-.61-1.44-.4-.33-.98-.51-1.71-.51-.48,0-.93.06-1.38.18-.45.12-.87.29-1.27.5v-1.25c.48-.18.96-.33,1.43-.42s.91-.15,1.36-.15c1.19,0,2.07.32,2.66.93.58.61.88,1.55.88,2.79ZM195.02,324.26c-1.1,0-1.85.13-2.26.38-.42.26-.63.68-.63,1.27,0,.48.15.87.46,1.14.32.28.75.42,1.29.42.75,0,1.35-.26,1.8-.8.45-.52.68-1.23.68-2.11v-.3h-1.33Z"/>
      <path d="M206.39,320.49v1.26c-.39-.21-.77-.36-1.16-.47s-.76-.16-1.15-.16c-.87,0-1.56.28-2.04.84-.48.55-.72,1.33-.72,2.32s.24,1.78.72,2.34,1.17.82,2.04.82c.39,0,.76-.05,1.15-.15.39-.11.76-.27,1.16-.48v1.25c-.39.18-.78.31-1.17.39-.4.07-.84.12-1.29.12-1.23,0-2.22-.38-2.94-1.15-.74-.77-1.1-1.82-1.1-3.14s.36-2.39,1.1-3.15,1.74-1.16,3.03-1.16c.42,0,.82.05,1.21.14s.78.21,1.16.38Z"/>
      <path d="M215.55,323.43v4.95h-1.35v-4.9c0-.78-.16-1.35-.46-1.74-.3-.39-.75-.58-1.35-.58-.74,0-1.31.24-1.73.7s-.63,1.09-.63,1.89v4.63h-1.35v-11.4h1.35v4.47c.32-.48.69-.85,1.14-1.09.43-.24.95-.38,1.51-.38.93,0,1.65.3,2.13.89s.74,1.44.74,2.57Z"/>
      <path d="M223.9,323.55c-.01-.73-.23-1.32-.62-1.77-.4-.44-.94-.66-1.6-.66-.75,0-1.35.22-1.8.64s-.72,1.02-.78,1.78h4.8ZM225.25,323.94v.66h-6.19c.06.93.33,1.65.84,2.13.5.48,1.18.72,2.09.72.51,0,1.02-.06,1.5-.18.48-.12.97-.32,1.46-.59v1.27c-.48.21-.98.38-1.49.47-.51.09-1.04.15-1.54.15-1.32,0-2.36-.38-3.12-1.12s-1.14-1.78-1.14-3.09.36-2.4,1.08-3.2c.72-.78,1.71-1.18,2.94-1.18,1.11,0,1.98.36,2.62,1.07.63.72.96,1.68.96,2.9Z"/>
      <path d="M238.14,320.49v1.26c-.39-.21-.77-.36-1.16-.47s-.76-.16-1.15-.16c-.87,0-1.56.28-2.04.84-.48.55-.72,1.33-.72,2.32s.24,1.78.72,2.34,1.17.82,2.04.82c.39,0,.76-.05,1.15-.15.39-.11.76-.27,1.16-.48v1.25c-.39.18-.78.31-1.17.39-.4.07-.84.12-1.29.12-1.23,0-2.22-.38-2.94-1.15-.74-.77-1.1-1.82-1.1-3.14s.36-2.39,1.1-3.15,1.74-1.16,3.03-1.16c.42,0,.82.05,1.21.14s.78.21,1.16.38Z"/>
      <path d="M246.9,323.7v4.68h-1.35v-1.24c-.32.51-.71.87-1.15,1.1-.45.22-1.02.34-1.68.34-.84,0-1.51-.22-2.01-.69-.49-.47-.74-1.1-.74-1.89,0-.91.3-1.61.93-2.09.62-.47,1.53-.7,2.76-.7h1.89v-.14c0-.61-.21-1.09-.61-1.44-.4-.33-.98-.51-1.71-.51-.48,0-.93.06-1.38.18-.45.12-.87.29-1.27.5v-1.25c.48-.18.96-.33,1.43-.42s.91-.15,1.36-.15c1.19,0,2.07.32,2.66.93.58.61.88,1.55.88,2.79ZM244.21,324.26c-1.1,0-1.85.13-2.26.38-.42.26-.63.68-.63,1.27,0,.48.15.87.46,1.14.32.28.75.42,1.29.42.75,0,1.35-.26,1.8-.8.45-.52.68-1.23.68-2.11v-.3h-1.33Z"/>
      <path d="M255.56,324.29c0-.99-.21-1.75-.61-2.32-.42-.57-.98-.86-1.68-.86s-1.27.28-1.68.86c-.42.57-.62,1.33-.62,2.32s.2,1.77.62,2.34c.4.57.96.84,1.68.84s1.26-.27,1.68-.84c.4-.57.61-1.35.61-2.34ZM250.97,327.15v4.34h-1.35v-11.31h1.35v1.24c.27-.48.63-.84,1.07-1.08s.96-.36,1.56-.36c.99,0,1.8.41,2.43,1.18.62.8.93,1.83.93,3.12s-.32,2.34-.93,3.12c-.63.78-1.44,1.17-2.43,1.17-.6,0-1.12-.12-1.56-.34-.43-.23-.79-.59-1.07-1.08Z"/>
      <path d="M265.61,323.7v4.68h-1.35v-1.24c-.32.51-.71.87-1.15,1.1-.45.22-1.02.34-1.68.34-.84,0-1.51-.22-2.01-.69s-.74-1.1-.74-1.89c0-.91.3-1.61.93-2.09.62-.47,1.53-.7,2.76-.7h1.89v-.14c0-.61-.21-1.09-.62-1.44-.4-.33-.97-.51-1.71-.51-.48,0-.93.06-1.38.18-.45.12-.87.29-1.27.5v-1.25c.48-.18.96-.33,1.42-.42.47-.09.92-.15,1.37-.15,1.18,0,2.07.32,2.65.93.58.61.88,1.55.88,2.79ZM262.93,324.26c-1.1,0-1.85.13-2.26.38-.42.26-.63.68-.63,1.27,0,.48.15.87.46,1.14.32.28.75.42,1.29.42.75,0,1.35-.26,1.8-.8.45-.52.68-1.23.68-2.11v-.3h-1.34Z"/>
      <path d="M274.29,320.49v1.26c-.39-.21-.77-.36-1.15-.47-.39-.1-.77-.16-1.15-.16-.87,0-1.56.28-2.04.84-.48.55-.72,1.33-.72,2.32s.24,1.78.72,2.34,1.17.82,2.04.82c.39,0,.76-.05,1.15-.15.39-.11.76-.27,1.15-.48v1.25c-.39.18-.78.31-1.17.39-.4.07-.84.12-1.29.12-1.23,0-2.22-.38-2.94-1.15-.74-.77-1.1-1.82-1.1-3.14s.36-2.39,1.1-3.15c.73-.76,1.74-1.16,3.03-1.16.42,0,.82.05,1.21.14.39.09.78.21,1.15.38Z"/>
      <path d="M276.63,316.98h1.35v1.71h-1.35v-1.71ZM276.63,320.18h1.35v8.2h-1.35v-8.2Z"/>
      <path d="M282.13,317.85v2.33h2.77v1.05h-2.77v4.45c0,.67.09,1.11.27,1.29.18.19.55.28,1.12.28h1.38v1.12h-1.38c-1.05,0-1.77-.19-2.16-.59-.39-.39-.59-1.1-.59-2.11v-4.45h-.99v-1.05h.99v-2.33h1.35Z"/>
      <path d="M290.1,329.13c-.39.96-.76,1.61-1.12,1.9-.36.3-.84.45-1.44.45h-1.08v-1.12h.8c.36,0,.64-.09.85-.27.21-.18.43-.59.69-1.24l.24-.6-3.32-8.07h1.42l2.57,6.42,2.57-6.42h1.42l-3.6,8.95Z"/>
      <polygon points="295.9 326.52 297.45 326.52 297.45 327.78 296.25 330.11 295.3 330.11 295.9 327.78 295.9 326.52"/>
      <polygon points="316.46 317.45 317.95 317.45 316.07 327.15 321.4 327.15 321.16 328.38 314.35 328.38 316.46 317.45"/>
      <g class="cls-33">
        <path d="M303.8,328.38l4.17-10.93h1.68l4.17,10.93h-10.02ZM308.81,318.9l-3,8.25h6l-3-8.25Z"/>
      </g>
      <g class="cls-34">
        <line class="cls-5" x1="39.72" y1="283.72" x2="411.9" y2="283.72"/>
      </g>
      <line x1="39.72" y1="283.72" x2="36.22" y2="283.72"/>
      <line class="cls-13" x1="39.72" y1="283.72" x2="36.22" y2="283.72"/>
      <path d="M28.9,279.52c.81,0,1.43.33,1.87.97.43.65.65,1.59.65,2.81s-.22,2.17-.65,2.81c-.44.64-1.06.96-1.88.96s-1.44-.32-1.87-.96c-.43-.64-.64-1.58-.64-2.81s.21-2.16.64-2.81c.43-.64,1.06-.97,1.88-.97ZM28.9,280.3c-.51,0-.89.25-1.15.75s-.38,1.25-.38,2.25.12,1.75.38,2.25.64.75,1.15.75.89-.25,1.15-.75c.25-.5.38-1.25.38-2.25s-.13-1.75-.38-2.25c-.26-.5-.64-.75-1.15-.75Z"/>
      <g class="cls-40">
        <line class="cls-5" x1="39.72" y1="226.98" x2="411.9" y2="226.98"/>
      </g>
      <line x1="39.72" y1="226.98" x2="36.22" y2="226.98"/>
      <line class="cls-13" x1="39.72" y1="226.98" x2="36.22" y2="226.98"/>
      <path d="M27.64,229.37h3.44v.83h-4.63v-.83c.37-.38.88-.9,1.53-1.56.64-.65,1.05-1.07,1.22-1.26.32-.35.54-.65.66-.9.12-.24.19-.49.19-.73,0-.38-.14-.7-.41-.94s-.62-.37-1.06-.37c-.31,0-.64.06-.98.16-.34.11-.71.27-1.1.49v-1c.4-.16.77-.28,1.11-.36.34-.08.66-.12.95-.12.75,0,1.35.19,1.8.57.45.38.68.88.68,1.51,0,.3-.06.59-.17.85-.11.27-.31.59-.61.95-.08.1-.34.37-.78.82-.44.45-1.05,1.08-1.84,1.89Z"/>
      <g class="cls-56">
        <line class="cls-5" x1="39.72" y1="170.24" x2="411.9" y2="170.24"/>
      </g>
      <line x1="39.72" y1="170.24" x2="36.22" y2="170.24"/>
      <line class="cls-13" x1="39.72" y1="170.24" x2="36.22" y2="170.24"/>
      <path d="M29.24,166.04h1.24v4.75h1.04v.82h-1.04v1.72h-.98v-1.72h-3.29v-.95l3.03-4.62ZM29.5,166.9l-2.49,3.89h2.49v-3.89Z"/>
      <g class="cls-69">
        <line class="cls-5" x1="39.72" y1="113.5" x2="411.9" y2="113.5"/>
      </g>
      <line x1="39.72" y1="113.5" x2="36.22" y2="113.5"/>
      <line class="cls-13" x1="39.72" y1="113.5" x2="36.22" y2="113.5"/>
      <path d="M30.98,109.59v.9c-.25-.12-.5-.21-.75-.27-.26-.06-.51-.09-.75-.09-.66,0-1.16.22-1.5.66-.34.44-.54,1.11-.58,1.99.19-.28.43-.5.72-.65.29-.15.61-.23.96-.23.73,0,1.31.23,1.73.67.42.44.64,1.05.64,1.81s-.23,1.35-.67,1.8c-.44.45-1.03.67-1.76.67-.84,0-1.49-.32-1.93-.96-.45-.64-.67-1.58-.67-2.81,0-1.15.27-2.07.82-2.75.54-.68,1.28-1.03,2.2-1.03.24,0,.49.03.75.07.25.05.51.12.79.22ZM29.02,112.68c-.44,0-.79.16-1.05.46s-.39.72-.39,1.24.13.95.39,1.25.61.45,1.05.45.79-.15,1.05-.45.39-.72.39-1.25-.13-.94-.39-1.24-.61-.46-1.05-.46Z"/>
      <g class="cls-58">
        <line class="cls-5" x1="39.72" y1="56.76" x2="411.9" y2="56.76"/>
      </g>
      <line x1="39.72" y1="56.76" x2="36.22" y2="56.76"/>
      <line class="cls-13" x1="39.72" y1="56.76" x2="36.22" y2="56.76"/>
      <path d="M27.55,54.54c0,.38.11.68.35.89.24.21.57.31,1,.31s.75-.1.99-.31c.24-.21.36-.51.36-.89s-.12-.67-.36-.88c-.24-.21-.57-.32-.99-.32s-.76.11-1,.32c-.24.21-.35.5-.35.88ZM27.91,56.1c-.42-.1-.75-.3-.99-.59-.24-.29-.35-.64-.35-1.06,0-.58.2-1.04.62-1.38.41-.34.98-.51,1.71-.51s1.29.17,1.71.51c.41.34.62.8.62,1.38,0,.42-.12.77-.36,1.06-.24.29-.56.49-.98.59.47.11.84.33,1.11.65.26.32.4.72.4,1.18,0,.71-.22,1.25-.65,1.62-.44.38-1.06.56-1.86.56s-1.42-.18-1.85-.56c-.43-.37-.64-.91-.64-1.62,0-.46.13-.86.4-1.18.26-.32.63-.54,1.11-.65ZM28.9,56.52c-.47,0-.84.13-1.11.38s-.4.59-.4,1.03.13.79.4,1.04.64.37,1.11.37.83-.12,1.1-.38c.27-.25.41-.59.41-1.03s-.14-.78-.4-1.03c-.27-.25-.64-.38-1.11-.38Z"/>
      <polygon points="7.66 253.49 7.66 244.25 8.9 244.25 8.9 248.13 18.59 248.13 18.59 249.62 8.9 249.62 8.9 253.49 7.66 253.49"/>
      <path d="M10.19,242.25c0-1.17.39-2.09,1.14-2.76.76-.66,1.82-1.01,3.16-1.01s2.4.35,3.15,1.01c.76.67,1.14,1.59,1.14,2.76s-.38,2.11-1.14,2.77c-.75.66-1.8.99-3.15.99s-2.4-.33-3.16-.99c-.75-.66-1.14-1.59-1.14-2.77ZM11.33,242.25c0,.72.28,1.29.85,1.71.57.42,1.34.63,2.31.63s1.76-.19,2.32-.61c.57-.42.84-.99.84-1.72s-.27-1.29-.84-1.71c-.57-.42-1.33-.63-2.32-.63s-1.74.21-2.31.63c-.57.42-.85.99-.85,1.71Z"/>
      <path d="M8.06,234.91h2.33v-2.78h1.05v2.78h4.46c.68,0,1.11-.09,1.29-.27.19-.18.28-.56.28-1.12v-1.38h1.12v1.38c0,1.05-.19,1.77-.58,2.16-.39.39-1.1.59-2.12.59h-4.46v.99h-1.05v-.99h-2.33v-1.35Z"/>
      <path d="M13.91,223.95h4.68v1.35h-1.25c.51.32.87.71,1.1,1.16.23.45.34,1.02.34,1.68,0,.84-.23,1.51-.69,2.01-.46.5-1.09.74-1.89.74-.91,0-1.6-.3-2.09-.93-.47-.61-.7-1.53-.7-2.76v-1.89h-.14c-.61,0-1.1.21-1.44.62-.33.4-.51.97-.51,1.71,0,.48.06.93.18,1.38.12.45.28.87.49,1.28h-1.24c-.18-.48-.33-.96-.42-1.43-.09-.46-.15-.91-.15-1.36,0-1.18.32-2.07.93-2.65s1.55-.89,2.79-.89ZM14.47,226.63c0,1.09.14,1.84.38,2.26.26.42.68.63,1.27.63.48,0,.87-.15,1.14-.46.28-.32.42-.75.42-1.29,0-.75-.25-1.35-.79-1.8-.53-.45-1.23-.68-2.12-.68h-.3v1.34Z"/>
      <rect x="7.19" y="219.82" width="11.4" height="1.35"/>
      <path d="M10.7,206.32h1.26c-.21.39-.36.77-.47,1.16s-.16.76-.16,1.15c0,.87.28,1.56.84,2.04s1.34.72,2.32.72,1.79-.24,2.34-.72c.56-.48.83-1.17.83-2.04,0-.39-.05-.76-.15-1.15s-.27-.76-.48-1.16h1.24c.18.39.32.78.39,1.17.07.4.12.84.12,1.29,0,1.23-.38,2.22-1.15,2.94-.77.74-1.82,1.1-3.14,1.1s-2.39-.36-3.15-1.1c-.76-.74-1.15-1.74-1.15-3.03,0-.42.05-.82.14-1.21s.21-.78.38-1.16Z"/>
      <path d="M13.91,197.56h4.68v1.35h-1.25c.51.32.87.71,1.1,1.15s.34,1.02.34,1.68c0,.84-.23,1.51-.69,2.01-.46.49-1.09.74-1.89.74-.91,0-1.6-.3-2.09-.93-.47-.62-.7-1.53-.7-2.76v-1.89h-.14c-.61,0-1.1.21-1.44.61-.33.4-.51.98-.51,1.71,0,.48.06.93.18,1.38.12.45.28.87.49,1.27h-1.24c-.18-.48-.33-.96-.42-1.43s-.15-.91-.15-1.36c0-1.19.32-2.07.93-2.66.61-.58,1.55-.88,2.79-.88ZM14.47,200.25c0,1.1.14,1.85.38,2.26.26.42.68.63,1.27.63.48,0,.87-.15,1.14-.46.28-.32.42-.75.42-1.29,0-.75-.25-1.35-.79-1.8-.53-.45-1.23-.67-2.12-.67h-.3v1.33Z"/>
      <path d="M10.7,188.88h1.26c-.21.39-.36.76-.47,1.16-.11.39-.16.76-.16,1.15,0,.87.28,1.56.84,2.04s1.34.72,2.32.72,1.79-.24,2.34-.72c.56-.48.83-1.17.83-2.04,0-.39-.05-.76-.15-1.15-.1-.39-.27-.77-.48-1.16h1.24c.18.39.32.78.39,1.17.07.4.12.84.12,1.29,0,1.23-.38,2.22-1.15,2.94-.77.74-1.82,1.1-3.14,1.1s-2.39-.36-3.15-1.1c-.76-.74-1.15-1.74-1.15-3.03,0-.42.05-.82.14-1.21.09-.39.21-.78.38-1.16Z"/>
      <path d="M13.64,179.71h4.95v1.35h-4.91c-.78,0-1.35.16-1.74.46-.39.3-.59.75-.59,1.35,0,.74.24,1.31.71,1.73.46.42,1.09.63,1.89.63h4.64v1.35H7.19v-1.35h4.47c-.48-.32-.85-.69-1.1-1.14-.24-.43-.38-.95-.38-1.51,0-.93.3-1.65.89-2.13s1.44-.74,2.56-.74Z"/>
      <path d="M13.76,171.36c-.74.01-1.32.23-1.77.62-.43.4-.66.94-.66,1.6,0,.75.23,1.35.65,1.8s1.02.72,1.78.78v-4.8ZM14.15,170.01h.66v6.19c.93-.06,1.65-.33,2.13-.84.48-.5.72-1.18.72-2.09,0-.51-.06-1.02-.18-1.5-.12-.48-.31-.97-.58-1.46h1.27c.21.48.38.98.47,1.49.09.51.15,1.04.15,1.54,0,1.32-.38,2.36-1.12,3.12s-1.78,1.14-3.09,1.14-2.4-.36-3.19-1.08c-.78-.72-1.19-1.71-1.19-2.94,0-1.11.36-1.98,1.06-2.62.72-.63,1.68-.96,2.9-.96Z"/>
      <path d="M11.65,158.28c-.09.15-.15.31-.2.49-.03.18-.06.38-.06.58,0,.76.26,1.35.75,1.76.5.42,1.2.62,2.13.62h4.32v1.35h-8.2v-1.35h1.27c-.49-.27-.87-.65-1.11-1.1-.24-.45-.36-1.01-.36-1.67,0-.09.02-.19.02-.31.02-.11.03-.23.06-.38h1.38Z"/>
      <path d="M13.76,151.53c-.74.01-1.32.23-1.77.62-.43.4-.66.94-.66,1.6,0,.75.23,1.35.65,1.8s1.02.72,1.78.78v-4.8ZM14.15,150.18h.66v6.19c.93-.06,1.65-.33,2.13-.84.48-.5.72-1.18.72-2.09,0-.51-.06-1.02-.18-1.5-.12-.48-.31-.97-.58-1.46h1.27c.21.48.38.98.47,1.49.09.51.15,1.04.15,1.54,0,1.32-.38,2.36-1.12,3.12s-1.78,1.14-3.09,1.14-2.4-.36-3.19-1.08c-.78-.72-1.19-1.71-1.19-2.94,0-1.11.36-1.98,1.06-2.62.72-.63,1.68-.96,2.9-.96Z"/>
      <path d="M14.5,142.08c-.99,0-1.76.21-2.32.62-.57.42-.85.98-.85,1.68s.28,1.27.85,1.68c.57.42,1.34.62,2.32.62s1.77-.2,2.34-.62c.57-.4.84-.96.84-1.68s-.27-1.26-.84-1.68c-.57-.4-1.35-.62-2.34-.62ZM17.36,146.67h4.33v1.35h-11.31v-1.35h1.24c-.48-.27-.84-.63-1.08-1.07-.24-.43-.36-.96-.36-1.56,0-.99.4-1.8,1.19-2.43.8-.61,1.83-.93,3.12-.93s2.34.32,3.12.93c.78.63,1.17,1.44,1.17,2.43,0,.6-.12,1.12-.34,1.56s-.59.79-1.08,1.07Z"/>
      <rect x="7.19" y="137.1" width="11.4" height="1.35"/>
      <path d="M13.91,127.86h4.68v1.35h-1.25c.51.32.87.71,1.1,1.15s.34,1.02.34,1.68c0,.84-.23,1.51-.69,2.01-.46.49-1.09.74-1.89.74-.91,0-1.6-.3-2.09-.93-.47-.62-.7-1.53-.7-2.76v-1.89h-.14c-.61,0-1.1.21-1.44.61-.33.4-.51.98-.51,1.71,0,.48.06.93.18,1.38.12.45.28.87.49,1.27h-1.24c-.18-.48-.33-.96-.42-1.43s-.15-.91-.15-1.36c0-1.19.32-2.07.93-2.66.61-.58,1.55-.88,2.79-.88ZM14.47,130.54c0,1.1.14,1.85.38,2.26.26.42.68.63,1.27.63.48,0,.87-.15,1.14-.46.28-.32.42-.75.42-1.29,0-.75-.25-1.35-.79-1.8-.53-.45-1.23-.67-2.12-.67h-.3v1.33Z"/>
      <path d="M10.7,119.17h1.26c-.21.39-.36.76-.47,1.16-.11.39-.16.76-.16,1.15,0,.87.28,1.56.84,2.04s1.34.72,2.32.72,1.79-.24,2.34-.72c.56-.48.83-1.17.83-2.04,0-.39-.05-.76-.15-1.15-.1-.39-.27-.77-.48-1.16h1.24c.18.39.32.78.39,1.17.07.4.12.84.12,1.29,0,1.23-.38,2.22-1.15,2.94-.77.74-1.82,1.1-3.14,1.1s-2.39-.36-3.15-1.1c-.76-.74-1.15-1.74-1.15-3.03,0-.42.05-.82.14-1.21.09-.39.21-.78.38-1.16Z"/>
      <path d="M13.76,111.16c-.74.01-1.32.23-1.77.62-.43.4-.66.94-.66,1.6,0,.75.23,1.35.65,1.8s1.02.72,1.78.78v-4.8ZM14.15,109.81h.66v6.19c.93-.06,1.65-.33,2.13-.84.48-.5.72-1.18.72-2.09,0-.51-.06-1.02-.18-1.5-.12-.48-.31-.97-.58-1.46h1.27c.21.48.38.98.47,1.49.09.51.15,1.04.15,1.54,0,1.32-.38,2.36-1.12,3.12s-1.78,1.14-3.09,1.14-2.4-.36-3.19-1.08c-.78-.72-1.19-1.71-1.19-2.94,0-1.11.36-1.98,1.06-2.62.72-.63,1.68-.96,2.9-.96Z"/>
      <path d="M11.96,101.22c-.6-.33-1.04-.74-1.34-1.2-.28-.46-.44-1.02-.44-1.66,0-.84.3-1.5.9-1.97.6-.46,1.45-.71,2.55-.71h4.95v1.35h-4.91c-.78,0-1.36.15-1.75.42-.38.29-.57.71-.57,1.28,0,.7.24,1.26.71,1.66.46.4,1.09.6,1.89.6h4.64v1.35h-4.91c-.78,0-1.36.15-1.75.42-.38.29-.57.72-.57,1.29,0,.69.24,1.24.71,1.65.46.4,1.09.6,1.89.6h4.64v1.35h-8.2v-1.35h1.27c-.49-.3-.87-.68-1.11-1.11-.24-.42-.36-.93-.36-1.53s.15-1.1.45-1.51c.3-.42.75-.72,1.32-.93Z"/>
      <path d="M13.76,87.33c-.74.01-1.32.23-1.77.62-.43.4-.66.94-.66,1.6,0,.75.23,1.35.65,1.8s1.02.72,1.78.78v-4.8ZM14.15,85.98h.66v6.2c.93-.06,1.65-.33,2.13-.84.48-.5.72-1.18.72-2.09,0-.51-.06-1.02-.18-1.5-.12-.48-.31-.97-.58-1.46h1.27c.21.48.38.98.47,1.49.09.51.15,1.04.15,1.54,0,1.32-.38,2.36-1.12,3.12s-1.78,1.14-3.09,1.14-2.4-.36-3.19-1.08c-.78-.72-1.19-1.71-1.19-2.94,0-1.11.36-1.98,1.06-2.62.72-.63,1.68-.96,2.9-.96Z"/>
      <path d="M13.64,76.95h4.95v1.35h-4.91c-.78,0-1.35.17-1.74.46-.39.3-.59.75-.59,1.35,0,.74.24,1.3.71,1.73.46.42,1.09.63,1.89.63h4.64v1.35h-8.2v-1.35h1.27c-.48-.32-.85-.69-1.1-1.14-.24-.43-.38-.94-.38-1.51,0-.93.3-1.65.89-2.13s1.44-.74,2.56-.74Z"/>
      <path d="M8.06,72.93h2.33v-2.77h1.05v2.77h4.46c.68,0,1.11-.09,1.29-.27.19-.18.28-.55.28-1.12v-1.38h1.12v1.38c0,1.05-.19,1.77-.58,2.16-.39.39-1.1.59-2.12.59h-4.46v.99h-1.05v-.99h-2.33v-1.35Z"/>
      <path d="M10.63,63.15h1.27c-.18.39-.33.78-.43,1.18-.09.42-.15.84-.15,1.27,0,.67.1,1.18.31,1.51.21.33.51.5.91.5.32,0,.56-.12.73-.36.18-.24.36-.72.51-1.44l.11-.46c.21-.96.51-1.64.87-2.04.38-.39.9-.6,1.56-.6.76,0,1.36.3,1.8.9.45.6.66,1.44.66,2.49,0,.45-.05.9-.12,1.38-.08.48-.2.98-.38,1.5h-1.4c.27-.49.47-.99.58-1.47.14-.48.19-.96.19-1.44,0-.63-.1-1.12-.31-1.47-.21-.33-.53-.51-.93-.51-.36,0-.65.14-.84.38-.19.24-.39.78-.57,1.62l-.11.46c-.18.84-.45,1.45-.81,1.82-.36.38-.85.55-1.5.55-.76,0-1.36-.27-1.78-.81-.42-.54-.63-1.32-.63-2.34,0-.5.05-.96.12-1.41.08-.43.18-.84.32-1.21Z"/>
      <polygon points="46.73 9.78 44.5 12.02 46.73 14.25 46.15 14.84 43.91 12.6 41.67 14.84 41.09 14.25 43.32 12.02 41.09 9.78 41.67 9.19 43.91 11.43 46.15 9.19 46.73 9.78"/>
      <polygon points="49.33 14.32 50.94 14.32 50.94 8.76 49.19 9.11 49.19 8.21 50.93 7.86 51.92 7.86 51.92 14.32 53.53 14.32 53.53 15.15 49.33 15.15 49.33 14.32"/>
      <path d="M57.64,7.73c.81,0,1.43.33,1.87.97.43.65.65,1.59.65,2.81s-.22,2.17-.65,2.81c-.44.64-1.06.96-1.88.96s-1.44-.32-1.87-.96c-.43-.64-.64-1.58-.64-2.81s.21-2.16.64-2.81c.43-.64,1.06-.97,1.88-.97ZM57.64,8.51c-.51,0-.89.25-1.15.75-.26.5-.38,1.25-.38,2.25s.12,1.75.38,2.25c.26.5.64.75,1.15.75s.89-.25,1.15-.75c.25-.5.38-1.25.38-2.25s-.13-1.75-.38-2.25c-.26-.5-.64-.75-1.15-.75Z"/>
      <path d="M63.76,8.57c.33.07.59.22.77.44.18.22.28.5.28.83,0,.5-.18.9-.52,1.17-.35.27-.84.41-1.48.41-.22,0-.44-.02-.67-.06-.22-.04-.46-.1-.7-.18v-.67c.19.11.4.2.63.25.22.06.46.08.71.08.43,0,.76-.08.99-.25.22-.17.34-.42.34-.75,0-.29-.1-.53-.31-.7-.21-.17-.5-.26-.88-.26h-.59v-.57h.62c.34,0,.6-.06.78-.2.18-.13.27-.33.27-.59s-.1-.46-.28-.6c-.19-.14-.45-.21-.8-.21-.19,0-.39.02-.61.06-.22.04-.46.1-.71.19v-.62c.26-.07.5-.13.74-.16.22-.04.44-.06.65-.06.52,0,.93.12,1.24.36.31.24.46.56.46.97,0,.28-.08.52-.24.71-.16.2-.39.34-.69.41Z"/>
      <g class="cls-25">
        <polyline class="cls-15" points="56.63 236.75 98.93 259.77 141.22 263.12 183.51 265.22 225.81 266.22 268.1 266.93 310.4 268.42 352.69 269.37 394.98 270.7"/>
        <g class="cls-64">
          <polygon class="cls-6" points="56.63 233.75 53.63 239.75 59.63 239.75 56.63 233.75"/>
        </g>
        <g class="cls-23">
          <polygon class="cls-6" points="98.93 256.77 95.93 262.77 101.93 262.77 98.93 256.77"/>
        </g>
        <g class="cls-27">
          <polygon class="cls-6" points="141.22 260.12 138.22 266.12 144.22 266.12 141.22 260.12"/>
        </g>
        <g class="cls-60">
          <polygon class="cls-6" points="183.51 262.22 180.51 268.22 186.51 268.22 183.51 262.22"/>
        </g>
        <g class="cls-50">
          <polygon class="cls-6" points="225.81 263.22 222.81 269.22 228.81 269.22 225.81 263.22"/>
        </g>
        <g class="cls-20">
          <polygon class="cls-6" points="268.1 263.93 265.1 269.93 271.1 269.93 268.1 263.93"/>
        </g>
        <g class="cls-30">
          <polygon class="cls-6" points="310.4 265.42 307.4 271.42 313.4 271.42 310.4 265.42"/>
        </g>
        <g class="cls-31">
          <polygon class="cls-6" points="352.69 266.37 349.69 272.37 355.69 272.37 352.69 266.37"/>
        </g>
        <g class="cls-70">
          <polygon class="cls-6" points="394.98 267.7 391.98 273.7 397.98 273.7 394.98 267.7"/>
        </g>
      </g>
      <g class="cls-38">
        <polyline class="cls-8" points="56.63 283.72 98.93 185.77 141.22 153.11 183.51 126.74 225.81 101.86 268.1 83.41 310.4 78.53 352.69 71.23 394.98 63.24"/>
        <g class="cls-55">
          <polygon class="cls-6" points="56.63 280.72 53.63 286.72 59.63 286.72 56.63 280.72"/>
        </g>
        <g class="cls-39">
          <polygon class="cls-6" points="98.93 182.77 95.93 188.77 101.93 188.77 98.93 182.77"/>
        </g>
        <g class="cls-44">
          <polygon class="cls-6" points="141.22 150.11 138.22 156.11 144.22 156.11 141.22 150.11"/>
        </g>
        <g class="cls-66">
          <polygon class="cls-6" points="183.51 123.74 180.51 129.74 186.51 129.74 183.51 123.74"/>
        </g>
        <g class="cls-59">
          <polygon class="cls-6" points="225.81 98.86 222.81 104.86 228.81 104.86 225.81 98.86"/>
        </g>
        <g class="cls-24">
          <polygon class="cls-6" points="268.1 80.41 265.1 86.41 271.1 86.41 268.1 80.41"/>
        </g>
        <g class="cls-61">
          <polygon class="cls-6" points="310.4 75.53 307.4 81.53 313.4 81.53 310.4 75.53"/>
        </g>
        <g class="cls-26">
          <polygon class="cls-6" points="352.69 68.23 349.69 74.23 355.69 74.23 352.69 68.23"/>
        </g>
        <g class="cls-18">
          <polygon class="cls-6" points="394.98 60.24 391.98 66.24 397.98 66.24 394.98 60.24"/>
        </g>
      </g>
      <g class="cls-42">
        <polyline class="cls-12" points="56.63 264.84 98.93 271.91 141.22 272.68 183.51 272.44 225.81 272.11 268.1 271.98 310.4 271.9 352.69 271.68 394.98 271.55"/>
        <g class="cls-41">
          <rect class="cls-7" x="53.63" y="261.84" width="6" height="6"/>
        </g>
        <g class="cls-68">
          <rect class="cls-7" x="95.93" y="268.91" width="6" height="6"/>
        </g>
        <g class="cls-19">
          <rect class="cls-7" x="138.22" y="269.68" width="6" height="6"/>
        </g>
        <g class="cls-63">
          <rect class="cls-7" x="180.51" y="269.44" width="6" height="6"/>
        </g>
        <g class="cls-48">
          <rect class="cls-7" x="222.81" y="269.11" width="6" height="6"/>
        </g>
        <g class="cls-53">
          <rect class="cls-7" x="265.1" y="268.98" width="6" height="6"/>
        </g>
        <g class="cls-35">
          <rect class="cls-7" x="307.4" y="268.9" width="6" height="6"/>
        </g>
        <g class="cls-37">
          <rect class="cls-7" x="349.69" y="268.68" width="6" height="6"/>
        </g>
        <g class="cls-72">
          <rect class="cls-7" x="391.98" y="268.55" width="6" height="6"/>
        </g>
      </g>
      <g class="cls-46">
        <polyline class="cls-16" points="56.63 283.72 98.93 206.88 141.22 163.93 183.51 129.8 225.81 102.84 268.1 80.14 310.4 60.36 352.69 45.52 394.98 31.72"/>
        <g class="cls-47">
          <rect class="cls-7" x="53.63" y="280.72" width="6" height="6"/>
        </g>
        <g class="cls-28">
          <rect class="cls-7" x="95.93" y="203.88" width="6" height="6"/>
        </g>
        <g class="cls-43">
          <rect class="cls-7" x="138.22" y="160.93" width="6" height="6"/>
        </g>
        <g class="cls-67">
          <rect class="cls-7" x="180.51" y="126.8" width="6" height="6"/>
        </g>
        <g class="cls-57">
          <rect class="cls-7" x="222.81" y="99.84" width="6" height="6"/>
        </g>
        <g class="cls-1">
          <rect class="cls-7" x="265.1" y="77.14" width="6" height="6"/>
        </g>
        <g class="cls-52">
          <rect class="cls-7" x="307.4" y="57.36" width="6" height="6"/>
        </g>
        <g class="cls-62">
          <rect class="cls-7" x="349.69" y="42.52" width="6" height="6"/>
        </g>
        <g class="cls-32">
          <rect class="cls-7" x="391.98" y="28.72" width="6" height="6"/>
        </g>
      </g>
      <line class="cls-11" x1="39.72" y1="296.32" x2="39.72" y2="19.12"/>
      <line class="cls-11" x1="411.9" y1="296.32" x2="411.9" y2="19.12"/>
      <line class="cls-11" x1="39.72" y1="296.32" x2="411.9" y2="296.32"/>
      <line class="cls-11" x1="39.72" y1="19.12" x2="411.9" y2="19.12"/>
      <g>
        <rect class="cls-17" x="149.93" y="159.21" width="254.97" height="24.75" rx="2.8" ry="2.8"/>
        <rect class="cls-2" x="149.93" y="159.21" width="254.97" height="24.75" rx="2.8" ry="2.8"/>
      </g>
      <polyline class="cls-3" points="155.53 170.55 169.53 170.55 183.53 170.55"/>
      <polygon points="196.1 165.24 201.96 165.24 201.96 166.41 197.48 166.41 197.48 169.42 201.53 169.42 201.53 170.58 197.48 170.58 197.48 175.45 196.1 175.45 196.1 165.24"/>
      <path d="M203.08,164.81h1.26v1.6h-1.26v-1.6ZM203.08,167.79h1.26v7.66h-1.26v-7.66Z"/>
      <path d="M211.41,168.97c-.14-.08-.29-.14-.46-.18-.17-.03-.35-.06-.55-.06-.71,0-1.26.24-1.64.7-.39.46-.57,1.12-.57,1.99v4.03h-1.26v-7.66h1.26v1.19c.25-.46.6-.81,1.02-1.04s.94-.34,1.55-.34c.08,0,.18.01.29.01.1.01.21.03.35.06v1.29Z"/>
      <path d="M217.61,168.02v1.19c-.36-.17-.73-.31-1.11-.41-.39-.08-.78-.14-1.19-.14-.63,0-1.11.1-1.41.29s-.46.48-.46.85c0,.29.11.52.34.69s.67.34,1.34.48l.43.1c.9.2,1.53.48,1.9.81.36.35.56.84.56,1.46,0,.71-.28,1.27-.84,1.68-.56.42-1.34.62-2.32.62-.42,0-.84-.04-1.29-.11-.45-.07-.91-.18-1.4-.35v-1.3c.46.25.92.43,1.37.55.45.13.9.18,1.34.18.59,0,1.05-.1,1.37-.29.31-.2.48-.49.48-.87,0-.34-.13-.6-.35-.78-.22-.18-.73-.36-1.51-.53l-.43-.1c-.78-.17-1.36-.42-1.69-.76-.35-.34-.52-.8-.52-1.4,0-.71.25-1.27.76-1.67.5-.39,1.23-.59,2.18-.59.46,0,.9.04,1.32.11.41.07.78.17,1.13.29Z"/>
      <path d="M221.26,165.62v2.17h2.59v.98h-2.59v4.16c0,.63.08,1.04.25,1.2.17.18.52.27,1.05.27h1.29v1.05h-1.29c-.98,0-1.65-.18-2.02-.55-.36-.36-.55-1.02-.55-1.97v-4.16h-.92v-.98h.92v-2.17h1.26Z"/>
      <path d="M231.2,165.62v2.17h2.59v.98h-2.59v4.16c0,.63.08,1.04.25,1.2.17.18.52.27,1.05.27h1.29v1.05h-1.29c-.98,0-1.65-.18-2.02-.55-.36-.36-.55-1.02-.55-1.97v-4.16h-.92v-.98h.92v-2.17h1.26Z"/>
      <path d="M235.44,164.81h1.26v1.6h-1.26v-1.6ZM235.44,167.79h1.26v7.66h-1.26v-7.66Z"/>
      <path d="M244.63,170.94c-.01-.69-.21-1.23-.57-1.65-.38-.41-.88-.62-1.5-.62-.7,0-1.26.21-1.68.6s-.67.95-.73,1.67h4.48ZM245.89,171.31v.62h-5.78c.06.87.31,1.54.78,1.99.46.45,1.11.67,1.95.67.48,0,.95-.06,1.4-.17s.91-.29,1.36-.55v1.19c-.45.2-.91.35-1.39.43-.48.08-.97.14-1.44.14-1.23,0-2.2-.35-2.91-1.05s-1.06-1.67-1.06-2.88.34-2.24,1.01-2.98c.67-.73,1.6-1.11,2.74-1.11,1.04,0,1.85.34,2.45.99.59.67.9,1.57.9,2.7Z"/>
      <path d="M252.38,168.97c-.14-.08-.29-.14-.46-.18-.17-.03-.35-.06-.55-.06-.71,0-1.26.24-1.64.7-.39.46-.57,1.12-.57,1.99v4.03h-1.26v-7.66h1.26v1.19c.25-.46.6-.81,1.02-1.04s.94-.34,1.55-.34c.08,0,.18.01.29.01.1.01.21.03.35.06v1.29Z"/>
      <polyline class="cls-10" points="280.38 170.55 294.38 170.55 308.38 170.55"/>
      <path d="M327.07,165.58v1.34c-.53-.25-1.02-.43-1.48-.56-.48-.11-.92-.18-1.34-.18-.76,0-1.34.15-1.75.43-.41.29-.6.71-.6,1.25,0,.45.13.8.41,1.02.27.24.78.42,1.54.56l.84.17c1.02.2,1.78.55,2.27,1.04.49.5.74,1.16.74,1.99,0,.99-.34,1.74-.99,2.24-.67.5-1.64.76-2.91.76-.49,0-1.01-.06-1.55-.15s-1.11-.25-1.68-.48v-1.43c.56.32,1.11.56,1.64.71.53.17,1.06.24,1.6.24.78,0,1.39-.15,1.82-.46.42-.31.64-.74.64-1.33,0-.5-.15-.9-.46-1.18-.31-.28-.81-.49-1.51-.63l-.84-.17c-1.04-.2-1.78-.52-2.24-.97-.46-.43-.69-1.04-.69-1.82,0-.9.31-1.61.95-2.13.63-.52,1.51-.78,2.63-.78.48,0,.95.04,1.46.13.49.08.99.22,1.53.39Z"/>
      <path d="M335.08,170.94c-.01-.69-.21-1.23-.57-1.65-.38-.41-.88-.62-1.5-.62-.7,0-1.26.21-1.68.6-.42.39-.67.95-.73,1.67h4.48ZM336.34,171.31v.62h-5.78c.06.87.31,1.54.78,1.99.46.45,1.11.67,1.95.67.48,0,.95-.06,1.4-.17s.91-.29,1.36-.55v1.19c-.45.2-.91.35-1.39.43-.48.08-.97.14-1.44.14-1.23,0-2.2-.35-2.91-1.05-.71-.7-1.06-1.67-1.06-2.88s.34-2.24,1.01-2.98c.67-.73,1.6-1.11,2.74-1.11,1.04,0,1.85.34,2.45.99.59.67.9,1.57.9,2.7Z"/>
      <path d="M343.91,168.09v1.18c-.36-.2-.71-.34-1.08-.43-.36-.1-.71-.15-1.08-.15-.81,0-1.46.27-1.9.78-.45.52-.67,1.25-.67,2.17s.22,1.67.67,2.18,1.09.77,1.9.77c.36,0,.71-.04,1.08-.14.36-.1.71-.25,1.08-.45v1.16c-.36.17-.73.29-1.09.36-.38.07-.78.11-1.2.11-1.15,0-2.07-.35-2.74-1.08-.69-.71-1.02-1.69-1.02-2.93s.34-2.23,1.02-2.94c.69-.71,1.62-1.08,2.83-1.08.39,0,.77.04,1.13.13.36.08.73.2,1.08.35Z"/>
      <path d="M349.07,167.61c1.09,0,1.95.36,2.58,1.06.62.71.94,1.69.94,2.95s-.32,2.24-.94,2.94c-.63.71-1.48,1.06-2.58,1.06s-1.97-.35-2.59-1.06c-.62-.7-.92-1.68-.92-2.94s.31-2.24.92-2.95c.62-.7,1.48-1.06,2.59-1.06ZM349.07,168.67c-.67,0-1.2.27-1.6.8s-.59,1.25-.59,2.16.18,1.64.57,2.17c.39.53.92.78,1.61.78s1.2-.25,1.6-.78c.39-.53.59-1.25.59-2.17s-.2-1.62-.59-2.16-.92-.8-1.6-.8Z"/>
      <path d="M361.04,170.83v4.62h-1.26v-4.58c0-.73-.15-1.26-.43-1.62s-.7-.55-1.26-.55c-.69,0-1.22.22-1.61.66-.39.43-.59,1.02-.59,1.76v4.33h-1.26v-7.66h1.26v1.19c.29-.45.64-.8,1.06-1.02.41-.22.88-.35,1.41-.35.87,0,1.54.28,1.99.83.45.55.69,1.34.69,2.39Z"/>
      <path d="M364.3,171.63c0,.92.18,1.65.56,2.18.38.53.9.78,1.57.78s1.19-.25,1.58-.78c.38-.53.57-1.26.57-2.18s-.2-1.64-.57-2.17c-.39-.53-.91-.8-1.58-.8s-1.19.27-1.57.8c-.38.53-.56,1.25-.56,2.17ZM368.58,168.95v-4.14h1.26v10.64h-1.26v-1.15c-.27.46-.6.8-1.01,1.01s-.88.32-1.44.32c-.92,0-1.68-.36-2.27-1.09s-.87-1.71-.87-2.91.28-2.17.87-2.91c.59-.73,1.34-1.11,2.27-1.11.56,0,1.04.11,1.44.34s.74.56,1.01,1.01Z"/>
      <path d="M378.13,165.62v2.17h2.59v.98h-2.59v4.16c0,.63.08,1.04.25,1.2.17.18.52.27,1.05.27h1.29v1.05h-1.29c-.98,0-1.65-.18-2.02-.55-.36-.36-.55-1.02-.55-1.97v-4.16h-.92v-.98h.92v-2.17h1.26Z"/>
      <path d="M382.37,164.81h1.26v1.6h-1.26v-1.6ZM382.37,167.79h1.26v7.66h-1.26v-7.66Z"/>
      <path d="M391.56,170.94c-.01-.69-.21-1.23-.57-1.65-.38-.41-.88-.62-1.5-.62-.7,0-1.26.21-1.68.6-.42.39-.67.95-.73,1.67h4.48ZM392.82,171.31v.62h-5.78c.06.87.31,1.54.78,1.99.46.45,1.11.67,1.95.67.48,0,.95-.06,1.4-.17s.91-.29,1.36-.55v1.19c-.45.2-.91.35-1.39.43-.48.08-.97.14-1.44.14-1.23,0-2.2-.35-2.91-1.05-.71-.7-1.06-1.67-1.06-2.88s.34-2.24,1.01-2.98c.67-.73,1.6-1.11,2.74-1.11,1.04,0,1.85.34,2.45.99.59.67.9,1.57.9,2.7Z"/>
      <path d="M399.31,168.97c-.14-.08-.29-.14-.46-.18-.17-.03-.35-.06-.55-.06-.71,0-1.26.24-1.64.7-.39.46-.57,1.12-.57,1.99v4.03h-1.26v-7.66h1.26v1.19c.25-.46.6-.81,1.02-1.04s.94-.34,1.55-.34c.08,0,.18.01.29.01.1.01.21.03.35.06v1.29Z"/>
      <g>
        <rect class="cls-17" x="46.22" y="25.62" width="78.58" height="42.06" rx="2.6" ry="2.6"/>
        <rect class="cls-2" x="46.22" y="25.62" width="78.58" height="42.06" rx="2.6" ry="2.6"/>
      </g>
      <polygon class="cls-14" points="64.42 31.15 59.42 41.15 69.42 41.15 64.42 31.15"/>
      <polygon points="89.09 31.22 91 31.22 93.42 37.67 95.85 31.22 97.76 31.22 97.76 40.7 96.51 40.7 96.51 32.38 94.07 38.88 92.78 38.88 90.34 32.38 90.34 40.7 89.09 40.7 89.09 31.22"/>
      <polygon points="102.75 40.7 99.14 31.22 100.48 31.22 103.48 39.2 106.48 31.22 107.82 31.22 104.21 40.7 102.75 40.7"/>
      <rect x="109.2" y="31.22" width="1.29" height="9.48"/>
      <path d="M113.04,31.22h2.9c1.05,0,1.86.25,2.41.73.55.48.82,1.18.82,2.11s-.27,1.65-.82,2.12c-.55.48-1.35.71-2.41.71h-1.61v3.81h-1.29v-9.48ZM114.32,32.27v3.56h1.61c.6,0,1.05-.14,1.38-.45.32-.31.49-.75.49-1.33s-.17-1-.49-1.31c-.33-.31-.78-.47-1.38-.47h-1.61Z"/>
      <rect class="cls-4" x="59.42" y="50.23" width="10" height="10"/>
      <polygon points="89.09 50.3 90.38 50.3 90.38 58.7 94.99 58.7 94.99 59.77 89.09 59.77 89.09 50.3"/>
      <polygon points="96.33 50.3 101.78 50.3 101.78 51.38 97.62 51.38 97.62 54.17 101.37 54.17 101.37 55.25 97.62 55.25 97.62 59.77 96.33 59.77 96.33 50.3"/>
      <path d="M103.66,50.3h1.29v5.76c0,1.01.18,1.75.55,2.2.36.44.96.66,1.79.66s1.42-.22,1.78-.66c.36-.44.56-1.18.56-2.2v-5.76h1.29v5.91c0,1.25-.31,2.17-.92,2.8s-1.51.94-2.7.94-2.11-.31-2.72-.94-.91-1.55-.91-2.8v-5.91Z"/>
    </g>
  </g>
</svg>