<?xml version="1.0" encoding="utf-8" standalone="no"?>
<!DOCTYPE svg PUBLIC "-//W3C//DTD SVG 1.1//EN"
  "http://www.w3.org/Graphics/SVG/1.1/DTD/svg11.dtd">
<svg xmlns:xlink="http://www.w3.org/1999/xlink" width="460.8pt" height="345.6pt" viewBox="0 0 460.8 345.6" xmlns="http://www.w3.org/2000/svg" version="1.1">
 <metadata>
  <rdf:RDF xmlns:dc="http://purl.org/dc/elements/1.1/" xmlns:cc="http://creativecommons.org/ns#" xmlns:rdf="http://www.w3.org/1999/02/22-rdf-syntax-ns#">
   <cc:Work>
    <dc:type rdf:resource="http://purl.org/dc/dcmitype/StillImage"/>
    <dc:date>2023-08-27T13:01:58.588519</dc:date>
    <dc:format>image/svg+xml</dc:format>
    <dc:creator>
     <cc:Agent>
      <dc:title>Matplotlib v3.7.2, https://matplotlib.org/</dc:title>
     </cc:Agent>
    </dc:creator>
   </cc:Work>
  </rdf:RDF>
 </metadata>
 <defs>
  <style type="text/css">*{stroke-linejoin: round; stroke-linecap: butt}</style>
 </defs>
 <g id="figure_1">
  <g id="patch_1">
   <path d="M 0 345.6 
L 460.8 345.6 
L 460.8 0 
L 0 0 
z
" style="fill: #ffffff"/>
  </g>
  <g id="axes_1">
   <g id="patch_2">
    <path d="M 57.6 307.584 
L 414.72 307.584 
L 414.72 41.472 
L 57.6 41.472 
z
" style="fill: #ffffff"/>
   </g>
   <g id="matplotlib.axis_1">
    <g id="xtick_1">
     <g id="line2d_1">
      <defs>
       <path id="m426b0ffd68" d="M 0 0 
L 0 3.5 
" style="stroke: #000000; stroke-width: 0.8"/>
      </defs>
      <g>
       <use xlink:href="#m426b0ffd68" x="73.832727" y="307.584" style="stroke: #000000; stroke-width: 0.8"/>
      </g>
     </g>
     <g id="text_1">
      <!-- $\mathdefault{0}$ -->
      <g transform="translate(71.34206 321.502498) scale(0.1 -0.1)">
       <defs>
        <path id="CMR17-30" d="M 2688 2025 
C 2688 2416 2682 3080 2413 3591 
C 2176 4039 1798 4198 1466 4198 
C 1158 4198 768 4058 525 3597 
C 269 3118 243 2524 243 2025 
C 243 1661 250 1106 448 619 
C 723 -39 1216 -128 1466 -128 
C 1760 -128 2208 -7 2470 600 
C 2662 1042 2688 1559 2688 2025 
z
M 1466 -26 
C 1056 -26 813 325 723 812 
C 653 1188 653 1738 653 2096 
C 653 2588 653 2997 736 3387 
C 858 3929 1216 4096 1466 4096 
C 1728 4096 2067 3923 2189 3400 
C 2272 3036 2278 2607 2278 2096 
C 2278 1680 2278 1169 2202 792 
C 2067 95 1690 -26 1466 -26 
z
" transform="scale(0.015625)"/>
       </defs>
       <use xlink:href="#CMR17-30" transform="scale(0.996264)"/>
      </g>
     </g>
    </g>
    <g id="xtick_2">
     <g id="line2d_2">
      <g>
       <use xlink:href="#m426b0ffd68" x="139.419504" y="307.584" style="stroke: #000000; stroke-width: 0.8"/>
      </g>
     </g>
     <g id="text_2">
      <!-- $\mathdefault{20}$ -->
      <g transform="translate(134.438169 321.502498) scale(0.1 -0.1)">
       <defs>
        <path id="CMR17-32" d="M 2669 989 
L 2554 989 
C 2490 536 2438 459 2413 420 
C 2381 369 1920 369 1830 369 
L 602 369 
C 832 619 1280 1072 1824 1597 
C 2214 1967 2669 2402 2669 3035 
C 2669 3790 2067 4224 1395 4224 
C 691 4224 262 3604 262 3030 
C 262 2780 448 2748 525 2748 
C 589 2748 781 2787 781 3010 
C 781 3207 614 3264 525 3264 
C 486 3264 448 3258 422 3245 
C 544 3790 915 4058 1306 4058 
C 1862 4058 2227 3617 2227 3035 
C 2227 2479 1901 2000 1536 1584 
L 262 146 
L 262 0 
L 2515 0 
L 2669 989 
z
" transform="scale(0.015625)"/>
       </defs>
       <use xlink:href="#CMR17-32" transform="scale(0.996264)"/>
       <use xlink:href="#CMR17-30" transform="translate(45.690477 0) scale(0.996264)"/>
      </g>
     </g>
    </g>
    <g id="xtick_3">
     <g id="line2d_3">
      <g>
       <use xlink:href="#m426b0ffd68" x="205.006281" y="307.584" style="stroke: #000000; stroke-width: 0.8"/>
      </g>
     </g>
     <g id="text_3">
      <!-- $\mathdefault{40}$ -->
      <g transform="translate(200.024946 321.502498) scale(0.1 -0.1)">
       <defs>
        <path id="CMR17-34" d="M 2150 4122 
C 2150 4256 2144 4256 2029 4256 
L 128 1254 
L 128 1088 
L 1779 1088 
L 1779 457 
C 1779 224 1766 160 1318 160 
L 1197 160 
L 1197 0 
C 1402 0 1747 0 1965 0 
C 2182 0 2528 0 2733 0 
L 2733 160 
L 2611 160 
C 2163 160 2150 224 2150 457 
L 2150 1088 
L 2803 1088 
L 2803 1254 
L 2150 1254 
L 2150 4122 
z
M 1798 3703 
L 1798 1254 
L 256 1254 
L 1798 3703 
z
" transform="scale(0.015625)"/>
       </defs>
       <use xlink:href="#CMR17-34" transform="scale(0.996264)"/>
       <use xlink:href="#CMR17-30" transform="translate(45.690477 0) scale(0.996264)"/>
      </g>
     </g>
    </g>
    <g id="xtick_4">
     <g id="line2d_4">
      <g>
       <use xlink:href="#m426b0ffd68" x="270.593058" y="307.584" style="stroke: #000000; stroke-width: 0.8"/>
      </g>
     </g>
     <g id="text_4">
      <!-- $\mathdefault{60}$ -->
      <g transform="translate(265.611723 321.502498) scale(0.1 -0.1)">
       <defs>
        <path id="CMR17-36" d="M 678 2176 
C 678 3690 1395 4032 1811 4032 
C 1946 4032 2272 4009 2400 3776 
C 2298 3776 2106 3776 2106 3553 
C 2106 3381 2246 3323 2336 3323 
C 2394 3323 2566 3348 2566 3560 
C 2566 3954 2246 4179 1805 4179 
C 1043 4179 243 3390 243 1984 
C 243 253 966 -128 1478 -128 
C 2099 -128 2688 427 2688 1283 
C 2688 2081 2170 2662 1517 2662 
C 1126 2662 838 2407 678 1960 
L 678 2176 
z
M 1478 25 
C 691 25 691 1200 691 1436 
C 691 1896 909 2560 1504 2560 
C 1613 2560 1926 2560 2138 2120 
C 2253 1870 2253 1609 2253 1289 
C 2253 944 2253 690 2118 434 
C 1978 171 1773 25 1478 25 
z
" transform="scale(0.015625)"/>
       </defs>
       <use xlink:href="#CMR17-36" transform="scale(0.996264)"/>
       <use xlink:href="#CMR17-30" transform="translate(45.690477 0) scale(0.996264)"/>
      </g>
     </g>
    </g>
    <g id="xtick_5">
     <g id="line2d_5">
      <g>
       <use xlink:href="#m426b0ffd68" x="336.179835" y="307.584" style="stroke: #000000; stroke-width: 0.8"/>
      </g>
     </g>
     <g id="text_5">
      <!-- $\mathdefault{80}$ -->
      <g transform="translate(331.198499 321.502498) scale(0.1 -0.1)">
       <defs>
        <path id="CMR17-38" d="M 1741 2264 
C 2144 2467 2554 2773 2554 3263 
C 2554 3841 1990 4179 1472 4179 
C 890 4179 378 3759 378 3180 
C 378 3021 416 2747 666 2505 
C 730 2442 998 2251 1171 2130 
C 883 1983 211 1634 211 934 
C 211 279 838 -128 1459 -128 
C 2144 -128 2720 362 2720 1010 
C 2720 1590 2330 1857 2074 2029 
L 1741 2264 
z
M 902 2822 
C 851 2854 595 3051 595 3351 
C 595 3739 998 4032 1459 4032 
C 1965 4032 2336 3676 2336 3262 
C 2336 2669 1670 2331 1638 2331 
C 1632 2331 1626 2331 1574 2370 
L 902 2822 
z
M 2080 1519 
C 2176 1449 2483 1240 2483 851 
C 2483 381 2010 25 1472 25 
C 890 25 448 438 448 940 
C 448 1443 838 1862 1280 2060 
L 2080 1519 
z
" transform="scale(0.015625)"/>
       </defs>
       <use xlink:href="#CMR17-38" transform="scale(0.996264)"/>
       <use xlink:href="#CMR17-30" transform="translate(45.690477 0) scale(0.996264)"/>
      </g>
     </g>
    </g>
    <g id="xtick_6">
     <g id="line2d_6">
      <g>
       <use xlink:href="#m426b0ffd68" x="401.766612" y="307.584" style="stroke: #000000; stroke-width: 0.8"/>
      </g>
     </g>
     <g id="text_6">
      <!-- $\mathdefault{100}$ -->
      <g transform="translate(394.294609 321.502498) scale(0.1 -0.1)">
       <defs>
        <path id="CMR17-31" d="M 1702 4058 
C 1702 4192 1696 4192 1606 4192 
C 1357 3916 979 3827 621 3827 
C 602 3827 570 3827 563 3808 
C 557 3795 557 3782 557 3648 
C 755 3648 1088 3686 1344 3839 
L 1344 461 
C 1344 236 1331 160 781 160 
L 589 160 
L 589 0 
C 896 0 1216 0 1523 0 
C 1830 0 2150 0 2458 0 
L 2458 160 
L 2266 160 
C 1715 160 1702 230 1702 458 
L 1702 4058 
z
" transform="scale(0.015625)"/>
       </defs>
       <use xlink:href="#CMR17-31" transform="scale(0.996264)"/>
       <use xlink:href="#CMR17-30" transform="translate(45.690477 0) scale(0.996264)"/>
       <use xlink:href="#CMR17-30" transform="translate(91.380954 0) scale(0.996264)"/>
      </g>
     </g>
    </g>
    <g id="text_7">
     <!-- Request Rate at Forwarder, $\lambda$ (requests/sec) -->
     <g transform="translate(90.825108 339.394845) scale(0.16 -0.16)">
      <defs>
       <path id="CMSS17-52" d="M 2522 2109 
L 2534 2115 
C 3533 2459 3539 3147 3539 3268 
C 3539 3873 2925 4453 2003 4453 
L 570 4453 
L 570 32 
L 1094 32 
L 1094 2048 
L 2035 2048 
L 3168 32 
L 3706 32 
L 2522 2109 
z
M 1094 2437 
L 1094 4096 
L 1933 4096 
C 2746 4096 3034 3637 3034 3267 
C 3034 2922 2778 2437 1933 2437 
L 1094 2437 
z
" transform="scale(0.015625)"/>
       <path id="CMSS17-65" d="M 2502 1377 
C 2502 1590 2490 2003 2285 2345 
C 2061 2713 1696 2816 1421 2816 
C 755 2816 192 2188 192 1375 
C 192 582 774 -64 1510 -64 
C 1798 -64 2150 19 2470 248 
C 2470 274 2458 414 2451 420 
C 2451 433 2432 630 2432 656 
C 2125 407 1773 325 1517 325 
C 1107 325 666 667 646 1377 
L 2502 1377 
z
M 698 1728 
C 781 2084 1062 2421 1421 2421 
C 1517 2421 1965 2421 2080 1728 
L 698 1728 
z
" transform="scale(0.015625)"/>
       <path id="CMSS17-71" d="M 2611 2816 
L 2138 2816 
L 2138 2428 
C 2112 2460 1818 2816 1318 2816 
C 736 2816 211 2228 211 1399 
C 211 633 653 -5 1229 -5 
C 1498 -5 1837 91 2125 365 
L 2125 -1216 
L 2611 -1216 
L 2611 2816 
z
M 2138 914 
C 2138 832 2138 718 1939 554 
C 1888 510 1747 384 1504 384 
C 1050 384 698 850 698 1399 
C 698 2011 1126 2415 1562 2415 
C 1926 2415 2138 2061 2138 1797 
L 2138 914 
z
" transform="scale(0.015625)"/>
       <path id="CMSS17-75" d="M 2618 2739 
L 2131 2739 
L 2131 972 
C 2131 498 1786 306 1421 306 
C 998 306 960 447 960 709 
L 960 2739 
L 474 2739 
L 474 678 
C 474 179 646 -64 1088 -64 
C 1306 -64 1798 -13 2144 306 
L 2144 0 
L 2618 0 
L 2618 2739 
z
" transform="scale(0.015625)"/>
       <path id="CMSS17-73" d="M 2061 2627 
C 1683 2807 1389 2807 1197 2807 
C 742 2807 198 2648 198 2003 
C 198 1359 902 1218 1094 1179 
C 1389 1122 1715 1058 1715 740 
C 1715 337 1254 337 1171 337 
C 915 337 563 407 243 638 
L 166 210 
C 531 0 883 -64 1178 -64 
C 1965 -64 2163 416 2163 781 
C 2163 1094 1984 1305 1862 1401 
C 1651 1568 1574 1587 1050 1696 
C 960 1709 646 1779 646 2066 
C 646 2432 1050 2432 1139 2432 
C 1555 2432 1811 2303 1984 2208 
L 2061 2627 
z
" transform="scale(0.015625)"/>
       <path id="CMSS17-74" d="M 1069 2368 
L 1901 2368 
L 1901 2737 
L 1069 2737 
L 1069 3520 
L 614 3520 
L 614 2737 
L 109 2737 
L 109 2368 
L 602 2368 
L 602 749 
C 602 384 685 -64 1107 -64 
C 1427 -64 1722 25 2003 172 
L 1901 548 
C 1747 414 1562 337 1363 337 
C 1082 337 1069 696 1069 856 
L 1069 2368 
z
" transform="scale(0.015625)"/>
       <path id="CMSS17-61" d="M 2406 1791 
C 2406 2392 1978 2808 1402 2808 
C 1120 2808 813 2757 461 2553 
L 499 2135 
C 659 2248 934 2432 1395 2432 
C 1722 2432 1920 2180 1920 1782 
L 1920 1536 
C 896 1536 256 1238 256 726 
C 256 461 416 -64 947 -64 
C 1043 -64 1562 -64 1933 217 
L 1933 -19 
L 2406 -19 
L 2406 1791 
z
M 1920 816 
C 1920 701 1920 548 1728 434 
C 1562 325 1350 325 1261 325 
C 941 325 723 511 723 744 
C 723 1211 1722 1211 1920 1211 
L 1920 816 
z
" transform="scale(0.015625)"/>
       <path id="CMSS17-46" d="M 2918 1984 
L 2918 2373 
L 1101 2373 
L 1101 3968 
L 1882 3968 
C 1958 3968 2035 3968 2112 3968 
L 3168 3968 
L 3168 4375 
L 563 4375 
L 563 -32 
L 1101 -32 
L 1101 1984 
L 2918 1984 
z
" transform="scale(0.015625)"/>
       <path id="CMSS17-6f" d="M 2829 1356 
C 2829 2176 2221 2816 1504 2816 
C 768 2816 173 2157 173 1356 
C 173 544 787 -64 1498 -64 
C 2227 -64 2829 563 2829 1356 
z
M 1504 337 
C 1050 337 659 709 659 1408 
C 659 2151 1114 2427 1498 2427 
C 1914 2427 2342 2126 2342 1408 
C 2342 683 1926 337 1504 337 
z
" transform="scale(0.015625)"/>
       <path id="CMSS17-72" d="M 954 1363 
C 954 1965 1395 2368 1958 2368 
L 1958 2789 
C 1549 2789 1165 2585 934 2253 
L 934 2758 
L 480 2758 
L 480 0 
L 954 0 
L 954 1363 
z
" transform="scale(0.015625)"/>
       <path id="CMSS17-77" d="M 4013 2752 
L 3526 2752 
L 3187 1601 
C 3117 1358 2918 685 2893 371 
L 2886 371 
C 2874 564 2765 1024 2586 1633 
L 2259 2752 
L 1818 2752 
L 1498 1658 
C 1338 1101 1216 627 1203 371 
L 1197 371 
C 1171 749 909 1633 870 1773 
L 582 2752 
L 83 2752 
L 915 0 
L 1402 0 
C 1734 1096 1990 1943 2010 2370 
C 2022 2160 2131 1707 2195 1484 
L 2618 0 
L 3181 0 
L 4013 2752 
z
" transform="scale(0.015625)"/>
       <path id="CMSS17-64" d="M 2611 4416 
L 2138 4416 
L 2138 2438 
C 1939 2603 1613 2756 1254 2756 
C 672 2756 211 2131 211 1347 
C 211 562 666 -64 1235 -64 
C 1677 -64 1971 172 2125 306 
L 2125 -13 
L 2611 -13 
L 2611 4416 
z
M 2125 836 
C 2125 747 2125 653 1926 482 
C 1798 375 1645 325 1498 325 
C 1152 325 698 576 698 1340 
C 698 2134 1210 2368 1562 2368 
C 1798 2368 1990 2254 2125 2065 
L 2125 836 
z
" transform="scale(0.015625)"/>
       <path id="CMSS17-2c" d="M 1088 6 
L 1088 510 
L 576 510 
L 576 0 
L 736 0 
L 570 -800 
L 826 -800 
L 1088 6 
z
" transform="scale(0.015625)"/>
       <path id="CMMI12-15" d="M 1978 3965 
C 1818 4416 1312 4416 1229 4416 
C 1190 4416 1120 4416 1120 4352 
C 1120 4302 1158 4295 1190 4289 
C 1286 4276 1363 4263 1466 4080 
C 1530 3959 2189 2059 2189 2046 
C 2189 2040 2182 2033 2131 1982 
L 467 311 
C 390 234 339 183 339 102 
C 339 12 416 -64 518 -64 
C 544 -64 614 -51 653 -13 
C 755 82 1670 1194 2253 1881 
C 2419 1383 2624 797 2822 261 
C 2854 166 2886 76 2976 -6 
C 3040 -64 3053 -64 3232 -64 
L 3354 -64 
C 3379 -64 3424 -64 3424 -13 
C 3424 13 3418 19 3392 45 
C 3334 115 3290 229 3264 306 
L 1978 3965 
z
" transform="scale(0.015625)"/>
       <path id="CMSS17-28" d="M 1613 4768 
C 1267 4417 474 3601 474 1588 
C 474 -433 1267 -1243 1613 -1600 
L 2003 -1600 
C 1216 -784 960 357 960 1581 
C 960 2798 1203 3946 2003 4768 
L 1613 4768 
z
" transform="scale(0.015625)"/>
       <path id="CMSS17-2f" d="M 2637 4545 
C 2669 4627 2669 4640 2669 4653 
C 2669 4729 2611 4768 2560 4768 
C 2483 4768 2458 4717 2432 4640 
L 365 -1377 
C 333 -1460 333 -1473 333 -1486 
C 333 -1562 390 -1600 442 -1600 
C 518 -1600 544 -1549 570 -1473 
L 2637 4545 
z
" transform="scale(0.015625)"/>
       <path id="CMSS17-63" d="M 2464 2541 
C 2464 2585 2170 2714 2093 2739 
C 1882 2816 1613 2816 1542 2816 
C 710 2816 211 2093 211 1363 
C 211 595 768 -64 1517 -64 
C 1946 -64 2253 76 2502 242 
L 2464 664 
C 2189 453 1869 337 1523 337 
C 1024 337 698 774 698 1369 
C 698 1831 909 2414 1549 2414 
C 1901 2414 2099 2343 2394 2145 
L 2464 2541 
z
" transform="scale(0.015625)"/>
       <path id="CMSS17-29" d="M 723 -1600 
C 1069 -1249 1862 -433 1862 1581 
C 1862 3601 1069 4411 723 4768 
L 333 4768 
C 1120 3952 1376 2811 1376 1588 
C 1376 370 1133 -778 333 -1600 
L 723 -1600 
z
" transform="scale(0.015625)"/>
      </defs>
      <use xlink:href="#CMSS17-52" transform="scale(0.996264)"/>
      <use xlink:href="#CMSS17-65" transform="translate(60.416155 0) scale(0.996264)"/>
      <use xlink:href="#CMSS17-71" transform="translate(102.054977 0) scale(0.996264)"/>
      <use xlink:href="#CMSS17-75" transform="translate(150.25992 0) scale(0.996264)"/>
      <use xlink:href="#CMSS17-65" transform="translate(198.464863 0) scale(0.996264)"/>
      <use xlink:href="#CMSS17-73" transform="translate(240.103685 0) scale(0.996264)"/>
      <use xlink:href="#CMSS17-74" transform="translate(276.017227 0) scale(0.996264)"/>
      <use xlink:href="#CMSS17-52" transform="translate(341.077907 0) scale(0.996264)"/>
      <use xlink:href="#CMSS17-61" transform="translate(401.494062 0) scale(0.996264)"/>
      <use xlink:href="#CMSS17-74" transform="translate(446.415982 0) scale(0.996264)"/>
      <use xlink:href="#CMSS17-65" transform="translate(480.247549 0) scale(0.996264)"/>
      <use xlink:href="#CMSS17-61" transform="translate(553.115484 0) scale(0.996264)"/>
      <use xlink:href="#CMSS17-74" transform="translate(598.037404 0) scale(0.996264)"/>
      <use xlink:href="#CMSS17-46" transform="translate(663.098084 0) scale(0.996264)"/>
      <use xlink:href="#CMSS17-6f" transform="translate(713.785189 0) scale(0.996264)"/>
      <use xlink:href="#CMSS17-72" transform="translate(758.026359 0) scale(0.996264)"/>
      <use xlink:href="#CMSS17-77" transform="translate(789.936131 0) scale(0.996264)"/>
      <use xlink:href="#CMSS17-61" transform="translate(851.153222 0) scale(0.996264)"/>
      <use xlink:href="#CMSS17-72" transform="translate(893.472689 0) scale(0.996264)"/>
      <use xlink:href="#CMSS17-64" transform="translate(925.382462 0) scale(0.996264)"/>
      <use xlink:href="#CMSS17-65" transform="translate(973.587405 0) scale(0.996264)"/>
      <use xlink:href="#CMSS17-72" transform="translate(1015.226227 0) scale(0.996264)"/>
      <use xlink:href="#CMSS17-2c" transform="translate(1047.135999 0) scale(0.996264)"/>
      <use xlink:href="#CMMI12-15" transform="translate(1104.389317 0) scale(0.996264)"/>
      <use xlink:href="#CMSS17-28" transform="translate(1192.522502 0) scale(0.996264)"/>
      <use xlink:href="#CMSS17-72" transform="translate(1228.956416 0) scale(0.996264)"/>
      <use xlink:href="#CMSS17-65" transform="translate(1260.866188 0) scale(0.996264)"/>
      <use xlink:href="#CMSS17-71" transform="translate(1302.505011 0) scale(0.996264)"/>
      <use xlink:href="#CMSS17-75" transform="translate(1350.709954 0) scale(0.996264)"/>
      <use xlink:href="#CMSS17-65" transform="translate(1398.914897 0) scale(0.996264)"/>
      <use xlink:href="#CMSS17-73" transform="translate(1440.553719 0) scale(0.996264)"/>
      <use xlink:href="#CMSS17-74" transform="translate(1476.467261 0) scale(0.996264)"/>
      <use xlink:href="#CMSS17-73" transform="translate(1510.298828 0) scale(0.996264)"/>
      <use xlink:href="#CMSS17-2f" transform="translate(1546.21237 0) scale(0.996264)"/>
      <use xlink:href="#CMSS17-73" transform="translate(1593.055993 0) scale(0.996264)"/>
      <use xlink:href="#CMSS17-65" transform="translate(1628.969535 0) scale(0.996264)"/>
      <use xlink:href="#CMSS17-63" transform="translate(1670.608357 0) scale(0.996264)"/>
      <use xlink:href="#CMSS17-29" transform="translate(1712.247179 0) scale(0.996264)"/>
     </g>
    </g>
   </g>
   <g id="matplotlib.axis_2">
    <g id="ytick_1">
     <g id="line2d_7">
      <defs>
       <path id="m88e8eab359" d="M 0 0 
L -3.5 0 
" style="stroke: #000000; stroke-width: 0.8"/>
      </defs>
      <g>
       <use xlink:href="#m88e8eab359" x="57.6" y="295.488" style="stroke: #000000; stroke-width: 0.8"/>
      </g>
     </g>
     <g id="text_8">
      <!-- $\mathdefault{0}$ -->
      <g transform="translate(45.618665 298.947249) scale(0.1 -0.1)">
       <use xlink:href="#CMR17-30" transform="scale(0.996264)"/>
      </g>
     </g>
    </g>
    <g id="ytick_2">
     <g id="line2d_8">
      <g>
       <use xlink:href="#m88e8eab359" x="57.6" y="236.669113" style="stroke: #000000; stroke-width: 0.8"/>
      </g>
     </g>
     <g id="text_9">
      <!-- $\mathdefault{1}$ -->
      <g transform="translate(45.618665 240.128363) scale(0.1 -0.1)">
       <use xlink:href="#CMR17-31" transform="scale(0.996264)"/>
      </g>
     </g>
    </g>
    <g id="ytick_3">
     <g id="line2d_9">
      <g>
       <use xlink:href="#m88e8eab359" x="57.6" y="177.850227" style="stroke: #000000; stroke-width: 0.8"/>
      </g>
     </g>
     <g id="text_10">
      <!-- $\mathdefault{2}$ -->
      <g transform="translate(45.618665 181.309476) scale(0.1 -0.1)">
       <use xlink:href="#CMR17-32" transform="scale(0.996264)"/>
      </g>
     </g>
    </g>
    <g id="ytick_4">
     <g id="line2d_10">
      <g>
       <use xlink:href="#m88e8eab359" x="57.6" y="119.03134" style="stroke: #000000; stroke-width: 0.8"/>
      </g>
     </g>
     <g id="text_11">
      <!-- $\mathdefault{3}$ -->
      <g transform="translate(45.618665 122.490589) scale(0.1 -0.1)">
       <defs>
        <path id="CMR17-33" d="M 1414 2157 
C 1984 2157 2234 1662 2234 1090 
C 2234 320 1824 25 1453 25 
C 1114 25 563 194 390 693 
C 422 680 454 680 486 680 
C 640 680 755 782 755 948 
C 755 1133 614 1216 486 1216 
C 378 1216 211 1165 211 926 
C 211 335 787 -128 1466 -128 
C 2176 -128 2720 430 2720 1085 
C 2720 1707 2208 2157 1600 2227 
C 2086 2328 2554 2756 2554 3329 
C 2554 3820 2048 4179 1472 4179 
C 890 4179 378 3829 378 3329 
C 378 3110 544 3072 627 3072 
C 762 3072 877 3155 877 3321 
C 877 3486 762 3569 627 3569 
C 602 3569 570 3569 544 3557 
C 730 3959 1235 4032 1459 4032 
C 1683 4032 2106 3925 2106 3320 
C 2106 3143 2080 2828 1862 2550 
C 1670 2304 1453 2304 1242 2284 
C 1210 2284 1062 2269 1037 2269 
C 992 2263 966 2257 966 2208 
C 966 2163 973 2157 1101 2157 
L 1414 2157 
z
" transform="scale(0.015625)"/>
       </defs>
       <use xlink:href="#CMR17-33" transform="scale(0.996264)"/>
      </g>
     </g>
    </g>
    <g id="ytick_5">
     <g id="line2d_11">
      <g>
       <use xlink:href="#m88e8eab359" x="57.6" y="60.212453" style="stroke: #000000; stroke-width: 0.8"/>
      </g>
     </g>
     <g id="text_12">
      <!-- $\mathdefault{4}$ -->
      <g transform="translate(45.618665 63.671702) scale(0.1 -0.1)">
       <use xlink:href="#CMR17-34" transform="scale(0.996264)"/>
      </g>
     </g>
    </g>
    <g id="text_13">
     <!-- Avg. \# of Total Pkts in Flight -->
     <g transform="translate(38.519189 274.778708) rotate(-90) scale(0.16 -0.16)">
      <defs>
       <path id="CMSS17-41" d="M 2272 4416 
L 1722 4416 
L 166 0 
L 653 0 
L 1101 1280 
L 2816 1280 
L 3270 0 
L 3827 0 
L 2272 4416 
z
M 2694 1637 
L 1222 1637 
C 1530 2528 1914 3638 1958 3925 
L 1965 3925 
C 2010 3663 2138 3281 2246 2956 
L 2694 1637 
z
" transform="scale(0.015625)"/>
       <path id="CMSS17-76" d="M 2675 2752 
L 2176 2752 
L 1747 1556 
C 1613 1165 1421 627 1389 352 
L 1382 352 
C 1370 468 1318 634 1286 749 
C 1248 890 1197 1056 1158 1172 
L 595 2752 
L 83 2752 
L 1094 0 
L 1664 0 
L 2675 2752 
z
" transform="scale(0.015625)"/>
       <path id="CMSS17-67" d="M 2848 2808 
C 2483 2808 2170 2738 1914 2617 
C 1702 2777 1485 2808 1338 2808 
C 781 2808 358 2349 358 1814 
C 358 1468 550 1207 563 1195 
C 448 1035 384 863 384 672 
C 384 448 474 289 544 200 
C 211 -3 166 -314 166 -435 
C 166 -898 749 -1280 1498 -1280 
C 2253 -1280 2835 -898 2835 -428 
C 2835 448 1856 448 1587 448 
L 1069 448 
C 973 448 717 448 717 791 
C 717 921 774 1004 781 1010 
C 877 940 1075 832 1338 832 
C 1869 832 2310 1278 2310 1827 
C 2310 2132 2170 2355 2112 2432 
L 2131 2432 
C 2150 2432 2419 2432 2515 2432 
C 2720 2432 2739 2429 2918 2419 
L 2848 2808 
z
M 1338 1182 
C 1120 1182 813 1315 813 1823 
C 813 2375 1165 2464 1331 2464 
C 1549 2464 1856 2331 1856 1823 
C 1856 1271 1504 1182 1338 1182 
z
M 1581 -10 
C 1734 -10 2381 -10 2381 -442 
C 2381 -714 1984 -929 1504 -929 
C 1018 -929 621 -720 621 -435 
C 621 -403 621 -10 1062 -10 
L 1581 -10 
z
" transform="scale(0.015625)"/>
       <path id="CMSS17-2e" d="M 1088 510 
L 576 510 
L 576 0 
L 1088 0 
L 1088 510 
z
" transform="scale(0.015625)"/>
       <path id="CMSS17-23" d="M 3142 896 
L 4461 896 
C 4570 896 4678 896 4678 1011 
C 4678 1119 4582 1119 4486 1119 
L 3206 1119 
L 3424 2017 
L 4486 2017 
C 4582 2017 4678 2017 4678 2125 
C 4678 2240 4570 2240 4461 2240 
L 3488 2240 
L 3981 4184 
C 4000 4248 4006 4280 4006 4300 
C 4006 4364 3955 4416 3891 4416 
C 3802 4416 3782 4326 3770 4275 
L 3258 2240 
L 2099 2240 
L 2592 4184 
C 2611 4248 2618 4280 2618 4300 
C 2618 4364 2566 4416 2502 4416 
C 2413 4416 2394 4326 2381 4275 
L 1869 2240 
L 550 2240 
C 442 2240 333 2240 333 2125 
C 333 2017 429 2017 525 2017 
L 1805 2017 
L 1587 1119 
L 525 1119 
C 429 1119 333 1119 333 1011 
C 333 896 442 896 550 896 
L 1523 896 
L 1030 -1020 
C 1011 -1083 1005 -1114 1005 -1134 
C 1005 -1197 1056 -1248 1120 -1248 
C 1210 -1248 1229 -1159 1242 -1109 
L 1754 896 
L 2912 896 
L 2419 -1020 
C 2400 -1083 2394 -1114 2394 -1134 
C 2394 -1197 2445 -1248 2509 -1248 
C 2598 -1248 2618 -1159 2630 -1109 
L 3142 896 
z
M 1818 1119 
L 2035 2017 
L 3194 2017 
L 2976 1119 
L 1818 1119 
z
" transform="scale(0.015625)"/>
       <path id="CMSS17-66" d="M 1075 2368 
L 1722 2368 
L 1722 2737 
L 1062 2737 
L 1062 3559 
C 1062 4014 1408 4092 1606 4092 
C 1670 4092 1850 4092 2080 4009 
L 2080 4429 
C 1933 4461 1754 4480 1613 4480 
C 1018 4480 602 3993 602 3359 
L 602 2737 
L 160 2737 
L 160 2368 
L 602 2368 
L 602 0 
L 1075 0 
L 1075 2368 
z
" transform="scale(0.015625)"/>
       <path id="CMSS17-54" d="M 2317 3968 
L 2848 3968 
C 2925 3968 3002 3968 3078 3968 
L 3878 3968 
L 3878 4376 
L 218 4376 
L 218 3968 
L 1018 3968 
C 1094 3968 1171 3968 1248 3968 
L 1779 3968 
L 1779 -32 
L 2317 -32 
L 2317 3968 
z
" transform="scale(0.015625)"/>
       <path id="CMSS17-6c" d="M 947 4416 
L 474 4416 
L 474 0 
L 947 0 
L 947 4416 
z
" transform="scale(0.015625)"/>
       <path id="CMSS17-50" d="M 2106 1856 
C 2874 1856 3501 2453 3501 3158 
C 3501 3850 2899 4453 2067 4453 
L 570 4453 
L 570 0 
L 1107 0 
L 1107 1856 
L 2106 1856 
z
M 1926 4096 
C 2669 4096 2995 3627 2995 3157 
C 2995 2720 2694 2226 1926 2226 
L 1094 2226 
L 1094 4096 
L 1926 4096 
z
" transform="scale(0.015625)"/>
       <path id="CMSS17-6b" d="M 1696 1688 
L 2688 2739 
L 2074 2739 
L 954 1554 
L 954 4416 
L 480 4416 
L 480 0 
L 947 0 
L 947 892 
L 1376 1344 
L 2278 0 
L 2822 0 
L 1696 1688 
z
" transform="scale(0.015625)"/>
       <path id="CMSS17-69" d="M 979 4183 
L 442 4183 
L 442 3648 
L 979 3648 
L 979 4183 
z
M 947 2739 
L 474 2739 
L 474 0 
L 947 0 
L 947 2739 
z
" transform="scale(0.015625)"/>
       <path id="CMSS17-6e" d="M 2618 1877 
C 2618 2283 2522 2816 1798 2816 
C 1389 2816 1120 2606 941 2389 
L 941 2758 
L 474 2758 
L 474 0 
L 960 0 
L 960 1559 
C 960 1964 1114 2428 1549 2428 
C 2112 2428 2131 2048 2131 1829 
L 2131 0 
L 2618 0 
L 2618 1877 
z
" transform="scale(0.015625)"/>
       <path id="CMSS17-68" d="M 2618 1891 
C 2618 2292 2522 2820 1798 2820 
C 1395 2820 1133 2623 947 2407 
L 947 4448 
L 474 4448 
L 474 32 
L 960 32 
L 960 1573 
C 960 1973 1114 2432 1549 2432 
C 2112 2432 2131 2056 2131 1839 
L 2131 32 
L 2618 32 
L 2618 1891 
z
" transform="scale(0.015625)"/>
      </defs>
      <use xlink:href="#CMSS17-41" transform="scale(0.996264)"/>
      <use xlink:href="#CMSS17-76" transform="translate(62.217855 0) scale(0.996264)"/>
      <use xlink:href="#CMSS17-67" transform="translate(105.217997 0) scale(0.996264)"/>
      <use xlink:href="#CMSS17-2e" transform="translate(152.06162 0) scale(0.996264)"/>
      <use xlink:href="#CMSS17-23" transform="translate(219.724632 0) scale(0.996264)"/>
      <use xlink:href="#CMSS17-6f" transform="translate(329.026481 0) scale(0.996264)"/>
      <use xlink:href="#CMSS17-66" transform="translate(375.870104 0) scale(0.996264)"/>
      <use xlink:href="#CMSS17-54" transform="translate(435.725876 0) scale(0.996264)"/>
      <use xlink:href="#CMSS17-6f" transform="translate(491.738075 0) scale(0.996264)"/>
      <use xlink:href="#CMSS17-74" transform="translate(538.581698 0) scale(0.996264)"/>
      <use xlink:href="#CMSS17-61" transform="translate(572.413265 0) scale(0.996264)"/>
      <use xlink:href="#CMSS17-6c" transform="translate(617.335185 0) scale(0.996264)"/>
      <use xlink:href="#CMSS17-50" transform="translate(670.745021 0) scale(0.996264)"/>
      <use xlink:href="#CMSS17-6b" transform="translate(730.480607 0) scale(0.996264)"/>
      <use xlink:href="#CMSS17-74" transform="translate(776.083097 0) scale(0.996264)"/>
      <use xlink:href="#CMSS17-73" transform="translate(809.914663 0) scale(0.996264)"/>
      <use xlink:href="#CMSS17-69" transform="translate(877.057318 0) scale(0.996264)"/>
      <use xlink:href="#CMSS17-6e" transform="translate(899.238041 0) scale(0.996264)"/>
      <use xlink:href="#CMSS17-46" transform="translate(978.672097 0) scale(0.996264)"/>
      <use xlink:href="#CMSS17-6c" transform="translate(1031.961656 0) scale(0.996264)"/>
      <use xlink:href="#CMSS17-69" transform="translate(1054.142379 0) scale(0.996264)"/>
      <use xlink:href="#CMSS17-67" transform="translate(1076.323102 0) scale(0.996264)"/>
      <use xlink:href="#CMSS17-68" transform="translate(1123.166726 0) scale(0.996264)"/>
      <use xlink:href="#CMSS17-74" transform="translate(1171.371669 0) scale(0.996264)"/>
     </g>
    </g>
   </g>
   <g id="line2d_12">
    <path d="M 73.832727 295.488 
L 77.112066 294.895761 
L 80.391405 294.295296 
L 83.670744 293.68641 
L 86.950083 293.068903 
L 90.229421 292.442567 
L 93.50876 291.807188 
L 96.788099 291.162544 
L 100.067438 290.508406 
L 103.346777 289.844538 
L 106.626116 289.170694 
L 109.905455 288.48662 
L 113.184793 287.792055 
L 116.464132 287.086726 
L 119.743471 286.370351 
L 123.02281 285.642639 
L 126.302149 284.903287 
L 129.581488 284.151981 
L 132.860826 283.388397 
L 136.140165 282.612195 
L 139.419504 281.823027 
L 142.698843 281.020528 
L 145.978182 280.20432 
L 149.257521 279.374011 
L 152.53686 278.529191 
L 155.816198 277.669438 
L 159.095537 276.794308 
L 162.374876 275.903342 
L 165.654215 274.996063 
L 168.933554 274.07197 
L 172.212893 273.130545 
L 175.492231 272.171247 
L 178.77157 271.193509 
L 182.050909 270.196744 
L 185.330248 269.180335 
L 188.609587 268.14364 
L 191.888926 267.085987 
L 195.168264 266.006675 
L 198.447603 264.904969 
L 201.726942 263.7801 
L 205.006281 262.631264 
L 208.28562 261.457618 
L 211.564959 260.258277 
L 214.844298 259.032315 
L 218.123636 257.778758 
L 221.402975 256.496586 
L 224.682314 255.184725 
L 227.961653 253.842046 
L 231.240992 252.467362 
L 234.520331 251.059423 
L 237.799669 249.616911 
L 241.079008 248.138439 
L 244.358347 246.622542 
L 247.637686 245.067673 
L 250.917025 243.472199 
L 254.196364 241.834392 
L 257.475702 240.152425 
L 260.755041 238.424361 
L 264.03438 236.648148 
L 267.313719 234.821609 
L 270.593058 232.942433 
L 273.872397 231.008163 
L 277.151736 229.016185 
L 280.431074 226.963715 
L 283.710413 224.847789 
L 286.989752 222.665238 
L 290.269091 220.412684 
L 293.54843 218.086508 
L 296.827769 215.682841 
L 300.107107 213.197532 
L 303.386446 210.626127 
L 306.665785 207.963841 
L 309.945124 205.205526 
L 313.224463 202.345631 
L 316.503802 199.37817 
L 319.78314 196.296675 
L 323.062479 193.094142 
L 326.341818 189.762982 
L 329.621157 186.294953 
L 332.900496 182.681092 
L 336.179835 178.911629 
L 339.459174 174.975901 
L 342.738512 170.862241 
L 346.017851 166.557863 
L 349.29719 162.048718 
L 352.576529 157.31934 
L 355.855868 152.352659 
L 359.135207 147.12979 
L 362.414545 141.629781 
L 365.693884 135.829326 
L 368.973223 129.702426 
L 372.252562 123.219983 
L 375.531901 116.349327 
L 378.81124 109.053654 
L 382.090579 101.291342 
L 385.369917 93.015145 
L 388.649256 84.171203 
L 391.928595 74.697846 
L 395.207934 64.524127 
L 398.487273 53.568 
" clip-path="url(#p2c17d65f0b)" style="fill: none; stroke: #1f77b4; stroke-width: 2; stroke-linecap: square"/>
   </g>
   <g id="line2d_13">
    <path d="M 73.832727 295.488 
L 77.112066 294.774391 
L 80.391405 294.054027 
L 83.670744 293.326801 
L 86.950083 292.592607 
L 90.229421 291.851333 
L 93.50876 291.102866 
L 96.788099 290.347091 
L 100.067438 289.58389 
L 103.346777 288.813142 
L 106.626116 288.034723 
L 109.905455 287.248507 
L 113.184793 286.454365 
L 116.464132 285.652163 
L 119.743471 284.841767 
L 123.02281 284.023037 
L 126.302149 283.195831 
L 129.581488 282.360005 
L 132.860826 281.515408 
L 136.140165 280.661887 
L 139.419504 279.799288 
L 142.698843 278.927448 
L 145.978182 278.046203 
L 149.257521 277.155386 
L 152.53686 276.254822 
L 155.816198 275.344336 
L 159.095537 274.423744 
L 162.374876 273.492861 
L 165.654215 272.551494 
L 168.933554 271.599448 
L 172.212893 270.636522 
L 175.492231 269.662506 
L 178.77157 268.67719 
L 182.050909 267.680355 
L 185.330248 266.671776 
L 188.609587 265.651223 
L 191.888926 264.618458 
L 195.168264 263.573239 
L 198.447603 262.515314 
L 201.726942 261.444426 
L 205.006281 260.360309 
L 208.28562 259.262692 
L 211.564959 258.151292 
L 214.844298 257.025822 
L 218.123636 255.885984 
L 221.402975 254.73147 
L 224.682314 253.561966 
L 227.961653 252.377146 
L 231.240992 251.176674 
L 234.520331 249.960205 
L 237.799669 248.727381 
L 241.079008 247.477836 
L 244.358347 246.211189 
L 247.637686 244.927048 
L 250.917025 243.625009 
L 254.196364 242.304654 
L 257.475702 240.96555 
L 260.755041 239.607253 
L 264.03438 238.2293 
L 267.313719 236.831214 
L 270.593058 235.412503 
L 273.872397 233.972655 
L 277.151736 232.511142 
L 280.431074 231.027417 
L 283.710413 229.520913 
L 286.989752 227.991043 
L 290.269091 226.437198 
L 293.54843 224.858746 
L 296.827769 223.255033 
L 300.107107 221.625378 
L 303.386446 219.969077 
L 306.665785 218.285396 
L 309.945124 216.573574 
L 313.224463 214.83282 
L 316.503802 213.06231 
L 319.78314 211.261188 
L 323.062479 209.428563 
L 326.341818 207.563506 
L 329.621157 205.665052 
L 332.900496 203.732191 
L 336.179835 201.763873 
L 339.459174 199.759002 
L 342.738512 197.716433 
L 346.017851 195.63497 
L 349.29719 193.513365 
L 352.576529 191.35031 
L 355.855868 189.14444 
L 359.135207 186.894324 
L 362.414545 184.598464 
L 365.693884 182.255289 
L 368.973223 179.863153 
L 372.252562 177.420329 
L 375.531901 174.925001 
L 378.81124 172.375263 
L 382.090579 169.769111 
L 385.369917 167.104434 
L 388.649256 164.379013 
L 391.928595 161.590505 
L 395.207934 158.736442 
L 398.487273 155.814219 
" clip-path="url(#p2c17d65f0b)" style="fill: none; stroke: #ff7f0e; stroke-width: 2; stroke-linecap: square"/>
   </g>
   <g id="line2d_14">
    <path d="M 73.832727 295.488 
L 77.112066 294.606259 
L 80.391405 293.717296 
L 83.670744 292.821017 
L 86.950083 291.917326 
L 90.229421 291.006125 
L 93.50876 290.087316 
L 96.788099 289.160797 
L 100.067438 288.226466 
L 103.346777 287.284217 
L 106.626116 286.333944 
L 109.905455 285.375539 
L 113.184793 284.40889 
L 116.464132 283.433885 
L 119.743471 282.450408 
L 123.02281 281.458343 
L 126.302149 280.45757 
L 129.581488 279.447967 
L 132.860826 278.429411 
L 136.140165 277.401774 
L 139.419504 276.364928 
L 142.698843 275.318741 
L 145.978182 274.263079 
L 149.257521 273.197806 
L 152.53686 272.122781 
L 155.816198 271.037862 
L 159.095537 269.942904 
L 162.374876 268.837759 
L 165.654215 267.722276 
L 168.933554 266.5963 
L 172.212893 265.459673 
L 175.492231 264.312235 
L 178.77157 263.153821 
L 182.050909 261.984265 
L 185.330248 260.803393 
L 188.609587 259.611032 
L 191.888926 258.407003 
L 195.168264 257.191124 
L 198.447603 255.963207 
L 201.726942 254.723062 
L 205.006281 253.470494 
L 208.28562 252.205305 
L 211.564959 250.92729 
L 214.844298 249.636242 
L 218.123636 248.331948 
L 221.402975 247.014189 
L 224.682314 245.682744 
L 227.961653 244.337384 
L 231.240992 242.977877 
L 234.520331 241.603984 
L 237.799669 240.21546 
L 241.079008 238.812057 
L 244.358347 237.393518 
L 247.637686 235.959581 
L 250.917025 234.509978 
L 254.196364 233.044434 
L 257.475702 231.562668 
L 260.755041 230.064391 
L 264.03438 228.549308 
L 267.313719 227.017115 
L 270.593058 225.467503 
L 273.872397 223.900152 
L 277.151736 222.314736 
L 280.431074 220.71092 
L 283.710413 219.088361 
L 286.989752 217.446705 
L 290.269091 215.78559 
L 293.54843 214.104646 
L 296.827769 212.403491 
L 300.107107 210.681733 
L 303.386446 208.93897 
L 306.665785 207.174789 
L 309.945124 205.388764 
L 313.224463 203.58046 
L 316.503802 201.749427 
L 319.78314 199.895205 
L 323.062479 198.017319 
L 326.341818 196.115282 
L 329.621157 194.18859 
L 332.900496 192.236727 
L 336.179835 190.259161 
L 339.459174 188.255345 
L 342.738512 186.224715 
L 346.017851 184.166689 
L 349.29719 182.080668 
L 352.576529 179.966035 
L 355.855868 177.822155 
L 359.135207 175.648371 
L 362.414545 173.444006 
L 365.693884 171.208362 
L 368.973223 168.940718 
L 372.252562 166.64033 
L 375.531901 164.306429 
L 378.81124 161.938221 
L 382.090579 159.534887 
L 385.369917 157.095577 
L 388.649256 154.619416 
L 391.928595 152.105496 
L 395.207934 149.552879 
L 398.487273 146.960592 
" clip-path="url(#p2c17d65f0b)" style="fill: none; stroke: #2ca02c; stroke-width: 2; stroke-linecap: square"/>
   </g>
   <g id="patch_3">
    <path d="M 57.6 307.584 
L 57.6 41.472 
" style="fill: none; stroke: #000000; stroke-width: 0.8; stroke-linejoin: miter; stroke-linecap: square"/>
   </g>
   <g id="patch_4">
    <path d="M 414.72 307.584 
L 414.72 41.472 
" style="fill: none; stroke: #000000; stroke-width: 0.8; stroke-linejoin: miter; stroke-linecap: square"/>
   </g>
   <g id="patch_5">
    <path d="M 57.6 307.584 
L 414.72 307.584 
" style="fill: none; stroke: #000000; stroke-width: 0.8; stroke-linejoin: miter; stroke-linecap: square"/>
   </g>
   <g id="patch_6">
    <path d="M 57.6 41.472 
L 414.72 41.472 
" style="fill: none; stroke: #000000; stroke-width: 0.8; stroke-linejoin: miter; stroke-linecap: square"/>
   </g>
   <g id="text_14">
    <!-- Impact of Adding Caches on Delay -->
    <g transform="translate(123.077909 35.472) scale(0.16 -0.16)">
     <defs>
      <path id="CMSS17-49" d="M 1094 4416 
L 557 4416 
L 557 0 
L 1094 0 
L 1094 4416 
z
" transform="scale(0.015625)"/>
      <path id="CMSS17-6d" d="M 4288 1877 
C 4288 2308 4179 2816 3462 2816 
C 2982 2816 2694 2516 2566 2331 
C 2451 2670 2182 2816 1798 2816 
C 1363 2816 1088 2568 941 2389 
L 941 2758 
L 474 2758 
L 474 0 
L 960 0 
L 960 1559 
C 960 1939 1101 2428 1555 2428 
C 2138 2428 2138 2016 2138 1829 
L 2138 0 
L 2624 0 
L 2624 1559 
C 2624 1939 2765 2428 3219 2428 
C 3802 2428 3802 2016 3802 1829 
L 3802 0 
L 4288 0 
L 4288 1877 
z
" transform="scale(0.015625)"/>
      <path id="CMSS17-70" d="M 966 333 
C 1178 129 1466 -5 1773 -5 
C 2368 -5 2880 603 2880 1412 
C 2880 2159 2496 2816 1946 2816 
C 1626 2816 1242 2702 954 2472 
L 954 2765 
L 480 2765 
L 480 -1216 
L 966 -1216 
L 966 333 
z
M 966 2100 
C 1018 2176 1235 2415 1587 2415 
C 2035 2415 2394 1960 2394 1412 
C 2394 787 1958 384 1530 384 
C 1402 384 1267 415 1139 523 
C 966 674 966 768 966 857 
L 966 2100 
z
" transform="scale(0.015625)"/>
      <path id="CMSS17-43" d="M 3501 714 
C 3072 427 2874 344 2355 344 
C 1459 344 934 1303 934 2179 
C 934 3112 1472 4032 2381 4032 
C 2790 4032 3059 3918 3386 3715 
L 3475 4217 
C 3168 4370 2778 4440 2387 4440 
C 1158 4440 397 3316 397 2179 
C 397 927 1299 -64 2323 -64 
C 2874 -64 3066 -19 3539 280 
L 3501 714 
z
" transform="scale(0.015625)"/>
      <path id="CMSS17-44" d="M 570 4416 
L 570 0 
L 2144 0 
C 3194 0 4000 980 4000 2170 
C 4000 3398 3194 4416 2144 4416 
L 570 4416 
z
M 1094 357 
L 1094 4059 
L 2003 4059 
C 2861 4059 3475 3277 3475 2170 
C 3475 1107 2867 357 2003 357 
L 1094 357 
z
" transform="scale(0.015625)"/>
      <path id="CMSS17-79" d="M 2675 2752 
L 2176 2752 
C 1632 1294 1446 702 1434 383 
L 1427 383 
C 1408 696 1126 1460 902 2007 
L 602 2752 
L 83 2752 
L 1216 13 
C 1146 -178 1043 -465 1011 -529 
C 870 -885 774 -885 672 -885 
C 646 -885 442 -885 211 -809 
L 250 -1229 
C 410 -1261 570 -1280 685 -1280 
C 845 -1280 1165 -1280 1459 -497 
L 2675 2752 
z
" transform="scale(0.015625)"/>
     </defs>
     <use xlink:href="#CMSS17-49" transform="scale(0.996264)"/>
     <use xlink:href="#CMSS17-6d" transform="translate(25.783926 0) scale(0.996264)"/>
     <use xlink:href="#CMSS17-70" transform="translate(100.01318 0) scale(0.996264)"/>
     <use xlink:href="#CMSS17-61" transform="translate(148.218123 0) scale(0.996264)"/>
     <use xlink:href="#CMSS17-63" transform="translate(193.140044 0) scale(0.996264)"/>
     <use xlink:href="#CMSS17-74" transform="translate(234.778866 0) scale(0.996264)"/>
     <use xlink:href="#CMSS17-6f" transform="translate(299.839545 0) scale(0.996264)"/>
     <use xlink:href="#CMSS17-66" transform="translate(346.683169 0) scale(0.996264)"/>
     <use xlink:href="#CMSS17-41" transform="translate(406.53894 0) scale(0.996264)"/>
     <use xlink:href="#CMSS17-64" transform="translate(468.756795 0) scale(0.996264)"/>
     <use xlink:href="#CMSS17-64" transform="translate(516.961738 0) scale(0.996264)"/>
     <use xlink:href="#CMSS17-69" transform="translate(565.166681 0) scale(0.996264)"/>
     <use xlink:href="#CMSS17-6e" transform="translate(587.347405 0) scale(0.996264)"/>
     <use xlink:href="#CMSS17-67" transform="translate(635.552348 0) scale(0.996264)"/>
     <use xlink:href="#CMSS17-43" transform="translate(713.625084 0) scale(0.996264)"/>
     <use xlink:href="#CMSS17-61" transform="translate(773.480855 0) scale(0.996264)"/>
     <use xlink:href="#CMSS17-63" transform="translate(818.402776 0) scale(0.996264)"/>
     <use xlink:href="#CMSS17-68" transform="translate(860.041598 0) scale(0.996264)"/>
     <use xlink:href="#CMSS17-65" transform="translate(908.246541 0) scale(0.996264)"/>
     <use xlink:href="#CMSS17-73" transform="translate(949.885363 0) scale(0.996264)"/>
     <use xlink:href="#CMSS17-6f" transform="translate(1017.028018 0) scale(0.996264)"/>
     <use xlink:href="#CMSS17-6e" transform="translate(1063.871642 0) scale(0.996264)"/>
     <use xlink:href="#CMSS17-44" transform="translate(1143.305698 0) scale(0.996264)"/>
     <use xlink:href="#CMSS17-65" transform="translate(1210.848539 0) scale(0.996264)"/>
     <use xlink:href="#CMSS17-6c" transform="translate(1252.487361 0) scale(0.996264)"/>
     <use xlink:href="#CMSS17-61" transform="translate(1274.668084 0) scale(0.996264)"/>
     <use xlink:href="#CMSS17-79" transform="translate(1316.987551 0) scale(0.996264)"/>
    </g>
   </g>
   <g id="legend_1">
    <g id="patch_7">
     <path d="M 68.8 121.170429 
L 283.782179 121.170429 
Q 286.982179 121.170429 286.982179 117.970429 
L 286.982179 52.672 
Q 286.982179 49.472 283.782179 49.472 
L 68.8 49.472 
Q 65.6 49.472 65.6 52.672 
L 65.6 117.970429 
Q 65.6 121.170429 68.8 121.170429 
z
" style="fill: #ffffff; opacity: 0.8; stroke: #cccccc; stroke-linejoin: miter"/>
    </g>
    <g id="line2d_15">
     <path d="M 72 61.472 
L 88 61.472 
L 104 61.472 
" style="fill: none; stroke: #1f77b4; stroke-width: 2; stroke-linecap: square"/>
    </g>
    <g id="text_15">
     <!-- Tier 1 -->
     <g transform="translate(116.8 67.072) scale(0.16 -0.16)">
      <defs>
       <path id="CMSS17-31" d="M 1818 4288 
L 1696 4288 
C 1350 3940 947 3890 538 3890 
L 538 3520 
C 723 3520 1024 3520 1325 3667 
L 1325 369 
L 570 369 
L 570 0 
L 2573 0 
L 2573 369 
L 1818 369 
L 1818 4288 
z
" transform="scale(0.015625)"/>
      </defs>
      <use xlink:href="#CMSS17-54" transform="scale(0.996264)"/>
      <use xlink:href="#CMSS17-69" transform="translate(63.819454 0) scale(0.996264)"/>
      <use xlink:href="#CMSS17-65" transform="translate(86.000177 0) scale(0.996264)"/>
      <use xlink:href="#CMSS17-72" transform="translate(127.638999 0) scale(0.996264)"/>
      <use xlink:href="#CMSS17-31" transform="translate(190.777884 0) scale(0.996264)"/>
     </g>
    </g>
    <g id="line2d_16">
     <path d="M 72 83.771476 
L 88 83.771476 
L 104 83.771476 
" style="fill: none; stroke: #ff7f0e; stroke-width: 2; stroke-linecap: square"/>
    </g>
    <g id="text_16">
     <!-- Tier 1 + Tier 2 -->
     <g transform="translate(116.8 89.371476) scale(0.16 -0.16)">
      <defs>
       <path id="CMSS17-2b" d="M 2451 1505 
L 4141 1505 
C 4230 1505 4339 1505 4339 1613 
C 4339 1728 4237 1728 4141 1728 
L 2451 1728 
L 2451 3413 
C 2451 3502 2451 3611 2342 3611 
C 2227 3611 2227 3509 2227 3413 
L 2227 1728 
L 531 1728 
C 442 1728 333 1728 333 1620 
C 333 1505 435 1505 531 1505 
L 2227 1505 
L 2227 -186 
C 2227 -275 2227 -384 2336 -384 
C 2451 -384 2451 -282 2451 -186 
L 2451 1505 
z
" transform="scale(0.015625)"/>
       <path id="CMSS17-32" d="M 1651 1357 
C 1830 1541 2099 1764 2285 1987 
C 2464 2204 2701 2511 2701 2957 
C 2701 3657 2227 4288 1421 4288 
C 787 4288 422 3893 250 3274 
L 499 2929 
C 640 3510 838 3880 1338 3880 
C 1888 3880 2195 3433 2195 2942 
C 2195 2355 1747 1901 1408 1563 
C 1030 1187 659 804 301 408 
L 301 0 
L 2701 0 
L 2701 433 
L 1613 433 
C 1536 433 1459 433 1382 433 
L 742 433 
L 742 439 
L 1651 1357 
z
" transform="scale(0.015625)"/>
      </defs>
      <use xlink:href="#CMSS17-54" transform="scale(0.996264)"/>
      <use xlink:href="#CMSS17-69" transform="translate(63.819454 0) scale(0.996264)"/>
      <use xlink:href="#CMSS17-65" transform="translate(86.000177 0) scale(0.996264)"/>
      <use xlink:href="#CMSS17-72" transform="translate(127.638999 0) scale(0.996264)"/>
      <use xlink:href="#CMSS17-31" transform="translate(190.777884 0) scale(0.996264)"/>
      <use xlink:href="#CMSS17-2b" transform="translate(268.850621 0) scale(0.996264)"/>
      <use xlink:href="#CMSS17-54" transform="translate(372.947668 0) scale(0.996264)"/>
      <use xlink:href="#CMSS17-69" transform="translate(436.767122 0) scale(0.996264)"/>
      <use xlink:href="#CMSS17-65" transform="translate(458.947845 0) scale(0.996264)"/>
      <use xlink:href="#CMSS17-72" transform="translate(500.586667 0) scale(0.996264)"/>
      <use xlink:href="#CMSS17-32" transform="translate(563.725552 0) scale(0.996264)"/>
     </g>
    </g>
    <g id="line2d_17">
     <path d="M 72 106.070952 
L 88 106.070952 
L 104 106.070952 
" style="fill: none; stroke: #2ca02c; stroke-width: 2; stroke-linecap: square"/>
    </g>
    <g id="text_17">
     <!-- Tier 1 + Tier 2 + Tier 3 -->
     <g transform="translate(116.8 111.670952) scale(0.16 -0.16)">
      <defs>
       <path id="CMSS17-33" d="M 1005 2025 
L 1440 2025 
C 2042 2025 2214 1507 2214 1146 
C 2214 653 1933 267 1472 267 
C 1114 267 608 444 320 912 
C 275 691 275 678 250 526 
C 550 88 1037 -128 1485 -128 
C 2214 -128 2752 473 2752 1138 
C 2752 1638 2400 2057 1920 2215 
C 2304 2424 2586 2816 2586 3273 
C 2586 3805 2093 4229 1491 4229 
C 941 4229 512 3892 333 3530 
C 378 3468 493 3284 550 3189 
C 691 3562 1056 3840 1485 3840 
C 1843 3840 2080 3607 2080 3271 
C 2080 2923 1856 2543 1478 2455 
C 1453 2455 1056 2417 1005 2411 
L 1005 2025 
z
" transform="scale(0.015625)"/>
      </defs>
      <use xlink:href="#CMSS17-54" transform="scale(0.996264)"/>
      <use xlink:href="#CMSS17-69" transform="translate(63.819454 0) scale(0.996264)"/>
      <use xlink:href="#CMSS17-65" transform="translate(86.000177 0) scale(0.996264)"/>
      <use xlink:href="#CMSS17-72" transform="translate(127.638999 0) scale(0.996264)"/>
      <use xlink:href="#CMSS17-31" transform="translate(190.777884 0) scale(0.996264)"/>
      <use xlink:href="#CMSS17-2b" transform="translate(268.850621 0) scale(0.996264)"/>
      <use xlink:href="#CMSS17-54" transform="translate(372.947668 0) scale(0.996264)"/>
      <use xlink:href="#CMSS17-69" transform="translate(436.767122 0) scale(0.996264)"/>
      <use xlink:href="#CMSS17-65" transform="translate(458.947845 0) scale(0.996264)"/>
      <use xlink:href="#CMSS17-72" transform="translate(500.586667 0) scale(0.996264)"/>
      <use xlink:href="#CMSS17-32" transform="translate(563.725552 0) scale(0.996264)"/>
      <use xlink:href="#CMSS17-2b" transform="translate(641.798289 0) scale(0.996264)"/>
      <use xlink:href="#CMSS17-54" transform="translate(745.895336 0) scale(0.996264)"/>
      <use xlink:href="#CMSS17-69" transform="translate(809.71479 0) scale(0.996264)"/>
      <use xlink:href="#CMSS17-65" transform="translate(831.895513 0) scale(0.996264)"/>
      <use xlink:href="#CMSS17-72" transform="translate(873.534335 0) scale(0.996264)"/>
      <use xlink:href="#CMSS17-33" transform="translate(936.673221 0) scale(0.996264)"/>
     </g>
    </g>
   </g>
  </g>
 </g>
 <defs>
  <clipPath id="p2c17d65f0b">
   <rect x="57.6" y="41.472" width="357.12" height="266.112"/>
  </clipPath>
 </defs>
</svg>
