<?xml version="1.0" encoding="utf-8" standalone="no"?>
<!DOCTYPE svg PUBLIC "-//W3C//DTD SVG 1.1//EN"
  "http://www.w3.org/Graphics/SVG/1.1/DTD/svg11.dtd">
<svg xmlns:xlink="http://www.w3.org/1999/xlink" width="535.68pt" height="201.481036pt" viewBox="0 0 535.68 201.481036" xmlns="http://www.w3.org/2000/svg" version="1.1">
 <metadata>
  <rdf:RDF xmlns:dc="http://purl.org/dc/elements/1.1/" xmlns:cc="http://creativecommons.org/ns#" xmlns:rdf="http://www.w3.org/1999/02/22-rdf-syntax-ns#">
   <cc:Work>
    <dc:type rdf:resource="http://purl.org/dc/dcmitype/StillImage"/>
    <dc:date>2023-09-11T12:35:35.874700</dc:date>
    <dc:format>image/svg+xml</dc:format>
    <dc:creator>
     <cc:Agent>
      <dc:title>Matplotlib v3.7.2, https://matplotlib.org/</dc:title>
     </cc:Agent>
    </dc:creator>
   </cc:Work>
  </rdf:RDF>
 </metadata>
 <defs>
  <style type="text/css">*{stroke-linejoin: round; stroke-linecap: butt}</style>
 </defs>
 <g id="figure_1">
  <g id="patch_1">
   <path d="M 0 201.481036 
L 535.68 201.481036 
L 535.68 0 
L 0 0 
z
" style="fill: #ffffff"/>
  </g>
  <g id="axes_1">
   <g id="LineCollection_1">
    <path d="M 80.539301 30.007385 
L 267.84 30.007385 
" clip-path="url(#p59c22eea22)" style="fill: none; stroke: #000000; stroke-width: 2"/>
    <path d="M 267.84 30.007385 
L 455.140699 30.007385 
" clip-path="url(#p59c22eea22)" style="fill: none; stroke: #000000; stroke-width: 2"/>
    <path d="M 267.84 30.007385 
L 142.972867 169.576615 
" clip-path="url(#p59c22eea22)" style="fill: none; stroke: #008000; stroke-width: 2"/>
    <path d="M 267.84 30.007385 
L 267.84 169.576615 
" clip-path="url(#p59c22eea22)" style="fill: none; stroke: #008000; stroke-width: 2"/>
    <path d="M 267.84 30.007385 
L 392.707133 169.576615 
" clip-path="url(#p59c22eea22)" style="fill: none; stroke: #008000; stroke-width: 2"/>
   </g>
   <g id="text_1">
    <g id="patch_2">
     <path d="M 112.972104 30.127519 
L 235.407197 30.127519 
L 235.407197 7.556173 
L 112.972104 7.556173 
L 112.972104 30.127519 
z
" clip-path="url(#p59c22eea22)" style="fill: none; opacity: 0"/>
    </g>
    <!-- $C_{sf} = 100 \; objs/sec$ -->
    <g transform="translate(117.032104 22.076945) scale(0.14 -0.14)">
     <defs>
      <path id="CMMI12-43" d="M 4781 4423 
C 4781 4480 4736 4480 4723 4480 
C 4710 4480 4685 4480 4634 4416 
L 4192 3882 
C 3968 4264 3616 4480 3136 4480 
C 1754 4480 320 3088 320 1595 
C 320 533 1069 -128 2003 -128 
C 2515 -128 2963 88 3334 400 
C 3891 863 4058 1481 4058 1531 
C 4058 1588 4006 1588 3987 1588 
C 3930 1588 3923 1550 3910 1524 
C 3616 534 2752 57 2112 57 
C 1434 57 845 489 845 1391 
C 845 1595 909 2700 1632 3532 
C 1984 3939 2586 4295 3194 4295 
C 3898 4295 4211 3717 4211 3068 
C 4211 2903 4192 2764 4192 2738 
C 4192 2681 4256 2681 4275 2681 
C 4346 2681 4352 2687 4378 2801 
L 4781 4423 
z
" transform="scale(0.015625)"/>
      <path id="CMMI12-73" d="M 1459 1280 
C 1568 1261 1741 1223 1779 1216 
C 1862 1192 2150 1090 2150 783 
C 2150 586 1971 70 1229 70 
C 1094 70 614 70 486 436 
C 742 404 870 603 870 745 
C 870 880 781 950 653 950 
C 512 950 326 841 326 552 
C 326 173 710 -64 1222 -64 
C 2195 -64 2483 651 2483 984 
C 2483 1079 2483 1258 2278 1462 
C 2118 1616 1965 1648 1619 1718 
C 1446 1756 1171 1814 1171 2101 
C 1171 2229 1286 2689 1894 2689 
C 2163 2689 2426 2589 2490 2368 
C 2208 2368 2195 2125 2195 2119 
C 2195 1984 2317 1946 2374 1946 
C 2464 1946 2643 2015 2643 2281 
C 2643 2545 2400 2816 1901 2816 
C 1062 2816 838 2160 838 1899 
C 838 1414 1312 1312 1459 1280 
z
" transform="scale(0.015625)"/>
      <path id="CMMI12-66" d="M 2854 2566 
C 2982 2566 3034 2566 3034 2688 
C 3034 2752 2982 2752 2867 2752 
L 2349 2752 
C 2470 3429 2560 3897 2611 4107 
C 2650 4265 2784 4416 2950 4416 
C 3085 4416 3219 4358 3283 4298 
C 3034 4272 2957 4082 2957 3969 
C 2957 3837 3053 3759 3174 3759 
C 3302 3759 3494 3870 3494 4119 
C 3494 4393 3226 4544 2944 4544 
C 2669 4544 2400 4334 2272 4078 
C 2157 3848 2093 3611 1946 2752 
L 1517 2752 
C 1395 2752 1331 2752 1331 2637 
C 1331 2566 1370 2566 1498 2566 
L 1907 2566 
C 1792 1976 1530 542 1382 -137 
C 1274 -689 1178 -1152 858 -1152 
C 838 -1152 653 -1152 538 -1031 
C 864 -1005 864 -726 864 -720 
C 864 -593 768 -517 646 -517 
C 518 -517 326 -625 326 -867 
C 326 -1140 608 -1280 858 -1280 
C 1510 -1280 1779 -118 1850 199 
C 1965 688 2278 2376 2310 2566 
L 2854 2566 
z
" transform="scale(0.015625)"/>
      <path id="CMR17-3d" d="M 4115 2017 
C 4211 2017 4307 2017 4307 2125 
C 4307 2240 4198 2240 4090 2240 
L 512 2240 
C 403 2240 294 2240 294 2125 
C 294 2017 390 2017 486 2017 
L 4115 2017 
z
M 4090 896 
C 4198 896 4307 896 4307 1011 
C 4307 1119 4211 1119 4115 1119 
L 486 1119 
C 390 1119 294 1119 294 1011 
C 294 896 403 896 512 896 
L 4090 896 
z
" transform="scale(0.015625)"/>
      <path id="CMR17-31" d="M 1702 4058 
C 1702 4192 1696 4192 1606 4192 
C 1357 3916 979 3827 621 3827 
C 602 3827 570 3827 563 3808 
C 557 3795 557 3782 557 3648 
C 755 3648 1088 3686 1344 3839 
L 1344 461 
C 1344 236 1331 160 781 160 
L 589 160 
L 589 0 
C 896 0 1216 0 1523 0 
C 1830 0 2150 0 2458 0 
L 2458 160 
L 2266 160 
C 1715 160 1702 230 1702 458 
L 1702 4058 
z
" transform="scale(0.015625)"/>
      <path id="CMR17-30" d="M 2688 2025 
C 2688 2416 2682 3080 2413 3591 
C 2176 4039 1798 4198 1466 4198 
C 1158 4198 768 4058 525 3597 
C 269 3118 243 2524 243 2025 
C 243 1661 250 1106 448 619 
C 723 -39 1216 -128 1466 -128 
C 1760 -128 2208 -7 2470 600 
C 2662 1042 2688 1559 2688 2025 
z
M 1466 -26 
C 1056 -26 813 325 723 812 
C 653 1188 653 1738 653 2096 
C 653 2588 653 2997 736 3387 
C 858 3929 1216 4096 1466 4096 
C 1728 4096 2067 3923 2189 3400 
C 2272 3036 2278 2607 2278 2096 
C 2278 1680 2278 1169 2202 792 
C 2067 95 1690 -26 1466 -26 
z
" transform="scale(0.015625)"/>
      <path id="CMMI12-6f" d="M 2918 1756 
C 2918 2363 2522 2816 1939 2816 
C 1094 2816 262 1897 262 996 
C 262 390 659 -64 1242 -64 
C 2093 -64 2918 856 2918 1756 
z
M 1248 64 
C 928 64 691 319 691 766 
C 691 1060 845 1712 1024 2031 
C 1312 2523 1670 2689 1933 2689 
C 2246 2689 2490 2433 2490 1986 
C 2490 1731 2355 1047 2112 658 
C 1850 230 1498 64 1248 64 
z
" transform="scale(0.015625)"/>
      <path id="CMMI12-62" d="M 1478 4257 
C 1485 4283 1498 4321 1498 4352 
C 1498 4416 1434 4416 1421 4416 
C 1414 4416 1184 4393 1069 4377 
C 960 4377 864 4358 749 4358 
C 595 4345 550 4339 550 4224 
C 550 4160 614 4160 678 4160 
C 1005 4160 1005 4103 1005 4040 
C 1005 3996 954 3811 928 3696 
L 774 3085 
C 710 2831 346 1387 320 1272 
C 288 1114 288 1005 288 922 
C 288 274 653 -64 1069 -64 
C 1811 -64 2579 888 2579 1814 
C 2579 2401 2246 2816 1766 2816 
C 1434 2816 1133 2542 1011 2414 
L 1478 4257 
z
M 1075 64 
C 870 64 646 217 646 715 
C 646 926 666 1047 781 1494 
C 800 1577 902 1986 928 2069 
C 941 2120 1318 2689 1754 2689 
C 2035 2689 2163 2408 2163 2076 
C 2163 1769 1984 1047 1824 715 
C 1664 370 1370 64 1075 64 
z
" transform="scale(0.015625)"/>
      <path id="CMMI12-6a" d="M 2240 2028 
C 2266 2131 2266 2219 2266 2245 
C 2266 2613 1990 2816 1702 2816 
C 1056 2816 710 1889 710 1845 
C 710 1813 736 1788 774 1788 
C 826 1788 832 1813 864 1876 
C 1120 2492 1440 2689 1683 2689 
C 1818 2689 1888 2618 1888 2397 
C 1888 2245 1869 2181 1843 2067 
L 1235 -327 
C 1114 -796 813 -1152 461 -1152 
C 435 -1152 301 -1152 179 -1088 
C 333 -1056 454 -936 454 -784 
C 454 -682 378 -580 237 -580 
C 70 -580 -83 -720 -83 -911 
C -83 -1171 198 -1280 461 -1280 
C 902 -1280 1485 -956 1645 -320 
L 2240 2028 
z
M 2502 4013 
C 2502 4173 2368 4224 2291 4224 
C 2118 4224 1971 4058 1971 3917 
C 1971 3822 2048 3707 2189 3707 
C 2336 3707 2502 3847 2502 4013 
z
" transform="scale(0.015625)"/>
      <path id="CMMI12-3d" d="M 2746 4562 
C 2746 4569 2784 4666 2784 4678 
C 2784 4755 2720 4800 2669 4800 
C 2637 4800 2579 4800 2528 4659 
L 384 -1363 
C 384 -1370 346 -1465 346 -1478 
C 346 -1555 410 -1600 461 -1600 
C 499 -1600 557 -1593 602 -1459 
L 2746 4562 
z
" transform="scale(0.015625)"/>
      <path id="CMMI12-65" d="M 1146 1479 
C 1318 1479 1754 1479 2061 1595 
C 2547 1783 2592 2158 2592 2274 
C 2592 2558 2349 2816 1926 2816 
C 1254 2816 288 2210 288 1073 
C 288 402 672 -64 1254 -64 
C 2125 -64 2675 609 2675 692 
C 2675 730 2637 762 2611 762 
C 2592 762 2586 756 2528 699 
C 2118 159 1510 64 1267 64 
C 902 64 710 350 710 822 
C 710 911 710 1071 806 1479 
L 1146 1479 
z
M 838 1600 
C 1114 2592 1722 2689 1926 2689 
C 2208 2689 2400 2522 2400 2277 
C 2400 1600 1376 1600 1107 1600 
L 838 1600 
z
" transform="scale(0.015625)"/>
      <path id="CMMI12-63" d="M 2502 2431 
C 2381 2431 2323 2431 2234 2355 
C 2195 2323 2125 2227 2125 2125 
C 2125 1997 2221 1920 2342 1920 
C 2496 1920 2669 2044 2669 2292 
C 2669 2588 2374 2816 1933 2816 
C 1094 2816 256 1903 256 996 
C 256 441 602 -64 1254 -64 
C 2125 -64 2675 622 2675 706 
C 2675 744 2637 776 2611 776 
C 2592 776 2586 770 2528 713 
C 2118 162 1510 64 1267 64 
C 826 64 685 446 685 764 
C 685 988 794 1605 1024 2039 
C 1190 2338 1536 2682 1939 2682 
C 2022 2682 2374 2682 2502 2431 
z
" transform="scale(0.015625)"/>
     </defs>
     <use xlink:href="#CMMI12-43" transform="scale(0.996264)"/>
     <use xlink:href="#CMMI12-73" transform="translate(69.792037 -14.943915) scale(0.697382)"/>
     <use xlink:href="#CMMI12-66" transform="translate(101.956925 -14.943915) scale(0.697382)"/>
     <use xlink:href="#CMR17-3d" transform="translate(171.23309 0) scale(0.996264)"/>
     <use xlink:href="#CMR17-31" transform="translate(270.621887 0) scale(0.996264)"/>
     <use xlink:href="#CMR17-30" transform="translate(316.312364 0) scale(0.996264)"/>
     <use xlink:href="#CMR17-30" transform="translate(362.002841 0) scale(0.996264)"/>
     <use xlink:href="#CMMI12-6f" transform="translate(435.367327 0) scale(0.996264)"/>
     <use xlink:href="#CMMI12-62" transform="translate(482.262636 0) scale(0.996264)"/>
     <use xlink:href="#CMMI12-6a" transform="translate(523.73851 0) scale(0.996264)"/>
     <use xlink:href="#CMMI12-73" transform="translate(569.700993 0) scale(0.996264)"/>
     <use xlink:href="#CMMI12-3d" transform="translate(615.651041 0) scale(0.996264)"/>
     <use xlink:href="#CMMI12-73" transform="translate(664.425959 0) scale(0.996264)"/>
     <use xlink:href="#CMMI12-65" transform="translate(710.376007 0) scale(0.996264)"/>
     <use xlink:href="#CMMI12-63" transform="translate(755.588008 0) scale(0.996264)"/>
    </g>
   </g>
   <g id="text_2">
    <g id="patch_3">
     <path d="M 300.779441 29.740079 
L 422.201259 29.740079 
L 422.201259 7.943613 
L 300.779441 7.943613 
L 300.779441 29.740079 
z
" clip-path="url(#p59c22eea22)" style="fill: none; opacity: 0"/>
    </g>
    <!-- $C_{fn} = \infty, \; \forall n \in \mathcal{N}_{c}$ -->
    <g transform="translate(304.839441 21.689505) scale(0.14 -0.14)">
     <defs>
      <path id="CMMI12-6e" d="M 1318 1871 
C 1331 1910 1491 2229 1728 2433 
C 1894 2586 2112 2689 2362 2689 
C 2618 2689 2707 2497 2707 2242 
C 2707 1878 2445 1150 2317 805 
C 2259 651 2227 568 2227 453 
C 2227 166 2426 -64 2733 -64 
C 3328 -64 3552 875 3552 913 
C 3552 945 3526 971 3488 971 
C 3430 971 3424 952 3392 843 
C 3245 319 3002 64 2752 64 
C 2688 64 2586 64 2586 269 
C 2586 429 2656 621 2694 710 
C 2822 1063 3091 1780 3091 2145 
C 3091 2528 2867 2816 2381 2816 
C 1811 2816 1510 2415 1395 2255 
C 1376 2618 1114 2816 832 2816 
C 627 2816 486 2695 378 2478 
C 262 2248 173 1865 173 1839 
C 173 1814 198 1782 243 1782 
C 294 1782 301 1788 339 1935 
C 442 2325 557 2689 813 2689 
C 960 2689 1011 2586 1011 2395 
C 1011 2254 947 2005 902 1807 
L 723 1118 
C 698 996 627 709 595 594 
C 550 428 480 128 480 96 
C 480 6 550 -64 646 -64 
C 723 -64 813 -26 864 70 
C 877 102 934 326 966 453 
L 1107 1028 
L 1318 1871 
z
" transform="scale(0.015625)"/>
      <path id="CMSY10-31" d="M 3251 1730 
C 2906 2166 2829 2262 2630 2422 
C 2272 2710 1914 2825 1587 2825 
C 838 2825 352 2122 352 1374 
C 352 639 826 -70 1562 -70 
C 2298 -70 2829 511 3142 1022 
C 3488 588 3565 492 3763 332 
C 4122 45 4480 -70 4806 -70 
C 5555 -70 6042 633 6042 1380 
C 6042 2115 5568 2825 4832 2825 
C 4096 2825 3565 2242 3251 1730 
z
M 3418 1514 
C 3680 1975 4154 2620 4877 2620 
C 5555 2620 5901 1955 5901 1380 
C 5901 753 5472 236 4909 236 
C 4538 236 4250 505 4115 638 
C 3955 811 3808 1009 3418 1514 
z
M 2976 1240 
C 2714 780 2240 134 1517 134 
C 838 134 493 799 493 1374 
C 493 2000 922 2518 1485 2518 
C 1856 2518 2144 2249 2278 2115 
C 2438 1943 2586 1744 2976 1240 
z
" transform="scale(0.015625)"/>
      <path id="CMMI12-3b" d="M 1248 -31 
C 1248 343 1126 619 864 619 
C 659 619 557 453 557 313 
C 557 172 653 0 870 0 
C 954 0 1024 26 1082 83 
C 1094 96 1101 96 1107 96 
C 1120 96 1120 5 1120 -27 
C 1120 -240 1082 -659 710 -1080 
C 640 -1157 640 -1170 640 -1183 
C 640 -1216 672 -1248 704 -1248 
C 755 -1248 1248 -771 1248 -31 
z
" transform="scale(0.015625)"/>
      <path id="CMSY10-38" d="M 3526 4195 
C 3558 4266 3558 4279 3558 4311 
C 3558 4375 3507 4439 3430 4439 
C 3347 4439 3309 4362 3283 4291 
L 2752 2883 
L 806 2883 
L 275 4291 
C 243 4381 211 4439 128 4439 
C 64 4439 0 4375 0 4311 
C 0 4298 0 4285 38 4195 
L 1632 3 
C 1664 -86 1696 -144 1779 -144 
C 1869 -144 1894 -73 1920 -9 
L 3526 4195 
z
M 909 2627 
L 2650 2627 
L 1779 349 
L 909 2627 
z
" transform="scale(0.015625)"/>
      <path id="CMSY10-32" d="M 3506 1472 
C 3615 1472 3730 1472 3730 1600 
C 3730 1728 3615 1728 3506 1728 
L 792 1728 
C 869 2586 1605 3200 2507 3200 
L 3506 3200 
C 3615 3200 3730 3200 3730 3328 
C 3730 3456 3615 3456 3506 3456 
L 2495 3456 
C 1400 3456 530 2624 530 1600 
C 530 576 1400 -256 2495 -256 
L 3506 -256 
C 3615 -256 3730 -256 3730 -128 
C 3730 0 3615 0 3506 0 
L 2507 0 
C 1605 0 869 614 792 1472 
L 3506 1472 
z
" transform="scale(0.015625)"/>
      <path id="CMSY10-4e" d="M 1958 3706 
C 2074 3373 2214 2893 2502 2106 
C 2906 1018 3085 621 3475 13 
C 3565 -122 3571 -128 3629 -128 
C 3718 -128 3853 -51 3923 0 
C 4013 83 4019 90 4090 404 
C 4474 2089 4960 3846 5088 4141 
C 5094 4154 5222 4397 6010 4397 
C 6138 4397 6259 4744 6259 4888 
C 6259 4992 6221 4992 6131 4992 
C 5491 4992 5203 4724 5126 4641 
C 4947 4412 4794 3946 4499 2882 
C 4275 2066 4070 1237 3872 415 
C 3520 944 3322 1448 3014 2269 
C 2675 3174 2470 3837 2298 4411 
C 2259 4538 2253 4544 2195 4544 
C 2182 4544 2054 4544 1869 4391 
C 1805 4334 1798 4276 1792 4207 
C 1613 2511 1011 836 838 530 
C 787 434 710 320 582 320 
C 518 320 269 352 102 504 
C 70 530 58 530 51 530 
C -51 530 -186 210 -186 57 
C -186 -141 205 -269 384 -269 
C 794 -269 1120 614 1222 909 
C 1638 2067 1837 3021 1958 3706 
z
" transform="scale(0.015625)"/>
     </defs>
     <use xlink:href="#CMMI12-43" transform="scale(0.996264)"/>
     <use xlink:href="#CMMI12-66" transform="translate(69.792037 -14.943915) scale(0.697382)"/>
     <use xlink:href="#CMMI12-6e" transform="translate(110.89606 -14.943915) scale(0.697382)"/>
     <use xlink:href="#CMR17-3d" transform="translate(179.829044 0) scale(0.996264)"/>
     <use xlink:href="#CMSY10-31" transform="translate(279.217841 0) scale(0.996264)"/>
     <use xlink:href="#CMMI12-3b" transform="translate(378.844516 0) scale(0.996264)"/>
     <use xlink:href="#CMSY10-38" transform="translate(450.220107 0) scale(0.996264)"/>
     <use xlink:href="#CMMI12-6e" transform="translate(505.568276 0) scale(0.996264)"/>
     <use xlink:href="#CMSY10-32" transform="translate(591.472332 0) scale(0.996264)"/>
     <use xlink:href="#CMSY10-4e" transform="translate(685.564159 0) scale(0.996264)"/>
     <use xlink:href="#CMMI12-63" transform="translate(767.306697 -14.943915) scale(0.697382)"/>
    </g>
   </g>
   <g id="text_3">
    <g id="patch_4">
     <path d="M 168.384458 141.35076 
L 246.763431 53.743295 
L 229.941696 38.693547 
L 151.562723 126.301012 
L 168.384458 141.35076 
z
" clip-path="url(#p59c22eea22)" style="fill: none; opacity: 0"/>
    </g>
    <!-- $r_{f_1} = 100 \; objs/sec$ -->
    <g transform="translate(165.09167 132.957138) rotate(-48.182247) scale(0.14 -0.14)">
     <defs>
      <path id="CMMI12-72" d="M 2490 2612 
C 2291 2574 2189 2433 2189 2293 
C 2189 2139 2310 2088 2400 2088 
C 2579 2088 2726 2242 2726 2433 
C 2726 2638 2528 2816 2208 2816 
C 1952 2816 1658 2701 1389 2312 
C 1344 2650 1088 2816 832 2816 
C 582 2816 454 2625 378 2484 
C 269 2254 173 1871 173 1839 
C 173 1814 198 1782 243 1782 
C 294 1782 301 1788 339 1935 
C 435 2318 557 2689 813 2689 
C 966 2689 1011 2580 1011 2395 
C 1011 2254 947 2005 902 1807 
L 723 1118 
C 698 996 627 709 595 594 
C 550 428 480 128 480 96 
C 480 6 550 -64 646 -64 
C 717 -64 838 -19 877 109 
C 896 160 1133 1124 1171 1271 
C 1203 1411 1242 1546 1274 1686 
C 1299 1775 1325 1878 1344 1961 
C 1363 2018 1536 2331 1696 2472 
C 1773 2542 1939 2689 2202 2689 
C 2304 2689 2406 2670 2490 2612 
z
" transform="scale(0.015625)"/>
     </defs>
     <use xlink:href="#CMMI12-72" transform="scale(0.996264)"/>
     <use xlink:href="#CMMI12-66" transform="translate(43.960894 -14.943915) scale(0.697382)"/>
     <use xlink:href="#CMR17-31" transform="translate(77.619009 -25.404611) scale(0.498132)"/>
     <use xlink:href="#CMR17-3d" transform="translate(129.13452 0) scale(0.996264)"/>
     <use xlink:href="#CMR17-31" transform="translate(228.523317 0) scale(0.996264)"/>
     <use xlink:href="#CMR17-30" transform="translate(274.213794 0) scale(0.996264)"/>
     <use xlink:href="#CMR17-30" transform="translate(319.904271 0) scale(0.996264)"/>
     <use xlink:href="#CMMI12-6f" transform="translate(393.268757 0) scale(0.996264)"/>
     <use xlink:href="#CMMI12-62" transform="translate(440.164067 0) scale(0.996264)"/>
     <use xlink:href="#CMMI12-6a" transform="translate(481.639941 0) scale(0.996264)"/>
     <use xlink:href="#CMMI12-73" transform="translate(527.602424 0) scale(0.996264)"/>
     <use xlink:href="#CMMI12-3d" transform="translate(573.552471 0) scale(0.996264)"/>
     <use xlink:href="#CMMI12-73" transform="translate(622.32739 0) scale(0.996264)"/>
     <use xlink:href="#CMMI12-65" transform="translate(668.277437 0) scale(0.996264)"/>
     <use xlink:href="#CMMI12-63" transform="translate(713.489438 0) scale(0.996264)"/>
    </g>
   </g>
   <g id="text_4">
    <g id="patch_5">
     <path d="M 291.193062 56.287827 
L 365.019049 138.806228 
L 381.840784 123.75648 
L 308.014797 41.238079 
L 291.193062 56.287827 
z
" clip-path="url(#p59c22eea22)" style="fill: none; opacity: 0"/>
    </g>
    <!-- $r_{f_3} = 25 \; objs/sec$ -->
    <g transform="translate(299.899969 53.945793) rotate(-311.817753) scale(0.14 -0.14)">
     <defs>
      <path id="CMR17-33" d="M 1414 2157 
C 1984 2157 2234 1662 2234 1090 
C 2234 320 1824 25 1453 25 
C 1114 25 563 194 390 693 
C 422 680 454 680 486 680 
C 640 680 755 782 755 948 
C 755 1133 614 1216 486 1216 
C 378 1216 211 1165 211 926 
C 211 335 787 -128 1466 -128 
C 2176 -128 2720 430 2720 1085 
C 2720 1707 2208 2157 1600 2227 
C 2086 2328 2554 2756 2554 3329 
C 2554 3820 2048 4179 1472 4179 
C 890 4179 378 3829 378 3329 
C 378 3110 544 3072 627 3072 
C 762 3072 877 3155 877 3321 
C 877 3486 762 3569 627 3569 
C 602 3569 570 3569 544 3557 
C 730 3959 1235 4032 1459 4032 
C 1683 4032 2106 3925 2106 3320 
C 2106 3143 2080 2828 1862 2550 
C 1670 2304 1453 2304 1242 2284 
C 1210 2284 1062 2269 1037 2269 
C 992 2263 966 2257 966 2208 
C 966 2163 973 2157 1101 2157 
L 1414 2157 
z
" transform="scale(0.015625)"/>
      <path id="CMR17-32" d="M 2669 989 
L 2554 989 
C 2490 536 2438 459 2413 420 
C 2381 369 1920 369 1830 369 
L 602 369 
C 832 619 1280 1072 1824 1597 
C 2214 1967 2669 2402 2669 3035 
C 2669 3790 2067 4224 1395 4224 
C 691 4224 262 3604 262 3030 
C 262 2780 448 2748 525 2748 
C 589 2748 781 2787 781 3010 
C 781 3207 614 3264 525 3264 
C 486 3264 448 3258 422 3245 
C 544 3790 915 4058 1306 4058 
C 1862 4058 2227 3617 2227 3035 
C 2227 2479 1901 2000 1536 1584 
L 262 146 
L 262 0 
L 2515 0 
L 2669 989 
z
" transform="scale(0.015625)"/>
      <path id="CMR17-35" d="M 730 3692 
C 794 3666 1056 3584 1325 3584 
C 1920 3584 2246 3911 2432 4100 
C 2432 4157 2432 4192 2394 4192 
C 2387 4192 2374 4192 2323 4163 
C 2099 4058 1837 3973 1517 3973 
C 1325 3973 1037 3999 723 4139 
C 653 4171 640 4171 634 4171 
C 602 4171 595 4164 595 4037 
L 595 2203 
C 595 2089 595 2057 659 2057 
C 691 2057 704 2070 736 2114 
C 941 2401 1222 2522 1542 2522 
C 1766 2522 2246 2382 2246 1289 
C 2246 1085 2246 715 2054 421 
C 1894 159 1645 25 1370 25 
C 947 25 518 320 403 814 
C 429 807 480 795 506 795 
C 589 795 749 840 749 1038 
C 749 1210 627 1280 506 1280 
C 358 1280 262 1190 262 1011 
C 262 454 704 -128 1382 -128 
C 2042 -128 2669 440 2669 1264 
C 2669 2030 2170 2624 1549 2624 
C 1222 2624 947 2503 730 2274 
L 730 3692 
z
" transform="scale(0.015625)"/>
     </defs>
     <use xlink:href="#CMMI12-72" transform="scale(0.996264)"/>
     <use xlink:href="#CMMI12-66" transform="translate(43.960894 -14.943915) scale(0.697382)"/>
     <use xlink:href="#CMR17-33" transform="translate(77.619009 -25.404611) scale(0.498132)"/>
     <use xlink:href="#CMR17-3d" transform="translate(129.13452 0) scale(0.996264)"/>
     <use xlink:href="#CMR17-32" transform="translate(228.523317 0) scale(0.996264)"/>
     <use xlink:href="#CMR17-35" transform="translate(274.213794 0) scale(0.996264)"/>
     <use xlink:href="#CMMI12-6f" transform="translate(347.57828 0) scale(0.996264)"/>
     <use xlink:href="#CMMI12-62" transform="translate(394.47359 0) scale(0.996264)"/>
     <use xlink:href="#CMMI12-6a" transform="translate(435.949464 0) scale(0.996264)"/>
     <use xlink:href="#CMMI12-73" transform="translate(481.911946 0) scale(0.996264)"/>
     <use xlink:href="#CMMI12-3d" transform="translate(527.861994 0) scale(0.996264)"/>
     <use xlink:href="#CMMI12-73" transform="translate(576.636913 0) scale(0.996264)"/>
     <use xlink:href="#CMMI12-65" transform="translate(622.58696 0) scale(0.996264)"/>
     <use xlink:href="#CMMI12-63" transform="translate(667.798961 0) scale(0.996264)"/>
    </g>
   </g>
   <g id="text_5">
    <g id="patch_6">
     <path d="M 267.792369 44.430545 
L 267.792369 155.153455 
L 290.363715 155.153455 
L 290.363715 44.430545 
L 267.792369 44.430545 
z
" clip-path="url(#p59c22eea22)" style="fill: none; opacity: 0"/>
    </g>
    <!-- $r_{f_2} = 50 \; objs/sec$ -->
    <g transform="translate(275.842943 48.490545) rotate(-270) scale(0.14 -0.14)">
     <use xlink:href="#CMMI12-72" transform="scale(0.996264)"/>
     <use xlink:href="#CMMI12-66" transform="translate(43.960894 -14.943915) scale(0.697382)"/>
     <use xlink:href="#CMR17-32" transform="translate(77.619009 -25.404611) scale(0.498132)"/>
     <use xlink:href="#CMR17-3d" transform="translate(129.13452 0) scale(0.996264)"/>
     <use xlink:href="#CMR17-35" transform="translate(228.523317 0) scale(0.996264)"/>
     <use xlink:href="#CMR17-30" transform="translate(274.213794 0) scale(0.996264)"/>
     <use xlink:href="#CMMI12-6f" transform="translate(347.57828 0) scale(0.996264)"/>
     <use xlink:href="#CMMI12-62" transform="translate(394.47359 0) scale(0.996264)"/>
     <use xlink:href="#CMMI12-6a" transform="translate(435.949464 0) scale(0.996264)"/>
     <use xlink:href="#CMMI12-73" transform="translate(481.911946 0) scale(0.996264)"/>
     <use xlink:href="#CMMI12-3d" transform="translate(527.861994 0) scale(0.996264)"/>
     <use xlink:href="#CMMI12-73" transform="translate(576.636913 0) scale(0.996264)"/>
     <use xlink:href="#CMMI12-65" transform="translate(622.58696 0) scale(0.996264)"/>
     <use xlink:href="#CMMI12-63" transform="translate(667.798961 0) scale(0.996264)"/>
    </g>
   </g>
   <g id="PathCollection_1">
    <defs>
     <path id="mf084eb2919" d="M 0 11.18034 
C 2.965061 11.18034 5.80908 10.002309 7.905694 7.905694 
C 10.002309 5.80908 11.18034 2.965061 11.18034 0 
C 11.18034 -2.965061 10.002309 -5.80908 7.905694 -7.905694 
C 5.80908 -10.002309 2.965061 -11.18034 0 -11.18034 
C -2.965061 -11.18034 -5.80908 -10.002309 -7.905694 -7.905694 
C -10.002309 -5.80908 -11.18034 -2.965061 -11.18034 0 
C -11.18034 2.965061 -10.002309 5.80908 -7.905694 7.905694 
C -5.80908 10.002309 -2.965061 11.18034 0 11.18034 
z
" style="stroke: #ff0000; stroke-width: 2"/>
    </defs>
    <g clip-path="url(#p59c22eea22)">
     <use xlink:href="#mf084eb2919" x="80.539301" y="30.007385" style="fill: #ff0000; stroke: #ff0000; stroke-width: 2"/>
     <use xlink:href="#mf084eb2919" x="267.84" y="30.007385" style="fill: #ff0000; stroke: #ff0000; stroke-width: 2"/>
     <use xlink:href="#mf084eb2919" x="455.140699" y="30.007385" style="fill: #ff0000; stroke: #ff0000; stroke-width: 2"/>
     <use xlink:href="#mf084eb2919" x="142.972867" y="169.576615" style="fill: #ff0000; stroke: #ff0000; stroke-width: 2"/>
     <use xlink:href="#mf084eb2919" x="267.84" y="169.576615" style="fill: #ff0000; stroke: #ff0000; stroke-width: 2"/>
     <use xlink:href="#mf084eb2919" x="392.707133" y="169.576615" style="fill: #ff0000; stroke: #ff0000; stroke-width: 2"/>
    </g>
   </g>
   <g id="text_6">
    <!-- s -->
    <g transform="translate(77.921713 33.494309) scale(0.14 -0.14)">
     <defs>
      <path id="CMSS17-73" d="M 2061 2627 
C 1683 2807 1389 2807 1197 2807 
C 742 2807 198 2648 198 2003 
C 198 1359 902 1218 1094 1179 
C 1389 1122 1715 1058 1715 740 
C 1715 337 1254 337 1171 337 
C 915 337 563 407 243 638 
L 166 210 
C 531 0 883 -64 1178 -64 
C 1965 -64 2163 416 2163 781 
C 2163 1094 1984 1305 1862 1401 
C 1651 1568 1574 1587 1050 1696 
C 960 1709 646 1779 646 2066 
C 646 2432 1050 2432 1139 2432 
C 1555 2432 1811 2303 1984 2208 
L 2061 2627 
z
" transform="scale(0.015625)"/>
     </defs>
     <use xlink:href="#CMSS17-73" transform="scale(0.996264)"/>
    </g>
   </g>
   <g id="text_7">
    <!-- f -->
    <g transform="translate(265.753517 33.494309) scale(0.14 -0.14)">
     <defs>
      <path id="CMSS17-66" d="M 1075 2368 
L 1722 2368 
L 1722 2737 
L 1062 2737 
L 1062 3559 
C 1062 4014 1408 4092 1606 4092 
C 1670 4092 1850 4092 2080 4009 
L 2080 4429 
C 1933 4461 1754 4480 1613 4480 
C 1018 4480 602 3993 602 3359 
L 602 2737 
L 160 2737 
L 160 2368 
L 602 2368 
L 602 0 
L 1075 0 
L 1075 2368 
z
" transform="scale(0.015625)"/>
     </defs>
     <use xlink:href="#CMSS17-66" transform="scale(0.996264)"/>
    </g>
   </g>
   <g id="text_8">
    <!-- n -->
    <g transform="translate(451.637677 33.494309) scale(0.14 -0.14)">
     <defs>
      <path id="CMSS17-6e" d="M 2618 1877 
C 2618 2283 2522 2816 1798 2816 
C 1389 2816 1120 2606 941 2389 
L 941 2758 
L 474 2758 
L 474 0 
L 960 0 
L 960 1559 
C 960 1964 1114 2428 1549 2428 
C 2112 2428 2131 2048 2131 1829 
L 2131 0 
L 2618 0 
L 2618 1877 
z
" transform="scale(0.015625)"/>
     </defs>
     <use xlink:href="#CMSS17-6e" transform="scale(0.996264)"/>
    </g>
   </g>
   <g id="text_9">
    <!-- 1 -->
    <g transform="translate(139.558623 173.063539) scale(0.14 -0.14)">
     <defs>
      <path id="CMSS17-31" d="M 1818 4288 
L 1696 4288 
C 1350 3940 947 3890 538 3890 
L 538 3520 
C 723 3520 1024 3520 1325 3667 
L 1325 369 
L 570 369 
L 570 0 
L 2573 0 
L 2573 369 
L 1818 369 
L 1818 4288 
z
" transform="scale(0.015625)"/>
     </defs>
     <use xlink:href="#CMSS17-31" transform="scale(0.996264)"/>
    </g>
   </g>
   <g id="text_10">
    <!-- 2 -->
    <g transform="translate(264.425756 173.063539) scale(0.14 -0.14)">
     <defs>
      <path id="CMSS17-32" d="M 1651 1357 
C 1830 1541 2099 1764 2285 1987 
C 2464 2204 2701 2511 2701 2957 
C 2701 3657 2227 4288 1421 4288 
C 787 4288 422 3893 250 3274 
L 499 2929 
C 640 3510 838 3880 1338 3880 
C 1888 3880 2195 3433 2195 2942 
C 2195 2355 1747 1901 1408 1563 
C 1030 1187 659 804 301 408 
L 301 0 
L 2701 0 
L 2701 433 
L 1613 433 
C 1536 433 1459 433 1382 433 
L 742 433 
L 742 439 
L 1651 1357 
z
" transform="scale(0.015625)"/>
     </defs>
     <use xlink:href="#CMSS17-32" transform="scale(0.996264)"/>
    </g>
   </g>
   <g id="text_11">
    <!-- 3 -->
    <g transform="translate(389.292889 173.063539) scale(0.14 -0.14)">
     <defs>
      <path id="CMSS17-33" d="M 1005 2025 
L 1440 2025 
C 2042 2025 2214 1507 2214 1146 
C 2214 653 1933 267 1472 267 
C 1114 267 608 444 320 912 
C 275 691 275 678 250 526 
C 550 88 1037 -128 1485 -128 
C 2214 -128 2752 473 2752 1138 
C 2752 1638 2400 2057 1920 2215 
C 2304 2424 2586 2816 2586 3273 
C 2586 3805 2093 4229 1491 4229 
C 941 4229 512 3892 333 3530 
C 378 3468 493 3284 550 3189 
C 691 3562 1056 3840 1485 3840 
C 1843 3840 2080 3607 2080 3271 
C 2080 2923 1856 2543 1478 2455 
C 1453 2455 1056 2417 1005 2411 
L 1005 2025 
z
" transform="scale(0.015625)"/>
     </defs>
     <use xlink:href="#CMSS17-33" transform="scale(0.996264)"/>
    </g>
   </g>
   <g id="text_12">
    <!-- $L_{f_1}=10 \; objs$ -->
    <g transform="translate(105.512727 197.490462) scale(0.14 -0.14)">
     <defs>
      <path id="CMMI12-4c" d="M 2349 3861 
C 2406 4103 2426 4167 2989 4167 
C 3162 4167 3206 4167 3206 4288 
C 3206 4352 3136 4352 3110 4352 
C 2982 4352 2835 4352 2707 4352 
L 1850 4352 
C 1728 4352 1587 4352 1466 4352 
C 1414 4352 1344 4352 1344 4231 
C 1344 4167 1402 4167 1498 4167 
C 1888 4167 1888 4116 1888 4046 
C 1888 4034 1888 3995 1862 3899 
L 998 472 
C 941 249 928 185 480 185 
C 358 185 294 185 294 70 
C 294 0 333 0 461 0 
L 3328 0 
C 3469 0 3475 6 3520 121 
L 4013 1478 
C 4026 1510 4038 1548 4038 1567 
C 4038 1605 4006 1631 3974 1631 
C 3968 1631 3936 1631 3923 1605 
C 3910 1599 3910 1586 3859 1465 
C 3654 905 3366 185 2285 185 
L 1670 185 
C 1581 185 1568 185 1530 192 
C 1459 198 1453 211 1453 262 
C 1453 307 1466 345 1478 401 
L 2349 3861 
z
" transform="scale(0.015625)"/>
     </defs>
     <use xlink:href="#CMMI12-4c" transform="scale(0.996264)"/>
     <use xlink:href="#CMMI12-66" transform="translate(66.370875 -14.943915) scale(0.697382)"/>
     <use xlink:href="#CMR17-31" transform="translate(100.02899 -25.404611) scale(0.498132)"/>
     <use xlink:href="#CMR17-3d" transform="translate(151.544501 0) scale(0.996264)"/>
     <use xlink:href="#CMR17-31" transform="translate(250.933298 0) scale(0.996264)"/>
     <use xlink:href="#CMR17-30" transform="translate(296.623775 0) scale(0.996264)"/>
     <use xlink:href="#CMMI12-6f" transform="translate(369.988261 0) scale(0.996264)"/>
     <use xlink:href="#CMMI12-62" transform="translate(416.883571 0) scale(0.996264)"/>
     <use xlink:href="#CMMI12-6a" transform="translate(458.359445 0) scale(0.996264)"/>
     <use xlink:href="#CMMI12-73" transform="translate(504.321928 0) scale(0.996264)"/>
    </g>
   </g>
   <g id="text_13">
    <!-- $L_{f_2}=40 \; objs$ -->
    <g transform="translate(230.37986 197.490462) scale(0.14 -0.14)">
     <defs>
      <path id="CMR17-34" d="M 2150 4122 
C 2150 4256 2144 4256 2029 4256 
L 128 1254 
L 128 1088 
L 1779 1088 
L 1779 457 
C 1779 224 1766 160 1318 160 
L 1197 160 
L 1197 0 
C 1402 0 1747 0 1965 0 
C 2182 0 2528 0 2733 0 
L 2733 160 
L 2611 160 
C 2163 160 2150 224 2150 457 
L 2150 1088 
L 2803 1088 
L 2803 1254 
L 2150 1254 
L 2150 4122 
z
M 1798 3703 
L 1798 1254 
L 256 1254 
L 1798 3703 
z
" transform="scale(0.015625)"/>
     </defs>
     <use xlink:href="#CMMI12-4c" transform="scale(0.996264)"/>
     <use xlink:href="#CMMI12-66" transform="translate(66.370875 -14.943915) scale(0.697382)"/>
     <use xlink:href="#CMR17-32" transform="translate(100.02899 -25.404611) scale(0.498132)"/>
     <use xlink:href="#CMR17-3d" transform="translate(151.544501 0) scale(0.996264)"/>
     <use xlink:href="#CMR17-34" transform="translate(250.933298 0) scale(0.996264)"/>
     <use xlink:href="#CMR17-30" transform="translate(296.623775 0) scale(0.996264)"/>
     <use xlink:href="#CMMI12-6f" transform="translate(369.988261 0) scale(0.996264)"/>
     <use xlink:href="#CMMI12-62" transform="translate(416.883571 0) scale(0.996264)"/>
     <use xlink:href="#CMMI12-6a" transform="translate(458.359445 0) scale(0.996264)"/>
     <use xlink:href="#CMMI12-73" transform="translate(504.321928 0) scale(0.996264)"/>
    </g>
   </g>
   <g id="text_14">
    <!-- $L_{f_3}=50 \; objs$ -->
    <g transform="translate(355.246993 197.490462) scale(0.14 -0.14)">
     <use xlink:href="#CMMI12-4c" transform="scale(0.996264)"/>
     <use xlink:href="#CMMI12-66" transform="translate(66.370875 -14.943915) scale(0.697382)"/>
     <use xlink:href="#CMR17-33" transform="translate(100.02899 -25.404611) scale(0.498132)"/>
     <use xlink:href="#CMR17-3d" transform="translate(151.544501 0) scale(0.996264)"/>
     <use xlink:href="#CMR17-35" transform="translate(250.933298 0) scale(0.996264)"/>
     <use xlink:href="#CMR17-30" transform="translate(296.623775 0) scale(0.996264)"/>
     <use xlink:href="#CMMI12-6f" transform="translate(369.988261 0) scale(0.996264)"/>
     <use xlink:href="#CMMI12-62" transform="translate(416.883571 0) scale(0.996264)"/>
     <use xlink:href="#CMMI12-6a" transform="translate(458.359445 0) scale(0.996264)"/>
     <use xlink:href="#CMMI12-73" transform="translate(504.321928 0) scale(0.996264)"/>
    </g>
   </g>
  </g>
 </g>
 <defs>
  <clipPath id="p59c22eea22">
   <rect x="0" y="-0" width="535.68" height="199.584"/>
  </clipPath>
 </defs>
</svg>
