<svg version="1.1" viewBox="0.0 0.0 960.0 540.0" fill="none" stroke="none" stroke-linecap="square" stroke-miterlimit="10" xmlns:xlink="http://www.w3.org/1999/xlink" xmlns="http://www.w3.org/2000/svg"><clipPath id="g2e46ed06c24_0_0.0"><path d="m0 0l960.0 0l0 540.0l-960.0 0l0 -540.0z" clip-rule="nonzero"/></clipPath><g clip-path="url(#g2e46ed06c24_0_0.0)"><path fill="#ffffff" d="m0 0l960.0 0l0 540.0l-960.0 0z" fill-rule="evenodd"/><path fill="#a4c2f4" d="m134.73296 14.410759l221.57481 0l0 107.968506l-221.57481 0z" fill-rule="evenodd"/><path stroke="#595959" stroke-width="1.0" stroke-linejoin="round" stroke-linecap="butt" d="m134.73296 14.410759l221.57481 0l0 107.968506l-221.57481 0z" fill-rule="evenodd"/><path fill="#ffffff" d="m201.88168 82.795006l0 -23.796875l-8.5 0l0 -4.84375l22.75 0l0 4.84375l-8.46875 0l0 23.796875l-5.78125 0zm17.226562 -23.5625l0 -5.078125l5.484375 0l0 5.078125l-5.484375 0zm0 23.5625l0 -20.75l5.484375 0l0 20.75l-5.484375 0zm23.128906 -6.609375l5.46875 0.921875q-1.0625 3.015625 -3.34375 4.59375q-2.265625 1.5625 -5.6875 1.5625q-5.40625 0 -8.0 -3.53125q-2.0625 -2.84375 -2.0625 -7.15625q0 -5.15625 2.6875 -8.078125q2.703125 -2.921875 6.828125 -2.921875q4.625 0 7.296875 3.0625q2.6875 3.0625 2.5625 9.359375l-13.75 0q0.0625 2.453125 1.328125 3.8125q1.28125 1.34375 3.171875 1.34375q1.28125 0 2.15625 -0.703125q0.890625 -0.703125 1.34375 -2.265625zm0.3125 -5.546875q-0.0625 -2.375 -1.234375 -3.609375q-1.171875 -1.25 -2.859375 -1.25q-1.796875 0 -2.96875 1.3125q-1.171875 1.3125 -1.140625 3.546875l8.203125 0zm15.167969 12.15625l-5.484375 0l0 -20.75l5.09375 0l0 2.953125q1.3125 -2.09375 2.359375 -2.75q1.046875 -0.671875 2.375 -0.671875q1.875 0 3.609375 1.046875l-1.703125 4.78125q-1.390625 -0.90625 -2.578125 -0.90625q-1.15625 0 -1.953125 0.640625q-0.796875 0.640625 -1.265625 2.296875q-0.453125 1.65625 -0.453125 6.953125l0 6.40625zm34.304688 0l-5.5 0l0 -20.6875q-3.0 2.8125 -7.078125 4.15625l0 -4.96875q2.140625 -0.703125 4.65625 -2.671875q2.53125 -1.96875 3.46875 -4.578125l4.453125 0l0 28.75z" fill-rule="nonzero"/><path fill="#e06666" d="m398.3206 14.410759l426.92917 0l0 107.968506l-426.92917 0z" fill-rule="evenodd"/><path stroke="#595959" stroke-width="1.0" stroke-linejoin="round" stroke-linecap="butt" d="m398.3206 14.410759l426.92917 0l0 107.968506l-426.92917 0z" fill-rule="evenodd"/><path fill="#ffffff" d="m568.1465 82.795006l0 -23.796875l-8.5 0l0 -4.84375l22.75 0l0 4.84375l-8.46875 0l0 23.796875l-5.78125 0zm17.226562 -23.5625l0 -5.078125l5.484375 0l0 5.078125l-5.484375 0zm0 23.5625l0 -20.75l5.484375 0l0 20.75l-5.484375 0zm23.128906 -6.609375l5.46875 0.921875q-1.0625 3.015625 -3.34375 4.59375q-2.265625 1.5625 -5.6875 1.5625q-5.40625 0 -8.0 -3.53125q-2.0625 -2.84375 -2.0625 -7.15625q0 -5.15625 2.6875 -8.078125q2.703125 -2.921875 6.828125 -2.921875q4.625 0 7.296875 3.0625q2.6875 3.0625 2.5625 9.359375l-13.75 0q0.0625 2.453125 1.328125 3.8125q1.28125 1.34375 3.171875 1.34375q1.28125 0 2.15625 -0.703125q0.890625 -0.703125 1.34375 -2.265625zm0.3125 -5.546875q-0.0625 -2.375 -1.234375 -3.609375q-1.171875 -1.25 -2.859375 -1.25q-1.796875 0 -2.96875 1.3125q-1.171875 1.3125 -1.140625 3.546875l8.203125 0zm15.167969 12.15625l-5.484375 0l0 -20.75l5.09375 0l0 2.953125q1.3125 -2.09375 2.359375 -2.75q1.046875 -0.671875 2.375 -0.671875q1.875 0 3.609375 1.046875l-1.703125 4.78125q-1.390625 -0.90625 -2.578125 -0.90625q-1.15625 0 -1.953125 0.640625q-0.796875 0.640625 -1.265625 2.296875q-0.453125 1.65625 -0.453125 6.953125l0 6.40625zm38.789062 -5.09375l0 5.09375l-19.234375 0q0.3125 -2.890625 1.875 -5.46875q1.5625 -2.59375 6.171875 -6.875q3.703125 -3.453125 4.546875 -4.6875q1.140625 -1.703125 1.140625 -3.359375q0 -1.84375 -1.0 -2.828125q-0.984375 -0.984375 -2.71875 -0.984375q-1.71875 0 -2.734375 1.046875q-1.015625 1.03125 -1.171875 3.421875l-5.46875 -0.546875q0.484375 -4.53125 3.0625 -6.5q2.578125 -1.96875 6.453125 -1.96875q4.234375 0 6.65625 2.28125q2.421875 2.28125 2.421875 5.6875q0 1.9375 -0.703125 3.6875q-0.6875 1.734375 -2.1875 3.65625q-1.0 1.265625 -3.59375 3.65625q-2.59375 2.375 -3.296875 3.15625q-0.6875 0.78125 -1.109375 1.53125l10.890625 0z" fill-rule="nonzero"/><path fill="#6aa84f" d="m134.73474 205.57198l46.14174 0l0 46.14174l-46.14174 0z" fill-rule="evenodd"/><path stroke="#000000" stroke-width="2.0" stroke-linejoin="round" stroke-linecap="butt" d="m134.73474 205.57198l46.14174 0l0 46.14174l-46.14174 0z" fill-rule="evenodd"/><path fill="#ffffff" d="m159.57088 235.56284l-1.640625 0l0 -10.453125q-0.59375 0.5625 -1.5625 1.140625q-0.953125 0.5625 -1.71875 0.84375l0 -1.59375q1.375 -0.640625 2.40625 -1.5625q1.03125 -0.921875 1.453125 -1.78125l1.0625 0l0 13.40625z" fill-rule="nonzero"/><path fill="#6aa84f" d="m222.46263 205.57198l46.14174 0l0 46.14174l-46.14174 0z" fill-rule="evenodd"/><path stroke="#000000" stroke-width="2.0" stroke-linejoin="round" stroke-linecap="butt" d="m222.46263 205.57198l46.14174 0l0 46.14174l-46.14174 0z" fill-rule="evenodd"/><path fill="#ffffff" d="m249.73627 233.98471l0 1.578125l-8.828125 0q-0.015625 -0.59375 0.1875 -1.140625q0.34375 -0.90625 1.078125 -1.78125q0.75 -0.875 2.15625 -2.015625q2.171875 -1.78125 2.9375 -2.828125q0.765625 -1.046875 0.765625 -1.96875q0 -0.984375 -0.703125 -1.640625q-0.6875 -0.671875 -1.8125 -0.671875q-1.1875 0 -1.90625 0.71875q-0.703125 0.703125 -0.703125 1.953125l-1.6875 -0.171875q0.171875 -1.890625 1.296875 -2.875q1.140625 -0.984375 3.03125 -0.984375q1.921875 0 3.046875 1.0625q1.125 1.0625 1.125 2.640625q0 0.796875 -0.328125 1.578125q-0.328125 0.78125 -1.09375 1.640625q-0.75 0.84375 -2.53125 2.34375q-1.46875 1.234375 -1.890625 1.6875q-0.421875 0.4375 -0.6875 0.875l6.546875 0z" fill-rule="nonzero"/><path fill="#6aa84f" d="m412.50934 205.57198l46.141754 0l0 46.14174l-46.141754 0z" fill-rule="evenodd"/><path stroke="#000000" stroke-width="2.0" stroke-linejoin="round" stroke-linecap="butt" d="m412.50934 205.57198l46.141754 0l0 46.14174l-46.141754 0z" fill-rule="evenodd"/><path fill="#ffffff" d="m436.4236 235.56284l0 -3.203125l-5.796875 0l0 -1.5l6.09375 -8.65625l1.34375 0l0 8.65625l1.796875 0l0 1.5l-1.796875 0l0 3.203125l-1.640625 0zm0 -4.703125l0 -6.015625l-4.1875 6.015625l4.1875 0z" fill-rule="nonzero"/><path fill="#6aa84f" d="m320.38434 205.57198l46.141724 0l0 46.14174l-46.141724 0z" fill-rule="evenodd"/><path stroke="#000000" stroke-width="2.0" stroke-linejoin="round" stroke-linecap="butt" d="m320.38434 205.57198l46.141724 0l0 46.14174l-46.141724 0z" fill-rule="evenodd"/><path fill="#ffffff" d="m339.04858 232.03159l1.640625 -0.21875q0.28125 1.40625 0.953125 2.015625q0.6875 0.609375 1.65625 0.609375q1.15625 0 1.953125 -0.796875q0.796875 -0.796875 0.796875 -1.984375q0 -1.125 -0.734375 -1.859375q-0.734375 -0.734375 -1.875 -0.734375q-0.46875 0 -1.15625 0.171875l0.1875 -1.4375q0.15625 0.015625 0.265625 0.015625q1.046875 0 1.875 -0.546875q0.84375 -0.546875 0.84375 -1.671875q0 -0.90625 -0.609375 -1.5q-0.609375 -0.59375 -1.578125 -0.59375q-0.953125 0 -1.59375 0.609375q-0.640625 0.59375 -0.8125 1.796875l-1.640625 -0.296875q0.296875 -1.640625 1.359375 -2.546875q1.0625 -0.90625 2.65625 -0.90625q1.09375 0 2.0 0.46875q0.921875 0.46875 1.40625 1.28125q0.5 0.8125 0.5 1.71875q0 0.859375 -0.46875 1.578125q-0.46875 0.703125 -1.375 1.125q1.1875 0.28125 1.84375 1.140625q0.65625 0.859375 0.65625 2.15625q0 1.734375 -1.28125 2.953125q-1.265625 1.21875 -3.21875 1.21875q-1.765625 0 -2.921875 -1.046875q-1.15625 -1.046875 -1.328125 -2.71875z" fill-rule="nonzero"/><path fill="#6aa84f" d="m779.13434 205.57198l46.141724 0l0 46.14174l-46.141724 0z" fill-rule="evenodd"/><path stroke="#000000" stroke-width="2.0" stroke-linejoin="round" stroke-linecap="butt" d="m779.13434 205.57198l46.141724 0l0 46.14174l-46.141724 0z" fill-rule="evenodd"/><path fill="#ffffff" d="m797.34283 235.56284l0 -13.359375l1.78125 0l0 6.625l6.625 -6.625l2.390625 0l-5.59375 5.421875l5.84375 7.9375l-2.328125 0l-4.765625 -6.765625l-2.171875 2.140625l0 4.625l-1.78125 0z" fill-rule="nonzero"/><path fill="#6aa84f" d="m504.63437 205.57198l46.141693 0l0 46.14174l-46.141693 0z" fill-rule="evenodd"/><path stroke="#000000" stroke-width="2.0" stroke-linejoin="round" stroke-linecap="butt" d="m504.63437 205.57198l46.141693 0l0 46.14174l-46.141693 0z" fill-rule="evenodd"/><path fill="#ffffff" d="m523.2986 232.06284l1.71875 -0.140625q0.1875 1.25 0.875 1.890625q0.703125 0.625 1.6875 0.625q1.1875 0 2.0 -0.890625q0.828125 -0.890625 0.828125 -2.359375q0 -1.40625 -0.796875 -2.21875q-0.78125 -0.8125 -2.0625 -0.8125q-0.78125 0 -1.421875 0.359375q-0.640625 0.359375 -1.0 0.9375l-1.546875 -0.203125l1.296875 -6.859375l6.640625 0l0 1.5625l-5.328125 0l-0.71875 3.59375q1.203125 -0.84375 2.515625 -0.84375q1.75 0 2.953125 1.21875q1.203125 1.203125 1.203125 3.109375q0 1.8125 -1.046875 3.140625q-1.296875 1.625 -3.515625 1.625q-1.8125 0 -2.96875 -1.015625q-1.15625 -1.03125 -1.3125 -2.71875z" fill-rule="nonzero"/><path fill="#000000" d="m608.0435 228.62787l0 0c0 3.1049652 -2.524109 5.62204 -5.6378174 5.62204l0 0c-1.4952393 0 -2.9291992 -0.5923157 -3.9865112 -1.6466522c-1.057312 -1.0543365 -1.6512451 -2.4843292 -1.6512451 -3.9753876l0 0c0 -3.1049652 2.524109 -5.622055 5.6377563 -5.622055l0 0c3.1137085 0 5.6378174 2.5170898 5.6378174 5.622055z" fill-rule="evenodd"/><path stroke="#595959" stroke-width="1.0" stroke-linejoin="round" stroke-linecap="butt" d="m608.0435 228.62787l0 0c0 3.1049652 -2.524109 5.62204 -5.6378174 5.62204l0 0c-1.4952393 0 -2.9291992 -0.5923157 -3.9865112 -1.6466522c-1.057312 -1.0543365 -1.6512451 -2.4843292 -1.6512451 -3.9753876l0 0c0 -3.1049652 2.524109 -5.622055 5.6377563 -5.622055l0 0c3.1137085 0 5.6378174 2.5170898 5.6378174 5.622055z" fill-rule="evenodd"/><path fill="#000000" d="m665.3348 228.62787l0 0c0 3.1049652 -2.52417 5.62204 -5.6378174 5.62204l0 0c-1.4952393 0 -2.9291992 -0.5923157 -3.9865112 -1.6466522c-1.057312 -1.0543365 -1.6513062 -2.4843292 -1.6513062 -3.9753876l0 0c0 -3.1049652 2.52417 -5.622055 5.6378174 -5.622055l0 0c3.1136475 0 5.6378174 2.5170898 5.6378174 5.622055z" fill-rule="evenodd"/><path stroke="#595959" stroke-width="1.0" stroke-linejoin="round" stroke-linecap="butt" d="m665.3348 228.62787l0 0c0 3.1049652 -2.52417 5.62204 -5.6378174 5.62204l0 0c-1.4952393 0 -2.9291992 -0.5923157 -3.9865112 -1.6466522c-1.057312 -1.0543365 -1.6513062 -2.4843292 -1.6513062 -3.9753876l0 0c0 -3.1049652 2.52417 -5.622055 5.6378174 -5.622055l0 0c3.1136475 0 5.6378174 2.5170898 5.6378174 5.622055z" fill-rule="evenodd"/><path fill="#000000" d="m722.62604 228.62787l0 0c0 3.1049652 -2.52417 5.62204 -5.6378174 5.62204l0 0c-1.4952393 0 -2.9292603 -0.5923157 -3.9865112 -1.6466522c-1.057312 -1.0543365 -1.6513062 -2.4843292 -1.6513062 -3.9753876l0 0c0 -3.1049652 2.52417 -5.622055 5.6378174 -5.622055l0 0c3.1136475 0 5.6378174 2.5170898 5.6378174 5.622055z" fill-rule="evenodd"/><path stroke="#595959" stroke-width="1.0" stroke-linejoin="round" stroke-linecap="butt" d="m722.62604 228.62787l0 0c0 3.1049652 -2.52417 5.62204 -5.6378174 5.62204l0 0c-1.4952393 0 -2.9292603 -0.5923157 -3.9865112 -1.6466522c-1.057312 -1.0543365 -1.6513062 -2.4843292 -1.6513062 -3.9753876l0 0c0 -3.1049652 2.52417 -5.622055 5.6378174 -5.622055l0 0c3.1136475 0 5.6378174 2.5170898 5.6378174 5.622055z" fill-rule="evenodd"/><path fill="#000000" fill-opacity="0.0" d="m157.8056 205.57198l87.71654 -83.1811" fill-rule="evenodd"/><path stroke="#000000" stroke-width="2.0" stroke-linejoin="round" stroke-linecap="butt" d="m157.8056 205.57198l79.009125 -74.92392" fill-rule="evenodd"/><path fill="#000000" stroke="#000000" stroke-width="2.0" stroke-linecap="butt" d="m239.08784 133.0451l4.312744 -8.6423645l-8.858963 3.8482666z" fill-rule="evenodd"/><path fill="#000000" fill-opacity="0.0" d="m245.53351 205.57198l366.2362 -83.1811" fill-rule="evenodd"/><path stroke="#000000" stroke-width="2.0" stroke-linejoin="round" stroke-linecap="butt" d="m245.53351 205.57198l354.53424 -80.52331" fill-rule="evenodd"/><path fill="#000000" stroke="#000000" stroke-width="2.0" stroke-linecap="butt" d="m600.79944 128.2701l8.11908 -5.2316513l-9.582397 -1.2111969z" fill-rule="evenodd"/><path fill="#000000" fill-opacity="0.0" d="m343.4552 205.57198l-97.921265 -83.1811" fill-rule="evenodd"/><path stroke="#000000" stroke-width="2.0" stroke-linejoin="round" stroke-linecap="butt" d="m343.4552 205.57198l-88.77559 -75.41214" fill-rule="evenodd"/><path fill="#000000" stroke="#000000" stroke-width="2.0" stroke-linecap="butt" d="m256.8183 127.642136l-9.056015 -3.3583527l4.77861 8.393753z" fill-rule="evenodd"/><path fill="#000000" fill-opacity="0.0" d="m435.5802 205.57198l176.22046 -83.1811" fill-rule="evenodd"/><path stroke="#000000" stroke-width="2.0" stroke-linejoin="round" stroke-linecap="butt" d="m435.58023 205.57198l165.36868 -78.05875" fill-rule="evenodd"/><path fill="#000000" stroke="#000000" stroke-width="2.0" stroke-linecap="butt" d="m602.359 130.50061l6.7976074 -6.8616714l-9.617859 0.8869095z" fill-rule="evenodd"/><path fill="#000000" fill-opacity="0.0" d="m802.2052 205.57198l-190.42517 -83.1811" fill-rule="evenodd"/><path stroke="#000000" stroke-width="2.0" stroke-linejoin="round" stroke-linecap="butt" d="m802.2052 205.57198l-179.42853 -78.37758" fill-rule="evenodd"/><path fill="#000000" stroke="#000000" stroke-width="2.0" stroke-linecap="butt" d="m624.099 124.167145l-9.639648 -0.605896l6.994934 6.6604004z" fill-rule="evenodd"/><path fill="#a4c2f4" d="m134.72438 288.28653l221.57481 0l0 107.968506l-221.57481 0z" fill-rule="evenodd"/><path stroke="#595959" stroke-width="1.0" stroke-linejoin="round" stroke-linecap="butt" d="m134.72438 288.28653l221.57481 0l0 107.968506l-221.57481 0z" fill-rule="evenodd"/><path fill="#e06666" d="m398.312 288.28653l426.92914 0l0 107.968506l-426.92914 0z" fill-rule="evenodd"/><path stroke="#595959" stroke-width="1.0" stroke-linejoin="round" stroke-linecap="butt" d="m398.312 288.28653l426.92914 0l0 107.968506l-426.92914 0z" fill-rule="evenodd"/><path fill="#6aa84f" d="m134.72617 479.44775l46.14174 0l0 46.141724l-46.14174 0z" fill-rule="evenodd"/><path stroke="#000000" stroke-width="2.0" stroke-linejoin="round" stroke-linecap="butt" d="m134.72617 479.44775l46.14174 0l0 46.141724l-46.14174 0z" fill-rule="evenodd"/><path fill="#ffffff" d="m159.5623 509.43863l-1.640625 0l0 -10.453125q-0.59375 0.5625 -1.5625 1.140625q-0.953125 0.5625 -1.71875 0.84375l0 -1.59375q1.375 -0.640625 2.40625 -1.5625q1.03125 -0.921875 1.453125 -1.78125l1.0625 0l0 13.40625z" fill-rule="nonzero"/><path fill="#6aa84f" d="m222.45406 479.44775l46.14174 0l0 46.141724l-46.14174 0z" fill-rule="evenodd"/><path stroke="#000000" stroke-width="2.0" stroke-linejoin="round" stroke-linecap="butt" d="m222.45406 479.44775l46.14174 0l0 46.141724l-46.14174 0z" fill-rule="evenodd"/><path fill="#ffffff" d="m249.72769 507.8605l0 1.578125l-8.828125 0q-0.015625 -0.59375 0.1875 -1.140625q0.34375 -0.90625 1.078125 -1.78125q0.75 -0.875 2.15625 -2.015625q2.171875 -1.78125 2.9375 -2.828125q0.765625 -1.046875 0.765625 -1.96875q0 -0.984375 -0.703125 -1.640625q-0.6875 -0.671875 -1.8125 -0.671875q-1.1875 0 -1.90625 0.71875q-0.703125 0.703125 -0.703125 1.953125l-1.6875 -0.171875q0.171875 -1.890625 1.296875 -2.875q1.140625 -0.984375 3.03125 -0.984375q1.921875 0 3.046875 1.0625q1.125 1.0625 1.125 2.640625q0 0.796875 -0.328125 1.578125q-0.328125 0.78125 -1.09375 1.640625q-0.75 0.84375 -2.53125 2.34375q-1.46875 1.234375 -1.890625 1.6875q-0.421875 0.4375 -0.6875 0.875l6.546875 0z" fill-rule="nonzero"/><path fill="#6aa84f" d="m412.50076 479.44775l46.141754 0l0 46.141724l-46.141754 0z" fill-rule="evenodd"/><path stroke="#000000" stroke-width="2.0" stroke-linejoin="round" stroke-linecap="butt" d="m412.50076 479.44775l46.141754 0l0 46.141724l-46.141754 0z" fill-rule="evenodd"/><path fill="#ffffff" d="m436.41504 509.43863l0 -3.203125l-5.796875 0l0 -1.5l6.09375 -8.65625l1.34375 0l0 8.65625l1.796875 0l0 1.5l-1.796875 0l0 3.203125l-1.640625 0zm0 -4.703125l0 -6.015625l-4.1875 6.015625l4.1875 0z" fill-rule="nonzero"/><path fill="#6aa84f" d="m320.37576 479.44775l46.141724 0l0 46.141724l-46.141724 0z" fill-rule="evenodd"/><path stroke="#000000" stroke-width="2.0" stroke-linejoin="round" stroke-linecap="butt" d="m320.37576 479.44775l46.141724 0l0 46.141724l-46.141724 0z" fill-rule="evenodd"/><path fill="#ffffff" d="m339.04 505.90738l1.640625 -0.21875q0.28125 1.40625 0.953125 2.015625q0.6875 0.609375 1.65625 0.609375q1.15625 0 1.953125 -0.796875q0.796875 -0.796875 0.796875 -1.984375q0 -1.125 -0.734375 -1.859375q-0.734375 -0.734375 -1.875 -0.734375q-0.46875 0 -1.15625 0.171875l0.1875 -1.4375q0.15625 0.015625 0.265625 0.015625q1.046875 0 1.875 -0.546875q0.84375 -0.546875 0.84375 -1.671875q0 -0.90625 -0.609375 -1.5q-0.609375 -0.59375 -1.578125 -0.59375q-0.953125 0 -1.59375 0.609375q-0.640625 0.59375 -0.8125 1.796875l-1.640625 -0.296875q0.296875 -1.640625 1.359375 -2.546875q1.0625 -0.90625 2.65625 -0.90625q1.09375 0 2.0 0.46875q0.921875 0.46875 1.40625 1.28125q0.5 0.8125 0.5 1.71875q0 0.859375 -0.46875 1.578125q-0.46875 0.703125 -1.375 1.125q1.1875 0.28125 1.84375 1.140625q0.65625 0.859375 0.65625 2.15625q0 1.734375 -1.28125 2.953125q-1.265625 1.21875 -3.21875 1.21875q-1.765625 0 -2.921875 -1.046875q-1.15625 -1.046875 -1.328125 -2.71875z" fill-rule="nonzero"/><path fill="#6aa84f" d="m779.1258 479.44775l46.141724 0l0 46.141724l-46.141724 0z" fill-rule="evenodd"/><path stroke="#000000" stroke-width="2.0" stroke-linejoin="round" stroke-linecap="butt" d="m779.1258 479.44775l46.141724 0l0 46.141724l-46.141724 0z" fill-rule="evenodd"/><path fill="#ffffff" d="m797.3342 509.43863l0 -13.359375l1.78125 0l0 6.625l6.625 -6.625l2.390625 0l-5.59375 5.421875l5.84375 7.9375l-2.328125 0l-4.765625 -6.765625l-2.171875 2.140625l0 4.625l-1.78125 0z" fill-rule="nonzero"/><path fill="#6aa84f" d="m504.6258 479.44775l46.141724 0l0 46.141724l-46.141724 0z" fill-rule="evenodd"/><path stroke="#000000" stroke-width="2.0" stroke-linejoin="round" stroke-linecap="butt" d="m504.6258 479.44775l46.141724 0l0 46.141724l-46.141724 0z" fill-rule="evenodd"/><path fill="#ffffff" d="m523.29004 505.93863l1.71875 -0.140625q0.1875 1.25 0.875 1.890625q0.703125 0.625 1.6875 0.625q1.1875 0 2.0 -0.890625q0.828125 -0.890625 0.828125 -2.359375q0 -1.40625 -0.796875 -2.21875q-0.78125 -0.8125 -2.0625 -0.8125q-0.78125 0 -1.421875 0.359375q-0.640625 0.359375 -1.0 0.9375l-1.546875 -0.203125l1.296875 -6.859375l6.640625 0l0 1.5625l-5.328125 0l-0.71875 3.59375q1.203125 -0.84375 2.515625 -0.84375q1.75 0 2.953125 1.21875q1.203125 1.203125 1.203125 3.109375q0 1.8125 -1.046875 3.140625q-1.296875 1.625 -3.515625 1.625q-1.8125 0 -2.96875 -1.015625q-1.15625 -1.03125 -1.3125 -2.71875z" fill-rule="nonzero"/><path fill="#000000" d="m608.0349 502.50366l0 0c0 3.10495 -2.524109 5.62204 -5.6377563 5.62204l0 0c-1.4952393 0 -2.9292603 -0.5923157 -3.9865112 -1.6466675c-1.057312 -1.0543213 -1.6513062 -2.484314 -1.6513062 -3.9753723l0 0c0 -3.1049805 2.52417 -5.6220703 5.6378174 -5.6220703l0 0c3.1136475 0 5.6377563 2.5170898 5.6377563 5.6220703z" fill-rule="evenodd"/><path stroke="#595959" stroke-width="1.0" stroke-linejoin="round" stroke-linecap="butt" d="m608.0349 502.50366l0 0c0 3.10495 -2.524109 5.62204 -5.6377563 5.62204l0 0c-1.4952393 0 -2.9292603 -0.5923157 -3.9865112 -1.6466675c-1.057312 -1.0543213 -1.6513062 -2.484314 -1.6513062 -3.9753723l0 0c0 -3.1049805 2.52417 -5.6220703 5.6378174 -5.6220703l0 0c3.1136475 0 5.6377563 2.5170898 5.6377563 5.6220703z" fill-rule="evenodd"/><path fill="#000000" d="m665.3262 502.50366l0 0c0 3.10495 -2.524109 5.62204 -5.6377563 5.62204l0 0c-1.4952393 0 -2.9292603 -0.5923157 -3.9865723 -1.6466675c-1.057251 -1.0543213 -1.6512451 -2.484314 -1.6512451 -3.9753723l0 0c0 -3.1049805 2.524109 -5.6220703 5.6378174 -5.6220703l0 0c3.1136475 0 5.6377563 2.5170898 5.6377563 5.6220703z" fill-rule="evenodd"/><path stroke="#595959" stroke-width="1.0" stroke-linejoin="round" stroke-linecap="butt" d="m665.3262 502.50366l0 0c0 3.10495 -2.524109 5.62204 -5.6377563 5.62204l0 0c-1.4952393 0 -2.9292603 -0.5923157 -3.9865723 -1.6466675c-1.057251 -1.0543213 -1.6512451 -2.484314 -1.6512451 -3.9753723l0 0c0 -3.1049805 2.524109 -5.6220703 5.6378174 -5.6220703l0 0c3.1136475 0 5.6377563 2.5170898 5.6377563 5.6220703z" fill-rule="evenodd"/><path fill="#000000" d="m722.61743 502.50366l0 0c0 3.10495 -2.524109 5.62204 -5.6378174 5.62204l0 0c-1.4952393 0 -2.9291992 -0.5923157 -3.9865112 -1.6466675c-1.057251 -1.0543213 -1.6512451 -2.484314 -1.6512451 -3.9753723l0 0c0 -3.1049805 2.524109 -5.6220703 5.6377563 -5.6220703l0 0c3.1137085 0 5.6378174 2.5170898 5.6378174 5.6220703z" fill-rule="evenodd"/><path stroke="#595959" stroke-width="1.0" stroke-linejoin="round" stroke-linecap="butt" d="m722.61743 502.50366l0 0c0 3.10495 -2.524109 5.62204 -5.6378174 5.62204l0 0c-1.4952393 0 -2.9291992 -0.5923157 -3.9865112 -1.6466675c-1.057251 -1.0543213 -1.6512451 -2.484314 -1.6512451 -3.9753723l0 0c0 -3.1049805 2.524109 -5.6220703 5.6377563 -5.6220703l0 0c3.1137085 0 5.6378174 2.5170898 5.6378174 5.6220703z" fill-rule="evenodd"/><path fill="#000000" fill-opacity="0.0" d="m157.79703 479.44775l8.913391 -113.858246" fill-rule="evenodd"/><path stroke="#000000" stroke-width="2.0" stroke-linejoin="round" stroke-linecap="butt" d="m157.79704 479.44775l7.976822 -101.8949" fill-rule="evenodd"/><path fill="#000000" stroke="#000000" stroke-width="2.0" stroke-linecap="butt" d="m169.06726 377.8107l-2.585022 -9.306335l-4.0017548 8.79068z" fill-rule="evenodd"/><path fill="#000000" fill-opacity="0.0" d="m245.52493 479.44775l190.04724 -113.858246" fill-rule="evenodd"/><path stroke="#000000" stroke-width="2.0" stroke-linejoin="round" stroke-linecap="butt" d="m245.52493 479.44775l179.7533 -107.6911" fill-rule="evenodd"/><path fill="#000000" stroke="#000000" stroke-width="2.0" stroke-linecap="butt" d="m426.97595 374.59048l6.0881042 -7.498352l-9.483612 1.830719z" fill-rule="evenodd"/><path fill="#000000" fill-opacity="0.0" d="m343.44662 479.44775l-104.59842 -113.858246" fill-rule="evenodd"/><path stroke="#000000" stroke-width="2.0" stroke-linejoin="round" stroke-linecap="butt" d="m343.44662 479.44775l-96.4801 -105.02124" fill-rule="evenodd"/><path fill="#000000" stroke="#000000" stroke-width="2.0" stroke-linecap="butt" d="m249.39925 372.19162l-8.573013 -4.449005l3.70755 8.918762z" fill-rule="evenodd"/><path fill="#000000" fill-opacity="0.0" d="m435.57162 479.44775l118.519684 -113.858246" fill-rule="evenodd"/><path stroke="#000000" stroke-width="2.0" stroke-linejoin="round" stroke-linecap="butt" d="m435.57166 479.44775l109.865906 -105.54486" fill-rule="evenodd"/><path fill="#000000" stroke="#000000" stroke-width="2.0" stroke-linecap="butt" d="m547.72614 376.28516l4.256714 -8.670105l-8.833862 3.905548z" fill-rule="evenodd"/><path fill="#000000" fill-opacity="0.0" d="m802.19666 479.44775l-129.48035 -114.11023" fill-rule="evenodd"/><path stroke="#000000" stroke-width="2.0" stroke-linejoin="round" stroke-linecap="butt" d="m802.1966 479.44775l-120.47748 -106.17615" fill-rule="evenodd"/><path fill="#000000" stroke="#000000" stroke-width="2.0" stroke-linecap="butt" d="m683.90326 370.79324l-8.993408 -3.522583l4.625061 8.479309z" fill-rule="evenodd"/><path fill="#000000" fill-opacity="0.0" d="m87.79527 271.6509l784.4094 0" fill-rule="evenodd"/><path stroke="#666666" stroke-width="3.0" stroke-linejoin="round" stroke-linecap="butt" stroke-dasharray="12.0,9.0" d="m87.79527 271.6509l784.4094 0" fill-rule="evenodd"/><path fill="#eeeeee" d="m116.49344 102.383575l-48.30658 0l0 194.8605l10.3177185 0l-20.643368 39.637817l-20.643364 -39.637817l10.3177185 0l0 -215.5118l68.95787 0z" fill-rule="evenodd"/><path stroke="#595959" stroke-width="1.0" stroke-linejoin="round" stroke-linecap="butt" d="m116.49344 102.383575l-48.30658 0l0 194.8605l10.3177185 0l-20.643368 39.637817l-20.643364 -39.637817l10.3177185 0l0 -215.5118l68.95787 0z" fill-rule="evenodd"/><path fill="#eeeeee" d="m143.63956 319.43988l46.141724 0l0 46.141754l-46.141724 0z" fill-rule="evenodd"/><path stroke="#000000" stroke-width="2.0" stroke-linejoin="round" stroke-linecap="butt" d="m143.63956 319.43988l46.141724 0l0 46.141754l-46.141724 0z" fill-rule="evenodd"/><path fill="#eeeeee" d="m215.78522 319.43988l46.141754 0l0 46.141754l-46.141754 0z" fill-rule="evenodd"/><path stroke="#000000" stroke-width="2.0" stroke-linejoin="round" stroke-linecap="butt" d="m215.78522 319.43988l46.141754 0l0 46.141754l-46.141754 0z" fill-rule="evenodd"/><path fill="#eeeeee" d="m287.9309 319.43857l46.141724 0l0 46.141754l-46.141724 0z" fill-rule="evenodd"/><path stroke="#000000" stroke-width="2.0" stroke-linejoin="round" stroke-linecap="butt" d="m287.9309 319.43857l46.141724 0l0 46.141754l-46.141724 0z" fill-rule="evenodd"/><path fill="#eeeeee" d="m412.50046 319.43857l46.141724 0l0 46.141754l-46.141724 0z" fill-rule="evenodd"/><path stroke="#000000" stroke-width="2.0" stroke-linejoin="round" stroke-linecap="butt" d="m412.50046 319.43857l46.141724 0l0 46.141754l-46.141724 0z" fill-rule="evenodd"/><path fill="#eeeeee" d="m768.2826 319.43857l46.141724 0l0 46.141754l-46.141724 0z" fill-rule="evenodd"/><path stroke="#000000" stroke-width="2.0" stroke-linejoin="round" stroke-linecap="butt" d="m768.2826 319.43857l46.141724 0l0 46.141754l-46.141724 0z" fill-rule="evenodd"/><path fill="#eeeeee" d="m590.39154 319.19843l46.141724 0l0 46.141724l-46.141724 0z" fill-rule="evenodd"/><path stroke="#000000" stroke-width="2.0" stroke-linejoin="round" stroke-linecap="butt" d="m590.39154 319.19843l46.141724 0l0 46.141724l-46.141724 0z" fill-rule="evenodd"/><path fill="#eeeeee" d="m471.65793 319.43857l46.141754 0l0 46.141754l-46.141754 0z" fill-rule="evenodd"/><path stroke="#000000" stroke-width="2.0" stroke-linejoin="round" stroke-linecap="butt" d="m471.65793 319.43857l46.141754 0l0 46.141754l-46.141754 0z" fill-rule="evenodd"/><path fill="#eeeeee" d="m531.02405 319.43857l46.141724 0l0 46.141754l-46.141724 0z" fill-rule="evenodd"/><path stroke="#000000" stroke-width="2.0" stroke-linejoin="round" stroke-linecap="butt" d="m531.02405 319.43857l46.141724 0l0 46.141754l-46.141724 0z" fill-rule="evenodd"/><path fill="#eeeeee" d="m649.654 319.19974l46.141724 0l0 46.141724l-46.141724 0z" fill-rule="evenodd"/><path stroke="#000000" stroke-width="2.0" stroke-linejoin="round" stroke-linecap="butt" d="m649.654 319.19974l46.141724 0l0 46.141724l-46.141724 0z" fill-rule="evenodd"/><path fill="#eeeeee" d="m709.02014 319.19974l46.141724 0l0 46.141724l-46.141724 0z" fill-rule="evenodd"/><path stroke="#000000" stroke-width="2.0" stroke-linejoin="round" stroke-linecap="butt" d="m709.02014 319.19974l46.141724 0l0 46.141724l-46.141724 0z" fill-rule="evenodd"/></g></svg>