<?xml version="1.0" encoding="UTF-8"?>
<svg id="Layer_1" data-name="Layer 1" xmlns="http://www.w3.org/2000/svg" version="1.1" xmlns:xlink="http://www.w3.org/1999/xlink" viewBox="0 0 415.14 318.5">
  <defs>
    <style>
      .cls-1 {
        stroke-width: 2px;
      }

      .cls-1, .cls-2, .cls-3, .cls-4, .cls-5 {
        fill: none;
      }

      .cls-1, .cls-3 {
        stroke-linecap: square;
      }

      .cls-1, .cls-4 {
        stroke: red;
      }

      .cls-1, .cls-5 {
        stroke-linejoin: round;
      }

      .cls-6 {
        clip-path: url(#clippath-11);
      }

      .cls-7 {
        fill: #000;
      }

      .cls-7, .cls-2, .cls-8, .cls-9 {
        stroke-width: 0px;
      }

      .cls-10 {
        clip-path: url(#clippath-2);
      }

      .cls-11 {
        clip-path: url(#clippath-13);
      }

      .cls-12 {
        clip-path: url(#clippath-15);
      }

      .cls-13 {
        clip-path: url(#clippath-6);
      }

      .cls-14 {
        clip-path: url(#clippath-7);
      }

      .cls-15 {
        clip-path: url(#clippath-1);
      }

      .cls-16 {
        clip-path: url(#clippath-4);
      }

      .cls-8 {
        fill: red;
      }

      .cls-17 {
        clip-path: url(#clippath-12);
      }

      .cls-18 {
        clip-path: url(#clippath-9);
      }

      .cls-19 {
        clip-path: url(#clippath);
      }

      .cls-20 {
        clip-path: url(#clippath-3);
      }

      .cls-3, .cls-4 {
        stroke-miterlimit: 10;
      }

      .cls-3, .cls-5 {
        stroke: #000;
        stroke-width: .8px;
      }

      .cls-21 {
        clip-path: url(#clippath-8);
      }

      .cls-9 {
        fill: #fff;
      }

      .cls-22 {
        clip-path: url(#clippath-14);
      }

      .cls-23 {
        clip-path: url(#clippath-5);
      }

      .cls-24 {
        clip-path: url(#clippath-10);
      }
    </style>
    <clipPath id="clippath">
      <rect class="cls-2" x="50.83" y="9.51" width="357.12" height="266.11"/>
    </clipPath>
    <clipPath id="clippath-1">
      <rect class="cls-2" x="59.06" y="255.53" width="16" height="16"/>
    </clipPath>
    <clipPath id="clippath-2">
      <rect class="cls-2" x="82.25" y="251.32" width="16" height="16"/>
    </clipPath>
    <clipPath id="clippath-3">
      <rect class="cls-2" x="105.44" y="239.81" width="16" height="16"/>
    </clipPath>
    <clipPath id="clippath-4">
      <rect class="cls-2" x="128.63" y="235.41" width="16" height="16"/>
    </clipPath>
    <clipPath id="clippath-5">
      <rect class="cls-2" x="151.82" y="225.65" width="16" height="16"/>
    </clipPath>
    <clipPath id="clippath-6">
      <rect class="cls-2" x="175.01" y="209.36" width="16" height="16"/>
    </clipPath>
    <clipPath id="clippath-7">
      <rect class="cls-2" x="198.2" y="199.29" width="16" height="16"/>
    </clipPath>
    <clipPath id="clippath-8">
      <rect class="cls-2" x="221.38" y="191.21" width="16" height="16"/>
    </clipPath>
    <clipPath id="clippath-9">
      <rect class="cls-2" x="244.57" y="169.04" width="16" height="16"/>
    </clipPath>
    <clipPath id="clippath-10">
      <rect class="cls-2" x="267.76" y="149.28" width="16" height="16"/>
    </clipPath>
    <clipPath id="clippath-11">
      <rect class="cls-2" x="290.95" y="130.13" width="16" height="16"/>
    </clipPath>
    <clipPath id="clippath-12">
      <rect class="cls-2" x="314.14" y="92.68" width="16" height="16"/>
    </clipPath>
    <clipPath id="clippath-13">
      <rect class="cls-2" x="337.33" y="88.79" width="16" height="16"/>
    </clipPath>
    <clipPath id="clippath-14">
      <rect class="cls-2" x="360.52" y="64.23" width="16" height="16"/>
    </clipPath>
    <clipPath id="clippath-15">
      <rect class="cls-2" x="383.71" y="13.61" width="16" height="16"/>
    </clipPath>
  </defs>
  <rect class="cls-9" width="415.14" height="318.5"/>
  <rect class="cls-9" x="50.83" y="9.51" width="357.12" height="266.11"/>
  <line class="cls-7" x1="90.25" y1="275.63" x2="90.25" y2="279.13"/>
  <line class="cls-5" x1="90.25" y1="275.63" x2="90.25" y2="279.13"/>
  <path class="cls-7" d="M85.81,289.39h3.44v.83h-4.63v-.83c.37-.38.88-.9,1.53-1.56.64-.65,1.05-1.07,1.22-1.26.32-.35.54-.65.66-.9.12-.24.19-.49.19-.73,0-.38-.14-.7-.41-.94-.27-.24-.62-.37-1.06-.37-.31,0-.64.06-.98.16-.34.11-.71.27-1.1.49v-1c.4-.16.77-.28,1.11-.36.34-.08.66-.12.95-.12.75,0,1.35.19,1.8.57.45.38.68.88.68,1.51,0,.3-.06.59-.17.85-.11.27-.31.59-.61.95-.08.1-.34.37-.78.82-.44.45-1.05,1.08-1.84,1.89Z"/>
  <path class="cls-7" d="M93.43,282.8c.81,0,1.43.33,1.87.97.43.65.65,1.59.65,2.81s-.22,2.17-.65,2.81c-.44.64-1.06.96-1.88.96s-1.44-.32-1.87-.96-.64-1.58-.64-2.81.21-2.16.64-2.81c.43-.64,1.06-.97,1.88-.97ZM93.43,283.58c-.51,0-.89.25-1.15.75s-.38,1.25-.38,2.25.12,1.75.38,2.25.64.75,1.15.75.89-.25,1.15-.75c.25-.5.38-1.25.38-2.25s-.13-1.75-.38-2.25c-.26-.5-.64-.75-1.15-.75Z"/>
  <line class="cls-7" x1="136.63" y1="275.63" x2="136.63" y2="279.13"/>
  <line class="cls-5" x1="136.63" y1="275.63" x2="136.63" y2="279.13"/>
  <path class="cls-7" d="M133.79,282.93h1.24v4.75h1.04v.82h-1.04v1.72h-.98v-1.72h-3.29v-.95l3.03-4.62ZM134.05,283.79l-2.49,3.89h2.49v-3.89Z"/>
  <path class="cls-7" d="M139.81,282.8c.81,0,1.43.33,1.87.97.43.65.65,1.59.65,2.81s-.22,2.17-.65,2.81c-.44.64-1.06.96-1.88.96s-1.44-.32-1.87-.96c-.43-.64-.64-1.58-.64-2.81s.21-2.16.64-2.81c.43-.64,1.06-.97,1.88-.97ZM139.81,283.58c-.51,0-.89.25-1.15.75s-.38,1.25-.38,2.25.12,1.75.38,2.25.64.75,1.15.75.89-.25,1.15-.75c.25-.5.38-1.25.38-2.25s-.13-1.75-.38-2.25c-.26-.5-.64-.75-1.15-.75Z"/>
  <line class="cls-7" x1="183.01" y1="275.63" x2="183.01" y2="279.13"/>
  <line class="cls-5" x1="183.01" y1="275.63" x2="183.01" y2="279.13"/>
  <path class="cls-7" d="M181.91,283.09v.9c-.25-.12-.5-.21-.75-.27-.26-.06-.51-.09-.75-.09-.66,0-1.16.22-1.5.66-.34.44-.54,1.11-.58,1.99.19-.28.43-.5.72-.65.29-.15.61-.23.96-.23.73,0,1.31.23,1.73.67.42.44.64,1.05.64,1.81s-.23,1.35-.67,1.8c-.44.45-1.03.67-1.76.67-.84,0-1.49-.32-1.93-.96-.45-.64-.67-1.58-.67-2.81,0-1.15.27-2.07.82-2.75.54-.68,1.28-1.03,2.2-1.03.24,0,.49.03.75.07.25.05.51.12.79.22ZM179.95,286.18c-.44,0-.79.16-1.05.46-.26.3-.39.72-.39,1.24s.13.95.39,1.25.61.45,1.05.45.79-.15,1.05-.45c.26-.3.39-.72.39-1.25s-.13-.94-.39-1.24c-.26-.3-.61-.46-1.05-.46Z"/>
  <path class="cls-7" d="M186.19,282.8c.81,0,1.43.33,1.87.97.43.65.65,1.59.65,2.81s-.22,2.17-.65,2.81c-.44.64-1.06.96-1.88.96s-1.44-.32-1.87-.96c-.43-.64-.64-1.58-.64-2.81s.21-2.16.64-2.81c.43-.64,1.06-.97,1.88-.97ZM186.19,283.58c-.51,0-.89.25-1.15.75s-.38,1.25-.38,2.25.12,1.75.38,2.25.64.75,1.15.75.89-.25,1.15-.75c.25-.5.38-1.25.38-2.25s-.13-1.75-.38-2.25c-.26-.5-.64-.75-1.15-.75Z"/>
  <line class="cls-7" x1="229.38" y1="275.63" x2="229.38" y2="279.13"/>
  <line class="cls-5" x1="229.38" y1="275.63" x2="229.38" y2="279.13"/>
  <path class="cls-7" d="M224.86,284.78c0,.38.11.68.35.89.24.21.57.31,1,.31s.75-.1.99-.31c.24-.21.36-.51.36-.89s-.12-.67-.36-.88c-.24-.21-.57-.32-.99-.32s-.76.11-1,.32c-.24.21-.35.5-.35.88ZM225.22,286.34c-.42-.1-.75-.3-.99-.59-.24-.29-.35-.64-.35-1.06,0-.58.2-1.04.62-1.38.41-.34.98-.51,1.71-.51s1.29.17,1.71.51c.41.34.62.8.62,1.38,0,.42-.12.77-.36,1.06-.24.29-.56.49-.98.59.47.11.84.33,1.11.65.26.32.4.72.4,1.18,0,.71-.22,1.25-.65,1.62-.44.38-1.06.56-1.86.56s-1.42-.18-1.85-.56c-.43-.37-.64-.91-.64-1.62,0-.46.13-.86.4-1.18.26-.32.63-.54,1.11-.65ZM226.21,286.76c-.47,0-.84.13-1.11.38-.27.25-.4.59-.4,1.03s.13.79.4,1.04c.27.25.64.37,1.11.37s.83-.12,1.1-.38c.27-.25.41-.59.41-1.03s-.14-.78-.4-1.03c-.27-.25-.64-.38-1.11-.38Z"/>
  <path class="cls-7" d="M232.57,282.8c.81,0,1.43.33,1.87.97.43.65.65,1.59.65,2.81s-.22,2.17-.65,2.81c-.44.64-1.06.96-1.88.96s-1.44-.32-1.87-.96c-.43-.64-.64-1.58-.64-2.81s.21-2.16.64-2.81c.43-.64,1.06-.97,1.88-.97ZM232.57,283.58c-.51,0-.89.25-1.15.75s-.38,1.25-.38,2.25.12,1.75.38,2.25.64.75,1.15.75.89-.25,1.15-.75c.25-.5.38-1.25.38-2.25s-.13-1.75-.38-2.25c-.26-.5-.64-.75-1.15-.75Z"/>
  <line class="cls-7" x1="275.76" y1="275.63" x2="275.76" y2="279.13"/>
  <line class="cls-5" x1="275.76" y1="275.63" x2="275.76" y2="279.13"/>
  <polygon class="cls-7" points="267.47 289.39 269.08 289.39 269.08 283.83 267.33 284.18 267.33 283.28 269.07 282.93 270.06 282.93 270.06 289.39 271.67 289.39 271.67 290.22 267.47 290.22 267.47 289.39"/>
  <path class="cls-7" d="M275.77,282.8c.81,0,1.43.33,1.87.97.43.65.65,1.59.65,2.81s-.22,2.17-.65,2.81c-.44.64-1.06.96-1.88.96s-1.44-.32-1.87-.96c-.43-.64-.64-1.58-.64-2.81s.21-2.16.64-2.81c.43-.64,1.06-.97,1.88-.97ZM275.77,283.58c-.51,0-.89.25-1.15.75s-.38,1.25-.38,2.25.12,1.75.38,2.25.64.75,1.15.75.89-.25,1.15-.75c.25-.5.38-1.25.38-2.25s-.13-1.75-.38-2.25c-.26-.5-.64-.75-1.15-.75Z"/>
  <path class="cls-7" d="M282.13,282.8c.81,0,1.43.33,1.87.97.43.65.65,1.59.65,2.81s-.22,2.17-.65,2.81c-.44.64-1.06.96-1.88.96s-1.44-.32-1.87-.96c-.43-.64-.64-1.58-.64-2.81s.21-2.16.64-2.81c.43-.64,1.06-.97,1.88-.97ZM282.13,283.58c-.51,0-.89.25-1.15.75s-.38,1.25-.38,2.25.12,1.75.38,2.25.64.75,1.15.75.89-.25,1.15-.75c.25-.5.38-1.25.38-2.25s-.13-1.75-.38-2.25c-.26-.5-.64-.75-1.15-.75Z"/>
  <line class="cls-7" x1="322.14" y1="275.63" x2="322.14" y2="279.13"/>
  <line class="cls-5" x1="322.14" y1="275.63" x2="322.14" y2="279.13"/>
  <polygon class="cls-7" points="313.84 289.39 315.45 289.39 315.45 283.83 313.7 284.18 313.7 283.28 315.44 282.93 316.43 282.93 316.43 289.39 318.04 289.39 318.04 290.22 313.84 290.22 313.84 289.39"/>
  <path class="cls-7" d="M320.88,289.39h3.44v.83h-4.63v-.83c.37-.38.88-.9,1.53-1.56.64-.65,1.05-1.07,1.22-1.26.32-.35.54-.65.66-.9.12-.24.19-.49.19-.73,0-.38-.14-.7-.41-.94-.27-.24-.62-.37-1.06-.37-.31,0-.64.06-.98.16-.34.11-.71.27-1.1.49v-1c.4-.16.77-.28,1.11-.36.34-.08.66-.12.95-.12.75,0,1.35.19,1.8.57.45.38.68.88.68,1.51,0,.3-.06.59-.17.85-.11.27-.31.59-.61.95-.08.1-.34.37-.78.82-.44.45-1.05,1.08-1.84,1.89Z"/>
  <path class="cls-7" d="M328.5,282.8c.81,0,1.43.33,1.87.97.43.65.65,1.59.65,2.81s-.22,2.17-.65,2.81c-.44.64-1.06.96-1.88.96s-1.44-.32-1.87-.96c-.43-.64-.64-1.58-.64-2.81s.21-2.16.64-2.81c.43-.64,1.06-.97,1.88-.97ZM328.5,283.58c-.51,0-.89.25-1.15.75s-.38,1.25-.38,2.25.12,1.75.38,2.25.64.75,1.15.75.89-.25,1.15-.75c.25-.5.38-1.25.38-2.25s-.13-1.75-.38-2.25c-.26-.5-.64-.75-1.15-.75Z"/>
  <line class="cls-7" x1="368.52" y1="275.63" x2="368.52" y2="279.13"/>
  <line class="cls-5" x1="368.52" y1="275.63" x2="368.52" y2="279.13"/>
  <polygon class="cls-7" points="360.22 289.39 361.83 289.39 361.83 283.83 360.08 284.18 360.08 283.28 361.82 282.93 362.81 282.93 362.81 289.39 364.42 289.39 364.42 290.22 360.22 290.22 360.22 289.39"/>
  <path class="cls-7" d="M368.86,282.93h1.24v4.75h1.04v.82h-1.04v1.72h-.98v-1.72h-3.29v-.95l3.03-4.62ZM369.12,283.79l-2.49,3.89h2.49v-3.89Z"/>
  <path class="cls-7" d="M374.88,282.8c.81,0,1.43.33,1.87.97.43.65.65,1.59.65,2.81s-.22,2.17-.65,2.81c-.44.64-1.06.96-1.88.96s-1.44-.32-1.87-.96c-.43-.64-.64-1.58-.64-2.81s.21-2.16.64-2.81c.43-.64,1.06-.97,1.88-.97ZM374.88,283.58c-.51,0-.89.25-1.15.75s-.38,1.25-.38,2.25.12,1.75.38,2.25.64.75,1.15.75.89-.25,1.15-.75c.25-.5.38-1.25.38-2.25s-.13-1.75-.38-2.25c-.26-.5-.64-.75-1.15-.75Z"/>
  <path class="cls-7" d="M121.38,297.07v1.34c-.53-.25-1.02-.43-1.48-.56-.48-.11-.92-.18-1.34-.18-.76,0-1.34.15-1.75.43-.41.29-.6.71-.6,1.25,0,.45.13.8.41,1.02.27.24.78.42,1.54.56l.84.17c1.02.2,1.78.55,2.27,1.04.49.5.74,1.16.74,1.99,0,.99-.34,1.74-.99,2.24-.67.5-1.64.76-2.91.76-.49,0-1.01-.06-1.55-.15-.55-.1-1.11-.25-1.68-.48v-1.43c.56.32,1.11.56,1.64.71.53.17,1.06.24,1.6.24.78,0,1.39-.15,1.82-.46.42-.31.64-.74.64-1.33,0-.5-.15-.9-.46-1.18-.31-.28-.81-.49-1.51-.63l-.84-.17c-1.04-.2-1.78-.52-2.24-.97-.46-.43-.69-1.04-.69-1.82,0-.9.31-1.61.95-2.13.63-.52,1.51-.78,2.63-.78.48,0,.95.04,1.46.13.49.08.99.22,1.53.39Z"/>
  <path class="cls-7" d="M124.09,296.3h1.26v1.6h-1.26v-1.6ZM124.09,299.28h1.26v7.66h-1.26v-7.66Z"/>
  <polygon class="cls-7" points="127.43 299.28 133.41 299.28 133.41 300.43 128.68 305.93 133.41 305.93 133.41 306.94 127.26 306.94 127.26 305.79 132 300.29 127.43 300.29 127.43 299.28"/>
  <path class="cls-7" d="M140.62,302.43c-.01-.69-.21-1.23-.57-1.65-.38-.41-.88-.62-1.5-.62-.7,0-1.26.21-1.68.6-.42.39-.67.95-.73,1.67h4.48ZM141.88,302.79v.62h-5.78c.06.87.31,1.54.78,1.99.46.45,1.11.67,1.95.67.48,0,.95-.06,1.4-.17.45-.11.91-.29,1.36-.55v1.19c-.45.2-.91.35-1.39.43-.48.08-.97.14-1.44.14-1.23,0-2.2-.35-2.91-1.05s-1.06-1.67-1.06-2.88.34-2.24,1.01-2.98c.67-.73,1.6-1.11,2.74-1.11,1.04,0,1.85.34,2.45.99.59.67.9,1.57.9,2.7Z"/>
  <path class="cls-7" d="M151.36,299.1c1.09,0,1.95.36,2.58,1.06.62.71.94,1.69.94,2.95s-.32,2.24-.94,2.94c-.63.71-1.48,1.06-2.58,1.06s-1.97-.35-2.59-1.06c-.62-.7-.92-1.68-.92-2.94s.31-2.24.92-2.95c.62-.7,1.48-1.06,2.59-1.06ZM151.36,300.16c-.67,0-1.2.27-1.6.8s-.59,1.25-.59,2.16.18,1.64.57,2.17c.39.53.92.78,1.61.78s1.2-.25,1.6-.78c.39-.53.59-1.25.59-2.17s-.2-1.62-.59-2.16-.92-.8-1.6-.8Z"/>
  <path class="cls-7" d="M160.83,296.3v1.05h-1.2c-.45,0-.77.1-.94.28-.18.18-.27.5-.27.98v.67h2.07v.98h-2.07v6.68h-1.26v-6.68h-1.2v-.98h1.2v-.53c0-.84.2-1.47.59-1.86.39-.39,1.02-.59,1.89-.59h1.19Z"/>
  <path class="cls-7" d="M167.58,297.11v2.17h2.59v.98h-2.59v4.16c0,.63.08,1.04.25,1.2.17.18.52.27,1.05.27h1.29v1.05h-1.29c-.98,0-1.65-.18-2.02-.55-.36-.36-.55-1.02-.55-1.97v-4.16h-.92v-.98h.92v-2.17h1.26Z"/>
  <path class="cls-7" d="M178.19,302.32v4.62h-1.26v-4.58c0-.73-.15-1.26-.43-1.62-.28-.36-.7-.55-1.26-.55-.69,0-1.22.22-1.61.66-.39.43-.59,1.02-.59,1.76v4.33h-1.26v-10.64h1.26v4.17c.29-.45.64-.8,1.06-1.02.41-.22.88-.35,1.41-.35.87,0,1.54.28,1.99.83.45.55.69,1.34.69,2.39Z"/>
  <path class="cls-7" d="M185.99,302.43c-.01-.69-.21-1.23-.57-1.65-.38-.41-.88-.62-1.5-.62-.7,0-1.26.21-1.68.6-.42.39-.67.95-.73,1.67h4.48ZM187.25,302.79v.62h-5.78c.06.87.31,1.54.78,1.99.46.45,1.11.67,1.95.67.48,0,.95-.06,1.4-.17.45-.11.91-.29,1.36-.55v1.19c-.45.2-.91.35-1.39.43-.48.08-.97.14-1.44.14-1.23,0-2.2-.35-2.91-1.05s-1.06-1.67-1.06-2.88.34-2.24,1.01-2.98c.67-.73,1.6-1.11,2.74-1.11,1.04,0,1.85.34,2.45.99.59.67.9,1.57.9,2.7Z"/>
  <path class="cls-7" d="M198.65,299.5v1.19c-.36-.17-.73-.31-1.11-.41-.39-.08-.78-.14-1.19-.14-.63,0-1.11.1-1.41.29-.31.2-.46.48-.46.85,0,.29.11.52.34.69.22.17.67.34,1.34.48l.43.1c.9.2,1.53.48,1.9.81.36.35.56.84.56,1.46,0,.71-.28,1.27-.84,1.68-.56.42-1.34.62-2.32.62-.42,0-.84-.04-1.29-.11-.45-.07-.91-.18-1.4-.35v-1.3c.46.25.92.43,1.37.55.45.13.9.18,1.34.18.59,0,1.05-.1,1.37-.29.31-.2.48-.49.48-.87,0-.34-.13-.6-.35-.78s-.73-.36-1.51-.53l-.43-.1c-.78-.17-1.36-.42-1.69-.76-.35-.34-.52-.8-.52-1.4,0-.71.25-1.27.76-1.67.5-.39,1.23-.59,2.18-.59.46,0,.9.04,1.32.11.41.07.78.17,1.13.29Z"/>
  <path class="cls-7" d="M206.35,302.43c-.01-.69-.21-1.23-.57-1.65-.38-.41-.88-.62-1.5-.62-.7,0-1.26.21-1.68.6-.42.39-.67.95-.73,1.67h4.48ZM207.61,302.79v.62h-5.78c.06.87.31,1.54.78,1.99.46.45,1.11.67,1.95.67.48,0,.95-.06,1.4-.17.45-.11.91-.29,1.36-.55v1.19c-.45.2-.91.35-1.39.43-.48.08-.97.14-1.44.14-1.23,0-2.2-.35-2.91-1.05s-1.06-1.67-1.06-2.88.34-2.24,1.01-2.98c.67-.73,1.6-1.11,2.74-1.11,1.04,0,1.85.34,2.45.99.59.67.9,1.57.9,2.7Z"/>
  <path class="cls-7" d="M215.18,299.57v1.18c-.36-.2-.71-.34-1.08-.43-.36-.1-.71-.15-1.08-.15-.81,0-1.46.27-1.9.78s-.67,1.25-.67,2.17.22,1.67.67,2.18c.45.52,1.09.77,1.9.77.36,0,.71-.04,1.08-.14.36-.1.71-.25,1.08-.45v1.16c-.36.17-.73.29-1.09.36-.38.07-.78.11-1.2.11-1.15,0-2.07-.35-2.74-1.08-.69-.71-1.02-1.69-1.02-2.93s.34-2.23,1.02-2.94c.69-.71,1.62-1.08,2.83-1.08.39,0,.77.04,1.13.13.36.08.73.2,1.08.35Z"/>
  <path class="cls-7" d="M220.33,299.1c1.09,0,1.95.36,2.58,1.06.62.71.94,1.69.94,2.95s-.32,2.24-.94,2.94c-.63.71-1.48,1.06-2.58,1.06s-1.97-.35-2.59-1.06c-.62-.7-.92-1.68-.92-2.94s.31-2.24.92-2.95c.62-.7,1.48-1.06,2.59-1.06ZM220.33,300.16c-.67,0-1.2.27-1.6.8s-.59,1.25-.59,2.16.18,1.64.57,2.17c.39.53.92.78,1.61.78s1.2-.25,1.6-.78c.39-.53.59-1.25.59-2.17s-.2-1.62-.59-2.16-.92-.8-1.6-.8Z"/>
  <path class="cls-7" d="M232.3,302.32v4.62h-1.26v-4.58c0-.73-.15-1.26-.43-1.62-.28-.36-.7-.55-1.26-.55-.69,0-1.22.22-1.61.66-.39.43-.59,1.02-.59,1.76v4.33h-1.26v-7.66h1.26v1.19c.29-.45.64-.8,1.06-1.02.41-.22.88-.35,1.41-.35.87,0,1.54.28,1.99.83.45.55.69,1.34.69,2.39Z"/>
  <path class="cls-7" d="M235.56,303.12c0,.92.18,1.65.56,2.18.38.53.9.78,1.57.78s1.19-.25,1.58-.78c.38-.53.57-1.26.57-2.18s-.2-1.64-.57-2.17c-.39-.53-.91-.8-1.58-.8s-1.19.27-1.57.8c-.38.53-.56,1.25-.56,2.17ZM239.84,300.44v-4.14h1.26v10.64h-1.26v-1.15c-.27.46-.6.8-1.01,1.01-.41.21-.88.32-1.44.32-.92,0-1.68-.36-2.27-1.09s-.87-1.71-.87-2.91.28-2.17.87-2.91c.59-.73,1.34-1.11,2.27-1.11.56,0,1.04.11,1.44.34.41.22.74.56,1.01,1.01Z"/>
  <path class="cls-7" d="M253.66,299.57v1.18c-.36-.2-.71-.34-1.08-.43-.36-.1-.71-.15-1.08-.15-.81,0-1.46.27-1.9.78s-.67,1.25-.67,2.17.22,1.67.67,2.18c.45.52,1.09.77,1.9.77.36,0,.71-.04,1.08-.14.36-.1.71-.25,1.08-.45v1.16c-.36.17-.73.29-1.09.36-.38.07-.78.11-1.2.11-1.15,0-2.07-.35-2.74-1.08-.69-.71-1.02-1.69-1.02-2.93s.34-2.23,1.02-2.94c.69-.71,1.62-1.08,2.83-1.08.39,0,.77.04,1.13.13.36.08.73.2,1.08.35Z"/>
  <path class="cls-7" d="M261.83,302.57v4.37h-1.26v-1.16c-.29.48-.66.81-1.08,1.02s-.95.32-1.57.32c-.78,0-1.41-.21-1.88-.64s-.69-1.02-.69-1.76c0-.85.28-1.5.87-1.95.57-.43,1.43-.66,2.58-.66h1.76v-.13c0-.57-.2-1.02-.57-1.34-.38-.31-.91-.48-1.6-.48-.45,0-.87.06-1.29.17-.42.11-.81.27-1.19.46v-1.16c.45-.17.9-.31,1.33-.39.43-.08.85-.14,1.27-.14,1.11,0,1.93.29,2.48.87.55.57.83,1.44.83,2.6ZM259.32,303.09c-1.02,0-1.72.13-2.11.35-.39.24-.59.63-.59,1.19,0,.45.14.81.43,1.06.29.27.7.39,1.2.39.7,0,1.26-.24,1.68-.74.42-.49.63-1.15.63-1.97v-.28h-1.25Z"/>
  <path class="cls-7" d="M269.93,299.57v1.18c-.36-.2-.71-.34-1.08-.43-.36-.1-.71-.15-1.08-.15-.81,0-1.46.27-1.9.78s-.67,1.25-.67,2.17.22,1.67.67,2.18c.45.52,1.09.77,1.9.77.36,0,.71-.04,1.08-.14.36-.1.71-.25,1.08-.45v1.16c-.36.17-.73.29-1.09.36-.38.07-.78.11-1.2.11-1.15,0-2.07-.35-2.74-1.08-.69-.71-1.02-1.69-1.02-2.93s.34-2.23,1.02-2.94c.69-.71,1.62-1.08,2.83-1.08.39,0,.77.04,1.13.13.36.08.73.2,1.08.35Z"/>
  <path class="cls-7" d="M278.48,302.32v4.62h-1.26v-4.58c0-.73-.15-1.26-.43-1.62-.28-.36-.7-.55-1.26-.55-.69,0-1.22.22-1.61.66-.39.43-.59,1.02-.59,1.76v4.33h-1.26v-10.64h1.26v4.17c.29-.45.64-.8,1.06-1.02.41-.22.88-.35,1.41-.35.87,0,1.54.28,1.99.83.45.55.69,1.34.69,2.39Z"/>
  <path class="cls-7" d="M286.28,302.43c-.01-.69-.21-1.23-.57-1.65-.38-.41-.88-.62-1.5-.62-.7,0-1.26.21-1.68.6-.42.39-.67.95-.73,1.67h4.48ZM287.54,302.79v.62h-5.78c.06.87.31,1.54.78,1.99.46.45,1.11.67,1.95.67.48,0,.95-.06,1.4-.17.45-.11.91-.29,1.36-.55v1.19c-.45.2-.91.35-1.39.43-.48.08-.97.14-1.44.14-1.23,0-2.2-.35-2.91-1.05-.71-.7-1.06-1.67-1.06-2.88s.34-2.24,1.01-2.98c.67-.73,1.6-1.11,2.74-1.11,1.04,0,1.85.34,2.45.99.59.67.9,1.57.9,2.7Z"/>
  <path class="cls-7" d="M295.3,297.11v2.17h2.59v.98h-2.59v4.16c0,.63.08,1.04.25,1.2.17.18.52.27,1.05.27h1.29v1.05h-1.29c-.98,0-1.65-.18-2.02-.55-.36-.36-.55-1.02-.55-1.97v-4.16h-.92v-.98h.92v-2.17h1.26Z"/>
  <path class="cls-7" d="M299.54,296.3h1.26v1.6h-1.26v-1.6ZM299.54,299.28h1.26v7.66h-1.26v-7.66Z"/>
  <path class="cls-7" d="M308.72,302.43c-.01-.69-.21-1.23-.57-1.65-.38-.41-.88-.62-1.5-.62-.7,0-1.26.21-1.68.6-.42.39-.67.95-.73,1.67h4.48ZM309.98,302.79v.62h-5.78c.06.87.31,1.54.78,1.99.46.45,1.11.67,1.95.67.48,0,.95-.06,1.4-.17.45-.11.91-.29,1.36-.55v1.19c-.45.2-.91.35-1.39.43-.48.08-.97.14-1.44.14-1.23,0-2.2-.35-2.91-1.05-.71-.7-1.06-1.67-1.06-2.88s.34-2.24,1.01-2.98c.67-.73,1.6-1.11,2.74-1.11,1.04,0,1.85.34,2.45.99.59.67.9,1.57.9,2.7Z"/>
  <path class="cls-7" d="M316.48,300.46c-.14-.08-.29-.14-.46-.18-.17-.03-.35-.06-.55-.06-.71,0-1.26.24-1.64.7-.39.46-.57,1.12-.57,1.99v4.03h-1.26v-7.66h1.26v1.19c.25-.46.6-.81,1.02-1.04.42-.22.94-.34,1.55-.34.08,0,.18.01.29.01.1.01.21.03.35.06v1.29Z"/>
  <polygon class="cls-7" points="318.12 305.2 319.56 305.2 319.56 306.38 318.44 308.55 317.56 308.55 318.12 306.38 318.12 305.2"/>
  <polygon class="cls-7" points="327.73 296.73 329.12 296.73 327.37 305.79 332.34 305.79 332.12 306.94 325.76 306.94 327.73 296.73"/>
  <path class="cls-7" d="M338.64,306l-.63,3.23h-.88l.63-3.2c.02-.15.04-.27.06-.39.02-.12.03-.21.03-.27,0-.26-.09-.47-.25-.63-.18-.15-.41-.23-.71-.23-.47,0-.88.16-1.23.47s-.57.74-.67,1.28l-.59,2.97h-.88l1.04-5.36h.88l-.18.84c.24-.3.53-.54.88-.72.34-.17.71-.25,1.09-.25.47,0,.83.13,1.1.38.25.25.39.62.39,1.08,0,.12,0,.24-.02.36-.02.14-.04.27-.07.43Z"/>
  <path class="cls-7" d="M340.71,310.27h2.36v.57h-3.18v-.57c.25-.26.6-.62,1.05-1.07.44-.45.72-.73.84-.86.22-.24.37-.45.45-.62.08-.16.13-.34.13-.5,0-.26-.1-.48-.28-.64s-.43-.25-.73-.25c-.21,0-.44.04-.67.11-.23.08-.49.19-.75.34v-.69c.27-.11.53-.19.76-.25.23-.05.45-.08.65-.08.51,0,.93.13,1.23.39.31.26.47.6.47,1.04,0,.21-.04.4-.12.58-.08.19-.21.4-.42.65-.05.07-.23.25-.54.56-.3.31-.72.74-1.26,1.3Z"/>
  <line class="cls-7" x1="50.83" y1="260.54" x2="47.33" y2="260.54"/>
  <line class="cls-5" x1="50.83" y1="260.54" x2="47.33" y2="260.54"/>
  <path class="cls-7" d="M34.63,257.04h1.24v4.75h1.04v.82h-1.04v1.72h-.98v-1.72h-3.29v-.95l3.03-4.62ZM34.89,257.9l-2.49,3.89h2.49v-3.89Z"/>
  <path class="cls-7" d="M40.65,256.91c.81,0,1.43.33,1.87.97.43.65.65,1.59.65,2.81s-.22,2.17-.65,2.81c-.44.64-1.06.96-1.88.96s-1.44-.32-1.87-.96c-.43-.64-.64-1.58-.64-2.81s.21-2.16.64-2.81c.43-.64,1.06-.97,1.88-.97ZM40.65,257.69c-.51,0-.89.25-1.15.75-.26.5-.38,1.25-.38,2.25s.12,1.75.38,2.25c.26.5.64.75,1.15.75s.89-.25,1.15-.75c.25-.5.38-1.25.38-2.25s-.13-1.75-.38-2.25c-.26-.5-.64-.75-1.15-.75Z"/>
  <line class="cls-7" x1="50.83" y1="229.35" x2="47.33" y2="229.35"/>
  <line class="cls-5" x1="50.83" y1="229.35" x2="47.33" y2="229.35"/>
  <path class="cls-7" d="M36.37,226.01v.9c-.25-.12-.5-.21-.75-.27-.26-.06-.51-.09-.75-.09-.66,0-1.16.22-1.5.66-.34.44-.54,1.11-.58,1.99.19-.28.43-.5.72-.65.29-.15.61-.23.96-.23.73,0,1.31.23,1.73.67.42.44.64,1.05.64,1.81s-.23,1.35-.67,1.8c-.44.45-1.03.67-1.76.67-.84,0-1.49-.32-1.93-.96-.45-.64-.67-1.58-.67-2.81,0-1.15.27-2.07.82-2.75.54-.68,1.28-1.03,2.2-1.03.24,0,.49.03.75.07.25.05.51.12.79.22ZM34.41,229.1c-.44,0-.79.16-1.05.46-.26.3-.39.72-.39,1.24s.13.95.39,1.25c.26.3.61.45,1.05.45s.79-.15,1.05-.45c.26-.3.39-.72.39-1.25s-.13-.94-.39-1.24c-.26-.3-.61-.46-1.05-.46Z"/>
  <path class="cls-7" d="M40.65,225.72c.81,0,1.43.33,1.87.97.43.65.65,1.59.65,2.81s-.22,2.17-.65,2.81c-.44.64-1.06.96-1.88.96s-1.44-.32-1.87-.96-.64-1.58-.64-2.81.21-2.16.64-2.81c.43-.64,1.06-.97,1.88-.97ZM40.65,226.5c-.51,0-.89.25-1.15.75-.26.5-.38,1.25-.38,2.25s.12,1.75.38,2.25c.26.5.64.75,1.15.75s.89-.25,1.15-.75c.25-.5.38-1.25.38-2.25s-.13-1.75-.38-2.25c-.26-.5-.64-.75-1.15-.75Z"/>
  <line class="cls-7" x1="50.83" y1="198.15" x2="47.33" y2="198.15"/>
  <line class="cls-5" x1="50.83" y1="198.15" x2="47.33" y2="198.15"/>
  <path class="cls-7" d="M32.94,196.51c0,.38.11.68.35.89.24.21.57.31,1,.31s.75-.1.99-.31c.24-.21.36-.51.36-.89s-.12-.67-.36-.88c-.24-.21-.57-.32-.99-.32s-.76.11-1,.32-.35.5-.35.88ZM33.3,198.07c-.42-.1-.75-.3-.99-.59-.24-.29-.35-.64-.35-1.06,0-.58.2-1.04.62-1.38.41-.34.98-.51,1.71-.51s1.29.17,1.71.51c.41.34.62.8.62,1.38,0,.42-.12.77-.36,1.06-.24.29-.56.49-.98.59.47.11.84.33,1.11.65.26.32.4.72.4,1.18,0,.71-.22,1.25-.65,1.62-.44.38-1.06.56-1.86.56s-1.42-.18-1.85-.56c-.43-.37-.64-.91-.64-1.62,0-.46.13-.86.4-1.18.26-.32.63-.54,1.11-.65ZM34.29,198.49c-.47,0-.84.13-1.11.38s-.4.59-.4,1.03.13.79.4,1.04.64.37,1.11.37.83-.12,1.1-.38c.27-.25.41-.59.41-1.03s-.14-.78-.4-1.03c-.27-.25-.64-.38-1.11-.38Z"/>
  <path class="cls-7" d="M40.65,194.53c.81,0,1.43.33,1.87.97.43.65.65,1.59.65,2.81s-.22,2.17-.65,2.81c-.44.64-1.06.96-1.88.96s-1.44-.32-1.87-.96-.64-1.58-.64-2.81.21-2.16.64-2.81c.43-.64,1.06-.97,1.88-.97ZM40.65,195.31c-.51,0-.89.25-1.15.75-.26.5-.38,1.25-.38,2.25s.12,1.75.38,2.25c.26.5.64.75,1.15.75s.89-.25,1.15-.75c.25-.5.38-1.25.38-2.25s-.13-1.75-.38-2.25c-.26-.5-.64-.75-1.15-.75Z"/>
  <line class="cls-7" x1="50.83" y1="166.96" x2="47.33" y2="166.96"/>
  <line class="cls-5" x1="50.83" y1="166.96" x2="47.33" y2="166.96"/>
  <polygon class="cls-7" points="25.99 169.93 27.6 169.93 27.6 164.37 25.85 164.72 25.85 163.82 27.59 163.47 28.58 163.47 28.58 169.93 30.19 169.93 30.19 170.76 25.99 170.76 25.99 169.93"/>
  <path class="cls-7" d="M34.29,163.34c.81,0,1.43.33,1.87.97.43.65.65,1.59.65,2.81s-.22,2.17-.65,2.81c-.44.64-1.06.96-1.88.96s-1.44-.32-1.87-.96c-.43-.64-.64-1.58-.64-2.81s.21-2.16.64-2.81c.43-.64,1.06-.97,1.88-.97ZM34.29,164.12c-.51,0-.89.25-1.15.75-.26.5-.38,1.25-.38,2.25s.12,1.75.38,2.25c.26.5.64.75,1.15.75s.89-.25,1.15-.75c.25-.5.38-1.25.38-2.25s-.13-1.75-.38-2.25c-.26-.5-.64-.75-1.15-.75Z"/>
  <path class="cls-7" d="M40.65,163.34c.81,0,1.43.33,1.87.97.43.65.65,1.59.65,2.81s-.22,2.17-.65,2.81c-.44.64-1.06.96-1.88.96s-1.44-.32-1.87-.96-.64-1.58-.64-2.81.21-2.16.64-2.81c.43-.64,1.06-.97,1.88-.97ZM40.65,164.12c-.51,0-.89.25-1.15.75-.26.5-.38,1.25-.38,2.25s.12,1.75.38,2.25c.26.5.64.75,1.15.75s.89-.25,1.15-.75c.25-.5.38-1.25.38-2.25s-.13-1.75-.38-2.25c-.26-.5-.64-.75-1.15-.75Z"/>
  <line class="cls-7" x1="50.83" y1="135.77" x2="47.33" y2="135.77"/>
  <line class="cls-5" x1="50.83" y1="135.77" x2="47.33" y2="135.77"/>
  <polygon class="cls-7" points="25.99 138.73 27.6 138.73 27.6 133.17 25.85 133.52 25.85 132.62 27.59 132.27 28.58 132.27 28.58 138.73 30.19 138.73 30.19 139.56 25.99 139.56 25.99 138.73"/>
  <path class="cls-7" d="M33.03,138.73h3.44v.83h-4.63v-.83c.37-.38.88-.9,1.53-1.56.64-.65,1.05-1.07,1.22-1.26.32-.35.54-.65.66-.9.12-.24.19-.49.19-.73,0-.38-.14-.7-.41-.94-.27-.24-.62-.37-1.06-.37-.31,0-.64.06-.98.16-.34.11-.71.27-1.1.49v-1c.4-.16.77-.28,1.11-.36s.66-.12.95-.12c.75,0,1.35.19,1.8.57.45.38.68.88.68,1.51,0,.3-.06.59-.17.85-.11.27-.31.59-.61.95-.08.1-.34.37-.78.82-.44.45-1.05,1.08-1.84,1.89Z"/>
  <path class="cls-7" d="M40.65,132.14c.81,0,1.43.33,1.87.97.43.65.65,1.59.65,2.81s-.22,2.17-.65,2.81c-.44.64-1.06.96-1.88.96s-1.44-.32-1.87-.96-.64-1.58-.64-2.81.21-2.16.64-2.81c.43-.64,1.06-.97,1.88-.97ZM40.65,132.92c-.51,0-.89.25-1.15.75-.26.5-.38,1.25-.38,2.25s.12,1.75.38,2.25c.26.5.64.75,1.15.75s.89-.25,1.15-.75c.25-.5.38-1.25.38-2.25s-.13-1.75-.38-2.25c-.26-.5-.64-.75-1.15-.75Z"/>
  <line class="cls-7" x1="50.83" y1="104.57" x2="47.33" y2="104.57"/>
  <line class="cls-5" x1="50.83" y1="104.57" x2="47.33" y2="104.57"/>
  <polygon class="cls-7" points="25.99 107.54 27.6 107.54 27.6 101.98 25.85 102.33 25.85 101.43 27.59 101.08 28.58 101.08 28.58 107.54 30.19 107.54 30.19 108.37 25.99 108.37 25.99 107.54"/>
  <path class="cls-7" d="M34.63,101.08h1.24v4.75h1.04v.82h-1.04v1.72h-.98v-1.72h-3.29v-.95l3.03-4.62ZM34.89,101.94l-2.49,3.89h2.49v-3.89Z"/>
  <path class="cls-7" d="M40.65,100.95c.81,0,1.43.33,1.87.97.43.65.65,1.59.65,2.81s-.22,2.17-.65,2.81c-.44.64-1.06.96-1.88.96s-1.44-.32-1.87-.96-.64-1.58-.64-2.81.21-2.16.64-2.81c.43-.64,1.06-.97,1.88-.97ZM40.65,101.73c-.51,0-.89.25-1.15.75-.26.5-.38,1.25-.38,2.25s.12,1.75.38,2.25c.26.5.64.75,1.15.75s.89-.25,1.15-.75c.25-.5.38-1.25.38-2.25s-.13-1.75-.38-2.25c-.26-.5-.64-.75-1.15-.75Z"/>
  <line class="cls-7" x1="50.83" y1="73.38" x2="47.33" y2="73.38"/>
  <line class="cls-5" x1="50.83" y1="73.38" x2="47.33" y2="73.38"/>
  <polygon class="cls-7" points="25.99 76.35 27.6 76.35 27.6 70.79 25.85 71.14 25.85 70.24 27.59 69.89 28.58 69.89 28.58 76.35 30.19 76.35 30.19 77.18 25.99 77.18 25.99 76.35"/>
  <path class="cls-7" d="M36.37,70.05v.9c-.25-.12-.5-.21-.75-.27-.26-.06-.51-.09-.75-.09-.66,0-1.16.22-1.5.66-.34.44-.54,1.11-.58,1.99.19-.28.43-.5.72-.65.29-.15.61-.23.96-.23.73,0,1.31.23,1.73.67.42.44.64,1.05.64,1.81s-.23,1.35-.67,1.8c-.44.45-1.03.67-1.76.67-.84,0-1.49-.32-1.93-.96-.45-.64-.67-1.58-.67-2.81,0-1.15.27-2.07.82-2.75.54-.68,1.28-1.03,2.2-1.03.24,0,.49.03.75.07.25.05.51.12.79.22ZM34.41,73.14c-.44,0-.79.16-1.05.46s-.39.72-.39,1.24.13.95.39,1.25.61.45,1.05.45.79-.15,1.05-.45c.26-.3.39-.72.39-1.25s-.13-.94-.39-1.24c-.26-.3-.61-.46-1.05-.46Z"/>
  <path class="cls-7" d="M40.65,69.76c.81,0,1.43.33,1.87.97.43.65.65,1.59.65,2.81s-.22,2.17-.65,2.81c-.44.64-1.06.96-1.88.96s-1.44-.32-1.87-.96-.64-1.58-.64-2.81.21-2.16.64-2.81c.43-.64,1.06-.97,1.88-.97ZM40.65,70.54c-.51,0-.89.25-1.15.75-.26.5-.38,1.25-.38,2.25s.12,1.75.38,2.25c.26.5.64.75,1.15.75s.89-.25,1.15-.75c.25-.5.38-1.25.38-2.25s-.13-1.75-.38-2.25c-.26-.5-.64-.75-1.15-.75Z"/>
  <line class="cls-7" x1="50.83" y1="42.19" x2="47.33" y2="42.19"/>
  <line class="cls-5" x1="50.83" y1="42.19" x2="47.33" y2="42.19"/>
  <polygon class="cls-7" points="25.99 45.16 27.6 45.16 27.6 39.6 25.85 39.95 25.85 39.05 27.59 38.7 28.58 38.7 28.58 45.16 30.19 45.16 30.19 45.99 25.99 45.99 25.99 45.16"/>
  <path class="cls-7" d="M32.94,40.55c0,.38.11.68.35.89.24.21.57.31,1,.31s.75-.1.99-.31c.24-.21.36-.51.36-.89s-.12-.67-.36-.88c-.24-.21-.57-.32-.99-.32s-.76.11-1,.32c-.24.21-.35.5-.35.88ZM33.3,42.11c-.42-.1-.75-.3-.99-.59-.24-.29-.35-.64-.35-1.06,0-.58.2-1.04.62-1.38.41-.34.98-.51,1.71-.51s1.29.17,1.71.51c.41.34.62.8.62,1.38,0,.42-.12.77-.36,1.06-.24.29-.56.49-.98.59.47.11.84.33,1.11.65.26.32.4.72.4,1.18,0,.71-.22,1.25-.65,1.62-.44.38-1.06.56-1.86.56s-1.42-.18-1.85-.56c-.43-.37-.64-.91-.64-1.62,0-.46.13-.86.4-1.18.26-.32.63-.54,1.11-.65ZM34.29,42.53c-.47,0-.84.13-1.11.38s-.4.59-.4,1.03.13.79.4,1.04.64.37,1.11.37.83-.12,1.1-.38c.27-.25.41-.59.41-1.03s-.14-.78-.4-1.03c-.27-.25-.64-.38-1.11-.38Z"/>
  <path class="cls-7" d="M40.65,38.57c.81,0,1.43.33,1.87.97.43.65.65,1.59.65,2.81s-.22,2.17-.65,2.81c-.44.64-1.06.96-1.88.96s-1.44-.32-1.87-.96c-.43-.64-.64-1.58-.64-2.81s.21-2.16.64-2.81c.43-.64,1.06-.97,1.88-.97ZM40.65,39.35c-.51,0-.89.25-1.15.75-.26.5-.38,1.25-.38,2.25s.12,1.75.38,2.25c.26.5.64.75,1.15.75s.89-.25,1.15-.75c.25-.5.38-1.25.38-2.25s-.13-1.75-.38-2.25c-.26-.5-.64-.75-1.15-.75Z"/>
  <line class="cls-7" x1="50.83" y1="11" x2="47.33" y2="11"/>
  <line class="cls-5" x1="50.83" y1="11" x2="47.33" y2="11"/>
  <path class="cls-7" d="M26.67,13.96h3.44v.83h-4.63v-.83c.37-.38.88-.9,1.53-1.56.64-.65,1.05-1.07,1.22-1.26.32-.35.54-.65.66-.9.12-.24.19-.49.19-.73,0-.38-.14-.7-.41-.94s-.62-.37-1.06-.37c-.31,0-.64.06-.98.16-.34.11-.71.27-1.1.49v-1c.4-.16.77-.28,1.11-.36.34-.08.66-.12.95-.12.75,0,1.35.19,1.8.57.45.38.68.88.68,1.51,0,.3-.06.59-.17.85-.11.27-.31.59-.61.95-.08.1-.34.37-.78.82s-1.05,1.08-1.84,1.89Z"/>
  <path class="cls-7" d="M34.29,7.37c.81,0,1.43.33,1.87.97.43.65.65,1.59.65,2.81s-.22,2.17-.65,2.81c-.44.64-1.06.96-1.88.96s-1.44-.32-1.87-.96c-.43-.64-.64-1.58-.64-2.81s.21-2.16.64-2.81c.43-.64,1.06-.97,1.88-.97ZM34.29,8.15c-.51,0-.89.25-1.15.75-.26.5-.38,1.25-.38,2.25s.12,1.75.38,2.25c.26.5.64.75,1.15.75s.89-.25,1.15-.75c.25-.5.38-1.25.38-2.25s-.13-1.75-.38-2.25c-.26-.5-.64-.75-1.15-.75Z"/>
  <path class="cls-7" d="M40.65,7.37c.81,0,1.43.33,1.87.97.43.65.65,1.59.65,2.81s-.22,2.17-.65,2.81c-.44.64-1.06.96-1.88.96s-1.44-.32-1.87-.96c-.43-.64-.64-1.58-.64-2.81s.21-2.16.64-2.81c.43-.64,1.06-.97,1.88-.97ZM40.65,8.15c-.51,0-.89.25-1.15.75-.26.5-.38,1.25-.38,2.25s.12,1.75.38,2.25c.26.5.64.75,1.15.75s.89-.25,1.15-.75c.25-.5.38-1.25.38-2.25s-.13-1.75-.38-2.25c-.26-.5-.64-.75-1.15-.75Z"/>
  <polygon class="cls-7" points="7.63 211.78 7.63 205.32 8.8 205.32 8.8 210.39 11.82 210.39 11.82 205.53 12.98 205.53 12.98 210.39 16.68 210.39 16.68 205.2 17.84 205.2 17.84 211.78 7.63 211.78"/>
  <polygon class="cls-7" points="10.18 196.61 13.91 199.39 17.84 196.47 17.84 197.96 14.83 200.18 17.84 202.41 17.84 203.89 13.84 200.93 10.18 203.64 10.18 202.16 12.91 200.13 10.18 198.1 10.18 196.61"/>
  <path class="cls-7" d="M13.33,189.83c-.69.01-1.23.21-1.65.57-.41.38-.62.88-.62,1.5,0,.7.21,1.26.6,1.68.39.42.95.67,1.67.73v-4.48ZM13.7,188.57h.62v5.78c.87-.06,1.54-.31,1.99-.78.45-.46.67-1.11.67-1.95,0-.48-.06-.95-.17-1.4-.11-.45-.29-.91-.55-1.36h1.19c.2.45.35.91.43,1.39.08.48.14.97.14,1.44,0,1.23-.35,2.2-1.05,2.91s-1.67,1.06-2.88,1.06-2.24-.34-2.98-1.01c-.73-.67-1.11-1.6-1.11-2.74,0-1.04.34-1.85.99-2.45.67-.59,1.57-.9,2.7-.9Z"/>
  <path class="cls-7" d="M10.48,180.99h1.18c-.2.36-.34.71-.43,1.08-.1.36-.15.71-.15,1.08,0,.81.27,1.46.78,1.9.52.45,1.25.67,2.17.67s1.67-.22,2.18-.67.77-1.09.77-1.9c0-.36-.04-.71-.14-1.08-.1-.36-.25-.71-.45-1.08h1.16c.17.36.29.73.36,1.09.07.38.11.78.11,1.2,0,1.15-.35,2.07-1.08,2.74-.71.69-1.69,1.02-2.93,1.02s-2.23-.34-2.94-1.02c-.71-.69-1.08-1.62-1.08-2.83,0-.39.04-.77.13-1.13.08-.36.2-.73.35-1.08Z"/>
  <path class="cls-7" d="M10,175.77h0ZM14.82,178.93h-4.63v-1.26h4.59c.73,0,1.26-.14,1.62-.42s.55-.7.55-1.27c0-.67-.21-1.22-.64-1.61-.43-.39-1.02-.59-1.78-.59h-4.34v-1.26h7.66v1.26h-1.18c.48.31.81.67,1.04,1.06.21.41.32.87.32,1.4,0,.88-.27,1.55-.81,2-.53.46-1.33.69-2.39.69Z"/>
  <path class="cls-7" d="M8.01,168.69h2.17v-2.59h.98v2.59h4.16c.63,0,1.04-.08,1.2-.25.18-.17.27-.52.27-1.05v-1.29h1.05v1.29c0,.98-.18,1.65-.55,2.02-.36.36-1.02.55-1.97.55h-4.16v.92h-.98v-.92h-2.17v-1.26Z"/>
  <path class="cls-7" d="M7.2,164.44v-1.26h1.6v1.26h-1.6ZM10.18,164.44v-1.26h7.66v1.26h-7.66Z"/>
  <path class="cls-7" d="M10,157.58c0-1.09.36-1.95,1.06-2.58.71-.62,1.69-.94,2.95-.94s2.24.32,2.94.94c.71.63,1.06,1.48,1.06,2.58s-.35,1.97-1.06,2.59c-.7.62-1.68.92-2.94.92s-2.24-.31-2.95-.92c-.7-.62-1.06-1.48-1.06-2.59ZM11.06,157.58c0,.67.27,1.2.8,1.6.53.39,1.25.59,2.16.59s1.64-.18,2.17-.57.78-.92.78-1.61-.25-1.2-.78-1.6-1.25-.59-2.17-.59-1.62.2-2.16.59c-.53.39-.8.92-.8,1.6Z"/>
  <path class="cls-7" d="M13.22,145.61h4.62v1.26h-4.58c-.73,0-1.26.15-1.62.43-.36.28-.55.7-.55,1.26,0,.69.22,1.22.66,1.61.43.39,1.02.59,1.76.59h4.33v1.26h-7.66v-1.26h1.19c-.45-.29-.8-.64-1.02-1.06-.22-.41-.35-.88-.35-1.41,0-.87.28-1.54.83-1.99.55-.45,1.34-.69,2.39-.69Z"/>
  <path class="cls-7" d="M8.01,137.41h2.17v-2.59h.98v2.59h4.16c.63,0,1.04-.08,1.2-.25.18-.17.27-.52.27-1.05v-1.29h1.05v1.29c0,.98-.18,1.65-.55,2.02-.36.36-1.02.55-1.97.55h-4.16v.92h-.98v-.92h-2.17v-1.26Z"/>
  <path class="cls-7" d="M7.2,133.17v-1.26h1.6v1.26h-1.6ZM10.18,133.17v-1.26h7.66v1.26h-7.66Z"/>
  <path class="cls-7" d="M11.65,123.31c-.56-.31-.97-.69-1.25-1.12-.27-.43-.41-.95-.41-1.55,0-.78.28-1.4.84-1.83.56-.43,1.36-.66,2.38-.66h4.62v1.26h-4.58c-.73,0-1.27.14-1.64.39-.35.27-.53.66-.53,1.19,0,.66.22,1.18.66,1.55.43.38,1.02.56,1.76.56h4.33v1.26h-4.58c-.73,0-1.27.14-1.64.39-.35.27-.53.67-.53,1.2,0,.64.22,1.16.66,1.54.43.38,1.02.56,1.76.56h4.33v1.26h-7.66v-1.26h1.19c-.46-.28-.81-.63-1.04-1.04-.22-.39-.34-.87-.34-1.43s.14-1.02.42-1.41c.28-.39.7-.67,1.23-.87Z"/>
  <path class="cls-7" d="M13.33,110.35c-.69.01-1.23.21-1.65.57-.41.38-.62.88-.62,1.5,0,.7.21,1.26.6,1.68s.95.67,1.67.73v-4.48ZM13.7,109.09h.62v5.78c.87-.06,1.54-.31,1.99-.78.45-.46.67-1.11.67-1.95,0-.48-.06-.95-.17-1.4-.11-.45-.29-.91-.55-1.36h1.19c.2.45.35.91.43,1.39s.14.97.14,1.44c0,1.23-.35,2.2-1.05,2.91s-1.67,1.06-2.88,1.06-2.24-.34-2.98-1.01c-.73-.67-1.11-1.6-1.11-2.74,0-1.04.34-1.85.99-2.45.67-.59,1.57-.9,2.7-.9Z"/>
  <path class="cls-7" d="M7.21,99.55c1.06.62,2.1,1.06,3.12,1.36,1.02.31,2.06.45,3.11.45s2.1-.14,3.12-.45c1.04-.29,2.06-.74,3.11-1.36v1.09c-1.08.69-2.11,1.2-3.15,1.54-1.04.34-2.06.5-3.08.5s-2.03-.17-3.07-.5c-1.04-.34-2.09-.84-3.16-1.54v-1.09Z"/>
  <path class="cls-7" d="M11.65,91.15c-.56-.31-.97-.69-1.25-1.12-.27-.43-.41-.95-.41-1.55,0-.78.28-1.4.84-1.83.56-.43,1.36-.66,2.38-.66h4.62v1.26h-4.58c-.73,0-1.27.14-1.64.39-.35.27-.53.66-.53,1.19,0,.66.22,1.18.66,1.55.43.38,1.02.56,1.76.56h4.33v1.26h-4.58c-.73,0-1.27.14-1.64.39-.35.27-.53.67-.53,1.2,0,.64.22,1.16.66,1.54.43.38,1.02.56,1.76.56h4.33v1.26h-7.66v-1.26h1.19c-.46-.28-.81-.63-1.04-1.04-.22-.39-.34-.87-.34-1.43s.14-1.02.42-1.41c.28-.39.7-.67,1.23-.87Z"/>
  <path class="cls-7" d="M10.41,78.6h1.19c-.17.36-.31.73-.41,1.11-.08.39-.14.78-.14,1.19,0,.63.1,1.11.29,1.41s.48.46.85.46c.29,0,.52-.11.69-.34s.34-.67.48-1.34l.1-.43c.2-.9.48-1.53.81-1.9.35-.36.84-.56,1.46-.56.71,0,1.27.28,1.68.84.42.56.62,1.34.62,2.32,0,.42-.04.84-.11,1.29-.07.45-.18.91-.35,1.4h-1.3c.25-.46.43-.92.55-1.37.13-.45.18-.9.18-1.34,0-.59-.1-1.05-.29-1.37-.2-.31-.49-.48-.87-.48-.34,0-.6.13-.78.35s-.36.73-.53,1.51l-.1.43c-.17.78-.42,1.36-.76,1.69-.34.35-.8.52-1.4.52-.71,0-1.27-.25-1.67-.76-.39-.5-.59-1.23-.59-2.18,0-.46.04-.9.11-1.32.07-.41.17-.78.29-1.13Z"/>
  <path class="cls-7" d="M7.21,76.38v-1.09c1.08-.67,2.13-1.19,3.16-1.53,1.04-.34,2.06-.52,3.07-.52s2.04.18,3.08.52c1.04.34,2.07.85,3.15,1.53v1.09c-1.05-.6-2.07-1.05-3.11-1.36-1.02-.29-2.06-.45-3.12-.45s-2.09.15-3.11.45c-1.02.31-2.06.76-3.12,1.36Z"/>
  <g class="cls-19">
    <polyline class="cls-1" points="67.06 263.53 90.25 259.32 113.44 247.81 136.63 243.41 159.82 233.65 183.01 217.36 206.2 207.29 229.38 199.21 252.57 177.04 275.76 157.28 298.95 138.13 322.14 100.68 345.33 96.79 368.52 72.23 391.71 21.61"/>
    <g class="cls-15">
      <polygon class="cls-8" points="67.06 260.53 64.06 266.53 70.06 266.53 67.06 260.53"/>
      <polygon class="cls-4" points="67.06 260.53 64.06 266.53 70.06 266.53 67.06 260.53"/>
    </g>
    <g class="cls-10">
      <polygon class="cls-8" points="90.25 256.32 87.25 262.32 93.25 262.32 90.25 256.32"/>
      <polygon class="cls-4" points="90.25 256.32 87.25 262.32 93.25 262.32 90.25 256.32"/>
    </g>
    <g class="cls-20">
      <polygon class="cls-8" points="113.44 244.81 110.44 250.81 116.44 250.81 113.44 244.81"/>
      <polygon class="cls-4" points="113.44 244.81 110.44 250.81 116.44 250.81 113.44 244.81"/>
    </g>
    <g class="cls-16">
      <polygon class="cls-8" points="136.63 240.41 133.63 246.41 139.63 246.41 136.63 240.41"/>
      <polygon class="cls-4" points="136.63 240.41 133.63 246.41 139.63 246.41 136.63 240.41"/>
    </g>
    <g class="cls-23">
      <polygon class="cls-8" points="159.82 230.65 156.82 236.65 162.82 236.65 159.82 230.65"/>
      <polygon class="cls-4" points="159.82 230.65 156.82 236.65 162.82 236.65 159.82 230.65"/>
    </g>
    <g class="cls-13">
      <polygon class="cls-8" points="183.01 214.36 180.01 220.36 186.01 220.36 183.01 214.36"/>
      <polygon class="cls-4" points="183.01 214.36 180.01 220.36 186.01 220.36 183.01 214.36"/>
    </g>
    <g class="cls-14">
      <polygon class="cls-8" points="206.2 204.29 203.2 210.29 209.2 210.29 206.2 204.29"/>
      <polygon class="cls-4" points="206.2 204.29 203.2 210.29 209.2 210.29 206.2 204.29"/>
    </g>
    <g class="cls-21">
      <polygon class="cls-8" points="229.38 196.21 226.38 202.21 232.38 202.21 229.38 196.21"/>
      <polygon class="cls-4" points="229.38 196.21 226.38 202.21 232.38 202.21 229.38 196.21"/>
    </g>
    <g class="cls-18">
      <polygon class="cls-8" points="252.57 174.04 249.57 180.04 255.57 180.04 252.57 174.04"/>
      <polygon class="cls-4" points="252.57 174.04 249.57 180.04 255.57 180.04 252.57 174.04"/>
    </g>
    <g class="cls-24">
      <polygon class="cls-8" points="275.76 154.28 272.76 160.28 278.76 160.28 275.76 154.28"/>
      <polygon class="cls-4" points="275.76 154.28 272.76 160.28 278.76 160.28 275.76 154.28"/>
    </g>
    <g class="cls-6">
      <polygon class="cls-8" points="298.95 135.13 295.95 141.13 301.95 141.13 298.95 135.13"/>
      <polygon class="cls-4" points="298.95 135.13 295.95 141.13 301.95 141.13 298.95 135.13"/>
    </g>
    <g class="cls-17">
      <polygon class="cls-8" points="322.14 97.68 319.14 103.68 325.14 103.68 322.14 97.68"/>
      <polygon class="cls-4" points="322.14 97.68 319.14 103.68 325.14 103.68 322.14 97.68"/>
    </g>
    <g class="cls-11">
      <polygon class="cls-8" points="345.33 93.79 342.33 99.79 348.33 99.79 345.33 93.79"/>
      <polygon class="cls-4" points="345.33 93.79 342.33 99.79 348.33 99.79 345.33 93.79"/>
    </g>
    <g class="cls-22">
      <polygon class="cls-8" points="368.52 69.23 365.52 75.23 371.52 75.23 368.52 69.23"/>
      <polygon class="cls-4" points="368.52 69.23 365.52 75.23 371.52 75.23 368.52 69.23"/>
    </g>
    <g class="cls-12">
      <polygon class="cls-8" points="391.71 18.61 388.71 24.61 394.71 24.61 391.71 18.61"/>
      <polygon class="cls-4" points="391.71 18.61 388.71 24.61 394.71 24.61 391.71 18.61"/>
    </g>
  </g>
  <line class="cls-3" x1="50.83" y1="275.63" x2="50.83" y2="9.51"/>
  <line class="cls-3" x1="407.95" y1="275.63" x2="407.95" y2="9.51"/>
  <line class="cls-3" x1="50.83" y1="275.63" x2="407.95" y2="275.63"/>
  <line class="cls-3" x1="50.83" y1="9.51" x2="407.95" y2="9.51"/>
</svg>