<?xml version="1.0" encoding="UTF-8"?>
<svg id="Layer_1" data-name="Layer 1" xmlns="http://www.w3.org/2000/svg" version="1.1" xmlns:xlink="http://www.w3.org/1999/xlink" viewBox="0 0 415.14 316.18">
  <defs>
    <style>
      .cls-1 {
        stroke-width: 2px;
      }

      .cls-1, .cls-2, .cls-3, .cls-4, .cls-5 {
        fill: none;
      }

      .cls-1, .cls-3 {
        stroke-linecap: square;
      }

      .cls-1, .cls-4 {
        stroke: red;
      }

      .cls-1, .cls-5 {
        stroke-linejoin: round;
      }

      .cls-6 {
        clip-path: url(#clippath-11);
      }

      .cls-7 {
        fill: #000;
      }

      .cls-7, .cls-2, .cls-8, .cls-9 {
        stroke-width: 0px;
      }

      .cls-10 {
        clip-path: url(#clippath-2);
      }

      .cls-11 {
        clip-path: url(#clippath-6);
      }

      .cls-12 {
        clip-path: url(#clippath-7);
      }

      .cls-13 {
        clip-path: url(#clippath-1);
      }

      .cls-14 {
        clip-path: url(#clippath-4);
      }

      .cls-8 {
        fill: red;
      }

      .cls-15 {
        clip-path: url(#clippath-9);
      }

      .cls-16 {
        clip-path: url(#clippath);
      }

      .cls-17 {
        clip-path: url(#clippath-3);
      }

      .cls-3, .cls-4 {
        stroke-miterlimit: 10;
      }

      .cls-3, .cls-5 {
        stroke: #000;
        stroke-width: .8px;
      }

      .cls-18 {
        clip-path: url(#clippath-8);
      }

      .cls-9 {
        fill: #fff;
      }

      .cls-19 {
        clip-path: url(#clippath-5);
      }

      .cls-20 {
        clip-path: url(#clippath-10);
      }
    </style>
    <clipPath id="clippath">
      <rect class="cls-2" x="327.51" y="293.56" width="17.77" height="14.49"/>
    </clipPath>
    <clipPath id="clippath-1">
      <rect class="cls-2" x="50.83" y="7.2" width="357.12" height="266.11"/>
    </clipPath>
    <clipPath id="clippath-2">
      <rect class="cls-2" x="59.06" y="253.22" width="16" height="16"/>
    </clipPath>
    <clipPath id="clippath-3">
      <rect class="cls-2" x="95.13" y="227.87" width="16" height="16"/>
    </clipPath>
    <clipPath id="clippath-4">
      <rect class="cls-2" x="131.2" y="207.6" width="16" height="16"/>
    </clipPath>
    <clipPath id="clippath-5">
      <rect class="cls-2" x="167.28" y="172.56" width="16" height="16"/>
    </clipPath>
    <clipPath id="clippath-6">
      <rect class="cls-2" x="203.35" y="142.82" width="16" height="16"/>
    </clipPath>
    <clipPath id="clippath-7">
      <rect class="cls-2" x="239.42" y="84.07" width="16" height="16"/>
    </clipPath>
    <clipPath id="clippath-8">
      <rect class="cls-2" x="275.49" y="76.75" width="16" height="16"/>
    </clipPath>
    <clipPath id="clippath-9">
      <rect class="cls-2" x="311.57" y="56.99" width="16" height="16"/>
    </clipPath>
    <clipPath id="clippath-10">
      <rect class="cls-2" x="347.64" y="11.3" width="16" height="16"/>
    </clipPath>
    <clipPath id="clippath-11">
      <rect class="cls-2" x="383.71" y="23.59" width="16" height="16"/>
    </clipPath>
  </defs>
  <rect class="cls-9" width="415.14" height="316.18"/>
  <rect class="cls-9" x="50.83" y="7.2" width="357.12" height="266.11"/>
  <line class="cls-7" x1="76.08" y1="273.31" x2="76.08" y2="276.81"/>
  <line class="cls-5" x1="76.08" y1="273.31" x2="76.08" y2="276.81"/>
  <path class="cls-7" d="M68.46,287.08h3.44v.83h-4.63v-.83c.37-.38.88-.9,1.53-1.56.64-.65,1.05-1.07,1.22-1.26.32-.35.54-.65.66-.9.12-.24.19-.49.19-.73,0-.38-.14-.7-.41-.94-.27-.24-.62-.37-1.06-.37-.31,0-.64.06-.98.16-.34.11-.71.27-1.1.49v-1c.4-.16.77-.28,1.11-.36.34-.08.66-.12.95-.12.75,0,1.35.19,1.8.57.45.38.68.88.68,1.51,0,.3-.06.59-.17.85-.11.27-.31.59-.61.95-.08.1-.34.37-.78.82-.44.45-1.05,1.08-1.84,1.89Z"/>
  <path class="cls-7" d="M73.98,280.62h3.87v.83h-2.97v1.79c.14-.05.29-.09.43-.11.14-.02.29-.04.43-.04.81,0,1.45.23,1.93.67.48.45.72,1.05.72,1.81s-.25,1.4-.74,1.83-1.18.64-2.06.64c-.31,0-.62-.03-.94-.07-.32-.05-.64-.12-.98-.23v-.99c.29.16.59.28.91.36.31.08.64.11.99.11.56,0,1.01-.14,1.34-.44.32-.3.49-.7.49-1.21s-.17-.9-.49-1.2c-.33-.3-.78-.45-1.34-.45-.26,0-.53.03-.79.09-.26.06-.53.15-.8.27v-3.66Z"/>
  <path class="cls-7" d="M82.44,280.49c.81,0,1.43.33,1.87.97.43.65.65,1.59.65,2.81s-.22,2.17-.65,2.81c-.44.64-1.06.96-1.88.96s-1.44-.32-1.87-.96-.64-1.58-.64-2.81.21-2.16.64-2.81c.43-.64,1.06-.97,1.88-.97ZM82.44,281.27c-.51,0-.89.25-1.15.75s-.38,1.25-.38,2.25.12,1.75.38,2.25.64.75,1.15.75.89-.25,1.15-.75c.25-.5.38-1.25.38-2.25s-.13-1.75-.38-2.25c-.26-.5-.64-.75-1.15-.75Z"/>
  <line class="cls-7" x1="121.17" y1="273.31" x2="121.17" y2="276.81"/>
  <line class="cls-5" x1="121.17" y1="273.31" x2="121.17" y2="276.81"/>
  <path class="cls-7" d="M112.71,280.62h3.87v.83h-2.97v1.79c.14-.05.29-.09.43-.11.14-.02.29-.04.43-.04.81,0,1.45.23,1.93.67.48.45.72,1.05.72,1.81s-.25,1.4-.74,1.83-1.18.64-2.06.64c-.31,0-.62-.03-.94-.07-.32-.05-.64-.12-.98-.23v-.99c.29.16.59.28.91.36.31.08.64.11.99.11.56,0,1.01-.14,1.34-.44.32-.3.49-.7.49-1.21s-.17-.9-.49-1.2c-.33-.3-.78-.45-1.34-.45-.26,0-.53.03-.79.09-.26.06-.53.15-.8.27v-3.66Z"/>
  <path class="cls-7" d="M121.17,280.49c.81,0,1.43.33,1.87.97.43.65.65,1.59.65,2.81s-.22,2.17-.65,2.81c-.44.64-1.06.96-1.88.96s-1.44-.32-1.87-.96-.64-1.58-.64-2.81.21-2.16.64-2.81c.43-.64,1.06-.97,1.88-.97ZM121.17,281.27c-.51,0-.89.25-1.15.75s-.38,1.25-.38,2.25.12,1.75.38,2.25.64.75,1.15.75.89-.25,1.15-.75c.25-.5.38-1.25.38-2.25s-.13-1.75-.38-2.25c-.26-.5-.64-.75-1.15-.75Z"/>
  <path class="cls-7" d="M127.53,280.49c.81,0,1.43.33,1.87.97.43.65.65,1.59.65,2.81s-.22,2.17-.65,2.81c-.44.64-1.06.96-1.88.96s-1.44-.32-1.87-.96-.64-1.58-.64-2.81.21-2.16.64-2.81c.43-.64,1.06-.97,1.88-.97ZM127.53,281.27c-.51,0-.89.25-1.15.75s-.38,1.25-.38,2.25.12,1.75.38,2.25.64.75,1.15.75.89-.25,1.15-.75c.25-.5.38-1.25.38-2.25s-.13-1.75-.38-2.25c-.26-.5-.64-.75-1.15-.75Z"/>
  <line class="cls-7" x1="166.26" y1="273.31" x2="166.26" y2="276.81"/>
  <line class="cls-5" x1="166.26" y1="273.31" x2="166.26" y2="276.81"/>
  <polygon class="cls-7" points="157.54 280.62 162.23 280.62 162.23 281.04 159.58 287.91 158.55 287.91 161.04 281.45 157.54 281.45 157.54 280.62"/>
  <path class="cls-7" d="M164.16,280.62h3.87v.83h-2.97v1.79c.14-.05.29-.09.43-.11s.29-.04.43-.04c.81,0,1.45.23,1.93.67.48.45.72,1.05.72,1.81s-.25,1.4-.74,1.83-1.18.64-2.06.64c-.31,0-.62-.03-.94-.07-.32-.05-.64-.12-.98-.23v-.99c.29.16.59.28.91.36.31.08.64.11.99.11.56,0,1.01-.14,1.34-.44.32-.3.49-.7.49-1.21s-.17-.9-.49-1.2c-.33-.3-.78-.45-1.34-.45-.26,0-.53.03-.79.09-.26.06-.53.15-.8.27v-3.66Z"/>
  <path class="cls-7" d="M172.62,280.49c.81,0,1.43.33,1.87.97.43.65.65,1.59.65,2.81s-.22,2.17-.65,2.81c-.44.64-1.06.96-1.88.96s-1.44-.32-1.87-.96c-.43-.64-.64-1.58-.64-2.81s.21-2.16.64-2.81c.43-.64,1.06-.97,1.88-.97ZM172.62,281.27c-.51,0-.89.25-1.15.75s-.38,1.25-.38,2.25.12,1.75.38,2.25.64.75,1.15.75.89-.25,1.15-.75c.25-.5.38-1.25.38-2.25s-.13-1.75-.38-2.25c-.26-.5-.64-.75-1.15-.75Z"/>
  <line class="cls-7" x1="211.35" y1="273.31" x2="211.35" y2="276.81"/>
  <line class="cls-5" x1="211.35" y1="273.31" x2="211.35" y2="276.81"/>
  <polygon class="cls-7" points="199.87 287.08 201.48 287.08 201.48 281.52 199.73 281.87 199.73 280.97 201.47 280.62 202.46 280.62 202.46 287.08 204.07 287.08 204.07 287.91 199.87 287.91 199.87 287.08"/>
  <path class="cls-7" d="M208.17,280.49c.81,0,1.43.33,1.87.97.43.65.65,1.59.65,2.81s-.22,2.17-.65,2.81c-.44.64-1.06.96-1.88.96s-1.44-.32-1.87-.96c-.43-.64-.64-1.58-.64-2.81s.21-2.16.64-2.81c.43-.64,1.06-.97,1.88-.97ZM208.17,281.27c-.51,0-.89.25-1.15.75s-.38,1.25-.38,2.25.12,1.75.38,2.25.64.75,1.15.75.89-.25,1.15-.75c.25-.5.38-1.25.38-2.25s-.13-1.75-.38-2.25c-.26-.5-.64-.75-1.15-.75Z"/>
  <path class="cls-7" d="M214.53,280.49c.81,0,1.43.33,1.87.97.43.65.65,1.59.65,2.81s-.22,2.17-.65,2.81c-.44.64-1.06.96-1.88.96s-1.44-.32-1.87-.96c-.43-.64-.64-1.58-.64-2.81s.21-2.16.64-2.81c.43-.64,1.06-.97,1.88-.97ZM214.53,281.27c-.51,0-.89.25-1.15.75s-.38,1.25-.38,2.25.12,1.75.38,2.25.64.75,1.15.75.89-.25,1.15-.75c.25-.5.38-1.25.38-2.25s-.13-1.75-.38-2.25c-.26-.5-.64-.75-1.15-.75Z"/>
  <path class="cls-7" d="M220.89,280.49c.81,0,1.43.33,1.87.97.43.65.65,1.59.65,2.81s-.22,2.17-.65,2.81c-.44.64-1.06.96-1.88.96s-1.44-.32-1.87-.96c-.43-.64-.64-1.58-.64-2.81s.21-2.16.64-2.81c.43-.64,1.06-.97,1.88-.97ZM220.89,281.27c-.51,0-.89.25-1.15.75s-.38,1.25-.38,2.25.12,1.75.38,2.25.64.75,1.15.75.89-.25,1.15-.75c.25-.5.38-1.25.38-2.25s-.13-1.75-.38-2.25c-.26-.5-.64-.75-1.15-.75Z"/>
  <line class="cls-7" x1="256.44" y1="273.31" x2="256.44" y2="276.81"/>
  <line class="cls-5" x1="256.44" y1="273.31" x2="256.44" y2="276.81"/>
  <polygon class="cls-7" points="244.96 287.08 246.57 287.08 246.57 281.52 244.82 281.87 244.82 280.97 246.56 280.62 247.55 280.62 247.55 287.08 249.16 287.08 249.16 287.91 244.96 287.91 244.96 287.08"/>
  <path class="cls-7" d="M252,287.08h3.44v.83h-4.63v-.83c.37-.38.88-.9,1.53-1.56.64-.65,1.05-1.07,1.22-1.26.32-.35.54-.65.66-.9.12-.24.19-.49.19-.73,0-.38-.14-.7-.41-.94-.27-.24-.62-.37-1.06-.37-.31,0-.64.06-.98.16-.34.11-.71.27-1.1.49v-1c.4-.16.77-.28,1.11-.36.34-.08.66-.12.95-.12.75,0,1.35.19,1.8.57.45.38.68.88.68,1.51,0,.3-.06.59-.17.85-.11.27-.31.59-.61.95-.08.1-.34.37-.78.82-.44.45-1.05,1.08-1.84,1.89Z"/>
  <path class="cls-7" d="M257.52,280.62h3.87v.83h-2.97v1.79c.14-.05.29-.09.43-.11.14-.02.29-.04.43-.04.81,0,1.45.23,1.93.67.48.45.72,1.05.72,1.81s-.25,1.4-.74,1.83-1.18.64-2.06.64c-.31,0-.62-.03-.94-.07-.32-.05-.64-.12-.98-.23v-.99c.29.16.59.28.91.36.31.08.64.11.99.11.56,0,1.01-.14,1.34-.44.32-.3.49-.7.49-1.21s-.17-.9-.49-1.2c-.33-.3-.78-.45-1.34-.45-.26,0-.53.03-.79.09-.26.06-.53.15-.8.27v-3.66Z"/>
  <path class="cls-7" d="M265.98,280.49c.81,0,1.43.33,1.87.97.43.65.65,1.59.65,2.81s-.22,2.17-.65,2.81c-.44.64-1.06.96-1.88.96s-1.44-.32-1.87-.96c-.43-.64-.64-1.58-.64-2.81s.21-2.16.64-2.81c.43-.64,1.06-.97,1.88-.97ZM265.98,281.27c-.51,0-.89.25-1.15.75s-.38,1.25-.38,2.25.12,1.75.38,2.25.64.75,1.15.75.89-.25,1.15-.75c.25-.5.38-1.25.38-2.25s-.13-1.75-.38-2.25c-.26-.5-.64-.75-1.15-.75Z"/>
  <line class="cls-7" x1="301.53" y1="273.31" x2="301.53" y2="276.81"/>
  <line class="cls-5" x1="301.53" y1="273.31" x2="301.53" y2="276.81"/>
  <polygon class="cls-7" points="290.05 287.08 291.66 287.08 291.66 281.52 289.91 281.87 289.91 280.97 291.65 280.62 292.64 280.62 292.64 287.08 294.25 287.08 294.25 287.91 290.05 287.91 290.05 287.08"/>
  <path class="cls-7" d="M296.25,280.62h3.87v.83h-2.97v1.79c.14-.05.29-.09.43-.11.14-.02.29-.04.43-.04.81,0,1.45.23,1.93.67.48.45.72,1.05.72,1.81s-.25,1.4-.74,1.83-1.18.64-2.06.64c-.31,0-.62-.03-.94-.07-.32-.05-.64-.12-.98-.23v-.99c.29.16.59.28.91.36.31.08.64.11.99.11.56,0,1.01-.14,1.34-.44.32-.3.49-.7.49-1.21s-.17-.9-.49-1.2c-.33-.3-.78-.45-1.34-.45-.26,0-.53.03-.79.09-.26.06-.53.15-.8.27v-3.66Z"/>
  <path class="cls-7" d="M304.71,280.49c.81,0,1.43.33,1.87.97.43.65.65,1.59.65,2.81s-.22,2.17-.65,2.81c-.44.64-1.06.96-1.88.96s-1.44-.32-1.87-.96c-.43-.64-.64-1.58-.64-2.81s.21-2.16.64-2.81c.43-.64,1.06-.97,1.88-.97ZM304.71,281.27c-.51,0-.89.25-1.15.75s-.38,1.25-.38,2.25.12,1.75.38,2.25.64.75,1.15.75.89-.25,1.15-.75c.25-.5.38-1.25.38-2.25s-.13-1.75-.38-2.25c-.26-.5-.64-.75-1.15-.75Z"/>
  <path class="cls-7" d="M311.07,280.49c.81,0,1.43.33,1.87.97.43.65.65,1.59.65,2.81s-.22,2.17-.65,2.81c-.44.64-1.06.96-1.88.96s-1.44-.32-1.87-.96c-.43-.64-.64-1.58-.64-2.81s.21-2.16.64-2.81c.43-.64,1.06-.97,1.88-.97ZM311.07,281.27c-.51,0-.89.25-1.15.75s-.38,1.25-.38,2.25.12,1.75.38,2.25.64.75,1.15.75.89-.25,1.15-.75c.25-.5.38-1.25.38-2.25s-.13-1.75-.38-2.25c-.26-.5-.64-.75-1.15-.75Z"/>
  <line class="cls-7" x1="346.62" y1="273.31" x2="346.62" y2="276.81"/>
  <line class="cls-5" x1="346.62" y1="273.31" x2="346.62" y2="276.81"/>
  <polygon class="cls-7" points="335.14 287.08 336.75 287.08 336.75 281.52 335 281.87 335 280.97 336.74 280.62 337.73 280.62 337.73 287.08 339.34 287.08 339.34 287.91 335.14 287.91 335.14 287.08"/>
  <polygon class="cls-7" points="341.08 280.62 345.77 280.62 345.77 281.04 343.12 287.91 342.09 287.91 344.58 281.45 341.08 281.45 341.08 280.62"/>
  <path class="cls-7" d="M347.7,280.62h3.87v.83h-2.97v1.79c.14-.05.29-.09.43-.11.14-.02.29-.04.43-.04.81,0,1.45.23,1.93.67.48.45.72,1.05.72,1.81s-.25,1.4-.74,1.83-1.18.64-2.06.64c-.31,0-.62-.03-.94-.07-.32-.05-.64-.12-.98-.23v-.99c.29.16.59.28.91.36.31.08.64.11.99.11.56,0,1.01-.14,1.34-.44.32-.3.49-.7.49-1.21s-.17-.9-.49-1.2c-.33-.3-.78-.45-1.34-.45-.26,0-.53.03-.79.09-.26.06-.53.15-.8.27v-3.66Z"/>
  <path class="cls-7" d="M356.16,280.49c.81,0,1.43.33,1.87.97.43.65.65,1.59.65,2.81s-.22,2.17-.65,2.81c-.44.64-1.06.96-1.88.96s-1.44-.32-1.87-.96c-.43-.64-.64-1.58-.64-2.81s.21-2.16.64-2.81c.43-.64,1.06-.97,1.88-.97ZM356.16,281.27c-.51,0-.89.25-1.15.75s-.38,1.25-.38,2.25.12,1.75.38,2.25.64.75,1.15.75.89-.25,1.15-.75c.25-.5.38-1.25.38-2.25s-.13-1.75-.38-2.25c-.26-.5-.64-.75-1.15-.75Z"/>
  <line class="cls-7" x1="391.71" y1="273.31" x2="391.71" y2="276.81"/>
  <line class="cls-5" x1="391.71" y1="273.31" x2="391.71" y2="276.81"/>
  <path class="cls-7" d="M380.91,287.08h3.44v.83h-4.63v-.83c.37-.38.88-.9,1.53-1.56.64-.65,1.05-1.07,1.22-1.26.32-.35.54-.65.66-.9.12-.24.19-.49.19-.73,0-.38-.14-.7-.41-.94-.27-.24-.62-.37-1.06-.37-.31,0-.64.06-.98.16-.34.11-.71.27-1.1.49v-1c.4-.16.77-.28,1.11-.36.34-.08.66-.12.95-.12.75,0,1.35.19,1.8.57.45.38.68.88.68,1.51,0,.3-.06.59-.17.85-.11.27-.31.59-.61.95-.08.1-.34.37-.78.82-.44.45-1.05,1.08-1.84,1.89Z"/>
  <path class="cls-7" d="M388.53,280.49c.81,0,1.43.33,1.87.97.43.65.65,1.59.65,2.81s-.22,2.17-.65,2.81c-.44.64-1.06.96-1.88.96s-1.44-.32-1.87-.96c-.43-.64-.64-1.58-.64-2.81s.21-2.16.64-2.81c.43-.64,1.06-.97,1.88-.97ZM388.53,281.27c-.51,0-.89.25-1.15.75s-.38,1.25-.38,2.25.12,1.75.38,2.25.64.75,1.15.75.89-.25,1.15-.75c.25-.5.38-1.25.38-2.25s-.13-1.75-.38-2.25c-.26-.5-.64-.75-1.15-.75Z"/>
  <path class="cls-7" d="M394.89,280.49c.81,0,1.43.33,1.87.97.43.65.65,1.59.65,2.81s-.22,2.17-.65,2.81c-.44.64-1.06.96-1.88.96s-1.44-.32-1.87-.96c-.43-.64-.64-1.58-.64-2.81s.21-2.16.64-2.81c.43-.64,1.06-.97,1.88-.97ZM394.89,281.27c-.51,0-.89.25-1.15.75s-.38,1.25-.38,2.25.12,1.75.38,2.25.64.75,1.15.75.89-.25,1.15-.75c.25-.5.38-1.25.38-2.25s-.13-1.75-.38-2.25c-.26-.5-.64-.75-1.15-.75Z"/>
  <path class="cls-7" d="M401.25,280.49c.81,0,1.43.33,1.87.97.43.65.65,1.59.65,2.81s-.22,2.17-.65,2.81c-.44.64-1.06.96-1.88.96s-1.44-.32-1.87-.96c-.43-.64-.64-1.58-.64-2.81s.21-2.16.64-2.81c.43-.64,1.06-.97,1.88-.97ZM401.25,281.27c-.51,0-.89.25-1.15.75s-.38,1.25-.38,2.25.12,1.75.38,2.25.64.75,1.15.75.89-.25,1.15-.75c.25-.5.38-1.25.38-2.25s-.13-1.75-.38-2.25c-.26-.5-.64-.75-1.15-.75Z"/>
  <polygon class="cls-7" points="112.86 294.48 121.48 294.48 121.48 295.64 117.86 295.64 117.86 304.69 116.47 304.69 116.47 295.64 112.86 295.64 112.86 294.48"/>
  <path class="cls-7" d="M125.72,296.85c1.09,0,1.95.36,2.58,1.06.62.71.94,1.69.94,2.95s-.32,2.24-.94,2.94c-.63.71-1.48,1.06-2.58,1.06s-1.97-.35-2.59-1.06c-.62-.7-.92-1.68-.92-2.94s.31-2.24.92-2.95c.62-.7,1.48-1.06,2.59-1.06ZM125.72,297.91c-.67,0-1.2.27-1.6.8-.39.53-.59,1.25-.59,2.16s.18,1.64.57,2.17c.39.53.92.78,1.61.78s1.2-.25,1.6-.78c.39-.53.59-1.25.59-2.17s-.2-1.62-.59-2.16c-.39-.53-.92-.8-1.6-.8Z"/>
  <path class="cls-7" d="M132.56,294.86v2.17h2.59v.98h-2.59v4.16c0,.63.08,1.04.25,1.2.17.18.52.27,1.05.27h1.29v1.05h-1.29c-.98,0-1.65-.18-2.02-.55-.36-.36-.55-1.02-.55-1.97v-4.16h-.92v-.98h.92v-2.17h1.26Z"/>
  <path class="cls-7" d="M142.8,300.32v4.37h-1.26v-1.16c-.29.48-.66.81-1.08,1.02s-.95.32-1.57.32c-.78,0-1.41-.21-1.88-.64s-.69-1.02-.69-1.76c0-.85.28-1.5.87-1.95.57-.43,1.43-.66,2.58-.66h1.76v-.13c0-.57-.2-1.02-.57-1.34-.38-.31-.91-.48-1.6-.48-.45,0-.87.06-1.29.17-.42.11-.81.27-1.19.46v-1.16c.45-.17.9-.31,1.33-.39.43-.08.85-.14,1.27-.14,1.11,0,1.93.29,2.48.87.55.57.83,1.44.83,2.6ZM140.29,300.84c-1.02,0-1.72.13-2.11.35-.39.24-.59.63-.59,1.19,0,.45.14.81.43,1.06.29.27.7.39,1.2.39.7,0,1.26-.24,1.68-.74.42-.49.63-1.15.63-1.97v-.28h-1.25Z"/>
  <rect class="cls-7" x="145.39" y="294.05" width="1.26" height="10.64"/>
  <path class="cls-7" d="M160.1,300.07v4.62h-1.26v-4.58c0-.73-.15-1.26-.43-1.62-.28-.36-.7-.55-1.26-.55-.69,0-1.22.22-1.61.66-.39.43-.59,1.02-.59,1.76v4.33h-1.26v-7.66h1.26v1.19c.29-.45.64-.8,1.06-1.02.41-.22.88-.35,1.41-.35.87,0,1.54.28,1.99.83.45.55.69,1.34.69,2.39Z"/>
  <path class="cls-7" d="M165.64,296.85h0ZM162.47,301.66v-4.63h1.26v4.59c0,.73.14,1.26.42,1.62.28.36.7.55,1.27.55.67,0,1.22-.21,1.61-.64s.59-1.02.59-1.78v-4.34h1.26v7.66h-1.26v-1.18c-.31.48-.67.81-1.06,1.04-.41.21-.87.32-1.4.32-.88,0-1.55-.27-2-.81-.46-.53-.69-1.33-.69-2.39Z"/>
  <path class="cls-7" d="M177.44,298.5c.31-.56.69-.97,1.12-1.25.43-.27.95-.41,1.55-.41.78,0,1.4.28,1.83.84.43.56.66,1.36.66,2.38v4.62h-1.26v-4.58c0-.73-.14-1.27-.39-1.64-.27-.35-.66-.53-1.19-.53-.66,0-1.18.22-1.55.66-.38.43-.56,1.02-.56,1.76v4.33h-1.26v-4.58c0-.73-.14-1.27-.39-1.64-.27-.35-.67-.53-1.2-.53-.64,0-1.16.22-1.54.66-.38.43-.56,1.02-.56,1.76v4.33h-1.26v-7.66h1.26v1.19c.28-.46.63-.81,1.04-1.04.39-.22.87-.34,1.43-.34s1.02.14,1.41.42c.39.28.67.7.87,1.23Z"/>
  <path class="cls-7" d="M186.33,298.19c.25-.45.59-.78.99-1.01.41-.22.9-.34,1.46-.34.92,0,1.68.38,2.27,1.11.57.74.87,1.71.87,2.91s-.29,2.18-.87,2.91c-.59.73-1.34,1.09-2.27,1.09-.56,0-1.05-.11-1.46-.32s-.74-.55-.99-1.01v1.15h-1.26v-10.64h1.26v4.14ZM190.61,300.86c0-.92-.2-1.64-.57-2.17-.39-.53-.91-.8-1.57-.8s-1.19.27-1.57.8c-.39.53-.57,1.25-.57,2.17s.18,1.65.57,2.18c.38.53.9.78,1.57.78s1.18-.25,1.57-.78c.38-.53.57-1.26.57-2.18Z"/>
  <path class="cls-7" d="M199.29,300.18c-.01-.69-.21-1.23-.57-1.65-.38-.41-.88-.62-1.5-.62-.7,0-1.26.21-1.68.6-.42.39-.67.95-.73,1.67h4.48ZM200.55,300.54v.62h-5.78c.06.87.31,1.54.78,1.99.46.45,1.11.67,1.95.67.48,0,.95-.06,1.4-.17.45-.11.91-.29,1.36-.55v1.19c-.45.2-.91.35-1.39.43-.48.08-.97.14-1.44.14-1.23,0-2.2-.35-2.91-1.05s-1.06-1.67-1.06-2.88.34-2.24,1.01-2.98c.67-.73,1.6-1.11,2.74-1.11,1.04,0,1.85.34,2.45.99.59.67.9,1.57.9,2.7Z"/>
  <path class="cls-7" d="M207.05,298.2c-.14-.08-.29-.14-.46-.18-.17-.03-.35-.06-.55-.06-.71,0-1.26.24-1.64.7-.39.46-.57,1.12-.57,1.99v4.03h-1.26v-7.66h1.26v1.19c.25-.46.6-.81,1.02-1.04.42-.22.94-.34,1.55-.34.08,0,.18.01.29.01.1.01.21.03.35.06v1.29Z"/>
  <path class="cls-7" d="M215.78,296.85c1.09,0,1.95.36,2.58,1.06.62.71.94,1.69.94,2.95s-.32,2.24-.94,2.94c-.63.71-1.48,1.06-2.58,1.06s-1.97-.35-2.59-1.06c-.62-.7-.92-1.68-.92-2.94s.31-2.24.92-2.95c.62-.7,1.48-1.06,2.59-1.06ZM215.78,297.91c-.67,0-1.2.27-1.6.8s-.59,1.25-.59,2.16.18,1.64.57,2.17c.39.53.92.78,1.61.78s1.2-.25,1.6-.78c.39-.53.59-1.25.59-2.17s-.2-1.62-.59-2.16-.92-.8-1.6-.8Z"/>
  <path class="cls-7" d="M225.26,294.05v1.05h-1.2c-.45,0-.77.1-.94.28-.18.18-.27.5-.27.98v.67h2.07v.98h-2.07v6.68h-1.26v-6.68h-1.2v-.98h1.2v-.53c0-.84.2-1.47.59-1.86.39-.39,1.02-.59,1.89-.59h1.19Z"/>
  <path class="cls-7" d="M231.52,300.86c0,.92.18,1.65.56,2.18.38.53.9.78,1.57.78s1.19-.25,1.58-.78c.38-.53.57-1.26.57-2.18s-.2-1.64-.57-2.17c-.39-.53-.91-.8-1.58-.8s-1.19.27-1.57.8c-.38.53-.56,1.25-.56,2.17ZM235.8,298.19v-4.14h1.26v10.64h-1.26v-1.15c-.27.46-.6.8-1.01,1.01-.41.21-.88.32-1.44.32-.92,0-1.68-.36-2.27-1.09s-.87-1.71-.87-2.91.28-2.17.87-2.91c.59-.73,1.34-1.11,2.27-1.11.56,0,1.04.11,1.44.34.41.22.74.56,1.01,1.01Z"/>
  <path class="cls-7" d="M245.64,300.32v4.37h-1.26v-1.16c-.29.48-.66.81-1.08,1.02s-.95.32-1.57.32c-.78,0-1.41-.21-1.88-.64s-.69-1.02-.69-1.76c0-.85.28-1.5.87-1.95.57-.43,1.43-.66,2.58-.66h1.76v-.13c0-.57-.2-1.02-.57-1.34-.38-.31-.91-.48-1.6-.48-.45,0-.87.06-1.29.17-.42.11-.81.27-1.19.46v-1.16c.45-.17.9-.31,1.33-.39.43-.08.85-.14,1.27-.14,1.11,0,1.93.29,2.48.87.55.57.83,1.44.83,2.6ZM243.13,300.84c-1.02,0-1.72.13-2.11.35-.39.24-.59.63-.59,1.19,0,.45.14.81.43,1.06.29.27.7.39,1.2.39.7,0,1.26-.24,1.68-.74.42-.49.63-1.15.63-1.97v-.28h-1.25Z"/>
  <path class="cls-7" d="M249.47,294.86v2.17h2.59v.98h-2.59v4.16c0,.63.08,1.04.25,1.2.17.18.52.27,1.05.27h1.29v1.05h-1.29c-.98,0-1.65-.18-2.02-.55-.36-.36-.55-1.02-.55-1.97v-4.16h-.92v-.98h.92v-2.17h1.26Z"/>
  <path class="cls-7" d="M259.71,300.32v4.37h-1.26v-1.16c-.29.48-.66.81-1.08,1.02s-.95.32-1.57.32c-.78,0-1.41-.21-1.88-.64s-.69-1.02-.69-1.76c0-.85.28-1.5.87-1.95.57-.43,1.43-.66,2.58-.66h1.76v-.13c0-.57-.2-1.02-.57-1.34-.38-.31-.91-.48-1.6-.48-.45,0-.87.06-1.29.17-.42.11-.81.27-1.19.46v-1.16c.45-.17.9-.31,1.33-.39.43-.08.85-.14,1.27-.14,1.11,0,1.93.29,2.48.87.55.57.83,1.44.83,2.6ZM257.2,300.84c-1.02,0-1.72.13-2.11.35-.39.24-.59.63-.59,1.19,0,.45.14.81.43,1.06.29.27.7.39,1.2.39.7,0,1.26-.24,1.68-.74.42-.49.63-1.15.63-1.97v-.28h-1.25Z"/>
  <path class="cls-7" d="M269.71,296.85c1.09,0,1.95.36,2.58,1.06.62.71.94,1.69.94,2.95s-.32,2.24-.94,2.94c-.63.71-1.48,1.06-2.58,1.06s-1.97-.35-2.59-1.06c-.62-.7-.92-1.68-.92-2.94s.31-2.24.92-2.95c.62-.7,1.48-1.06,2.59-1.06ZM269.71,297.91c-.67,0-1.2.27-1.6.8s-.59,1.25-.59,2.16.18,1.64.57,2.17c.39.53.92.78,1.61.78s1.2-.25,1.6-.78c.39-.53.59-1.25.59-2.17s-.2-1.62-.59-2.16-.92-.8-1.6-.8Z"/>
  <path class="cls-7" d="M276.53,298.19c.25-.45.59-.78.99-1.01.41-.22.9-.34,1.46-.34.92,0,1.68.38,2.27,1.11.57.74.87,1.71.87,2.91s-.29,2.18-.87,2.91c-.59.73-1.34,1.09-2.27,1.09-.56,0-1.05-.11-1.46-.32-.41-.21-.74-.55-.99-1.01v1.15h-1.26v-10.64h1.26v4.14ZM280.81,300.86c0-.92-.2-1.64-.57-2.17-.39-.53-.91-.8-1.57-.8s-1.19.27-1.57.8c-.39.53-.57,1.25-.57,2.17s.18,1.65.57,2.18c.38.53.9.78,1.57.78s1.18-.25,1.57-.78c.38-.53.57-1.26.57-2.18Z"/>
  <path class="cls-7" d="M284.2,294.05h1.26v1.6h-1.26v-1.6ZM284.2,297.03h1.26v7.78c0,.97-.2,1.67-.56,2.11-.38.43-.98.66-1.79.66h-.46v-1.06h.32c.48,0,.8-.11.97-.34s.27-.69.27-1.37v-7.78Z"/>
  <path class="cls-7" d="M293.38,300.18c-.01-.69-.21-1.23-.57-1.65-.38-.41-.88-.62-1.5-.62-.7,0-1.26.21-1.68.6-.42.39-.67.95-.73,1.67h4.48ZM294.64,300.54v.62h-5.78c.06.87.31,1.54.78,1.99.46.45,1.11.67,1.95.67.48,0,.95-.06,1.4-.17.45-.11.91-.29,1.36-.55v1.19c-.45.2-.91.35-1.39.43-.48.08-.97.14-1.44.14-1.23,0-2.2-.35-2.91-1.05-.71-.7-1.06-1.67-1.06-2.88s.34-2.24,1.01-2.98c.67-.73,1.6-1.11,2.74-1.11,1.04,0,1.85.34,2.45.99.59.67.9,1.57.9,2.7Z"/>
  <path class="cls-7" d="M302.22,297.32v1.18c-.36-.2-.71-.34-1.08-.43-.36-.1-.71-.15-1.08-.15-.81,0-1.46.27-1.9.78s-.67,1.25-.67,2.17.22,1.67.67,2.18c.45.52,1.09.77,1.9.77.36,0,.71-.04,1.08-.14.36-.1.71-.25,1.08-.45v1.16c-.36.17-.73.29-1.09.36-.38.07-.78.11-1.2.11-1.15,0-2.07-.35-2.74-1.08-.69-.71-1.02-1.69-1.02-2.93s.34-2.23,1.02-2.94c.69-.71,1.62-1.08,2.83-1.08.39,0,.77.04,1.13.13.36.08.73.2,1.08.35Z"/>
  <path class="cls-7" d="M305.64,294.86v2.17h2.59v.98h-2.59v4.16c0,.63.08,1.04.25,1.2.17.18.52.27,1.05.27h1.29v1.05h-1.29c-.98,0-1.65-.18-2.02-.55-.36-.36-.55-1.02-.55-1.97v-4.16h-.92v-.98h.92v-2.17h1.26Z"/>
  <path class="cls-7" d="M314.77,297.25v1.19c-.36-.17-.73-.31-1.11-.41-.39-.08-.78-.14-1.19-.14-.63,0-1.11.1-1.41.29-.31.2-.46.48-.46.85,0,.29.11.52.34.69.22.17.67.34,1.34.48l.43.1c.9.2,1.53.48,1.9.81.36.35.56.84.56,1.46,0,.71-.28,1.27-.84,1.68-.56.42-1.34.62-2.32.62-.42,0-.84-.04-1.29-.11-.45-.07-.91-.18-1.4-.35v-1.3c.46.25.92.43,1.37.55.45.13.9.18,1.34.18.59,0,1.05-.1,1.37-.29.31-.2.48-.49.48-.87,0-.34-.13-.6-.35-.78s-.73-.36-1.51-.53l-.43-.1c-.78-.17-1.36-.42-1.69-.76-.35-.34-.52-.8-.52-1.4,0-.71.25-1.27.76-1.67s1.23-.59,2.18-.59c.46,0,.9.04,1.32.11.41.07.78.17,1.13.29Z"/>
  <polygon class="cls-7" points="317.5 302.95 318.94 302.95 318.94 304.13 317.82 306.3 316.94 306.3 317.5 304.13 317.5 302.95"/>
  <rect class="cls-7" x="326.54" y="293.99" width="1.16" height="13.99"/>
  <rect class="cls-7" x="342.59" y="293.99" width="1.16" height="13.99"/>
  <g class="cls-16">
    <path class="cls-7" d="M333.79,298.4l.08.04c.76-.84,1.58-1.57,2.48-2.2.9-.62,1.72-.94,2.48-.94.5,0,.9.14,1.18.41.28.27.43.62.43,1.05,0,.39-.11.74-.32,1.02-.22.28-.49.42-.83.42-.21,0-.38-.07-.5-.21-.14-.14-.2-.31-.2-.5,0-.17.03-.31.11-.42.08-.1.17-.17.27-.2s.18-.08.27-.17c.08-.07.13-.17.13-.29,0-.14-.06-.27-.17-.38-.11-.11-.27-.17-.46-.17-.64,0-1.37.29-2.18.87-.81.59-1.62,1.36-2.44,2.34.31,1.43.84,2.6,1.57,3.51.73.92,1.5,1.37,2.34,1.37.31,0,.66-.08,1.02-.28.36-.2.64-.45.87-.76l.28.22c-.25.34-.49.62-.71.83-.22.22-.55.42-.97.6-.42.18-.9.28-1.4.28-.88,0-1.69-.41-2.45-1.22-.76-.81-1.25-1.71-1.48-2.69l-.56,1.96c-.22.81-.5,1.3-.84,1.5s-.97.28-1.88.28l.1-.34c.28,0,.5-.15.7-.48.18-.32.41-.92.66-1.81l1.44-5.07c.03-.11.06-.21.06-.32,0-.28-.22-.42-.66-.42-.11,0-.2.01-.25.01l.07-.35c1.05-.11,1.92-.28,2.62-.5l-.84,2.98Z"/>
  </g>
  <line class="cls-7" x1="50.83" y1="251.53" x2="47.33" y2="251.53"/>
  <line class="cls-5" x1="50.83" y1="251.53" x2="47.33" y2="251.53"/>
  <path class="cls-7" d="M33.03,254.5h3.44v.83h-4.63v-.83c.37-.38.88-.9,1.53-1.56.64-.65,1.05-1.07,1.22-1.26.32-.35.54-.65.66-.9.12-.24.19-.49.19-.73,0-.38-.14-.7-.41-.94-.27-.24-.62-.37-1.06-.37-.31,0-.64.06-.98.16-.34.11-.71.27-1.1.49v-1c.4-.16.77-.28,1.11-.36s.66-.12.95-.12c.75,0,1.35.19,1.8.57.45.38.68.88.68,1.51,0,.3-.06.59-.17.85-.11.27-.31.59-.61.95-.08.1-.34.37-.78.82-.44.45-1.05,1.08-1.84,1.89Z"/>
  <path class="cls-7" d="M38.55,248.04h3.87v.83h-2.97v1.79c.14-.05.29-.09.43-.11.14-.02.29-.04.43-.04.81,0,1.45.23,1.93.67.48.45.72,1.05.72,1.81s-.25,1.4-.74,1.83c-.49.43-1.18.64-2.06.64-.31,0-.62-.03-.94-.07-.32-.05-.64-.12-.98-.23v-.99c.29.16.59.28.91.36.31.08.64.11.99.11.56,0,1.01-.14,1.34-.44.32-.3.49-.7.49-1.21s-.17-.9-.49-1.2c-.33-.3-.78-.45-1.34-.45-.26,0-.53.03-.79.09-.26.06-.53.15-.8.27v-3.66Z"/>
  <line class="cls-7" x1="50.83" y1="218.34" x2="47.33" y2="218.34"/>
  <line class="cls-5" x1="50.83" y1="218.34" x2="47.33" y2="218.34"/>
  <path class="cls-7" d="M32.19,214.84h3.87v.83h-2.97v1.79c.14-.05.29-.09.43-.11.14-.02.29-.04.43-.04.81,0,1.45.23,1.93.67.48.45.72,1.05.72,1.81s-.25,1.4-.74,1.83-1.18.64-2.06.64c-.31,0-.62-.03-.94-.07-.32-.05-.64-.12-.98-.23v-.99c.29.16.59.28.91.36.31.08.64.11.99.11.56,0,1.01-.14,1.34-.44.32-.3.49-.7.49-1.21s-.17-.9-.49-1.2c-.33-.3-.78-.45-1.34-.45-.26,0-.53.03-.79.09-.26.06-.53.15-.8.27v-3.66Z"/>
  <path class="cls-7" d="M40.65,214.71c.81,0,1.43.33,1.87.97.43.65.65,1.59.65,2.81s-.22,2.17-.65,2.81c-.44.64-1.06.96-1.88.96s-1.44-.32-1.87-.96-.64-1.58-.64-2.81.21-2.16.64-2.81c.43-.64,1.06-.97,1.88-.97ZM40.65,215.49c-.51,0-.89.25-1.15.75-.26.5-.38,1.25-.38,2.25s.12,1.75.38,2.25c.26.5.64.75,1.15.75s.89-.25,1.15-.75c.25-.5.38-1.25.38-2.25s-.13-1.75-.38-2.25c-.26-.5-.64-.75-1.15-.75Z"/>
  <line class="cls-7" x1="50.83" y1="185.14" x2="47.33" y2="185.14"/>
  <line class="cls-5" x1="50.83" y1="185.14" x2="47.33" y2="185.14"/>
  <polygon class="cls-7" points="31.93 181.65 36.62 181.65 36.62 182.07 33.97 188.94 32.94 188.94 35.43 182.48 31.93 182.48 31.93 181.65"/>
  <path class="cls-7" d="M38.55,181.65h3.87v.83h-2.97v1.79c.14-.05.29-.09.43-.11.14-.02.29-.04.43-.04.81,0,1.45.23,1.93.67.48.45.72,1.05.72,1.81s-.25,1.4-.74,1.83c-.49.43-1.18.64-2.06.64-.31,0-.62-.03-.94-.07-.32-.05-.64-.12-.98-.23v-.99c.29.16.59.28.91.36.31.08.64.11.99.11.56,0,1.01-.14,1.34-.44.32-.3.49-.7.49-1.21s-.17-.9-.49-1.2c-.33-.3-.78-.45-1.34-.45-.26,0-.53.03-.79.09-.26.06-.53.15-.8.27v-3.66Z"/>
  <line class="cls-7" x1="50.83" y1="151.94" x2="47.33" y2="151.94"/>
  <line class="cls-5" x1="50.83" y1="151.94" x2="47.33" y2="151.94"/>
  <polygon class="cls-7" points="25.99 154.91 27.6 154.91 27.6 149.35 25.85 149.7 25.85 148.8 27.59 148.45 28.58 148.45 28.58 154.91 30.19 154.91 30.19 155.74 25.99 155.74 25.99 154.91"/>
  <path class="cls-7" d="M34.29,148.32c.81,0,1.43.33,1.87.97.43.65.65,1.59.65,2.81s-.22,2.17-.65,2.81c-.44.64-1.06.96-1.88.96s-1.44-.32-1.87-.96c-.43-.64-.64-1.58-.64-2.81s.21-2.16.64-2.81c.43-.64,1.06-.97,1.88-.97ZM34.29,149.1c-.51,0-.89.25-1.15.75-.26.5-.38,1.25-.38,2.25s.12,1.75.38,2.25c.26.5.64.75,1.15.75s.89-.25,1.15-.75c.25-.5.38-1.25.38-2.25s-.13-1.75-.38-2.25c-.26-.5-.64-.75-1.15-.75Z"/>
  <path class="cls-7" d="M40.65,148.32c.81,0,1.43.33,1.87.97.43.65.65,1.59.65,2.81s-.22,2.17-.65,2.81c-.44.64-1.06.96-1.88.96s-1.44-.32-1.87-.96-.64-1.58-.64-2.81.21-2.16.64-2.81c.43-.64,1.06-.97,1.88-.97ZM40.65,149.1c-.51,0-.89.25-1.15.75-.26.5-.38,1.25-.38,2.25s.12,1.75.38,2.25c.26.5.64.75,1.15.75s.89-.25,1.15-.75c.25-.5.38-1.25.38-2.25s-.13-1.75-.38-2.25c-.26-.5-.64-.75-1.15-.75Z"/>
  <line class="cls-7" x1="50.83" y1="118.75" x2="47.33" y2="118.75"/>
  <line class="cls-5" x1="50.83" y1="118.75" x2="47.33" y2="118.75"/>
  <polygon class="cls-7" points="25.99 121.71 27.6 121.71 27.6 116.15 25.85 116.5 25.85 115.6 27.59 115.25 28.58 115.25 28.58 121.71 30.19 121.71 30.19 122.54 25.99 122.54 25.99 121.71"/>
  <path class="cls-7" d="M33.03,121.71h3.44v.83h-4.63v-.83c.37-.38.88-.9,1.53-1.56.64-.65,1.05-1.07,1.22-1.26.32-.35.54-.65.66-.9.12-.24.19-.49.19-.73,0-.38-.14-.7-.41-.94-.27-.24-.62-.37-1.06-.37-.31,0-.64.06-.98.16-.34.11-.71.27-1.1.49v-1c.4-.16.77-.28,1.11-.36s.66-.12.95-.12c.75,0,1.35.19,1.8.57.45.38.68.88.68,1.51,0,.3-.06.59-.17.85-.11.27-.31.59-.61.95-.08.1-.34.37-.78.82-.44.45-1.05,1.08-1.84,1.89Z"/>
  <path class="cls-7" d="M38.55,115.25h3.87v.83h-2.97v1.79c.14-.05.29-.09.43-.11s.29-.04.43-.04c.81,0,1.45.23,1.93.67.48.45.72,1.05.72,1.81s-.25,1.4-.74,1.83c-.49.43-1.18.64-2.06.64-.31,0-.62-.03-.94-.07-.32-.05-.64-.12-.98-.23v-.99c.29.16.59.28.91.36.31.08.64.11.99.11.56,0,1.01-.14,1.34-.44.32-.3.49-.7.49-1.21s-.17-.9-.49-1.2c-.33-.3-.78-.45-1.34-.45-.26,0-.53.03-.79.09-.26.06-.53.15-.8.27v-3.66Z"/>
  <line class="cls-7" x1="50.83" y1="85.55" x2="47.33" y2="85.55"/>
  <line class="cls-5" x1="50.83" y1="85.55" x2="47.33" y2="85.55"/>
  <polygon class="cls-7" points="25.99 88.52 27.6 88.52 27.6 82.96 25.85 83.31 25.85 82.41 27.59 82.06 28.58 82.06 28.58 88.52 30.19 88.52 30.19 89.35 25.99 89.35 25.99 88.52"/>
  <path class="cls-7" d="M32.19,82.06h3.87v.83h-2.97v1.79c.14-.05.29-.09.43-.11s.29-.04.43-.04c.81,0,1.45.23,1.93.67.48.45.72,1.05.72,1.81s-.25,1.4-.74,1.83c-.49.43-1.18.64-2.06.64-.31,0-.62-.03-.94-.07-.32-.05-.64-.12-.98-.23v-.99c.29.16.59.28.91.36.31.08.64.11.99.11.56,0,1.01-.14,1.34-.44.32-.3.49-.7.49-1.21s-.17-.9-.49-1.2c-.33-.3-.78-.45-1.34-.45-.26,0-.53.03-.79.09-.26.06-.53.15-.8.27v-3.66Z"/>
  <path class="cls-7" d="M40.65,81.93c.81,0,1.43.33,1.87.97.43.65.65,1.59.65,2.81s-.22,2.17-.65,2.81c-.44.64-1.06.96-1.88.96s-1.44-.32-1.87-.96-.64-1.58-.64-2.81.21-2.16.64-2.81c.43-.64,1.06-.97,1.88-.97ZM40.65,82.71c-.51,0-.89.25-1.15.75-.26.5-.38,1.25-.38,2.25s.12,1.75.38,2.25c.26.5.64.75,1.15.75s.89-.25,1.15-.75c.25-.5.38-1.25.38-2.25s-.13-1.75-.38-2.25c-.26-.5-.64-.75-1.15-.75Z"/>
  <line class="cls-7" x1="50.83" y1="52.35" x2="47.33" y2="52.35"/>
  <line class="cls-5" x1="50.83" y1="52.35" x2="47.33" y2="52.35"/>
  <polygon class="cls-7" points="25.99 55.32 27.6 55.32 27.6 49.76 25.85 50.11 25.85 49.21 27.59 48.86 28.58 48.86 28.58 55.32 30.19 55.32 30.19 56.15 25.99 56.15 25.99 55.32"/>
  <polygon class="cls-7" points="31.93 48.86 36.62 48.86 36.62 49.28 33.97 56.15 32.94 56.15 35.43 49.69 31.93 49.69 31.93 48.86"/>
  <path class="cls-7" d="M38.55,48.86h3.87v.83h-2.97v1.79c.14-.05.29-.09.43-.11s.29-.04.43-.04c.81,0,1.45.23,1.93.67.48.45.72,1.05.72,1.81s-.25,1.4-.74,1.83c-.49.43-1.18.64-2.06.64-.31,0-.62-.03-.94-.07-.32-.05-.64-.12-.98-.23v-.99c.29.16.59.28.91.36.31.08.64.11.99.11.56,0,1.01-.14,1.34-.44.32-.3.49-.7.49-1.21s-.17-.9-.49-1.2c-.33-.3-.78-.45-1.34-.45-.26,0-.53.03-.79.09-.26.06-.53.15-.8.27v-3.66Z"/>
  <line class="cls-7" x1="50.83" y1="19.16" x2="47.33" y2="19.16"/>
  <line class="cls-5" x1="50.83" y1="19.16" x2="47.33" y2="19.16"/>
  <path class="cls-7" d="M26.67,22.12h3.44v.83h-4.63v-.83c.37-.38.88-.9,1.53-1.56.64-.65,1.05-1.07,1.22-1.26.32-.35.54-.65.66-.9.12-.24.19-.49.19-.73,0-.38-.14-.7-.41-.94s-.62-.37-1.06-.37c-.31,0-.64.06-.98.16-.34.11-.71.27-1.1.49v-1c.4-.16.77-.28,1.11-.36.34-.08.66-.12.95-.12.75,0,1.35.19,1.8.57.45.38.68.88.68,1.51,0,.3-.06.59-.17.85-.11.27-.31.59-.61.95-.08.1-.34.37-.78.82s-1.05,1.08-1.84,1.89Z"/>
  <path class="cls-7" d="M34.29,15.53c.81,0,1.43.33,1.87.97.43.65.65,1.59.65,2.81s-.22,2.17-.65,2.81c-.44.64-1.06.96-1.88.96s-1.44-.32-1.87-.96c-.43-.64-.64-1.58-.64-2.81s.21-2.16.64-2.81c.43-.64,1.06-.97,1.88-.97ZM34.29,16.31c-.51,0-.89.25-1.15.75-.26.5-.38,1.25-.38,2.25s.12,1.75.38,2.25c.26.5.64.75,1.15.75s.89-.25,1.15-.75c.25-.5.38-1.25.38-2.25s-.13-1.75-.38-2.25c-.26-.5-.64-.75-1.15-.75Z"/>
  <path class="cls-7" d="M40.65,15.53c.81,0,1.43.33,1.87.97.43.65.65,1.59.65,2.81s-.22,2.17-.65,2.81c-.44.64-1.06.96-1.88.96s-1.44-.32-1.87-.96c-.43-.64-.64-1.58-.64-2.81s.21-2.16.64-2.81c.43-.64,1.06-.97,1.88-.97ZM40.65,16.31c-.51,0-.89.25-1.15.75-.26.5-.38,1.25-.38,2.25s.12,1.75.38,2.25c.26.5.64.75,1.15.75s.89-.25,1.15-.75c.25-.5.38-1.25.38-2.25s-.13-1.75-.38-2.25c-.26-.5-.64-.75-1.15-.75Z"/>
  <polygon class="cls-7" points="7.63 209.46 7.63 203.01 8.8 203.01 8.8 208.08 11.82 208.08 11.82 203.22 12.98 203.22 12.98 208.08 16.68 208.08 16.68 202.88 17.84 202.88 17.84 209.46 7.63 209.46"/>
  <polygon class="cls-7" points="10.18 194.3 13.91 197.07 17.84 194.16 17.84 195.64 14.83 197.87 17.84 200.1 17.84 201.58 13.84 198.61 10.18 201.33 10.18 199.84 12.91 197.81 10.18 195.78 10.18 194.3"/>
  <path class="cls-7" d="M13.33,187.51c-.69.01-1.23.21-1.65.57-.41.38-.62.88-.62,1.5,0,.7.21,1.26.6,1.68.39.42.95.67,1.67.73v-4.48ZM13.7,186.25h.62v5.78c.87-.06,1.54-.31,1.99-.78.45-.46.67-1.11.67-1.95,0-.48-.06-.95-.17-1.4-.11-.45-.29-.91-.55-1.36h1.19c.2.45.35.91.43,1.39.08.48.14.97.14,1.44,0,1.23-.35,2.2-1.05,2.91s-1.67,1.06-2.88,1.06-2.24-.34-2.98-1.01c-.73-.67-1.11-1.6-1.11-2.74,0-1.04.34-1.85.99-2.45.67-.59,1.57-.9,2.7-.9Z"/>
  <path class="cls-7" d="M10.48,178.68h1.18c-.2.36-.34.71-.43,1.08-.1.36-.15.71-.15,1.08,0,.81.27,1.46.78,1.9.52.45,1.25.67,2.17.67s1.67-.22,2.18-.67.77-1.09.77-1.9c0-.36-.04-.71-.14-1.08-.1-.36-.25-.71-.45-1.08h1.16c.17.36.29.73.36,1.09.07.38.11.78.11,1.2,0,1.15-.35,2.07-1.08,2.74-.71.69-1.69,1.02-2.93,1.02s-2.23-.34-2.94-1.02c-.71-.69-1.08-1.62-1.08-2.83,0-.39.04-.77.13-1.13.08-.36.2-.73.35-1.08Z"/>
  <path class="cls-7" d="M10,173.46h0ZM14.82,176.62h-4.63v-1.26h4.59c.73,0,1.26-.14,1.62-.42s.55-.7.55-1.27c0-.67-.21-1.22-.64-1.61-.43-.39-1.02-.59-1.78-.59h-4.34v-1.26h7.66v1.26h-1.18c.48.31.81.67,1.04,1.06.21.41.32.87.32,1.4,0,.88-.27,1.55-.81,2-.53.46-1.33.69-2.39.69Z"/>
  <path class="cls-7" d="M8.01,166.37h2.17v-2.59h.98v2.59h4.16c.63,0,1.04-.08,1.2-.25.18-.17.27-.52.27-1.05v-1.29h1.05v1.29c0,.98-.18,1.65-.55,2.02-.36.36-1.02.55-1.97.55h-4.16v.92h-.98v-.92h-2.17v-1.26Z"/>
  <path class="cls-7" d="M7.2,162.13v-1.26h1.6v1.26h-1.6ZM10.18,162.13v-1.26h7.66v1.26h-7.66Z"/>
  <path class="cls-7" d="M10,155.27c0-1.09.36-1.95,1.06-2.58.71-.62,1.69-.94,2.95-.94s2.24.32,2.94.94c.71.63,1.06,1.48,1.06,2.58s-.35,1.97-1.06,2.59c-.7.62-1.68.92-2.94.92s-2.24-.31-2.95-.92c-.7-.62-1.06-1.48-1.06-2.59ZM11.06,155.27c0,.67.27,1.2.8,1.6.53.39,1.25.59,2.16.59s1.64-.18,2.17-.57.78-.92.78-1.61-.25-1.2-.78-1.6-1.25-.59-2.17-.59-1.62.2-2.16.59c-.53.39-.8.92-.8,1.6Z"/>
  <path class="cls-7" d="M13.22,143.3h4.62v1.26h-4.58c-.73,0-1.26.15-1.62.43-.36.28-.55.7-.55,1.26,0,.69.22,1.22.66,1.61.43.39,1.02.59,1.76.59h4.33v1.26h-7.66v-1.26h1.19c-.45-.29-.8-.64-1.02-1.06-.22-.41-.35-.88-.35-1.41,0-.87.28-1.54.83-1.99.55-.45,1.34-.69,2.39-.69Z"/>
  <path class="cls-7" d="M8.01,135.1h2.17v-2.59h.98v2.59h4.16c.63,0,1.04-.08,1.2-.25.18-.17.27-.52.27-1.05v-1.29h1.05v1.29c0,.98-.18,1.65-.55,2.02-.36.36-1.02.55-1.97.55h-4.16v.92h-.98v-.92h-2.17v-1.26Z"/>
  <path class="cls-7" d="M7.2,130.85v-1.26h1.6v1.26h-1.6ZM10.18,130.85v-1.26h7.66v1.26h-7.66Z"/>
  <path class="cls-7" d="M11.65,121c-.56-.31-.97-.69-1.25-1.12-.27-.43-.41-.95-.41-1.55,0-.78.28-1.4.84-1.83.56-.43,1.36-.66,2.38-.66h4.62v1.26h-4.58c-.73,0-1.27.14-1.64.39-.35.27-.53.66-.53,1.19,0,.66.22,1.18.66,1.55.43.38,1.02.56,1.76.56h4.33v1.26h-4.58c-.73,0-1.27.14-1.64.39-.35.27-.53.67-.53,1.2,0,.64.22,1.16.66,1.54.43.38,1.02.56,1.76.56h4.33v1.26h-7.66v-1.26h1.19c-.46-.28-.81-.63-1.04-1.04-.22-.39-.34-.87-.34-1.43s.14-1.02.42-1.41c.28-.39.7-.67,1.23-.87Z"/>
  <path class="cls-7" d="M13.33,108.03c-.69.01-1.23.21-1.65.57-.41.38-.62.88-.62,1.5,0,.7.21,1.26.6,1.68s.95.67,1.67.73v-4.48ZM13.7,106.77h.62v5.78c.87-.06,1.54-.31,1.99-.78.45-.46.67-1.11.67-1.95,0-.48-.06-.95-.17-1.4-.11-.45-.29-.91-.55-1.36h1.19c.2.45.35.91.43,1.39s.14.97.14,1.44c0,1.23-.35,2.2-1.05,2.91s-1.67,1.06-2.88,1.06-2.24-.34-2.98-1.01c-.73-.67-1.11-1.6-1.11-2.74,0-1.04.34-1.85.99-2.45.67-.59,1.57-.9,2.7-.9Z"/>
  <path class="cls-7" d="M7.21,97.24c1.06.62,2.1,1.06,3.12,1.36,1.02.31,2.06.45,3.11.45s2.1-.14,3.12-.45c1.04-.29,2.06-.74,3.11-1.36v1.09c-1.08.69-2.11,1.2-3.15,1.54-1.04.34-2.06.5-3.08.5s-2.03-.17-3.07-.5c-1.04-.34-2.09-.84-3.16-1.54v-1.09Z"/>
  <path class="cls-7" d="M11.65,88.84c-.56-.31-.97-.69-1.25-1.12-.27-.43-.41-.95-.41-1.55,0-.78.28-1.4.84-1.83.56-.43,1.36-.66,2.38-.66h4.62v1.26h-4.58c-.73,0-1.27.14-1.64.39-.35.27-.53.66-.53,1.19,0,.66.22,1.18.66,1.55.43.38,1.02.56,1.76.56h4.33v1.26h-4.58c-.73,0-1.27.14-1.64.39-.35.27-.53.67-.53,1.2,0,.64.22,1.16.66,1.54.43.38,1.02.56,1.76.56h4.33v1.26h-7.66v-1.26h1.19c-.46-.28-.81-.63-1.04-1.04-.22-.39-.34-.87-.34-1.43s.14-1.02.42-1.41c.28-.39.7-.67,1.23-.87Z"/>
  <path class="cls-7" d="M10.41,76.28h1.19c-.17.36-.31.73-.41,1.11-.08.39-.14.78-.14,1.19,0,.63.1,1.11.29,1.41s.48.46.85.46c.29,0,.52-.11.69-.34s.34-.67.48-1.34l.1-.43c.2-.9.48-1.53.81-1.9.35-.36.84-.56,1.46-.56.71,0,1.27.28,1.68.84.42.56.62,1.34.62,2.32,0,.42-.04.84-.11,1.29-.07.45-.18.91-.35,1.4h-1.3c.25-.46.43-.92.55-1.37.13-.45.18-.9.18-1.34,0-.59-.1-1.05-.29-1.37-.2-.31-.49-.48-.87-.48-.34,0-.6.13-.78.35s-.36.73-.53,1.51l-.1.43c-.17.78-.42,1.36-.76,1.69-.34.35-.8.52-1.4.52-.71,0-1.27-.25-1.67-.76-.39-.5-.59-1.23-.59-2.18,0-.46.04-.9.11-1.32.07-.41.17-.78.29-1.13Z"/>
  <path class="cls-7" d="M7.21,74.07v-1.09c1.08-.67,2.13-1.19,3.16-1.53,1.04-.34,2.06-.52,3.07-.52s2.04.18,3.08.52c1.04.34,2.07.85,3.15,1.53v1.09c-1.05-.6-2.07-1.05-3.11-1.36-1.02-.29-2.06-.45-3.12-.45s-2.09.15-3.11.45c-1.02.31-2.06.76-3.12,1.36Z"/>
  <g class="cls-13">
    <polyline class="cls-1" points="67.06 261.22 103.13 235.87 139.2 215.6 175.28 180.56 211.35 150.82 247.42 92.07 283.49 84.75 319.57 64.99 355.64 19.3 391.71 31.59"/>
    <g class="cls-10">
      <polygon class="cls-8" points="67.06 258.22 64.06 264.22 70.06 264.22 67.06 258.22"/>
      <polygon class="cls-4" points="67.06 258.22 64.06 264.22 70.06 264.22 67.06 258.22"/>
    </g>
    <g class="cls-17">
      <polygon class="cls-8" points="103.13 232.87 100.13 238.87 106.13 238.87 103.13 232.87"/>
      <polygon class="cls-4" points="103.13 232.87 100.13 238.87 106.13 238.87 103.13 232.87"/>
    </g>
    <g class="cls-14">
      <polygon class="cls-8" points="139.2 212.6 136.2 218.6 142.2 218.6 139.2 212.6"/>
      <polygon class="cls-4" points="139.2 212.6 136.2 218.6 142.2 218.6 139.2 212.6"/>
    </g>
    <g class="cls-19">
      <polygon class="cls-8" points="175.28 177.56 172.28 183.56 178.28 183.56 175.28 177.56"/>
      <polygon class="cls-4" points="175.28 177.56 172.28 183.56 178.28 183.56 175.28 177.56"/>
    </g>
    <g class="cls-11">
      <polygon class="cls-8" points="211.35 147.82 208.35 153.82 214.35 153.82 211.35 147.82"/>
      <polygon class="cls-4" points="211.35 147.82 208.35 153.82 214.35 153.82 211.35 147.82"/>
    </g>
    <g class="cls-12">
      <polygon class="cls-8" points="247.42 89.07 244.42 95.07 250.42 95.07 247.42 89.07"/>
      <polygon class="cls-4" points="247.42 89.07 244.42 95.07 250.42 95.07 247.42 89.07"/>
    </g>
    <g class="cls-18">
      <polygon class="cls-8" points="283.49 81.75 280.49 87.75 286.49 87.75 283.49 81.75"/>
      <polygon class="cls-4" points="283.49 81.75 280.49 87.75 286.49 87.75 283.49 81.75"/>
    </g>
    <g class="cls-15">
      <polygon class="cls-8" points="319.57 61.99 316.57 67.99 322.57 67.99 319.57 61.99"/>
      <polygon class="cls-4" points="319.57 61.99 316.57 67.99 322.57 67.99 319.57 61.99"/>
    </g>
    <g class="cls-20">
      <polygon class="cls-8" points="355.64 16.3 352.64 22.3 358.64 22.3 355.64 16.3"/>
      <polygon class="cls-4" points="355.64 16.3 352.64 22.3 358.64 22.3 355.64 16.3"/>
    </g>
    <g class="cls-6">
      <polygon class="cls-8" points="391.71 28.59 388.71 34.59 394.71 34.59 391.71 28.59"/>
      <polygon class="cls-4" points="391.71 28.59 388.71 34.59 394.71 34.59 391.71 28.59"/>
    </g>
  </g>
  <line class="cls-3" x1="50.83" y1="273.31" x2="50.83" y2="7.2"/>
  <line class="cls-3" x1="407.95" y1="273.31" x2="407.95" y2="7.2"/>
  <line class="cls-3" x1="50.83" y1="273.31" x2="407.95" y2="273.31"/>
  <line class="cls-3" x1="50.83" y1="7.2" x2="407.95" y2="7.2"/>
</svg>