<?xml version="1.0" encoding="UTF-8"?>
<svg id="Layer_1" data-name="Layer 1" xmlns="http://www.w3.org/2000/svg" version="1.1" xmlns:xlink="http://www.w3.org/1999/xlink" viewBox="0 0 428.1 339.19">
  <defs>
    <style>
      .cls-1, .cls-2, .cls-3, .cls-4, .cls-5, .cls-6, .cls-7, .cls-8, .cls-9, .cls-10, .cls-11 {
        fill: none;
      }

      .cls-1, .cls-2, .cls-7, .cls-8, .cls-11 {
        stroke: #000;
      }

      .cls-1, .cls-5 {
        stroke-dasharray: 0 0 5.55 2.4;
      }

      .cls-1, .cls-5, .cls-6, .cls-8 {
        stroke-width: 1.5px;
      }

      .cls-1, .cls-5, .cls-6, .cls-8, .cls-10, .cls-11 {
        stroke-linejoin: round;
      }

      .cls-12 {
        clip-path: url(#clippath-45);
      }

      .cls-13 {
        clip-path: url(#clippath-20);
      }

      .cls-14 {
        clip-path: url(#clippath-11);
      }

      .cls-15 {
        clip-path: url(#clippath-16);
      }

      .cls-16 {
        clip-path: url(#clippath-33);
      }

      .cls-17 {
        fill: #000;
      }

      .cls-17, .cls-3, .cls-18, .cls-19 {
        stroke-width: 0px;
      }

      .cls-20 {
        clip-path: url(#clippath-47);
      }

      .cls-21 {
        clip-path: url(#clippath-41);
      }

      .cls-22 {
        clip-path: url(#clippath-32);
      }

      .cls-23 {
        clip-path: url(#clippath-2);
      }

      .cls-24 {
        clip-path: url(#clippath-13);
      }

      .cls-25 {
        clip-path: url(#clippath-37);
      }

      .cls-26 {
        clip-path: url(#clippath-46);
      }

      .cls-27 {
        clip-path: url(#clippath-25);
      }

      .cls-28 {
        clip-path: url(#clippath-15);
      }

      .cls-29 {
        clip-path: url(#clippath-6);
      }

      .cls-2, .cls-4, .cls-7, .cls-9 {
        stroke-miterlimit: 10;
      }

      .cls-30 {
        clip-path: url(#clippath-40);
      }

      .cls-31 {
        clip-path: url(#clippath-26);
      }

      .cls-4 {
        stroke: #ccc;
      }

      .cls-4, .cls-10, .cls-19 {
        opacity: .5;
      }

      .cls-32 {
        clip-path: url(#clippath-7);
      }

      .cls-33 {
        clip-path: url(#clippath-21);
      }

      .cls-5, .cls-6, .cls-9 {
        stroke: red;
      }

      .cls-34 {
        clip-path: url(#clippath-34);
      }

      .cls-35 {
        clip-path: url(#clippath-1);
      }

      .cls-36 {
        clip-path: url(#clippath-4);
      }

      .cls-37 {
        clip-path: url(#clippath-38);
      }

      .cls-38 {
        clip-path: url(#clippath-36);
      }

      .cls-39 {
        clip-path: url(#clippath-27);
      }

      .cls-40 {
        clip-path: url(#clippath-44);
      }

      .cls-41 {
        clip-path: url(#clippath-12);
      }

      .cls-6, .cls-7, .cls-8 {
        stroke-linecap: square;
      }

      .cls-42 {
        clip-path: url(#clippath-24);
      }

      .cls-43 {
        clip-path: url(#clippath-30);
      }

      .cls-44 {
        clip-path: url(#clippath-22);
      }

      .cls-45 {
        clip-path: url(#clippath-9);
      }

      .cls-46 {
        clip-path: url(#clippath-52);
      }

      .cls-47 {
        clip-path: url(#clippath);
      }

      .cls-48 {
        clip-path: url(#clippath-50);
      }

      .cls-49 {
        clip-path: url(#clippath-48);
      }

      .cls-50 {
        clip-path: url(#clippath-39);
      }

      .cls-51 {
        clip-path: url(#clippath-19);
      }

      .cls-52 {
        clip-path: url(#clippath-31);
      }

      .cls-53 {
        clip-path: url(#clippath-54);
      }

      .cls-54 {
        clip-path: url(#clippath-3);
      }

      .cls-7, .cls-10, .cls-11 {
        stroke-width: .8px;
      }

      .cls-55 {
        clip-path: url(#clippath-43);
      }

      .cls-56 {
        clip-path: url(#clippath-8);
      }

      .cls-57 {
        clip-path: url(#clippath-55);
      }

      .cls-18, .cls-19 {
        fill: #fff;
      }

      .cls-58 {
        clip-path: url(#clippath-29);
      }

      .cls-59 {
        clip-path: url(#clippath-18);
      }

      .cls-60 {
        clip-path: url(#clippath-14);
      }

      .cls-61 {
        clip-path: url(#clippath-17);
      }

      .cls-62 {
        clip-path: url(#clippath-5);
      }

      .cls-10 {
        stroke: #b0b0b0;
        stroke-dasharray: 0 0 2.96 1.28;
      }

      .cls-63 {
        clip-path: url(#clippath-42);
      }

      .cls-64 {
        clip-path: url(#clippath-10);
      }

      .cls-65 {
        clip-path: url(#clippath-23);
      }

      .cls-66 {
        clip-path: url(#clippath-56);
      }

      .cls-67 {
        clip-path: url(#clippath-53);
      }

      .cls-68 {
        clip-path: url(#clippath-49);
      }

      .cls-69 {
        clip-path: url(#clippath-51);
      }

      .cls-70 {
        clip-path: url(#clippath-28);
      }

      .cls-71 {
        clip-path: url(#clippath-35);
      }
    </style>
    <clipPath id="clippath">
      <rect class="cls-3" x="48.72" y="18.12" width="372.19" height="277.2"/>
    </clipPath>
    <clipPath id="clippath-1">
      <rect class="cls-3" x="48.72" y="18.12" width="372.19" height="277.2"/>
    </clipPath>
    <clipPath id="clippath-2">
      <rect class="cls-3" x="48.72" y="18.12" width="372.19" height="277.2"/>
    </clipPath>
    <clipPath id="clippath-3">
      <rect class="cls-3" x="48.72" y="18.12" width="372.19" height="277.2"/>
    </clipPath>
    <clipPath id="clippath-4">
      <rect class="cls-3" x="48.72" y="18.12" width="372.19" height="277.2"/>
    </clipPath>
    <clipPath id="clippath-5">
      <rect class="cls-3" x="344.51" y="311.36" width="40.14" height="21.28"/>
    </clipPath>
    <clipPath id="clippath-6">
      <rect class="cls-3" x="48.72" y="18.12" width="372.19" height="277.2"/>
    </clipPath>
    <clipPath id="clippath-7">
      <rect class="cls-3" x="48.72" y="18.12" width="372.19" height="277.2"/>
    </clipPath>
    <clipPath id="clippath-8">
      <rect class="cls-3" x="48.72" y="18.12" width="372.19" height="277.2"/>
    </clipPath>
    <clipPath id="clippath-9">
      <rect class="cls-3" x="48.72" y="18.12" width="372.19" height="277.2"/>
    </clipPath>
    <clipPath id="clippath-10">
      <rect class="cls-3" x="48.72" y="18.12" width="372.19" height="277.2"/>
    </clipPath>
    <clipPath id="clippath-11">
      <rect class="cls-3" x="48.72" y="18.12" width="372.19" height="277.2"/>
    </clipPath>
    <clipPath id="clippath-12">
      <rect class="cls-3" x="48.72" y="18.12" width="372.19" height="277.2"/>
    </clipPath>
    <clipPath id="clippath-13">
      <rect class="cls-3" x="48.72" y="18.12" width="372.19" height="277.2"/>
    </clipPath>
    <clipPath id="clippath-14">
      <rect class="cls-3" x="57.63" y="94.5" width="16" height="16"/>
    </clipPath>
    <clipPath id="clippath-15">
      <rect class="cls-3" x="95.23" y="102.55" width="16" height="16"/>
    </clipPath>
    <clipPath id="clippath-16">
      <rect class="cls-3" x="132.82" y="109.28" width="16" height="16"/>
    </clipPath>
    <clipPath id="clippath-17">
      <rect class="cls-3" x="170.42" y="118.72" width="16" height="16"/>
    </clipPath>
    <clipPath id="clippath-18">
      <rect class="cls-3" x="208.01" y="137.88" width="16" height="16"/>
    </clipPath>
    <clipPath id="clippath-19">
      <rect class="cls-3" x="245.61" y="153.57" width="16" height="16"/>
    </clipPath>
    <clipPath id="clippath-20">
      <rect class="cls-3" x="283.2" y="173.94" width="16" height="16"/>
    </clipPath>
    <clipPath id="clippath-21">
      <rect class="cls-3" x="320.79" y="193.89" width="16" height="16"/>
    </clipPath>
    <clipPath id="clippath-22">
      <rect class="cls-3" x="358.39" y="212.16" width="16" height="16"/>
    </clipPath>
    <clipPath id="clippath-23">
      <rect class="cls-3" x="395.98" y="229.01" width="16" height="16"/>
    </clipPath>
    <clipPath id="clippath-24">
      <rect class="cls-3" x="48.72" y="18.12" width="372.19" height="277.2"/>
    </clipPath>
    <clipPath id="clippath-25">
      <rect class="cls-3" x="57.63" y="250.66" width="16" height="16"/>
    </clipPath>
    <clipPath id="clippath-26">
      <rect class="cls-3" x="95.23" y="251.3" width="16" height="16"/>
    </clipPath>
    <clipPath id="clippath-27">
      <rect class="cls-3" x="132.82" y="252.43" width="16" height="16"/>
    </clipPath>
    <clipPath id="clippath-28">
      <rect class="cls-3" x="170.42" y="254.1" width="16" height="16"/>
    </clipPath>
    <clipPath id="clippath-29">
      <rect class="cls-3" x="208.01" y="256.54" width="16" height="16"/>
    </clipPath>
    <clipPath id="clippath-30">
      <rect class="cls-3" x="245.61" y="259.51" width="16" height="16"/>
    </clipPath>
    <clipPath id="clippath-31">
      <rect class="cls-3" x="283.2" y="263.06" width="16" height="16"/>
    </clipPath>
    <clipPath id="clippath-32">
      <rect class="cls-3" x="320.79" y="266.94" width="16" height="16"/>
    </clipPath>
    <clipPath id="clippath-33">
      <rect class="cls-3" x="358.39" y="271" width="16" height="16"/>
    </clipPath>
    <clipPath id="clippath-34">
      <rect class="cls-3" x="395.98" y="274.72" width="16" height="16"/>
    </clipPath>
    <clipPath id="clippath-35">
      <rect class="cls-3" x="48.72" y="18.12" width="372.19" height="277.2"/>
    </clipPath>
    <clipPath id="clippath-36">
      <rect class="cls-3" x="57.63" y="22.72" width="16" height="16"/>
    </clipPath>
    <clipPath id="clippath-37">
      <rect class="cls-3" x="95.23" y="27.8" width="16" height="16"/>
    </clipPath>
    <clipPath id="clippath-38">
      <rect class="cls-3" x="132.82" y="33.42" width="16" height="16"/>
    </clipPath>
    <clipPath id="clippath-39">
      <rect class="cls-3" x="170.42" y="41.23" width="16" height="16"/>
    </clipPath>
    <clipPath id="clippath-40">
      <rect class="cls-3" x="208.01" y="60.59" width="16" height="16"/>
    </clipPath>
    <clipPath id="clippath-41">
      <rect class="cls-3" x="245.61" y="78.25" width="16" height="16"/>
    </clipPath>
    <clipPath id="clippath-42">
      <rect class="cls-3" x="283.2" y="103.38" width="16" height="16"/>
    </clipPath>
    <clipPath id="clippath-43">
      <rect class="cls-3" x="320.79" y="131.84" width="16" height="16"/>
    </clipPath>
    <clipPath id="clippath-44">
      <rect class="cls-3" x="358.39" y="162.73" width="16" height="16"/>
    </clipPath>
    <clipPath id="clippath-45">
      <rect class="cls-3" x="395.98" y="192.95" width="16" height="16"/>
    </clipPath>
    <clipPath id="clippath-46">
      <rect class="cls-3" x="48.72" y="18.12" width="372.19" height="277.2"/>
    </clipPath>
    <clipPath id="clippath-47">
      <rect class="cls-3" x="57.63" y="245.24" width="16" height="16"/>
    </clipPath>
    <clipPath id="clippath-48">
      <rect class="cls-3" x="95.23" y="245.89" width="16" height="16"/>
    </clipPath>
    <clipPath id="clippath-49">
      <rect class="cls-3" x="132.82" y="247.08" width="16" height="16"/>
    </clipPath>
    <clipPath id="clippath-50">
      <rect class="cls-3" x="170.42" y="248.87" width="16" height="16"/>
    </clipPath>
    <clipPath id="clippath-51">
      <rect class="cls-3" x="208.01" y="251.44" width="16" height="16"/>
    </clipPath>
    <clipPath id="clippath-52">
      <rect class="cls-3" x="245.61" y="254.72" width="16" height="16"/>
    </clipPath>
    <clipPath id="clippath-53">
      <rect class="cls-3" x="283.2" y="258.77" width="16" height="16"/>
    </clipPath>
    <clipPath id="clippath-54">
      <rect class="cls-3" x="320.79" y="263.37" width="16" height="16"/>
    </clipPath>
    <clipPath id="clippath-55">
      <rect class="cls-3" x="358.39" y="268.3" width="16" height="16"/>
    </clipPath>
    <clipPath id="clippath-56">
      <rect class="cls-3" x="395.98" y="272.86" width="16" height="16"/>
    </clipPath>
  </defs>
  <rect class="cls-18" width="428.1" height="339.19"/>
  <rect class="cls-18" x="48.72" y="18.12" width="372.19" height="277.2"/>
  <g class="cls-47">
    <line class="cls-10" x1="103.23" y1="295.32" x2="103.23" y2="18.12"/>
  </g>
  <line class="cls-17" x1="103.23" y1="295.32" x2="103.23" y2="298.82"/>
  <line class="cls-11" x1="103.23" y1="295.32" x2="103.23" y2="298.82"/>
  <path class="cls-17" d="M98.45,302.5c.81,0,1.43.33,1.87.97.43.65.65,1.59.65,2.81s-.22,2.17-.65,2.81c-.44.64-1.06.96-1.88.96s-1.44-.32-1.87-.96-.64-1.58-.64-2.81.21-2.16.64-2.81c.43-.64,1.06-.97,1.88-.97ZM98.45,303.28c-.51,0-.89.25-1.15.75s-.38,1.25-.38,2.25.12,1.75.38,2.25.64.75,1.15.75.89-.25,1.15-.75c.25-.5.38-1.25.38-2.25s-.13-1.75-.38-2.25c-.26-.5-.64-.75-1.15-.75Z"/>
  <rect class="cls-17" x="102.7" y="308.68" width="1.03" height="1.24"/>
  <path class="cls-17" d="M106.73,309.09h3.44v.83h-4.63v-.83c.37-.38.88-.9,1.53-1.56.64-.65,1.05-1.07,1.22-1.26.32-.35.54-.65.66-.9.12-.24.19-.49.19-.73,0-.38-.14-.7-.41-.94-.27-.24-.62-.37-1.06-.37-.31,0-.64.06-.98.16-.34.11-.71.27-1.1.49v-1c.4-.16.77-.28,1.11-.36.34-.08.66-.12.95-.12.75,0,1.35.19,1.8.57.45.38.68.88.68,1.51,0,.3-.06.59-.17.85-.11.27-.31.59-.61.95-.08.1-.34.37-.78.82-.44.45-1.05,1.08-1.84,1.89Z"/>
  <g class="cls-35">
    <line class="cls-10" x1="178.42" y1="295.32" x2="178.42" y2="18.12"/>
  </g>
  <line class="cls-17" x1="178.42" y1="295.32" x2="178.42" y2="298.82"/>
  <line class="cls-11" x1="178.42" y1="295.32" x2="178.42" y2="298.82"/>
  <path class="cls-17" d="M173.64,302.5c.81,0,1.43.33,1.87.97.43.65.65,1.59.65,2.81s-.22,2.17-.65,2.81c-.44.64-1.06.96-1.88.96s-1.44-.32-1.87-.96c-.43-.64-.64-1.58-.64-2.81s.21-2.16.64-2.81c.43-.64,1.06-.97,1.88-.97ZM173.64,303.28c-.51,0-.89.25-1.15.75s-.38,1.25-.38,2.25.12,1.75.38,2.25.64.75,1.15.75.89-.25,1.15-.75c.25-.5.38-1.25.38-2.25s-.13-1.75-.38-2.25c-.26-.5-.64-.75-1.15-.75Z"/>
  <rect class="cls-17" x="177.89" y="308.68" width="1.03" height="1.24"/>
  <path class="cls-17" d="M183.52,302.63h1.24v4.75h1.04v.82h-1.04v1.72h-.98v-1.72h-3.29v-.95l3.03-4.62ZM183.78,303.49l-2.49,3.89h2.49v-3.89Z"/>
  <g class="cls-23">
    <line class="cls-10" x1="253.61" y1="295.32" x2="253.61" y2="18.12"/>
  </g>
  <line class="cls-17" x1="253.61" y1="295.32" x2="253.61" y2="298.82"/>
  <line class="cls-11" x1="253.61" y1="295.32" x2="253.61" y2="298.82"/>
  <path class="cls-17" d="M248.83,302.5c.81,0,1.43.33,1.87.97.43.65.65,1.59.65,2.81s-.22,2.17-.65,2.81c-.44.64-1.06.96-1.88.96s-1.44-.32-1.87-.96c-.43-.64-.64-1.58-.64-2.81s.21-2.16.64-2.81c.43-.64,1.06-.97,1.88-.97ZM248.83,303.28c-.51,0-.89.25-1.15.75s-.38,1.25-.38,2.25.12,1.75.38,2.25.64.75,1.15.75.89-.25,1.15-.75c.25-.5.38-1.25.38-2.25s-.13-1.75-.38-2.25c-.26-.5-.64-.75-1.15-.75Z"/>
  <rect class="cls-17" x="253.08" y="308.68" width="1.03" height="1.24"/>
  <path class="cls-17" d="M260.45,302.79v.9c-.25-.12-.5-.21-.75-.27-.26-.06-.51-.09-.75-.09-.66,0-1.16.22-1.5.66s-.54,1.11-.58,1.99c.19-.28.43-.5.72-.65s.61-.23.96-.23c.73,0,1.31.23,1.73.67.42.44.64,1.05.64,1.81s-.23,1.35-.67,1.8c-.44.45-1.03.67-1.76.67-.84,0-1.49-.32-1.93-.96-.45-.64-.67-1.58-.67-2.81,0-1.15.27-2.07.82-2.75.54-.68,1.28-1.03,2.2-1.03.24,0,.49.03.75.07.25.05.51.12.79.22ZM258.49,305.88c-.44,0-.79.16-1.05.46-.26.3-.39.72-.39,1.24s.13.95.39,1.25.61.45,1.05.45.79-.15,1.05-.45c.26-.3.39-.72.39-1.25s-.13-.94-.39-1.24c-.26-.3-.61-.46-1.05-.46Z"/>
  <g class="cls-54">
    <line class="cls-10" x1="328.79" y1="295.32" x2="328.79" y2="18.12"/>
  </g>
  <line class="cls-17" x1="328.79" y1="295.32" x2="328.79" y2="298.82"/>
  <line class="cls-11" x1="328.79" y1="295.32" x2="328.79" y2="298.82"/>
  <path class="cls-17" d="M324.02,302.5c.81,0,1.43.33,1.87.97.43.65.65,1.59.65,2.81s-.22,2.17-.65,2.81c-.44.64-1.06.96-1.88.96s-1.44-.32-1.87-.96c-.43-.64-.64-1.58-.64-2.81s.21-2.16.64-2.81c.43-.64,1.06-.97,1.88-.97ZM324.02,303.28c-.51,0-.89.25-1.15.75s-.38,1.25-.38,2.25.12,1.75.38,2.25.64.75,1.15.75.89-.25,1.15-.75c.25-.5.38-1.25.38-2.25s-.13-1.75-.38-2.25c-.26-.5-.64-.75-1.15-.75Z"/>
  <rect class="cls-17" x="328.27" y="308.68" width="1.03" height="1.24"/>
  <path class="cls-17" d="M332.21,304.48c0,.38.11.68.35.89.24.21.57.31,1,.31s.75-.1.99-.31c.24-.21.36-.51.36-.89s-.12-.67-.36-.88c-.24-.21-.57-.32-.99-.32s-.76.11-1,.32c-.24.21-.35.5-.35.88ZM332.57,306.04c-.42-.1-.75-.3-.99-.59-.24-.29-.35-.64-.35-1.06,0-.58.2-1.04.62-1.38.41-.34.98-.51,1.71-.51s1.29.17,1.71.51c.41.34.62.8.62,1.38,0,.42-.12.77-.36,1.06-.24.29-.56.49-.98.59.47.11.84.33,1.11.65.26.32.4.72.4,1.18,0,.71-.22,1.25-.65,1.62-.44.38-1.06.56-1.86.56s-1.42-.18-1.85-.56c-.43-.37-.64-.91-.64-1.62,0-.46.13-.86.4-1.18.26-.32.63-.54,1.11-.65ZM333.56,306.46c-.47,0-.84.13-1.11.38-.27.25-.4.59-.4,1.03s.13.79.4,1.04c.27.25.64.37,1.11.37s.83-.12,1.1-.38c.27-.25.41-.59.41-1.03s-.14-.78-.4-1.03c-.27-.25-.64-.38-1.11-.38Z"/>
  <g class="cls-36">
    <line class="cls-10" x1="403.98" y1="295.32" x2="403.98" y2="18.12"/>
  </g>
  <line class="cls-17" x1="403.98" y1="295.32" x2="403.98" y2="298.82"/>
  <line class="cls-11" x1="403.98" y1="295.32" x2="403.98" y2="298.82"/>
  <polygon class="cls-17" points="397.27 309.09 398.88 309.09 398.88 303.53 397.13 303.88 397.13 302.98 398.87 302.63 399.86 302.63 399.86 309.09 401.47 309.09 401.47 309.92 397.27 309.92 397.27 309.09"/>
  <rect class="cls-17" x="403.46" y="308.68" width="1.03" height="1.24"/>
  <path class="cls-17" d="M408.75,302.5c.81,0,1.43.33,1.87.97.43.65.65,1.59.65,2.81s-.22,2.17-.65,2.81c-.44.64-1.06.96-1.88.96s-1.44-.32-1.87-.96c-.43-.64-.64-1.58-.64-2.81s.21-2.16.64-2.81c.43-.64,1.06-.97,1.88-.97ZM408.75,303.28c-.51,0-.89.25-1.15.75s-.38,1.25-.38,2.25.12,1.75.38,2.25.64.75,1.15.75.89-.25,1.15-.75c.25-.5.38-1.25.38-2.25s-.13-1.75-.38-2.25c-.26-.5-.64-.75-1.15-.75Z"/>
  <path class="cls-17" d="M101.78,316.45h3.35c1.21,0,2.14.28,2.77.84.63.56.95,1.36.95,2.43s-.32,1.91-.95,2.44c-.63.56-1.56.83-2.77.83h-1.86v4.39h-1.49v-10.94ZM103.26,317.66v4.11h1.86c.69,0,1.21-.17,1.59-.52.38-.36.57-.87.57-1.53s-.19-1.16-.57-1.52c-.38-.36-.9-.54-1.59-.54h-1.86Z"/>
  <path class="cls-17" d="M113.94,318.98c1.17,0,2.09.39,2.76,1.14.66.76,1.01,1.81,1.01,3.16s-.35,2.4-1.01,3.15c-.67.76-1.59,1.14-2.76,1.14s-2.11-.38-2.77-1.14c-.66-.75-.99-1.8-.99-3.15s.33-2.4.99-3.16c.66-.75,1.59-1.14,2.77-1.14ZM113.94,320.12c-.72,0-1.29.28-1.71.85-.42.57-.63,1.33-.63,2.31s.19,1.76.61,2.32c.42.57.99.84,1.72.84s1.29-.27,1.71-.84c.42-.57.63-1.34.63-2.32s-.21-1.74-.63-2.31c-.42-.57-.99-.85-1.71-.85Z"/>
  <path class="cls-17" d="M125.84,323.29c0-.99-.21-1.75-.61-2.32-.42-.57-.98-.86-1.68-.86s-1.28.28-1.68.86c-.42.57-.62,1.33-.62,2.32s.2,1.77.62,2.34c.4.57.96.84,1.68.84s1.26-.27,1.68-.84c.4-.57.61-1.35.61-2.34ZM121.25,326.15v4.34h-1.35v-11.31h1.35v1.24c.27-.48.63-.84,1.07-1.08s.96-.36,1.56-.36c.99,0,1.8.41,2.43,1.18.61.8.93,1.83.93,3.12s-.31,2.34-.93,3.12c-.63.78-1.44,1.17-2.43,1.17-.6,0-1.12-.12-1.56-.34-.43-.23-.79-.59-1.07-1.08Z"/>
  <path class="cls-17" d="M132.72,318.98h0ZM129.33,324.14v-4.96h1.35v4.92c0,.78.15,1.35.45,1.74s.75.59,1.37.59c.72,0,1.3-.23,1.72-.69.42-.46.63-1.09.63-1.9v-4.65h1.35v8.2h-1.35v-1.26c-.33.51-.72.87-1.14,1.11-.43.22-.93.34-1.5.34-.94,0-1.66-.28-2.15-.87-.49-.57-.74-1.43-.74-2.57Z"/>
  <rect class="cls-17" x="138.97" y="315.98" width="1.35" height="11.4"/>
  <path class="cls-17" d="M149.56,322.7v4.68h-1.35v-1.24c-.32.51-.71.87-1.15,1.1-.45.22-1.02.34-1.68.34-.84,0-1.51-.22-2.01-.69-.49-.47-.74-1.1-.74-1.89,0-.91.3-1.61.93-2.09.62-.47,1.53-.7,2.76-.7h1.89v-.14c0-.61-.21-1.09-.61-1.44-.4-.33-.98-.51-1.71-.51-.48,0-.93.06-1.38.18-.45.12-.87.29-1.27.5v-1.25c.48-.18.96-.33,1.43-.42s.91-.15,1.36-.15c1.19,0,2.07.32,2.66.93.58.61.88,1.55.88,2.79ZM146.87,323.26c-1.1,0-1.85.13-2.26.38-.42.26-.63.68-.63,1.27,0,.48.15.87.46,1.14.32.28.75.42,1.29.42.75,0,1.35-.26,1.8-.8.45-.52.68-1.23.68-2.11v-.3h-1.33Z"/>
  <path class="cls-17" d="M157.08,320.44c-.15-.09-.31-.15-.49-.19-.18-.03-.38-.06-.58-.06-.76,0-1.35.25-1.76.75-.42.49-.62,1.2-.62,2.13v4.32h-1.35v-8.2h1.35v1.27c.27-.49.65-.87,1.1-1.11s1.01-.36,1.67-.36c.09,0,.19.02.31.02.11.01.23.03.38.06v1.38Z"/>
  <path class="cls-17" d="M158.5,315.98h1.35v1.71h-1.35v-1.71ZM158.5,319.18h1.35v8.2h-1.35v-8.2Z"/>
  <path class="cls-17" d="M164,316.85v2.33h2.78v1.05h-2.78v4.45c0,.67.09,1.11.27,1.29.18.19.56.28,1.12.28h1.38v1.12h-1.38c-1.05,0-1.77-.19-2.16-.59s-.58-1.1-.58-2.11v-4.45h-.99v-1.05h.99v-2.33h1.35Z"/>
  <path class="cls-17" d="M171.96,328.13c-.39.96-.76,1.61-1.12,1.9-.36.3-.84.45-1.44.45h-1.08v-1.12h.79c.36,0,.65-.09.86-.27.21-.18.43-.59.69-1.24l.24-.6-3.32-8.07h1.43l2.57,6.42,2.57-6.42h1.42l-3.6,8.95Z"/>
  <path class="cls-17" d="M183,323.29c0,.99.19,1.77.6,2.34.4.57.96.84,1.68.84s1.27-.27,1.7-.84c.4-.57.61-1.35.61-2.34s-.21-1.75-.61-2.32c-.42-.57-.98-.86-1.7-.86s-1.27.28-1.68.86c-.41.57-.6,1.33-.6,2.32ZM187.59,320.42v-4.44h1.35v11.4h-1.35v-1.23c-.29.5-.65.86-1.08,1.08-.43.22-.94.34-1.54.34-.99,0-1.8-.39-2.43-1.17-.63-.78-.93-1.83-.93-3.12s.3-2.32.93-3.12c.63-.78,1.44-1.18,2.43-1.18.6,0,1.11.12,1.54.36s.79.6,1.08,1.08Z"/>
  <path class="cls-17" d="M191.71,315.98h1.35v1.71h-1.35v-1.71ZM191.71,319.18h1.35v8.2h-1.35v-8.2Z"/>
  <path class="cls-17" d="M201.11,319.42v1.28c-.39-.18-.78-.33-1.18-.44-.42-.09-.84-.15-1.28-.15-.68,0-1.18.11-1.51.32s-.49.51-.49.92c0,.31.12.55.36.73.24.18.72.36,1.44.51l.46.1c.96.21,1.63.51,2.04.87.39.38.6.9.6,1.56,0,.77-.3,1.37-.9,1.8-.6.45-1.44.66-2.49.66-.45,0-.9-.05-1.38-.12s-.97-.19-1.5-.38v-1.39c.49.27.99.46,1.47.59.48.13.96.19,1.44.19.63,0,1.12-.1,1.47-.32.33-.21.51-.52.51-.93,0-.36-.13-.65-.38-.84-.24-.2-.78-.39-1.62-.57l-.46-.1c-.84-.18-1.46-.45-1.82-.81-.38-.36-.56-.86-.56-1.5,0-.77.27-1.36.81-1.79.54-.42,1.32-.63,2.34-.63.49,0,.96.05,1.41.12.44.08.84.18,1.22.31Z"/>
  <path class="cls-17" d="M205.03,316.85v2.33h2.78v1.05h-2.78v4.45c0,.67.09,1.11.27,1.29.18.19.56.28,1.12.28h1.38v1.12h-1.38c-1.05,0-1.77-.19-2.16-.59s-.58-1.1-.58-2.11v-4.45h-.99v-1.05h.99v-2.33h1.35Z"/>
  <path class="cls-17" d="M214.33,320.44c-.15-.09-.31-.15-.49-.19-.18-.03-.38-.06-.58-.06-.76,0-1.35.25-1.76.75-.42.49-.62,1.2-.62,2.13v4.32h-1.35v-8.2h1.35v1.27c.27-.49.65-.87,1.1-1.11s1.01-.36,1.67-.36c.09,0,.19.02.31.02.11.01.23.03.38.06v1.38Z"/>
  <path class="cls-17" d="M215.74,315.98h1.35v1.71h-1.35v-1.71ZM215.74,319.18h1.35v8.2h-1.35v-8.2Z"/>
  <path class="cls-17" d="M221.21,320.42c.27-.48.63-.84,1.07-1.08s.96-.36,1.56-.36c.99,0,1.8.41,2.43,1.18.61.8.93,1.83.93,3.12s-.32,2.34-.93,3.12c-.63.78-1.44,1.17-2.43,1.17-.6,0-1.12-.12-1.56-.34-.43-.23-.79-.59-1.07-1.08v1.23h-1.35v-11.4h1.35v4.44ZM225.8,323.29c0-.99-.21-1.75-.61-2.32-.42-.57-.98-.86-1.68-.86s-1.27.28-1.68.86c-.42.57-.62,1.33-.62,2.32s.2,1.77.62,2.34c.4.57.96.84,1.68.84s1.26-.27,1.68-.84c.4-.57.61-1.35.61-2.34Z"/>
  <path class="cls-17" d="M232.69,318.98h0ZM229.3,324.14v-4.96h1.35v4.92c0,.78.15,1.35.45,1.74s.75.59,1.37.59c.72,0,1.3-.23,1.72-.69.42-.46.63-1.09.63-1.9v-4.65h1.35v8.2h-1.35v-1.26c-.33.51-.72.87-1.14,1.11-.43.22-.93.34-1.5.34-.94,0-1.66-.28-2.15-.87-.49-.57-.74-1.43-.74-2.57Z"/>
  <path class="cls-17" d="M240.27,316.85v2.33h2.78v1.05h-2.78v4.45c0,.67.09,1.11.27,1.29.18.19.56.28,1.12.28h1.38v1.12h-1.38c-1.05,0-1.77-.19-2.16-.59s-.58-1.1-.58-2.11v-4.45h-.99v-1.05h.99v-2.33h1.35Z"/>
  <path class="cls-17" d="M244.82,315.98h1.35v1.71h-1.35v-1.71ZM244.82,319.18h1.35v8.2h-1.35v-8.2Z"/>
  <path class="cls-17" d="M252.17,318.98c1.17,0,2.09.39,2.76,1.14.66.76,1,1.81,1,3.16s-.35,2.4-1,3.15c-.68.76-1.59,1.14-2.76,1.14s-2.11-.38-2.77-1.14c-.66-.75-.99-1.8-.99-3.15s.33-2.4.99-3.16c.66-.75,1.59-1.14,2.77-1.14ZM252.17,320.12c-.72,0-1.29.28-1.71.85s-.63,1.33-.63,2.31.2,1.76.62,2.32c.42.57.99.84,1.72.84s1.29-.27,1.71-.84c.42-.57.63-1.34.63-2.32s-.21-1.74-.63-2.31-.99-.85-1.71-.85Z"/>
  <path class="cls-17" d="M264.99,322.43v4.95h-1.35v-4.9c0-.78-.17-1.35-.46-1.74-.3-.39-.75-.58-1.35-.58-.74,0-1.3.24-1.73.7s-.63,1.09-.63,1.89v4.63h-1.35v-8.2h1.35v1.27c.32-.48.69-.85,1.14-1.09.43-.24.94-.38,1.51-.38.93,0,1.65.3,2.13.89s.74,1.44.74,2.57Z"/>
  <path class="cls-17" d="M278.33,323.29c0-.99-.21-1.75-.61-2.32-.42-.57-.98-.86-1.68-.86s-1.28.28-1.68.86c-.42.57-.61,1.33-.61,2.32s.2,1.77.61,2.34c.4.57.96.84,1.68.84s1.26-.27,1.68-.84c.4-.57.61-1.35.61-2.34ZM273.74,326.15v4.34h-1.35v-11.31h1.35v1.24c.27-.48.63-.84,1.07-1.08s.96-.36,1.56-.36c.99,0,1.8.41,2.43,1.18.62.8.93,1.83.93,3.12s-.32,2.34-.93,3.12c-.63.78-1.44,1.17-2.43,1.17-.6,0-1.12-.12-1.56-.34-.43-.23-.8-.59-1.07-1.08Z"/>
  <path class="cls-17" d="M288.38,322.7v4.68h-1.35v-1.24c-.32.51-.71.87-1.15,1.1-.45.22-1.02.34-1.68.34-.84,0-1.51-.22-2.01-.69s-.74-1.1-.74-1.89c0-.91.3-1.61.93-2.09.62-.47,1.53-.7,2.76-.7h1.89v-.14c0-.61-.21-1.09-.62-1.44-.4-.33-.97-.51-1.71-.51-.48,0-.93.06-1.38.18-.45.12-.87.29-1.27.5v-1.25c.48-.18.96-.33,1.42-.42.47-.09.92-.15,1.37-.15,1.18,0,2.07.32,2.65.93.58.61.88,1.55.88,2.79ZM285.7,323.26c-1.1,0-1.85.13-2.26.38-.42.26-.63.68-.63,1.27,0,.48.15.87.46,1.14.32.28.75.42,1.29.42.75,0,1.35-.26,1.8-.8.45-.52.68-1.23.68-2.11v-.3h-1.34Z"/>
  <path class="cls-17" d="M295.91,320.44c-.15-.09-.32-.15-.49-.19-.18-.03-.38-.06-.59-.06-.76,0-1.35.25-1.76.75-.42.49-.61,1.2-.61,2.13v4.32h-1.35v-8.2h1.35v1.27c.27-.49.64-.87,1.1-1.11s1.01-.36,1.67-.36c.09,0,.2.02.32.02.1.01.23.03.38.06v1.38Z"/>
  <path class="cls-17" d="M303.74,322.7v4.68h-1.35v-1.24c-.32.51-.71.87-1.15,1.1-.45.22-1.02.34-1.68.34-.84,0-1.51-.22-2.01-.69s-.74-1.1-.74-1.89c0-.91.3-1.61.93-2.09.62-.47,1.53-.7,2.76-.7h1.89v-.14c0-.61-.21-1.09-.62-1.44-.4-.33-.97-.51-1.71-.51-.48,0-.93.06-1.38.18-.45.12-.87.29-1.27.5v-1.25c.48-.18.96-.33,1.42-.42.47-.09.92-.15,1.37-.15,1.18,0,2.07.32,2.65.93.58.61.88,1.55.88,2.79ZM301.05,323.26c-1.1,0-1.85.13-2.26.38-.42.26-.63.68-.63,1.27,0,.48.15.87.46,1.14.32.28.75.42,1.29.42.75,0,1.35-.26,1.8-.8.45-.52.68-1.23.68-2.11v-.3h-1.34Z"/>
  <path class="cls-17" d="M312.9,320.75c.33-.6.74-1.03,1.2-1.34.46-.28,1.02-.43,1.67-.43.84,0,1.5.3,1.96.9.46.6.7,1.46.7,2.55v4.95h-1.35v-4.9c0-.78-.15-1.37-.42-1.76-.29-.38-.7-.57-1.27-.57-.71,0-1.26.24-1.67.7s-.6,1.09-.6,1.89v4.63h-1.35v-4.9c0-.78-.15-1.37-.42-1.76-.29-.38-.72-.57-1.29-.57-.69,0-1.24.24-1.65.7s-.6,1.09-.6,1.89v4.63h-1.35v-8.2h1.35v1.27c.3-.49.68-.87,1.11-1.11.42-.24.93-.36,1.53-.36s1.1.15,1.51.45c.42.3.72.75.93,1.32Z"/>
  <path class="cls-17" d="M326.79,322.55c-.01-.73-.22-1.32-.61-1.77-.4-.44-.95-.66-1.61-.66-.75,0-1.35.22-1.8.64s-.72,1.02-.78,1.78h4.8ZM328.14,322.94v.66h-6.2c.06.93.33,1.65.84,2.13.49.48,1.18.72,2.08.72.51,0,1.02-.06,1.5-.18.48-.12.98-.32,1.45-.59v1.27c-.48.21-.97.38-1.48.47s-1.04.15-1.55.15c-1.32,0-2.35-.38-3.12-1.12-.76-.75-1.14-1.78-1.14-3.09s.36-2.4,1.08-3.2c.72-.78,1.71-1.18,2.94-1.18,1.11,0,1.98.36,2.62,1.07.63.72.96,1.68.96,2.9Z"/>
  <path class="cls-17" d="M331.69,316.85v2.33h2.77v1.05h-2.77v4.45c0,.67.09,1.11.27,1.29.18.19.55.28,1.12.28h1.38v1.12h-1.38c-1.05,0-1.77-.19-2.16-.59-.39-.39-.59-1.1-.59-2.11v-4.45h-.99v-1.05h.99v-2.33h1.35Z"/>
  <path class="cls-17" d="M341.9,322.55c-.01-.73-.22-1.32-.61-1.77-.4-.44-.95-.66-1.61-.66-.75,0-1.35.22-1.8.64s-.72,1.02-.78,1.78h4.8ZM343.25,322.94v.66h-6.2c.06.93.33,1.65.84,2.13.49.48,1.18.72,2.08.72.51,0,1.02-.06,1.5-.18.48-.12.98-.32,1.45-.59v1.27c-.48.21-.97.38-1.48.47s-1.04.15-1.55.15c-1.32,0-2.35-.38-3.12-1.12-.76-.75-1.14-1.78-1.14-3.09s.36-2.4,1.08-3.2c.72-.78,1.71-1.18,2.94-1.18,1.11,0,1.98.36,2.62,1.07.63.72.96,1.68.96,2.9Z"/>
  <path class="cls-17" d="M350.22,320.44c-.15-.09-.32-.15-.49-.19-.18-.03-.38-.06-.59-.06-.76,0-1.35.25-1.76.75-.42.49-.61,1.2-.61,2.13v4.32h-1.35v-8.2h1.35v1.27c.27-.49.64-.87,1.1-1.11s1.01-.36,1.67-.36c.09,0,.2.02.32.02.1.01.23.03.38.06v1.38Z"/>
  <polygon class="cls-17" points="351.97 325.52 353.52 325.52 353.52 326.78 352.32 329.11 351.37 329.11 351.97 326.78 351.97 325.52"/>
  <g class="cls-62">
    <path class="cls-17" d="M363.25,320.47l.81,5.07,3.8-6.36h1.42l-4.9,8.2-.6,3.11h-1.35l.6-3.11-.96-6.12c-.09-.61-.38-.93-.84-.93h-.36l.23-1.15h.51c.96,0,1.5.43,1.65,1.29Z"/>
  </g>
  <g class="cls-29">
    <line class="cls-10" x1="48.72" y1="292.23" x2="420.9" y2="292.23"/>
  </g>
  <line class="cls-17" x1="48.72" y1="292.23" x2="45.22" y2="292.23"/>
  <line class="cls-11" x1="48.72" y1="292.23" x2="45.22" y2="292.23"/>
  <path class="cls-17" d="M28.9,288.03c.81,0,1.43.33,1.87.97.43.65.65,1.59.65,2.81s-.22,2.17-.65,2.81c-.44.64-1.06.96-1.88.96s-1.44-.32-1.87-.96c-.43-.64-.64-1.58-.64-2.81s.21-2.16.64-2.81c.43-.64,1.06-.97,1.88-.97ZM28.9,288.81c-.51,0-.89.25-1.15.75s-.38,1.25-.38,2.25.12,1.75.38,2.25.64.75,1.15.75.89-.25,1.15-.75c.25-.5.38-1.25.38-2.25s-.13-1.75-.38-2.25c-.26-.5-.64-.75-1.15-.75Z"/>
  <rect class="cls-17" x="33.15" y="294.21" width="1.03" height="1.24"/>
  <path class="cls-17" d="M38.44,288.03c.81,0,1.43.33,1.87.97.43.65.65,1.59.65,2.81s-.22,2.17-.65,2.81c-.44.64-1.06.96-1.88.96s-1.44-.32-1.87-.96c-.43-.64-.64-1.58-.64-2.81s.21-2.16.64-2.81c.43-.64,1.06-.97,1.88-.97ZM38.44,288.81c-.51,0-.89.25-1.15.75-.26.5-.38,1.25-.38,2.25s.12,1.75.38,2.25c.26.5.64.75,1.15.75s.89-.25,1.15-.75c.25-.5.38-1.25.38-2.25s-.13-1.75-.38-2.25c-.26-.5-.64-.75-1.15-.75Z"/>
  <g class="cls-32">
    <line class="cls-10" x1="48.72" y1="251.07" x2="420.9" y2="251.07"/>
  </g>
  <line class="cls-17" x1="48.72" y1="251.07" x2="45.22" y2="251.07"/>
  <line class="cls-11" x1="48.72" y1="251.07" x2="45.22" y2="251.07"/>
  <path class="cls-17" d="M28.9,246.87c.81,0,1.43.33,1.87.97.43.65.65,1.59.65,2.81s-.22,2.17-.65,2.81c-.44.64-1.06.96-1.88.96s-1.44-.32-1.87-.96c-.43-.64-.64-1.58-.64-2.81s.21-2.16.64-2.81c.43-.64,1.06-.97,1.88-.97ZM28.9,247.65c-.51,0-.89.25-1.15.75s-.38,1.25-.38,2.25.12,1.75.38,2.25.64.75,1.15.75.89-.25,1.15-.75c.25-.5.38-1.25.38-2.25s-.13-1.75-.38-2.25c-.26-.5-.64-.75-1.15-.75Z"/>
  <rect class="cls-17" x="33.15" y="253.05" width="1.03" height="1.24"/>
  <path class="cls-17" d="M36.34,247h3.87v.83h-2.97v1.79c.14-.05.29-.09.43-.11.14-.02.29-.04.43-.04.81,0,1.45.23,1.93.67.48.45.72,1.05.72,1.81s-.25,1.4-.74,1.83-1.18.64-2.06.64c-.31,0-.62-.03-.94-.07-.32-.05-.64-.12-.98-.23v-.99c.29.16.59.28.91.36.31.08.64.11.99.11.56,0,1.01-.14,1.34-.44.32-.3.49-.7.49-1.21s-.17-.9-.49-1.2c-.33-.3-.78-.45-1.34-.45-.26,0-.53.03-.79.09-.26.06-.53.15-.8.27v-3.66Z"/>
  <g class="cls-56">
    <line class="cls-10" x1="48.72" y1="209.9" x2="420.9" y2="209.9"/>
  </g>
  <line class="cls-17" x1="48.72" y1="209.9" x2="45.22" y2="209.9"/>
  <line class="cls-11" x1="48.72" y1="209.9" x2="45.22" y2="209.9"/>
  <polygon class="cls-17" points="26.96 212.29 28.57 212.29 28.57 206.73 26.82 207.08 26.82 206.18 28.56 205.83 29.55 205.83 29.55 212.29 31.16 212.29 31.16 213.12 26.96 213.12 26.96 212.29"/>
  <rect class="cls-17" x="33.15" y="211.88" width="1.03" height="1.24"/>
  <path class="cls-17" d="M38.44,205.7c.81,0,1.43.33,1.87.97.43.65.65,1.59.65,2.81s-.22,2.17-.65,2.81c-.44.64-1.06.96-1.88.96s-1.44-.32-1.87-.96-.64-1.58-.64-2.81.21-2.16.64-2.81c.43-.64,1.06-.97,1.88-.97ZM38.44,206.48c-.51,0-.89.25-1.15.75-.26.5-.38,1.25-.38,2.25s.12,1.75.38,2.25c.26.5.64.75,1.15.75s.89-.25,1.15-.75c.25-.5.38-1.25.38-2.25s-.13-1.75-.38-2.25c-.26-.5-.64-.75-1.15-.75Z"/>
  <g class="cls-45">
    <line class="cls-10" x1="48.72" y1="168.74" x2="420.9" y2="168.74"/>
  </g>
  <line class="cls-17" x1="48.72" y1="168.74" x2="45.22" y2="168.74"/>
  <line class="cls-11" x1="48.72" y1="168.74" x2="45.22" y2="168.74"/>
  <polygon class="cls-17" points="26.96 171 28.57 171 28.57 165.44 26.82 165.79 26.82 164.89 28.56 164.54 29.55 164.54 29.55 171 31.16 171 31.16 171.83 26.96 171.83 26.96 171"/>
  <rect class="cls-17" x="33.15" y="170.59" width="1.03" height="1.24"/>
  <path class="cls-17" d="M36.34,164.54h3.87v.83h-2.97v1.79c.14-.05.29-.09.43-.11s.29-.04.43-.04c.81,0,1.45.23,1.93.67.48.45.72,1.05.72,1.81s-.25,1.4-.74,1.83c-.49.43-1.18.64-2.06.64-.31,0-.62-.03-.94-.07-.32-.05-.64-.12-.98-.23v-.99c.29.16.59.28.91.36.31.08.64.11.99.11.56,0,1.01-.14,1.34-.44.32-.3.49-.7.49-1.21s-.17-.9-.49-1.2c-.33-.3-.78-.45-1.34-.45-.26,0-.53.03-.79.09-.26.06-.53.15-.8.27v-3.66Z"/>
  <g class="cls-64">
    <line class="cls-10" x1="48.72" y1="127.57" x2="420.9" y2="127.57"/>
  </g>
  <line class="cls-17" x1="48.72" y1="127.57" x2="45.22" y2="127.57"/>
  <line class="cls-11" x1="48.72" y1="127.57" x2="45.22" y2="127.57"/>
  <path class="cls-17" d="M27.64,129.96h3.44v.83h-4.63v-.83c.37-.38.88-.9,1.53-1.56.64-.65,1.05-1.07,1.22-1.26.32-.35.54-.65.66-.9.12-.24.19-.49.19-.73,0-.38-.14-.7-.41-.94s-.62-.37-1.06-.37c-.31,0-.64.06-.98.16-.34.11-.71.27-1.1.49v-1c.4-.16.77-.28,1.11-.36s.66-.12.95-.12c.75,0,1.35.19,1.8.57.45.38.68.88.68,1.51,0,.3-.06.59-.17.85-.11.27-.31.59-.61.95-.08.1-.34.37-.78.82s-1.05,1.08-1.84,1.89Z"/>
  <rect class="cls-17" x="33.15" y="129.55" width="1.03" height="1.24"/>
  <path class="cls-17" d="M38.44,123.37c.81,0,1.43.33,1.87.97.43.65.65,1.59.65,2.81s-.22,2.17-.65,2.81c-.44.64-1.06.96-1.88.96s-1.44-.32-1.87-.96-.64-1.58-.64-2.81.21-2.16.64-2.81c.43-.64,1.06-.97,1.88-.97ZM38.44,124.15c-.51,0-.89.25-1.15.75-.26.5-.38,1.25-.38,2.25s.12,1.75.38,2.25c.26.5.64.75,1.15.75s.89-.25,1.15-.75c.25-.5.38-1.25.38-2.25s-.13-1.75-.38-2.25c-.26-.5-.64-.75-1.15-.75Z"/>
  <g class="cls-14">
    <line class="cls-10" x1="48.72" y1="86.4" x2="420.9" y2="86.4"/>
  </g>
  <line class="cls-17" x1="48.72" y1="86.4" x2="45.22" y2="86.4"/>
  <line class="cls-11" x1="48.72" y1="86.4" x2="45.22" y2="86.4"/>
  <path class="cls-17" d="M27.64,88.79h3.44v.83h-4.63v-.83c.37-.38.88-.9,1.53-1.56.64-.65,1.05-1.07,1.22-1.26.32-.35.54-.65.66-.9.12-.24.19-.49.19-.73,0-.38-.14-.7-.41-.94s-.62-.37-1.06-.37c-.31,0-.64.06-.98.16-.34.11-.71.27-1.1.49v-1c.4-.16.77-.28,1.11-.36.34-.08.66-.12.95-.12.75,0,1.35.19,1.8.57.45.38.68.88.68,1.51,0,.3-.06.59-.17.85-.11.27-.31.59-.61.95-.08.1-.34.37-.78.82s-1.05,1.08-1.84,1.89Z"/>
  <rect class="cls-17" x="33.15" y="88.38" width="1.03" height="1.24"/>
  <path class="cls-17" d="M36.34,82.33h3.87v.83h-2.97v1.79c.14-.05.29-.09.43-.11s.29-.04.43-.04c.81,0,1.45.23,1.93.67.48.45.72,1.05.72,1.81s-.25,1.4-.74,1.83c-.49.43-1.18.64-2.06.64-.31,0-.62-.03-.94-.07-.32-.05-.64-.12-.98-.23v-.99c.29.16.59.28.91.36.31.08.64.11.99.11.56,0,1.01-.14,1.34-.44.32-.3.49-.7.49-1.21s-.17-.9-.49-1.2c-.33-.3-.78-.45-1.34-.45-.26,0-.53.03-.79.09-.26.06-.53.15-.8.27v-3.66Z"/>
  <g class="cls-41">
    <line class="cls-10" x1="48.72" y1="45.24" x2="420.9" y2="45.24"/>
  </g>
  <line class="cls-17" x1="48.72" y1="45.24" x2="45.22" y2="45.24"/>
  <line class="cls-11" x1="48.72" y1="45.24" x2="45.22" y2="45.24"/>
  <path class="cls-17" d="M29.78,44.53c.47.1.84.31,1.1.63.26.32.4.72.4,1.18,0,.72-.25,1.28-.74,1.67-.5.39-1.2.58-2.11.58-.31,0-.63-.03-.95-.09-.32-.05-.66-.14-1-.26v-.95c.27.16.57.28.9.36.32.08.66.12,1.02.12.62,0,1.09-.12,1.41-.36.32-.24.49-.6.49-1.07,0-.42-.15-.76-.45-1-.3-.24-.72-.37-1.26-.37h-.85v-.81h.89c.48,0,.85-.09,1.11-.29.26-.19.39-.47.39-.84s-.14-.66-.4-.86c-.27-.2-.65-.3-1.14-.3-.27,0-.56.03-.87.09s-.65.15-1.02.27v-.88c.37-.1.72-.18,1.05-.23.32-.05.63-.08.93-.08.74,0,1.33.17,1.77.51.44.34.66.8.66,1.38,0,.4-.12.74-.35,1.02s-.56.48-.98.58Z"/>
  <rect class="cls-17" x="33.15" y="47.22" width="1.03" height="1.24"/>
  <path class="cls-17" d="M38.44,41.04c.81,0,1.43.33,1.87.97.43.65.65,1.59.65,2.81s-.22,2.17-.65,2.81c-.44.64-1.06.96-1.88.96s-1.44-.32-1.87-.96c-.43-.64-.64-1.58-.64-2.81s.21-2.16.64-2.81c.43-.64,1.06-.97,1.88-.97ZM38.44,41.82c-.51,0-.89.25-1.15.75-.26.5-.38,1.25-.38,2.25s.12,1.75.38,2.25c.26.5.64.75,1.15.75s.89-.25,1.15-.75c.25-.5.38-1.25.38-2.25s-.13-1.75-.38-2.25c-.26-.5-.64-.75-1.15-.75Z"/>
  <polygon class="cls-17" points="7.66 218.05 7.66 208.81 8.9 208.81 8.9 212.69 18.59 212.69 18.59 214.18 8.9 214.18 8.9 218.05 7.66 218.05"/>
  <path class="cls-17" d="M10.19,206.81c0-1.17.39-2.09,1.14-2.76.76-.66,1.82-1,3.16-1s2.4.35,3.15,1c.76.68,1.14,1.59,1.14,2.76s-.38,2.11-1.14,2.77c-.75.66-1.8.99-3.15.99s-2.4-.33-3.16-.99c-.75-.66-1.14-1.59-1.14-2.77ZM11.33,206.81c0,.72.28,1.29.85,1.71.57.42,1.34.63,2.31.63s1.76-.2,2.32-.62.84-.99.84-1.72-.27-1.29-.84-1.71-1.33-.63-2.32-.63-1.74.21-2.31.63c-.57.42-.85.99-.85,1.71Z"/>
  <path class="cls-17" d="M8.06,199.48h2.33v-2.78h1.05v2.78h4.46c.68,0,1.11-.09,1.29-.27.19-.18.28-.56.28-1.12v-1.38h1.12v1.38c0,1.05-.19,1.77-.58,2.16-.39.39-1.1.58-2.12.58h-4.46v.99h-1.05v-.99h-2.33v-1.35Z"/>
  <path class="cls-17" d="M13.91,188.51h4.68v1.35h-1.25c.51.32.87.71,1.1,1.15s.34,1.02.34,1.68c0,.84-.23,1.51-.69,2.01-.46.49-1.09.74-1.89.74-.91,0-1.6-.3-2.09-.93-.47-.62-.7-1.53-.7-2.76v-1.89h-.14c-.61,0-1.1.21-1.44.61-.33.4-.51.98-.51,1.71,0,.48.06.93.18,1.38.12.45.28.87.49,1.27h-1.24c-.18-.48-.33-.96-.42-1.43s-.15-.91-.15-1.36c0-1.19.32-2.07.93-2.66.61-.58,1.55-.88,2.79-.88ZM14.47,191.2c0,1.1.14,1.85.38,2.26.26.42.68.63,1.27.63.48,0,.87-.15,1.14-.46.28-.32.42-.75.42-1.29,0-.75-.25-1.35-.79-1.8-.53-.45-1.23-.67-2.12-.67h-.3v1.33Z"/>
  <rect class="cls-17" x="7.19" y="184.39" width="11.4" height="1.35"/>
  <path class="cls-17" d="M14.5,175.99c.99,0,1.77-.19,2.34-.6.57-.4.84-.96.84-1.68s-.27-1.27-.84-1.7c-.57-.4-1.35-.61-2.34-.61s-1.76.21-2.32.61c-.57.42-.85.98-.85,1.7s.28,1.27.85,1.68c.57.41,1.34.6,2.32.6ZM11.63,171.4h-4.44v-1.35h11.4v1.35h-1.23c.49.29.85.65,1.08,1.08s.34.94.34,1.54c0,.99-.39,1.8-1.17,2.43-.78.63-1.83.93-3.12.93s-2.32-.3-3.12-.93c-.78-.63-1.19-1.44-1.19-2.43,0-.6.12-1.11.36-1.54.24-.43.6-.79,1.08-1.08Z"/>
  <path class="cls-17" d="M13.76,161.6c-.74.01-1.32.23-1.77.62-.43.4-.66.94-.66,1.6,0,.75.23,1.35.65,1.8s1.02.72,1.78.78v-4.8ZM14.15,160.25h.66v6.2c.93-.06,1.65-.33,2.13-.84.48-.5.72-1.18.72-2.09,0-.51-.06-1.02-.18-1.5-.12-.48-.31-.97-.58-1.46h1.27c.21.48.38.98.47,1.49.09.51.15,1.04.15,1.54,0,1.32-.38,2.36-1.12,3.12s-1.78,1.14-3.09,1.14-2.4-.36-3.19-1.08c-.78-.72-1.19-1.71-1.19-2.94,0-1.11.36-1.98,1.06-2.62.72-.63,1.68-.96,2.9-.96Z"/>
  <rect class="cls-17" x="7.19" y="156.7" width="11.4" height="1.35"/>
  <path class="cls-17" d="M13.91,147.46h4.68v1.35h-1.25c.51.32.87.71,1.1,1.15s.34,1.02.34,1.68c0,.84-.23,1.51-.69,2.01-.46.49-1.09.74-1.89.74-.91,0-1.6-.3-2.09-.93-.47-.62-.7-1.53-.7-2.76v-1.89h-.14c-.61,0-1.1.21-1.44.61-.33.4-.51.98-.51,1.71,0,.48.06.93.18,1.38.12.45.28.87.49,1.27h-1.24c-.18-.48-.33-.96-.42-1.43s-.15-.91-.15-1.36c0-1.19.32-2.07.93-2.66.61-.58,1.55-.88,2.79-.88ZM14.47,150.14c0,1.1.14,1.85.38,2.26.26.42.68.63,1.27.63.48,0,.87-.15,1.14-.46.28-.32.42-.75.42-1.29,0-.75-.25-1.35-.79-1.8-.53-.45-1.23-.67-2.12-.67h-.3v1.33Z"/>
  <path class="cls-17" d="M19.34,141.26c.96.39,1.6.76,1.91,1.12.3.36.45.84.45,1.44v1.08h-1.12v-.79c0-.36-.09-.65-.27-.86-.18-.21-.58-.43-1.24-.69l-.6-.24-8.07,3.32v-1.43l6.42-2.57-6.42-2.57v-1.43l8.95,3.6Z"/>
  <path class="cls-17" d="M7.21,127.79c1.14.66,2.25,1.14,3.35,1.45,1.1.33,2.2.48,3.33.48s2.25-.15,3.35-.48c1.11-.31,2.2-.79,3.33-1.45v1.17c-1.16.74-2.26,1.29-3.38,1.65s-2.2.54-3.3.54-2.18-.18-3.29-.54c-1.11-.36-2.23-.9-3.39-1.65v-1.17Z"/>
  <path class="cls-17" d="M10.63,119.95h1.27c-.18.39-.33.78-.43,1.18-.09.42-.15.84-.15,1.28,0,.68.1,1.18.31,1.51s.51.49.91.49c.32,0,.56-.12.73-.36.18-.24.36-.72.51-1.44l.11-.46c.21-.96.51-1.63.87-2.04.38-.39.9-.6,1.56-.6.76,0,1.36.3,1.8.9.45.6.66,1.44.66,2.49,0,.45-.05.9-.12,1.38-.08.48-.2.97-.38,1.5h-1.4c.27-.49.47-.99.58-1.47.14-.48.19-.96.19-1.44,0-.63-.1-1.12-.31-1.47-.21-.33-.53-.51-.93-.51-.36,0-.65.13-.84.38-.19.24-.39.78-.57,1.62l-.11.46c-.18.84-.45,1.46-.81,1.82-.36.38-.85.56-1.5.56-.76,0-1.36-.27-1.78-.81-.42-.54-.63-1.32-.63-2.34,0-.49.05-.96.12-1.41.08-.43.18-.84.32-1.21Z"/>
  <path class="cls-17" d="M13.76,111.7c-.74.01-1.32.23-1.77.62-.43.4-.66.94-.66,1.6,0,.75.23,1.35.65,1.8s1.02.72,1.78.78v-4.8ZM14.15,110.35h.66v6.2c.93-.06,1.65-.33,2.13-.84.48-.5.72-1.18.72-2.09,0-.51-.06-1.02-.18-1.5-.12-.48-.31-.97-.58-1.46h1.27c.21.48.38.98.47,1.49.09.51.15,1.04.15,1.54,0,1.32-.38,2.36-1.12,3.12s-1.78,1.14-3.09,1.14-2.4-.36-3.19-1.08c-.78-.72-1.19-1.71-1.19-2.94,0-1.11.36-1.98,1.06-2.62.72-.63,1.68-.96,2.9-.96Z"/>
  <path class="cls-17" d="M10.7,102.23h1.26c-.21.39-.36.77-.47,1.16s-.16.76-.16,1.15c0,.87.28,1.56.84,2.04s1.34.72,2.32.72,1.79-.24,2.34-.72c.56-.48.83-1.17.83-2.04,0-.39-.05-.76-.15-1.15s-.27-.76-.48-1.16h1.24c.18.39.32.78.39,1.17.07.4.12.84.12,1.29,0,1.23-.38,2.22-1.15,2.94-.77.74-1.82,1.1-3.14,1.1s-2.39-.36-3.15-1.1c-.76-.74-1.15-1.74-1.15-3.03,0-.42.05-.82.14-1.21s.21-.78.38-1.16Z"/>
  <path class="cls-17" d="M7.21,100.1v-1.17c1.15-.72,2.28-1.28,3.39-1.64,1.11-.36,2.2-.55,3.29-.55s2.19.19,3.3.55,2.22.92,3.38,1.64v1.17c-1.12-.65-2.22-1.12-3.33-1.46-1.09-.32-2.2-.48-3.35-.48s-2.23.16-3.33.48c-1.1.33-2.21.81-3.35,1.46Z"/>
  <polygon class="cls-17" points="55.73 9.69 53.5 11.93 55.73 14.16 55.15 14.75 52.91 12.51 50.67 14.75 50.09 14.16 52.32 11.93 50.09 9.69 50.67 9.1 52.91 11.34 55.15 9.1 55.73 9.69"/>
  <polygon class="cls-17" points="58.33 14.23 59.94 14.23 59.94 8.67 58.19 9.02 58.19 8.12 59.93 7.77 60.92 7.77 60.92 14.23 62.53 14.23 62.53 15.06 58.33 15.06 58.33 14.23"/>
  <path class="cls-17" d="M66.64,7.64c.81,0,1.43.33,1.87.97.43.65.65,1.59.65,2.81s-.22,2.17-.65,2.81c-.44.64-1.06.96-1.88.96s-1.44-.32-1.87-.96c-.43-.64-.64-1.58-.64-2.81s.21-2.16.64-2.81c.43-.64,1.06-.97,1.88-.97ZM66.64,8.42c-.51,0-.89.25-1.15.75-.26.5-.38,1.25-.38,2.25s.12,1.75.38,2.25c.26.5.64.75,1.15.75s.89-.25,1.15-.75c.25-.5.38-1.25.38-2.25s-.13-1.75-.38-2.25c-.26-.5-.64-.75-1.15-.75Z"/>
  <polygon class="cls-17" points="70.49 6.13 73.77 6.13 73.77 6.42 71.92 11.23 71.2 11.23 72.94 6.71 70.49 6.71 70.49 6.13"/>
  <g class="cls-24">
    <polyline class="cls-6" points="65.63 102.5 103.23 110.55 140.82 117.28 178.42 126.72 216.01 145.88 253.61 161.57 291.2 181.94 328.79 201.89 366.39 220.16 403.98 237.01"/>
    <g class="cls-60">
      <polygon class="cls-9" points="65.63 99.5 62.63 105.5 68.63 105.5 65.63 99.5"/>
    </g>
    <g class="cls-28">
      <polygon class="cls-9" points="103.23 107.55 100.23 113.55 106.23 113.55 103.23 107.55"/>
    </g>
    <g class="cls-15">
      <polygon class="cls-9" points="140.82 114.28 137.82 120.28 143.82 120.28 140.82 114.28"/>
    </g>
    <g class="cls-61">
      <polygon class="cls-9" points="178.42 123.72 175.42 129.72 181.42 129.72 178.42 123.72"/>
    </g>
    <g class="cls-59">
      <polygon class="cls-9" points="216.01 142.88 213.01 148.88 219.01 148.88 216.01 142.88"/>
    </g>
    <g class="cls-51">
      <polygon class="cls-9" points="253.61 158.57 250.61 164.57 256.61 164.57 253.61 158.57"/>
    </g>
    <g class="cls-13">
      <polygon class="cls-9" points="291.2 178.94 288.2 184.94 294.2 184.94 291.2 178.94"/>
    </g>
    <g class="cls-33">
      <polygon class="cls-9" points="328.79 198.89 325.79 204.89 331.79 204.89 328.79 198.89"/>
    </g>
    <g class="cls-44">
      <polygon class="cls-9" points="366.39 217.16 363.39 223.16 369.39 223.16 366.39 217.16"/>
    </g>
    <g class="cls-65">
      <polygon class="cls-9" points="403.98 234.01 400.98 240.01 406.98 240.01 403.98 234.01"/>
    </g>
  </g>
  <g class="cls-42">
    <polyline class="cls-8" points="65.63 258.66 103.23 259.3 140.82 260.43 178.42 262.1 216.01 264.54 253.61 267.51 291.2 271.06 328.79 274.94 366.39 279 403.98 282.72"/>
    <g class="cls-27">
      <polygon class="cls-2" points="65.63 255.66 62.63 261.66 68.63 261.66 65.63 255.66"/>
    </g>
    <g class="cls-31">
      <polygon class="cls-2" points="103.23 256.3 100.23 262.3 106.23 262.3 103.23 256.3"/>
    </g>
    <g class="cls-39">
      <polygon class="cls-2" points="140.82 257.43 137.82 263.43 143.82 263.43 140.82 257.43"/>
    </g>
    <g class="cls-70">
      <polygon class="cls-2" points="178.42 259.1 175.42 265.1 181.42 265.1 178.42 259.1"/>
    </g>
    <g class="cls-58">
      <polygon class="cls-2" points="216.01 261.54 213.01 267.54 219.01 267.54 216.01 261.54"/>
    </g>
    <g class="cls-43">
      <polygon class="cls-2" points="253.61 264.51 250.61 270.51 256.61 270.51 253.61 264.51"/>
    </g>
    <g class="cls-52">
      <polygon class="cls-2" points="291.2 268.06 288.2 274.06 294.2 274.06 291.2 268.06"/>
    </g>
    <g class="cls-22">
      <polygon class="cls-2" points="328.79 271.94 325.79 277.94 331.79 277.94 328.79 271.94"/>
    </g>
    <g class="cls-16">
      <polygon class="cls-2" points="366.39 276 363.39 282 369.39 282 366.39 276"/>
    </g>
    <g class="cls-34">
      <polygon class="cls-2" points="403.98 279.72 400.98 285.72 406.98 285.72 403.98 279.72"/>
    </g>
  </g>
  <g class="cls-71">
    <polyline class="cls-5" points="65.63 30.72 103.23 35.8 140.82 41.42 178.42 49.23 216.01 68.59 253.61 86.25 291.2 111.38 328.79 139.84 366.39 170.73 403.98 200.95"/>
    <g class="cls-38">
      <polygon class="cls-9" points="65.63 27.72 62.63 33.72 68.63 33.72 65.63 27.72"/>
    </g>
    <g class="cls-25">
      <polygon class="cls-9" points="103.23 32.8 100.23 38.8 106.23 38.8 103.23 32.8"/>
    </g>
    <g class="cls-37">
      <polygon class="cls-9" points="140.82 38.42 137.82 44.42 143.82 44.42 140.82 38.42"/>
    </g>
    <g class="cls-50">
      <polygon class="cls-9" points="178.42 46.23 175.42 52.23 181.42 52.23 178.42 46.23"/>
    </g>
    <g class="cls-30">
      <polygon class="cls-9" points="216.01 65.59 213.01 71.59 219.01 71.59 216.01 65.59"/>
    </g>
    <g class="cls-21">
      <polygon class="cls-9" points="253.61 83.25 250.61 89.25 256.61 89.25 253.61 83.25"/>
    </g>
    <g class="cls-63">
      <polygon class="cls-9" points="291.2 108.38 288.2 114.38 294.2 114.38 291.2 108.38"/>
    </g>
    <g class="cls-55">
      <polygon class="cls-9" points="328.79 136.84 325.79 142.84 331.79 142.84 328.79 136.84"/>
    </g>
    <g class="cls-40">
      <polygon class="cls-9" points="366.39 167.73 363.39 173.73 369.39 173.73 366.39 167.73"/>
    </g>
    <g class="cls-12">
      <polygon class="cls-9" points="403.98 197.95 400.98 203.95 406.98 203.95 403.98 197.95"/>
    </g>
  </g>
  <g class="cls-26">
    <polyline class="cls-1" points="65.63 253.24 103.23 253.89 140.82 255.08 178.42 256.87 216.01 259.44 253.61 262.72 291.2 266.77 328.79 271.37 366.39 276.3 403.98 280.86"/>
    <g class="cls-20">
      <polygon class="cls-2" points="65.63 250.24 62.63 256.24 68.63 256.24 65.63 250.24"/>
    </g>
    <g class="cls-49">
      <polygon class="cls-2" points="103.23 250.89 100.23 256.89 106.23 256.89 103.23 250.89"/>
    </g>
    <g class="cls-68">
      <polygon class="cls-2" points="140.82 252.08 137.82 258.08 143.82 258.08 140.82 252.08"/>
    </g>
    <g class="cls-48">
      <polygon class="cls-2" points="178.42 253.87 175.42 259.87 181.42 259.87 178.42 253.87"/>
    </g>
    <g class="cls-69">
      <polygon class="cls-2" points="216.01 256.44 213.01 262.44 219.01 262.44 216.01 256.44"/>
    </g>
    <g class="cls-46">
      <polygon class="cls-2" points="253.61 259.72 250.61 265.72 256.61 265.72 253.61 259.72"/>
    </g>
    <g class="cls-67">
      <polygon class="cls-2" points="291.2 263.77 288.2 269.77 294.2 269.77 291.2 263.77"/>
    </g>
    <g class="cls-53">
      <polygon class="cls-2" points="328.79 268.37 325.79 274.37 331.79 274.37 328.79 268.37"/>
    </g>
    <g class="cls-57">
      <polygon class="cls-2" points="366.39 273.3 363.39 279.3 369.39 279.3 366.39 273.3"/>
    </g>
    <g class="cls-66">
      <polygon class="cls-2" points="403.98 277.86 400.98 283.86 406.98 283.86 403.98 277.86"/>
    </g>
  </g>
  <line class="cls-7" x1="48.72" y1="295.32" x2="48.72" y2="18.12"/>
  <line class="cls-7" x1="420.9" y1="295.32" x2="420.9" y2="18.12"/>
  <line class="cls-7" x1="48.72" y1="295.32" x2="420.9" y2="295.32"/>
  <line class="cls-7" x1="48.72" y1="18.12" x2="420.9" y2="18.12"/>
  <g>
    <rect class="cls-19" x="279.56" y="25.12" width="134.34" height="86.39" rx="2.8" ry="2.8"/>
    <rect class="cls-4" x="279.56" y="25.12" width="134.34" height="86.39" rx="2.8" ry="2.8"/>
  </g>
  <polyline class="cls-6" points="285.16 36.46 299.16 36.46 313.16 36.46"/>
  <polygon class="cls-9" points="299.16 33.46 296.16 39.46 302.16 39.46 299.16 33.46"/>
  <polygon class="cls-17" points="325.74 31.16 327.79 31.16 330.4 38.1 333.02 31.16 335.07 31.16 335.07 41.36 333.73 41.36 333.73 32.4 331.1 39.4 329.71 39.4 327.08 32.4 327.08 41.36 325.74 41.36 325.74 31.16"/>
  <polygon class="cls-17" points="340.45 41.36 336.56 31.16 338 31.16 341.23 39.75 344.47 31.16 345.91 31.16 342.02 41.36 340.45 41.36"/>
  <rect class="cls-17" x="347.39" y="31.16" width="1.39" height="10.21"/>
  <path class="cls-17" d="M351.52,31.16h3.12c1.13,0,2,.27,2.59.78.59.52.88,1.27.88,2.27s-.29,1.78-.88,2.28c-.59.52-1.46.77-2.59.77h-1.74v4.1h-1.39v-10.21ZM352.91,32.29v3.84h1.74c.64,0,1.13-.15,1.48-.49s.53-.81.53-1.43-.18-1.08-.53-1.41-.84-.5-1.48-.5h-1.74Z"/>
  <polyline class="cls-8" points="285.16 57.01 299.16 57.01 313.16 57.01"/>
  <polygon class="cls-2" points="299.16 54.01 296.16 60.01 302.16 60.01 299.16 54.01"/>
  <polygon class="cls-17" points="325.74 51.7 327.79 51.7 330.4 58.65 333.02 51.7 335.07 51.7 335.07 61.91 333.73 61.91 333.73 52.95 331.1 59.95 329.71 59.95 327.08 52.95 327.08 61.91 325.74 61.91 325.74 51.7"/>
  <polygon class="cls-17" points="340.45 61.91 336.56 51.7 338 51.7 341.23 60.3 344.47 51.7 345.91 51.7 342.02 61.91 340.45 61.91"/>
  <rect class="cls-17" x="347.39" y="51.7" width="1.39" height="10.21"/>
  <path class="cls-17" d="M351.52,51.7h3.12c1.13,0,2,.27,2.59.78.59.52.88,1.27.88,2.27s-.29,1.78-.88,2.28c-.59.52-1.46.77-2.59.77h-1.74v4.1h-1.39v-10.21ZM352.91,52.84v3.84h1.74c.64,0,1.13-.15,1.48-.49s.53-.81.53-1.43-.18-1.08-.53-1.41-.84-.5-1.48-.5h-1.74Z"/>
  <path class="cls-17" d="M367.39,51.28c-.62,1.06-1.06,2.1-1.36,3.12-.31,1.02-.45,2.06-.45,3.11s.14,2.1.45,3.12c.29,1.04.74,2.06,1.36,3.11h-1.09c-.69-1.08-1.2-2.11-1.54-3.15-.34-1.04-.5-2.06-.5-3.08s.17-2.03.5-3.07c.34-1.04.84-2.09,1.54-3.16h1.09Z"/>
  <polygon class="cls-17" points="369.09 54.25 370.35 54.25 371.92 60.23 373.49 54.25 374.97 54.25 376.54 60.23 378.11 54.25 379.37 54.25 377.37 61.91 375.88 61.91 374.23 55.64 372.58 61.91 371.1 61.91 369.09 54.25"/>
  <polygon class="cls-17" points="383.51 51.7 384.68 51.7 381.12 63.2 379.96 63.2 383.51 51.7"/>
  <rect class="cls-17" x="390.5" y="51.7" width="1.39" height="10.21"/>
  <path class="cls-17" d="M397.26,51.7h1.57l3.89,10.21h-1.44l-.92-2.62h-4.61l-.92,2.62h-1.46l3.89-10.21ZM398.05,53.06l-1.88,5.08h3.75l-1.88-5.08Z"/>
  <path class="cls-17" d="M403.95,51.28h1.09c.67,1.08,1.19,2.13,1.53,3.16.34,1.04.52,2.06.52,3.07s-.18,2.04-.52,3.08c-.34,1.04-.85,2.07-1.53,3.15h-1.09c.6-1.05,1.05-2.07,1.36-3.11.29-1.02.45-2.06.45-3.12s-.15-2.09-.45-3.11c-.31-1.02-.76-2.06-1.36-3.12Z"/>
  <polyline class="cls-5" points="285.16 77.56 299.16 77.56 313.16 77.56"/>
  <polygon class="cls-9" points="299.16 74.56 296.16 80.56 302.16 80.56 299.16 74.56"/>
  <polygon class="cls-17" points="328.37 82.46 324.48 72.25 325.92 72.25 329.15 80.85 332.39 72.25 333.83 72.25 329.94 82.46 328.37 82.46"/>
  <rect class="cls-17" x="335.31" y="72.25" width="1.39" height="10.21"/>
  <path class="cls-17" d="M339.44,72.25h3.12c1.13,0,2,.27,2.59.78.59.52.88,1.27.88,2.27s-.29,1.78-.88,2.28c-.59.52-1.46.77-2.59.77h-1.74v4.1h-1.39v-10.21ZM340.83,73.38v3.84h1.74c.64,0,1.13-.15,1.48-.49s.53-.81.53-1.43-.18-1.08-.53-1.41-.84-.5-1.48-.5h-1.74Z"/>
  <polyline class="cls-1" points="285.16 98.1 299.16 98.1 313.16 98.1"/>
  <polygon class="cls-2" points="299.16 95.1 296.16 101.1 302.16 101.1 299.16 95.1"/>
  <polygon class="cls-17" points="328.37 103 324.48 92.8 325.92 92.8 329.15 101.39 332.39 92.8 333.83 92.8 329.94 103 328.37 103"/>
  <rect class="cls-17" x="335.31" y="92.8" width="1.39" height="10.21"/>
  <path class="cls-17" d="M339.44,92.8h3.12c1.13,0,2,.27,2.59.78.59.52.88,1.27.88,2.27s-.29,1.78-.88,2.28c-.59.52-1.46.77-2.59.77h-1.74v4.1h-1.39v-10.21ZM340.83,93.93v3.84h1.74c.64,0,1.13-.15,1.48-.49s.53-.81.53-1.43-.18-1.08-.53-1.41c-.35-.34-.84-.5-1.48-.5h-1.74Z"/>
  <path class="cls-17" d="M355.3,92.38c-.62,1.06-1.06,2.1-1.36,3.12-.31,1.02-.45,2.06-.45,3.11s.14,2.1.45,3.12c.29,1.04.74,2.06,1.36,3.11h-1.09c-.69-1.08-1.2-2.11-1.54-3.15-.34-1.04-.5-2.06-.5-3.08s.17-2.03.5-3.07c.34-1.04.84-2.09,1.54-3.16h1.09Z"/>
  <polygon class="cls-17" points="357.01 95.35 358.27 95.35 359.84 101.32 361.41 95.35 362.89 95.35 364.46 101.32 366.03 95.35 367.29 95.35 365.29 103 363.8 103 362.15 96.73 360.5 103 359.01 103 357.01 95.35"/>
  <polygon class="cls-17" points="371.43 92.8 372.59 92.8 369.04 104.29 367.88 104.29 371.43 92.8"/>
  <rect class="cls-17" x="378.42" y="92.8" width="1.39" height="10.21"/>
  <path class="cls-17" d="M385.18,92.8h1.57l3.89,10.21h-1.44l-.92-2.62h-4.61l-.92,2.62h-1.46l3.89-10.21ZM385.96,94.16l-1.88,5.08h3.75l-1.88-5.08Z"/>
  <path class="cls-17" d="M391.87,92.38h1.09c.67,1.08,1.19,2.13,1.53,3.16.34,1.04.52,2.06.52,3.07s-.18,2.04-.52,3.08c-.34,1.04-.85,2.07-1.53,3.15h-1.09c.6-1.05,1.05-2.07,1.36-3.11.29-1.02.45-2.06.45-3.12s-.15-2.09-.45-3.11c-.31-1.02-.76-2.06-1.36-3.12Z"/>
</svg>