<?xml version="1.0" encoding="utf-8" standalone="no"?>
<!DOCTYPE svg PUBLIC "-//W3C//DTD SVG 1.1//EN"
  "http://www.w3.org/Graphics/SVG/1.1/DTD/svg11.dtd">
<svg xmlns:xlink="http://www.w3.org/1999/xlink" width="167.4pt" height="166.32pt" viewBox="0 0 167.4 166.32" xmlns="http://www.w3.org/2000/svg" version="1.1">
 <metadata>
  <rdf:RDF xmlns:dc="http://purl.org/dc/elements/1.1/" xmlns:cc="http://creativecommons.org/ns#" xmlns:rdf="http://www.w3.org/1999/02/22-rdf-syntax-ns#">
   <cc:Work>
    <dc:type rdf:resource="http://purl.org/dc/dcmitype/StillImage"/>
    <dc:date>2023-09-06T16:09:20.185975</dc:date>
    <dc:format>image/svg+xml</dc:format>
    <dc:creator>
     <cc:Agent>
      <dc:title>Matplotlib v3.7.2, https://matplotlib.org/</dc:title>
     </cc:Agent>
    </dc:creator>
   </cc:Work>
  </rdf:RDF>
 </metadata>
 <defs>
  <style type="text/css">*{stroke-linejoin: round; stroke-linecap: butt}</style>
 </defs>
 <g id="figure_1">
  <g id="patch_1">
   <path d="M 0 166.32 
L 167.4 166.32 
L 167.4 0 
L 0 0 
z
" style="fill: #ffffff"/>
  </g>
  <g id="axes_1">
   <g id="LineCollection_1">
    <path d="M 14.526446 151.887273 
L 14.526446 106.069091 
" clip-path="url(#p4a6c223c07)" style="fill: none; stroke: #000000; stroke-width: 2"/>
    <path d="M 14.526446 151.887273 
L 60.642149 151.887273 
" clip-path="url(#p4a6c223c07)" style="fill: none; stroke: #000000; stroke-width: 2"/>
    <path d="M 60.642149 151.887273 
L 60.642149 106.069091 
" clip-path="url(#p4a6c223c07)" style="fill: none; stroke: #000000; stroke-width: 2"/>
    <path d="M 60.642149 151.887273 
L 106.757851 151.887273 
" clip-path="url(#p4a6c223c07)" style="fill: none; stroke: #000000; stroke-width: 2"/>
    <path d="M 106.757851 151.887273 
L 106.757851 106.069091 
" clip-path="url(#p4a6c223c07)" style="fill: none; stroke: #000000; stroke-width: 2"/>
    <path d="M 106.757851 151.887273 
L 152.873554 151.887273 
" clip-path="url(#p4a6c223c07)" style="fill: none; stroke: #000000; stroke-width: 2"/>
    <path d="M 152.873554 151.887273 
L 152.873554 106.069091 
" clip-path="url(#p4a6c223c07)" style="fill: none; stroke: #000000; stroke-width: 2"/>
    <path d="M 14.526446 106.069091 
L 14.526446 60.250909 
" clip-path="url(#p4a6c223c07)" style="fill: none; stroke: #000000; stroke-width: 2"/>
    <path d="M 14.526446 106.069091 
L 60.642149 106.069091 
" clip-path="url(#p4a6c223c07)" style="fill: none; stroke: #000000; stroke-width: 2"/>
    <path d="M 60.642149 106.069091 
L 60.642149 60.250909 
" clip-path="url(#p4a6c223c07)" style="fill: none; stroke: #000000; stroke-width: 2"/>
    <path d="M 60.642149 106.069091 
L 106.757851 106.069091 
" clip-path="url(#p4a6c223c07)" style="fill: none; stroke: #000000; stroke-width: 2"/>
    <path d="M 106.757851 106.069091 
L 106.757851 60.250909 
" clip-path="url(#p4a6c223c07)" style="fill: none; stroke: #000000; stroke-width: 2"/>
    <path d="M 106.757851 106.069091 
L 152.873554 106.069091 
" clip-path="url(#p4a6c223c07)" style="fill: none; stroke: #000000; stroke-width: 2"/>
    <path d="M 152.873554 106.069091 
L 152.873554 60.250909 
" clip-path="url(#p4a6c223c07)" style="fill: none; stroke: #000000; stroke-width: 2"/>
    <path d="M 14.526446 60.250909 
L 14.526446 14.432727 
" clip-path="url(#p4a6c223c07)" style="fill: none; stroke: #000000; stroke-width: 2"/>
    <path d="M 14.526446 60.250909 
L 60.642149 60.250909 
" clip-path="url(#p4a6c223c07)" style="fill: none; stroke: #000000; stroke-width: 2"/>
    <path d="M 60.642149 60.250909 
L 60.642149 14.432727 
" clip-path="url(#p4a6c223c07)" style="fill: none; stroke: #000000; stroke-width: 2"/>
    <path d="M 60.642149 60.250909 
L 106.757851 60.250909 
" clip-path="url(#p4a6c223c07)" style="fill: none; stroke: #000000; stroke-width: 2"/>
    <path d="M 106.757851 60.250909 
L 106.757851 14.432727 
" clip-path="url(#p4a6c223c07)" style="fill: none; stroke: #000000; stroke-width: 2"/>
    <path d="M 106.757851 60.250909 
L 152.873554 60.250909 
" clip-path="url(#p4a6c223c07)" style="fill: none; stroke: #000000; stroke-width: 2"/>
    <path d="M 152.873554 60.250909 
L 152.873554 14.432727 
" clip-path="url(#p4a6c223c07)" style="fill: none; stroke: #000000; stroke-width: 2"/>
    <path d="M 14.526446 14.432727 
L 60.642149 14.432727 
" clip-path="url(#p4a6c223c07)" style="fill: none; stroke: #000000; stroke-width: 2"/>
    <path d="M 60.642149 14.432727 
L 106.757851 14.432727 
" clip-path="url(#p4a6c223c07)" style="fill: none; stroke: #000000; stroke-width: 2"/>
    <path d="M 106.757851 14.432727 
L 152.873554 14.432727 
" clip-path="url(#p4a6c223c07)" style="fill: none; stroke: #000000; stroke-width: 2"/>
   </g>
   <g id="PathCollection_1">
    <defs>
     <path id="m0b1b6ab1ac" d="M 0 11.18034 
C 2.965061 11.18034 5.80908 10.002309 7.905694 7.905694 
C 10.002309 5.80908 11.18034 2.965061 11.18034 0 
C 11.18034 -2.965061 10.002309 -5.80908 7.905694 -7.905694 
C 5.80908 -10.002309 2.965061 -11.18034 0 -11.18034 
C -2.965061 -11.18034 -5.80908 -10.002309 -7.905694 -7.905694 
C -10.002309 -5.80908 -11.18034 -2.965061 -11.18034 0 
C -11.18034 2.965061 -10.002309 5.80908 -7.905694 7.905694 
C -5.80908 10.002309 -2.965061 11.18034 0 11.18034 
z
" style="stroke: #ff0000; stroke-width: 2"/>
    </defs>
    <g clip-path="url(#p4a6c223c07)">
     <use xlink:href="#m0b1b6ab1ac" x="14.526446" y="151.887273" style="fill: #ff0000; stroke: #ff0000; stroke-width: 2"/>
     <use xlink:href="#m0b1b6ab1ac" x="60.642149" y="151.887273" style="fill: #ff0000; stroke: #ff0000; stroke-width: 2"/>
     <use xlink:href="#m0b1b6ab1ac" x="106.757851" y="151.887273" style="fill: #ff0000; stroke: #ff0000; stroke-width: 2"/>
     <use xlink:href="#m0b1b6ab1ac" x="152.873554" y="151.887273" style="fill: #ff0000; stroke: #ff0000; stroke-width: 2"/>
     <use xlink:href="#m0b1b6ab1ac" x="14.526446" y="106.069091" style="fill: #ff0000; stroke: #ff0000; stroke-width: 2"/>
     <use xlink:href="#m0b1b6ab1ac" x="60.642149" y="106.069091" style="fill: #ff0000; stroke: #ff0000; stroke-width: 2"/>
     <use xlink:href="#m0b1b6ab1ac" x="106.757851" y="106.069091" style="fill: #ff0000; stroke: #ff0000; stroke-width: 2"/>
     <use xlink:href="#m0b1b6ab1ac" x="152.873554" y="106.069091" style="fill: #ff0000; stroke: #ff0000; stroke-width: 2"/>
     <use xlink:href="#m0b1b6ab1ac" x="14.526446" y="60.250909" style="fill: #ff0000; stroke: #ff0000; stroke-width: 2"/>
     <use xlink:href="#m0b1b6ab1ac" x="60.642149" y="60.250909" style="fill: #ff0000; stroke: #ff0000; stroke-width: 2"/>
     <use xlink:href="#m0b1b6ab1ac" x="106.757851" y="60.250909" style="fill: #ff0000; stroke: #ff0000; stroke-width: 2"/>
     <use xlink:href="#m0b1b6ab1ac" x="152.873554" y="60.250909" style="fill: #ff0000; stroke: #ff0000; stroke-width: 2"/>
     <use xlink:href="#m0b1b6ab1ac" x="14.526446" y="14.432727" style="fill: #ff0000; stroke: #ff0000; stroke-width: 2"/>
     <use xlink:href="#m0b1b6ab1ac" x="60.642149" y="14.432727" style="fill: #ff0000; stroke: #ff0000; stroke-width: 2"/>
     <use xlink:href="#m0b1b6ab1ac" x="106.757851" y="14.432727" style="fill: #ff0000; stroke: #ff0000; stroke-width: 2"/>
     <use xlink:href="#m0b1b6ab1ac" x="152.873554" y="14.432727" style="fill: #ff0000; stroke: #ff0000; stroke-width: 2"/>
    </g>
   </g>
  </g>
 </g>
 <defs>
  <clipPath id="p4a6c223c07">
   <rect x="0" y="-0" width="167.4" height="166.32"/>
  </clipPath>
 </defs>
</svg>
