<svg xmlns="http://www.w3.org/2000/svg" xmlns:xlink="http://www.w3.org/1999/xlink" version="1.1" width="379.3275pt" height="297.36pt" viewBox="0 0 379.3275 297.36">
<defs>
<clipPath id="clip_0">
<path transform="matrix(.5,0,0,.5,-9.094719,-15.69516)" d="M.00000572 .00003052H840V630H.00000572V.00003052Z"/>
</clipPath>
</defs>
<g clip-path="url(#clip_0)">
<path transform="matrix(.5,0,0,.5,-9.094719,-15.69516)" d="M0 0H840V630H0Z" fill="#ffffff"/>
</g>
<path transform="matrix(.5,0,0,.5,-9.094719,-15.69516)" d="M0 0H840V630H0Z" fill="#ffffff"/>
<path transform="matrix(.5,0,0,.5,-9.094719,-15.69516)" d="M109 558H760V47H109Z" fill="#ffffff"/>
<path transform="matrix(.5,0,0,.5,-9.094719,-15.69516)" stroke-width="1" stroke-linecap="square" stroke-linejoin="round" fill="none" stroke="#323232" d="M109 558H760"/>
<path transform="matrix(.5,0,0,.5,-9.094719,-15.69516)" stroke-width="1" stroke-linecap="square" stroke-linejoin="round" fill="none" stroke="#323232" d="M109 47H760"/>
<path transform="matrix(.5,0,0,.5,-9.094719,-15.69516)" stroke-width="1" stroke-linecap="square" stroke-linejoin="round" fill="none" stroke="#323232" d="M155.5 558V551.49"/>
<path transform="matrix(.5,0,0,.5,-9.094719,-15.69516)" stroke-width="1" stroke-linecap="square" stroke-linejoin="round" fill="none" stroke="#323232" d="M248.5 558V551.49"/>
<path transform="matrix(.5,0,0,.5,-9.094719,-15.69516)" stroke-width="1" stroke-linecap="square" stroke-linejoin="round" fill="none" stroke="#323232" d="M341.5 558V551.49"/>
<path transform="matrix(.5,0,0,.5,-9.094719,-15.69516)" stroke-width="1" stroke-linecap="square" stroke-linejoin="round" fill="none" stroke="#323232" d="M434.5 558V551.49"/>
<path transform="matrix(.5,0,0,.5,-9.094719,-15.69516)" stroke-width="1" stroke-linecap="square" stroke-linejoin="round" fill="none" stroke="#323232" d="M527.5 558V551.49"/>
<path transform="matrix(.5,0,0,.5,-9.094719,-15.69516)" stroke-width="1" stroke-linecap="square" stroke-linejoin="round" fill="none" stroke="#323232" d="M620.5 558V551.49"/>
<path transform="matrix(.5,0,0,.5,-9.094719,-15.69516)" stroke-width="1" stroke-linecap="square" stroke-linejoin="round" fill="none" stroke="#323232" d="M713.5 558V551.49"/>
<path transform="matrix(.5,0,0,.5,-9.094719,-15.69516)" stroke-width="1" stroke-linecap="square" stroke-linejoin="round" fill="none" stroke="#323232" d="M155.5 47V53.51001"/>
<path transform="matrix(.5,0,0,.5,-9.094719,-15.69516)" stroke-width="1" stroke-linecap="square" stroke-linejoin="round" fill="none" stroke="#323232" d="M248.5 47V53.51001"/>
<path transform="matrix(.5,0,0,.5,-9.094719,-15.69516)" stroke-width="1" stroke-linecap="square" stroke-linejoin="round" fill="none" stroke="#323232" d="M341.5 47V53.51001"/>
<path transform="matrix(.5,0,0,.5,-9.094719,-15.69516)" stroke-width="1" stroke-linecap="square" stroke-linejoin="round" fill="none" stroke="#323232" d="M434.5 47V53.51001"/>
<path transform="matrix(.5,0,0,.5,-9.094719,-15.69516)" stroke-width="1" stroke-linecap="square" stroke-linejoin="round" fill="none" stroke="#323232" d="M527.5 47V53.51001"/>
<path transform="matrix(.5,0,0,.5,-9.094719,-15.69516)" stroke-width="1" stroke-linecap="square" stroke-linejoin="round" fill="none" stroke="#323232" d="M620.5 47V53.51001"/>
<path transform="matrix(.5,0,0,.5,-9.094719,-15.69516)" stroke-width="1" stroke-linecap="square" stroke-linejoin="round" fill="none" stroke="#323232" d="M713.5 47V53.51001"/>
<text fill="#323232" xml:space="preserve" transform="matrix(.5 0 0 .5 68.65527 267.30488)" font-size="20" font-family="Helvetica"><tspan y="21" x="-6">2</tspan></text>
<text fill="#323232" xml:space="preserve" transform="matrix(.5 0 0 .5 115.15527 267.30488)" font-size="20" font-family="Helvetica"><tspan y="21" x="-6">4</tspan></text>
<text fill="#323232" xml:space="preserve" transform="matrix(.5 0 0 .5 161.65529 267.30488)" font-size="20" font-family="Helvetica"><tspan y="21" x="-6">6</tspan></text>
<text fill="#323232" xml:space="preserve" transform="matrix(.5 0 0 .5 208.15529 267.30488)" font-size="20" font-family="Helvetica"><tspan y="21" x="-6">8</tspan></text>
<text fill="#323232" xml:space="preserve" transform="matrix(.5 0 0 .5 254.65529 267.30488)" font-size="20" font-family="Helvetica"><tspan y="21" x="-11.5 -.37999917">10</tspan></text>
<text fill="#323232" xml:space="preserve" transform="matrix(.5 0 0 .5 301.15528 267.30488)" font-size="20" font-family="Helvetica"><tspan y="21" x="-11.5 -.37999917">12</tspan></text>
<text fill="#323232" xml:space="preserve" transform="matrix(.5 0 0 .5 347.65528 267.30488)" font-size="20" font-family="Helvetica"><tspan y="21" x="-11.5 -.37999917">14</tspan></text>
<path transform="matrix(.5,0,0,.5,208.15544,281.30488)" d="M-13.191513 21.621766C-13.191513 22.496766-12.970159 23.23635-12.527451 23.840516-12.084743 24.444682-11.446721 24.746766-10.613388 24.746766-9.425888 24.746766-8.282659 24.473328-7.1837007 23.926453-6.084742 23.379578-5.1863048 22.621766-4.488388 21.653016-4.425888 21.590516-4.347763 21.559266-4.254013 21.559266-4.160263 21.559266-4.0613048 21.616557-3.957138 21.73114-3.8529714 21.845725-3.800888 21.94989-3.800888 22.04364-3.800888 22.126975-3.8217214 22.189475-3.863388 22.23114-4.5925548 23.251975-5.5769298 24.059266-6.816513 24.653016-8.056096 25.246766-9.342555 25.54364-10.675888 25.54364-11.634221 25.54364-12.477971 25.314475-13.207138 24.85614-13.936305 24.397807-14.501409 23.788432-14.902451 23.028016-15.303493 22.2676-15.504013 21.408225-15.504013 20.44989-15.504013 19.10614-15.129013 17.770203-14.379013 16.442078-13.629013 15.113953-12.629013 14.033223-11.379013 13.19989-10.129013 12.366557-8.816513 11.94989-7.441513 11.94989-6.535263 11.94989-5.722763 12.166036-5.004013 12.598328-4.285263 13.03062-3.925888 13.673848-3.925888 14.528015-3.925888 15.069682-4.084742 15.533223-4.4024507 15.91864-4.720159 16.304057-5.1498467 16.496766-5.691513 16.496766-6.0144298 16.496766-6.285263 16.397807-6.504013 16.19989-6.722763 16.001975-6.832138 15.741557-6.832138 15.41864-6.832138 14.94989-6.660263 14.548848-6.316513 14.215515-5.972763 13.882182-5.5717217 13.715515-5.113388 13.715515H-5.066513C-5.2956798 13.371765-5.631617 13.119161-6.0743257 12.957703-6.517034 12.796245-6.9779717 12.715515-7.457138 12.715515-8.634221 12.715515-9.662868 13.215515-10.543076 14.215515-11.423284 15.215515-12.084743 16.413432-12.527451 17.809266-12.970159 19.2051-13.191513 20.475932-13.191513 21.621766Z" fill="#323232"/>
<path transform="matrix(.5,0,0,.5,208.15544,281.30488)" d="M-1.8963318 28.418595C-1.5213318 29.064429-.7661235 29.387345 .3692932 29.387345 .8588765 29.387345 1.3250223 29.301407 1.7677307 29.129532 2.210439 28.957657 2.5776265 28.705054 2.8692933 28.37172 3.16096 28.038386 3.3067933 27.632136 3.3067933 27.15297 3.3067933 26.788386 3.176585 26.49151 2.9161683 26.262345 2.6557515 26.033179 2.3380433 25.876929 1.9630432 25.793595L.8224182 25.574845C.31200157 25.439429-.11247762 25.194636-.4510193 24.84047-.789561 24.486304-.9588318 24.05401-.9588318 23.543595-.9588318 22.92901-.789561 22.382136-.4510193 21.90297-.11247762 21.423804 .33283488 21.056616 .8849182 20.801407 1.4370016 20.546198 2.0151265 20.418595 2.6192933 20.418595 3.25471 20.418595 3.8224183 20.569636 4.322418 20.87172 4.822418 21.173804 5.072418 21.626929 5.072418 22.231095 5.072418 22.543595 4.981272 22.824845 4.7989809 23.074845 4.616689 23.324845 4.3640849 23.449845 4.041168 23.449845 3.864085 23.449845 3.707835 23.389948 3.5724183 23.270157 3.4370015 23.150366 3.3692933 22.99672 3.3692933 22.80922 3.3692933 22.642554 3.4161683 22.483698 3.5099183 22.332657 3.6036683 22.181616 3.726064 22.05922 3.8771058 21.96547 4.028147 21.87172 4.1870019 21.824845 4.353668 21.824845 4.228668 21.52276 3.9968975 21.30401 3.6583558 21.168595 3.319814 21.033179 2.957835 20.96547 2.5724183 20.96547 2.2182515 20.96547 1.8640848 21.035782 1.5099182 21.176407 1.1557516 21.317032 .8692932 21.52797 .6505432 21.80922 .4317932 22.09047 .3224182 22.418595 .3224182 22.793595 .3224182 23.043595 .41095988 23.264948 .5880432 23.457657 .7651265 23.650366 .9838765 23.788386 1.2442932 23.87172L2.4630433 24.106095C2.8588765 24.189429 3.2182515 24.33526 3.5411683 24.543595 3.864085 24.751929 4.119293 25.014948 4.306793 25.332657 4.494293 25.650366 4.588043 26.017554 4.588043 26.43422 4.588043 26.955054 4.4422099 27.468073 4.150543 27.973282 3.8588765 28.47849 3.50471 28.882136 3.0880433 29.18422 2.3380433 29.68422 1.4265848 29.93422 .3536682 29.93422-.3963318 29.93422-1.0812277 29.762345-1.7010193 29.418595-2.320811 29.074845-2.6307069 28.564429-2.6307069 27.887345-2.6307069 27.512345-2.5213319 27.181616-2.3025819 26.895157-2.0838319 26.608698-1.7817484 26.46547-1.3963318 26.46547-1.1671652 26.46547-.977061 26.535782-.8260193 26.676407-.6749776 26.817032-.5994568 26.99672-.5994568 27.21547-.5994568 27.538386-.7192485 27.819636-.9588318 28.05922-1.1984152 28.298804-1.4796652 28.418595-1.8025818 28.418595H-1.8963318Z" fill="#323232"/>
<path transform="matrix(.5,0,0,.5,208.15544,281.30488)" d="M8.588043 27.199845C8.588043 27.80401 8.741689 28.319636 9.048981 28.74672 9.356273 29.173804 9.801585 29.387345 10.384918 29.387345 11.218251 29.387345 12.020335 29.194636 12.791168 28.80922 13.562001 28.423804 14.187001 27.892554 14.666168 27.21547 14.707835 27.173804 14.765126 27.15297 14.838043 27.15297 14.900543 27.15297 14.968251 27.192032 15.041168 27.270157 15.114085 27.348282 15.150543 27.423804 15.150543 27.49672 15.150543 27.548804 15.140126 27.59047 15.119293 27.62172 14.59846 28.34047 13.905751 28.905573 13.041168 29.317032 12.176585 29.72849 11.275543 29.93422 10.338043 29.93422 9.671376 29.93422 9.082835 29.775366 8.572418 29.457657 8.062001 29.139948 7.666168 28.71547 7.384918 28.18422 7.103668 27.65297 6.963043 27.048804 6.963043 26.37172 6.963043 25.43422 7.226064 24.499323 7.7521059 23.567032 8.278148 22.63474 8.978668 21.876929 9.853668 21.293595 10.728668 20.71026 11.645335 20.418595 12.603668 20.418595 13.239085 20.418595 13.806793 20.569636 14.306793 20.87172 14.806793 21.173804 15.056793 21.626929 15.056793 22.231095 15.056793 22.606095 14.947418 22.92901 14.728668 23.199845 14.509918 23.470679 14.213043 23.606095 13.838043 23.606095 13.608876 23.606095 13.416168 23.535782 13.259918 23.395157 13.103668 23.254532 13.025543 23.074845 13.025543 22.856095 13.025543 22.52276 13.145335 22.238907 13.384918 22.004532 13.624501 21.770157 13.905751 21.65297 14.228668 21.65297H14.275543C14.108876 21.423804 13.869293 21.251929 13.556793 21.137345 13.244293 21.02276 12.921376 20.96547 12.588043 20.96547 11.765126 20.96547 11.046376 21.314429 10.431793 22.012345 9.81721 22.71026 9.356273 23.546198 9.048981 24.520157 8.741689 25.494116 8.588043 26.387345 8.588043 27.199845Z" fill="#323232"/>
<path transform="matrix(.5,0,0,.5,-9.094719,-15.69516)" stroke-width="1" stroke-linecap="square" stroke-linejoin="round" fill="none" stroke="#323232" d="M109 558V47"/>
<path transform="matrix(.5,0,0,.5,-9.094719,-15.69516)" stroke-width="1" stroke-linecap="square" stroke-linejoin="round" fill="none" stroke="#323232" d="M760 558V47"/>
<path transform="matrix(.5,0,0,.5,-9.094719,-15.69516)" stroke-width="1" stroke-linecap="square" stroke-linejoin="round" fill="none" stroke="#323232" d="M109 558H115.51"/>
<path transform="matrix(.5,0,0,.5,-9.094719,-15.69516)" stroke-width="1" stroke-linecap="square" stroke-linejoin="round" fill="none" stroke="#323232" d="M109 494.125H115.51"/>
<path transform="matrix(.5,0,0,.5,-9.094719,-15.69516)" stroke-width="1" stroke-linecap="square" stroke-linejoin="round" fill="none" stroke="#323232" d="M109 430.25H115.51"/>
<path transform="matrix(.5,0,0,.5,-9.094719,-15.69516)" stroke-width="1" stroke-linecap="square" stroke-linejoin="round" fill="none" stroke="#323232" d="M109 366.375H115.51"/>
<path transform="matrix(.5,0,0,.5,-9.094719,-15.69516)" stroke-width="1" stroke-linecap="square" stroke-linejoin="round" fill="none" stroke="#323232" d="M109 302.5H115.51"/>
<path transform="matrix(.5,0,0,.5,-9.094719,-15.69516)" stroke-width="1" stroke-linecap="square" stroke-linejoin="round" fill="none" stroke="#323232" d="M109 238.625H115.51"/>
<path transform="matrix(.5,0,0,.5,-9.094719,-15.69516)" stroke-width="1" stroke-linecap="square" stroke-linejoin="round" fill="none" stroke="#323232" d="M109 174.75H115.51"/>
<path transform="matrix(.5,0,0,.5,-9.094719,-15.69516)" stroke-width="1" stroke-linecap="square" stroke-linejoin="round" fill="none" stroke="#323232" d="M109 110.875H115.51"/>
<path transform="matrix(.5,0,0,.5,-9.094719,-15.69516)" stroke-width="1" stroke-linecap="square" stroke-linejoin="round" fill="none" stroke="#323232" d="M109 47H115.51"/>
<path transform="matrix(.5,0,0,.5,-9.094719,-15.69516)" stroke-width="1" stroke-linecap="square" stroke-linejoin="round" fill="none" stroke="#323232" d="M760 558H753.49"/>
<path transform="matrix(.5,0,0,.5,-9.094719,-15.69516)" stroke-width="1" stroke-linecap="square" stroke-linejoin="round" fill="none" stroke="#323232" d="M760 494.125H753.49"/>
<path transform="matrix(.5,0,0,.5,-9.094719,-15.69516)" stroke-width="1" stroke-linecap="square" stroke-linejoin="round" fill="none" stroke="#323232" d="M760 430.25H753.49"/>
<path transform="matrix(.5,0,0,.5,-9.094719,-15.69516)" stroke-width="1" stroke-linecap="square" stroke-linejoin="round" fill="none" stroke="#323232" d="M760 366.375H753.49"/>
<path transform="matrix(.5,0,0,.5,-9.094719,-15.69516)" stroke-width="1" stroke-linecap="square" stroke-linejoin="round" fill="none" stroke="#323232" d="M760 302.5H753.49"/>
<path transform="matrix(.5,0,0,.5,-9.094719,-15.69516)" stroke-width="1" stroke-linecap="square" stroke-linejoin="round" fill="none" stroke="#323232" d="M760 238.625H753.49"/>
<path transform="matrix(.5,0,0,.5,-9.094719,-15.69516)" stroke-width="1" stroke-linecap="square" stroke-linejoin="round" fill="none" stroke="#323232" d="M760 174.75H753.49"/>
<path transform="matrix(.5,0,0,.5,-9.094719,-15.69516)" stroke-width="1" stroke-linecap="square" stroke-linejoin="round" fill="none" stroke="#323232" d="M760 110.875H753.49"/>
<path transform="matrix(.5,0,0,.5,-9.094719,-15.69516)" stroke-width="1" stroke-linecap="square" stroke-linejoin="round" fill="none" stroke="#323232" d="M760 47H753.49"/>
<text fill="#323232" xml:space="preserve" transform="matrix(.5 0 0 .5 41.405275 263.30488)" font-size="20" font-family="Helvetica"><tspan y="8" x="-45 -33.879999 -22.759997 -11.639996">1000</tspan></text>
<text fill="#323232" xml:space="preserve" transform="matrix(.5 0 0 .5 41.405275 231.36734)" font-size="20" font-family="Helvetica"><tspan y="8" x="-45 -33.879999 -22.759997 -11.639996">1500</tspan></text>
<text fill="#323232" xml:space="preserve" transform="matrix(.5 0 0 .5 41.405275 199.42984)" font-size="20" font-family="Helvetica"><tspan y="8" x="-45 -33.879999 -22.759997 -11.639996">2000</tspan></text>
<text fill="#323232" xml:space="preserve" transform="matrix(.5 0 0 .5 41.405275 167.49234)" font-size="20" font-family="Helvetica"><tspan y="8" x="-45 -33.879999 -22.759997 -11.639996">2500</tspan></text>
<text fill="#323232" xml:space="preserve" transform="matrix(.5 0 0 .5 41.405275 135.55484)" font-size="20" font-family="Helvetica"><tspan y="8" x="-45 -33.879999 -22.759997 -11.639996">3000</tspan></text>
<text fill="#323232" xml:space="preserve" transform="matrix(.5 0 0 .5 41.405275 103.61734)" font-size="20" font-family="Helvetica"><tspan y="8" x="-45 -33.879999 -22.759997 -11.639996">3500</tspan></text>
<text fill="#323232" xml:space="preserve" transform="matrix(.5 0 0 .5 41.405275 71.67984)" font-size="20" font-family="Helvetica"><tspan y="8" x="-45 -33.879999 -22.759997 -11.639996">4000</tspan></text>
<text fill="#323232" xml:space="preserve" transform="matrix(.5 0 0 .5 41.405275 39.74234)" font-size="20" font-family="Helvetica"><tspan y="8" x="-45 -33.879999 -22.759997 -11.639996">4500</tspan></text>
<text fill="#323232" xml:space="preserve" transform="matrix(.5 0 0 .5 41.405275 7.80484)" font-size="20" font-family="Helvetica"><tspan y="8" x="-45 -33.879999 -22.759997 -11.639996">5000</tspan></text>
<path transform="matrix(-.00000002125,-.5,.5,-.00000002125,15.905281,135.55472)" d="M-14.91935-9.360095C-15.086017-9.360095-15.16935-9.474678-15.16935-9.703845-15.158933-9.745512-15.140704-9.818428-15.114662-9.922595-15.08862-10.026762-15.052162-10.1126999-15.005287-10.180408-14.958412-10.248116-14.903725-10.28197-14.841225-10.28197-13.778725-10.28197-13.039142-10.339262-12.622475-10.453845-12.403725-10.526762-12.242267-10.761137-12.1381-11.15697L-8.559975-25.438221C-8.528725-25.604887-8.5131-25.719471-8.5131-25.781971-8.5131-25.969471-8.617267-26.078846-8.8256-26.110096-9.148517-26.172596-9.773517-26.203846-10.7006-26.203846-10.867267-26.203846-10.9506-26.31843-10.9506-26.547596-10.940183-26.589262-10.924558-26.664784-10.903725-26.774159-10.882892-26.883534-10.849037-26.969471-10.802162-27.031971-10.755287-27.094471-10.695392-27.125721-10.622475-27.125721H-1.2787247C-.07039134-27.125721 .9869003-26.83145 1.8931503-26.242909 2.7994004-25.654368 3.4947129-24.8627 3.9790879-23.867909 4.463463-22.873118 4.7056505-21.771555 4.7056505-20.563221 4.7056505-19.240305 4.429609-17.914784 3.8775254-16.586659 3.325442-15.258533 2.5546087-14.044991 1.5650253-12.946033 .575442-11.8470749-.55476638-10.974678-1.8255997-10.328845-3.096433-9.683012-4.398516-9.360095-5.7318499-9.360095H-14.91935ZM-10.059975-10.485095C-10.059975-10.349678-9.7631-10.28197-9.16935-10.28197H-6.1380999C-5.179766-10.28197-4.2500789-10.479887-3.3490372-10.87572-2.4479955-11.271553-1.6485163-11.818428-.9505997-12.516345-.29434968-13.162178 .28117118-14.013741 .7759628-15.071033 1.2707545-16.128325 1.6561712-17.232493 1.9322128-18.383534 2.2082546-19.534575 2.3462754-20.594471 2.3462754-21.563221 2.3462754-22.261137 2.2421087-22.89395 2.0337754-23.461659 1.825442-24.029368 1.5337753-24.516346 1.1587753-24.922596 .7837753-25.328846 .31242118-25.64395-.25528718-25.867909-.8229955-26.091868-1.4610163-26.203846-2.1693497-26.203846H-5.0287249C-5.4974749-26.203846-5.8099749-26.164784-5.9662249-26.086659-6.1224749-26.008534-6.2630999-25.750721-6.3880999-25.313221L-9.934975-11.047595C-10.018308-10.839262-10.059975-10.651762-10.059975-10.485095Z" fill="#323232"/>
<path transform="matrix(-.00000002125,-.5,.5,-.00000002125,15.905281,135.55472)" d="M9.688083-18.592165C9.115166-18.592165 8.607353-18.727581 8.164645-18.998415 7.7219369-19.269249 7.380791-19.633831 7.1412079-20.092165 6.901624-20.550499 6.7818329-21.066124 6.7818329-21.63904 6.7818329-22.45154 7.008395-23.256228 7.46152-24.053103 7.914645-24.849978 8.518812-25.498415 9.27402-25.998415 10.029228-26.498415 10.818291-26.748415 11.641208-26.748415 12.089125-26.748415 12.487562-26.672894 12.83652-26.521853 13.185478-26.370812 13.487562-26.157269 13.74277-25.881228 13.997978-25.605187 14.195895-25.282269 14.33652-24.912478 14.477145-24.542687 14.547458-24.13904 14.547458-23.70154 14.547458-23.07654 14.414645-22.461956 14.14902-21.85779 13.883395-21.253624 13.521416-20.704144 13.063083-20.209353 12.60475-19.714562 12.078708-19.321331 11.484958-19.029665 10.891208-18.737999 10.29225-18.592165 9.688083-18.592165ZM9.719333-19.060915C10.250583-19.060915 10.737562-19.243206 11.18027-19.60779 11.622978-19.972374 11.987562-20.433312 12.27402-20.990603 12.560478-21.547894 12.779228-22.133831 12.93027-22.748415 13.081312-23.362999 13.156833-23.915081 13.156833-24.404665 13.156833-24.935915 13.026625-25.381228 12.766208-25.740603 12.505791-26.099978 12.120375-26.279665 11.609958-26.279665 10.901625-26.279665 10.284437-25.980187 9.758395-25.381228 9.232353-24.782269 8.83652-24.066124 8.570895-23.23279 8.30527-22.399456 8.172458-21.633831 8.172458-20.935915 8.172458-20.415081 8.30527-19.972374 8.570895-19.60779 8.83652-19.243206 9.219333-19.060915 9.719333-19.060915Z" fill="#323232"/>
<path transform="matrix(.5,0,0,.5,-9.094719,-15.69516)" stroke-width="3" stroke-linecap="butt" stroke-linejoin="round" fill="none" stroke="#0000ff" d="M109 107.54414 155.5 181.42092 202 261.9953 248.5 327.96504 295 409.29966 341.5 468.21089 388 486.98313 434.5 497.18373 481 507.21003 527.5 515.38327 574 511.79194 620.5 519.01748 667 516.16256 713.5 516.37399 760 513.8301"/>
<path transform="matrix(.5,0,0,.5,45.405275,38.076936)" stroke-width="3" stroke-linecap="butt" stroke-miterlimit="10" stroke-linejoin="miter" fill="none" stroke="#0000ff" d="M0-10.664-9.2350239 5.332H9.2350239Z"/>
<path transform="matrix(.5,0,0,.5,68.65527,75.01532)" stroke-width="3" stroke-linecap="butt" stroke-miterlimit="10" stroke-linejoin="miter" fill="none" stroke="#0000ff" d="M0-10.664-9.2350239 5.332H9.2350239Z"/>
<path transform="matrix(.5,0,0,.5,91.90527,115.30249)" stroke-width="3" stroke-linecap="butt" stroke-miterlimit="10" stroke-linejoin="miter" fill="none" stroke="#0000ff" d="M0-10.664-9.2350239 5.332H9.2350239Z"/>
<path transform="matrix(.5,0,0,.5,115.15527,148.28736)" stroke-width="3" stroke-linecap="butt" stroke-miterlimit="10" stroke-linejoin="miter" fill="none" stroke="#0000ff" d="M0-10.664-9.2350239 5.332H9.2350239Z"/>
<path transform="matrix(.5,0,0,.5,138.40528,188.95468)" stroke-width="3" stroke-linecap="butt" stroke-miterlimit="10" stroke-linejoin="miter" fill="none" stroke="#0000ff" d="M0-10.664-9.2350239 5.332H9.2350239Z"/>
<path transform="matrix(.5,0,0,.5,161.65529,218.41028)" stroke-width="3" stroke-linecap="butt" stroke-miterlimit="10" stroke-linejoin="miter" fill="none" stroke="#0000ff" d="M0-10.664-9.2350239 5.332H9.2350239Z"/>
<path transform="matrix(.5,0,0,.5,184.90529,227.79642)" stroke-width="3" stroke-linecap="butt" stroke-miterlimit="10" stroke-linejoin="miter" fill="none" stroke="#0000ff" d="M0-10.664-9.2350239 5.332H9.2350239Z"/>
<path transform="matrix(.5,0,0,.5,208.15529,232.89673)" stroke-width="3" stroke-linecap="butt" stroke-miterlimit="10" stroke-linejoin="miter" fill="none" stroke="#0000ff" d="M0-10.664-9.2350239 5.332H9.2350239Z"/>
<path transform="matrix(.5,0,0,.5,231.40529,237.90985)" stroke-width="3" stroke-linecap="butt" stroke-miterlimit="10" stroke-linejoin="miter" fill="none" stroke="#0000ff" d="M0-10.664-9.2350239 5.332H9.2350239Z"/>
<path transform="matrix(.5,0,0,.5,254.65529,241.99646)" stroke-width="3" stroke-linecap="butt" stroke-miterlimit="10" stroke-linejoin="miter" fill="none" stroke="#0000ff" d="M0-10.664-9.2350239 5.332H9.2350239Z"/>
<path transform="matrix(.5,0,0,.5,277.90528,240.2008)" stroke-width="3" stroke-linecap="butt" stroke-miterlimit="10" stroke-linejoin="miter" fill="none" stroke="#0000ff" d="M0-10.664-9.2350239 5.332H9.2350239Z"/>
<path transform="matrix(.5,0,0,.5,301.15528,243.8136)" stroke-width="3" stroke-linecap="butt" stroke-miterlimit="10" stroke-linejoin="miter" fill="none" stroke="#0000ff" d="M0-10.664-9.2350239 5.332H9.2350239Z"/>
<path transform="matrix(.5,0,0,.5,324.40528,242.38611)" stroke-width="3" stroke-linecap="butt" stroke-miterlimit="10" stroke-linejoin="miter" fill="none" stroke="#0000ff" d="M0-10.664-9.2350239 5.332H9.2350239Z"/>
<path transform="matrix(.5,0,0,.5,347.65528,242.49182)" stroke-width="3" stroke-linecap="butt" stroke-miterlimit="10" stroke-linejoin="miter" fill="none" stroke="#0000ff" d="M0-10.664-9.2350239 5.332H9.2350239Z"/>
<path transform="matrix(.5,0,0,.5,370.90528,241.21991)" stroke-width="3" stroke-linecap="butt" stroke-miterlimit="10" stroke-linejoin="miter" fill="none" stroke="#0000ff" d="M0-10.664-9.2350239 5.332H9.2350239Z"/>
<path transform="matrix(.5,0,0,.5,-9.094719,-15.69516)" stroke-width="3" stroke-linecap="butt" stroke-linejoin="round" fill="none" stroke="#ff0000" d="M109 110.3902 155.5 180.61983 202 268.52525 248.5 336.23295 295 415.61164 341.5 467.23634 388 488.8038 434.5 498.72544 481 508.53974 527.5 519.5493 574 519.1786 620.5 520.15078 667 520.4351 713.5 520.4621 760 519.8196"/>
<path transform="matrix(.5,0,0,.5,45.405275,39.49994)" stroke-width="3" stroke-linecap="butt" stroke-miterlimit="10" stroke-linejoin="miter" fill="none" stroke="#ff0000" d="M0 10.664-9.2350239-5.332H9.2350239Z"/>
<path transform="matrix(.5,0,0,.5,68.65527,74.61478)" stroke-width="3" stroke-linecap="butt" stroke-miterlimit="10" stroke-linejoin="miter" fill="none" stroke="#ff0000" d="M0 10.664-9.2350239-5.332H9.2350239Z"/>
<path transform="matrix(.5,0,0,.5,91.90527,118.567478)" stroke-width="3" stroke-linecap="butt" stroke-miterlimit="10" stroke-linejoin="miter" fill="none" stroke="#ff0000" d="M0 10.664-9.2350239-5.332H9.2350239Z"/>
<path transform="matrix(.5,0,0,.5,115.15527,152.42133)" stroke-width="3" stroke-linecap="butt" stroke-miterlimit="10" stroke-linejoin="miter" fill="none" stroke="#ff0000" d="M0 10.664-9.2350239-5.332H9.2350239Z"/>
<path transform="matrix(.5,0,0,.5,138.40528,192.11066)" stroke-width="3" stroke-linecap="butt" stroke-miterlimit="10" stroke-linejoin="miter" fill="none" stroke="#ff0000" d="M0 10.664-9.2350239-5.332H9.2350239Z"/>
<path transform="matrix(.5,0,0,.5,161.65529,217.923)" stroke-width="3" stroke-linecap="butt" stroke-miterlimit="10" stroke-linejoin="miter" fill="none" stroke="#ff0000" d="M0 10.664-9.2350239-5.332H9.2350239Z"/>
<path transform="matrix(.5,0,0,.5,184.90529,228.70676)" stroke-width="3" stroke-linecap="butt" stroke-miterlimit="10" stroke-linejoin="miter" fill="none" stroke="#ff0000" d="M0 10.664-9.2350239-5.332H9.2350239Z"/>
<path transform="matrix(.5,0,0,.5,208.15529,233.66754)" stroke-width="3" stroke-linecap="butt" stroke-miterlimit="10" stroke-linejoin="miter" fill="none" stroke="#ff0000" d="M0 10.664-9.2350239-5.332H9.2350239Z"/>
<path transform="matrix(.5,0,0,.5,231.40529,238.5747)" stroke-width="3" stroke-linecap="butt" stroke-miterlimit="10" stroke-linejoin="miter" fill="none" stroke="#ff0000" d="M0 10.664-9.2350239-5.332H9.2350239Z"/>
<path transform="matrix(.5,0,0,.5,254.65529,244.07953)" stroke-width="3" stroke-linecap="butt" stroke-miterlimit="10" stroke-linejoin="miter" fill="none" stroke="#ff0000" d="M0 10.664-9.2350239-5.332H9.2350239Z"/>
<path transform="matrix(.5,0,0,.5,277.90528,243.89417)" stroke-width="3" stroke-linecap="butt" stroke-miterlimit="10" stroke-linejoin="miter" fill="none" stroke="#ff0000" d="M0 10.664-9.2350239-5.332H9.2350239Z"/>
<path transform="matrix(.5,0,0,.5,301.15528,244.38025)" stroke-width="3" stroke-linecap="butt" stroke-miterlimit="10" stroke-linejoin="miter" fill="none" stroke="#ff0000" d="M0 10.664-9.2350239-5.332H9.2350239Z"/>
<path transform="matrix(.5,0,0,.5,324.40528,244.5224)" stroke-width="3" stroke-linecap="butt" stroke-miterlimit="10" stroke-linejoin="miter" fill="none" stroke="#ff0000" d="M0 10.664-9.2350239-5.332H9.2350239Z"/>
<path transform="matrix(.5,0,0,.5,347.65528,244.53589)" stroke-width="3" stroke-linecap="butt" stroke-miterlimit="10" stroke-linejoin="miter" fill="none" stroke="#ff0000" d="M0 10.664-9.2350239-5.332H9.2350239Z"/>
<path transform="matrix(.5,0,0,.5,370.90528,244.21466)" stroke-width="3" stroke-linecap="butt" stroke-miterlimit="10" stroke-linejoin="miter" fill="none" stroke="#ff0000" d="M0 10.664-9.2350239-5.332H9.2350239Z"/>
<path transform="matrix(.5,0,0,.5,-9.094719,-15.69516)" stroke-width="3" stroke-linecap="butt" stroke-linejoin="round" fill="none" stroke="#00cc00" d="M109 89.81122 155.5 136.30805 202 163.30667 248.5 203.67319 295 237.34464 341.5 258.1315 388 278.22639 434.5 317.6997 481 318.51023 527.5 356.90534 574 384.24534 620.5 406.1533 667 436.30619 713.5 456.21995 760 465.07936"/>
<path transform="matrix(.5,0,0,.5,45.405275,29.21045)" stroke-width="3" stroke-linecap="butt" stroke-miterlimit="10" stroke-linejoin="miter" fill="none" stroke="#00cc00" d="M0-8V8M-8 0H8M-5.6568548-5.6568548 5.6568548 5.6568548M-5.6568548 5.6568548 5.6568548-5.6568548"/>
<path transform="matrix(.5,0,0,.5,68.65527,52.458864)" stroke-width="3" stroke-linecap="butt" stroke-miterlimit="10" stroke-linejoin="miter" fill="none" stroke="#00cc00" d="M0-8V8M-8 0H8M-5.6568548-5.6568548 5.6568548 5.6568548M-5.6568548 5.6568548 5.6568548-5.6568548"/>
<path transform="matrix(.5,0,0,.5,91.90527,65.95819)" stroke-width="3" stroke-linecap="butt" stroke-miterlimit="10" stroke-linejoin="miter" fill="none" stroke="#00cc00" d="M0-8V8M-8 0H8M-5.6568548-5.6568548 5.6568548 5.6568548M-5.6568548 5.6568548 5.6568548-5.6568548"/>
<path transform="matrix(.5,0,0,.5,115.15527,86.14145)" stroke-width="3" stroke-linecap="butt" stroke-miterlimit="10" stroke-linejoin="miter" fill="none" stroke="#00cc00" d="M0-8V8M-8 0H8M-5.6568548-5.6568548 5.6568548 5.6568548M-5.6568548 5.6568548 5.6568548-5.6568548"/>
<path transform="matrix(.5,0,0,.5,138.40528,102.97717)" stroke-width="3" stroke-linecap="butt" stroke-miterlimit="10" stroke-linejoin="miter" fill="none" stroke="#00cc00" d="M0-8V8M-8 0H8M-5.6568548-5.6568548 5.6568548 5.6568548M-5.6568548 5.6568548 5.6568548-5.6568548"/>
<path transform="matrix(.5,0,0,.5,161.65529,113.370609)" stroke-width="3" stroke-linecap="butt" stroke-miterlimit="10" stroke-linejoin="miter" fill="none" stroke="#00cc00" d="M0-8V8M-8 0H8M-5.6568548-5.6568548 5.6568548 5.6568548M-5.6568548 5.6568548 5.6568548-5.6568548"/>
<path transform="matrix(.5,0,0,.5,184.90529,123.41803)" stroke-width="3" stroke-linecap="butt" stroke-miterlimit="10" stroke-linejoin="miter" fill="none" stroke="#00cc00" d="M0-8V8M-8 0H8M-5.6568548-5.6568548 5.6568548 5.6568548M-5.6568548 5.6568548 5.6568548-5.6568548"/>
<path transform="matrix(.5,0,0,.5,208.15529,143.1547)" stroke-width="3" stroke-linecap="butt" stroke-miterlimit="10" stroke-linejoin="miter" fill="none" stroke="#00cc00" d="M0-8V8M-8 0H8M-5.6568548-5.6568548 5.6568548 5.6568548M-5.6568548 5.6568548 5.6568548-5.6568548"/>
<path transform="matrix(.5,0,0,.5,231.40529,143.55997)" stroke-width="3" stroke-linecap="butt" stroke-miterlimit="10" stroke-linejoin="miter" fill="none" stroke="#00cc00" d="M0-8V8M-8 0H8M-5.6568548-5.6568548 5.6568548 5.6568548M-5.6568548 5.6568548 5.6568548-5.6568548"/>
<path transform="matrix(.5,0,0,.5,254.65529,162.7575)" stroke-width="3" stroke-linecap="butt" stroke-miterlimit="10" stroke-linejoin="miter" fill="none" stroke="#00cc00" d="M0-8V8M-8 0H8M-5.6568548-5.6568548 5.6568548 5.6568548M-5.6568548 5.6568548 5.6568548-5.6568548"/>
<path transform="matrix(.5,0,0,.5,277.90528,176.42752)" stroke-width="3" stroke-linecap="butt" stroke-miterlimit="10" stroke-linejoin="miter" fill="none" stroke="#00cc00" d="M0-8V8M-8 0H8M-5.6568548-5.6568548 5.6568548 5.6568548M-5.6568548 5.6568548 5.6568548-5.6568548"/>
<path transform="matrix(.5,0,0,.5,301.15528,187.3815)" stroke-width="3" stroke-linecap="butt" stroke-miterlimit="10" stroke-linejoin="miter" fill="none" stroke="#00cc00" d="M0-8V8M-8 0H8M-5.6568548-5.6568548 5.6568548 5.6568548M-5.6568548 5.6568548 5.6568548-5.6568548"/>
<path transform="matrix(.5,0,0,.5,324.40528,202.45795)" stroke-width="3" stroke-linecap="butt" stroke-miterlimit="10" stroke-linejoin="miter" fill="none" stroke="#00cc00" d="M0-8V8M-8 0H8M-5.6568548-5.6568548 5.6568548 5.6568548M-5.6568548 5.6568548 5.6568548-5.6568548"/>
<path transform="matrix(.5,0,0,.5,347.65528,212.41483)" stroke-width="3" stroke-linecap="butt" stroke-miterlimit="10" stroke-linejoin="miter" fill="none" stroke="#00cc00" d="M0-8V8M-8 0H8M-5.6568548-5.6568548 5.6568548 5.6568548M-5.6568548 5.6568548 5.6568548-5.6568548"/>
<path transform="matrix(.5,0,0,.5,370.90528,216.84452)" stroke-width="3" stroke-linecap="butt" stroke-miterlimit="10" stroke-linejoin="miter" fill="none" stroke="#00cc00" d="M0-8V8M-8 0H8M-5.6568548-5.6568548 5.6568548 5.6568548M-5.6568548 5.6568548 5.6568548-5.6568548"/>
<path transform="matrix(.5,0,0,.5,-9.094719,-15.69516)" stroke-width="3" stroke-linecap="butt" stroke-linejoin="round" fill="none" stroke="#000000" d="M109 93.91887 155.5 145.8767 202 173.96227 248.5 215.55356 295 262.62565 341.5 278.7183 388 300.91416 434.5 331.7393 481 344.55274 527.5 370.30744 574 401.72145 620.5 420.383 667 449.2609 713.5 469.79875 760 480.481"/>
<path transform="matrix(.5,0,0,.5,45.405275,31.264283)" stroke-width="3" stroke-linecap="butt" stroke-miterlimit="10" stroke-linejoin="miter" fill="none" stroke="#000000" d="M-6-6V6H6V-6Z"/>
<path transform="matrix(.5,0,0,.5,68.65527,57.243196)" stroke-width="3" stroke-linecap="butt" stroke-miterlimit="10" stroke-linejoin="miter" fill="none" stroke="#000000" d="M-6-6V6H6V-6Z"/>
<path transform="matrix(.5,0,0,.5,91.90527,71.28598)" stroke-width="3" stroke-linecap="butt" stroke-miterlimit="10" stroke-linejoin="miter" fill="none" stroke="#000000" d="M-6-6V6H6V-6Z"/>
<path transform="matrix(.5,0,0,.5,115.15527,92.081638)" stroke-width="3" stroke-linecap="butt" stroke-miterlimit="10" stroke-linejoin="miter" fill="none" stroke="#000000" d="M-6-6V6H6V-6Z"/>
<path transform="matrix(.5,0,0,.5,138.40528,115.617679)" stroke-width="3" stroke-linecap="butt" stroke-miterlimit="10" stroke-linejoin="miter" fill="none" stroke="#000000" d="M-6-6V6H6V-6Z"/>
<path transform="matrix(.5,0,0,.5,161.65529,123.664)" stroke-width="3" stroke-linecap="butt" stroke-miterlimit="10" stroke-linejoin="miter" fill="none" stroke="#000000" d="M-6-6V6H6V-6Z"/>
<path transform="matrix(.5,0,0,.5,184.90529,134.76194)" stroke-width="3" stroke-linecap="butt" stroke-miterlimit="10" stroke-linejoin="miter" fill="none" stroke="#000000" d="M-6-6V6H6V-6Z"/>
<path transform="matrix(.5,0,0,.5,208.15529,150.1745)" stroke-width="3" stroke-linecap="butt" stroke-miterlimit="10" stroke-linejoin="miter" fill="none" stroke="#000000" d="M-6-6V6H6V-6Z"/>
<path transform="matrix(.5,0,0,.5,231.40529,156.5812)" stroke-width="3" stroke-linecap="butt" stroke-miterlimit="10" stroke-linejoin="miter" fill="none" stroke="#000000" d="M-6-6V6H6V-6Z"/>
<path transform="matrix(.5,0,0,.5,254.65529,169.45856)" stroke-width="3" stroke-linecap="butt" stroke-miterlimit="10" stroke-linejoin="miter" fill="none" stroke="#000000" d="M-6-6V6H6V-6Z"/>
<path transform="matrix(.5,0,0,.5,277.90528,185.16556)" stroke-width="3" stroke-linecap="butt" stroke-miterlimit="10" stroke-linejoin="miter" fill="none" stroke="#000000" d="M-6-6V6H6V-6Z"/>
<path transform="matrix(.5,0,0,.5,301.15528,194.49634)" stroke-width="3" stroke-linecap="butt" stroke-miterlimit="10" stroke-linejoin="miter" fill="none" stroke="#000000" d="M-6-6V6H6V-6Z"/>
<path transform="matrix(.5,0,0,.5,324.40528,208.9353)" stroke-width="3" stroke-linecap="butt" stroke-miterlimit="10" stroke-linejoin="miter" fill="none" stroke="#000000" d="M-6-6V6H6V-6Z"/>
<path transform="matrix(.5,0,0,.5,347.65528,219.20423)" stroke-width="3" stroke-linecap="butt" stroke-miterlimit="10" stroke-linejoin="miter" fill="none" stroke="#000000" d="M-6-6V6H6V-6Z"/>
<path transform="matrix(.5,0,0,.5,370.90528,224.54535)" stroke-width="3" stroke-linecap="butt" stroke-miterlimit="10" stroke-linejoin="miter" fill="none" stroke="#000000" d="M-6-6V6H6V-6Z"/>
<path transform="matrix(.5,0,0,.5,-9.094719,-15.69516)" stroke-width="3" stroke-linecap="butt" stroke-linejoin="round" fill="none" stroke="#ff00ff" d="M109 92.931118 155.5 121.19911 202 150.00724 248.5 188.88703 295 222.94872 341.5 240.05892 388 267.17948 434.5 298.73 481 302.6887 527.5 335.37089 574 355.98667 620.5 379.27363 667 413.88819 713.5 429.43424 760 437.478"/>
<path transform="matrix(.5,0,0,.5,45.405275,30.770417)" stroke-width="3" stroke-linecap="butt" stroke-miterlimit="10" stroke-linejoin="miter" fill="none" stroke="#ff00ff" d="M-8 0 0 10.64 8 0 0-10.64Z"/>
<path transform="matrix(.5,0,0,.5,68.65527,44.90442)" stroke-width="3" stroke-linecap="butt" stroke-miterlimit="10" stroke-linejoin="miter" fill="none" stroke="#ff00ff" d="M-8 0 0 10.64 8 0 0-10.64Z"/>
<path transform="matrix(.5,0,0,.5,91.90527,59.30847)" stroke-width="3" stroke-linecap="butt" stroke-miterlimit="10" stroke-linejoin="miter" fill="none" stroke="#ff00ff" d="M-8 0 0 10.64 8 0 0-10.64Z"/>
<path transform="matrix(.5,0,0,.5,115.15527,78.74835)" stroke-width="3" stroke-linecap="butt" stroke-miterlimit="10" stroke-linejoin="miter" fill="none" stroke="#ff00ff" d="M-8 0 0 10.64 8 0 0-10.64Z"/>
<path transform="matrix(.5,0,0,.5,138.40528,95.779209)" stroke-width="3" stroke-linecap="butt" stroke-miterlimit="10" stroke-linejoin="miter" fill="none" stroke="#ff00ff" d="M-8 0 0 10.64 8 0 0-10.64Z"/>
<path transform="matrix(.5,0,0,.5,161.65529,104.33432)" stroke-width="3" stroke-linecap="butt" stroke-miterlimit="10" stroke-linejoin="miter" fill="none" stroke="#ff00ff" d="M-8 0 0 10.64 8 0 0-10.64Z"/>
<path transform="matrix(.5,0,0,.5,184.90529,117.89459)" stroke-width="3" stroke-linecap="butt" stroke-miterlimit="10" stroke-linejoin="miter" fill="none" stroke="#ff00ff" d="M-8 0 0 10.64 8 0 0-10.64Z"/>
<path transform="matrix(.5,0,0,.5,208.15529,133.66986)" stroke-width="3" stroke-linecap="butt" stroke-miterlimit="10" stroke-linejoin="miter" fill="none" stroke="#ff00ff" d="M-8 0 0 10.64 8 0 0-10.64Z"/>
<path transform="matrix(.5,0,0,.5,231.40529,135.6492)" stroke-width="3" stroke-linecap="butt" stroke-miterlimit="10" stroke-linejoin="miter" fill="none" stroke="#ff00ff" d="M-8 0 0 10.64 8 0 0-10.64Z"/>
<path transform="matrix(.5,0,0,.5,254.65529,151.9903)" stroke-width="3" stroke-linecap="butt" stroke-miterlimit="10" stroke-linejoin="miter" fill="none" stroke="#ff00ff" d="M-8 0 0 10.64 8 0 0-10.64Z"/>
<path transform="matrix(.5,0,0,.5,277.90528,162.29819)" stroke-width="3" stroke-linecap="butt" stroke-miterlimit="10" stroke-linejoin="miter" fill="none" stroke="#ff00ff" d="M-8 0 0 10.64 8 0 0-10.64Z"/>
<path transform="matrix(.5,0,0,.5,301.15528,173.94165)" stroke-width="3" stroke-linecap="butt" stroke-miterlimit="10" stroke-linejoin="miter" fill="none" stroke="#ff00ff" d="M-8 0 0 10.64 8 0 0-10.64Z"/>
<path transform="matrix(.5,0,0,.5,324.40528,191.24893)" stroke-width="3" stroke-linecap="butt" stroke-miterlimit="10" stroke-linejoin="miter" fill="none" stroke="#ff00ff" d="M-8 0 0 10.64 8 0 0-10.64Z"/>
<path transform="matrix(.5,0,0,.5,347.65528,199.02198)" stroke-width="3" stroke-linecap="butt" stroke-miterlimit="10" stroke-linejoin="miter" fill="none" stroke="#ff00ff" d="M-8 0 0 10.64 8 0 0-10.64Z"/>
<path transform="matrix(.5,0,0,.5,370.90528,203.04386)" stroke-width="3" stroke-linecap="butt" stroke-miterlimit="10" stroke-linejoin="miter" fill="none" stroke="#ff00ff" d="M-8 0 0 10.64 8 0 0-10.64Z"/>
<path transform="matrix(.5,0,0,.5,-9.094719,-15.69516)" d="M740 191V67H591V191Z" fill="#ffffff"/>
<text xml:space="preserve" transform="matrix(.5 0 0 .5 321.5374 25.05484)" font-size="18" font-family="Helvetica"><tspan y="7.5" x="0 12.0060009 25.002003">SUB</tspan></text>
<path transform="matrix(.5,0,0,.5,-9.094719,-15.69516)" stroke-width="3" stroke-linecap="butt" stroke-linejoin="round" fill="none" stroke="#0000ff" d="M596.9799 81.5H656.77926"/>
<path transform="matrix(.5,0,0,.5,304.3451,25.05484)" stroke-width="3" stroke-linecap="butt" stroke-miterlimit="10" stroke-linejoin="miter" fill="none" stroke="#0000ff" d="M0-10.664-9.2350239 5.332H9.2350239Z"/>
<text xml:space="preserve" transform="matrix(.5 0 0 .5 321.5374 36.92984)" font-size="18" font-family="Helvetica"><tspan y="7.5" x="0 12.0060009 22.014002">ALT</tspan></text>
<path transform="matrix(.5,0,0,.5,-9.094719,-15.69516)" stroke-width="3" stroke-linecap="butt" stroke-linejoin="round" fill="none" stroke="#ff0000" d="M596.9799 105.25H656.77926"/>
<path transform="matrix(.5,0,0,.5,304.3451,36.92984)" stroke-width="3" stroke-linecap="butt" stroke-miterlimit="10" stroke-linejoin="miter" fill="none" stroke="#ff0000" d="M0 10.664-9.2350239-5.332H9.2350239Z"/>
<text xml:space="preserve" transform="matrix(.5 0 0 .5 321.5374 48.80484)" font-size="18" font-family="Helvetica"><tspan y="7.5" x="0 12.0060009 26.010003 32.004 42.012 55.008005">PO-LRU</tspan></text>
<path transform="matrix(.5,0,0,.5,-9.094719,-15.69516)" stroke-width="3" stroke-linecap="butt" stroke-linejoin="round" fill="none" stroke="#00cc00" d="M596.9799 129H656.77926"/>
<path transform="matrix(.5,0,0,.5,304.3451,48.80484)" stroke-width="3" stroke-linecap="butt" stroke-miterlimit="10" stroke-linejoin="miter" fill="none" stroke="#00cc00" d="M0-8V8M-8 0H8M-5.6568548-5.6568548 5.6568548 5.6568548M-5.6568548 5.6568548 5.6568548-5.6568548"/>
<text xml:space="preserve" transform="matrix(.5 0 0 .5 321.5374 60.67984)" font-size="18" font-family="Helvetica"><tspan y="7.5" x="0 12.0060009 26.010003 32.004 42.012 53.010004">PO-LFU</tspan></text>
<path transform="matrix(.5,0,0,.5,-9.094719,-15.69516)" stroke-width="3" stroke-linecap="butt" stroke-linejoin="round" fill="none" stroke="#000000" d="M596.9799 152.75H656.77926"/>
<path transform="matrix(.5,0,0,.5,304.3451,60.67984)" stroke-width="3" stroke-linecap="butt" stroke-miterlimit="10" stroke-linejoin="miter" fill="none" stroke="#000000" d="M-6-6V6H6V-6Z"/>
<text xml:space="preserve" transform="matrix(.5 0 0 .5 321.5374 72.55484)" font-size="18" font-family="Helvetica"><tspan y="7.5" x="0 12.0060009 26.010003 32.004 43.002004 48.006006 59.004007">PO-FIFO</tspan></text>
<path transform="matrix(.5,0,0,.5,-9.094719,-15.69516)" stroke-width="3" stroke-linecap="butt" stroke-linejoin="round" fill="none" stroke="#ff00ff" d="M596.9799 176.5H656.77926"/>
<path transform="matrix(.5,0,0,.5,304.3451,72.55484)" stroke-width="3" stroke-linecap="butt" stroke-miterlimit="10" stroke-linejoin="miter" fill="none" stroke="#ff00ff" d="M-8 0 0 10.64 8 0 0-10.64Z"/>
<path transform="matrix(.5,0,0,.5,-9.094719,-15.69516)" stroke-width="1" stroke-linecap="butt" stroke-miterlimit="10" stroke-linejoin="miter" fill="none" stroke="#323232" d="M591 191V67H740V191Z"/>
</svg>
