<?xml version="1.0" encoding="UTF-8"?>
<svg id="Layer_1" data-name="Layer 1" xmlns="http://www.w3.org/2000/svg" version="1.1" xmlns:xlink="http://www.w3.org/1999/xlink" viewBox="0 0 408.79 316.18">
  <defs>
    <style>
      .cls-1 {
        fill: #000;
      }

      .cls-1, .cls-2, .cls-3, .cls-4 {
        stroke-width: 0px;
      }

      .cls-5 {
        clip-path: url(#clippath-2);
      }

      .cls-6 {
        stroke: blue;
      }

      .cls-6, .cls-7 {
        stroke-width: 3px;
      }

      .cls-6, .cls-7, .cls-2, .cls-8, .cls-9, .cls-10, .cls-11 {
        fill: none;
      }

      .cls-6, .cls-7, .cls-9 {
        stroke-linecap: square;
      }

      .cls-6, .cls-7, .cls-10, .cls-11 {
        stroke-linejoin: round;
      }

      .cls-7 {
        stroke: red;
      }

      .cls-12 {
        clip-path: url(#clippath-1);
      }

      .cls-3, .cls-8 {
        opacity: .8;
      }

      .cls-3, .cls-4 {
        fill: #fff;
      }

      .cls-8 {
        stroke: #ccc;
      }

      .cls-8, .cls-9 {
        stroke-miterlimit: 10;
      }

      .cls-13 {
        clip-path: url(#clippath);
      }

      .cls-9, .cls-10, .cls-11 {
        stroke: #000;
      }

      .cls-9, .cls-11 {
        stroke-width: .8px;
      }

      .cls-10 {
        stroke-dasharray: 0 0 7.4 3.2;
        stroke-width: 2px;
      }
    </style>
    <clipPath id="clippath">
      <rect class="cls-2" x="44.47" y="7.2" width="357.12" height="266.11"/>
    </clipPath>
    <clipPath id="clippath-1">
      <rect class="cls-2" x="44.47" y="7.2" width="357.12" height="266.11"/>
    </clipPath>
    <clipPath id="clippath-2">
      <rect class="cls-2" x="44.47" y="7.2" width="357.12" height="266.11"/>
    </clipPath>
  </defs>
  <rect class="cls-4" width="408.79" height="316.18"/>
  <rect class="cls-4" x="44.47" y="7.2" width="357.12" height="266.11"/>
  <line class="cls-1" x1="52.37" y1="273.31" x2="52.37" y2="276.81"/>
  <line class="cls-11" x1="52.37" y1="273.31" x2="52.37" y2="276.81"/>
  <path class="cls-1" d="M52.37,280.49c.81,0,1.43.33,1.87.97.43.65.65,1.59.65,2.81s-.22,2.17-.65,2.81c-.44.64-1.06.96-1.88.96s-1.44-.32-1.87-.96-.64-1.58-.64-2.81.21-2.16.64-2.81c.43-.64,1.06-.97,1.88-.97ZM52.37,281.27c-.51,0-.89.25-1.15.75-.26.5-.38,1.25-.38,2.25s.12,1.75.38,2.25c.26.5.64.75,1.15.75s.89-.25,1.15-.75c.25-.5.38-1.25.38-2.25s-.13-1.75-.38-2.25c-.26-.5-.64-.75-1.15-.75Z"/>
  <line class="cls-1" x1="94" y1="273.31" x2="94" y2="276.81"/>
  <line class="cls-11" x1="94" y1="273.31" x2="94" y2="276.81"/>
  <path class="cls-1" d="M89.56,287.08h3.44v.83h-4.63v-.83c.37-.38.88-.9,1.53-1.56.64-.65,1.05-1.07,1.22-1.26.32-.35.54-.65.66-.9.12-.24.19-.49.19-.73,0-.38-.14-.7-.41-.94-.27-.24-.62-.37-1.06-.37-.31,0-.64.06-.98.16-.34.11-.71.27-1.1.49v-1c.4-.16.77-.28,1.11-.36.34-.08.66-.12.95-.12.75,0,1.35.19,1.8.57.45.38.68.88.68,1.51,0,.3-.06.59-.17.85-.11.27-.31.59-.61.95-.08.1-.34.37-.78.82-.44.45-1.05,1.08-1.84,1.89Z"/>
  <path class="cls-1" d="M95.08,280.62h3.87v.83h-2.97v1.79c.14-.05.29-.09.43-.11.14-.02.29-.04.43-.04.81,0,1.45.23,1.93.67.48.45.72,1.05.72,1.81s-.25,1.4-.74,1.83-1.18.64-2.06.64c-.31,0-.62-.03-.94-.07-.32-.05-.64-.12-.98-.23v-.99c.29.16.59.28.91.36.31.08.64.11.99.11.56,0,1.01-.14,1.34-.44.32-.3.49-.7.49-1.21s-.17-.9-.49-1.2c-.33-.3-.78-.45-1.34-.45-.26,0-.53.03-.79.09-.26.06-.53.15-.8.27v-3.66Z"/>
  <line class="cls-1" x1="135.62" y1="273.31" x2="135.62" y2="276.81"/>
  <line class="cls-11" x1="135.62" y1="273.31" x2="135.62" y2="276.81"/>
  <path class="cls-1" d="M130.34,280.62h3.87v.83h-2.97v1.79c.14-.05.29-.09.43-.11s.29-.04.43-.04c.81,0,1.45.23,1.93.67.48.45.72,1.05.72,1.81s-.25,1.4-.74,1.83-1.18.64-2.06.64c-.31,0-.62-.03-.94-.07-.32-.05-.64-.12-.98-.23v-.99c.29.16.59.28.91.36.31.08.64.11.99.11.56,0,1.01-.14,1.34-.44.32-.3.49-.7.49-1.21s-.17-.9-.49-1.2c-.33-.3-.78-.45-1.34-.45-.26,0-.53.03-.79.09-.26.06-.53.15-.8.27v-3.66Z"/>
  <path class="cls-1" d="M138.8,280.49c.81,0,1.43.33,1.87.97.43.65.65,1.59.65,2.81s-.22,2.17-.65,2.81c-.44.64-1.06.96-1.88.96s-1.44-.32-1.87-.96c-.43-.64-.64-1.58-.64-2.81s.21-2.16.64-2.81c.43-.64,1.06-.97,1.88-.97ZM138.8,281.27c-.51,0-.89.25-1.15.75s-.38,1.25-.38,2.25.12,1.75.38,2.25.64.75,1.15.75.89-.25,1.15-.75c.25-.5.38-1.25.38-2.25s-.13-1.75-.38-2.25c-.26-.5-.64-.75-1.15-.75Z"/>
  <line class="cls-1" x1="177.24" y1="273.31" x2="177.24" y2="276.81"/>
  <line class="cls-11" x1="177.24" y1="273.31" x2="177.24" y2="276.81"/>
  <polygon class="cls-1" points="171.7 280.62 176.39 280.62 176.39 281.04 173.74 287.91 172.71 287.91 175.2 281.45 171.7 281.45 171.7 280.62"/>
  <path class="cls-1" d="M178.32,280.62h3.87v.83h-2.97v1.79c.14-.05.29-.09.43-.11s.29-.04.43-.04c.81,0,1.45.23,1.93.67.48.45.72,1.05.72,1.81s-.25,1.4-.74,1.83-1.18.64-2.06.64c-.31,0-.62-.03-.94-.07-.32-.05-.64-.12-.98-.23v-.99c.29.16.59.28.91.36.31.08.64.11.99.11.56,0,1.01-.14,1.34-.44.32-.3.49-.7.49-1.21s-.17-.9-.49-1.2c-.33-.3-.78-.45-1.34-.45-.26,0-.53.03-.79.09-.26.06-.53.15-.8.27v-3.66Z"/>
  <line class="cls-1" x1="218.86" y1="273.31" x2="218.86" y2="276.81"/>
  <line class="cls-11" x1="218.86" y1="273.31" x2="218.86" y2="276.81"/>
  <polygon class="cls-1" points="210.56 287.08 212.17 287.08 212.17 281.52 210.42 281.87 210.42 280.97 212.16 280.62 213.15 280.62 213.15 287.08 214.76 287.08 214.76 287.91 210.56 287.91 210.56 287.08"/>
  <path class="cls-1" d="M218.86,280.49c.81,0,1.43.33,1.87.97.43.65.65,1.59.65,2.81s-.22,2.17-.65,2.81c-.44.64-1.06.96-1.88.96s-1.44-.32-1.87-.96c-.43-.64-.64-1.58-.64-2.81s.21-2.16.64-2.81c.43-.64,1.06-.97,1.88-.97ZM218.86,281.27c-.51,0-.89.25-1.15.75s-.38,1.25-.38,2.25.12,1.75.38,2.25.64.75,1.15.75.89-.25,1.15-.75c.25-.5.38-1.25.38-2.25s-.13-1.75-.38-2.25c-.26-.5-.64-.75-1.15-.75Z"/>
  <path class="cls-1" d="M225.22,280.49c.81,0,1.43.33,1.87.97.43.65.65,1.59.65,2.81s-.22,2.17-.65,2.81c-.44.64-1.06.96-1.88.96s-1.44-.32-1.87-.96c-.43-.64-.64-1.58-.64-2.81s.21-2.16.64-2.81c.43-.64,1.06-.97,1.88-.97ZM225.22,281.27c-.51,0-.89.25-1.15.75s-.38,1.25-.38,2.25.12,1.75.38,2.25.64.75,1.15.75.89-.25,1.15-.75c.25-.5.38-1.25.38-2.25s-.13-1.75-.38-2.25c-.26-.5-.64-.75-1.15-.75Z"/>
  <line class="cls-1" x1="260.49" y1="273.31" x2="260.49" y2="276.81"/>
  <line class="cls-11" x1="260.49" y1="273.31" x2="260.49" y2="276.81"/>
  <polygon class="cls-1" points="252.19 287.08 253.8 287.08 253.8 281.52 252.05 281.87 252.05 280.97 253.79 280.62 254.78 280.62 254.78 287.08 256.39 287.08 256.39 287.91 252.19 287.91 252.19 287.08"/>
  <path class="cls-1" d="M259.23,287.08h3.44v.83h-4.63v-.83c.37-.38.88-.9,1.53-1.56.64-.65,1.05-1.07,1.22-1.26.32-.35.54-.65.66-.9.12-.24.19-.49.19-.73,0-.38-.14-.7-.41-.94-.27-.24-.62-.37-1.06-.37-.31,0-.64.06-.98.16-.34.11-.71.27-1.1.49v-1c.4-.16.77-.28,1.11-.36.34-.08.66-.12.95-.12.75,0,1.35.19,1.8.57.45.38.68.88.68,1.51,0,.3-.06.59-.17.85-.11.27-.31.59-.61.95-.08.1-.34.37-.78.82-.44.45-1.05,1.08-1.84,1.89Z"/>
  <path class="cls-1" d="M264.75,280.62h3.87v.83h-2.97v1.79c.14-.05.29-.09.43-.11.14-.02.29-.04.43-.04.81,0,1.45.23,1.93.67.48.45.72,1.05.72,1.81s-.25,1.4-.74,1.83-1.18.64-2.06.64c-.31,0-.62-.03-.94-.07-.32-.05-.64-.12-.98-.23v-.99c.29.16.59.28.91.36.31.08.64.11.99.11.56,0,1.01-.14,1.34-.44.32-.3.49-.7.49-1.21s-.17-.9-.49-1.2c-.33-.3-.78-.45-1.34-.45-.26,0-.53.03-.79.09-.26.06-.53.15-.8.27v-3.66Z"/>
  <line class="cls-1" x1="302.11" y1="273.31" x2="302.11" y2="276.81"/>
  <line class="cls-11" x1="302.11" y1="273.31" x2="302.11" y2="276.81"/>
  <polygon class="cls-1" points="293.81 287.08 295.42 287.08 295.42 281.52 293.67 281.87 293.67 280.97 295.41 280.62 296.4 280.62 296.4 287.08 298.01 287.08 298.01 287.91 293.81 287.91 293.81 287.08"/>
  <path class="cls-1" d="M300.01,280.62h3.87v.83h-2.97v1.79c.14-.05.29-.09.43-.11.14-.02.29-.04.43-.04.81,0,1.45.23,1.93.67.48.45.72,1.05.72,1.81s-.25,1.4-.74,1.83-1.18.64-2.06.64c-.31,0-.62-.03-.94-.07-.32-.05-.64-.12-.98-.23v-.99c.29.16.59.28.91.36.31.08.64.11.99.11.56,0,1.01-.14,1.34-.44.32-.3.49-.7.49-1.21s-.17-.9-.49-1.2c-.33-.3-.78-.45-1.34-.45-.26,0-.53.03-.79.09-.26.06-.53.15-.8.27v-3.66Z"/>
  <path class="cls-1" d="M308.47,280.49c.81,0,1.43.33,1.87.97.43.65.65,1.59.65,2.81s-.22,2.17-.65,2.81c-.44.64-1.06.96-1.88.96s-1.44-.32-1.87-.96c-.43-.64-.64-1.58-.64-2.81s.21-2.16.64-2.81c.43-.64,1.06-.97,1.88-.97ZM308.47,281.27c-.51,0-.89.25-1.15.75s-.38,1.25-.38,2.25.12,1.75.38,2.25.64.75,1.15.75.89-.25,1.15-.75c.25-.5.38-1.25.38-2.25s-.13-1.75-.38-2.25c-.26-.5-.64-.75-1.15-.75Z"/>
  <line class="cls-1" x1="343.73" y1="273.31" x2="343.73" y2="276.81"/>
  <line class="cls-11" x1="343.73" y1="273.31" x2="343.73" y2="276.81"/>
  <polygon class="cls-1" points="335.43 287.08 337.04 287.08 337.04 281.52 335.29 281.87 335.29 280.97 337.03 280.62 338.02 280.62 338.02 287.08 339.63 287.08 339.63 287.91 335.43 287.91 335.43 287.08"/>
  <polygon class="cls-1" points="341.37 280.62 346.06 280.62 346.06 281.04 343.41 287.91 342.38 287.91 344.87 281.45 341.37 281.45 341.37 280.62"/>
  <path class="cls-1" d="M347.99,280.62h3.87v.83h-2.97v1.79c.14-.05.29-.09.43-.11.14-.02.29-.04.43-.04.81,0,1.45.23,1.93.67.48.45.72,1.05.72,1.81s-.25,1.4-.74,1.83-1.18.64-2.06.64c-.31,0-.62-.03-.94-.07-.32-.05-.64-.12-.98-.23v-.99c.29.16.59.28.91.36.31.08.64.11.99.11.56,0,1.01-.14,1.34-.44.32-.3.49-.7.49-1.21s-.17-.9-.49-1.2c-.33-.3-.78-.45-1.34-.45-.26,0-.53.03-.79.09-.26.06-.53.15-.8.27v-3.66Z"/>
  <line class="cls-1" x1="385.35" y1="273.31" x2="385.35" y2="276.81"/>
  <line class="cls-11" x1="385.35" y1="273.31" x2="385.35" y2="276.81"/>
  <path class="cls-1" d="M377.73,287.08h3.44v.83h-4.63v-.83c.37-.38.88-.9,1.53-1.56.64-.65,1.05-1.07,1.22-1.26.32-.35.54-.65.66-.9.12-.24.19-.49.19-.73,0-.38-.14-.7-.41-.94-.27-.24-.62-.37-1.06-.37-.31,0-.64.06-.98.16-.34.11-.71.27-1.1.49v-1c.4-.16.77-.28,1.11-.36.34-.08.66-.12.95-.12.75,0,1.35.19,1.8.57.45.38.68.88.68,1.51,0,.3-.06.59-.17.85-.11.27-.31.59-.61.95-.08.1-.34.37-.78.82-.44.45-1.05,1.08-1.84,1.89Z"/>
  <path class="cls-1" d="M385.35,280.49c.81,0,1.43.33,1.87.97.43.65.65,1.59.65,2.81s-.22,2.17-.65,2.81c-.44.64-1.06.96-1.88.96s-1.44-.32-1.87-.96c-.43-.64-.64-1.58-.64-2.81s.21-2.16.64-2.81c.43-.64,1.06-.97,1.88-.97ZM385.35,281.27c-.51,0-.89.25-1.15.75s-.38,1.25-.38,2.25.12,1.75.38,2.25.64.75,1.15.75.89-.25,1.15-.75c.25-.5.38-1.25.38-2.25s-.13-1.75-.38-2.25c-.26-.5-.64-.75-1.15-.75Z"/>
  <path class="cls-1" d="M391.71,280.49c.81,0,1.43.33,1.87.97.43.65.65,1.59.65,2.81s-.22,2.17-.65,2.81c-.44.64-1.06.96-1.88.96s-1.44-.32-1.87-.96c-.43-.64-.64-1.58-.64-2.81s.21-2.16.64-2.81c.43-.64,1.06-.97,1.88-.97ZM391.71,281.27c-.51,0-.89.25-1.15.75s-.38,1.25-.38,2.25.12,1.75.38,2.25.64.75,1.15.75.89-.25,1.15-.75c.25-.5.38-1.25.38-2.25s-.13-1.75-.38-2.25c-.26-.5-.64-.75-1.15-.75Z"/>
  <path class="cls-1" d="M115.02,294.75v1.34c-.53-.25-1.02-.43-1.48-.56-.48-.11-.92-.18-1.34-.18-.76,0-1.34.15-1.75.43-.41.29-.6.71-.6,1.25,0,.45.13.8.41,1.02.27.24.78.42,1.54.56l.84.17c1.02.2,1.78.55,2.27,1.04.49.5.74,1.16.74,1.99,0,.99-.34,1.74-.99,2.24-.67.5-1.64.76-2.91.76-.49,0-1.01-.06-1.55-.15-.55-.1-1.11-.25-1.68-.48v-1.43c.56.32,1.11.56,1.64.71.53.17,1.06.24,1.6.24.78,0,1.39-.15,1.82-.46.42-.31.64-.74.64-1.33,0-.5-.15-.9-.46-1.18-.31-.28-.81-.49-1.51-.63l-.84-.17c-1.04-.2-1.78-.52-2.24-.97-.46-.43-.69-1.04-.69-1.82,0-.9.31-1.61.95-2.13.63-.52,1.51-.78,2.63-.78.48,0,.95.04,1.46.13.49.08.99.22,1.53.39Z"/>
  <path class="cls-1" d="M117.73,293.98h1.26v1.6h-1.26v-1.6ZM117.73,296.97h1.26v7.66h-1.26v-7.66Z"/>
  <polygon class="cls-1" points="121.07 296.97 127.05 296.97 127.05 298.11 122.32 303.62 127.05 303.62 127.05 304.62 120.9 304.62 120.9 303.48 125.64 297.97 121.07 297.97 121.07 296.97"/>
  <path class="cls-1" d="M134.26,300.12c-.01-.69-.21-1.23-.57-1.65-.38-.41-.88-.62-1.5-.62-.7,0-1.26.21-1.68.6-.42.39-.67.95-.73,1.67h4.48ZM135.52,300.48v.62h-5.78c.06.87.31,1.54.78,1.99.46.45,1.11.67,1.95.67.48,0,.95-.06,1.4-.17.45-.11.91-.29,1.36-.55v1.19c-.45.2-.91.35-1.39.43-.48.08-.97.14-1.44.14-1.23,0-2.2-.35-2.91-1.05-.71-.7-1.06-1.67-1.06-2.88s.34-2.24,1.01-2.98c.67-.73,1.6-1.11,2.74-1.11,1.04,0,1.85.34,2.45.99.59.67.9,1.57.9,2.7Z"/>
  <path class="cls-1" d="M145,296.78c1.09,0,1.95.36,2.58,1.06.62.71.94,1.69.94,2.95s-.32,2.24-.94,2.94c-.63.71-1.48,1.06-2.58,1.06s-1.97-.35-2.59-1.06c-.62-.7-.92-1.68-.92-2.94s.31-2.24.92-2.95c.62-.7,1.48-1.06,2.59-1.06ZM145,297.85c-.67,0-1.2.27-1.6.8s-.59,1.25-.59,2.16.18,1.64.57,2.17c.39.53.92.78,1.61.78s1.2-.25,1.6-.78c.39-.53.59-1.25.59-2.17s-.2-1.62-.59-2.16-.92-.8-1.6-.8Z"/>
  <path class="cls-1" d="M154.47,293.98v1.05h-1.2c-.45,0-.77.1-.94.28-.18.18-.27.5-.27.98v.67h2.07v.98h-2.07v6.68h-1.26v-6.68h-1.2v-.98h1.2v-.53c0-.84.2-1.47.59-1.86.39-.39,1.02-.59,1.89-.59h1.19Z"/>
  <path class="cls-1" d="M161.22,294.8v2.17h2.59v.98h-2.59v4.16c0,.63.08,1.04.25,1.2.17.18.52.27,1.05.27h1.29v1.05h-1.29c-.98,0-1.65-.18-2.02-.55-.36-.36-.55-1.02-.55-1.97v-4.16h-.92v-.98h.92v-2.17h1.26Z"/>
  <path class="cls-1" d="M171.83,300v4.62h-1.26v-4.58c0-.73-.15-1.26-.43-1.62-.28-.36-.7-.55-1.26-.55-.69,0-1.22.22-1.61.66-.39.43-.59,1.02-.59,1.76v4.33h-1.26v-10.64h1.26v4.17c.29-.45.64-.8,1.06-1.02.41-.22.88-.35,1.41-.35.87,0,1.54.28,1.99.83.45.55.69,1.34.69,2.39Z"/>
  <path class="cls-1" d="M179.63,300.12c-.01-.69-.21-1.23-.57-1.65-.38-.41-.88-.62-1.5-.62-.7,0-1.26.21-1.68.6-.42.39-.67.95-.73,1.67h4.48ZM180.89,300.48v.62h-5.78c.06.87.31,1.54.78,1.99.46.45,1.11.67,1.95.67.48,0,.95-.06,1.4-.17.45-.11.91-.29,1.36-.55v1.19c-.45.2-.91.35-1.39.43-.48.08-.97.14-1.44.14-1.23,0-2.2-.35-2.91-1.05s-1.06-1.67-1.06-2.88.34-2.24,1.01-2.98c.67-.73,1.6-1.11,2.74-1.11,1.04,0,1.85.34,2.45.99.59.67.9,1.57.9,2.7Z"/>
  <path class="cls-1" d="M192.29,297.19v1.19c-.36-.17-.73-.31-1.11-.41-.39-.08-.78-.14-1.19-.14-.63,0-1.11.1-1.41.29-.31.2-.46.48-.46.85,0,.29.11.52.34.69.22.17.67.34,1.34.48l.43.1c.9.2,1.53.48,1.9.81.36.35.56.84.56,1.46,0,.71-.28,1.27-.84,1.68-.56.42-1.34.62-2.32.62-.42,0-.84-.04-1.29-.11-.45-.07-.91-.18-1.4-.35v-1.3c.46.25.92.43,1.37.55.45.13.9.18,1.34.18.59,0,1.05-.1,1.37-.29.31-.2.48-.49.48-.87,0-.34-.13-.6-.35-.78s-.73-.36-1.51-.53l-.43-.1c-.78-.17-1.36-.42-1.69-.76-.35-.34-.52-.8-.52-1.4,0-.71.25-1.27.76-1.67.5-.39,1.23-.59,2.18-.59.46,0,.9.04,1.32.11.41.07.78.17,1.13.29Z"/>
  <path class="cls-1" d="M199.99,300.12c-.01-.69-.21-1.23-.57-1.65-.38-.41-.88-.62-1.5-.62-.7,0-1.26.21-1.68.6-.42.39-.67.95-.73,1.67h4.48ZM201.25,300.48v.62h-5.78c.06.87.31,1.54.78,1.99.46.45,1.11.67,1.95.67.48,0,.95-.06,1.4-.17.45-.11.91-.29,1.36-.55v1.19c-.45.2-.91.35-1.39.43-.48.08-.97.14-1.44.14-1.23,0-2.2-.35-2.91-1.05s-1.06-1.67-1.06-2.88.34-2.24,1.01-2.98c.67-.73,1.6-1.11,2.74-1.11,1.04,0,1.85.34,2.45.99.59.67.9,1.57.9,2.7Z"/>
  <path class="cls-1" d="M208.82,297.26v1.18c-.36-.2-.71-.34-1.08-.43-.36-.1-.71-.15-1.08-.15-.81,0-1.46.27-1.9.78s-.67,1.25-.67,2.17.22,1.67.67,2.18c.45.52,1.09.77,1.9.77.36,0,.71-.04,1.08-.14.36-.1.71-.25,1.08-.45v1.16c-.36.17-.73.29-1.09.36-.38.07-.78.11-1.2.11-1.15,0-2.07-.35-2.74-1.08-.69-.71-1.02-1.69-1.02-2.93s.34-2.23,1.02-2.94c.69-.71,1.62-1.08,2.83-1.08.39,0,.77.04,1.13.13.36.08.73.2,1.08.35Z"/>
  <path class="cls-1" d="M213.97,296.78c1.09,0,1.95.36,2.58,1.06.62.71.94,1.69.94,2.95s-.32,2.24-.94,2.94c-.63.71-1.48,1.06-2.58,1.06s-1.97-.35-2.59-1.06c-.62-.7-.92-1.68-.92-2.94s.31-2.24.92-2.95c.62-.7,1.48-1.06,2.59-1.06ZM213.97,297.85c-.67,0-1.2.27-1.6.8s-.59,1.25-.59,2.16.18,1.64.57,2.17c.39.53.92.78,1.61.78s1.2-.25,1.6-.78c.39-.53.59-1.25.59-2.17s-.2-1.62-.59-2.16-.92-.8-1.6-.8Z"/>
  <path class="cls-1" d="M225.94,300v4.62h-1.26v-4.58c0-.73-.15-1.26-.43-1.62-.28-.36-.7-.55-1.26-.55-.69,0-1.22.22-1.61.66-.39.43-.59,1.02-.59,1.76v4.33h-1.26v-7.66h1.26v1.19c.29-.45.64-.8,1.06-1.02.41-.22.88-.35,1.41-.35.87,0,1.54.28,1.99.83.45.55.69,1.34.69,2.39Z"/>
  <path class="cls-1" d="M229.2,300.8c0,.92.18,1.65.56,2.18.38.53.9.78,1.57.78s1.19-.25,1.58-.78c.38-.53.57-1.26.57-2.18s-.2-1.64-.57-2.17c-.39-.53-.91-.8-1.58-.8s-1.19.27-1.57.8c-.38.53-.56,1.25-.56,2.17ZM233.48,298.13v-4.14h1.26v10.64h-1.26v-1.15c-.27.46-.6.8-1.01,1.01-.41.21-.88.32-1.44.32-.92,0-1.68-.36-2.27-1.09s-.87-1.71-.87-2.91.28-2.17.87-2.91c.59-.73,1.34-1.11,2.27-1.11.56,0,1.04.11,1.44.34.41.22.74.56,1.01,1.01Z"/>
  <path class="cls-1" d="M247.3,297.26v1.18c-.36-.2-.71-.34-1.08-.43-.36-.1-.71-.15-1.08-.15-.81,0-1.46.27-1.9.78s-.67,1.25-.67,2.17.22,1.67.67,2.18c.45.52,1.09.77,1.9.77.36,0,.71-.04,1.08-.14.36-.1.71-.25,1.08-.45v1.16c-.36.17-.73.29-1.09.36-.38.07-.78.11-1.2.11-1.15,0-2.07-.35-2.74-1.08-.69-.71-1.02-1.69-1.02-2.93s.34-2.23,1.02-2.94c.69-.71,1.62-1.08,2.83-1.08.39,0,.77.04,1.13.13.36.08.73.2,1.08.35Z"/>
  <path class="cls-1" d="M255.47,300.26v4.37h-1.26v-1.16c-.29.48-.66.81-1.08,1.02s-.95.32-1.57.32c-.78,0-1.41-.21-1.88-.64s-.69-1.02-.69-1.76c0-.85.28-1.5.87-1.95.57-.43,1.43-.66,2.58-.66h1.76v-.13c0-.57-.2-1.02-.57-1.34-.38-.31-.91-.48-1.6-.48-.45,0-.87.06-1.29.17-.42.11-.81.27-1.19.46v-1.16c.45-.17.9-.31,1.33-.39.43-.08.85-.14,1.27-.14,1.11,0,1.93.29,2.48.87.55.57.83,1.44.83,2.6ZM252.96,300.77c-1.02,0-1.72.13-2.11.35-.39.24-.59.63-.59,1.19,0,.45.14.81.43,1.06.29.27.7.39,1.2.39.7,0,1.26-.24,1.68-.74.42-.49.63-1.15.63-1.97v-.28h-1.25Z"/>
  <path class="cls-1" d="M263.57,297.26v1.18c-.36-.2-.71-.34-1.08-.43-.36-.1-.71-.15-1.08-.15-.81,0-1.46.27-1.9.78s-.67,1.25-.67,2.17.22,1.67.67,2.18c.45.52,1.09.77,1.9.77.36,0,.71-.04,1.08-.14.36-.1.71-.25,1.08-.45v1.16c-.36.17-.73.29-1.09.36-.38.07-.78.11-1.2.11-1.15,0-2.07-.35-2.74-1.08-.69-.71-1.02-1.69-1.02-2.93s.34-2.23,1.02-2.94c.69-.71,1.62-1.08,2.83-1.08.39,0,.77.04,1.13.13.36.08.73.2,1.08.35Z"/>
  <path class="cls-1" d="M272.12,300v4.62h-1.26v-4.58c0-.73-.15-1.26-.43-1.62-.28-.36-.7-.55-1.26-.55-.69,0-1.22.22-1.61.66-.39.43-.59,1.02-.59,1.76v4.33h-1.26v-10.64h1.26v4.17c.29-.45.64-.8,1.06-1.02.41-.22.88-.35,1.41-.35.87,0,1.54.28,1.99.83.45.55.69,1.34.69,2.39Z"/>
  <path class="cls-1" d="M279.92,300.12c-.01-.69-.21-1.23-.57-1.65-.38-.41-.88-.62-1.5-.62-.7,0-1.26.21-1.68.6-.42.39-.67.95-.73,1.67h4.48ZM281.18,300.48v.62h-5.78c.06.87.31,1.54.78,1.99.46.45,1.11.67,1.95.67.48,0,.95-.06,1.4-.17.45-.11.91-.29,1.36-.55v1.19c-.45.2-.91.35-1.39.43-.48.08-.97.14-1.44.14-1.23,0-2.2-.35-2.91-1.05-.71-.7-1.06-1.67-1.06-2.88s.34-2.24,1.01-2.98c.67-.73,1.6-1.11,2.74-1.11,1.04,0,1.85.34,2.45.99.59.67.9,1.57.9,2.7Z"/>
  <path class="cls-1" d="M288.94,294.8v2.17h2.59v.98h-2.59v4.16c0,.63.08,1.04.25,1.2.17.18.52.27,1.05.27h1.29v1.05h-1.29c-.98,0-1.65-.18-2.02-.55-.36-.36-.55-1.02-.55-1.97v-4.16h-.92v-.98h.92v-2.17h1.26Z"/>
  <path class="cls-1" d="M293.18,293.98h1.26v1.6h-1.26v-1.6ZM293.18,296.97h1.26v7.66h-1.26v-7.66Z"/>
  <path class="cls-1" d="M302.36,300.12c-.01-.69-.21-1.23-.57-1.65-.38-.41-.88-.62-1.5-.62-.7,0-1.26.21-1.68.6-.42.39-.67.95-.73,1.67h4.48ZM303.62,300.48v.62h-5.78c.06.87.31,1.54.78,1.99.46.45,1.11.67,1.95.67.48,0,.95-.06,1.4-.17.45-.11.91-.29,1.36-.55v1.19c-.45.2-.91.35-1.39.43-.48.08-.97.14-1.44.14-1.23,0-2.2-.35-2.91-1.05-.71-.7-1.06-1.67-1.06-2.88s.34-2.24,1.01-2.98c.67-.73,1.6-1.11,2.74-1.11,1.04,0,1.85.34,2.45.99.59.67.9,1.57.9,2.7Z"/>
  <path class="cls-1" d="M310.12,298.14c-.14-.08-.29-.14-.46-.18-.17-.03-.35-.06-.55-.06-.71,0-1.26.24-1.64.7-.39.46-.57,1.12-.57,1.99v4.03h-1.26v-7.66h1.26v1.19c.25-.46.6-.81,1.02-1.04.42-.22.94-.34,1.55-.34.08,0,.18.01.29.01.1.01.21.03.35.06v1.29Z"/>
  <polygon class="cls-1" points="311.76 302.89 313.2 302.89 313.2 304.06 312.08 306.23 311.2 306.23 311.76 304.06 311.76 302.89"/>
  <polygon class="cls-1" points="321.37 294.42 322.76 294.42 321.01 303.48 325.98 303.48 325.76 304.62 319.4 304.62 321.37 294.42"/>
  <path class="cls-1" d="M332.28,303.69l-.63,3.23h-.88l.63-3.2c.02-.15.04-.27.06-.39.02-.12.03-.21.03-.27,0-.26-.09-.47-.25-.63-.18-.15-.41-.23-.71-.23-.47,0-.88.16-1.23.47s-.57.74-.67,1.28l-.59,2.97h-.88l1.04-5.36h.88l-.18.84c.24-.3.53-.54.88-.72.34-.17.71-.25,1.09-.25.47,0,.83.13,1.1.38.25.25.39.62.39,1.08,0,.12,0,.24-.02.36-.02.14-.04.27-.07.43Z"/>
  <path class="cls-1" d="M334.35,307.96h2.36v.57h-3.18v-.57c.25-.26.6-.62,1.05-1.07.44-.45.72-.73.84-.86.22-.24.37-.45.45-.62.08-.16.13-.34.13-.5,0-.26-.1-.48-.28-.64s-.43-.25-.73-.25c-.21,0-.44.04-.67.11-.23.08-.49.19-.75.34v-.69c.27-.11.53-.19.76-.25.23-.05.45-.08.65-.08.51,0,.93.13,1.23.39.31.26.47.6.47,1.04,0,.21-.04.4-.12.58-.08.19-.21.4-.42.65-.05.07-.23.25-.54.56-.3.31-.72.74-1.26,1.3Z"/>
  <line class="cls-1" x1="44.47" y1="261.41" x2="40.97" y2="261.41"/>
  <line class="cls-11" x1="44.47" y1="261.41" x2="40.97" y2="261.41"/>
  <path class="cls-1" d="M34.29,257.79c.81,0,1.43.33,1.87.97.43.65.65,1.59.65,2.81s-.22,2.17-.65,2.81c-.44.64-1.06.96-1.88.96s-1.44-.32-1.87-.96c-.43-.64-.64-1.58-.64-2.81s.21-2.16.64-2.81c.43-.64,1.06-.97,1.88-.97ZM34.29,258.57c-.51,0-.89.25-1.15.75-.26.5-.38,1.25-.38,2.25s.12,1.75.38,2.25c.26.5.64.75,1.15.75s.89-.25,1.15-.75c.25-.5.38-1.25.38-2.25s-.13-1.75-.38-2.25c-.26-.5-.64-.75-1.15-.75Z"/>
  <line class="cls-1" x1="44.47" y1="224.85" x2="40.97" y2="224.85"/>
  <line class="cls-11" x1="44.47" y1="224.85" x2="40.97" y2="224.85"/>
  <path class="cls-1" d="M32.19,221.35h3.87v.83h-2.97v1.79c.14-.05.29-.09.43-.11.14-.02.29-.04.43-.04.81,0,1.45.23,1.93.67.48.45.72,1.05.72,1.81s-.25,1.4-.74,1.83-1.18.64-2.06.64c-.31,0-.62-.03-.94-.07-.32-.05-.64-.12-.98-.23v-.99c.29.16.59.28.91.36.31.08.64.11.99.11.56,0,1.01-.14,1.34-.44.32-.3.49-.7.49-1.21s-.17-.9-.49-1.2c-.33-.3-.78-.45-1.34-.45-.26,0-.53.03-.79.09-.26.06-.53.15-.8.27v-3.66Z"/>
  <line class="cls-1" x1="44.47" y1="188.28" x2="40.97" y2="188.28"/>
  <line class="cls-11" x1="44.47" y1="188.28" x2="40.97" y2="188.28"/>
  <polygon class="cls-1" points="25.99 191.25 27.6 191.25 27.6 185.69 25.85 186.04 25.85 185.14 27.59 184.79 28.58 184.79 28.58 191.25 30.19 191.25 30.19 192.08 25.99 192.08 25.99 191.25"/>
  <path class="cls-1" d="M34.29,184.66c.81,0,1.43.33,1.87.97.43.65.65,1.59.65,2.81s-.22,2.17-.65,2.81c-.44.64-1.06.96-1.88.96s-1.44-.32-1.87-.96c-.43-.64-.64-1.58-.64-2.81s.21-2.16.64-2.81c.43-.64,1.06-.97,1.88-.97ZM34.29,185.44c-.51,0-.89.25-1.15.75-.26.5-.38,1.25-.38,2.25s.12,1.75.38,2.25c.26.5.64.75,1.15.75s.89-.25,1.15-.75c.25-.5.38-1.25.38-2.25s-.13-1.75-.38-2.25c-.26-.5-.64-.75-1.15-.75Z"/>
  <line class="cls-1" x1="44.47" y1="151.71" x2="40.97" y2="151.71"/>
  <line class="cls-11" x1="44.47" y1="151.71" x2="40.97" y2="151.71"/>
  <polygon class="cls-1" points="25.99 154.68 27.6 154.68 27.6 149.12 25.85 149.47 25.85 148.57 27.59 148.22 28.58 148.22 28.58 154.68 30.19 154.68 30.19 155.51 25.99 155.51 25.99 154.68"/>
  <path class="cls-1" d="M32.19,148.22h3.87v.83h-2.97v1.79c.14-.05.29-.09.43-.11s.29-.04.43-.04c.81,0,1.45.23,1.93.67.48.45.72,1.05.72,1.81s-.25,1.4-.74,1.83c-.49.43-1.18.64-2.06.64-.31,0-.62-.03-.94-.07-.32-.05-.64-.12-.98-.23v-.99c.29.16.59.28.91.36.31.08.64.11.99.11.56,0,1.01-.14,1.34-.44.32-.3.49-.7.49-1.21s-.17-.9-.49-1.2c-.33-.3-.78-.45-1.34-.45-.26,0-.53.03-.79.09-.26.06-.53.15-.8.27v-3.66Z"/>
  <line class="cls-1" x1="44.47" y1="115.15" x2="40.97" y2="115.15"/>
  <line class="cls-11" x1="44.47" y1="115.15" x2="40.97" y2="115.15"/>
  <path class="cls-1" d="M26.67,118.11h3.44v.83h-4.63v-.83c.37-.38.88-.9,1.53-1.56.64-.65,1.05-1.07,1.22-1.26.32-.35.54-.65.66-.9.12-.24.19-.49.19-.73,0-.38-.14-.7-.41-.94s-.62-.37-1.06-.37c-.31,0-.64.06-.98.16-.34.11-.71.27-1.1.49v-1c.4-.16.77-.28,1.11-.36s.66-.12.95-.12c.75,0,1.35.19,1.8.57.45.38.68.88.68,1.51,0,.3-.06.59-.17.85-.11.27-.31.59-.61.95-.08.1-.34.37-.78.82s-1.05,1.08-1.84,1.89Z"/>
  <path class="cls-1" d="M34.29,111.52c.81,0,1.43.33,1.87.97.43.65.65,1.59.65,2.81s-.22,2.17-.65,2.81c-.44.64-1.06.96-1.88.96s-1.44-.32-1.87-.96c-.43-.64-.64-1.58-.64-2.81s.21-2.16.64-2.81c.43-.64,1.06-.97,1.88-.97ZM34.29,112.3c-.51,0-.89.25-1.15.75-.26.5-.38,1.25-.38,2.25s.12,1.75.38,2.25c.26.5.64.75,1.15.75s.89-.25,1.15-.75c.25-.5.38-1.25.38-2.25s-.13-1.75-.38-2.25c-.26-.5-.64-.75-1.15-.75Z"/>
  <line class="cls-1" x1="44.47" y1="78.58" x2="40.97" y2="78.58"/>
  <line class="cls-11" x1="44.47" y1="78.58" x2="40.97" y2="78.58"/>
  <path class="cls-1" d="M26.67,81.55h3.44v.83h-4.63v-.83c.37-.38.88-.9,1.53-1.56.64-.65,1.05-1.07,1.22-1.26.32-.35.54-.65.66-.9.12-.24.19-.49.19-.73,0-.38-.14-.7-.41-.94s-.62-.37-1.06-.37c-.31,0-.64.06-.98.16-.34.11-.71.27-1.1.49v-1c.4-.16.77-.28,1.11-.36s.66-.12.95-.12c.75,0,1.35.19,1.8.57.45.38.68.88.68,1.51,0,.3-.06.59-.17.85-.11.27-.31.59-.61.95-.08.1-.34.37-.78.82s-1.05,1.08-1.84,1.89Z"/>
  <path class="cls-1" d="M32.19,75.09h3.87v.83h-2.97v1.79c.14-.05.29-.09.43-.11s.29-.04.43-.04c.81,0,1.45.23,1.93.67.48.45.72,1.05.72,1.81s-.25,1.4-.74,1.83c-.49.43-1.18.64-2.06.64-.31,0-.62-.03-.94-.07-.32-.05-.64-.12-.98-.23v-.99c.29.16.59.28.91.36.31.08.64.11.99.11.56,0,1.01-.14,1.34-.44.32-.3.49-.7.49-1.21s-.17-.9-.49-1.2c-.33-.3-.78-.45-1.34-.45-.26,0-.53.03-.79.09-.26.06-.53.15-.8.27v-3.66Z"/>
  <line class="cls-1" x1="44.47" y1="42.01" x2="40.97" y2="42.01"/>
  <line class="cls-11" x1="44.47" y1="42.01" x2="40.97" y2="42.01"/>
  <path class="cls-1" d="M28.81,41.88c.47.1.84.31,1.1.63.26.32.4.72.4,1.18,0,.72-.25,1.28-.74,1.67-.5.39-1.2.58-2.11.58-.31,0-.63-.03-.95-.09-.32-.05-.66-.14-1-.26v-.95c.27.16.57.28.9.36.32.08.66.12,1.02.12.62,0,1.09-.12,1.41-.36.32-.24.49-.6.49-1.07,0-.42-.15-.76-.45-1-.3-.24-.72-.37-1.26-.37h-.85v-.81h.89c.48,0,.85-.09,1.11-.29.26-.19.39-.47.39-.84s-.14-.66-.4-.86c-.27-.2-.65-.3-1.14-.3-.27,0-.56.03-.87.09s-.65.15-1.02.27v-.88c.37-.1.72-.18,1.05-.23.32-.05.63-.08.93-.08.74,0,1.33.17,1.77.51.44.34.66.8.66,1.38,0,.4-.12.74-.35,1.02s-.56.48-.98.58Z"/>
  <path class="cls-1" d="M34.29,38.39c.81,0,1.43.33,1.87.97.43.65.65,1.59.65,2.81s-.22,2.17-.65,2.81c-.44.64-1.06.96-1.88.96s-1.44-.32-1.87-.96c-.43-.64-.64-1.58-.64-2.81s.21-2.16.64-2.81c.43-.64,1.06-.97,1.88-.97ZM34.29,39.17c-.51,0-.89.25-1.15.75-.26.5-.38,1.25-.38,2.25s.12,1.75.38,2.25c.26.5.64.75,1.15.75s.89-.25,1.15-.75c.25-.5.38-1.25.38-2.25s-.13-1.75-.38-2.25c-.26-.5-.64-.75-1.15-.75Z"/>
  <polygon class="cls-1" points="7.63 209.46 7.63 203.01 8.8 203.01 8.8 208.08 11.82 208.08 11.82 203.22 12.98 203.22 12.98 208.08 16.68 208.08 16.68 202.88 17.84 202.88 17.84 209.46 7.63 209.46"/>
  <polygon class="cls-1" points="10.18 194.3 13.91 197.07 17.84 194.16 17.84 195.64 14.83 197.87 17.84 200.1 17.84 201.58 13.84 198.61 10.18 201.33 10.18 199.84 12.91 197.81 10.18 195.78 10.18 194.3"/>
  <path class="cls-1" d="M13.33,187.51c-.69.01-1.23.21-1.65.57-.41.38-.62.88-.62,1.5,0,.7.21,1.26.6,1.68.39.42.95.67,1.67.73v-4.48ZM13.7,186.25h.62v5.78c.87-.06,1.54-.31,1.99-.78.45-.46.67-1.11.67-1.95,0-.48-.06-.95-.17-1.4-.11-.45-.29-.91-.55-1.36h1.19c.2.45.35.91.43,1.39.08.48.14.97.14,1.44,0,1.23-.35,2.2-1.05,2.91s-1.67,1.06-2.88,1.06-2.24-.34-2.98-1.01c-.73-.67-1.11-1.6-1.11-2.74,0-1.04.34-1.85.99-2.45.67-.59,1.57-.9,2.7-.9Z"/>
  <path class="cls-1" d="M10.48,178.68h1.18c-.2.36-.34.71-.43,1.08-.1.36-.15.71-.15,1.08,0,.81.27,1.46.78,1.9.52.45,1.25.67,2.17.67s1.67-.22,2.18-.67.77-1.09.77-1.9c0-.36-.04-.71-.14-1.08-.1-.36-.25-.71-.45-1.08h1.16c.17.36.29.73.36,1.09.07.38.11.78.11,1.2,0,1.15-.35,2.07-1.08,2.74-.71.69-1.69,1.02-2.93,1.02s-2.23-.34-2.94-1.02c-.71-.69-1.08-1.62-1.08-2.83,0-.39.04-.77.13-1.13.08-.36.2-.73.35-1.08Z"/>
  <path class="cls-1" d="M10,173.46h0ZM14.82,176.62h-4.63v-1.26h4.59c.73,0,1.26-.14,1.62-.42s.55-.7.55-1.27c0-.67-.21-1.22-.64-1.61-.43-.39-1.02-.59-1.78-.59h-4.34v-1.26h7.66v1.26h-1.18c.48.31.81.67,1.04,1.06.21.41.32.87.32,1.4,0,.88-.27,1.55-.81,2-.53.46-1.33.69-2.39.69Z"/>
  <path class="cls-1" d="M8.01,166.37h2.17v-2.59h.98v2.59h4.16c.63,0,1.04-.08,1.2-.25.18-.17.27-.52.27-1.05v-1.29h1.05v1.29c0,.98-.18,1.65-.55,2.02-.36.36-1.02.55-1.97.55h-4.16v.92h-.98v-.92h-2.17v-1.26Z"/>
  <path class="cls-1" d="M7.2,162.13v-1.26h1.6v1.26h-1.6ZM10.18,162.13v-1.26h7.66v1.26h-7.66Z"/>
  <path class="cls-1" d="M10,155.27c0-1.09.36-1.95,1.06-2.58.71-.62,1.69-.94,2.95-.94s2.24.32,2.94.94c.71.63,1.06,1.48,1.06,2.58s-.35,1.97-1.06,2.59c-.7.62-1.68.92-2.94.92s-2.24-.31-2.95-.92c-.7-.62-1.06-1.48-1.06-2.59ZM11.06,155.27c0,.67.27,1.2.8,1.6.53.39,1.25.59,2.16.59s1.64-.18,2.17-.57.78-.92.78-1.61-.25-1.2-.78-1.6-1.25-.59-2.17-.59-1.62.2-2.16.59c-.53.39-.8.92-.8,1.6Z"/>
  <path class="cls-1" d="M13.22,143.3h4.62v1.26h-4.58c-.73,0-1.26.15-1.62.43-.36.28-.55.7-.55,1.26,0,.69.22,1.22.66,1.61.43.39,1.02.59,1.76.59h4.33v1.26h-7.66v-1.26h1.19c-.45-.29-.8-.64-1.02-1.06-.22-.41-.35-.88-.35-1.41,0-.87.28-1.54.83-1.99.55-.45,1.34-.69,2.39-.69Z"/>
  <path class="cls-1" d="M8.01,135.1h2.17v-2.59h.98v2.59h4.16c.63,0,1.04-.08,1.2-.25.18-.17.27-.52.27-1.05v-1.29h1.05v1.29c0,.98-.18,1.65-.55,2.02-.36.36-1.02.55-1.97.55h-4.16v.92h-.98v-.92h-2.17v-1.26Z"/>
  <path class="cls-1" d="M7.2,130.85v-1.26h1.6v1.26h-1.6ZM10.18,130.85v-1.26h7.66v1.26h-7.66Z"/>
  <path class="cls-1" d="M11.65,121c-.56-.31-.97-.69-1.25-1.12-.27-.43-.41-.95-.41-1.55,0-.78.28-1.4.84-1.83.56-.43,1.36-.66,2.38-.66h4.62v1.26h-4.58c-.73,0-1.27.14-1.64.39-.35.27-.53.66-.53,1.19,0,.66.22,1.18.66,1.55.43.38,1.02.56,1.76.56h4.33v1.26h-4.58c-.73,0-1.27.14-1.64.39-.35.27-.53.67-.53,1.2,0,.64.22,1.16.66,1.54.43.38,1.02.56,1.76.56h4.33v1.26h-7.66v-1.26h1.19c-.46-.28-.81-.63-1.04-1.04-.22-.39-.34-.87-.34-1.43s.14-1.02.42-1.41c.28-.39.7-.67,1.23-.87Z"/>
  <path class="cls-1" d="M13.33,108.03c-.69.01-1.23.21-1.65.57-.41.38-.62.88-.62,1.5,0,.7.21,1.26.6,1.68s.95.67,1.67.73v-4.48ZM13.7,106.77h.62v5.78c.87-.06,1.54-.31,1.99-.78.45-.46.67-1.11.67-1.95,0-.48-.06-.95-.17-1.4-.11-.45-.29-.91-.55-1.36h1.19c.2.45.35.91.43,1.39s.14.97.14,1.44c0,1.23-.35,2.2-1.05,2.91s-1.67,1.06-2.88,1.06-2.24-.34-2.98-1.01c-.73-.67-1.11-1.6-1.11-2.74,0-1.04.34-1.85.99-2.45.67-.59,1.57-.9,2.7-.9Z"/>
  <path class="cls-1" d="M7.21,97.24c1.06.62,2.1,1.06,3.12,1.36,1.02.31,2.06.45,3.11.45s2.1-.14,3.12-.45c1.04-.29,2.06-.74,3.11-1.36v1.09c-1.08.69-2.11,1.2-3.15,1.54-1.04.34-2.06.5-3.08.5s-2.03-.17-3.07-.5c-1.04-.34-2.09-.84-3.16-1.54v-1.09Z"/>
  <path class="cls-1" d="M11.65,88.84c-.56-.31-.97-.69-1.25-1.12-.27-.43-.41-.95-.41-1.55,0-.78.28-1.4.84-1.83.56-.43,1.36-.66,2.38-.66h4.62v1.26h-4.58c-.73,0-1.27.14-1.64.39-.35.27-.53.66-.53,1.19,0,.66.22,1.18.66,1.55.43.38,1.02.56,1.76.56h4.33v1.26h-4.58c-.73,0-1.27.14-1.64.39-.35.27-.53.67-.53,1.2,0,.64.22,1.16.66,1.54.43.38,1.02.56,1.76.56h4.33v1.26h-7.66v-1.26h1.19c-.46-.28-.81-.63-1.04-1.04-.22-.39-.34-.87-.34-1.43s.14-1.02.42-1.41c.28-.39.7-.67,1.23-.87Z"/>
  <path class="cls-1" d="M10.41,76.28h1.19c-.17.36-.31.73-.41,1.11-.08.39-.14.78-.14,1.19,0,.63.1,1.11.29,1.41s.48.46.85.46c.29,0,.52-.11.69-.34s.34-.67.48-1.34l.1-.43c.2-.9.48-1.53.81-1.9.35-.36.84-.56,1.46-.56.71,0,1.27.28,1.68.84.42.56.62,1.34.62,2.32,0,.42-.04.84-.11,1.29-.07.45-.18.91-.35,1.4h-1.3c.25-.46.43-.92.55-1.37.13-.45.18-.9.18-1.34,0-.59-.1-1.05-.29-1.37-.2-.31-.49-.48-.87-.48-.34,0-.6.13-.78.35s-.36.73-.53,1.51l-.1.43c-.17.78-.42,1.36-.76,1.69-.34.35-.8.52-1.4.52-.71,0-1.27-.25-1.67-.76-.39-.5-.59-1.23-.59-2.18,0-.46.04-.9.11-1.32.07-.41.17-.78.29-1.13Z"/>
  <path class="cls-1" d="M7.21,74.07v-1.09c1.08-.67,2.13-1.19,3.16-1.53,1.04-.34,2.06-.52,3.07-.52s2.04.18,3.08.52c1.04.34,2.07.85,3.15,1.53v1.09c-1.05-.6-2.07-1.05-3.11-1.36-1.02-.29-2.06-.45-3.12-.45s-2.09.15-3.11.45c-1.02.31-2.06.76-3.12,1.36Z"/>
  <g class="cls-13">
    <polyline class="cls-7" points="60.7 260.58 69.02 259.73 77.35 258.9 85.67 257.52 94 255.9 102.32 254.11 110.65 252.02 118.97 249.19 127.29 246.9 135.62 243.75 143.94 239.46 152.27 236.62 160.59 232.78 168.92 228.81 177.24 224.36 185.57 220.93 193.89 212.36 202.21 204.85 210.54 203.7 218.86 200.29 227.19 194.08 235.51 188.48 243.84 181.76 252.16 174.36 260.49 164.15 268.81 159.29 277.13 144.61 285.46 135.29 293.78 127.51 302.11 124.76 310.43 118.25 318.76 109.87 327.08 93.8 335.41 86.26 343.73 82.33 352.05 43.29 360.38 42.04 368.7 40.92 377.03 34.99 385.35 28.41"/>
  </g>
  <g class="cls-12">
    <polyline class="cls-6" points="60.7 261.09 69.02 260.94 77.35 260.81 85.67 260.68 94 260.49 102.32 260.27 110.65 260.08 118.97 259.95 127.29 259.86 135.62 259.73 143.94 259.59 152.27 259.36 160.59 259.1 168.92 258.83 177.24 258.86 185.57 258.58 193.89 258.29 202.21 258.25 210.54 258.16 218.86 258.05 227.19 257.69 235.51 257.6 243.84 257.35 252.16 257.31 260.49 257.05 268.81 256.8 277.13 256.54 285.46 256.44 293.78 256.09 302.11 255.85 310.43 255.62 318.76 255.31 327.08 254.28 335.41 254.94 343.73 254.63 352.05 254.52 360.38 254.17 368.7 254.03 377.03 253.59 385.35 253.17"/>
  </g>
  <g class="cls-5">
    <polyline class="cls-10" points="60.7 261.22 69.02 260.66 77.35 259.77 85.67 258.56 94 257.02 102.32 255.17 110.65 253.01 118.97 250.54 127.29 247.77 135.62 244.7 143.94 241.33 152.27 237.66 160.59 233.69 168.92 229.43 177.24 224.88 185.57 220.04 193.89 214.91 202.21 209.5 210.54 203.79 218.86 197.8 227.19 191.52 235.51 184.96 243.84 178.12 252.16 171 260.49 163.59 268.81 155.91 277.13 147.95 285.46 139.7 293.78 131.18 302.11 122.38 310.43 113.31 318.76 103.96 327.08 94.33 335.41 84.43 343.73 74.26 352.05 63.81 360.38 53.09 368.7 42.1 377.03 30.83 385.35 19.3"/>
  </g>
  <line class="cls-9" x1="44.47" y1="273.31" x2="44.47" y2="7.2"/>
  <line class="cls-9" x1="401.59" y1="273.31" x2="401.59" y2="7.2"/>
  <line class="cls-9" x1="44.47" y1="273.31" x2="401.59" y2="273.31"/>
  <line class="cls-9" x1="44.47" y1="7.2" x2="401.59" y2="7.2"/>
  <g>
    <rect class="cls-3" x="50.47" y="13.2" width="237.2" height="58.85" rx="2.4" ry="2.4"/>
    <rect class="cls-8" x="50.47" y="13.2" width="237.2" height="58.85" rx="2.4" ry="2.4"/>
  </g>
  <polyline class="cls-7" points="55.27 22.92 67.27 22.92 79.27 22.92"/>
  <path class="cls-1" d="M95.29,18.67v1.15c-.46-.22-.88-.37-1.27-.48-.41-.1-.79-.16-1.15-.16-.65,0-1.15.13-1.5.37-.35.25-.52.61-.52,1.07,0,.38.11.68.35.88.23.2.67.36,1.32.48l.72.14c.88.17,1.52.47,1.94.89.42.43.64,1,.64,1.7,0,.85-.29,1.49-.85,1.92-.58.43-1.4.65-2.5.65-.42,0-.86-.05-1.33-.13-.47-.08-.95-.22-1.44-.41v-1.22c.48.28.95.48,1.4.61.46.14.91.2,1.37.2.67,0,1.19-.13,1.56-.4.36-.26.55-.64.55-1.14,0-.43-.13-.77-.4-1.01s-.7-.42-1.3-.54l-.72-.14c-.89-.17-1.52-.44-1.92-.83-.4-.37-.59-.89-.59-1.56,0-.77.26-1.38.82-1.82.54-.44,1.3-.67,2.26-.67.41,0,.82.04,1.25.11.42.07.85.19,1.31.34Z"/>
  <path class="cls-1" d="M98.68,18.7v1.86h2.22v.84h-2.22v3.56c0,.54.07.89.22,1.03.14.16.44.23.9.23h1.1v.9h-1.1c-.84,0-1.42-.16-1.73-.47-.31-.31-.47-.88-.47-1.69v-3.56h-.79v-.84h.79v-1.86h1.08Z"/>
  <path class="cls-1" d="M106.12,21.57c-.12-.07-.25-.12-.4-.16-.14-.02-.3-.05-.47-.05-.61,0-1.08.2-1.4.6-.34.4-.49.96-.49,1.7v3.46h-1.08v-6.56h1.08v1.02c.22-.4.52-.7.88-.89.36-.19.8-.29,1.33-.29.07,0,.16.01.25.01.08.01.18.02.3.05v1.1Z"/>
  <path class="cls-1" d="M109.85,20.4h0ZM107.14,24.53v-3.97h1.08v3.94c0,.62.12,1.08.36,1.39.24.31.6.47,1.09.47.58,0,1.04-.18,1.38-.55.34-.37.5-.88.5-1.52v-3.72h1.08v6.56h-1.08v-1.01c-.26.41-.58.7-.91.89-.35.18-.74.28-1.2.28-.76,0-1.33-.23-1.72-.7-.4-.46-.59-1.14-.59-2.05Z"/>
  <path class="cls-1" d="M119.59,20.81v1.01c-.31-.17-.61-.29-.92-.37-.31-.08-.61-.13-.92-.13-.7,0-1.25.23-1.63.67s-.58,1.07-.58,1.86.19,1.43.58,1.87.94.66,1.63.66c.31,0,.61-.04.92-.12.31-.08.61-.22.92-.38v1c-.31.14-.62.25-.94.31-.32.06-.67.1-1.03.1-.98,0-1.78-.3-2.35-.92-.59-.61-.88-1.45-.88-2.51s.29-1.91.88-2.52c.59-.61,1.39-.92,2.42-.92.34,0,.66.04.97.11.31.07.62.17.92.3Z"/>
  <path class="cls-1" d="M122.53,18.7v1.86h2.22v.84h-2.22v3.56c0,.54.07.89.22,1.03.14.16.44.23.9.23h1.1v.9h-1.1c-.84,0-1.42-.16-1.73-.47-.31-.31-.47-.88-.47-1.69v-3.56h-.79v-.84h.79v-1.86h1.08Z"/>
  <path class="cls-1" d="M128.77,20.4h0ZM126.05,24.53v-3.97h1.08v3.94c0,.62.12,1.08.36,1.39.24.31.6.47,1.09.47.58,0,1.04-.18,1.38-.55.34-.37.5-.88.5-1.52v-3.72h1.08v6.56h-1.08v-1.01c-.26.41-.58.7-.91.89-.35.18-.74.28-1.2.28-.76,0-1.33-.23-1.72-.7-.4-.46-.59-1.14-.59-2.05Z"/>
  <path class="cls-1" d="M137.57,21.57c-.12-.07-.25-.12-.4-.16-.14-.02-.3-.05-.47-.05-.61,0-1.08.2-1.4.6-.34.4-.49.96-.49,1.7v3.46h-1.08v-6.56h1.08v1.02c.22-.4.52-.7.88-.89.36-.19.8-.29,1.33-.29.07,0,.16.01.25.01.08.01.18.02.3.05v1.1Z"/>
  <path class="cls-1" d="M142.99,23.26c-.01-.59-.18-1.06-.49-1.42-.32-.35-.76-.53-1.28-.53-.6,0-1.08.18-1.44.52s-.58.82-.62,1.43h3.84ZM144.07,23.57v.53h-4.96c.05.74.26,1.32.67,1.7.4.38.95.58,1.67.58.41,0,.82-.05,1.2-.14s.78-.25,1.16-.47v1.02c-.38.17-.78.3-1.19.37-.41.07-.83.12-1.24.12-1.06,0-1.88-.3-2.5-.9-.61-.6-.91-1.43-.91-2.47s.29-1.92.86-2.56c.58-.62,1.37-.95,2.35-.95.89,0,1.58.29,2.1.85.5.58.77,1.34.77,2.32Z"/>
  <path class="cls-1" d="M146.48,23.85c0,.79.16,1.42.48,1.87.32.46.77.67,1.34.67s1.02-.22,1.36-.67c.32-.46.49-1.08.49-1.87s-.17-1.4-.49-1.86c-.34-.46-.78-.68-1.36-.68s-1.02.23-1.34.68c-.32.46-.48,1.07-.48,1.86ZM150.15,21.56v-3.55h1.08v9.12h-1.08v-.98c-.23.4-.52.68-.86.86s-.76.28-1.24.28c-.79,0-1.44-.31-1.94-.94-.5-.62-.74-1.46-.74-2.5s.24-1.86.74-2.5c.5-.62,1.15-.95,1.94-.95.48,0,.89.1,1.24.29.35.19.64.48.86.86Z"/>
  <polygon class="cls-1" points="156.5 20.56 157.64 20.56 159.69 26.07 161.74 20.56 162.88 20.56 160.42 27.12 158.96 27.12 156.5 20.56"/>
  <path class="cls-1" d="M169.51,23.38v3.74h-1.08v-1c-.25.41-.56.7-.92.88s-.82.28-1.34.28c-.67,0-1.21-.18-1.61-.55s-.59-.88-.59-1.51c0-.73.24-1.28.74-1.67.49-.37,1.22-.56,2.21-.56h1.51v-.11c0-.49-.17-.88-.49-1.15-.32-.26-.78-.41-1.37-.41-.38,0-.74.05-1.1.14s-.7.23-1.02.4v-1c.38-.14.77-.26,1.14-.34.37-.07.73-.12,1.09-.12.95,0,1.66.25,2.12.74.47.49.71,1.24.71,2.23ZM167.36,23.83c-.88,0-1.48.11-1.81.3-.34.2-.5.54-.5,1.02,0,.38.12.7.37.91.25.23.6.34,1.03.34.6,0,1.08-.2,1.44-.64.36-.42.54-.98.54-1.69v-.24h-1.07Z"/>
  <rect class="cls-1" x="171.73" y="18.01" width="1.08" height="9.12"/>
  <path class="cls-1" d="M177.67,20.4h0ZM174.96,24.53v-3.97h1.08v3.94c0,.62.12,1.08.36,1.39.24.31.6.47,1.09.47.58,0,1.04-.18,1.38-.55.34-.37.5-.88.5-1.52v-3.72h1.08v6.56h-1.08v-1.01c-.26.41-.58.7-.91.89-.35.18-.74.28-1.2.28-.76,0-1.33-.23-1.72-.7-.4-.46-.59-1.14-.59-2.05Z"/>
  <path class="cls-1" d="M187.21,23.26c-.01-.59-.18-1.06-.49-1.42-.32-.35-.76-.53-1.28-.53-.6,0-1.08.18-1.44.52s-.58.82-.62,1.43h3.84ZM188.29,23.57v.53h-4.96c.05.74.26,1.32.67,1.7.4.38.95.58,1.67.58.41,0,.82-.05,1.2-.14s.78-.25,1.16-.47v1.02c-.38.17-.78.3-1.19.37-.41.07-.83.12-1.24.12-1.06,0-1.88-.3-2.5-.9-.61-.6-.91-1.43-.91-2.47s.29-1.92.86-2.56c.58-.62,1.37-.95,2.35-.95.89,0,1.58.29,2.1.85.5.58.77,1.34.77,2.32Z"/>
  <path class="cls-1" d="M194.24,20.75v1.02c-.31-.14-.62-.26-.95-.35-.34-.07-.67-.12-1.02-.12-.54,0-.95.08-1.21.25-.26.17-.4.41-.4.73,0,.25.1.44.29.59.19.14.58.29,1.15.41l.37.08c.77.17,1.31.41,1.63.7.31.3.48.72.48,1.25,0,.61-.24,1.09-.72,1.44-.48.36-1.15.53-1.99.53-.36,0-.72-.04-1.1-.1-.38-.06-.78-.16-1.2-.3v-1.12c.4.22.79.37,1.18.47.38.11.77.16,1.15.16.5,0,.9-.08,1.18-.25.26-.17.41-.42.41-.74,0-.29-.11-.52-.3-.67s-.62-.31-1.3-.46l-.37-.08c-.67-.14-1.16-.36-1.45-.65-.3-.29-.44-.68-.44-1.2,0-.61.22-1.09.65-1.43.43-.34,1.06-.5,1.87-.5.4,0,.77.04,1.13.1.35.06.67.14.97.25Z"/>
  <polyline class="cls-6" points="55.27 40.55 67.27 40.55 79.27 40.55"/>
  <path class="cls-1" d="M91.23,36.97v3.11h1.49c.56,0,1-.13,1.28-.4s.44-.65.44-1.16-.16-.89-.44-1.15-.72-.4-1.28-.4h-1.49ZM94.19,40.65c.25.1.5.28.74.55.24.29.48.67.72,1.16l1.2,2.39h-1.27l-1.12-2.24c-.29-.58-.58-.97-.84-1.16-.28-.19-.65-.29-1.12-.29h-1.28v3.7h-1.19v-8.75h2.68c1,0,1.74.22,2.23.62.49.42.74,1.06.74,1.9,0,.55-.13,1.02-.38,1.38-.26.36-.64.61-1.12.74Z"/>
  <path class="cls-1" d="M103.22,41.01v3.74h-1.08v-1c-.25.41-.56.7-.92.88s-.82.28-1.34.28c-.67,0-1.21-.18-1.61-.55-.4-.37-.59-.88-.59-1.51,0-.73.24-1.28.74-1.67.49-.37,1.22-.56,2.21-.56h1.51v-.11c0-.49-.17-.88-.49-1.15-.32-.26-.78-.41-1.37-.41-.38,0-.74.05-1.1.14s-.7.23-1.02.4v-1c.38-.14.77-.26,1.14-.34.37-.07.73-.12,1.09-.12.95,0,1.66.25,2.12.74.47.49.71,1.24.71,2.23ZM101.07,41.45c-.88,0-1.48.11-1.81.3-.34.2-.5.54-.5,1.02,0,.38.12.7.37.91.25.23.6.34,1.03.34.6,0,1.08-.2,1.44-.64.36-.42.54-.98.54-1.69v-.24h-1.07Z"/>
  <path class="cls-1" d="M110.9,40.79v3.96h-1.08v-3.92c0-.62-.13-1.08-.37-1.39-.24-.31-.6-.47-1.08-.47-.59,0-1.04.19-1.38.56-.34.37-.5.88-.5,1.51v3.71h-1.08v-6.56h1.08v1.02c.25-.38.55-.68.91-.88.35-.19.76-.3,1.21-.3.74,0,1.32.24,1.7.71.38.47.59,1.15.59,2.05Z"/>
  <path class="cls-1" d="M113.7,41.47c0,.79.16,1.42.48,1.87.32.46.77.67,1.34.67s1.02-.22,1.36-.67c.32-.46.49-1.08.49-1.87s-.17-1.4-.49-1.86c-.34-.46-.78-.68-1.36-.68s-1.02.23-1.34.68c-.32.46-.48,1.07-.48,1.86ZM117.37,39.18v-3.55h1.08v9.12h-1.08v-.98c-.23.4-.52.68-.86.86s-.76.28-1.24.28c-.79,0-1.44-.31-1.94-.94s-.74-1.46-.74-2.5.24-1.86.74-2.5c.5-.62,1.15-.95,1.94-.95.48,0,.89.1,1.24.29.35.19.64.48.86.86Z"/>
  <path class="cls-1" d="M123.21,38.03c.94,0,1.67.31,2.21.91.53.61.8,1.45.8,2.53s-.28,1.92-.8,2.52c-.54.61-1.27.91-2.21.91s-1.69-.3-2.22-.91c-.53-.6-.79-1.44-.79-2.52s.26-1.92.79-2.53c.53-.6,1.27-.91,2.22-.91ZM123.21,38.94c-.58,0-1.03.23-1.37.68s-.5,1.07-.5,1.85.16,1.4.49,1.86c.34.46.79.67,1.38.67s1.03-.22,1.37-.67c.34-.46.5-1.07.5-1.86s-.17-1.39-.5-1.85-.79-.68-1.37-.68Z"/>
  <path class="cls-1" d="M133.12,39.45c.26-.48.59-.83.96-1.07.37-.23.82-.35,1.33-.35.67,0,1.2.24,1.57.72.37.48.56,1.16.56,2.04v3.96h-1.08v-3.92c0-.62-.12-1.09-.34-1.4-.23-.3-.56-.46-1.02-.46-.56,0-1.01.19-1.33.56s-.48.88-.48,1.51v3.71h-1.08v-3.92c0-.62-.12-1.09-.34-1.4-.23-.3-.58-.46-1.03-.46-.55,0-1,.19-1.32.56s-.48.88-.48,1.51v3.71h-1.08v-6.56h1.08v1.02c.24-.4.54-.7.89-.89.34-.19.74-.29,1.22-.29s.88.12,1.21.36c.34.24.58.6.74,1.06Z"/>
  <polygon class="cls-1" points="142.75 38.19 143.89 38.19 145.94 43.69 147.99 38.19 149.13 38.19 146.67 44.75 145.21 44.75 142.75 38.19"/>
  <path class="cls-1" d="M155.76,41.01v3.74h-1.08v-1c-.25.41-.56.7-.92.88s-.82.28-1.34.28c-.67,0-1.21-.18-1.61-.55s-.59-.88-.59-1.51c0-.73.24-1.28.74-1.67.49-.37,1.22-.56,2.21-.56h1.51v-.11c0-.49-.17-.88-.49-1.15-.32-.26-.78-.41-1.37-.41-.38,0-.74.05-1.1.14s-.7.23-1.02.4v-1c.38-.14.77-.26,1.14-.34.37-.07.73-.12,1.09-.12.95,0,1.66.25,2.12.74.47.49.71,1.24.71,2.23ZM153.61,41.45c-.88,0-1.48.11-1.81.3-.34.2-.5.54-.5,1.02,0,.38.12.7.37.91.25.23.6.34,1.03.34.6,0,1.08-.2,1.44-.64.36-.42.54-.98.54-1.69v-.24h-1.07Z"/>
  <rect class="cls-1" x="157.98" y="35.63" width="1.08" height="9.12"/>
  <path class="cls-1" d="M163.92,38.03h0ZM161.2,42.16v-3.97h1.08v3.94c0,.62.12,1.08.36,1.39.24.31.6.47,1.09.47.58,0,1.04-.18,1.38-.55.34-.37.5-.88.5-1.52v-3.72h1.08v6.56h-1.08v-1.01c-.26.41-.58.7-.91.89-.35.18-.74.28-1.2.28-.76,0-1.33-.23-1.72-.7-.4-.46-.59-1.14-.59-2.05Z"/>
  <path class="cls-1" d="M173.46,40.89c-.01-.59-.18-1.06-.49-1.42-.32-.35-.76-.53-1.28-.53-.6,0-1.08.18-1.44.52s-.58.82-.62,1.43h3.84ZM174.54,41.2v.53h-4.96c.05.74.26,1.32.67,1.7.4.38.95.58,1.67.58.41,0,.82-.05,1.2-.14s.78-.25,1.16-.47v1.02c-.38.17-.78.3-1.19.37-.41.07-.83.12-1.24.12-1.06,0-1.88-.3-2.5-.9-.61-.6-.91-1.43-.91-2.47s.29-1.92.86-2.56c.58-.62,1.37-.95,2.35-.95.89,0,1.58.29,2.1.85.5.58.77,1.34.77,2.32Z"/>
  <path class="cls-1" d="M180.49,38.38v1.02c-.31-.14-.62-.26-.95-.35-.34-.07-.67-.12-1.02-.12-.54,0-.95.08-1.21.25-.26.17-.4.41-.4.73,0,.25.1.44.29.59.19.14.58.29,1.15.41l.37.08c.77.17,1.31.41,1.63.7.31.3.48.72.48,1.25,0,.61-.24,1.09-.72,1.44-.48.36-1.15.53-1.99.53-.36,0-.72-.04-1.1-.1-.38-.06-.78-.16-1.2-.3v-1.12c.4.22.79.37,1.18.47.38.11.77.16,1.15.16.5,0,.9-.08,1.18-.25.26-.17.41-.42.41-.74,0-.29-.11-.52-.3-.67s-.62-.31-1.3-.46l-.37-.08c-.67-.14-1.16-.36-1.45-.65-.3-.29-.44-.68-.44-1.2,0-.61.22-1.09.65-1.43.43-.34,1.06-.5,1.87-.5.4,0,.77.04,1.13.1.35.06.67.14.97.25Z"/>
  <polyline class="cls-10" points="55.27 60.05 67.27 60.05 79.27 60.05"/>
  <path class="cls-1" d="M90.04,55.33h2.68c.97,0,1.72.23,2.22.67s.76,1.09.76,1.94-.25,1.52-.76,1.96c-.5.44-1.25.66-2.22.66h-1.49v3.52h-1.19v-8.75ZM91.23,56.3v3.29h1.49c.55,0,.97-.13,1.27-.42.3-.29.46-.7.46-1.22s-.16-.92-.46-1.21-.72-.43-1.27-.43h-1.49Z"/>
  <path class="cls-1" d="M99.77,57.36c.94,0,1.67.31,2.21.91.53.61.8,1.45.8,2.53s-.28,1.92-.8,2.52c-.54.61-1.27.91-2.21.91s-1.69-.3-2.22-.91c-.53-.6-.79-1.44-.79-2.52s.26-1.92.79-2.53c.53-.6,1.27-.91,2.22-.91ZM99.77,58.27c-.58,0-1.03.23-1.37.68s-.5,1.07-.5,1.85.16,1.4.49,1.86.79.67,1.38.67,1.03-.22,1.37-.67.5-1.07.5-1.86-.17-1.39-.5-1.85-.79-.68-1.37-.68Z"/>
  <rect class="cls-1" x="104.57" y="54.96" width="1.08" height="9.12"/>
  <path class="cls-1" d="M110.64,64.68c-.31.77-.61,1.28-.9,1.52-.29.24-.67.36-1.15.36h-.86v-.9h.64c.29,0,.52-.07.68-.22s.35-.47.55-1l.19-.48-2.65-6.46h1.14l2.05,5.14,2.05-5.14h1.14l-2.88,7.16Z"/>
  <path class="cls-1" d="M120.47,60.12v3.96h-1.08v-3.92c0-.62-.13-1.08-.37-1.39-.24-.31-.6-.47-1.08-.47-.59,0-1.04.19-1.38.56-.34.37-.5.88-.5,1.51v3.71h-1.08v-6.56h1.08v1.02c.25-.38.55-.68.91-.88.35-.19.76-.3,1.21-.3.74,0,1.32.24,1.7.71.38.47.59,1.15.59,2.05Z"/>
  <path class="cls-1" d="M125.16,57.36c.94,0,1.67.31,2.21.91.53.61.8,1.45.8,2.53s-.28,1.92-.8,2.52c-.54.61-1.27.91-2.21.91s-1.69-.3-2.22-.91c-.53-.6-.79-1.44-.79-2.52s.26-1.92.79-2.53c.53-.6,1.27-.91,2.22-.91ZM125.16,58.27c-.58,0-1.03.23-1.37.68s-.5,1.07-.5,1.85.16,1.4.49,1.86.79.67,1.38.67,1.03-.22,1.37-.67.5-1.07.5-1.86-.17-1.39-.5-1.85-.79-.68-1.37-.68Z"/>
  <path class="cls-1" d="M135.07,58.77c.26-.48.59-.83.96-1.07.37-.23.82-.35,1.33-.35.67,0,1.2.24,1.57.72.37.48.56,1.16.56,2.04v3.96h-1.08v-3.92c0-.62-.12-1.09-.34-1.4-.23-.3-.56-.46-1.02-.46-.56,0-1.01.19-1.33.56-.32.37-.48.88-.48,1.51v3.71h-1.08v-3.92c0-.62-.12-1.09-.34-1.4-.23-.3-.58-.46-1.03-.46-.55,0-1,.19-1.32.56-.32.37-.48.88-.48,1.51v3.71h-1.08v-6.56h1.08v1.02c.24-.4.54-.7.89-.89.34-.19.74-.29,1.22-.29s.88.12,1.21.36c.34.24.58.6.74,1.06Z"/>
  <path class="cls-1" d="M141.64,54.96h1.08v1.37h-1.08v-1.37ZM141.64,57.51h1.08v6.56h-1.08v-6.56Z"/>
  <path class="cls-1" d="M150.11,60.33v3.74h-1.08v-1c-.25.41-.56.7-.92.88-.36.18-.82.28-1.34.28-.67,0-1.21-.18-1.61-.55-.4-.37-.59-.88-.59-1.51,0-.73.24-1.28.74-1.67.49-.37,1.22-.56,2.21-.56h1.51v-.11c0-.49-.17-.88-.49-1.15-.32-.26-.78-.41-1.37-.41-.38,0-.74.05-1.1.14s-.7.23-1.02.4v-1c.38-.14.77-.26,1.14-.34.37-.07.73-.12,1.09-.12.95,0,1.66.25,2.12.74.47.49.71,1.24.71,2.23ZM147.97,60.78c-.88,0-1.48.11-1.81.3-.34.2-.5.54-.5,1.02,0,.38.12.7.37.91.25.23.6.34,1.03.34.6,0,1.08-.2,1.44-.64.36-.42.54-.98.54-1.69v-.24h-1.07Z"/>
  <rect class="cls-1" x="152.33" y="54.96" width="1.08" height="9.12"/>
  <path class="cls-1" d="M162.8,54.96v.9h-1.03c-.38,0-.66.08-.8.24-.16.16-.23.43-.23.84v.58h1.78v.84h-1.78v5.72h-1.08v-5.72h-1.03v-.84h1.03v-.46c0-.72.17-1.26.5-1.6s.88-.5,1.62-.5h1.02Z"/>
  <path class="cls-1" d="M163.7,54.96h1.08v1.37h-1.08v-1.37ZM163.7,57.51h1.08v6.56h-1.08v-6.56Z"/>
  <path class="cls-1" d="M168.11,55.65v1.86h2.22v.84h-2.22v3.56c0,.54.07.89.22,1.03.14.16.44.23.9.23h1.1v.9h-1.1c-.84,0-1.42-.16-1.73-.47s-.47-.88-.47-1.69v-3.56h-.79v-.84h.79v-1.86h1.08Z"/>
  <polygon class="cls-1" points="172.02 62.59 173.26 62.59 173.26 63.6 172.3 65.46 171.54 65.46 172.02 63.6 172.02 62.59"/>
  <path class="cls-1" d="M183.98,54.96l-.17.9h-1.03c-.4,0-.68.08-.85.24-.18.16-.31.43-.4.84l-.12.58h1.78l-.16.84h-1.78l-1.12,5.72h-1.08l1.12-5.72h-1.03l.16-.84h1.03l.08-.46c.14-.77.41-1.32.78-1.63.37-.31.96-.47,1.76-.47h1.02Z"/>
  <path class="cls-1" d="M186.19,54.97c-.53.91-.91,1.8-1.16,2.68-.26.88-.38,1.76-.38,2.66s.12,1.8.38,2.68c.25.89.64,1.76,1.16,2.66h-.94c-.59-.92-1.03-1.81-1.32-2.7-.29-.89-.43-1.76-.43-2.64s.14-1.74.43-2.63c.29-.89.72-1.79,1.32-2.71h.94Z"/>
  <polygon class="cls-1" points="194.35 57.51 191.34 60.73 193.19 64.08 191.95 64.08 190.56 61.47 188.15 64.08 186.85 64.08 190.07 60.62 188.35 57.51 189.59 57.51 190.85 59.89 193.04 57.51 194.35 57.51"/>
  <path class="cls-1" d="M195.21,54.97h.94c.58.92,1.02,1.82,1.31,2.71.29.89.44,1.76.44,2.63s-.16,1.75-.44,2.64c-.29.89-.73,1.78-1.31,2.7h-.94c.52-.9.9-1.78,1.16-2.66.25-.88.38-1.76.38-2.68s-.13-1.79-.38-2.66c-.26-.88-.65-1.76-1.16-2.68Z"/>
  <path class="cls-1" d="M202.54,61.02h7.51v1h-7.51v-1ZM202.54,58.63h7.51v.98h-7.51v-.98Z"/>
  <path class="cls-1" d="M217.48,55.17c.97,0,1.72.4,2.24,1.16.52.78.78,1.91.78,3.37s-.26,2.6-.78,3.37c-.53.77-1.27,1.15-2.26,1.15s-1.73-.38-2.24-1.15c-.52-.77-.77-1.9-.77-3.37s.25-2.59.77-3.37c.52-.77,1.27-1.16,2.26-1.16ZM217.48,56.11c-.61,0-1.07.3-1.38.9-.31.6-.46,1.5-.46,2.7s.14,2.1.46,2.7c.31.6.77.9,1.38.9s1.07-.3,1.38-.9c.3-.6.46-1.5.46-2.7s-.16-2.1-.46-2.7c-.31-.6-.77-.9-1.38-.9Z"/>
  <rect class="cls-1" x="222.58" y="62.59" width="1.24" height="1.49"/>
  <path class="cls-1" d="M228.93,55.17c.97,0,1.72.4,2.24,1.16.52.78.78,1.91.78,3.37s-.26,2.6-.78,3.37c-.53.77-1.27,1.15-2.26,1.15s-1.73-.38-2.24-1.15c-.52-.77-.77-1.9-.77-3.37s.25-2.59.77-3.37c.52-.77,1.27-1.16,2.26-1.16ZM228.93,56.11c-.61,0-1.07.3-1.38.9-.31.6-.46,1.5-.46,2.7s.14,2.1.46,2.7c.31.6.77.9,1.38.9s1.07-.3,1.38-.9c.3-.6.46-1.5.46-2.7s-.16-2.1-.46-2.7c-.31-.6-.77-.9-1.38-.9Z"/>
  <path class="cls-1" d="M236.56,55.17c.97,0,1.72.4,2.24,1.16.52.78.78,1.91.78,3.37s-.26,2.6-.78,3.37c-.53.77-1.27,1.15-2.26,1.15s-1.73-.38-2.24-1.15c-.52-.77-.77-1.9-.77-3.37s.25-2.59.77-3.37c.52-.77,1.27-1.16,2.26-1.16ZM236.56,56.11c-.61,0-1.07.3-1.38.9-.31.6-.46,1.5-.46,2.7s.14,2.1.46,2.7c.31.6.77.9,1.38.9s1.07-.3,1.38-.9c.3-.6.46-1.5.46-2.7s-.16-2.1-.46-2.7c-.31-.6-.77-.9-1.38-.9Z"/>
  <polygon class="cls-1" points="241.87 63.08 243.8 63.08 243.8 56.41 241.7 56.83 241.7 55.75 243.79 55.33 244.98 55.33 244.98 63.08 246.91 63.08 246.91 64.08 241.87 64.08 241.87 63.08"/>
  <path class="cls-1" d="M250.32,63.08h4.13v1h-5.56v-1c.44-.46,1.06-1.08,1.84-1.87.77-.78,1.26-1.28,1.46-1.51.38-.42.65-.78.79-1.08.14-.29.23-.59.23-.88,0-.46-.17-.84-.49-1.13-.32-.29-.74-.44-1.27-.44-.37,0-.77.07-1.18.19-.41.13-.85.32-1.32.59v-1.2c.48-.19.92-.34,1.33-.43.41-.1.79-.14,1.14-.14.9,0,1.62.23,2.16.68.54.46.82,1.06.82,1.81,0,.36-.07.71-.2,1.02-.13.32-.37.71-.73,1.14-.1.12-.41.44-.94.98-.53.54-1.26,1.3-2.21,2.27Z"/>
  <polygon class="cls-1" points="262.85 57.51 259.84 60.73 261.69 64.08 260.45 64.08 259.06 61.47 256.65 64.08 255.35 64.08 258.57 60.62 256.85 57.51 258.09 57.51 259.35 59.89 261.54 57.51 262.85 57.51"/>
  <polygon class="cls-1" points="264.33 58.79 265.68 58.79 265.68 54.12 264.21 54.41 264.21 53.65 265.68 53.36 266.51 53.36 266.51 58.79 267.86 58.79 267.86 59.48 264.33 59.48 264.33 58.79"/>
  <rect class="cls-1" x="269.53" y="58.44" width=".87" height="1.04"/>
  <path class="cls-1" d="M273.88,56.76c.37,0,.66-.13.88-.38.22-.25.33-.6.33-1.05s-.11-.79-.33-1.04c-.22-.25-.51-.39-.88-.39s-.66.13-.88.39c-.22.25-.33.6-.33,1.04s.11.8.33,1.05c.22.25.51.38.88.38ZM272.23,59.36v-.76c.2.1.41.18.63.23.21.05.42.08.63.08.54,0,.96-.18,1.24-.55.29-.37.45-.92.5-1.68-.17.24-.37.42-.6.55-.24.13-.51.18-.81.18-.62,0-1.11-.18-1.46-.55-.35-.37-.53-.87-.53-1.52s.18-1.13.55-1.51c.37-.38.87-.57,1.49-.57.71,0,1.25.28,1.62.81.37.55.56,1.34.56,2.36s-.24,1.74-.69,2.31c-.46.57-1.08.86-1.85.86-.21,0-.42-.03-.63-.06-.22-.03-.44-.09-.66-.18Z"/>
  <path class="cls-1" d="M280.06,56.18c.39.08.71.26.92.53.22.27.34.6.34.99,0,.6-.21,1.08-.62,1.4-.42.33-1.01.49-1.77.49-.26,0-.53-.03-.8-.08-.27-.04-.55-.12-.84-.22v-.8c.23.13.48.24.76.3.27.07.55.1.86.1.52,0,.92-.1,1.18-.3s.41-.5.41-.9c0-.35-.13-.64-.38-.84-.25-.2-.6-.31-1.06-.31h-.71v-.68h.75c.4,0,.71-.08.93-.24.22-.16.33-.39.33-.71s-.12-.55-.34-.72c-.23-.17-.55-.25-.96-.25-.23,0-.47.03-.73.08-.26.05-.55.13-.86.23v-.74c.31-.08.6-.15.88-.19.27-.04.53-.07.78-.07.62,0,1.12.14,1.49.43.37.29.55.67.55,1.16,0,.34-.1.62-.29.86-.19.24-.47.4-.82.49Z"/>
</svg>