<?xml version="1.0" encoding="UTF-8"?>
<svg id="Layer_1" data-name="Layer 1" xmlns="http://www.w3.org/2000/svg" version="1.1" xmlns:xlink="http://www.w3.org/1999/xlink" viewBox="0 0 406.88 325.65">
  <defs>
    <style>
      .cls-1 {
        clip-path: url(#clippath-72);
      }

      .cls-2 {
        clip-path: url(#clippath-62);
      }

      .cls-3 {
        clip-path: url(#clippath-45);
      }

      .cls-4 {
        clip-path: url(#clippath-63);
      }

      .cls-5 {
        clip-path: url(#clippath-20);
      }

      .cls-6 {
        clip-path: url(#clippath-11);
      }

      .cls-7 {
        clip-path: url(#clippath-16);
      }

      .cls-8 {
        clip-path: url(#clippath-59);
      }

      .cls-9 {
        clip-path: url(#clippath-33);
      }

      .cls-10 {
        fill: #000;
      }

      .cls-10, .cls-11, .cls-12, .cls-13, .cls-14 {
        stroke-width: 0px;
      }

      .cls-15 {
        clip-path: url(#clippath-64);
      }

      .cls-16 {
        clip-path: url(#clippath-47);
      }

      .cls-17 {
        clip-path: url(#clippath-41);
      }

      .cls-18 {
        clip-path: url(#clippath-32);
      }

      .cls-19 {
        clip-path: url(#clippath-2);
      }

      .cls-20 {
        clip-path: url(#clippath-13);
      }

      .cls-21 {
        clip-path: url(#clippath-37);
      }

      .cls-22 {
        clip-path: url(#clippath-46);
      }

      .cls-23 {
        clip-path: url(#clippath-25);
      }

      .cls-24 {
        clip-path: url(#clippath-15);
      }

      .cls-25 {
        clip-path: url(#clippath-6);
      }

      .cls-26 {
        clip-path: url(#clippath-40);
      }

      .cls-27 {
        clip-path: url(#clippath-26);
      }

      .cls-11, .cls-28, .cls-29, .cls-30, .cls-31, .cls-32, .cls-33, .cls-34, .cls-35, .cls-36, .cls-37, .cls-38, .cls-39 {
        fill: none;
      }

      .cls-28, .cls-30 {
        stroke: #ccc;
      }

      .cls-28, .cls-30, .cls-33, .cls-35, .cls-36 {
        stroke-miterlimit: 10;
      }

      .cls-28, .cls-37, .cls-14 {
        opacity: .5;
      }

      .cls-40 {
        clip-path: url(#clippath-7);
      }

      .cls-41 {
        clip-path: url(#clippath-21);
      }

      .cls-29, .cls-31, .cls-32, .cls-34, .cls-37, .cls-38, .cls-39 {
        stroke-linejoin: round;
      }

      .cls-29, .cls-31, .cls-32, .cls-34, .cls-38 {
        stroke-width: 1.5px;
      }

      .cls-29, .cls-31, .cls-36 {
        stroke: red;
      }

      .cls-29, .cls-32 {
        stroke-dasharray: 0 0 5.55 2.4;
      }

      .cls-42 {
        clip-path: url(#clippath-34);
      }

      .cls-43 {
        clip-path: url(#clippath-57);
      }

      .cls-44 {
        clip-path: url(#clippath-1);
      }

      .cls-45 {
        clip-path: url(#clippath-4);
      }

      .cls-46 {
        clip-path: url(#clippath-38);
      }

      .cls-47 {
        clip-path: url(#clippath-36);
      }

      .cls-48 {
        clip-path: url(#clippath-27);
      }

      .cls-49 {
        clip-path: url(#clippath-60);
      }

      .cls-12, .cls-30 {
        opacity: .8;
      }

      .cls-12, .cls-13, .cls-14 {
        fill: #fff;
      }

      .cls-50 {
        clip-path: url(#clippath-44);
      }

      .cls-51 {
        clip-path: url(#clippath-12);
      }

      .cls-31, .cls-33, .cls-34, .cls-38 {
        stroke-linecap: square;
      }

      .cls-52 {
        clip-path: url(#clippath-24);
      }

      .cls-53 {
        clip-path: url(#clippath-30);
      }

      .cls-32, .cls-35, .cls-38 {
        stroke: blue;
      }

      .cls-54 {
        clip-path: url(#clippath-22);
      }

      .cls-55 {
        clip-path: url(#clippath-9);
      }

      .cls-56 {
        clip-path: url(#clippath-52);
      }

      .cls-57 {
        clip-path: url(#clippath);
      }

      .cls-58 {
        clip-path: url(#clippath-50);
      }

      .cls-59 {
        clip-path: url(#clippath-48);
      }

      .cls-60 {
        clip-path: url(#clippath-61);
      }

      .cls-61 {
        clip-path: url(#clippath-39);
      }

      .cls-62 {
        clip-path: url(#clippath-19);
      }

      .cls-63 {
        clip-path: url(#clippath-31);
      }

      .cls-64 {
        clip-path: url(#clippath-54);
      }

      .cls-65 {
        clip-path: url(#clippath-3);
      }

      .cls-33, .cls-34, .cls-39 {
        stroke: #000;
      }

      .cls-33, .cls-37, .cls-39 {
        stroke-width: .8px;
      }

      .cls-66 {
        clip-path: url(#clippath-43);
      }

      .cls-67 {
        clip-path: url(#clippath-70);
      }

      .cls-68 {
        clip-path: url(#clippath-8);
      }

      .cls-69 {
        clip-path: url(#clippath-55);
      }

      .cls-70 {
        clip-path: url(#clippath-69);
      }

      .cls-71 {
        clip-path: url(#clippath-29);
      }

      .cls-72 {
        clip-path: url(#clippath-18);
      }

      .cls-73 {
        clip-path: url(#clippath-14);
      }

      .cls-74 {
        clip-path: url(#clippath-17);
      }

      .cls-75 {
        clip-path: url(#clippath-5);
      }

      .cls-76 {
        clip-path: url(#clippath-58);
      }

      .cls-37 {
        stroke: #b0b0b0;
        stroke-dasharray: 0 0 2.96 1.28;
      }

      .cls-77 {
        clip-path: url(#clippath-42);
      }

      .cls-78 {
        clip-path: url(#clippath-65);
      }

      .cls-79 {
        clip-path: url(#clippath-10);
      }

      .cls-80 {
        clip-path: url(#clippath-23);
      }

      .cls-81 {
        clip-path: url(#clippath-56);
      }

      .cls-82 {
        clip-path: url(#clippath-53);
      }

      .cls-83 {
        clip-path: url(#clippath-49);
      }

      .cls-84 {
        clip-path: url(#clippath-67);
      }

      .cls-85 {
        clip-path: url(#clippath-51);
      }

      .cls-86 {
        clip-path: url(#clippath-28);
      }

      .cls-87 {
        clip-path: url(#clippath-71);
      }

      .cls-88 {
        clip-path: url(#clippath-68);
      }

      .cls-89 {
        clip-path: url(#clippath-35);
      }

      .cls-90 {
        clip-path: url(#clippath-66);
      }
    </style>
    <clipPath id="clippath">
      <rect class="cls-11" x="37.2" y="18.12" width="357.12" height="120.96"/>
    </clipPath>
    <clipPath id="clippath-1">
      <rect class="cls-11" x="37.2" y="18.12" width="357.12" height="120.96"/>
    </clipPath>
    <clipPath id="clippath-2">
      <rect class="cls-11" x="37.2" y="18.12" width="357.12" height="120.96"/>
    </clipPath>
    <clipPath id="clippath-3">
      <rect class="cls-11" x="37.2" y="18.12" width="357.12" height="120.96"/>
    </clipPath>
    <clipPath id="clippath-4">
      <rect class="cls-11" x="37.2" y="18.12" width="357.12" height="120.96"/>
    </clipPath>
    <clipPath id="clippath-5">
      <rect class="cls-11" x="37.2" y="18.12" width="357.12" height="120.96"/>
    </clipPath>
    <clipPath id="clippath-6">
      <rect class="cls-11" x="37.2" y="18.12" width="357.12" height="120.96"/>
    </clipPath>
    <clipPath id="clippath-7">
      <rect class="cls-11" x="37.2" y="18.12" width="357.12" height="120.96"/>
    </clipPath>
    <clipPath id="clippath-8">
      <rect class="cls-11" x="37.2" y="18.12" width="357.12" height="120.96"/>
    </clipPath>
    <clipPath id="clippath-9">
      <rect class="cls-11" x="37.2" y="18.12" width="357.12" height="120.96"/>
    </clipPath>
    <clipPath id="clippath-10">
      <rect class="cls-11" x="37.2" y="18.12" width="357.12" height="120.96"/>
    </clipPath>
    <clipPath id="clippath-11">
      <rect class="cls-11" x="37.2" y="18.12" width="357.12" height="120.96"/>
    </clipPath>
    <clipPath id="clippath-12">
      <rect class="cls-11" x="37.2" y="18.12" width="357.12" height="120.96"/>
    </clipPath>
    <clipPath id="clippath-13">
      <rect class="cls-11" x="370.59" y="124.24" width="15" height="15"/>
    </clipPath>
    <clipPath id="clippath-14">
      <rect class="cls-11" x="272.55" y="126.08" width="15" height="15"/>
    </clipPath>
    <clipPath id="clippath-15">
      <rect class="cls-11" x="176.68" y="125.33" width="15" height="15"/>
    </clipPath>
    <clipPath id="clippath-16">
      <rect class="cls-11" x="128.53" y="121.64" width="15" height="15"/>
    </clipPath>
    <clipPath id="clippath-17">
      <rect class="cls-11" x="103.5" y="107.14" width="15" height="15"/>
    </clipPath>
    <clipPath id="clippath-18">
      <rect class="cls-11" x="70.22" y="66.94" width="15" height="15"/>
    </clipPath>
    <clipPath id="clippath-19">
      <rect class="cls-11" x="64.22" y="55.03" width="15" height="15"/>
    </clipPath>
    <clipPath id="clippath-20">
      <rect class="cls-11" x="54.31" y="29.69" width="15" height="15"/>
    </clipPath>
    <clipPath id="clippath-21">
      <rect class="cls-11" x="49.99" y="22.05" width="15" height="15"/>
    </clipPath>
    <clipPath id="clippath-22">
      <rect class="cls-11" x="47.92" y="16.12" width="15" height="15"/>
    </clipPath>
    <clipPath id="clippath-23">
      <rect class="cls-11" x="37.2" y="18.12" width="357.12" height="120.96"/>
    </clipPath>
    <clipPath id="clippath-24">
      <rect class="cls-11" x="286.42" y="101.77" width="15" height="15"/>
    </clipPath>
    <clipPath id="clippath-25">
      <rect class="cls-11" x="224.9" y="108.15" width="15" height="15"/>
    </clipPath>
    <clipPath id="clippath-26">
      <rect class="cls-11" x="198.02" y="111.32" width="15" height="15"/>
    </clipPath>
    <clipPath id="clippath-27">
      <rect class="cls-11" x="151.5" y="109.05" width="15" height="15"/>
    </clipPath>
    <clipPath id="clippath-28">
      <rect class="cls-11" x="121.9" y="100.42" width="15" height="15"/>
    </clipPath>
    <clipPath id="clippath-29">
      <rect class="cls-11" x="107.05" y="93.99" width="15" height="15"/>
    </clipPath>
    <clipPath id="clippath-30">
      <rect class="cls-11" x="97.72" y="87.94" width="15" height="15"/>
    </clipPath>
    <clipPath id="clippath-31">
      <rect class="cls-11" x="91.79" y="81.28" width="15" height="15"/>
    </clipPath>
    <clipPath id="clippath-32">
      <rect class="cls-11" x="87.67" y="76.55" width="15" height="15"/>
    </clipPath>
    <clipPath id="clippath-33">
      <rect class="cls-11" x="83.44" y="69.46" width="15" height="15"/>
    </clipPath>
    <clipPath id="clippath-34">
      <rect class="cls-11" x="77.82" y="58.53" width="15" height="15"/>
    </clipPath>
    <clipPath id="clippath-35">
      <rect class="cls-11" x="71.59" y="47.96" width="15" height="15"/>
    </clipPath>
    <clipPath id="clippath-36">
      <rect class="cls-11" x="37.2" y="163.27" width="357.12" height="120.96"/>
    </clipPath>
    <clipPath id="clippath-37">
      <rect class="cls-11" x="37.2" y="163.27" width="357.12" height="120.96"/>
    </clipPath>
    <clipPath id="clippath-38">
      <rect class="cls-11" x="37.2" y="163.27" width="357.12" height="120.96"/>
    </clipPath>
    <clipPath id="clippath-39">
      <rect class="cls-11" x="37.2" y="163.27" width="357.12" height="120.96"/>
    </clipPath>
    <clipPath id="clippath-40">
      <rect class="cls-11" x="37.2" y="163.27" width="357.12" height="120.96"/>
    </clipPath>
    <clipPath id="clippath-41">
      <rect class="cls-11" x="37.2" y="163.27" width="357.12" height="120.96"/>
    </clipPath>
    <clipPath id="clippath-42">
      <rect class="cls-11" x="37.2" y="163.27" width="357.12" height="120.96"/>
    </clipPath>
    <clipPath id="clippath-43">
      <rect class="cls-11" x="37.2" y="163.27" width="357.12" height="120.96"/>
    </clipPath>
    <clipPath id="clippath-44">
      <rect class="cls-11" x="37.2" y="163.27" width="357.12" height="120.96"/>
    </clipPath>
    <clipPath id="clippath-45">
      <rect class="cls-11" x="37.2" y="163.27" width="357.12" height="120.96"/>
    </clipPath>
    <clipPath id="clippath-46">
      <rect class="cls-11" x="37.2" y="163.27" width="357.12" height="120.96"/>
    </clipPath>
    <clipPath id="clippath-47">
      <rect class="cls-11" x="37.2" y="163.27" width="357.12" height="120.96"/>
    </clipPath>
    <clipPath id="clippath-48">
      <rect class="cls-11" x="37.2" y="163.27" width="357.12" height="120.96"/>
    </clipPath>
    <clipPath id="clippath-49">
      <rect class="cls-11" x="37.2" y="163.27" width="357.12" height="120.96"/>
    </clipPath>
    <clipPath id="clippath-50">
      <rect class="cls-11" x="326.18" y="250.31" width="15" height="15"/>
    </clipPath>
    <clipPath id="clippath-51">
      <rect class="cls-11" x="242.49" y="257.2" width="15" height="15"/>
    </clipPath>
    <clipPath id="clippath-52">
      <rect class="cls-11" x="169.31" y="270.78" width="15" height="15"/>
    </clipPath>
    <clipPath id="clippath-53">
      <rect class="cls-11" x="123.96" y="271.24" width="15" height="15"/>
    </clipPath>
    <clipPath id="clippath-54">
      <rect class="cls-11" x="101" y="252.72" width="15" height="15"/>
    </clipPath>
    <clipPath id="clippath-55">
      <rect class="cls-11" x="66.29" y="203.62" width="15" height="15"/>
    </clipPath>
    <clipPath id="clippath-56">
      <rect class="cls-11" x="61.05" y="193.79" width="15" height="15"/>
    </clipPath>
    <clipPath id="clippath-57">
      <rect class="cls-11" x="51.62" y="173.91" width="15" height="15"/>
    </clipPath>
    <clipPath id="clippath-58">
      <rect class="cls-11" x="47.92" y="170.12" width="15" height="15"/>
    </clipPath>
    <clipPath id="clippath-59">
      <rect class="cls-11" x="46.77" y="166.59" width="15" height="15"/>
    </clipPath>
    <clipPath id="clippath-60">
      <rect class="cls-11" x="37.2" y="163.27" width="357.12" height="120.96"/>
    </clipPath>
    <clipPath id="clippath-61">
      <rect class="cls-11" x="249.88" y="207.89" width="15" height="15"/>
    </clipPath>
    <clipPath id="clippath-62">
      <rect class="cls-11" x="182" y="239.48" width="15" height="15"/>
    </clipPath>
    <clipPath id="clippath-63">
      <rect class="cls-11" x="151.63" y="253.08" width="15" height="15"/>
    </clipPath>
    <clipPath id="clippath-64">
      <rect class="cls-11" x="112.28" y="245.36" width="15" height="15"/>
    </clipPath>
    <clipPath id="clippath-65">
      <rect class="cls-11" x="96.98" y="217.15" width="15" height="15"/>
    </clipPath>
    <clipPath id="clippath-66">
      <rect class="cls-11" x="84.63" y="194.97" width="15" height="15"/>
    </clipPath>
    <clipPath id="clippath-67">
      <rect class="cls-11" x="67.47" y="182.61" width="15" height="15"/>
    </clipPath>
    <clipPath id="clippath-68">
      <rect class="cls-11" x="56.97" y="175.03" width="15" height="15"/>
    </clipPath>
    <clipPath id="clippath-69">
      <rect class="cls-11" x="52.1" y="170.65" width="15" height="15"/>
    </clipPath>
    <clipPath id="clippath-70">
      <rect class="cls-11" x="48.76" y="166.21" width="15" height="15"/>
    </clipPath>
    <clipPath id="clippath-71">
      <rect class="cls-11" x="46.9" y="162.84" width="15" height="15"/>
    </clipPath>
    <clipPath id="clippath-72">
      <rect class="cls-11" x="45.93" y="161.27" width="15" height="15"/>
    </clipPath>
  </defs>
  <rect class="cls-13" width="406.88" height="325.65"/>
  <rect class="cls-13" x="37.2" y="18.12" width="357.12" height="120.96"/>
  <g class="cls-57">
    <line class="cls-37" x1="50.6" y1="139.08" x2="50.6" y2="18.12"/>
  </g>
  <line class="cls-10" x1="50.6" y1="18.12" x2="50.6" y2="14.62"/>
  <line class="cls-39" x1="50.6" y1="18.12" x2="50.6" y2="14.62"/>
  <g class="cls-44">
    <line class="cls-37" x1="101.64" y1="139.08" x2="101.64" y2="18.12"/>
  </g>
  <line class="cls-10" x1="101.64" y1="18.12" x2="101.64" y2="14.62"/>
  <line class="cls-39" x1="101.64" y1="18.12" x2="101.64" y2="14.62"/>
  <g class="cls-19">
    <line class="cls-37" x1="152.68" y1="139.08" x2="152.68" y2="18.12"/>
  </g>
  <line class="cls-10" x1="152.68" y1="18.12" x2="152.68" y2="14.62"/>
  <line class="cls-39" x1="152.68" y1="18.12" x2="152.68" y2="14.62"/>
  <g class="cls-65">
    <line class="cls-37" x1="203.72" y1="139.08" x2="203.72" y2="18.12"/>
  </g>
  <line class="cls-10" x1="203.72" y1="18.12" x2="203.72" y2="14.62"/>
  <line class="cls-39" x1="203.72" y1="18.12" x2="203.72" y2="14.62"/>
  <g class="cls-45">
    <line class="cls-37" x1="254.76" y1="139.08" x2="254.76" y2="18.12"/>
  </g>
  <line class="cls-10" x1="254.76" y1="18.12" x2="254.76" y2="14.62"/>
  <line class="cls-39" x1="254.76" y1="18.12" x2="254.76" y2="14.62"/>
  <g class="cls-75">
    <line class="cls-37" x1="305.8" y1="139.08" x2="305.8" y2="18.12"/>
  </g>
  <line class="cls-10" x1="305.8" y1="18.12" x2="305.8" y2="14.62"/>
  <line class="cls-39" x1="305.8" y1="18.12" x2="305.8" y2="14.62"/>
  <g class="cls-25">
    <line class="cls-37" x1="356.84" y1="139.08" x2="356.84" y2="18.12"/>
  </g>
  <line class="cls-10" x1="356.84" y1="18.12" x2="356.84" y2="14.62"/>
  <line class="cls-39" x1="356.84" y1="18.12" x2="356.84" y2="14.62"/>
  <g class="cls-40">
    <line class="cls-37" x1="37.2" y1="134.31" x2="394.32" y2="134.31"/>
  </g>
  <line class="cls-10" x1="37.2" y1="134.31" x2="33.7" y2="134.31"/>
  <line class="cls-39" x1="37.2" y1="134.31" x2="33.7" y2="134.31"/>
  <polygon class="cls-10" points="9.44 136.58 11.05 136.58 11.05 131.02 9.3 131.37 9.3 130.47 11.04 130.12 12.03 130.12 12.03 136.58 13.64 136.58 13.64 137.41 9.44 137.41 9.44 136.58"/>
  <rect class="cls-10" x="15.63" y="136.17" width="1.03" height="1.24"/>
  <polygon class="cls-10" points="17.81 130.12 22.5 130.12 22.5 130.54 19.85 137.41 18.82 137.41 21.31 130.95 17.81 130.95 17.81 130.12"/>
  <path class="cls-10" d="M24.43,130.12h3.87v.83h-2.97v1.79c.14-.05.29-.09.43-.11s.29-.04.43-.04c.81,0,1.45.23,1.93.67.48.45.72,1.05.72,1.81s-.25,1.4-.74,1.83c-.49.43-1.18.64-2.06.64-.31,0-.62-.03-.94-.07-.32-.05-.64-.12-.98-.23v-.99c.29.16.59.28.91.36.31.08.64.11.99.11.56,0,1.01-.14,1.34-.44.32-.3.49-.7.49-1.21s-.17-.9-.49-1.2c-.33-.3-.78-.45-1.34-.45-.26,0-.53.03-.79.09-.26.06-.53.15-.8.27v-3.66Z"/>
  <g class="cls-68">
    <line class="cls-37" x1="37.2" y1="110.97" x2="394.32" y2="110.97"/>
  </g>
  <line class="cls-10" x1="37.2" y1="110.97" x2="33.7" y2="110.97"/>
  <line class="cls-39" x1="37.2" y1="110.97" x2="33.7" y2="110.97"/>
  <path class="cls-10" d="M9.12,113.36h3.44v.83h-4.63v-.83c.37-.38.88-.9,1.53-1.56.64-.65,1.05-1.07,1.22-1.26.32-.35.54-.65.66-.9.12-.24.19-.49.19-.73,0-.38-.14-.7-.41-.94-.27-.24-.62-.37-1.06-.37-.31,0-.64.06-.98.16-.34.11-.71.27-1.1.49v-1c.4-.16.77-.28,1.11-.36s.66-.12.95-.12c.75,0,1.35.19,1.8.57.45.38.68.88.68,1.51,0,.3-.06.59-.17.85-.11.27-.31.59-.61.95-.08.1-.34.37-.78.82s-1.05,1.08-1.84,1.89Z"/>
  <rect class="cls-10" x="14.63" y="112.95" width="1.03" height="1.24"/>
  <path class="cls-10" d="M19.92,106.77c.81,0,1.43.33,1.87.97.43.65.65,1.59.65,2.81s-.22,2.17-.65,2.81c-.44.64-1.06.96-1.88.96s-1.44-.32-1.87-.96c-.43-.64-.64-1.58-.64-2.81s.21-2.16.64-2.81c.43-.64,1.06-.97,1.88-.97ZM19.92,107.55c-.51,0-.89.25-1.15.75s-.38,1.25-.38,2.25.12,1.75.38,2.25.64.75,1.15.75.89-.25,1.15-.75c.25-.5.38-1.25.38-2.25s-.13-1.75-.38-2.25c-.26-.5-.64-.75-1.15-.75Z"/>
  <path class="cls-10" d="M26.28,106.77c.81,0,1.43.33,1.87.97.43.65.65,1.59.65,2.81s-.22,2.17-.65,2.81c-.44.64-1.06.96-1.88.96s-1.44-.32-1.87-.96c-.43-.64-.64-1.58-.64-2.81s.21-2.16.64-2.81c.43-.64,1.06-.97,1.88-.97ZM26.28,107.55c-.51,0-.89.25-1.15.75s-.38,1.25-.38,2.25.12,1.75.38,2.25.64.75,1.15.75.89-.25,1.15-.75c.25-.5.38-1.25.38-2.25s-.13-1.75-.38-2.25c-.26-.5-.64-.75-1.15-.75Z"/>
  <g class="cls-55">
    <line class="cls-37" x1="37.2" y1="87.63" x2="394.32" y2="87.63"/>
  </g>
  <line class="cls-10" x1="37.2" y1="87.63" x2="33.7" y2="87.63"/>
  <line class="cls-39" x1="37.2" y1="87.63" x2="33.7" y2="87.63"/>
  <path class="cls-10" d="M10.12,90.02h3.44v.83h-4.63v-.83c.37-.38.88-.9,1.53-1.56.64-.65,1.05-1.07,1.22-1.26.32-.35.54-.65.66-.9.12-.24.19-.49.19-.73,0-.38-.14-.7-.41-.94-.27-.24-.62-.37-1.06-.37-.31,0-.64.06-.98.16-.34.11-.71.27-1.1.49v-1c.4-.16.77-.28,1.11-.36s.66-.12.95-.12c.75,0,1.35.19,1.8.57.45.38.68.88.68,1.51,0,.3-.06.59-.17.85-.11.27-.31.59-.61.95-.08.1-.34.37-.78.82s-1.05,1.08-1.84,1.89Z"/>
  <rect class="cls-10" x="15.63" y="89.61" width="1.03" height="1.24"/>
  <path class="cls-10" d="M19.16,90.02h3.44v.83h-4.63v-.83c.37-.38.88-.9,1.53-1.56.64-.65,1.05-1.07,1.22-1.26.32-.35.54-.65.66-.9.12-.24.19-.49.19-.73,0-.38-.14-.7-.41-.94s-.62-.37-1.06-.37c-.31,0-.64.06-.98.16-.34.11-.71.27-1.1.49v-1c.4-.16.77-.28,1.11-.36s.66-.12.95-.12c.75,0,1.35.19,1.8.57.45.38.68.88.68,1.51,0,.3-.06.59-.17.85-.11.27-.31.59-.61.95-.08.1-.34.37-.78.82s-1.05,1.08-1.84,1.89Z"/>
  <path class="cls-10" d="M24.68,83.56h3.87v.83h-2.97v1.79c.14-.05.29-.09.43-.11s.29-.04.43-.04c.81,0,1.45.23,1.93.67.48.45.72,1.05.72,1.81s-.25,1.4-.74,1.83c-.49.43-1.18.64-2.06.64-.31,0-.62-.03-.94-.07-.32-.05-.64-.12-.98-.23v-.99c.29.16.59.28.91.36.31.08.64.11.99.11.56,0,1.01-.14,1.34-.44.32-.3.49-.7.49-1.21s-.17-.9-.49-1.2c-.33-.3-.78-.45-1.34-.45-.26,0-.53.03-.79.09-.26.06-.53.15-.8.27v-3.66Z"/>
  <g class="cls-79">
    <line class="cls-37" x1="37.2" y1="64.29" x2="394.32" y2="64.29"/>
  </g>
  <line class="cls-10" x1="37.2" y1="64.29" x2="33.7" y2="64.29"/>
  <line class="cls-39" x1="37.2" y1="64.29" x2="33.7" y2="64.29"/>
  <path class="cls-10" d="M9.12,66.68h3.44v.83h-4.63v-.83c.37-.38.88-.9,1.53-1.56.64-.65,1.05-1.07,1.22-1.26.32-.35.54-.65.66-.9.12-.24.19-.49.19-.73,0-.38-.14-.7-.41-.94-.27-.24-.62-.37-1.06-.37-.31,0-.64.06-.98.16-.34.11-.71.27-1.1.49v-1c.4-.16.77-.28,1.11-.36.34-.08.66-.12.95-.12.75,0,1.35.19,1.8.57s.68.88.68,1.51c0,.3-.06.59-.17.85-.11.27-.31.59-.61.95-.08.1-.34.37-.78.82s-1.05,1.08-1.84,1.89Z"/>
  <rect class="cls-10" x="14.63" y="66.27" width="1.03" height="1.24"/>
  <path class="cls-10" d="M17.82,60.22h3.87v.83h-2.97v1.79c.14-.05.29-.09.43-.11s.29-.04.43-.04c.81,0,1.45.23,1.93.67.48.45.72,1.05.72,1.81s-.25,1.4-.74,1.83c-.49.43-1.18.64-2.06.64-.31,0-.62-.03-.94-.07-.32-.05-.64-.12-.98-.23v-.99c.29.16.59.28.91.36.31.08.64.11.99.11.56,0,1.01-.14,1.34-.44.32-.3.49-.7.49-1.21s-.17-.9-.49-1.2c-.33-.3-.78-.45-1.34-.45-.26,0-.53.03-.79.09-.26.06-.53.15-.8.27v-3.66Z"/>
  <path class="cls-10" d="M26.28,60.09c.81,0,1.43.33,1.87.97.43.65.65,1.59.65,2.81s-.22,2.17-.65,2.81c-.44.64-1.06.96-1.88.96s-1.44-.32-1.87-.96c-.43-.64-.64-1.58-.64-2.81s.21-2.16.64-2.81c.43-.64,1.06-.97,1.88-.97ZM26.28,60.87c-.51,0-.89.25-1.15.75s-.38,1.25-.38,2.25.12,1.75.38,2.25.64.75,1.15.75.89-.25,1.15-.75c.25-.5.38-1.25.38-2.25s-.13-1.75-.38-2.25c-.26-.5-.64-.75-1.15-.75Z"/>
  <g class="cls-6">
    <line class="cls-37" x1="37.2" y1="40.95" x2="394.32" y2="40.95"/>
  </g>
  <line class="cls-10" x1="37.2" y1="40.95" x2="33.7" y2="40.95"/>
  <line class="cls-39" x1="37.2" y1="40.95" x2="33.7" y2="40.95"/>
  <path class="cls-10" d="M10.12,43.34h3.44v.83h-4.63v-.83c.37-.38.88-.9,1.53-1.56.64-.65,1.05-1.07,1.22-1.26.32-.35.54-.65.66-.9.12-.24.19-.49.19-.73,0-.38-.14-.7-.41-.94-.27-.24-.62-.37-1.06-.37-.31,0-.64.06-.98.16-.34.11-.71.27-1.1.49v-1c.4-.16.77-.28,1.11-.36.34-.08.66-.12.95-.12.75,0,1.35.19,1.8.57s.68.88.68,1.51c0,.3-.06.59-.17.85-.11.27-.31.59-.61.95-.08.1-.34.37-.78.82s-1.05,1.08-1.84,1.89Z"/>
  <rect class="cls-10" x="15.63" y="42.93" width="1.03" height="1.24"/>
  <polygon class="cls-10" points="17.81 36.88 22.5 36.88 22.5 37.3 19.85 44.17 18.82 44.17 21.31 37.71 17.81 37.71 17.81 36.88"/>
  <path class="cls-10" d="M24.43,36.88h3.87v.83h-2.97v1.79c.14-.05.29-.09.43-.11s.29-.04.43-.04c.81,0,1.45.23,1.93.67.48.45.72,1.05.72,1.81s-.25,1.4-.74,1.83c-.49.43-1.18.64-2.06.64-.31,0-.62-.03-.94-.07-.32-.05-.64-.12-.98-.23v-.99c.29.16.59.28.91.36.31.08.64.11.99.11.56,0,1.01-.14,1.34-.44.32-.3.49-.7.49-1.21s-.17-.9-.49-1.2c-.33-.3-.78-.45-1.34-.45-.26,0-.53.03-.79.09-.26.06-.53.15-.8.27v-3.66Z"/>
  <polygon class="cls-10" points="44.21 9.69 41.98 11.93 44.21 14.16 43.63 14.75 41.39 12.51 39.15 14.75 38.57 14.16 40.8 11.93 38.57 9.69 39.15 9.1 41.39 11.34 43.63 9.1 44.21 9.69"/>
  <polygon class="cls-10" points="46.82 14.23 48.43 14.23 48.43 8.67 46.68 9.02 46.68 8.12 48.42 7.77 49.41 7.77 49.41 14.23 51.02 14.23 51.02 15.06 46.82 15.06 46.82 14.23"/>
  <path class="cls-10" d="M55.12,7.64c.81,0,1.43.33,1.87.97.43.65.65,1.59.65,2.81s-.22,2.17-.65,2.81c-.44.64-1.06.96-1.88.96s-1.44-.32-1.87-.96c-.43-.64-.64-1.58-.64-2.81s.21-2.16.64-2.81c.43-.64,1.06-.97,1.88-.97ZM55.12,8.42c-.51,0-.89.25-1.15.75-.26.5-.38,1.25-.38,2.25s.12,1.75.38,2.25c.26.5.64.75,1.15.75s.89-.25,1.15-.75c.25-.5.38-1.25.38-2.25s-.13-1.75-.38-2.25c-.26-.5-.64-.75-1.15-.75Z"/>
  <polygon class="cls-10" points="58.97 6.13 62.26 6.13 62.26 6.42 60.4 11.23 59.68 11.23 61.42 6.71 58.97 6.71 58.97 6.13"/>
  <g class="cls-51">
    <polyline class="cls-31" points="378.09 131.74 280.05 133.58 184.18 132.83 136.03 129.14 111 114.64 77.72 74.44 71.72 62.53 61.81 37.19 57.49 29.55 55.42 23.62"/>
    <g class="cls-20">
      <polygon class="cls-36" points="378.09 129.24 375.59 134.24 380.59 134.24 378.09 129.24"/>
    </g>
    <g class="cls-73">
      <polygon class="cls-36" points="280.05 131.08 277.55 136.08 282.55 136.08 280.05 131.08"/>
    </g>
    <g class="cls-24">
      <polygon class="cls-36" points="184.18 130.33 181.68 135.33 186.68 135.33 184.18 130.33"/>
    </g>
    <g class="cls-7">
      <polygon class="cls-36" points="136.03 126.64 133.53 131.64 138.53 131.64 136.03 126.64"/>
    </g>
    <g class="cls-74">
      <polygon class="cls-36" points="111 112.14 108.5 117.14 113.5 117.14 111 112.14"/>
    </g>
    <g class="cls-72">
      <polygon class="cls-36" points="77.72 71.94 75.22 76.94 80.22 76.94 77.72 71.94"/>
    </g>
    <g class="cls-62">
      <polygon class="cls-36" points="71.72 60.03 69.22 65.03 74.22 65.03 71.72 60.03"/>
    </g>
    <g class="cls-5">
      <polygon class="cls-36" points="61.81 34.69 59.31 39.69 64.31 39.69 61.81 34.69"/>
    </g>
    <g class="cls-41">
      <polygon class="cls-36" points="57.49 27.05 54.99 32.05 59.99 32.05 57.49 27.05"/>
    </g>
    <g class="cls-54">
      <polygon class="cls-36" points="55.42 21.12 52.92 26.12 57.92 26.12 55.42 21.12"/>
    </g>
  </g>
  <g class="cls-80">
    <polyline class="cls-38" points="293.92 109.27 232.4 115.65 205.52 118.82 159 116.55 129.4 107.92 114.55 101.49 105.22 95.44 99.29 88.78 95.17 84.05 90.94 76.96 85.32 66.03 79.09 55.46"/>
    <g class="cls-52">
      <rect class="cls-35" x="291.42" y="106.77" width="5" height="5"/>
    </g>
    <g class="cls-23">
      <rect class="cls-35" x="229.9" y="113.15" width="5" height="5"/>
    </g>
    <g class="cls-27">
      <rect class="cls-35" x="203.02" y="116.32" width="5" height="5"/>
    </g>
    <g class="cls-48">
      <rect class="cls-35" x="156.5" y="114.05" width="5" height="5"/>
    </g>
    <g class="cls-86">
      <rect class="cls-35" x="126.9" y="105.42" width="5" height="5"/>
    </g>
    <g class="cls-71">
      <rect class="cls-35" x="112.05" y="98.99" width="5" height="5"/>
    </g>
    <g class="cls-53">
      <rect class="cls-35" x="102.72" y="92.94" width="5" height="5"/>
    </g>
    <g class="cls-63">
      <rect class="cls-35" x="96.79" y="86.28" width="5" height="5"/>
    </g>
    <g class="cls-18">
      <rect class="cls-35" x="92.67" y="81.55" width="5" height="5"/>
    </g>
    <g class="cls-9">
      <rect class="cls-35" x="88.44" y="74.46" width="5" height="5"/>
    </g>
    <g class="cls-42">
      <rect class="cls-35" x="82.82" y="63.53" width="5" height="5"/>
    </g>
    <g class="cls-89">
      <rect class="cls-35" x="76.59" y="52.96" width="5" height="5"/>
    </g>
  </g>
  <line class="cls-34" x1="31.84" y1="140.9" x2="42.56" y2="137.27"/>
  <line class="cls-34" x1="388.96" y1="140.9" x2="399.68" y2="137.27"/>
  <line class="cls-33" x1="37.2" y1="139.08" x2="37.2" y2="18.12"/>
  <line class="cls-33" x1="394.32" y1="139.08" x2="394.32" y2="18.12"/>
  <line class="cls-33" x1="37.2" y1="18.12" x2="394.32" y2="18.12"/>
  <g>
    <rect class="cls-12" x="288.89" y="25.12" width="98.43" height="45.29" rx="2.8" ry="2.8"/>
    <rect class="cls-30" x="288.89" y="25.12" width="98.43" height="45.29" rx="2.8" ry="2.8"/>
  </g>
  <polyline class="cls-31" points="294.49 36.46 308.49 36.46 322.49 36.46"/>
  <polygon class="cls-36" points="308.49 33.96 305.99 38.96 310.99 38.96 308.49 33.96"/>
  <polygon class="cls-10" points="335.06 31.16 337.12 31.16 339.72 38.1 342.34 31.16 344.4 31.16 344.4 41.36 343.05 41.36 343.05 32.4 340.42 39.4 339.04 39.4 336.4 32.4 336.4 41.36 335.06 41.36 335.06 31.16"/>
  <polygon class="cls-10" points="349.77 41.36 345.88 31.16 347.32 31.16 350.56 39.75 353.79 31.16 355.23 31.16 351.34 41.36 349.77 41.36"/>
  <rect class="cls-10" x="356.72" y="31.16" width="1.39" height="10.21"/>
  <path class="cls-10" d="M360.85,31.16h3.12c1.13,0,2,.27,2.59.78.59.52.88,1.27.88,2.27s-.29,1.78-.88,2.28c-.59.52-1.46.77-2.59.77h-1.74v4.1h-1.39v-10.21ZM362.23,32.29v3.84h1.74c.64,0,1.13-.15,1.48-.49s.53-.81.53-1.43-.18-1.08-.53-1.41-.84-.5-1.48-.5h-1.74Z"/>
  <polyline class="cls-38" points="294.49 57.01 308.49 57.01 322.49 57.01"/>
  <rect class="cls-35" x="305.99" y="54.51" width="5" height="5"/>
  <path class="cls-10" d="M335.06,51.7h3.12c1.13,0,2,.27,2.59.78.59.52.88,1.27.88,2.27s-.29,1.78-.88,2.28c-.59.52-1.46.77-2.59.77h-1.74v4.1h-1.39v-10.21ZM336.45,52.84v3.84h1.74c.64,0,1.13-.15,1.48-.49s.53-.81.53-1.43-.18-1.08-.53-1.41-.84-.5-1.48-.5h-1.74Z"/>
  <path class="cls-10" d="M345.24,51.7h1.57l3.89,10.21h-1.44l-.92-2.62h-4.61l-.92,2.62h-1.46l3.89-10.21ZM346.03,53.06l-1.88,5.08h3.75l-1.88-5.08Z"/>
  <rect class="cls-10" x="351.21" y="57.51" width="3.68" height="1.12"/>
  <polygon class="cls-10" points="356.95 51.7 358.33 51.7 358.33 60.75 363.3 60.75 363.3 61.91 356.95 61.91 356.95 51.7"/>
  <polygon class="cls-10" points="364.74 51.7 370.61 51.7 370.61 52.87 366.13 52.87 366.13 55.88 370.18 55.88 370.18 57.04 366.13 57.04 366.13 61.91 364.74 61.91 364.74 51.7"/>
  <path class="cls-10" d="M372.64,51.7h1.39v6.2c0,1.09.2,1.89.59,2.37.39.48,1.04.71,1.93.71s1.53-.24,1.92-.71.6-1.27.6-2.37v-6.2h1.39v6.37c0,1.34-.34,2.34-.99,3.01-.66.67-1.62,1.01-2.91,1.01s-2.27-.34-2.93-1.01-.98-1.67-.98-3.01v-6.37Z"/>
  <rect class="cls-13" x="37.2" y="163.27" width="357.12" height="120.96"/>
  <g class="cls-47">
    <line class="cls-37" x1="50.6" y1="284.23" x2="50.6" y2="163.27"/>
  </g>
  <line class="cls-10" x1="50.6" y1="284.23" x2="50.6" y2="287.73"/>
  <line class="cls-39" x1="50.6" y1="284.23" x2="50.6" y2="287.73"/>
  <path class="cls-10" d="M50.28,290.83c.81,0,1.43.33,1.87.97.43.65.65,1.59.65,2.81s-.22,2.17-.65,2.81c-.44.64-1.06.96-1.88.96s-1.44-.32-1.87-.96-.64-1.58-.64-2.81.21-2.16.64-2.81c.43-.64,1.06-.97,1.88-.97ZM50.28,291.61c-.51,0-.89.25-1.15.75-.26.5-.38,1.25-.38,2.25s.12,1.75.38,2.25c.26.5.64.75,1.15.75s.89-.25,1.15-.75c.25-.5.38-1.25.38-2.25s-.13-1.75-.38-2.25c-.26-.5-.64-.75-1.15-.75Z"/>
  <g class="cls-21">
    <line class="cls-37" x1="101.64" y1="284.23" x2="101.64" y2="163.27"/>
  </g>
  <line class="cls-10" x1="101.64" y1="284.23" x2="101.64" y2="287.73"/>
  <line class="cls-39" x1="101.64" y1="284.23" x2="101.64" y2="287.73"/>
  <polygon class="cls-10" points="99.38 297.29 100.99 297.29 100.99 291.73 99.24 292.08 99.24 291.18 100.98 290.83 101.97 290.83 101.97 297.29 103.58 297.29 103.58 298.12 99.38 298.12 99.38 297.29"/>
  <g class="cls-46">
    <line class="cls-37" x1="152.68" y1="284.23" x2="152.68" y2="163.27"/>
  </g>
  <line class="cls-10" x1="152.68" y1="284.23" x2="152.68" y2="287.73"/>
  <line class="cls-39" x1="152.68" y1="284.23" x2="152.68" y2="287.73"/>
  <path class="cls-10" d="M151.1,297.42h3.44v.83h-4.63v-.83c.37-.38.88-.9,1.53-1.56.64-.65,1.05-1.07,1.22-1.26.32-.35.54-.65.66-.9.12-.24.19-.49.19-.73,0-.38-.14-.7-.41-.94-.27-.24-.62-.37-1.06-.37-.31,0-.64.06-.98.16-.34.11-.71.27-1.1.49v-1c.4-.16.77-.28,1.11-.36.34-.08.66-.12.95-.12.75,0,1.35.19,1.8.57.45.38.68.88.68,1.51,0,.3-.06.59-.17.85-.11.27-.31.59-.61.95-.08.1-.34.37-.78.82-.44.45-1.05,1.08-1.84,1.89Z"/>
  <g class="cls-61">
    <line class="cls-37" x1="203.72" y1="284.23" x2="203.72" y2="163.27"/>
  </g>
  <line class="cls-10" x1="203.72" y1="284.23" x2="203.72" y2="287.73"/>
  <line class="cls-39" x1="203.72" y1="284.23" x2="203.72" y2="287.73"/>
  <path class="cls-10" d="M204.28,294.32c.47.1.84.31,1.1.63.26.32.4.72.4,1.18,0,.72-.25,1.28-.74,1.67-.5.39-1.2.58-2.11.58-.31,0-.63-.03-.95-.09-.32-.05-.66-.14-1-.26v-.95c.27.16.57.28.9.36.32.08.66.12,1.02.12.62,0,1.09-.12,1.41-.36.32-.24.49-.6.49-1.07,0-.42-.15-.76-.45-1-.3-.24-.72-.37-1.26-.37h-.85v-.81h.89c.48,0,.85-.09,1.11-.29.26-.19.39-.47.39-.84s-.14-.66-.4-.86c-.27-.2-.65-.3-1.14-.3-.27,0-.56.03-.87.09s-.65.15-1.02.27v-.88c.37-.1.72-.18,1.05-.23.32-.05.63-.08.93-.08.74,0,1.33.17,1.77.51s.66.8.66,1.38c0,.4-.12.74-.35,1.02-.23.28-.56.48-.98.58Z"/>
  <g class="cls-26">
    <line class="cls-37" x1="254.76" y1="284.23" x2="254.76" y2="163.27"/>
  </g>
  <line class="cls-10" x1="254.76" y1="284.23" x2="254.76" y2="287.73"/>
  <line class="cls-39" x1="254.76" y1="284.23" x2="254.76" y2="287.73"/>
  <path class="cls-10" d="M254.78,290.83h1.24v4.75h1.04v.82h-1.04v1.72h-.98v-1.72h-3.29v-.95l3.03-4.62ZM255.04,291.69l-2.49,3.89h2.49v-3.89Z"/>
  <g class="cls-17">
    <line class="cls-37" x1="305.8" y1="284.23" x2="305.8" y2="163.27"/>
  </g>
  <line class="cls-10" x1="305.8" y1="284.23" x2="305.8" y2="287.73"/>
  <line class="cls-39" x1="305.8" y1="284.23" x2="305.8" y2="287.73"/>
  <path class="cls-10" d="M303.38,290.83h3.87v.83h-2.97v1.79c.14-.05.29-.09.43-.11.14-.02.29-.04.43-.04.81,0,1.45.23,1.93.67.48.45.72,1.05.72,1.81s-.25,1.4-.74,1.83-1.18.64-2.06.64c-.31,0-.62-.03-.94-.07-.32-.05-.64-.12-.98-.23v-.99c.29.16.59.28.91.36.31.08.64.11.99.11.56,0,1.01-.14,1.34-.44.32-.3.49-.7.49-1.21s-.17-.9-.49-1.2c-.33-.3-.78-.45-1.34-.45-.26,0-.53.03-.79.09-.26.06-.53.15-.8.27v-3.66Z"/>
  <g class="cls-77">
    <line class="cls-37" x1="356.84" y1="284.23" x2="356.84" y2="163.27"/>
  </g>
  <line class="cls-10" x1="356.84" y1="284.23" x2="356.84" y2="287.73"/>
  <line class="cls-39" x1="356.84" y1="284.23" x2="356.84" y2="287.73"/>
  <path class="cls-10" d="M358.6,291.12v.9c-.25-.12-.5-.21-.75-.27-.26-.06-.51-.09-.75-.09-.66,0-1.16.22-1.5.66s-.54,1.11-.58,1.99c.19-.28.43-.5.72-.65.29-.15.61-.23.96-.23.73,0,1.31.23,1.73.67.42.44.64,1.05.64,1.81s-.23,1.35-.67,1.8c-.44.45-1.03.67-1.76.67-.84,0-1.49-.32-1.93-.96-.45-.64-.67-1.58-.67-2.81,0-1.15.27-2.07.82-2.75.54-.68,1.28-1.03,2.2-1.03.24,0,.49.03.75.07.25.05.51.12.79.22ZM356.64,294.21c-.44,0-.79.16-1.05.46-.26.3-.39.72-.39,1.24s.13.95.39,1.25.61.45,1.05.45.79-.15,1.05-.45c.26-.3.39-.72.39-1.25s-.13-.94-.39-1.24c-.26-.3-.61-.46-1.05-.46Z"/>
  <polygon class="cls-10" points="170.86 305.34 179.48 305.34 179.48 306.5 175.85 306.5 175.85 315.55 174.47 315.55 174.47 306.5 170.86 306.5 170.86 305.34"/>
  <path class="cls-10" d="M181.35,307.71c1.09,0,1.95.36,2.58,1.06.62.71.94,1.69.94,2.95s-.32,2.24-.94,2.94c-.63.71-1.48,1.06-2.58,1.06s-1.97-.35-2.59-1.06c-.62-.7-.92-1.68-.92-2.94s.31-2.24.92-2.95c.62-.7,1.48-1.06,2.59-1.06ZM181.35,308.77c-.67,0-1.2.27-1.6.8s-.59,1.25-.59,2.16.18,1.64.57,2.17c.39.53.92.78,1.61.78s1.2-.25,1.6-.78c.39-.53.59-1.25.59-2.17s-.2-1.62-.59-2.16-.92-.8-1.6-.8Z"/>
  <path class="cls-10" d="M188.19,305.72v2.17h2.59v.98h-2.59v4.16c0,.63.08,1.04.25,1.2.17.18.52.27,1.05.27h1.29v1.05h-1.29c-.98,0-1.65-.18-2.02-.55-.36-.36-.55-1.02-.55-1.97v-4.16h-.92v-.98h.92v-2.17h1.26Z"/>
  <path class="cls-10" d="M198.43,311.18v4.37h-1.26v-1.16c-.29.48-.66.81-1.08,1.02s-.95.32-1.57.32c-.78,0-1.41-.21-1.88-.64s-.69-1.02-.69-1.76c0-.85.28-1.5.87-1.95.57-.43,1.43-.66,2.58-.66h1.76v-.13c0-.57-.2-1.02-.57-1.34-.38-.31-.91-.48-1.6-.48-.45,0-.87.06-1.29.17-.42.11-.81.27-1.19.46v-1.16c.45-.17.9-.31,1.33-.39.43-.08.85-.14,1.27-.14,1.11,0,1.93.29,2.48.87.55.57.83,1.44.83,2.6ZM195.92,311.7c-1.02,0-1.72.13-2.11.35-.39.24-.59.63-.59,1.19,0,.45.14.81.43,1.06.29.27.7.39,1.2.39.7,0,1.26-.24,1.68-.74.42-.49.63-1.15.63-1.97v-.28h-1.25Z"/>
  <rect class="cls-10" x="201.02" y="304.91" width="1.26" height="10.64"/>
  <path class="cls-10" d="M214.86,311.72c0-.92-.2-1.64-.57-2.17-.39-.53-.91-.8-1.57-.8s-1.19.27-1.57.8c-.39.53-.57,1.25-.57,2.17s.18,1.65.57,2.18c.38.53.9.78,1.57.78s1.18-.25,1.57-.78c.38-.53.57-1.26.57-2.18ZM210.58,314.4v4.05h-1.26v-10.56h1.26v1.16c.25-.45.59-.78.99-1.01.41-.22.9-.34,1.46-.34.92,0,1.68.38,2.27,1.11.57.74.87,1.71.87,2.91s-.29,2.18-.87,2.91c-.59.73-1.34,1.09-2.27,1.09-.56,0-1.05-.11-1.46-.32s-.74-.55-.99-1.01Z"/>
  <path class="cls-10" d="M223.54,311.04c-.01-.69-.21-1.23-.57-1.65-.38-.41-.88-.62-1.5-.62-.7,0-1.26.21-1.68.6-.42.39-.67.95-.73,1.67h4.48ZM224.8,311.4v.62h-5.78c.06.87.31,1.54.78,1.99.46.45,1.11.67,1.95.67.48,0,.95-.06,1.4-.17.45-.11.91-.29,1.36-.55v1.19c-.45.2-.91.35-1.39.43-.48.08-.97.14-1.44.14-1.23,0-2.2-.35-2.91-1.05s-1.06-1.67-1.06-2.88.34-2.24,1.01-2.98c.67-.73,1.6-1.11,2.74-1.11,1.04,0,1.85.34,2.45.99.59.67.9,1.57.9,2.7Z"/>
  <path class="cls-10" d="M233.23,310.93v4.62h-1.26v-4.58c0-.73-.15-1.26-.43-1.62-.28-.36-.7-.55-1.26-.55-.69,0-1.22.22-1.61.66-.39.43-.59,1.02-.59,1.76v4.33h-1.26v-7.66h1.26v1.19c.29-.45.64-.8,1.06-1.02.41-.22.88-.35,1.41-.35.87,0,1.54.28,1.99.83.45.55.69,1.34.69,2.39Z"/>
  <path class="cls-10" d="M241.73,311.18v4.37h-1.26v-1.16c-.29.48-.66.81-1.08,1.02s-.95.32-1.57.32c-.78,0-1.41-.21-1.88-.64s-.69-1.02-.69-1.76c0-.85.28-1.5.87-1.95.57-.43,1.43-.66,2.58-.66h1.76v-.13c0-.57-.2-1.02-.57-1.34-.38-.31-.91-.48-1.6-.48-.45,0-.87.06-1.29.17-.42.11-.81.27-1.19.46v-1.16c.45-.17.9-.31,1.33-.39.43-.08.85-.14,1.27-.14,1.11,0,1.93.29,2.48.87.55.57.83,1.44.83,2.6ZM239.22,311.7c-1.02,0-1.72.13-2.11.35-.39.24-.59.63-.59,1.19,0,.45.14.81.43,1.06.29.27.7.39,1.2.39.7,0,1.26-.24,1.68-.74.42-.49.63-1.15.63-1.97v-.28h-1.25Z"/>
  <rect class="cls-10" x="244.32" y="304.91" width="1.26" height="10.64"/>
  <path class="cls-10" d="M249.46,305.72v2.17h2.59v.98h-2.59v4.16c0,.63.08,1.04.25,1.2.17.18.52.27,1.05.27h1.29v1.05h-1.29c-.98,0-1.65-.18-2.02-.55-.36-.36-.55-1.02-.55-1.97v-4.16h-.92v-.98h.92v-2.17h1.26Z"/>
  <path class="cls-10" d="M256.89,316.25c-.36.9-.71,1.5-1.05,1.78s-.78.42-1.34.42h-1.01v-1.05h.74c.34,0,.6-.08.8-.25.2-.17.41-.55.64-1.16l.22-.56-3.09-7.53h1.33l2.39,5.99,2.39-5.99h1.33l-3.36,8.36Z"/>
  <polygon class="cls-10" points="375.33 306.39 373.1 308.63 375.33 310.86 374.75 311.45 372.51 309.21 370.27 311.45 369.69 310.86 371.92 308.63 369.69 306.39 370.27 305.8 372.51 308.04 374.75 305.8 375.33 306.39"/>
  <polygon class="cls-10" points="377.94 310.93 379.55 310.93 379.55 305.37 377.8 305.72 377.8 304.82 379.54 304.47 380.53 304.47 380.53 310.93 382.14 310.93 382.14 311.76 377.94 311.76 377.94 310.93"/>
  <path class="cls-10" d="M386.24,304.34c.81,0,1.43.33,1.87.97.43.65.65,1.59.65,2.81s-.22,2.17-.65,2.81c-.44.64-1.06.96-1.88.96s-1.44-.32-1.87-.96c-.43-.64-.64-1.58-.64-2.81s.21-2.16.64-2.81c.43-.64,1.06-.97,1.88-.97ZM386.24,305.12c-.51,0-.89.25-1.15.75s-.38,1.25-.38,2.25.12,1.75.38,2.25.64.75,1.15.75.89-.25,1.15-.75c.25-.5.38-1.25.38-2.25s-.13-1.75-.38-2.25c-.26-.5-.64-.75-1.15-.75Z"/>
  <path class="cls-10" d="M391.98,302.83h.87v3.33h.73v.57h-.73v1.2h-.69v-1.2h-2.3v-.66l2.12-3.23ZM392.17,303.43l-1.74,2.72h1.74v-2.72Z"/>
  <g class="cls-66">
    <line class="cls-37" x1="37.2" y1="275.81" x2="394.32" y2="275.81"/>
  </g>
  <line class="cls-10" x1="37.2" y1="275.81" x2="33.7" y2="275.81"/>
  <line class="cls-39" x1="37.2" y1="275.81" x2="33.7" y2="275.81"/>
  <path class="cls-10" d="M18.26,275.1c.47.1.84.31,1.1.63s.4.72.4,1.18c0,.72-.25,1.28-.74,1.67-.5.39-1.2.58-2.11.58-.31,0-.63-.03-.95-.09-.32-.05-.66-.14-1-.26v-.95c.27.16.57.28.9.36.32.08.66.12,1.02.12.62,0,1.09-.12,1.41-.36.32-.24.49-.6.49-1.07,0-.42-.15-.76-.45-1-.3-.24-.72-.37-1.26-.37h-.85v-.81h.89c.48,0,.85-.09,1.11-.29.26-.19.39-.47.39-.84s-.14-.66-.4-.86c-.27-.2-.65-.3-1.14-.3-.27,0-.56.03-.87.09-.31.06-.65.15-1.02.27v-.88c.37-.1.72-.18,1.05-.23.32-.05.63-.08.93-.08.74,0,1.33.17,1.77.51s.66.8.66,1.38c0,.4-.12.74-.35,1.02-.23.28-.56.48-.98.58Z"/>
  <rect class="cls-10" x="21.63" y="277.79" width="1.03" height="1.24"/>
  <path class="cls-10" d="M25.16,278.2h3.44v.83h-4.63v-.83c.37-.38.88-.9,1.53-1.56.64-.65,1.05-1.07,1.22-1.26.32-.35.54-.65.66-.9.12-.24.19-.49.19-.73,0-.38-.14-.7-.41-.94-.27-.24-.62-.37-1.06-.37-.31,0-.64.06-.98.16-.34.11-.71.27-1.1.49v-1c.4-.16.77-.28,1.11-.36.34-.08.66-.12.95-.12.75,0,1.35.19,1.8.57.45.38.68.88.68,1.51,0,.3-.06.59-.17.85-.11.27-.31.59-.61.95-.08.1-.34.37-.78.82s-1.05,1.08-1.84,1.89Z"/>
  <g class="cls-50">
    <line class="cls-37" x1="37.2" y1="253.87" x2="394.32" y2="253.87"/>
  </g>
  <line class="cls-10" x1="37.2" y1="253.87" x2="33.7" y2="253.87"/>
  <line class="cls-39" x1="37.2" y1="253.87" x2="33.7" y2="253.87"/>
  <path class="cls-10" d="M18.26,253.16c.47.1.84.31,1.1.63s.4.72.4,1.18c0,.72-.25,1.28-.74,1.67-.5.39-1.2.58-2.11.58-.31,0-.63-.03-.95-.09-.32-.05-.66-.14-1-.26v-.95c.27.16.57.28.9.36.32.08.66.12,1.02.12.62,0,1.09-.12,1.41-.36.32-.24.49-.6.49-1.07,0-.42-.15-.76-.45-1-.3-.24-.72-.37-1.26-.37h-.85v-.81h.89c.48,0,.85-.09,1.11-.29.26-.19.39-.47.39-.84s-.14-.66-.4-.86c-.27-.2-.65-.3-1.14-.3-.27,0-.56.03-.87.09-.31.06-.65.15-1.02.27v-.88c.37-.1.72-.18,1.05-.23.32-.05.63-.08.93-.08.74,0,1.33.17,1.77.51.44.34.66.8.66,1.38,0,.4-.12.74-.35,1.02-.23.28-.56.48-.98.58Z"/>
  <rect class="cls-10" x="21.63" y="255.85" width="1.03" height="1.24"/>
  <path class="cls-10" d="M27.26,249.8h1.24v4.75h1.04v.82h-1.04v1.72h-.98v-1.72h-3.29v-.95l3.03-4.62ZM27.52,250.66l-2.49,3.89h2.49v-3.89Z"/>
  <g class="cls-3">
    <line class="cls-37" x1="37.2" y1="231.92" x2="394.32" y2="231.92"/>
  </g>
  <line class="cls-10" x1="37.2" y1="231.92" x2="33.7" y2="231.92"/>
  <line class="cls-39" x1="37.2" y1="231.92" x2="33.7" y2="231.92"/>
  <path class="cls-10" d="M18.26,231.21c.47.1.84.31,1.1.63s.4.72.4,1.18c0,.72-.25,1.28-.74,1.67-.5.39-1.2.58-2.11.58-.31,0-.63-.03-.95-.09-.32-.05-.66-.14-1-.26v-.95c.27.16.57.28.9.36.32.08.66.12,1.02.12.62,0,1.09-.12,1.41-.36.32-.24.49-.6.49-1.07,0-.42-.15-.76-.45-1-.3-.24-.72-.37-1.26-.37h-.85v-.81h.89c.48,0,.85-.09,1.11-.29.26-.19.39-.47.39-.84s-.14-.66-.4-.86c-.27-.2-.65-.3-1.14-.3-.27,0-.56.03-.87.09-.31.06-.65.15-1.02.27v-.88c.37-.1.72-.18,1.05-.23.32-.05.63-.08.93-.08.74,0,1.33.17,1.77.51.44.34.66.8.66,1.38,0,.4-.12.74-.35,1.02-.23.28-.56.48-.98.58Z"/>
  <rect class="cls-10" x="21.63" y="233.9" width="1.03" height="1.24"/>
  <path class="cls-10" d="M29,228.01v.9c-.25-.12-.5-.21-.75-.27-.26-.06-.51-.09-.75-.09-.66,0-1.16.22-1.5.66s-.54,1.11-.58,1.99c.19-.28.43-.5.72-.65.29-.15.61-.23.96-.23.73,0,1.31.23,1.73.67.42.44.64,1.05.64,1.81s-.23,1.35-.67,1.8c-.44.45-1.03.67-1.76.67-.84,0-1.49-.32-1.93-.96-.45-.64-.67-1.58-.67-2.81,0-1.15.27-2.07.82-2.75.54-.68,1.28-1.03,2.2-1.03.24,0,.49.03.75.07.25.05.51.12.79.22ZM27.04,231.1c-.44,0-.79.16-1.05.46-.26.3-.39.72-.39,1.24s.13.95.39,1.25c.26.3.61.45,1.05.45s.79-.15,1.05-.45c.26-.3.39-.72.39-1.25s-.13-.94-.39-1.24c-.26-.3-.61-.46-1.05-.46Z"/>
  <g class="cls-22">
    <line class="cls-37" x1="37.2" y1="209.98" x2="394.32" y2="209.98"/>
  </g>
  <line class="cls-10" x1="37.2" y1="209.98" x2="33.7" y2="209.98"/>
  <line class="cls-39" x1="37.2" y1="209.98" x2="33.7" y2="209.98"/>
  <path class="cls-10" d="M18.26,209.26c.47.1.84.31,1.1.63s.4.72.4,1.18c0,.72-.25,1.28-.74,1.67-.5.39-1.2.58-2.11.58-.31,0-.63-.03-.95-.09-.32-.05-.66-.14-1-.26v-.95c.27.16.57.28.9.36.32.08.66.12,1.02.12.62,0,1.09-.12,1.41-.36.32-.24.49-.6.49-1.07,0-.42-.15-.76-.45-1-.3-.24-.72-.37-1.26-.37h-.85v-.81h.89c.48,0,.85-.09,1.11-.29.26-.19.39-.47.39-.84s-.14-.66-.4-.86c-.27-.2-.65-.3-1.14-.3-.27,0-.56.03-.87.09-.31.06-.65.15-1.02.27v-.88c.37-.1.72-.18,1.05-.23.32-.05.63-.08.93-.08.74,0,1.33.17,1.77.51.44.34.66.8.66,1.38,0,.4-.12.74-.35,1.02-.23.28-.56.48-.98.58Z"/>
  <rect class="cls-10" x="21.63" y="211.95" width="1.03" height="1.24"/>
  <path class="cls-10" d="M25.32,207.75c0,.38.11.68.35.89s.57.31,1,.31.75-.1.99-.31.36-.51.36-.89-.12-.67-.36-.88-.57-.32-.99-.32-.76.11-1,.32-.35.5-.35.88ZM25.68,209.31c-.42-.1-.75-.3-.99-.59-.24-.29-.35-.64-.35-1.06,0-.58.2-1.04.62-1.38.41-.34.98-.51,1.71-.51s1.29.17,1.71.51c.41.34.62.8.62,1.38,0,.42-.12.77-.36,1.06-.24.29-.56.49-.98.59.47.11.84.33,1.11.65.26.32.4.72.4,1.18,0,.71-.22,1.25-.65,1.62-.44.38-1.06.56-1.86.56s-1.42-.18-1.85-.56c-.43-.37-.64-.91-.64-1.62,0-.46.13-.86.4-1.18.26-.32.63-.54,1.11-.65ZM26.67,209.73c-.47,0-.84.13-1.11.38s-.4.59-.4,1.03.13.79.4,1.04.64.37,1.11.37.83-.12,1.1-.38c.27-.25.41-.59.41-1.03s-.14-.78-.4-1.03c-.27-.25-.64-.38-1.11-.38Z"/>
  <g class="cls-16">
    <line class="cls-37" x1="37.2" y1="188.03" x2="394.32" y2="188.03"/>
  </g>
  <line class="cls-10" x1="37.2" y1="188.03" x2="33.7" y2="188.03"/>
  <line class="cls-39" x1="37.2" y1="188.03" x2="33.7" y2="188.03"/>
  <path class="cls-10" d="M17.72,183.96h1.24v4.75h1.04v.82h-1.04v1.72h-.98v-1.72h-3.29v-.95l3.03-4.62ZM17.98,184.82l-2.49,3.89h2.49v-3.89Z"/>
  <rect class="cls-10" x="21.63" y="190.01" width="1.03" height="1.24"/>
  <path class="cls-10" d="M26.92,183.83c.81,0,1.43.33,1.87.97.43.65.65,1.59.65,2.81s-.22,2.17-.65,2.81c-.44.64-1.06.96-1.88.96s-1.44-.32-1.87-.96c-.43-.64-.64-1.58-.64-2.81s.21-2.16.64-2.81c.43-.64,1.06-.97,1.88-.97ZM26.92,184.61c-.51,0-.89.25-1.15.75s-.38,1.25-.38,2.25.12,1.75.38,2.25.64.75,1.15.75.89-.25,1.15-.75c.25-.5.38-1.25.38-2.25s-.13-1.75-.38-2.25c-.26-.5-.64-.75-1.15-.75Z"/>
  <g class="cls-59">
    <line class="cls-37" x1="37.2" y1="166.09" x2="394.32" y2="166.09"/>
  </g>
  <line class="cls-10" x1="37.2" y1="166.09" x2="33.7" y2="166.09"/>
  <line class="cls-39" x1="37.2" y1="166.09" x2="33.7" y2="166.09"/>
  <path class="cls-10" d="M17.72,162.01h1.24v4.75h1.04v.82h-1.04v1.72h-.98v-1.72h-3.29v-.95l3.03-4.62ZM17.98,162.87l-2.49,3.89h2.49v-3.89Z"/>
  <rect class="cls-10" x="21.63" y="168.06" width="1.03" height="1.24"/>
  <path class="cls-10" d="M25.16,168.47h3.44v.83h-4.63v-.83c.37-.38.88-.9,1.53-1.56.64-.65,1.05-1.07,1.22-1.26.32-.35.54-.65.66-.9.12-.24.19-.49.19-.73,0-.38-.14-.7-.41-.94s-.62-.37-1.06-.37c-.31,0-.64.06-.98.16-.34.11-.71.27-1.1.49v-1c.4-.16.77-.28,1.11-.36s.66-.12.95-.12c.75,0,1.35.19,1.8.57.45.38.68.88.68,1.51,0,.3-.06.59-.17.85-.11.27-.31.59-.61.95-.08.1-.34.37-.78.82s-1.05,1.08-1.84,1.89Z"/>
  <polygon class="cls-10" points="44.21 153.93 41.98 156.17 44.21 158.4 43.63 158.99 41.39 156.75 39.15 158.99 38.57 158.4 40.8 156.17 38.57 153.93 39.15 153.34 41.39 155.58 43.63 153.34 44.21 153.93"/>
  <polygon class="cls-10" points="46.82 158.47 48.43 158.47 48.43 152.91 46.68 153.26 46.68 152.36 48.42 152.01 49.41 152.01 49.41 158.47 51.02 158.47 51.02 159.3 46.82 159.3 46.82 158.47"/>
  <path class="cls-10" d="M55.12,151.88c.81,0,1.43.33,1.87.97.43.65.65,1.59.65,2.81s-.22,2.17-.65,2.81c-.44.64-1.06.96-1.88.96s-1.44-.32-1.87-.96-.64-1.58-.64-2.81.21-2.16.64-2.81c.43-.64,1.06-.97,1.88-.97ZM55.12,152.66c-.51,0-.89.25-1.15.75-.26.5-.38,1.25-.38,2.25s.12,1.75.38,2.25c.26.5.64.75,1.15.75s.89-.25,1.15-.75c.25-.5.38-1.25.38-2.25s-.13-1.75-.38-2.25c-.26-.5-.64-.75-1.15-.75Z"/>
  <path class="cls-10" d="M62.08,150.48v.63c-.17-.08-.35-.15-.52-.19-.18-.04-.36-.06-.53-.06-.46,0-.81.15-1.05.46s-.38.78-.41,1.39c.13-.2.3-.35.5-.46s.43-.16.67-.16c.51,0,.92.16,1.21.47s.45.74.45,1.27-.16.95-.47,1.26c-.31.32-.72.47-1.23.47-.59,0-1.04-.22-1.35-.67-.31-.45-.47-1.11-.47-1.97,0-.8.19-1.45.57-1.93.38-.48.9-.72,1.54-.72.17,0,.34.02.53.05.17.04.36.08.55.15ZM60.71,152.64c-.31,0-.55.11-.74.32-.18.21-.27.5-.27.87s.09.66.27.88.43.32.74.32.55-.1.74-.32c.18-.21.27-.5.27-.88s-.09-.66-.27-.87c-.18-.21-.43-.32-.74-.32Z"/>
  <g class="cls-83">
    <polyline class="cls-29" points="333.68 257.81 249.99 264.7 176.81 278.28 131.46 278.74 108.5 260.22 73.79 211.12 68.55 201.29 59.12 181.41 55.42 177.62 54.27 174.09"/>
    <g class="cls-58">
      <polygon class="cls-36" points="333.68 255.31 331.18 260.31 336.18 260.31 333.68 255.31"/>
    </g>
    <g class="cls-85">
      <polygon class="cls-36" points="249.99 262.2 247.49 267.2 252.49 267.2 249.99 262.2"/>
    </g>
    <g class="cls-56">
      <polygon class="cls-36" points="176.81 275.78 174.31 280.78 179.31 280.78 176.81 275.78"/>
    </g>
    <g class="cls-82">
      <polygon class="cls-36" points="131.46 276.24 128.96 281.24 133.96 281.24 131.46 276.24"/>
    </g>
    <g class="cls-64">
      <polygon class="cls-36" points="108.5 257.72 106 262.72 111 262.72 108.5 257.72"/>
    </g>
    <g class="cls-69">
      <polygon class="cls-36" points="73.79 208.62 71.29 213.62 76.29 213.62 73.79 208.62"/>
    </g>
    <g class="cls-81">
      <polygon class="cls-36" points="68.55 198.79 66.05 203.79 71.05 203.79 68.55 198.79"/>
    </g>
    <g class="cls-43">
      <polygon class="cls-36" points="59.12 178.91 56.62 183.91 61.62 183.91 59.12 178.91"/>
    </g>
    <g class="cls-76">
      <polygon class="cls-36" points="55.42 175.12 52.92 180.12 57.92 180.12 55.42 175.12"/>
    </g>
    <g class="cls-8">
      <polygon class="cls-36" points="54.27 171.59 51.77 176.59 56.77 176.59 54.27 171.59"/>
    </g>
  </g>
  <g class="cls-49">
    <polyline class="cls-32" points="257.38 215.39 189.5 246.98 159.13 260.58 119.78 252.86 104.48 224.65 92.13 202.47 74.97 190.11 64.47 182.53 59.6 178.15 56.26 173.71 54.4 170.34 53.43 168.77"/>
    <g class="cls-60">
      <rect class="cls-35" x="254.88" y="212.89" width="5" height="5"/>
    </g>
    <g class="cls-2">
      <rect class="cls-35" x="187" y="244.48" width="5" height="5"/>
    </g>
    <g class="cls-4">
      <rect class="cls-35" x="156.63" y="258.08" width="5" height="5"/>
    </g>
    <g class="cls-15">
      <rect class="cls-35" x="117.28" y="250.36" width="5" height="5"/>
    </g>
    <g class="cls-78">
      <rect class="cls-35" x="101.98" y="222.15" width="5" height="5"/>
    </g>
    <g class="cls-90">
      <rect class="cls-35" x="89.63" y="199.97" width="5" height="5"/>
    </g>
    <g class="cls-84">
      <rect class="cls-35" x="72.47" y="187.61" width="5" height="5"/>
    </g>
    <g class="cls-88">
      <rect class="cls-35" x="61.97" y="180.03" width="5" height="5"/>
    </g>
    <g class="cls-70">
      <rect class="cls-35" x="57.1" y="175.65" width="5" height="5"/>
    </g>
    <g class="cls-67">
      <rect class="cls-35" x="53.76" y="171.21" width="5" height="5"/>
    </g>
    <g class="cls-87">
      <rect class="cls-35" x="51.9" y="167.84" width="5" height="5"/>
    </g>
    <g class="cls-1">
      <rect class="cls-35" x="50.93" y="166.27" width="5" height="5"/>
    </g>
  </g>
  <line class="cls-34" x1="31.84" y1="165.09" x2="42.56" y2="161.46"/>
  <line class="cls-34" x1="388.96" y1="165.09" x2="399.68" y2="161.46"/>
  <line class="cls-33" x1="37.2" y1="284.23" x2="37.2" y2="163.27"/>
  <line class="cls-33" x1="394.32" y1="284.23" x2="394.32" y2="163.27"/>
  <line class="cls-33" x1="37.2" y1="284.23" x2="394.32" y2="284.23"/>
  <g>
    <rect class="cls-14" x="250.3" y="169.77" width="137.52" height="42.06" rx="2.6" ry="2.6"/>
    <rect class="cls-28" x="250.3" y="169.77" width="137.52" height="42.06" rx="2.6" ry="2.6"/>
  </g>
  <polyline class="cls-29" points="255.5 180.3 268.5 180.3 281.5 180.3"/>
  <polygon class="cls-36" points="268.5 177.8 266 182.8 271 182.8 268.5 177.8"/>
  <polygon class="cls-10" points="293.18 175.37 295.09 175.37 297.5 181.82 299.94 175.37 301.85 175.37 301.85 184.85 300.6 184.85 300.6 176.53 298.15 183.03 296.87 183.03 294.42 176.53 294.42 184.85 293.18 184.85 293.18 175.37"/>
  <polygon class="cls-10" points="306.84 184.85 303.22 175.37 304.56 175.37 307.57 183.35 310.57 175.37 311.91 175.37 308.29 184.85 306.84 184.85"/>
  <rect class="cls-10" x="313.29" y="175.37" width="1.29" height="9.48"/>
  <path class="cls-10" d="M317.12,175.37h2.9c1.05,0,1.86.25,2.4.73.55.48.82,1.18.82,2.11s-.27,1.65-.82,2.12c-.55.48-1.35.71-2.4.71h-1.61v3.81h-1.29v-9.48ZM318.41,176.42v3.56h1.61c.6,0,1.05-.14,1.38-.46.33-.31.49-.75.49-1.33s-.17-1-.49-1.31c-.32-.31-.78-.47-1.38-.47h-1.61Z"/>
  <path class="cls-10" d="M331.85,174.98c-.57.99-.99,1.95-1.26,2.9-.29.95-.42,1.91-.42,2.89s.13,1.95.42,2.9c.27.96.69,1.91,1.26,2.89h-1.01c-.64-1-1.12-1.96-1.43-2.93s-.47-1.91-.47-2.86.16-1.88.47-2.85.78-1.94,1.43-2.94h1.01Z"/>
  <polygon class="cls-10" points="333.44 177.74 334.61 177.74 336.06 183.29 337.52 177.74 338.9 177.74 340.35 183.29 341.81 177.74 342.98 177.74 341.12 184.85 339.74 184.85 338.21 179.02 336.67 184.85 335.3 184.85 333.44 177.74"/>
  <polygon class="cls-10" points="346.83 175.37 347.91 175.37 344.6 186.04 343.52 186.04 346.83 175.37"/>
  <rect class="cls-10" x="353.31" y="175.37" width="1.29" height="9.48"/>
  <path class="cls-10" d="M359.59,175.37h1.46l3.61,9.48h-1.34l-.86-2.43h-4.28l-.86,2.43h-1.35l3.61-9.48ZM360.32,176.63l-1.74,4.72h3.48l-1.74-4.72Z"/>
  <path class="cls-10" d="M365.81,174.98h1.01c.62,1,1.11,1.98,1.42,2.94.31.96.48,1.91.48,2.85s-.17,1.9-.48,2.86c-.31.96-.79,1.92-1.42,2.93h-1.01c.56-.98.98-1.92,1.26-2.89.27-.95.42-1.91.42-2.9s-.14-1.94-.42-2.89c-.29-.95-.7-1.91-1.26-2.9Z"/>
  <polyline class="cls-32" points="255.5 199.38 268.5 199.38 281.5 199.38"/>
  <rect class="cls-35" x="266" y="196.88" width="5" height="5"/>
  <path class="cls-10" d="M293.18,194.45h2.9c1.05,0,1.86.25,2.4.73s.82,1.18.82,2.11-.27,1.65-.82,2.12c-.55.48-1.35.72-2.4.72h-1.61v3.81h-1.29v-9.48ZM294.46,195.5v3.56h1.61c.6,0,1.05-.14,1.38-.46.33-.31.49-.75.49-1.33s-.17-1-.49-1.31c-.32-.31-.78-.47-1.38-.47h-1.61Z"/>
  <path class="cls-10" d="M302.63,194.45h1.46l3.61,9.48h-1.34l-.86-2.43h-4.28l-.86,2.43h-1.35l3.61-9.48ZM303.36,195.71l-1.74,4.72h3.48l-1.74-4.72Z"/>
  <rect class="cls-10" x="308.16" y="199.84" width="3.42" height="1.04"/>
  <polygon class="cls-10" points="313.49 194.45 314.78 194.45 314.78 202.85 319.39 202.85 319.39 203.93 313.49 203.93 313.49 194.45"/>
  <polygon class="cls-10" points="320.73 194.45 326.18 194.45 326.18 195.53 322.02 195.53 322.02 198.32 325.77 198.32 325.77 199.4 322.02 199.4 322.02 203.93 320.73 203.93 320.73 194.45"/>
  <path class="cls-10" d="M328.06,194.45h1.29v5.76c0,1.01.18,1.76.55,2.2.36.44.96.66,1.79.66s1.42-.22,1.78-.66c.36-.44.56-1.18.56-2.2v-5.76h1.29v5.92c0,1.25-.31,2.17-.92,2.79s-1.51.94-2.7.94-2.11-.31-2.72-.94c-.61-.62-.91-1.55-.91-2.79v-5.92Z"/>
  <path class="cls-10" d="M344.61,194.06c-.57.99-.99,1.95-1.26,2.9-.29.95-.42,1.91-.42,2.89s.13,1.95.42,2.9c.27.96.69,1.91,1.26,2.89h-1.01c-.64-1-1.12-1.96-1.43-2.93s-.47-1.91-.47-2.86.16-1.89.47-2.85c.31-.96.78-1.94,1.43-2.94h1.01Z"/>
  <polygon class="cls-10" points="346.2 196.82 347.37 196.82 348.82 202.37 350.28 196.82 351.66 196.82 353.11 202.37 354.57 196.82 355.74 196.82 353.88 203.93 352.5 203.93 350.97 198.1 349.43 203.93 348.06 203.93 346.2 196.82"/>
  <polygon class="cls-10" points="359.59 194.45 360.67 194.45 357.36 205.12 356.29 205.12 359.59 194.45"/>
  <rect class="cls-10" x="366.07" y="194.45" width="1.29" height="9.48"/>
  <path class="cls-10" d="M372.35,194.45h1.46l3.61,9.48h-1.34l-.86-2.43h-4.28l-.86,2.43h-1.35l3.61-9.48ZM373.08,195.71l-1.74,4.72h3.48l-1.74-4.72Z"/>
  <path class="cls-10" d="M378.57,194.06h1.01c.62,1,1.11,1.98,1.42,2.94.31.96.48,1.91.48,2.85s-.17,1.9-.48,2.86c-.31.96-.79,1.92-1.42,2.93h-1.01c.56-.98.98-1.92,1.26-2.89.27-.95.42-1.91.42-2.9s-.14-1.94-.42-2.89c-.29-.95-.7-1.91-1.26-2.9Z"/>
</svg>