<?xml version="1.0" encoding="UTF-8"?>
<svg id="Layer_1" data-name="Layer 1" xmlns="http://www.w3.org/2000/svg" version="1.1" xmlns:xlink="http://www.w3.org/1999/xlink" viewBox="0 0 413.04 325.65">
  <defs>
    <style>
      .cls-1 {
        clip-path: url(#clippath-45);
      }

      .cls-2 {
        clip-path: url(#clippath-20);
      }

      .cls-3 {
        clip-path: url(#clippath-11);
      }

      .cls-4 {
        clip-path: url(#clippath-16);
      }

      .cls-5 {
        clip-path: url(#clippath-33);
      }

      .cls-6 {
        fill: #000;
      }

      .cls-6, .cls-7, .cls-8, .cls-9 {
        stroke-width: 0px;
      }

      .cls-10 {
        clip-path: url(#clippath-47);
      }

      .cls-11 {
        clip-path: url(#clippath-41);
      }

      .cls-12 {
        clip-path: url(#clippath-32);
      }

      .cls-13 {
        clip-path: url(#clippath-2);
      }

      .cls-14 {
        clip-path: url(#clippath-13);
      }

      .cls-15 {
        clip-path: url(#clippath-37);
      }

      .cls-16 {
        clip-path: url(#clippath-46);
      }

      .cls-17 {
        clip-path: url(#clippath-25);
      }

      .cls-18 {
        clip-path: url(#clippath-15);
      }

      .cls-19 {
        clip-path: url(#clippath-6);
      }

      .cls-20 {
        clip-path: url(#clippath-40);
      }

      .cls-21 {
        clip-path: url(#clippath-26);
      }

      .cls-7, .cls-22, .cls-23, .cls-24, .cls-25, .cls-26, .cls-27, .cls-28, .cls-29, .cls-30, .cls-31 {
        fill: none;
      }

      .cls-32 {
        clip-path: url(#clippath-7);
      }

      .cls-33 {
        clip-path: url(#clippath-21);
      }

      .cls-22, .cls-24, .cls-25, .cls-29, .cls-30, .cls-31 {
        stroke-linejoin: round;
      }

      .cls-22, .cls-24, .cls-25, .cls-30 {
        stroke-width: 1.5px;
      }

      .cls-22, .cls-24, .cls-28 {
        stroke: red;
      }

      .cls-22, .cls-25 {
        stroke-dasharray: 0 0 5.55 2.4;
      }

      .cls-34 {
        clip-path: url(#clippath-34);
      }

      .cls-35 {
        clip-path: url(#clippath-1);
      }

      .cls-36 {
        clip-path: url(#clippath-4);
      }

      .cls-37 {
        clip-path: url(#clippath-38);
      }

      .cls-38 {
        clip-path: url(#clippath-36);
      }

      .cls-39 {
        clip-path: url(#clippath-27);
      }

      .cls-8, .cls-23 {
        opacity: .8;
      }

      .cls-8, .cls-9 {
        fill: #fff;
      }

      .cls-40 {
        clip-path: url(#clippath-44);
      }

      .cls-41 {
        clip-path: url(#clippath-12);
      }

      .cls-23 {
        stroke: #ccc;
      }

      .cls-23, .cls-26, .cls-27, .cls-28 {
        stroke-miterlimit: 10;
      }

      .cls-24, .cls-26, .cls-30 {
        stroke-linecap: square;
      }

      .cls-42 {
        clip-path: url(#clippath-24);
      }

      .cls-43 {
        clip-path: url(#clippath-30);
      }

      .cls-25, .cls-27, .cls-30 {
        stroke: blue;
      }

      .cls-44 {
        clip-path: url(#clippath-22);
      }

      .cls-45 {
        clip-path: url(#clippath-9);
      }

      .cls-46 {
        clip-path: url(#clippath-52);
      }

      .cls-47 {
        clip-path: url(#clippath);
      }

      .cls-48 {
        clip-path: url(#clippath-50);
      }

      .cls-49 {
        clip-path: url(#clippath-48);
      }

      .cls-50 {
        clip-path: url(#clippath-39);
      }

      .cls-51 {
        clip-path: url(#clippath-19);
      }

      .cls-52 {
        clip-path: url(#clippath-31);
      }

      .cls-53 {
        clip-path: url(#clippath-54);
      }

      .cls-54 {
        clip-path: url(#clippath-3);
      }

      .cls-26, .cls-29, .cls-31 {
        stroke-width: .8px;
      }

      .cls-26, .cls-31 {
        stroke: #000;
      }

      .cls-55 {
        clip-path: url(#clippath-43);
      }

      .cls-56 {
        clip-path: url(#clippath-8);
      }

      .cls-57 {
        clip-path: url(#clippath-55);
      }

      .cls-58 {
        clip-path: url(#clippath-29);
      }

      .cls-59 {
        clip-path: url(#clippath-18);
      }

      .cls-60 {
        clip-path: url(#clippath-14);
      }

      .cls-61 {
        clip-path: url(#clippath-17);
      }

      .cls-62 {
        clip-path: url(#clippath-5);
      }

      .cls-29 {
        opacity: .5;
        stroke: #b0b0b0;
        stroke-dasharray: 0 0 2.96 1.28;
      }

      .cls-63 {
        clip-path: url(#clippath-42);
      }

      .cls-64 {
        clip-path: url(#clippath-10);
      }

      .cls-65 {
        clip-path: url(#clippath-23);
      }

      .cls-66 {
        clip-path: url(#clippath-53);
      }

      .cls-67 {
        clip-path: url(#clippath-49);
      }

      .cls-68 {
        clip-path: url(#clippath-51);
      }

      .cls-69 {
        clip-path: url(#clippath-28);
      }

      .cls-70 {
        clip-path: url(#clippath-35);
      }
    </style>
    <clipPath id="clippath">
      <rect class="cls-7" x="48.72" y="18.12" width="357.12" height="266.11"/>
    </clipPath>
    <clipPath id="clippath-1">
      <rect class="cls-7" x="48.72" y="18.12" width="357.12" height="266.11"/>
    </clipPath>
    <clipPath id="clippath-2">
      <rect class="cls-7" x="48.72" y="18.12" width="357.12" height="266.11"/>
    </clipPath>
    <clipPath id="clippath-3">
      <rect class="cls-7" x="48.72" y="18.12" width="357.12" height="266.11"/>
    </clipPath>
    <clipPath id="clippath-4">
      <rect class="cls-7" x="48.72" y="18.12" width="357.12" height="266.11"/>
    </clipPath>
    <clipPath id="clippath-5">
      <rect class="cls-7" x="48.72" y="18.12" width="357.12" height="266.11"/>
    </clipPath>
    <clipPath id="clippath-6">
      <rect class="cls-7" x="48.72" y="18.12" width="357.12" height="266.11"/>
    </clipPath>
    <clipPath id="clippath-7">
      <rect class="cls-7" x="48.72" y="18.12" width="357.12" height="266.11"/>
    </clipPath>
    <clipPath id="clippath-8">
      <rect class="cls-7" x="48.72" y="18.12" width="357.12" height="266.11"/>
    </clipPath>
    <clipPath id="clippath-9">
      <rect class="cls-7" x="48.72" y="18.12" width="357.12" height="266.11"/>
    </clipPath>
    <clipPath id="clippath-10">
      <rect class="cls-7" x="48.72" y="18.12" width="357.12" height="266.11"/>
    </clipPath>
    <clipPath id="clippath-11">
      <rect class="cls-7" x="48.72" y="18.12" width="357.12" height="266.11"/>
    </clipPath>
    <clipPath id="clippath-12">
      <rect class="cls-7" x="382.1" y="262.24" width="15" height="15"/>
    </clipPath>
    <clipPath id="clippath-13">
      <rect class="cls-7" x="284.44" y="264.64" width="15" height="15"/>
    </clipPath>
    <clipPath id="clippath-14">
      <rect class="cls-7" x="184.66" y="260.01" width="15" height="15"/>
    </clipPath>
    <clipPath id="clippath-15">
      <rect class="cls-7" x="149.5" y="257.19" width="15" height="15"/>
    </clipPath>
    <clipPath id="clippath-16">
      <rect class="cls-7" x="126.66" y="239.65" width="15" height="15"/>
    </clipPath>
    <clipPath id="clippath-17">
      <rect class="cls-7" x="81.44" y="140.99" width="15" height="15"/>
    </clipPath>
    <clipPath id="clippath-18">
      <rect class="cls-7" x="76.82" y="122.59" width="15" height="15"/>
    </clipPath>
    <clipPath id="clippath-19">
      <rect class="cls-7" x="64.13" y="56.33" width="15" height="15"/>
    </clipPath>
    <clipPath id="clippath-20">
      <rect class="cls-7" x="57.45" y="33.36" width="15" height="15"/>
    </clipPath>
    <clipPath id="clippath-21">
      <rect class="cls-7" x="48.72" y="18.12" width="357.12" height="266.11"/>
    </clipPath>
    <clipPath id="clippath-22">
      <rect class="cls-7" x="372.26" y="222.81" width="15" height="15"/>
    </clipPath>
    <clipPath id="clippath-23">
      <rect class="cls-7" x="363.77" y="225.37" width="15" height="15"/>
    </clipPath>
    <clipPath id="clippath-24">
      <rect class="cls-7" x="266.13" y="258.41" width="15" height="15"/>
    </clipPath>
    <clipPath id="clippath-25">
      <rect class="cls-7" x="215.88" y="256.71" width="15" height="15"/>
    </clipPath>
    <clipPath id="clippath-26">
      <rect class="cls-7" x="156.83" y="224.2" width="15" height="15"/>
    </clipPath>
    <clipPath id="clippath-27">
      <rect class="cls-7" x="122.32" y="172.91" width="15" height="15"/>
    </clipPath>
    <clipPath id="clippath-28">
      <rect class="cls-7" x="77.33" y="90.28" width="15" height="15"/>
    </clipPath>
    <clipPath id="clippath-29">
      <rect class="cls-7" x="66.02" y="63.87" width="15" height="15"/>
    </clipPath>
    <clipPath id="clippath-30">
      <rect class="cls-7" x="62.19" y="49.28" width="15" height="15"/>
    </clipPath>
    <clipPath id="clippath-31">
      <rect class="cls-7" x="48.72" y="18.12" width="357.12" height="266.11"/>
    </clipPath>
    <clipPath id="clippath-32">
      <rect class="cls-7" x="177.8" y="111.29" width="15" height="15"/>
    </clipPath>
    <clipPath id="clippath-33">
      <rect class="cls-7" x="157.72" y="111.36" width="15" height="15"/>
    </clipPath>
    <clipPath id="clippath-34">
      <rect class="cls-7" x="136.82" y="110.45" width="15" height="15"/>
    </clipPath>
    <clipPath id="clippath-35">
      <rect class="cls-7" x="116.08" y="109.33" width="15" height="15"/>
    </clipPath>
    <clipPath id="clippath-36">
      <rect class="cls-7" x="98.99" y="102.47" width="15" height="15"/>
    </clipPath>
    <clipPath id="clippath-37">
      <rect class="cls-7" x="84.14" y="92.16" width="15" height="15"/>
    </clipPath>
    <clipPath id="clippath-38">
      <rect class="cls-7" x="79.64" y="81.56" width="15" height="15"/>
    </clipPath>
    <clipPath id="clippath-39">
      <rect class="cls-7" x="76.92" y="76.72" width="15" height="15"/>
    </clipPath>
    <clipPath id="clippath-40">
      <rect class="cls-7" x="48.72" y="18.12" width="357.12" height="266.11"/>
    </clipPath>
    <clipPath id="clippath-41">
      <rect class="cls-7" x="167.91" y="121.87" width="15" height="15"/>
    </clipPath>
    <clipPath id="clippath-42">
      <rect class="cls-7" x="167.91" y="121.87" width="15" height="15"/>
    </clipPath>
    <clipPath id="clippath-43">
      <rect class="cls-7" x="167.91" y="121.87" width="15" height="15"/>
    </clipPath>
    <clipPath id="clippath-44">
      <rect class="cls-7" x="128.58" y="118.76" width="15" height="15"/>
    </clipPath>
    <clipPath id="clippath-45">
      <rect class="cls-7" x="103.43" y="119.5" width="15" height="15"/>
    </clipPath>
    <clipPath id="clippath-46">
      <rect class="cls-7" x="84.86" y="110.27" width="15" height="15"/>
    </clipPath>
    <clipPath id="clippath-47">
      <rect class="cls-7" x="78.77" y="101.28" width="15" height="15"/>
    </clipPath>
    <clipPath id="clippath-48">
      <rect class="cls-7" x="75.17" y="94.1" width="15" height="15"/>
    </clipPath>
    <clipPath id="clippath-49">
      <rect class="cls-7" x="72.64" y="84.7" width="15" height="15"/>
    </clipPath>
    <clipPath id="clippath-50">
      <rect class="cls-7" x="71.75" y="80.62" width="15" height="15"/>
    </clipPath>
    <clipPath id="clippath-51">
      <rect class="cls-7" x="68.4" y="68.95" width="15" height="15"/>
    </clipPath>
    <clipPath id="clippath-52">
      <rect class="cls-7" x="65.46" y="53.49" width="15" height="15"/>
    </clipPath>
    <clipPath id="clippath-53">
      <rect class="cls-7" x="63.12" y="42.49" width="15" height="15"/>
    </clipPath>
    <clipPath id="clippath-54">
      <rect class="cls-7" x="60.69" y="32.65" width="15" height="15"/>
    </clipPath>
    <clipPath id="clippath-55">
      <rect class="cls-7" x="58.13" y="22.72" width="15" height="15"/>
    </clipPath>
  </defs>
  <rect class="cls-9" width="413.04" height="325.65"/>
  <rect class="cls-9" x="48.72" y="18.12" width="357.12" height="266.11"/>
  <g class="cls-47">
    <line class="cls-29" x1="62.43" y1="284.23" x2="62.43" y2="18.12"/>
  </g>
  <line class="cls-6" x1="62.43" y1="284.23" x2="62.43" y2="287.73"/>
  <line class="cls-31" x1="62.43" y1="284.23" x2="62.43" y2="287.73"/>
  <path class="cls-6" d="M57.61,290.83c.81,0,1.43.33,1.87.97.43.65.65,1.59.65,2.81s-.22,2.17-.65,2.81c-.44.64-1.06.96-1.88.96s-1.44-.32-1.87-.96-.64-1.58-.64-2.81.21-2.16.64-2.81c.43-.64,1.06-.97,1.88-.97ZM57.61,291.61c-.51,0-.89.25-1.15.75-.26.5-.38,1.25-.38,2.25s.12,1.75.38,2.25c.26.5.64.75,1.15.75s.89-.25,1.15-.75c.25-.5.38-1.25.38-2.25s-.13-1.75-.38-2.25c-.26-.5-.64-.75-1.15-.75Z"/>
  <rect class="cls-6" x="61.86" y="297.01" width="1.03" height="1.24"/>
  <path class="cls-6" d="M67.15,290.83c.81,0,1.43.33,1.87.97.43.65.65,1.59.65,2.81s-.22,2.17-.65,2.81c-.44.64-1.06.96-1.88.96s-1.44-.32-1.87-.96-.64-1.58-.64-2.81.21-2.16.64-2.81c.43-.64,1.06-.97,1.88-.97ZM67.15,291.61c-.51,0-.89.25-1.15.75s-.38,1.25-.38,2.25.12,1.75.38,2.25.64.75,1.15.75.89-.25,1.15-.75c.25-.5.38-1.25.38-2.25s-.13-1.75-.38-2.25c-.26-.5-.64-.75-1.15-.75Z"/>
  <g class="cls-35">
    <line class="cls-29" x1="129.43" y1="284.23" x2="129.43" y2="18.12"/>
  </g>
  <line class="cls-6" x1="129.43" y1="284.23" x2="129.43" y2="287.73"/>
  <line class="cls-31" x1="129.43" y1="284.23" x2="129.43" y2="287.73"/>
  <path class="cls-6" d="M124.61,290.83c.81,0,1.43.33,1.87.97.43.65.65,1.59.65,2.81s-.22,2.17-.65,2.81c-.44.64-1.06.96-1.88.96s-1.44-.32-1.87-.96-.64-1.58-.64-2.81.21-2.16.64-2.81c.43-.64,1.06-.97,1.88-.97ZM124.61,291.61c-.51,0-.89.25-1.15.75s-.38,1.25-.38,2.25.12,1.75.38,2.25.64.75,1.15.75.89-.25,1.15-.75c.25-.5.38-1.25.38-2.25s-.13-1.75-.38-2.25c-.26-.5-.64-.75-1.15-.75Z"/>
  <rect class="cls-6" x="128.86" y="297.01" width="1.03" height="1.24"/>
  <path class="cls-6" d="M132.39,297.42h3.44v.83h-4.63v-.83c.37-.38.88-.9,1.53-1.56.64-.65,1.05-1.07,1.22-1.26.32-.35.54-.65.66-.9.12-.24.19-.49.19-.73,0-.38-.14-.7-.41-.94-.27-.24-.62-.37-1.06-.37-.31,0-.64.06-.98.16-.34.11-.71.27-1.1.49v-1c.4-.16.77-.28,1.11-.36.34-.08.66-.12.95-.12.75,0,1.35.19,1.8.57.45.38.68.88.68,1.51,0,.3-.06.59-.17.85-.11.27-.31.59-.61.95-.08.1-.34.37-.78.82-.44.45-1.05,1.08-1.84,1.89Z"/>
  <g class="cls-13">
    <line class="cls-29" x1="196.42" y1="284.23" x2="196.42" y2="18.12"/>
  </g>
  <line class="cls-6" x1="196.42" y1="284.23" x2="196.42" y2="287.73"/>
  <line class="cls-31" x1="196.42" y1="284.23" x2="196.42" y2="287.73"/>
  <path class="cls-6" d="M191.6,290.83c.81,0,1.43.33,1.87.97.43.65.65,1.59.65,2.81s-.22,2.17-.65,2.81c-.44.64-1.06.96-1.88.96s-1.44-.32-1.87-.96c-.43-.64-.64-1.58-.64-2.81s.21-2.16.64-2.81c.43-.64,1.06-.97,1.88-.97ZM191.6,291.61c-.51,0-.89.25-1.15.75s-.38,1.25-.38,2.25.12,1.75.38,2.25.64.75,1.15.75.89-.25,1.15-.75c.25-.5.38-1.25.38-2.25s-.13-1.75-.38-2.25c-.26-.5-.64-.75-1.15-.75Z"/>
  <rect class="cls-6" x="195.85" y="297.01" width="1.03" height="1.24"/>
  <path class="cls-6" d="M201.48,290.96h1.24v4.75h1.04v.82h-1.04v1.72h-.98v-1.72h-3.29v-.95l3.03-4.62ZM201.74,291.82l-2.49,3.89h2.49v-3.89Z"/>
  <g class="cls-54">
    <line class="cls-29" x1="263.42" y1="284.23" x2="263.42" y2="18.12"/>
  </g>
  <line class="cls-6" x1="263.42" y1="284.23" x2="263.42" y2="287.73"/>
  <line class="cls-31" x1="263.42" y1="284.23" x2="263.42" y2="287.73"/>
  <path class="cls-6" d="M258.6,290.83c.81,0,1.43.33,1.87.97.43.65.65,1.59.65,2.81s-.22,2.17-.65,2.81c-.44.64-1.06.96-1.88.96s-1.44-.32-1.87-.96-.64-1.58-.64-2.81.21-2.16.64-2.81c.43-.64,1.06-.97,1.88-.97ZM258.6,291.61c-.51,0-.89.25-1.15.75-.26.5-.38,1.25-.38,2.25s.12,1.75.38,2.25c.26.5.64.75,1.15.75s.89-.25,1.15-.75c.25-.5.38-1.25.38-2.25s-.13-1.75-.38-2.25c-.26-.5-.64-.75-1.15-.75Z"/>
  <rect class="cls-6" x="262.85" y="297.01" width="1.03" height="1.24"/>
  <path class="cls-6" d="M270.22,291.12v.9c-.25-.12-.5-.21-.75-.27-.26-.06-.51-.09-.75-.09-.66,0-1.16.22-1.5.66s-.54,1.11-.58,1.99c.19-.28.43-.5.72-.65.29-.15.61-.23.96-.23.73,0,1.31.23,1.73.67.42.44.64,1.05.64,1.81s-.23,1.35-.67,1.8c-.44.45-1.03.67-1.76.67-.84,0-1.49-.32-1.93-.96-.45-.64-.67-1.58-.67-2.81,0-1.15.27-2.07.82-2.75.54-.68,1.28-1.03,2.2-1.03.24,0,.49.03.75.07.25.05.51.12.79.22ZM268.26,294.21c-.44,0-.79.16-1.05.46-.26.3-.39.72-.39,1.24s.13.95.39,1.25.61.45,1.05.45.79-.15,1.05-.45c.26-.3.39-.72.39-1.25s-.13-.94-.39-1.24c-.26-.3-.61-.46-1.05-.46Z"/>
  <g class="cls-36">
    <line class="cls-29" x1="330.41" y1="284.23" x2="330.41" y2="18.12"/>
  </g>
  <line class="cls-6" x1="330.41" y1="284.23" x2="330.41" y2="287.73"/>
  <line class="cls-31" x1="330.41" y1="284.23" x2="330.41" y2="287.73"/>
  <path class="cls-6" d="M325.59,290.83c.81,0,1.43.33,1.87.97.43.65.65,1.59.65,2.81s-.22,2.17-.65,2.81c-.44.64-1.06.96-1.88.96s-1.44-.32-1.87-.96c-.43-.64-.64-1.58-.64-2.81s.21-2.16.64-2.81c.43-.64,1.06-.97,1.88-.97ZM325.59,291.61c-.51,0-.89.25-1.15.75s-.38,1.25-.38,2.25.12,1.75.38,2.25.64.75,1.15.75.89-.25,1.15-.75c.25-.5.38-1.25.38-2.25s-.13-1.75-.38-2.25c-.26-.5-.64-.75-1.15-.75Z"/>
  <rect class="cls-6" x="329.84" y="297.01" width="1.03" height="1.24"/>
  <path class="cls-6" d="M333.53,292.81c0,.38.11.68.35.89.24.21.57.31,1,.31s.75-.1.99-.31c.24-.21.36-.51.36-.89s-.12-.67-.36-.88c-.24-.21-.57-.32-.99-.32s-.76.11-1,.32c-.24.21-.35.5-.35.88ZM333.89,294.37c-.42-.1-.75-.3-.99-.59-.24-.29-.35-.64-.35-1.06,0-.58.2-1.04.62-1.38.41-.34.98-.51,1.71-.51s1.29.17,1.71.51c.41.34.62.8.62,1.38,0,.42-.12.77-.36,1.06-.24.29-.56.49-.98.59.47.11.84.33,1.11.65.26.32.4.72.4,1.18,0,.71-.22,1.25-.65,1.62-.44.38-1.06.56-1.86.56s-1.42-.18-1.85-.56c-.43-.37-.64-.91-.64-1.62,0-.46.13-.86.4-1.18.26-.32.63-.54,1.11-.65ZM334.88,294.79c-.47,0-.84.13-1.11.38-.27.25-.4.59-.4,1.03s.13.79.4,1.04c.27.25.64.37,1.11.37s.83-.12,1.1-.38c.27-.25.41-.59.41-1.03s-.14-.78-.4-1.03c-.27-.25-.64-.38-1.11-.38Z"/>
  <g class="cls-62">
    <line class="cls-29" x1="397.41" y1="284.23" x2="397.41" y2="18.12"/>
  </g>
  <line class="cls-6" x1="397.41" y1="284.23" x2="397.41" y2="287.73"/>
  <line class="cls-31" x1="397.41" y1="284.23" x2="397.41" y2="287.73"/>
  <polygon class="cls-6" points="390.65 297.42 392.26 297.42 392.26 291.86 390.51 292.21 390.51 291.31 392.25 290.96 393.24 290.96 393.24 297.42 394.85 297.42 394.85 298.25 390.65 298.25 390.65 297.42"/>
  <rect class="cls-6" x="396.84" y="297.01" width="1.03" height="1.24"/>
  <path class="cls-6" d="M402.13,290.83c.81,0,1.43.33,1.87.97.43.65.65,1.59.65,2.81s-.22,2.17-.65,2.81c-.44.64-1.06.96-1.88.96s-1.44-.32-1.87-.96c-.43-.64-.64-1.58-.64-2.81s.21-2.16.64-2.81c.43-.64,1.06-.97,1.88-.97ZM402.13,291.61c-.51,0-.89.25-1.15.75s-.38,1.25-.38,2.25.12,1.75.38,2.25.64.75,1.15.75.89-.25,1.15-.75c.25-.5.38-1.25.38-2.25s-.13-1.75-.38-2.25c-.26-.5-.64-.75-1.15-.75Z"/>
  <polygon class="cls-6" points="182.37 305.34 191 305.34 191 306.5 187.37 306.5 187.37 315.55 185.98 315.55 185.98 306.5 182.37 306.5 182.37 305.34"/>
  <path class="cls-6" d="M192.86,307.71c1.09,0,1.95.36,2.58,1.06.62.71.94,1.69.94,2.95s-.32,2.24-.94,2.94c-.63.71-1.48,1.06-2.58,1.06s-1.97-.35-2.59-1.06c-.62-.7-.92-1.68-.92-2.94s.31-2.24.92-2.95c.62-.7,1.48-1.06,2.59-1.06ZM192.86,308.77c-.67,0-1.2.27-1.6.8s-.59,1.25-.59,2.16.18,1.64.57,2.17c.39.53.92.78,1.61.78s1.2-.25,1.6-.78c.39-.53.59-1.25.59-2.17s-.2-1.62-.59-2.16-.92-.8-1.6-.8Z"/>
  <path class="cls-6" d="M199.71,305.72v2.17h2.59v.98h-2.59v4.16c0,.63.08,1.04.25,1.2.17.18.52.27,1.05.27h1.29v1.05h-1.29c-.98,0-1.65-.18-2.02-.55-.36-.36-.55-1.02-.55-1.97v-4.16h-.92v-.98h.92v-2.17h1.26Z"/>
  <path class="cls-6" d="M209.94,311.18v4.37h-1.26v-1.16c-.29.48-.66.81-1.08,1.02s-.95.32-1.57.32c-.78,0-1.41-.21-1.88-.64s-.69-1.02-.69-1.76c0-.85.28-1.5.87-1.95.57-.43,1.43-.66,2.58-.66h1.76v-.13c0-.57-.2-1.02-.57-1.34-.38-.31-.91-.48-1.6-.48-.45,0-.87.06-1.29.17-.42.11-.81.27-1.19.46v-1.16c.45-.17.9-.31,1.33-.39.43-.08.85-.14,1.27-.14,1.11,0,1.93.29,2.48.87.55.57.83,1.44.83,2.6ZM207.44,311.7c-1.02,0-1.72.13-2.11.35-.39.24-.59.63-.59,1.19,0,.45.14.81.43,1.06.29.27.7.39,1.2.39.7,0,1.26-.24,1.68-.74.42-.49.63-1.15.63-1.97v-.28h-1.25Z"/>
  <rect class="cls-6" x="212.53" y="304.91" width="1.26" height="10.64"/>
  <path class="cls-6" d="M226.38,311.72c0-.92-.2-1.64-.57-2.17-.39-.53-.91-.8-1.57-.8s-1.19.27-1.57.8c-.39.53-.57,1.25-.57,2.17s.18,1.65.57,2.18c.38.53.9.78,1.57.78s1.18-.25,1.57-.78c.38-.53.57-1.26.57-2.18ZM222.1,314.4v4.05h-1.26v-10.56h1.26v1.16c.25-.45.59-.78.99-1.01.41-.22.9-.34,1.46-.34.92,0,1.68.38,2.27,1.11.57.74.87,1.71.87,2.91s-.29,2.18-.87,2.91c-.59.73-1.34,1.09-2.27,1.09-.56,0-1.05-.11-1.46-.32s-.74-.55-.99-1.01Z"/>
  <path class="cls-6" d="M235.06,311.04c-.01-.69-.21-1.23-.57-1.65-.38-.41-.88-.62-1.5-.62-.7,0-1.26.21-1.68.6-.42.39-.67.95-.73,1.67h4.48ZM236.32,311.4v.62h-5.78c.06.87.31,1.54.78,1.99.46.45,1.11.67,1.95.67.48,0,.95-.06,1.4-.17.45-.11.91-.29,1.36-.55v1.19c-.45.2-.91.35-1.39.43-.48.08-.97.14-1.44.14-1.23,0-2.2-.35-2.91-1.05s-1.06-1.67-1.06-2.88.34-2.24,1.01-2.98c.67-.73,1.6-1.11,2.74-1.11,1.04,0,1.85.34,2.45.99.59.67.9,1.57.9,2.7Z"/>
  <path class="cls-6" d="M244.75,310.93v4.62h-1.26v-4.58c0-.73-.15-1.26-.43-1.62-.28-.36-.7-.55-1.26-.55-.69,0-1.22.22-1.61.66-.39.43-.59,1.02-.59,1.76v4.33h-1.26v-7.66h1.26v1.19c.29-.45.64-.8,1.06-1.02.41-.22.88-.35,1.41-.35.87,0,1.54.28,1.99.83.45.55.69,1.34.69,2.39Z"/>
  <path class="cls-6" d="M253.25,311.18v4.37h-1.26v-1.16c-.29.48-.66.81-1.08,1.02s-.95.32-1.57.32c-.78,0-1.41-.21-1.88-.64s-.69-1.02-.69-1.76c0-.85.28-1.5.87-1.95.57-.43,1.43-.66,2.58-.66h1.76v-.13c0-.57-.2-1.02-.57-1.34-.38-.31-.91-.48-1.6-.48-.45,0-.87.06-1.29.17-.42.11-.81.27-1.19.46v-1.16c.45-.17.9-.31,1.33-.39.43-.08.85-.14,1.27-.14,1.11,0,1.93.29,2.48.87.55.57.83,1.44.83,2.6ZM250.74,311.7c-1.02,0-1.72.13-2.11.35-.39.24-.59.63-.59,1.19,0,.45.14.81.43,1.06.29.27.7.39,1.2.39.7,0,1.26-.24,1.68-.74.42-.49.63-1.15.63-1.97v-.28h-1.25Z"/>
  <rect class="cls-6" x="255.84" y="304.91" width="1.26" height="10.64"/>
  <path class="cls-6" d="M260.97,305.72v2.17h2.59v.98h-2.59v4.16c0,.63.08,1.04.25,1.2.17.18.52.27,1.05.27h1.29v1.05h-1.29c-.98,0-1.65-.18-2.02-.55-.36-.36-.55-1.02-.55-1.97v-4.16h-.92v-.98h.92v-2.17h1.26Z"/>
  <path class="cls-6" d="M268.41,316.25c-.36.9-.71,1.5-1.05,1.78s-.78.42-1.34.42h-1.01v-1.05h.74c.34,0,.6-.08.8-.25.2-.17.41-.55.64-1.16l.22-.56-3.09-7.53h1.33l2.39,5.99,2.39-5.99h1.33l-3.36,8.36Z"/>
  <polygon class="cls-6" points="386.85 306.39 384.62 308.63 386.85 310.86 386.27 311.45 384.03 309.21 381.79 311.45 381.21 310.86 383.44 308.63 381.21 306.39 381.79 305.8 384.03 308.04 386.27 305.8 386.85 306.39"/>
  <polygon class="cls-6" points="389.45 310.93 391.06 310.93 391.06 305.37 389.31 305.72 389.31 304.82 391.05 304.47 392.04 304.47 392.04 310.93 393.65 310.93 393.65 311.76 389.45 311.76 389.45 310.93"/>
  <path class="cls-6" d="M397.76,304.34c.81,0,1.43.33,1.87.97.43.65.65,1.59.65,2.81s-.22,2.17-.65,2.81c-.44.64-1.06.96-1.88.96s-1.44-.32-1.87-.96c-.43-.64-.64-1.58-.64-2.81s.21-2.16.64-2.81c.43-.64,1.06-.97,1.88-.97ZM397.76,305.12c-.51,0-.89.25-1.15.75s-.38,1.25-.38,2.25.12,1.75.38,2.25.64.75,1.15.75.89-.25,1.15-.75c.25-.5.38-1.25.38-2.25s-.13-1.75-.38-2.25c-.26-.5-.64-.75-1.15-.75Z"/>
  <path class="cls-6" d="M403.5,302.83h.87v3.33h.73v.57h-.73v1.2h-.69v-1.2h-2.3v-.66l2.12-3.23ZM403.68,303.43l-1.74,2.72h1.74v-2.72Z"/>
  <g class="cls-19">
    <line class="cls-29" x1="48.72" y1="235.73" x2="405.84" y2="235.73"/>
  </g>
  <line class="cls-6" x1="48.72" y1="235.73" x2="45.22" y2="235.73"/>
  <line class="cls-31" x1="48.72" y1="235.73" x2="45.22" y2="235.73"/>
  <path class="cls-6" d="M29.78,235.02c.47.1.84.31,1.1.63.26.32.4.72.4,1.18,0,.72-.25,1.28-.74,1.67-.5.39-1.2.58-2.11.58-.31,0-.63-.03-.95-.09-.32-.05-.66-.14-1-.26v-.95c.27.16.57.28.9.36.32.08.66.12,1.02.12.62,0,1.09-.12,1.41-.36.32-.24.49-.6.49-1.07,0-.42-.15-.76-.45-1-.3-.24-.72-.37-1.26-.37h-.85v-.81h.89c.48,0,.85-.09,1.11-.29.26-.19.39-.47.39-.84s-.14-.66-.4-.86c-.27-.2-.65-.3-1.14-.3-.27,0-.56.03-.87.09s-.65.15-1.02.27v-.88c.37-.1.72-.18,1.05-.23.32-.05.63-.08.93-.08.74,0,1.33.17,1.77.51.44.34.66.8.66,1.38,0,.4-.12.74-.35,1.02s-.56.48-.98.58Z"/>
  <rect class="cls-6" x="33.15" y="237.71" width="1.03" height="1.24"/>
  <path class="cls-6" d="M36.34,231.66h3.87v.83h-2.97v1.79c.14-.05.29-.09.43-.11.14-.02.29-.04.43-.04.81,0,1.45.23,1.93.67.48.45.72,1.05.72,1.81s-.25,1.4-.74,1.83-1.18.64-2.06.64c-.31,0-.62-.03-.94-.07-.32-.05-.64-.12-.98-.23v-.99c.29.16.59.28.91.36.31.08.64.11.99.11.56,0,1.01-.14,1.34-.44.32-.3.49-.7.49-1.21s-.17-.9-.49-1.2c-.33-.3-.78-.45-1.34-.45-.26,0-.53.03-.79.09-.26.06-.53.15-.8.27v-3.66Z"/>
  <g class="cls-32">
    <line class="cls-29" x1="48.72" y1="184.85" x2="405.84" y2="184.85"/>
  </g>
  <line class="cls-6" x1="48.72" y1="184.85" x2="45.22" y2="184.85"/>
  <line class="cls-31" x1="48.72" y1="184.85" x2="45.22" y2="184.85"/>
  <path class="cls-6" d="M29.24,180.78h1.24v4.75h1.04v.82h-1.04v1.72h-.98v-1.72h-3.29v-.95l3.03-4.62ZM29.5,181.64l-2.49,3.89h2.49v-3.89Z"/>
  <rect class="cls-6" x="33.15" y="186.83" width="1.03" height="1.24"/>
  <path class="cls-6" d="M38.44,180.65c.81,0,1.43.33,1.87.97.43.65.65,1.59.65,2.81s-.22,2.17-.65,2.81c-.44.64-1.06.96-1.88.96s-1.44-.32-1.87-.96-.64-1.58-.64-2.81.21-2.16.64-2.81c.43-.64,1.06-.97,1.88-.97ZM38.44,181.43c-.51,0-.89.25-1.15.75-.26.5-.38,1.25-.38,2.25s.12,1.75.38,2.25c.26.5.64.75,1.15.75s.89-.25,1.15-.75c.25-.5.38-1.25.38-2.25s-.13-1.75-.38-2.25c-.26-.5-.64-.75-1.15-.75Z"/>
  <g class="cls-56">
    <line class="cls-29" x1="48.72" y1="133.97" x2="405.84" y2="133.97"/>
  </g>
  <line class="cls-6" x1="48.72" y1="133.97" x2="45.22" y2="133.97"/>
  <line class="cls-31" x1="48.72" y1="133.97" x2="45.22" y2="133.97"/>
  <path class="cls-6" d="M29.24,129.78h1.24v4.75h1.04v.82h-1.04v1.72h-.98v-1.72h-3.29v-.95l3.03-4.62ZM29.5,130.64l-2.49,3.89h2.49v-3.89Z"/>
  <rect class="cls-6" x="33.15" y="135.83" width="1.03" height="1.24"/>
  <path class="cls-6" d="M36.34,129.78h3.87v.83h-2.97v1.79c.14-.05.29-.09.43-.11s.29-.04.43-.04c.81,0,1.45.23,1.93.67.48.45.72,1.05.72,1.81s-.25,1.4-.74,1.83c-.49.43-1.18.64-2.06.64-.31,0-.62-.03-.94-.07-.32-.05-.64-.12-.98-.23v-.99c.29.16.59.28.91.36.31.08.64.11.99.11.56,0,1.01-.14,1.34-.44.32-.3.49-.7.49-1.21s-.17-.9-.49-1.2c-.33-.3-.78-.45-1.34-.45-.26,0-.53.03-.79.09-.26.06-.53.15-.8.27v-3.66Z"/>
  <g class="cls-45">
    <line class="cls-29" x1="48.72" y1="83.1" x2="405.84" y2="83.1"/>
  </g>
  <line class="cls-6" x1="48.72" y1="83.1" x2="45.22" y2="83.1"/>
  <line class="cls-31" x1="48.72" y1="83.1" x2="45.22" y2="83.1"/>
  <path class="cls-6" d="M26.8,79.02h3.87v.83h-2.97v1.79c.14-.05.29-.09.43-.11s.29-.04.43-.04c.81,0,1.45.23,1.93.67.48.45.72,1.05.72,1.81s-.25,1.4-.74,1.83c-.49.43-1.18.64-2.06.64-.31,0-.62-.03-.94-.07-.32-.05-.64-.12-.98-.23v-.99c.29.16.59.28.91.36.31.08.64.11.99.11.56,0,1.01-.14,1.34-.44.32-.3.49-.7.49-1.21s-.17-.9-.49-1.2c-.33-.3-.78-.45-1.34-.45-.26,0-.53.03-.79.09-.26.06-.53.15-.8.27v-3.66Z"/>
  <rect class="cls-6" x="33.15" y="85.07" width="1.03" height="1.24"/>
  <path class="cls-6" d="M38.44,78.89c.81,0,1.43.33,1.87.97.43.65.65,1.59.65,2.81s-.22,2.17-.65,2.81c-.44.64-1.06.96-1.88.96s-1.44-.32-1.87-.96-.64-1.58-.64-2.81.21-2.16.64-2.81c.43-.64,1.06-.97,1.88-.97ZM38.44,79.67c-.51,0-.89.25-1.15.75-.26.5-.38,1.25-.38,2.25s.12,1.75.38,2.25c.26.5.64.75,1.15.75s.89-.25,1.15-.75c.25-.5.38-1.25.38-2.25s-.13-1.75-.38-2.25c-.26-.5-.64-.75-1.15-.75Z"/>
  <g class="cls-64">
    <line class="cls-29" x1="48.72" y1="32.22" x2="405.84" y2="32.22"/>
  </g>
  <line class="cls-6" x1="48.72" y1="32.22" x2="45.22" y2="32.22"/>
  <line class="cls-31" x1="48.72" y1="32.22" x2="45.22" y2="32.22"/>
  <path class="cls-6" d="M26.8,28.02h3.87v.83h-2.97v1.79c.14-.05.29-.09.43-.11s.29-.04.43-.04c.81,0,1.45.23,1.93.67.48.45.72,1.05.72,1.81s-.25,1.4-.74,1.83c-.49.43-1.18.64-2.06.64-.31,0-.62-.03-.94-.07-.32-.05-.64-.12-.98-.23v-.99c.29.16.59.28.91.36.31.08.64.11.99.11.56,0,1.01-.14,1.34-.44.32-.3.49-.7.49-1.21s-.17-.9-.49-1.2c-.33-.3-.78-.45-1.34-.45-.26,0-.53.03-.79.09-.26.06-.53.15-.8.27v-3.66Z"/>
  <rect class="cls-6" x="33.15" y="34.07" width="1.03" height="1.24"/>
  <path class="cls-6" d="M36.34,28.02h3.87v.83h-2.97v1.79c.14-.05.29-.09.43-.11s.29-.04.43-.04c.81,0,1.45.23,1.93.67.48.45.72,1.05.72,1.81s-.25,1.4-.74,1.83c-.49.43-1.18.64-2.06.64-.31,0-.62-.03-.94-.07-.32-.05-.64-.12-.98-.23v-.99c.29.16.59.28.91.36.31.08.64.11.99.11.56,0,1.01-.14,1.34-.44.32-.3.49-.7.49-1.21s-.17-.9-.49-1.2c-.33-.3-.78-.45-1.34-.45-.26,0-.53.03-.79.09-.26.06-.53.15-.8.27v-3.66Z"/>
  <polygon class="cls-6" points="7.66 212.5 7.66 203.26 8.9 203.26 8.9 207.15 18.59 207.15 18.59 208.63 8.9 208.63 8.9 212.5 7.66 212.5"/>
  <path class="cls-6" d="M10.19,201.27c0-1.17.39-2.09,1.14-2.76.76-.66,1.82-1,3.16-1s2.4.34,3.15,1c.76.67,1.14,1.59,1.14,2.76s-.38,2.11-1.14,2.77c-.75.66-1.8.99-3.15.99s-2.4-.33-3.16-.99c-.75-.66-1.14-1.59-1.14-2.77ZM11.33,201.27c0,.72.28,1.29.85,1.71.57.42,1.34.63,2.31.63s1.76-.19,2.32-.61c.57-.42.84-.99.84-1.72s-.27-1.29-.84-1.71c-.57-.42-1.33-.63-2.32-.63s-1.74.21-2.31.63c-.57.42-.85.99-.85,1.71Z"/>
  <path class="cls-6" d="M8.06,193.93h2.33v-2.78h1.05v2.78h4.46c.68,0,1.11-.09,1.29-.27.19-.18.28-.56.28-1.12v-1.38h1.12v1.38c0,1.05-.19,1.77-.58,2.16-.39.39-1.1.58-2.12.58h-4.46v.99h-1.05v-.99h-2.33v-1.35Z"/>
  <path class="cls-6" d="M13.91,182.97h4.68v1.35h-1.25c.51.32.87.71,1.1,1.15s.34,1.02.34,1.68c0,.84-.23,1.51-.69,2.01-.46.49-1.09.74-1.89.74-.91,0-1.6-.3-2.09-.93-.47-.62-.7-1.53-.7-2.76v-1.89h-.14c-.61,0-1.1.21-1.44.61-.33.4-.51.98-.51,1.71,0,.48.06.93.18,1.38.12.45.28.87.49,1.27h-1.24c-.18-.48-.33-.96-.42-1.43s-.15-.91-.15-1.36c0-1.19.32-2.07.93-2.66.61-.58,1.55-.88,2.79-.88ZM14.47,185.65c0,1.1.14,1.85.38,2.26.26.42.68.63,1.27.63.48,0,.87-.15,1.14-.46.28-.32.42-.75.42-1.29,0-.75-.25-1.35-.79-1.8-.53-.45-1.23-.67-2.12-.67h-.3v1.33Z"/>
  <rect class="cls-6" x="7.19" y="178.84" width="11.4" height="1.35"/>
  <path class="cls-6" d="M14.5,170.44c.99,0,1.77-.19,2.34-.6.57-.4.84-.96.84-1.68s-.27-1.27-.84-1.7c-.57-.4-1.35-.61-2.34-.61s-1.76.21-2.32.61c-.57.42-.85.98-.85,1.7s.28,1.27.85,1.68c.57.41,1.34.6,2.32.6ZM11.63,165.85h-4.44v-1.35h11.4v1.35h-1.23c.49.29.85.65,1.08,1.08s.34.94.34,1.54c0,.99-.39,1.8-1.17,2.43-.78.63-1.83.93-3.12.93s-2.32-.3-3.12-.93c-.78-.63-1.19-1.44-1.19-2.43,0-.6.12-1.11.36-1.54.24-.43.6-.79,1.08-1.08Z"/>
  <path class="cls-6" d="M13.76,156.06c-.74.01-1.32.23-1.77.62-.43.4-.66.94-.66,1.6,0,.75.23,1.35.65,1.8s1.02.72,1.78.78v-4.8ZM14.15,154.71h.66v6.2c.93-.06,1.65-.33,2.13-.84.48-.5.72-1.18.72-2.09,0-.51-.06-1.02-.18-1.5-.12-.48-.31-.97-.58-1.46h1.27c.21.48.38.98.47,1.49.09.51.15,1.04.15,1.54,0,1.32-.38,2.36-1.12,3.12s-1.78,1.14-3.09,1.14-2.4-.36-3.19-1.08c-.78-.72-1.19-1.71-1.19-2.94,0-1.11.36-1.98,1.06-2.62.72-.63,1.68-.96,2.9-.96Z"/>
  <rect class="cls-6" x="7.19" y="151.15" width="11.4" height="1.35"/>
  <path class="cls-6" d="M13.91,141.91h4.68v1.35h-1.25c.51.32.87.71,1.1,1.15s.34,1.02.34,1.68c0,.84-.23,1.51-.69,2.01-.46.49-1.09.74-1.89.74-.91,0-1.6-.3-2.09-.93-.47-.62-.7-1.53-.7-2.76v-1.89h-.14c-.61,0-1.1.21-1.44.61-.33.4-.51.98-.51,1.71,0,.48.06.93.18,1.38.12.45.28.87.49,1.27h-1.24c-.18-.48-.33-.96-.42-1.43s-.15-.91-.15-1.36c0-1.19.32-2.07.93-2.66.61-.58,1.55-.88,2.79-.88ZM14.47,144.6c0,1.1.14,1.85.38,2.26.26.42.68.63,1.27.63.48,0,.87-.15,1.14-.46.28-.32.42-.75.42-1.29,0-.75-.25-1.35-.79-1.8-.53-.45-1.23-.67-2.12-.67h-.3v1.33Z"/>
  <path class="cls-6" d="M19.34,135.72c.96.39,1.6.76,1.91,1.12.3.36.45.84.45,1.44v1.08h-1.12v-.79c0-.36-.09-.65-.27-.86-.18-.21-.58-.43-1.24-.69l-.6-.24-8.07,3.32v-1.43l6.42-2.57-6.42-2.57v-1.43l8.95,3.6Z"/>
  <path class="cls-6" d="M7.21,122.25c1.14.66,2.25,1.14,3.35,1.45,1.1.33,2.2.48,3.33.48s2.25-.15,3.35-.48c1.11-.31,2.2-.79,3.33-1.45v1.17c-1.16.74-2.26,1.29-3.38,1.65s-2.2.54-3.3.54-2.18-.18-3.29-.54c-1.11-.36-2.23-.9-3.39-1.65v-1.17Z"/>
  <path class="cls-6" d="M10.63,114.4h1.27c-.18.39-.33.78-.43,1.18-.09.42-.15.84-.15,1.28,0,.68.1,1.18.31,1.51s.51.49.91.49c.32,0,.56-.12.73-.36.18-.24.36-.72.51-1.44l.11-.46c.21-.96.51-1.63.87-2.04.38-.39.9-.6,1.56-.6.76,0,1.36.3,1.8.9.45.6.66,1.44.66,2.49,0,.45-.05.9-.12,1.38-.08.48-.2.97-.38,1.5h-1.4c.27-.49.47-.99.58-1.47.14-.48.19-.96.19-1.44,0-.63-.1-1.12-.31-1.47-.21-.33-.53-.51-.93-.51-.36,0-.65.13-.84.38-.19.24-.39.78-.57,1.62l-.11.46c-.18.84-.45,1.46-.81,1.82-.36.38-.85.56-1.5.56-.76,0-1.36-.27-1.78-.81-.42-.54-.63-1.32-.63-2.34,0-.49.05-.96.12-1.41.08-.43.18-.84.32-1.21Z"/>
  <path class="cls-6" d="M13.76,106.15c-.74.01-1.32.23-1.77.62-.43.4-.66.94-.66,1.6,0,.75.23,1.35.65,1.8s1.02.72,1.78.78v-4.8ZM14.15,104.8h.66v6.2c.93-.06,1.65-.33,2.13-.84.48-.5.72-1.18.72-2.09,0-.51-.06-1.02-.18-1.5-.12-.48-.31-.97-.58-1.46h1.27c.21.48.38.98.47,1.49.09.51.15,1.04.15,1.54,0,1.32-.38,2.36-1.12,3.12s-1.78,1.14-3.09,1.14-2.4-.36-3.19-1.08c-.78-.72-1.19-1.71-1.19-2.94,0-1.11.36-1.98,1.06-2.62.72-.63,1.68-.96,2.9-.96Z"/>
  <path class="cls-6" d="M10.7,96.69h1.26c-.21.39-.36.77-.47,1.16s-.16.76-.16,1.15c0,.87.28,1.56.84,2.04s1.34.72,2.32.72,1.79-.24,2.34-.72c.56-.48.83-1.17.83-2.04,0-.39-.05-.76-.15-1.15s-.27-.76-.48-1.16h1.24c.18.39.32.78.39,1.17.07.4.12.84.12,1.29,0,1.23-.38,2.22-1.15,2.94-.77.74-1.82,1.1-3.14,1.1s-2.39-.36-3.15-1.1c-.76-.74-1.15-1.74-1.15-3.03,0-.42.05-.82.14-1.21s.21-.78.38-1.16Z"/>
  <path class="cls-6" d="M7.21,94.56v-1.17c1.15-.72,2.28-1.28,3.39-1.64,1.11-.36,2.2-.55,3.29-.55s2.19.19,3.3.55,2.22.92,3.38,1.64v1.17c-1.12-.65-2.22-1.12-3.33-1.46-1.09-.32-2.2-.48-3.35-.48s-2.23.16-3.33.48c-1.1.33-2.21.81-3.35,1.46Z"/>
  <polygon class="cls-6" points="55.73 9.69 53.5 11.93 55.73 14.16 55.15 14.75 52.91 12.51 50.67 14.75 50.09 14.16 52.32 11.93 50.09 9.69 50.67 9.1 52.91 11.34 55.15 9.1 55.73 9.69"/>
  <polygon class="cls-6" points="58.33 14.23 59.94 14.23 59.94 8.67 58.19 9.02 58.19 8.12 59.93 7.77 60.92 7.77 60.92 14.23 62.53 14.23 62.53 15.06 58.33 15.06 58.33 14.23"/>
  <path class="cls-6" d="M66.64,7.64c.81,0,1.43.33,1.87.97.43.65.65,1.59.65,2.81s-.22,2.17-.65,2.81c-.44.64-1.06.96-1.88.96s-1.44-.32-1.87-.96c-.43-.64-.64-1.58-.64-2.81s.21-2.16.64-2.81c.43-.64,1.06-.97,1.88-.97ZM66.64,8.42c-.51,0-.89.25-1.15.75-.26.5-.38,1.25-.38,2.25s.12,1.75.38,2.25c.26.5.64.75,1.15.75s.89-.25,1.15-.75c.25-.5.38-1.25.38-2.25s-.13-1.75-.38-2.25c-.26-.5-.64-.75-1.15-.75Z"/>
  <path class="cls-6" d="M70.67,6.13h2.71v.58h-2.08v1.25c.1-.03.2-.06.3-.08.1-.01.2-.03.3-.03.57,0,1.01.16,1.35.47.34.32.5.73.5,1.27s-.18.98-.52,1.28c-.34.3-.83.45-1.44.45-.22,0-.43-.02-.66-.05-.22-.04-.45-.08-.69-.16v-.69c.2.11.41.2.64.25.22.06.45.08.69.08.39,0,.71-.1.94-.31.22-.21.34-.49.34-.85s-.12-.63-.34-.84c-.23-.21-.55-.32-.94-.32-.18,0-.37.02-.55.06-.18.04-.37.11-.56.19v-2.56Z"/>
  <g class="cls-3">
    <polyline class="cls-24" points="389.6 269.74 291.94 272.14 192.16 267.51 157 264.69 134.16 247.15 88.94 148.49 84.32 130.09 71.63 63.83 64.95 40.86"/>
    <g class="cls-41">
      <polygon class="cls-28" points="389.6 267.24 387.1 272.24 392.1 272.24 389.6 267.24"/>
    </g>
    <g class="cls-14">
      <polygon class="cls-28" points="291.94 269.64 289.44 274.64 294.44 274.64 291.94 269.64"/>
    </g>
    <g class="cls-60">
      <polygon class="cls-28" points="192.16 265.01 189.66 270.01 194.66 270.01 192.16 265.01"/>
    </g>
    <g class="cls-18">
      <polygon class="cls-28" points="157 262.19 154.5 267.19 159.5 267.19 157 262.19"/>
    </g>
    <g class="cls-4">
      <polygon class="cls-28" points="134.16 244.65 131.66 249.65 136.66 249.65 134.16 244.65"/>
    </g>
    <g class="cls-61">
      <polygon class="cls-28" points="88.94 145.99 86.44 150.99 91.44 150.99 88.94 145.99"/>
    </g>
    <g class="cls-59">
      <polygon class="cls-28" points="84.32 127.59 81.82 132.59 86.82 132.59 84.32 127.59"/>
    </g>
    <g class="cls-51">
      <polygon class="cls-28" points="71.63 61.33 69.13 66.33 74.13 66.33 71.63 61.33"/>
    </g>
    <g class="cls-2">
      <polygon class="cls-28" points="64.95 38.36 62.45 43.36 67.45 43.36 64.95 38.36"/>
    </g>
  </g>
  <g class="cls-33">
    <polyline class="cls-30" points="379.76 230.31 371.27 232.87 273.63 265.91 223.38 264.21 164.33 231.7 129.82 180.41 84.83 97.78 73.52 71.37 69.69 56.78"/>
    <g class="cls-44">
      <rect class="cls-27" x="377.26" y="227.81" width="5" height="5"/>
    </g>
    <g class="cls-65">
      <rect class="cls-27" x="368.77" y="230.37" width="5" height="5"/>
    </g>
    <g class="cls-42">
      <rect class="cls-27" x="271.13" y="263.41" width="5" height="5"/>
    </g>
    <g class="cls-17">
      <rect class="cls-27" x="220.88" y="261.71" width="5" height="5"/>
    </g>
    <g class="cls-21">
      <rect class="cls-27" x="161.83" y="229.2" width="5" height="5"/>
    </g>
    <g class="cls-39">
      <rect class="cls-27" x="127.32" y="177.91" width="5" height="5"/>
    </g>
    <g class="cls-69">
      <rect class="cls-27" x="82.33" y="95.28" width="5" height="5"/>
    </g>
    <g class="cls-58">
      <rect class="cls-27" x="71.02" y="68.87" width="5" height="5"/>
    </g>
    <g class="cls-43">
      <rect class="cls-27" x="67.19" y="54.28" width="5" height="5"/>
    </g>
  </g>
  <g class="cls-52">
    <polyline class="cls-22" points="185.3 118.79 165.22 118.86 144.32 117.95 123.58 116.83 106.49 109.97 91.64 99.66 87.14 89.06 84.42 84.22"/>
    <g class="cls-12">
      <polygon class="cls-28" points="185.3 116.29 182.8 121.29 187.8 121.29 185.3 116.29"/>
    </g>
    <g class="cls-5">
      <polygon class="cls-28" points="165.22 116.36 162.72 121.36 167.72 121.36 165.22 116.36"/>
    </g>
    <g class="cls-34">
      <polygon class="cls-28" points="144.32 115.45 141.82 120.45 146.82 120.45 144.32 115.45"/>
    </g>
    <g class="cls-70">
      <polygon class="cls-28" points="123.58 114.33 121.08 119.33 126.08 119.33 123.58 114.33"/>
    </g>
    <g class="cls-38">
      <polygon class="cls-28" points="106.49 107.47 103.99 112.47 108.99 112.47 106.49 107.47"/>
    </g>
    <g class="cls-15">
      <polygon class="cls-28" points="91.64 97.16 89.14 102.16 94.14 102.16 91.64 97.16"/>
    </g>
    <g class="cls-37">
      <polygon class="cls-28" points="87.14 86.56 84.64 91.56 89.64 91.56 87.14 86.56"/>
    </g>
    <g class="cls-50">
      <polygon class="cls-28" points="84.42 81.72 81.92 86.72 86.92 86.72 84.42 81.72"/>
    </g>
  </g>
  <g class="cls-20">
    <polyline class="cls-25" points="175.41 129.37 175.41 129.37 136.08 126.26 110.93 127 92.36 117.77 86.27 108.78 82.67 101.6 80.14 92.2 79.25 88.12 75.9 76.45 72.96 60.99 70.62 49.99 68.19 40.15 65.63 30.22"/>
    <g class="cls-11">
      <rect class="cls-27" x="172.91" y="126.87" width="5" height="5"/>
    </g>
    <g class="cls-63">
      <rect class="cls-27" x="172.91" y="126.87" width="5" height="5"/>
    </g>
    <g class="cls-55">
      <rect class="cls-27" x="172.91" y="126.87" width="5" height="5"/>
    </g>
    <g class="cls-40">
      <rect class="cls-27" x="133.58" y="123.76" width="5" height="5"/>
    </g>
    <g class="cls-1">
      <rect class="cls-27" x="108.43" y="124.5" width="5" height="5"/>
    </g>
    <g class="cls-16">
      <rect class="cls-27" x="89.86" y="115.27" width="5" height="5"/>
    </g>
    <g class="cls-10">
      <rect class="cls-27" x="83.77" y="106.28" width="5" height="5"/>
    </g>
    <g class="cls-49">
      <rect class="cls-27" x="80.17" y="99.1" width="5" height="5"/>
    </g>
    <g class="cls-67">
      <rect class="cls-27" x="77.64" y="89.7" width="5" height="5"/>
    </g>
    <g class="cls-48">
      <rect class="cls-27" x="76.75" y="85.62" width="5" height="5"/>
    </g>
    <g class="cls-68">
      <rect class="cls-27" x="73.4" y="73.95" width="5" height="5"/>
    </g>
    <g class="cls-46">
      <rect class="cls-27" x="70.46" y="58.49" width="5" height="5"/>
    </g>
    <g class="cls-66">
      <rect class="cls-27" x="68.12" y="47.49" width="5" height="5"/>
    </g>
    <g class="cls-53">
      <rect class="cls-27" x="65.69" y="37.65" width="5" height="5"/>
    </g>
    <g class="cls-57">
      <rect class="cls-27" x="63.13" y="27.72" width="5" height="5"/>
    </g>
  </g>
  <line class="cls-26" x1="48.72" y1="284.23" x2="48.72" y2="18.12"/>
  <line class="cls-26" x1="405.84" y1="284.23" x2="405.84" y2="18.12"/>
  <line class="cls-26" x1="48.72" y1="284.23" x2="405.84" y2="284.23"/>
  <line class="cls-26" x1="48.72" y1="18.12" x2="405.84" y2="18.12"/>
  <g>
    <rect class="cls-8" x="214.78" y="25.12" width="184.06" height="86.39" rx="2.8" ry="2.8"/>
    <rect class="cls-23" x="214.78" y="25.12" width="184.06" height="86.39" rx="2.8" ry="2.8"/>
  </g>
  <polyline class="cls-24" points="220.38 36.46 234.38 36.46 248.38 36.46"/>
  <polygon class="cls-28" points="234.38 33.96 231.88 38.96 236.88 38.96 234.38 33.96"/>
  <polygon class="cls-6" points="260.95 31.16 263.01 31.16 265.61 38.1 268.23 31.16 270.29 31.16 270.29 41.36 268.95 41.36 268.95 32.4 266.31 39.4 264.93 39.4 262.3 32.4 262.3 41.36 260.95 41.36 260.95 31.16"/>
  <polygon class="cls-6" points="275.67 41.36 271.77 31.16 273.22 31.16 276.45 39.75 279.68 31.16 281.13 31.16 277.23 41.36 275.67 41.36"/>
  <rect class="cls-6" x="282.61" y="31.16" width="1.39" height="10.21"/>
  <path class="cls-6" d="M286.74,31.16h3.12c1.13,0,2,.27,2.59.78.59.52.88,1.27.88,2.27s-.29,1.78-.88,2.28c-.59.52-1.46.77-2.59.77h-1.74v4.1h-1.39v-10.21ZM288.13,32.29v3.84h1.74c.64,0,1.13-.15,1.48-.49s.53-.81.53-1.43-.18-1.08-.53-1.41-.84-.5-1.48-.5h-1.74Z"/>
  <polyline class="cls-30" points="220.38 57.01 234.38 57.01 248.38 57.01"/>
  <rect class="cls-27" x="231.88" y="54.51" width="5" height="5"/>
  <path class="cls-6" d="M260.95,51.7h3.12c1.13,0,2,.27,2.59.78.59.52.88,1.27.88,2.27s-.29,1.78-.88,2.28c-.59.52-1.46.77-2.59.77h-1.74v4.1h-1.39v-10.21ZM262.34,52.84v3.84h1.74c.64,0,1.13-.15,1.48-.49s.53-.81.53-1.43-.18-1.08-.53-1.41-.84-.5-1.48-.5h-1.74Z"/>
  <path class="cls-6" d="M271.13,51.7h1.57l3.89,10.21h-1.44l-.92-2.62h-4.61l-.92,2.62h-1.46l3.89-10.21ZM271.92,53.06l-1.88,5.08h3.75l-1.88-5.08Z"/>
  <rect class="cls-6" x="277.1" y="57.51" width="3.68" height="1.12"/>
  <polygon class="cls-6" points="282.84 51.7 284.22 51.7 284.22 60.75 289.19 60.75 289.19 61.91 282.84 61.91 282.84 51.7"/>
  <polygon class="cls-6" points="290.63 51.7 296.5 51.7 296.5 52.87 292.02 52.87 292.02 55.88 296.07 55.88 296.07 57.04 292.02 57.04 292.02 61.91 290.63 61.91 290.63 51.7"/>
  <path class="cls-6" d="M298.53,51.7h1.39v6.2c0,1.09.2,1.89.59,2.37.39.48,1.04.71,1.93.71s1.53-.24,1.92-.71.6-1.27.6-2.37v-6.2h1.39v6.37c0,1.34-.34,2.34-.99,3.01-.66.67-1.62,1.01-2.91,1.01s-2.27-.34-2.93-1.01-.98-1.67-.98-3.01v-6.37Z"/>
  <polyline class="cls-22" points="220.38 77.56 234.38 77.56 248.38 77.56"/>
  <polygon class="cls-28" points="234.38 75.06 231.88 80.06 236.88 80.06 234.38 75.06"/>
  <path class="cls-6" d="M260.95,72.25h3.12c1.13,0,2,.27,2.59.78.59.52.88,1.27.88,2.27s-.29,1.78-.88,2.28c-.59.52-1.46.77-2.59.77h-1.74v4.1h-1.39v-10.21ZM262.34,73.38v3.84h1.74c.64,0,1.13-.15,1.48-.49s.53-.81.53-1.43-.18-1.08-.53-1.41c-.35-.34-.84-.5-1.48-.5h-1.74Z"/>
  <path class="cls-6" d="M271.13,72.25h1.57l3.89,10.21h-1.44l-.92-2.62h-4.61l-.92,2.62h-1.46l3.89-10.21ZM271.92,73.61l-1.88,5.08h3.75l-1.88-5.08Z"/>
  <rect class="cls-6" x="277.1" y="78.06" width="3.68" height="1.12"/>
  <polygon class="cls-6" points="284.66 82.46 280.76 72.25 282.21 72.25 285.44 80.85 288.67 72.25 290.12 72.25 286.22 82.46 284.66 82.46"/>
  <rect class="cls-6" x="291.6" y="72.25" width="1.39" height="10.21"/>
  <path class="cls-6" d="M295.73,72.25h3.12c1.13,0,2,.27,2.59.78.59.52.88,1.27.88,2.27s-.29,1.78-.88,2.28c-.59.52-1.46.77-2.59.77h-1.74v4.1h-1.39v-10.21ZM297.12,73.38v3.84h1.74c.64,0,1.13-.15,1.48-.49s.53-.81.53-1.43-.18-1.08-.53-1.41c-.35-.34-.84-.5-1.48-.5h-1.74Z"/>
  <path class="cls-6" d="M311.59,71.83c-.62,1.06-1.06,2.1-1.36,3.12-.31,1.02-.45,2.06-.45,3.11s.14,2.1.45,3.12c.29,1.04.74,2.06,1.36,3.11h-1.09c-.69-1.08-1.2-2.11-1.54-3.15-.34-1.04-.5-2.06-.5-3.08s.17-2.03.5-3.07c.34-1.04.84-2.09,1.54-3.16h1.09Z"/>
  <path class="cls-6" d="M318.91,75.02v1.19c-.36-.17-.73-.31-1.11-.41-.39-.08-.78-.14-1.19-.14-.63,0-1.11.1-1.41.29-.31.2-.46.48-.46.85,0,.29.11.52.34.69s.67.34,1.34.48l.43.1c.9.2,1.53.48,1.9.81.36.35.56.84.56,1.46,0,.71-.28,1.27-.84,1.68-.56.42-1.34.62-2.32.62-.42,0-.84-.04-1.29-.11-.45-.07-.91-.18-1.4-.35v-1.3c.46.25.92.43,1.37.55.45.13.9.18,1.34.18.59,0,1.05-.1,1.37-.29.31-.2.48-.49.48-.87,0-.34-.13-.6-.35-.78-.22-.18-.73-.36-1.51-.53l-.43-.1c-.78-.17-1.36-.42-1.69-.76-.35-.34-.52-.8-.52-1.4,0-.71.25-1.27.76-1.67s1.23-.59,2.18-.59c.46,0,.9.04,1.32.11.41.07.78.17,1.13.29Z"/>
  <path class="cls-6" d="M321.32,71.82h1.26v1.6h-1.26v-1.6ZM321.32,74.8h1.26v7.66h-1.26v-7.66Z"/>
  <path class="cls-6" d="M331.58,77.84v4.62h-1.26v-4.58c0-.73-.15-1.26-.43-1.62s-.7-.55-1.26-.55c-.69,0-1.22.22-1.61.66-.39.43-.59,1.02-.59,1.76v4.33h-1.26v-7.66h1.26v1.19c.29-.45.64-.8,1.06-1.02.41-.22.88-.35,1.41-.35.87,0,1.54.28,1.99.83.45.55.69,1.34.69,2.39Z"/>
  <path class="cls-6" d="M340.39,81.5c0,1.29-.29,2.25-.87,2.9-.59.63-1.47.95-2.66.95-.45,0-.85-.04-1.25-.1-.39-.07-.78-.17-1.15-.31v-1.22c.36.2.73.34,1.09.43.36.1.73.15,1.11.15.81,0,1.43-.22,1.85-.64.41-.43.62-1.08.62-1.95v-.62c-.27.45-.6.78-1.01,1.01s-.88.34-1.44.34c-.95,0-1.71-.35-2.28-1.06-.57-.71-.85-1.67-.85-2.86s.28-2.13.85-2.84c.57-.71,1.33-1.08,2.28-1.08.56,0,1.04.11,1.44.34s.74.56,1.01,1.01v-1.16h1.26v6.71ZM339.13,78.54c0-.9-.2-1.61-.56-2.11-.38-.5-.91-.76-1.58-.76s-1.2.25-1.58.76c-.38.5-.56,1.22-.56,2.11s.18,1.61.56,2.11c.38.5.91.76,1.58.76s1.2-.25,1.58-.76c.36-.5.56-1.2.56-2.11Z"/>
  <rect class="cls-6" x="342.98" y="71.82" width="1.26" height="10.64"/>
  <path class="cls-6" d="M352.16,77.95c-.01-.69-.21-1.23-.57-1.65-.38-.41-.88-.62-1.5-.62-.7,0-1.26.21-1.68.6-.42.39-.67.95-.73,1.67h4.48ZM353.42,78.31v.62h-5.78c.06.87.31,1.54.78,1.99.46.45,1.11.67,1.95.67.48,0,.95-.06,1.4-.17s.91-.29,1.36-.55v1.19c-.45.2-.91.35-1.39.43-.48.08-.97.14-1.44.14-1.23,0-2.2-.35-2.91-1.05-.71-.7-1.06-1.67-1.06-2.88s.34-2.24,1.01-2.98c.67-.73,1.6-1.11,2.74-1.11,1.04,0,1.85.34,2.45.99.59.67.9,1.57.9,2.7Z"/>
  <rect class="cls-6" x="354.85" y="78.06" width="3.68" height="1.12"/>
  <path class="cls-6" d="M361.78,72.63v2.17h2.59v.98h-2.59v4.16c0,.63.08,1.04.25,1.2.17.18.52.27,1.05.27h1.29v1.05h-1.29c-.98,0-1.65-.18-2.02-.55-.36-.36-.55-1.02-.55-1.97v-4.16h-.92v-.98h.92v-2.17h1.26Z"/>
  <path class="cls-6" d="M366.02,71.82h1.26v1.6h-1.26v-1.6ZM366.02,74.8h1.26v7.66h-1.26v-7.66Z"/>
  <path class="cls-6" d="M375.21,77.95c-.01-.69-.21-1.23-.57-1.65-.38-.41-.88-.62-1.5-.62-.7,0-1.26.21-1.68.6-.42.39-.67.95-.73,1.67h4.48ZM376.47,78.31v.62h-5.78c.06.87.31,1.54.78,1.99.46.45,1.11.67,1.95.67.48,0,.95-.06,1.4-.17s.91-.29,1.36-.55v1.19c-.45.2-.91.35-1.39.43-.48.08-.97.14-1.44.14-1.23,0-2.2-.35-2.91-1.05-.71-.7-1.06-1.67-1.06-2.88s.34-2.24,1.01-2.98c.67-.73,1.6-1.11,2.74-1.11,1.04,0,1.85.34,2.45.99.59.67.9,1.57.9,2.7Z"/>
  <path class="cls-6" d="M382.96,75.97c-.14-.08-.29-.14-.46-.18-.17-.03-.35-.06-.55-.06-.71,0-1.26.24-1.64.7-.39.46-.57,1.12-.57,1.99v4.03h-1.26v-7.66h1.26v1.19c.25-.46.6-.81,1.02-1.04s.94-.34,1.55-.34c.08,0,.18.01.29.01.1.01.21.03.35.06v1.29Z"/>
  <path class="cls-6" d="M384.08,71.83h1.09c.67,1.08,1.19,2.13,1.53,3.16.34,1.04.52,2.06.52,3.07s-.18,2.04-.52,3.08c-.34,1.04-.85,2.07-1.53,3.15h-1.09c.6-1.05,1.05-2.07,1.36-3.11.29-1.02.45-2.06.45-3.12s-.15-2.09-.45-3.11c-.31-1.02-.76-2.06-1.36-3.12Z"/>
  <polyline class="cls-25" points="220.38 98.1 234.38 98.1 248.38 98.1"/>
  <rect class="cls-27" x="231.88" y="95.6" width="5" height="5"/>
  <path class="cls-6" d="M260.95,92.8h3.12c1.13,0,2,.27,2.59.78.59.52.88,1.27.88,2.27s-.29,1.78-.88,2.28c-.59.52-1.46.77-2.59.77h-1.74v4.1h-1.39v-10.21ZM262.34,93.93v3.84h1.74c.64,0,1.13-.15,1.48-.49s.53-.81.53-1.43-.18-1.08-.53-1.41c-.35-.34-.84-.5-1.48-.5h-1.74Z"/>
  <path class="cls-6" d="M271.13,92.8h1.57l3.89,10.21h-1.44l-.92-2.62h-4.61l-.92,2.62h-1.46l3.89-10.21ZM271.92,94.16l-1.88,5.08h3.75l-1.88-5.08Z"/>
  <rect class="cls-6" x="277.1" y="98.61" width="3.68" height="1.12"/>
  <polygon class="cls-6" points="282.84 92.8 284.22 92.8 284.22 101.84 289.19 101.84 289.19 103 282.84 103 282.84 92.8"/>
  <polygon class="cls-6" points="290.63 92.8 296.5 92.8 296.5 93.96 292.02 93.96 292.02 96.97 296.07 96.97 296.07 98.13 292.02 98.13 292.02 103 290.63 103 290.63 92.8"/>
  <path class="cls-6" d="M298.53,92.8h1.39v6.2c0,1.09.2,1.89.59,2.37.39.48,1.04.71,1.93.71s1.53-.24,1.92-.71.6-1.27.6-2.37v-6.2h1.39v6.37c0,1.34-.34,2.34-.99,3.01-.66.67-1.62,1.01-2.91,1.01s-2.27-.34-2.93-1.01-.98-1.67-.98-3.01v-6.37Z"/>
  <path class="cls-6" d="M316.35,92.38c-.62,1.06-1.06,2.1-1.36,3.12-.31,1.02-.45,2.06-.45,3.11s.14,2.1.45,3.12c.29,1.04.74,2.06,1.36,3.11h-1.09c-.69-1.08-1.2-2.11-1.54-3.15-.34-1.04-.5-2.06-.5-3.08s.17-2.03.5-3.07c.34-1.04.84-2.09,1.54-3.16h1.09Z"/>
  <path class="cls-6" d="M323.67,95.57v1.19c-.36-.17-.73-.31-1.11-.41-.39-.08-.78-.14-1.19-.14-.63,0-1.11.1-1.41.29-.31.2-.46.48-.46.85,0,.29.11.52.34.69s.67.34,1.34.48l.43.1c.9.2,1.53.48,1.9.81.36.35.56.84.56,1.46,0,.71-.28,1.27-.84,1.68-.56.42-1.34.62-2.32.62-.42,0-.84-.04-1.29-.11-.45-.07-.91-.18-1.4-.35v-1.3c.46.25.92.43,1.37.55.45.13.9.18,1.34.18.59,0,1.05-.1,1.37-.29.31-.2.48-.49.48-.87,0-.34-.13-.6-.35-.78-.22-.18-.73-.36-1.51-.53l-.43-.1c-.78-.17-1.36-.42-1.69-.76-.35-.34-.52-.8-.52-1.4,0-.71.25-1.27.76-1.67s1.23-.59,2.18-.59c.46,0,.9.04,1.32.11.41.07.78.17,1.13.29Z"/>
  <path class="cls-6" d="M326.08,92.36h1.26v1.6h-1.26v-1.6ZM326.08,95.35h1.26v7.66h-1.26v-7.66Z"/>
  <path class="cls-6" d="M336.34,98.38v4.62h-1.26v-4.58c0-.73-.15-1.26-.43-1.62s-.7-.55-1.26-.55c-.69,0-1.22.22-1.61.66-.39.43-.59,1.02-.59,1.76v4.33h-1.26v-7.66h1.26v1.19c.29-.45.64-.8,1.06-1.02.41-.22.88-.35,1.41-.35.87,0,1.54.28,1.99.83.45.55.69,1.34.69,2.39Z"/>
  <path class="cls-6" d="M345.15,102.05c0,1.29-.29,2.25-.87,2.9-.59.63-1.47.95-2.66.95-.45,0-.85-.04-1.25-.1-.39-.07-.78-.17-1.15-.31v-1.22c.36.2.73.34,1.09.43.36.1.73.15,1.11.15.81,0,1.43-.22,1.85-.64.41-.43.62-1.08.62-1.95v-.62c-.27.45-.6.78-1.01,1.01s-.88.34-1.44.34c-.95,0-1.71-.35-2.28-1.06-.57-.71-.85-1.67-.85-2.86s.28-2.13.85-2.84c.57-.71,1.33-1.08,2.28-1.08.56,0,1.04.11,1.44.34s.74.56,1.01,1.01v-1.16h1.26v6.71ZM343.89,99.08c0-.9-.2-1.61-.56-2.11-.38-.5-.91-.76-1.58-.76s-1.2.25-1.58.76c-.38.5-.56,1.22-.56,2.11s.18,1.61.56,2.11c.38.5.91.76,1.58.76s1.2-.25,1.58-.76c.36-.5.56-1.2.56-2.11Z"/>
  <rect class="cls-6" x="347.74" y="92.36" width="1.26" height="10.64"/>
  <path class="cls-6" d="M356.92,98.5c-.01-.69-.21-1.23-.57-1.65-.38-.41-.88-.62-1.5-.62-.7,0-1.26.21-1.68.6-.42.39-.67.95-.73,1.67h4.48ZM358.18,98.86v.62h-5.78c.06.87.31,1.54.78,1.99.46.45,1.11.67,1.95.67.48,0,.95-.06,1.4-.17s.91-.29,1.36-.55v1.19c-.45.2-.91.35-1.39.43-.48.08-.97.14-1.44.14-1.23,0-2.2-.35-2.91-1.05-.71-.7-1.06-1.67-1.06-2.88s.34-2.24,1.01-2.98c.67-.73,1.6-1.11,2.74-1.11,1.04,0,1.85.34,2.45.99.59.67.9,1.57.9,2.7Z"/>
  <rect class="cls-6" x="359.61" y="98.61" width="3.68" height="1.12"/>
  <path class="cls-6" d="M366.54,93.18v2.17h2.59v.98h-2.59v4.16c0,.63.08,1.04.25,1.2.17.18.52.27,1.05.27h1.29v1.05h-1.29c-.98,0-1.65-.18-2.02-.55-.36-.36-.55-1.02-.55-1.97v-4.16h-.92v-.98h.92v-2.17h1.26Z"/>
  <path class="cls-6" d="M370.78,92.36h1.26v1.6h-1.26v-1.6ZM370.78,95.35h1.26v7.66h-1.26v-7.66Z"/>
  <path class="cls-6" d="M379.97,98.5c-.01-.69-.21-1.23-.57-1.65-.38-.41-.88-.62-1.5-.62-.7,0-1.26.21-1.68.6-.42.39-.67.95-.73,1.67h4.48ZM381.23,98.86v.62h-5.78c.06.87.31,1.54.78,1.99.46.45,1.11.67,1.95.67.48,0,.95-.06,1.4-.17s.91-.29,1.36-.55v1.19c-.45.2-.91.35-1.39.43-.48.08-.97.14-1.44.14-1.23,0-2.2-.35-2.91-1.05-.71-.7-1.06-1.67-1.06-2.88s.34-2.24,1.01-2.98c.67-.73,1.6-1.11,2.74-1.11,1.04,0,1.85.34,2.45.99.59.67.9,1.57.9,2.7Z"/>
  <path class="cls-6" d="M387.72,96.52c-.14-.08-.29-.14-.46-.18-.17-.03-.35-.06-.55-.06-.71,0-1.26.24-1.64.7-.39.46-.57,1.12-.57,1.99v4.03h-1.26v-7.66h1.26v1.19c.25-.46.6-.81,1.02-1.04s.94-.34,1.55-.34c.08,0,.18.01.29.01.1.01.21.03.35.06v1.29Z"/>
  <path class="cls-6" d="M388.84,92.38h1.09c.67,1.08,1.19,2.13,1.53,3.16.34,1.04.52,2.06.52,3.07s-.18,2.04-.52,3.08c-.34,1.04-.85,2.07-1.53,3.15h-1.09c.6-1.05,1.05-2.07,1.36-3.11.29-1.02.45-2.06.45-3.12s-.15-2.09-.45-3.11c-.31-1.02-.76-2.06-1.36-3.12Z"/>
</svg>