<?xml version="1.0" encoding="UTF-8"?>
<svg id="Layer_1" data-name="Layer 1" xmlns="http://www.w3.org/2000/svg" version="1.1" xmlns:xlink="http://www.w3.org/1999/xlink" viewBox="0 0 428.1 337.71">
  <defs>
    <style>
      .cls-1 {
        clip-path: url(#clippath-73);
      }

      .cls-2 {
        clip-path: url(#clippath-72);
      }

      .cls-3 {
        clip-path: url(#clippath-62);
      }

      .cls-4 {
        clip-path: url(#clippath-45);
      }

      .cls-5 {
        clip-path: url(#clippath-63);
      }

      .cls-6 {
        clip-path: url(#clippath-20);
      }

      .cls-7 {
        clip-path: url(#clippath-11);
      }

      .cls-8 {
        clip-path: url(#clippath-16);
      }

      .cls-9, .cls-10, .cls-11, .cls-12, .cls-13, .cls-14, .cls-15, .cls-16, .cls-17, .cls-18, .cls-19, .cls-20, .cls-21, .cls-22, .cls-23, .cls-24, .cls-25, .cls-26, .cls-27, .cls-28 {
        fill: none;
      }

      .cls-9, .cls-17, .cls-21, .cls-23, .cls-24 {
        stroke-miterlimit: 10;
      }

      .cls-9, .cls-22, .cls-27 {
        stroke: #bf00bf;
      }

      .cls-29 {
        clip-path: url(#clippath-59);
      }

      .cls-30 {
        clip-path: url(#clippath-78);
      }

      .cls-31 {
        clip-path: url(#clippath-93);
      }

      .cls-32 {
        clip-path: url(#clippath-89);
      }

      .cls-33 {
        clip-path: url(#clippath-33);
      }

      .cls-34 {
        fill: #000;
      }

      .cls-34, .cls-12, .cls-35, .cls-36 {
        stroke-width: 0px;
      }

      .cls-37 {
        clip-path: url(#clippath-64);
      }

      .cls-38 {
        clip-path: url(#clippath-47);
      }

      .cls-39 {
        clip-path: url(#clippath-94);
      }

      .cls-40 {
        clip-path: url(#clippath-77);
      }

      .cls-10, .cls-11, .cls-13, .cls-14, .cls-15, .cls-16, .cls-18, .cls-19, .cls-20, .cls-22, .cls-25, .cls-26, .cls-27, .cls-28 {
        stroke-linejoin: round;
      }

      .cls-10, .cls-11, .cls-20 {
        stroke: #bfbf00;
      }

      .cls-41 {
        clip-path: url(#clippath-41);
      }

      .cls-42 {
        clip-path: url(#clippath-32);
      }

      .cls-43 {
        clip-path: url(#clippath-108);
      }

      .cls-44 {
        clip-path: url(#clippath-112);
      }

      .cls-45 {
        clip-path: url(#clippath-87);
      }

      .cls-46 {
        clip-path: url(#clippath-83);
      }

      .cls-47 {
        clip-path: url(#clippath-114);
      }

      .cls-11, .cls-13, .cls-14, .cls-16, .cls-18, .cls-19, .cls-20, .cls-22, .cls-26, .cls-27 {
        stroke-width: 1.5px;
      }

      .cls-11, .cls-13, .cls-16, .cls-19, .cls-27 {
        stroke-dasharray: 0 0 5.55 2.4;
      }

      .cls-48 {
        clip-path: url(#clippath-105);
      }

      .cls-49 {
        clip-path: url(#clippath-2);
      }

      .cls-50 {
        clip-path: url(#clippath-13);
      }

      .cls-51 {
        clip-path: url(#clippath-88);
      }

      .cls-52 {
        clip-path: url(#clippath-37);
      }

      .cls-53 {
        clip-path: url(#clippath-46);
      }

      .cls-54 {
        clip-path: url(#clippath-25);
      }

      .cls-55 {
        clip-path: url(#clippath-98);
      }

      .cls-56 {
        clip-path: url(#clippath-107);
      }

      .cls-57 {
        clip-path: url(#clippath-15);
      }

      .cls-58 {
        clip-path: url(#clippath-6);
      }

      .cls-59 {
        clip-path: url(#clippath-104);
      }

      .cls-60 {
        clip-path: url(#clippath-76);
      }

      .cls-61 {
        clip-path: url(#clippath-40);
      }

      .cls-62 {
        clip-path: url(#clippath-26);
      }

      .cls-63 {
        clip-path: url(#clippath-81);
      }

      .cls-64 {
        clip-path: url(#clippath-111);
      }

      .cls-65 {
        clip-path: url(#clippath-75);
      }

      .cls-66 {
        clip-path: url(#clippath-7);
      }

      .cls-67 {
        clip-path: url(#clippath-21);
      }

      .cls-13, .cls-18, .cls-24 {
        stroke: red;
      }

      .cls-68 {
        clip-path: url(#clippath-34);
      }

      .cls-69 {
        clip-path: url(#clippath-57);
      }

      .cls-70 {
        clip-path: url(#clippath-102);
      }

      .cls-71 {
        clip-path: url(#clippath-1);
      }

      .cls-72 {
        clip-path: url(#clippath-4);
      }

      .cls-73 {
        clip-path: url(#clippath-38);
      }

      .cls-14, .cls-15, .cls-16 {
        stroke: green;
      }

      .cls-14, .cls-18, .cls-20, .cls-21, .cls-22, .cls-26 {
        stroke-linecap: square;
      }

      .cls-74 {
        clip-path: url(#clippath-36);
      }

      .cls-75 {
        clip-path: url(#clippath-27);
      }

      .cls-76 {
        clip-path: url(#clippath-109);
      }

      .cls-77 {
        clip-path: url(#clippath-101);
      }

      .cls-78 {
        clip-path: url(#clippath-60);
      }

      .cls-35, .cls-17 {
        opacity: .8;
      }

      .cls-35, .cls-36 {
        fill: #fff;
      }

      .cls-79 {
        clip-path: url(#clippath-44);
      }

      .cls-80 {
        clip-path: url(#clippath-12);
      }

      .cls-81 {
        clip-path: url(#clippath-113);
      }

      .cls-82 {
        clip-path: url(#clippath-95);
      }

      .cls-83 {
        clip-path: url(#clippath-80);
      }

      .cls-17 {
        stroke: #ccc;
      }

      .cls-84 {
        clip-path: url(#clippath-24);
      }

      .cls-85 {
        clip-path: url(#clippath-99);
      }

      .cls-86 {
        clip-path: url(#clippath-30);
      }

      .cls-19, .cls-23, .cls-26 {
        stroke: blue;
      }

      .cls-87 {
        clip-path: url(#clippath-79);
      }

      .cls-88 {
        clip-path: url(#clippath-22);
      }

      .cls-89 {
        clip-path: url(#clippath-96);
      }

      .cls-90 {
        clip-path: url(#clippath-103);
      }

      .cls-91 {
        clip-path: url(#clippath-9);
      }

      .cls-92 {
        clip-path: url(#clippath-82);
      }

      .cls-93 {
        clip-path: url(#clippath-52);
      }

      .cls-94 {
        clip-path: url(#clippath);
      }

      .cls-95 {
        clip-path: url(#clippath-50);
      }

      .cls-96 {
        clip-path: url(#clippath-48);
      }

      .cls-97 {
        clip-path: url(#clippath-61);
      }

      .cls-98 {
        clip-path: url(#clippath-39);
      }

      .cls-99 {
        clip-path: url(#clippath-19);
      }

      .cls-100 {
        clip-path: url(#clippath-31);
      }

      .cls-101 {
        clip-path: url(#clippath-86);
      }

      .cls-102 {
        clip-path: url(#clippath-54);
      }

      .cls-103 {
        clip-path: url(#clippath-3);
      }

      .cls-104 {
        clip-path: url(#clippath-91);
      }

      .cls-21, .cls-25, .cls-28 {
        stroke-width: .8px;
      }

      .cls-21, .cls-28 {
        stroke: #000;
      }

      .cls-105 {
        clip-path: url(#clippath-43);
      }

      .cls-106 {
        clip-path: url(#clippath-70);
      }

      .cls-107 {
        clip-path: url(#clippath-8);
      }

      .cls-108 {
        clip-path: url(#clippath-55);
      }

      .cls-109 {
        clip-path: url(#clippath-69);
      }

      .cls-110 {
        clip-path: url(#clippath-29);
      }

      .cls-111 {
        clip-path: url(#clippath-18);
      }

      .cls-112 {
        clip-path: url(#clippath-90);
      }

      .cls-113 {
        clip-path: url(#clippath-14);
      }

      .cls-114 {
        clip-path: url(#clippath-17);
      }

      .cls-115 {
        clip-path: url(#clippath-97);
      }

      .cls-116 {
        clip-path: url(#clippath-5);
      }

      .cls-117 {
        clip-path: url(#clippath-58);
      }

      .cls-118 {
        clip-path: url(#clippath-84);
      }

      .cls-25 {
        opacity: .5;
        stroke: #b0b0b0;
        stroke-dasharray: 0 0 2.96 1.28;
      }

      .cls-119 {
        clip-path: url(#clippath-42);
      }

      .cls-120 {
        clip-path: url(#clippath-65);
      }

      .cls-121 {
        clip-path: url(#clippath-10);
      }

      .cls-122 {
        clip-path: url(#clippath-23);
      }

      .cls-123 {
        clip-path: url(#clippath-100);
      }

      .cls-124 {
        clip-path: url(#clippath-92);
      }

      .cls-125 {
        clip-path: url(#clippath-74);
      }

      .cls-126 {
        clip-path: url(#clippath-56);
      }

      .cls-127 {
        clip-path: url(#clippath-53);
      }

      .cls-128 {
        clip-path: url(#clippath-49);
      }

      .cls-129 {
        clip-path: url(#clippath-110);
      }

      .cls-130 {
        clip-path: url(#clippath-67);
      }

      .cls-131 {
        clip-path: url(#clippath-51);
      }

      .cls-132 {
        clip-path: url(#clippath-28);
      }

      .cls-133 {
        clip-path: url(#clippath-71);
      }

      .cls-134 {
        clip-path: url(#clippath-85);
      }

      .cls-135 {
        clip-path: url(#clippath-106);
      }

      .cls-136 {
        clip-path: url(#clippath-68);
      }

      .cls-137 {
        clip-path: url(#clippath-35);
      }

      .cls-138 {
        clip-path: url(#clippath-66);
      }
    </style>
    <clipPath id="clippath">
      <rect class="cls-12" x="48.72" y="18.12" width="372.19" height="277.2"/>
    </clipPath>
    <clipPath id="clippath-1">
      <rect class="cls-12" x="48.72" y="18.12" width="372.19" height="277.2"/>
    </clipPath>
    <clipPath id="clippath-2">
      <rect class="cls-12" x="48.72" y="18.12" width="372.19" height="277.2"/>
    </clipPath>
    <clipPath id="clippath-3">
      <rect class="cls-12" x="48.72" y="18.12" width="372.19" height="277.2"/>
    </clipPath>
    <clipPath id="clippath-4">
      <rect class="cls-12" x="48.72" y="18.12" width="372.19" height="277.2"/>
    </clipPath>
    <clipPath id="clippath-5">
      <rect class="cls-12" x="48.72" y="18.12" width="372.19" height="277.2"/>
    </clipPath>
    <clipPath id="clippath-6">
      <rect class="cls-12" x="48.72" y="18.12" width="372.19" height="277.2"/>
    </clipPath>
    <clipPath id="clippath-7">
      <rect class="cls-12" x="48.72" y="18.12" width="372.19" height="277.2"/>
    </clipPath>
    <clipPath id="clippath-8">
      <rect class="cls-12" x="48.72" y="18.12" width="372.19" height="277.2"/>
    </clipPath>
    <clipPath id="clippath-9">
      <rect class="cls-12" x="48.72" y="18.12" width="372.19" height="277.2"/>
    </clipPath>
    <clipPath id="clippath-10">
      <rect class="cls-12" x="48.72" y="18.12" width="372.19" height="277.2"/>
    </clipPath>
    <clipPath id="clippath-11">
      <rect class="cls-12" x="48.72" y="18.12" width="372.19" height="277.2"/>
    </clipPath>
    <clipPath id="clippath-12">
      <rect class="cls-12" x="48.72" y="18.12" width="372.19" height="277.2"/>
    </clipPath>
    <clipPath id="clippath-13">
      <rect class="cls-12" x="48.72" y="18.12" width="372.19" height="277.2"/>
    </clipPath>
    <clipPath id="clippath-14">
      <rect class="cls-12" x="48.72" y="18.12" width="372.19" height="277.2"/>
    </clipPath>
    <clipPath id="clippath-15">
      <rect class="cls-12" x="48.72" y="18.12" width="372.19" height="277.2"/>
    </clipPath>
    <clipPath id="clippath-16">
      <rect class="cls-12" x="57.63" y="274.72" width="16" height="16"/>
    </clipPath>
    <clipPath id="clippath-17">
      <rect class="cls-12" x="99.93" y="268.55" width="16" height="16"/>
    </clipPath>
    <clipPath id="clippath-18">
      <rect class="cls-12" x="142.22" y="259.32" width="16" height="16"/>
    </clipPath>
    <clipPath id="clippath-19">
      <rect class="cls-12" x="184.51" y="250.1" width="16" height="16"/>
    </clipPath>
    <clipPath id="clippath-20">
      <rect class="cls-12" x="226.81" y="236.92" width="16" height="16"/>
    </clipPath>
    <clipPath id="clippath-21">
      <rect class="cls-12" x="269.1" y="224.84" width="16" height="16"/>
    </clipPath>
    <clipPath id="clippath-22">
      <rect class="cls-12" x="311.4" y="208.45" width="16" height="16"/>
    </clipPath>
    <clipPath id="clippath-23">
      <rect class="cls-12" x="353.69" y="193.08" width="16" height="16"/>
    </clipPath>
    <clipPath id="clippath-24">
      <rect class="cls-12" x="395.98" y="169.27" width="16" height="16"/>
    </clipPath>
    <clipPath id="clippath-25">
      <rect class="cls-12" x="48.72" y="18.12" width="372.19" height="277.2"/>
    </clipPath>
    <clipPath id="clippath-26">
      <rect class="cls-12" x="57.63" y="258.65" width="16" height="16"/>
    </clipPath>
    <clipPath id="clippath-27">
      <rect class="cls-12" x="99.93" y="245.51" width="16" height="16"/>
    </clipPath>
    <clipPath id="clippath-28">
      <rect class="cls-12" x="142.22" y="229.66" width="16" height="16"/>
    </clipPath>
    <clipPath id="clippath-29">
      <rect class="cls-12" x="184.51" y="211.36" width="16" height="16"/>
    </clipPath>
    <clipPath id="clippath-30">
      <rect class="cls-12" x="226.81" y="189.72" width="16" height="16"/>
    </clipPath>
    <clipPath id="clippath-31">
      <rect class="cls-12" x="269.1" y="166.79" width="16" height="16"/>
    </clipPath>
    <clipPath id="clippath-32">
      <rect class="cls-12" x="311.4" y="140.16" width="16" height="16"/>
    </clipPath>
    <clipPath id="clippath-33">
      <rect class="cls-12" x="353.69" y="113.4" width="16" height="16"/>
    </clipPath>
    <clipPath id="clippath-34">
      <rect class="cls-12" x="395.98" y="77.28" width="16" height="16"/>
    </clipPath>
    <clipPath id="clippath-35">
      <rect class="cls-12" x="48.72" y="18.12" width="372.19" height="277.2"/>
    </clipPath>
    <clipPath id="clippath-36">
      <rect class="cls-12" x="58.09" y="252.62" width="15.09" height="18.49"/>
    </clipPath>
    <clipPath id="clippath-37">
      <rect class="cls-12" x="100.38" y="239.32" width="15.09" height="18.49"/>
    </clipPath>
    <clipPath id="clippath-38">
      <rect class="cls-12" x="142.68" y="222.65" width="15.09" height="18.49"/>
    </clipPath>
    <clipPath id="clippath-39">
      <rect class="cls-12" x="184.97" y="203.45" width="15.09" height="18.49"/>
    </clipPath>
    <clipPath id="clippath-40">
      <rect class="cls-12" x="227.26" y="181.99" width="15.09" height="18.49"/>
    </clipPath>
    <clipPath id="clippath-41">
      <rect class="cls-12" x="269.56" y="158.33" width="15.09" height="18.49"/>
    </clipPath>
    <clipPath id="clippath-42">
      <rect class="cls-12" x="311.85" y="130.57" width="15.09" height="18.49"/>
    </clipPath>
    <clipPath id="clippath-43">
      <rect class="cls-12" x="354.14" y="102.82" width="15.09" height="18.49"/>
    </clipPath>
    <clipPath id="clippath-44">
      <rect class="cls-12" x="396.44" y="63.15" width="15.09" height="18.49"/>
    </clipPath>
    <clipPath id="clippath-45">
      <rect class="cls-12" x="48.72" y="18.12" width="372.19" height="277.2"/>
    </clipPath>
    <clipPath id="clippath-46">
      <rect class="cls-12" x="57.63" y="272.1" width="16" height="16"/>
    </clipPath>
    <clipPath id="clippath-47">
      <rect class="cls-12" x="99.93" y="264.89" width="16" height="16"/>
    </clipPath>
    <clipPath id="clippath-48">
      <rect class="cls-12" x="142.22" y="254.98" width="16" height="16"/>
    </clipPath>
    <clipPath id="clippath-49">
      <rect class="cls-12" x="184.51" y="243.66" width="16" height="16"/>
    </clipPath>
    <clipPath id="clippath-50">
      <rect class="cls-12" x="226.81" y="228.98" width="16" height="16"/>
    </clipPath>
    <clipPath id="clippath-51">
      <rect class="cls-12" x="269.1" y="213.33" width="16" height="16"/>
    </clipPath>
    <clipPath id="clippath-52">
      <rect class="cls-12" x="311.4" y="194.55" width="16" height="16"/>
    </clipPath>
    <clipPath id="clippath-53">
      <rect class="cls-12" x="353.69" y="176.6" width="16" height="16"/>
    </clipPath>
    <clipPath id="clippath-54">
      <rect class="cls-12" x="395.98" y="150.25" width="16" height="16"/>
    </clipPath>
    <clipPath id="clippath-55">
      <rect class="cls-12" x="48.72" y="18.12" width="372.19" height="277.2"/>
    </clipPath>
    <clipPath id="clippath-56">
      <rect class="cls-12" x="57.63" y="258.8" width="16" height="16"/>
    </clipPath>
    <clipPath id="clippath-57">
      <rect class="cls-12" x="99.93" y="246.87" width="16" height="16"/>
    </clipPath>
    <clipPath id="clippath-58">
      <rect class="cls-12" x="142.22" y="230.39" width="16" height="16"/>
    </clipPath>
    <clipPath id="clippath-59">
      <rect class="cls-12" x="184.51" y="212.33" width="16" height="16"/>
    </clipPath>
    <clipPath id="clippath-60">
      <rect class="cls-12" x="226.81" y="190.07" width="16" height="16"/>
    </clipPath>
    <clipPath id="clippath-61">
      <rect class="cls-12" x="269.1" y="166.91" width="16" height="16"/>
    </clipPath>
    <clipPath id="clippath-62">
      <rect class="cls-12" x="311.4" y="140.95" width="16" height="16"/>
    </clipPath>
    <clipPath id="clippath-63">
      <rect class="cls-12" x="353.69" y="112.66" width="16" height="16"/>
    </clipPath>
    <clipPath id="clippath-64">
      <rect class="cls-12" x="395.98" y="76.69" width="16" height="16"/>
    </clipPath>
    <clipPath id="clippath-65">
      <rect class="cls-12" x="48.72" y="18.12" width="372.19" height="277.2"/>
    </clipPath>
    <clipPath id="clippath-66">
      <rect class="cls-12" x="57.63" y="267.31" width="16" height="16"/>
    </clipPath>
    <clipPath id="clippath-67">
      <rect class="cls-12" x="99.93" y="256.39" width="16" height="16"/>
    </clipPath>
    <clipPath id="clippath-68">
      <rect class="cls-12" x="142.22" y="241.58" width="16" height="16"/>
    </clipPath>
    <clipPath id="clippath-69">
      <rect class="cls-12" x="184.51" y="225.46" width="16" height="16"/>
    </clipPath>
    <clipPath id="clippath-70">
      <rect class="cls-12" x="226.81" y="204.88" width="16" height="16"/>
    </clipPath>
    <clipPath id="clippath-71">
      <rect class="cls-12" x="269.1" y="184.15" width="16" height="16"/>
    </clipPath>
    <clipPath id="clippath-72">
      <rect class="cls-12" x="311.4" y="157.82" width="16" height="16"/>
    </clipPath>
    <clipPath id="clippath-73">
      <rect class="cls-12" x="353.69" y="132.05" width="16" height="16"/>
    </clipPath>
    <clipPath id="clippath-74">
      <rect class="cls-12" x="395.98" y="95.86" width="16" height="16"/>
    </clipPath>
    <clipPath id="clippath-75">
      <rect class="cls-12" x="48.72" y="18.12" width="372.19" height="277.2"/>
    </clipPath>
    <clipPath id="clippath-76">
      <rect class="cls-12" x="57.63" y="267.98" width="16" height="16"/>
    </clipPath>
    <clipPath id="clippath-77">
      <rect class="cls-12" x="99.93" y="258.09" width="16" height="16"/>
    </clipPath>
    <clipPath id="clippath-78">
      <rect class="cls-12" x="142.22" y="243.11" width="16" height="16"/>
    </clipPath>
    <clipPath id="clippath-79">
      <rect class="cls-12" x="184.51" y="227.69" width="16" height="16"/>
    </clipPath>
    <clipPath id="clippath-80">
      <rect class="cls-12" x="226.81" y="207.64" width="16" height="16"/>
    </clipPath>
    <clipPath id="clippath-81">
      <rect class="cls-12" x="269.1" y="185.81" width="16" height="16"/>
    </clipPath>
    <clipPath id="clippath-82">
      <rect class="cls-12" x="311.4" y="159.59" width="16" height="16"/>
    </clipPath>
    <clipPath id="clippath-83">
      <rect class="cls-12" x="353.69" y="133.09" width="16" height="16"/>
    </clipPath>
    <clipPath id="clippath-84">
      <rect class="cls-12" x="395.98" y="98.61" width="16" height="16"/>
    </clipPath>
    <clipPath id="clippath-85">
      <rect class="cls-12" x="48.72" y="18.12" width="372.19" height="277.2"/>
    </clipPath>
    <clipPath id="clippath-86">
      <rect class="cls-12" x="57.63" y="263.1" width="16" height="16"/>
    </clipPath>
    <clipPath id="clippath-87">
      <rect class="cls-12" x="99.93" y="250.54" width="16" height="16"/>
    </clipPath>
    <clipPath id="clippath-88">
      <rect class="cls-12" x="142.22" y="232.12" width="16" height="16"/>
    </clipPath>
    <clipPath id="clippath-89">
      <rect class="cls-12" x="184.51" y="213.74" width="16" height="16"/>
    </clipPath>
    <clipPath id="clippath-90">
      <rect class="cls-12" x="226.81" y="190.07" width="16" height="16"/>
    </clipPath>
    <clipPath id="clippath-91">
      <rect class="cls-12" x="269.1" y="165.51" width="16" height="16"/>
    </clipPath>
    <clipPath id="clippath-92">
      <rect class="cls-12" x="311.4" y="136.53" width="16" height="16"/>
    </clipPath>
    <clipPath id="clippath-93">
      <rect class="cls-12" x="353.69" y="105.65" width="16" height="16"/>
    </clipPath>
    <clipPath id="clippath-94">
      <rect class="cls-12" x="395.98" y="66.17" width="16" height="16"/>
    </clipPath>
    <clipPath id="clippath-95">
      <rect class="cls-12" x="48.72" y="18.12" width="372.19" height="277.2"/>
    </clipPath>
    <clipPath id="clippath-96">
      <rect class="cls-12" x="57.63" y="260.48" width="16" height="16"/>
    </clipPath>
    <clipPath id="clippath-97">
      <rect class="cls-12" x="99.93" y="245.38" width="16" height="16"/>
    </clipPath>
    <clipPath id="clippath-98">
      <rect class="cls-12" x="142.22" y="224.33" width="16" height="16"/>
    </clipPath>
    <clipPath id="clippath-99">
      <rect class="cls-12" x="184.51" y="201.83" width="16" height="16"/>
    </clipPath>
    <clipPath id="clippath-100">
      <rect class="cls-12" x="226.81" y="173.4" width="16" height="16"/>
    </clipPath>
    <clipPath id="clippath-101">
      <rect class="cls-12" x="269.1" y="143.13" width="16" height="16"/>
    </clipPath>
    <clipPath id="clippath-102">
      <rect class="cls-12" x="311.4" y="107.91" width="16" height="16"/>
    </clipPath>
    <clipPath id="clippath-103">
      <rect class="cls-12" x="353.69" y="71.1" width="16" height="16"/>
    </clipPath>
    <clipPath id="clippath-104">
      <rect class="cls-12" x="395.98" y="23.05" width="16" height="16"/>
    </clipPath>
    <clipPath id="clippath-105">
      <rect class="cls-12" x="48.72" y="18.12" width="372.19" height="277.2"/>
    </clipPath>
    <clipPath id="clippath-106">
      <rect class="cls-12" x="58.09" y="259.21" width="15.09" height="18.49"/>
    </clipPath>
    <clipPath id="clippath-107">
      <rect class="cls-12" x="100.38" y="244.07" width="15.09" height="18.49"/>
    </clipPath>
    <clipPath id="clippath-108">
      <rect class="cls-12" x="142.68" y="223.12" width="15.09" height="18.49"/>
    </clipPath>
    <clipPath id="clippath-109">
      <rect class="cls-12" x="184.97" y="200.9" width="15.09" height="18.49"/>
    </clipPath>
    <clipPath id="clippath-110">
      <rect class="cls-12" x="227.26" y="172.25" width="15.09" height="18.49"/>
    </clipPath>
    <clipPath id="clippath-111">
      <rect class="cls-12" x="269.56" y="141.64" width="15.09" height="18.49"/>
    </clipPath>
    <clipPath id="clippath-112">
      <rect class="cls-12" x="311.85" y="106.51" width="15.09" height="18.49"/>
    </clipPath>
    <clipPath id="clippath-113">
      <rect class="cls-12" x="354.14" y="69.1" width="15.09" height="18.49"/>
    </clipPath>
    <clipPath id="clippath-114">
      <rect class="cls-12" x="396.44" y="21.48" width="15.09" height="18.49"/>
    </clipPath>
  </defs>
  <rect class="cls-36" width="428.1" height="337.71"/>
  <rect class="cls-36" x="48.72" y="18.12" width="372.19" height="277.2"/>
  <g class="cls-94">
    <line class="cls-25" x1="65.63" y1="295.32" x2="65.63" y2="18.12"/>
  </g>
  <line class="cls-34" x1="65.63" y1="295.32" x2="65.63" y2="298.82"/>
  <line class="cls-28" x1="65.63" y1="295.32" x2="65.63" y2="298.82"/>
  <polygon class="cls-34" points="55.74 309.09 57.35 309.09 57.35 303.53 55.6 303.88 55.6 302.98 57.34 302.63 58.33 302.63 58.33 309.09 59.94 309.09 59.94 309.92 55.74 309.92 55.74 309.09"/>
  <path class="cls-34" d="M64.04,302.5c.81,0,1.43.33,1.87.97.43.65.65,1.59.65,2.81s-.22,2.17-.65,2.81c-.44.64-1.06.96-1.88.96s-1.44-.32-1.87-.96-.64-1.58-.64-2.81.21-2.16.64-2.81c.43-.64,1.06-.97,1.88-.97ZM64.04,303.28c-.51,0-.89.25-1.15.75-.26.5-.38,1.25-.38,2.25s.12,1.75.38,2.25c.26.5.64.75,1.15.75s.89-.25,1.15-.75c.25-.5.38-1.25.38-2.25s-.13-1.75-.38-2.25c-.26-.5-.64-.75-1.15-.75Z"/>
  <rect class="cls-34" x="68.29" y="308.68" width="1.03" height="1.24"/>
  <path class="cls-34" d="M73.58,302.5c.81,0,1.43.33,1.87.97.43.65.65,1.59.65,2.81s-.22,2.17-.65,2.81c-.44.64-1.06.96-1.88.96s-1.44-.32-1.87-.96-.64-1.58-.64-2.81.21-2.16.64-2.81c.43-.64,1.06-.97,1.88-.97ZM73.58,303.28c-.51,0-.89.25-1.15.75s-.38,1.25-.38,2.25.12,1.75.38,2.25.64.75,1.15.75.89-.25,1.15-.75c.25-.5.38-1.25.38-2.25s-.13-1.75-.38-2.25c-.26-.5-.64-.75-1.15-.75Z"/>
  <g class="cls-71">
    <line class="cls-25" x1="107.93" y1="295.32" x2="107.93" y2="18.12"/>
  </g>
  <line class="cls-34" x1="107.93" y1="295.32" x2="107.93" y2="298.82"/>
  <line class="cls-28" x1="107.93" y1="295.32" x2="107.93" y2="298.82"/>
  <polygon class="cls-34" points="98.03 309.09 99.64 309.09 99.64 303.53 97.89 303.88 97.89 302.98 99.63 302.63 100.62 302.63 100.62 309.09 102.23 309.09 102.23 309.92 98.03 309.92 98.03 309.09"/>
  <path class="cls-34" d="M105.07,309.09h3.44v.83h-4.63v-.83c.37-.38.88-.9,1.53-1.56.64-.65,1.05-1.07,1.22-1.26.32-.35.54-.65.66-.9.12-.24.19-.49.19-.73,0-.38-.14-.7-.41-.94-.27-.24-.62-.37-1.06-.37-.31,0-.64.06-.98.16-.34.11-.71.27-1.1.49v-1c.4-.16.77-.28,1.11-.36.34-.08.66-.12.95-.12.75,0,1.35.19,1.8.57.45.38.68.88.68,1.51,0,.3-.06.59-.17.85-.11.27-.31.59-.61.95-.08.1-.34.37-.78.82-.44.45-1.05,1.08-1.84,1.89Z"/>
  <rect class="cls-34" x="110.58" y="308.68" width="1.03" height="1.24"/>
  <path class="cls-34" d="M113.77,302.63h3.87v.83h-2.97v1.79c.14-.05.29-.09.43-.11.14-.02.29-.04.43-.04.81,0,1.45.23,1.93.67.48.45.72,1.05.72,1.81s-.25,1.4-.74,1.83-1.18.64-2.06.64c-.31,0-.62-.03-.94-.07-.32-.05-.64-.12-.98-.23v-.99c.29.16.59.28.91.36.31.08.64.11.99.11.56,0,1.01-.14,1.34-.44.32-.3.49-.7.49-1.21s-.17-.9-.49-1.2c-.33-.3-.78-.45-1.34-.45-.26,0-.53.03-.79.09-.26.06-.53.15-.8.27v-3.66Z"/>
  <g class="cls-49">
    <line class="cls-25" x1="150.22" y1="295.32" x2="150.22" y2="18.12"/>
  </g>
  <line class="cls-34" x1="150.22" y1="295.32" x2="150.22" y2="298.82"/>
  <line class="cls-28" x1="150.22" y1="295.32" x2="150.22" y2="298.82"/>
  <polygon class="cls-34" points="140.33 309.09 141.94 309.09 141.94 303.53 140.19 303.88 140.19 302.98 141.93 302.63 142.92 302.63 142.92 309.09 144.53 309.09 144.53 309.92 140.33 309.92 140.33 309.09"/>
  <path class="cls-34" d="M146.53,302.63h3.87v.83h-2.97v1.79c.14-.05.29-.09.43-.11s.29-.04.43-.04c.81,0,1.45.23,1.93.67.48.45.72,1.05.72,1.81s-.25,1.4-.74,1.83-1.18.64-2.06.64c-.31,0-.62-.03-.94-.07-.32-.05-.64-.12-.98-.23v-.99c.29.16.59.28.91.36.31.08.64.11.99.11.56,0,1.01-.14,1.34-.44.32-.3.49-.7.49-1.21s-.17-.9-.49-1.2c-.33-.3-.78-.45-1.34-.45-.26,0-.53.03-.79.09-.26.06-.53.15-.8.27v-3.66Z"/>
  <rect class="cls-34" x="152.88" y="308.68" width="1.03" height="1.24"/>
  <path class="cls-34" d="M158.17,302.5c.81,0,1.43.33,1.87.97.43.65.65,1.59.65,2.81s-.22,2.17-.65,2.81c-.44.64-1.06.96-1.88.96s-1.44-.32-1.87-.96c-.43-.64-.64-1.58-.64-2.81s.21-2.16.64-2.81c.43-.64,1.06-.97,1.88-.97ZM158.17,303.28c-.51,0-.89.25-1.15.75s-.38,1.25-.38,2.25.12,1.75.38,2.25.64.75,1.15.75.89-.25,1.15-.75c.25-.5.38-1.25.38-2.25s-.13-1.75-.38-2.25c-.26-.5-.64-.75-1.15-.75Z"/>
  <g class="cls-103">
    <line class="cls-25" x1="192.51" y1="295.32" x2="192.51" y2="18.12"/>
  </g>
  <line class="cls-34" x1="192.51" y1="295.32" x2="192.51" y2="298.82"/>
  <line class="cls-28" x1="192.51" y1="295.32" x2="192.51" y2="298.82"/>
  <polygon class="cls-34" points="182.62 309.09 184.23 309.09 184.23 303.53 182.48 303.88 182.48 302.98 184.22 302.63 185.21 302.63 185.21 309.09 186.82 309.09 186.82 309.92 182.62 309.92 182.62 309.09"/>
  <polygon class="cls-34" points="188.56 302.63 193.25 302.63 193.25 303.05 190.6 309.92 189.57 309.92 192.06 303.46 188.56 303.46 188.56 302.63"/>
  <rect class="cls-34" x="195.17" y="308.68" width="1.03" height="1.24"/>
  <path class="cls-34" d="M198.36,302.63h3.87v.83h-2.97v1.79c.14-.05.29-.09.43-.11s.29-.04.43-.04c.81,0,1.45.23,1.93.67.48.45.72,1.05.72,1.81s-.25,1.4-.74,1.83-1.18.64-2.06.64c-.31,0-.62-.03-.94-.07-.32-.05-.64-.12-.98-.23v-.99c.29.16.59.28.91.36.31.08.64.11.99.11.56,0,1.01-.14,1.34-.44.32-.3.49-.7.49-1.21s-.17-.9-.49-1.2c-.33-.3-.78-.45-1.34-.45-.26,0-.53.03-.79.09-.26.06-.53.15-.8.27v-3.66Z"/>
  <g class="cls-72">
    <line class="cls-25" x1="234.81" y1="295.32" x2="234.81" y2="18.12"/>
  </g>
  <line class="cls-34" x1="234.81" y1="295.32" x2="234.81" y2="298.82"/>
  <line class="cls-28" x1="234.81" y1="295.32" x2="234.81" y2="298.82"/>
  <path class="cls-34" d="M225.6,309.09h3.44v.83h-4.63v-.83c.37-.38.88-.9,1.53-1.56.64-.65,1.05-1.07,1.22-1.26.32-.35.54-.65.66-.9.12-.24.19-.49.19-.73,0-.38-.14-.7-.41-.94-.27-.24-.62-.37-1.06-.37-.31,0-.64.06-.98.16-.34.11-.71.27-1.1.49v-1c.4-.16.77-.28,1.11-.36.34-.08.66-.12.95-.12.75,0,1.35.19,1.8.57.45.38.68.88.68,1.51,0,.3-.06.59-.17.85-.11.27-.31.59-.61.95-.08.1-.34.37-.78.82-.44.45-1.05,1.08-1.84,1.89Z"/>
  <path class="cls-34" d="M233.22,302.5c.81,0,1.43.33,1.87.97.43.65.65,1.59.65,2.81s-.22,2.17-.65,2.81c-.44.64-1.06.96-1.88.96s-1.44-.32-1.87-.96c-.43-.64-.64-1.58-.64-2.81s.21-2.16.64-2.81c.43-.64,1.06-.97,1.88-.97ZM233.22,303.28c-.51,0-.89.25-1.15.75s-.38,1.25-.38,2.25.12,1.75.38,2.25.64.75,1.15.75.89-.25,1.15-.75c.25-.5.38-1.25.38-2.25s-.13-1.75-.38-2.25c-.26-.5-.64-.75-1.15-.75Z"/>
  <rect class="cls-34" x="237.47" y="308.68" width="1.03" height="1.24"/>
  <path class="cls-34" d="M242.76,302.5c.81,0,1.43.33,1.87.97.43.65.65,1.59.65,2.81s-.22,2.17-.65,2.81c-.44.64-1.06.96-1.88.96s-1.44-.32-1.87-.96c-.43-.64-.64-1.58-.64-2.81s.21-2.16.64-2.81c.43-.64,1.06-.97,1.88-.97ZM242.76,303.28c-.51,0-.89.25-1.15.75s-.38,1.25-.38,2.25.12,1.75.38,2.25.64.75,1.15.75.89-.25,1.15-.75c.25-.5.38-1.25.38-2.25s-.13-1.75-.38-2.25c-.26-.5-.64-.75-1.15-.75Z"/>
  <g class="cls-116">
    <line class="cls-25" x1="277.1" y1="295.32" x2="277.1" y2="18.12"/>
  </g>
  <line class="cls-34" x1="277.1" y1="295.32" x2="277.1" y2="298.82"/>
  <line class="cls-28" x1="277.1" y1="295.32" x2="277.1" y2="298.82"/>
  <path class="cls-34" d="M267.89,309.09h3.44v.83h-4.63v-.83c.37-.38.88-.9,1.53-1.56.64-.65,1.05-1.07,1.22-1.26.32-.35.54-.65.66-.9.12-.24.19-.49.19-.73,0-.38-.14-.7-.41-.94-.27-.24-.62-.37-1.06-.37-.31,0-.64.06-.98.16-.34.11-.71.27-1.1.49v-1c.4-.16.77-.28,1.11-.36.34-.08.66-.12.95-.12.75,0,1.35.19,1.8.57.45.38.68.88.68,1.51,0,.3-.06.59-.17.85-.11.27-.31.59-.61.95-.08.1-.34.37-.78.82-.44.45-1.05,1.08-1.84,1.89Z"/>
  <path class="cls-34" d="M274.25,309.09h3.44v.83h-4.63v-.83c.37-.38.88-.9,1.53-1.56.64-.65,1.05-1.07,1.22-1.26.32-.35.54-.65.66-.9.12-.24.19-.49.19-.73,0-.38-.14-.7-.41-.94-.27-.24-.62-.37-1.06-.37-.31,0-.64.06-.98.16-.34.11-.71.27-1.1.49v-1c.4-.16.77-.28,1.11-.36.34-.08.66-.12.95-.12.75,0,1.35.19,1.8.57.45.38.68.88.68,1.51,0,.3-.06.59-.17.85-.11.27-.31.59-.61.95-.08.1-.34.37-.78.82-.44.45-1.05,1.08-1.84,1.89Z"/>
  <rect class="cls-34" x="279.76" y="308.68" width="1.03" height="1.24"/>
  <path class="cls-34" d="M282.95,302.63h3.87v.83h-2.97v1.79c.14-.05.29-.09.43-.11.14-.02.29-.04.43-.04.81,0,1.45.23,1.93.67.48.45.72,1.05.72,1.81s-.25,1.4-.74,1.83-1.18.64-2.06.64c-.31,0-.62-.03-.94-.07-.32-.05-.64-.12-.98-.23v-.99c.29.16.59.28.91.36.31.08.64.11.99.11.56,0,1.01-.14,1.34-.44.32-.3.49-.7.49-1.21s-.17-.9-.49-1.2c-.33-.3-.78-.45-1.34-.45-.26,0-.53.03-.79.09-.26.06-.53.15-.8.27v-3.66Z"/>
  <g class="cls-58">
    <line class="cls-25" x1="319.4" y1="295.32" x2="319.4" y2="18.12"/>
  </g>
  <line class="cls-34" x1="319.4" y1="295.32" x2="319.4" y2="298.82"/>
  <line class="cls-28" x1="319.4" y1="295.32" x2="319.4" y2="298.82"/>
  <path class="cls-34" d="M310.18,309.09h3.44v.83h-4.63v-.83c.37-.38.88-.9,1.53-1.56.64-.65,1.05-1.07,1.22-1.26.32-.35.54-.65.66-.9.12-.24.19-.49.19-.73,0-.38-.14-.7-.41-.94-.27-.24-.62-.37-1.06-.37-.31,0-.64.06-.98.16-.34.11-.71.27-1.1.49v-1c.4-.16.77-.28,1.11-.36.34-.08.66-.12.95-.12.75,0,1.35.19,1.8.57.45.38.68.88.68,1.51,0,.3-.06.59-.17.85-.11.27-.31.59-.61.95-.08.1-.34.37-.78.82-.44.45-1.05,1.08-1.84,1.89Z"/>
  <path class="cls-34" d="M315.7,302.63h3.87v.83h-2.97v1.79c.14-.05.29-.09.43-.11.14-.02.29-.04.43-.04.81,0,1.45.23,1.93.67.48.45.72,1.05.72,1.81s-.25,1.4-.74,1.83-1.18.64-2.06.64c-.31,0-.62-.03-.94-.07-.32-.05-.64-.12-.98-.23v-.99c.29.16.59.28.91.36.31.08.64.11.99.11.56,0,1.01-.14,1.34-.44.32-.3.49-.7.49-1.21s-.17-.9-.49-1.2c-.33-.3-.78-.45-1.34-.45-.26,0-.53.03-.79.09-.26.06-.53.15-.8.27v-3.66Z"/>
  <rect class="cls-34" x="322.05" y="308.68" width="1.03" height="1.24"/>
  <path class="cls-34" d="M327.34,302.5c.81,0,1.43.33,1.87.97.43.65.65,1.59.65,2.81s-.22,2.17-.65,2.81c-.44.64-1.06.96-1.88.96s-1.44-.32-1.87-.96c-.43-.64-.64-1.58-.64-2.81s.21-2.16.64-2.81c.43-.64,1.06-.97,1.88-.97ZM327.34,303.28c-.51,0-.89.25-1.15.75s-.38,1.25-.38,2.25.12,1.75.38,2.25.64.75,1.15.75.89-.25,1.15-.75c.25-.5.38-1.25.38-2.25s-.13-1.75-.38-2.25c-.26-.5-.64-.75-1.15-.75Z"/>
  <g class="cls-66">
    <line class="cls-25" x1="361.69" y1="295.32" x2="361.69" y2="18.12"/>
  </g>
  <line class="cls-34" x1="361.69" y1="295.32" x2="361.69" y2="298.82"/>
  <line class="cls-28" x1="361.69" y1="295.32" x2="361.69" y2="298.82"/>
  <path class="cls-34" d="M352.48,309.09h3.44v.83h-4.63v-.83c.37-.38.88-.9,1.53-1.56.64-.65,1.05-1.07,1.22-1.26.32-.35.54-.65.66-.9.12-.24.19-.49.19-.73,0-.38-.14-.7-.41-.94-.27-.24-.62-.37-1.06-.37-.31,0-.64.06-.98.16-.34.11-.71.27-1.1.49v-1c.4-.16.77-.28,1.11-.36.34-.08.66-.12.95-.12.75,0,1.35.19,1.8.57.45.38.68.88.68,1.51,0,.3-.06.59-.17.85-.11.27-.31.59-.61.95-.08.1-.34.37-.78.82-.44.45-1.05,1.08-1.84,1.89Z"/>
  <polygon class="cls-34" points="357.74 302.63 362.43 302.63 362.43 303.05 359.78 309.92 358.75 309.92 361.24 303.46 357.74 303.46 357.74 302.63"/>
  <rect class="cls-34" x="364.35" y="308.68" width="1.03" height="1.24"/>
  <path class="cls-34" d="M367.54,302.63h3.87v.83h-2.97v1.79c.14-.05.29-.09.43-.11.14-.02.29-.04.43-.04.81,0,1.45.23,1.93.67.48.45.72,1.05.72,1.81s-.25,1.4-.74,1.83-1.18.64-2.06.64c-.31,0-.62-.03-.94-.07-.32-.05-.64-.12-.98-.23v-.99c.29.16.59.28.91.36.31.08.64.11.99.11.56,0,1.01-.14,1.34-.44.32-.3.49-.7.49-1.21s-.17-.9-.49-1.2c-.33-.3-.78-.45-1.34-.45-.26,0-.53.03-.79.09-.26.06-.53.15-.8.27v-3.66Z"/>
  <g class="cls-107">
    <line class="cls-25" x1="403.98" y1="295.32" x2="403.98" y2="18.12"/>
  </g>
  <line class="cls-34" x1="403.98" y1="295.32" x2="403.98" y2="298.82"/>
  <line class="cls-28" x1="403.98" y1="295.32" x2="403.98" y2="298.82"/>
  <path class="cls-34" d="M396.91,305.99c.47.1.84.31,1.1.63.26.32.4.72.4,1.18,0,.72-.25,1.28-.74,1.67-.5.39-1.2.58-2.11.58-.31,0-.63-.03-.95-.09-.32-.05-.66-.14-1-.26v-.95c.27.16.57.28.9.36.32.08.66.12,1.02.12.62,0,1.09-.12,1.41-.36.32-.24.49-.6.49-1.07,0-.42-.15-.76-.45-1-.3-.24-.72-.37-1.26-.37h-.85v-.81h.89c.48,0,.85-.09,1.11-.29.26-.19.39-.47.39-.84s-.14-.66-.4-.86c-.27-.2-.65-.3-1.14-.3-.27,0-.56.03-.87.09s-.65.15-1.02.27v-.88c.37-.1.72-.18,1.05-.23.32-.05.63-.08.93-.08.74,0,1.33.17,1.77.51s.66.8.66,1.38c0,.4-.12.74-.35,1.02-.23.28-.56.48-.98.58Z"/>
  <path class="cls-34" d="M402.39,302.5c.81,0,1.43.33,1.87.97.43.65.65,1.59.65,2.81s-.22,2.17-.65,2.81c-.44.64-1.06.96-1.88.96s-1.44-.32-1.87-.96c-.43-.64-.64-1.58-.64-2.81s.21-2.16.64-2.81c.43-.64,1.06-.97,1.88-.97ZM402.39,303.28c-.51,0-.89.25-1.15.75s-.38,1.25-.38,2.25.12,1.75.38,2.25.64.75,1.15.75.89-.25,1.15-.75c.25-.5.38-1.25.38-2.25s-.13-1.75-.38-2.25c-.26-.5-.64-.75-1.15-.75Z"/>
  <rect class="cls-34" x="406.64" y="308.68" width="1.03" height="1.24"/>
  <path class="cls-34" d="M411.93,302.5c.81,0,1.43.33,1.87.97.43.65.65,1.59.65,2.81s-.22,2.17-.65,2.81c-.44.64-1.06.96-1.88.96s-1.44-.32-1.87-.96c-.43-.64-.64-1.58-.64-2.81s.21-2.16.64-2.81c.43-.64,1.06-.97,1.88-.97ZM411.93,303.28c-.51,0-.89.25-1.15.75s-.38,1.25-.38,2.25.12,1.75.38,2.25.64.75,1.15.75.89-.25,1.15-.75c.25-.5.38-1.25.38-2.25s-.13-1.75-.38-2.25c-.26-.5-.64-.75-1.15-.75Z"/>
  <path class="cls-34" d="M115.59,317.66v3.89h1.86c.71,0,1.24-.17,1.6-.5s.56-.81.56-1.45-.19-1.11-.56-1.44c-.36-.33-.9-.5-1.6-.5h-1.86ZM119.3,322.25c.31.12.63.34.93.69.3.36.6.84.9,1.45l1.5,2.98h-1.59l-1.4-2.81c-.36-.72-.72-1.21-1.05-1.45-.35-.24-.81-.36-1.4-.36h-1.6v4.62h-1.49v-10.94h3.35c1.24,0,2.17.27,2.79.78.61.52.93,1.32.93,2.37,0,.69-.17,1.28-.48,1.73-.33.45-.79.77-1.39.93Z"/>
  <path class="cls-34" d="M129.47,322.55c-.01-.73-.23-1.32-.62-1.77-.4-.44-.94-.66-1.6-.66-.75,0-1.35.22-1.8.64-.45.42-.72,1.02-.78,1.78h4.8ZM130.82,322.94v.66h-6.19c.06.93.33,1.65.84,2.13.5.48,1.19.72,2.09.72.51,0,1.02-.06,1.5-.18.48-.12.97-.32,1.46-.59v1.27c-.48.21-.98.38-1.49.47-.51.09-1.04.15-1.55.15-1.32,0-2.35-.38-3.12-1.12-.76-.75-1.14-1.78-1.14-3.09s.36-2.4,1.08-3.2c.72-.78,1.71-1.18,2.94-1.18,1.11,0,1.98.36,2.62,1.07.63.72.96,1.68.96,2.9Z"/>
  <path class="cls-34" d="M138.43,326.15c-.29.5-.65.86-1.08,1.08-.43.22-.94.34-1.54.34-.99,0-1.8-.39-2.43-1.17-.63-.78-.93-1.83-.93-3.12s.3-2.32.93-3.12c.63-.78,1.44-1.18,2.43-1.18.6,0,1.11.12,1.54.36s.79.6,1.08,1.08v-1.24h1.35v11.31h-1.35v-4.34ZM133.84,323.29c0,.99.19,1.77.6,2.34.4.57.96.84,1.68.84s1.27-.27,1.7-.84c.4-.57.61-1.35.61-2.34s-.21-1.75-.61-2.32c-.42-.57-.98-.86-1.7-.86s-1.27.28-1.68.86c-.41.57-.6,1.33-.6,2.32Z"/>
  <path class="cls-34" d="M145.8,318.98h0ZM142.41,324.14v-4.96h1.35v4.92c0,.78.15,1.35.45,1.74s.75.59,1.37.59c.72,0,1.3-.23,1.72-.69.42-.46.63-1.09.63-1.9v-4.65h1.35v8.2h-1.35v-1.26c-.33.51-.72.87-1.14,1.11-.43.22-.93.34-1.5.34-.94,0-1.66-.28-2.15-.87-.49-.57-.74-1.43-.74-2.57Z"/>
  <path class="cls-34" d="M157.73,322.55c-.01-.73-.23-1.32-.62-1.77-.4-.44-.94-.66-1.6-.66-.75,0-1.35.22-1.8.64s-.72,1.02-.78,1.78h4.8ZM159.08,322.94v.66h-6.19c.06.93.33,1.65.84,2.13.5.48,1.18.72,2.09.72.51,0,1.02-.06,1.5-.18.48-.12.97-.32,1.46-.59v1.27c-.48.21-.98.38-1.49.47-.51.09-1.04.15-1.54.15-1.32,0-2.36-.38-3.12-1.12s-1.14-1.78-1.14-3.09.36-2.4,1.08-3.2c.72-.78,1.71-1.18,2.94-1.18,1.11,0,1.98.36,2.62,1.07.63.72.96,1.68.96,2.9Z"/>
  <path class="cls-34" d="M166.52,319.42v1.28c-.39-.18-.78-.33-1.18-.44-.42-.09-.84-.15-1.28-.15-.68,0-1.18.11-1.51.32s-.49.51-.49.92c0,.31.12.55.36.73.24.18.72.36,1.44.51l.46.1c.96.21,1.63.51,2.04.87.39.38.6.9.6,1.56,0,.77-.3,1.37-.9,1.8-.6.45-1.44.66-2.49.66-.45,0-.9-.05-1.38-.12s-.97-.19-1.5-.38v-1.39c.49.27.99.46,1.47.59.48.13.96.19,1.44.19.63,0,1.12-.1,1.47-.32.33-.21.51-.52.51-.93,0-.36-.13-.65-.38-.84-.24-.2-.78-.39-1.62-.57l-.46-.1c-.84-.18-1.46-.45-1.82-.81-.38-.36-.56-.86-.56-1.5,0-.77.27-1.36.81-1.79.54-.42,1.32-.63,2.34-.63.49,0,.96.05,1.41.12.43.08.84.18,1.21.31Z"/>
  <path class="cls-34" d="M170.44,316.85v2.33h2.78v1.05h-2.78v4.45c0,.67.09,1.11.27,1.29.18.19.56.28,1.12.28h1.38v1.12h-1.38c-1.05,0-1.77-.19-2.16-.59s-.58-1.1-.58-2.11v-4.45h-.99v-1.05h.99v-2.33h1.35Z"/>
  <path class="cls-34" d="M184.5,320.44c-.15-.09-.31-.15-.49-.19-.18-.03-.38-.06-.58-.06-.76,0-1.35.25-1.76.75-.42.49-.62,1.2-.62,2.13v4.32h-1.35v-8.2h1.35v1.27c.27-.49.65-.87,1.1-1.11s1.01-.36,1.67-.36c.09,0,.19.02.31.02.11.01.23.03.38.06v1.38Z"/>
  <path class="cls-34" d="M192.33,322.7v4.68h-1.35v-1.24c-.32.51-.71.87-1.15,1.1-.45.22-1.02.34-1.68.34-.84,0-1.51-.22-2.01-.69-.49-.47-.74-1.1-.74-1.89,0-.91.3-1.61.93-2.09.62-.47,1.53-.7,2.76-.7h1.89v-.14c0-.61-.21-1.09-.61-1.44-.4-.33-.98-.51-1.71-.51-.48,0-.93.06-1.38.18-.45.12-.87.29-1.27.5v-1.25c.48-.18.96-.33,1.43-.42s.91-.15,1.36-.15c1.19,0,2.07.32,2.66.93.58.61.88,1.55.88,2.79ZM189.65,323.26c-1.1,0-1.85.13-2.26.38-.42.26-.63.68-.63,1.27,0,.48.15.87.46,1.14.32.28.75.42,1.29.42.75,0,1.35-.26,1.8-.8.45-.52.68-1.23.68-2.11v-.3h-1.33Z"/>
  <path class="cls-34" d="M196.44,316.85v2.33h2.78v1.05h-2.78v4.45c0,.67.09,1.11.27,1.29.18.19.56.28,1.12.28h1.38v1.12h-1.38c-1.05,0-1.77-.19-2.16-.59s-.58-1.1-.58-2.11v-4.45h-.99v-1.05h.99v-2.33h1.35Z"/>
  <path class="cls-34" d="M206.66,322.55c-.01-.73-.23-1.32-.62-1.77-.4-.44-.94-.66-1.6-.66-.75,0-1.35.22-1.8.64s-.72,1.02-.78,1.78h4.8ZM208.01,322.94v.66h-6.19c.06.93.33,1.65.84,2.13.5.48,1.18.72,2.09.72.51,0,1.02-.06,1.5-.18.48-.12.97-.32,1.46-.59v1.27c-.48.21-.98.38-1.49.47-.51.09-1.04.15-1.54.15-1.32,0-2.36-.38-3.12-1.12s-1.14-1.78-1.14-3.09.36-2.4,1.08-3.2c.72-.78,1.71-1.18,2.94-1.18,1.11,0,1.98.36,2.62,1.07.63.72.96,1.68.96,2.9Z"/>
  <path class="cls-34" d="M218.22,316c-.66,1.14-1.14,2.25-1.45,3.34-.33,1.09-.48,2.2-.48,3.33s.15,2.25.48,3.35c.31,1.11.79,2.2,1.45,3.33h-1.17c-.74-1.15-1.29-2.27-1.65-3.38s-.54-2.21-.54-3.3.18-2.17.54-3.28.9-2.24,1.65-3.39h1.17Z"/>
  <path class="cls-34" d="M226.73,323.29c0-.99-.21-1.75-.61-2.32-.42-.57-.98-.86-1.68-.86s-1.27.28-1.68.86c-.42.57-.62,1.33-.62,2.32s.2,1.77.62,2.34c.4.57.96.84,1.68.84s1.26-.27,1.68-.84c.4-.57.61-1.35.61-2.34ZM222.14,326.15v4.34h-1.35v-11.31h1.35v1.24c.27-.48.63-.84,1.07-1.08s.96-.36,1.56-.36c.99,0,1.8.41,2.43,1.18.61.8.93,1.83.93,3.12s-.32,2.34-.93,3.12c-.63.78-1.44,1.17-2.43,1.17-.6,0-1.12-.12-1.56-.34-.43-.23-.79-.59-1.07-1.08Z"/>
  <path class="cls-34" d="M236.03,322.55c-.01-.73-.23-1.32-.62-1.77-.4-.44-.94-.66-1.6-.66-.75,0-1.35.22-1.8.64s-.72,1.02-.78,1.78h4.8ZM237.38,322.94v.66h-6.2c.06.93.33,1.65.84,2.13.5.48,1.18.72,2.09.72.51,0,1.02-.06,1.5-.18.48-.12.97-.32,1.46-.59v1.27c-.48.21-.98.38-1.49.47-.51.09-1.04.15-1.54.15-1.32,0-2.36-.38-3.12-1.12s-1.14-1.78-1.14-3.09.36-2.4,1.08-3.2c.72-.78,1.71-1.18,2.94-1.18,1.11,0,1.98.36,2.62,1.07.63.72.96,1.68.96,2.9Z"/>
  <path class="cls-34" d="M244.34,320.44c-.15-.09-.31-.15-.49-.19-.18-.03-.38-.06-.58-.06-.76,0-1.35.25-1.76.75-.42.49-.62,1.2-.62,2.13v4.32h-1.35v-8.2h1.35v1.27c.27-.49.65-.87,1.1-1.11s1.01-.36,1.67-.36c.09,0,.19.02.31.02.11.01.23.03.38.06v1.38Z"/>
  <path class="cls-34" d="M255.75,319.42v1.28c-.39-.18-.78-.33-1.18-.44-.42-.09-.84-.15-1.28-.15-.68,0-1.18.11-1.51.32s-.49.51-.49.92c0,.31.12.55.36.73.24.18.72.36,1.44.51l.46.1c.96.21,1.63.51,2.04.87.39.38.6.9.6,1.56,0,.77-.3,1.37-.9,1.8-.6.45-1.44.66-2.49.66-.45,0-.9-.05-1.38-.12s-.97-.19-1.5-.38v-1.39c.49.27.99.46,1.47.59.48.13.96.19,1.44.19.63,0,1.12-.1,1.47-.32.33-.21.51-.52.51-.93,0-.36-.13-.65-.38-.84-.24-.2-.78-.39-1.62-.57l-.46-.1c-.84-.18-1.46-.45-1.82-.81-.38-.36-.56-.86-.56-1.5,0-.77.27-1.36.81-1.79.54-.42,1.32-.63,2.34-.63.49,0,.96.05,1.41.12.44.08.84.18,1.22.31Z"/>
  <path class="cls-34" d="M264,322.55c-.01-.73-.22-1.32-.61-1.77-.4-.44-.95-.66-1.61-.66-.75,0-1.35.22-1.8.64s-.72,1.02-.78,1.78h4.8ZM265.35,322.94v.66h-6.2c.06.93.33,1.65.84,2.13.49.48,1.18.72,2.08.72.51,0,1.02-.06,1.5-.18.48-.12.98-.32,1.45-.59v1.27c-.48.21-.97.38-1.48.47s-1.04.15-1.55.15c-1.32,0-2.35-.38-3.12-1.12-.76-.75-1.14-1.78-1.14-3.09s.36-2.4,1.08-3.2c.72-.78,1.71-1.18,2.94-1.18,1.11,0,1.98.36,2.62,1.07.63.72.96,1.68.96,2.9Z"/>
  <path class="cls-34" d="M273.47,319.49v1.26c-.39-.21-.77-.36-1.15-.47-.39-.1-.77-.16-1.15-.16-.87,0-1.56.28-2.04.84-.48.55-.72,1.33-.72,2.32s.24,1.78.72,2.34,1.17.82,2.04.82c.39,0,.76-.05,1.15-.15.39-.11.76-.27,1.15-.48v1.25c-.39.18-.78.31-1.17.39-.4.07-.84.12-1.29.12-1.23,0-2.22-.38-2.94-1.15-.74-.77-1.1-1.82-1.1-3.14s.36-2.39,1.1-3.15c.73-.76,1.74-1.16,3.03-1.16.42,0,.82.05,1.21.14.39.09.78.21,1.15.38Z"/>
  <polygon class="cls-34" points="276.15 325.52 277.7 325.52 277.7 326.78 276.5 329.11 275.55 329.11 276.15 326.78 276.15 325.52"/>
  <path class="cls-34" d="M291.24,323.29c0-.99-.21-1.75-.61-2.32-.42-.57-.98-.86-1.68-.86s-1.28.28-1.68.86c-.42.57-.61,1.33-.61,2.32s.2,1.77.61,2.34c.4.57.96.84,1.68.84s1.26-.27,1.68-.84c.4-.57.61-1.35.61-2.34ZM286.65,326.15v4.34h-1.35v-11.31h1.35v1.24c.27-.48.63-.84,1.07-1.08s.96-.36,1.56-.36c.99,0,1.8.41,2.43,1.18.62.8.93,1.83.93,3.12s-.32,2.34-.93,3.12c-.63.78-1.44,1.17-2.43,1.17-.6,0-1.12-.12-1.56-.34-.43-.23-.8-.59-1.07-1.08Z"/>
  <path class="cls-34" d="M300.54,322.55c-.01-.73-.22-1.32-.61-1.77-.4-.44-.95-.66-1.61-.66-.75,0-1.35.22-1.8.64s-.72,1.02-.78,1.78h4.8ZM301.89,322.94v.66h-6.2c.06.93.33,1.65.84,2.13.49.48,1.18.72,2.08.72.51,0,1.02-.06,1.5-.18.48-.12.98-.32,1.45-.59v1.27c-.48.21-.97.38-1.48.47s-1.04.15-1.55.15c-1.32,0-2.35-.38-3.12-1.12-.76-.75-1.14-1.78-1.14-3.09s.36-2.4,1.08-3.2c.72-.78,1.71-1.18,2.94-1.18,1.11,0,1.98.36,2.62,1.07.63.72.96,1.68.96,2.9Z"/>
  <path class="cls-34" d="M308.85,320.44c-.15-.09-.32-.15-.49-.19-.18-.03-.38-.06-.59-.06-.76,0-1.35.25-1.76.75-.42.49-.61,1.2-.61,2.13v4.32h-1.35v-8.2h1.35v1.27c.27-.49.64-.87,1.1-1.11s1.01-.36,1.67-.36c.09,0,.2.02.32.02.1.01.23.03.38.06v1.38Z"/>
  <path class="cls-34" d="M321.86,322.43v4.95h-1.35v-4.9c0-.78-.17-1.35-.46-1.74-.3-.39-.75-.58-1.35-.58-.74,0-1.3.24-1.73.7s-.63,1.1-.63,1.89v4.64h-1.35v-8.2h1.35v1.27c.32-.48.69-.85,1.14-1.09.43-.24.94-.38,1.51-.38.93,0,1.65.3,2.13.89s.74,1.44.74,2.57Z"/>
  <path class="cls-34" d="M327.72,318.98c1.17,0,2.08.39,2.76,1.14.66.76,1.01,1.81,1.01,3.16s-.35,2.4-1.01,3.15c-.68.76-1.59,1.14-2.76,1.14s-2.11-.38-2.77-1.14c-.66-.75-.99-1.8-.99-3.15s.33-2.4.99-3.16c.66-.75,1.59-1.14,2.77-1.14ZM327.72,320.12c-.72,0-1.29.28-1.71.85-.42.57-.63,1.33-.63,2.31s.2,1.76.61,2.32c.42.57.99.84,1.73.84s1.29-.27,1.71-.84c.42-.57.63-1.34.63-2.32s-.21-1.74-.63-2.31c-.42-.57-.99-.85-1.71-.85Z"/>
  <path class="cls-34" d="M334.53,323.29c0,.99.2,1.77.6,2.34s.96.84,1.68.84,1.27-.27,1.7-.84c.4-.57.61-1.35.61-2.34s-.21-1.75-.61-2.32c-.42-.57-.98-.86-1.7-.86s-1.27.28-1.68.86c-.4.57-.6,1.33-.6,2.32ZM339.12,320.42v-4.44h1.35v11.4h-1.35v-1.23c-.29.5-.64.86-1.08,1.08-.43.22-.95.34-1.55.34-.99,0-1.8-.39-2.43-1.17-.63-.78-.93-1.83-.93-3.12s.3-2.32.93-3.12c.63-.78,1.44-1.18,2.43-1.18.6,0,1.11.12,1.55.36s.79.6,1.08,1.08Z"/>
  <path class="cls-34" d="M348.92,322.55c-.01-.73-.22-1.32-.61-1.77-.4-.44-.95-.66-1.61-.66-.75,0-1.35.22-1.8.64s-.72,1.02-.78,1.78h4.8ZM350.27,322.94v.66h-6.2c.06.93.33,1.65.84,2.13.49.48,1.18.72,2.08.72.51,0,1.02-.06,1.5-.18.48-.12.98-.32,1.45-.59v1.27c-.48.21-.97.38-1.48.47s-1.04.15-1.55.15c-1.32,0-2.35-.38-3.12-1.12-.76-.75-1.14-1.78-1.14-3.09s.36-2.4,1.08-3.2c.72-.78,1.71-1.18,2.94-1.18,1.11,0,1.98.36,2.62,1.07.63.72.96,1.68.96,2.9Z"/>
  <path class="cls-34" d="M352.26,316h1.17c.72,1.15,1.27,2.28,1.64,3.39.36,1.11.55,2.2.55,3.28s-.2,2.19-.55,3.3c-.36,1.11-.92,2.22-1.64,3.38h-1.17c.64-1.12,1.12-2.22,1.45-3.33.32-1.1.48-2.21.48-3.35s-.17-2.24-.48-3.33c-.33-1.09-.81-2.2-1.45-3.34Z"/>
  <g class="cls-91">
    <line class="cls-25" x1="48.72" y1="289.73" x2="420.9" y2="289.73"/>
  </g>
  <line class="cls-34" x1="48.72" y1="289.73" x2="45.22" y2="289.73"/>
  <line class="cls-28" x1="48.72" y1="289.73" x2="45.22" y2="289.73"/>
  <path class="cls-34" d="M28.9,285.53c.81,0,1.43.33,1.87.97.43.65.65,1.59.65,2.81s-.22,2.17-.65,2.81c-.44.64-1.06.96-1.88.96s-1.44-.32-1.87-.96c-.43-.64-.64-1.58-.64-2.81s.21-2.16.64-2.81c.43-.64,1.06-.97,1.88-.97ZM28.9,286.31c-.51,0-.89.25-1.15.75s-.38,1.25-.38,2.25.12,1.75.38,2.25.64.75,1.15.75.89-.25,1.15-.75c.25-.5.38-1.25.38-2.25s-.13-1.75-.38-2.25c-.26-.5-.64-.75-1.15-.75Z"/>
  <rect class="cls-34" x="33.15" y="291.71" width="1.03" height="1.24"/>
  <path class="cls-34" d="M38.44,285.53c.81,0,1.43.33,1.87.97.43.65.65,1.59.65,2.81s-.22,2.17-.65,2.81c-.44.64-1.06.96-1.88.96s-1.44-.32-1.87-.96c-.43-.64-.64-1.58-.64-2.81s.21-2.16.64-2.81c.43-.64,1.06-.97,1.88-.97ZM38.44,286.31c-.51,0-.89.25-1.15.75-.26.5-.38,1.25-.38,2.25s.12,1.75.38,2.25c.26.5.64.75,1.15.75s.89-.25,1.15-.75c.25-.5.38-1.25.38-2.25s-.13-1.75-.38-2.25c-.26-.5-.64-.75-1.15-.75Z"/>
  <g class="cls-121">
    <line class="cls-25" x1="48.72" y1="244.26" x2="420.9" y2="244.26"/>
  </g>
  <line class="cls-34" x1="48.72" y1="244.26" x2="45.22" y2="244.26"/>
  <line class="cls-28" x1="48.72" y1="244.26" x2="45.22" y2="244.26"/>
  <path class="cls-34" d="M28.9,240.06c.81,0,1.43.33,1.87.97.43.65.65,1.59.65,2.81s-.22,2.17-.65,2.81c-.44.64-1.06.96-1.88.96s-1.44-.32-1.87-.96c-.43-.64-.64-1.58-.64-2.81s.21-2.16.64-2.81c.43-.64,1.06-.97,1.88-.97ZM28.9,240.84c-.51,0-.89.25-1.15.75s-.38,1.25-.38,2.25.12,1.75.38,2.25.64.75,1.15.75.89-.25,1.15-.75c.25-.5.38-1.25.38-2.25s-.13-1.75-.38-2.25c-.26-.5-.64-.75-1.15-.75Z"/>
  <rect class="cls-34" x="33.15" y="246.24" width="1.03" height="1.24"/>
  <path class="cls-34" d="M36.34,240.19h3.87v.83h-2.97v1.79c.14-.05.29-.09.43-.11.14-.02.29-.04.43-.04.81,0,1.45.23,1.93.67.48.45.72,1.05.72,1.81s-.25,1.4-.74,1.83-1.18.64-2.06.64c-.31,0-.62-.03-.94-.07-.32-.05-.64-.12-.98-.23v-.99c.29.16.59.28.91.36.31.08.64.11.99.11.56,0,1.01-.14,1.34-.44.32-.3.49-.7.49-1.21s-.17-.9-.49-1.2c-.33-.3-.78-.45-1.34-.45-.26,0-.53.03-.79.09-.26.06-.53.15-.8.27v-3.66Z"/>
  <g class="cls-7">
    <line class="cls-25" x1="48.72" y1="198.8" x2="420.9" y2="198.8"/>
  </g>
  <line class="cls-34" x1="48.72" y1="198.8" x2="45.22" y2="198.8"/>
  <line class="cls-28" x1="48.72" y1="198.8" x2="45.22" y2="198.8"/>
  <polygon class="cls-34" points="26.96 201.18 28.57 201.18 28.57 195.62 26.82 195.97 26.82 195.07 28.56 194.72 29.55 194.72 29.55 201.18 31.16 201.18 31.16 202.01 26.96 202.01 26.96 201.18"/>
  <rect class="cls-34" x="33.15" y="200.77" width="1.03" height="1.24"/>
  <path class="cls-34" d="M38.44,194.59c.81,0,1.43.33,1.87.97.43.65.65,1.59.65,2.81s-.22,2.17-.65,2.81c-.44.64-1.06.96-1.88.96s-1.44-.32-1.87-.96-.64-1.58-.64-2.81.21-2.16.64-2.81c.43-.64,1.06-.97,1.88-.97ZM38.44,195.37c-.51,0-.89.25-1.15.75-.26.5-.38,1.25-.38,2.25s.12,1.75.38,2.25c.26.5.64.75,1.15.75s.89-.25,1.15-.75c.25-.5.38-1.25.38-2.25s-.13-1.75-.38-2.25c-.26-.5-.64-.75-1.15-.75Z"/>
  <g class="cls-80">
    <line class="cls-25" x1="48.72" y1="153.33" x2="420.9" y2="153.33"/>
  </g>
  <line class="cls-34" x1="48.72" y1="153.33" x2="45.22" y2="153.33"/>
  <line class="cls-28" x1="48.72" y1="153.33" x2="45.22" y2="153.33"/>
  <polygon class="cls-34" points="26.96 155.59 28.57 155.59 28.57 150.03 26.82 150.38 26.82 149.48 28.56 149.13 29.55 149.13 29.55 155.59 31.16 155.59 31.16 156.42 26.96 156.42 26.96 155.59"/>
  <rect class="cls-34" x="33.15" y="155.18" width="1.03" height="1.24"/>
  <path class="cls-34" d="M36.34,149.13h3.87v.83h-2.97v1.79c.14-.05.29-.09.43-.11s.29-.04.43-.04c.81,0,1.45.23,1.93.67.48.45.72,1.05.72,1.81s-.25,1.4-.74,1.83c-.49.43-1.18.64-2.06.64-.31,0-.62-.03-.94-.07-.32-.05-.64-.12-.98-.23v-.99c.29.16.59.28.91.36.31.08.64.11.99.11.56,0,1.01-.14,1.34-.44.32-.3.49-.7.49-1.21s-.17-.9-.49-1.2c-.33-.3-.78-.45-1.34-.45-.26,0-.53.03-.79.09-.26.06-.53.15-.8.27v-3.66Z"/>
  <g class="cls-50">
    <line class="cls-25" x1="48.72" y1="107.86" x2="420.9" y2="107.86"/>
  </g>
  <line class="cls-34" x1="48.72" y1="107.86" x2="45.22" y2="107.86"/>
  <line class="cls-28" x1="48.72" y1="107.86" x2="45.22" y2="107.86"/>
  <path class="cls-34" d="M27.64,110.25h3.44v.83h-4.63v-.83c.37-.38.88-.9,1.53-1.56.64-.65,1.05-1.07,1.22-1.26.32-.35.54-.65.66-.9.12-.24.19-.49.19-.73,0-.38-.14-.7-.41-.94s-.62-.37-1.06-.37c-.31,0-.64.06-.98.16-.34.11-.71.27-1.1.49v-1c.4-.16.77-.28,1.11-.36s.66-.12.95-.12c.75,0,1.35.19,1.8.57.45.38.68.88.68,1.51,0,.3-.06.59-.17.85-.11.27-.31.59-.61.95-.08.1-.34.37-.78.82s-1.05,1.08-1.84,1.89Z"/>
  <rect class="cls-34" x="33.15" y="109.84" width="1.03" height="1.24"/>
  <path class="cls-34" d="M38.44,103.66c.81,0,1.43.33,1.87.97.43.65.65,1.59.65,2.81s-.22,2.17-.65,2.81c-.44.64-1.06.96-1.88.96s-1.44-.32-1.87-.96-.64-1.58-.64-2.81.21-2.16.64-2.81c.43-.64,1.06-.97,1.88-.97ZM38.44,104.44c-.51,0-.89.25-1.15.75-.26.5-.38,1.25-.38,2.25s.12,1.75.38,2.25c.26.5.64.75,1.15.75s.89-.25,1.15-.75c.25-.5.38-1.25.38-2.25s-.13-1.75-.38-2.25c-.26-.5-.64-.75-1.15-.75Z"/>
  <g class="cls-113">
    <line class="cls-25" x1="48.72" y1="62.4" x2="420.9" y2="62.4"/>
  </g>
  <line class="cls-34" x1="48.72" y1="62.4" x2="45.22" y2="62.4"/>
  <line class="cls-28" x1="48.72" y1="62.4" x2="45.22" y2="62.4"/>
  <path class="cls-34" d="M27.64,64.78h3.44v.83h-4.63v-.83c.37-.38.88-.9,1.53-1.56.64-.65,1.05-1.07,1.22-1.26.32-.35.54-.65.66-.9.12-.24.19-.49.19-.73,0-.38-.14-.7-.41-.94s-.62-.37-1.06-.37c-.31,0-.64.06-.98.16-.34.11-.71.27-1.1.49v-1c.4-.16.77-.28,1.11-.36.34-.08.66-.12.95-.12.75,0,1.35.19,1.8.57.45.38.68.88.68,1.51,0,.3-.06.59-.17.85-.11.27-.31.59-.61.95-.08.1-.34.37-.78.82s-1.05,1.08-1.84,1.89Z"/>
  <rect class="cls-34" x="33.15" y="64.37" width="1.03" height="1.24"/>
  <path class="cls-34" d="M36.34,58.32h3.87v.83h-2.97v1.79c.14-.05.29-.09.43-.11s.29-.04.43-.04c.81,0,1.45.23,1.93.67.48.45.72,1.05.72,1.81s-.25,1.4-.74,1.83c-.49.43-1.18.64-2.06.64-.31,0-.62-.03-.94-.07-.32-.05-.64-.12-.98-.23v-.99c.29.16.59.28.91.36.31.08.64.11.99.11.56,0,1.01-.14,1.34-.44.32-.3.49-.7.49-1.21s-.17-.9-.49-1.2c-.33-.3-.78-.45-1.34-.45-.26,0-.53.03-.79.09-.26.06-.53.15-.8.27v-3.66Z"/>
  <polygon class="cls-34" points="7.66 218.05 7.66 208.81 8.9 208.81 8.9 212.69 18.59 212.69 18.59 214.18 8.9 214.18 8.9 218.05 7.66 218.05"/>
  <path class="cls-34" d="M10.19,206.81c0-1.17.39-2.09,1.14-2.76.76-.66,1.82-1,3.16-1s2.4.35,3.15,1c.76.68,1.14,1.59,1.14,2.76s-.38,2.11-1.14,2.77c-.75.66-1.8.99-3.15.99s-2.4-.33-3.16-.99c-.75-.66-1.14-1.59-1.14-2.77ZM11.33,206.81c0,.72.28,1.29.85,1.71.57.42,1.34.63,2.31.63s1.76-.2,2.32-.62.84-.99.84-1.72-.27-1.29-.84-1.71-1.33-.63-2.32-.63-1.74.21-2.31.63c-.57.42-.85.99-.85,1.71Z"/>
  <path class="cls-34" d="M8.06,199.48h2.33v-2.78h1.05v2.78h4.46c.68,0,1.11-.09,1.29-.27.19-.18.28-.56.28-1.12v-1.38h1.12v1.38c0,1.05-.19,1.77-.58,2.16-.39.39-1.1.58-2.12.58h-4.46v.99h-1.05v-.99h-2.33v-1.35Z"/>
  <path class="cls-34" d="M13.91,188.51h4.68v1.35h-1.25c.51.32.87.71,1.1,1.15s.34,1.02.34,1.68c0,.84-.23,1.51-.69,2.01-.46.49-1.09.74-1.89.74-.91,0-1.6-.3-2.09-.93-.47-.62-.7-1.53-.7-2.76v-1.89h-.14c-.61,0-1.1.21-1.44.61-.33.4-.51.98-.51,1.71,0,.48.06.93.18,1.38.12.45.28.87.49,1.27h-1.24c-.18-.48-.33-.96-.42-1.43s-.15-.91-.15-1.36c0-1.19.32-2.07.93-2.66.61-.58,1.55-.88,2.79-.88ZM14.47,191.2c0,1.1.14,1.85.38,2.26.26.42.68.63,1.27.63.48,0,.87-.15,1.14-.46.28-.32.42-.75.42-1.29,0-.75-.25-1.35-.79-1.8-.53-.45-1.23-.67-2.12-.67h-.3v1.33Z"/>
  <rect class="cls-34" x="7.19" y="184.39" width="11.4" height="1.35"/>
  <path class="cls-34" d="M14.5,175.99c.99,0,1.77-.19,2.34-.6.57-.4.84-.96.84-1.68s-.27-1.27-.84-1.7c-.57-.4-1.35-.61-2.34-.61s-1.76.21-2.32.61c-.57.42-.85.98-.85,1.7s.28,1.27.85,1.68c.57.41,1.34.6,2.32.6ZM11.63,171.4h-4.44v-1.35h11.4v1.35h-1.23c.49.29.85.65,1.08,1.08s.34.94.34,1.54c0,.99-.39,1.8-1.17,2.43-.78.63-1.83.93-3.12.93s-2.32-.3-3.12-.93c-.78-.63-1.19-1.44-1.19-2.43,0-.6.12-1.11.36-1.54.24-.43.6-.79,1.08-1.08Z"/>
  <path class="cls-34" d="M13.76,161.6c-.74.01-1.32.23-1.77.62-.43.4-.66.94-.66,1.6,0,.75.23,1.35.65,1.8s1.02.72,1.78.78v-4.8ZM14.15,160.25h.66v6.2c.93-.06,1.65-.33,2.13-.84.48-.5.72-1.18.72-2.09,0-.51-.06-1.02-.18-1.5-.12-.48-.31-.97-.58-1.46h1.27c.21.48.38.98.47,1.49.09.51.15,1.04.15,1.54,0,1.32-.38,2.36-1.12,3.12s-1.78,1.14-3.09,1.14-2.4-.36-3.19-1.08c-.78-.72-1.19-1.71-1.19-2.94,0-1.11.36-1.98,1.06-2.62.72-.63,1.68-.96,2.9-.96Z"/>
  <rect class="cls-34" x="7.19" y="156.7" width="11.4" height="1.35"/>
  <path class="cls-34" d="M13.91,147.46h4.68v1.35h-1.25c.51.32.87.71,1.1,1.15s.34,1.02.34,1.68c0,.84-.23,1.51-.69,2.01-.46.49-1.09.74-1.89.74-.91,0-1.6-.3-2.09-.93-.47-.62-.7-1.53-.7-2.76v-1.89h-.14c-.61,0-1.1.21-1.44.61-.33.4-.51.98-.51,1.71,0,.48.06.93.18,1.38.12.45.28.87.49,1.27h-1.24c-.18-.48-.33-.96-.42-1.43s-.15-.91-.15-1.36c0-1.19.32-2.07.93-2.66.61-.58,1.55-.88,2.79-.88ZM14.47,150.14c0,1.1.14,1.85.38,2.26.26.42.68.63,1.27.63.48,0,.87-.15,1.14-.46.28-.32.42-.75.42-1.29,0-.75-.25-1.35-.79-1.8-.53-.45-1.23-.67-2.12-.67h-.3v1.33Z"/>
  <path class="cls-34" d="M19.34,141.26c.96.39,1.6.76,1.91,1.12.3.36.45.84.45,1.44v1.08h-1.12v-.79c0-.36-.09-.65-.27-.86-.18-.21-.58-.43-1.24-.69l-.6-.24-8.07,3.32v-1.43l6.42-2.57-6.42-2.57v-1.43l8.95,3.6Z"/>
  <path class="cls-34" d="M7.21,127.79c1.14.66,2.25,1.14,3.35,1.45,1.1.33,2.2.48,3.33.48s2.25-.15,3.35-.48c1.11-.31,2.2-.79,3.33-1.45v1.17c-1.16.74-2.26,1.29-3.38,1.65s-2.2.54-3.3.54-2.18-.18-3.29-.54c-1.11-.36-2.23-.9-3.39-1.65v-1.17Z"/>
  <path class="cls-34" d="M10.63,119.95h1.27c-.18.39-.33.78-.43,1.18-.09.42-.15.84-.15,1.28,0,.68.1,1.18.31,1.51s.51.49.91.49c.32,0,.56-.12.73-.36.18-.24.36-.72.51-1.44l.11-.46c.21-.96.51-1.63.87-2.04.38-.39.9-.6,1.56-.6.76,0,1.36.3,1.8.9.45.6.66,1.44.66,2.49,0,.45-.05.9-.12,1.38-.08.48-.2.97-.38,1.5h-1.4c.27-.49.47-.99.58-1.47.14-.48.19-.96.19-1.44,0-.63-.1-1.12-.31-1.47-.21-.33-.53-.51-.93-.51-.36,0-.65.13-.84.38-.19.24-.39.78-.57,1.62l-.11.46c-.18.84-.45,1.46-.81,1.82-.36.38-.85.56-1.5.56-.76,0-1.36-.27-1.78-.81-.42-.54-.63-1.32-.63-2.34,0-.49.05-.96.12-1.41.08-.43.18-.84.32-1.21Z"/>
  <path class="cls-34" d="M13.76,111.7c-.74.01-1.32.23-1.77.62-.43.4-.66.94-.66,1.6,0,.75.23,1.35.65,1.8s1.02.72,1.78.78v-4.8ZM14.15,110.35h.66v6.2c.93-.06,1.65-.33,2.13-.84.48-.5.72-1.18.72-2.09,0-.51-.06-1.02-.18-1.5-.12-.48-.31-.97-.58-1.46h1.27c.21.48.38.98.47,1.49.09.51.15,1.04.15,1.54,0,1.32-.38,2.36-1.12,3.12s-1.78,1.14-3.09,1.14-2.4-.36-3.19-1.08c-.78-.72-1.19-1.71-1.19-2.94,0-1.11.36-1.98,1.06-2.62.72-.63,1.68-.96,2.9-.96Z"/>
  <path class="cls-34" d="M10.7,102.23h1.26c-.21.39-.36.77-.47,1.16s-.16.76-.16,1.15c0,.87.28,1.56.84,2.04s1.34.72,2.32.72,1.79-.24,2.34-.72c.56-.48.83-1.17.83-2.04,0-.39-.05-.76-.15-1.15s-.27-.76-.48-1.16h1.24c.18.39.32.78.39,1.17.07.4.12.84.12,1.29,0,1.23-.38,2.22-1.15,2.94-.77.74-1.82,1.1-3.14,1.1s-2.39-.36-3.15-1.1c-.76-.74-1.15-1.74-1.15-3.03,0-.42.05-.82.14-1.21s.21-.78.38-1.16Z"/>
  <path class="cls-34" d="M7.21,100.1v-1.17c1.15-.72,2.28-1.28,3.39-1.64,1.11-.36,2.2-.55,3.29-.55s2.19.19,3.3.55,2.22.92,3.38,1.64v1.17c-1.12-.65-2.22-1.12-3.33-1.46-1.09-.32-2.2-.48-3.35-.48s-2.23.16-3.33.48c-1.1.33-2.21.81-3.35,1.46Z"/>
  <polygon class="cls-34" points="55.73 9.69 53.5 11.93 55.73 14.16 55.15 14.75 52.91 12.51 50.67 14.75 50.09 14.16 52.32 11.93 50.09 9.69 50.67 9.1 52.91 11.34 55.15 9.1 55.73 9.69"/>
  <polygon class="cls-34" points="58.33 14.23 59.94 14.23 59.94 8.67 58.19 9.02 58.19 8.12 59.93 7.77 60.92 7.77 60.92 14.23 62.53 14.23 62.53 15.06 58.33 15.06 58.33 14.23"/>
  <path class="cls-34" d="M66.64,7.64c.81,0,1.43.33,1.87.97.43.65.65,1.59.65,2.81s-.22,2.17-.65,2.81c-.44.64-1.06.96-1.88.96s-1.44-.32-1.87-.96c-.43-.64-.64-1.58-.64-2.81s.21-2.16.64-2.81c.43-.64,1.06-.97,1.88-.97ZM66.64,8.42c-.51,0-.89.25-1.15.75-.26.5-.38,1.25-.38,2.25s.12,1.75.38,2.25c.26.5.64.75,1.15.75s.89-.25,1.15-.75c.25-.5.38-1.25.38-2.25s-.13-1.75-.38-2.25c-.26-.5-.64-.75-1.15-.75Z"/>
  <polygon class="cls-34" points="70.49 6.13 73.77 6.13 73.77 6.42 71.92 11.23 71.2 11.23 72.94 6.71 70.49 6.71 70.49 6.13"/>
  <g class="cls-57">
    <polyline class="cls-18" points="65.63 282.72 107.93 276.55 150.22 267.32 192.51 258.1 234.81 244.92 277.1 232.84 319.4 216.45 361.69 201.08 403.98 177.27"/>
    <g class="cls-8">
      <polygon class="cls-24" points="65.63 279.72 62.63 285.72 68.63 285.72 65.63 279.72"/>
    </g>
    <g class="cls-114">
      <polygon class="cls-24" points="107.93 273.55 104.93 279.55 110.93 279.55 107.93 273.55"/>
    </g>
    <g class="cls-111">
      <polygon class="cls-24" points="150.22 264.32 147.22 270.32 153.22 270.32 150.22 264.32"/>
    </g>
    <g class="cls-99">
      <polygon class="cls-24" points="192.51 255.1 189.51 261.1 195.51 261.1 192.51 255.1"/>
    </g>
    <g class="cls-6">
      <polygon class="cls-24" points="234.81 241.92 231.81 247.92 237.81 247.92 234.81 241.92"/>
    </g>
    <g class="cls-67">
      <polygon class="cls-24" points="277.1 229.84 274.1 235.84 280.1 235.84 277.1 229.84"/>
    </g>
    <g class="cls-88">
      <polygon class="cls-24" points="319.4 213.45 316.4 219.45 322.4 219.45 319.4 213.45"/>
    </g>
    <g class="cls-122">
      <polygon class="cls-24" points="361.69 198.08 358.69 204.08 364.69 204.08 361.69 198.08"/>
    </g>
    <g class="cls-84">
      <polygon class="cls-24" points="403.98 174.27 400.98 180.27 406.98 180.27 403.98 174.27"/>
    </g>
  </g>
  <g class="cls-54">
    <polyline class="cls-20" points="65.63 266.65 107.93 253.51 150.22 237.66 192.51 219.36 234.81 197.72 277.1 174.79 319.4 148.16 361.69 121.4 403.98 85.28"/>
    <g class="cls-62">
      <path class="cls-10" d="M65.63,269.65c.8,0,1.56-.32,2.12-.88.56-.56.88-1.33.88-2.12s-.32-1.56-.88-2.12c-.56-.56-1.33-.88-2.12-.88s-1.56.32-2.12.88c-.56.56-.88,1.33-.88,2.12s.32,1.56.88,2.12c.56.56,1.33.88,2.12.88Z"/>
    </g>
    <g class="cls-75">
      <path class="cls-10" d="M107.93,256.51c.8,0,1.56-.32,2.12-.88.56-.56.88-1.33.88-2.12s-.32-1.56-.88-2.12c-.56-.56-1.33-.88-2.12-.88s-1.56.32-2.12.88c-.56.56-.88,1.33-.88,2.12s.32,1.56.88,2.12c.56.56,1.33.88,2.12.88Z"/>
    </g>
    <g class="cls-132">
      <path class="cls-10" d="M150.22,240.66c.8,0,1.56-.32,2.12-.88.56-.56.88-1.33.88-2.12s-.32-1.56-.88-2.12c-.56-.56-1.33-.88-2.12-.88s-1.56.32-2.12.88c-.56.56-.88,1.33-.88,2.12s.32,1.56.88,2.12c.56.56,1.33.88,2.12.88Z"/>
    </g>
    <g class="cls-110">
      <path class="cls-10" d="M192.51,222.36c.8,0,1.56-.32,2.12-.88.56-.56.88-1.33.88-2.12s-.32-1.56-.88-2.12c-.56-.56-1.33-.88-2.12-.88s-1.56.32-2.12.88c-.56.56-.88,1.33-.88,2.12s.32,1.56.88,2.12c.56.56,1.33.88,2.12.88Z"/>
    </g>
    <g class="cls-86">
      <path class="cls-10" d="M234.81,200.72c.8,0,1.56-.32,2.12-.88s.88-1.33.88-2.12-.32-1.56-.88-2.12-1.33-.88-2.12-.88-1.56.32-2.12.88-.88,1.33-.88,2.12.32,1.56.88,2.12,1.33.88,2.12.88Z"/>
    </g>
    <g class="cls-100">
      <path class="cls-10" d="M277.1,177.79c.8,0,1.56-.32,2.12-.88.56-.56.88-1.33.88-2.12s-.32-1.56-.88-2.12c-.56-.56-1.33-.88-2.12-.88s-1.56.32-2.12.88c-.56.56-.88,1.33-.88,2.12s.32,1.56.88,2.12c.56.56,1.33.88,2.12.88Z"/>
    </g>
    <g class="cls-42">
      <path class="cls-10" d="M319.4,151.16c.8,0,1.56-.32,2.12-.88.56-.56.88-1.33.88-2.12s-.32-1.56-.88-2.12c-.56-.56-1.33-.88-2.12-.88s-1.56.32-2.12.88c-.56.56-.88,1.33-.88,2.12s.32,1.56.88,2.12c.56.56,1.33.88,2.12.88Z"/>
    </g>
    <g class="cls-33">
      <path class="cls-10" d="M361.69,124.4c.8,0,1.56-.32,2.12-.88.56-.56.88-1.33.88-2.12s-.32-1.56-.88-2.12c-.56-.56-1.33-.88-2.12-.88s-1.56.32-2.12.88c-.56.56-.88,1.33-.88,2.12s.32,1.56.88,2.12c.56.56,1.33.88,2.12.88Z"/>
    </g>
    <g class="cls-68">
      <path class="cls-10" d="M403.98,88.28c.8,0,1.56-.32,2.12-.88.56-.56.88-1.33.88-2.12s-.32-1.56-.88-2.12c-.56-.56-1.33-.88-2.12-.88s-1.56.32-2.12.88c-.56.56-.88,1.33-.88,2.12s.32,1.56.88,2.12c.56.56,1.33.88,2.12.88Z"/>
    </g>
  </g>
  <g class="cls-137">
    <polyline class="cls-22" points="65.63 261.87 107.93 248.56 150.22 231.89 192.51 212.7 234.81 191.24 277.1 167.57 319.4 139.81 361.69 112.07 403.98 72.39"/>
    <g class="cls-74">
      <polygon class="cls-9" points="65.63 266.11 68.18 261.87 65.63 257.62 63.09 261.87 65.63 266.11"/>
    </g>
    <g class="cls-52">
      <polygon class="cls-9" points="107.93 252.8 110.47 248.56 107.93 244.32 105.38 248.56 107.93 252.8"/>
    </g>
    <g class="cls-73">
      <polygon class="cls-9" points="150.22 236.13 152.77 231.89 150.22 227.65 147.68 231.89 150.22 236.13"/>
    </g>
    <g class="cls-98">
      <polygon class="cls-9" points="192.51 216.94 195.06 212.7 192.51 208.45 189.97 212.7 192.51 216.94"/>
    </g>
    <g class="cls-61">
      <polygon class="cls-9" points="234.81 195.48 237.35 191.24 234.81 186.99 232.26 191.24 234.81 195.48"/>
    </g>
    <g class="cls-41">
      <polygon class="cls-9" points="277.1 171.81 279.65 167.57 277.1 163.33 274.56 167.57 277.1 171.81"/>
    </g>
    <g class="cls-119">
      <polygon class="cls-9" points="319.4 144.05 321.94 139.81 319.4 135.57 316.85 139.81 319.4 144.05"/>
    </g>
    <g class="cls-105">
      <polygon class="cls-9" points="361.69 116.31 364.24 112.07 361.69 107.82 359.14 112.07 361.69 116.31"/>
    </g>
    <g class="cls-79">
      <polygon class="cls-9" points="403.98 76.63 406.53 72.39 403.98 68.15 401.44 72.39 403.98 76.63"/>
    </g>
  </g>
  <g class="cls-4">
    <polyline class="cls-26" points="65.63 280.1 107.93 272.89 150.22 262.98 192.51 251.66 234.81 236.98 277.1 221.33 319.4 202.55 361.69 184.6 403.98 158.25"/>
    <g class="cls-53">
      <rect class="cls-23" x="62.63" y="277.1" width="6" height="6"/>
    </g>
    <g class="cls-38">
      <rect class="cls-23" x="104.93" y="269.89" width="6" height="6"/>
    </g>
    <g class="cls-96">
      <rect class="cls-23" x="147.22" y="259.98" width="6" height="6"/>
    </g>
    <g class="cls-128">
      <rect class="cls-23" x="189.51" y="248.66" width="6" height="6"/>
    </g>
    <g class="cls-95">
      <rect class="cls-23" x="231.81" y="233.98" width="6" height="6"/>
    </g>
    <g class="cls-131">
      <rect class="cls-23" x="274.1" y="218.33" width="6" height="6"/>
    </g>
    <g class="cls-93">
      <rect class="cls-23" x="316.4" y="199.55" width="6" height="6"/>
    </g>
    <g class="cls-127">
      <rect class="cls-23" x="358.69" y="181.6" width="6" height="6"/>
    </g>
    <g class="cls-102">
      <rect class="cls-23" x="400.98" y="155.25" width="6" height="6"/>
    </g>
  </g>
  <g class="cls-108">
    <polyline class="cls-14" points="65.63 266.8 107.93 254.87 150.22 238.39 192.51 220.33 234.81 198.07 277.1 174.91 319.4 148.95 361.69 120.66 403.98 84.69"/>
    <g class="cls-126">
      <path class="cls-15" d="M62.63,263.8l6,6M62.63,269.8l6-6"/>
    </g>
    <g class="cls-69">
      <path class="cls-15" d="M104.93,251.87l6,6M104.93,257.87l6-6"/>
    </g>
    <g class="cls-117">
      <path class="cls-15" d="M147.22,235.39l6,6M147.22,241.39l6-6"/>
    </g>
    <g class="cls-29">
      <path class="cls-15" d="M189.51,217.33l6,6M189.51,223.33l6-6"/>
    </g>
    <g class="cls-78">
      <path class="cls-15" d="M231.81,195.07l6,6M231.81,201.07l6-6"/>
    </g>
    <g class="cls-97">
      <path class="cls-15" d="M274.1,171.91l6,6M274.1,177.91l6-6"/>
    </g>
    <g class="cls-3">
      <path class="cls-15" d="M316.4,145.95l6,6M316.4,151.95l6-6"/>
    </g>
    <g class="cls-5">
      <path class="cls-15" d="M358.69,117.66l6,6M358.69,123.66l6-6"/>
    </g>
    <g class="cls-37">
      <path class="cls-15" d="M400.98,81.69l6,6M400.98,87.69l6-6"/>
    </g>
  </g>
  <g class="cls-120">
    <polyline class="cls-13" points="65.63 275.31 107.93 264.39 150.22 249.58 192.51 233.46 234.81 212.88 277.1 192.15 319.4 165.82 361.69 140.05 403.98 103.86"/>
    <g class="cls-138">
      <polygon class="cls-24" points="65.63 272.31 62.63 278.31 68.63 278.31 65.63 272.31"/>
    </g>
    <g class="cls-130">
      <polygon class="cls-24" points="107.93 261.39 104.93 267.39 110.93 267.39 107.93 261.39"/>
    </g>
    <g class="cls-136">
      <polygon class="cls-24" points="150.22 246.58 147.22 252.58 153.22 252.58 150.22 246.58"/>
    </g>
    <g class="cls-109">
      <polygon class="cls-24" points="192.51 230.46 189.51 236.46 195.51 236.46 192.51 230.46"/>
    </g>
    <g class="cls-106">
      <polygon class="cls-24" points="234.81 209.88 231.81 215.88 237.81 215.88 234.81 209.88"/>
    </g>
    <g class="cls-133">
      <polygon class="cls-24" points="277.1 189.15 274.1 195.15 280.1 195.15 277.1 189.15"/>
    </g>
    <g class="cls-2">
      <polygon class="cls-24" points="319.4 162.82 316.4 168.82 322.4 168.82 319.4 162.82"/>
    </g>
    <g class="cls-1">
      <polygon class="cls-24" points="361.69 137.05 358.69 143.05 364.69 143.05 361.69 137.05"/>
    </g>
    <g class="cls-125">
      <polygon class="cls-24" points="403.98 100.86 400.98 106.86 406.98 106.86 403.98 100.86"/>
    </g>
  </g>
  <g class="cls-65">
    <polyline class="cls-19" points="65.63 275.98 107.93 266.09 150.22 251.11 192.51 235.69 234.81 215.64 277.1 193.81 319.4 167.59 361.69 141.09 403.98 106.61"/>
    <g class="cls-60">
      <rect class="cls-23" x="62.63" y="272.98" width="6" height="6"/>
    </g>
    <g class="cls-40">
      <rect class="cls-23" x="104.93" y="263.09" width="6" height="6"/>
    </g>
    <g class="cls-30">
      <rect class="cls-23" x="147.22" y="248.11" width="6" height="6"/>
    </g>
    <g class="cls-87">
      <rect class="cls-23" x="189.51" y="232.69" width="6" height="6"/>
    </g>
    <g class="cls-83">
      <rect class="cls-23" x="231.81" y="212.64" width="6" height="6"/>
    </g>
    <g class="cls-63">
      <rect class="cls-23" x="274.1" y="190.81" width="6" height="6"/>
    </g>
    <g class="cls-92">
      <rect class="cls-23" x="316.4" y="164.59" width="6" height="6"/>
    </g>
    <g class="cls-46">
      <rect class="cls-23" x="358.69" y="138.09" width="6" height="6"/>
    </g>
    <g class="cls-118">
      <rect class="cls-23" x="400.98" y="103.61" width="6" height="6"/>
    </g>
  </g>
  <g class="cls-134">
    <polyline class="cls-16" points="65.63 271.1 107.93 258.54 150.22 240.12 192.51 221.74 234.81 198.07 277.1 173.51 319.4 144.53 361.69 113.65 403.98 74.17"/>
    <g class="cls-101">
      <path class="cls-15" d="M62.63,268.1l6,6M62.63,274.1l6-6"/>
    </g>
    <g class="cls-45">
      <path class="cls-15" d="M104.93,255.54l6,6M104.93,261.54l6-6"/>
    </g>
    <g class="cls-51">
      <path class="cls-15" d="M147.22,237.12l6,6M147.22,243.12l6-6"/>
    </g>
    <g class="cls-32">
      <path class="cls-15" d="M189.51,218.74l6,6M189.51,224.74l6-6"/>
    </g>
    <g class="cls-112">
      <path class="cls-15" d="M231.81,195.07l6,6M231.81,201.07l6-6"/>
    </g>
    <g class="cls-104">
      <path class="cls-15" d="M274.1,170.51l6,6M274.1,176.51l6-6"/>
    </g>
    <g class="cls-124">
      <path class="cls-15" d="M316.4,141.53l6,6M316.4,147.53l6-6"/>
    </g>
    <g class="cls-31">
      <path class="cls-15" d="M358.69,110.65l6,6M358.69,116.65l6-6"/>
    </g>
    <g class="cls-39">
      <path class="cls-15" d="M400.98,71.17l6,6M400.98,77.17l6-6"/>
    </g>
  </g>
  <g class="cls-82">
    <polyline class="cls-11" points="65.63 268.48 107.93 253.38 150.22 232.33 192.51 209.83 234.81 181.4 277.1 151.13 319.4 115.91 361.69 79.1 403.98 31.05"/>
    <g class="cls-89">
      <path class="cls-10" d="M65.63,271.48c.8,0,1.56-.32,2.12-.88.56-.56.88-1.33.88-2.12s-.32-1.56-.88-2.12c-.56-.56-1.33-.88-2.12-.88s-1.56.32-2.12.88c-.56.56-.88,1.33-.88,2.12s.32,1.56.88,2.12c.56.56,1.33.88,2.12.88Z"/>
    </g>
    <g class="cls-115">
      <path class="cls-10" d="M107.93,256.38c.8,0,1.56-.32,2.12-.88.56-.56.88-1.33.88-2.12s-.32-1.56-.88-2.12c-.56-.56-1.33-.88-2.12-.88s-1.56.32-2.12.88c-.56.56-.88,1.33-.88,2.12s.32,1.56.88,2.12c.56.56,1.33.88,2.12.88Z"/>
    </g>
    <g class="cls-55">
      <path class="cls-10" d="M150.22,235.33c.8,0,1.56-.32,2.12-.88.56-.56.88-1.33.88-2.12s-.32-1.56-.88-2.12c-.56-.56-1.33-.88-2.12-.88s-1.56.32-2.12.88c-.56.56-.88,1.33-.88,2.12s.32,1.56.88,2.12c.56.56,1.33.88,2.12.88Z"/>
    </g>
    <g class="cls-85">
      <path class="cls-10" d="M192.51,212.83c.8,0,1.56-.32,2.12-.88.56-.56.88-1.33.88-2.12s-.32-1.56-.88-2.12-1.33-.88-2.12-.88-1.56.32-2.12.88-.88,1.33-.88,2.12.32,1.56.88,2.12c.56.56,1.33.88,2.12.88Z"/>
    </g>
    <g class="cls-123">
      <path class="cls-10" d="M234.81,184.4c.8,0,1.56-.32,2.12-.88s.88-1.33.88-2.12-.32-1.56-.88-2.12-1.33-.88-2.12-.88-1.56.32-2.12.88-.88,1.33-.88,2.12.32,1.56.88,2.12,1.33.88,2.12.88Z"/>
    </g>
    <g class="cls-77">
      <path class="cls-10" d="M277.1,154.13c.8,0,1.56-.32,2.12-.88.56-.56.88-1.33.88-2.12s-.32-1.56-.88-2.12c-.56-.56-1.33-.88-2.12-.88s-1.56.32-2.12.88c-.56.56-.88,1.33-.88,2.12s.32,1.56.88,2.12c.56.56,1.33.88,2.12.88Z"/>
    </g>
    <g class="cls-70">
      <path class="cls-10" d="M319.4,118.91c.8,0,1.56-.32,2.12-.88.56-.56.88-1.33.88-2.12s-.32-1.56-.88-2.12c-.56-.56-1.33-.88-2.12-.88s-1.56.32-2.12.88c-.56.56-.88,1.33-.88,2.12s.32,1.56.88,2.12c.56.56,1.33.88,2.12.88Z"/>
    </g>
    <g class="cls-90">
      <path class="cls-10" d="M361.69,82.1c.8,0,1.56-.32,2.12-.88.56-.56.88-1.33.88-2.12s-.32-1.56-.88-2.12c-.56-.56-1.33-.88-2.12-.88s-1.56.32-2.12.88c-.56.56-.88,1.33-.88,2.12s.32,1.56.88,2.12c.56.56,1.33.88,2.12.88Z"/>
    </g>
    <g class="cls-59">
      <path class="cls-10" d="M403.98,34.05c.8,0,1.56-.32,2.12-.88.56-.56.88-1.33.88-2.12s-.32-1.56-.88-2.12c-.56-.56-1.33-.88-2.12-.88s-1.56.32-2.12.88c-.56.56-.88,1.33-.88,2.12s.32,1.56.88,2.12c.56.56,1.33.88,2.12.88Z"/>
    </g>
  </g>
  <g class="cls-48">
    <polyline class="cls-27" points="65.63 268.45 107.93 253.31 150.22 232.36 192.51 210.14 234.81 181.49 277.1 150.88 319.4 115.76 361.69 78.35 403.98 30.72"/>
    <g class="cls-135">
      <polygon class="cls-9" points="65.63 272.69 68.18 268.45 65.63 264.21 63.09 268.45 65.63 272.69"/>
    </g>
    <g class="cls-56">
      <polygon class="cls-9" points="107.93 257.55 110.47 253.31 107.93 249.07 105.38 253.31 107.93 257.55"/>
    </g>
    <g class="cls-43">
      <polygon class="cls-9" points="150.22 236.61 152.77 232.36 150.22 228.12 147.68 232.36 150.22 236.61"/>
    </g>
    <g class="cls-76">
      <polygon class="cls-9" points="192.51 214.38 195.06 210.14 192.51 205.9 189.97 210.14 192.51 214.38"/>
    </g>
    <g class="cls-129">
      <polygon class="cls-9" points="234.81 185.74 237.35 181.49 234.81 177.25 232.26 181.49 234.81 185.74"/>
    </g>
    <g class="cls-64">
      <polygon class="cls-9" points="277.1 155.12 279.65 150.88 277.1 146.64 274.56 150.88 277.1 155.12"/>
    </g>
    <g class="cls-44">
      <polygon class="cls-9" points="319.4 120 321.94 115.76 319.4 111.51 316.85 115.76 319.4 120"/>
    </g>
    <g class="cls-81">
      <polygon class="cls-9" points="361.69 82.59 364.24 78.35 361.69 74.1 359.14 78.35 361.69 82.59"/>
    </g>
    <g class="cls-47">
      <polygon class="cls-9" points="403.98 34.96 406.53 30.72 403.98 26.48 401.44 30.72 403.98 34.96"/>
    </g>
  </g>
  <line class="cls-21" x1="48.72" y1="295.32" x2="48.72" y2="18.12"/>
  <line class="cls-21" x1="420.9" y1="295.32" x2="420.9" y2="18.12"/>
  <line class="cls-21" x1="48.72" y1="295.32" x2="420.9" y2="295.32"/>
  <line class="cls-21" x1="48.72" y1="18.12" x2="420.9" y2="18.12"/>
  <g>
    <rect class="cls-35" x="55.72" y="25.12" width="253.53" height="106.93" rx="2.8" ry="2.8"/>
    <rect class="cls-17" x="55.72" y="25.12" width="253.53" height="106.93" rx="2.8" ry="2.8"/>
  </g>
  <polyline class="cls-18" points="61.32 36.46 75.32 36.46 89.32 36.46"/>
  <polygon class="cls-24" points="75.32 33.46 72.32 39.46 78.32 39.46 75.32 33.46"/>
  <polygon class="cls-34" points="101.89 31.16 103.95 31.16 106.55 38.1 109.17 31.16 111.23 31.16 111.23 41.36 109.88 41.36 109.88 32.4 107.25 39.4 105.86 39.4 103.23 32.4 103.23 41.36 101.89 41.36 101.89 31.16"/>
  <polygon class="cls-34" points="116.6 41.36 112.71 31.16 114.15 31.16 117.39 39.75 120.62 31.16 122.06 31.16 118.17 41.36 116.6 41.36"/>
  <rect class="cls-34" x="123.55" y="31.16" width="1.39" height="10.21"/>
  <path class="cls-34" d="M127.68,31.16h3.12c1.13,0,2,.27,2.59.78s.88,1.27.88,2.27-.29,1.78-.88,2.28c-.59.52-1.46.77-2.59.77h-1.74v4.1h-1.39v-10.21ZM129.06,32.29v3.84h1.74c.64,0,1.13-.15,1.48-.49.35-.34.53-.81.53-1.43s-.18-1.08-.53-1.41c-.35-.34-.84-.5-1.48-.5h-1.74Z"/>
  <polyline class="cls-26" points="61.32 57.01 75.32 57.01 89.32 57.01"/>
  <rect class="cls-23" x="72.32" y="54.01" width="6" height="6"/>
  <polygon class="cls-34" points="101.89 51.7 103.27 51.7 103.27 60.75 108.24 60.75 108.24 61.91 101.89 61.91 101.89 51.7"/>
  <polygon class="cls-34" points="109.69 51.7 115.55 51.7 115.55 52.87 111.07 52.87 111.07 55.88 115.12 55.88 115.12 57.04 111.07 57.04 111.07 61.91 109.69 61.91 109.69 51.7"/>
  <path class="cls-34" d="M117.58,51.7h1.39v6.2c0,1.09.2,1.89.59,2.37s1.04.71,1.93.71,1.53-.24,1.92-.71.6-1.27.6-2.37v-6.2h1.39v6.37c0,1.34-.34,2.34-.99,3.01-.66.67-1.62,1.01-2.91,1.01s-2.27-.34-2.93-1.01c-.66-.67-.98-1.67-.98-3.01v-6.37Z"/>
  <polyline class="cls-14" points="61.32 77.56 75.32 77.56 89.32 77.56"/>
  <path class="cls-15" d="M72.32,74.56l6,6M72.32,80.56l6-6"/>
  <polygon class="cls-34" points="101.89 72.25 103.27 72.25 103.27 81.29 108.24 81.29 108.24 82.46 101.89 82.46 101.89 72.25"/>
  <path class="cls-34" d="M111.07,73.38v3.63h1.74c.66,0,1.16-.15,1.5-.46.34-.31.52-.76.52-1.36s-.18-1.04-.52-1.34c-.34-.31-.84-.46-1.5-.46h-1.74ZM114.53,77.67c.29.11.59.32.87.64.28.34.56.78.84,1.36l1.4,2.79h-1.48l-1.3-2.62c-.34-.67-.67-1.13-.98-1.36-.32-.22-.76-.34-1.3-.34h-1.5v4.31h-1.39v-10.21h3.12c1.16,0,2.03.25,2.6.73.57.49.87,1.23.87,2.21,0,.64-.15,1.19-.45,1.61-.31.42-.74.71-1.3.87Z"/>
  <path class="cls-34" d="M119.26,72.25h1.39v6.2c0,1.09.2,1.89.59,2.37.39.48,1.04.71,1.93.71s1.53-.24,1.92-.71c.39-.48.6-1.27.6-2.37v-6.2h1.39v6.37c0,1.34-.34,2.34-.99,3.01-.66.67-1.62,1.01-2.91,1.01s-2.27-.34-2.93-1.01c-.66-.67-.98-1.67-.98-3.01v-6.37Z"/>
  <polyline class="cls-22" points="61.32 98.1 75.32 98.1 89.32 98.1"/>
  <polygon class="cls-9" points="75.32 102.35 77.86 98.1 75.32 93.86 72.77 98.1 75.32 102.35"/>
  <polygon class="cls-34" points="101.89 92.8 107.75 92.8 107.75 93.96 103.27 93.96 103.27 96.97 107.32 96.97 107.32 98.13 103.27 98.13 103.27 103 101.89 103 101.89 92.8"/>
  <rect class="cls-34" x="109.94" y="92.8" width="1.39" height="10.21"/>
  <polygon class="cls-34" points="114.07 92.8 119.93 92.8 119.93 93.96 115.45 93.96 115.45 96.97 119.5 96.97 119.5 98.13 115.45 98.13 115.45 103 114.07 103 114.07 92.8"/>
  <path class="cls-34" d="M126.26,92.62c1.43,0,2.56.49,3.43,1.44.85.95,1.29,2.24,1.29,3.85s-.43,2.9-1.29,3.85c-.87.95-2,1.43-3.43,1.43s-2.59-.48-3.44-1.43c-.87-.95-1.29-2.23-1.29-3.85s.42-2.9,1.29-3.85c.85-.95,2-1.44,3.44-1.44ZM126.26,93.74c-1.01,0-1.81.38-2.39,1.12-.59.76-.88,1.76-.88,3.05s.29,2.31.88,3.05c.59.76,1.39,1.12,2.39,1.12s1.79-.36,2.38-1.12c.59-.74.88-1.76.88-3.05s-.29-2.3-.88-3.05c-.59-.74-1.39-1.12-2.38-1.12Z"/>
  <polyline class="cls-20" points="61.32 118.65 75.32 118.65 89.32 118.65"/>
  <path class="cls-10" d="M75.32,121.65c.8,0,1.56-.32,2.12-.88.56-.56.88-1.33.88-2.12s-.32-1.56-.88-2.12c-.56-.56-1.33-.88-2.12-.88s-1.56.32-2.12.88c-.56.56-.88,1.33-.88,2.12s.32,1.56.88,2.12c.56.56,1.33.88,2.12.88Z"/>
  <path class="cls-34" d="M101.73,113.34h1.39v6.2c0,1.09.2,1.89.59,2.37s1.04.71,1.93.71,1.53-.24,1.92-.71.6-1.27.6-2.37v-6.2h1.39v6.37c0,1.34-.34,2.34-.99,3.01-.66.67-1.62,1.01-2.91,1.01s-2.27-.34-2.93-1.01c-.66-.67-.98-1.67-.98-3.01v-6.37Z"/>
  <polygon class="cls-34" points="112.14 113.34 114 113.34 118.52 121.88 118.52 113.34 119.86 113.34 119.86 123.55 118 123.55 113.48 115.01 113.48 123.55 112.14 123.55 112.14 113.34"/>
  <rect class="cls-34" x="122.61" y="113.34" width="1.39" height="10.21"/>
  <polygon class="cls-34" points="126.74 113.34 132.6 113.34 132.6 114.51 128.12 114.51 128.12 117.52 132.17 117.52 132.17 118.68 128.12 118.68 128.12 123.55 126.74 123.55 126.74 113.34"/>
  <polyline class="cls-13" points="145.93 36.46 159.93 36.46 173.93 36.46"/>
  <polygon class="cls-24" points="159.93 33.46 156.93 39.46 162.93 39.46 159.93 33.46"/>
  <polygon class="cls-34" points="189.14 41.36 185.25 31.16 186.69 31.16 189.92 39.75 193.16 31.16 194.6 31.16 190.71 41.36 189.14 41.36"/>
  <rect class="cls-34" x="196.08" y="31.16" width="1.39" height="10.21"/>
  <path class="cls-34" d="M200.21,31.16h3.12c1.13,0,2,.27,2.59.78s.88,1.27.88,2.27-.29,1.78-.88,2.28c-.59.52-1.46.77-2.59.77h-1.74v4.1h-1.39v-10.21ZM201.6,32.29v3.84h1.74c.64,0,1.13-.15,1.48-.49.35-.34.53-.81.53-1.43s-.18-1.08-.53-1.41c-.35-.34-.84-.5-1.48-.5h-1.74Z"/>
  <polyline class="cls-19" points="145.93 57.01 159.93 57.01 173.93 57.01"/>
  <rect class="cls-23" x="156.93" y="54.01" width="6" height="6"/>
  <polygon class="cls-34" points="186.51 51.7 187.89 51.7 187.89 60.75 192.86 60.75 192.86 61.91 186.51 61.91 186.51 51.7"/>
  <polygon class="cls-34" points="194.3 51.7 200.17 51.7 200.17 52.87 195.69 52.87 195.69 55.88 199.74 55.88 199.74 57.04 195.69 57.04 195.69 61.91 194.3 61.91 194.3 51.7"/>
  <path class="cls-34" d="M202.2,51.7h1.39v6.2c0,1.09.2,1.89.59,2.37s1.04.71,1.93.71,1.53-.24,1.92-.71c.39-.48.6-1.27.6-2.37v-6.2h1.39v6.37c0,1.34-.34,2.34-.99,3.01-.66.67-1.62,1.01-2.91,1.01s-2.27-.34-2.93-1.01-.98-1.67-.98-3.01v-6.37Z"/>
  <path class="cls-34" d="M220.02,51.28c-.62,1.06-1.06,2.1-1.36,3.12-.31,1.02-.45,2.06-.45,3.11s.14,2.1.45,3.12c.29,1.04.74,2.06,1.36,3.11h-1.09c-.69-1.08-1.2-2.11-1.54-3.15-.34-1.04-.5-2.06-.5-3.08s.17-2.03.5-3.07c.34-1.04.84-2.09,1.54-3.16h1.09Z"/>
  <path class="cls-34" d="M227.34,54.48v1.19c-.36-.17-.73-.31-1.11-.41-.39-.08-.78-.14-1.19-.14-.63,0-1.11.1-1.41.29-.31.2-.46.48-.46.85,0,.29.11.52.34.69s.67.34,1.34.48l.43.1c.9.2,1.53.48,1.9.81.36.35.56.84.56,1.46,0,.71-.28,1.27-.84,1.68-.56.42-1.34.62-2.32.62-.42,0-.84-.04-1.29-.11-.45-.07-.91-.18-1.4-.35v-1.3c.46.25.92.43,1.37.55.45.13.9.18,1.34.18.59,0,1.05-.1,1.37-.29.31-.2.48-.49.48-.87,0-.34-.13-.6-.35-.78-.22-.18-.73-.36-1.51-.53l-.43-.1c-.78-.17-1.36-.42-1.69-.76-.35-.34-.52-.8-.52-1.4,0-.71.25-1.27.76-1.67.5-.39,1.23-.59,2.18-.59.46,0,.9.04,1.32.11.41.07.78.17,1.13.29Z"/>
  <path class="cls-34" d="M229.75,51.27h1.26v1.6h-1.26v-1.6ZM229.75,54.25h1.26v7.66h-1.26v-7.66Z"/>
  <path class="cls-34" d="M240.01,57.29v4.62h-1.26v-4.58c0-.73-.15-1.26-.43-1.62-.28-.36-.7-.55-1.26-.55-.69,0-1.22.22-1.61.66-.39.43-.59,1.02-.59,1.76v4.33h-1.26v-7.66h1.26v1.19c.29-.45.64-.8,1.06-1.02.41-.22.88-.35,1.41-.35.87,0,1.54.28,1.99.83.45.55.69,1.34.69,2.39Z"/>
  <path class="cls-34" d="M248.82,60.96c0,1.29-.29,2.25-.87,2.9-.59.63-1.47.95-2.66.95-.45,0-.85-.04-1.25-.1-.39-.07-.78-.17-1.15-.31v-1.22c.36.2.73.34,1.09.43.36.1.73.15,1.11.15.81,0,1.43-.22,1.85-.64.41-.43.62-1.08.62-1.95v-.62c-.27.45-.6.78-1.01,1.01-.41.22-.88.34-1.44.34-.95,0-1.71-.35-2.28-1.06-.57-.71-.85-1.67-.85-2.86s.28-2.13.85-2.84c.57-.71,1.33-1.08,2.28-1.08.56,0,1.04.11,1.44.34.41.22.74.56,1.01,1.01v-1.16h1.26v6.71ZM247.56,57.99c0-.9-.2-1.61-.56-2.11-.38-.5-.91-.76-1.58-.76s-1.2.25-1.58.76c-.38.5-.56,1.22-.56,2.11s.18,1.61.56,2.11c.38.5.91.76,1.58.76s1.2-.25,1.58-.76c.36-.5.56-1.2.56-2.11Z"/>
  <rect class="cls-34" x="251.41" y="51.27" width="1.26" height="10.64"/>
  <path class="cls-34" d="M260.59,57.4c-.01-.69-.21-1.23-.57-1.65-.38-.41-.88-.62-1.5-.62-.7,0-1.26.21-1.68.6-.42.39-.67.95-.73,1.67h4.48ZM261.85,57.77v.62h-5.78c.06.87.31,1.54.78,1.99.46.45,1.11.67,1.95.67.48,0,.95-.06,1.4-.17s.91-.29,1.36-.55v1.19c-.45.2-.91.35-1.39.43-.48.08-.97.14-1.44.14-1.23,0-2.2-.35-2.91-1.05-.71-.7-1.06-1.67-1.06-2.88s.34-2.24,1.01-2.98c.67-.73,1.6-1.11,2.74-1.11,1.04,0,1.85.34,2.45.99.59.67.9,1.57.9,2.7Z"/>
  <rect class="cls-34" x="263.28" y="57.51" width="3.68" height="1.12"/>
  <path class="cls-34" d="M270.21,52.08v2.17h2.59v.98h-2.59v4.16c0,.63.08,1.04.25,1.2.17.18.52.27,1.05.27h1.29v1.05h-1.29c-.98,0-1.65-.18-2.02-.55-.36-.36-.55-1.02-.55-1.97v-4.16h-.92v-.98h.92v-2.17h1.26Z"/>
  <path class="cls-34" d="M274.45,51.27h1.26v1.6h-1.26v-1.6ZM274.45,54.25h1.26v7.66h-1.26v-7.66Z"/>
  <path class="cls-34" d="M283.64,57.4c-.01-.69-.21-1.23-.57-1.65-.38-.41-.88-.62-1.5-.62-.7,0-1.26.21-1.68.6-.42.39-.67.95-.73,1.67h4.48ZM284.9,57.77v.62h-5.78c.06.87.31,1.54.78,1.99.46.45,1.11.67,1.95.67.48,0,.95-.06,1.4-.17s.91-.29,1.36-.55v1.19c-.45.2-.91.35-1.39.43-.48.08-.97.14-1.44.14-1.23,0-2.2-.35-2.91-1.05-.71-.7-1.06-1.67-1.06-2.88s.34-2.24,1.01-2.98c.67-.73,1.6-1.11,2.74-1.11,1.04,0,1.85.34,2.45.99.59.67.9,1.57.9,2.7Z"/>
  <path class="cls-34" d="M291.39,55.43c-.14-.08-.29-.14-.46-.18-.17-.03-.35-.06-.55-.06-.71,0-1.26.24-1.64.7-.39.46-.57,1.12-.57,1.99v4.03h-1.26v-7.66h1.26v1.19c.25-.46.6-.81,1.02-1.04s.94-.34,1.55-.34c.08,0,.18.01.29.01.1.01.21.03.35.06v1.29Z"/>
  <path class="cls-34" d="M292.51,51.28h1.09c.67,1.08,1.19,2.13,1.53,3.16.34,1.04.52,2.06.52,3.07s-.18,2.04-.52,3.08c-.34,1.04-.85,2.07-1.53,3.15h-1.09c.6-1.05,1.05-2.07,1.36-3.11.29-1.02.45-2.06.45-3.12s-.15-2.09-.45-3.11c-.31-1.02-.76-2.06-1.36-3.12Z"/>
  <polyline class="cls-16" points="145.93 77.56 159.93 77.56 173.93 77.56"/>
  <path class="cls-15" d="M156.93,74.56l6,6M156.93,80.56l6-6"/>
  <polygon class="cls-34" points="186.51 72.25 187.89 72.25 187.89 81.29 192.86 81.29 192.86 82.46 186.51 82.46 186.51 72.25"/>
  <path class="cls-34" d="M195.69,73.38v3.63h1.74c.66,0,1.16-.15,1.5-.46.34-.31.52-.76.52-1.36s-.18-1.04-.52-1.34-.84-.46-1.5-.46h-1.74ZM199.15,77.67c.29.11.59.32.87.64.28.34.56.78.84,1.36l1.4,2.79h-1.48l-1.3-2.62c-.34-.67-.67-1.13-.98-1.36-.32-.22-.76-.34-1.3-.34h-1.5v4.31h-1.39v-10.21h3.12c1.16,0,2.03.25,2.6.73.57.49.87,1.23.87,2.21,0,.64-.15,1.19-.45,1.61-.31.42-.74.71-1.3.87Z"/>
  <path class="cls-34" d="M203.88,72.25h1.39v6.2c0,1.09.2,1.89.59,2.37.39.48,1.04.71,1.93.71s1.53-.24,1.92-.71c.39-.48.6-1.27.6-2.37v-6.2h1.39v6.37c0,1.34-.34,2.34-.99,3.01-.66.67-1.62,1.01-2.91,1.01s-2.27-.34-2.93-1.01-.98-1.67-.98-3.01v-6.37Z"/>
  <path class="cls-34" d="M221.7,71.83c-.62,1.06-1.06,2.1-1.36,3.12-.31,1.02-.45,2.06-.45,3.11s.14,2.1.45,3.12c.29,1.04.74,2.06,1.36,3.11h-1.09c-.69-1.08-1.2-2.11-1.54-3.15-.34-1.04-.5-2.06-.5-3.08s.17-2.03.5-3.07c.34-1.04.84-2.09,1.54-3.16h1.09Z"/>
  <path class="cls-34" d="M229.02,75.02v1.19c-.36-.17-.73-.31-1.11-.41-.39-.08-.78-.14-1.19-.14-.63,0-1.11.1-1.41.29-.31.2-.46.48-.46.85,0,.29.11.52.34.69s.67.34,1.34.48l.43.1c.9.2,1.53.48,1.9.81.36.35.56.84.56,1.46,0,.71-.28,1.27-.84,1.68-.56.42-1.34.62-2.32.62-.42,0-.84-.04-1.29-.11-.45-.07-.91-.18-1.4-.35v-1.3c.46.25.92.43,1.37.55.45.13.9.18,1.34.18.59,0,1.05-.1,1.37-.29.31-.2.48-.49.48-.87,0-.34-.13-.6-.35-.78s-.73-.36-1.51-.53l-.43-.1c-.78-.17-1.36-.42-1.69-.76-.35-.34-.52-.8-.52-1.4,0-.71.25-1.27.76-1.67.5-.39,1.23-.59,2.18-.59.46,0,.9.04,1.32.11.41.07.78.17,1.13.29Z"/>
  <path class="cls-34" d="M231.43,71.82h1.26v1.6h-1.26v-1.6ZM231.43,74.8h1.26v7.66h-1.26v-7.66Z"/>
  <path class="cls-34" d="M241.69,77.84v4.62h-1.26v-4.58c0-.73-.15-1.26-.43-1.62-.28-.36-.7-.55-1.26-.55-.69,0-1.22.22-1.61.66-.39.43-.59,1.02-.59,1.76v4.33h-1.26v-7.66h1.26v1.19c.29-.45.64-.8,1.06-1.02.41-.22.88-.35,1.41-.35.87,0,1.54.28,1.99.83.45.55.69,1.34.69,2.39Z"/>
  <path class="cls-34" d="M250.5,81.5c0,1.29-.29,2.25-.87,2.9-.59.63-1.47.95-2.66.95-.45,0-.85-.04-1.25-.1-.39-.07-.78-.17-1.15-.31v-1.22c.36.2.73.34,1.09.43.36.1.73.15,1.11.15.81,0,1.43-.22,1.85-.64.41-.43.62-1.08.62-1.95v-.62c-.27.45-.6.78-1.01,1.01-.41.22-.88.34-1.44.34-.95,0-1.71-.35-2.28-1.06-.57-.71-.85-1.67-.85-2.86s.28-2.13.85-2.84c.57-.71,1.33-1.08,2.28-1.08.56,0,1.04.11,1.44.34.41.22.74.56,1.01,1.01v-1.16h1.26v6.71ZM249.24,78.54c0-.9-.2-1.61-.56-2.11-.38-.5-.91-.76-1.58-.76s-1.2.25-1.58.76c-.38.5-.56,1.22-.56,2.11s.18,1.61.56,2.11c.38.5.91.76,1.58.76s1.2-.25,1.58-.76c.36-.5.56-1.2.56-2.11Z"/>
  <rect class="cls-34" x="253.09" y="71.82" width="1.26" height="10.64"/>
  <path class="cls-34" d="M262.27,77.95c-.01-.69-.21-1.23-.57-1.65-.38-.41-.88-.62-1.5-.62-.7,0-1.26.21-1.68.6-.42.39-.67.95-.73,1.67h4.48ZM263.53,78.31v.62h-5.78c.06.87.31,1.54.78,1.99.46.45,1.11.67,1.95.67.48,0,.95-.06,1.4-.17s.91-.29,1.36-.55v1.19c-.45.2-.91.35-1.39.43-.48.08-.97.14-1.44.14-1.23,0-2.2-.35-2.91-1.05-.71-.7-1.06-1.67-1.06-2.88s.34-2.24,1.01-2.98c.67-.73,1.6-1.11,2.74-1.11,1.04,0,1.85.34,2.45.99.59.67.9,1.57.9,2.7Z"/>
  <rect class="cls-34" x="264.96" y="78.06" width="3.68" height="1.12"/>
  <path class="cls-34" d="M271.89,72.63v2.17h2.59v.98h-2.59v4.16c0,.63.08,1.04.25,1.2.17.18.52.27,1.05.27h1.29v1.05h-1.29c-.98,0-1.65-.18-2.02-.55-.36-.36-.55-1.02-.55-1.97v-4.16h-.92v-.98h.92v-2.17h1.26Z"/>
  <path class="cls-34" d="M276.13,71.82h1.26v1.6h-1.26v-1.6ZM276.13,74.8h1.26v7.66h-1.26v-7.66Z"/>
  <path class="cls-34" d="M285.32,77.95c-.01-.69-.21-1.23-.57-1.65-.38-.41-.88-.62-1.5-.62-.7,0-1.26.21-1.68.6-.42.39-.67.95-.73,1.67h4.48ZM286.58,78.31v.62h-5.78c.06.87.31,1.54.78,1.99.46.45,1.11.67,1.95.67.48,0,.95-.06,1.4-.17s.91-.29,1.36-.55v1.19c-.45.2-.91.35-1.39.43-.48.08-.97.14-1.44.14-1.23,0-2.2-.35-2.91-1.05-.71-.7-1.06-1.67-1.06-2.88s.34-2.24,1.01-2.98c.67-.73,1.6-1.11,2.74-1.11,1.04,0,1.85.34,2.45.99.59.67.9,1.57.9,2.7Z"/>
  <path class="cls-34" d="M293.07,75.97c-.14-.08-.29-.14-.46-.18-.17-.03-.35-.06-.55-.06-.71,0-1.26.24-1.64.7-.39.46-.57,1.12-.57,1.99v4.03h-1.26v-7.66h1.26v1.19c.25-.46.6-.81,1.02-1.04s.94-.34,1.55-.34c.08,0,.18.01.29.01.1.01.21.03.35.06v1.29Z"/>
  <path class="cls-34" d="M294.19,71.83h1.09c.67,1.08,1.19,2.13,1.53,3.16.34,1.04.52,2.06.52,3.07s-.18,2.04-.52,3.08c-.34,1.04-.85,2.07-1.53,3.15h-1.09c.6-1.05,1.05-2.07,1.36-3.11.29-1.02.45-2.06.45-3.12s-.15-2.09-.45-3.11c-.31-1.02-.76-2.06-1.36-3.12Z"/>
  <polyline class="cls-27" points="145.93 98.1 159.93 98.1 173.93 98.1"/>
  <polygon class="cls-9" points="159.93 102.35 162.48 98.1 159.93 93.86 157.39 98.1 159.93 102.35"/>
  <polygon class="cls-34" points="186.51 92.8 192.37 92.8 192.37 93.96 187.89 93.96 187.89 96.97 191.94 96.97 191.94 98.13 187.89 98.13 187.89 103 186.51 103 186.51 92.8"/>
  <rect class="cls-34" x="194.56" y="92.8" width="1.39" height="10.21"/>
  <polygon class="cls-34" points="198.69 92.8 204.55 92.8 204.55 93.96 200.07 93.96 200.07 96.97 204.12 96.97 204.12 98.13 200.07 98.13 200.07 103 198.69 103 198.69 92.8"/>
  <path class="cls-34" d="M210.88,92.62c1.43,0,2.56.49,3.43,1.44.85.95,1.29,2.24,1.29,3.85s-.43,2.9-1.29,3.85c-.87.95-2,1.43-3.43,1.43s-2.59-.48-3.44-1.43c-.87-.95-1.29-2.23-1.29-3.85s.42-2.9,1.29-3.85c.85-.95,2-1.44,3.44-1.44ZM210.88,93.74c-1.01,0-1.81.38-2.39,1.12-.59.76-.88,1.76-.88,3.05s.29,2.31.88,3.05c.59.76,1.39,1.12,2.39,1.12s1.79-.36,2.38-1.12c.59-.74.88-1.76.88-3.05s-.29-2.3-.88-3.05c-.59-.74-1.39-1.12-2.38-1.12Z"/>
  <path class="cls-34" d="M225.17,92.38c-.62,1.06-1.06,2.1-1.36,3.12-.31,1.02-.45,2.06-.45,3.11s.14,2.1.45,3.12c.29,1.04.74,2.06,1.36,3.11h-1.09c-.69-1.08-1.2-2.11-1.54-3.15-.34-1.04-.5-2.06-.5-3.08s.17-2.03.5-3.07c.34-1.04.84-2.09,1.54-3.16h1.09Z"/>
  <path class="cls-34" d="M232.5,95.57v1.19c-.36-.17-.73-.31-1.11-.41-.39-.08-.78-.14-1.19-.14-.63,0-1.11.1-1.41.29s-.46.48-.46.85c0,.29.11.52.34.69s.67.34,1.34.48l.43.1c.9.2,1.53.48,1.9.81.36.35.56.84.56,1.46,0,.71-.28,1.27-.84,1.68-.56.42-1.34.62-2.32.62-.42,0-.84-.04-1.29-.11-.45-.07-.91-.18-1.4-.35v-1.3c.46.25.92.43,1.37.55.45.13.9.18,1.34.18.59,0,1.05-.1,1.37-.29.31-.2.48-.49.48-.87,0-.34-.13-.6-.35-.78-.22-.18-.73-.36-1.51-.53l-.43-.1c-.78-.17-1.36-.42-1.69-.76-.35-.34-.52-.8-.52-1.4,0-.71.25-1.27.76-1.67.5-.39,1.23-.59,2.18-.59.46,0,.9.04,1.32.11.41.07.78.17,1.13.29Z"/>
  <path class="cls-34" d="M234.9,92.36h1.26v1.6h-1.26v-1.6ZM234.9,95.35h1.26v7.66h-1.26v-7.66Z"/>
  <path class="cls-34" d="M245.17,98.38v4.62h-1.26v-4.58c0-.73-.15-1.26-.43-1.62s-.7-.55-1.26-.55c-.69,0-1.22.22-1.61.66-.39.43-.59,1.02-.59,1.76v4.33h-1.26v-7.66h1.26v1.19c.29-.45.64-.8,1.06-1.02.41-.22.88-.35,1.41-.35.87,0,1.54.28,1.99.83.45.55.69,1.34.69,2.39Z"/>
  <path class="cls-34" d="M253.97,102.05c0,1.29-.29,2.25-.87,2.9-.59.63-1.47.95-2.66.95-.45,0-.85-.04-1.25-.1-.39-.07-.78-.17-1.15-.31v-1.22c.36.2.73.34,1.09.43.36.1.73.15,1.11.15.81,0,1.43-.22,1.85-.64.41-.43.62-1.08.62-1.95v-.62c-.27.45-.6.78-1.01,1.01-.41.22-.88.34-1.44.34-.95,0-1.71-.35-2.28-1.06-.57-.71-.85-1.67-.85-2.86s.28-2.13.85-2.84c.57-.71,1.33-1.08,2.28-1.08.56,0,1.04.11,1.44.34.41.22.74.56,1.01,1.01v-1.16h1.26v6.71ZM252.71,99.08c0-.9-.2-1.61-.56-2.11-.38-.5-.91-.76-1.58-.76s-1.2.25-1.58.76c-.38.5-.56,1.22-.56,2.11s.18,1.61.56,2.11c.38.5.91.76,1.58.76s1.2-.25,1.58-.76c.36-.5.56-1.2.56-2.11Z"/>
  <rect class="cls-34" x="256.56" y="92.36" width="1.26" height="10.64"/>
  <path class="cls-34" d="M265.75,98.5c-.01-.69-.21-1.23-.57-1.65-.38-.41-.88-.62-1.5-.62-.7,0-1.26.21-1.68.6-.42.39-.67.95-.73,1.67h4.48ZM267.01,98.86v.62h-5.78c.06.87.31,1.54.78,1.99.46.45,1.11.67,1.95.67.48,0,.95-.06,1.4-.17s.91-.29,1.36-.55v1.19c-.45.2-.91.35-1.39.43-.48.08-.97.14-1.44.14-1.23,0-2.2-.35-2.91-1.05-.71-.7-1.06-1.67-1.06-2.88s.34-2.24,1.01-2.98c.67-.73,1.6-1.11,2.74-1.11,1.04,0,1.85.34,2.45.99.59.67.9,1.57.9,2.7Z"/>
  <rect class="cls-34" x="268.43" y="98.61" width="3.68" height="1.12"/>
  <path class="cls-34" d="M275.36,93.18v2.17h2.59v.98h-2.59v4.16c0,.63.08,1.04.25,1.2.17.18.52.27,1.05.27h1.29v1.05h-1.29c-.98,0-1.65-.18-2.02-.55-.36-.36-.55-1.02-.55-1.97v-4.16h-.92v-.98h.92v-2.17h1.26Z"/>
  <path class="cls-34" d="M279.61,92.36h1.26v1.6h-1.26v-1.6ZM279.61,95.35h1.26v7.66h-1.26v-7.66Z"/>
  <path class="cls-34" d="M288.79,98.5c-.01-.69-.21-1.23-.57-1.65-.38-.41-.88-.62-1.5-.62-.7,0-1.26.21-1.68.6-.42.39-.67.95-.73,1.67h4.48ZM290.05,98.86v.62h-5.78c.06.87.31,1.54.78,1.99.46.45,1.11.67,1.95.67.48,0,.95-.06,1.4-.17s.91-.29,1.36-.55v1.19c-.45.2-.91.35-1.39.43-.48.08-.97.14-1.44.14-1.23,0-2.2-.35-2.91-1.05-.71-.7-1.06-1.67-1.06-2.88s.34-2.24,1.01-2.98c.67-.73,1.6-1.11,2.74-1.11,1.04,0,1.85.34,2.45.99.59.67.9,1.57.9,2.7Z"/>
  <path class="cls-34" d="M296.55,96.52c-.14-.08-.29-.14-.46-.18-.17-.03-.35-.06-.55-.06-.71,0-1.26.24-1.64.7-.39.46-.57,1.12-.57,1.99v4.03h-1.26v-7.66h1.26v1.19c.25-.46.6-.81,1.02-1.04s.94-.34,1.55-.34c.08,0,.18.01.29.01.1.01.21.03.35.06v1.29Z"/>
  <path class="cls-34" d="M297.67,92.38h1.09c.67,1.08,1.19,2.13,1.53,3.16.34,1.04.52,2.06.52,3.07s-.18,2.04-.52,3.08c-.34,1.04-.85,2.07-1.53,3.15h-1.09c.6-1.05,1.05-2.07,1.36-3.11.29-1.02.45-2.06.45-3.12s-.15-2.09-.45-3.11c-.31-1.02-.76-2.06-1.36-3.12Z"/>
  <polyline class="cls-11" points="145.93 118.65 159.93 118.65 173.93 118.65"/>
  <path class="cls-10" d="M159.93,121.65c.8,0,1.56-.32,2.12-.88.56-.56.88-1.33.88-2.12s-.32-1.56-.88-2.12-1.33-.88-2.12-.88-1.56.32-2.12.88c-.56.56-.88,1.33-.88,2.12s.32,1.56.88,2.12c.56.56,1.33.88,2.12.88Z"/>
  <path class="cls-34" d="M186.35,113.34h1.39v6.2c0,1.09.2,1.89.59,2.37s1.04.71,1.93.71,1.53-.24,1.92-.71c.39-.48.6-1.27.6-2.37v-6.2h1.39v6.37c0,1.34-.34,2.34-.99,3.01-.66.67-1.62,1.01-2.91,1.01s-2.27-.34-2.93-1.01-.98-1.67-.98-3.01v-6.37Z"/>
  <polygon class="cls-34" points="196.75 113.34 198.62 113.34 203.14 121.88 203.14 113.34 204.48 113.34 204.48 123.55 202.62 123.55 198.1 115.01 198.1 123.55 196.75 123.55 196.75 113.34"/>
  <rect class="cls-34" x="207.23" y="113.34" width="1.39" height="10.21"/>
  <polygon class="cls-34" points="211.36 113.34 217.22 113.34 217.22 114.51 212.74 114.51 212.74 117.52 216.79 117.52 216.79 118.68 212.74 118.68 212.74 123.55 211.36 123.55 211.36 113.34"/>
  <path class="cls-34" d="M226.83,112.92c-.62,1.06-1.06,2.1-1.36,3.12-.31,1.02-.45,2.06-.45,3.11s.14,2.1.45,3.12c.29,1.04.74,2.06,1.36,3.11h-1.09c-.69-1.08-1.2-2.11-1.54-3.15-.34-1.04-.5-2.06-.5-3.08s.17-2.03.5-3.07c.34-1.04.84-2.09,1.54-3.16h1.09Z"/>
  <path class="cls-34" d="M234.15,116.12v1.19c-.36-.17-.73-.31-1.11-.41-.39-.08-.78-.14-1.19-.14-.63,0-1.11.1-1.41.29s-.46.48-.46.85c0,.29.11.52.34.69s.67.34,1.34.48l.43.1c.9.2,1.53.48,1.9.81.36.35.56.84.56,1.46,0,.71-.28,1.27-.84,1.68-.56.42-1.34.62-2.32.62-.42,0-.84-.04-1.29-.11-.45-.07-.91-.18-1.4-.35v-1.3c.46.25.92.43,1.37.55.45.13.9.18,1.34.18.59,0,1.05-.1,1.37-.29.31-.2.48-.49.48-.87,0-.34-.13-.6-.35-.78-.22-.18-.73-.36-1.51-.53l-.43-.1c-.78-.17-1.36-.42-1.69-.76-.35-.34-.52-.8-.52-1.4,0-.71.25-1.27.76-1.67.5-.39,1.23-.59,2.18-.59.46,0,.9.04,1.32.11.41.07.78.17,1.13.29Z"/>
  <path class="cls-34" d="M236.56,112.91h1.26v1.6h-1.26v-1.6ZM236.56,115.89h1.26v7.66h-1.26v-7.66Z"/>
  <path class="cls-34" d="M246.82,118.93v4.62h-1.26v-4.58c0-.73-.15-1.26-.43-1.62s-.7-.55-1.26-.55c-.69,0-1.22.22-1.61.66-.39.43-.59,1.02-.59,1.76v4.33h-1.26v-7.66h1.26v1.19c.29-.45.64-.8,1.06-1.02.41-.22.88-.35,1.41-.35.87,0,1.54.28,1.99.83.45.55.69,1.34.69,2.39Z"/>
  <path class="cls-34" d="M255.62,122.6c0,1.29-.29,2.25-.87,2.9-.59.63-1.47.95-2.66.95-.45,0-.85-.04-1.25-.1-.39-.07-.78-.17-1.15-.31v-1.22c.36.2.73.34,1.09.43.36.1.73.15,1.11.15.81,0,1.43-.22,1.85-.64.41-.43.62-1.08.62-1.95v-.62c-.27.45-.6.78-1.01,1.01-.41.22-.88.34-1.44.34-.95,0-1.71-.35-2.28-1.06-.57-.71-.85-1.67-.85-2.86s.28-2.13.85-2.84c.57-.71,1.33-1.08,2.28-1.08.56,0,1.04.11,1.44.34.41.22.74.56,1.01,1.01v-1.16h1.26v6.71ZM254.36,119.63c0-.9-.2-1.61-.56-2.11-.38-.5-.91-.76-1.58-.76s-1.2.25-1.58.76c-.38.5-.56,1.22-.56,2.11s.18,1.61.56,2.11c.38.5.91.76,1.58.76s1.2-.25,1.58-.76c.36-.5.56-1.2.56-2.11Z"/>
  <rect class="cls-34" x="258.21" y="112.91" width="1.26" height="10.64"/>
  <path class="cls-34" d="M267.4,119.04c-.01-.69-.21-1.23-.57-1.65-.38-.41-.88-.62-1.5-.62-.7,0-1.26.21-1.68.6-.42.39-.67.95-.73,1.67h4.48ZM268.66,119.41v.62h-5.78c.06.87.31,1.54.78,1.99.46.45,1.11.67,1.95.67.48,0,.95-.06,1.4-.17s.91-.29,1.36-.55v1.19c-.45.2-.91.35-1.39.43-.48.08-.97.14-1.44.14-1.23,0-2.2-.35-2.91-1.05-.71-.7-1.06-1.67-1.06-2.88s.34-2.24,1.01-2.98c.67-.73,1.6-1.11,2.74-1.11,1.04,0,1.85.34,2.45.99.59.67.9,1.57.9,2.7Z"/>
  <rect class="cls-34" x="270.09" y="119.15" width="3.68" height="1.12"/>
  <path class="cls-34" d="M277.02,113.72v2.17h2.59v.98h-2.59v4.16c0,.63.08,1.04.25,1.2.17.18.52.27,1.05.27h1.29v1.05h-1.29c-.98,0-1.65-.18-2.02-.55-.36-.36-.55-1.02-.55-1.97v-4.16h-.92v-.98h.92v-2.17h1.26Z"/>
  <path class="cls-34" d="M281.26,112.91h1.26v1.6h-1.26v-1.6ZM281.26,115.89h1.26v7.66h-1.26v-7.66Z"/>
  <path class="cls-34" d="M290.44,119.04c-.01-.69-.21-1.23-.57-1.65-.38-.41-.88-.62-1.5-.62-.7,0-1.26.21-1.68.6-.42.39-.67.95-.73,1.67h4.48ZM291.7,119.41v.62h-5.78c.06.87.31,1.54.78,1.99.46.45,1.11.67,1.95.67.48,0,.95-.06,1.4-.17s.91-.29,1.36-.55v1.19c-.45.2-.91.35-1.39.43-.48.08-.97.14-1.44.14-1.23,0-2.2-.35-2.91-1.05-.71-.7-1.06-1.67-1.06-2.88s.34-2.24,1.01-2.98c.67-.73,1.6-1.11,2.74-1.11,1.04,0,1.85.34,2.45.99.59.67.9,1.57.9,2.7Z"/>
  <path class="cls-34" d="M298.2,117.07c-.14-.08-.29-.14-.46-.18-.17-.03-.35-.06-.55-.06-.71,0-1.26.24-1.64.7-.39.46-.57,1.12-.57,1.99v4.03h-1.26v-7.66h1.26v1.19c.25-.46.6-.81,1.02-1.04s.94-.34,1.55-.34c.08,0,.18.01.29.01.1.01.21.03.35.06v1.29Z"/>
  <path class="cls-34" d="M299.32,112.92h1.09c.67,1.08,1.19,2.13,1.53,3.16.34,1.04.52,2.06.52,3.07s-.18,2.04-.52,3.08c-.34,1.04-.85,2.07-1.53,3.15h-1.09c.6-1.05,1.05-2.07,1.36-3.11.29-1.02.45-2.06.45-3.12s-.15-2.09-.45-3.11c-.31-1.02-.76-2.06-1.36-3.12Z"/>
</svg>