<svg xmlns="http://www.w3.org/2000/svg" xmlns:xlink="http://www.w3.org/1999/xlink" version="1.1" width="400.03419pt" height="316.76435pt" viewBox="0 0 400.03419 316.76435">
<defs>
<path id="font_0_51" d="M.28799439 .64105227C.28799439 .664032 .28799439 .66503909 .2679901 .66503909 .24398804 .6380615 .19400025 .6012573 .09098816 .6012573V.5722656C.11399841 .5722656 .1639862 .5722656 .21899414 .59825137V.07701111C.21899414 .041000368 .21598816 .0289917 .12799073 .0289917H.09700012V0C.12399292 .0019989014 .22099304 .0019989014 .2539978 .0019989014 .2869873 .0019989014 .3829956 .0019989014 .4099884 0V.0289917H.3789978C.29100038 .0289917 .28799439 .041000368 .28799439 .07701111V.64105227Z"/>
<path id="font_0_52" d="M.43998719 .16790772H.41799928C.4149933 .15092469 .40699769 .09597778 .39698792 .07998657 .3899994 .070999149 .33299256 .070999149 .30299378 .070999149H.117996219C.14498902 .09397888 .20599365 .15792847 .23199463 .18190003 .38398744 .3217926 .43998719 .37374879 .43998719 .47270204 .43998719 .5878906 .34899903 .66503909 .23298645 .66503909 .116989139 .66503909 .04899597 .5658264 .04899597 .4797058 .04899597 .42871095 .09298706 .42871095 .09599304 .42871095 .116989139 .42871095 .14299011 .44371034 .14299011 .475708 .14299011 .5037079 .12399292 .5227051 .09599304 .5227051 .08699036 .5227051 .084991458 .5227051 .08198547 .521698 .100997928 .5899048 .15499878 .6360321 .21998596 .6360321 .30499269 .6360321 .35699464 .56481936 .35699464 .47270204 .35699464 .3877411 .30799867 .313797 .25099183 .24984741L.04899597 .023986817V0H.4139862L.43998719 .16790772Z"/>
<path id="font_0_53" d="M.18399048 .35888673C.16699219 .35787965 .16299439 .35688783 .16299439 .34788514 .16299439 .33789063 .16799927 .33789063 .18598938 .33789063H.23199463C.31698609 .33789063 .35499574 .267807 .35499574 .17172241 .35499574 .04058838 .2869873 .005508423 .23799134 .005508423 .18998719 .005508423 .10798645 .028564454 .07899475 .09472656 .11099243 .08970642 .13999939 .10771179 .13999939 .14372254 .13999939 .17271424 .11898804 .1927185 .09098816 .1927185 .066986087 .1927185 .040985109 .1787262 .040985109 .14071656 .040985109 .051620485 .12998963-.021484375 .24099732-.021484375 .3600006-.021484375 .44799806 .06965637 .44799806 .17071533 .44799806 .26280213 .37399293 .33488465 .27799989 .35188294 .36499024 .3769226 .42099 .45011903 .42099 .5282135 .42099 .6071167 .33898927 .66503909 .24198914 .66503909 .14199829 .66503909 .067993167 .604126 .067993167 .5312042 .067993167 .49121095 .09899902 .48321534 .11399841 .48321534 .1349945 .48321534 .15899658 .49821473 .15899658 .5282135 .15899658 .5602112 .1349945 .57421877 .11299133 .57421877 .10699463 .57421877 .10499573 .57421877 .101989749 .57321169 .13999939 .641037 .23399353 .641037 .23899842 .641037 .27198792 .641037 .33699037 .6260681 .33699037 .5282135 .33699037 .5092163 .33399964 .453125 .30499269 .41001893 .2749939 .3658905 .24099732 .36288453 .21398926 .36187745L.18399048 .35888673Z"/>
<path id="font_1_86" d="M.3619995 .6273346H.44499208C.45700074 .6273346 .46899415 .6263275 .48098756 .6263275H.60598757V.69132998H.033996583V.6263275H.15899658C.17098999 .6263275 .18299866 .6273346 .19499207 .6273346H.27799989V0H.3619995V.6273346Z"/>
<path id="font_1_113" d="M.44198609 .21427918C.44198609 .3423462 .34700013 .4423828 .23498535 .4423828 .11999512 .4423828 .026992798 .33935548 .026992798 .21427918 .026992798 .08720398 .12298584-.0078125 .23399353-.0078125 .34799195-.0078125 .44198609 .0901947 .44198609 .21427918M.23498535 .05517578C.1639862 .05517578 .102996829 .113220218 .102996829 .22227478 .102996829 .3383484 .17399597 .38137818 .23399353 .38137818 .29899598 .38137818 .3659973 .3343506 .3659973 .22227478 .3659973 .10920715 .30099488 .05517578 .23498535 .05517578Z"/>
<path id="font_1_118" d="M.16699219 .37167359H.29699708V.4296875H.16699219V.5527344H.09599304V.4296875H.016998291V.37167359H.09399414V.11907959C.09399414 .062164308 .10699463-.0078125 .17298889-.0078125 .22299195-.0078125 .2689972 .0061798098 .31298829 .029174805L.29699708 .088134769C.272995 .06715393 .24398804 .05517578 .21299744 .05517578 .16899109 .05517578 .16699219 .11109924 .16699219 .13604737V.37167359Z"/>
<path id="font_1_99" d="M.37599183 .28334046C.37599183 .37738038 .30899049 .4423828 .21899414 .4423828 .1749878 .4423828 .1269989 .43437196 .07199097 .40237428L.07798767 .33636476C.102996829 .35437013 .1459961 .38337709 .21798706 .38337709 .2689972 .38337709 .2999878 .34436036 .2999878 .28234864V.24432373C.13999939 .2393341 .039993287 .19332886 .039993287 .11424255 .039993287 .07319641 .06498718-.0078125 .147995-.0078125 .16299439-.0078125 .24398804-.0058135988 .3019867 .03718567V.00018310547H.37599183V.28334046M.2999878 .13226319C.2999878 .11424255 .2999878 .09022522 .269989 .07220459 .24398804 .05517578 .21099854 .05317688 .19699097 .05317688 .14698792 .05317688 .11299133 .081207279 .11299133 .116241458 .11299133 .18632508 .2689972 .19332886 .2999878 .19433594V.13226319Z"/>
<path id="font_1_110" d="M.147995 .69433596H.07398987V0H.147995V.69433596Z"/>
<path id="font_1_82" d="M.32899476 .2890625C.44898988 .2890625 .5469971 .38209535 .5469971 .4921875 .5469971 .600296 .45298768 .69433596 .32299806 .69433596H.08898926V0H.17298889V.2890625H.32899476M.30099488 .6383209C.4169922 .6383209 .46798707 .56526187 .46798707 .4921875 .46798707 .4241333 .42099 .34706117 .30099488 .34706117H.17098999V.6383209H.30099488Z"/>
<path id="font_1_103" d="M.3909912 .21940613C.3909912 .2524109 .3889923 .316391 .35699464 .36938478 .32199098 .42637635 .2649994 .4423828 .22200012 .4423828 .117996219 .4423828 .02999878 .34439088 .02999878 .21740723 .02999878 .0932312 .12098694-.0078125 .23599243-.0078125 .2809906-.0078125 .33599855 .0051727297 .38598634 .04118347 .38598634 .045181276 .38398744 .06719971 .3829956 .06820679 .3829956 .07020569 .37998963 .101242069 .37998963 .10525513 .33198548 .06619263 .2769928 .05317688 .23699951 .05317688 .17298889 .05317688 .10398865 .10725403 .100997928 .21940613H.3909912M.10899353 .27441407C.12199402 .32939149 .1659851 .38137818 .22200012 .38137818 .23699951 .38137818 .30699159 .37937928 .32499696 .27441407H.10899353Z"/>
<path id="font_1_112" d="M.40899659 .2923584C.40899659 .35543824 .3939972 .43847657 .2809906 .43847657 .21699524 .43847657 .1749878 .4054718 .14698792 .37145997V.43347169H.07398987V0H.1499939V.24229431C.1499939 .30537416 .17399597 .37747193 .24198914 .37747193 .32998658 .37747193 .33299256 .3183899 .33299256 .28434754V0H.40899659V.2923584Z"/>
<path id="font_1_123" d="M.41799928 .4296875H.33999635C.25498963 .20074463 .22599793 .107788089 .22399903 .057800294H.22299195C.21998596 .106781009 .17599488 .2267456 .14099121 .31271363L.09399414 .4296875H.0129852299L.18998719-.00018310547C.1789856-.030166626 .16299439-.075149539 .1579895-.08514404 .13598633-.14112854 .12098694-.14112854 .10499573-.14112854 .100997928-.14112854 .068984989-.14013672 .032989503-.12913513L.038986207-.1951294C.06399536-.20013428 .08898926-.203125 .10699463-.203125 .13198853-.203125 .18199158-.203125 .22799683-.08015442L.41799928 .4296875Z"/>
<path id="font_2_3" d="M.3889923 .27801515 .18899536 .47720338C.1769867 .48919679 .1749878 .49121095 .16699219 .49121095 .15699768 .49121095 .14698792 .48220826 .14698792 .47120667 .14698792 .46420289 .14898682 .46218873 .1599884 .45118714L.3600006 .24998474 .1599884 .048797609C.14898682 .03779602 .14698792 .03578186 .14698792 .028778077 .14698792 .01777649 .15699768 .0087890629 .16699219 .0087890629 .1749878 .0087890629 .1769867 .010787964 .18899536 .022781373L.3880005 .2219696 .59498599 .014785767C.5970001 .0137786869 .60398867 .0087890629 .6100006 .0087890629 .621994 .0087890629 .6299896 .01777649 .6299896 .028778077 .6299896 .030776978 .6299896 .03479004 .6269989 .039794923 .6259918 .041793825 .46699525 .19894409 .4169922 .24998474L.59999087 .4331665C.6049957 .43917848 .6199951 .45217896 .625 .45819093 .6259918 .46018983 .6299896 .46420289 .6299896 .47120667 .6299896 .48220826 .621994 .49121095 .6100006 .49121095 .60198977 .49121095 .59799197 .48719789 .58699038 .4761963L.3889923 .27801515Z"/>
<path id="font_3_51" d="M.2939911 .64004519C.2939911 .66400149 .2939911 .6660156 .2709961 .6660156 .20899964 .60227969 .12098694 .60227969 .08898926 .60227969V.57128909C.10899353 .57128909 .16799927 .57128909 .21998596 .5972748V.07902527C.21998596 .042999269 .21699524 .0309906 .1269989 .0309906H.09498596V0C.12998963 .0029907227 .21699524 .0029907227 .25698854 .0029907227 .29699708 .0029907227 .38398744 .0029907227 .4189911 0V.0309906H.3869934C.29699708 .0309906 .2939911 .041992189 .2939911 .07902527V.64004519Z"/>
<path id="font_3_50" d="M.45999146 .31976319C.45999146 .39982606 .45498658 .47988893 .41999818 .5539398 .37399293 .65000918 .2919922 .6660156 .25 .6660156 .18998719 .6660156 .116989139 .64001467 .07598877 .54693606 .04399109 .47789 .038986207 .39982606 .038986207 .31976319 .038986207 .24472046 .042999269 .15464783 .083999637 .07859802 .1269989-.0024719239 .19999695-.022460938 .24899292-.022460938 .30299378-.022460938 .3789978-.0014648438 .4229889 .09359741 .45498658 .16265869 .45999146 .2407074 .45999146 .31976319M.24899292-.00047302247C.20999146-.00047302247 .15098572 .024551392 .1329956 .12062073 .12199402 .18066406 .12199402 .2727356 .12199402 .3317871 .12199402 .39582826 .12199402 .46188355 .12998963 .5159149 .14898682 .63500979 .22399903 .64401248 .24899292 .64401248 .28199769 .64401248 .34799195 .6259918 .36698915 .52693179 .3769989 .47088624 .3769989 .39482118 .3769989 .3317871 .3769989 .25672914 .3769989 .18867493 .3659973 .12461853 .35099793 .029556275 .2939911-.00047302247 .24899292-.00047302247Z"/>
<path id="font_4_53" d="M.272995 .33428956C.35099793 .33428956 .40699769 .2803192 .40699769 .1733551 .40699769 .04940796 .33499146 .012466431 .2769928 .012466431 .23699951 .012466431 .14898682 .0234375 .10699463 .082351688 .1539917 .084350589 .16499329 .11735535 .16499329 .13835144 .16499329 .17034912 .14099121 .19335938 .10998535 .19335938 .08198547 .19335938 .053985597 .17634583 .053985597 .13534546 .053985597 .041412355 .1579895-.01953125 .2789917-.01953125 .41799928-.01953125 .5139923 .07336426 .5139923 .1733551 .5139923 .2513275 .44999696 .32929994 .33999635 .35229493 .44499208 .39024354 .48298646 .4650879 .48298646 .5260773 .48298646 .60505679 .3919983 .6640625 .2809906 .6640625 .16999817 .6640625 .084991458 .61006167 .084991458 .5300751 .084991458 .49606324 .10699463 .47706605 .13699341 .47706605 .16799927 .47706605 .18798828 .5000763 .18798828 .5280762 .18798828 .5570679 .16799927 .57806399 .13699341 .5800781 .17199707 .62405398 .24099732 .63505557 .27799989 .63505557 .32299806 .63505557 .38598634 .6130676 .38598634 .5260773 .38598634 .48406983 .37199403 .43814088 .34599305 .4072113 .31298829 .36927796 .2849884 .3672943 .23498535 .36428834 .20999146 .3623047 .20799256 .3623047 .20298767 .3612976 .20098877 .3612976 .19299317 .3592987 .19299317 .34829713 .19299317 .33428956 .20199585 .33428956 .21899414 .33428956H.272995Z"/>
<path id="font_0_50" d="M.44799806 .31976319C.44799806 .40283204 .44299317 .48390199 .40699769 .55996707 .3659973 .64302065 .2939911 .66503909 .24499512 .66503909 .18699646 .66503909 .115997318 .63601687 .07899475 .552948 .050994874 .48989869 .040985109 .42785646 .040985109 .31976319 .040985109 .22268677 .04798889 .14962769 .083999637 .078567508 .12298584 .0025177003 .19198609-.021484375 .24398804-.021484375 .33099366-.021484375 .3809967 .030532837 .4099884 .08857727 .44599916 .16363526 .44799806 .26171876 .44799806 .31976319M.24398804-.0014953613C.21199036-.0014953613 .14698792 .016525269 .12799073 .12561035 .116989139 .18565369 .116989139 .26171876 .116989139 .33177186 .116989139 .41384889 .116989139 .48789979 .1329956 .5469513 .1499939 .6139984 .20098877 .6450348 .24398804 .6450348 .28199769 .6450348 .33999635 .6220093 .35899354 .53593447 .37199403 .4788971 .37199403 .39982606 .37199403 .33177186 .37199403 .26472474 .37199403 .18865967 .36099244 .12760926 .34199525 .01751709 .2789917-.0014953613 .24398804-.0014953613Z"/>
<path id="font_5_59" d="M.18399048 .04798889C.18399048 .07699585 .1599884 .09700012 .13598633 .09700012 .10699463 .09700012 .08699036 .07299805 .08699036 .04899597 .08699036 .019989014 .11099243 0 .1349945 0 .1639862 0 .18399048 .023986817 .18399048 .04798889Z"/>
<path id="font_0_58" d="M.2979889 .36079408C.34799195 .38781739 .42099 .43385316 .42099 .5179291 .42099 .6049957 .33699037 .66503909 .24499512 .66503909 .1459961 .66503909 .067993167 .59199526 .067993167 .5009155 .067993167 .46688844 .07798767 .43286134 .10598755 .39883424 .116989139 .38581849 .117996219 .38482667 .18798828 .3357849 .09098816 .29074098 .040985109 .22369385 .040985109 .15063477 .040985109 .044540407 .14199829-.021484375 .24398804-.021484375 .35499574-.021484375 .44799806 .060546876 .44799806 .16563416 .44799806 .2677307 .37599183 .3127594 .2979889 .36079408M.1619873 .4508667C.14898682 .45988465 .10899353 .48590089 .10899353 .5349426 .10899353 .59999087 .1769867 .641037 .24398804 .641037 .31599427 .641037 .37998963 .58898928 .37998963 .516922 .37998963 .45587159 .33599855 .4068451 .27799989 .3748169L.1619873 .4508667M.20899964 .32176209 .32998658 .2427063C.35598756 .22569275 .4019928 .19465637 .4019928 .13360596 .4019928 .057556154 .32499696 .005508423 .24499512 .005508423 .1599884 .005508423 .08699036 .06756592 .08699036 .15063477 .08699036 .22869873 .14399719 .29174806 .20899964 .32176209Z"/>
<path id="font_0_54" d="M.36099244 .6508026C.36099244 .6697998 .36099244 .6748047 .34700013 .6748047 .33898927 .6748047 .33599855 .6748047 .32798768 .662796L.026992798 .19598389V.16699219H.2899933V.07598877C.2899933 .038986207 .28799439 .0289917 .21499634 .0289917H.19499207V0C.21798706 .0019989014 .29699708 .0019989014 .32499696 .0019989014 .35299684 .0019989014 .43299867 .0019989014 .45599366 0V.0289917H.43598939C.3639984 .0289917 .36099244 .038986207 .36099244 .07598877V.16699219H.46199037V.19598389H.36099244V.6508026M.29499818 .5728302V.19598389H.051986696L.29499818 .5728302Z"/>
<path id="font_0_56" d="M.12298584 .34773255C.12298584 .60061648 .24598694 .641037 .2999878 .641037 .33599855 .641037 .37199403 .62991335 .3909912 .5996094 .3789978 .5996094 .34098817 .5996094 .34098817 .558609 .34098817 .53660586 .35598756 .51760867 .38198854 .51760867 .40699769 .51760867 .42399598 .53260806 .42399598 .56159976 .42399598 .6137543 .38598634 .66503909 .29899598 .66503909 .17298889 .66503909 .040985109 .53559878 .040985109 .31570436 .040985109 .040527345 .16099549-.021484375 .24598694-.021484375 .35499574-.021484375 .44799806 .07354736 .44799806 .2036438 .44799806 .33673097 .35499574 .42578126 .25498963 .42578126 .1659851 .42578126 .1329956 .34873963 .12298584 .32070924V.34773255M.24598694 .005508423C.18299866 .005508423 .15299988 .061538698 .14399719 .08256531 .1349945 .10858154 .125 .15760803 .125 .22766114 .125 .30670167 .16099549 .40577699 .25099183 .40577699 .30599977 .40577699 .33499146 .3687439 .34999085 .33473207 .3659973 .29769898 .3659973 .2476654 .3659973 .20463562 .3659973 .15361023 .3659973 .10858154 .34700013 .07055664 .32199098 .022521973 .28599549 .005508423 .24598694 .005508423Z"/>
<path id="font_1_70" d="M.08898926 .69433596V0H.33499146C.49899293 0 .625 .15405274 .625 .341156 .625 .53427127 .49899293 .69433596 .33499146 .69433596H.08898926M.17098999 .055999757V.6383209H.31298829C.44699098 .6383209 .54299929 .5152588 .54299929 .341156 .54299929 .174057 .44799806 .055999757 .31298829 .055999757H.17098999Z"/>
<path id="font_1_41" d="M.2519989 .74902346C.19799805 .6940155 .07398987 .5660095 .07398987 .25 .07398987-.06700134 .19799805-.19400025 .2519989-.25H.31298829C.18998719-.12200928 .1499939 .056991579 .1499939 .24899292 .1499939 .44000245 .18798828 .6200104 .31298829 .74902346H.2519989Z"/>
<path id="font_1_117" d="M.32199098 .41236878C.2630005 .44036866 .21699524 .4423828 .18699646 .4423828 .115997318 .4423828 .0309906 .41737367 .0309906 .31632997 .0309906 .215271 .14099121 .19326782 .17098999 .18725586 .21699524 .17825318 .2679901 .16824341 .2679901 .1182251 .2679901 .05517578 .19599915 .05517578 .18299866 .05517578 .14299011 .05517578 .08799744 .06619263 .037994386 .10220337L.025985718 .035186769C.08299255 .0021820069 .13798523-.0078125 .18399048-.0078125 .30699159-.0078125 .33799745 .06718445 .33799745 .1242218 .33799745 .17324829 .30999757 .20626831 .29100038 .22128296 .2579956 .2472992 .24598694 .25028993 .1639862 .26730348 .1499939 .26930238 .100997928 .2803192 .100997928 .3253479 .100997928 .38237 .1639862 .38237 .17799378 .38237 .24299622 .38237 .2829895 .36236573 .30999757 .34735108L.32199098 .41236878Z"/>
<path id="font_1_101" d="M.3849945 .3993683C.3849945 .40637208 .33898927 .42637635 .32699586 .43037416 .2939911 .4423828 .2519989 .4423828 .24099732 .4423828 .11099243 .4423828 .032989503 .3293457 .032989503 .215271 .032989503 .095199588 .11999512-.0078125 .23699951-.0078125 .3039856-.0078125 .35198976 .014175415 .3909912 .04017639L.3849945 .10621643C.34199525 .07319641 .2919922 .05517578 .23799134 .05517578 .1599884 .05517578 .10899353 .12321472 .10899353 .21627808 .10899353 .28831483 .14199829 .37937928 .24198914 .37937928 .29699708 .37937928 .32798768 .36836244 .37399293 .3373413L.3849945 .3993683Z"/>
<path id="font_1_42" d="M.11299133-.25C.16699219-.19500733 .29100038-.06700134 .29100038 .24899292 .29100038 .5660095 .16699219 .6930084 .11299133 .74902346H.051986696C.1749878 .6210022 .21499634 .44200135 .21499634 .25 .21499634 .05899048 .1769867-.1210022 .051986696-.25H.11299133Z"/>
<path id="font_4_54" d="M.5289917 .1640625V.20005799H.41799928V.64582827C.41799928 .66682437 .41799928 .6738281 .3959961 .6738281 .38398744 .6738281 .37998963 .6738281 .36999513 .65982058L.038986207 .20005799V.1640625H.33299256V.08201599C.33299256 .04800415 .33299256 .035995485 .2519989 .035995485H.22499085V0C.2749939 .0019989014 .33898927 .0039978029 .375 .0039978029 .4119873 .0039978029 .47599793 .0019989014 .526001 0V.035995485H.49899293C.41799928 .035995485 .41799928 .04800415 .41799928 .08201599V.1640625H.5289917M.33999635 .5658722V.20005799H.07598877L.33999635 .5658722Z"/>
<clipPath id="clip_6">
<path transform="matrix(1,0,0,-1,0,316.76435)" d="M58.034189 50.081697H392.83418V299.5617H58.034189Z"/>
</clipPath>
<clipPath id="clip_7">
<path transform="matrix(1,0,0,-1,377.616,241.4971)" d="M-8-8H8V8H-8Z"/>
</clipPath>
<clipPath id="clip_8">
<path transform="matrix(1,0,0,-1,258.6189,231.94379)" d="M-8-8H8V8H-8Z"/>
</clipPath>
<clipPath id="clip_9">
<path transform="matrix(1,0,0,-1,227.04227,222.93036)" d="M-8-8H8V8H-8Z"/>
</clipPath>
<clipPath id="clip_10">
<path transform="matrix(1,0,0,-1,210.57175,209.88715)" d="M-8-8H8V8H-8Z"/>
</clipPath>
<clipPath id="clip_11">
<path transform="matrix(1,0,0,-1,198.8767,185.32555)" d="M-8-8H8V8H-8Z"/>
</clipPath>
<clipPath id="clip_12">
<path transform="matrix(1,0,0,-1,190.98253,184.73653)" d="M-8-8H8V8H-8Z"/>
</clipPath>
<clipPath id="clip_13">
<path transform="matrix(1,0,0,-1,180.6519,167.31287)" d="M-8-8H8V8H-8Z"/>
</clipPath>
<clipPath id="clip_14">
<path transform="matrix(1,0,0,-1,164.86359,152.82134)" d="M-8-8H8V8H-8Z"/>
</clipPath>
<clipPath id="clip_15">
<path transform="matrix(1,0,0,-1,152.7787,121.37253)" d="M-8-8H8V8H-8Z"/>
</clipPath>
<clipPath id="clip_16">
<path transform="matrix(1,0,0,-1,145.95659,106.07286)" d="M-8-8H8V8H-8Z"/>
</clipPath>
<clipPath id="clip_17">
<path transform="matrix(1,0,0,-1,121.5919,93.94395)" d="M-8-8H8V8H-8Z"/>
</clipPath>
<clipPath id="clip_18">
<path transform="matrix(1,0,0,-1,114.574878,66.885349)" d="M-8-8H8V8H-8Z"/>
</clipPath>
<clipPath id="clip_19">
<path transform="matrix(1,0,0,-1,107.75276,45.762079)" d="M-8-8H8V8H-8Z"/>
</clipPath>
<clipPath id="clip_20">
<path transform="matrix(1,0,0,-1,101.905239,28.542647)" d="M-8-8H8V8H-8Z"/>
</clipPath>
<clipPath id="clip_21">
<path transform="matrix(1,0,0,-1,0,316.76435)" d="M58.034189 50.081697H392.83418V299.5617H58.034189Z"/>
</clipPath>
<clipPath id="clip_22">
<path transform="matrix(1,0,0,-1,372.54817,255.34265)" d="M-8-8H8V8H-8Z"/>
</clipPath>
<clipPath id="clip_23">
<path transform="matrix(1,0,0,-1,308.51777,248.947)" d="M-8-8H8V8H-8Z"/>
</clipPath>
<clipPath id="clip_24">
<path transform="matrix(1,0,0,-1,266.80543,243.29058)" d="M-8-8H8V8H-8Z"/>
</clipPath>
<clipPath id="clip_25">
<path transform="matrix(1,0,0,-1,226.65242,230.25992)" d="M-8-8H8V8H-8Z"/>
</clipPath>
<clipPath id="clip_26">
<path transform="matrix(1,0,0,-1,205.79625,225.31667)" d="M-8-8H8V8H-8Z"/>
</clipPath>
<clipPath id="clip_27">
<path transform="matrix(1,0,0,-1,183.18582,216.99192)" d="M-8-8H8V8H-8Z"/>
</clipPath>
<clipPath id="clip_28">
<path transform="matrix(1,0,0,-1,163.69408,204.78064)" d="M-8-8H8V8H-8Z"/>
</clipPath>
<clipPath id="clip_29">
<path transform="matrix(1,0,0,-1,145.17691,198.64513)" d="M-8-8H8V8H-8Z"/>
</clipPath>
<clipPath id="clip_30">
<path transform="matrix(1,0,0,-1,128.21909,179.90018)" d="M-8-8H8V8H-8Z"/>
</clipPath>
<clipPath id="clip_31">
<path transform="matrix(1,0,0,-1,121.98173,182.70842)" d="M-8-8H8V8H-8Z"/>
</clipPath>
<clipPath id="clip_32">
<path transform="matrix(1,0,0,-1,119.252887,173.94242)" d="M-8-8H8V8H-8Z"/>
</clipPath>
<clipPath id="clip_33">
<path transform="matrix(1,0,0,-1,98.2018,151.20207)" d="M-8-8H8V8H-8Z"/>
</clipPath>
<clipPath id="clip_34">
<path transform="matrix(1,0,0,-1,94.8882,148.32143)" d="M-8-8H8V8H-8Z"/>
</clipPath>
<clipPath id="clip_35">
<path transform="matrix(1,0,0,-1,91.379688,140.5879)" d="M-8-8H8V8H-8Z"/>
</clipPath>
<clipPath id="clip_36">
<path transform="matrix(1,0,0,-1,89.82034,125.056789)" d="M-8-8H8V8H-8Z"/>
</clipPath>
<clipPath id="clip_37">
<path transform="matrix(1,0,0,-1,77.73546,105.059658)" d="M-8-8H8V8H-8Z"/>
</clipPath>
<clipPath id="clip_38">
<path transform="matrix(1,0,0,-1,76.76087,93.97974)" d="M-8-8H8V8H-8Z"/>
</clipPath>
<clipPath id="clip_39">
<path transform="matrix(1,0,0,-1,74.8117,92.70696)" d="M-8-8H8V8H-8Z"/>
</clipPath>
<clipPath id="clip_40">
<path transform="matrix(1,0,0,-1,73.25236,73.40828)" d="M-8-8H8V8H-8Z"/>
</clipPath>
<path id="font_1_78" d="M.26098634 .06498718C.24899292 .06498718 .23699951 .06399536 .22499085 .06399536H.17199707V.69433596H.08799744V0H.46899415V.06498718H.26098634Z"/>
<path id="font_1_72" d="M.45599366 .31640626V.37739564H.17199707V.6283264H.2939911C.30599977 .6283264 .31799317 .6273346 .32998658 .6273346H.49499513V.6923218H.08799744V0H.17199707V.31640626H.45599366Z"/>
<path id="font_1_87" d="M.5549927 .69433596H.47898866V.23236084C.47898866 .099365238 .397995 .040374757 .32398988 .040374757 .24798584 .040374757 .17199707 .102371219 .17199707 .23135376V.69433596H.08799744V.23335266C.08799744 .08937073 .19898987-.015625 .32299806-.015625 .44699098-.015625 .5549927 .08937073 .5549927 .23335266V.69433596Z"/>
<path id="font_1_45" d="M.16999817 .0009918213V.07998657H.08999634V0H.114990238L.08898926-.125H.1289978L.16999817 .0009918213Z"/>
<path id="font_5_77" d="M.36698915 .6056366C.37599183 .6436157 .3789978 .6536102 .46699525 .6536102 .49398805 .6536102 .5009918 .6536102 .5009918 .6726074 .5009918 .6826172 .48999024 .6826172 .48599244 .6826172 .46598817 .6826172 .44299317 .680603 .4229889 .680603H.2889862C.269989 .680603 .24798584 .6826172 .22898865 .6826172 .22099304 .6826172 .20999146 .6826172 .20999146 .66360476 .20999146 .6536102 .21899414 .6536102 .23399353 .6536102 .29499818 .6536102 .29499818 .6456146 .29499818 .6346283 .29499818 .6326294 .29499818 .6266327 .29100038 .6116333L.1559906 .07395935C.14698792 .038986207 .14498902 .0289917 .07499695 .0289917 .055999757 .0289917 .04598999 .0289917 .04598999 .010986328 .04598999 0 .051986696 0 .07199097 0H.519989C.5419922 0 .54299929 .0009918213 .5499878 .018997193L.6269989 .23187256C.6289978 .23686219 .6309967 .24285889 .6309967 .24586487 .6309967 .25186158 .6259918 .25585938 .62098696 .25585938 .6199951 .25585938 .61499026 .25585938 .61299136 .25186158 .61099246 .2508545 .61099246 .24885559 .6029968 .22987366 .57099917 .141922 .526001 .0289917 .35699464 .0289917H.26098634C.24699402 .0289917 .24499512 .0289917 .23899842 .02999878 .22799683 .0309906 .22698975 .032989503 .22698975 .040985109 .22698975 .047973634 .22898865 .053970338 .23098755 .06297302L.36698915 .6056366Z"/>
<path id="font_5_111" d="M.20599365 .29335023C.20799256 .29934693 .23298645 .34936524 .269989 .38137818 .29599 .4053955 .32998658 .42140199 .36898805 .42140199 .40899659 .42140199 .4229889 .39138795 .4229889 .35136415 .4229889 .29434205 .38198854 .18029785 .3619995 .12628174 .35299684 .102264408 .34799195 .089263919 .34799195 .071258548 .34799195 .026229859 .3789978-.009765625 .4269867-.009765625 .519989-.009765625 .5549927 .13728333 .5549927 .14328003 .5549927 .14828491 .5509949 .15228272 .54499819 .15228272 .5359955 .15228272 .5349884 .14929199 .5299988 .13227844 .5069885 .050247194 .46899415 .010223389 .42999269 .010223389 .41999818 .010223389 .4039917 .011230469 .4039917 .04324341 .4039917 .06825256 .4149933 .0982666 .42099 .11227417 .44099427 .16729737 .48298646 .27934266 .48298646 .33636476 .48298646 .39639283 .44799806 .44140626 .37199403 .44140626 .2829895 .44140626 .23599243 .37838746 .21798706 .35336305 .21499634 .4104004 .17399597 .44140626 .12998963 .44140626 .09799194 .44140626 .07598877 .4223938 .05899048 .38838197 .040985109 .35237123 .026992798 .29234315 .026992798 .28834535 .026992798 .28434754 .0309906 .27934266 .037994386 .27934266 .04598999 .27934266 .04699707 .28033448 .052993776 .30334474 .068984989 .36437989 .08699036 .42140199 .1269989 .42140199 .1499939 .42140199 .1579895 .4053955 .1579895 .37538148 .1579895 .35336305 .147995 .31436158 .14099121 .28334046L.11299133 .17529297C.10899353 .15628052 .09799194 .11126709 .09298706 .09326172 .085998538 .06724548 .07499695 .020233155 .07499695 .0152282719 .07499695 .0012207031 .085998538-.009765625 .100997928-.009765625 .11299133-.009765625 .1269989-.003768921 .1349945 .011230469 .13699341 .016235352 .1459961 .051239015 .15098572 .071258548L.17298889 .1612854 .20599365 .29335023Z"/>
<path id="font_3_52" d="M.1269989 .07699585 .23298645 .18003845C.3889923 .31811524 .44898988 .3721466 .44898988 .47216798 .44898988 .5860901 .35899354 .6660156 .23699951 .6660156 .12399292 .6660156 .049987794 .57411196 .049987794 .48516847 .049987794 .4291687 .099990848 .4291687 .102996829 .4291687 .11999512 .4291687 .15499878 .44117738 .15499878 .48217774 .15499878 .5081787 .13699341 .5341797 .101989749 .5341797 .09399414 .5341797 .09199524 .5341797 .08898926 .5331726 .11199951 .59806826 .1659851 .63500979 .22399903 .63500979 .31498719 .63500979 .35798646 .5541382 .35798646 .47216798 .35798646 .39215089 .30799867 .31311036 .25299073 .25108338L.06098938 .036987306C.049987794 .025985718 .049987794 .023986817 .049987794 0H.42099L.44898988 .17404175H.42399598C.4189911 .14402771 .4119873 .1000061 .4019928 .084991458 .394989 .07699585 .32899476 .07699585 .30699159 .07699585H.1269989Z"/>
<path id="font_41_63" d="M.6429901 .32128907C.6579895 .32128907 .6729889 .32128907 .6729889 .33828736 .6729889 .35627748 .6559906 .35627748 .6389923 .35627748H.07998657C.06298828 .35627748 .04598999 .35627748 .04598999 .33828736 .04598999 .32128907 .06098938 .32128907 .07598877 .32128907H.6429901M.6389923 .14273072C.6559906 .14273072 .6729889 .14273072 .6729889 .16072083 .6729889 .17773438 .6579895 .17773438 .6429901 .17773438H.07598877C.06098938 .17773438 .04598999 .17773438 .04598999 .16072083 .04598999 .14273072 .06298828 .14273072 .07998657 .14273072H.6389923Z"/>
<path id="font_41_55" d="M.11399841 .58535769C.12399292 .5813446 .16499329 .5683594 .20698548 .5683594 .2999878 .5683594 .35099793 .61834719 .37998963 .64715579 .37998963 .65515139 .37998963 .66015627 .37399293 .66015627 .37298585 .66015627 .37098695 .66015627 .36299134 .6561432 .32798768 .6411438 .2869873 .62934878 .23699951 .62934878 .20698548 .62934878 .1619873 .6332855 .11299133 .65515139 .101989749 .66015627 .099990848 .66015627 .09899902 .66015627 .09399414 .66015627 .09298706 .65914919 .09298706 .63916018V.34931947C.09298706 .33129884 .09298706 .32629396 .102996829 .32629396 .10798645 .32629396 .10998535 .32829286 .114990238 .33529664 .14698792 .3803711 .19099427 .39941407 .24099732 .39941407 .27598573 .39941407 .35099793 .3773651 .35099793 .20610047 .35099793 .17408753 .35099793 .116119388 .32099916 .07022095 .29599 .029312134 .25698854 .008361816 .21398926 .008361816 .147995 .008361816 .08099365 .054260255 .06298828 .13108826 .066986087 .13009644 .07499695 .12809754 .07899475 .12809754 .09199524 .12809754 .116989139 .13510132 .116989139 .16609192 .116989139 .19309998 .09799194 .20410156 .07899475 .20410156 .055999757 .20410156 .040985109 .190094 .040985109 .16209412 .040985109 .07521057 .10998535-.015625 .21598816-.015625 .31900025-.015625 .4169922 .07322693 .4169922 .2020874 .4169922 .32228089 .33898927 .41540528 .24198914 .41540528 .19099427 .41540528 .147995 .39640809 .11399841 .3603363V.58535769Z"/>
<path id="font_41_50" d="M.41999818 .3212433C.41999818 .38223268 .4189911 .4861908 .3769989 .5661621 .33999635 .6361389 .2809906 .6611328 .22898865 .6611328 .18099976 .6611328 .11999512 .63912966 .08198547 .56715396 .041992189 .4921875 .037994386 .3992157 .037994386 .3212433 .037994386 .26426698 .038986207 .17730713 .069992069 .10133362 .11299133-.0016326904 .18998719-.015625 .22898865-.015625 .2749939-.015625 .34498597 .0033721924 .38598634 .09832764 .41600038 .16731262 .41999818 .24827576 .41999818 .3212433M.22898865 .00036621095C.16499329 .00036621095 .1269989 .055343629 .11299133 .13131714 .101989749 .19029236 .101989749 .27626039 .101989749 .33224488 .101989749 .4092102 .101989749 .4731903 .114990238 .5341644 .13398743 .6191406 .18998719 .64512637 .22898865 .64512637 .269989 .64512637 .32299806 .61813357 .34199525 .53616335 .35499574 .479187 .35598756 .4122162 .35598756 .33224488 .35598756 .26727296 .35598756 .18730164 .34399415 .12832642 .32299806 .019363404 .2639923 .00036621095 .22898865 .00036621095Z"/>
<path id="font_1_88" d="M.61099246 .69433596H.5329895L.3600006 .21409607C.35499574 .2000885 .32398988 .10803223 .31799317 .07601929H.31698609C.30899049 .11404419 .2769928 .20307923 .2599945 .2521057L.14399719 .5772705 .100997928 .69433596H.0129852299L.2679901 0H.35598756L.61099246 .69433596Z"/>
<path id="font_1_75" d="M.17098999 .69433596H.08699036V0H.17098999V.69433596Z"/>
<path id="font_41_51" d="M.2659912 .63912966C.2659912 .66012576 .2649994 .6611328 .25099183 .6611328 .21199036 .61424258 .15299988 .5993042 .09700012 .5973053 .09399414 .5973053 .08898926 .5973053 .08799744 .5953064 .08699036 .5933075 .08699036 .5913086 .08699036 .5703125 .117996219 .5703125 .16999817 .5763092 .20999146 .600296V.073013309C.20999146 .037994386 .20799256 .025985718 .12199402 .025985718H.09199524V0C.13999939 .0009918213 .18998719 .0019989014 .23799134 .0019989014 .28599549 .0019989014 .33599855 .0009918213 .38398744 0V.025985718H.35398866C.2679901 .025985718 .2659912 .037002565 .2659912 .073013309V.63912966Z"/>
</defs>
<path transform="matrix(1,0,0,-1,0,316.76435)" d="M0 0H400.03419V316.76435H0Z" fill="#ffffff"/>
<path transform="matrix(1,0,0,-1,0,316.76435)" d="M58.034189 50.081697H392.8342V299.5617H58.034189Z" fill="#ffffff"/>
<path transform="matrix(1,0,0,-1,0,316.76435)" d="M119.25289 50.081697V46.581697"/>
<path transform="matrix(1,0,0,-1,0,316.76435)" stroke-width=".8" stroke-linecap="butt" stroke-linejoin="round" fill="none" stroke="#000000" d="M119.25289 50.081697V46.581697"/>
<use data-text="1" xlink:href="#font_0_51" transform="matrix(15.940224,0,0,-15.940224,115.3509,284.75224)"/>
<path transform="matrix(1,0,0,-1,0,316.76435)" d="M216.71163 50.081697V46.581697"/>
<path transform="matrix(1,0,0,-1,0,316.76435)" stroke-width=".8" stroke-linecap="butt" stroke-linejoin="round" fill="none" stroke="#000000" d="M216.71163 50.081697V46.581697"/>
<use data-text="2" xlink:href="#font_0_52" transform="matrix(15.940224,0,0,-15.940224,212.80963,284.75224)"/>
<path transform="matrix(1,0,0,-1,0,316.76435)" d="M314.17039 50.081697V46.581697"/>
<path transform="matrix(1,0,0,-1,0,316.76435)" stroke-width=".8" stroke-linecap="butt" stroke-linejoin="round" fill="none" stroke="#000000" d="M314.17039 50.081697V46.581697"/>
<use data-text="3" xlink:href="#font_0_53" transform="matrix(15.940224,0,0,-15.940224,310.26838,284.75224)"/>
<use data-text="T" xlink:href="#font_1_86" transform="matrix(19.92528,0,0,-19.92528,173.10143,305.68873)"/>
<use data-text="o" xlink:href="#font_1_113" transform="matrix(19.92528,0,0,-19.92528,184.29216,305.68873)"/>
<use data-text="t" xlink:href="#font_1_118" transform="matrix(19.92528,0,0,-19.92528,193.65705,305.68873)"/>
<use data-text="a" xlink:href="#font_1_99" transform="matrix(19.92528,0,0,-19.92528,200.41172,305.68873)"/>
<use data-text="l" xlink:href="#font_1_110" transform="matrix(19.92528,0,0,-19.92528,209.37808,305.68873)"/>
<use data-text="P" xlink:href="#font_1_82" transform="matrix(19.92528,0,0,-19.92528,220.04732,305.68873)"/>
<use data-text="e" xlink:href="#font_1_103" transform="matrix(19.92528,0,0,-19.92528,231.46207,305.68873)"/>
<use data-text="n" xlink:href="#font_1_112" transform="matrix(19.92528,0,0,-19.92528,239.7709,305.68873)"/>
<use data-text="a" xlink:href="#font_1_99" transform="matrix(19.92528,0,0,-19.92528,249.39482,305.68873)"/>
<use data-text="l" xlink:href="#font_1_110" transform="matrix(19.92528,0,0,-19.92528,258.3612,305.68873)"/>
<use data-text="t" xlink:href="#font_1_118" transform="matrix(19.92528,0,0,-19.92528,262.7846,305.68873)"/>
<use data-text="y" xlink:href="#font_1_123" transform="matrix(19.92528,0,0,-19.92528,269.01878,305.68873)"/>
<use data-text="&#x00d7;" xlink:href="#font_2_3" transform="matrix(9.96264,0,0,-9.96264,371.15156,297.85438)"/>
<use data-text="1" xlink:href="#font_3_51" transform="matrix(9.96264,0,0,-9.96264,378.9003,297.85438)"/>
<use data-text="0" xlink:href="#font_3_50" transform="matrix(9.96264,0,0,-9.96264,383.88163,297.85438)"/>
<use data-text="3" xlink:href="#font_4_53" transform="matrix(6.973848,0,0,-6.973848,388.86299,294.239)"/>
<path transform="matrix(1,0,0,-1,0,316.76435)" d="M58.034189 85.78382H54.534189"/>
<path transform="matrix(1,0,0,-1,0,316.76435)" stroke-width=".8" stroke-linecap="butt" stroke-linejoin="round" fill="none" stroke="#000000" d="M58.034189 85.78382H54.534189"/>
<use data-text="0" xlink:href="#font_0_50" transform="matrix(15.940224,0,0,-15.940224,31.090666,236.51532)"/>
<use data-text="." xlink:href="#font_5_59" transform="matrix(15.940224,0,0,-15.940224,38.894655,236.51532)"/>
<use data-text="8" xlink:href="#font_0_58" transform="matrix(15.940224,0,0,-15.940224,43.2302,236.51532)"/>
<path transform="matrix(1,0,0,-1,0,316.76435)" d="M58.034189 121.959079H54.534189"/>
<path transform="matrix(1,0,0,-1,0,316.76435)" stroke-width=".8" stroke-linecap="butt" stroke-linejoin="round" fill="none" stroke="#000000" d="M58.034189 121.959079H54.534189"/>
<use data-text="1" xlink:href="#font_0_51" transform="matrix(15.940224,0,0,-15.940224,31.090666,200.34006)"/>
<use data-text="." xlink:href="#font_5_59" transform="matrix(15.940224,0,0,-15.940224,38.894655,200.34006)"/>
<use data-text="0" xlink:href="#font_0_50" transform="matrix(15.940224,0,0,-15.940224,43.2302,200.34006)"/>
<path transform="matrix(1,0,0,-1,0,316.76435)" d="M58.034189 158.13433H54.534189"/>
<path transform="matrix(1,0,0,-1,0,316.76435)" stroke-width=".8" stroke-linecap="butt" stroke-linejoin="round" fill="none" stroke="#000000" d="M58.034189 158.13433H54.534189"/>
<use data-text="1" xlink:href="#font_0_51" transform="matrix(15.940224,0,0,-15.940224,31.090666,164.16481)"/>
<use data-text="." xlink:href="#font_5_59" transform="matrix(15.940224,0,0,-15.940224,38.894655,164.16481)"/>
<use data-text="2" xlink:href="#font_0_52" transform="matrix(15.940224,0,0,-15.940224,43.2302,164.16481)"/>
<path transform="matrix(1,0,0,-1,0,316.76435)" d="M58.034189 194.30957H54.534189"/>
<path transform="matrix(1,0,0,-1,0,316.76435)" stroke-width=".8" stroke-linecap="butt" stroke-linejoin="round" fill="none" stroke="#000000" d="M58.034189 194.30957H54.534189"/>
<use data-text="1" xlink:href="#font_0_51" transform="matrix(15.940224,0,0,-15.940224,31.090666,127.98956)"/>
<use data-text="." xlink:href="#font_5_59" transform="matrix(15.940224,0,0,-15.940224,38.894655,127.98956)"/>
<use data-text="4" xlink:href="#font_0_54" transform="matrix(15.940224,0,0,-15.940224,43.2302,127.98956)"/>
<path transform="matrix(1,0,0,-1,0,316.76435)" d="M58.034189 230.48484H54.534189"/>
<path transform="matrix(1,0,0,-1,0,316.76435)" stroke-width=".8" stroke-linecap="butt" stroke-linejoin="round" fill="none" stroke="#000000" d="M58.034189 230.48484H54.534189"/>
<use data-text="1" xlink:href="#font_0_51" transform="matrix(15.940224,0,0,-15.940224,31.090666,91.814319)"/>
<use data-text="." xlink:href="#font_5_59" transform="matrix(15.940224,0,0,-15.940224,38.894655,91.814319)"/>
<use data-text="6" xlink:href="#font_0_56" transform="matrix(15.940224,0,0,-15.940224,43.2302,91.814319)"/>
<path transform="matrix(1,0,0,-1,0,316.76435)" d="M58.034189 266.6601H54.534189"/>
<path transform="matrix(1,0,0,-1,0,316.76435)" stroke-width=".8" stroke-linecap="butt" stroke-linejoin="round" fill="none" stroke="#000000" d="M58.034189 266.6601H54.534189"/>
<use data-text="1" xlink:href="#font_0_51" transform="matrix(15.940224,0,0,-15.940224,31.090666,55.63907)"/>
<use data-text="." xlink:href="#font_5_59" transform="matrix(15.940224,0,0,-15.940224,38.894655,55.63907)"/>
<use data-text="8" xlink:href="#font_0_58" transform="matrix(15.940224,0,0,-15.940224,43.2302,55.63907)"/>
<use data-text="T" xlink:href="#font_1_86" transform="matrix(0,-19.92528,-19.92528,-0,22.126023,209.44155)"/>
<use data-text="o" xlink:href="#font_1_113" transform="matrix(0,-19.92528,-19.92528,-0,22.126023,198.25083)"/>
<use data-text="t" xlink:href="#font_1_118" transform="matrix(0,-19.92528,-19.92528,-0,22.126023,188.88593)"/>
<use data-text="a" xlink:href="#font_1_99" transform="matrix(0,-19.92528,-19.92528,-0,22.126023,182.13126)"/>
<use data-text="l" xlink:href="#font_1_110" transform="matrix(0,-19.92528,-19.92528,-0,22.126023,173.16489)"/>
<use data-text="D" xlink:href="#font_1_70" transform="matrix(0,-19.92528,-19.92528,-0,22.126023,162.49565)"/>
<use data-text="e" xlink:href="#font_1_103" transform="matrix(0,-19.92528,-19.92528,-0,22.126023,149.00624)"/>
<use data-text="l" xlink:href="#font_1_110" transform="matrix(0,-19.92528,-19.92528,-0,22.126023,140.6974)"/>
<use data-text="a" xlink:href="#font_1_99" transform="matrix(0,-19.92528,-19.92528,-0,22.126023,136.27399)"/>
<use data-text="y" xlink:href="#font_1_123" transform="matrix(0,-19.92528,-19.92528,-0,22.126023,127.82811)"/>
<use data-text="(" xlink:href="#font_1_41" transform="matrix(0,-19.92528,-19.92528,-0,22.126023,112.99449)"/>
<use data-text="s" xlink:href="#font_1_117" transform="matrix(0,-19.92528,-19.92528,-0,22.126023,105.72177)"/>
<use data-text="e" xlink:href="#font_1_103" transform="matrix(0,-19.92528,-19.92528,-0,22.126023,98.548679)"/>
<use data-text="c" xlink:href="#font_1_101" transform="matrix(0,-19.92528,-19.92528,-0,22.126023,90.23984)"/>
<use data-text=")" xlink:href="#font_1_42" transform="matrix(0,-19.92528,-19.92528,-0,22.126023,81.931)"/>
<use data-text="&#x00d7;" xlink:href="#font_2_3" transform="matrix(9.96264,0,0,-9.96264,58.034189,14.202637)"/>
<use data-text="1" xlink:href="#font_3_51" transform="matrix(9.96264,0,0,-9.96264,65.78293,14.202637)"/>
<use data-text="0" xlink:href="#font_3_50" transform="matrix(9.96264,0,0,-9.96264,70.76425,14.202637)"/>
<use data-text="4" xlink:href="#font_4_54" transform="matrix(6.973848,0,0,-6.973848,75.7456,10.58728)"/>
<g clip-path="url(#clip_6)">
<path transform="matrix(1,0,0,-1,0,316.76435)" stroke-width="1.5" stroke-linecap="square" stroke-linejoin="round" fill="none" stroke="#008000" d="M377.616 75.267238 258.6189 84.82056 227.04225 93.83398 210.57173 106.87719 198.87668 131.43878 190.98253 132.02782 180.6519 149.45148 164.86359 163.94301 152.7787 195.3918 145.95659 210.69149 121.5919 222.82039 114.574878 249.879 107.75276 271.00227 101.905239 288.2217"/>
<g clip-path="url(#clip_7)">
<path transform="matrix(1,0,0,-1,377.616,241.4971)" d="M-3-3 3 3M-3 3 3-3" fill="#008000"/>
<path transform="matrix(1,0,0,-1,377.616,241.4971)" stroke-width="1" stroke-linecap="butt" stroke-linejoin="round" fill="none" stroke="#008000" d="M-3-3 3 3M-3 3 3-3"/>
</g>
<g clip-path="url(#clip_8)">
<path transform="matrix(1,0,0,-1,258.6189,231.94379)" d="M-3-3 3 3M-3 3 3-3" fill="#008000"/>
<path transform="matrix(1,0,0,-1,258.6189,231.94379)" stroke-width="1" stroke-linecap="butt" stroke-linejoin="round" fill="none" stroke="#008000" d="M-3-3 3 3M-3 3 3-3"/>
</g>
<g clip-path="url(#clip_9)">
<path transform="matrix(1,0,0,-1,227.04227,222.93036)" d="M-3-3 3 3M-3 3 3-3" fill="#008000"/>
<path transform="matrix(1,0,0,-1,227.04227,222.93036)" stroke-width="1" stroke-linecap="butt" stroke-linejoin="round" fill="none" stroke="#008000" d="M-3-3 3 3M-3 3 3-3"/>
</g>
<g clip-path="url(#clip_10)">
<path transform="matrix(1,0,0,-1,210.57175,209.88715)" d="M-3-3 3 3M-3 3 3-3" fill="#008000"/>
<path transform="matrix(1,0,0,-1,210.57175,209.88715)" stroke-width="1" stroke-linecap="butt" stroke-linejoin="round" fill="none" stroke="#008000" d="M-3-3 3 3M-3 3 3-3"/>
</g>
<g clip-path="url(#clip_11)">
<path transform="matrix(1,0,0,-1,198.8767,185.32555)" d="M-3-3 3 3M-3 3 3-3" fill="#008000"/>
<path transform="matrix(1,0,0,-1,198.8767,185.32555)" stroke-width="1" stroke-linecap="butt" stroke-linejoin="round" fill="none" stroke="#008000" d="M-3-3 3 3M-3 3 3-3"/>
</g>
<g clip-path="url(#clip_12)">
<path transform="matrix(1,0,0,-1,190.98253,184.73653)" d="M-3-3 3 3M-3 3 3-3" fill="#008000"/>
<path transform="matrix(1,0,0,-1,190.98253,184.73653)" stroke-width="1" stroke-linecap="butt" stroke-linejoin="round" fill="none" stroke="#008000" d="M-3-3 3 3M-3 3 3-3"/>
</g>
<g clip-path="url(#clip_13)">
<path transform="matrix(1,0,0,-1,180.6519,167.31287)" d="M-3-3 3 3M-3 3 3-3" fill="#008000"/>
<path transform="matrix(1,0,0,-1,180.6519,167.31287)" stroke-width="1" stroke-linecap="butt" stroke-linejoin="round" fill="none" stroke="#008000" d="M-3-3 3 3M-3 3 3-3"/>
</g>
<g clip-path="url(#clip_14)">
<path transform="matrix(1,0,0,-1,164.86359,152.82134)" d="M-3-3 3 3M-3 3 3-3" fill="#008000"/>
<path transform="matrix(1,0,0,-1,164.86359,152.82134)" stroke-width="1" stroke-linecap="butt" stroke-linejoin="round" fill="none" stroke="#008000" d="M-3-3 3 3M-3 3 3-3"/>
</g>
<g clip-path="url(#clip_15)">
<path transform="matrix(1,0,0,-1,152.7787,121.37253)" d="M-3-3 3 3M-3 3 3-3" fill="#008000"/>
<path transform="matrix(1,0,0,-1,152.7787,121.37253)" stroke-width="1" stroke-linecap="butt" stroke-linejoin="round" fill="none" stroke="#008000" d="M-3-3 3 3M-3 3 3-3"/>
</g>
<g clip-path="url(#clip_16)">
<path transform="matrix(1,0,0,-1,145.95659,106.07286)" d="M-3-3 3 3M-3 3 3-3" fill="#008000"/>
<path transform="matrix(1,0,0,-1,145.95659,106.07286)" stroke-width="1" stroke-linecap="butt" stroke-linejoin="round" fill="none" stroke="#008000" d="M-3-3 3 3M-3 3 3-3"/>
</g>
<g clip-path="url(#clip_17)">
<path transform="matrix(1,0,0,-1,121.5919,93.94395)" d="M-3-3 3 3M-3 3 3-3" fill="#008000"/>
<path transform="matrix(1,0,0,-1,121.5919,93.94395)" stroke-width="1" stroke-linecap="butt" stroke-linejoin="round" fill="none" stroke="#008000" d="M-3-3 3 3M-3 3 3-3"/>
</g>
<g clip-path="url(#clip_18)">
<path transform="matrix(1,0,0,-1,114.574878,66.885349)" d="M-3-3 3 3M-3 3 3-3" fill="#008000"/>
<path transform="matrix(1,0,0,-1,114.574878,66.885349)" stroke-width="1" stroke-linecap="butt" stroke-linejoin="round" fill="none" stroke="#008000" d="M-3-3 3 3M-3 3 3-3"/>
</g>
<g clip-path="url(#clip_19)">
<path transform="matrix(1,0,0,-1,107.75276,45.762079)" d="M-3-3 3 3M-3 3 3-3" fill="#008000"/>
<path transform="matrix(1,0,0,-1,107.75276,45.762079)" stroke-width="1" stroke-linecap="butt" stroke-linejoin="round" fill="none" stroke="#008000" d="M-3-3 3 3M-3 3 3-3"/>
</g>
<g clip-path="url(#clip_20)">
<path transform="matrix(1,0,0,-1,101.905239,28.542647)" d="M-3-3 3 3M-3 3 3-3" fill="#008000"/>
<path transform="matrix(1,0,0,-1,101.905239,28.542647)" stroke-width="1" stroke-linecap="butt" stroke-linejoin="round" fill="none" stroke="#008000" d="M-3-3 3 3M-3 3 3-3"/>
</g>
</g>
<g clip-path="url(#clip_21)">
<path transform="matrix(1,0,0,-1,0,316.76435)" stroke-width="1.5" stroke-linecap="square" stroke-linejoin="round" fill="none" stroke="#ff0000" d="M372.54817 61.421697 308.51777 67.817348 266.80543 73.47377 226.65242 86.50442 205.79625 91.44768 183.18582 99.77242 163.69408 111.9837 145.17691 118.119228 128.2191 136.86417 121.981739 134.05593 119.25289 142.82193 98.201808 165.56227 94.88821 168.44293 91.37969 176.17646 89.82036 191.70757 77.73547 211.7047 76.76089 222.78462 74.81171 224.05739 73.25237 243.35608"/>
<g clip-path="url(#clip_22)">
<path transform="matrix(1,0,0,-1,372.54817,255.34265)" d="M0-3C.795609-3 1.55874-2.683901 2.12132-2.12132 2.683901-1.55874 3-.795609 3 0 3 .795609 2.683901 1.55874 2.12132 2.12132 1.55874 2.683901 .795609 3 0 3-.795609 3-1.55874 2.683901-2.12132 2.12132-2.683901 1.55874-3 .795609-3 0-3-.795609-2.683901-1.55874-2.12132-2.12132-1.55874-2.683901-.795609-3 0-3Z" fill="#ff0000"/>
<path transform="matrix(1,0,0,-1,372.54817,255.34265)" stroke-width="1" stroke-linecap="butt" stroke-linejoin="round" fill="none" stroke="#ff0000" d="M0-3C.795609-3 1.55874-2.683901 2.12132-2.12132 2.683901-1.55874 3-.795609 3 0 3 .795609 2.683901 1.55874 2.12132 2.12132 1.55874 2.683901 .795609 3 0 3-.795609 3-1.55874 2.683901-2.12132 2.12132-2.683901 1.55874-3 .795609-3 0-3-.795609-2.683901-1.55874-2.12132-2.12132-1.55874-2.683901-.795609-3 0-3Z"/>
</g>
<g clip-path="url(#clip_23)">
<path transform="matrix(1,0,0,-1,308.51777,248.947)" d="M0-3C.795609-3 1.55874-2.683901 2.12132-2.12132 2.683901-1.55874 3-.795609 3 0 3 .795609 2.683901 1.55874 2.12132 2.12132 1.55874 2.683901 .795609 3 0 3-.795609 3-1.55874 2.683901-2.12132 2.12132-2.683901 1.55874-3 .795609-3 0-3-.795609-2.683901-1.55874-2.12132-2.12132-1.55874-2.683901-.795609-3 0-3Z" fill="#ff0000"/>
<path transform="matrix(1,0,0,-1,308.51777,248.947)" stroke-width="1" stroke-linecap="butt" stroke-linejoin="round" fill="none" stroke="#ff0000" d="M0-3C.795609-3 1.55874-2.683901 2.12132-2.12132 2.683901-1.55874 3-.795609 3 0 3 .795609 2.683901 1.55874 2.12132 2.12132 1.55874 2.683901 .795609 3 0 3-.795609 3-1.55874 2.683901-2.12132 2.12132-2.683901 1.55874-3 .795609-3 0-3-.795609-2.683901-1.55874-2.12132-2.12132-1.55874-2.683901-.795609-3 0-3Z"/>
</g>
<g clip-path="url(#clip_24)">
<path transform="matrix(1,0,0,-1,266.80543,243.29058)" d="M0-3C.795609-3 1.55874-2.683901 2.12132-2.12132 2.683901-1.55874 3-.795609 3 0 3 .795609 2.683901 1.55874 2.12132 2.12132 1.55874 2.683901 .795609 3 0 3-.795609 3-1.55874 2.683901-2.12132 2.12132-2.683901 1.55874-3 .795609-3 0-3-.795609-2.683901-1.55874-2.12132-2.12132-1.55874-2.683901-.795609-3 0-3Z" fill="#ff0000"/>
<path transform="matrix(1,0,0,-1,266.80543,243.29058)" stroke-width="1" stroke-linecap="butt" stroke-linejoin="round" fill="none" stroke="#ff0000" d="M0-3C.795609-3 1.55874-2.683901 2.12132-2.12132 2.683901-1.55874 3-.795609 3 0 3 .795609 2.683901 1.55874 2.12132 2.12132 1.55874 2.683901 .795609 3 0 3-.795609 3-1.55874 2.683901-2.12132 2.12132-2.683901 1.55874-3 .795609-3 0-3-.795609-2.683901-1.55874-2.12132-2.12132-1.55874-2.683901-.795609-3 0-3Z"/>
</g>
<g clip-path="url(#clip_25)">
<path transform="matrix(1,0,0,-1,226.65242,230.25992)" d="M0-3C.795609-3 1.55874-2.683901 2.12132-2.12132 2.683901-1.55874 3-.795609 3 0 3 .795609 2.683901 1.55874 2.12132 2.12132 1.55874 2.683901 .795609 3 0 3-.795609 3-1.55874 2.683901-2.12132 2.12132-2.683901 1.55874-3 .795609-3 0-3-.795609-2.683901-1.55874-2.12132-2.12132-1.55874-2.683901-.795609-3 0-3Z" fill="#ff0000"/>
<path transform="matrix(1,0,0,-1,226.65242,230.25992)" stroke-width="1" stroke-linecap="butt" stroke-linejoin="round" fill="none" stroke="#ff0000" d="M0-3C.795609-3 1.55874-2.683901 2.12132-2.12132 2.683901-1.55874 3-.795609 3 0 3 .795609 2.683901 1.55874 2.12132 2.12132 1.55874 2.683901 .795609 3 0 3-.795609 3-1.55874 2.683901-2.12132 2.12132-2.683901 1.55874-3 .795609-3 0-3-.795609-2.683901-1.55874-2.12132-2.12132-1.55874-2.683901-.795609-3 0-3Z"/>
</g>
<g clip-path="url(#clip_26)">
<path transform="matrix(1,0,0,-1,205.79625,225.31667)" d="M0-3C.795609-3 1.55874-2.683901 2.12132-2.12132 2.683901-1.55874 3-.795609 3 0 3 .795609 2.683901 1.55874 2.12132 2.12132 1.55874 2.683901 .795609 3 0 3-.795609 3-1.55874 2.683901-2.12132 2.12132-2.683901 1.55874-3 .795609-3 0-3-.795609-2.683901-1.55874-2.12132-2.12132-1.55874-2.683901-.795609-3 0-3Z" fill="#ff0000"/>
<path transform="matrix(1,0,0,-1,205.79625,225.31667)" stroke-width="1" stroke-linecap="butt" stroke-linejoin="round" fill="none" stroke="#ff0000" d="M0-3C.795609-3 1.55874-2.683901 2.12132-2.12132 2.683901-1.55874 3-.795609 3 0 3 .795609 2.683901 1.55874 2.12132 2.12132 1.55874 2.683901 .795609 3 0 3-.795609 3-1.55874 2.683901-2.12132 2.12132-2.683901 1.55874-3 .795609-3 0-3-.795609-2.683901-1.55874-2.12132-2.12132-1.55874-2.683901-.795609-3 0-3Z"/>
</g>
<g clip-path="url(#clip_27)">
<path transform="matrix(1,0,0,-1,183.18582,216.99192)" d="M0-3C.795609-3 1.55874-2.683901 2.12132-2.12132 2.683901-1.55874 3-.795609 3 0 3 .795609 2.683901 1.55874 2.12132 2.12132 1.55874 2.683901 .795609 3 0 3-.795609 3-1.55874 2.683901-2.12132 2.12132-2.683901 1.55874-3 .795609-3 0-3-.795609-2.683901-1.55874-2.12132-2.12132-1.55874-2.683901-.795609-3 0-3Z" fill="#ff0000"/>
<path transform="matrix(1,0,0,-1,183.18582,216.99192)" stroke-width="1" stroke-linecap="butt" stroke-linejoin="round" fill="none" stroke="#ff0000" d="M0-3C.795609-3 1.55874-2.683901 2.12132-2.12132 2.683901-1.55874 3-.795609 3 0 3 .795609 2.683901 1.55874 2.12132 2.12132 1.55874 2.683901 .795609 3 0 3-.795609 3-1.55874 2.683901-2.12132 2.12132-2.683901 1.55874-3 .795609-3 0-3-.795609-2.683901-1.55874-2.12132-2.12132-1.55874-2.683901-.795609-3 0-3Z"/>
</g>
<g clip-path="url(#clip_28)">
<path transform="matrix(1,0,0,-1,163.69408,204.78064)" d="M0-3C.795609-3 1.55874-2.683901 2.12132-2.12132 2.683901-1.55874 3-.795609 3 0 3 .795609 2.683901 1.55874 2.12132 2.12132 1.55874 2.683901 .795609 3 0 3-.795609 3-1.55874 2.683901-2.12132 2.12132-2.683901 1.55874-3 .795609-3 0-3-.795609-2.683901-1.55874-2.12132-2.12132-1.55874-2.683901-.795609-3 0-3Z" fill="#ff0000"/>
<path transform="matrix(1,0,0,-1,163.69408,204.78064)" stroke-width="1" stroke-linecap="butt" stroke-linejoin="round" fill="none" stroke="#ff0000" d="M0-3C.795609-3 1.55874-2.683901 2.12132-2.12132 2.683901-1.55874 3-.795609 3 0 3 .795609 2.683901 1.55874 2.12132 2.12132 1.55874 2.683901 .795609 3 0 3-.795609 3-1.55874 2.683901-2.12132 2.12132-2.683901 1.55874-3 .795609-3 0-3-.795609-2.683901-1.55874-2.12132-2.12132-1.55874-2.683901-.795609-3 0-3Z"/>
</g>
<g clip-path="url(#clip_29)">
<path transform="matrix(1,0,0,-1,145.17691,198.64513)" d="M0-3C.795609-3 1.55874-2.683901 2.12132-2.12132 2.683901-1.55874 3-.795609 3 0 3 .795609 2.683901 1.55874 2.12132 2.12132 1.55874 2.683901 .795609 3 0 3-.795609 3-1.55874 2.683901-2.12132 2.12132-2.683901 1.55874-3 .795609-3 0-3-.795609-2.683901-1.55874-2.12132-2.12132-1.55874-2.683901-.795609-3 0-3Z" fill="#ff0000"/>
<path transform="matrix(1,0,0,-1,145.17691,198.64513)" stroke-width="1" stroke-linecap="butt" stroke-linejoin="round" fill="none" stroke="#ff0000" d="M0-3C.795609-3 1.55874-2.683901 2.12132-2.12132 2.683901-1.55874 3-.795609 3 0 3 .795609 2.683901 1.55874 2.12132 2.12132 1.55874 2.683901 .795609 3 0 3-.795609 3-1.55874 2.683901-2.12132 2.12132-2.683901 1.55874-3 .795609-3 0-3-.795609-2.683901-1.55874-2.12132-2.12132-1.55874-2.683901-.795609-3 0-3Z"/>
</g>
<g clip-path="url(#clip_30)">
<path transform="matrix(1,0,0,-1,128.21909,179.90018)" d="M0-3C.795609-3 1.55874-2.683901 2.12132-2.12132 2.683901-1.55874 3-.795609 3 0 3 .795609 2.683901 1.55874 2.12132 2.12132 1.55874 2.683901 .795609 3 0 3-.795609 3-1.55874 2.683901-2.12132 2.12132-2.683901 1.55874-3 .795609-3 0-3-.795609-2.683901-1.55874-2.12132-2.12132-1.55874-2.683901-.795609-3 0-3Z" fill="#ff0000"/>
<path transform="matrix(1,0,0,-1,128.21909,179.90018)" stroke-width="1" stroke-linecap="butt" stroke-linejoin="round" fill="none" stroke="#ff0000" d="M0-3C.795609-3 1.55874-2.683901 2.12132-2.12132 2.683901-1.55874 3-.795609 3 0 3 .795609 2.683901 1.55874 2.12132 2.12132 1.55874 2.683901 .795609 3 0 3-.795609 3-1.55874 2.683901-2.12132 2.12132-2.683901 1.55874-3 .795609-3 0-3-.795609-2.683901-1.55874-2.12132-2.12132-1.55874-2.683901-.795609-3 0-3Z"/>
</g>
<g clip-path="url(#clip_31)">
<path transform="matrix(1,0,0,-1,121.98173,182.70842)" d="M0-3C.795609-3 1.55874-2.683901 2.12132-2.12132 2.683901-1.55874 3-.795609 3 0 3 .795609 2.683901 1.55874 2.12132 2.12132 1.55874 2.683901 .795609 3 0 3-.795609 3-1.55874 2.683901-2.12132 2.12132-2.683901 1.55874-3 .795609-3 0-3-.795609-2.683901-1.55874-2.12132-2.12132-1.55874-2.683901-.795609-3 0-3Z" fill="#ff0000"/>
<path transform="matrix(1,0,0,-1,121.98173,182.70842)" stroke-width="1" stroke-linecap="butt" stroke-linejoin="round" fill="none" stroke="#ff0000" d="M0-3C.795609-3 1.55874-2.683901 2.12132-2.12132 2.683901-1.55874 3-.795609 3 0 3 .795609 2.683901 1.55874 2.12132 2.12132 1.55874 2.683901 .795609 3 0 3-.795609 3-1.55874 2.683901-2.12132 2.12132-2.683901 1.55874-3 .795609-3 0-3-.795609-2.683901-1.55874-2.12132-2.12132-1.55874-2.683901-.795609-3 0-3Z"/>
</g>
<g clip-path="url(#clip_32)">
<path transform="matrix(1,0,0,-1,119.252887,173.94242)" d="M0-3C.795609-3 1.55874-2.683901 2.12132-2.12132 2.683901-1.55874 3-.795609 3 0 3 .795609 2.683901 1.55874 2.12132 2.12132 1.55874 2.683901 .795609 3 0 3-.795609 3-1.55874 2.683901-2.12132 2.12132-2.683901 1.55874-3 .795609-3 0-3-.795609-2.683901-1.55874-2.12132-2.12132-1.55874-2.683901-.795609-3 0-3Z" fill="#ff0000"/>
<path transform="matrix(1,0,0,-1,119.252887,173.94242)" stroke-width="1" stroke-linecap="butt" stroke-linejoin="round" fill="none" stroke="#ff0000" d="M0-3C.795609-3 1.55874-2.683901 2.12132-2.12132 2.683901-1.55874 3-.795609 3 0 3 .795609 2.683901 1.55874 2.12132 2.12132 1.55874 2.683901 .795609 3 0 3-.795609 3-1.55874 2.683901-2.12132 2.12132-2.683901 1.55874-3 .795609-3 0-3-.795609-2.683901-1.55874-2.12132-2.12132-1.55874-2.683901-.795609-3 0-3Z"/>
</g>
<g clip-path="url(#clip_33)">
<path transform="matrix(1,0,0,-1,98.2018,151.20207)" d="M0-3C.795609-3 1.55874-2.683901 2.12132-2.12132 2.683901-1.55874 3-.795609 3 0 3 .795609 2.683901 1.55874 2.12132 2.12132 1.55874 2.683901 .795609 3 0 3-.795609 3-1.55874 2.683901-2.12132 2.12132-2.683901 1.55874-3 .795609-3 0-3-.795609-2.683901-1.55874-2.12132-2.12132-1.55874-2.683901-.795609-3 0-3Z" fill="#ff0000"/>
<path transform="matrix(1,0,0,-1,98.2018,151.20207)" stroke-width="1" stroke-linecap="butt" stroke-linejoin="round" fill="none" stroke="#ff0000" d="M0-3C.795609-3 1.55874-2.683901 2.12132-2.12132 2.683901-1.55874 3-.795609 3 0 3 .795609 2.683901 1.55874 2.12132 2.12132 1.55874 2.683901 .795609 3 0 3-.795609 3-1.55874 2.683901-2.12132 2.12132-2.683901 1.55874-3 .795609-3 0-3-.795609-2.683901-1.55874-2.12132-2.12132-1.55874-2.683901-.795609-3 0-3Z"/>
</g>
<g clip-path="url(#clip_34)">
<path transform="matrix(1,0,0,-1,94.8882,148.32143)" d="M0-3C.795609-3 1.55874-2.683901 2.12132-2.12132 2.683901-1.55874 3-.795609 3 0 3 .795609 2.683901 1.55874 2.12132 2.12132 1.55874 2.683901 .795609 3 0 3-.795609 3-1.55874 2.683901-2.12132 2.12132-2.683901 1.55874-3 .795609-3 0-3-.795609-2.683901-1.55874-2.12132-2.12132-1.55874-2.683901-.795609-3 0-3Z" fill="#ff0000"/>
<path transform="matrix(1,0,0,-1,94.8882,148.32143)" stroke-width="1" stroke-linecap="butt" stroke-linejoin="round" fill="none" stroke="#ff0000" d="M0-3C.795609-3 1.55874-2.683901 2.12132-2.12132 2.683901-1.55874 3-.795609 3 0 3 .795609 2.683901 1.55874 2.12132 2.12132 1.55874 2.683901 .795609 3 0 3-.795609 3-1.55874 2.683901-2.12132 2.12132-2.683901 1.55874-3 .795609-3 0-3-.795609-2.683901-1.55874-2.12132-2.12132-1.55874-2.683901-.795609-3 0-3Z"/>
</g>
<g clip-path="url(#clip_35)">
<path transform="matrix(1,0,0,-1,91.379688,140.5879)" d="M0-3C.795609-3 1.55874-2.683901 2.12132-2.12132 2.683901-1.55874 3-.795609 3 0 3 .795609 2.683901 1.55874 2.12132 2.12132 1.55874 2.683901 .795609 3 0 3-.795609 3-1.55874 2.683901-2.12132 2.12132-2.683901 1.55874-3 .795609-3 0-3-.795609-2.683901-1.55874-2.12132-2.12132-1.55874-2.683901-.795609-3 0-3Z" fill="#ff0000"/>
<path transform="matrix(1,0,0,-1,91.379688,140.5879)" stroke-width="1" stroke-linecap="butt" stroke-linejoin="round" fill="none" stroke="#ff0000" d="M0-3C.795609-3 1.55874-2.683901 2.12132-2.12132 2.683901-1.55874 3-.795609 3 0 3 .795609 2.683901 1.55874 2.12132 2.12132 1.55874 2.683901 .795609 3 0 3-.795609 3-1.55874 2.683901-2.12132 2.12132-2.683901 1.55874-3 .795609-3 0-3-.795609-2.683901-1.55874-2.12132-2.12132-1.55874-2.683901-.795609-3 0-3Z"/>
</g>
<g clip-path="url(#clip_36)">
<path transform="matrix(1,0,0,-1,89.82034,125.056789)" d="M0-3C.795609-3 1.55874-2.683901 2.12132-2.12132 2.683901-1.55874 3-.795609 3 0 3 .795609 2.683901 1.55874 2.12132 2.12132 1.55874 2.683901 .795609 3 0 3-.795609 3-1.55874 2.683901-2.12132 2.12132-2.683901 1.55874-3 .795609-3 0-3-.795609-2.683901-1.55874-2.12132-2.12132-1.55874-2.683901-.795609-3 0-3Z" fill="#ff0000"/>
<path transform="matrix(1,0,0,-1,89.82034,125.056789)" stroke-width="1" stroke-linecap="butt" stroke-linejoin="round" fill="none" stroke="#ff0000" d="M0-3C.795609-3 1.55874-2.683901 2.12132-2.12132 2.683901-1.55874 3-.795609 3 0 3 .795609 2.683901 1.55874 2.12132 2.12132 1.55874 2.683901 .795609 3 0 3-.795609 3-1.55874 2.683901-2.12132 2.12132-2.683901 1.55874-3 .795609-3 0-3-.795609-2.683901-1.55874-2.12132-2.12132-1.55874-2.683901-.795609-3 0-3Z"/>
</g>
<g clip-path="url(#clip_37)">
<path transform="matrix(1,0,0,-1,77.73546,105.059658)" d="M0-3C.795609-3 1.55874-2.683901 2.12132-2.12132 2.683901-1.55874 3-.795609 3 0 3 .795609 2.683901 1.55874 2.12132 2.12132 1.55874 2.683901 .795609 3 0 3-.795609 3-1.55874 2.683901-2.12132 2.12132-2.683901 1.55874-3 .795609-3 0-3-.795609-2.683901-1.55874-2.12132-2.12132-1.55874-2.683901-.795609-3 0-3Z" fill="#ff0000"/>
<path transform="matrix(1,0,0,-1,77.73546,105.059658)" stroke-width="1" stroke-linecap="butt" stroke-linejoin="round" fill="none" stroke="#ff0000" d="M0-3C.795609-3 1.55874-2.683901 2.12132-2.12132 2.683901-1.55874 3-.795609 3 0 3 .795609 2.683901 1.55874 2.12132 2.12132 1.55874 2.683901 .795609 3 0 3-.795609 3-1.55874 2.683901-2.12132 2.12132-2.683901 1.55874-3 .795609-3 0-3-.795609-2.683901-1.55874-2.12132-2.12132-1.55874-2.683901-.795609-3 0-3Z"/>
</g>
<g clip-path="url(#clip_38)">
<path transform="matrix(1,0,0,-1,76.76087,93.97974)" d="M0-3C.795609-3 1.55874-2.683901 2.12132-2.12132 2.683901-1.55874 3-.795609 3 0 3 .795609 2.683901 1.55874 2.12132 2.12132 1.55874 2.683901 .795609 3 0 3-.795609 3-1.55874 2.683901-2.12132 2.12132-2.683901 1.55874-3 .795609-3 0-3-.795609-2.683901-1.55874-2.12132-2.12132-1.55874-2.683901-.795609-3 0-3Z" fill="#ff0000"/>
<path transform="matrix(1,0,0,-1,76.76087,93.97974)" stroke-width="1" stroke-linecap="butt" stroke-linejoin="round" fill="none" stroke="#ff0000" d="M0-3C.795609-3 1.55874-2.683901 2.12132-2.12132 2.683901-1.55874 3-.795609 3 0 3 .795609 2.683901 1.55874 2.12132 2.12132 1.55874 2.683901 .795609 3 0 3-.795609 3-1.55874 2.683901-2.12132 2.12132-2.683901 1.55874-3 .795609-3 0-3-.795609-2.683901-1.55874-2.12132-2.12132-1.55874-2.683901-.795609-3 0-3Z"/>
</g>
<g clip-path="url(#clip_39)">
<path transform="matrix(1,0,0,-1,74.8117,92.70696)" d="M0-3C.795609-3 1.55874-2.683901 2.12132-2.12132 2.683901-1.55874 3-.795609 3 0 3 .795609 2.683901 1.55874 2.12132 2.12132 1.55874 2.683901 .795609 3 0 3-.795609 3-1.55874 2.683901-2.12132 2.12132-2.683901 1.55874-3 .795609-3 0-3-.795609-2.683901-1.55874-2.12132-2.12132-1.55874-2.683901-.795609-3 0-3Z" fill="#ff0000"/>
<path transform="matrix(1,0,0,-1,74.8117,92.70696)" stroke-width="1" stroke-linecap="butt" stroke-linejoin="round" fill="none" stroke="#ff0000" d="M0-3C.795609-3 1.55874-2.683901 2.12132-2.12132 2.683901-1.55874 3-.795609 3 0 3 .795609 2.683901 1.55874 2.12132 2.12132 1.55874 2.683901 .795609 3 0 3-.795609 3-1.55874 2.683901-2.12132 2.12132-2.683901 1.55874-3 .795609-3 0-3-.795609-2.683901-1.55874-2.12132-2.12132-1.55874-2.683901-.795609-3 0-3Z"/>
</g>
<g clip-path="url(#clip_40)">
<path transform="matrix(1,0,0,-1,73.25236,73.40828)" d="M0-3C.795609-3 1.55874-2.683901 2.12132-2.12132 2.683901-1.55874 3-.795609 3 0 3 .795609 2.683901 1.55874 2.12132 2.12132 1.55874 2.683901 .795609 3 0 3-.795609 3-1.55874 2.683901-2.12132 2.12132-2.683901 1.55874-3 .795609-3 0-3-.795609-2.683901-1.55874-2.12132-2.12132-1.55874-2.683901-.795609-3 0-3Z" fill="#ff0000"/>
<path transform="matrix(1,0,0,-1,73.25236,73.40828)" stroke-width="1" stroke-linecap="butt" stroke-linejoin="round" fill="none" stroke="#ff0000" d="M0-3C.795609-3 1.55874-2.683901 2.12132-2.12132 2.683901-1.55874 3-.795609 3 0 3 .795609 2.683901 1.55874 2.12132 2.12132 1.55874 2.683901 .795609 3 0 3-.795609 3-1.55874 2.683901-2.12132 2.12132-2.683901 1.55874-3 .795609-3 0-3-.795609-2.683901-1.55874-2.12132-2.12132-1.55874-2.683901-.795609-3 0-3Z"/>
</g>
</g>
<path transform="matrix(1,0,0,-1,0,316.76435)" stroke-width=".8" stroke-linecap="square" stroke-miterlimit="10" stroke-linejoin="miter" fill="none" stroke="#000000" d="M58.034189 50.081697V299.5617"/>
<path transform="matrix(1,0,0,-1,0,316.76435)" stroke-width=".8" stroke-linecap="square" stroke-miterlimit="10" stroke-linejoin="miter" fill="none" stroke="#000000" d="M392.8342 50.081697V299.5617"/>
<path transform="matrix(1,0,0,-1,0,316.76435)" stroke-width=".8" stroke-linecap="square" stroke-miterlimit="10" stroke-linejoin="miter" fill="none" stroke="#000000" d="M58.034189 50.081697H392.8342"/>
<path transform="matrix(1,0,0,-1,0,316.76435)" stroke-width=".8" stroke-linecap="square" stroke-miterlimit="10" stroke-linejoin="miter" fill="none" stroke="#000000" d="M58.034189 299.5617H392.8342"/>
<g>
<path transform="matrix(1,0,0,-1,0,316.76435)" d="M195.16687 225.39989H378.8342C381.50086 225.39989 382.8342 226.73322 382.8342 229.39989V285.5617C382.8342 288.22837 381.50086 289.5617 378.8342 289.5617H195.16687C192.5002 289.5617 191.16687 288.22837 191.16687 285.5617V229.39989C191.16687 226.73322 192.5002 225.39989 195.16687 225.39989Z" fill="#ffffff" fill-opacity=".8"/>
<path transform="matrix(1,0,0,-1,0,316.76435)" stroke-width="1" stroke-linecap="butt" stroke-miterlimit="10" stroke-linejoin="miter" fill="none" stroke="#d5d6d5" stroke-opacity=".8" d="M195.16687 225.39989H378.8342C381.50086 225.39989 382.8342 226.73322 382.8342 229.39989V285.5617C382.8342 288.22837 381.50086 289.5617 378.8342 289.5617H195.16687C192.5002 289.5617 191.16687 288.22837 191.16687 285.5617V229.39989C191.16687 226.73322 192.5002 225.39989 195.16687 225.39989Z"/>
</g>
<path transform="matrix(1,0,0,-1,0,316.76435)" stroke-width="1.5" stroke-linecap="square" stroke-linejoin="round" fill="none" stroke="#008000" d="M199.16687 274.5617H219.16687 239.16687"/>
<path transform="matrix(1,0,0,-1,0,316.76435)" d="M216.16687 271.5617 222.16687 277.5617M216.16687 277.5617 222.16687 271.5617" fill="#008000"/>
<path transform="matrix(1,0,0,-1,0,316.76435)" stroke-width="1" stroke-linecap="butt" stroke-linejoin="round" fill="none" stroke="#008000" d="M216.16687 271.5617 222.16687 277.5617M216.16687 277.5617 222.16687 271.5617"/>
<use data-text="L" xlink:href="#font_1_78" transform="matrix(19.92528,0,0,-19.92528,255.16687,49.202638)"/>
<use data-text="F" xlink:href="#font_1_72" transform="matrix(19.92528,0,0,-19.92528,265.2889,49.202638)"/>
<use data-text="U" xlink:href="#font_1_87" transform="matrix(19.92528,0,0,-19.92528,275.92903,49.202638)"/>
<use data-text="," xlink:href="#font_1_45" transform="matrix(19.92528,0,0,-19.92528,288.74098,49.202638)"/>
<use data-text="L" xlink:href="#font_5_77" transform="matrix(19.92528,0,0,-19.92528,300.24079,49.202638)"/>
<use data-text="n" xlink:href="#font_5_111" transform="matrix(13.947636,0,0,-13.947636,313.51496,52.191408)"/>
<use data-text="2" xlink:href="#font_3_52" transform="matrix(9.96264,0,0,-9.96264,321.6671,54.28354)"/>
<use data-text="=" xlink:href="#font_41_63" transform="matrix(19.92528,0,0,-19.92528,333.17945,49.202638)"/>
<use data-text="5" xlink:href="#font_41_55" transform="matrix(19.92528,0,0,-19.92528,353.04045,49.202638)"/>
<use data-text="0" xlink:href="#font_41_50" transform="matrix(19.92528,0,0,-19.92528,362.16624,49.202638)"/>
<path transform="matrix(1,0,0,-1,0,316.76435)" stroke-width="1.5" stroke-linecap="square" stroke-linejoin="round" fill="none" stroke="#ff0000" d="M199.16687 245.48079H219.16687 239.16687"/>
<path transform="matrix(1,0,0,-1,0,316.76435)" d="M219.16687 242.48079C219.96248 242.48079 220.7256 242.79689 221.2882 243.35947 221.85077 243.92205 222.16687 244.68518 222.16687 245.48079 222.16687 246.2764 221.85077 247.03954 221.2882 247.60211 220.7256 248.16469 219.96248 248.48079 219.16687 248.48079 218.37126 248.48079 217.60813 248.16469 217.04555 247.60211 216.48297 247.03954 216.16687 246.2764 216.16687 245.48079 216.16687 244.68518 216.48297 243.92205 217.04555 243.35947 217.60813 242.79689 218.37126 242.48079 219.16687 242.48079Z" fill="#ff0000"/>
<path transform="matrix(1,0,0,-1,0,316.76435)" stroke-width="1" stroke-linecap="butt" stroke-linejoin="round" fill="none" stroke="#ff0000" d="M219.16687 242.48079C219.96248 242.48079 220.7256 242.79689 221.2882 243.35947 221.85077 243.92205 222.16687 244.68518 222.16687 245.48079 222.16687 246.2764 221.85077 247.03954 221.2882 247.60211 220.7256 248.16469 219.96248 248.48079 219.16687 248.48079 218.37126 248.48079 217.60813 248.16469 217.04555 247.60211 216.48297 247.03954 216.16687 246.2764 216.16687 245.48079 216.16687 244.68518 216.48297 243.92205 217.04555 243.35947 217.60813 242.79689 218.37126 242.48079 219.16687 242.48079Z"/>
<use data-text="V" xlink:href="#font_1_88" transform="matrix(19.92528,0,0,-19.92528,255.16687,78.283557)"/>
<use data-text="I" xlink:href="#font_1_75" transform="matrix(19.92528,0,0,-19.92528,267.60026,78.283557)"/>
<use data-text="P" xlink:href="#font_1_82" transform="matrix(19.92528,0,0,-19.92528,272.74098,78.283557)"/>
<use data-text="," xlink:href="#font_1_45" transform="matrix(19.92528,0,0,-19.92528,283.11476,78.283557)"/>
<use data-text="L" xlink:href="#font_5_77" transform="matrix(19.92528,0,0,-19.92528,294.60353,78.283557)"/>
<use data-text="n" xlink:href="#font_5_111" transform="matrix(13.947636,0,0,-13.947636,307.8777,81.27232)"/>
<use data-text="2" xlink:href="#font_3_52" transform="matrix(9.96264,0,0,-9.96264,316.02986,83.364459)"/>
<use data-text="=" xlink:href="#font_41_63" transform="matrix(19.92528,0,0,-19.92528,327.54219,78.283557)"/>
<use data-text="1" xlink:href="#font_41_51" transform="matrix(19.92528,0,0,-19.92528,347.40318,78.283557)"/>
<use data-text="0" xlink:href="#font_41_50" transform="matrix(19.92528,0,0,-19.92528,356.52897,78.283557)"/>
<use data-text="0" xlink:href="#font_41_50" transform="matrix(19.92528,0,0,-19.92528,365.65476,78.283557)"/>
</svg>
