<svg version="1.1" viewBox="0.0 0.0 960.0 540.0" fill="none" stroke="none" stroke-linecap="square" stroke-miterlimit="10" xmlns:xlink="http://www.w3.org/1999/xlink" xmlns="http://www.w3.org/2000/svg"><clipPath id="g2f102a8ae0b_0_29.0"><path d="m0 0l960.0 0l0 540.0l-960.0 0l0 -540.0z" clip-rule="nonzero"/></clipPath><g clip-path="url(#g2f102a8ae0b_0_29.0)"><path fill="#ffffff" d="m0 0l960.0 0l0 540.0l-960.0 0z" fill-rule="evenodd"/><path fill="#000000" fill-opacity="0.0" d="m573.95685 261.22913l0 257.925l-222.80313 0l0 -11.846252" fill-rule="evenodd"/><path stroke="#595959" stroke-width="1.0" stroke-linejoin="round" stroke-linecap="butt" stroke-dasharray="4.0,3.0" d="m573.95685 261.22913l0 257.925l-222.80313 0l0 -11.846252" fill-rule="evenodd"/><path fill="#000000" fill-opacity="0.0" d="m573.95685 261.22913l0 257.1277l-222.80313 0l0 -11.04895" fill-rule="evenodd"/><path stroke="#595959" stroke-width="1.0" stroke-linejoin="round" stroke-linecap="butt" d="m573.95685 261.22913l0 257.1277l-222.80313 0l0 -11.04895" fill-rule="evenodd"/><path fill="#efefef" d="m0.0037692913 11.695258l739.9685 0l0 516.59845l-739.9685 0z" fill-rule="evenodd"/><path stroke="#595959" stroke-width="1.0" stroke-linejoin="round" stroke-linecap="butt" d="m0.0037692913 11.695258l739.9685 0l0 516.59845l-739.9685 0z" fill-rule="evenodd"/><defs><linearGradient id="g2f102a8ae0b_0_29.1" gradientUnits="userSpaceOnUse" gradientTransform="matrix(12.53155783067678 0.0 0.0 12.53155783067678 0.0 0.0)" spreadMethod="pad" x1="3.6071870813030973" y1="2.755608938626666" x2="3.6071416742853124" y2="15.28716676922118"><stop offset="0.0" stop-color="#dfeafb"/><stop offset="1.0" stop-color="#6e9ce7"/></linearGradient></defs><path fill="url(#g2f102a8ae0b_0_29.1)" d="m45.20367 34.53264l156.97638 0l0 157.03937l-156.97638 0z" fill-rule="evenodd"/><path stroke="#595959" stroke-width="1.0" stroke-linejoin="round" stroke-linecap="butt" d="m45.20367 34.53264l156.97638 0l0 157.03937l-156.97638 0z" fill-rule="evenodd"/><path fill="#434343" d="m95.3387 122.37232l0 -18.125l2.46875 0l9.515625 14.234375l0 -14.234375l2.3125 0l0 18.125l-2.46875 0l-9.515625 -14.25l0 14.25l-2.3125 0zm17.213043 -6.5625q0 -3.65625 2.03125 -5.40625q1.6875 -1.46875 4.125 -1.46875q2.703125 0 4.421875 1.78125q1.71875 1.78125 1.71875 4.90625q0 2.53125 -0.765625 3.984375q-0.75 1.453125 -2.203125 2.265625q-1.453125 0.796875 -3.171875 0.796875q-2.765625 0 -4.46875 -1.765625q-1.6875 -1.765625 -1.6875 -5.09375zm2.28125 0q0 2.515625 1.09375 3.78125q1.109375 1.25 2.78125 1.25q1.65625 0 2.75 -1.265625q1.109375 -1.265625 1.109375 -3.84375q0 -2.4375 -1.109375 -3.6875q-1.109375 -1.265625 -2.75 -1.265625q-1.671875 0 -2.78125 1.25q-1.09375 1.25 -1.09375 3.78125zm21.148804 6.5625l0 -1.65625q-1.25 1.953125 -3.671875 1.953125q-1.5625 0 -2.890625 -0.859375q-1.3125 -0.875 -2.046875 -2.421875q-0.71875 -1.546875 -0.71875 -3.5625q0 -1.96875 0.65625 -3.5625q0.65625 -1.609375 1.96875 -2.46875q1.3125 -0.859375 2.9375 -0.859375q1.1875 0 2.109375 0.515625q0.9375 0.5 1.515625 1.296875l0 -6.5l2.203125 0l0 18.125l-2.0625 0zm-7.03125 -6.546875q0 2.515625 1.0625 3.765625q1.0625 1.25 2.515625 1.25q1.453125 0 2.46875 -1.1875q1.03125 -1.203125 1.03125 -3.65625q0 -2.6875 -1.046875 -3.953125q-1.03125 -1.265625 -2.5625 -1.265625q-1.484375 0 -2.484375 1.21875q-0.984375 1.203125 -0.984375 3.828125zm21.586304 2.3125l2.296875 0.296875q-0.53125 2.015625 -2.015625 3.125q-1.46875 1.109375 -3.75 1.109375q-2.890625 0 -4.578125 -1.765625q-1.6875 -1.78125 -1.6875 -4.984375q0 -3.3125 1.703125 -5.140625q1.71875 -1.84375 4.4375 -1.84375q2.640625 0 4.296875 1.796875q1.671875 1.796875 1.671875 5.046875q0 0.203125 -0.015625 0.59375l-9.78125 0q0.109375 2.171875 1.203125 3.328125q1.109375 1.140625 2.765625 1.140625q1.21875 0 2.078125 -0.640625q0.875 -0.640625 1.375 -2.0625zm-7.3125 -3.59375l7.34375 0q-0.15625 -1.65625 -0.84375 -2.484375q-1.0625 -1.28125 -2.75 -1.28125q-1.546875 0 -2.59375 1.03125q-1.03125 1.015625 -1.15625 2.734375z" fill-rule="nonzero"/><defs><linearGradient id="g2f102a8ae0b_0_29.2" gradientUnits="userSpaceOnUse" gradientTransform="matrix(12.531557830677523 0.0 0.0 12.531557830677523 0.0 0.0)" spreadMethod="pad" x1="21.75881384212223" y1="2.755608938626502" x2="21.75876802603221" y2="15.287166769220272"><stop offset="0.0" stop-color="#dfeafb"/><stop offset="1.0" stop-color="#6e9ce7"/></linearGradient></defs><path fill="url(#g2f102a8ae0b_0_29.2)" d="m272.6718 34.53264l156.97638 0l0 157.03937l-156.97638 0z" fill-rule="evenodd"/><path stroke="#595959" stroke-width="1.0" stroke-linejoin="round" stroke-linecap="butt" d="m272.6718 34.53264l156.97638 0l0 157.03937l-156.97638 0z" fill-rule="evenodd"/><path fill="#434343" d="m322.80685 122.37232l0 -18.125l2.46875 0l9.515625 14.234375l0 -14.234375l2.3125 0l0 18.125l-2.46875 0l-9.515625 -14.25l0 14.25l-2.3125 0zm17.213043 -6.5625q0 -3.65625 2.03125 -5.40625q1.6875 -1.46875 4.125 -1.46875q2.703125 0 4.421875 1.78125q1.71875 1.78125 1.71875 4.90625q0 2.53125 -0.765625 3.984375q-0.75 1.453125 -2.203125 2.265625q-1.453125 0.796875 -3.171875 0.796875q-2.765625 0 -4.46875 -1.765625q-1.6875 -1.765625 -1.6875 -5.09375zm2.28125 0q0 2.515625 1.09375 3.78125q1.109375 1.25 2.78125 1.25q1.65625 0 2.75 -1.265625q1.109375 -1.265625 1.109375 -3.84375q0 -2.4375 -1.109375 -3.6875q-1.109375 -1.265625 -2.75 -1.265625q-1.671875 0 -2.78125 1.25q-1.09375 1.25 -1.09375 3.78125zm21.148804 6.5625l0 -1.65625q-1.25 1.953125 -3.671875 1.953125q-1.5625 0 -2.890625 -0.859375q-1.3125 -0.875 -2.046875 -2.421875q-0.71875 -1.546875 -0.71875 -3.5625q0 -1.96875 0.65625 -3.5625q0.65625 -1.609375 1.96875 -2.46875q1.3125 -0.859375 2.9375 -0.859375q1.1875 0 2.109375 0.515625q0.9375 0.5 1.515625 1.296875l0 -6.5l2.203125 0l0 18.125l-2.0625 0zm-7.03125 -6.546875q0 2.515625 1.0625 3.765625q1.0625 1.25 2.515625 1.25q1.453125 0 2.46875 -1.1875q1.03125 -1.203125 1.03125 -3.65625q0 -2.6875 -1.046875 -3.953125q-1.03125 -1.265625 -2.5625 -1.265625q-1.484375 0 -2.484375 1.21875q-0.984375 1.203125 -0.984375 3.828125zm21.586304 2.3125l2.296875 0.296875q-0.53125 2.015625 -2.015625 3.125q-1.46875 1.109375 -3.75 1.109375q-2.890625 0 -4.578125 -1.765625q-1.6875 -1.78125 -1.6875 -4.984375q0 -3.3125 1.703125 -5.140625q1.71875 -1.84375 4.4375 -1.84375q2.640625 0 4.296875 1.796875q1.671875 1.796875 1.671875 5.046875q0 0.203125 -0.015625 0.59375l-9.78125 0q0.109375 2.171875 1.203125 3.328125q1.109375 1.140625 2.765625 1.140625q1.21875 0 2.078125 -0.640625q0.875 -0.640625 1.375 -2.0625zm-7.3125 -3.59375l7.34375 0q-0.15625 -1.65625 -0.84375 -2.484375q-1.0625 -1.28125 -2.75 -1.28125q-1.546875 0 -2.59375 1.03125q-1.03125 1.015625 -1.15625 2.734375z" fill-rule="nonzero"/><defs><linearGradient id="g2f102a8ae0b_0_29.3" gradientUnits="userSpaceOnUse" gradientTransform="matrix(12.531557932944835 0.0 0.0 12.531557932944835 0.0 0.0)" spreadMethod="pad" x1="3.6071870518654157" y1="27.950292023894303" x2="3.607141644848001" y2="40.481849956756875"><stop offset="0.0" stop-color="#dfeafb"/><stop offset="1.0" stop-color="#6e9ce7"/></linearGradient></defs><path fill="url(#g2f102a8ae0b_0_29.3)" d="m45.20367 350.2613l156.97638 0l0 157.03937l-156.97638 0z" fill-rule="evenodd"/><path stroke="#595959" stroke-width="1.0" stroke-linejoin="round" stroke-linecap="butt" d="m45.20367 350.2613l156.97638 0l0 157.03937l-156.97638 0z" fill-rule="evenodd"/><path fill="#434343" d="m95.3387 438.10095l0 -18.125l2.46875 0l9.515625 14.234375l0 -14.234375l2.3125 0l0 18.125l-2.46875 0l-9.515625 -14.25l0 14.25l-2.3125 0zm17.213043 -6.5625q0 -3.65625 2.03125 -5.40625q1.6875 -1.46875 4.125 -1.46875q2.703125 0 4.421875 1.78125q1.71875 1.78125 1.71875 4.90625q0 2.53125 -0.765625 3.984375q-0.75 1.453125 -2.203125 2.265625q-1.453125 0.796875 -3.171875 0.796875q-2.765625 0 -4.46875 -1.765625q-1.6875 -1.765625 -1.6875 -5.09375zm2.28125 0q0 2.515625 1.09375 3.78125q1.109375 1.25 2.78125 1.25q1.65625 0 2.75 -1.265625q1.109375 -1.265625 1.109375 -3.84375q0 -2.4375 -1.109375 -3.6875q-1.109375 -1.265625 -2.75 -1.265625q-1.671875 0 -2.78125 1.25q-1.09375 1.25 -1.09375 3.78125zm21.148804 6.5625l0 -1.65625q-1.25 1.953125 -3.671875 1.953125q-1.5625 0 -2.890625 -0.859375q-1.3125 -0.875 -2.046875 -2.421875q-0.71875 -1.546875 -0.71875 -3.5625q0 -1.96875 0.65625 -3.5625q0.65625 -1.609375 1.96875 -2.46875q1.3125 -0.859375 2.9375 -0.859375q1.1875 0 2.109375 0.515625q0.9375 0.5 1.515625 1.296875l0 -6.5l2.203125 0l0 18.125l-2.0625 0zm-7.03125 -6.546875q0 2.515625 1.0625 3.765625q1.0625 1.25 2.515625 1.25q1.453125 0 2.46875 -1.1875q1.03125 -1.203125 1.03125 -3.65625q0 -2.6875 -1.046875 -3.953125q-1.03125 -1.265625 -2.5625 -1.265625q-1.484375 0 -2.484375 1.21875q-0.984375 1.203125 -0.984375 3.828125zm21.586304 2.3125l2.296875 0.296875q-0.53125 2.015625 -2.015625 3.125q-1.46875 1.109375 -3.75 1.109375q-2.890625 0 -4.578125 -1.765625q-1.6875 -1.78125 -1.6875 -4.984375q0 -3.3125 1.703125 -5.140625q1.71875 -1.84375 4.4375 -1.84375q2.640625 0 4.296875 1.796875q1.671875 1.796875 1.671875 5.046875q0 0.203125 -0.015625 0.59375l-9.78125 0q0.109375 2.171875 1.203125 3.328125q1.109375 1.140625 2.765625 1.140625q1.21875 0 2.078125 -0.640625q0.875 -0.640625 1.375 -2.0625zm-7.3125 -3.59375l7.34375 0q-0.15625 -1.65625 -0.84375 -2.484375q-1.0625 -1.28125 -2.75 -1.28125q-1.546875 0 -2.59375 1.03125q-1.03125 1.015625 -1.15625 2.734375z" fill-rule="nonzero"/><defs><linearGradient id="g2f102a8ae0b_0_29.4" gradientUnits="userSpaceOnUse" gradientTransform="matrix(12.531557932945582 0.0 0.0 12.531557932945582 0.0 0.0)" spreadMethod="pad" x1="21.758813664551997" y1="27.950292023892644" x2="21.758767848462355" y2="40.48184995675447"><stop offset="0.0" stop-color="#dfeafb"/><stop offset="1.0" stop-color="#6e9ce7"/></linearGradient></defs><path fill="url(#g2f102a8ae0b_0_29.4)" d="m272.6718 350.2613l156.97638 0l0 157.03937l-156.97638 0z" fill-rule="evenodd"/><path stroke="#595959" stroke-width="1.0" stroke-linejoin="round" stroke-linecap="butt" d="m272.6718 350.2613l156.97638 0l0 157.03937l-156.97638 0z" fill-rule="evenodd"/><path fill="#434343" d="m322.80685 438.10095l0 -18.125l2.46875 0l9.515625 14.234375l0 -14.234375l2.3125 0l0 18.125l-2.46875 0l-9.515625 -14.25l0 14.25l-2.3125 0zm17.213043 -6.5625q0 -3.65625 2.03125 -5.40625q1.6875 -1.46875 4.125 -1.46875q2.703125 0 4.421875 1.78125q1.71875 1.78125 1.71875 4.90625q0 2.53125 -0.765625 3.984375q-0.75 1.453125 -2.203125 2.265625q-1.453125 0.796875 -3.171875 0.796875q-2.765625 0 -4.46875 -1.765625q-1.6875 -1.765625 -1.6875 -5.09375zm2.28125 0q0 2.515625 1.09375 3.78125q1.109375 1.25 2.78125 1.25q1.65625 0 2.75 -1.265625q1.109375 -1.265625 1.109375 -3.84375q0 -2.4375 -1.109375 -3.6875q-1.109375 -1.265625 -2.75 -1.265625q-1.671875 0 -2.78125 1.25q-1.09375 1.25 -1.09375 3.78125zm21.148804 6.5625l0 -1.65625q-1.25 1.953125 -3.671875 1.953125q-1.5625 0 -2.890625 -0.859375q-1.3125 -0.875 -2.046875 -2.421875q-0.71875 -1.546875 -0.71875 -3.5625q0 -1.96875 0.65625 -3.5625q0.65625 -1.609375 1.96875 -2.46875q1.3125 -0.859375 2.9375 -0.859375q1.1875 0 2.109375 0.515625q0.9375 0.5 1.515625 1.296875l0 -6.5l2.203125 0l0 18.125l-2.0625 0zm-7.03125 -6.546875q0 2.515625 1.0625 3.765625q1.0625 1.25 2.515625 1.25q1.453125 0 2.46875 -1.1875q1.03125 -1.203125 1.03125 -3.65625q0 -2.6875 -1.046875 -3.953125q-1.03125 -1.265625 -2.5625 -1.265625q-1.484375 0 -2.484375 1.21875q-0.984375 1.203125 -0.984375 3.828125zm21.586304 2.3125l2.296875 0.296875q-0.53125 2.015625 -2.015625 3.125q-1.46875 1.109375 -3.75 1.109375q-2.890625 0 -4.578125 -1.765625q-1.6875 -1.78125 -1.6875 -4.984375q0 -3.3125 1.703125 -5.140625q1.71875 -1.84375 4.4375 -1.84375q2.640625 0 4.296875 1.796875q1.671875 1.796875 1.671875 5.046875q0 0.203125 -0.015625 0.59375l-9.78125 0q0.109375 2.171875 1.203125 3.328125q1.109375 1.140625 2.765625 1.140625q1.21875 0 2.078125 -0.640625q0.875 -0.640625 1.375 -2.0625zm-7.3125 -3.59375l7.34375 0q-0.15625 -1.65625 -0.84375 -2.484375q-1.0625 -1.28125 -2.75 -1.28125q-1.546875 0 -2.59375 1.03125q-1.03125 1.015625 -1.15625 2.734375z" fill-rule="nonzero"/><defs><linearGradient id="g2f102a8ae0b_0_29.5" gradientUnits="userSpaceOnUse" gradientTransform="matrix(0.0 7.127125034234778 -7.127125034234778 0.0 0.0 0.0)" spreadMethod="pad" x1="6.209383054888762" y1="-35.49363017698892" x2="6.20935716124396" y2="-28.36650514280118"><stop offset="0.0" stop-color="#dcecd5"/><stop offset="1.0" stop-color="#92bc81"/></linearGradient></defs><path fill="url(#g2f102a8ae0b_0_29.5)" d="m252.96706 44.25505l0 137.58237l-50.795425 0l0 -137.58237z" fill-rule="evenodd"/><path fill="#000000" fill-opacity="0.0" d="m252.96706 61.452847l-50.795425 0m50.795425 103.18678l-50.795425 0" fill-rule="evenodd"/><path fill="#000000" fill-opacity="0.0" d="m252.96706 44.25505l0 137.58237l-50.795425 0l0 -137.58237z" fill-rule="evenodd"/><path stroke="#595959" stroke-width="1.0" stroke-linejoin="round" stroke-linecap="butt" d="m252.96706 61.452847l-50.795425 0m50.795425 103.18678l-50.795425 0" fill-rule="evenodd"/><path stroke="#595959" stroke-width="1.0" stroke-linejoin="round" stroke-linecap="butt" d="m252.96706 44.25505l0 137.58237l-50.795425 0l0 -137.58237z" fill-rule="evenodd"/><path fill="#000000" d="m231.20934 84.51499l11.453125 0l0 5.078125q0 1.53125 -0.3125 2.328125q-0.296875 0.796875 -1.078125 1.265625q-0.78125 0.484375 -1.734375 0.484375q-1.21875 0 -2.0625 -0.796875q-0.828125 -0.78125 -1.046875 -2.4375q-0.296875 0.609375 -0.578125 0.921875q-0.609375 0.65625 -1.515625 1.25l-3.125 2.0l0 -1.90625l2.390625 -1.515625q1.03125 -0.671875 1.578125 -1.109375q0.546875 -0.421875 0.765625 -0.765625q0.21875 -0.328125 0.296875 -0.6875q0.0625 -0.25 0.0625 -0.84375l0 -1.75l-5.09375 0l0 -1.515625zm6.40625 1.515625l0 3.25q0 1.046875 0.203125 1.625q0.21875 0.59375 0.6875 0.890625q0.484375 0.3125 1.03125 0.3125q0.8125 0 1.328125 -0.59375q0.53125 -0.59375 0.53125 -1.859375l0 -3.625l-3.78125 0zm-3.734375 15.5078125l-0.171875 1.453125q-1.28125 -0.34375 -1.984375 -1.28125q-0.703125 -0.921875 -0.703125 -2.359375q0 -1.828125 1.125 -2.890625q1.125 -1.0625 3.140625 -1.0625q2.09375 0 3.25 1.078125q1.15625 1.078125 1.15625 2.796875q0 1.65625 -1.140625 2.703125q-1.125 1.0625 -3.171875 1.0625q-0.125 0 -0.375 0l0 -6.1875q-1.375 0.078125 -2.109375 0.765625q-0.71875 0.703125 -0.71875 1.734375q0 0.78125 0.40625 1.328125q0.40625 0.546875 1.296875 0.859375zm2.28125 -4.609375l0 4.625q1.046875 -0.09375 1.5625 -0.53125q0.8125 -0.671875 0.8125 -1.734375q0 -0.96875 -0.65625 -1.640625q-0.640625 -0.65625 -1.71875 -0.71875zm-8.140625 13.1171875l4.078125 0q-0.46875 -0.328125 -0.78125 -0.921875q-0.296875 -0.578125 -0.296875 -1.25q0 -1.46875 1.171875 -2.546875q1.1875 -1.0625 3.25 -1.0625q1.25 0 2.234375 0.4375q1.0 0.4375 1.5 1.25q0.515625 0.828125 0.515625 1.8125q0 1.546875 -1.296875 2.421875l1.109375 0l0 1.265625l-11.484375 0l0 -1.40625zm7.359375 -4.328125q-1.59375 0 -2.40625 0.671875q-0.796875 0.671875 -0.796875 1.609375q0 0.890625 0.765625 1.53125q0.765625 0.65625 2.3125 0.65625q1.65625 0 2.484375 -0.6875q0.84375 -0.671875 0.84375 -1.59375q0 -0.921875 -0.78125 -1.5625q-0.765625 -0.625 -2.421875 -0.625zm-4.171875 13.3828125l1.21875 0q-1.40625 -0.96875 -1.40625 -2.640625q0 -0.734375 0.28125 -1.375q0.28125 -0.625 0.703125 -0.9375q0.4375 -0.3125 1.046875 -0.4375q0.421875 -0.078125 1.3125 -0.078125l5.140625 0l0 1.40625l-4.59375 0q-1.109375 0 -1.484375 0.078125q-0.5625 0.140625 -0.875 0.5625q-0.3125 0.4375 -0.3125 1.0625q0 0.640625 0.3125 1.1875q0.328125 0.5625 0.890625 0.78125q0.5625 0.234375 1.625 0.234375l4.4375 0l0 1.40625l-8.296875 0l0 -1.25zm2.671875 9.132805l-0.171875 1.453125q-1.28125 -0.34375 -1.984375 -1.28125q-0.703125 -0.9218674 -0.703125 -2.3593674q0 -1.828125 1.125 -2.890625q1.125 -1.0625 3.140625 -1.0625q2.09375 0 3.25 1.078125q1.15625 1.078125 1.15625 2.796875q0 1.65625 -1.140625 2.7031174q-1.125 1.0625 -3.171875 1.0625q-0.125 0 -0.375 0l0 -6.1874924q-1.375 0.078125 -2.109375 0.765625q-0.71875 0.703125 -0.71875 1.734375q0 0.78125 0.40625 1.328125q0.40625 0.546875 1.296875 0.8593674zm2.28125 -4.6093674l0 4.6249924q1.046875 -0.09375 1.5625 -0.5312424q0.8125 -0.671875 0.8125 -1.734375q0 -0.96875 -0.65625 -1.640625q-0.640625 -0.65625 -1.71875 -0.71875zm-2.46875 7.27343l0.21875 1.390625q-0.84375 0.109375 -1.296875 0.640625q-0.4375 0.546875 -0.4375 1.5q0 0.96875 0.390625 1.4375q0.40625 0.46875 0.9375 0.46875q0.46875 0 0.75 -0.40625q0.1875 -0.296875 0.46875 -1.4375q0.390625 -1.546875 0.671875 -2.15625q0.296875 -0.59375 0.796875 -0.90625q0.5 -0.296875 1.109375 -0.296875q0.5625 0 1.03125 0.25q0.46875 0.25 0.78125 0.6875q0.25 0.328125 0.40625 0.890625q0.171875 0.578125 0.171875 1.21875q0 0.984375 -0.28125 1.71875q-0.28125 0.734375 -0.765625 1.078125q-0.46875 0.359375 -1.28125 0.5l-0.1875 -1.375q0.640625 -0.09375 1.0 -0.546875q0.359375 -0.453125 0.359375 -1.265625q0 -0.96875 -0.328125 -1.390625q-0.3125 -0.40625 -0.734375 -0.40625q-0.28125 0 -0.5 0.171875q-0.21875 0.171875 -0.375 0.53125q-0.078125 0.21875 -0.359375 1.25q-0.390625 1.484375 -0.65625 2.078125q-0.25 0.59375 -0.734375 0.921875q-0.484375 0.34375 -1.203125 0.34375q-0.703125 0 -1.328125 -0.421875q-0.609375 -0.40625 -0.953125 -1.1875q-0.34375 -0.765625 -0.34375 -1.734375q0 -1.625 0.671875 -2.46875q0.671875 -0.84375 2.0 -1.078125zm-1.21875 11.625l-1.25 0.203125q-0.125 -0.59375 -0.125 -1.0625q0 -0.765625 0.234375 -1.1875q0.25 -0.421875 0.640625 -0.59375q0.40625 -0.171875 1.671875 -0.171875l4.765625 0l0 -1.03125l1.09375 0l0 1.03125l2.0625 0l0.84375 1.40625l-2.90625 0l0 1.40625l-1.09375 0l0 -1.40625l-4.84375 0q-0.609375 0 -0.78125 0.0625q-0.171875 0.078125 -0.28125 0.25q-0.09375 0.171875 -0.09375 0.484375q0 0.234375 0.0625 0.609375z" fill-rule="nonzero"/><path fill="#000000" d="m212.20934 98.2689l11.453125 0l0 4.328125q0 1.140625 -0.109375 1.734375q-0.140625 0.84375 -0.53125 1.40625q-0.390625 0.578125 -1.109375 0.921875q-0.703125 0.359375 -1.5625 0.359375q-1.453125 0 -2.46875 -0.9375q-1.015625 -0.921875 -1.015625 -3.359375l0 -2.9375l-4.65625 0l0 -1.515625zm6.015625 1.515625l0 2.96875q0 1.46875 0.546875 2.078125q0.546875 0.625 1.53125 0.625q0.71875 0 1.234375 -0.375q0.515625 -0.359375 0.671875 -0.953125q0.109375 -0.375 0.109375 -1.40625l0 -2.9375l-4.09375 0zm-1.859375 8.453125q2.296875 0 3.40625 1.28125q0.921875 1.078125 0.921875 2.609375q0 1.71875 -1.125 2.796875q-1.109375 1.09375 -3.09375 1.09375q-1.59375 0 -2.515625 -0.484375q-0.921875 -0.484375 -1.4375 -1.40625q-0.5 -0.90625 -0.5 -2.0q0 -1.734375 1.109375 -2.8125q1.125 -1.078125 3.234375 -1.078125zm0 1.453125q-1.59375 0 -2.390625 0.6875q-0.796875 0.703125 -0.796875 1.75q0 1.046875 0.796875 1.734375q0.796875 0.703125 2.4375 0.703125q1.53125 0 2.328125 -0.703125q0.796875 -0.6875 0.796875 -1.734375q0 -1.046875 -0.796875 -1.75q-0.78125 -0.6875 -2.375 -0.6875zm0 7.4453125q2.296875 0 3.40625 1.28125q0.921875 1.078125 0.921875 2.609375q0 1.71875 -1.125 2.796875q-1.109375 1.09375 -3.09375 1.09375q-1.59375 0 -2.515625 -0.484375q-0.921875 -0.484375 -1.4375 -1.40625q-0.5 -0.90625 -0.5 -2.0q0 -1.734375 1.109375 -2.8125q1.125 -1.078125 3.234375 -1.078125zm0 1.453125q-1.59375 0 -2.390625 0.6875q-0.796875 0.703125 -0.796875 1.75q0 1.046875 0.796875 1.734375q0.796875 0.703125 2.4375 0.703125q1.53125 0 2.328125 -0.703125q0.796875 -0.6875 0.796875 -1.734375q0 -1.046875 -0.796875 -1.75q-0.78125 -0.6875 -2.375 -0.6875zm-4.15625 7.9453125l11.453125 0l0 1.40625l-11.453125 0l0 -1.40625z" fill-rule="nonzero"/><defs><linearGradient id="g2f102a8ae0b_0_29.6" gradientUnits="userSpaceOnUse" gradientTransform="matrix(0.0 7.127126472770454 -7.127126472770454 0.0 0.0 0.0)" spreadMethod="pad" x1="6.209381801589962" y1="-67.40945279610044" x2="6.209355907950386" y2="-60.28232632337701"><stop offset="0.0" stop-color="#dcecd5"/><stop offset="1.0" stop-color="#92bc81"/></linearGradient></defs><path fill="url(#g2f102a8ae0b_0_29.6)" d="m480.4352 44.25505l0 137.58237l-50.79544 0l0 -137.58237z" fill-rule="evenodd"/><path fill="#000000" fill-opacity="0.0" d="m480.4352 61.452847l-50.79544 0m50.79544 103.18678l-50.79544 0" fill-rule="evenodd"/><path fill="#000000" fill-opacity="0.0" d="m480.4352 44.25505l0 137.58237l-50.79544 0l0 -137.58237z" fill-rule="evenodd"/><path stroke="#595959" stroke-width="1.0" stroke-linejoin="round" stroke-linecap="butt" d="m480.4352 61.452847l-50.79544 0m50.79544 103.18678l-50.79544 0" fill-rule="evenodd"/><path stroke="#595959" stroke-width="1.0" stroke-linejoin="round" stroke-linecap="butt" d="m480.4352 44.25505l0 137.58237l-50.79544 0l0 -137.58237z" fill-rule="evenodd"/><path fill="#000000" d="m458.6775 84.51499l11.453125 0l0 5.078125q0 1.53125 -0.3125 2.328125q-0.296875 0.796875 -1.078125 1.265625q-0.78125 0.484375 -1.734375 0.484375q-1.21875 0 -2.0625 -0.796875q-0.828125 -0.78125 -1.046875 -2.4375q-0.296875 0.609375 -0.578125 0.921875q-0.609375 0.65625 -1.515625 1.25l-3.125 2.0l0 -1.90625l2.390625 -1.515625q1.03125 -0.671875 1.578125 -1.109375q0.546875 -0.421875 0.765625 -0.765625q0.21875 -0.328125 0.296875 -0.6875q0.0625 -0.25 0.0625 -0.84375l0 -1.75l-5.09375 0l0 -1.515625zm6.40625 1.515625l0 3.25q0 1.046875 0.203125 1.625q0.21875 0.59375 0.6875 0.890625q0.484375 0.3125 1.03125 0.3125q0.8125 0 1.328125 -0.59375q0.53125 -0.59375 0.53125 -1.859375l0 -3.625l-3.78125 0zm-3.734375 15.5078125l-0.171875 1.453125q-1.28125 -0.34375 -1.984375 -1.28125q-0.703125 -0.921875 -0.703125 -2.359375q0 -1.828125 1.125 -2.890625q1.125 -1.0625 3.140625 -1.0625q2.09375 0 3.25 1.078125q1.15625 1.078125 1.15625 2.796875q0 1.65625 -1.140625 2.703125q-1.125 1.0625 -3.171875 1.0625q-0.125 0 -0.375 0l0 -6.1875q-1.375 0.078125 -2.109375 0.765625q-0.71875 0.703125 -0.71875 1.734375q0 0.78125 0.40625 1.328125q0.40625 0.546875 1.296875 0.859375zm2.28125 -4.609375l0 4.625q1.046875 -0.09375 1.5625 -0.53125q0.8125 -0.671875 0.8125 -1.734375q0 -0.96875 -0.65625 -1.640625q-0.640625 -0.65625 -1.71875 -0.71875zm-8.140625 13.1171875l4.078125 0q-0.46875 -0.328125 -0.78125 -0.921875q-0.296875 -0.578125 -0.296875 -1.25q0 -1.46875 1.171875 -2.546875q1.1875 -1.0625 3.25 -1.0625q1.25 0 2.234375 0.4375q1.0 0.4375 1.5 1.25q0.515625 0.828125 0.515625 1.8125q0 1.546875 -1.296875 2.421875l1.109375 0l0 1.265625l-11.484375 0l0 -1.40625zm7.359375 -4.328125q-1.59375 0 -2.40625 0.671875q-0.796875 0.671875 -0.796875 1.609375q0 0.890625 0.765625 1.53125q0.765625 0.65625 2.3125 0.65625q1.65625 0 2.484375 -0.6875q0.84375 -0.671875 0.84375 -1.59375q0 -0.921875 -0.78125 -1.5625q-0.765625 -0.625 -2.421875 -0.625zm-4.171875 13.3828125l1.21875 0q-1.40625 -0.96875 -1.40625 -2.640625q0 -0.734375 0.28125 -1.375q0.28125 -0.625 0.703125 -0.9375q0.4375 -0.3125 1.046875 -0.4375q0.421875 -0.078125 1.3125 -0.078125l5.140625 0l0 1.40625l-4.59375 0q-1.109375 0 -1.484375 0.078125q-0.5625 0.140625 -0.875 0.5625q-0.3125 0.4375 -0.3125 1.0625q0 0.640625 0.3125 1.1875q0.328125 0.5625 0.890625 0.78125q0.5625 0.234375 1.625 0.234375l4.4375 0l0 1.40625l-8.296875 0l0 -1.25zm2.671875 9.132805l-0.171875 1.453125q-1.28125 -0.34375 -1.984375 -1.28125q-0.703125 -0.9218674 -0.703125 -2.3593674q0 -1.828125 1.125 -2.890625q1.125 -1.0625 3.140625 -1.0625q2.09375 0 3.25 1.078125q1.15625 1.078125 1.15625 2.796875q0 1.65625 -1.140625 2.7031174q-1.125 1.0625 -3.171875 1.0625q-0.125 0 -0.375 0l0 -6.1874924q-1.375 0.078125 -2.109375 0.765625q-0.71875 0.703125 -0.71875 1.734375q0 0.78125 0.40625 1.328125q0.40625 0.546875 1.296875 0.8593674zm2.28125 -4.6093674l0 4.6249924q1.046875 -0.09375 1.5625 -0.5312424q0.8125 -0.671875 0.8125 -1.734375q0 -0.96875 -0.65625 -1.640625q-0.640625 -0.65625 -1.71875 -0.71875zm-2.46875 7.27343l0.21875 1.390625q-0.84375 0.109375 -1.296875 0.640625q-0.4375 0.546875 -0.4375 1.5q0 0.96875 0.390625 1.4375q0.40625 0.46875 0.9375 0.46875q0.46875 0 0.75 -0.40625q0.1875 -0.296875 0.46875 -1.4375q0.390625 -1.546875 0.671875 -2.15625q0.296875 -0.59375 0.796875 -0.90625q0.5 -0.296875 1.109375 -0.296875q0.5625 0 1.03125 0.25q0.46875 0.25 0.78125 0.6875q0.25 0.328125 0.40625 0.890625q0.171875 0.578125 0.171875 1.21875q0 0.984375 -0.28125 1.71875q-0.28125 0.734375 -0.765625 1.078125q-0.46875 0.359375 -1.28125 0.5l-0.1875 -1.375q0.640625 -0.09375 1.0 -0.546875q0.359375 -0.453125 0.359375 -1.265625q0 -0.96875 -0.328125 -1.390625q-0.3125 -0.40625 -0.734375 -0.40625q-0.28125 0 -0.5 0.171875q-0.21875 0.171875 -0.375 0.53125q-0.078125 0.21875 -0.359375 1.25q-0.390625 1.484375 -0.65625 2.078125q-0.25 0.59375 -0.734375 0.921875q-0.484375 0.34375 -1.203125 0.34375q-0.703125 0 -1.328125 -0.421875q-0.609375 -0.40625 -0.953125 -1.1875q-0.34375 -0.765625 -0.34375 -1.734375q0 -1.625 0.671875 -2.46875q0.671875 -0.84375 2.0 -1.078125zm-1.21875 11.625l-1.25 0.203125q-0.125 -0.59375 -0.125 -1.0625q0 -0.765625 0.234375 -1.1875q0.25 -0.421875 0.640625 -0.59375q0.40625 -0.171875 1.671875 -0.171875l4.765625 0l0 -1.03125l1.09375 0l0 1.03125l2.0625 0l0.84375 1.40625l-2.90625 0l0 1.40625l-1.09375 0l0 -1.40625l-4.84375 0q-0.609375 0 -0.78125 0.0625q-0.171875 0.078125 -0.28125 0.25q-0.09375 0.171875 -0.09375 0.484375q0 0.234375 0.0625 0.609375z" fill-rule="nonzero"/><path fill="#000000" d="m439.6775 98.2689l11.453125 0l0 4.328125q0 1.140625 -0.109375 1.734375q-0.140625 0.84375 -0.53125 1.40625q-0.390625 0.578125 -1.109375 0.921875q-0.703125 0.359375 -1.5625 0.359375q-1.453125 0 -2.46875 -0.9375q-1.015625 -0.921875 -1.015625 -3.359375l0 -2.9375l-4.65625 0l0 -1.515625zm6.015625 1.515625l0 2.96875q0 1.46875 0.546875 2.078125q0.546875 0.625 1.53125 0.625q0.71875 0 1.234375 -0.375q0.515625 -0.359375 0.671875 -0.953125q0.109375 -0.375 0.109375 -1.40625l0 -2.9375l-4.09375 0zm-1.859375 8.453125q2.296875 0 3.40625 1.28125q0.921875 1.078125 0.921875 2.609375q0 1.71875 -1.125 2.796875q-1.109375 1.09375 -3.09375 1.09375q-1.59375 0 -2.515625 -0.484375q-0.921875 -0.484375 -1.4375 -1.40625q-0.5 -0.90625 -0.5 -2.0q0 -1.734375 1.109375 -2.8125q1.125 -1.078125 3.234375 -1.078125zm0 1.453125q-1.59375 0 -2.390625 0.6875q-0.796875 0.703125 -0.796875 1.75q0 1.046875 0.796875 1.734375q0.796875 0.703125 2.4375 0.703125q1.53125 0 2.328125 -0.703125q0.796875 -0.6875 0.796875 -1.734375q0 -1.046875 -0.796875 -1.75q-0.78125 -0.6875 -2.375 -0.6875zm0 7.4453125q2.296875 0 3.40625 1.28125q0.921875 1.078125 0.921875 2.609375q0 1.71875 -1.125 2.796875q-1.109375 1.09375 -3.09375 1.09375q-1.59375 0 -2.515625 -0.484375q-0.921875 -0.484375 -1.4375 -1.40625q-0.5 -0.90625 -0.5 -2.0q0 -1.734375 1.109375 -2.8125q1.125 -1.078125 3.234375 -1.078125zm0 1.453125q-1.59375 0 -2.390625 0.6875q-0.796875 0.703125 -0.796875 1.75q0 1.046875 0.796875 1.734375q0.796875 0.703125 2.4375 0.703125q1.53125 0 2.328125 -0.703125q0.796875 -0.6875 0.796875 -1.734375q0 -1.046875 -0.796875 -1.75q-0.78125 -0.6875 -2.375 -0.6875zm-4.15625 7.9453125l11.453125 0l0 1.40625l-11.453125 0l0 -1.40625z" fill-rule="nonzero"/><defs><radialGradient id="g2f102a8ae0b_0_29.7" gradientUnits="userSpaceOnUse" gradientTransform="matrix(9.567302651201384 0.0 0.0 9.567302651201384 0.0 0.0)" spreadMethod="pad" cx="59.99150326548904" cy="23.66335516196919" fx="59.99150326548904" fy="23.66335516196919" r="9.567302703857422"><stop offset="0.0" stop-color="#f5d0d0"/><stop offset="1.0" stop-color="#d96868"/></radialGradient></defs><path fill="url(#g2f102a8ae0b_0_29.7)" d="m518.3271 191.55983l111.25958 0l0 0c7.6954956 0 15.075806 3.057022 20.517334 8.49855c5.4415283 5.4415283 8.498535 12.821838 8.498535 20.517319l0 5.8187866l0 0c0 19.238632 -15.596008 34.83464 -34.834656 34.83464l-99.62201 0c-19.238678 0 -34.834686 -15.596008 -34.834686 -34.83464l0 -5.8187866l0 0c0 -16.025024 12.990845 -29.01587 29.0159 -29.01587z" fill-rule="evenodd"/><path stroke="#595959" stroke-width="1.0" stroke-linejoin="round" stroke-linecap="butt" d="m518.3271 191.55983l111.25958 0l0 0c7.6954956 0 15.075806 3.057022 20.517334 8.49855c5.4415283 5.4415283 8.498535 12.821838 8.498535 20.517319l0 5.8187866l0 0c0 19.238632 -15.596008 34.83464 -34.834656 34.83464l-99.62201 0c-19.238678 0 -34.834686 -15.596008 -34.834686 -34.83464l0 -5.8187866l0 0c0 -16.025024 12.990845 -29.01587 29.0159 -29.01587z" fill-rule="evenodd"/><path fill="#434343" d="m551.58185 220.74234l0 -14.3125l1.9375 0l7.515625 11.234375l0 -11.234375l1.8125 0l0 14.3125l-1.9375 0l-7.515625 -11.25l0 11.25l-1.8125 0zm13.583984 -5.1875q0 -2.875 1.59375 -4.265625q1.34375 -1.15625 3.265625 -1.15625q2.140625 0 3.484375 1.40625q1.359375 1.40625 1.359375 3.875q0 2.0 -0.59375 3.15625q-0.59375 1.140625 -1.75 1.78125q-1.140625 0.625 -2.5 0.625q-2.1875 0 -3.53125 -1.390625q-1.328125 -1.40625 -1.328125 -4.03125zm1.796875 0q0 2.0 0.859375 2.984375q0.875 0.984375 2.203125 0.984375q1.3125 0 2.171875 -0.984375q0.875 -1.0 0.875 -3.046875q0 -1.921875 -0.875 -2.90625q-0.875 -1.0 -2.171875 -1.0q-1.328125 0 -2.203125 1.0q-0.859375 0.984375 -0.859375 2.96875zm16.701172 5.1875l0 -1.3125q-0.984375 1.546875 -2.90625 1.546875q-1.234375 0 -2.28125 -0.6875q-1.03125 -0.6875 -1.609375 -1.90625q-0.5625 -1.21875 -0.5625 -2.8125q0 -1.5625 0.515625 -2.828125q0.515625 -1.265625 1.546875 -1.9375q1.046875 -0.671875 2.3125 -0.671875q0.9375 0 1.671875 0.40625q0.734375 0.390625 1.203125 1.015625l0 -5.125l1.734375 0l0 14.3125l-1.625 0zm-5.5625 -5.171875q0 1.984375 0.84375 2.96875q0.84375 0.984375 1.984375 0.984375q1.15625 0 1.953125 -0.9375q0.8125 -0.9375 0.8125 -2.875q0 -2.125 -0.828125 -3.125q-0.8125 -1.0 -2.015625 -1.0q-1.171875 0 -1.96875 0.96875q-0.78125 0.953125 -0.78125 3.015625zm17.060547 1.828125l1.8125 0.234375q-0.421875 1.578125 -1.59375 2.46875q-1.15625 0.875 -2.96875 0.875q-2.265625 0 -3.609375 -1.390625q-1.328125 -1.40625 -1.328125 -3.9375q0 -2.625 1.34375 -4.0625q1.34375 -1.453125 3.5 -1.453125q2.078125 0 3.390625 1.421875q1.328125 1.40625 1.328125 3.984375q0 0.15625 -0.015625 0.46875l-7.734375 0q0.09375 1.703125 0.96875 2.609375q0.875 0.90625 2.171875 0.90625q0.96875 0 1.640625 -0.5q0.6875 -0.515625 1.09375 -1.625zm-5.78125 -2.84375l5.796875 0q-0.109375 -1.296875 -0.65625 -1.953125q-0.84375 -1.015625 -2.1875 -1.015625q-1.203125 0 -2.03125 0.8125q-0.828125 0.796875 -0.921875 2.15625z" fill-rule="nonzero"/><path fill="#434343" d="m526.24005 239.72672l1.890625 0.46875q-0.59375 2.34375 -2.140625 3.578125q-1.546875 1.21875 -3.796875 1.21875q-2.3125 0 -3.765625 -0.9375q-1.4375 -0.953125 -2.203125 -2.734375q-0.75 -1.796875 -0.75 -3.84375q0 -2.234375 0.84375 -3.890625q0.859375 -1.671875 2.4375 -2.53125q1.578125 -0.875 3.46875 -0.875q2.15625 0 3.609375 1.09375q1.46875 1.09375 2.046875 3.078125l-1.859375 0.4375q-0.5 -1.5625 -1.453125 -2.265625q-0.9375 -0.71875 -2.375 -0.71875q-1.65625 0 -2.765625 0.796875q-1.109375 0.78125 -1.5625 2.125q-0.4375 1.328125 -0.4375 2.734375q0 1.828125 0.53125 3.203125q0.53125 1.359375 1.65625 2.03125q1.125 0.671875 2.421875 0.671875q1.59375 0 2.703125 -0.921875q1.109375 -0.921875 1.5 -2.71875zm3.3496094 -0.171875q0 -2.875 1.59375 -4.265625q1.34375 -1.15625 3.265625 -1.15625q2.140625 0 3.484375 1.40625q1.359375 1.40625 1.359375 3.875q0 2.0 -0.59375 3.15625q-0.59375 1.140625 -1.75 1.78125q-1.140625 0.625 -2.5 0.625q-2.1875 0 -3.53125 -1.390625q-1.328125 -1.40625 -1.328125 -4.03125zm1.796875 0q0 2.0 0.859375 2.984375q0.875 0.984375 2.203125 0.984375q1.3125 0 2.171875 -0.984375q0.875 -1.0 0.875 -3.046875q0 -1.921875 -0.875 -2.90625q-0.875 -1.0 -2.171875 -1.0q-1.328125 0 -2.203125 1.0q-0.859375 0.984375 -0.859375 2.96875zm9.966797 5.1875l0 -10.375l1.59375 0l0 1.484375q1.140625 -1.71875 3.296875 -1.71875q0.9375 0 1.71875 0.34375q0.796875 0.328125 1.1875 0.875q0.390625 0.546875 0.546875 1.296875q0.09375 0.5 0.09375 1.71875l0 6.375l-1.765625 0l0 -6.3125q0 -1.078125 -0.203125 -1.609375q-0.203125 -0.53125 -0.734375 -0.84375q-0.515625 -0.3125 -1.21875 -0.3125q-1.125 0 -1.9375 0.71875q-0.8125 0.703125 -0.8125 2.6875l0 5.671875l-1.765625 0zm11.544922 0l0 -9.0l-1.546875 0l0 -1.375l1.546875 0l0 -1.09375q0 -1.046875 0.1875 -1.5625q0.25 -0.6875 0.890625 -1.109375q0.640625 -0.421875 1.796875 -0.421875q0.75 0 1.640625 0.171875l-0.265625 1.53125q-0.546875 -0.09375 -1.03125 -0.09375q-0.796875 0 -1.140625 0.34375q-0.328125 0.34375 -0.328125 1.28125l0 0.953125l2.03125 0l0 1.375l-2.03125 0l0 9.0l-1.75 0zm5.1503906 -12.296875l0 -2.015625l1.765625 0l0 2.015625l-1.765625 0zm0 12.296875l0 -10.375l1.765625 0l0 10.375l-1.765625 0zm4.1152344 0.859375l1.703125 0.25q0.109375 0.796875 0.59375 1.15625q0.65625 0.484375 1.796875 0.484375q1.21875 0 1.875 -0.484375q0.671875 -0.484375 0.90625 -1.359375q0.140625 -0.546875 0.125 -2.265625q-1.15625 1.359375 -2.875 1.359375q-2.140625 0 -3.3125 -1.546875q-1.171875 -1.546875 -1.171875 -3.703125q0 -1.484375 0.53125 -2.734375q0.546875 -1.25 1.5625 -1.9375q1.03125 -0.6875 2.40625 -0.6875q1.828125 0 3.03125 1.484375l0 -1.25l1.609375 0l0 8.96875q0 2.421875 -0.5 3.421875q-0.484375 1.015625 -1.5625 1.59375q-1.0625 0.59375 -2.625 0.59375q-1.84375 0 -3.0 -0.828125q-1.140625 -0.828125 -1.09375 -2.515625zm1.453125 -6.234375q0 2.046875 0.8125 2.984375q0.8125 0.9375 2.03125 0.9375q1.203125 0 2.015625 -0.9375q0.828125 -0.9375 0.828125 -2.921875q0 -1.90625 -0.84375 -2.875q-0.84375 -0.96875 -2.03125 -0.96875q-1.171875 0 -2.0 0.953125q-0.8125 0.953125 -0.8125 2.828125zm16.779297 5.375l0 -1.53125q-1.203125 1.765625 -3.28125 1.765625q-0.921875 0 -1.71875 -0.34375q-0.796875 -0.359375 -1.1875 -0.890625q-0.375 -0.53125 -0.53125 -1.3125q-0.109375 -0.515625 -0.109375 -1.640625l0 -6.421875l1.75 0l0 5.75q0 1.375 0.109375 1.859375q0.171875 0.6875 0.703125 1.09375q0.546875 0.390625 1.328125 0.390625q0.796875 0 1.484375 -0.40625q0.703125 -0.40625 0.984375 -1.09375q0.296875 -0.703125 0.296875 -2.03125l0 -5.5625l1.75 0l0 10.375l-1.578125 0zm4.310547 0l0 -10.375l1.578125 0l0 1.578125q0.609375 -1.109375 1.125 -1.453125q0.515625 -0.359375 1.125 -0.359375q0.890625 0 1.8125 0.5625l-0.609375 1.640625q-0.640625 -0.390625 -1.28125 -0.390625q-0.578125 0 -1.046875 0.359375q-0.453125 0.34375 -0.65625 0.953125q-0.28125 0.9375 -0.28125 2.046875l0 5.4375l-1.765625 0zm13.457031 -1.28125q-0.984375 0.828125 -1.890625 1.171875q-0.90625 0.34375 -1.9375 0.34375q-1.703125 0 -2.625 -0.828125q-0.921875 -0.84375 -0.921875 -2.140625q0 -0.765625 0.34375 -1.390625q0.359375 -0.625 0.921875 -1.0q0.5625 -0.390625 1.265625 -0.59375q0.515625 -0.125 1.5625 -0.265625q2.125 -0.25 3.125 -0.59375q0.015625 -0.359375 0.015625 -0.46875q0 -1.0625 -0.5 -1.515625q-0.671875 -0.59375 -2.0 -0.59375q-1.25 0 -1.84375 0.4375q-0.578125 0.4375 -0.859375 1.546875l-1.71875 -0.234375q0.234375 -1.109375 0.765625 -1.78125q0.53125 -0.6875 1.546875 -1.046875q1.015625 -0.375 2.359375 -0.375q1.328125 0 2.15625 0.3125q0.828125 0.3125 1.21875 0.796875q0.390625 0.46875 0.546875 1.1875q0.09375 0.453125 0.09375 1.625l0 2.34375q0 2.453125 0.109375 3.109375q0.109375 0.640625 0.453125 1.234375l-1.84375 0q-0.265625 -0.546875 -0.34375 -1.28125zm-0.15625 -3.921875q-0.953125 0.390625 -2.875 0.65625q-1.078125 0.15625 -1.53125 0.359375q-0.4375 0.1875 -0.6875 0.5625q-0.25 0.375 -0.25 0.84375q0 0.703125 0.53125 1.171875q0.53125 0.46875 1.5625 0.46875q1.015625 0 1.796875 -0.4375q0.796875 -0.453125 1.171875 -1.21875q0.28125 -0.609375 0.28125 -1.765625l0 -0.640625zm8.341797 3.625l0.25 1.5625q-0.734375 0.15625 -1.328125 0.15625q-0.953125 0 -1.484375 -0.296875q-0.515625 -0.3125 -0.734375 -0.796875q-0.21875 -0.5 -0.21875 -2.078125l0 -5.96875l-1.28125 0l0 -1.375l1.28125 0l0 -2.5625l1.75 -1.0625l0 3.625l1.765625 0l0 1.375l-1.765625 0l0 6.0625q0 0.75 0.09375 0.96875q0.09375 0.203125 0.296875 0.34375q0.21875 0.125 0.609375 0.125q0.28125 0 0.765625 -0.078125zm1.7285156 -10.71875l0 -2.015625l1.765625 0l0 2.015625l-1.765625 0zm0 12.296875l0 -10.375l1.765625 0l0 10.375l-1.765625 0zm3.7871094 -5.1875q0 -2.875 1.59375 -4.265625q1.34375 -1.15625 3.265625 -1.15625q2.140625 0 3.484375 1.40625q1.359375 1.40625 1.359375 3.875q0 2.0 -0.59375 3.15625q-0.59375 1.140625 -1.75 1.78125q-1.140625 0.625 -2.5 0.625q-2.1875 0 -3.53125 -1.390625q-1.328125 -1.40625 -1.328125 -4.03125zm1.796875 0q0 2.0 0.859375 2.984375q0.875 0.984375 2.203125 0.984375q1.3125 0 2.171875 -0.984375q0.875 -1.0 0.875 -3.046875q0 -1.921875 -0.875 -2.90625q-0.875 -1.0 -2.171875 -1.0q-1.328125 0 -2.203125 1.0q-0.859375 0.984375 -0.859375 2.96875zm9.966797 5.1875l0 -10.375l1.59375 0l0 1.484375q1.140625 -1.71875 3.296875 -1.71875q0.9375 0 1.71875 0.34375q0.796875 0.328125 1.1875 0.875q0.390625 0.546875 0.546875 1.296875q0.09375 0.5 0.09375 1.71875l0 6.375l-1.765625 0l0 -6.3125q0 -1.078125 -0.203125 -1.609375q-0.203125 -0.53125 -0.734375 -0.84375q-0.515625 -0.3125 -1.21875 -0.3125q-1.125 0 -1.9375 0.71875q-0.8125 0.703125 -0.8125 2.6875l0 5.671875l-1.765625 0z" fill-rule="nonzero"/><path fill="#eeeeee" d="m754.2716 289.84134l0 -7.149597l45.57483 0l0 -14.299194l-45.57483 0l0 -7.1496277l-14.299194 14.299225z" fill-rule="evenodd"/><path stroke="#595959" stroke-width="1.0" stroke-linejoin="round" stroke-linecap="butt" d="m754.2716 289.84134l0 -7.149597l45.57483 0l0 -14.299194l-45.57483 0l0 -7.1496277l-14.299194 14.299225z" fill-rule="evenodd"/><path fill="#000000" fill-opacity="0.0" d="m781.61475 228.78835l169.29132 0l0 93.511826l-169.29132 0z" fill-rule="evenodd"/><path fill="#000000" d="m817.2624 258.74426l0 -14.312515l10.359375 0l0 1.6875l-8.453125 0l0 4.375l7.90625 0l0 1.6875l-7.90625 0l0 4.8750153l8.78125 0l0 1.6875l-10.6875 0zm11.902344 0l3.796875 -5.3906403l-3.5 -4.984375l2.1875 0l1.59375 2.4375q0.453125 0.6875 0.71875 1.15625q0.4375 -0.640625 0.796875 -1.140625l1.75 -2.453125l2.09375 0l-3.578125 4.890625l3.859375 5.4843903l-2.15625 0l-2.140625 -3.2187653l-0.5625 -0.875l-2.71875 4.0937653l-2.140625 0zm11.171875 3.96875l0 -14.343765l1.609375 0l0 1.34375q0.5625 -0.78125 1.265625 -1.171875q0.71875 -0.40625 1.734375 -0.40625q1.328125 0 2.34375 0.6875q1.015625 0.6875 1.53125 1.9375q0.53125 1.234375 0.53125 2.71875q0 1.59375 -0.578125 2.8750153q-0.5625 1.265625 -1.65625 1.953125q-1.09375 0.671875 -2.296875 0.671875q-0.875 0 -1.578125 -0.375q-0.6875 -0.375 -1.140625 -0.9375l0 5.046875l-1.765625 0zm1.59375 -9.093765q0 2.0 0.8125 2.9531403q0.8125 0.953125 1.96875 0.953125q1.171875 0 2.0 -0.984375q0.84375 -0.98439026 0.84375 -3.0781403q0 -1.96875 -0.828125 -2.953125q-0.8125 -1.0 -1.9375 -1.0q-1.125 0 -2.0 1.0625q-0.859375 1.046875 -0.859375 3.046875zm16.638672 1.78125l1.8125 0.234375q-0.421875 1.5781403 -1.59375 2.4687653q-1.15625 0.875 -2.96875 0.875q-2.265625 0 -3.609375 -1.390625q-1.328125 -1.40625 -1.328125 -3.9375153q0 -2.625 1.34375 -4.0625q1.34375 -1.453125 3.5 -1.453125q2.078125 0 3.390625 1.421875q1.328125 1.40625 1.328125 3.984375q0 0.15625 -0.015625 0.46875l-7.734375 0q0.09375 1.703125 0.96875 2.6093903q0.875 0.90625 2.171875 0.90625q0.96875 0 1.640625 -0.5q0.6875 -0.515625 1.09375 -1.6250153zm-5.78125 -2.84375l5.796875 0q-0.109375 -1.296875 -0.65625 -1.953125q-0.84375 -1.015625 -2.1875 -1.015625q-1.203125 0 -2.03125 0.8125q-0.828125 0.796875 -0.921875 2.15625zm9.779297 6.1875153l0 -10.375015l1.578125 0l0 1.578125q0.609375 -1.109375 1.125 -1.453125q0.515625 -0.359375 1.125 -0.359375q0.890625 0 1.8125 0.5625l-0.609375 1.640625q-0.640625 -0.390625 -1.28125 -0.390625q-0.578125 0 -1.046875 0.359375q-0.453125 0.34375 -0.65625 0.953125q-0.28125 0.9375 -0.28125 2.046875l0 5.4375153l-1.765625 0zm6.6914062 -12.29689l0 -2.015625l1.765625 0l0 2.015625l-1.765625 0zm0 12.29689l0 -10.375015l1.765625 0l0 10.375015l-1.765625 0zm4.4277344 0l0 -10.375015l1.578125 0l0 1.453125q0.484375 -0.75 1.296875 -1.21875q0.8125 -0.46875 1.84375 -0.46875q1.15625 0 1.890625 0.484375q0.734375 0.46875 1.046875 1.328125q1.234375 -1.8125 3.203125 -1.8125q1.546875 0 2.375 0.859375q0.828125 0.859375 0.828125 2.625l0 7.1250153l-1.75 0l0 -6.5312653q0 -1.0625 -0.171875 -1.515625q-0.171875 -0.46875 -0.625 -0.75q-0.4375 -0.28125 -1.046875 -0.28125q-1.09375 0 -1.828125 0.734375q-0.71875 0.71875 -0.71875 2.3125l0 6.0312653l-1.75 0l0 -6.7343903q0 -1.171875 -0.4375 -1.75q-0.421875 -0.59375 -1.40625 -0.59375q-0.734375 0 -1.375 0.390625q-0.625 0.390625 -0.90625 1.140625q-0.28125 0.75 -0.28125 2.171875l0 5.3750153l-1.765625 0zm23.769531 -3.3437653l1.8125 0.234375q-0.421875 1.5781403 -1.59375 2.4687653q-1.15625 0.875 -2.96875 0.875q-2.265625 0 -3.609375 -1.390625q-1.328125 -1.40625 -1.328125 -3.9375153q0 -2.625 1.34375 -4.0625q1.34375 -1.453125 3.5 -1.453125q2.078125 0 3.390625 1.421875q1.328125 1.40625 1.328125 3.984375q0 0.15625 -0.015625 0.46875l-7.734375 0q0.09375 1.703125 0.96875 2.6093903q0.875 0.90625 2.171875 0.90625q0.96875 0 1.640625 -0.5q0.6875 -0.515625 1.09375 -1.6250153zm-5.78125 -2.84375l5.796875 0q-0.109375 -1.296875 -0.65625 -1.953125q-0.84375 -1.015625 -2.1875 -1.015625q-1.203125 0 -2.03125 0.8125q-0.828125 0.796875 -0.921875 2.15625zm9.794922 6.1875153l0 -10.375015l1.59375 0l0 1.484375q1.140625 -1.71875 3.296875 -1.71875q0.9375 0 1.71875 0.34375q0.796875 0.328125 1.1875 0.875q0.39056396 0.546875 0.54681396 1.296875q0.09375 0.5 0.09375 1.71875l0 6.3750153l-1.765564 0l0 -6.3125153q0 -1.078125 -0.203125 -1.609375q-0.203125 -0.53125 -0.734375 -0.84375q-0.515625 -0.3125 -1.21875 -0.3125q-1.125 0 -1.9375 0.71875q-0.8125 0.703125 -0.8125 2.6875l0 5.6718903l-1.765625 0zm14.966736 -1.578125l0.25 1.5625q-0.734375 0.15625 -1.328125 0.15625q-0.953125 0 -1.484375 -0.296875q-0.515625 -0.3125 -0.734375 -0.796875q-0.21875 -0.5 -0.21875 -2.0781403l0 -5.96875l-1.28125 0l0 -1.375l1.28125 0l0 -2.5625l1.75 -1.0625l0 3.625l1.765625 0l0 1.375l-1.765625 0l0 6.0625q0 0.75001526 0.09375 0.96876526q0.09375 0.203125 0.296875 0.34375q0.21875 0.125 0.609375 0.125q0.28125 0 0.765625 -0.078125z" fill-rule="nonzero"/><path fill="#000000" d="m817.09344 278.94736l1.71875 0.21875q-0.28125 1.796875 -1.453125 2.8125q-1.15625 1.0 -2.859375 1.0q-2.125 0 -3.421875 -1.390625q-1.296875 -1.390625 -1.296875 -3.984375q0 -1.6875 0.546875 -2.9375q0.5625 -1.265625 1.703125 -1.890625q1.140625 -0.640625 2.484375 -0.640625q1.6875 0 2.75 0.859375q1.078125 0.859375 1.390625 2.421875l-1.71875 0.265625q-0.234375 -1.046875 -0.859375 -1.5625q-0.625 -0.53125 -1.5 -0.53125q-1.328125 0 -2.15625 0.953125q-0.828125 0.953125 -0.828125 3.0q0 2.09375 0.796875 3.046875q0.796875 0.9375 2.09375 0.9375q1.03125 0 1.71875 -0.625q0.703125 -0.640625 0.890625 -1.953125zm2.578125 -1.390625q0 -2.875 1.59375 -4.265625q1.34375 -1.15625 3.265625 -1.15625q2.140625 0 3.484375 1.40625q1.359375 1.40625 1.359375 3.875q0 2.0 -0.59375 3.15625q-0.59375 1.140625 -1.75 1.78125q-1.140625 0.625 -2.5 0.625q-2.1875 0 -3.53125 -1.390625q-1.328125 -1.40625 -1.328125 -4.03125zm1.796875 0q0 2.0 0.859375 2.984375q0.875 0.984375 2.203125 0.984375q1.3125 0 2.171875 -0.984375q0.875 -1.0 0.875 -3.046875q0 -1.921875 -0.875 -2.90625q-0.875 -1.0 -2.171875 -1.0q-1.328125 0 -2.203125 1.0q-0.859375 0.984375 -0.859375 2.96875zm9.966797 5.1875l0 -10.375l1.59375 0l0 1.484375q1.140625 -1.71875 3.296875 -1.71875q0.9375 0 1.71875 0.34375q0.796875 0.328125 1.1875 0.875q0.390625 0.546875 0.546875 1.296875q0.09375 0.5 0.09375 1.71875l0 6.375l-1.765625 0l0 -6.3125q0 -1.078125 -0.203125 -1.609375q-0.203125 -0.53125 -0.734375 -0.84375q-0.515625 -0.3125 -1.21875 -0.3125q-1.125 0 -1.9375 0.71875q-0.8125 0.703125 -0.8125 2.6875l0 5.671875l-1.765625 0zm11.544922 0l0 -9.0l-1.546875 0l0 -1.375l1.546875 0l0 -1.09375q0 -1.046875 0.1875 -1.5625q0.25 -0.6875 0.890625 -1.109375q0.640625 -0.421875 1.796875 -0.421875q0.75 0 1.640625 0.171875l-0.265625 1.53125q-0.546875 -0.09375 -1.03125 -0.09375q-0.796875 0 -1.140625 0.34375q-0.328125 0.34375 -0.328125 1.28125l0 0.953125l2.03125 0l0 1.375l-2.03125 0l0 9.0l-1.75 0zm5.1503906 -12.296875l0 -2.015625l1.765625 0l0 2.015625l-1.765625 0zm0 12.296875l0 -10.375l1.765625 0l0 10.375l-1.765625 0zm4.1152344 0.859375l1.703125 0.25q0.109375 0.796875 0.59375 1.15625q0.65625 0.484375 1.796875 0.484375q1.21875 0 1.875 -0.484375q0.671875 -0.484375 0.90625 -1.359375q0.140625 -0.546875 0.125 -2.265625q-1.15625 1.359375 -2.875 1.359375q-2.140625 0 -3.3125 -1.546875q-1.171875 -1.546875 -1.171875 -3.703125q0 -1.484375 0.53125 -2.734375q0.546875 -1.25 1.5625 -1.9375q1.03125 -0.6875 2.40625 -0.6875q1.828125 0 3.03125 1.484375l0 -1.25l1.609375 0l0 8.96875q0 2.421875 -0.5 3.421875q-0.484375 1.015625 -1.5625 1.59375q-1.0625 0.59375 -2.625 0.59375q-1.84375 0 -3.0 -0.828125q-1.140625 -0.828125 -1.09375 -2.515625zm1.453125 -6.234375q0 2.046875 0.8125 2.984375q0.8125 0.9375 2.03125 0.9375q1.203125 0 2.015625 -0.9375q0.828125 -0.9375 0.828125 -2.921875q0 -1.90625 -0.84375 -2.875q-0.84375 -0.96875 -2.03125 -0.96875q-1.171875 0 -2.0 0.953125q-0.8125 0.953125 -0.8125 2.828125zm16.779297 5.375l0 -1.53125q-1.203125 1.765625 -3.28125 1.765625q-0.921875 0 -1.71875 -0.34375q-0.796875 -0.359375 -1.1875 -0.890625q-0.375 -0.53125 -0.53125 -1.3125q-0.109375 -0.515625 -0.109375 -1.640625l0 -6.421875l1.75 0l0 5.75q0 1.375 0.109375 1.859375q0.171875 0.6875 0.703125 1.09375q0.546875 0.390625 1.328125 0.390625q0.796875 0 1.484375 -0.40625q0.703125 -0.40625 0.984375 -1.09375q0.296875 -0.703125 0.296875 -2.03125l0 -5.5625l1.75 0l0 10.375l-1.578125 0zm4.310547 0l0 -10.375l1.578125 0l0 1.578125q0.609375 -1.109375 1.125 -1.453125q0.515625 -0.359375 1.125 -0.359375q0.890625 0 1.8125 0.5625l-0.609375 1.640625q-0.640625 -0.390625 -1.28125 -0.390625q-0.578125 0 -1.046875 0.359375q-0.453125 0.34375 -0.65625 0.953125q-0.28125 0.9375 -0.28125 2.046875l0 5.4375l-1.765625 0zm13.457031 -1.28125q-0.984375 0.828125 -1.890625 1.171875q-0.90625 0.34375 -1.9375 0.34375q-1.703125 0 -2.625 -0.828125q-0.921875 -0.84375 -0.921875 -2.140625q0 -0.765625 0.34375 -1.390625q0.359375 -0.625 0.921875 -1.0q0.5625 -0.390625 1.265625 -0.59375q0.515625 -0.125 1.5625 -0.265625q2.125 -0.25 3.125 -0.59375q0.015625 -0.359375 0.015625 -0.46875q0 -1.0625 -0.5 -1.515625q-0.671875 -0.59375 -2.0 -0.59375q-1.25 0 -1.84375 0.4375q-0.578125 0.4375 -0.859375 1.546875l-1.71875 -0.234375q0.234375 -1.109375 0.765625 -1.78125q0.53125 -0.6875 1.546875 -1.046875q1.015625 -0.375 2.359375 -0.375q1.328125 0 2.15625 0.3125q0.828125 0.3125 1.21875 0.796875q0.390625 0.46875 0.546875 1.1875q0.09375 0.453125 0.09375 1.625l0 2.34375q0 2.453125 0.109375 3.109375q0.109375 0.640625 0.453125 1.234375l-1.84375 0q-0.265625 -0.546875 -0.34375 -1.28125zm-0.15625 -3.921875q-0.953125 0.390625 -2.875 0.65625q-1.078125 0.15625 -1.53125 0.359375q-0.4375 0.1875 -0.6875 0.5625q-0.25 0.375 -0.25 0.84375q0 0.703125 0.53125 1.171875q0.53125 0.46875 1.5625 0.46875q1.015625 0 1.796875 -0.4375q0.796875 -0.453125 1.171875 -1.21875q0.28125 -0.609375 0.28125 -1.765625l0 -0.640625zm8.341797 3.625l0.25 1.5625q-0.734375 0.15625 -1.328125 0.15625q-0.953125 0 -1.484375 -0.296875q-0.515625 -0.3125 -0.734375 -0.796875q-0.21875 -0.5 -0.21875 -2.078125l0 -5.96875l-1.28125 0l0 -1.375l1.28125 0l0 -2.5625l1.75 -1.0625l0 3.625l1.765625 0l0 1.375l-1.765625 0l0 6.0625q0 0.75 0.09375 0.96875q0.09375 0.203125 0.296875 0.34375q0.21875 0.125 0.609375 0.125q0.28125 0 0.765625 -0.078125zm1.7285156 -10.71875l0 -2.015625l1.765625 0l0 2.015625l-1.765625 0zm0 12.296875l0 -10.375l1.765625 0l0 10.375l-1.765625 0zm3.7871094 -5.1875q0 -2.875 1.59375 -4.265625q1.34375 -1.15625 3.265625 -1.15625q2.140625 0 3.484314 1.40625q1.359375 1.40625 1.359375 3.875q0 2.0 -0.59375 3.15625q-0.59375 1.140625 -1.749939 1.78125q-1.140625 0.625 -2.5 0.625q-2.1875 0 -3.53125 -1.390625q-1.328125 -1.40625 -1.328125 -4.03125zm1.796875 0q0 2.0 0.859375 2.984375q0.875 0.984375 2.203125 0.984375q1.3125 0 2.171875 -0.984375q0.87493896 -1.0 0.87493896 -3.046875q0 -1.921875 -0.87493896 -2.90625q-0.875 -1.0 -2.171875 -1.0q-1.328125 0 -2.203125 1.0q-0.859375 0.984375 -0.859375 2.96875zm9.966736 5.1875l0 -10.375l1.59375 0l0 1.484375q1.140625 -1.71875 3.296875 -1.71875q0.9375 0 1.71875 0.34375q0.796875 0.328125 1.1875 0.875q0.390625 0.546875 0.546875 1.296875q0.09375 0.5 0.09375 1.71875l0 6.375l-1.765625 0l0 -6.3125q0 -1.078125 -0.203125 -1.609375q-0.203125 -0.53125 -0.734375 -0.84375q-0.515625 -0.3125 -1.21875 -0.3125q-1.125 0 -1.9375 0.71875q-0.8125 0.703125 -0.8125 2.6875l0 5.671875l-1.765625 0z" fill-rule="nonzero"/><path fill="#000000" d="m825.76337 306.74423l0 -9.0l-1.546875 0l0 -1.375l1.546875 0l0 -1.09375q0 -1.046875 0.1875 -1.5625q0.25 -0.6875 0.890625 -1.109375q0.640625 -0.421875 1.796875 -0.421875q0.75 0 1.640625 0.171875l-0.265625 1.53125q-0.546875 -0.09375 -1.03125 -0.09375q-0.796875 0 -1.140625 0.34375q-0.328125 0.34375 -0.328125 1.28125l0 0.953125l2.03125 0l0 1.375l-2.03125 0l0 9.0l-1.75 0zm5.1191406 0l0 -10.375l1.578125 0l0 1.578125q0.609375 -1.109375 1.125 -1.453125q0.515625 -0.359375 1.125 -0.359375q0.890625 0 1.8125 0.5625l-0.609375 1.640625q-0.640625 -0.390625 -1.28125 -0.390625q-0.578125 0 -1.046875 0.359375q-0.453125 0.34375 -0.65625 0.953125q-0.28125 0.9375 -0.28125 2.046875l0 5.4375l-1.765625 0zm6.0351562 -5.1875q0 -2.875 1.59375 -4.265625q1.34375 -1.15625 3.265625 -1.15625q2.140625 0 3.484375 1.40625q1.359375 1.40625 1.359375 3.875q0 2.0 -0.59375 3.15625q-0.59375 1.140625 -1.75 1.78125q-1.140625 0.625 -2.5 0.625q-2.1875 0 -3.53125 -1.390625q-1.328125 -1.40625 -1.328125 -4.03125zm1.796875 0q0 2.0 0.859375 2.984375q0.875 0.984375 2.203125 0.984375q1.3125 0 2.171875 -0.984375q0.875 -1.0 0.875 -3.046875q0 -1.921875 -0.875 -2.90625q-0.875 -1.0 -2.171875 -1.0q-1.328125 0 -2.203125 1.0q-0.859375 0.984375 -0.859375 2.96875zm9.966797 5.1875l0 -10.375l1.578125 0l0 1.453125q0.484375 -0.75 1.296875 -1.21875q0.8125 -0.46875 1.84375 -0.46875q1.15625 0 1.890625 0.484375q0.734375 0.46875 1.046875 1.328125q1.234375 -1.8125 3.203125 -1.8125q1.546875 0 2.375 0.859375q0.828125 0.859375 0.828125 2.625l0 7.125l-1.75 0l0 -6.53125q0 -1.0625 -0.171875 -1.515625q-0.171875 -0.46875 -0.625 -0.75q-0.4375 -0.28125 -1.046875 -0.28125q-1.09375 0 -1.828125 0.734375q-0.71875 0.71875 -0.71875 2.3125l0 6.03125l-1.75 0l0 -6.734375q0 -1.171875 -0.4375 -1.75q-0.421875 -0.59375 -1.40625 -0.59375q-0.734375 0 -1.375 0.390625q-0.625 0.390625 -0.90625 1.140625q-0.28125 0.75 -0.28125 2.171875l0 5.375l-1.765625 0zm29.013672 0l0 -1.53125q-1.203125 1.765625 -3.28125 1.765625q-0.921875 0 -1.71875 -0.34375q-0.796875 -0.359375 -1.1875 -0.890625q-0.375 -0.53125 -0.53125 -1.3125q-0.109375 -0.515625 -0.109375 -1.640625l0 -6.421875l1.75 0l0 5.75q0 1.375 0.109375 1.859375q0.171875 0.6875 0.703125 1.09375q0.546875 0.390625 1.328125 0.390625q0.796875 0 1.484375 -0.40625q0.703125 -0.40625 0.984375 -1.09375q0.296875 -0.703125 0.296875 -2.03125l0 -5.5625l1.75 0l0 10.375l-1.578125 0zm3.6230469 -3.09375l1.75 -0.28125q0.140625 1.046875 0.8125 1.609375q0.671875 0.546875 1.875 0.546875q1.203125 0 1.78125 -0.484375q0.59375 -0.5 0.59375 -1.15625q0 -0.59375 -0.515625 -0.9375q-0.359375 -0.234375 -1.796875 -0.59375q-1.9375 -0.5 -2.6875 -0.84375q-0.734375 -0.359375 -1.125 -0.984375q-0.390625 -0.640625 -0.390625 -1.40625q0 -0.6875 0.3125 -1.28125q0.328125 -0.59375 0.875 -0.984375q0.40625 -0.296875 1.109375 -0.5q0.71875 -0.21875 1.53125 -0.21875q1.21875 0 2.140625 0.359375q0.921875 0.34375 1.359375 0.953125q0.4375 0.59375 0.609375 1.59375l-1.71875 0.234375q-0.125 -0.796875 -0.6875 -1.234375q-0.5625 -0.453125 -1.578125 -0.453125q-1.21875 0 -1.734375 0.40625q-0.515625 0.390625 -0.515625 0.921875q0 0.34375 0.21875 0.625q0.203125 0.28125 0.671875 0.46875q0.265625 0.09375 1.546875 0.4375q1.875 0.5 2.609375 0.828125q0.734375 0.3125 1.15625 0.921875q0.421875 0.59375 0.421875 1.5q0 0.875 -0.515625 1.65625q-0.515625 0.78125 -1.484375 1.203125q-0.96875 0.421875 -2.1875 0.421875q-2.015625 0 -3.078125 -0.84375q-1.0625 -0.84375 -1.359375 -2.484375zm17.8125 -0.25l1.8125 0.234375q-0.421875 1.578125 -1.59375 2.46875q-1.15625 0.875 -2.96875 0.875q-2.265625 0 -3.609375 -1.390625q-1.328125 -1.40625 -1.328125 -3.9375q0 -2.625 1.34375 -4.0625q1.34375 -1.453125 3.5 -1.453125q2.078125 0 3.390625 1.421875q1.328125 1.40625 1.328125 3.984375q0 0.15625 -0.015625 0.46875l-7.734375 0q0.09375 1.703125 0.96875 2.609375q0.875 0.90625 2.171875 0.90625q0.96875 0 1.640625 -0.5q0.6875 -0.515625 1.09375 -1.625zm-5.78125 -2.84375l5.796875 0q-0.109375 -1.296875 -0.65625 -1.953125q-0.84375 -1.015625 -2.1875 -1.015625q-1.203125 0 -2.03125 0.8125q-0.828125 0.796875 -0.921875 2.15625zm9.779297 6.1875l0 -10.375l1.578125 0l0 1.578125q0.609375 -1.109375 1.125 -1.453125q0.515625 -0.359375 1.125 -0.359375q0.890625 0 1.8125 0.5625l-0.609375 1.640625q-0.640625 -0.390625 -1.28125 -0.390625q-0.578125 0 -1.046875 0.359375q-0.453125 0.34375 -0.65625 0.953125q-0.28125 0.9375 -0.28125 2.046875l0 5.4375l-1.765625 0z" fill-rule="nonzero"/><path fill="#000000" fill-opacity="0.0" d="m739.9724 275.54214l-40.685303 0l0 46.173218l-40.669067 0" fill-rule="evenodd"/><path stroke="#595959" stroke-width="1.0" stroke-linejoin="round" stroke-linecap="butt" d="m739.9724 275.54214l-40.685303 0l0 46.173218l-40.669067 0" fill-rule="evenodd"/><defs><linearGradient id="g2f102a8ae0b_0_29.8" gradientUnits="userSpaceOnUse" gradientTransform="matrix(0.0 7.127126472765519 -7.127126472765519 0.0 0.0 0.0)" spreadMethod="pad" x1="50.508950444068496" y1="-35.493623012996764" x2="50.508927427499984" y2="-28.366496540268415"><stop offset="0.0" stop-color="#dcecd5"/><stop offset="1.0" stop-color="#92bc81"/></linearGradient></defs><path fill="url(#g2f102a8ae0b_0_29.8)" d="m252.96706 359.9837l0 137.58237l-50.795425 0l0 -137.58237z" fill-rule="evenodd"/><path fill="#000000" fill-opacity="0.0" d="m252.96706 377.1815l-50.795425 0m50.795425 103.18677l-50.795425 0" fill-rule="evenodd"/><path fill="#000000" fill-opacity="0.0" d="m252.96706 359.9837l0 137.58237l-50.795425 0l0 -137.58237z" fill-rule="evenodd"/><path stroke="#595959" stroke-width="1.0" stroke-linejoin="round" stroke-linecap="butt" d="m252.96706 377.1815l-50.795425 0m50.795425 103.18677l-50.795425 0" fill-rule="evenodd"/><path stroke="#595959" stroke-width="1.0" stroke-linejoin="round" stroke-linecap="butt" d="m252.96706 359.9837l0 137.58237l-50.795425 0l0 -137.58237z" fill-rule="evenodd"/><path fill="#000000" d="m231.20934 400.24362l11.453125 0l0 5.078125q0 1.53125 -0.3125 2.328125q-0.296875 0.796875 -1.078125 1.265625q-0.78125 0.484375 -1.734375 0.484375q-1.21875 0 -2.0625 -0.796875q-0.828125 -0.78125 -1.046875 -2.4375q-0.296875 0.609375 -0.578125 0.921875q-0.609375 0.65625 -1.515625 1.25l-3.125 2.0l0 -1.90625l2.390625 -1.515625q1.03125 -0.671875 1.578125 -1.109375q0.546875 -0.421875 0.765625 -0.765625q0.21875 -0.328125 0.296875 -0.6875q0.0625 -0.25 0.0625 -0.84375l0 -1.75l-5.09375 0l0 -1.515625zm6.40625 1.515625l0 3.25q0 1.046875 0.203125 1.625q0.21875 0.59375 0.6875 0.890625q0.484375 0.3125 1.03125 0.3125q0.8125 0 1.328125 -0.59375q0.53125 -0.59375 0.53125 -1.859375l0 -3.625l-3.78125 0zm-3.734375 15.5078125l-0.171875 1.453125q-1.28125 -0.34375 -1.984375 -1.28125q-0.703125 -0.921875 -0.703125 -2.359375q0 -1.828125 1.125 -2.890625q1.125 -1.0625 3.140625 -1.0625q2.09375 0 3.25 1.078125q1.15625 1.078125 1.15625 2.796875q0 1.65625 -1.140625 2.703125q-1.125 1.0625 -3.171875 1.0625q-0.125 0 -0.375 0l0 -6.1875q-1.375 0.078125 -2.109375 0.765625q-0.71875 0.703125 -0.71875 1.734375q0 0.78125 0.40625 1.328125q0.40625 0.546875 1.296875 0.859375zm2.28125 -4.609375l0 4.625q1.046875 -0.09375 1.5625 -0.53125q0.8125 -0.671875 0.8125 -1.734375q0 -0.96875 -0.65625 -1.640625q-0.640625 -0.65625 -1.71875 -0.71875zm-8.140625 13.1171875l4.078125 0q-0.46875 -0.328125 -0.78125 -0.921875q-0.296875 -0.578125 -0.296875 -1.25q0 -1.46875 1.171875 -2.546875q1.1875 -1.0625 3.25 -1.0625q1.25 0 2.234375 0.4375q1.0 0.4375 1.5 1.25q0.515625 0.828125 0.515625 1.8125q0 1.546875 -1.296875 2.421875l1.109375 0l0 1.265625l-11.484375 0l0 -1.40625zm7.359375 -4.328125q-1.59375 0 -2.40625 0.671875q-0.796875 0.671875 -0.796875 1.609375q0 0.890625 0.765625 1.53125q0.765625 0.65625 2.3125 0.65625q1.65625 0 2.484375 -0.6875q0.84375 -0.671875 0.84375 -1.59375q0 -0.921875 -0.78125 -1.5625q-0.765625 -0.625 -2.421875 -0.625zm-4.171875 13.3828125l1.21875 0q-1.40625 -0.96875 -1.40625 -2.640625q0 -0.734375 0.28125 -1.375q0.28125 -0.625 0.703125 -0.9375q0.4375 -0.3125 1.046875 -0.4375q0.421875 -0.078125 1.3125 -0.078125l5.140625 0l0 1.40625l-4.59375 0q-1.109375 0 -1.484375 0.078125q-0.5625 0.140625 -0.875 0.5625q-0.3125 0.4375 -0.3125 1.0625q0 0.640625 0.3125 1.1875q0.328125 0.5625 0.890625 0.78125q0.5625 0.234375 1.625 0.234375l4.4375 0l0 1.40625l-8.296875 0l0 -1.25zm2.671875 9.1328125l-0.171875 1.453125q-1.28125 -0.34375 -1.984375 -1.28125q-0.703125 -0.921875 -0.703125 -2.359375q0 -1.828125 1.125 -2.890625q1.125 -1.0625 3.140625 -1.0625q2.09375 0 3.25 1.078125q1.15625 1.078125 1.15625 2.796875q0 1.65625 -1.140625 2.703125q-1.125 1.0625 -3.171875 1.0625q-0.125 0 -0.375 0l0 -6.1875q-1.375 0.078125 -2.109375 0.765625q-0.71875 0.703125 -0.71875 1.734375q0 0.78125 0.40625 1.328125q0.40625 0.546875 1.296875 0.859375zm2.28125 -4.609375l0 4.625q1.046875 -0.09375 1.5625 -0.53125q0.8125 -0.671875 0.8125 -1.734375q0 -0.96875 -0.65625 -1.640625q-0.640625 -0.65625 -1.71875 -0.71875zm-2.46875 7.2734375l0.21875 1.390625q-0.84375 0.109375 -1.296875 0.640625q-0.4375 0.546875 -0.4375 1.5q0 0.96875 0.390625 1.4375q0.40625 0.46875 0.9375 0.46875q0.46875 0 0.75 -0.40625q0.1875 -0.296875 0.46875 -1.4375q0.390625 -1.546875 0.671875 -2.15625q0.296875 -0.59375 0.796875 -0.90625q0.5 -0.296875 1.109375 -0.296875q0.5625 0 1.03125 0.25q0.46875 0.25 0.78125 0.6875q0.25 0.328125 0.40625 0.890625q0.171875 0.578125 0.171875 1.21875q0 0.984375 -0.28125 1.71875q-0.28125 0.734375 -0.765625 1.078125q-0.46875 0.359375 -1.28125 0.5l-0.1875 -1.375q0.640625 -0.09375 1.0 -0.546875q0.359375 -0.453125 0.359375 -1.265625q0 -0.96875 -0.328125 -1.390625q-0.3125 -0.40625 -0.734375 -0.40625q-0.28125 0 -0.5 0.171875q-0.21875 0.171875 -0.375 0.53125q-0.078125 0.21875 -0.359375 1.25q-0.390625 1.484375 -0.65625 2.078125q-0.25 0.59375 -0.734375 0.921875q-0.484375 0.34375 -1.203125 0.34375q-0.703125 0 -1.328125 -0.421875q-0.609375 -0.40625 -0.953125 -1.1875q-0.34375 -0.765625 -0.34375 -1.734375q0 -1.625 0.671875 -2.46875q0.671875 -0.84375 2.0 -1.078125zm-1.21875 11.625l-1.25 0.203125q-0.125 -0.59375 -0.125 -1.0625q0 -0.765625 0.234375 -1.1875q0.25 -0.421875 0.640625 -0.59375q0.40625 -0.171875 1.671875 -0.171875l4.765625 0l0 -1.03125l1.09375 0l0 1.03125l2.0625 0l0.84375 1.40625l-2.90625 0l0 1.40625l-1.09375 0l0 -1.40625l-4.84375 0q-0.609375 0 -0.78125 0.0625q-0.171875 0.078125 -0.28125 0.25q-0.09375 0.171875 -0.09375 0.484375q0 0.234375 0.0625 0.609375z" fill-rule="nonzero"/><path fill="#000000" d="m212.20934 413.99753l11.453125 0l0 4.328125q0 1.140625 -0.109375 1.734375q-0.140625 0.84375 -0.53125 1.40625q-0.390625 0.578125 -1.109375 0.921875q-0.703125 0.359375 -1.5625 0.359375q-1.453125 0 -2.46875 -0.9375q-1.015625 -0.921875 -1.015625 -3.359375l0 -2.9375l-4.65625 0l0 -1.515625zm6.015625 1.515625l0 2.96875q0 1.46875 0.546875 2.078125q0.546875 0.625 1.53125 0.625q0.71875 0 1.234375 -0.375q0.515625 -0.359375 0.671875 -0.953125q0.109375 -0.375 0.109375 -1.40625l0 -2.9375l-4.09375 0zm-1.859375 8.453125q2.296875 0 3.40625 1.28125q0.921875 1.078125 0.921875 2.609375q0 1.71875 -1.125 2.796875q-1.109375 1.09375 -3.09375 1.09375q-1.59375 0 -2.515625 -0.484375q-0.921875 -0.484375 -1.4375 -1.40625q-0.5 -0.90625 -0.5 -2.0q0 -1.734375 1.109375 -2.8125q1.125 -1.078125 3.234375 -1.078125zm0 1.453125q-1.59375 0 -2.390625 0.6875q-0.796875 0.703125 -0.796875 1.75q0 1.046875 0.796875 1.734375q0.796875 0.703125 2.4375 0.703125q1.53125 0 2.328125 -0.703125q0.796875 -0.6875 0.796875 -1.734375q0 -1.046875 -0.796875 -1.75q-0.78125 -0.6875 -2.375 -0.6875zm0 7.4453125q2.296875 0 3.40625 1.28125q0.921875 1.078125 0.921875 2.609375q0 1.71875 -1.125 2.796875q-1.109375 1.09375 -3.09375 1.09375q-1.59375 0 -2.515625 -0.484375q-0.921875 -0.484375 -1.4375 -1.40625q-0.5 -0.90625 -0.5 -2.0q0 -1.734375 1.109375 -2.8125q1.125 -1.078125 3.234375 -1.078125zm0 1.453125q-1.59375 0 -2.390625 0.6875q-0.796875 0.703125 -0.796875 1.75q0 1.046875 0.796875 1.734375q0.796875 0.703125 2.4375 0.703125q1.53125 0 2.328125 -0.703125q0.796875 -0.6875 0.796875 -1.734375q0 -1.046875 -0.796875 -1.75q-0.78125 -0.6875 -2.375 -0.6875zm-4.15625 7.9453125l11.453125 0l0 1.40625l-11.453125 0l0 -1.40625z" fill-rule="nonzero"/><defs><linearGradient id="g2f102a8ae0b_0_29.9" gradientUnits="userSpaceOnUse" gradientTransform="matrix(0.0 7.127126472765519 -7.127126472765519 0.0 0.0 0.0)" spreadMethod="pad" x1="50.508950444068496" y1="-67.40945279614711" x2="50.508927427499984" y2="-60.28232632341876"><stop offset="0.0" stop-color="#dcecd5"/><stop offset="1.0" stop-color="#92bc81"/></linearGradient></defs><path fill="url(#g2f102a8ae0b_0_29.9)" d="m480.4352 359.9837l0 137.58237l-50.79544 0l0 -137.58237z" fill-rule="evenodd"/><path fill="#000000" fill-opacity="0.0" d="m480.4352 377.1815l-50.79544 0m50.79544 103.18677l-50.79544 0" fill-rule="evenodd"/><path fill="#000000" fill-opacity="0.0" d="m480.4352 359.9837l0 137.58237l-50.79544 0l0 -137.58237z" fill-rule="evenodd"/><path stroke="#595959" stroke-width="1.0" stroke-linejoin="round" stroke-linecap="butt" d="m480.4352 377.1815l-50.79544 0m50.79544 103.18677l-50.79544 0" fill-rule="evenodd"/><path stroke="#595959" stroke-width="1.0" stroke-linejoin="round" stroke-linecap="butt" d="m480.4352 359.9837l0 137.58237l-50.79544 0l0 -137.58237z" fill-rule="evenodd"/><path fill="#000000" d="m458.6775 400.24362l11.453125 0l0 5.078125q0 1.53125 -0.3125 2.328125q-0.296875 0.796875 -1.078125 1.265625q-0.78125 0.484375 -1.734375 0.484375q-1.21875 0 -2.0625 -0.796875q-0.828125 -0.78125 -1.046875 -2.4375q-0.296875 0.609375 -0.578125 0.921875q-0.609375 0.65625 -1.515625 1.25l-3.125 2.0l0 -1.90625l2.390625 -1.515625q1.03125 -0.671875 1.578125 -1.109375q0.546875 -0.421875 0.765625 -0.765625q0.21875 -0.328125 0.296875 -0.6875q0.0625 -0.25 0.0625 -0.84375l0 -1.75l-5.09375 0l0 -1.515625zm6.40625 1.515625l0 3.25q0 1.046875 0.203125 1.625q0.21875 0.59375 0.6875 0.890625q0.484375 0.3125 1.03125 0.3125q0.8125 0 1.328125 -0.59375q0.53125 -0.59375 0.53125 -1.859375l0 -3.625l-3.78125 0zm-3.734375 15.5078125l-0.171875 1.453125q-1.28125 -0.34375 -1.984375 -1.28125q-0.703125 -0.921875 -0.703125 -2.359375q0 -1.828125 1.125 -2.890625q1.125 -1.0625 3.140625 -1.0625q2.09375 0 3.25 1.078125q1.15625 1.078125 1.15625 2.796875q0 1.65625 -1.140625 2.703125q-1.125 1.0625 -3.171875 1.0625q-0.125 0 -0.375 0l0 -6.1875q-1.375 0.078125 -2.109375 0.765625q-0.71875 0.703125 -0.71875 1.734375q0 0.78125 0.40625 1.328125q0.40625 0.546875 1.296875 0.859375zm2.28125 -4.609375l0 4.625q1.046875 -0.09375 1.5625 -0.53125q0.8125 -0.671875 0.8125 -1.734375q0 -0.96875 -0.65625 -1.640625q-0.640625 -0.65625 -1.71875 -0.71875zm-8.140625 13.1171875l4.078125 0q-0.46875 -0.328125 -0.78125 -0.921875q-0.296875 -0.578125 -0.296875 -1.25q0 -1.46875 1.171875 -2.546875q1.1875 -1.0625 3.25 -1.0625q1.25 0 2.234375 0.4375q1.0 0.4375 1.5 1.25q0.515625 0.828125 0.515625 1.8125q0 1.546875 -1.296875 2.421875l1.109375 0l0 1.265625l-11.484375 0l0 -1.40625zm7.359375 -4.328125q-1.59375 0 -2.40625 0.671875q-0.796875 0.671875 -0.796875 1.609375q0 0.890625 0.765625 1.53125q0.765625 0.65625 2.3125 0.65625q1.65625 0 2.484375 -0.6875q0.84375 -0.671875 0.84375 -1.59375q0 -0.921875 -0.78125 -1.5625q-0.765625 -0.625 -2.421875 -0.625zm-4.171875 13.3828125l1.21875 0q-1.40625 -0.96875 -1.40625 -2.640625q0 -0.734375 0.28125 -1.375q0.28125 -0.625 0.703125 -0.9375q0.4375 -0.3125 1.046875 -0.4375q0.421875 -0.078125 1.3125 -0.078125l5.140625 0l0 1.40625l-4.59375 0q-1.109375 0 -1.484375 0.078125q-0.5625 0.140625 -0.875 0.5625q-0.3125 0.4375 -0.3125 1.0625q0 0.640625 0.3125 1.1875q0.328125 0.5625 0.890625 0.78125q0.5625 0.234375 1.625 0.234375l4.4375 0l0 1.40625l-8.296875 0l0 -1.25zm2.671875 9.1328125l-0.171875 1.453125q-1.28125 -0.34375 -1.984375 -1.28125q-0.703125 -0.921875 -0.703125 -2.359375q0 -1.828125 1.125 -2.890625q1.125 -1.0625 3.140625 -1.0625q2.09375 0 3.25 1.078125q1.15625 1.078125 1.15625 2.796875q0 1.65625 -1.140625 2.703125q-1.125 1.0625 -3.171875 1.0625q-0.125 0 -0.375 0l0 -6.1875q-1.375 0.078125 -2.109375 0.765625q-0.71875 0.703125 -0.71875 1.734375q0 0.78125 0.40625 1.328125q0.40625 0.546875 1.296875 0.859375zm2.28125 -4.609375l0 4.625q1.046875 -0.09375 1.5625 -0.53125q0.8125 -0.671875 0.8125 -1.734375q0 -0.96875 -0.65625 -1.640625q-0.640625 -0.65625 -1.71875 -0.71875zm-2.46875 7.2734375l0.21875 1.390625q-0.84375 0.109375 -1.296875 0.640625q-0.4375 0.546875 -0.4375 1.5q0 0.96875 0.390625 1.4375q0.40625 0.46875 0.9375 0.46875q0.46875 0 0.75 -0.40625q0.1875 -0.296875 0.46875 -1.4375q0.390625 -1.546875 0.671875 -2.15625q0.296875 -0.59375 0.796875 -0.90625q0.5 -0.296875 1.109375 -0.296875q0.5625 0 1.03125 0.25q0.46875 0.25 0.78125 0.6875q0.25 0.328125 0.40625 0.890625q0.171875 0.578125 0.171875 1.21875q0 0.984375 -0.28125 1.71875q-0.28125 0.734375 -0.765625 1.078125q-0.46875 0.359375 -1.28125 0.5l-0.1875 -1.375q0.640625 -0.09375 1.0 -0.546875q0.359375 -0.453125 0.359375 -1.265625q0 -0.96875 -0.328125 -1.390625q-0.3125 -0.40625 -0.734375 -0.40625q-0.28125 0 -0.5 0.171875q-0.21875 0.171875 -0.375 0.53125q-0.078125 0.21875 -0.359375 1.25q-0.390625 1.484375 -0.65625 2.078125q-0.25 0.59375 -0.734375 0.921875q-0.484375 0.34375 -1.203125 0.34375q-0.703125 0 -1.328125 -0.421875q-0.609375 -0.40625 -0.953125 -1.1875q-0.34375 -0.765625 -0.34375 -1.734375q0 -1.625 0.671875 -2.46875q0.671875 -0.84375 2.0 -1.078125zm-1.21875 11.625l-1.25 0.203125q-0.125 -0.59375 -0.125 -1.0625q0 -0.765625 0.234375 -1.1875q0.25 -0.421875 0.640625 -0.59375q0.40625 -0.171875 1.671875 -0.171875l4.765625 0l0 -1.03125l1.09375 0l0 1.03125l2.0625 0l0.84375 1.40625l-2.90625 0l0 1.40625l-1.09375 0l0 -1.40625l-4.84375 0q-0.609375 0 -0.78125 0.0625q-0.171875 0.078125 -0.28125 0.25q-0.09375 0.171875 -0.09375 0.484375q0 0.234375 0.0625 0.609375z" fill-rule="nonzero"/><path fill="#000000" d="m439.6775 413.99753l11.453125 0l0 4.328125q0 1.140625 -0.109375 1.734375q-0.140625 0.84375 -0.53125 1.40625q-0.390625 0.578125 -1.109375 0.921875q-0.703125 0.359375 -1.5625 0.359375q-1.453125 0 -2.46875 -0.9375q-1.015625 -0.921875 -1.015625 -3.359375l0 -2.9375l-4.65625 0l0 -1.515625zm6.015625 1.515625l0 2.96875q0 1.46875 0.546875 2.078125q0.546875 0.625 1.53125 0.625q0.71875 0 1.234375 -0.375q0.515625 -0.359375 0.671875 -0.953125q0.109375 -0.375 0.109375 -1.40625l0 -2.9375l-4.09375 0zm-1.859375 8.453125q2.296875 0 3.40625 1.28125q0.921875 1.078125 0.921875 2.609375q0 1.71875 -1.125 2.796875q-1.109375 1.09375 -3.09375 1.09375q-1.59375 0 -2.515625 -0.484375q-0.921875 -0.484375 -1.4375 -1.40625q-0.5 -0.90625 -0.5 -2.0q0 -1.734375 1.109375 -2.8125q1.125 -1.078125 3.234375 -1.078125zm0 1.453125q-1.59375 0 -2.390625 0.6875q-0.796875 0.703125 -0.796875 1.75q0 1.046875 0.796875 1.734375q0.796875 0.703125 2.4375 0.703125q1.53125 0 2.328125 -0.703125q0.796875 -0.6875 0.796875 -1.734375q0 -1.046875 -0.796875 -1.75q-0.78125 -0.6875 -2.375 -0.6875zm0 7.4453125q2.296875 0 3.40625 1.28125q0.921875 1.078125 0.921875 2.609375q0 1.71875 -1.125 2.796875q-1.109375 1.09375 -3.09375 1.09375q-1.59375 0 -2.515625 -0.484375q-0.921875 -0.484375 -1.4375 -1.40625q-0.5 -0.90625 -0.5 -2.0q0 -1.734375 1.109375 -2.8125q1.125 -1.078125 3.234375 -1.078125zm0 1.453125q-1.59375 0 -2.390625 0.6875q-0.796875 0.703125 -0.796875 1.75q0 1.046875 0.796875 1.734375q0.796875 0.703125 2.4375 0.703125q1.53125 0 2.328125 -0.703125q0.796875 -0.6875 0.796875 -1.734375q0 -1.046875 -0.796875 -1.75q-0.78125 -0.6875 -2.375 -0.6875zm-4.15625 7.9453125l11.453125 0l0 1.40625l-11.453125 0l0 -1.40625z" fill-rule="nonzero"/><path fill="#000000" fill-opacity="0.0" d="m658.60254 226.39449l40.685303 0l0 49.133865l40.669006 0" fill-rule="evenodd"/><path stroke="#595959" stroke-width="1.0" stroke-linejoin="round" stroke-linecap="butt" d="m658.60254 226.39449l40.685303 0l0 49.133865l40.669006 0" fill-rule="evenodd"/><path fill="#000000" fill-opacity="0.0" d="m455.0375 359.9837l0 -38.26773l34.2677 0" fill-rule="evenodd"/><path stroke="#595959" stroke-width="1.0" stroke-linejoin="round" stroke-linecap="butt" d="m455.0375 359.9837l0 -38.26773l34.2677 0" fill-rule="evenodd"/><path fill="#000000" fill-opacity="0.0" d="m455.0375 181.83742l0 139.87401l34.2677 0" fill-rule="evenodd"/><path stroke="#595959" stroke-width="1.0" stroke-linejoin="round" stroke-linecap="butt" d="m455.0375 181.83742l0 139.87401l34.2677 0" fill-rule="evenodd"/><path fill="#000000" fill-opacity="0.0" d="m227.56934 181.83742l0 139.87401l261.7323 0" fill-rule="evenodd"/><path stroke="#595959" stroke-width="1.0" stroke-linejoin="round" stroke-linecap="butt" d="m227.56934 181.83742l0 139.87401l261.7323 0" fill-rule="evenodd"/><path fill="#000000" fill-opacity="0.0" d="m227.56934 359.9837l0 -38.26773l261.7323 0" fill-rule="evenodd"/><path stroke="#595959" stroke-width="1.0" stroke-linejoin="round" stroke-linecap="butt" d="m227.56934 359.9837l0 -38.26773l261.7323 0" fill-rule="evenodd"/><path fill="#000000" fill-opacity="0.0" d="m573.95685 191.55983l0 -171.64403l-450.2677 0l0 14.604662" fill-rule="evenodd"/><path stroke="#595959" stroke-width="1.0" stroke-linejoin="round" stroke-linecap="butt" stroke-dasharray="4.0,3.0" d="m573.95685 191.55983l0 -171.64403l-450.2677 0l0 14.604662" fill-rule="evenodd"/><path fill="#000000" fill-opacity="0.0" d="m573.95685 261.22913l0 257.1277l-450.2677 0l0 -11.04895" fill-rule="evenodd"/><path stroke="#595959" stroke-width="1.0" stroke-linejoin="round" stroke-linecap="butt" stroke-dasharray="4.0,3.0" d="m573.95685 261.22913l0 257.1277l-450.2677 0l0 -11.04895" fill-rule="evenodd"/><defs><radialGradient id="g2f102a8ae0b_0_29.10" gradientUnits="userSpaceOnUse" gradientTransform="matrix(9.451516811048243 0.0 0.0 9.451516811048243 0.0 0.0)" spreadMethod="pad" cx="60.72642938861934" cy="34.03706292656527" fx="60.72642938861934" fy="34.03706292656527" r="9.451517105102539"><stop offset="0.0" stop-color="#f5d0d0"/><stop offset="1.0" stop-color="#d96868"/></radialGradient></defs><path fill="url(#g2f102a8ae0b_0_29.10)" d="m489.3112 321.70187l14.275604 -28.551178l140.74017 0l14.275574 28.551178l-14.275574 28.551178l-140.74017 0z" fill-rule="evenodd"/><path stroke="#595959" stroke-width="1.0" stroke-linejoin="round" stroke-linecap="butt" d="m489.3112 321.70187l14.275604 -28.551178l140.74017 0l14.275574 28.551178l-14.275574 28.551178l-140.74017 0z" fill-rule="evenodd"/><path fill="#434343" d="m527.4549 316.9019l0 -12.625l-4.71875 0l0 -1.6875l11.34375 0l0 1.6875l-4.734375 0l0 12.625l-1.890625 0zm13.234375 -3.34375l1.8125 0.234375q-0.421875 1.578125 -1.59375 2.46875q-1.15625 0.875 -2.96875 0.875q-2.265625 0 -3.609375 -1.390625q-1.328125 -1.40625 -1.328125 -3.9375q0 -2.625 1.34375 -4.0625q1.34375 -1.453125 3.5 -1.453125q2.078125 0 3.390625 1.421875q1.328125 1.40625 1.328125 3.984375q0 0.15625 -0.015625 0.46875l-7.734375 0q0.09375 1.703125 0.96875 2.609375q0.875 0.90625 2.171875 0.90625q0.96875 0 1.640625 -0.5q0.6875 -0.515625 1.09375 -1.625zm-5.78125 -2.84375l5.796875 0q-0.109375 -1.296875 -0.65625 -1.953125q-0.84375 -1.015625 -2.1875 -1.015625q-1.203125 0 -2.03125 0.8125q-0.828125 0.796875 -0.921875 2.15625zm9.779297 6.1875l0 -10.375l1.578125 0l0 1.578125q0.609375 -1.109375 1.125 -1.453125q0.515625 -0.359375 1.125 -0.359375q0.890625 0 1.8125 0.5625l-0.609375 1.640625q-0.640625 -0.390625 -1.28125 -0.390625q-0.578125 0 -1.046875 0.359375q-0.453125 0.34375 -0.65625 0.953125q-0.28125 0.9375 -0.28125 2.046875l0 5.4375l-1.765625 0zm6.6757812 0l0 -10.375l1.578125 0l0 1.453125q0.484375 -0.75 1.296875 -1.21875q0.8125 -0.46875 1.84375 -0.46875q1.15625 0 1.890625 0.484375q0.734375 0.46875 1.046875 1.328125q1.234375 -1.8125 3.203125 -1.8125q1.546875 0 2.375 0.859375q0.828125 0.859375 0.828125 2.625l0 7.125l-1.75 0l0 -6.53125q0 -1.0625 -0.171875 -1.515625q-0.171875 -0.46875 -0.625 -0.75q-0.4375 -0.28125 -1.046875 -0.28125q-1.09375 0 -1.828125 0.734375q-0.71875 0.71875 -0.71875 2.3125l0 6.03125l-1.75 0l0 -6.734375q0 -1.171875 -0.4375 -1.75q-0.421875 -0.59375 -1.40625 -0.59375q-0.734375 0 -1.375 0.390625q-0.625 0.390625 -0.90625 1.140625q-0.28125 0.75 -0.28125 2.171875l0 5.375l-1.765625 0zm16.675781 -12.296875l0 -2.015625l1.765625 0l0 2.015625l-1.765625 0zm0 12.296875l0 -10.375l1.765625 0l0 10.375l-1.765625 0zm4.4277344 0l0 -10.375l1.59375 0l0 1.484375q1.140625 -1.71875 3.296875 -1.71875q0.9375 0 1.71875 0.34375q0.796875 0.328125 1.1875 0.875q0.390625 0.546875 0.546875 1.296875q0.09375 0.5 0.09375 1.71875l0 6.375l-1.765625 0l0 -6.3125q0 -1.078125 -0.203125 -1.609375q-0.203125 -0.53125 -0.734375 -0.84375q-0.515625 -0.3125 -1.21875 -0.3125q-1.125 0 -1.9375 0.71875q-0.8125 0.703125 -0.8125 2.6875l0 5.671875l-1.765625 0zm17.904297 -1.28125q-0.984375 0.828125 -1.890625 1.171875q-0.90625 0.34375 -1.9375 0.34375q-1.703125 0 -2.625 -0.828125q-0.921875 -0.84375 -0.921875 -2.140625q0 -0.765625 0.34375 -1.390625q0.359375 -0.625 0.921875 -1.0q0.5625 -0.390625 1.265625 -0.59375q0.515625 -0.125 1.5625 -0.265625q2.125 -0.25 3.125 -0.59375q0.015625 -0.359375 0.015625 -0.46875q0 -1.0625 -0.5 -1.515625q-0.671875 -0.59375 -2.0 -0.59375q-1.25 0 -1.84375 0.4375q-0.578125 0.4375 -0.859375 1.546875l-1.71875 -0.234375q0.234375 -1.109375 0.765625 -1.78125q0.53125 -0.6875 1.546875 -1.046875q1.015625 -0.375 2.359375 -0.375q1.328125 0 2.15625 0.3125q0.828125 0.3125 1.21875 0.796875q0.390625 0.46875 0.546875 1.1875q0.09375 0.453125 0.09375 1.625l0 2.34375q0 2.453125 0.109375 3.109375q0.109375 0.640625 0.453125 1.234375l-1.84375 0q-0.265625 -0.546875 -0.34375 -1.28125zm-0.15625 -3.921875q-0.953125 0.390625 -2.875 0.65625q-1.078125 0.15625 -1.53125 0.359375q-0.4375 0.1875 -0.6875 0.5625q-0.25 0.375 -0.25 0.84375q0 0.703125 0.53125 1.171875q0.53125 0.46875 1.5625 0.46875q1.015625 0 1.796875 -0.4375q0.796875 -0.453125 1.171875 -1.21875q0.28125 -0.609375 0.28125 -1.765625l0 -0.640625zm8.341797 3.625l0.25 1.5625q-0.734375 0.15625 -1.328125 0.15625q-0.953125 0 -1.484375 -0.296875q-0.515625 -0.3125 -0.734375 -0.796875q-0.21875 -0.5 -0.21875 -2.078125l0 -5.96875l-1.28125 0l0 -1.375l1.28125 0l0 -2.5625l1.75 -1.0625l0 3.625l1.765625 0l0 1.375l-1.765625 0l0 6.0625q0 0.75 0.09375 0.96875q0.09375 0.203125 0.296875 0.34375q0.21875 0.125 0.609375 0.125q0.28125 0 0.765625 -0.078125zm1.7285156 -10.71875l0 -2.015625l1.765625 0l0 2.015625l-1.765625 0zm0 12.296875l0 -10.375l1.765625 0l0 10.375l-1.765625 0zm3.7871094 -5.1875q0 -2.875 1.59375 -4.265625q1.34375 -1.15625 3.265625 -1.15625q2.140625 0 3.484375 1.40625q1.359375 1.40625 1.359375 3.875q0 2.0 -0.59375 3.15625q-0.59375 1.140625 -1.75 1.78125q-1.140625 0.625 -2.5 0.625q-2.1875 0 -3.53125 -1.390625q-1.328125 -1.40625 -1.328125 -4.03125zm1.796875 0q0 2.0 0.859375 2.984375q0.875 0.984375 2.203125 0.984375q1.3125 0 2.171875 -0.984375q0.875 -1.0 0.875 -3.046875q0 -1.921875 -0.875 -2.90625q-0.875 -1.0 -2.171875 -1.0q-1.328125 0 -2.203125 1.0q-0.859375 0.984375 -0.859375 2.96875zm9.966797 5.1875l0 -10.375l1.59375 0l0 1.484375q1.140625 -1.71875 3.296875 -1.71875q0.9375 0 1.71875 0.34375q0.796875 0.328125 1.1875 0.875q0.390625 0.546875 0.546875 1.296875q0.09375 0.5 0.09375 1.71875l0 6.375l-1.765625 0l0 -6.3125q0 -1.078125 -0.203125 -1.609375q-0.203125 -0.53125 -0.734375 -0.84375q-0.515625 -0.3125 -1.21875 -0.3125q-1.125 0 -1.9375 0.71875q-0.8125 0.703125 -0.8125 2.6875l0 5.671875l-1.765625 0z" fill-rule="nonzero"/><path fill="#434343" d="m541.1434 340.9019l-3.796875 -14.3125l1.9375 0l2.171875 9.375q0.359375 1.484375 0.609375 2.9375q0.546875 -2.296875 0.640625 -2.65625l2.734375 -9.65625l2.28125 0l2.046875 7.234375q0.78125 2.703125 1.125 5.078125q0.265625 -1.359375 0.703125 -3.125l2.25 -9.1875l1.90625 0l-3.921875 14.3125l-1.828125 0l-3.015625 -10.90625q-0.390625 -1.375 -0.453125 -1.6875q-0.234375 0.984375 -0.421875 1.6875l-3.03125 10.90625l-1.9375 0zm22.18164 -1.28125q-0.984375 0.828125 -1.890625 1.171875q-0.90625 0.34375 -1.9375 0.34375q-1.703125 0 -2.625 -0.828125q-0.921875 -0.84375 -0.921875 -2.140625q0 -0.765625 0.34375 -1.390625q0.359375 -0.625 0.921875 -1.0q0.5625 -0.390625 1.265625 -0.59375q0.515625 -0.125 1.5625 -0.265625q2.125 -0.25 3.125 -0.59375q0.015625 -0.359375 0.015625 -0.46875q0 -1.0625 -0.5 -1.515625q-0.671875 -0.59375 -2.0 -0.59375q-1.25 0 -1.84375 0.4375q-0.578125 0.4375 -0.859375 1.546875l-1.71875 -0.234375q0.234375 -1.109375 0.765625 -1.78125q0.53125 -0.6875 1.546875 -1.046875q1.015625 -0.375 2.359375 -0.375q1.328125 0 2.15625 0.3125q0.828125 0.3125 1.21875 0.796875q0.390625 0.46875 0.546875 1.1875q0.09375 0.453125 0.09375 1.625l0 2.34375q0 2.453125 0.109375 3.109375q0.109375 0.640625 0.453125 1.234375l-1.84375 0q-0.265625 -0.546875 -0.34375 -1.28125zm-0.15625 -3.921875q-0.953125 0.390625 -2.875 0.65625q-1.078125 0.15625 -1.53125 0.359375q-0.4375 0.1875 -0.6875 0.5625q-0.25 0.375 -0.25 0.84375q0 0.703125 0.53125 1.171875q0.53125 0.46875 1.5625 0.46875q1.015625 0 1.796875 -0.4375q0.796875 -0.453125 1.171875 -1.21875q0.28125 -0.609375 0.28125 -1.765625l0 -0.640625zm8.341797 3.625l0.25 1.5625q-0.734375 0.15625 -1.328125 0.15625q-0.953125 0 -1.484375 -0.296875q-0.515625 -0.3125 -0.734375 -0.796875q-0.21875 -0.5 -0.21875 -2.078125l0 -5.96875l-1.28125 0l0 -1.375l1.28125 0l0 -2.5625l1.75 -1.0625l0 3.625l1.765625 0l0 1.375l-1.765625 0l0 6.0625q0 0.75 0.09375 0.96875q0.09375 0.203125 0.296875 0.34375q0.21875 0.125 0.609375 0.125q0.28125 0 0.765625 -0.078125zm8.494141 -2.21875l1.71875 0.21875q-0.28125 1.796875 -1.453125 2.8125q-1.15625 1.0 -2.859375 1.0q-2.125 0 -3.421875 -1.390625q-1.296875 -1.390625 -1.296875 -3.984375q0 -1.6875 0.546875 -2.9375q0.5625 -1.265625 1.703125 -1.890625q1.140625 -0.640625 2.484375 -0.640625q1.6875 0 2.75 0.859375q1.078125 0.859375 1.390625 2.421875l-1.71875 0.265625q-0.234375 -1.046875 -0.859375 -1.5625q-0.625 -0.53125 -1.5 -0.53125q-1.328125 0 -2.15625 0.953125q-0.828125 0.953125 -0.828125 3.0q0 2.09375 0.796875 3.046875q0.796875 0.9375 2.09375 0.9375q1.03125 0 1.71875 -0.625q0.703125 -0.640625 0.890625 -1.953125zm3.21875 3.796875l0 -14.3125l1.765625 0l0 5.125q1.234375 -1.421875 3.109375 -1.421875q1.140625 0 1.984375 0.453125q0.859375 0.453125 1.21875 1.265625q0.375 0.796875 0.375 2.3125l0 6.578125l-1.75 0l0 -6.578125q0 -1.3125 -0.578125 -1.90625q-0.578125 -0.609375 -1.609375 -0.609375q-0.78125 0 -1.484375 0.40625q-0.6875 0.40625 -0.984375 1.109375q-0.28125 0.6875 -0.28125 1.90625l0 5.671875l-1.765625 0zm18.232422 -3.34375l1.8125 0.234375q-0.421875 1.578125 -1.59375 2.46875q-1.15625 0.875 -2.96875 0.875q-2.265625 0 -3.609375 -1.390625q-1.328125 -1.40625 -1.328125 -3.9375q0 -2.625 1.34375 -4.0625q1.34375 -1.453125 3.5 -1.453125q2.078125 0 3.390625 1.421875q1.328125 1.40625 1.328125 3.984375q0 0.15625 -0.015625 0.46875l-7.734375 0q0.09375 1.703125 0.96875 2.609375q0.875 0.90625 2.171875 0.90625q0.96875 0 1.640625 -0.5q0.6875 -0.515625 1.09375 -1.625zm-5.78125 -2.84375l5.796875 0q-0.109375 -1.296875 -0.65625 -1.953125q-0.84375 -1.015625 -2.1875 -1.015625q-1.203125 0 -2.03125 0.8125q-0.828125 0.796875 -0.921875 2.15625zm9.779297 6.1875l0 -10.375l1.578125 0l0 1.578125q0.609375 -1.109375 1.125 -1.453125q0.515625 -0.359375 1.125 -0.359375q0.890625 0 1.8125 0.5625l-0.609375 1.640625q-0.640625 -0.390625 -1.28125 -0.390625q-0.578125 0 -1.046875 0.359375q-0.453125 0.34375 -0.65625 0.953125q-0.28125 0.9375 -0.28125 2.046875l0 5.4375l-1.765625 0z" fill-rule="nonzero"/><path fill="#000000" fill-opacity="0.0" d="m351.16 34.53264l0 -14.677164" fill-rule="evenodd"/><path stroke="#595959" stroke-width="1.0" stroke-linejoin="round" stroke-linecap="butt" d="m351.16 34.53264l0 -14.677164" fill-rule="evenodd"/><path fill="#000000" fill-opacity="0.0" d="m351.44977 518.6313l0 -11.338593" fill-rule="evenodd"/><path stroke="#595959" stroke-width="1.0" stroke-linejoin="round" stroke-linecap="butt" d="m351.44977 518.6313l0 -11.338593" fill-rule="evenodd"/><path fill="#000000" fill-opacity="0.0" d="m595.45404 11.6955385l144.50397 0l0 54.929134l-144.50397 0z" fill-rule="evenodd"/><path fill="#000000" d="m616.1602 49.720104l0 -21.0l2.84375 0l11.03125 16.484375l0 -16.484375l2.671875 0l0 21.0l-2.859375 0l-11.03125 -16.5l0 16.5l-2.65625 0zm31.289246 -4.890625l2.65625 0.328125q-0.625 2.328125 -2.328125 3.625q-1.703125 1.28125 -4.359375 1.28125q-3.328125 0 -5.28125 -2.046875q-1.953125 -2.0625 -1.953125 -5.765625q0 -3.84375 1.96875 -5.953125q1.984375 -2.125 5.125 -2.125q3.0625 0 4.984375 2.078125q1.9375 2.0625 1.9375 5.84375q0 0.21875 -0.015625 0.671875l-11.34375 0q0.140625 2.515625 1.421875 3.84375q1.28125 1.328125 3.171875 1.328125q1.421875 0 2.421875 -0.734375q1.0 -0.75 1.59375 -2.375zm-8.46875 -4.171875l8.5 0q-0.171875 -1.921875 -0.96875 -2.875q-1.234375 -1.5 -3.203125 -1.5q-1.765625 0 -2.984375 1.1875q-1.203125 1.1875 -1.34375 3.1875zm19.998413 6.75l0.375 2.28125q-1.09375 0.234375 -1.953125 0.234375q-1.40625 0 -2.1875 -0.4375q-0.765625 -0.453125 -1.078125 -1.171875q-0.3125 -0.734375 -0.3125 -3.046875l0 -8.75l-1.890625 0l0 -2.0l1.890625 0l0 -3.765625l2.5625 -1.546875l0 5.3125l2.59375 0l0 2.0l-2.59375 0l0 8.890625q0 1.109375 0.125 1.421875q0.140625 0.3125 0.453125 0.5q0.3125 0.1875 0.890625 0.1875q0.421875 0 1.125 -0.109375zm5.3201294 2.3125l-4.65625 -15.203125l2.671875 0l2.421875 8.765625l0.90625 3.265625q0.046875 -0.234375 0.78125 -3.125l2.421875 -8.90625l2.640625 0l2.28125 8.8125l0.765625 2.90625l0.875 -2.9375l2.59375 -8.78125l2.515625 0l-4.75 15.203125l-2.6875 0l-2.421875 -9.109375l-0.578125 -2.59375l-3.078125 11.703125l-2.703125 0zm17.414246 -7.609375q0 -4.21875 2.359375 -6.25q1.953125 -1.6875 4.78125 -1.6875q3.125 0 5.109375 2.0625q2.0 2.046875 2.0 5.671875q0 2.921875 -0.875 4.609375q-0.875 1.6875 -2.5625 2.625q-1.6875 0.921875 -3.671875 0.921875q-3.203125 0 -5.171875 -2.046875q-1.96875 -2.046875 -1.96875 -5.90625zm2.65625 0q0 2.921875 1.265625 4.375q1.28125 1.453125 3.21875 1.453125q1.921875 0 3.1875 -1.453125q1.28125 -1.46875 1.28125 -4.453125q0 -2.828125 -1.28125 -4.28125q-1.28125 -1.453125 -3.1875 -1.453125q-1.9375 0 -3.21875 1.453125q-1.265625 1.4375 -1.265625 4.359375zm14.592163 7.609375l0 -15.203125l2.3125 0l0 2.296875q0.890625 -1.609375 1.640625 -2.125q0.75 -0.515625 1.65625 -0.515625q1.3125 0 2.65625 0.828125l-0.890625 2.390625q-0.953125 -0.5625 -1.890625 -0.5625q-0.84375 0 -1.515625 0.515625q-0.671875 0.5 -0.96875 1.40625q-0.421875 1.375 -0.421875 3.0l0 7.96875l-2.578125 0zm9.8133545 0l0 -21.0l2.578125 0l0 11.984375l6.09375 -6.1875l3.34375 0l-5.828125 5.640625l6.40625 9.5625l-3.171875 0l-5.03125 -7.78125l-1.8125 1.75l0 6.03125l-2.578125 0z" fill-rule="nonzero"/></g></svg>