<?xml version="1.0" encoding="UTF-8"?>
<svg id="Layer_1" data-name="Layer 1" xmlns="http://www.w3.org/2000/svg" version="1.1" xmlns:xlink="http://www.w3.org/1999/xlink" viewBox="0 0 428.1 339.19">
  <defs>
    <style>
      .cls-1 {
        clip-path: url(#clippath-20);
      }

      .cls-2 {
        clip-path: url(#clippath-11);
      }

      .cls-3 {
        clip-path: url(#clippath-16);
      }

      .cls-4 {
        clip-path: url(#clippath-33);
      }

      .cls-5 {
        fill: #000;
      }

      .cls-5, .cls-6, .cls-7, .cls-8 {
        stroke-width: 0px;
      }

      .cls-9 {
        clip-path: url(#clippath-32);
      }

      .cls-10 {
        clip-path: url(#clippath-2);
      }

      .cls-11 {
        clip-path: url(#clippath-13);
      }

      .cls-12 {
        clip-path: url(#clippath-37);
      }

      .cls-13 {
        clip-path: url(#clippath-25);
      }

      .cls-14 {
        clip-path: url(#clippath-15);
      }

      .cls-15 {
        clip-path: url(#clippath-6);
      }

      .cls-16 {
        clip-path: url(#clippath-40);
      }

      .cls-17 {
        clip-path: url(#clippath-26);
      }

      .cls-6, .cls-18, .cls-19, .cls-20, .cls-21, .cls-22, .cls-23, .cls-24, .cls-25, .cls-26, .cls-27 {
        fill: none;
      }

      .cls-28 {
        clip-path: url(#clippath-7);
      }

      .cls-29 {
        clip-path: url(#clippath-21);
      }

      .cls-18, .cls-20, .cls-21, .cls-25, .cls-26, .cls-27 {
        stroke-linejoin: round;
      }

      .cls-18, .cls-20, .cls-21, .cls-26 {
        stroke-width: 1.5px;
      }

      .cls-18, .cls-20, .cls-24 {
        stroke: red;
      }

      .cls-18, .cls-21 {
        stroke-dasharray: 0 0 5.55 2.4;
      }

      .cls-30 {
        clip-path: url(#clippath-34);
      }

      .cls-31 {
        clip-path: url(#clippath-1);
      }

      .cls-32 {
        clip-path: url(#clippath-4);
      }

      .cls-33 {
        clip-path: url(#clippath-38);
      }

      .cls-34 {
        clip-path: url(#clippath-36);
      }

      .cls-35 {
        clip-path: url(#clippath-27);
      }

      .cls-7, .cls-19 {
        opacity: .8;
      }

      .cls-7, .cls-8 {
        fill: #fff;
      }

      .cls-36 {
        clip-path: url(#clippath-12);
      }

      .cls-19 {
        stroke: #ccc;
      }

      .cls-19, .cls-22, .cls-23, .cls-24 {
        stroke-miterlimit: 10;
      }

      .cls-20, .cls-22, .cls-26 {
        stroke-linecap: square;
      }

      .cls-37 {
        clip-path: url(#clippath-24);
      }

      .cls-38 {
        clip-path: url(#clippath-30);
      }

      .cls-21, .cls-23, .cls-26 {
        stroke: blue;
      }

      .cls-39 {
        clip-path: url(#clippath-22);
      }

      .cls-40 {
        clip-path: url(#clippath-9);
      }

      .cls-41 {
        clip-path: url(#clippath);
      }

      .cls-42 {
        clip-path: url(#clippath-39);
      }

      .cls-43 {
        clip-path: url(#clippath-19);
      }

      .cls-44 {
        clip-path: url(#clippath-31);
      }

      .cls-45 {
        clip-path: url(#clippath-3);
      }

      .cls-22, .cls-25, .cls-27 {
        stroke-width: .8px;
      }

      .cls-22, .cls-27 {
        stroke: #000;
      }

      .cls-46 {
        clip-path: url(#clippath-8);
      }

      .cls-47 {
        clip-path: url(#clippath-29);
      }

      .cls-48 {
        clip-path: url(#clippath-18);
      }

      .cls-49 {
        clip-path: url(#clippath-14);
      }

      .cls-50 {
        clip-path: url(#clippath-17);
      }

      .cls-51 {
        clip-path: url(#clippath-5);
      }

      .cls-25 {
        opacity: .5;
        stroke: #b0b0b0;
        stroke-dasharray: 0 0 2.96 1.28;
      }

      .cls-52 {
        clip-path: url(#clippath-10);
      }

      .cls-53 {
        clip-path: url(#clippath-23);
      }

      .cls-54 {
        clip-path: url(#clippath-28);
      }

      .cls-55 {
        clip-path: url(#clippath-35);
      }
    </style>
    <clipPath id="clippath">
      <rect class="cls-6" x="48.72" y="18.12" width="372.19" height="277.2"/>
    </clipPath>
    <clipPath id="clippath-1">
      <rect class="cls-6" x="48.72" y="18.12" width="372.19" height="277.2"/>
    </clipPath>
    <clipPath id="clippath-2">
      <rect class="cls-6" x="48.72" y="18.12" width="372.19" height="277.2"/>
    </clipPath>
    <clipPath id="clippath-3">
      <rect class="cls-6" x="48.72" y="18.12" width="372.19" height="277.2"/>
    </clipPath>
    <clipPath id="clippath-4">
      <rect class="cls-6" x="48.72" y="18.12" width="372.19" height="277.2"/>
    </clipPath>
    <clipPath id="clippath-5">
      <rect class="cls-6" x="48.72" y="18.12" width="372.19" height="277.2"/>
    </clipPath>
    <clipPath id="clippath-6">
      <rect class="cls-6" x="297.37" y="308.89" width="42.22" height="25.44"/>
    </clipPath>
    <clipPath id="clippath-7">
      <rect class="cls-6" x="48.72" y="18.12" width="372.19" height="277.2"/>
    </clipPath>
    <clipPath id="clippath-8">
      <rect class="cls-6" x="48.72" y="18.12" width="372.19" height="277.2"/>
    </clipPath>
    <clipPath id="clippath-9">
      <rect class="cls-6" x="48.72" y="18.12" width="372.19" height="277.2"/>
    </clipPath>
    <clipPath id="clippath-10">
      <rect class="cls-6" x="48.72" y="18.12" width="372.19" height="277.2"/>
    </clipPath>
    <clipPath id="clippath-11">
      <rect class="cls-6" x="48.72" y="18.12" width="372.19" height="277.2"/>
    </clipPath>
    <clipPath id="clippath-12">
      <rect class="cls-6" x="48.72" y="18.12" width="372.19" height="277.2"/>
    </clipPath>
    <clipPath id="clippath-13">
      <rect class="cls-6" x="48.72" y="18.12" width="372.19" height="277.2"/>
    </clipPath>
    <clipPath id="clippath-14">
      <rect class="cls-6" x="57.63" y="22.72" width="16" height="16"/>
    </clipPath>
    <clipPath id="clippath-15">
      <rect class="cls-6" x="125.3" y="188.6" width="16" height="16"/>
    </clipPath>
    <clipPath id="clippath-16">
      <rect class="cls-6" x="192.97" y="239.73" width="16" height="16"/>
    </clipPath>
    <clipPath id="clippath-17">
      <rect class="cls-6" x="260.64" y="263.97" width="16" height="16"/>
    </clipPath>
    <clipPath id="clippath-18">
      <rect class="cls-6" x="328.31" y="274.72" width="16" height="16"/>
    </clipPath>
    <clipPath id="clippath-19">
      <rect class="cls-6" x="395.98" y="274.12" width="16" height="16"/>
    </clipPath>
    <clipPath id="clippath-20">
      <rect class="cls-6" x="48.72" y="18.12" width="372.19" height="277.2"/>
    </clipPath>
    <clipPath id="clippath-21">
      <rect class="cls-6" x="57.63" y="38.07" width="16" height="16"/>
    </clipPath>
    <clipPath id="clippath-22">
      <rect class="cls-6" x="125.3" y="206.61" width="16" height="16"/>
    </clipPath>
    <clipPath id="clippath-23">
      <rect class="cls-6" x="192.97" y="237.75" width="16" height="16"/>
    </clipPath>
    <clipPath id="clippath-24">
      <rect class="cls-6" x="260.64" y="218.04" width="16" height="16"/>
    </clipPath>
    <clipPath id="clippath-25">
      <rect class="cls-6" x="328.31" y="180.68" width="16" height="16"/>
    </clipPath>
    <clipPath id="clippath-26">
      <rect class="cls-6" x="395.98" y="133.19" width="16" height="16"/>
    </clipPath>
    <clipPath id="clippath-27">
      <rect class="cls-6" x="48.72" y="18.12" width="372.19" height="277.2"/>
    </clipPath>
    <clipPath id="clippath-28">
      <rect class="cls-6" x="57.63" y="25.62" width="16" height="16"/>
    </clipPath>
    <clipPath id="clippath-29">
      <rect class="cls-6" x="125.3" y="40.76" width="16" height="16"/>
    </clipPath>
    <clipPath id="clippath-30">
      <rect class="cls-6" x="192.97" y="53.61" width="16" height="16"/>
    </clipPath>
    <clipPath id="clippath-31">
      <rect class="cls-6" x="260.64" y="67.85" width="16" height="16"/>
    </clipPath>
    <clipPath id="clippath-32">
      <rect class="cls-6" x="328.31" y="76.71" width="16" height="16"/>
    </clipPath>
    <clipPath id="clippath-33">
      <rect class="cls-6" x="395.98" y="86.27" width="16" height="16"/>
    </clipPath>
    <clipPath id="clippath-34">
      <rect class="cls-6" x="48.72" y="18.12" width="372.19" height="277.2"/>
    </clipPath>
    <clipPath id="clippath-35">
      <rect class="cls-6" x="57.63" y="38.07" width="16" height="16"/>
    </clipPath>
    <clipPath id="clippath-36">
      <rect class="cls-6" x="125.3" y="51.87" width="16" height="16"/>
    </clipPath>
    <clipPath id="clippath-37">
      <rect class="cls-6" x="192.97" y="65.21" width="16" height="16"/>
    </clipPath>
    <clipPath id="clippath-38">
      <rect class="cls-6" x="260.64" y="82.68" width="16" height="16"/>
    </clipPath>
    <clipPath id="clippath-39">
      <rect class="cls-6" x="328.31" y="94.44" width="16" height="16"/>
    </clipPath>
    <clipPath id="clippath-40">
      <rect class="cls-6" x="395.98" y="107.15" width="16" height="16"/>
    </clipPath>
  </defs>
  <rect class="cls-8" width="428.1" height="339.19"/>
  <rect class="cls-8" x="48.72" y="18.12" width="372.19" height="277.2"/>
  <g class="cls-41">
    <line class="cls-25" x1="65.63" y1="295.32" x2="65.63" y2="18.12"/>
  </g>
  <line class="cls-5" x1="65.63" y1="295.32" x2="65.63" y2="298.82"/>
  <line class="cls-27" x1="65.63" y1="295.32" x2="65.63" y2="298.82"/>
  <path class="cls-5" d="M65.63,302.5c.81,0,1.43.33,1.87.97.43.65.65,1.59.65,2.81s-.22,2.17-.65,2.81c-.44.64-1.06.96-1.88.96s-1.44-.32-1.87-.96c-.43-.64-.64-1.58-.64-2.81s.21-2.16.64-2.81c.43-.64,1.06-.97,1.88-.97ZM65.63,303.28c-.51,0-.89.25-1.15.75s-.38,1.25-.38,2.25.12,1.75.38,2.25.64.75,1.15.75.89-.25,1.15-.75c.25-.5.38-1.25.38-2.25s-.13-1.75-.38-2.25c-.26-.5-.64-.75-1.15-.75Z"/>
  <g class="cls-31">
    <line class="cls-25" x1="133.3" y1="295.32" x2="133.3" y2="18.12"/>
  </g>
  <line class="cls-5" x1="133.3" y1="295.32" x2="133.3" y2="298.82"/>
  <line class="cls-27" x1="133.3" y1="295.32" x2="133.3" y2="298.82"/>
  <polygon class="cls-5" points="131.36 309.09 132.97 309.09 132.97 303.53 131.22 303.88 131.22 302.98 132.96 302.63 133.95 302.63 133.95 309.09 135.56 309.09 135.56 309.92 131.36 309.92 131.36 309.09"/>
  <g class="cls-10">
    <line class="cls-25" x1="200.97" y1="295.32" x2="200.97" y2="18.12"/>
  </g>
  <line class="cls-5" x1="200.97" y1="295.32" x2="200.97" y2="298.82"/>
  <line class="cls-27" x1="200.97" y1="295.32" x2="200.97" y2="298.82"/>
  <path class="cls-5" d="M199.71,309.09h3.44v.83h-4.63v-.83c.37-.38.88-.9,1.53-1.56.64-.65,1.05-1.07,1.22-1.26.32-.35.54-.65.66-.9.12-.24.19-.49.19-.73,0-.38-.14-.7-.41-.94-.27-.24-.62-.37-1.06-.37-.31,0-.64.06-.98.16-.34.11-.71.27-1.1.49v-1c.4-.16.77-.28,1.11-.36.34-.08.66-.12.95-.12.75,0,1.35.19,1.8.57.45.38.68.88.68,1.51,0,.3-.06.59-.17.85-.11.27-.31.59-.61.95-.08.1-.34.37-.78.82-.44.45-1.05,1.08-1.84,1.89Z"/>
  <g class="cls-45">
    <line class="cls-25" x1="268.64" y1="295.32" x2="268.64" y2="18.12"/>
  </g>
  <line class="cls-5" x1="268.64" y1="295.32" x2="268.64" y2="298.82"/>
  <line class="cls-27" x1="268.64" y1="295.32" x2="268.64" y2="298.82"/>
  <path class="cls-5" d="M269.52,305.99c.47.1.84.31,1.1.63s.4.72.4,1.18c0,.72-.25,1.28-.74,1.67-.5.39-1.2.58-2.11.58-.31,0-.63-.03-.95-.09-.32-.05-.66-.14-1-.26v-.95c.27.16.57.28.9.36.32.08.66.12,1.02.12.62,0,1.09-.12,1.41-.36.32-.24.49-.6.49-1.07,0-.42-.15-.76-.45-1-.3-.24-.72-.37-1.26-.37h-.85v-.81h.89c.48,0,.85-.09,1.11-.29.26-.19.39-.47.39-.84s-.14-.66-.4-.86c-.27-.2-.65-.3-1.14-.3-.27,0-.56.03-.87.09s-.65.15-1.02.27v-.88c.37-.1.72-.18,1.05-.23.32-.05.63-.08.93-.08.74,0,1.33.17,1.77.51s.66.8.66,1.38c0,.4-.12.74-.35,1.02-.23.28-.56.48-.98.58Z"/>
  <g class="cls-32">
    <line class="cls-25" x1="336.31" y1="295.32" x2="336.31" y2="18.12"/>
  </g>
  <line class="cls-5" x1="336.31" y1="295.32" x2="336.31" y2="298.82"/>
  <line class="cls-27" x1="336.31" y1="295.32" x2="336.31" y2="298.82"/>
  <path class="cls-5" d="M336.65,302.63h1.24v4.75h1.04v.82h-1.04v1.72h-.98v-1.72h-3.29v-.95l3.03-4.62ZM336.91,303.49l-2.49,3.89h2.49v-3.89Z"/>
  <g class="cls-51">
    <line class="cls-25" x1="403.98" y1="295.32" x2="403.98" y2="18.12"/>
  </g>
  <line class="cls-5" x1="403.98" y1="295.32" x2="403.98" y2="298.82"/>
  <line class="cls-27" x1="403.98" y1="295.32" x2="403.98" y2="298.82"/>
  <path class="cls-5" d="M401.88,302.63h3.87v.83h-2.97v1.79c.14-.05.29-.09.43-.11.14-.02.29-.04.43-.04.81,0,1.45.23,1.93.67.48.45.72,1.05.72,1.81s-.25,1.4-.74,1.83-1.18.64-2.06.64c-.31,0-.62-.03-.94-.07-.32-.05-.64-.12-.98-.23v-.99c.29.16.59.28.91.36.31.08.64.11.99.11.56,0,1.01-.14,1.34-.44.32-.3.49-.7.49-1.21s-.17-.9-.49-1.2c-.33-.3-.78-.45-1.34-.45-.26,0-.53.03-.79.09-.26.06-.53.15-.8.27v-3.66Z"/>
  <path class="cls-5" d="M142.1,316.45h1.68l4.17,10.94h-1.54l-.99-2.81h-4.93l-.99,2.81h-1.56l4.17-10.94ZM142.94,317.9l-2.01,5.44h4.02l-2.01-5.44Z"/>
  <path class="cls-5" d="M150.29,323.29c0,.99.19,1.77.6,2.34.4.57.96.84,1.68.84s1.27-.27,1.7-.84c.4-.57.61-1.35.61-2.34s-.21-1.75-.61-2.32c-.42-.57-.98-.86-1.7-.86s-1.27.28-1.68.86c-.41.57-.6,1.33-.6,2.32ZM154.88,320.42v-4.44h1.35v11.4h-1.35v-1.23c-.29.5-.65.86-1.08,1.08-.43.22-.94.34-1.54.34-.99,0-1.8-.39-2.43-1.17-.63-.78-.93-1.83-.93-3.12s.3-2.32.93-3.12c.63-.78,1.44-1.18,2.43-1.18.6,0,1.11.12,1.54.36s.79.6,1.08,1.08Z"/>
  <path class="cls-5" d="M159.81,323.29c0,.99.19,1.77.6,2.34.4.57.96.84,1.68.84s1.27-.27,1.7-.84c.4-.57.61-1.35.61-2.34s-.21-1.75-.61-2.32c-.42-.57-.98-.86-1.7-.86s-1.27.28-1.68.86c-.41.57-.6,1.33-.6,2.32ZM164.4,320.42v-4.44h1.35v11.4h-1.35v-1.23c-.29.5-.65.86-1.08,1.08-.43.22-.94.34-1.54.34-.99,0-1.8-.39-2.43-1.17-.63-.78-.93-1.83-.93-3.12s.3-2.32.93-3.12c.63-.78,1.44-1.18,2.43-1.18.6,0,1.11.12,1.54.36s.79.6,1.08,1.08Z"/>
  <path class="cls-5" d="M174.19,322.55c-.01-.73-.23-1.32-.62-1.77-.4-.44-.94-.66-1.6-.66-.75,0-1.35.22-1.8.64s-.72,1.02-.78,1.78h4.8ZM175.54,322.94v.66h-6.19c.06.93.33,1.65.84,2.13.5.48,1.18.72,2.09.72.51,0,1.02-.06,1.5-.18.48-.12.97-.32,1.46-.59v1.27c-.48.21-.98.38-1.49.47-.51.09-1.04.15-1.54.15-1.32,0-2.36-.38-3.12-1.12s-1.14-1.78-1.14-3.09.36-2.4,1.08-3.2c.72-.78,1.71-1.18,2.94-1.18,1.11,0,1.98.36,2.62,1.07.63.72.96,1.68.96,2.9Z"/>
  <path class="cls-5" d="M178.56,323.29c0,.99.19,1.77.6,2.34.4.57.96.84,1.68.84s1.27-.27,1.7-.84c.4-.57.61-1.35.61-2.34s-.21-1.75-.61-2.32c-.42-.57-.98-.86-1.7-.86s-1.27.28-1.68.86c-.41.57-.6,1.33-.6,2.32ZM183.15,320.42v-4.44h1.35v11.4h-1.35v-1.23c-.29.5-.65.86-1.08,1.08-.43.22-.94.34-1.54.34-.99,0-1.8-.39-2.43-1.17-.63-.78-.93-1.83-.93-3.12s.3-2.32.93-3.12c.63-.78,1.44-1.18,2.43-1.18.6,0,1.11.12,1.54.36s.79.6,1.08,1.08Z"/>
  <path class="cls-5" d="M197.95,319.49v1.26c-.39-.21-.77-.36-1.16-.47s-.76-.16-1.15-.16c-.87,0-1.56.28-2.04.84-.48.55-.72,1.33-.72,2.32s.24,1.78.72,2.34,1.17.82,2.04.82c.39,0,.76-.05,1.15-.15.39-.11.76-.27,1.16-.48v1.25c-.39.18-.78.31-1.17.39-.4.07-.84.12-1.29.12-1.23,0-2.22-.38-2.94-1.15-.74-.77-1.1-1.82-1.1-3.14s.36-2.39,1.1-3.15,1.74-1.16,3.03-1.16c.42,0,.82.05,1.21.14s.78.21,1.16.38Z"/>
  <path class="cls-5" d="M206.71,322.7v4.68h-1.35v-1.24c-.32.51-.71.87-1.15,1.1-.45.22-1.02.34-1.68.34-.84,0-1.51-.22-2.01-.69-.49-.47-.74-1.1-.74-1.89,0-.91.3-1.61.93-2.09.62-.47,1.53-.7,2.76-.7h1.89v-.14c0-.61-.21-1.09-.61-1.44-.4-.33-.98-.51-1.71-.51-.48,0-.93.06-1.38.18-.45.12-.87.29-1.27.5v-1.25c.48-.18.96-.33,1.43-.42s.91-.15,1.36-.15c1.19,0,2.07.32,2.66.93.58.61.88,1.55.88,2.79ZM204.02,323.26c-1.1,0-1.85.13-2.26.38-.42.26-.63.68-.63,1.27,0,.48.15.87.46,1.14.32.28.75.42,1.29.42.75,0,1.35-.26,1.8-.8.45-.52.68-1.23.68-2.11v-.3h-1.33Z"/>
  <path class="cls-5" d="M215.39,319.49v1.26c-.39-.21-.77-.36-1.16-.47s-.76-.16-1.15-.16c-.87,0-1.56.28-2.04.84-.48.55-.72,1.33-.72,2.32s.24,1.78.72,2.34,1.17.82,2.04.82c.39,0,.76-.05,1.15-.15.39-.11.76-.27,1.16-.48v1.25c-.39.18-.78.31-1.17.39-.4.07-.84.12-1.29.12-1.23,0-2.22-.38-2.94-1.15-.74-.77-1.1-1.82-1.1-3.14s.36-2.39,1.1-3.15,1.74-1.16,3.03-1.16c.42,0,.82.05,1.21.14s.78.21,1.16.38Z"/>
  <path class="cls-5" d="M224.55,322.43v4.95h-1.35v-4.9c0-.78-.16-1.35-.46-1.74-.3-.39-.75-.58-1.35-.58-.74,0-1.31.24-1.73.7s-.63,1.09-.63,1.89v4.63h-1.35v-11.4h1.35v4.47c.32-.48.69-.85,1.14-1.09.43-.24.95-.38,1.51-.38.93,0,1.65.3,2.13.89s.74,1.44.74,2.57Z"/>
  <path class="cls-5" d="M232.9,322.55c-.01-.73-.23-1.32-.62-1.77-.4-.44-.94-.66-1.6-.66-.75,0-1.35.22-1.8.64s-.72,1.02-.78,1.78h4.8ZM234.25,322.94v.66h-6.19c.06.93.33,1.65.84,2.13.5.48,1.18.72,2.09.72.51,0,1.02-.06,1.5-.18.48-.12.97-.32,1.46-.59v1.27c-.48.21-.98.38-1.49.47-.51.09-1.04.15-1.54.15-1.32,0-2.36-.38-3.12-1.12s-1.14-1.78-1.14-3.09.36-2.4,1.08-3.2c.72-.78,1.71-1.18,2.94-1.18,1.11,0,1.98.36,2.62,1.07.63.72.96,1.68.96,2.9Z"/>
  <path class="cls-5" d="M247.14,319.49v1.26c-.39-.21-.77-.36-1.16-.47s-.76-.16-1.15-.16c-.87,0-1.56.28-2.04.84-.48.55-.72,1.33-.72,2.32s.24,1.78.72,2.34,1.17.82,2.04.82c.39,0,.76-.05,1.15-.15.39-.11.76-.27,1.16-.48v1.25c-.39.18-.78.31-1.17.39-.4.07-.84.12-1.29.12-1.23,0-2.22-.38-2.94-1.15-.74-.77-1.1-1.82-1.1-3.14s.36-2.39,1.1-3.15,1.74-1.16,3.03-1.16c.42,0,.82.05,1.21.14s.78.21,1.16.38Z"/>
  <path class="cls-5" d="M255.9,322.7v4.68h-1.35v-1.24c-.32.51-.71.87-1.15,1.1-.45.22-1.02.34-1.68.34-.84,0-1.51-.22-2.01-.69-.49-.47-.74-1.1-.74-1.89,0-.91.3-1.61.93-2.09.62-.47,1.53-.7,2.76-.7h1.89v-.14c0-.61-.21-1.09-.61-1.44-.4-.33-.98-.51-1.71-.51-.48,0-.93.06-1.38.18-.45.12-.87.29-1.27.5v-1.25c.48-.18.96-.33,1.43-.42s.91-.15,1.36-.15c1.19,0,2.07.32,2.66.93.58.61.88,1.55.88,2.79ZM253.21,323.26c-1.1,0-1.85.13-2.26.38-.42.26-.63.68-.63,1.27,0,.48.15.87.46,1.14.32.28.75.42,1.29.42.75,0,1.35-.26,1.8-.8.45-.52.68-1.23.68-2.11v-.3h-1.33Z"/>
  <path class="cls-5" d="M264.56,323.29c0-.99-.21-1.75-.61-2.32-.42-.57-.98-.86-1.68-.86s-1.28.28-1.68.86c-.42.57-.61,1.33-.61,2.32s.2,1.77.61,2.34c.4.57.96.84,1.68.84s1.26-.27,1.68-.84c.4-.57.61-1.35.61-2.34ZM259.97,326.15v4.34h-1.35v-11.31h1.35v1.24c.27-.48.63-.84,1.07-1.08s.96-.36,1.56-.36c.99,0,1.8.41,2.43,1.18.62.8.93,1.83.93,3.12s-.32,2.34-.93,3.12c-.63.78-1.44,1.17-2.43,1.17-.6,0-1.12-.12-1.56-.34-.43-.23-.8-.59-1.07-1.08Z"/>
  <path class="cls-5" d="M274.61,322.7v4.68h-1.35v-1.24c-.32.51-.71.87-1.15,1.1-.45.22-1.02.34-1.68.34-.84,0-1.51-.22-2.01-.69s-.74-1.1-.74-1.89c0-.91.3-1.61.93-2.09.62-.47,1.53-.7,2.76-.7h1.89v-.14c0-.61-.21-1.09-.62-1.44-.4-.33-.97-.51-1.71-.51-.48,0-.93.06-1.38.18-.45.12-.87.29-1.27.5v-1.25c.48-.18.96-.33,1.42-.42.47-.09.92-.15,1.37-.15,1.18,0,2.07.32,2.65.93.58.61.88,1.55.88,2.79ZM271.93,323.26c-1.1,0-1.85.13-2.26.38-.42.26-.63.68-.63,1.27,0,.48.15.87.46,1.14.32.28.75.42,1.29.42.75,0,1.35-.26,1.8-.8.45-.52.68-1.23.68-2.11v-.3h-1.34Z"/>
  <path class="cls-5" d="M283.29,319.49v1.26c-.39-.21-.77-.36-1.15-.47-.39-.1-.77-.16-1.15-.16-.87,0-1.56.28-2.04.84-.48.55-.72,1.33-.72,2.32s.24,1.78.72,2.34,1.17.82,2.04.82c.39,0,.76-.05,1.15-.15.39-.11.76-.27,1.15-.48v1.25c-.39.18-.78.31-1.17.39-.4.07-.84.12-1.29.12-1.23,0-2.22-.38-2.94-1.15-.74-.77-1.1-1.82-1.1-3.14s.36-2.39,1.1-3.15c.73-.76,1.74-1.16,3.03-1.16.42,0,.82.05,1.21.14.39.09.78.21,1.15.38Z"/>
  <path class="cls-5" d="M285.63,315.98h1.35v1.71h-1.35v-1.71ZM285.63,319.18h1.35v8.2h-1.35v-8.2Z"/>
  <path class="cls-5" d="M291.13,316.85v2.33h2.77v1.05h-2.77v4.45c0,.67.09,1.11.27,1.29.18.19.55.28,1.12.28h1.38v1.12h-1.38c-1.05,0-1.77-.19-2.16-.59-.39-.39-.59-1.1-.59-2.11v-4.45h-.99v-1.05h.99v-2.33h1.35Z"/>
  <path class="cls-5" d="M299.1,328.13c-.39.96-.76,1.61-1.12,1.9-.36.3-.84.45-1.44.45h-1.08v-1.12h.8c.36,0,.64-.09.85-.27.21-.18.43-.59.69-1.24l.24-.6-3.32-8.07h1.42l2.57,6.42,2.57-6.42h1.42l-3.6,8.95Z"/>
  <polygon class="cls-5" points="304.9 325.52 306.45 325.52 306.45 326.78 305.25 329.11 304.3 329.11 304.9 326.78 304.9 325.52"/>
  <polygon class="cls-5" points="325.46 316.45 326.95 316.45 325.07 326.15 330.4 326.15 330.16 327.38 323.35 327.38 325.46 316.45"/>
  <g class="cls-15">
    <path class="cls-5" d="M312.8,327.38l4.17-10.93h1.68l4.17,10.93h-10.02ZM317.81,317.9l-3,8.25h6l-3-8.25Z"/>
  </g>
  <g class="cls-28">
    <line class="cls-25" x1="48.72" y1="293.41" x2="420.9" y2="293.41"/>
  </g>
  <line class="cls-5" x1="48.72" y1="293.41" x2="45.22" y2="293.41"/>
  <line class="cls-27" x1="48.72" y1="293.41" x2="45.22" y2="293.41"/>
  <polygon class="cls-5" points="26.96 295.67 28.57 295.67 28.57 290.11 26.82 290.46 26.82 289.56 28.56 289.21 29.55 289.21 29.55 295.67 31.16 295.67 31.16 296.5 26.96 296.5 26.96 295.67"/>
  <rect class="cls-5" x="33.15" y="295.26" width="1.03" height="1.24"/>
  <path class="cls-5" d="M36.34,289.21h3.87v.83h-2.97v1.79c.14-.05.29-.09.43-.11s.29-.04.43-.04c.81,0,1.45.23,1.93.67.48.45.72,1.05.72,1.81s-.25,1.4-.74,1.83c-.49.43-1.18.64-2.06.64-.31,0-.62-.03-.94-.07-.32-.05-.64-.12-.98-.23v-.99c.29.16.59.28.91.36.31.08.64.11.99.11.56,0,1.01-.14,1.34-.44.32-.3.49-.7.49-1.21s-.17-.9-.49-1.2c-.33-.3-.78-.45-1.34-.45-.26,0-.53.03-.79.09-.26.06-.53.15-.8.27v-3.66Z"/>
  <g class="cls-46">
    <line class="cls-25" x1="48.72" y1="238.49" x2="420.9" y2="238.49"/>
  </g>
  <line class="cls-5" x1="48.72" y1="238.49" x2="45.22" y2="238.49"/>
  <line class="cls-27" x1="48.72" y1="238.49" x2="45.22" y2="238.49"/>
  <path class="cls-5" d="M27.64,240.88h3.44v.83h-4.63v-.83c.37-.38.88-.9,1.53-1.56.64-.65,1.05-1.07,1.22-1.26.32-.35.54-.65.66-.9.12-.24.19-.49.19-.73,0-.38-.14-.7-.41-.94s-.62-.37-1.06-.37c-.31,0-.64.06-.98.16-.34.11-.71.27-1.1.49v-1c.4-.16.77-.28,1.11-.36.34-.08.66-.12.95-.12.75,0,1.35.19,1.8.57.45.38.68.88.68,1.51,0,.3-.06.59-.17.85-.11.27-.31.59-.61.95-.08.1-.34.37-.78.82-.44.45-1.05,1.08-1.84,1.89Z"/>
  <rect class="cls-5" x="33.15" y="240.47" width="1.03" height="1.24"/>
  <path class="cls-5" d="M38.44,234.29c.81,0,1.43.33,1.87.97.43.65.65,1.59.65,2.81s-.22,2.17-.65,2.81c-.44.64-1.06.96-1.88.96s-1.44-.32-1.87-.96-.64-1.58-.64-2.81.21-2.16.64-2.81c.43-.64,1.06-.97,1.88-.97ZM38.44,235.07c-.51,0-.89.25-1.15.75-.26.5-.38,1.25-.38,2.25s.12,1.75.38,2.25c.26.5.64.75,1.15.75s.89-.25,1.15-.75c.25-.5.38-1.25.38-2.25s-.13-1.75-.38-2.25c-.26-.5-.64-.75-1.15-.75Z"/>
  <g class="cls-40">
    <line class="cls-25" x1="48.72" y1="183.57" x2="420.9" y2="183.57"/>
  </g>
  <line class="cls-5" x1="48.72" y1="183.57" x2="45.22" y2="183.57"/>
  <line class="cls-27" x1="48.72" y1="183.57" x2="45.22" y2="183.57"/>
  <path class="cls-5" d="M27.64,185.96h3.44v.83h-4.63v-.83c.37-.38.88-.9,1.53-1.56.64-.65,1.05-1.07,1.22-1.26.32-.35.54-.65.66-.9.12-.24.19-.49.19-.73,0-.38-.14-.7-.41-.94s-.62-.37-1.06-.37c-.31,0-.64.06-.98.16-.34.11-.71.27-1.1.49v-1c.4-.16.77-.28,1.11-.36s.66-.12.95-.12c.75,0,1.35.19,1.8.57.45.38.68.88.68,1.51,0,.3-.06.59-.17.85-.11.27-.31.59-.61.95-.08.1-.34.37-.78.82s-1.05,1.08-1.84,1.89Z"/>
  <rect class="cls-5" x="33.15" y="185.55" width="1.03" height="1.24"/>
  <path class="cls-5" d="M36.34,179.5h3.87v.83h-2.97v1.79c.14-.05.29-.09.43-.11s.29-.04.43-.04c.81,0,1.45.23,1.93.67.48.45.72,1.05.72,1.81s-.25,1.4-.74,1.83c-.49.43-1.18.64-2.06.64-.31,0-.62-.03-.94-.07-.32-.05-.64-.12-.98-.23v-.99c.29.16.59.28.91.36.31.08.64.11.99.11.56,0,1.01-.14,1.34-.44.32-.3.49-.7.49-1.21s-.17-.9-.49-1.2c-.33-.3-.78-.45-1.34-.45-.26,0-.53.03-.79.09-.26.06-.53.15-.8.27v-3.66Z"/>
  <g class="cls-52">
    <line class="cls-25" x1="48.72" y1="128.65" x2="420.9" y2="128.65"/>
  </g>
  <line class="cls-5" x1="48.72" y1="128.65" x2="45.22" y2="128.65"/>
  <line class="cls-27" x1="48.72" y1="128.65" x2="45.22" y2="128.65"/>
  <path class="cls-5" d="M29.78,127.94c.47.1.84.31,1.1.63.26.32.4.72.4,1.18,0,.72-.25,1.28-.74,1.67-.5.39-1.2.58-2.11.58-.31,0-.63-.03-.95-.09-.32-.05-.66-.14-1-.26v-.95c.27.16.57.28.9.36.32.08.66.12,1.02.12.62,0,1.09-.12,1.41-.36.32-.24.49-.6.49-1.07,0-.42-.15-.76-.45-1-.3-.24-.72-.37-1.26-.37h-.85v-.81h.89c.48,0,.85-.09,1.11-.29.26-.19.39-.47.39-.84s-.14-.66-.4-.86c-.27-.2-.65-.3-1.14-.3-.27,0-.56.03-.87.09s-.65.15-1.02.27v-.88c.37-.1.72-.18,1.05-.23.32-.05.63-.08.93-.08.74,0,1.33.17,1.77.51.44.34.66.8.66,1.38,0,.4-.12.74-.35,1.02s-.56.48-.98.58Z"/>
  <rect class="cls-5" x="33.15" y="130.63" width="1.03" height="1.24"/>
  <path class="cls-5" d="M38.44,124.45c.81,0,1.43.33,1.87.97.43.65.65,1.59.65,2.81s-.22,2.17-.65,2.81c-.44.64-1.06.96-1.88.96s-1.44-.32-1.87-.96-.64-1.58-.64-2.81.21-2.16.64-2.81c.43-.64,1.06-.97,1.88-.97ZM38.44,125.23c-.51,0-.89.25-1.15.75-.26.5-.38,1.25-.38,2.25s.12,1.75.38,2.25c.26.5.64.75,1.15.75s.89-.25,1.15-.75c.25-.5.38-1.25.38-2.25s-.13-1.75-.38-2.25c-.26-.5-.64-.75-1.15-.75Z"/>
  <g class="cls-2">
    <line class="cls-25" x1="48.72" y1="73.73" x2="420.9" y2="73.73"/>
  </g>
  <line class="cls-5" x1="48.72" y1="73.73" x2="45.22" y2="73.73"/>
  <line class="cls-27" x1="48.72" y1="73.73" x2="45.22" y2="73.73"/>
  <path class="cls-5" d="M29.78,73.01c.47.1.84.31,1.1.63.26.32.4.72.4,1.18,0,.72-.25,1.28-.74,1.67-.5.39-1.2.58-2.11.58-.31,0-.63-.03-.95-.09-.32-.05-.66-.14-1-.26v-.95c.27.16.57.28.9.36.32.08.66.12,1.02.12.62,0,1.09-.12,1.41-.36.32-.24.49-.6.49-1.07,0-.42-.15-.76-.45-1-.3-.24-.72-.37-1.26-.37h-.85v-.81h.89c.48,0,.85-.09,1.11-.29.26-.19.39-.47.39-.84s-.14-.66-.4-.86c-.27-.2-.65-.3-1.14-.3-.27,0-.56.03-.87.09s-.65.15-1.02.27v-.88c.37-.1.72-.18,1.05-.23.32-.05.63-.08.93-.08.74,0,1.33.17,1.77.51.44.34.66.8.66,1.38,0,.4-.12.74-.35,1.02s-.56.48-.98.58Z"/>
  <rect class="cls-5" x="33.15" y="75.7" width="1.03" height="1.24"/>
  <path class="cls-5" d="M36.34,69.65h3.87v.83h-2.97v1.79c.14-.05.29-.09.43-.11s.29-.04.43-.04c.81,0,1.45.23,1.93.67.48.45.72,1.05.72,1.81s-.25,1.4-.74,1.83c-.49.43-1.18.64-2.06.64-.31,0-.62-.03-.94-.07-.32-.05-.64-.12-.98-.23v-.99c.29.16.59.28.91.36.31.08.64.11.99.11.56,0,1.01-.14,1.34-.44.32-.3.49-.7.49-1.21s-.17-.9-.49-1.2c-.33-.3-.78-.45-1.34-.45-.26,0-.53.03-.79.09-.26.06-.53.15-.8.27v-3.66Z"/>
  <g class="cls-36">
    <line class="cls-25" x1="48.72" y1="18.81" x2="420.9" y2="18.81"/>
  </g>
  <line class="cls-5" x1="48.72" y1="18.81" x2="45.22" y2="18.81"/>
  <line class="cls-27" x1="48.72" y1="18.81" x2="45.22" y2="18.81"/>
  <path class="cls-5" d="M29.24,14.73h1.24v4.75h1.04v.82h-1.04v1.72h-.98v-1.72h-3.29v-.95l3.03-4.62ZM29.5,15.59l-2.49,3.89h2.49v-3.89Z"/>
  <rect class="cls-5" x="33.15" y="20.78" width="1.03" height="1.24"/>
  <path class="cls-5" d="M38.44,14.6c.81,0,1.43.33,1.87.97.43.65.65,1.59.65,2.81s-.22,2.17-.65,2.81c-.44.64-1.06.96-1.88.96s-1.44-.32-1.87-.96c-.43-.64-.64-1.58-.64-2.81s.21-2.16.64-2.81c.43-.64,1.06-.97,1.88-.97ZM38.44,15.38c-.51,0-.89.25-1.15.75-.26.5-.38,1.25-.38,2.25s.12,1.75.38,2.25c.26.5.64.75,1.15.75s.89-.25,1.15-.75c.25-.5.38-1.25.38-2.25s-.13-1.75-.38-2.25c-.26-.5-.64-.75-1.15-.75Z"/>
  <polygon class="cls-5" points="7.66 218.05 7.66 208.81 8.9 208.81 8.9 212.69 18.59 212.69 18.59 214.18 8.9 214.18 8.9 218.05 7.66 218.05"/>
  <path class="cls-5" d="M10.19,206.81c0-1.17.39-2.09,1.14-2.76.76-.66,1.82-1,3.16-1s2.4.35,3.15,1c.76.68,1.14,1.59,1.14,2.76s-.38,2.11-1.14,2.77c-.75.66-1.8.99-3.15.99s-2.4-.33-3.16-.99c-.75-.66-1.14-1.59-1.14-2.77ZM11.33,206.81c0,.72.28,1.29.85,1.71.57.42,1.34.63,2.31.63s1.76-.2,2.32-.62.84-.99.84-1.72-.27-1.29-.84-1.71-1.33-.63-2.32-.63-1.74.21-2.31.63c-.57.42-.85.99-.85,1.71Z"/>
  <path class="cls-5" d="M8.06,199.48h2.33v-2.78h1.05v2.78h4.46c.68,0,1.11-.09,1.29-.27.19-.18.28-.56.28-1.12v-1.38h1.12v1.38c0,1.05-.19,1.77-.58,2.16-.39.39-1.1.58-2.12.58h-4.46v.99h-1.05v-.99h-2.33v-1.35Z"/>
  <path class="cls-5" d="M13.91,188.51h4.68v1.35h-1.25c.51.32.87.71,1.1,1.15s.34,1.02.34,1.68c0,.84-.23,1.51-.69,2.01-.46.49-1.09.74-1.89.74-.91,0-1.6-.3-2.09-.93-.47-.62-.7-1.53-.7-2.76v-1.89h-.14c-.61,0-1.1.21-1.44.61-.33.4-.51.98-.51,1.71,0,.48.06.93.18,1.38.12.45.28.87.49,1.27h-1.24c-.18-.48-.33-.96-.42-1.43s-.15-.91-.15-1.36c0-1.19.32-2.07.93-2.66.61-.58,1.55-.88,2.79-.88ZM14.47,191.2c0,1.1.14,1.85.38,2.26.26.42.68.63,1.27.63.48,0,.87-.15,1.14-.46.28-.32.42-.75.42-1.29,0-.75-.25-1.35-.79-1.8-.53-.45-1.23-.67-2.12-.67h-.3v1.33Z"/>
  <rect class="cls-5" x="7.19" y="184.39" width="11.4" height="1.35"/>
  <path class="cls-5" d="M14.5,175.99c.99,0,1.77-.19,2.34-.6.57-.4.84-.96.84-1.68s-.27-1.27-.84-1.7c-.57-.4-1.35-.61-2.34-.61s-1.76.21-2.32.61c-.57.42-.85.98-.85,1.7s.28,1.27.85,1.68c.57.41,1.34.6,2.32.6ZM11.63,171.4h-4.44v-1.35h11.4v1.35h-1.23c.49.29.85.65,1.08,1.08s.34.94.34,1.54c0,.99-.39,1.8-1.17,2.43-.78.63-1.83.93-3.12.93s-2.32-.3-3.12-.93c-.78-.63-1.19-1.44-1.19-2.43,0-.6.12-1.11.36-1.54.24-.43.6-.79,1.08-1.08Z"/>
  <path class="cls-5" d="M13.76,161.6c-.74.01-1.32.23-1.77.62-.43.4-.66.94-.66,1.6,0,.75.23,1.35.65,1.8s1.02.72,1.78.78v-4.8ZM14.15,160.25h.66v6.2c.93-.06,1.65-.33,2.13-.84.48-.5.72-1.18.72-2.09,0-.51-.06-1.02-.18-1.5-.12-.48-.31-.97-.58-1.46h1.27c.21.48.38.98.47,1.49.09.51.15,1.04.15,1.54,0,1.32-.38,2.36-1.12,3.12s-1.78,1.14-3.09,1.14-2.4-.36-3.19-1.08c-.78-.72-1.19-1.71-1.19-2.94,0-1.11.36-1.98,1.06-2.62.72-.63,1.68-.96,2.9-.96Z"/>
  <rect class="cls-5" x="7.19" y="156.7" width="11.4" height="1.35"/>
  <path class="cls-5" d="M13.91,147.46h4.68v1.35h-1.25c.51.32.87.71,1.1,1.15s.34,1.02.34,1.68c0,.84-.23,1.51-.69,2.01-.46.49-1.09.74-1.89.74-.91,0-1.6-.3-2.09-.93-.47-.62-.7-1.53-.7-2.76v-1.89h-.14c-.61,0-1.1.21-1.44.61-.33.4-.51.98-.51,1.71,0,.48.06.93.18,1.38.12.45.28.87.49,1.27h-1.24c-.18-.48-.33-.96-.42-1.43s-.15-.91-.15-1.36c0-1.19.32-2.07.93-2.66.61-.58,1.55-.88,2.79-.88ZM14.47,150.14c0,1.1.14,1.85.38,2.26.26.42.68.63,1.27.63.48,0,.87-.15,1.14-.46.28-.32.42-.75.42-1.29,0-.75-.25-1.35-.79-1.8-.53-.45-1.23-.67-2.12-.67h-.3v1.33Z"/>
  <path class="cls-5" d="M19.34,141.26c.96.39,1.6.76,1.91,1.12.3.36.45.84.45,1.44v1.08h-1.12v-.79c0-.36-.09-.65-.27-.86-.18-.21-.58-.43-1.24-.69l-.6-.24-8.07,3.32v-1.43l6.42-2.57-6.42-2.57v-1.43l8.95,3.6Z"/>
  <path class="cls-5" d="M7.21,127.79c1.14.66,2.25,1.14,3.35,1.45,1.1.33,2.2.48,3.33.48s2.25-.15,3.35-.48c1.11-.31,2.2-.79,3.33-1.45v1.17c-1.16.74-2.26,1.29-3.38,1.65s-2.2.54-3.3.54-2.18-.18-3.29-.54c-1.11-.36-2.23-.9-3.39-1.65v-1.17Z"/>
  <path class="cls-5" d="M10.63,119.95h1.27c-.18.39-.33.78-.43,1.18-.09.42-.15.84-.15,1.28,0,.68.1,1.18.31,1.51s.51.49.91.49c.32,0,.56-.12.73-.36.18-.24.36-.72.51-1.44l.11-.46c.21-.96.51-1.63.87-2.04.38-.39.9-.6,1.56-.6.76,0,1.36.3,1.8.9.45.6.66,1.44.66,2.49,0,.45-.05.9-.12,1.38-.08.48-.2.97-.38,1.5h-1.4c.27-.49.47-.99.58-1.47.14-.48.19-.96.19-1.44,0-.63-.1-1.12-.31-1.47-.21-.33-.53-.51-.93-.51-.36,0-.65.13-.84.38-.19.24-.39.78-.57,1.62l-.11.46c-.18.84-.45,1.46-.81,1.82-.36.38-.85.56-1.5.56-.76,0-1.36-.27-1.78-.81-.42-.54-.63-1.32-.63-2.34,0-.49.05-.96.12-1.41.08-.43.18-.84.32-1.21Z"/>
  <path class="cls-5" d="M13.76,111.7c-.74.01-1.32.23-1.77.62-.43.4-.66.94-.66,1.6,0,.75.23,1.35.65,1.8s1.02.72,1.78.78v-4.8ZM14.15,110.35h.66v6.2c.93-.06,1.65-.33,2.13-.84.48-.5.72-1.18.72-2.09,0-.51-.06-1.02-.18-1.5-.12-.48-.31-.97-.58-1.46h1.27c.21.48.38.98.47,1.49.09.51.15,1.04.15,1.54,0,1.32-.38,2.36-1.12,3.12s-1.78,1.14-3.09,1.14-2.4-.36-3.19-1.08c-.78-.72-1.19-1.71-1.19-2.94,0-1.11.36-1.98,1.06-2.62.72-.63,1.68-.96,2.9-.96Z"/>
  <path class="cls-5" d="M10.7,102.23h1.26c-.21.39-.36.77-.47,1.16s-.16.76-.16,1.15c0,.87.28,1.56.84,2.04s1.34.72,2.32.72,1.79-.24,2.34-.72c.56-.48.83-1.17.83-2.04,0-.39-.05-.76-.15-1.15s-.27-.76-.48-1.16h1.24c.18.39.32.78.39,1.17.07.4.12.84.12,1.29,0,1.23-.38,2.22-1.15,2.94-.77.74-1.82,1.1-3.14,1.1s-2.39-.36-3.15-1.1c-.76-.74-1.15-1.74-1.15-3.03,0-.42.05-.82.14-1.21s.21-.78.38-1.16Z"/>
  <path class="cls-5" d="M7.21,100.1v-1.17c1.15-.72,2.28-1.28,3.39-1.64,1.11-.36,2.2-.55,3.29-.55s2.19.19,3.3.55,2.22.92,3.38,1.64v1.17c-1.12-.65-2.22-1.12-3.33-1.46-1.09-.32-2.2-.48-3.35-.48s-2.23.16-3.33.48c-1.1.33-2.21.81-3.35,1.46Z"/>
  <polygon class="cls-5" points="55.73 9.69 53.5 11.93 55.73 14.16 55.15 14.75 52.91 12.51 50.67 14.75 50.09 14.16 52.32 11.93 50.09 9.69 50.67 9.1 52.91 11.34 55.15 9.1 55.73 9.69"/>
  <polygon class="cls-5" points="58.33 14.23 59.94 14.23 59.94 8.67 58.19 9.02 58.19 8.12 59.93 7.77 60.92 7.77 60.92 14.23 62.53 14.23 62.53 15.06 58.33 15.06 58.33 14.23"/>
  <path class="cls-5" d="M66.64,7.64c.81,0,1.43.33,1.87.97.43.65.65,1.59.65,2.81s-.22,2.17-.65,2.81c-.44.64-1.06.96-1.88.96s-1.44-.32-1.87-.96c-.43-.64-.64-1.58-.64-2.81s.21-2.16.64-2.81c.43-.64,1.06-.97,1.88-.97ZM66.64,8.42c-.51,0-.89.25-1.15.75-.26.5-.38,1.25-.38,2.25s.12,1.75.38,2.25c.26.5.64.75,1.15.75s.89-.25,1.15-.75c.25-.5.38-1.25.38-2.25s-.13-1.75-.38-2.25c-.26-.5-.64-.75-1.15-.75Z"/>
  <path class="cls-5" d="M70.67,6.13h2.71v.58h-2.08v1.25c.1-.03.2-.06.3-.08.1-.01.2-.03.3-.03.57,0,1.01.16,1.35.47.34.32.5.73.5,1.27s-.18.98-.52,1.28c-.34.3-.83.45-1.44.45-.22,0-.43-.02-.66-.05-.22-.04-.45-.08-.69-.16v-.69c.2.11.41.2.64.25.22.06.45.08.69.08.39,0,.71-.1.94-.31.22-.21.34-.49.34-.85s-.12-.63-.34-.84c-.23-.21-.55-.32-.94-.32-.18,0-.37.02-.55.06-.18.04-.37.11-.56.19v-2.56Z"/>
  <g class="cls-11">
    <polyline class="cls-20" points="65.63 30.72 133.3 196.6 200.97 247.73 268.64 271.97 336.31 282.72 403.98 282.12"/>
    <g class="cls-49">
      <polygon class="cls-24" points="65.63 27.72 62.63 33.72 68.63 33.72 65.63 27.72"/>
    </g>
    <g class="cls-14">
      <polygon class="cls-24" points="133.3 193.6 130.3 199.6 136.3 199.6 133.3 193.6"/>
    </g>
    <g class="cls-3">
      <polygon class="cls-24" points="200.97 244.73 197.97 250.73 203.97 250.73 200.97 244.73"/>
    </g>
    <g class="cls-50">
      <polygon class="cls-24" points="268.64 268.97 265.64 274.97 271.64 274.97 268.64 268.97"/>
    </g>
    <g class="cls-48">
      <polygon class="cls-24" points="336.31 279.72 333.31 285.72 339.31 285.72 336.31 279.72"/>
    </g>
    <g class="cls-43">
      <polygon class="cls-24" points="403.98 279.12 400.98 285.12 406.98 285.12 403.98 279.12"/>
    </g>
  </g>
  <g class="cls-1">
    <polyline class="cls-26" points="65.63 46.07 133.3 214.61 200.97 245.75 268.64 226.04 336.31 188.68 403.98 141.19"/>
    <g class="cls-29">
      <rect class="cls-23" x="62.63" y="43.07" width="6" height="6"/>
    </g>
    <g class="cls-39">
      <rect class="cls-23" x="130.3" y="211.61" width="6" height="6"/>
    </g>
    <g class="cls-53">
      <rect class="cls-23" x="197.97" y="242.75" width="6" height="6"/>
    </g>
    <g class="cls-37">
      <rect class="cls-23" x="265.64" y="223.04" width="6" height="6"/>
    </g>
    <g class="cls-13">
      <rect class="cls-23" x="333.31" y="185.68" width="6" height="6"/>
    </g>
    <g class="cls-17">
      <rect class="cls-23" x="400.98" y="138.19" width="6" height="6"/>
    </g>
  </g>
  <g class="cls-35">
    <polyline class="cls-18" points="65.63 33.62 133.3 48.76 200.97 61.61 268.64 75.85 336.31 84.71 403.98 94.27"/>
    <g class="cls-54">
      <polygon class="cls-24" points="65.63 30.62 62.63 36.62 68.63 36.62 65.63 30.62"/>
    </g>
    <g class="cls-47">
      <polygon class="cls-24" points="133.3 45.76 130.3 51.76 136.3 51.76 133.3 45.76"/>
    </g>
    <g class="cls-38">
      <polygon class="cls-24" points="200.97 58.61 197.97 64.61 203.97 64.61 200.97 58.61"/>
    </g>
    <g class="cls-44">
      <polygon class="cls-24" points="268.64 72.85 265.64 78.85 271.64 78.85 268.64 72.85"/>
    </g>
    <g class="cls-9">
      <polygon class="cls-24" points="336.31 81.71 333.31 87.71 339.31 87.71 336.31 81.71"/>
    </g>
    <g class="cls-4">
      <polygon class="cls-24" points="403.98 91.27 400.98 97.27 406.98 97.27 403.98 91.27"/>
    </g>
  </g>
  <g class="cls-30">
    <polyline class="cls-21" points="65.63 46.07 133.3 59.87 200.97 73.21 268.64 90.68 336.31 102.44 403.98 115.15"/>
    <g class="cls-55">
      <rect class="cls-23" x="62.63" y="43.07" width="6" height="6"/>
    </g>
    <g class="cls-34">
      <rect class="cls-23" x="130.3" y="56.87" width="6" height="6"/>
    </g>
    <g class="cls-12">
      <rect class="cls-23" x="197.97" y="70.21" width="6" height="6"/>
    </g>
    <g class="cls-33">
      <rect class="cls-23" x="265.64" y="87.68" width="6" height="6"/>
    </g>
    <g class="cls-42">
      <rect class="cls-23" x="333.31" y="99.44" width="6" height="6"/>
    </g>
    <g class="cls-16">
      <rect class="cls-23" x="400.98" y="112.15" width="6" height="6"/>
    </g>
  </g>
  <line class="cls-22" x1="48.72" y1="295.32" x2="48.72" y2="18.12"/>
  <line class="cls-22" x1="420.9" y1="295.32" x2="420.9" y2="18.12"/>
  <line class="cls-22" x1="48.72" y1="295.32" x2="420.9" y2="295.32"/>
  <line class="cls-22" x1="48.72" y1="18.12" x2="420.9" y2="18.12"/>
  <g>
    <rect class="cls-7" x="152.52" y="107.98" width="164.57" height="86.39" rx="2.8" ry="2.8"/>
    <rect class="cls-19" x="152.52" y="107.98" width="164.57" height="86.39" rx="2.8" ry="2.8"/>
  </g>
  <polyline class="cls-20" points="158.12 119.32 172.12 119.32 186.12 119.32"/>
  <polygon class="cls-24" points="172.12 116.32 169.12 122.32 175.12 122.32 172.12 116.32"/>
  <polygon class="cls-5" points="198.69 114.02 200.75 114.02 203.36 120.96 205.97 114.02 208.03 114.02 208.03 124.22 206.69 124.22 206.69 115.26 204.06 122.26 202.67 122.26 200.04 115.26 200.04 124.22 198.69 124.22 198.69 114.02"/>
  <polygon class="cls-5" points="213.41 124.22 209.52 114.02 210.96 114.02 214.19 122.61 217.43 114.02 218.87 114.02 214.98 124.22 213.41 124.22"/>
  <rect class="cls-5" x="220.35" y="114.02" width="1.39" height="10.21"/>
  <path class="cls-5" d="M224.48,114.02h3.12c1.13,0,2,.27,2.59.78.59.52.88,1.27.88,2.27s-.29,1.78-.88,2.28c-.59.52-1.46.77-2.59.77h-1.74v4.1h-1.39v-10.21ZM225.87,115.15v3.84h1.74c.64,0,1.13-.15,1.48-.49.35-.34.53-.81.53-1.43s-.18-1.08-.53-1.41c-.35-.34-.84-.5-1.48-.5h-1.74Z"/>
  <path class="cls-5" d="M240.34,113.6c-.62,1.06-1.06,2.1-1.36,3.12-.31,1.02-.45,2.06-.45,3.11s.14,2.1.45,3.12c.29,1.04.74,2.06,1.36,3.11h-1.09c-.69-1.08-1.2-2.11-1.54-3.15-.34-1.04-.5-2.06-.5-3.08s.17-2.03.5-3.07c.34-1.04.84-2.09,1.54-3.16h1.09Z"/>
  <path class="cls-5" d="M248.74,118.04c.31-.56.69-.97,1.12-1.25.43-.27.95-.41,1.55-.41.78,0,1.4.28,1.83.84.43.56.66,1.36.66,2.38v4.62h-1.26v-4.58c0-.73-.14-1.27-.39-1.64-.27-.35-.66-.53-1.19-.53-.66,0-1.18.22-1.55.66-.38.43-.56,1.02-.56,1.76v4.33h-1.26v-4.58c0-.73-.14-1.27-.39-1.64-.27-.35-.67-.53-1.2-.53-.64,0-1.16.22-1.54.66-.38.43-.56,1.02-.56,1.76v4.33h-1.26v-7.66h1.26v1.19c.28-.46.63-.81,1.04-1.04.39-.22.87-.34,1.43-.34s1.02.14,1.41.42.67.7.87,1.23Z"/>
  <path class="cls-5" d="M259.45,116.38h0ZM256.29,121.2v-4.63h1.26v4.59c0,.73.14,1.26.42,1.62s.7.55,1.27.55c.67,0,1.22-.21,1.61-.64.39-.43.59-1.02.59-1.78v-4.34h1.26v7.66h-1.26v-1.18c-.31.48-.67.81-1.06,1.04-.41.21-.87.32-1.4.32-.88,0-1.55-.27-2-.81-.46-.53-.69-1.33-.69-2.39Z"/>
  <rect class="cls-5" x="265.29" y="113.58" width="1.26" height="10.64"/>
  <path class="cls-5" d="M270.43,114.4v2.17h2.59v.98h-2.59v4.16c0,.63.08,1.04.25,1.2.17.18.52.27,1.05.27h1.29v1.05h-1.29c-.98,0-1.65-.18-2.02-.55-.36-.36-.55-1.02-.55-1.97v-4.16h-.92v-.98h.92v-2.17h1.26Z"/>
  <path class="cls-5" d="M274.67,113.58h1.26v1.6h-1.26v-1.6ZM274.67,116.57h1.26v7.66h-1.26v-7.66Z"/>
  <rect class="cls-5" x="277.93" y="119.83" width="3.68" height="1.12"/>
  <path class="cls-5" d="M284.86,114.4v2.17h2.59v.98h-2.59v4.16c0,.63.08,1.04.25,1.2.17.18.52.27,1.05.27h1.29v1.05h-1.29c-.98,0-1.65-.18-2.02-.55-.36-.36-.55-1.02-.55-1.97v-4.16h-.92v-.98h.92v-2.17h1.26Z"/>
  <path class="cls-5" d="M289.11,113.58h1.26v1.6h-1.26v-1.6ZM289.11,116.57h1.26v7.66h-1.26v-7.66Z"/>
  <path class="cls-5" d="M298.29,119.72c-.01-.69-.21-1.23-.57-1.65-.38-.41-.88-.62-1.5-.62-.7,0-1.26.21-1.68.6-.42.39-.67.95-.73,1.67h4.48ZM299.55,120.08v.62h-5.78c.06.87.31,1.54.78,1.99.46.45,1.11.67,1.95.67.48,0,.95-.06,1.4-.17s.91-.29,1.36-.55v1.19c-.45.2-.91.35-1.39.43-.48.08-.97.14-1.44.14-1.23,0-2.2-.35-2.91-1.05-.71-.7-1.06-1.67-1.06-2.88s.34-2.24,1.01-2.98c.67-.73,1.6-1.11,2.74-1.11,1.04,0,1.85.34,2.45.99.59.67.9,1.57.9,2.7Z"/>
  <path class="cls-5" d="M306.05,117.74c-.14-.08-.29-.14-.46-.18-.17-.03-.35-.06-.55-.06-.71,0-1.26.24-1.64.7-.39.46-.57,1.12-.57,1.99v4.03h-1.26v-7.66h1.26v1.19c.25-.46.6-.81,1.02-1.04s.94-.34,1.55-.34c.08,0,.18.01.29.01.1.01.21.03.35.06v1.29Z"/>
  <path class="cls-5" d="M307.17,113.6h1.09c.67,1.08,1.19,2.13,1.53,3.16.34,1.04.52,2.06.52,3.07s-.18,2.04-.52,3.08c-.34,1.04-.85,2.07-1.53,3.15h-1.09c.6-1.05,1.05-2.07,1.36-3.11.29-1.02.45-2.06.45-3.12s-.15-2.09-.45-3.11c-.31-1.02-.76-2.06-1.36-3.12Z"/>
  <polyline class="cls-26" points="158.12 139.87 172.12 139.87 186.12 139.87"/>
  <rect class="cls-23" x="169.12" y="136.87" width="6" height="6"/>
  <polygon class="cls-5" points="198.69 134.57 200.08 134.57 200.08 143.61 205.05 143.61 205.05 144.77 198.69 144.77 198.69 134.57"/>
  <polygon class="cls-5" points="206.49 134.57 212.36 134.57 212.36 135.73 207.88 135.73 207.88 138.74 211.92 138.74 211.92 139.9 207.88 139.9 207.88 144.77 206.49 144.77 206.49 134.57"/>
  <path class="cls-5" d="M214.39,134.57h1.39v6.2c0,1.09.2,1.89.59,2.37s1.04.71,1.93.71,1.53-.24,1.92-.71c.39-.48.6-1.27.6-2.37v-6.2h1.39v6.37c0,1.34-.34,2.34-.99,3.01-.66.67-1.62,1.01-2.91,1.01s-2.27-.34-2.93-1.01-.98-1.67-.98-3.01v-6.37Z"/>
  <path class="cls-5" d="M232.21,134.15c-.62,1.06-1.06,2.1-1.36,3.12-.31,1.02-.45,2.06-.45,3.11s.14,2.1.45,3.12c.29,1.04.74,2.06,1.36,3.11h-1.09c-.69-1.08-1.2-2.11-1.54-3.15-.34-1.04-.5-2.06-.5-3.08s.17-2.03.5-3.07c.34-1.04.84-2.09,1.54-3.16h1.09Z"/>
  <path class="cls-5" d="M240.61,138.58c.31-.56.69-.97,1.12-1.25.43-.27.95-.41,1.55-.41.78,0,1.4.28,1.83.84.43.56.66,1.36.66,2.38v4.62h-1.26v-4.58c0-.73-.14-1.27-.39-1.64-.27-.35-.66-.53-1.19-.53-.66,0-1.18.22-1.55.66-.38.43-.56,1.02-.56,1.76v4.33h-1.26v-4.58c0-.73-.14-1.27-.39-1.64-.27-.35-.67-.53-1.2-.53-.64,0-1.16.22-1.54.66-.38.43-.56,1.02-.56,1.76v4.33h-1.26v-7.66h1.26v1.19c.28-.46.63-.81,1.04-1.04.39-.22.87-.34,1.43-.34s1.02.14,1.41.42.67.7.87,1.23Z"/>
  <path class="cls-5" d="M251.32,136.93h0ZM248.16,141.75v-4.63h1.26v4.59c0,.73.14,1.26.42,1.62s.7.55,1.27.55c.67,0,1.22-.21,1.61-.64.39-.43.59-1.02.59-1.78v-4.34h1.26v7.66h-1.26v-1.18c-.31.48-.67.81-1.06,1.04-.41.21-.87.32-1.4.32-.88,0-1.55-.27-2-.81-.46-.53-.69-1.33-.69-2.39Z"/>
  <rect class="cls-5" x="257.16" y="134.13" width="1.26" height="10.64"/>
  <path class="cls-5" d="M262.3,134.94v2.17h2.59v.98h-2.59v4.16c0,.63.08,1.04.25,1.2.17.18.52.27,1.05.27h1.29v1.05h-1.29c-.98,0-1.65-.18-2.02-.55-.36-.36-.55-1.02-.55-1.97v-4.16h-.92v-.98h.92v-2.17h1.26Z"/>
  <path class="cls-5" d="M266.54,134.13h1.26v1.6h-1.26v-1.6ZM266.54,137.11h1.26v7.66h-1.26v-7.66Z"/>
  <rect class="cls-5" x="269.8" y="140.38" width="3.68" height="1.12"/>
  <path class="cls-5" d="M276.73,134.94v2.17h2.59v.98h-2.59v4.16c0,.63.08,1.04.25,1.2.17.18.52.27,1.05.27h1.29v1.05h-1.29c-.98,0-1.65-.18-2.02-.55-.36-.36-.55-1.02-.55-1.97v-4.16h-.92v-.98h.92v-2.17h1.26Z"/>
  <path class="cls-5" d="M280.97,134.13h1.26v1.6h-1.26v-1.6ZM280.97,137.11h1.26v7.66h-1.26v-7.66Z"/>
  <path class="cls-5" d="M290.16,140.26c-.01-.69-.21-1.23-.57-1.65-.38-.41-.88-.62-1.5-.62-.7,0-1.26.21-1.68.6-.42.39-.67.95-.73,1.67h4.48ZM291.42,140.63v.62h-5.78c.06.87.31,1.54.78,1.99.46.45,1.11.67,1.95.67.48,0,.95-.06,1.4-.17s.91-.29,1.36-.55v1.19c-.45.2-.91.35-1.39.43-.48.08-.97.14-1.44.14-1.23,0-2.2-.35-2.91-1.05-.71-.7-1.06-1.67-1.06-2.88s.34-2.24,1.01-2.98c.67-.73,1.6-1.11,2.74-1.11,1.04,0,1.85.34,2.45.99.59.67.9,1.57.9,2.7Z"/>
  <path class="cls-5" d="M297.91,138.29c-.14-.08-.29-.14-.46-.18-.17-.03-.35-.06-.55-.06-.71,0-1.26.24-1.64.7-.39.46-.57,1.12-.57,1.99v4.03h-1.26v-7.66h1.26v1.19c.25-.46.6-.81,1.02-1.04s.94-.34,1.55-.34c.08,0,.18.01.29.01.1.01.21.03.35.06v1.29Z"/>
  <path class="cls-5" d="M299.03,134.15h1.09c.67,1.08,1.19,2.13,1.53,3.16.34,1.04.52,2.06.52,3.07s-.18,2.04-.52,3.08c-.34,1.04-.85,2.07-1.53,3.15h-1.09c.6-1.05,1.05-2.07,1.36-3.11.29-1.02.45-2.06.45-3.12s-.15-2.09-.45-3.11c-.31-1.02-.76-2.06-1.36-3.12Z"/>
  <polyline class="cls-18" points="158.12 160.42 172.12 160.42 186.12 160.42"/>
  <polygon class="cls-24" points="172.12 157.42 169.12 163.42 175.12 163.42 172.12 157.42"/>
  <polygon class="cls-5" points="201.33 165.32 197.43 155.11 198.88 155.11 202.11 163.71 205.34 155.11 206.79 155.11 202.89 165.32 201.33 165.32"/>
  <rect class="cls-5" x="208.27" y="155.11" width="1.39" height="10.21"/>
  <path class="cls-5" d="M212.4,155.11h3.12c1.13,0,2,.27,2.59.78.59.52.88,1.27.88,2.27s-.29,1.78-.88,2.28c-.59.52-1.46.77-2.59.77h-1.74v4.1h-1.39v-10.21ZM213.79,156.25v3.84h1.74c.64,0,1.13-.15,1.48-.49.35-.34.53-.81.53-1.43s-.18-1.08-.53-1.41c-.35-.34-.84-.5-1.48-.5h-1.74Z"/>
  <path class="cls-5" d="M228.26,154.69c-.62,1.06-1.06,2.1-1.36,3.12-.31,1.02-.45,2.06-.45,3.11s.14,2.1.45,3.12c.29,1.04.74,2.06,1.36,3.11h-1.09c-.69-1.08-1.2-2.11-1.54-3.15-.34-1.04-.5-2.06-.5-3.08s.17-2.03.5-3.07c.34-1.04.84-2.09,1.54-3.16h1.09Z"/>
  <path class="cls-5" d="M235.58,157.88v1.19c-.36-.17-.73-.31-1.11-.41-.39-.08-.78-.14-1.19-.14-.63,0-1.11.1-1.41.29s-.46.48-.46.85c0,.29.11.52.34.69s.67.34,1.34.48l.43.1c.9.2,1.53.48,1.9.81.36.35.56.84.56,1.46,0,.71-.28,1.27-.84,1.68-.56.42-1.34.62-2.32.62-.42,0-.84-.04-1.29-.11-.45-.07-.91-.18-1.4-.35v-1.3c.46.25.92.43,1.37.55.45.13.9.18,1.34.18.59,0,1.05-.1,1.37-.29.31-.2.48-.49.48-.87,0-.34-.13-.6-.35-.78-.22-.18-.73-.36-1.51-.53l-.43-.1c-.78-.17-1.36-.42-1.69-.76-.35-.34-.52-.8-.52-1.4,0-.71.25-1.27.76-1.67.5-.39,1.23-.59,2.18-.59.46,0,.9.04,1.32.11.41.07.78.17,1.13.29Z"/>
  <path class="cls-5" d="M237.99,154.68h1.26v1.6h-1.26v-1.6ZM237.99,157.66h1.26v7.66h-1.26v-7.66Z"/>
  <path class="cls-5" d="M248.25,160.7v4.62h-1.26v-4.58c0-.73-.15-1.26-.43-1.62s-.7-.55-1.26-.55c-.69,0-1.22.22-1.61.66-.39.43-.59,1.02-.59,1.76v4.33h-1.26v-7.66h1.26v1.19c.29-.45.64-.8,1.06-1.02.41-.22.88-.35,1.41-.35.87,0,1.54.28,1.99.83.45.55.69,1.34.69,2.39Z"/>
  <path class="cls-5" d="M257.06,164.37c0,1.29-.29,2.25-.87,2.9-.59.63-1.47.95-2.66.95-.45,0-.85-.04-1.25-.1-.39-.07-.78-.17-1.15-.31v-1.22c.36.2.73.34,1.09.43.36.1.73.15,1.11.15.81,0,1.43-.22,1.85-.64.41-.43.62-1.08.62-1.95v-.62c-.27.45-.6.78-1.01,1.01-.41.22-.88.34-1.44.34-.95,0-1.71-.35-2.28-1.06-.57-.71-.85-1.67-.85-2.86s.28-2.13.85-2.84c.57-.71,1.33-1.08,2.28-1.08.56,0,1.04.11,1.44.34.41.22.74.56,1.01,1.01v-1.16h1.26v6.71ZM255.8,161.4c0-.9-.2-1.61-.56-2.11-.38-.5-.91-.76-1.58-.76s-1.2.25-1.58.76c-.38.5-.56,1.22-.56,2.11s.18,1.61.56,2.11c.38.5.91.76,1.58.76s1.2-.25,1.58-.76c.36-.5.56-1.2.56-2.11Z"/>
  <rect class="cls-5" x="259.65" y="154.68" width="1.26" height="10.64"/>
  <path class="cls-5" d="M268.83,160.81c-.01-.69-.21-1.23-.57-1.65-.38-.41-.88-.62-1.5-.62-.7,0-1.26.21-1.68.6-.42.39-.67.95-.73,1.67h4.48ZM270.09,161.17v.62h-5.78c.06.87.31,1.54.78,1.99.46.45,1.11.67,1.95.67.48,0,.95-.06,1.4-.17s.91-.29,1.36-.55v1.19c-.45.2-.91.35-1.39.43-.48.08-.97.14-1.44.14-1.23,0-2.2-.35-2.91-1.05-.71-.7-1.06-1.67-1.06-2.88s.34-2.24,1.01-2.98c.67-.73,1.6-1.11,2.74-1.11,1.04,0,1.85.34,2.45.99.59.67.9,1.57.9,2.7Z"/>
  <rect class="cls-5" x="271.52" y="160.92" width="3.68" height="1.12"/>
  <path class="cls-5" d="M278.45,155.49v2.17h2.59v.98h-2.59v4.16c0,.63.08,1.04.25,1.2.17.18.52.27,1.05.27h1.29v1.05h-1.29c-.98,0-1.65-.18-2.02-.55-.36-.36-.55-1.02-.55-1.97v-4.16h-.92v-.98h.92v-2.17h1.26Z"/>
  <path class="cls-5" d="M282.69,154.68h1.26v1.6h-1.26v-1.6ZM282.69,157.66h1.26v7.66h-1.26v-7.66Z"/>
  <path class="cls-5" d="M291.88,160.81c-.01-.69-.21-1.23-.57-1.65-.38-.41-.88-.62-1.5-.62-.7,0-1.26.21-1.68.6-.42.39-.67.95-.73,1.67h4.48ZM293.14,161.17v.62h-5.78c.06.87.31,1.54.78,1.99.46.45,1.11.67,1.95.67.48,0,.95-.06,1.4-.17s.91-.29,1.36-.55v1.19c-.45.2-.91.35-1.39.43-.48.08-.97.14-1.44.14-1.23,0-2.2-.35-2.91-1.05-.71-.7-1.06-1.67-1.06-2.88s.34-2.24,1.01-2.98c.67-.73,1.6-1.11,2.74-1.11,1.04,0,1.85.34,2.45.99.59.67.9,1.57.9,2.7Z"/>
  <path class="cls-5" d="M299.63,158.84c-.14-.08-.29-.14-.46-.18-.17-.03-.35-.06-.55-.06-.71,0-1.26.24-1.64.7-.39.46-.57,1.12-.57,1.99v4.03h-1.26v-7.66h1.26v1.19c.25-.46.6-.81,1.02-1.04s.94-.34,1.55-.34c.08,0,.18.01.29.01.1.01.21.03.35.06v1.29Z"/>
  <path class="cls-5" d="M300.75,154.69h1.09c.67,1.08,1.19,2.13,1.53,3.16.34,1.04.52,2.06.52,3.07s-.18,2.04-.52,3.08c-.34,1.04-.85,2.07-1.53,3.15h-1.09c.6-1.05,1.05-2.07,1.36-3.11.29-1.02.45-2.06.45-3.12s-.15-2.09-.45-3.11c-.31-1.02-.76-2.06-1.36-3.12Z"/>
  <polyline class="cls-21" points="158.12 180.97 172.12 180.97 186.12 180.97"/>
  <rect class="cls-23" x="169.12" y="177.97" width="6" height="6"/>
  <polygon class="cls-5" points="198.69 175.66 200.08 175.66 200.08 184.7 205.05 184.7 205.05 185.87 198.69 185.87 198.69 175.66"/>
  <polygon class="cls-5" points="206.49 175.66 212.36 175.66 212.36 176.82 207.88 176.82 207.88 179.83 211.92 179.83 211.92 180.99 207.88 180.99 207.88 185.87 206.49 185.87 206.49 175.66"/>
  <path class="cls-5" d="M214.39,175.66h1.39v6.2c0,1.09.2,1.89.59,2.37s1.04.71,1.93.71,1.53-.24,1.92-.71c.39-.48.6-1.27.6-2.37v-6.2h1.39v6.37c0,1.34-.34,2.34-.99,3.01-.66.67-1.62,1.01-2.91,1.01s-2.27-.34-2.93-1.01-.98-1.67-.98-3.01v-6.37Z"/>
  <path class="cls-5" d="M232.21,175.24c-.62,1.06-1.06,2.1-1.36,3.12-.31,1.02-.45,2.06-.45,3.11s.14,2.1.45,3.12c.29,1.04.74,2.06,1.36,3.11h-1.09c-.69-1.08-1.2-2.11-1.54-3.15-.34-1.04-.5-2.06-.5-3.08s.17-2.03.5-3.07c.34-1.04.84-2.09,1.54-3.16h1.09Z"/>
  <path class="cls-5" d="M239.53,178.43v1.19c-.36-.17-.73-.31-1.11-.41-.39-.08-.78-.14-1.19-.14-.63,0-1.11.1-1.41.29s-.46.48-.46.85c0,.29.11.52.34.69s.67.34,1.34.48l.43.1c.9.2,1.53.48,1.9.81.36.35.56.84.56,1.46,0,.71-.28,1.27-.84,1.68-.56.42-1.34.62-2.32.62-.42,0-.84-.04-1.29-.11-.45-.07-.91-.18-1.4-.35v-1.3c.46.25.92.43,1.37.55.45.13.9.18,1.34.18.59,0,1.05-.1,1.37-.29.31-.2.48-.49.48-.87,0-.34-.13-.6-.35-.78-.22-.18-.73-.36-1.51-.53l-.43-.1c-.78-.17-1.36-.42-1.69-.76-.35-.34-.52-.8-.52-1.4,0-.71.25-1.27.76-1.67.5-.39,1.23-.59,2.18-.59.46,0,.9.04,1.32.11.41.07.78.17,1.13.29Z"/>
  <path class="cls-5" d="M241.94,175.23h1.26v1.6h-1.26v-1.6ZM241.94,178.21h1.26v7.66h-1.26v-7.66Z"/>
  <path class="cls-5" d="M252.2,181.25v4.62h-1.26v-4.58c0-.73-.15-1.26-.43-1.62s-.7-.55-1.26-.55c-.69,0-1.22.22-1.61.66-.39.43-.59,1.02-.59,1.76v4.33h-1.26v-7.66h1.26v1.19c.29-.45.64-.8,1.06-1.02.41-.22.88-.35,1.41-.35.87,0,1.54.28,1.99.83.45.55.69,1.34.69,2.39Z"/>
  <path class="cls-5" d="M261.01,184.91c0,1.29-.29,2.25-.87,2.9-.59.63-1.47.95-2.66.95-.45,0-.85-.04-1.25-.1-.39-.07-.78-.17-1.15-.31v-1.22c.36.2.73.34,1.09.43.36.1.73.15,1.11.15.81,0,1.43-.22,1.85-.64.41-.43.62-1.08.62-1.95v-.62c-.27.45-.6.78-1.01,1.01s-.88.34-1.44.34c-.95,0-1.71-.35-2.28-1.06-.57-.71-.85-1.67-.85-2.86s.28-2.13.85-2.84c.57-.71,1.33-1.08,2.28-1.08.56,0,1.04.11,1.44.34s.74.56,1.01,1.01v-1.16h1.26v6.71ZM259.75,181.95c0-.9-.2-1.61-.56-2.11-.38-.5-.91-.76-1.58-.76s-1.2.25-1.58.76c-.38.5-.56,1.22-.56,2.11s.18,1.61.56,2.11c.38.5.91.76,1.58.76s1.2-.25,1.58-.76c.36-.5.56-1.2.56-2.11Z"/>
  <rect class="cls-5" x="263.6" y="175.23" width="1.26" height="10.64"/>
  <path class="cls-5" d="M272.78,181.36c-.01-.69-.21-1.23-.57-1.65-.38-.41-.88-.62-1.5-.62-.7,0-1.26.21-1.68.6-.42.39-.67.95-.73,1.67h4.48ZM274.04,181.72v.62h-5.78c.06.87.31,1.54.78,1.99.46.45,1.11.67,1.95.67.48,0,.95-.06,1.4-.17s.91-.29,1.36-.55v1.19c-.45.2-.91.35-1.39.43-.48.08-.97.14-1.44.14-1.23,0-2.2-.35-2.91-1.05-.71-.7-1.06-1.67-1.06-2.88s.34-2.24,1.01-2.98c.67-.73,1.6-1.11,2.74-1.11,1.04,0,1.85.34,2.45.99.59.67.9,1.57.9,2.7Z"/>
  <rect class="cls-5" x="275.47" y="181.47" width="3.68" height="1.12"/>
  <path class="cls-5" d="M282.4,176.04v2.17h2.59v.98h-2.59v4.16c0,.63.08,1.04.25,1.2.17.18.52.27,1.05.27h1.29v1.05h-1.29c-.98,0-1.65-.18-2.02-.55-.36-.36-.55-1.02-.55-1.97v-4.16h-.92v-.98h.92v-2.17h1.26Z"/>
  <path class="cls-5" d="M286.64,175.23h1.26v1.6h-1.26v-1.6ZM286.64,178.21h1.26v7.66h-1.26v-7.66Z"/>
  <path class="cls-5" d="M295.83,181.36c-.01-.69-.21-1.23-.57-1.65-.38-.41-.88-.62-1.5-.62-.7,0-1.26.21-1.68.6-.42.39-.67.95-.73,1.67h4.48ZM297.09,181.72v.62h-5.78c.06.87.31,1.54.78,1.99.46.45,1.11.67,1.95.67.48,0,.95-.06,1.4-.17s.91-.29,1.36-.55v1.19c-.45.2-.91.35-1.39.43-.48.08-.97.14-1.44.14-1.23,0-2.2-.35-2.91-1.05-.71-.7-1.06-1.67-1.06-2.88s.34-2.24,1.01-2.98c.67-.73,1.6-1.11,2.74-1.11,1.04,0,1.85.34,2.45.99.59.67.9,1.57.9,2.7Z"/>
  <path class="cls-5" d="M303.58,179.38c-.14-.08-.29-.14-.46-.18-.17-.03-.35-.06-.55-.06-.71,0-1.26.24-1.64.7-.39.46-.57,1.12-.57,1.99v4.03h-1.26v-7.66h1.26v1.19c.25-.46.6-.81,1.02-1.04s.94-.34,1.55-.34c.08,0,.18.01.29.01.1.01.21.03.35.06v1.29Z"/>
  <path class="cls-5" d="M304.7,175.24h1.09c.67,1.08,1.19,2.13,1.53,3.16.34,1.04.52,2.06.52,3.07s-.18,2.04-.52,3.08c-.34,1.04-.85,2.07-1.53,3.15h-1.09c.6-1.05,1.05-2.07,1.36-3.11.29-1.02.45-2.06.45-3.12s-.15-2.09-.45-3.11c-.31-1.02-.76-2.06-1.36-3.12Z"/>
</svg>