<?xml version="1.0" encoding="UTF-8"?>
<svg id="Layer_1" data-name="Layer 1" xmlns="http://www.w3.org/2000/svg" version="1.1" xmlns:xlink="http://www.w3.org/1999/xlink" viewBox="0 0 419.1 340.19">
  <defs>
    <style>
      .cls-1, .cls-2, .cls-3, .cls-4, .cls-5, .cls-6, .cls-7, .cls-8, .cls-9, .cls-10, .cls-11, .cls-12, .cls-13, .cls-14, .cls-15, .cls-16, .cls-17, .cls-18, .cls-19, .cls-20, .cls-21, .cls-22, .cls-23, .cls-24, .cls-25, .cls-26, .cls-27 {
        fill: none;
      }

      .cls-1, .cls-3, .cls-4, .cls-5, .cls-8, .cls-9, .cls-10, .cls-11, .cls-13, .cls-14, .cls-15, .cls-16, .cls-18, .cls-19, .cls-22, .cls-24, .cls-25, .cls-26 {
        stroke-linejoin: round;
      }

      .cls-1, .cls-4, .cls-8, .cls-9, .cls-11, .cls-13, .cls-14, .cls-15, .cls-18, .cls-19, .cls-24, .cls-25 {
        stroke-width: 1.5px;
      }

      .cls-1, .cls-4, .cls-8, .cls-11, .cls-14, .cls-25 {
        stroke-dasharray: 0 0 5.55 2.4;
      }

      .cls-1, .cls-17, .cls-18, .cls-26 {
        stroke: #000;
      }

      .cls-28 {
        clip-path: url(#clippath-73);
      }

      .cls-29 {
        clip-path: url(#clippath-72);
      }

      .cls-30 {
        clip-path: url(#clippath-62);
      }

      .cls-31 {
        clip-path: url(#clippath-45);
      }

      .cls-32 {
        clip-path: url(#clippath-63);
      }

      .cls-33 {
        clip-path: url(#clippath-20);
      }

      .cls-34 {
        clip-path: url(#clippath-11);
      }

      .cls-35 {
        clip-path: url(#clippath-16);
      }

      .cls-2, .cls-7, .cls-12, .cls-17, .cls-20, .cls-21, .cls-23, .cls-27 {
        stroke-miterlimit: 10;
      }

      .cls-2, .cls-7, .cls-19, .cls-25 {
        stroke: #bf00bf;
      }

      .cls-36 {
        clip-path: url(#clippath-59);
      }

      .cls-37 {
        clip-path: url(#clippath-78);
      }

      .cls-38 {
        clip-path: url(#clippath-33);
      }

      .cls-39 {
        fill: #000;
      }

      .cls-39, .cls-6, .cls-40, .cls-41 {
        stroke-width: 0px;
      }

      .cls-42 {
        clip-path: url(#clippath-64);
      }

      .cls-43 {
        clip-path: url(#clippath-47);
      }

      .cls-44 {
        clip-path: url(#clippath-77);
      }

      .cls-3, .cls-4, .cls-5, .cls-15 {
        stroke: #bfbf00;
      }

      .cls-45 {
        clip-path: url(#clippath-41);
      }

      .cls-46 {
        clip-path: url(#clippath-32);
      }

      .cls-47 {
        clip-path: url(#clippath-83);
      }

      .cls-48 {
        clip-path: url(#clippath-2);
      }

      .cls-49 {
        clip-path: url(#clippath-13);
      }

      .cls-50 {
        clip-path: url(#clippath-37);
      }

      .cls-51 {
        clip-path: url(#clippath-46);
      }

      .cls-52 {
        clip-path: url(#clippath-25);
      }

      .cls-53 {
        clip-path: url(#clippath-15);
      }

      .cls-54 {
        clip-path: url(#clippath-6);
      }

      .cls-55 {
        clip-path: url(#clippath-76);
      }

      .cls-56 {
        clip-path: url(#clippath-40);
      }

      .cls-57 {
        clip-path: url(#clippath-26);
      }

      .cls-58 {
        clip-path: url(#clippath-81);
      }

      .cls-5, .cls-7, .cls-16, .cls-23, .cls-27 {
        stroke-width: 2px;
      }

      .cls-59 {
        clip-path: url(#clippath-75);
      }

      .cls-60 {
        clip-path: url(#clippath-7);
      }

      .cls-61 {
        clip-path: url(#clippath-21);
      }

      .cls-8, .cls-13, .cls-21, .cls-23 {
        stroke: red;
      }

      .cls-62 {
        clip-path: url(#clippath-34);
      }

      .cls-63 {
        clip-path: url(#clippath-57);
      }

      .cls-64 {
        clip-path: url(#clippath-1);
      }

      .cls-65 {
        clip-path: url(#clippath-4);
      }

      .cls-66 {
        clip-path: url(#clippath-38);
      }

      .cls-9, .cls-10, .cls-11, .cls-16 {
        stroke: green;
      }

      .cls-9, .cls-13, .cls-15, .cls-17, .cls-18, .cls-19, .cls-24 {
        stroke-linecap: square;
      }

      .cls-67 {
        clip-path: url(#clippath-36);
      }

      .cls-68 {
        clip-path: url(#clippath-27);
      }

      .cls-69 {
        clip-path: url(#clippath-60);
      }

      .cls-40, .cls-12 {
        opacity: .8;
      }

      .cls-40, .cls-41 {
        fill: #fff;
      }

      .cls-70 {
        clip-path: url(#clippath-44);
      }

      .cls-71 {
        clip-path: url(#clippath-12);
      }

      .cls-72 {
        clip-path: url(#clippath-80);
      }

      .cls-12 {
        stroke: #ccc;
      }

      .cls-73 {
        clip-path: url(#clippath-24);
      }

      .cls-74 {
        clip-path: url(#clippath-30);
      }

      .cls-14, .cls-20, .cls-24, .cls-27 {
        stroke: blue;
      }

      .cls-75 {
        clip-path: url(#clippath-79);
      }

      .cls-76 {
        clip-path: url(#clippath-22);
      }

      .cls-77 {
        clip-path: url(#clippath-9);
      }

      .cls-78 {
        clip-path: url(#clippath-82);
      }

      .cls-79 {
        clip-path: url(#clippath-52);
      }

      .cls-80 {
        clip-path: url(#clippath);
      }

      .cls-81 {
        clip-path: url(#clippath-50);
      }

      .cls-82 {
        clip-path: url(#clippath-48);
      }

      .cls-83 {
        clip-path: url(#clippath-61);
      }

      .cls-84 {
        clip-path: url(#clippath-39);
      }

      .cls-85 {
        clip-path: url(#clippath-19);
      }

      .cls-86 {
        clip-path: url(#clippath-31);
      }

      .cls-87 {
        clip-path: url(#clippath-54);
      }

      .cls-88 {
        clip-path: url(#clippath-3);
      }

      .cls-17, .cls-22, .cls-26 {
        stroke-width: .8px;
      }

      .cls-89 {
        clip-path: url(#clippath-43);
      }

      .cls-90 {
        clip-path: url(#clippath-70);
      }

      .cls-91 {
        clip-path: url(#clippath-8);
      }

      .cls-92 {
        clip-path: url(#clippath-55);
      }

      .cls-93 {
        clip-path: url(#clippath-69);
      }

      .cls-94 {
        clip-path: url(#clippath-29);
      }

      .cls-95 {
        clip-path: url(#clippath-18);
      }

      .cls-96 {
        clip-path: url(#clippath-14);
      }

      .cls-97 {
        clip-path: url(#clippath-17);
      }

      .cls-98 {
        clip-path: url(#clippath-5);
      }

      .cls-99 {
        clip-path: url(#clippath-58);
      }

      .cls-100 {
        clip-path: url(#clippath-84);
      }

      .cls-22 {
        opacity: .5;
        stroke: #b0b0b0;
        stroke-dasharray: 0 0 2.96 1.28;
      }

      .cls-101 {
        clip-path: url(#clippath-42);
      }

      .cls-102 {
        clip-path: url(#clippath-65);
      }

      .cls-103 {
        clip-path: url(#clippath-10);
      }

      .cls-104 {
        clip-path: url(#clippath-23);
      }

      .cls-105 {
        clip-path: url(#clippath-74);
      }

      .cls-106 {
        clip-path: url(#clippath-56);
      }

      .cls-107 {
        clip-path: url(#clippath-53);
      }

      .cls-108 {
        clip-path: url(#clippath-49);
      }

      .cls-109 {
        clip-path: url(#clippath-67);
      }

      .cls-110 {
        clip-path: url(#clippath-51);
      }

      .cls-111 {
        clip-path: url(#clippath-28);
      }

      .cls-112 {
        clip-path: url(#clippath-71);
      }

      .cls-113 {
        clip-path: url(#clippath-68);
      }

      .cls-114 {
        clip-path: url(#clippath-35);
      }

      .cls-115 {
        clip-path: url(#clippath-66);
      }
    </style>
    <clipPath id="clippath">
      <rect class="cls-6" x="39.72" y="19.12" width="372.19" height="277.2"/>
    </clipPath>
    <clipPath id="clippath-1">
      <rect class="cls-6" x="39.72" y="19.12" width="372.19" height="277.2"/>
    </clipPath>
    <clipPath id="clippath-2">
      <rect class="cls-6" x="39.72" y="19.12" width="372.19" height="277.2"/>
    </clipPath>
    <clipPath id="clippath-3">
      <rect class="cls-6" x="39.72" y="19.12" width="372.19" height="277.2"/>
    </clipPath>
    <clipPath id="clippath-4">
      <rect class="cls-6" x="39.72" y="19.12" width="372.19" height="277.2"/>
    </clipPath>
    <clipPath id="clippath-5">
      <rect class="cls-6" x="39.72" y="19.12" width="372.19" height="277.2"/>
    </clipPath>
    <clipPath id="clippath-6">
      <rect class="cls-6" x="288.37" y="309.89" width="42.22" height="25.44"/>
    </clipPath>
    <clipPath id="clippath-7">
      <rect class="cls-6" x="39.72" y="19.12" width="372.19" height="277.2"/>
    </clipPath>
    <clipPath id="clippath-8">
      <rect class="cls-6" x="39.72" y="19.12" width="372.19" height="277.2"/>
    </clipPath>
    <clipPath id="clippath-9">
      <rect class="cls-6" x="39.72" y="19.12" width="372.19" height="277.2"/>
    </clipPath>
    <clipPath id="clippath-10">
      <rect class="cls-6" x="39.72" y="19.12" width="372.19" height="277.2"/>
    </clipPath>
    <clipPath id="clippath-11">
      <rect class="cls-6" x="39.72" y="19.12" width="372.19" height="277.2"/>
    </clipPath>
    <clipPath id="clippath-12">
      <rect class="cls-6" x="39.72" y="19.12" width="372.19" height="277.2"/>
    </clipPath>
    <clipPath id="clippath-13">
      <rect class="cls-6" x="39.72" y="19.12" width="372.19" height="277.2"/>
    </clipPath>
    <clipPath id="clippath-14">
      <rect class="cls-6" x="39.72" y="19.12" width="372.19" height="277.2"/>
    </clipPath>
    <clipPath id="clippath-15">
      <rect class="cls-6" x="39.72" y="19.12" width="372.19" height="277.2"/>
    </clipPath>
    <clipPath id="clippath-16">
      <rect class="cls-6" x="48.63" y="196.05" width="16" height="16"/>
    </clipPath>
    <clipPath id="clippath-17">
      <rect class="cls-6" x="116.3" y="224.4" width="16" height="16"/>
    </clipPath>
    <clipPath id="clippath-18">
      <rect class="cls-6" x="183.97" y="227.55" width="16" height="16"/>
    </clipPath>
    <clipPath id="clippath-19">
      <rect class="cls-6" x="251.64" y="228.61" width="16" height="16"/>
    </clipPath>
    <clipPath id="clippath-20">
      <rect class="cls-6" x="319.31" y="228.96" width="16" height="16"/>
    </clipPath>
    <clipPath id="clippath-21">
      <rect class="cls-6" x="386.98" y="229.28" width="16" height="16"/>
    </clipPath>
    <clipPath id="clippath-22">
      <rect class="cls-6" x="39.72" y="19.12" width="372.19" height="277.2"/>
    </clipPath>
    <clipPath id="clippath-23">
      <rect class="cls-6" x="48.63" y="275.72" width="16" height="16"/>
    </clipPath>
    <clipPath id="clippath-24">
      <rect class="cls-6" x="116.3" y="177.69" width="16" height="16"/>
    </clipPath>
    <clipPath id="clippath-25">
      <rect class="cls-6" x="183.97" y="143.69" width="16" height="16"/>
    </clipPath>
    <clipPath id="clippath-26">
      <rect class="cls-6" x="251.64" y="124" width="16" height="16"/>
    </clipPath>
    <clipPath id="clippath-27">
      <rect class="cls-6" x="319.31" y="107.91" width="16" height="16"/>
    </clipPath>
    <clipPath id="clippath-28">
      <rect class="cls-6" x="386.98" y="93.74" width="16" height="16"/>
    </clipPath>
    <clipPath id="clippath-29">
      <rect class="cls-6" x="39.72" y="19.12" width="372.19" height="277.2"/>
    </clipPath>
    <clipPath id="clippath-30">
      <rect class="cls-6" x="48.63" y="185.14" width="16" height="16"/>
    </clipPath>
    <clipPath id="clippath-31">
      <rect class="cls-6" x="116.3" y="224.95" width="16" height="16"/>
    </clipPath>
    <clipPath id="clippath-32">
      <rect class="cls-6" x="183.97" y="229.01" width="16" height="16"/>
    </clipPath>
    <clipPath id="clippath-33">
      <rect class="cls-6" x="251.64" y="229.65" width="16" height="16"/>
    </clipPath>
    <clipPath id="clippath-34">
      <rect class="cls-6" x="319.31" y="229.89" width="16" height="16"/>
    </clipPath>
    <clipPath id="clippath-35">
      <rect class="cls-6" x="386.98" y="230.29" width="16" height="16"/>
    </clipPath>
    <clipPath id="clippath-36">
      <rect class="cls-6" x="39.72" y="19.12" width="372.19" height="277.2"/>
    </clipPath>
    <clipPath id="clippath-37">
      <rect class="cls-6" x="48.63" y="275.72" width="16" height="16"/>
    </clipPath>
    <clipPath id="clippath-38">
      <rect class="cls-6" x="116.3" y="145.9" width="16" height="16"/>
    </clipPath>
    <clipPath id="clippath-39">
      <rect class="cls-6" x="183.97" y="104.31" width="16" height="16"/>
    </clipPath>
    <clipPath id="clippath-40">
      <rect class="cls-6" x="251.64" y="77.21" width="16" height="16"/>
    </clipPath>
    <clipPath id="clippath-41">
      <rect class="cls-6" x="319.31" y="56.09" width="16" height="16"/>
    </clipPath>
    <clipPath id="clippath-42">
      <rect class="cls-6" x="386.98" y="38.41" width="16" height="16"/>
    </clipPath>
    <clipPath id="clippath-43">
      <rect class="cls-6" x="39.72" y="19.12" width="372.19" height="277.2"/>
    </clipPath>
    <clipPath id="clippath-44">
      <rect class="cls-6" x="48.63" y="219.13" width="16" height="16"/>
    </clipPath>
    <clipPath id="clippath-45">
      <rect class="cls-6" x="116.3" y="258.04" width="16" height="16"/>
    </clipPath>
    <clipPath id="clippath-46">
      <rect class="cls-6" x="183.97" y="263.53" width="16" height="16"/>
    </clipPath>
    <clipPath id="clippath-47">
      <rect class="cls-6" x="251.64" y="265.47" width="16" height="16"/>
    </clipPath>
    <clipPath id="clippath-48">
      <rect class="cls-6" x="319.31" y="267.06" width="16" height="16"/>
    </clipPath>
    <clipPath id="clippath-49">
      <rect class="cls-6" x="386.98" y="267.9" width="16" height="16"/>
    </clipPath>
    <clipPath id="clippath-50">
      <rect class="cls-6" x="39.72" y="19.12" width="372.19" height="277.2"/>
    </clipPath>
    <clipPath id="clippath-51">
      <rect class="cls-6" x="48.63" y="275.72" width="16" height="16"/>
    </clipPath>
    <clipPath id="clippath-52">
      <rect class="cls-6" x="116.3" y="151.68" width="16" height="16"/>
    </clipPath>
    <clipPath id="clippath-53">
      <rect class="cls-6" x="183.97" y="103.13" width="16" height="16"/>
    </clipPath>
    <clipPath id="clippath-54">
      <rect class="cls-6" x="251.64" y="70.42" width="16" height="16"/>
    </clipPath>
    <clipPath id="clippath-55">
      <rect class="cls-6" x="319.31" y="43.48" width="16" height="16"/>
    </clipPath>
    <clipPath id="clippath-56">
      <rect class="cls-6" x="386.98" y="23.72" width="16" height="16"/>
    </clipPath>
    <clipPath id="clippath-57">
      <rect class="cls-6" x="39.72" y="19.12" width="372.19" height="277.2"/>
    </clipPath>
    <clipPath id="clippath-58">
      <rect class="cls-6" x="49.09" y="241.48" width="15.09" height="18.49"/>
    </clipPath>
    <clipPath id="clippath-59">
      <rect class="cls-6" x="116.76" y="255.09" width="15.09" height="18.49"/>
    </clipPath>
    <clipPath id="clippath-60">
      <rect class="cls-6" x="184.43" y="258.62" width="15.09" height="18.49"/>
    </clipPath>
    <clipPath id="clippath-61">
      <rect class="cls-6" x="252.1" y="259.7" width="15.09" height="18.49"/>
    </clipPath>
    <clipPath id="clippath-62">
      <rect class="cls-6" x="319.77" y="261.06" width="15.09" height="18.49"/>
    </clipPath>
    <clipPath id="clippath-63">
      <rect class="cls-6" x="387.44" y="262.48" width="15.09" height="18.49"/>
    </clipPath>
    <clipPath id="clippath-64">
      <rect class="cls-6" x="39.72" y="19.12" width="372.19" height="277.2"/>
    </clipPath>
    <clipPath id="clippath-65">
      <rect class="cls-6" x="49.09" y="274.48" width="15.09" height="18.49"/>
    </clipPath>
    <clipPath id="clippath-66">
      <rect class="cls-6" x="116.76" y="190.21" width="15.09" height="18.49"/>
    </clipPath>
    <clipPath id="clippath-67">
      <rect class="cls-6" x="184.43" y="150.72" width="15.09" height="18.49"/>
    </clipPath>
    <clipPath id="clippath-68">
      <rect class="cls-6" x="252.1" y="125.14" width="15.09" height="18.49"/>
    </clipPath>
    <clipPath id="clippath-69">
      <rect class="cls-6" x="319.77" y="102.66" width="15.09" height="18.49"/>
    </clipPath>
    <clipPath id="clippath-70">
      <rect class="cls-6" x="387.44" y="80.17" width="15.09" height="18.49"/>
    </clipPath>
    <clipPath id="clippath-71">
      <rect class="cls-6" x="39.72" y="19.12" width="372.19" height="277.2"/>
    </clipPath>
    <clipPath id="clippath-72">
      <rect class="cls-6" x="48.63" y="242.83" width="16" height="16"/>
    </clipPath>
    <clipPath id="clippath-73">
      <rect class="cls-6" x="116.3" y="258.35" width="16" height="16"/>
    </clipPath>
    <clipPath id="clippath-74">
      <rect class="cls-6" x="183.97" y="261.87" width="16" height="16"/>
    </clipPath>
    <clipPath id="clippath-75">
      <rect class="cls-6" x="251.64" y="263.95" width="16" height="16"/>
    </clipPath>
    <clipPath id="clippath-76">
      <rect class="cls-6" x="319.31" y="265.62" width="16" height="16"/>
    </clipPath>
    <clipPath id="clippath-77">
      <rect class="cls-6" x="386.98" y="266.72" width="16" height="16"/>
    </clipPath>
    <clipPath id="clippath-78">
      <rect class="cls-6" x="39.72" y="19.12" width="372.19" height="277.2"/>
    </clipPath>
    <clipPath id="clippath-79">
      <rect class="cls-6" x="48.63" y="275.72" width="16" height="16"/>
    </clipPath>
    <clipPath id="clippath-80">
      <rect class="cls-6" x="116.3" y="185.49" width="16" height="16"/>
    </clipPath>
    <clipPath id="clippath-81">
      <rect class="cls-6" x="183.97" y="139.21" width="16" height="16"/>
    </clipPath>
    <clipPath id="clippath-82">
      <rect class="cls-6" x="251.64" y="106.01" width="16" height="16"/>
    </clipPath>
    <clipPath id="clippath-83">
      <rect class="cls-6" x="319.31" y="78.79" width="16" height="16"/>
    </clipPath>
    <clipPath id="clippath-84">
      <rect class="cls-6" x="386.98" y="56.25" width="16" height="16"/>
    </clipPath>
  </defs>
  <rect class="cls-41" width="419.1" height="340.19"/>
  <rect class="cls-41" x="39.72" y="19.12" width="372.19" height="277.2"/>
  <g class="cls-80">
    <line class="cls-22" x1="56.63" y1="296.32" x2="56.63" y2="19.12"/>
  </g>
  <line class="cls-39" x1="56.63" y1="296.32" x2="56.63" y2="299.82"/>
  <line class="cls-26" x1="56.63" y1="296.32" x2="56.63" y2="299.82"/>
  <path class="cls-39" d="M56.63,303.5c.81,0,1.43.33,1.87.97.43.65.65,1.59.65,2.81s-.22,2.17-.65,2.81c-.44.64-1.06.96-1.88.96s-1.44-.32-1.87-.96-.64-1.58-.64-2.81.21-2.16.64-2.81c.43-.64,1.06-.97,1.88-.97ZM56.63,304.28c-.51,0-.89.25-1.15.75-.26.5-.38,1.25-.38,2.25s.12,1.75.38,2.25c.26.5.64.75,1.15.75s.89-.25,1.15-.75c.25-.5.38-1.25.38-2.25s-.13-1.75-.38-2.25c-.26-.5-.64-.75-1.15-.75Z"/>
  <g class="cls-64">
    <line class="cls-22" x1="124.3" y1="296.32" x2="124.3" y2="19.12"/>
  </g>
  <line class="cls-39" x1="124.3" y1="296.32" x2="124.3" y2="299.82"/>
  <line class="cls-26" x1="124.3" y1="296.32" x2="124.3" y2="299.82"/>
  <polygon class="cls-39" points="122.36 310.09 123.97 310.09 123.97 304.53 122.22 304.88 122.22 303.98 123.96 303.63 124.95 303.63 124.95 310.09 126.56 310.09 126.56 310.92 122.36 310.92 122.36 310.09"/>
  <g class="cls-48">
    <line class="cls-22" x1="191.97" y1="296.32" x2="191.97" y2="19.12"/>
  </g>
  <line class="cls-39" x1="191.97" y1="296.32" x2="191.97" y2="299.82"/>
  <line class="cls-26" x1="191.97" y1="296.32" x2="191.97" y2="299.82"/>
  <path class="cls-39" d="M190.71,310.09h3.44v.83h-4.63v-.83c.37-.38.88-.9,1.53-1.56.64-.65,1.05-1.07,1.22-1.26.32-.35.54-.65.66-.9.12-.24.19-.49.19-.73,0-.38-.14-.7-.41-.94-.27-.24-.62-.37-1.06-.37-.31,0-.64.06-.98.16-.34.11-.71.27-1.1.49v-1c.4-.16.77-.28,1.11-.36.34-.08.66-.12.95-.12.75,0,1.35.19,1.8.57.45.38.68.88.68,1.51,0,.3-.06.59-.17.85-.11.27-.31.59-.61.95-.08.1-.34.37-.78.82-.44.45-1.05,1.08-1.84,1.89Z"/>
  <g class="cls-88">
    <line class="cls-22" x1="259.64" y1="296.32" x2="259.64" y2="19.12"/>
  </g>
  <line class="cls-39" x1="259.64" y1="296.32" x2="259.64" y2="299.82"/>
  <line class="cls-26" x1="259.64" y1="296.32" x2="259.64" y2="299.82"/>
  <path class="cls-39" d="M260.52,306.99c.47.1.84.31,1.1.63s.4.72.4,1.18c0,.72-.25,1.28-.74,1.67-.5.39-1.2.58-2.11.58-.31,0-.63-.03-.95-.09-.32-.05-.66-.14-1-.26v-.95c.27.16.57.28.9.36.32.08.66.12,1.02.12.62,0,1.09-.12,1.41-.36.32-.24.49-.6.49-1.07,0-.42-.15-.76-.45-1-.3-.24-.72-.37-1.26-.37h-.85v-.81h.89c.48,0,.85-.09,1.11-.29.26-.19.39-.47.39-.84s-.14-.66-.4-.86c-.27-.2-.65-.3-1.14-.3-.27,0-.56.03-.87.09s-.65.15-1.02.27v-.88c.37-.1.72-.18,1.05-.23.32-.05.63-.08.93-.08.74,0,1.33.17,1.77.51s.66.8.66,1.38c0,.4-.12.74-.35,1.02-.23.28-.56.48-.98.58Z"/>
  <g class="cls-65">
    <line class="cls-22" x1="327.31" y1="296.32" x2="327.31" y2="19.12"/>
  </g>
  <line class="cls-39" x1="327.31" y1="296.32" x2="327.31" y2="299.82"/>
  <line class="cls-26" x1="327.31" y1="296.32" x2="327.31" y2="299.82"/>
  <path class="cls-39" d="M327.65,303.63h1.24v4.75h1.04v.82h-1.04v1.72h-.98v-1.72h-3.29v-.95l3.03-4.62ZM327.91,304.49l-2.49,3.89h2.49v-3.89Z"/>
  <g class="cls-98">
    <line class="cls-22" x1="394.98" y1="296.32" x2="394.98" y2="19.12"/>
  </g>
  <line class="cls-39" x1="394.98" y1="296.32" x2="394.98" y2="299.82"/>
  <line class="cls-26" x1="394.98" y1="296.32" x2="394.98" y2="299.82"/>
  <path class="cls-39" d="M392.88,303.63h3.87v.83h-2.97v1.79c.14-.05.29-.09.43-.11.14-.02.29-.04.43-.04.81,0,1.45.23,1.93.67.48.45.72,1.05.72,1.81s-.25,1.4-.74,1.83-1.18.64-2.06.64c-.31,0-.62-.03-.94-.07-.32-.05-.64-.12-.98-.23v-.99c.29.16.59.28.91.36.31.08.64.11.99.11.56,0,1.01-.14,1.34-.44.32-.3.49-.7.49-1.21s-.17-.9-.49-1.2c-.33-.3-.78-.45-1.34-.45-.26,0-.53.03-.79.09-.26.06-.53.15-.8.27v-3.66Z"/>
  <path class="cls-39" d="M133.1,317.45h1.68l4.17,10.94h-1.54l-.99-2.81h-4.93l-.99,2.81h-1.56l4.17-10.94ZM133.94,318.9l-2.01,5.44h4.02l-2.01-5.44Z"/>
  <path class="cls-39" d="M141.29,324.29c0,.99.19,1.77.6,2.34.4.57.96.84,1.68.84s1.27-.27,1.7-.84c.4-.57.61-1.35.61-2.34s-.21-1.75-.61-2.32c-.42-.57-.98-.86-1.7-.86s-1.27.28-1.68.86c-.41.57-.6,1.33-.6,2.32ZM145.88,321.42v-4.44h1.35v11.4h-1.35v-1.23c-.29.5-.65.86-1.08,1.08-.43.22-.94.34-1.54.34-.99,0-1.8-.39-2.43-1.17-.63-.78-.93-1.83-.93-3.12s.3-2.32.93-3.12c.63-.78,1.44-1.18,2.43-1.18.6,0,1.11.12,1.54.36s.79.6,1.08,1.08Z"/>
  <path class="cls-39" d="M150.81,324.29c0,.99.19,1.77.6,2.34.4.57.96.84,1.68.84s1.27-.27,1.7-.84c.4-.57.61-1.35.61-2.34s-.21-1.75-.61-2.32c-.42-.57-.98-.86-1.7-.86s-1.27.28-1.68.86c-.41.57-.6,1.33-.6,2.32ZM155.4,321.42v-4.44h1.35v11.4h-1.35v-1.23c-.29.5-.65.86-1.08,1.08-.43.22-.94.34-1.54.34-.99,0-1.8-.39-2.43-1.17-.63-.78-.93-1.83-.93-3.12s.3-2.32.93-3.12c.63-.78,1.44-1.18,2.43-1.18.6,0,1.11.12,1.54.36s.79.6,1.08,1.08Z"/>
  <path class="cls-39" d="M165.19,323.55c-.01-.73-.23-1.32-.62-1.77-.4-.44-.94-.66-1.6-.66-.75,0-1.35.22-1.8.64s-.72,1.02-.78,1.78h4.8ZM166.54,323.94v.66h-6.19c.06.93.33,1.65.84,2.13.5.48,1.18.72,2.09.72.51,0,1.02-.06,1.5-.18.48-.12.97-.32,1.46-.59v1.27c-.48.21-.98.38-1.49.47-.51.09-1.04.15-1.54.15-1.32,0-2.36-.38-3.12-1.12s-1.14-1.78-1.14-3.09.36-2.4,1.08-3.2c.72-.78,1.71-1.18,2.94-1.18,1.11,0,1.98.36,2.62,1.07.63.72.96,1.68.96,2.9Z"/>
  <path class="cls-39" d="M169.56,324.29c0,.99.19,1.77.6,2.34.4.57.96.84,1.68.84s1.27-.27,1.7-.84c.4-.57.61-1.35.61-2.34s-.21-1.75-.61-2.32c-.42-.57-.98-.86-1.7-.86s-1.27.28-1.68.86c-.41.57-.6,1.33-.6,2.32ZM174.15,321.42v-4.44h1.35v11.4h-1.35v-1.23c-.29.5-.65.86-1.08,1.08-.43.22-.94.34-1.54.34-.99,0-1.8-.39-2.43-1.17-.63-.78-.93-1.83-.93-3.12s.3-2.32.93-3.12c.63-.78,1.44-1.18,2.43-1.18.6,0,1.11.12,1.54.36s.79.6,1.08,1.08Z"/>
  <path class="cls-39" d="M188.95,320.49v1.26c-.39-.21-.77-.36-1.16-.47s-.76-.16-1.15-.16c-.87,0-1.56.28-2.04.84-.48.55-.72,1.33-.72,2.32s.24,1.78.72,2.34,1.17.82,2.04.82c.39,0,.76-.05,1.15-.15.39-.11.76-.27,1.16-.48v1.25c-.39.18-.78.31-1.17.39-.4.07-.84.12-1.29.12-1.23,0-2.22-.38-2.94-1.15-.74-.77-1.1-1.82-1.1-3.14s.36-2.39,1.1-3.15,1.74-1.16,3.03-1.16c.42,0,.82.05,1.21.14s.78.21,1.16.38Z"/>
  <path class="cls-39" d="M197.71,323.7v4.68h-1.35v-1.24c-.32.51-.71.87-1.15,1.1-.45.22-1.02.34-1.68.34-.84,0-1.51-.22-2.01-.69-.49-.47-.74-1.1-.74-1.89,0-.91.3-1.61.93-2.09.62-.47,1.53-.7,2.76-.7h1.89v-.14c0-.61-.21-1.09-.61-1.44-.4-.33-.98-.51-1.71-.51-.48,0-.93.06-1.38.18-.45.12-.87.29-1.27.5v-1.25c.48-.18.96-.33,1.43-.42s.91-.15,1.36-.15c1.19,0,2.07.32,2.66.93.58.61.88,1.55.88,2.79ZM195.02,324.26c-1.1,0-1.85.13-2.26.38-.42.26-.63.68-.63,1.27,0,.48.15.87.46,1.14.32.28.75.42,1.29.42.75,0,1.35-.26,1.8-.8.45-.52.68-1.23.68-2.11v-.3h-1.33Z"/>
  <path class="cls-39" d="M206.39,320.49v1.26c-.39-.21-.77-.36-1.16-.47s-.76-.16-1.15-.16c-.87,0-1.56.28-2.04.84-.48.55-.72,1.33-.72,2.32s.24,1.78.72,2.34,1.17.82,2.04.82c.39,0,.76-.05,1.15-.15.39-.11.76-.27,1.16-.48v1.25c-.39.18-.78.31-1.17.39-.4.07-.84.12-1.29.12-1.23,0-2.22-.38-2.94-1.15-.74-.77-1.1-1.82-1.1-3.14s.36-2.39,1.1-3.15,1.74-1.16,3.03-1.16c.42,0,.82.05,1.21.14s.78.21,1.16.38Z"/>
  <path class="cls-39" d="M215.55,323.43v4.95h-1.35v-4.9c0-.78-.16-1.35-.46-1.74-.3-.39-.75-.58-1.35-.58-.74,0-1.31.24-1.73.7s-.63,1.09-.63,1.89v4.63h-1.35v-11.4h1.35v4.47c.32-.48.69-.85,1.14-1.09.43-.24.95-.38,1.51-.38.93,0,1.65.3,2.13.89s.74,1.44.74,2.57Z"/>
  <path class="cls-39" d="M223.9,323.55c-.01-.73-.23-1.32-.62-1.77-.4-.44-.94-.66-1.6-.66-.75,0-1.35.22-1.8.64s-.72,1.02-.78,1.78h4.8ZM225.25,323.94v.66h-6.19c.06.93.33,1.65.84,2.13.5.48,1.18.72,2.09.72.51,0,1.02-.06,1.5-.18.48-.12.97-.32,1.46-.59v1.27c-.48.21-.98.38-1.49.47-.51.09-1.04.15-1.54.15-1.32,0-2.36-.38-3.12-1.12s-1.14-1.78-1.14-3.09.36-2.4,1.08-3.2c.72-.78,1.71-1.18,2.94-1.18,1.11,0,1.98.36,2.62,1.07.63.72.96,1.68.96,2.9Z"/>
  <path class="cls-39" d="M238.14,320.49v1.26c-.39-.21-.77-.36-1.16-.47s-.76-.16-1.15-.16c-.87,0-1.56.28-2.04.84-.48.55-.72,1.33-.72,2.32s.24,1.78.72,2.34,1.17.82,2.04.82c.39,0,.76-.05,1.15-.15.39-.11.76-.27,1.16-.48v1.25c-.39.18-.78.31-1.17.39-.4.07-.84.12-1.29.12-1.23,0-2.22-.38-2.94-1.15-.74-.77-1.1-1.82-1.1-3.14s.36-2.39,1.1-3.15,1.74-1.16,3.03-1.16c.42,0,.82.05,1.21.14s.78.21,1.16.38Z"/>
  <path class="cls-39" d="M246.9,323.7v4.68h-1.35v-1.24c-.32.51-.71.87-1.15,1.1-.45.22-1.02.34-1.68.34-.84,0-1.51-.22-2.01-.69-.49-.47-.74-1.1-.74-1.89,0-.91.3-1.61.93-2.09.62-.47,1.53-.7,2.76-.7h1.89v-.14c0-.61-.21-1.09-.61-1.44-.4-.33-.98-.51-1.71-.51-.48,0-.93.06-1.38.18-.45.12-.87.29-1.27.5v-1.25c.48-.18.96-.33,1.43-.42s.91-.15,1.36-.15c1.19,0,2.07.32,2.66.93.58.61.88,1.55.88,2.79ZM244.21,324.26c-1.1,0-1.85.13-2.26.38-.42.26-.63.68-.63,1.27,0,.48.15.87.46,1.14.32.28.75.42,1.29.42.75,0,1.35-.26,1.8-.8.45-.52.68-1.23.68-2.11v-.3h-1.33Z"/>
  <path class="cls-39" d="M255.56,324.29c0-.99-.21-1.75-.61-2.32-.42-.57-.98-.86-1.68-.86s-1.27.28-1.68.86c-.42.57-.62,1.33-.62,2.32s.2,1.77.62,2.34c.4.57.96.84,1.68.84s1.26-.27,1.68-.84c.4-.57.61-1.35.61-2.34ZM250.97,327.15v4.34h-1.35v-11.31h1.35v1.24c.27-.48.63-.84,1.07-1.08s.96-.36,1.56-.36c.99,0,1.8.41,2.43,1.18.62.8.93,1.83.93,3.12s-.32,2.34-.93,3.12c-.63.78-1.44,1.17-2.43,1.17-.6,0-1.12-.12-1.56-.34-.43-.23-.79-.59-1.07-1.08Z"/>
  <path class="cls-39" d="M265.61,323.7v4.68h-1.35v-1.24c-.32.51-.71.87-1.15,1.1-.45.22-1.02.34-1.68.34-.84,0-1.51-.22-2.01-.69s-.74-1.1-.74-1.89c0-.91.3-1.61.93-2.09.62-.47,1.53-.7,2.76-.7h1.89v-.14c0-.61-.21-1.09-.62-1.44-.4-.33-.97-.51-1.71-.51-.48,0-.93.06-1.38.18-.45.12-.87.29-1.27.5v-1.25c.48-.18.96-.33,1.42-.42.47-.09.92-.15,1.37-.15,1.18,0,2.07.32,2.65.93.58.61.88,1.55.88,2.79ZM262.93,324.26c-1.1,0-1.85.13-2.26.38-.42.26-.63.68-.63,1.27,0,.48.15.87.46,1.14.32.28.75.42,1.29.42.75,0,1.35-.26,1.8-.8.45-.52.68-1.23.68-2.11v-.3h-1.34Z"/>
  <path class="cls-39" d="M274.29,320.49v1.26c-.39-.21-.77-.36-1.15-.47-.39-.1-.77-.16-1.15-.16-.87,0-1.56.28-2.04.84-.48.55-.72,1.33-.72,2.32s.24,1.78.72,2.34,1.17.82,2.04.82c.39,0,.76-.05,1.15-.15.39-.11.76-.27,1.15-.48v1.25c-.39.18-.78.31-1.17.39-.4.07-.84.12-1.29.12-1.23,0-2.22-.38-2.94-1.15-.74-.77-1.1-1.82-1.1-3.14s.36-2.39,1.1-3.15c.73-.76,1.74-1.16,3.03-1.16.42,0,.82.05,1.21.14.39.09.78.21,1.15.38Z"/>
  <path class="cls-39" d="M276.63,316.98h1.35v1.71h-1.35v-1.71ZM276.63,320.18h1.35v8.2h-1.35v-8.2Z"/>
  <path class="cls-39" d="M282.13,317.85v2.33h2.77v1.05h-2.77v4.45c0,.67.09,1.11.27,1.29.18.19.55.28,1.12.28h1.38v1.12h-1.38c-1.05,0-1.77-.19-2.16-.59-.39-.39-.59-1.1-.59-2.11v-4.45h-.99v-1.05h.99v-2.33h1.35Z"/>
  <path class="cls-39" d="M290.1,329.13c-.39.96-.76,1.61-1.12,1.9-.36.3-.84.45-1.44.45h-1.08v-1.12h.8c.36,0,.64-.09.85-.27.21-.18.43-.59.69-1.24l.24-.6-3.32-8.07h1.42l2.57,6.42,2.57-6.42h1.42l-3.6,8.95Z"/>
  <polygon class="cls-39" points="295.9 326.52 297.45 326.52 297.45 327.78 296.25 330.11 295.3 330.11 295.9 327.78 295.9 326.52"/>
  <polygon class="cls-39" points="316.46 317.45 317.95 317.45 316.07 327.15 321.4 327.15 321.16 328.38 314.35 328.38 316.46 317.45"/>
  <g class="cls-54">
    <path class="cls-39" d="M303.8,328.38l4.17-10.93h1.68l4.17,10.93h-10.02ZM308.81,318.9l-3,8.25h6l-3-8.25Z"/>
  </g>
  <g class="cls-60">
    <line class="cls-22" x1="39.72" y1="283.72" x2="411.9" y2="283.72"/>
  </g>
  <line class="cls-39" x1="39.72" y1="283.72" x2="36.22" y2="283.72"/>
  <line class="cls-26" x1="39.72" y1="283.72" x2="36.22" y2="283.72"/>
  <path class="cls-39" d="M28.9,279.52c.81,0,1.43.33,1.87.97.43.65.65,1.59.65,2.81s-.22,2.17-.65,2.81c-.44.64-1.06.96-1.88.96s-1.44-.32-1.87-.96c-.43-.64-.64-1.58-.64-2.81s.21-2.16.64-2.81c.43-.64,1.06-.97,1.88-.97ZM28.9,280.3c-.51,0-.89.25-1.15.75s-.38,1.25-.38,2.25.12,1.75.38,2.25.64.75,1.15.75.89-.25,1.15-.75c.25-.5.38-1.25.38-2.25s-.13-1.75-.38-2.25c-.26-.5-.64-.75-1.15-.75Z"/>
  <g class="cls-91">
    <line class="cls-22" x1="39.72" y1="246.06" x2="411.9" y2="246.06"/>
  </g>
  <line class="cls-39" x1="39.72" y1="246.06" x2="36.22" y2="246.06"/>
  <line class="cls-26" x1="39.72" y1="246.06" x2="36.22" y2="246.06"/>
  <polygon class="cls-39" points="26.96 248.32 28.57 248.32 28.57 242.76 26.82 243.11 26.82 242.21 28.56 241.86 29.55 241.86 29.55 248.32 31.16 248.32 31.16 249.15 26.96 249.15 26.96 248.32"/>
  <g class="cls-77">
    <line class="cls-22" x1="39.72" y1="208.4" x2="411.9" y2="208.4"/>
  </g>
  <line class="cls-39" x1="39.72" y1="208.4" x2="36.22" y2="208.4"/>
  <line class="cls-26" x1="39.72" y1="208.4" x2="36.22" y2="208.4"/>
  <path class="cls-39" d="M27.64,210.79h3.44v.83h-4.63v-.83c.37-.38.88-.9,1.53-1.56.64-.65,1.05-1.07,1.22-1.26.32-.35.54-.65.66-.9.12-.24.19-.49.19-.73,0-.38-.14-.7-.41-.94s-.62-.37-1.06-.37c-.31,0-.64.06-.98.16-.34.11-.71.27-1.1.49v-1c.4-.16.77-.28,1.11-.36s.66-.12.95-.12c.75,0,1.35.19,1.8.57.45.38.68.88.68,1.51,0,.3-.06.59-.17.85-.11.27-.31.59-.61.95-.08.1-.34.37-.78.82s-1.05,1.08-1.84,1.89Z"/>
  <g class="cls-103">
    <line class="cls-22" x1="39.72" y1="170.73" x2="411.9" y2="170.73"/>
  </g>
  <line class="cls-39" x1="39.72" y1="170.73" x2="36.22" y2="170.73"/>
  <line class="cls-26" x1="39.72" y1="170.73" x2="36.22" y2="170.73"/>
  <path class="cls-39" d="M29.78,170.02c.47.1.84.31,1.1.63.26.32.4.72.4,1.18,0,.72-.25,1.28-.74,1.67-.5.39-1.2.58-2.11.58-.31,0-.63-.03-.95-.09-.32-.05-.66-.14-1-.26v-.95c.27.16.57.28.9.36.32.08.66.12,1.02.12.62,0,1.09-.12,1.41-.36.32-.24.49-.6.49-1.07,0-.42-.15-.76-.45-1-.3-.24-.72-.37-1.26-.37h-.85v-.81h.89c.48,0,.85-.09,1.11-.29.26-.19.39-.47.39-.84s-.14-.66-.4-.86c-.27-.2-.65-.3-1.14-.3-.27,0-.56.03-.87.09s-.65.15-1.02.27v-.88c.37-.1.72-.18,1.05-.23.32-.05.63-.08.93-.08.74,0,1.33.17,1.77.51.44.34.66.8.66,1.38,0,.4-.12.74-.35,1.02s-.56.48-.98.58Z"/>
  <g class="cls-34">
    <line class="cls-22" x1="39.72" y1="133.07" x2="411.9" y2="133.07"/>
  </g>
  <line class="cls-39" x1="39.72" y1="133.07" x2="36.22" y2="133.07"/>
  <line class="cls-26" x1="39.72" y1="133.07" x2="36.22" y2="133.07"/>
  <path class="cls-39" d="M29.24,128.88h1.24v4.75h1.04v.82h-1.04v1.72h-.98v-1.72h-3.29v-.95l3.03-4.62ZM29.5,129.74l-2.49,3.89h2.49v-3.89Z"/>
  <g class="cls-71">
    <line class="cls-22" x1="39.72" y1="95.41" x2="411.9" y2="95.41"/>
  </g>
  <line class="cls-39" x1="39.72" y1="95.41" x2="36.22" y2="95.41"/>
  <line class="cls-26" x1="39.72" y1="95.41" x2="36.22" y2="95.41"/>
  <path class="cls-39" d="M26.8,91.21h3.87v.83h-2.97v1.79c.14-.05.29-.09.43-.11s.29-.04.43-.04c.81,0,1.45.23,1.93.67.48.45.72,1.05.72,1.81s-.25,1.4-.74,1.83c-.49.43-1.18.64-2.06.64-.31,0-.62-.03-.94-.07-.32-.05-.64-.12-.98-.23v-.99c.29.16.59.28.91.36.31.08.64.11.99.11.56,0,1.01-.14,1.34-.44.32-.3.49-.7.49-1.21s-.17-.9-.49-1.2c-.33-.3-.78-.45-1.34-.45-.26,0-.53.03-.79.09-.26.06-.53.15-.8.27v-3.66Z"/>
  <g class="cls-49">
    <line class="cls-22" x1="39.72" y1="57.75" x2="411.9" y2="57.75"/>
  </g>
  <line class="cls-39" x1="39.72" y1="57.75" x2="36.22" y2="57.75"/>
  <line class="cls-26" x1="39.72" y1="57.75" x2="36.22" y2="57.75"/>
  <path class="cls-39" d="M30.98,53.84v.9c-.25-.12-.5-.21-.75-.27-.26-.06-.51-.09-.75-.09-.66,0-1.16.22-1.5.66s-.54,1.11-.58,1.99c.19-.28.43-.5.72-.65.29-.15.61-.23.96-.23.73,0,1.31.23,1.73.67s.64,1.05.64,1.81-.23,1.35-.67,1.8c-.44.45-1.03.67-1.76.67-.84,0-1.49-.32-1.93-.96-.45-.64-.67-1.58-.67-2.81,0-1.15.27-2.07.82-2.75.54-.68,1.28-1.03,2.2-1.03.24,0,.49.03.75.07.25.05.51.12.79.22ZM29.02,56.93c-.44,0-.79.16-1.05.46-.26.3-.39.72-.39,1.24s.13.95.39,1.25c.26.3.61.45,1.05.45s.79-.15,1.05-.45c.26-.3.39-.72.39-1.25s-.13-.94-.39-1.24c-.26-.3-.61-.46-1.05-.46Z"/>
  <g class="cls-96">
    <line class="cls-22" x1="39.72" y1="20.08" x2="411.9" y2="20.08"/>
  </g>
  <line class="cls-39" x1="39.72" y1="20.08" x2="36.22" y2="20.08"/>
  <line class="cls-26" x1="39.72" y1="20.08" x2="36.22" y2="20.08"/>
  <polygon class="cls-39" points="26.54 15.89 31.23 15.89 31.23 16.31 28.58 23.18 27.55 23.18 30.04 16.72 26.54 16.72 26.54 15.89"/>
  <polygon class="cls-39" points="7.66 215.96 7.66 206.71 8.9 206.71 8.9 210.6 18.59 210.6 18.59 212.09 8.9 212.09 8.9 215.96 7.66 215.96"/>
  <path class="cls-39" d="M10.19,204.72c0-1.17.39-2.09,1.14-2.76.76-.66,1.82-1,3.16-1s2.4.35,3.15,1c.76.68,1.14,1.59,1.14,2.76s-.38,2.11-1.14,2.77c-.75.66-1.8.99-3.15.99s-2.4-.33-3.16-.99c-.75-.66-1.14-1.59-1.14-2.77ZM11.33,204.72c0,.72.28,1.29.85,1.71.57.42,1.34.63,2.31.63s1.76-.2,2.32-.62.84-.99.84-1.72-.27-1.29-.84-1.71-1.33-.63-2.32-.63-1.74.21-2.31.63c-.57.42-.85.99-.85,1.71Z"/>
  <path class="cls-39" d="M8.06,197.38h2.33v-2.78h1.05v2.78h4.46c.68,0,1.11-.09,1.29-.27.19-.18.28-.56.28-1.12v-1.38h1.12v1.38c0,1.05-.19,1.77-.58,2.16-.39.39-1.1.58-2.12.58h-4.46v.99h-1.05v-.99h-2.33v-1.35Z"/>
  <path class="cls-39" d="M13.91,186.42h4.68v1.35h-1.25c.51.32.87.71,1.1,1.15s.34,1.02.34,1.68c0,.84-.23,1.51-.69,2.01-.46.49-1.09.74-1.89.74-.91,0-1.6-.3-2.09-.93-.47-.62-.7-1.53-.7-2.76v-1.89h-.14c-.61,0-1.1.21-1.44.61-.33.4-.51.98-.51,1.71,0,.48.06.93.18,1.38.12.45.28.87.49,1.27h-1.24c-.18-.48-.33-.96-.42-1.43s-.15-.91-.15-1.36c0-1.19.32-2.07.93-2.66.61-.58,1.55-.88,2.79-.88ZM14.47,189.1c0,1.1.14,1.85.38,2.26.26.42.68.63,1.27.63.48,0,.87-.15,1.14-.46.28-.32.42-.75.42-1.29,0-.75-.25-1.35-.79-1.8-.53-.45-1.23-.67-2.12-.67h-.3v1.33Z"/>
  <rect class="cls-39" x="7.19" y="182.29" width="11.4" height="1.35"/>
  <path class="cls-39" d="M10.7,168.79h1.26c-.21.39-.36.77-.47,1.16s-.16.76-.16,1.15c0,.87.28,1.56.84,2.04s1.34.72,2.32.72,1.79-.24,2.34-.72c.56-.48.83-1.17.83-2.04,0-.39-.05-.76-.15-1.15s-.27-.76-.48-1.16h1.24c.18.39.32.78.39,1.17.07.4.12.84.12,1.29,0,1.23-.38,2.22-1.15,2.94-.77.74-1.82,1.1-3.14,1.1s-2.39-.36-3.15-1.1c-.76-.74-1.15-1.74-1.15-3.03,0-.42.05-.82.14-1.21s.21-.78.38-1.16Z"/>
  <path class="cls-39" d="M13.91,160.03h4.68v1.35h-1.25c.51.32.87.71,1.1,1.15s.34,1.02.34,1.68c0,.84-.23,1.51-.69,2.01-.46.49-1.09.74-1.89.74-.91,0-1.6-.3-2.09-.93-.47-.62-.7-1.53-.7-2.76v-1.89h-.14c-.61,0-1.1.21-1.44.61-.33.4-.51.98-.51,1.71,0,.48.06.93.18,1.38.12.45.28.87.49,1.27h-1.24c-.18-.48-.33-.96-.42-1.43s-.15-.91-.15-1.36c0-1.19.32-2.07.93-2.66.61-.58,1.55-.88,2.79-.88ZM14.47,162.72c0,1.1.14,1.85.38,2.26.26.42.68.63,1.27.63.48,0,.87-.15,1.14-.46.28-.32.42-.75.42-1.29,0-.75-.25-1.35-.79-1.8-.53-.45-1.23-.67-2.12-.67h-.3v1.33Z"/>
  <path class="cls-39" d="M10.7,151.35h1.26c-.21.39-.36.76-.47,1.16-.11.39-.16.76-.16,1.15,0,.87.28,1.56.84,2.04s1.34.72,2.32.72,1.79-.24,2.34-.72c.56-.48.83-1.17.83-2.04,0-.39-.05-.76-.15-1.15-.1-.39-.27-.77-.48-1.16h1.24c.18.39.32.78.39,1.17.07.4.12.84.12,1.29,0,1.23-.38,2.22-1.15,2.94-.77.74-1.82,1.1-3.14,1.1s-2.39-.36-3.15-1.1c-.76-.74-1.15-1.74-1.15-3.03,0-.42.05-.82.14-1.21.09-.39.21-.78.38-1.16Z"/>
  <path class="cls-39" d="M13.64,142.18h4.95v1.35h-4.91c-.78,0-1.35.16-1.74.46-.39.3-.59.75-.59,1.35,0,.74.24,1.31.71,1.73.46.42,1.09.63,1.89.63h4.64v1.35H7.19v-1.35h4.47c-.48-.32-.85-.69-1.1-1.14-.24-.43-.38-.95-.38-1.51,0-.93.3-1.65.89-2.13s1.44-.74,2.56-.74Z"/>
  <path class="cls-39" d="M13.76,133.83c-.74.01-1.32.23-1.77.62-.43.4-.66.94-.66,1.6,0,.75.23,1.35.65,1.8s1.02.72,1.78.78v-4.8ZM14.15,132.48h.66v6.19c.93-.06,1.65-.33,2.13-.84.48-.5.72-1.18.72-2.09,0-.51-.06-1.02-.18-1.5-.12-.48-.31-.97-.58-1.46h1.27c.21.48.38.98.47,1.49.09.51.15,1.04.15,1.54,0,1.32-.38,2.36-1.12,3.12s-1.78,1.14-3.09,1.14-2.4-.36-3.19-1.08c-.78-.72-1.19-1.71-1.19-2.94,0-1.11.36-1.98,1.06-2.62.72-.63,1.68-.96,2.9-.96Z"/>
  <path class="cls-39" d="M13.64,118.68h4.95v1.35h-4.91c-.78,0-1.35.16-1.74.46-.39.3-.59.75-.59,1.35,0,.74.24,1.31.71,1.73.46.42,1.09.63,1.89.63h4.64v1.35H7.19v-1.35h4.47c-.48-.32-.85-.69-1.1-1.14-.24-.43-.38-.95-.38-1.51,0-.93.3-1.65.89-2.13s1.44-.74,2.56-.74Z"/>
  <path class="cls-39" d="M7.19,115.99v-1.35h1.71v1.35h-1.71ZM10.39,115.99v-1.35h8.2v1.35h-8.2Z"/>
  <path class="cls-39" d="M8.06,110.49h2.33v-2.78h1.05v2.78h4.46c.68,0,1.11-.09,1.29-.27.19-.18.28-.56.28-1.12v-1.38h1.12v1.38c0,1.05-.19,1.77-.58,2.16-.39.39-1.1.58-2.12.58h-4.46v.99h-1.05v-.99h-2.33v-1.35Z"/>
  <path class="cls-39" d="M10.63,100.71h1.27c-.18.39-.33.78-.43,1.18-.09.42-.15.84-.15,1.28,0,.68.1,1.18.31,1.51s.51.49.91.49c.32,0,.56-.12.73-.36.18-.24.36-.72.51-1.44l.11-.46c.21-.96.51-1.63.87-2.04.38-.39.9-.6,1.56-.6.76,0,1.36.3,1.8.9.45.6.66,1.44.66,2.49,0,.45-.05.9-.12,1.38-.08.48-.2.97-.38,1.5h-1.4c.27-.49.47-.99.58-1.47.14-.48.19-.96.19-1.44,0-.63-.1-1.12-.31-1.47-.21-.33-.53-.51-.93-.51-.36,0-.65.13-.84.38-.19.24-.39.78-.57,1.62l-.11.46c-.18.84-.45,1.46-.81,1.82-.36.38-.85.56-1.5.56-.76,0-1.36-.27-1.78-.81-.42-.54-.63-1.32-.63-2.34,0-.49.05-.96.12-1.41.08-.44.18-.84.32-1.22Z"/>
  <polygon class="cls-39" points="46.73 9.78 44.5 12.02 46.73 14.25 46.15 14.84 43.91 12.6 41.67 14.84 41.09 14.25 43.32 12.02 41.09 9.78 41.67 9.19 43.91 11.43 46.15 9.19 46.73 9.78"/>
  <polygon class="cls-39" points="49.33 14.32 50.94 14.32 50.94 8.76 49.19 9.11 49.19 8.21 50.93 7.86 51.92 7.86 51.92 14.32 53.53 14.32 53.53 15.15 49.33 15.15 49.33 14.32"/>
  <path class="cls-39" d="M57.64,7.73c.81,0,1.43.33,1.87.97.43.65.65,1.59.65,2.81s-.22,2.17-.65,2.81c-.44.64-1.06.96-1.88.96s-1.44-.32-1.87-.96c-.43-.64-.64-1.58-.64-2.81s.21-2.16.64-2.81c.43-.64,1.06-.97,1.88-.97ZM57.64,8.51c-.51,0-.89.25-1.15.75-.26.5-.38,1.25-.38,2.25s.12,1.75.38,2.25c.26.5.64.75,1.15.75s.89-.25,1.15-.75c.25-.5.38-1.25.38-2.25s-.13-1.75-.38-2.25c-.26-.5-.64-.75-1.15-.75Z"/>
  <path class="cls-39" d="M63.76,8.57c.33.07.59.22.77.44.18.22.28.5.28.83,0,.5-.18.9-.52,1.17-.35.27-.84.41-1.48.41-.22,0-.44-.02-.67-.06-.22-.04-.46-.1-.7-.18v-.67c.19.11.4.2.63.25.22.06.46.08.71.08.43,0,.76-.08.99-.25.22-.17.34-.42.34-.75,0-.29-.1-.53-.31-.7-.21-.17-.5-.26-.88-.26h-.59v-.57h.62c.34,0,.6-.06.78-.2.18-.13.27-.33.27-.59s-.1-.46-.28-.6c-.19-.14-.45-.21-.8-.21-.19,0-.39.02-.61.06-.22.04-.46.1-.71.19v-.62c.26-.07.5-.13.74-.16.22-.04.44-.06.65-.06.52,0,.93.12,1.24.36.31.24.46.56.46.97,0,.28-.08.52-.24.71-.16.2-.39.34-.69.41Z"/>
  <g class="cls-53">
    <polyline class="cls-13" points="56.63 204.05 124.3 232.4 191.97 235.55 259.64 236.61 327.31 236.96 394.98 237.28"/>
    <g class="cls-35">
      <polygon class="cls-21" points="56.63 201.05 53.63 207.05 59.63 207.05 56.63 201.05"/>
    </g>
    <g class="cls-97">
      <polygon class="cls-21" points="124.3 229.4 121.3 235.4 127.3 235.4 124.3 229.4"/>
    </g>
    <g class="cls-95">
      <polygon class="cls-21" points="191.97 232.55 188.97 238.55 194.97 238.55 191.97 232.55"/>
    </g>
    <g class="cls-85">
      <polygon class="cls-21" points="259.64 233.61 256.64 239.61 262.64 239.61 259.64 233.61"/>
    </g>
    <g class="cls-33">
      <polygon class="cls-21" points="327.31 233.96 324.31 239.96 330.31 239.96 327.31 233.96"/>
    </g>
    <g class="cls-61">
      <polygon class="cls-21" points="394.98 234.28 391.98 240.28 397.98 240.28 394.98 234.28"/>
    </g>
  </g>
  <g class="cls-76">
    <polyline class="cls-8" points="56.63 283.72 124.3 185.69 191.97 151.69 259.64 132 327.31 115.91 394.98 101.74"/>
    <g class="cls-104">
      <polygon class="cls-21" points="56.63 280.72 53.63 286.72 59.63 286.72 56.63 280.72"/>
    </g>
    <g class="cls-73">
      <polygon class="cls-21" points="124.3 182.69 121.3 188.69 127.3 188.69 124.3 182.69"/>
    </g>
    <g class="cls-52">
      <polygon class="cls-21" points="191.97 148.69 188.97 154.69 194.97 154.69 191.97 148.69"/>
    </g>
    <g class="cls-57">
      <polygon class="cls-21" points="259.64 129 256.64 135 262.64 135 259.64 129"/>
    </g>
    <g class="cls-68">
      <polygon class="cls-21" points="327.31 112.91 324.31 118.91 330.31 118.91 327.31 112.91"/>
    </g>
    <g class="cls-111">
      <polygon class="cls-21" points="394.98 98.74 391.98 104.74 397.98 104.74 394.98 98.74"/>
    </g>
  </g>
  <g class="cls-94">
    <polyline class="cls-24" points="56.63 193.14 124.3 232.95 191.97 237.01 259.64 237.65 327.31 237.89 394.98 238.29"/>
    <g class="cls-74">
      <rect class="cls-20" x="53.63" y="190.14" width="6" height="6"/>
    </g>
    <g class="cls-86">
      <rect class="cls-20" x="121.3" y="229.95" width="6" height="6"/>
    </g>
    <g class="cls-46">
      <rect class="cls-20" x="188.97" y="234.01" width="6" height="6"/>
    </g>
    <g class="cls-38">
      <rect class="cls-20" x="256.64" y="234.65" width="6" height="6"/>
    </g>
    <g class="cls-62">
      <rect class="cls-20" x="324.31" y="234.89" width="6" height="6"/>
    </g>
    <g class="cls-114">
      <rect class="cls-20" x="391.98" y="235.29" width="6" height="6"/>
    </g>
  </g>
  <g class="cls-67">
    <polyline class="cls-14" points="56.63 283.72 124.3 153.9 191.97 112.31 259.64 85.21 327.31 64.09 394.98 46.41"/>
    <g class="cls-50">
      <rect class="cls-20" x="53.63" y="280.72" width="6" height="6"/>
    </g>
    <g class="cls-66">
      <rect class="cls-20" x="121.3" y="150.9" width="6" height="6"/>
    </g>
    <g class="cls-84">
      <rect class="cls-20" x="188.97" y="109.31" width="6" height="6"/>
    </g>
    <g class="cls-56">
      <rect class="cls-20" x="256.64" y="82.21" width="6" height="6"/>
    </g>
    <g class="cls-45">
      <rect class="cls-20" x="324.31" y="61.09" width="6" height="6"/>
    </g>
    <g class="cls-101">
      <rect class="cls-20" x="391.98" y="43.41" width="6" height="6"/>
    </g>
  </g>
  <g class="cls-89">
    <polyline class="cls-9" points="56.63 227.13 124.3 266.04 191.97 271.53 259.64 273.47 327.31 275.06 394.98 275.9"/>
    <g class="cls-70">
      <path class="cls-10" d="M53.63,224.13l6,6M53.63,230.13l6-6"/>
    </g>
    <g class="cls-31">
      <path class="cls-10" d="M121.3,263.04l6,6M121.3,269.04l6-6"/>
    </g>
    <g class="cls-51">
      <path class="cls-10" d="M188.97,268.53l6,6M188.97,274.53l6-6"/>
    </g>
    <g class="cls-43">
      <path class="cls-10" d="M256.64,270.47l6,6M256.64,276.47l6-6"/>
    </g>
    <g class="cls-82">
      <path class="cls-10" d="M324.31,272.06l6,6M324.31,278.06l6-6"/>
    </g>
    <g class="cls-108">
      <path class="cls-10" d="M391.98,272.9l6,6M391.98,278.9l6-6"/>
    </g>
  </g>
  <g class="cls-81">
    <polyline class="cls-11" points="56.63 283.72 124.3 159.68 191.97 111.13 259.64 78.42 327.31 51.48 394.98 31.72"/>
    <g class="cls-110">
      <path class="cls-10" d="M53.63,280.72l6,6M53.63,286.72l6-6"/>
    </g>
    <g class="cls-79">
      <path class="cls-10" d="M121.3,156.68l6,6M121.3,162.68l6-6"/>
    </g>
    <g class="cls-107">
      <path class="cls-10" d="M188.97,108.13l6,6M188.97,114.13l6-6"/>
    </g>
    <g class="cls-87">
      <path class="cls-10" d="M256.64,75.42l6,6M256.64,81.42l6-6"/>
    </g>
    <g class="cls-92">
      <path class="cls-10" d="M324.31,48.48l6,6M324.31,54.48l6-6"/>
    </g>
    <g class="cls-106">
      <path class="cls-10" d="M391.98,28.72l6,6M391.98,34.72l6-6"/>
    </g>
  </g>
  <g class="cls-63">
    <polyline class="cls-19" points="56.63 250.73 124.3 264.34 191.97 267.87 259.64 268.95 327.31 270.3 394.98 271.72"/>
    <g class="cls-99">
      <polygon class="cls-2" points="56.63 254.97 59.18 250.73 56.63 246.48 54.09 250.73 56.63 254.97"/>
    </g>
    <g class="cls-36">
      <polygon class="cls-2" points="124.3 268.58 126.85 264.34 124.3 260.09 121.76 264.34 124.3 268.58"/>
    </g>
    <g class="cls-69">
      <polygon class="cls-2" points="191.97 272.11 194.52 267.87 191.97 263.62 189.43 267.87 191.97 272.11"/>
    </g>
    <g class="cls-83">
      <polygon class="cls-2" points="259.64 273.19 262.19 268.95 259.64 264.7 257.1 268.95 259.64 273.19"/>
    </g>
    <g class="cls-30">
      <polygon class="cls-2" points="327.31 274.54 329.86 270.3 327.31 266.06 324.77 270.3 327.31 274.54"/>
    </g>
    <g class="cls-32">
      <polygon class="cls-2" points="394.98 275.96 397.53 271.72 394.98 267.48 392.44 271.72 394.98 275.96"/>
    </g>
  </g>
  <g class="cls-42">
    <polyline class="cls-25" points="56.63 283.72 124.3 199.45 191.97 159.97 259.64 134.38 327.31 111.9 394.98 89.41"/>
    <g class="cls-102">
      <polygon class="cls-2" points="56.63 287.96 59.18 283.72 56.63 279.48 54.09 283.72 56.63 287.96"/>
    </g>
    <g class="cls-115">
      <polygon class="cls-2" points="124.3 203.69 126.85 199.45 124.3 195.21 121.76 199.45 124.3 203.69"/>
    </g>
    <g class="cls-109">
      <polygon class="cls-2" points="191.97 164.21 194.52 159.97 191.97 155.72 189.43 159.97 191.97 164.21"/>
    </g>
    <g class="cls-113">
      <polygon class="cls-2" points="259.64 138.62 262.19 134.38 259.64 130.14 257.1 134.38 259.64 138.62"/>
    </g>
    <g class="cls-93">
      <polygon class="cls-2" points="327.31 116.14 329.86 111.9 327.31 107.66 324.77 111.9 327.31 116.14"/>
    </g>
    <g class="cls-90">
      <polygon class="cls-2" points="394.98 93.65 397.53 89.41 394.98 85.17 392.44 89.41 394.98 93.65"/>
    </g>
  </g>
  <g class="cls-112">
    <polyline class="cls-15" points="56.63 250.83 124.3 266.35 191.97 269.87 259.64 271.95 327.31 273.62 394.98 274.72"/>
    <g class="cls-29">
      <path class="cls-3" d="M56.63,253.83c.8,0,1.56-.32,2.12-.88.56-.56.88-1.33.88-2.12s-.32-1.56-.88-2.12c-.56-.56-1.33-.88-2.12-.88s-1.56.32-2.12.88c-.56.56-.88,1.33-.88,2.12s.32,1.56.88,2.12c.56.56,1.33.88,2.12.88Z"/>
    </g>
    <g class="cls-28">
      <path class="cls-3" d="M124.3,269.35c.8,0,1.56-.32,2.12-.88.56-.56.88-1.33.88-2.12s-.32-1.56-.88-2.12c-.56-.56-1.33-.88-2.12-.88s-1.56.32-2.12.88c-.56.56-.88,1.33-.88,2.12s.32,1.56.88,2.12c.56.56,1.33.88,2.12.88Z"/>
    </g>
    <g class="cls-105">
      <path class="cls-3" d="M191.97,272.87c.8,0,1.56-.32,2.12-.88.56-.56.88-1.33.88-2.12s-.32-1.56-.88-2.12c-.56-.56-1.33-.88-2.12-.88s-1.56.32-2.12.88c-.56.56-.88,1.33-.88,2.12s.32,1.56.88,2.12c.56.56,1.33.88,2.12.88Z"/>
    </g>
    <g class="cls-59">
      <path class="cls-3" d="M259.64,274.95c.8,0,1.56-.32,2.12-.88.56-.56.88-1.33.88-2.12s-.32-1.56-.88-2.12c-.56-.56-1.33-.88-2.12-.88s-1.56.32-2.12.88c-.56.56-.88,1.33-.88,2.12s.32,1.56.88,2.12c.56.56,1.33.88,2.12.88Z"/>
    </g>
    <g class="cls-55">
      <path class="cls-3" d="M327.31,276.62c.8,0,1.56-.32,2.12-.88.56-.56.88-1.33.88-2.12s-.32-1.56-.88-2.12c-.56-.56-1.33-.88-2.12-.88s-1.56.32-2.12.88c-.56.56-.88,1.33-.88,2.12s.32,1.56.88,2.12c.56.56,1.33.88,2.12.88Z"/>
    </g>
    <g class="cls-44">
      <path class="cls-3" d="M394.98,277.72c.8,0,1.56-.32,2.12-.88.56-.56.88-1.33.88-2.12s-.32-1.56-.88-2.12c-.56-.56-1.33-.88-2.12-.88s-1.56.32-2.12.88c-.56.56-.88,1.33-.88,2.12s.32,1.56.88,2.12c.56.56,1.33.88,2.12.88Z"/>
    </g>
  </g>
  <g class="cls-37">
    <polyline class="cls-4" points="56.63 283.72 124.3 193.49 191.97 147.21 259.64 114.01 327.31 86.79 394.98 64.25"/>
    <g class="cls-75">
      <path class="cls-3" d="M56.63,286.72c.8,0,1.56-.32,2.12-.88.56-.56.88-1.33.88-2.12s-.32-1.56-.88-2.12c-.56-.56-1.33-.88-2.12-.88s-1.56.32-2.12.88c-.56.56-.88,1.33-.88,2.12s.32,1.56.88,2.12c.56.56,1.33.88,2.12.88Z"/>
    </g>
    <g class="cls-72">
      <path class="cls-3" d="M124.3,196.49c.8,0,1.56-.32,2.12-.88.56-.56.88-1.33.88-2.12s-.32-1.56-.88-2.12c-.56-.56-1.33-.88-2.12-.88s-1.56.32-2.12.88c-.56.56-.88,1.33-.88,2.12s.32,1.56.88,2.12c.56.56,1.33.88,2.12.88Z"/>
    </g>
    <g class="cls-58">
      <path class="cls-3" d="M191.97,150.21c.8,0,1.56-.32,2.12-.88s.88-1.33.88-2.12-.32-1.56-.88-2.12-1.33-.88-2.12-.88-1.56.32-2.12.88-.88,1.33-.88,2.12.32,1.56.88,2.12,1.33.88,2.12.88Z"/>
    </g>
    <g class="cls-78">
      <path class="cls-3" d="M259.64,117.01c.8,0,1.56-.32,2.12-.88.56-.56.88-1.33.88-2.12s-.32-1.56-.88-2.12c-.56-.56-1.33-.88-2.12-.88s-1.56.32-2.12.88c-.56.56-.88,1.33-.88,2.12s.32,1.56.88,2.12c.56.56,1.33.88,2.12.88Z"/>
    </g>
    <g class="cls-47">
      <path class="cls-3" d="M327.31,89.79c.8,0,1.56-.32,2.12-.88.56-.56.88-1.33.88-2.12s-.32-1.56-.88-2.12c-.56-.56-1.33-.88-2.12-.88s-1.56.32-2.12.88c-.56.56-.88,1.33-.88,2.12s.32,1.56.88,2.12c.56.56,1.33.88,2.12.88Z"/>
    </g>
    <g class="cls-100">
      <path class="cls-3" d="M394.98,67.25c.8,0,1.56-.32,2.12-.88.56-.56.88-1.33.88-2.12s-.32-1.56-.88-2.12c-.56-.56-1.33-.88-2.12-.88s-1.56.32-2.12.88c-.56.56-.88,1.33-.88,2.12s.32,1.56.88,2.12c.56.56,1.33.88,2.12.88Z"/>
    </g>
  </g>
  <line class="cls-17" x1="39.72" y1="296.32" x2="39.72" y2="19.12"/>
  <line class="cls-17" x1="411.9" y1="296.32" x2="411.9" y2="19.12"/>
  <line class="cls-17" x1="39.72" y1="296.32" x2="411.9" y2="296.32"/>
  <line class="cls-17" x1="39.72" y1="19.12" x2="411.9" y2="19.12"/>
  <g>
    <rect class="cls-40" x="149.93" y="200.79" width="254.97" height="24.75" rx="2.8" ry="2.8"/>
    <rect class="cls-12" x="149.93" y="200.79" width="254.97" height="24.75" rx="2.8" ry="2.8"/>
  </g>
  <polyline class="cls-18" points="155.53 212.13 169.53 212.13 183.53 212.13"/>
  <polygon class="cls-39" points="196.1 206.82 201.96 206.82 201.96 207.99 197.48 207.99 197.48 211 201.53 211 201.53 212.16 197.48 212.16 197.48 217.03 196.1 217.03 196.1 206.82"/>
  <path class="cls-39" d="M203.08,206.39h1.26v1.6h-1.26v-1.6ZM203.08,209.37h1.26v7.66h-1.26v-7.66Z"/>
  <path class="cls-39" d="M211.41,210.55c-.14-.08-.29-.14-.46-.18-.17-.03-.35-.06-.55-.06-.71,0-1.26.24-1.64.7-.39.46-.57,1.12-.57,1.99v4.03h-1.26v-7.66h1.26v1.19c.25-.46.6-.81,1.02-1.04s.94-.34,1.55-.34c.08,0,.18.01.29.01.1.01.21.03.35.06v1.29Z"/>
  <path class="cls-39" d="M217.61,209.6v1.19c-.36-.17-.73-.31-1.11-.41-.39-.08-.78-.14-1.19-.14-.63,0-1.11.1-1.41.29s-.46.48-.46.85c0,.29.11.52.34.69.22.17.67.34,1.34.48l.43.1c.9.2,1.53.48,1.9.81.36.35.56.84.56,1.46,0,.71-.28,1.27-.84,1.68-.56.42-1.34.62-2.32.62-.42,0-.84-.04-1.29-.11-.45-.07-.91-.18-1.4-.35v-1.3c.46.25.92.43,1.37.55.45.13.9.18,1.34.18.59,0,1.05-.1,1.37-.29.31-.2.48-.49.48-.87,0-.34-.13-.6-.35-.78-.22-.18-.73-.36-1.51-.53l-.43-.1c-.78-.17-1.36-.42-1.69-.76-.35-.34-.52-.8-.52-1.4,0-.71.25-1.27.76-1.67.5-.39,1.23-.59,2.18-.59.46,0,.9.04,1.32.11.41.07.78.17,1.13.29Z"/>
  <path class="cls-39" d="M221.26,207.2v2.17h2.59v.98h-2.59v4.16c0,.63.08,1.04.25,1.2.17.18.52.27,1.05.27h1.29v1.05h-1.29c-.98,0-1.65-.18-2.02-.55-.36-.36-.55-1.02-.55-1.97v-4.16h-.92v-.98h.92v-2.17h1.26Z"/>
  <path class="cls-39" d="M231.2,207.2v2.17h2.59v.98h-2.59v4.16c0,.63.08,1.04.25,1.2.17.18.52.27,1.05.27h1.29v1.05h-1.29c-.98,0-1.65-.18-2.02-.55-.36-.36-.55-1.02-.55-1.97v-4.16h-.92v-.98h.92v-2.17h1.26Z"/>
  <path class="cls-39" d="M235.44,206.39h1.26v1.6h-1.26v-1.6ZM235.44,209.37h1.26v7.66h-1.26v-7.66Z"/>
  <path class="cls-39" d="M244.63,212.52c-.01-.69-.21-1.23-.57-1.65-.38-.41-.88-.62-1.5-.62-.7,0-1.26.21-1.68.6s-.67.95-.73,1.67h4.48ZM245.89,212.89v.62h-5.78c.06.87.31,1.54.78,1.99.46.45,1.11.67,1.95.67.48,0,.95-.06,1.4-.17s.91-.29,1.36-.55v1.19c-.45.2-.91.35-1.39.43s-.97.14-1.44.14c-1.23,0-2.2-.35-2.91-1.05-.71-.7-1.06-1.67-1.06-2.88s.34-2.24,1.01-2.98c.67-.73,1.6-1.11,2.74-1.11,1.04,0,1.85.34,2.45.99.59.67.9,1.57.9,2.7Z"/>
  <path class="cls-39" d="M252.38,210.55c-.14-.08-.29-.14-.46-.18-.17-.03-.35-.06-.55-.06-.71,0-1.26.24-1.64.7-.39.46-.57,1.12-.57,1.99v4.03h-1.26v-7.66h1.26v1.19c.25-.46.6-.81,1.02-1.04s.94-.34,1.55-.34c.08,0,.18.01.29.01.1.01.21.03.35.06v1.29Z"/>
  <polyline class="cls-1" points="280.38 212.13 294.38 212.13 308.38 212.13"/>
  <path class="cls-39" d="M327.07,207.16v1.34c-.53-.25-1.02-.43-1.48-.56-.48-.11-.92-.18-1.34-.18-.76,0-1.34.15-1.75.43-.41.29-.6.71-.6,1.25,0,.45.13.8.41,1.02.27.24.78.42,1.54.56l.84.17c1.02.2,1.78.55,2.27,1.04.49.5.74,1.16.74,1.99,0,.99-.34,1.74-.99,2.24-.67.5-1.64.76-2.91.76-.49,0-1.01-.06-1.55-.15s-1.11-.25-1.68-.48v-1.43c.56.32,1.11.56,1.64.71.53.17,1.06.24,1.6.24.78,0,1.39-.15,1.82-.46.42-.31.64-.74.64-1.33,0-.5-.15-.9-.46-1.18-.31-.28-.81-.49-1.51-.63l-.84-.17c-1.04-.2-1.78-.52-2.24-.97-.46-.43-.69-1.04-.69-1.82,0-.9.31-1.61.95-2.13.63-.52,1.51-.78,2.63-.78.48,0,.95.04,1.46.13.49.08.99.22,1.53.39Z"/>
  <path class="cls-39" d="M335.08,212.52c-.01-.69-.21-1.23-.57-1.65-.38-.41-.88-.62-1.5-.62-.7,0-1.26.21-1.68.6-.42.39-.67.95-.73,1.67h4.48ZM336.34,212.89v.62h-5.78c.06.87.31,1.54.78,1.99.46.45,1.11.67,1.95.67.48,0,.95-.06,1.4-.17s.91-.29,1.36-.55v1.19c-.45.2-.91.35-1.39.43-.48.08-.97.14-1.44.14-1.23,0-2.2-.35-2.91-1.05-.71-.7-1.06-1.67-1.06-2.88s.34-2.24,1.01-2.98c.67-.73,1.6-1.11,2.74-1.11,1.04,0,1.85.34,2.45.99.59.67.9,1.57.9,2.7Z"/>
  <path class="cls-39" d="M343.91,209.67v1.18c-.36-.2-.71-.34-1.08-.43-.36-.1-.71-.15-1.08-.15-.81,0-1.46.27-1.9.78-.45.52-.67,1.25-.67,2.17s.22,1.67.67,2.18,1.09.77,1.9.77c.36,0,.71-.04,1.08-.14.36-.1.71-.25,1.08-.45v1.16c-.36.17-.73.29-1.09.36-.38.07-.78.11-1.2.11-1.15,0-2.07-.35-2.74-1.08-.69-.71-1.02-1.69-1.02-2.93s.34-2.23,1.02-2.94c.69-.71,1.62-1.08,2.83-1.08.39,0,.77.04,1.13.13.36.08.73.2,1.08.35Z"/>
  <path class="cls-39" d="M349.07,209.19c1.09,0,1.95.36,2.58,1.06.62.71.94,1.69.94,2.95s-.32,2.24-.94,2.94c-.63.71-1.48,1.06-2.58,1.06s-1.97-.35-2.59-1.06c-.62-.7-.92-1.68-.92-2.94s.31-2.24.92-2.95c.62-.7,1.48-1.06,2.59-1.06ZM349.07,210.25c-.67,0-1.2.27-1.6.8s-.59,1.25-.59,2.16.18,1.64.57,2.17.92.78,1.61.78,1.2-.25,1.6-.78.59-1.25.59-2.17-.2-1.62-.59-2.16-.92-.8-1.6-.8Z"/>
  <path class="cls-39" d="M361.04,212.41v4.62h-1.26v-4.58c0-.73-.15-1.26-.43-1.62s-.7-.55-1.26-.55c-.69,0-1.22.22-1.61.66-.39.43-.59,1.02-.59,1.76v4.33h-1.26v-7.66h1.26v1.19c.29-.45.64-.8,1.06-1.02.41-.22.88-.35,1.41-.35.87,0,1.54.28,1.99.83.45.55.69,1.34.69,2.39Z"/>
  <path class="cls-39" d="M364.3,213.21c0,.92.18,1.65.56,2.18.38.53.9.78,1.57.78s1.19-.25,1.58-.78c.38-.53.57-1.26.57-2.18s-.2-1.64-.57-2.17c-.39-.53-.91-.8-1.58-.8s-1.19.27-1.57.8c-.38.53-.56,1.25-.56,2.17ZM368.58,210.53v-4.14h1.26v10.64h-1.26v-1.15c-.27.46-.6.8-1.01,1.01s-.88.32-1.44.32c-.92,0-1.68-.36-2.27-1.09-.59-.73-.87-1.71-.87-2.91s.28-2.17.87-2.91c.59-.73,1.34-1.11,2.27-1.11.56,0,1.04.11,1.44.34s.74.56,1.01,1.01Z"/>
  <path class="cls-39" d="M378.13,207.2v2.17h2.59v.98h-2.59v4.16c0,.63.08,1.04.25,1.2.17.18.52.27,1.05.27h1.29v1.05h-1.29c-.98,0-1.65-.18-2.02-.55-.36-.36-.55-1.02-.55-1.97v-4.16h-.92v-.98h.92v-2.17h1.26Z"/>
  <path class="cls-39" d="M382.37,206.39h1.26v1.6h-1.26v-1.6ZM382.37,209.37h1.26v7.66h-1.26v-7.66Z"/>
  <path class="cls-39" d="M391.56,212.52c-.01-.69-.21-1.23-.57-1.65-.38-.41-.88-.62-1.5-.62-.7,0-1.26.21-1.68.6-.42.39-.67.95-.73,1.67h4.48ZM392.82,212.89v.62h-5.78c.06.87.31,1.54.78,1.99.46.45,1.11.67,1.95.67.48,0,.95-.06,1.4-.17s.91-.29,1.36-.55v1.19c-.45.2-.91.35-1.39.43-.48.08-.97.14-1.44.14-1.23,0-2.2-.35-2.91-1.05-.71-.7-1.06-1.67-1.06-2.88s.34-2.24,1.01-2.98c.67-.73,1.6-1.11,2.74-1.11,1.04,0,1.85.34,2.45.99.59.67.9,1.57.9,2.7Z"/>
  <path class="cls-39" d="M399.31,210.55c-.14-.08-.29-.14-.46-.18-.17-.03-.35-.06-.55-.06-.71,0-1.26.24-1.64.7-.39.46-.57,1.12-.57,1.99v4.03h-1.26v-7.66h1.26v1.19c.25-.46.6-.81,1.02-1.04s.94-.34,1.55-.34c.08,0,.18.01.29.01.1.01.21.03.35.06v1.29Z"/>
  <g>
    <rect class="cls-40" x="46.22" y="25.62" width="78.58" height="99.29" rx="2.6" ry="2.6"/>
    <rect class="cls-12" x="46.22" y="25.62" width="78.58" height="99.29" rx="2.6" ry="2.6"/>
  </g>
  <polygon class="cls-23" points="64.42 31.15 59.42 41.15 69.42 41.15 64.42 31.15"/>
  <polygon class="cls-39" points="89.09 31.22 91 31.22 93.42 37.67 95.85 31.22 97.76 31.22 97.76 40.7 96.51 40.7 96.51 32.38 94.07 38.88 92.78 38.88 90.34 32.38 90.34 40.7 89.09 40.7 89.09 31.22"/>
  <polygon class="cls-39" points="102.75 40.7 99.14 31.22 100.48 31.22 103.48 39.2 106.48 31.22 107.82 31.22 104.21 40.7 102.75 40.7"/>
  <rect class="cls-39" x="109.2" y="31.22" width="1.29" height="9.48"/>
  <path class="cls-39" d="M113.04,31.22h2.9c1.05,0,1.86.25,2.41.73.55.48.82,1.18.82,2.11s-.27,1.65-.82,2.12c-.55.48-1.35.71-2.41.71h-1.61v3.81h-1.29v-9.48ZM114.32,32.27v3.56h1.61c.6,0,1.05-.14,1.38-.45.32-.31.49-.75.49-1.33s-.17-1-.49-1.31c-.33-.31-.78-.47-1.38-.47h-1.61Z"/>
  <rect class="cls-27" x="59.42" y="50.23" width="10" height="10"/>
  <polygon class="cls-39" points="89.09 50.3 90.38 50.3 90.38 58.7 94.99 58.7 94.99 59.77 89.09 59.77 89.09 50.3"/>
  <polygon class="cls-39" points="96.33 50.3 101.78 50.3 101.78 51.38 97.62 51.38 97.62 54.17 101.37 54.17 101.37 55.25 97.62 55.25 97.62 59.77 96.33 59.77 96.33 50.3"/>
  <path class="cls-39" d="M103.66,50.3h1.29v5.76c0,1.01.18,1.75.55,2.2.36.44.96.66,1.79.66s1.42-.22,1.78-.66c.36-.44.56-1.18.56-2.2v-5.76h1.29v5.91c0,1.25-.31,2.17-.92,2.8s-1.51.94-2.7.94-2.11-.31-2.72-.94-.91-1.55-.91-2.8v-5.91Z"/>
  <path class="cls-16" d="M59.42,69.3l10,10M59.42,79.3l10-10"/>
  <polygon class="cls-39" points="89.09 69.38 90.38 69.38 90.38 77.77 94.99 77.77 94.99 78.85 89.09 78.85 89.09 69.38"/>
  <path class="cls-39" d="M97.62,70.43v3.37h1.61c.61,0,1.08-.14,1.39-.43.31-.29.48-.7.48-1.26s-.17-.96-.48-1.25c-.31-.29-.78-.43-1.39-.43h-1.61ZM100.83,74.41c.27.1.55.3.81.6.26.31.52.73.78,1.26l1.3,2.59h-1.38l-1.21-2.43c-.31-.62-.62-1.05-.91-1.26-.3-.21-.7-.31-1.21-.31h-1.39v4h-1.29v-9.48h2.9c1.08,0,1.89.23,2.42.68.53.45.81,1.14.81,2.05,0,.6-.14,1.11-.42,1.49-.29.39-.69.66-1.21.81Z"/>
  <path class="cls-39" d="M105.22,69.38h1.29v5.76c0,1.01.18,1.75.55,2.2.36.44.96.66,1.79.66s1.42-.22,1.78-.66c.36-.44.56-1.18.56-2.2v-5.76h1.29v5.91c0,1.25-.31,2.17-.92,2.8s-1.51.94-2.7.94-2.11-.31-2.72-.94-.91-1.55-.91-2.8v-5.91Z"/>
  <polygon class="cls-7" points="64.42 100.45 68.66 93.38 64.42 86.31 60.17 93.38 64.42 100.45"/>
  <polygon class="cls-39" points="89.09 88.45 94.54 88.45 94.54 89.53 90.38 89.53 90.38 92.33 94.13 92.33 94.13 93.41 90.38 93.41 90.38 97.93 89.09 97.93 89.09 88.45"/>
  <rect class="cls-39" x="96.56" y="88.45" width="1.29" height="9.48"/>
  <polygon class="cls-39" points="100.4 88.45 105.85 88.45 105.85 89.53 101.69 89.53 101.69 92.33 105.44 92.33 105.44 93.41 101.69 93.41 101.69 97.93 100.4 97.93 100.4 88.45"/>
  <path class="cls-39" d="M111.72,88.29c1.33,0,2.38.46,3.18,1.34.79.88,1.2,2.08,1.2,3.58s-.4,2.69-1.2,3.57c-.81.88-1.86,1.33-3.18,1.33s-2.4-.44-3.2-1.33c-.81-.88-1.2-2.07-1.2-3.57s.39-2.69,1.2-3.58c.79-.88,1.86-1.34,3.2-1.34ZM111.72,89.33c-.94,0-1.68.35-2.22,1.04-.55.7-.82,1.64-.82,2.83s.27,2.14.82,2.83c.55.7,1.29,1.04,2.22,1.04s1.66-.34,2.21-1.04c.55-.69.82-1.64.82-2.83s-.27-2.13-.82-2.83c-.55-.69-1.29-1.04-2.21-1.04Z"/>
  <path class="cls-5" d="M64.42,117.46c1.33,0,2.6-.53,3.54-1.46.94-.94,1.46-2.21,1.46-3.54s-.53-2.6-1.46-3.54c-.94-.94-2.21-1.46-3.54-1.46s-2.6.53-3.54,1.46c-.94.94-1.46,2.21-1.46,3.54s.53,2.6,1.46,3.54c.94.94,2.21,1.46,3.54,1.46Z"/>
  <path class="cls-39" d="M88.95,107.53h1.29v5.76c0,1.01.18,1.76.55,2.2.36.44.96.66,1.79.66s1.42-.22,1.78-.66.56-1.18.56-2.2v-5.76h1.29v5.92c0,1.25-.31,2.17-.92,2.79-.61.62-1.51.94-2.7.94s-2.11-.31-2.72-.94c-.61-.62-.91-1.55-.91-2.79v-5.92Z"/>
  <polygon class="cls-39" points="98.61 107.53 100.33 107.53 104.53 115.46 104.53 107.53 105.78 107.53 105.78 117.01 104.05 117.01 99.85 109.08 99.85 117.01 98.61 117.01 98.61 107.53"/>
  <rect class="cls-39" x="108.33" y="107.53" width="1.29" height="9.48"/>
  <polygon class="cls-39" points="112.16 107.53 117.61 107.53 117.61 108.61 113.45 108.61 113.45 111.41 117.21 111.41 117.21 112.49 113.45 112.49 113.45 117.01 112.16 117.01 112.16 107.53"/>
</svg>