<?xml version="1.0" encoding="UTF-8"?>
<svg xmlns="http://www.w3.org/2000/svg" version="1.1" xmlns:xlink="http://www.w3.org/1999/xlink" viewBox="0 0 419.1 390.57">
  <defs>
    <style>
      .cls-1 {
        stroke: #ccc;
      }

      .cls-1, .cls-2, .cls-3, .cls-4, .cls-5, .cls-6, .cls-7, .cls-8, .cls-9, .cls-10, .cls-11 {
        fill: none;
      }

      .cls-1, .cls-3, .cls-4, .cls-7 {
        stroke-miterlimit: 10;
      }

      .cls-1, .cls-12 {
        opacity: .8;
      }

      .cls-13 {
        clip-path: url(#clippath-34);
      }

      .cls-14 {
        clip-path: url(#clippath-38);
      }

      .cls-15 {
        clip-path: url(#clippath-21);
      }

      .cls-16 {
        clip-path: url(#clippath-6);
      }

      .cls-17 {
        clip-path: url(#clippath-7);
      }

      .cls-18 {
        clip-path: url(#clippath-17);
      }

      .cls-19 {
        clip-path: url(#clippath-31);
      }

      .cls-20 {
        clip-path: url(#clippath-15);
      }

      .cls-21 {
        clip-path: url(#clippath-33);
      }

      .cls-22 {
        clip-path: url(#clippath-18);
      }

      .cls-23 {
        clip-path: url(#clippath-4);
      }

      .cls-24 {
        clip-path: url(#clippath-22);
      }

      .cls-25 {
        clip-path: url(#clippath-23);
      }

      .cls-2 {
        opacity: .5;
        stroke: #b0b0b0;
        stroke-dasharray: 2.96 1.28;
      }

      .cls-2, .cls-5, .cls-8, .cls-9, .cls-10, .cls-11 {
        stroke-linejoin: round;
      }

      .cls-2, .cls-7, .cls-9 {
        stroke-width: .8px;
      }

      .cls-26 {
        clip-path: url(#clippath-9);
      }

      .cls-27 {
        clip-path: url(#clippath-10);
      }

      .cls-28, .cls-12 {
        fill: #fff;
      }

      .cls-3, .cls-5, .cls-10 {
        stroke: red;
      }

      .cls-29 {
        clip-path: url(#clippath-25);
      }

      .cls-30 {
        clip-path: url(#clippath-27);
      }

      .cls-4, .cls-8, .cls-11 {
        stroke: blue;
      }

      .cls-5, .cls-8, .cls-10, .cls-11 {
        stroke-width: 1.5px;
      }

      .cls-5, .cls-11 {
        stroke-dasharray: 5.55 2.4;
      }

      .cls-31 {
        clip-path: url(#clippath-11);
      }

      .cls-32 {
        clip-path: url(#clippath-36);
      }

      .cls-33 {
        clip-path: url(#clippath-35);
      }

      .cls-34 {
        clip-path: url(#clippath-28);
      }

      .cls-35 {
        clip-path: url(#clippath-1);
      }

      .cls-36 {
        clip-path: url(#clippath-40);
      }

      .cls-37 {
        clip-path: url(#clippath-5);
      }

      .cls-38 {
        clip-path: url(#clippath-20);
      }

      .cls-39 {
        clip-path: url(#clippath-8);
      }

      .cls-40 {
        clip-path: url(#clippath-41);
      }

      .cls-41 {
        clip-path: url(#clippath-3);
      }

      .cls-42 {
        clip-path: url(#clippath-26);
      }

      .cls-43 {
        clip-path: url(#clippath-12);
      }

      .cls-44 {
        clip-path: url(#clippath-14);
      }

      .cls-45 {
        clip-path: url(#clippath-30);
      }

      .cls-46 {
        clip-path: url(#clippath-19);
      }

      .cls-7, .cls-8, .cls-10 {
        stroke-linecap: square;
      }

      .cls-7, .cls-9 {
        stroke: #000;
      }

      .cls-47 {
        clip-path: url(#clippath-32);
      }

      .cls-48 {
        clip-path: url(#clippath-39);
      }

      .cls-49 {
        clip-path: url(#clippath-16);
      }

      .cls-50 {
        clip-path: url(#clippath-2);
      }

      .cls-51 {
        clip-path: url(#clippath-29);
      }

      .cls-52 {
        clip-path: url(#clippath-37);
      }

      .cls-53 {
        clip-path: url(#clippath-13);
      }

      .cls-54 {
        clip-path: url(#clippath-24);
      }

      .cls-55 {
        clip-path: url(#clippath);
      }
    </style>
    <clipPath id="clippath">
      <rect class="cls-6" x="39.72" y="69.5" width="372.19" height="277.2"/>
    </clipPath>
    <clipPath id="clippath-1">
      <rect class="cls-6" x="39.72" y="69.5" width="372.19" height="277.2"/>
    </clipPath>
    <clipPath id="clippath-2">
      <rect class="cls-6" x="39.72" y="69.5" width="372.19" height="277.2"/>
    </clipPath>
    <clipPath id="clippath-3">
      <rect class="cls-6" x="39.72" y="69.5" width="372.19" height="277.2"/>
    </clipPath>
    <clipPath id="clippath-4">
      <rect class="cls-6" x="39.72" y="69.5" width="372.19" height="277.2"/>
    </clipPath>
    <clipPath id="clippath-5">
      <rect class="cls-6" x="39.72" y="69.5" width="372.19" height="277.2"/>
    </clipPath>
    <clipPath id="clippath-6">
      <rect class="cls-6" x="288.37" y="360.27" width="42.22" height="25.44"/>
    </clipPath>
    <clipPath id="clippath-7">
      <rect class="cls-6" x="39.72" y="69.5" width="372.19" height="277.2"/>
    </clipPath>
    <clipPath id="clippath-8">
      <rect class="cls-6" x="39.72" y="69.5" width="372.19" height="277.2"/>
    </clipPath>
    <clipPath id="clippath-9">
      <rect class="cls-6" x="39.72" y="69.5" width="372.19" height="277.2"/>
    </clipPath>
    <clipPath id="clippath-10">
      <rect class="cls-6" x="39.72" y="69.5" width="372.19" height="277.2"/>
    </clipPath>
    <clipPath id="clippath-11">
      <rect class="cls-6" x="39.72" y="69.5" width="372.19" height="277.2"/>
    </clipPath>
    <clipPath id="clippath-12">
      <rect class="cls-6" x="39.72" y="69.5" width="372.19" height="277.2"/>
    </clipPath>
    <clipPath id="clippath-13">
      <rect class="cls-6" x="39.72" y="69.5" width="372.19" height="277.2"/>
    </clipPath>
    <clipPath id="clippath-14">
      <rect class="cls-6" x="39.72" y="69.5" width="372.19" height="277.2"/>
    </clipPath>
    <clipPath id="clippath-15">
      <rect class="cls-6" x="48.63" y="237.64" width="16" height="16"/>
    </clipPath>
    <clipPath id="clippath-16">
      <rect class="cls-6" x="116.3" y="276.23" width="16" height="16"/>
    </clipPath>
    <clipPath id="clippath-17">
      <rect class="cls-6" x="183.97" y="279.13" width="16" height="16"/>
    </clipPath>
    <clipPath id="clippath-18">
      <rect class="cls-6" x="251.64" y="280.56" width="16" height="16"/>
    </clipPath>
    <clipPath id="clippath-19">
      <rect class="cls-6" x="319.31" y="280.64" width="16" height="16"/>
    </clipPath>
    <clipPath id="clippath-20">
      <rect class="cls-6" x="386.98" y="281.73" width="16" height="16"/>
    </clipPath>
    <clipPath id="clippath-21">
      <rect class="cls-6" x="39.72" y="69.5" width="372.19" height="277.2"/>
    </clipPath>
    <clipPath id="clippath-22">
      <rect class="cls-6" x="48.63" y="326.1" width="16" height="16"/>
    </clipPath>
    <clipPath id="clippath-23">
      <rect class="cls-6" x="116.3" y="211.7" width="16" height="16"/>
    </clipPath>
    <clipPath id="clippath-24">
      <rect class="cls-6" x="183.97" y="176.99" width="16" height="16"/>
    </clipPath>
    <clipPath id="clippath-25">
      <rect class="cls-6" x="251.64" y="155.51" width="16" height="16"/>
    </clipPath>
    <clipPath id="clippath-26">
      <rect class="cls-6" x="319.31" y="138.67" width="16" height="16"/>
    </clipPath>
    <clipPath id="clippath-27">
      <rect class="cls-6" x="386.98" y="122.58" width="16" height="16"/>
    </clipPath>
    <clipPath id="clippath-28">
      <rect class="cls-6" x="39.72" y="69.5" width="372.19" height="277.2"/>
    </clipPath>
    <clipPath id="clippath-29">
      <rect class="cls-6" x="48.63" y="229.92" width="16" height="16"/>
    </clipPath>
    <clipPath id="clippath-30">
      <rect class="cls-6" x="116.3" y="272.18" width="16" height="16"/>
    </clipPath>
    <clipPath id="clippath-31">
      <rect class="cls-6" x="183.97" y="276.49" width="16" height="16"/>
    </clipPath>
    <clipPath id="clippath-32">
      <rect class="cls-6" x="251.64" y="277.18" width="16" height="16"/>
    </clipPath>
    <clipPath id="clippath-33">
      <rect class="cls-6" x="319.31" y="277.43" width="16" height="16"/>
    </clipPath>
    <clipPath id="clippath-34">
      <rect class="cls-6" x="386.98" y="277.86" width="16" height="16"/>
    </clipPath>
    <clipPath id="clippath-35">
      <rect class="cls-6" x="39.72" y="69.5" width="372.19" height="277.2"/>
    </clipPath>
    <clipPath id="clippath-36">
      <rect class="cls-6" x="48.63" y="326.1" width="16" height="16"/>
    </clipPath>
    <clipPath id="clippath-37">
      <rect class="cls-6" x="116.3" y="188.24" width="16" height="16"/>
    </clipPath>
    <clipPath id="clippath-38">
      <rect class="cls-6" x="183.97" y="144.08" width="16" height="16"/>
    </clipPath>
    <clipPath id="clippath-39">
      <rect class="cls-6" x="251.64" y="115.31" width="16" height="16"/>
    </clipPath>
    <clipPath id="clippath-40">
      <rect class="cls-6" x="319.31" y="92.87" width="16" height="16"/>
    </clipPath>
    <clipPath id="clippath-41">
      <rect class="cls-6" x="386.98" y="74.1" width="16" height="16"/>
    </clipPath>
  </defs>
  <!-- Generator: Adobe Illustrator 28.6.0, SVG Export Plug-In . SVG Version: 1.2.0 Build 709)  -->
  <g>
    <g id="Layer_1">
      <rect class="cls-28" width="419.1" height="390.57"/>
      <rect class="cls-28" x="39.72" y="69.5" width="372.19" height="277.2"/>
      <g class="cls-55">
        <line class="cls-2" x1="56.63" y1="346.7" x2="56.63" y2="69.5"/>
      </g>
      <line x1="56.63" y1="346.7" x2="56.63" y2="350.2"/>
      <line class="cls-9" x1="56.63" y1="346.7" x2="56.63" y2="350.2"/>
      <path d="M56.63,353.87c.81,0,1.43.33,1.87.97.43.65.65,1.59.65,2.81s-.22,2.17-.65,2.81c-.44.64-1.06.96-1.88.96s-1.44-.32-1.87-.96-.64-1.58-.64-2.81.21-2.16.64-2.81c.43-.64,1.06-.97,1.88-.97ZM56.63,354.65c-.51,0-.89.25-1.15.75-.26.5-.38,1.25-.38,2.25s.12,1.75.38,2.25c.26.5.64.75,1.15.75s.89-.25,1.15-.75c.25-.5.38-1.25.38-2.25s-.13-1.75-.38-2.25c-.26-.5-.64-.75-1.15-.75Z"/>
      <g class="cls-35">
        <line class="cls-2" x1="124.3" y1="346.7" x2="124.3" y2="69.5"/>
      </g>
      <line x1="124.3" y1="346.7" x2="124.3" y2="350.2"/>
      <line class="cls-9" x1="124.3" y1="346.7" x2="124.3" y2="350.2"/>
      <polygon points="122.36 360.46 123.97 360.46 123.97 354.9 122.22 355.25 122.22 354.35 123.96 354 124.95 354 124.95 360.46 126.56 360.46 126.56 361.29 122.36 361.29 122.36 360.46"/>
      <g class="cls-50">
        <line class="cls-2" x1="191.97" y1="346.7" x2="191.97" y2="69.5"/>
      </g>
      <line x1="191.97" y1="346.7" x2="191.97" y2="350.2"/>
      <line class="cls-9" x1="191.97" y1="346.7" x2="191.97" y2="350.2"/>
      <path d="M190.71,360.46h3.44v.83h-4.63v-.83c.37-.38.88-.9,1.53-1.56.64-.65,1.05-1.07,1.22-1.26.32-.35.54-.65.66-.9.12-.24.19-.49.19-.73,0-.38-.14-.7-.41-.94-.27-.24-.62-.37-1.06-.37-.31,0-.64.06-.98.16-.34.11-.71.27-1.1.49v-1c.4-.16.77-.28,1.11-.36.34-.08.66-.12.95-.12.75,0,1.35.19,1.8.57.45.38.68.88.68,1.51,0,.3-.06.59-.17.85-.11.27-.31.59-.61.95-.08.1-.34.37-.78.82-.44.45-1.05,1.08-1.84,1.89Z"/>
      <g class="cls-41">
        <line class="cls-2" x1="259.64" y1="346.7" x2="259.64" y2="69.5"/>
      </g>
      <line x1="259.64" y1="346.7" x2="259.64" y2="350.2"/>
      <line class="cls-9" x1="259.64" y1="346.7" x2="259.64" y2="350.2"/>
      <path d="M260.52,357.36c.47.1.84.31,1.1.63s.4.72.4,1.18c0,.72-.25,1.28-.74,1.67-.5.39-1.2.58-2.11.58-.31,0-.63-.03-.95-.09-.32-.05-.66-.14-1-.26v-.95c.27.16.57.28.9.36.32.08.66.12,1.02.12.62,0,1.09-.12,1.41-.36.32-.24.49-.6.49-1.07,0-.42-.15-.76-.45-1-.3-.24-.72-.37-1.26-.37h-.85v-.81h.89c.48,0,.85-.09,1.11-.29.26-.19.39-.47.39-.84s-.14-.66-.4-.86c-.27-.2-.65-.3-1.14-.3-.27,0-.56.03-.87.09s-.65.15-1.02.27v-.88c.37-.1.72-.18,1.05-.23.32-.05.63-.08.93-.08.74,0,1.33.17,1.77.51s.66.8.66,1.38c0,.4-.12.74-.35,1.02-.23.28-.56.48-.98.58Z"/>
      <g class="cls-23">
        <line class="cls-2" x1="327.31" y1="346.7" x2="327.31" y2="69.5"/>
      </g>
      <line x1="327.31" y1="346.7" x2="327.31" y2="350.2"/>
      <line class="cls-9" x1="327.31" y1="346.7" x2="327.31" y2="350.2"/>
      <path d="M327.65,354h1.24v4.75h1.04v.82h-1.04v1.72h-.98v-1.72h-3.29v-.95l3.03-4.62ZM327.91,354.86l-2.49,3.89h2.49v-3.89Z"/>
      <g class="cls-37">
        <line class="cls-2" x1="394.98" y1="346.7" x2="394.98" y2="69.5"/>
      </g>
      <line x1="394.98" y1="346.7" x2="394.98" y2="350.2"/>
      <line class="cls-9" x1="394.98" y1="346.7" x2="394.98" y2="350.2"/>
      <path d="M392.88,354h3.87v.83h-2.97v1.79c.14-.05.29-.09.43-.11.14-.02.29-.04.43-.04.81,0,1.45.23,1.93.67.48.45.72,1.05.72,1.81s-.25,1.4-.74,1.83-1.18.64-2.06.64c-.31,0-.62-.03-.94-.07-.32-.05-.64-.12-.98-.23v-.99c.29.16.59.28.91.36.31.08.64.11.99.11.56,0,1.01-.14,1.34-.44.32-.3.49-.7.49-1.21s-.17-.9-.49-1.2c-.33-.3-.78-.45-1.34-.45-.26,0-.53.03-.79.09-.26.06-.53.15-.8.27v-3.66Z"/>
      <path d="M133.1,367.83h1.68l4.17,10.94h-1.54l-.99-2.81h-4.93l-.99,2.81h-1.56l4.17-10.94ZM133.94,369.28l-2.01,5.44h4.02l-2.01-5.44Z"/>
      <path d="M141.29,374.67c0,.99.19,1.77.6,2.34.4.57.96.84,1.68.84s1.27-.27,1.7-.84c.4-.57.61-1.35.61-2.34s-.21-1.75-.61-2.32c-.42-.57-.98-.86-1.7-.86s-1.27.28-1.68.86c-.41.57-.6,1.33-.6,2.32ZM145.88,371.8v-4.44h1.35v11.4h-1.35v-1.23c-.29.5-.65.86-1.08,1.08-.43.22-.94.34-1.54.34-.99,0-1.8-.39-2.43-1.17-.63-.78-.93-1.83-.93-3.12s.3-2.32.93-3.12c.63-.78,1.44-1.18,2.43-1.18.6,0,1.11.12,1.54.36s.79.6,1.08,1.08Z"/>
      <path d="M150.81,374.67c0,.99.19,1.77.6,2.34.4.57.96.84,1.68.84s1.27-.27,1.7-.84c.4-.57.61-1.35.61-2.34s-.21-1.75-.61-2.32c-.42-.57-.98-.86-1.7-.86s-1.27.28-1.68.86c-.41.57-.6,1.33-.6,2.32ZM155.4,371.8v-4.44h1.35v11.4h-1.35v-1.23c-.29.5-.65.86-1.08,1.08-.43.22-.94.34-1.54.34-.99,0-1.8-.39-2.43-1.17-.63-.78-.93-1.83-.93-3.12s.3-2.32.93-3.12c.63-.78,1.44-1.18,2.43-1.18.6,0,1.11.12,1.54.36s.79.6,1.08,1.08Z"/>
      <path d="M165.19,373.93c-.01-.73-.23-1.32-.62-1.77-.4-.44-.94-.66-1.6-.66-.75,0-1.35.22-1.8.64s-.72,1.02-.78,1.78h4.8ZM166.54,374.32v.66h-6.19c.06.93.33,1.65.84,2.13.5.48,1.18.72,2.09.72.51,0,1.02-.06,1.5-.18.48-.12.97-.32,1.46-.59v1.27c-.48.21-.98.38-1.49.47-.51.09-1.04.15-1.54.15-1.32,0-2.36-.38-3.12-1.12s-1.14-1.78-1.14-3.09.36-2.4,1.08-3.2c.72-.78,1.71-1.18,2.94-1.18,1.11,0,1.98.36,2.62,1.07.63.72.96,1.68.96,2.9Z"/>
      <path d="M169.56,374.67c0,.99.19,1.77.6,2.34.4.57.96.84,1.68.84s1.27-.27,1.7-.84c.4-.57.61-1.35.61-2.34s-.21-1.75-.61-2.32c-.42-.57-.98-.86-1.7-.86s-1.27.28-1.68.86c-.41.57-.6,1.33-.6,2.32ZM174.15,371.8v-4.44h1.35v11.4h-1.35v-1.23c-.29.5-.65.86-1.08,1.08-.43.22-.94.34-1.54.34-.99,0-1.8-.39-2.43-1.17-.63-.78-.93-1.83-.93-3.12s.3-2.32.93-3.12c.63-.78,1.44-1.18,2.43-1.18.6,0,1.11.12,1.54.36s.79.6,1.08,1.08Z"/>
      <path d="M188.95,370.87v1.26c-.39-.21-.77-.36-1.16-.47s-.76-.16-1.15-.16c-.87,0-1.56.28-2.04.84-.48.55-.72,1.33-.72,2.32s.24,1.78.72,2.34,1.17.82,2.04.82c.39,0,.76-.05,1.15-.15.39-.11.76-.27,1.16-.48v1.25c-.39.18-.78.31-1.17.39-.4.07-.84.12-1.29.12-1.23,0-2.22-.38-2.94-1.15-.74-.77-1.1-1.82-1.1-3.14s.36-2.39,1.1-3.15,1.74-1.16,3.03-1.16c.42,0,.82.05,1.21.14s.78.21,1.16.38Z"/>
      <path d="M197.71,374.08v4.68h-1.35v-1.24c-.32.51-.71.87-1.15,1.1-.45.22-1.02.34-1.68.34-.84,0-1.51-.22-2.01-.69-.49-.47-.74-1.1-.74-1.89,0-.91.3-1.61.93-2.09.62-.47,1.53-.7,2.76-.7h1.89v-.14c0-.61-.21-1.09-.61-1.44-.4-.33-.98-.51-1.71-.51-.48,0-.93.06-1.38.18-.45.12-.87.29-1.27.5v-1.25c.48-.18.96-.33,1.43-.42s.91-.15,1.36-.15c1.19,0,2.07.32,2.66.93.58.61.88,1.55.88,2.79ZM195.02,374.64c-1.1,0-1.85.13-2.26.38-.42.26-.63.68-.63,1.27,0,.48.15.87.46,1.14.32.28.75.42,1.29.42.75,0,1.35-.26,1.8-.8.45-.52.68-1.23.68-2.11v-.3h-1.33Z"/>
      <path d="M206.39,370.87v1.26c-.39-.21-.77-.36-1.16-.47s-.76-.16-1.15-.16c-.87,0-1.56.28-2.04.84-.48.55-.72,1.33-.72,2.32s.24,1.78.72,2.34,1.17.82,2.04.82c.39,0,.76-.05,1.15-.15.39-.11.76-.27,1.16-.48v1.25c-.39.18-.78.31-1.17.39-.4.07-.84.12-1.29.12-1.23,0-2.22-.38-2.94-1.15-.74-.77-1.1-1.82-1.1-3.14s.36-2.39,1.1-3.15,1.74-1.16,3.03-1.16c.42,0,.82.05,1.21.14s.78.21,1.16.38Z"/>
      <path d="M215.55,373.81v4.95h-1.35v-4.9c0-.78-.16-1.35-.46-1.74-.3-.39-.75-.58-1.35-.58-.74,0-1.31.24-1.73.7s-.63,1.09-.63,1.89v4.63h-1.35v-11.4h1.35v4.47c.32-.48.69-.85,1.14-1.09.43-.24.95-.38,1.51-.38.93,0,1.65.3,2.13.89s.74,1.44.74,2.57Z"/>
      <path d="M223.9,373.93c-.01-.73-.23-1.32-.62-1.77-.4-.44-.94-.66-1.6-.66-.75,0-1.35.22-1.8.64s-.72,1.02-.78,1.78h4.8ZM225.25,374.32v.66h-6.19c.06.93.33,1.65.84,2.13.5.48,1.18.72,2.09.72.51,0,1.02-.06,1.5-.18.48-.12.97-.32,1.46-.59v1.27c-.48.21-.98.38-1.49.47-.51.09-1.04.15-1.54.15-1.32,0-2.36-.38-3.12-1.12s-1.14-1.78-1.14-3.09.36-2.4,1.08-3.2c.72-.78,1.71-1.18,2.94-1.18,1.11,0,1.98.36,2.62,1.07.63.72.96,1.68.96,2.9Z"/>
      <path d="M238.14,370.87v1.26c-.39-.21-.77-.36-1.16-.47s-.76-.16-1.15-.16c-.87,0-1.56.28-2.04.84-.48.55-.72,1.33-.72,2.32s.24,1.78.72,2.34,1.17.82,2.04.82c.39,0,.76-.05,1.15-.15.39-.11.76-.27,1.16-.48v1.25c-.39.18-.78.31-1.17.39-.4.07-.84.12-1.29.12-1.23,0-2.22-.38-2.94-1.15-.74-.77-1.1-1.82-1.1-3.14s.36-2.39,1.1-3.15,1.74-1.16,3.03-1.16c.42,0,.82.05,1.21.14s.78.21,1.16.38Z"/>
      <path d="M246.9,374.08v4.68h-1.35v-1.24c-.32.51-.71.87-1.15,1.1-.45.22-1.02.34-1.68.34-.84,0-1.51-.22-2.01-.69-.49-.47-.74-1.1-.74-1.89,0-.91.3-1.61.93-2.09.62-.47,1.53-.7,2.76-.7h1.89v-.14c0-.61-.21-1.09-.61-1.44-.4-.33-.98-.51-1.71-.51-.48,0-.93.06-1.38.18-.45.12-.87.29-1.27.5v-1.25c.48-.18.96-.33,1.43-.42s.91-.15,1.36-.15c1.19,0,2.07.32,2.66.93.58.61.88,1.55.88,2.79ZM244.21,374.64c-1.1,0-1.85.13-2.26.38-.42.26-.63.68-.63,1.27,0,.48.15.87.46,1.14.32.28.75.42,1.29.42.75,0,1.35-.26,1.8-.8.45-.52.68-1.23.68-2.11v-.3h-1.33Z"/>
      <path d="M255.56,374.67c0-.99-.21-1.75-.61-2.32-.42-.57-.98-.86-1.68-.86s-1.27.28-1.68.86c-.42.57-.62,1.33-.62,2.32s.2,1.77.62,2.34c.4.57.96.84,1.68.84s1.26-.27,1.68-.84c.4-.57.61-1.35.61-2.34ZM250.97,377.53v4.34h-1.35v-11.31h1.35v1.24c.27-.48.63-.84,1.07-1.08s.96-.36,1.56-.36c.99,0,1.8.41,2.43,1.18.62.8.93,1.83.93,3.12s-.32,2.34-.93,3.12c-.63.78-1.44,1.17-2.43,1.17-.6,0-1.12-.12-1.56-.34-.43-.23-.79-.59-1.07-1.08Z"/>
      <path d="M265.61,374.08v4.68h-1.35v-1.24c-.32.51-.71.87-1.15,1.1-.45.22-1.02.34-1.68.34-.84,0-1.51-.22-2.01-.69s-.74-1.1-.74-1.89c0-.91.3-1.61.93-2.09.62-.47,1.53-.7,2.76-.7h1.89v-.14c0-.61-.21-1.09-.62-1.44-.4-.33-.97-.51-1.71-.51-.48,0-.93.06-1.38.18-.45.12-.87.29-1.27.5v-1.25c.48-.18.96-.33,1.42-.42.47-.09.92-.15,1.37-.15,1.18,0,2.07.32,2.65.93.58.61.88,1.55.88,2.79ZM262.93,374.64c-1.1,0-1.85.13-2.26.38-.42.26-.63.68-.63,1.27,0,.48.15.87.46,1.14.32.28.75.42,1.29.42.75,0,1.35-.26,1.8-.8.45-.52.68-1.23.68-2.11v-.3h-1.34Z"/>
      <path d="M274.29,370.87v1.26c-.39-.21-.77-.36-1.15-.47-.39-.1-.77-.16-1.15-.16-.87,0-1.56.28-2.04.84-.48.55-.72,1.33-.72,2.32s.24,1.78.72,2.34,1.17.82,2.04.82c.39,0,.76-.05,1.15-.15.39-.11.76-.27,1.15-.48v1.25c-.39.18-.78.31-1.17.39-.4.07-.84.12-1.29.12-1.23,0-2.22-.38-2.94-1.15-.74-.77-1.1-1.82-1.1-3.14s.36-2.39,1.1-3.15c.73-.76,1.74-1.16,3.03-1.16.42,0,.82.05,1.21.14.39.09.78.21,1.15.38Z"/>
      <path d="M276.63,367.36h1.35v1.71h-1.35v-1.71ZM276.63,370.56h1.35v8.2h-1.35v-8.2Z"/>
      <path d="M282.13,368.23v2.33h2.77v1.05h-2.77v4.45c0,.67.09,1.11.27,1.29.18.19.55.28,1.12.28h1.38v1.12h-1.38c-1.05,0-1.77-.19-2.16-.59-.39-.39-.59-1.1-.59-2.11v-4.45h-.99v-1.05h.99v-2.33h1.35Z"/>
      <path d="M290.1,379.51c-.39.96-.76,1.61-1.12,1.9-.36.3-.84.45-1.44.45h-1.08v-1.12h.8c.36,0,.64-.09.85-.27.21-.18.43-.59.69-1.24l.24-.6-3.32-8.07h1.42l2.57,6.42,2.57-6.42h1.42l-3.6,8.95Z"/>
      <polygon points="295.9 376.9 297.45 376.9 297.45 378.16 296.25 380.49 295.3 380.49 295.9 378.16 295.9 376.9"/>
      <polygon points="316.46 367.83 317.95 367.83 316.07 377.53 321.4 377.53 321.16 378.76 314.35 378.76 316.46 367.83"/>
      <g class="cls-16">
        <path d="M303.8,378.76l4.17-10.93h1.68l4.17,10.93h-10.02ZM308.81,369.28l-3,8.25h6l-3-8.25Z"/>
      </g>
      <g class="cls-17">
        <line class="cls-2" x1="39.72" y1="334.1" x2="411.9" y2="334.1"/>
      </g>
      <line x1="39.72" y1="334.1" x2="36.22" y2="334.1"/>
      <line class="cls-9" x1="39.72" y1="334.1" x2="36.22" y2="334.1"/>
      <path d="M28.9,329.9c.81,0,1.43.33,1.87.97.43.65.65,1.59.65,2.81s-.22,2.17-.65,2.81c-.44.64-1.06.96-1.88.96s-1.44-.32-1.87-.96c-.43-.64-.64-1.58-.64-2.81s.21-2.16.64-2.81c.43-.64,1.06-.97,1.88-.97ZM28.9,330.68c-.51,0-.89.25-1.15.75s-.38,1.25-.38,2.25.12,1.75.38,2.25.64.75,1.15.75.89-.25,1.15-.75c.25-.5.38-1.25.38-2.25s-.13-1.75-.38-2.25c-.26-.5-.64-.75-1.15-.75Z"/>
      <g class="cls-39">
        <line class="cls-2" x1="39.72" y1="294.11" x2="411.9" y2="294.11"/>
      </g>
      <line x1="39.72" y1="294.11" x2="36.22" y2="294.11"/>
      <line class="cls-9" x1="39.72" y1="294.11" x2="36.22" y2="294.11"/>
      <polygon points="26.96 296.37 28.57 296.37 28.57 290.81 26.82 291.16 26.82 290.26 28.56 289.91 29.55 289.91 29.55 296.37 31.16 296.37 31.16 297.2 26.96 297.2 26.96 296.37"/>
      <g class="cls-26">
        <line class="cls-2" x1="39.72" y1="254.11" x2="411.9" y2="254.11"/>
      </g>
      <line x1="39.72" y1="254.11" x2="36.22" y2="254.11"/>
      <line class="cls-9" x1="39.72" y1="254.11" x2="36.22" y2="254.11"/>
      <path d="M27.64,256.5h3.44v.83h-4.63v-.83c.37-.38.88-.9,1.53-1.56.64-.65,1.05-1.07,1.22-1.26.32-.35.54-.65.66-.9.12-.24.19-.49.19-.73,0-.38-.14-.7-.41-.94s-.62-.37-1.06-.37c-.31,0-.64.06-.98.16-.34.11-.71.27-1.1.49v-1c.4-.16.77-.28,1.11-.36s.66-.12.95-.12c.75,0,1.35.19,1.8.57.45.38.68.88.68,1.51,0,.3-.06.59-.17.85-.11.27-.31.59-.61.95-.08.1-.34.37-.78.82s-1.05,1.08-1.84,1.89Z"/>
      <g class="cls-27">
        <line class="cls-2" x1="39.72" y1="214.12" x2="411.9" y2="214.12"/>
      </g>
      <line x1="39.72" y1="214.12" x2="36.22" y2="214.12"/>
      <line class="cls-9" x1="39.72" y1="214.12" x2="36.22" y2="214.12"/>
      <path d="M29.78,213.41c.47.1.84.31,1.1.63.26.32.4.72.4,1.18,0,.72-.25,1.28-.74,1.67-.5.39-1.2.58-2.11.58-.31,0-.63-.03-.95-.09-.32-.05-.66-.14-1-.26v-.95c.27.16.57.28.9.36.32.08.66.12,1.02.12.62,0,1.09-.12,1.41-.36.32-.24.49-.6.49-1.07,0-.42-.15-.76-.45-1-.3-.24-.72-.37-1.26-.37h-.85v-.81h.89c.48,0,.85-.09,1.11-.29.26-.19.39-.47.39-.84s-.14-.66-.4-.86c-.27-.2-.65-.3-1.14-.3-.27,0-.56.03-.87.09s-.65.15-1.02.27v-.88c.37-.1.72-.18,1.05-.23.32-.05.63-.08.93-.08.74,0,1.33.17,1.77.51.44.34.66.8.66,1.38,0,.4-.12.74-.35,1.02s-.56.48-.98.58Z"/>
      <g class="cls-31">
        <line class="cls-2" x1="39.72" y1="174.13" x2="411.9" y2="174.13"/>
      </g>
      <line x1="39.72" y1="174.13" x2="36.22" y2="174.13"/>
      <line class="cls-9" x1="39.72" y1="174.13" x2="36.22" y2="174.13"/>
      <path d="M29.24,169.93h1.24v4.75h1.04v.82h-1.04v1.72h-.98v-1.72h-3.29v-.95l3.03-4.62ZM29.5,170.79l-2.49,3.89h2.49v-3.89Z"/>
      <g class="cls-43">
        <line class="cls-2" x1="39.72" y1="134.13" x2="411.9" y2="134.13"/>
      </g>
      <line x1="39.72" y1="134.13" x2="36.22" y2="134.13"/>
      <line class="cls-9" x1="39.72" y1="134.13" x2="36.22" y2="134.13"/>
      <path d="M26.8,129.94h3.87v.83h-2.97v1.79c.14-.05.29-.09.43-.11.14-.02.29-.04.43-.04.81,0,1.45.23,1.93.67.48.45.72,1.05.72,1.81s-.25,1.4-.74,1.83c-.49.43-1.18.64-2.06.64-.31,0-.62-.03-.94-.07-.32-.05-.64-.12-.98-.23v-.99c.29.16.59.28.91.36.31.08.64.11.99.11.56,0,1.01-.14,1.34-.44.32-.3.49-.7.49-1.21s-.17-.9-.49-1.2c-.33-.3-.78-.45-1.34-.45-.26,0-.53.03-.79.09-.26.06-.53.15-.8.27v-3.66Z"/>
      <g class="cls-53">
        <line class="cls-2" x1="39.72" y1="94.14" x2="411.9" y2="94.14"/>
      </g>
      <line x1="39.72" y1="94.14" x2="36.22" y2="94.14"/>
      <line class="cls-9" x1="39.72" y1="94.14" x2="36.22" y2="94.14"/>
      <path d="M30.98,90.23v.9c-.25-.12-.5-.21-.75-.27-.26-.06-.51-.09-.75-.09-.66,0-1.16.22-1.5.66s-.54,1.11-.58,1.99c.19-.28.43-.5.72-.65.29-.15.61-.23.96-.23.73,0,1.31.23,1.73.67s.64,1.05.64,1.81-.23,1.35-.67,1.8c-.44.45-1.03.67-1.76.67-.84,0-1.49-.32-1.93-.96-.45-.64-.67-1.58-.67-2.81,0-1.15.27-2.07.82-2.75.54-.68,1.28-1.03,2.2-1.03.24,0,.49.03.75.07.25.05.51.12.79.22ZM29.02,93.32c-.44,0-.79.16-1.05.46-.26.3-.39.72-.39,1.24s.13.95.39,1.25c.26.3.61.45,1.05.45s.79-.15,1.05-.45c.26-.3.39-.72.39-1.25s-.13-.94-.39-1.24c-.26-.3-.61-.46-1.05-.46Z"/>
      <polygon points="7.66 266.33 7.66 257.09 8.9 257.09 8.9 260.98 18.59 260.98 18.59 262.46 8.9 262.46 8.9 266.33 7.66 266.33"/>
      <path d="M10.19,255.1c0-1.17.39-2.09,1.14-2.76.76-.66,1.82-1,3.16-1s2.4.35,3.15,1c.76.68,1.14,1.59,1.14,2.76s-.38,2.11-1.14,2.77c-.75.66-1.8.99-3.15.99s-2.4-.33-3.16-.99c-.75-.66-1.14-1.59-1.14-2.77ZM11.33,255.1c0,.72.28,1.29.85,1.71.57.42,1.34.63,2.31.63s1.76-.2,2.32-.62.84-.99.84-1.72-.27-1.29-.84-1.71-1.33-.63-2.32-.63-1.74.21-2.31.63c-.57.42-.85.99-.85,1.71Z"/>
      <path d="M8.06,247.76h2.33v-2.78h1.05v2.78h4.46c.68,0,1.11-.09,1.29-.27.19-.18.28-.56.28-1.12v-1.38h1.12v1.38c0,1.05-.19,1.77-.58,2.16-.39.39-1.1.58-2.12.58h-4.46v.99h-1.05v-.99h-2.33v-1.35Z"/>
      <path d="M13.91,236.8h4.68v1.35h-1.25c.51.32.87.71,1.1,1.15s.34,1.02.34,1.68c0,.84-.23,1.51-.69,2.01-.46.49-1.09.74-1.89.74-.91,0-1.6-.3-2.09-.93-.47-.62-.7-1.53-.7-2.76v-1.89h-.14c-.61,0-1.1.21-1.44.61-.33.4-.51.98-.51,1.71,0,.48.06.93.18,1.38.12.45.28.87.49,1.27h-1.24c-.18-.48-.33-.96-.42-1.43s-.15-.91-.15-1.36c0-1.19.32-2.07.93-2.66.61-.58,1.55-.88,2.79-.88ZM14.47,239.48c0,1.1.14,1.85.38,2.26.26.42.68.63,1.27.63.48,0,.87-.15,1.14-.46.28-.32.42-.75.42-1.29,0-.75-.25-1.35-.79-1.8-.53-.45-1.23-.67-2.12-.67h-.3v1.33Z"/>
      <rect x="7.19" y="232.67" width="11.4" height="1.35"/>
      <path d="M10.7,219.17h1.26c-.21.39-.36.77-.47,1.16s-.16.76-.16,1.15c0,.87.28,1.56.84,2.04s1.34.72,2.32.72,1.79-.24,2.34-.72c.56-.48.83-1.17.83-2.04,0-.39-.05-.76-.15-1.15s-.27-.76-.48-1.16h1.24c.18.39.32.78.39,1.17.07.4.12.84.12,1.29,0,1.23-.38,2.22-1.15,2.94-.77.74-1.82,1.1-3.14,1.1s-2.39-.36-3.15-1.1c-.76-.74-1.15-1.74-1.15-3.03,0-.42.05-.82.14-1.21s.21-.78.38-1.16Z"/>
      <path d="M13.91,210.41h4.68v1.35h-1.25c.51.32.87.71,1.1,1.15s.34,1.02.34,1.68c0,.84-.23,1.51-.69,2.01-.46.49-1.09.74-1.89.74-.91,0-1.6-.3-2.09-.93-.47-.62-.7-1.53-.7-2.76v-1.89h-.14c-.61,0-1.1.21-1.44.61-.33.4-.51.98-.51,1.71,0,.48.06.93.18,1.38.12.45.28.87.49,1.27h-1.24c-.18-.48-.33-.96-.42-1.43s-.15-.91-.15-1.36c0-1.19.32-2.07.93-2.66.61-.58,1.55-.88,2.79-.88ZM14.47,213.1c0,1.1.14,1.85.38,2.26.26.42.68.63,1.27.63.48,0,.87-.15,1.14-.46.28-.32.42-.75.42-1.29,0-.75-.25-1.35-.79-1.8-.53-.45-1.23-.67-2.12-.67h-.3v1.33Z"/>
      <path d="M10.7,201.72h1.26c-.21.39-.36.76-.47,1.16-.11.39-.16.76-.16,1.15,0,.87.28,1.56.84,2.04s1.34.72,2.32.72,1.79-.24,2.34-.72c.56-.48.83-1.17.83-2.04,0-.39-.05-.76-.15-1.15-.1-.39-.27-.77-.48-1.16h1.24c.18.39.32.78.39,1.17.07.4.12.84.12,1.29,0,1.23-.38,2.22-1.15,2.94-.77.74-1.82,1.1-3.14,1.1s-2.39-.36-3.15-1.1c-.76-.74-1.15-1.74-1.15-3.03,0-.42.05-.82.14-1.21.09-.39.21-.78.38-1.16Z"/>
      <path d="M13.64,192.56h4.95v1.35h-4.91c-.78,0-1.35.16-1.74.46-.39.3-.59.75-.59,1.35,0,.74.24,1.31.71,1.73.46.42,1.09.63,1.89.63h4.64v1.35H7.19v-1.35h4.47c-.48-.32-.85-.69-1.1-1.14-.24-.43-.38-.95-.38-1.51,0-.93.3-1.65.89-2.13s1.44-.74,2.56-.74Z"/>
      <path d="M13.76,184.2c-.74.01-1.32.23-1.77.62-.43.4-.66.94-.66,1.6,0,.75.23,1.35.65,1.8s1.02.72,1.78.78v-4.8ZM14.15,182.85h.66v6.19c.93-.06,1.65-.33,2.13-.84.48-.5.72-1.18.72-2.09,0-.51-.06-1.02-.18-1.5-.12-.48-.31-.97-.58-1.46h1.27c.21.48.38.98.47,1.49.09.51.15,1.04.15,1.54,0,1.32-.38,2.36-1.12,3.12s-1.78,1.14-3.09,1.14-2.4-.36-3.19-1.08c-.78-.72-1.19-1.71-1.19-2.94,0-1.11.36-1.98,1.06-2.62.72-.63,1.68-.96,2.9-.96Z"/>
      <path d="M13.64,169.05h4.95v1.35h-4.91c-.78,0-1.35.16-1.74.46-.39.3-.59.75-.59,1.35,0,.74.24,1.31.71,1.73.46.42,1.09.63,1.89.63h4.64v1.35H7.19v-1.35h4.47c-.48-.32-.85-.69-1.1-1.14-.24-.43-.38-.95-.38-1.51,0-.93.3-1.65.89-2.13s1.44-.74,2.56-.74Z"/>
      <path d="M7.19,166.37v-1.35h1.71v1.35h-1.71ZM10.39,166.37v-1.35h8.2v1.35h-8.2Z"/>
      <path d="M8.06,160.86h2.33v-2.78h1.05v2.78h4.46c.68,0,1.11-.09,1.29-.27.19-.18.28-.56.28-1.12v-1.38h1.12v1.38c0,1.05-.19,1.77-.58,2.16-.39.39-1.1.58-2.12.58h-4.46v.99h-1.05v-.99h-2.33v-1.35Z"/>
      <path d="M10.63,151.08h1.27c-.18.39-.33.78-.43,1.18-.09.42-.15.84-.15,1.28,0,.68.1,1.18.31,1.51s.51.49.91.49c.32,0,.56-.12.73-.36.18-.24.36-.72.51-1.44l.11-.46c.21-.96.51-1.63.87-2.04.38-.39.9-.6,1.56-.6.76,0,1.36.3,1.8.9.45.6.66,1.44.66,2.49,0,.45-.05.9-.12,1.38-.08.48-.2.97-.38,1.5h-1.4c.27-.49.47-.99.58-1.47.14-.48.19-.96.19-1.44,0-.63-.1-1.12-.31-1.47-.21-.33-.53-.51-.93-.51-.36,0-.65.13-.84.38-.19.24-.39.78-.57,1.62l-.11.46c-.18.84-.45,1.46-.81,1.82-.36.38-.85.56-1.5.56-.76,0-1.36-.27-1.78-.81-.42-.54-.63-1.32-.63-2.34,0-.49.05-.96.12-1.41.08-.44.18-.84.32-1.22Z"/>
      <polygon points="46.73 60.15 44.5 62.39 46.73 64.62 46.15 65.21 43.91 62.97 41.67 65.21 41.09 64.62 43.32 62.39 41.09 60.15 41.67 59.56 43.91 61.8 46.15 59.56 46.73 60.15"/>
      <polygon points="49.33 64.69 50.94 64.69 50.94 59.13 49.19 59.48 49.19 58.58 50.93 58.23 51.92 58.23 51.92 64.69 53.53 64.69 53.53 65.52 49.33 65.52 49.33 64.69"/>
      <path d="M57.64,58.1c.81,0,1.43.33,1.87.97.43.65.65,1.59.65,2.81s-.22,2.17-.65,2.81c-.44.64-1.06.96-1.88.96s-1.44-.32-1.87-.96c-.43-.64-.64-1.58-.64-2.81s.21-2.16.64-2.81c.43-.64,1.06-.97,1.88-.97ZM57.64,58.88c-.51,0-.89.25-1.15.75-.26.5-.38,1.25-.38,2.25s.12,1.75.38,2.25c.26.5.64.75,1.15.75s.89-.25,1.15-.75c.25-.5.38-1.25.38-2.25s-.13-1.75-.38-2.25c-.26-.5-.64-.75-1.15-.75Z"/>
      <path d="M63.76,58.94c.33.07.59.22.77.44.18.22.28.5.28.83,0,.5-.18.9-.52,1.17-.35.27-.84.41-1.48.41-.22,0-.44-.02-.67-.06-.22-.04-.46-.1-.7-.18v-.67c.19.11.4.2.63.25.22.06.46.08.71.08.43,0,.76-.08.99-.25.22-.17.34-.42.34-.75,0-.29-.1-.53-.31-.7-.21-.17-.5-.26-.88-.26h-.59v-.57h.62c.34,0,.6-.06.78-.2.18-.13.27-.33.27-.59s-.1-.46-.28-.6c-.19-.14-.45-.21-.8-.21-.19,0-.39.02-.61.06-.22.04-.46.1-.71.19v-.62c.26-.07.5-.13.74-.16.22-.04.44-.06.65-.06.52,0,.93.12,1.24.36.31.24.46.56.46.97,0,.28-.08.52-.24.71-.16.2-.39.34-.69.41Z"/>
      <g class="cls-44">
        <polyline class="cls-10" points="56.63 245.64 124.3 284.23 191.97 287.13 259.64 288.56 327.31 288.64 394.98 289.73"/>
        <g class="cls-20">
          <polygon class="cls-3" points="56.63 242.64 53.63 248.64 59.63 248.64 56.63 242.64"/>
        </g>
        <g class="cls-49">
          <polygon class="cls-3" points="124.3 281.23 121.3 287.23 127.3 287.23 124.3 281.23"/>
        </g>
        <g class="cls-18">
          <polygon class="cls-3" points="191.97 284.13 188.97 290.13 194.97 290.13 191.97 284.13"/>
        </g>
        <g class="cls-22">
          <polygon class="cls-3" points="259.64 285.56 256.64 291.56 262.64 291.56 259.64 285.56"/>
        </g>
        <g class="cls-46">
          <polygon class="cls-3" points="327.31 285.64 324.31 291.64 330.31 291.64 327.31 285.64"/>
        </g>
        <g class="cls-38">
          <polygon class="cls-3" points="394.98 286.73 391.98 292.73 397.98 292.73 394.98 286.73"/>
        </g>
      </g>
      <g class="cls-15">
        <polyline class="cls-5" points="56.63 334.1 124.3 219.7 191.97 184.99 259.64 163.51 327.31 146.67 394.98 130.58"/>
        <g class="cls-24">
          <polygon class="cls-3" points="56.63 331.1 53.63 337.1 59.63 337.1 56.63 331.1"/>
        </g>
        <g class="cls-25">
          <polygon class="cls-3" points="124.3 216.7 121.3 222.7 127.3 222.7 124.3 216.7"/>
        </g>
        <g class="cls-54">
          <polygon class="cls-3" points="191.97 181.99 188.97 187.99 194.97 187.99 191.97 181.99"/>
        </g>
        <g class="cls-29">
          <polygon class="cls-3" points="259.64 160.51 256.64 166.51 262.64 166.51 259.64 160.51"/>
        </g>
        <g class="cls-42">
          <polygon class="cls-3" points="327.31 143.67 324.31 149.67 330.31 149.67 327.31 143.67"/>
        </g>
        <g class="cls-30">
          <polygon class="cls-3" points="394.98 127.58 391.98 133.58 397.98 133.58 394.98 127.58"/>
        </g>
      </g>
      <g class="cls-34">
        <polyline class="cls-8" points="56.63 237.92 124.3 280.18 191.97 284.49 259.64 285.18 327.31 285.43 394.98 285.86"/>
        <g class="cls-51">
          <rect class="cls-4" x="53.63" y="234.92" width="6" height="6"/>
        </g>
        <g class="cls-45">
          <rect class="cls-4" x="121.3" y="277.18" width="6" height="6"/>
        </g>
        <g class="cls-19">
          <rect class="cls-4" x="188.97" y="281.49" width="6" height="6"/>
        </g>
        <g class="cls-47">
          <rect class="cls-4" x="256.64" y="282.18" width="6" height="6"/>
        </g>
        <g class="cls-21">
          <rect class="cls-4" x="324.31" y="282.43" width="6" height="6"/>
        </g>
        <g class="cls-13">
          <rect class="cls-4" x="391.98" y="282.86" width="6" height="6"/>
        </g>
      </g>
      <g class="cls-33">
        <polyline class="cls-11" points="56.63 334.1 124.3 196.24 191.97 152.08 259.64 123.31 327.31 100.87 394.98 82.1"/>
        <g class="cls-32">
          <rect class="cls-4" x="53.63" y="331.1" width="6" height="6"/>
        </g>
        <g class="cls-52">
          <rect class="cls-4" x="121.3" y="193.24" width="6" height="6"/>
        </g>
        <g class="cls-14">
          <rect class="cls-4" x="188.97" y="149.08" width="6" height="6"/>
        </g>
        <g class="cls-48">
          <rect class="cls-4" x="256.64" y="120.31" width="6" height="6"/>
        </g>
        <g class="cls-36">
          <rect class="cls-4" x="324.31" y="97.87" width="6" height="6"/>
        </g>
        <g class="cls-40">
          <rect class="cls-4" x="391.98" y="79.1" width="6" height="6"/>
        </g>
      </g>
      <line class="cls-7" x1="39.72" y1="346.7" x2="39.72" y2="69.5"/>
      <line class="cls-7" x1="411.9" y1="346.7" x2="411.9" y2="69.5"/>
      <line class="cls-7" x1="39.72" y1="346.7" x2="411.9" y2="346.7"/>
      <line class="cls-7" x1="39.72" y1="69.5" x2="411.9" y2="69.5"/>
      <g>
        <rect class="cls-12" x="43.34" y="7.2" width="364.94" height="45.29" rx="2.8" ry="2.8"/>
        <rect class="cls-1" x="43.34" y="7.2" width="364.94" height="45.29" rx="2.8" ry="2.8"/>
      </g>
      <polyline class="cls-10" points="48.94 18.54 62.94 18.54 76.94 18.54"/>
      <polygon class="cls-3" points="62.94 15.54 59.94 21.54 65.94 21.54 62.94 15.54"/>
      <polygon points="89.51 13.23 91.57 13.23 94.17 20.18 96.79 13.23 98.85 13.23 98.85 23.44 97.5 23.44 97.5 14.48 94.87 21.48 93.48 21.48 90.85 14.48 90.85 23.44 89.51 23.44 89.51 13.23"/>
      <polygon points="104.22 23.44 100.33 13.23 101.77 13.23 105.01 21.83 108.24 13.23 109.68 13.23 105.79 23.44 104.22 23.44"/>
      <rect x="111.17" y="13.23" width="1.39" height="10.21"/>
      <path d="M115.3,13.23h3.12c1.13,0,2,.27,2.59.78s.88,1.27.88,2.27-.29,1.78-.88,2.28c-.59.52-1.46.77-2.59.77h-1.74v4.1h-1.39v-10.21ZM116.68,14.37v3.84h1.74c.64,0,1.13-.15,1.48-.49.35-.34.53-.81.53-1.43s-.18-1.08-.53-1.41c-.35-.34-.84-.5-1.48-.5h-1.74Z"/>
      <path d="M131.16,12.81c-.62,1.06-1.06,2.1-1.36,3.12-.31,1.02-.45,2.06-.45,3.11s.14,2.1.45,3.12c.29,1.04.74,2.06,1.36,3.11h-1.09c-.69-1.08-1.2-2.11-1.54-3.15-.34-1.04-.5-2.06-.5-3.08s.17-2.03.5-3.07c.34-1.04.84-2.09,1.54-3.16h1.09Z"/>
      <path d="M137.47,12.8v1.05h-1.2c-.45,0-.77.1-.94.28-.18.18-.27.5-.27.98v.67h2.07v.98h-2.07v6.68h-1.26v-6.68h-1.2v-.98h1.2v-.53c0-.84.2-1.47.59-1.86s1.02-.59,1.89-.59h1.19Z"/>
      <path d="M138.52,12.8h1.26v1.6h-1.26v-1.6ZM138.52,15.78h1.26v7.66h-1.26v-7.66Z"/>
      <path d="M146.85,16.96c-.14-.08-.29-.14-.46-.18-.17-.03-.35-.06-.55-.06-.71,0-1.26.24-1.64.7-.39.46-.57,1.12-.57,1.99v4.03h-1.26v-7.66h1.26v1.19c.25-.46.6-.81,1.02-1.04s.94-.34,1.55-.34c.08,0,.18.01.29.01.1.01.21.03.35.06v1.29Z"/>
      <path d="M153.05,16.01v1.19c-.36-.17-.73-.31-1.11-.41-.39-.08-.78-.14-1.19-.14-.63,0-1.11.1-1.41.29-.31.2-.46.48-.46.85,0,.29.11.52.34.69s.67.34,1.34.48l.43.1c.9.2,1.53.48,1.9.81.36.35.56.84.56,1.46,0,.71-.28,1.27-.84,1.68-.56.42-1.34.62-2.32.62-.42,0-.84-.04-1.29-.11-.45-.07-.91-.18-1.4-.35v-1.3c.46.25.92.43,1.37.55.45.13.9.18,1.34.18.59,0,1.05-.1,1.37-.29.31-.2.48-.49.48-.87,0-.34-.13-.6-.35-.78-.22-.18-.73-.36-1.51-.53l-.43-.1c-.78-.17-1.36-.42-1.69-.76-.35-.34-.52-.8-.52-1.4,0-.71.25-1.27.76-1.67.5-.39,1.23-.59,2.18-.59.46,0,.9.04,1.32.11.41.07.78.17,1.13.29Z"/>
      <path d="M156.71,13.61v2.17h2.59v.98h-2.59v4.16c0,.63.08,1.04.25,1.2.17.18.52.27,1.05.27h1.29v1.05h-1.29c-.98,0-1.65-.18-2.02-.55-.36-.36-.55-1.02-.55-1.97v-4.16h-.92v-.98h.92v-2.17h1.26Z"/>
      <path d="M166.65,13.61v2.17h2.59v.98h-2.59v4.16c0,.63.08,1.04.25,1.2.17.18.52.27,1.05.27h1.29v1.05h-1.29c-.98,0-1.65-.18-2.02-.55-.36-.36-.55-1.02-.55-1.97v-4.16h-.92v-.98h.92v-2.17h1.26Z"/>
      <path d="M170.89,12.8h1.26v1.6h-1.26v-1.6ZM170.89,15.78h1.26v7.66h-1.26v-7.66Z"/>
      <path d="M180.07,18.93c-.01-.69-.21-1.23-.57-1.65-.38-.41-.88-.62-1.5-.62-.7,0-1.26.21-1.68.6s-.67.95-.73,1.67h4.48ZM181.33,19.3v.62h-5.78c.06.87.31,1.54.78,1.99.46.45,1.11.67,1.95.67.48,0,.95-.06,1.4-.17s.91-.29,1.36-.55v1.19c-.45.2-.91.35-1.39.43-.48.08-.97.14-1.44.14-1.23,0-2.2-.35-2.91-1.05-.71-.7-1.06-1.67-1.06-2.88s.34-2.24,1.01-2.98c.67-.73,1.6-1.11,2.74-1.11,1.04,0,1.85.34,2.45.99.59.67.9,1.57.9,2.7Z"/>
      <path d="M187.83,16.96c-.14-.08-.29-.14-.46-.18-.17-.03-.35-.06-.55-.06-.71,0-1.26.24-1.64.7-.39.46-.57,1.12-.57,1.99v4.03h-1.26v-7.66h1.26v1.19c.25-.46.6-.81,1.02-1.04s.94-.34,1.55-.34c.08,0,.18.01.29.01.1.01.21.03.35.06v1.29Z"/>
      <path d="M188.95,12.81h1.09c.67,1.08,1.19,2.13,1.53,3.16.34,1.04.52,2.06.52,3.07s-.18,2.04-.52,3.08c-.34,1.04-.85,2.07-1.53,3.15h-1.09c.6-1.05,1.05-2.07,1.36-3.11.29-1.02.45-2.06.45-3.12s-.15-2.09-.45-3.11c-.31-1.02-.76-2.06-1.36-3.12Z"/>
      <polyline class="cls-5" points="48.94 39.09 62.94 39.09 76.94 39.09"/>
      <polygon class="cls-3" points="62.94 36.09 59.94 42.09 65.94 42.09 62.94 36.09"/>
      <polygon points="89.51 33.78 91.57 33.78 94.17 40.73 96.79 33.78 98.85 33.78 98.85 43.99 97.5 43.99 97.5 35.03 94.87 42.03 93.48 42.03 90.85 35.03 90.85 43.99 89.51 43.99 89.51 33.78"/>
      <polygon points="104.22 43.99 100.33 33.78 101.77 33.78 105.01 42.38 108.24 33.78 109.68 33.78 105.79 43.99 104.22 43.99"/>
      <rect x="111.17" y="33.78" width="1.39" height="10.21"/>
      <path d="M115.3,33.78h3.12c1.13,0,2,.27,2.59.78s.88,1.27.88,2.27-.29,1.78-.88,2.28c-.59.52-1.46.77-2.59.77h-1.74v4.1h-1.39v-10.21ZM116.68,34.92v3.84h1.74c.64,0,1.13-.15,1.48-.49.35-.34.53-.81.53-1.43s-.18-1.08-.53-1.41c-.35-.34-.84-.5-1.48-.5h-1.74Z"/>
      <path d="M131.16,33.36c-.62,1.06-1.06,2.1-1.36,3.12-.31,1.02-.45,2.06-.45,3.11s.14,2.1.45,3.12c.29,1.04.74,2.06,1.36,3.11h-1.09c-.69-1.08-1.2-2.11-1.54-3.15-.34-1.04-.5-2.06-.5-3.08s.17-2.03.5-3.07c.34-1.04.84-2.09,1.54-3.16h1.09Z"/>
      <path d="M138.48,36.55v1.19c-.36-.17-.73-.31-1.11-.41-.39-.08-.78-.14-1.19-.14-.63,0-1.11.1-1.41.29-.31.2-.46.48-.46.85,0,.29.11.52.34.69s.67.34,1.34.48l.43.1c.9.2,1.53.48,1.9.81.36.35.56.84.56,1.46,0,.71-.28,1.27-.84,1.68-.56.42-1.34.62-2.32.62-.42,0-.84-.04-1.29-.11-.45-.07-.91-.18-1.4-.35v-1.3c.46.25.92.43,1.37.55.45.13.9.18,1.34.18.59,0,1.05-.1,1.37-.29.31-.2.48-.49.48-.87,0-.34-.13-.6-.35-.78-.22-.18-.73-.36-1.51-.53l-.43-.1c-.78-.17-1.36-.42-1.69-.76-.35-.34-.52-.8-.52-1.4,0-.71.25-1.27.76-1.67.5-.39,1.23-.59,2.18-.59.46,0,.9.04,1.32.11.41.07.78.17,1.13.29Z"/>
      <path d="M146.18,39.48c-.01-.69-.21-1.23-.57-1.65-.38-.41-.88-.62-1.5-.62-.7,0-1.26.21-1.68.6s-.67.95-.73,1.67h4.48ZM147.44,39.84v.62h-5.78c.06.87.31,1.54.78,1.99.46.45,1.11.67,1.95.67.48,0,.95-.06,1.4-.17s.91-.29,1.36-.55v1.19c-.45.2-.91.35-1.39.43-.48.08-.97.14-1.44.14-1.23,0-2.2-.35-2.91-1.05-.71-.7-1.06-1.67-1.06-2.88s.34-2.24,1.01-2.98c.67-.73,1.6-1.11,2.74-1.11,1.04,0,1.85.34,2.45.99.59.67.9,1.57.9,2.7Z"/>
      <path d="M155.01,36.62v1.18c-.36-.2-.71-.34-1.08-.43-.36-.1-.71-.15-1.08-.15-.81,0-1.46.27-1.9.78s-.67,1.25-.67,2.17.22,1.67.67,2.18,1.09.77,1.9.77c.36,0,.71-.04,1.08-.14s.71-.25,1.08-.45v1.16c-.36.17-.73.29-1.09.36-.38.07-.78.11-1.2.11-1.15,0-2.07-.35-2.74-1.08-.69-.71-1.02-1.69-1.02-2.93s.34-2.23,1.02-2.94c.69-.71,1.62-1.08,2.83-1.08.39,0,.77.04,1.13.13.36.08.73.2,1.08.35Z"/>
      <path d="M160.17,36.15c1.09,0,1.95.36,2.58,1.06.62.71.94,1.69.94,2.95s-.32,2.24-.94,2.94c-.63.71-1.48,1.06-2.58,1.06s-1.97-.35-2.59-1.06c-.62-.7-.92-1.68-.92-2.94s.31-2.24.92-2.95c.62-.7,1.48-1.06,2.59-1.06ZM160.17,37.21c-.67,0-1.2.27-1.6.8-.39.53-.59,1.25-.59,2.16s.18,1.64.57,2.17c.39.53.92.78,1.61.78s1.2-.25,1.6-.78c.39-.53.59-1.25.59-2.17s-.2-1.62-.59-2.16c-.39-.53-.92-.8-1.6-.8Z"/>
      <path d="M172.14,39.37v4.62h-1.26v-4.58c0-.73-.15-1.26-.43-1.62-.28-.36-.7-.55-1.26-.55-.69,0-1.22.22-1.61.66-.39.43-.59,1.02-.59,1.76v4.33h-1.26v-7.66h1.26v1.19c.29-.45.64-.8,1.06-1.02.41-.22.88-.35,1.41-.35.87,0,1.54.28,1.99.83.45.55.69,1.34.69,2.39Z"/>
      <path d="M175.4,40.17c0,.92.18,1.65.56,2.18.38.53.9.78,1.57.78s1.19-.25,1.58-.78c.38-.53.57-1.26.57-2.18s-.2-1.64-.57-2.17c-.39-.53-.91-.8-1.58-.8s-1.19.27-1.57.8c-.38.53-.56,1.25-.56,2.17ZM179.68,37.49v-4.14h1.26v10.64h-1.26v-1.15c-.27.46-.6.8-1.01,1.01-.41.21-.88.32-1.44.32-.92,0-1.68-.36-2.27-1.09s-.87-1.71-.87-2.91.28-2.17.87-2.91c.59-.73,1.34-1.11,2.27-1.11.56,0,1.04.11,1.44.34.41.22.74.56,1.01,1.01Z"/>
      <path d="M189.23,34.16v2.17h2.59v.98h-2.59v4.16c0,.63.08,1.04.25,1.2.17.18.52.27,1.05.27h1.29v1.05h-1.29c-.98,0-1.65-.18-2.02-.55-.36-.36-.55-1.02-.55-1.97v-4.16h-.92v-.98h.92v-2.17h1.26Z"/>
      <path d="M193.47,33.35h1.26v1.6h-1.26v-1.6ZM193.47,36.33h1.26v7.66h-1.26v-7.66Z"/>
      <path d="M202.66,39.48c-.01-.69-.21-1.23-.57-1.65-.38-.41-.88-.62-1.5-.62-.7,0-1.26.21-1.68.6s-.67.95-.73,1.67h4.48ZM203.92,39.84v.62h-5.78c.06.87.31,1.54.78,1.99.46.45,1.11.67,1.95.67.48,0,.95-.06,1.4-.17s.91-.29,1.36-.55v1.19c-.45.2-.91.35-1.39.43-.48.08-.97.14-1.44.14-1.23,0-2.2-.35-2.91-1.05-.71-.7-1.06-1.67-1.06-2.88s.34-2.24,1.01-2.98c.67-.73,1.6-1.11,2.74-1.11,1.04,0,1.85.34,2.45.99.59.67.9,1.57.9,2.7Z"/>
      <path d="M210.41,37.51c-.14-.08-.29-.14-.46-.18-.17-.03-.35-.06-.55-.06-.71,0-1.26.24-1.64.7-.39.46-.57,1.12-.57,1.99v4.03h-1.26v-7.66h1.26v1.19c.25-.46.6-.81,1.02-1.04s.94-.34,1.55-.34c.08,0,.18.01.29.01.1.01.21.03.35.06v1.29Z"/>
      <path d="M211.53,33.36h1.09c.67,1.08,1.19,2.13,1.53,3.16.34,1.04.52,2.06.52,3.07s-.18,2.04-.52,3.08c-.34,1.04-.85,2.07-1.53,3.15h-1.09c.6-1.05,1.05-2.07,1.36-3.11.29-1.02.45-2.06.45-3.12s-.15-2.09-.45-3.11c-.31-1.02-.76-2.06-1.36-3.12Z"/>
      <polyline class="cls-8" points="243.87 18.54 257.87 18.54 271.87 18.54"/>
      <rect class="cls-4" x="254.87" y="15.54" width="6" height="6"/>
      <polygon points="284.44 13.23 285.83 13.23 285.83 22.28 290.8 22.28 290.8 23.44 284.44 23.44 284.44 13.23"/>
      <polygon points="292.24 13.23 298.11 13.23 298.11 14.4 293.63 14.4 293.63 17.41 297.67 17.41 297.67 18.57 293.63 18.57 293.63 23.44 292.24 23.44 292.24 13.23"/>
      <path d="M300.14,13.23h1.39v6.2c0,1.09.2,1.89.59,2.37.39.48,1.04.71,1.93.71s1.53-.24,1.92-.71.6-1.27.6-2.37v-6.2h1.39v6.37c0,1.34-.34,2.34-.99,3.01-.66.67-1.62,1.01-2.91,1.01s-2.27-.34-2.93-1.01-.98-1.67-.98-3.01v-6.37Z"/>
      <path d="M317.96,12.81c-.62,1.06-1.06,2.1-1.36,3.12-.31,1.02-.45,2.06-.45,3.11s.14,2.1.45,3.12c.29,1.04.74,2.06,1.36,3.11h-1.09c-.69-1.08-1.2-2.11-1.54-3.15-.34-1.04-.5-2.06-.5-3.08s.17-2.03.5-3.07c.34-1.04.84-2.09,1.54-3.16h1.09Z"/>
      <path d="M324.27,12.8v1.05h-1.2c-.45,0-.77.1-.94.28-.18.18-.27.5-.27.98v.67h2.07v.98h-2.07v6.68h-1.26v-6.68h-1.2v-.98h1.2v-.53c0-.84.2-1.47.59-1.86.39-.39,1.02-.59,1.89-.59h1.19Z"/>
      <path d="M325.32,12.8h1.26v1.6h-1.26v-1.6ZM325.32,15.78h1.26v7.66h-1.26v-7.66Z"/>
      <path d="M333.65,16.96c-.14-.08-.29-.14-.46-.18-.17-.03-.35-.06-.55-.06-.71,0-1.26.24-1.64.7-.39.46-.57,1.12-.57,1.99v4.03h-1.26v-7.66h1.26v1.19c.25-.46.6-.81,1.02-1.04s.94-.34,1.55-.34c.08,0,.18.01.29.01.1.01.21.03.35.06v1.29Z"/>
      <path d="M339.86,16.01v1.19c-.36-.17-.73-.31-1.11-.41-.39-.08-.78-.14-1.19-.14-.63,0-1.11.1-1.41.29-.31.2-.46.48-.46.85,0,.29.11.52.34.69s.67.34,1.34.48l.43.1c.9.2,1.53.48,1.9.81.36.35.56.84.56,1.46,0,.71-.28,1.27-.84,1.68-.56.42-1.34.62-2.32.62-.42,0-.84-.04-1.29-.11s-.91-.18-1.4-.35v-1.3c.46.25.92.43,1.37.55.45.13.9.18,1.34.18.59,0,1.05-.1,1.37-.29.31-.2.48-.49.48-.87,0-.34-.13-.6-.35-.78-.22-.18-.73-.36-1.51-.53l-.43-.1c-.78-.17-1.36-.42-1.69-.76-.35-.34-.52-.8-.52-1.4,0-.71.25-1.27.76-1.67.5-.39,1.23-.59,2.18-.59.46,0,.9.04,1.32.11.41.07.78.17,1.13.29Z"/>
      <path d="M343.51,13.61v2.17h2.59v.98h-2.59v4.16c0,.63.08,1.04.25,1.2.17.18.52.27,1.05.27h1.29v1.05h-1.29c-.98,0-1.65-.18-2.02-.55-.36-.36-.55-1.02-.55-1.97v-4.16h-.92v-.98h.92v-2.17h1.26Z"/>
      <path d="M353.45,13.61v2.17h2.59v.98h-2.59v4.16c0,.63.08,1.04.25,1.2.17.18.52.27,1.05.27h1.29v1.05h-1.29c-.98,0-1.65-.18-2.02-.55-.36-.36-.55-1.02-.55-1.97v-4.16h-.92v-.98h.92v-2.17h1.26Z"/>
      <path d="M357.69,12.8h1.26v1.6h-1.26v-1.6ZM357.69,15.78h1.26v7.66h-1.26v-7.66Z"/>
      <path d="M366.87,18.93c-.01-.69-.21-1.23-.57-1.65-.38-.41-.88-.62-1.5-.62-.7,0-1.26.21-1.68.6-.42.39-.67.95-.73,1.67h4.48ZM368.13,19.3v.62h-5.78c.06.87.31,1.54.78,1.99.46.45,1.11.67,1.95.67.48,0,.95-.06,1.4-.17s.91-.29,1.36-.55v1.19c-.45.2-.91.35-1.39.43-.48.08-.97.14-1.44.14-1.23,0-2.2-.35-2.91-1.05-.71-.7-1.06-1.67-1.06-2.88s.34-2.24,1.01-2.98c.67-.73,1.6-1.11,2.74-1.11,1.04,0,1.85.34,2.45.99.59.67.9,1.57.9,2.7Z"/>
      <path d="M374.63,16.96c-.14-.08-.29-.14-.46-.18-.17-.03-.35-.06-.55-.06-.71,0-1.26.24-1.64.7-.39.46-.57,1.12-.57,1.99v4.03h-1.26v-7.66h1.26v1.19c.25-.46.6-.81,1.02-1.04s.94-.34,1.55-.34c.08,0,.18.01.29.01.1.01.21.03.35.06v1.29Z"/>
      <path d="M375.75,12.81h1.09c.67,1.08,1.19,2.13,1.53,3.16.34,1.04.52,2.06.52,3.07s-.18,2.04-.52,3.08c-.34,1.04-.85,2.07-1.53,3.15h-1.09c.6-1.05,1.05-2.07,1.36-3.11.29-1.02.45-2.06.45-3.12s-.15-2.09-.45-3.11c-.31-1.02-.76-2.06-1.36-3.12Z"/>
      <polyline class="cls-11" points="243.87 39.09 257.87 39.09 271.87 39.09"/>
      <rect class="cls-4" x="254.87" y="36.09" width="6" height="6"/>
      <polygon points="284.44 33.78 285.83 33.78 285.83 42.83 290.8 42.83 290.8 43.99 284.44 43.99 284.44 33.78"/>
      <polygon points="292.24 33.78 298.11 33.78 298.11 34.94 293.63 34.94 293.63 37.95 297.67 37.95 297.67 39.12 293.63 39.12 293.63 43.99 292.24 43.99 292.24 33.78"/>
      <path d="M300.14,33.78h1.39v6.2c0,1.09.2,1.89.59,2.37.39.48,1.04.71,1.93.71s1.53-.24,1.92-.71.6-1.27.6-2.37v-6.2h1.39v6.37c0,1.34-.34,2.34-.99,3.01-.66.67-1.62,1.01-2.91,1.01s-2.27-.34-2.93-1.01-.98-1.67-.98-3.01v-6.37Z"/>
      <path d="M317.96,33.36c-.62,1.06-1.06,2.1-1.36,3.12-.31,1.02-.45,2.06-.45,3.11s.14,2.1.45,3.12c.29,1.04.74,2.06,1.36,3.11h-1.09c-.69-1.08-1.2-2.11-1.54-3.15-.34-1.04-.5-2.06-.5-3.08s.17-2.03.5-3.07c.34-1.04.84-2.09,1.54-3.16h1.09Z"/>
      <path d="M325.28,36.55v1.19c-.36-.17-.73-.31-1.11-.41-.39-.08-.78-.14-1.19-.14-.63,0-1.11.1-1.41.29-.31.2-.46.48-.46.85,0,.29.11.52.34.69s.67.34,1.34.48l.43.1c.9.2,1.53.48,1.9.81.36.35.56.84.56,1.46,0,.71-.28,1.27-.84,1.68-.56.42-1.34.62-2.32.62-.42,0-.84-.04-1.29-.11s-.91-.18-1.4-.35v-1.3c.46.25.92.43,1.37.55.45.13.9.18,1.34.18.59,0,1.05-.1,1.37-.29.31-.2.48-.49.48-.87,0-.34-.13-.6-.35-.78-.22-.18-.73-.36-1.51-.53l-.43-.1c-.78-.17-1.36-.42-1.69-.76-.35-.34-.52-.8-.52-1.4,0-.71.25-1.27.76-1.67.5-.39,1.23-.59,2.18-.59.46,0,.9.04,1.32.11.41.07.78.17,1.13.29Z"/>
      <path d="M332.98,39.48c-.01-.69-.21-1.23-.57-1.65-.38-.41-.88-.62-1.5-.62-.7,0-1.26.21-1.68.6-.42.39-.67.95-.73,1.67h4.48ZM334.24,39.84v.62h-5.78c.06.87.31,1.54.78,1.99.46.45,1.11.67,1.95.67.48,0,.95-.06,1.4-.17s.91-.29,1.36-.55v1.19c-.45.2-.91.35-1.39.43-.48.08-.97.14-1.44.14-1.23,0-2.2-.35-2.91-1.05-.71-.7-1.06-1.67-1.06-2.88s.34-2.24,1.01-2.98c.67-.73,1.6-1.11,2.74-1.11,1.04,0,1.85.34,2.45.99.59.67.9,1.57.9,2.7Z"/>
      <path d="M341.82,36.62v1.18c-.36-.2-.71-.34-1.08-.43-.36-.1-.71-.15-1.08-.15-.81,0-1.46.27-1.9.78s-.67,1.25-.67,2.17.22,1.67.67,2.18,1.09.77,1.9.77c.36,0,.71-.04,1.08-.14.36-.1.71-.25,1.08-.45v1.16c-.36.17-.73.29-1.09.36-.38.07-.78.11-1.2.11-1.15,0-2.07-.35-2.74-1.08-.69-.71-1.02-1.69-1.02-2.93s.34-2.23,1.02-2.94c.69-.71,1.62-1.08,2.83-1.08.39,0,.77.04,1.13.13.36.08.73.2,1.08.35Z"/>
      <path d="M346.97,36.15c1.09,0,1.95.36,2.58,1.06.62.71.94,1.69.94,2.95s-.32,2.24-.94,2.94c-.63.71-1.48,1.06-2.58,1.06s-1.97-.35-2.59-1.06c-.62-.7-.92-1.68-.92-2.94s.31-2.24.92-2.95c.62-.7,1.48-1.06,2.59-1.06ZM346.97,37.21c-.67,0-1.2.27-1.6.8-.39.53-.59,1.25-.59,2.16s.18,1.64.57,2.17c.39.53.92.78,1.61.78s1.2-.25,1.6-.78c.39-.53.59-1.25.59-2.17s-.2-1.62-.59-2.16c-.39-.53-.92-.8-1.6-.8Z"/>
      <path d="M358.94,39.37v4.62h-1.26v-4.58c0-.73-.15-1.26-.43-1.62-.28-.36-.7-.55-1.26-.55-.69,0-1.22.22-1.61.66s-.59,1.02-.59,1.76v4.33h-1.26v-7.66h1.26v1.19c.29-.45.64-.8,1.06-1.02.41-.22.88-.35,1.41-.35.87,0,1.54.28,1.99.83.45.55.69,1.34.69,2.39Z"/>
      <path d="M362.2,40.17c0,.92.18,1.65.56,2.18.38.53.9.78,1.57.78s1.19-.25,1.58-.78c.38-.53.57-1.26.57-2.18s-.2-1.64-.57-2.17c-.39-.53-.91-.8-1.58-.8s-1.19.27-1.57.8c-.38.53-.56,1.25-.56,2.17ZM366.48,37.49v-4.14h1.26v10.64h-1.26v-1.15c-.27.46-.6.8-1.01,1.01-.41.21-.88.32-1.44.32-.92,0-1.68-.36-2.27-1.09s-.87-1.71-.87-2.91.28-2.17.87-2.91c.59-.73,1.34-1.11,2.27-1.11.56,0,1.04.11,1.44.34s.74.56,1.01,1.01Z"/>
      <path d="M376.03,34.16v2.17h2.59v.98h-2.59v4.16c0,.63.08,1.04.25,1.2.17.18.52.27,1.05.27h1.29v1.05h-1.29c-.98,0-1.65-.18-2.02-.55-.36-.36-.55-1.02-.55-1.97v-4.16h-.92v-.98h.92v-2.17h1.26Z"/>
      <path d="M380.27,33.35h1.26v1.6h-1.26v-1.6ZM380.27,36.33h1.26v7.66h-1.26v-7.66Z"/>
      <path d="M389.46,39.48c-.01-.69-.21-1.23-.57-1.65-.38-.41-.88-.62-1.5-.62-.7,0-1.26.21-1.68.6-.42.39-.67.95-.73,1.67h4.48ZM390.72,39.84v.62h-5.78c.06.87.31,1.54.78,1.99.46.45,1.11.67,1.95.67.48,0,.95-.06,1.4-.17s.91-.29,1.36-.55v1.19c-.45.2-.91.35-1.39.43-.48.08-.97.14-1.44.14-1.23,0-2.2-.35-2.91-1.05-.71-.7-1.06-1.67-1.06-2.88s.34-2.24,1.01-2.98c.67-.73,1.6-1.11,2.74-1.11,1.04,0,1.85.34,2.45.99.59.67.9,1.57.9,2.7Z"/>
      <path d="M397.21,37.51c-.14-.08-.29-.14-.46-.18-.17-.03-.35-.06-.55-.06-.71,0-1.26.24-1.64.7-.39.46-.57,1.12-.57,1.99v4.03h-1.26v-7.66h1.26v1.19c.25-.46.6-.81,1.02-1.04s.94-.34,1.55-.34c.08,0,.18.01.29.01.1.01.21.03.35.06v1.29Z"/>
      <path d="M398.33,33.36h1.09c.67,1.08,1.19,2.13,1.53,3.16.34,1.04.52,2.06.52,3.07s-.18,2.04-.52,3.08c-.34,1.04-.85,2.07-1.53,3.15h-1.09c.6-1.05,1.05-2.07,1.36-3.11.29-1.02.45-2.06.45-3.12s-.15-2.09-.45-3.11c-.31-1.02-.76-2.06-1.36-3.12Z"/>
    </g>
  </g>
</svg>