<?xml version="1.0" encoding="UTF-8"?>
<svg xmlns="http://www.w3.org/2000/svg" version="1.1" xmlns:xlink="http://www.w3.org/1999/xlink" viewBox="0 0 428.1 339.19">
  <defs>
    <style>
      .cls-1 {
        clip-path: url(#clippath-51);
      }

      .cls-2 {
        stroke: #ccc;
      }

      .cls-2, .cls-3, .cls-4, .cls-5, .cls-6, .cls-7, .cls-8, .cls-9, .cls-10, .cls-11, .cls-12 {
        fill: none;
      }

      .cls-2, .cls-4, .cls-5, .cls-8 {
        stroke-miterlimit: 10;
      }

      .cls-2, .cls-13 {
        opacity: .8;
      }

      .cls-14 {
        clip-path: url(#clippath-34);
      }

      .cls-15 {
        clip-path: url(#clippath-38);
      }

      .cls-16 {
        clip-path: url(#clippath-21);
      }

      .cls-17 {
        clip-path: url(#clippath-6);
      }

      .cls-18 {
        clip-path: url(#clippath-7);
      }

      .cls-19 {
        clip-path: url(#clippath-17);
      }

      .cls-20 {
        clip-path: url(#clippath-31);
      }

      .cls-21 {
        clip-path: url(#clippath-15);
      }

      .cls-22 {
        clip-path: url(#clippath-33);
      }

      .cls-23 {
        clip-path: url(#clippath-18);
      }

      .cls-24 {
        clip-path: url(#clippath-47);
      }

      .cls-25 {
        clip-path: url(#clippath-4);
      }

      .cls-26 {
        clip-path: url(#clippath-22);
      }

      .cls-27 {
        clip-path: url(#clippath-23);
      }

      .cls-3 {
        opacity: .5;
        stroke: #b0b0b0;
        stroke-dasharray: 2.96 1.28;
      }

      .cls-3, .cls-6, .cls-9, .cls-10, .cls-11, .cls-12 {
        stroke-linejoin: round;
      }

      .cls-3, .cls-8, .cls-10 {
        stroke-width: .8px;
      }

      .cls-28 {
        clip-path: url(#clippath-54);
      }

      .cls-29 {
        clip-path: url(#clippath-9);
      }

      .cls-30 {
        clip-path: url(#clippath-10);
      }

      .cls-31 {
        clip-path: url(#clippath-42);
      }

      .cls-32, .cls-13 {
        fill: #fff;
      }

      .cls-33 {
        clip-path: url(#clippath-43);
      }

      .cls-4, .cls-6, .cls-11 {
        stroke: red;
      }

      .cls-34 {
        clip-path: url(#clippath-25);
      }

      .cls-35 {
        clip-path: url(#clippath-27);
      }

      .cls-5, .cls-9, .cls-12 {
        stroke: blue;
      }

      .cls-6, .cls-9, .cls-11, .cls-12 {
        stroke-width: 1.5px;
      }

      .cls-6, .cls-12 {
        stroke-dasharray: 5.55 2.4;
      }

      .cls-36 {
        clip-path: url(#clippath-11);
      }

      .cls-37 {
        clip-path: url(#clippath-36);
      }

      .cls-38 {
        clip-path: url(#clippath-35);
      }

      .cls-39 {
        clip-path: url(#clippath-48);
      }

      .cls-40 {
        clip-path: url(#clippath-28);
      }

      .cls-41 {
        clip-path: url(#clippath-1);
      }

      .cls-42 {
        clip-path: url(#clippath-56);
      }

      .cls-43 {
        clip-path: url(#clippath-45);
      }

      .cls-44 {
        clip-path: url(#clippath-46);
      }

      .cls-45 {
        clip-path: url(#clippath-40);
      }

      .cls-46 {
        clip-path: url(#clippath-5);
      }

      .cls-47 {
        clip-path: url(#clippath-20);
      }

      .cls-48 {
        clip-path: url(#clippath-8);
      }

      .cls-49 {
        clip-path: url(#clippath-52);
      }

      .cls-50 {
        clip-path: url(#clippath-41);
      }

      .cls-51 {
        clip-path: url(#clippath-3);
      }

      .cls-52 {
        clip-path: url(#clippath-26);
      }

      .cls-53 {
        clip-path: url(#clippath-12);
      }

      .cls-54 {
        clip-path: url(#clippath-50);
      }

      .cls-55 {
        clip-path: url(#clippath-14);
      }

      .cls-56 {
        clip-path: url(#clippath-30);
      }

      .cls-57 {
        clip-path: url(#clippath-19);
      }

      .cls-8, .cls-9, .cls-11 {
        stroke-linecap: square;
      }

      .cls-8, .cls-10 {
        stroke: #000;
      }

      .cls-58 {
        clip-path: url(#clippath-32);
      }

      .cls-59 {
        clip-path: url(#clippath-55);
      }

      .cls-60 {
        clip-path: url(#clippath-53);
      }

      .cls-61 {
        clip-path: url(#clippath-39);
      }

      .cls-62 {
        clip-path: url(#clippath-16);
      }

      .cls-63 {
        clip-path: url(#clippath-2);
      }

      .cls-64 {
        clip-path: url(#clippath-29);
      }

      .cls-65 {
        clip-path: url(#clippath-49);
      }

      .cls-66 {
        clip-path: url(#clippath-37);
      }

      .cls-67 {
        clip-path: url(#clippath-13);
      }

      .cls-68 {
        clip-path: url(#clippath-24);
      }

      .cls-69 {
        clip-path: url(#clippath);
      }

      .cls-70 {
        clip-path: url(#clippath-44);
      }
    </style>
    <clipPath id="clippath">
      <rect class="cls-7" x="48.72" y="18.12" width="372.19" height="277.2"/>
    </clipPath>
    <clipPath id="clippath-1">
      <rect class="cls-7" x="48.72" y="18.12" width="372.19" height="277.2"/>
    </clipPath>
    <clipPath id="clippath-2">
      <rect class="cls-7" x="48.72" y="18.12" width="372.19" height="277.2"/>
    </clipPath>
    <clipPath id="clippath-3">
      <rect class="cls-7" x="48.72" y="18.12" width="372.19" height="277.2"/>
    </clipPath>
    <clipPath id="clippath-4">
      <rect class="cls-7" x="48.72" y="18.12" width="372.19" height="277.2"/>
    </clipPath>
    <clipPath id="clippath-5">
      <rect class="cls-7" x="48.72" y="18.12" width="372.19" height="277.2"/>
    </clipPath>
    <clipPath id="clippath-6">
      <rect class="cls-7" x="48.72" y="18.12" width="372.19" height="277.2"/>
    </clipPath>
    <clipPath id="clippath-7">
      <rect class="cls-7" x="48.72" y="18.12" width="372.19" height="277.2"/>
    </clipPath>
    <clipPath id="clippath-8">
      <rect class="cls-7" x="48.72" y="18.12" width="372.19" height="277.2"/>
    </clipPath>
    <clipPath id="clippath-9">
      <rect class="cls-7" x="297.37" y="308.89" width="42.22" height="25.44"/>
    </clipPath>
    <clipPath id="clippath-10">
      <rect class="cls-7" x="48.72" y="18.12" width="372.19" height="277.2"/>
    </clipPath>
    <clipPath id="clippath-11">
      <rect class="cls-7" x="48.72" y="18.12" width="372.19" height="277.2"/>
    </clipPath>
    <clipPath id="clippath-12">
      <rect class="cls-7" x="48.72" y="18.12" width="372.19" height="277.2"/>
    </clipPath>
    <clipPath id="clippath-13">
      <rect class="cls-7" x="48.72" y="18.12" width="372.19" height="277.2"/>
    </clipPath>
    <clipPath id="clippath-14">
      <rect class="cls-7" x="48.72" y="18.12" width="372.19" height="277.2"/>
    </clipPath>
    <clipPath id="clippath-15">
      <rect class="cls-7" x="48.72" y="18.12" width="372.19" height="277.2"/>
    </clipPath>
    <clipPath id="clippath-16">
      <rect class="cls-7" x="48.72" y="18.12" width="372.19" height="277.2"/>
    </clipPath>
    <clipPath id="clippath-17">
      <rect class="cls-7" x="48.72" y="18.12" width="372.19" height="277.2"/>
    </clipPath>
    <clipPath id="clippath-18">
      <rect class="cls-7" x="57.63" y="68.56" width="16" height="16"/>
    </clipPath>
    <clipPath id="clippath-19">
      <rect class="cls-7" x="99.93" y="208.49" width="16" height="16"/>
    </clipPath>
    <clipPath id="clippath-20">
      <rect class="cls-7" x="142.22" y="252.27" width="16" height="16"/>
    </clipPath>
    <clipPath id="clippath-21">
      <rect class="cls-7" x="184.51" y="269.21" width="16" height="16"/>
    </clipPath>
    <clipPath id="clippath-22">
      <rect class="cls-7" x="226.81" y="274.72" width="16" height="16"/>
    </clipPath>
    <clipPath id="clippath-23">
      <rect class="cls-7" x="269.1" y="272.49" width="16" height="16"/>
    </clipPath>
    <clipPath id="clippath-24">
      <rect class="cls-7" x="311.4" y="262.69" width="16" height="16"/>
    </clipPath>
    <clipPath id="clippath-25">
      <rect class="cls-7" x="353.69" y="251.01" width="16" height="16"/>
    </clipPath>
    <clipPath id="clippath-26">
      <rect class="cls-7" x="395.98" y="239.51" width="16" height="16"/>
    </clipPath>
    <clipPath id="clippath-27">
      <rect class="cls-7" x="48.72" y="18.12" width="372.19" height="277.2"/>
    </clipPath>
    <clipPath id="clippath-28">
      <rect class="cls-7" x="57.63" y="81.15" width="16" height="16"/>
    </clipPath>
    <clipPath id="clippath-29">
      <rect class="cls-7" x="99.93" y="219.16" width="16" height="16"/>
    </clipPath>
    <clipPath id="clippath-30">
      <rect class="cls-7" x="142.22" y="244.66" width="16" height="16"/>
    </clipPath>
    <clipPath id="clippath-31">
      <rect class="cls-7" x="184.51" y="228.53" width="16" height="16"/>
    </clipPath>
    <clipPath id="clippath-32">
      <rect class="cls-7" x="226.81" y="197.93" width="16" height="16"/>
    </clipPath>
    <clipPath id="clippath-33">
      <rect class="cls-7" x="269.1" y="159.04" width="16" height="16"/>
    </clipPath>
    <clipPath id="clippath-34">
      <rect class="cls-7" x="311.4" y="115.06" width="16" height="16"/>
    </clipPath>
    <clipPath id="clippath-35">
      <rect class="cls-7" x="353.69" y="69.14" width="16" height="16"/>
    </clipPath>
    <clipPath id="clippath-36">
      <rect class="cls-7" x="395.98" y="22.72" width="16" height="16"/>
    </clipPath>
    <clipPath id="clippath-37">
      <rect class="cls-7" x="48.72" y="18.12" width="372.19" height="277.2"/>
    </clipPath>
    <clipPath id="clippath-38">
      <rect class="cls-7" x="57.63" y="71.62" width="16" height="16"/>
    </clipPath>
    <clipPath id="clippath-39">
      <rect class="cls-7" x="99.93" y="84.8" width="16" height="16"/>
    </clipPath>
    <clipPath id="clippath-40">
      <rect class="cls-7" x="142.22" y="95.97" width="16" height="16"/>
    </clipPath>
    <clipPath id="clippath-41">
      <rect class="cls-7" x="184.51" y="103.97" width="16" height="16"/>
    </clipPath>
    <clipPath id="clippath-42">
      <rect class="cls-7" x="226.81" y="112.58" width="16" height="16"/>
    </clipPath>
    <clipPath id="clippath-43">
      <rect class="cls-7" x="269.1" y="119.95" width="16" height="16"/>
    </clipPath>
    <clipPath id="clippath-44">
      <rect class="cls-7" x="311.4" y="128.06" width="16" height="16"/>
    </clipPath>
    <clipPath id="clippath-45">
      <rect class="cls-7" x="353.69" y="135.21" width="16" height="16"/>
    </clipPath>
    <clipPath id="clippath-46">
      <rect class="cls-7" x="395.98" y="141.43" width="16" height="16"/>
    </clipPath>
    <clipPath id="clippath-47">
      <rect class="cls-7" x="48.72" y="18.12" width="372.19" height="277.2"/>
    </clipPath>
    <clipPath id="clippath-48">
      <rect class="cls-7" x="57.63" y="81.15" width="16" height="16"/>
    </clipPath>
    <clipPath id="clippath-49">
      <rect class="cls-7" x="99.93" y="92.45" width="16" height="16"/>
    </clipPath>
    <clipPath id="clippath-50">
      <rect class="cls-7" x="142.22" y="103.37" width="16" height="16"/>
    </clipPath>
    <clipPath id="clippath-51">
      <rect class="cls-7" x="184.51" y="117.68" width="16" height="16"/>
    </clipPath>
    <clipPath id="clippath-52">
      <rect class="cls-7" x="226.81" y="127.31" width="16" height="16"/>
    </clipPath>
    <clipPath id="clippath-53">
      <rect class="cls-7" x="269.1" y="137.72" width="16" height="16"/>
    </clipPath>
    <clipPath id="clippath-54">
      <rect class="cls-7" x="311.4" y="142.24" width="16" height="16"/>
    </clipPath>
    <clipPath id="clippath-55">
      <rect class="cls-7" x="353.69" y="150.62" width="16" height="16"/>
    </clipPath>
    <clipPath id="clippath-56">
      <rect class="cls-7" x="395.98" y="158.4" width="16" height="16"/>
    </clipPath>
  </defs>
  <!-- Generator: Adobe Illustrator 28.6.0, SVG Export Plug-In . SVG Version: 1.2.0 Build 709)  -->
  <g>
    <g id="Layer_1">
      <rect class="cls-32" width="428.1" height="339.19"/>
      <rect class="cls-32" x="48.72" y="18.12" width="372.19" height="277.2"/>
      <g class="cls-69">
        <line class="cls-3" x1="65.63" y1="295.32" x2="65.63" y2="18.12"/>
      </g>
      <line x1="65.63" y1="295.32" x2="65.63" y2="298.82"/>
      <line class="cls-10" x1="65.63" y1="295.32" x2="65.63" y2="298.82"/>
      <path d="M65.63,302.5c.81,0,1.43.33,1.87.97.43.65.65,1.59.65,2.81s-.22,2.17-.65,2.81c-.44.64-1.06.96-1.88.96s-1.44-.32-1.87-.96c-.43-.64-.64-1.58-.64-2.81s.21-2.16.64-2.81c.43-.64,1.06-.97,1.88-.97ZM65.63,303.28c-.51,0-.89.25-1.15.75s-.38,1.25-.38,2.25.12,1.75.38,2.25.64.75,1.15.75.89-.25,1.15-.75c.25-.5.38-1.25.38-2.25s-.13-1.75-.38-2.25c-.26-.5-.64-.75-1.15-.75Z"/>
      <g class="cls-41">
        <line class="cls-3" x1="107.93" y1="295.32" x2="107.93" y2="18.12"/>
      </g>
      <line x1="107.93" y1="295.32" x2="107.93" y2="298.82"/>
      <line class="cls-10" x1="107.93" y1="295.32" x2="107.93" y2="298.82"/>
      <polygon points="105.99 309.09 107.6 309.09 107.6 303.53 105.85 303.88 105.85 302.98 107.59 302.63 108.58 302.63 108.58 309.09 110.19 309.09 110.19 309.92 105.99 309.92 105.99 309.09"/>
      <g class="cls-63">
        <line class="cls-3" x1="150.22" y1="295.32" x2="150.22" y2="18.12"/>
      </g>
      <line x1="150.22" y1="295.32" x2="150.22" y2="298.82"/>
      <line class="cls-10" x1="150.22" y1="295.32" x2="150.22" y2="298.82"/>
      <path d="M148.96,309.09h3.44v.83h-4.63v-.83c.37-.38.88-.9,1.53-1.56.64-.65,1.05-1.07,1.22-1.26.32-.35.54-.65.66-.9.12-.24.19-.49.19-.73,0-.38-.14-.7-.41-.94-.27-.24-.62-.37-1.06-.37-.31,0-.64.06-.98.16-.34.11-.71.27-1.1.49v-1c.4-.16.77-.28,1.11-.36.34-.08.66-.12.95-.12.75,0,1.35.19,1.8.57.45.38.68.88.68,1.51,0,.3-.06.59-.17.85-.11.27-.31.59-.61.95-.08.1-.34.37-.78.82-.44.45-1.05,1.08-1.84,1.89Z"/>
      <g class="cls-51">
        <line class="cls-3" x1="192.51" y1="295.32" x2="192.51" y2="18.12"/>
      </g>
      <line x1="192.51" y1="295.32" x2="192.51" y2="298.82"/>
      <line class="cls-10" x1="192.51" y1="295.32" x2="192.51" y2="298.82"/>
      <path d="M193.4,305.99c.47.1.84.31,1.1.63.26.32.4.72.4,1.18,0,.72-.25,1.28-.74,1.67-.5.39-1.2.58-2.11.58-.31,0-.63-.03-.95-.09-.32-.05-.66-.14-1-.26v-.95c.27.16.57.28.9.36.32.08.66.12,1.02.12.62,0,1.09-.12,1.41-.36.32-.24.49-.6.49-1.07,0-.42-.15-.76-.45-1-.3-.24-.72-.37-1.26-.37h-.85v-.81h.89c.48,0,.85-.09,1.11-.29.26-.19.39-.47.39-.84s-.14-.66-.4-.86c-.27-.2-.65-.3-1.14-.3-.27,0-.56.03-.87.09s-.65.15-1.02.27v-.88c.37-.1.72-.18,1.05-.23.32-.05.63-.08.93-.08.74,0,1.33.17,1.77.51s.66.8.66,1.38c0,.4-.12.74-.35,1.02-.23.28-.56.48-.98.58Z"/>
      <g class="cls-25">
        <line class="cls-3" x1="234.81" y1="295.32" x2="234.81" y2="18.12"/>
      </g>
      <line x1="234.81" y1="295.32" x2="234.81" y2="298.82"/>
      <line class="cls-10" x1="234.81" y1="295.32" x2="234.81" y2="298.82"/>
      <path d="M235.15,302.63h1.24v4.75h1.04v.82h-1.04v1.72h-.98v-1.72h-3.29v-.95l3.03-4.62ZM235.41,303.49l-2.49,3.89h2.49v-3.89Z"/>
      <g class="cls-46">
        <line class="cls-3" x1="277.1" y1="295.32" x2="277.1" y2="18.12"/>
      </g>
      <line x1="277.1" y1="295.32" x2="277.1" y2="298.82"/>
      <line class="cls-10" x1="277.1" y1="295.32" x2="277.1" y2="298.82"/>
      <path d="M275,302.63h3.87v.83h-2.97v1.79c.14-.05.29-.09.43-.11.14-.02.29-.04.43-.04.81,0,1.45.23,1.93.67.48.45.72,1.05.72,1.81s-.25,1.4-.74,1.83-1.18.64-2.06.64c-.31,0-.62-.03-.94-.07-.32-.05-.64-.12-.98-.23v-.99c.29.16.59.28.91.36.31.08.64.11.99.11.56,0,1.01-.14,1.34-.44.32-.3.49-.7.49-1.21s-.17-.9-.49-1.2c-.33-.3-.78-.45-1.34-.45-.26,0-.53.03-.79.09-.26.06-.53.15-.8.27v-3.66Z"/>
      <g class="cls-17">
        <line class="cls-3" x1="319.4" y1="295.32" x2="319.4" y2="18.12"/>
      </g>
      <line x1="319.4" y1="295.32" x2="319.4" y2="298.82"/>
      <line class="cls-10" x1="319.4" y1="295.32" x2="319.4" y2="298.82"/>
      <path d="M321.48,302.79v.9c-.25-.12-.5-.21-.75-.27-.26-.06-.51-.09-.75-.09-.66,0-1.16.22-1.5.66s-.54,1.11-.58,1.99c.19-.28.43-.5.72-.65s.61-.23.96-.23c.73,0,1.31.23,1.73.67.42.44.64,1.05.64,1.81s-.23,1.35-.67,1.8c-.44.45-1.03.67-1.76.67-.84,0-1.49-.32-1.93-.96-.45-.64-.67-1.58-.67-2.81,0-1.15.27-2.07.82-2.75.54-.68,1.28-1.03,2.2-1.03.24,0,.49.03.75.07.25.05.51.12.79.22ZM319.52,305.88c-.44,0-.79.16-1.05.46-.26.3-.39.72-.39,1.24s.13.95.39,1.25.61.45,1.05.45.79-.15,1.05-.45c.26-.3.39-.72.39-1.25s-.13-.94-.39-1.24c-.26-.3-.61-.46-1.05-.46Z"/>
      <g class="cls-18">
        <line class="cls-3" x1="361.69" y1="295.32" x2="361.69" y2="18.12"/>
      </g>
      <line x1="361.69" y1="295.32" x2="361.69" y2="298.82"/>
      <line class="cls-10" x1="361.69" y1="295.32" x2="361.69" y2="298.82"/>
      <polygon points="359.33 302.63 364.02 302.63 364.02 303.05 361.37 309.92 360.34 309.92 362.83 303.46 359.33 303.46 359.33 302.63"/>
      <g class="cls-48">
        <line class="cls-3" x1="403.98" y1="295.32" x2="403.98" y2="18.12"/>
      </g>
      <line x1="403.98" y1="295.32" x2="403.98" y2="298.82"/>
      <line class="cls-10" x1="403.98" y1="295.32" x2="403.98" y2="298.82"/>
      <path d="M402.63,304.48c0,.38.11.68.35.89.24.21.57.31,1,.31s.75-.1.99-.31c.24-.21.36-.51.36-.89s-.12-.67-.36-.88c-.24-.21-.57-.32-.99-.32s-.76.11-1,.32c-.24.21-.35.5-.35.88ZM402.99,306.04c-.42-.1-.75-.3-.99-.59-.24-.29-.35-.64-.35-1.06,0-.58.2-1.04.62-1.38.41-.34.98-.51,1.71-.51s1.29.17,1.71.51c.41.34.62.8.62,1.38,0,.42-.12.77-.36,1.06-.24.29-.56.49-.98.59.47.11.84.33,1.11.65.26.32.4.72.4,1.18,0,.71-.22,1.25-.65,1.62-.44.38-1.06.56-1.86.56s-1.42-.18-1.85-.56c-.43-.37-.64-.91-.64-1.62,0-.46.13-.86.4-1.18.26-.32.63-.54,1.11-.65ZM403.98,306.46c-.47,0-.84.13-1.11.38-.27.25-.4.59-.4,1.03s.13.79.4,1.04c.27.25.64.37,1.11.37s.83-.12,1.1-.38c.27-.25.41-.59.41-1.03s-.14-.78-.4-1.03c-.27-.25-.64-.38-1.11-.38Z"/>
      <path d="M142.1,316.45h1.68l4.17,10.94h-1.54l-.99-2.81h-4.93l-.99,2.81h-1.56l4.17-10.94ZM142.94,317.9l-2.01,5.44h4.02l-2.01-5.44Z"/>
      <path d="M150.29,323.29c0,.99.19,1.77.6,2.34.4.57.96.84,1.68.84s1.27-.27,1.7-.84c.4-.57.61-1.35.61-2.34s-.21-1.75-.61-2.32c-.42-.57-.98-.86-1.7-.86s-1.27.28-1.68.86c-.41.57-.6,1.33-.6,2.32ZM154.88,320.42v-4.44h1.35v11.4h-1.35v-1.23c-.29.5-.65.86-1.08,1.08-.43.22-.94.34-1.54.34-.99,0-1.8-.39-2.43-1.17-.63-.78-.93-1.83-.93-3.12s.3-2.32.93-3.12c.63-.78,1.44-1.18,2.43-1.18.6,0,1.11.12,1.54.36s.79.6,1.08,1.08Z"/>
      <path d="M159.81,323.29c0,.99.19,1.77.6,2.34.4.57.96.84,1.68.84s1.27-.27,1.7-.84c.4-.57.61-1.35.61-2.34s-.21-1.75-.61-2.32c-.42-.57-.98-.86-1.7-.86s-1.27.28-1.68.86c-.41.57-.6,1.33-.6,2.32ZM164.4,320.42v-4.44h1.35v11.4h-1.35v-1.23c-.29.5-.65.86-1.08,1.08-.43.22-.94.34-1.54.34-.99,0-1.8-.39-2.43-1.17-.63-.78-.93-1.83-.93-3.12s.3-2.32.93-3.12c.63-.78,1.44-1.18,2.43-1.18.6,0,1.11.12,1.54.36s.79.6,1.08,1.08Z"/>
      <path d="M174.19,322.55c-.01-.73-.23-1.32-.62-1.77-.4-.44-.94-.66-1.6-.66-.75,0-1.35.22-1.8.64s-.72,1.02-.78,1.78h4.8ZM175.54,322.94v.66h-6.19c.06.93.33,1.65.84,2.13.5.48,1.18.72,2.09.72.51,0,1.02-.06,1.5-.18.48-.12.97-.32,1.46-.59v1.27c-.48.21-.98.38-1.49.47-.51.09-1.04.15-1.54.15-1.32,0-2.36-.38-3.12-1.12s-1.14-1.78-1.14-3.09.36-2.4,1.08-3.2c.72-.78,1.71-1.18,2.94-1.18,1.11,0,1.98.36,2.62,1.07.63.72.96,1.68.96,2.9Z"/>
      <path d="M178.56,323.29c0,.99.19,1.77.6,2.34.4.57.96.84,1.68.84s1.27-.27,1.7-.84c.4-.57.61-1.35.61-2.34s-.21-1.75-.61-2.32c-.42-.57-.98-.86-1.7-.86s-1.27.28-1.68.86c-.41.57-.6,1.33-.6,2.32ZM183.15,320.42v-4.44h1.35v11.4h-1.35v-1.23c-.29.5-.65.86-1.08,1.08-.43.22-.94.34-1.54.34-.99,0-1.8-.39-2.43-1.17-.63-.78-.93-1.83-.93-3.12s.3-2.32.93-3.12c.63-.78,1.44-1.18,2.43-1.18.6,0,1.11.12,1.54.36s.79.6,1.08,1.08Z"/>
      <path d="M197.95,319.49v1.26c-.39-.21-.77-.36-1.16-.47s-.76-.16-1.15-.16c-.87,0-1.56.28-2.04.84-.48.55-.72,1.33-.72,2.32s.24,1.78.72,2.34,1.17.82,2.04.82c.39,0,.76-.05,1.15-.15.39-.11.76-.27,1.16-.48v1.25c-.39.18-.78.31-1.17.39-.4.07-.84.12-1.29.12-1.23,0-2.22-.38-2.94-1.15-.74-.77-1.1-1.82-1.1-3.14s.36-2.39,1.1-3.15,1.74-1.16,3.03-1.16c.42,0,.82.05,1.21.14s.78.21,1.16.38Z"/>
      <path d="M206.71,322.7v4.68h-1.35v-1.24c-.32.51-.71.87-1.15,1.1-.45.22-1.02.34-1.68.34-.84,0-1.51-.22-2.01-.69-.49-.47-.74-1.1-.74-1.89,0-.91.3-1.61.93-2.09.62-.47,1.53-.7,2.76-.7h1.89v-.14c0-.61-.21-1.09-.61-1.44-.4-.33-.98-.51-1.71-.51-.48,0-.93.06-1.38.18-.45.12-.87.29-1.27.5v-1.25c.48-.18.96-.33,1.43-.42s.91-.15,1.36-.15c1.19,0,2.07.32,2.66.93.58.61.88,1.55.88,2.79ZM204.02,323.26c-1.1,0-1.85.13-2.26.38-.42.26-.63.68-.63,1.27,0,.48.15.87.46,1.14.32.28.75.42,1.29.42.75,0,1.35-.26,1.8-.8.45-.52.68-1.23.68-2.11v-.3h-1.33Z"/>
      <path d="M215.39,319.49v1.26c-.39-.21-.77-.36-1.16-.47s-.76-.16-1.15-.16c-.87,0-1.56.28-2.04.84-.48.55-.72,1.33-.72,2.32s.24,1.78.72,2.34,1.17.82,2.04.82c.39,0,.76-.05,1.15-.15.39-.11.76-.27,1.16-.48v1.25c-.39.18-.78.31-1.17.39-.4.07-.84.12-1.29.12-1.23,0-2.22-.38-2.94-1.15-.74-.77-1.1-1.82-1.1-3.14s.36-2.39,1.1-3.15,1.74-1.16,3.03-1.16c.42,0,.82.05,1.21.14s.78.21,1.16.38Z"/>
      <path d="M224.55,322.43v4.95h-1.35v-4.9c0-.78-.16-1.35-.46-1.74-.3-.39-.75-.58-1.35-.58-.74,0-1.31.24-1.73.7s-.63,1.09-.63,1.89v4.63h-1.35v-11.4h1.35v4.47c.32-.48.69-.85,1.14-1.09.43-.24.95-.38,1.51-.38.93,0,1.65.3,2.13.89s.74,1.44.74,2.57Z"/>
      <path d="M232.9,322.55c-.01-.73-.23-1.32-.62-1.77-.4-.44-.94-.66-1.6-.66-.75,0-1.35.22-1.8.64s-.72,1.02-.78,1.78h4.8ZM234.25,322.94v.66h-6.19c.06.93.33,1.65.84,2.13.5.48,1.18.72,2.09.72.51,0,1.02-.06,1.5-.18.48-.12.97-.32,1.46-.59v1.27c-.48.21-.98.38-1.49.47-.51.09-1.04.15-1.54.15-1.32,0-2.36-.38-3.12-1.12s-1.14-1.78-1.14-3.09.36-2.4,1.08-3.2c.72-.78,1.71-1.18,2.94-1.18,1.11,0,1.98.36,2.62,1.07.63.72.96,1.68.96,2.9Z"/>
      <path d="M247.14,319.49v1.26c-.39-.21-.77-.36-1.16-.47s-.76-.16-1.15-.16c-.87,0-1.56.28-2.04.84-.48.55-.72,1.33-.72,2.32s.24,1.78.72,2.34,1.17.82,2.04.82c.39,0,.76-.05,1.15-.15.39-.11.76-.27,1.16-.48v1.25c-.39.18-.78.31-1.17.39-.4.07-.84.12-1.29.12-1.23,0-2.22-.38-2.94-1.15-.74-.77-1.1-1.82-1.1-3.14s.36-2.39,1.1-3.15,1.74-1.16,3.03-1.16c.42,0,.82.05,1.21.14s.78.21,1.16.38Z"/>
      <path d="M255.9,322.7v4.68h-1.35v-1.24c-.32.51-.71.87-1.15,1.1-.45.22-1.02.34-1.68.34-.84,0-1.51-.22-2.01-.69-.49-.47-.74-1.1-.74-1.89,0-.91.3-1.61.93-2.09.62-.47,1.53-.7,2.76-.7h1.89v-.14c0-.61-.21-1.09-.61-1.44-.4-.33-.98-.51-1.71-.51-.48,0-.93.06-1.38.18-.45.12-.87.29-1.27.5v-1.25c.48-.18.96-.33,1.43-.42s.91-.15,1.36-.15c1.19,0,2.07.32,2.66.93.58.61.88,1.55.88,2.79ZM253.21,323.26c-1.1,0-1.85.13-2.26.38-.42.26-.63.68-.63,1.27,0,.48.15.87.46,1.14.32.28.75.42,1.29.42.75,0,1.35-.26,1.8-.8.45-.52.68-1.23.68-2.11v-.3h-1.33Z"/>
      <path d="M264.56,323.29c0-.99-.21-1.75-.61-2.32-.42-.57-.98-.86-1.68-.86s-1.28.28-1.68.86c-.42.57-.61,1.33-.61,2.32s.2,1.77.61,2.34c.4.57.96.84,1.68.84s1.26-.27,1.68-.84c.4-.57.61-1.35.61-2.34ZM259.97,326.15v4.34h-1.35v-11.31h1.35v1.24c.27-.48.63-.84,1.07-1.08s.96-.36,1.56-.36c.99,0,1.8.41,2.43,1.18.62.8.93,1.83.93,3.12s-.32,2.34-.93,3.12c-.63.78-1.44,1.17-2.43,1.17-.6,0-1.12-.12-1.56-.34-.43-.23-.8-.59-1.07-1.08Z"/>
      <path d="M274.61,322.7v4.68h-1.35v-1.24c-.32.51-.71.87-1.15,1.1-.45.22-1.02.34-1.68.34-.84,0-1.51-.22-2.01-.69s-.74-1.1-.74-1.89c0-.91.3-1.61.93-2.09.62-.47,1.53-.7,2.76-.7h1.89v-.14c0-.61-.21-1.09-.62-1.44-.4-.33-.97-.51-1.71-.51-.48,0-.93.06-1.38.18-.45.12-.87.29-1.27.5v-1.25c.48-.18.96-.33,1.42-.42.47-.09.92-.15,1.37-.15,1.18,0,2.07.32,2.65.93.58.61.88,1.55.88,2.79ZM271.93,323.26c-1.1,0-1.85.13-2.26.38-.42.26-.63.68-.63,1.27,0,.48.15.87.46,1.14.32.28.75.42,1.29.42.75,0,1.35-.26,1.8-.8.45-.52.68-1.23.68-2.11v-.3h-1.34Z"/>
      <path d="M283.29,319.49v1.26c-.39-.21-.77-.36-1.15-.47-.39-.1-.77-.16-1.15-.16-.87,0-1.56.28-2.04.84-.48.55-.72,1.33-.72,2.32s.24,1.78.72,2.34,1.17.82,2.04.82c.39,0,.76-.05,1.15-.15.39-.11.76-.27,1.15-.48v1.25c-.39.18-.78.31-1.17.39-.4.07-.84.12-1.29.12-1.23,0-2.22-.38-2.94-1.15-.74-.77-1.1-1.82-1.1-3.14s.36-2.39,1.1-3.15c.73-.76,1.74-1.16,3.03-1.16.42,0,.82.05,1.21.14.39.09.78.21,1.15.38Z"/>
      <path d="M285.63,315.98h1.35v1.71h-1.35v-1.71ZM285.63,319.18h1.35v8.2h-1.35v-8.2Z"/>
      <path d="M291.13,316.85v2.33h2.77v1.05h-2.77v4.45c0,.67.09,1.11.27,1.29.18.19.55.28,1.12.28h1.38v1.12h-1.38c-1.05,0-1.77-.19-2.16-.59-.39-.39-.59-1.1-.59-2.11v-4.45h-.99v-1.05h.99v-2.33h1.35Z"/>
      <path d="M299.1,328.13c-.39.96-.76,1.61-1.12,1.9-.36.3-.84.45-1.44.45h-1.08v-1.12h.8c.36,0,.64-.09.85-.27.21-.18.43-.59.69-1.24l.24-.6-3.32-8.07h1.42l2.57,6.42,2.57-6.42h1.42l-3.6,8.95Z"/>
      <polygon points="304.9 325.52 306.45 325.52 306.45 326.78 305.25 329.11 304.3 329.11 304.9 326.78 304.9 325.52"/>
      <polygon points="325.46 316.45 326.95 316.45 325.07 326.15 330.4 326.15 330.16 327.38 323.35 327.38 325.46 316.45"/>
      <g class="cls-29">
        <path d="M312.8,327.38l4.17-10.93h1.68l4.17,10.93h-10.02ZM317.81,317.9l-3,8.25h6l-3-8.25Z"/>
      </g>
      <g class="cls-30">
        <line class="cls-3" x1="48.72" y1="291.69" x2="420.9" y2="291.69"/>
      </g>
      <line x1="48.72" y1="291.69" x2="45.22" y2="291.69"/>
      <line class="cls-10" x1="48.72" y1="291.69" x2="45.22" y2="291.69"/>
      <polygon points="26.96 293.96 28.57 293.96 28.57 288.4 26.82 288.75 26.82 287.85 28.56 287.5 29.55 287.5 29.55 293.96 31.16 293.96 31.16 294.79 26.96 294.79 26.96 293.96"/>
      <rect x="33.15" y="293.55" width="1.03" height="1.24"/>
      <path d="M36.34,287.5h3.87v.83h-2.97v1.79c.14-.05.29-.09.43-.11.14-.02.29-.04.43-.04.81,0,1.45.23,1.93.67.48.45.72,1.05.72,1.81s-.25,1.4-.74,1.83c-.49.43-1.18.64-2.06.64-.31,0-.62-.03-.94-.07-.32-.05-.64-.12-.98-.23v-.99c.29.16.59.28.91.36.31.08.64.11.99.11.56,0,1.01-.14,1.34-.44.32-.3.49-.7.49-1.21s-.17-.9-.49-1.2c-.33-.3-.78-.45-1.34-.45-.26,0-.53.03-.79.09-.26.06-.53.15-.8.27v-3.66Z"/>
      <g class="cls-36">
        <line class="cls-3" x1="48.72" y1="246.72" x2="420.9" y2="246.72"/>
      </g>
      <line x1="48.72" y1="246.72" x2="45.22" y2="246.72"/>
      <line class="cls-10" x1="48.72" y1="246.72" x2="45.22" y2="246.72"/>
      <path d="M27.64,249.11h3.44v.83h-4.63v-.83c.37-.38.88-.9,1.53-1.56.64-.65,1.05-1.07,1.22-1.26.32-.35.54-.65.66-.9.12-.24.19-.49.19-.73,0-.38-.14-.7-.41-.94s-.62-.37-1.06-.37c-.31,0-.64.06-.98.16-.34.11-.71.27-1.1.49v-1c.4-.16.77-.28,1.11-.36.34-.08.66-.12.95-.12.75,0,1.35.19,1.8.57.45.38.68.88.68,1.51,0,.3-.06.59-.17.85-.11.27-.31.59-.61.95-.08.1-.34.37-.78.82-.44.45-1.05,1.08-1.84,1.89Z"/>
      <rect x="33.15" y="248.7" width="1.03" height="1.24"/>
      <path d="M38.44,242.52c.81,0,1.43.33,1.87.97.43.65.65,1.59.65,2.81s-.22,2.17-.65,2.81c-.44.64-1.06.96-1.88.96s-1.44-.32-1.87-.96-.64-1.58-.64-2.81.21-2.16.64-2.81c.43-.64,1.06-.97,1.88-.97ZM38.44,243.3c-.51,0-.89.25-1.15.75-.26.5-.38,1.25-.38,2.25s.12,1.75.38,2.25c.26.5.64.75,1.15.75s.89-.25,1.15-.75c.25-.5.38-1.25.38-2.25s-.13-1.75-.38-2.25c-.26-.5-.64-.75-1.15-.75Z"/>
      <g class="cls-53">
        <line class="cls-3" x1="48.72" y1="201.75" x2="420.9" y2="201.75"/>
      </g>
      <line x1="48.72" y1="201.75" x2="45.22" y2="201.75"/>
      <line class="cls-10" x1="48.72" y1="201.75" x2="45.22" y2="201.75"/>
      <path d="M27.64,204.13h3.44v.83h-4.63v-.83c.37-.38.88-.9,1.53-1.56.64-.65,1.05-1.07,1.22-1.26.32-.35.54-.65.66-.9.12-.24.19-.49.19-.73,0-.38-.14-.7-.41-.94s-.62-.37-1.06-.37c-.31,0-.64.06-.98.16-.34.11-.71.27-1.1.49v-1c.4-.16.77-.28,1.11-.36s.66-.12.95-.12c.75,0,1.35.19,1.8.57.45.38.68.88.68,1.51,0,.3-.06.59-.17.85-.11.27-.31.59-.61.95-.08.1-.34.37-.78.82s-1.05,1.08-1.84,1.89Z"/>
      <rect x="33.15" y="203.72" width="1.03" height="1.24"/>
      <path d="M36.34,197.67h3.87v.83h-2.97v1.79c.14-.05.29-.09.43-.11s.29-.04.43-.04c.81,0,1.45.23,1.93.67.48.45.72,1.05.72,1.81s-.25,1.4-.74,1.83c-.49.43-1.18.64-2.06.64-.31,0-.62-.03-.94-.07-.32-.05-.64-.12-.98-.23v-.99c.29.16.59.28.91.36.31.08.64.11.99.11.56,0,1.01-.14,1.34-.44.32-.3.49-.7.49-1.21s-.17-.9-.49-1.2c-.33-.3-.78-.45-1.34-.45-.26,0-.53.03-.79.09-.26.06-.53.15-.8.27v-3.66Z"/>
      <g class="cls-67">
        <line class="cls-3" x1="48.72" y1="156.77" x2="420.9" y2="156.77"/>
      </g>
      <line x1="48.72" y1="156.77" x2="45.22" y2="156.77"/>
      <line class="cls-10" x1="48.72" y1="156.77" x2="45.22" y2="156.77"/>
      <path d="M29.78,156.06c.47.1.84.31,1.1.63.26.32.4.72.4,1.18,0,.72-.25,1.28-.74,1.67-.5.39-1.2.58-2.11.58-.31,0-.63-.03-.95-.09-.32-.05-.66-.14-1-.26v-.95c.27.16.57.28.9.36.32.08.66.12,1.02.12.62,0,1.09-.12,1.41-.36.32-.24.49-.6.49-1.07,0-.42-.15-.76-.45-1-.3-.24-.72-.37-1.26-.37h-.85v-.81h.89c.48,0,.85-.09,1.11-.29.26-.19.39-.47.39-.84s-.14-.66-.4-.86c-.27-.2-.65-.3-1.14-.3-.27,0-.56.03-.87.09s-.65.15-1.02.27v-.88c.37-.1.72-.18,1.05-.23.32-.05.63-.08.93-.08.74,0,1.33.17,1.77.51.44.34.66.8.66,1.38,0,.4-.12.74-.35,1.02s-.56.48-.98.58Z"/>
      <rect x="33.15" y="158.75" width="1.03" height="1.24"/>
      <path d="M38.44,152.57c.81,0,1.43.33,1.87.97.43.65.65,1.59.65,2.81s-.22,2.17-.65,2.81c-.44.64-1.06.96-1.88.96s-1.44-.32-1.87-.96-.64-1.58-.64-2.81.21-2.16.64-2.81c.43-.64,1.06-.97,1.88-.97ZM38.44,153.35c-.51,0-.89.25-1.15.75-.26.5-.38,1.25-.38,2.25s.12,1.75.38,2.25c.26.5.64.75,1.15.75s.89-.25,1.15-.75c.25-.5.38-1.25.38-2.25s-.13-1.75-.38-2.25c-.26-.5-.64-.75-1.15-.75Z"/>
      <g class="cls-55">
        <line class="cls-3" x1="48.72" y1="111.8" x2="420.9" y2="111.8"/>
      </g>
      <line x1="48.72" y1="111.8" x2="45.22" y2="111.8"/>
      <line class="cls-10" x1="48.72" y1="111.8" x2="45.22" y2="111.8"/>
      <path d="M29.78,111.09c.47.1.84.31,1.1.63.26.32.4.72.4,1.18,0,.72-.25,1.28-.74,1.67-.5.39-1.2.58-2.11.58-.31,0-.63-.03-.95-.09-.32-.05-.66-.14-1-.26v-.95c.27.16.57.28.9.36.32.08.66.12,1.02.12.62,0,1.09-.12,1.41-.36.32-.24.49-.6.49-1.07,0-.42-.15-.76-.45-1-.3-.24-.72-.37-1.26-.37h-.85v-.81h.89c.48,0,.85-.09,1.11-.29.26-.19.39-.47.39-.84s-.14-.66-.4-.86c-.27-.2-.65-.3-1.14-.3-.27,0-.56.03-.87.09s-.65.15-1.02.27v-.88c.37-.1.72-.18,1.05-.23.32-.05.63-.08.93-.08.74,0,1.33.17,1.77.51.44.34.66.8.66,1.38,0,.4-.12.74-.35,1.02s-.56.48-.98.58Z"/>
      <rect x="33.15" y="113.78" width="1.03" height="1.24"/>
      <path d="M36.34,107.73h3.87v.83h-2.97v1.79c.14-.05.29-.09.43-.11s.29-.04.43-.04c.81,0,1.45.23,1.93.67.48.45.72,1.05.72,1.81s-.25,1.4-.74,1.83c-.49.43-1.18.64-2.06.64-.31,0-.62-.03-.94-.07-.32-.05-.64-.12-.98-.23v-.99c.29.16.59.28.91.36.31.08.64.11.99.11.56,0,1.01-.14,1.34-.44.32-.3.49-.7.49-1.21s-.17-.9-.49-1.2c-.33-.3-.78-.45-1.34-.45-.26,0-.53.03-.79.09-.26.06-.53.15-.8.27v-3.66Z"/>
      <g class="cls-21">
        <line class="cls-3" x1="48.72" y1="66.83" x2="420.9" y2="66.83"/>
      </g>
      <line x1="48.72" y1="66.83" x2="45.22" y2="66.83"/>
      <line class="cls-10" x1="48.72" y1="66.83" x2="45.22" y2="66.83"/>
      <path d="M29.24,62.75h1.24v4.75h1.04v.82h-1.04v1.72h-.98v-1.72h-3.29v-.95l3.03-4.62ZM29.5,63.61l-2.49,3.89h2.49v-3.89Z"/>
      <rect x="33.15" y="68.8" width="1.03" height="1.24"/>
      <path d="M38.44,62.62c.81,0,1.43.33,1.87.97.43.65.65,1.59.65,2.81s-.22,2.17-.65,2.81c-.44.64-1.06.96-1.88.96s-1.44-.32-1.87-.96c-.43-.64-.64-1.58-.64-2.81s.21-2.16.64-2.81c.43-.64,1.06-.97,1.88-.97ZM38.44,63.4c-.51,0-.89.25-1.15.75-.26.5-.38,1.25-.38,2.25s.12,1.75.38,2.25c.26.5.64.75,1.15.75s.89-.25,1.15-.75c.25-.5.38-1.25.38-2.25s-.13-1.75-.38-2.25c-.26-.5-.64-.75-1.15-.75Z"/>
      <g class="cls-62">
        <line class="cls-3" x1="48.72" y1="21.85" x2="420.9" y2="21.85"/>
      </g>
      <line x1="48.72" y1="21.85" x2="45.22" y2="21.85"/>
      <line class="cls-10" x1="48.72" y1="21.85" x2="45.22" y2="21.85"/>
      <path d="M29.24,17.66h1.24v4.75h1.04v.82h-1.04v1.72h-.98v-1.72h-3.29v-.95l3.03-4.62ZM29.5,18.52l-2.49,3.89h2.49v-3.89Z"/>
      <rect x="33.15" y="23.71" width="1.03" height="1.24"/>
      <path d="M36.34,17.66h3.87v.83h-2.97v1.79c.14-.05.29-.09.43-.11s.29-.04.43-.04c.81,0,1.45.23,1.93.67.48.45.72,1.05.72,1.81s-.25,1.4-.74,1.83c-.49.43-1.18.64-2.06.64-.31,0-.62-.03-.94-.07-.32-.05-.64-.12-.98-.23v-.99c.29.16.59.28.91.36.31.08.64.11.99.11.56,0,1.01-.14,1.34-.44.32-.3.49-.7.49-1.21s-.17-.9-.49-1.2c-.33-.3-.78-.45-1.34-.45-.26,0-.53.03-.79.09-.26.06-.53.15-.8.27v-3.66Z"/>
      <polygon points="7.66 218.05 7.66 208.81 8.9 208.81 8.9 212.69 18.59 212.69 18.59 214.18 8.9 214.18 8.9 218.05 7.66 218.05"/>
      <path d="M10.19,206.81c0-1.17.39-2.09,1.14-2.76.76-.66,1.82-1,3.16-1s2.4.35,3.15,1c.76.68,1.14,1.59,1.14,2.76s-.38,2.11-1.14,2.77c-.75.66-1.8.99-3.15.99s-2.4-.33-3.16-.99c-.75-.66-1.14-1.59-1.14-2.77ZM11.33,206.81c0,.72.28,1.29.85,1.71.57.42,1.34.63,2.31.63s1.76-.2,2.32-.62.84-.99.84-1.72-.27-1.29-.84-1.71-1.33-.63-2.32-.63-1.74.21-2.31.63c-.57.42-.85.99-.85,1.71Z"/>
      <path d="M8.06,199.48h2.33v-2.78h1.05v2.78h4.46c.68,0,1.11-.09,1.29-.27.19-.18.28-.56.28-1.12v-1.38h1.12v1.38c0,1.05-.19,1.77-.58,2.16-.39.39-1.1.58-2.12.58h-4.46v.99h-1.05v-.99h-2.33v-1.35Z"/>
      <path d="M13.91,188.51h4.68v1.35h-1.25c.51.32.87.71,1.1,1.15s.34,1.02.34,1.68c0,.84-.23,1.51-.69,2.01-.46.49-1.09.74-1.89.74-.91,0-1.6-.3-2.09-.93-.47-.62-.7-1.53-.7-2.76v-1.89h-.14c-.61,0-1.1.21-1.44.61-.33.4-.51.98-.51,1.71,0,.48.06.93.18,1.38.12.45.28.87.49,1.27h-1.24c-.18-.48-.33-.96-.42-1.43s-.15-.91-.15-1.36c0-1.19.32-2.07.93-2.66.61-.58,1.55-.88,2.79-.88ZM14.47,191.2c0,1.1.14,1.85.38,2.26.26.42.68.63,1.27.63.48,0,.87-.15,1.14-.46.28-.32.42-.75.42-1.29,0-.75-.25-1.35-.79-1.8-.53-.45-1.23-.67-2.12-.67h-.3v1.33Z"/>
      <rect x="7.19" y="184.39" width="11.4" height="1.35"/>
      <path d="M14.5,175.99c.99,0,1.77-.19,2.34-.6.57-.4.84-.96.84-1.68s-.27-1.27-.84-1.7c-.57-.4-1.35-.61-2.34-.61s-1.76.21-2.32.61c-.57.42-.85.98-.85,1.7s.28,1.27.85,1.68c.57.41,1.34.6,2.32.6ZM11.63,171.4h-4.44v-1.35h11.4v1.35h-1.23c.49.29.85.65,1.08,1.08s.34.94.34,1.54c0,.99-.39,1.8-1.17,2.43-.78.63-1.83.93-3.12.93s-2.32-.3-3.12-.93c-.78-.63-1.19-1.44-1.19-2.43,0-.6.12-1.11.36-1.54.24-.43.6-.79,1.08-1.08Z"/>
      <path d="M13.76,161.6c-.74.01-1.32.23-1.77.62-.43.4-.66.94-.66,1.6,0,.75.23,1.35.65,1.8s1.02.72,1.78.78v-4.8ZM14.15,160.25h.66v6.2c.93-.06,1.65-.33,2.13-.84.48-.5.72-1.18.72-2.09,0-.51-.06-1.02-.18-1.5-.12-.48-.31-.97-.58-1.46h1.27c.21.48.38.98.47,1.49.09.51.15,1.04.15,1.54,0,1.32-.38,2.36-1.12,3.12s-1.78,1.14-3.09,1.14-2.4-.36-3.19-1.08c-.78-.72-1.19-1.71-1.19-2.94,0-1.11.36-1.98,1.06-2.62.72-.63,1.68-.96,2.9-.96Z"/>
      <rect x="7.19" y="156.7" width="11.4" height="1.35"/>
      <path d="M13.91,147.46h4.68v1.35h-1.25c.51.32.87.71,1.1,1.15s.34,1.02.34,1.68c0,.84-.23,1.51-.69,2.01-.46.49-1.09.74-1.89.74-.91,0-1.6-.3-2.09-.93-.47-.62-.7-1.53-.7-2.76v-1.89h-.14c-.61,0-1.1.21-1.44.61-.33.4-.51.98-.51,1.71,0,.48.06.93.18,1.38.12.45.28.87.49,1.27h-1.24c-.18-.48-.33-.96-.42-1.43s-.15-.91-.15-1.36c0-1.19.32-2.07.93-2.66.61-.58,1.55-.88,2.79-.88ZM14.47,150.14c0,1.1.14,1.85.38,2.26.26.42.68.63,1.27.63.48,0,.87-.15,1.14-.46.28-.32.42-.75.42-1.29,0-.75-.25-1.35-.79-1.8-.53-.45-1.23-.67-2.12-.67h-.3v1.33Z"/>
      <path d="M19.34,141.26c.96.39,1.6.76,1.91,1.12.3.36.45.84.45,1.44v1.08h-1.12v-.79c0-.36-.09-.65-.27-.86-.18-.21-.58-.43-1.24-.69l-.6-.24-8.07,3.32v-1.43l6.42-2.57-6.42-2.57v-1.43l8.95,3.6Z"/>
      <path d="M7.21,127.79c1.14.66,2.25,1.14,3.35,1.45,1.1.33,2.2.48,3.33.48s2.25-.15,3.35-.48c1.11-.31,2.2-.79,3.33-1.45v1.17c-1.16.74-2.26,1.29-3.38,1.65s-2.2.54-3.3.54-2.18-.18-3.29-.54c-1.11-.36-2.23-.9-3.39-1.65v-1.17Z"/>
      <path d="M10.63,119.95h1.27c-.18.39-.33.78-.43,1.18-.09.42-.15.84-.15,1.28,0,.68.1,1.18.31,1.51s.51.49.91.49c.32,0,.56-.12.73-.36.18-.24.36-.72.51-1.44l.11-.46c.21-.96.51-1.63.87-2.04.38-.39.9-.6,1.56-.6.76,0,1.36.3,1.8.9.45.6.66,1.44.66,2.49,0,.45-.05.9-.12,1.38-.08.48-.2.97-.38,1.5h-1.4c.27-.49.47-.99.58-1.47.14-.48.19-.96.19-1.44,0-.63-.1-1.12-.31-1.47-.21-.33-.53-.51-.93-.51-.36,0-.65.13-.84.38-.19.24-.39.78-.57,1.62l-.11.46c-.18.84-.45,1.46-.81,1.82-.36.38-.85.56-1.5.56-.76,0-1.36-.27-1.78-.81-.42-.54-.63-1.32-.63-2.34,0-.49.05-.96.12-1.41.08-.43.18-.84.32-1.21Z"/>
      <path d="M13.76,111.7c-.74.01-1.32.23-1.77.62-.43.4-.66.94-.66,1.6,0,.75.23,1.35.65,1.8s1.02.72,1.78.78v-4.8ZM14.15,110.35h.66v6.2c.93-.06,1.65-.33,2.13-.84.48-.5.72-1.18.72-2.09,0-.51-.06-1.02-.18-1.5-.12-.48-.31-.97-.58-1.46h1.27c.21.48.38.98.47,1.49.09.51.15,1.04.15,1.54,0,1.32-.38,2.36-1.12,3.12s-1.78,1.14-3.09,1.14-2.4-.36-3.19-1.08c-.78-.72-1.19-1.71-1.19-2.94,0-1.11.36-1.98,1.06-2.62.72-.63,1.68-.96,2.9-.96Z"/>
      <path d="M10.7,102.23h1.26c-.21.39-.36.77-.47,1.16s-.16.76-.16,1.15c0,.87.28,1.56.84,2.04s1.34.72,2.32.72,1.79-.24,2.34-.72c.56-.48.83-1.17.83-2.04,0-.39-.05-.76-.15-1.15s-.27-.76-.48-1.16h1.24c.18.39.32.78.39,1.17.07.4.12.84.12,1.29,0,1.23-.38,2.22-1.15,2.94-.77.74-1.82,1.1-3.14,1.1s-2.39-.36-3.15-1.1c-.76-.74-1.15-1.74-1.15-3.03,0-.42.05-.82.14-1.21s.21-.78.38-1.16Z"/>
      <path d="M7.21,100.1v-1.17c1.15-.72,2.28-1.28,3.39-1.64,1.11-.36,2.2-.55,3.29-.55s2.19.19,3.3.55,2.22.92,3.38,1.64v1.17c-1.12-.65-2.22-1.12-3.33-1.46-1.09-.32-2.2-.48-3.35-.48s-2.23.16-3.33.48c-1.1.33-2.21.81-3.35,1.46Z"/>
      <polygon points="55.73 9.69 53.5 11.93 55.73 14.16 55.15 14.75 52.91 12.51 50.67 14.75 50.09 14.16 52.32 11.93 50.09 9.69 50.67 9.1 52.91 11.34 55.15 9.1 55.73 9.69"/>
      <polygon points="58.33 14.23 59.94 14.23 59.94 8.67 58.19 9.02 58.19 8.12 59.93 7.77 60.92 7.77 60.92 14.23 62.53 14.23 62.53 15.06 58.33 15.06 58.33 14.23"/>
      <path d="M66.64,7.64c.81,0,1.43.33,1.87.97.43.65.65,1.59.65,2.81s-.22,2.17-.65,2.81c-.44.64-1.06.96-1.88.96s-1.44-.32-1.87-.96c-.43-.64-.64-1.58-.64-2.81s.21-2.16.64-2.81c.43-.64,1.06-.97,1.88-.97ZM66.64,8.42c-.51,0-.89.25-1.15.75-.26.5-.38,1.25-.38,2.25s.12,1.75.38,2.25c.26.5.64.75,1.15.75s.89-.25,1.15-.75c.25-.5.38-1.25.38-2.25s-.13-1.75-.38-2.25c-.26-.5-.64-.75-1.15-.75Z"/>
      <path d="M70.67,6.13h2.71v.58h-2.08v1.25c.1-.03.2-.06.3-.08.1-.01.2-.03.3-.03.57,0,1.01.16,1.35.47.34.32.5.73.5,1.27s-.18.98-.52,1.28c-.34.3-.83.45-1.44.45-.22,0-.43-.02-.66-.05-.22-.04-.45-.08-.69-.16v-.69c.2.11.41.2.64.25.22.06.45.08.69.08.39,0,.71-.1.94-.31.22-.21.34-.49.34-.85s-.12-.63-.34-.84c-.23-.21-.55-.32-.94-.32-.18,0-.37.02-.55.06-.18.04-.37.11-.56.19v-2.56Z"/>
      <g class="cls-19">
        <polyline class="cls-11" points="65.63 76.56 107.93 216.49 150.22 260.27 192.51 277.21 234.81 282.72 277.1 280.49 319.4 270.69 361.69 259.01 403.98 247.51"/>
        <g class="cls-23">
          <polygon class="cls-4" points="65.63 73.56 62.63 79.56 68.63 79.56 65.63 73.56"/>
        </g>
        <g class="cls-57">
          <polygon class="cls-4" points="107.93 213.49 104.93 219.49 110.93 219.49 107.93 213.49"/>
        </g>
        <g class="cls-47">
          <polygon class="cls-4" points="150.22 257.27 147.22 263.27 153.22 263.27 150.22 257.27"/>
        </g>
        <g class="cls-16">
          <polygon class="cls-4" points="192.51 274.21 189.51 280.21 195.51 280.21 192.51 274.21"/>
        </g>
        <g class="cls-26">
          <polygon class="cls-4" points="234.81 279.72 231.81 285.72 237.81 285.72 234.81 279.72"/>
        </g>
        <g class="cls-27">
          <polygon class="cls-4" points="277.1 277.49 274.1 283.49 280.1 283.49 277.1 277.49"/>
        </g>
        <g class="cls-68">
          <polygon class="cls-4" points="319.4 267.69 316.4 273.69 322.4 273.69 319.4 267.69"/>
        </g>
        <g class="cls-34">
          <polygon class="cls-4" points="361.69 256.01 358.69 262.01 364.69 262.01 361.69 256.01"/>
        </g>
        <g class="cls-52">
          <polygon class="cls-4" points="403.98 244.51 400.98 250.51 406.98 250.51 403.98 244.51"/>
        </g>
      </g>
      <g class="cls-35">
        <polyline class="cls-9" points="65.63 89.15 107.93 227.16 150.22 252.66 192.51 236.53 234.81 205.93 277.1 167.04 319.4 123.06 361.69 77.14 403.98 30.72"/>
        <g class="cls-40">
          <rect class="cls-5" x="62.63" y="86.15" width="6" height="6"/>
        </g>
        <g class="cls-64">
          <rect class="cls-5" x="104.93" y="224.16" width="6" height="6"/>
        </g>
        <g class="cls-56">
          <rect class="cls-5" x="147.22" y="249.66" width="6" height="6"/>
        </g>
        <g class="cls-20">
          <rect class="cls-5" x="189.51" y="233.53" width="6" height="6"/>
        </g>
        <g class="cls-58">
          <rect class="cls-5" x="231.81" y="202.93" width="6" height="6"/>
        </g>
        <g class="cls-22">
          <rect class="cls-5" x="274.1" y="164.04" width="6" height="6"/>
        </g>
        <g class="cls-14">
          <rect class="cls-5" x="316.4" y="120.06" width="6" height="6"/>
        </g>
        <g class="cls-38">
          <rect class="cls-5" x="358.69" y="74.14" width="6" height="6"/>
        </g>
        <g class="cls-37">
          <rect class="cls-5" x="400.98" y="27.72" width="6" height="6"/>
        </g>
      </g>
      <g class="cls-66">
        <polyline class="cls-6" points="65.63 79.62 107.93 92.8 150.22 103.97 192.51 111.97 234.81 120.58 277.1 127.95 319.4 136.06 361.69 143.21 403.98 149.43"/>
        <g class="cls-15">
          <polygon class="cls-4" points="65.63 76.62 62.63 82.62 68.63 82.62 65.63 76.62"/>
        </g>
        <g class="cls-61">
          <polygon class="cls-4" points="107.93 89.8 104.93 95.8 110.93 95.8 107.93 89.8"/>
        </g>
        <g class="cls-45">
          <polygon class="cls-4" points="150.22 100.97 147.22 106.97 153.22 106.97 150.22 100.97"/>
        </g>
        <g class="cls-50">
          <polygon class="cls-4" points="192.51 108.97 189.51 114.97 195.51 114.97 192.51 108.97"/>
        </g>
        <g class="cls-31">
          <polygon class="cls-4" points="234.81 117.58 231.81 123.58 237.81 123.58 234.81 117.58"/>
        </g>
        <g class="cls-33">
          <polygon class="cls-4" points="277.1 124.95 274.1 130.95 280.1 130.95 277.1 124.95"/>
        </g>
        <g class="cls-70">
          <polygon class="cls-4" points="319.4 133.06 316.4 139.06 322.4 139.06 319.4 133.06"/>
        </g>
        <g class="cls-43">
          <polygon class="cls-4" points="361.69 140.21 358.69 146.21 364.69 146.21 361.69 140.21"/>
        </g>
        <g class="cls-44">
          <polygon class="cls-4" points="403.98 146.43 400.98 152.43 406.98 152.43 403.98 146.43"/>
        </g>
      </g>
      <g class="cls-24">
        <polyline class="cls-12" points="65.63 89.15 107.93 100.45 150.22 111.37 192.51 125.68 234.81 135.31 277.1 145.72 319.4 150.24 361.69 158.62 403.98 166.4"/>
        <g class="cls-39">
          <rect class="cls-5" x="62.63" y="86.15" width="6" height="6"/>
        </g>
        <g class="cls-65">
          <rect class="cls-5" x="104.93" y="97.45" width="6" height="6"/>
        </g>
        <g class="cls-54">
          <rect class="cls-5" x="147.22" y="108.37" width="6" height="6"/>
        </g>
        <g class="cls-1">
          <rect class="cls-5" x="189.51" y="122.68" width="6" height="6"/>
        </g>
        <g class="cls-49">
          <rect class="cls-5" x="231.81" y="132.31" width="6" height="6"/>
        </g>
        <g class="cls-60">
          <rect class="cls-5" x="274.1" y="142.72" width="6" height="6"/>
        </g>
        <g class="cls-28">
          <rect class="cls-5" x="316.4" y="147.24" width="6" height="6"/>
        </g>
        <g class="cls-59">
          <rect class="cls-5" x="358.69" y="155.62" width="6" height="6"/>
        </g>
        <g class="cls-42">
          <rect class="cls-5" x="400.98" y="163.4" width="6" height="6"/>
        </g>
      </g>
      <line class="cls-8" x1="48.72" y1="295.32" x2="48.72" y2="18.12"/>
      <line class="cls-8" x1="420.9" y1="295.32" x2="420.9" y2="18.12"/>
      <line class="cls-8" x1="48.72" y1="295.32" x2="420.9" y2="295.32"/>
      <line class="cls-8" x1="48.72" y1="18.12" x2="420.9" y2="18.12"/>
      <g>
        <rect class="cls-13" x="158.39" y="22.37" width="152.83" height="80.21" rx="2.6" ry="2.6"/>
        <rect class="cls-2" x="158.39" y="22.37" width="152.83" height="80.21" rx="2.6" ry="2.6"/>
      </g>
      <polyline class="cls-11" points="163.59 32.89 176.59 32.89 189.59 32.89"/>
      <polygon class="cls-4" points="176.59 29.89 173.59 35.89 179.59 35.89 176.59 29.89"/>
      <polygon points="201.27 27.97 203.18 27.97 205.6 34.41 208.03 27.97 209.94 27.97 209.94 37.44 208.69 37.44 208.69 29.12 206.25 35.62 204.96 35.62 202.51 29.12 202.51 37.44 201.27 37.44 201.27 27.97"/>
      <polygon points="214.93 37.44 211.32 27.97 212.66 27.97 215.66 35.95 218.66 27.97 220 27.97 216.39 37.44 214.93 37.44"/>
      <rect x="221.38" y="27.97" width="1.29" height="9.48"/>
      <path d="M225.21,27.97h2.9c1.05,0,1.86.25,2.4.73.55.48.82,1.18.82,2.11s-.27,1.65-.82,2.12c-.55.48-1.35.71-2.4.71h-1.61v3.81h-1.29v-9.48ZM226.5,29.02v3.56h1.61c.6,0,1.05-.14,1.38-.45.33-.31.49-.75.49-1.33s-.17-1-.49-1.31c-.32-.31-.78-.47-1.38-.47h-1.61Z"/>
      <path d="M239.94,27.58c-.57.99-.99,1.95-1.26,2.9-.29.95-.42,1.91-.42,2.89s.13,1.95.42,2.9c.27.96.69,1.91,1.26,2.89h-1.01c-.64-1-1.12-1.96-1.43-2.92-.31-.96-.47-1.91-.47-2.86s.16-1.89.47-2.85c.31-.96.78-1.94,1.43-2.94h1.01Z"/>
      <path d="M247.74,31.7c.29-.52.64-.9,1.04-1.16.4-.25.88-.38,1.44-.38.73,0,1.3.26,1.7.78s.61,1.26.61,2.21v4.29h-1.17v-4.25c0-.68-.13-1.18-.36-1.52-.25-.33-.61-.49-1.1-.49-.61,0-1.09.21-1.44.61-.35.4-.52.95-.52,1.64v4.02h-1.17v-4.25c0-.68-.13-1.18-.36-1.52-.25-.33-.62-.49-1.12-.49-.6,0-1.08.21-1.43.61-.35.4-.52.95-.52,1.64v4.02h-1.17v-7.11h1.17v1.1c.26-.43.59-.75.96-.96.36-.21.81-.31,1.33-.31s.95.13,1.31.39c.36.26.62.65.81,1.14Z"/>
      <path d="M257.69,30.16h0ZM254.75,34.63v-4.3h1.17v4.26c0,.68.13,1.17.39,1.51.26.34.65.51,1.18.51.62,0,1.13-.2,1.49-.6.36-.4.55-.95.55-1.65v-4.03h1.17v7.11h-1.17v-1.09c-.29.44-.62.75-.99.96-.38.2-.81.3-1.3.3-.82,0-1.44-.25-1.86-.75-.43-.49-.64-1.24-.64-2.22Z"/>
      <rect x="263.11" y="27.56" width="1.17" height="9.88"/>
      <path d="M267.88,28.32v2.02h2.4v.91h-2.4v3.86c0,.58.08.96.23,1.12.16.17.48.25.98.25h1.2v.98h-1.2c-.91,0-1.53-.17-1.87-.51s-.51-.95-.51-1.83v-3.86h-.86v-.91h.86v-2.02h1.17Z"/>
      <path d="M271.82,27.56h1.17v1.48h-1.17v-1.48ZM271.82,30.33h1.17v7.11h-1.17v-7.11Z"/>
      <rect x="274.85" y="33.36" width="3.42" height="1.04"/>
      <path d="M281.28,28.32v2.02h2.4v.91h-2.4v3.86c0,.58.08.96.23,1.12.16.17.48.25.98.25h1.2v.98h-1.2c-.91,0-1.53-.17-1.87-.51s-.51-.95-.51-1.83v-3.86h-.86v-.91h.86v-2.02h1.17Z"/>
      <path d="M285.22,27.56h1.17v1.48h-1.17v-1.48ZM285.22,30.33h1.17v7.11h-1.17v-7.11Z"/>
      <path d="M293.75,33.26c-.01-.64-.19-1.14-.53-1.53-.35-.38-.82-.57-1.39-.57-.65,0-1.17.19-1.56.56-.39.36-.62.88-.68,1.55h4.16ZM294.92,33.59v.57h-5.37c.05.81.29,1.43.73,1.85.43.42,1.03.62,1.81.62.44,0,.88-.05,1.3-.16.42-.1.85-.27,1.26-.51v1.1c-.42.18-.85.33-1.29.4-.44.08-.9.13-1.34.13-1.14,0-2.04-.33-2.7-.98s-.99-1.55-.99-2.68.31-2.08.94-2.77c.62-.68,1.48-1.03,2.55-1.03.96,0,1.72.31,2.27.92.55.62.83,1.46.83,2.51Z"/>
      <path d="M300.95,31.42c-.13-.08-.27-.13-.43-.17-.16-.03-.33-.05-.51-.05-.66,0-1.17.22-1.52.65-.36.43-.53,1.04-.53,1.85v3.74h-1.17v-7.11h1.17v1.1c.23-.43.56-.75.95-.96.39-.21.87-.31,1.44-.31.08,0,.17.01.27.01.09.01.2.03.32.05v1.2Z"/>
      <path d="M301.99,27.58h1.01c.62,1,1.11,1.98,1.42,2.94.31.96.48,1.91.48,2.85s-.17,1.9-.48,2.86c-.31.96-.79,1.92-1.42,2.92h-1.01c.56-.98.98-1.92,1.26-2.89.27-.95.42-1.91.42-2.9s-.14-1.94-.42-2.89c-.29-.95-.7-1.91-1.26-2.9Z"/>
      <polyline class="cls-9" points="163.59 51.97 176.59 51.97 189.59 51.97"/>
      <rect class="cls-5" x="173.59" y="48.97" width="6" height="6"/>
      <polygon points="201.27 47.04 202.55 47.04 202.55 55.44 207.17 55.44 207.17 56.52 201.27 56.52 201.27 47.04"/>
      <polygon points="208.51 47.04 213.96 47.04 213.96 48.12 209.8 48.12 209.8 50.92 213.55 50.92 213.55 52 209.8 52 209.8 56.52 208.51 56.52 208.51 47.04"/>
      <path d="M215.84,47.04h1.29v5.76c0,1.01.18,1.75.55,2.2.36.44.96.66,1.79.66s1.42-.22,1.78-.66c.36-.44.56-1.18.56-2.2v-5.76h1.29v5.91c0,1.25-.31,2.17-.92,2.8-.61.62-1.51.94-2.7.94s-2.11-.31-2.72-.94c-.61-.62-.91-1.55-.91-2.8v-5.91Z"/>
      <path d="M232.39,46.65c-.57.99-.99,1.95-1.26,2.9-.29.95-.42,1.91-.42,2.89s.13,1.95.42,2.9c.27.96.69,1.91,1.26,2.89h-1.01c-.64-1-1.12-1.96-1.43-2.92-.31-.96-.47-1.91-.47-2.86s.16-1.89.47-2.85c.31-.96.78-1.94,1.43-2.94h1.01Z"/>
      <path d="M240.19,50.77c.29-.52.64-.9,1.04-1.16.4-.25.88-.38,1.44-.38.73,0,1.3.26,1.7.78s.61,1.26.61,2.21v4.29h-1.17v-4.25c0-.68-.13-1.18-.36-1.52-.25-.33-.61-.49-1.1-.49-.61,0-1.09.21-1.44.61-.35.4-.52.95-.52,1.64v4.02h-1.17v-4.25c0-.68-.13-1.18-.36-1.52-.25-.33-.62-.49-1.12-.49-.6,0-1.08.21-1.43.61-.35.4-.52.95-.52,1.64v4.02h-1.17v-7.11h1.17v1.1c.26-.43.59-.75.96-.96.36-.21.81-.31,1.33-.31s.95.13,1.31.39c.36.26.62.65.81,1.14Z"/>
      <path d="M250.13,49.24h0ZM247.2,53.71v-4.3h1.17v4.26c0,.68.13,1.17.39,1.51.26.34.65.51,1.18.51.62,0,1.13-.2,1.49-.6.36-.4.55-.95.55-1.65v-4.03h1.17v7.11h-1.17v-1.09c-.29.44-.62.75-.99.96-.38.2-.81.3-1.3.3-.82,0-1.44-.25-1.86-.75-.43-.49-.64-1.24-.64-2.22Z"/>
      <rect x="255.55" y="46.64" width="1.17" height="9.88"/>
      <path d="M260.33,47.39v2.02h2.4v.91h-2.4v3.86c0,.58.08.96.23,1.12.16.17.48.25.98.25h1.2v.98h-1.2c-.91,0-1.53-.17-1.87-.51s-.51-.95-.51-1.83v-3.86h-.86v-.91h.86v-2.02h1.17Z"/>
      <path d="M264.26,46.64h1.17v1.48h-1.17v-1.48ZM264.26,49.41h1.17v7.11h-1.17v-7.11Z"/>
      <rect x="267.29" y="52.44" width="3.42" height="1.04"/>
      <path d="M273.73,47.39v2.02h2.4v.91h-2.4v3.86c0,.58.08.96.23,1.12.16.17.48.25.98.25h1.2v.98h-1.2c-.91,0-1.53-.17-1.87-.51s-.51-.95-.51-1.83v-3.86h-.86v-.91h.86v-2.02h1.17Z"/>
      <path d="M277.67,46.64h1.17v1.48h-1.17v-1.48ZM277.67,49.41h1.17v7.11h-1.17v-7.11Z"/>
      <path d="M286.2,52.33c-.01-.64-.19-1.14-.53-1.53-.35-.38-.82-.57-1.39-.57-.65,0-1.17.19-1.56.56-.39.36-.62.88-.68,1.55h4.16ZM287.37,52.67v.57h-5.37c.05.81.29,1.43.73,1.85.43.42,1.03.62,1.81.62.44,0,.88-.05,1.3-.16.42-.1.85-.27,1.26-.51v1.1c-.42.18-.85.33-1.29.4-.44.08-.9.13-1.34.13-1.14,0-2.04-.33-2.7-.98s-.99-1.55-.99-2.68.31-2.08.94-2.77c.62-.68,1.48-1.03,2.55-1.03.96,0,1.72.31,2.27.92.55.62.83,1.46.83,2.51Z"/>
      <path d="M293.4,50.5c-.13-.08-.27-.13-.43-.17-.16-.03-.33-.05-.51-.05-.66,0-1.17.22-1.52.65-.36.43-.53,1.04-.53,1.85v3.74h-1.17v-7.11h1.17v1.1c.23-.43.56-.75.95-.96.39-.21.87-.31,1.44-.31.08,0,.17.01.27.01.09.01.2.03.32.05v1.2Z"/>
      <path d="M294.44,46.65h1.01c.62,1,1.11,1.98,1.42,2.94.31.96.48,1.91.48,2.85s-.17,1.9-.48,2.86c-.31.96-.79,1.92-1.42,2.92h-1.01c.56-.98.98-1.92,1.26-2.89.27-.95.42-1.91.42-2.9s-.14-1.94-.42-2.89c-.29-.95-.7-1.91-1.26-2.9Z"/>
      <polyline class="cls-6" points="163.59 71.05 176.59 71.05 189.59 71.05"/>
      <polygon class="cls-4" points="176.59 68.05 173.59 74.05 179.59 74.05 176.59 68.05"/>
      <polygon points="203.71 75.6 200.1 66.12 201.44 66.12 204.44 74.1 207.44 66.12 208.78 66.12 205.17 75.6 203.71 75.6"/>
      <rect x="210.16" y="66.12" width="1.29" height="9.48"/>
      <path d="M213.99,66.12h2.9c1.05,0,1.86.25,2.4.73.55.48.82,1.18.82,2.11s-.27,1.65-.82,2.12c-.55.48-1.35.71-2.4.71h-1.61v3.81h-1.29v-9.48ZM215.28,67.17v3.56h1.61c.6,0,1.05-.14,1.38-.45.33-.31.49-.75.49-1.33s-.17-1-.49-1.31c-.32-.31-.78-.47-1.38-.47h-1.61Z"/>
      <path d="M228.72,65.73c-.57.99-.99,1.95-1.26,2.9-.29.95-.42,1.91-.42,2.89s.13,1.95.42,2.9c.27.96.69,1.91,1.26,2.89h-1.01c-.64-1-1.12-1.96-1.43-2.92-.31-.96-.47-1.91-.47-2.86s.16-1.89.47-2.85c.31-.96.78-1.94,1.43-2.94h1.01Z"/>
      <path d="M235.52,68.7v1.11c-.34-.16-.68-.29-1.03-.38-.36-.08-.73-.13-1.1-.13-.58,0-1.03.09-1.31.27-.29.18-.43.44-.43.79,0,.27.1.48.31.64.21.16.62.31,1.25.44l.4.09c.83.18,1.42.44,1.77.75.34.33.52.78.52,1.35,0,.66-.26,1.18-.78,1.56-.52.39-1.25.57-2.16.57-.39,0-.78-.04-1.2-.1s-.85-.17-1.3-.33v-1.21c.43.23.86.4,1.27.51.42.12.83.17,1.25.17.55,0,.98-.09,1.27-.27.29-.18.44-.45.44-.81,0-.31-.12-.56-.32-.73-.21-.17-.68-.34-1.4-.49l-.4-.09c-.73-.16-1.26-.39-1.57-.7-.32-.31-.48-.74-.48-1.3,0-.66.23-1.18.7-1.55.47-.36,1.14-.55,2.03-.55.43,0,.83.04,1.22.1.38.07.73.16,1.05.27Z"/>
      <path d="M237.76,65.72h1.17v1.48h-1.17v-1.48ZM237.76,68.49h1.17v7.11h-1.17v-7.11Z"/>
      <path d="M247.29,71.31v4.29h-1.17v-4.25c0-.68-.14-1.17-.4-1.51-.26-.34-.65-.51-1.17-.51-.64,0-1.13.21-1.49.61-.36.4-.55.95-.55,1.64v4.02h-1.17v-7.11h1.17v1.1c.27-.42.6-.74.99-.95.38-.21.82-.33,1.31-.33.81,0,1.43.26,1.85.77s.64,1.25.64,2.22Z"/>
      <path d="M255.46,74.71c0,1.2-.27,2.09-.81,2.69-.55.58-1.37.88-2.47.88-.42,0-.79-.04-1.16-.09-.36-.07-.73-.16-1.07-.29v-1.13c.34.18.68.31,1.01.4.34.09.68.14,1.03.14.75,0,1.33-.21,1.72-.6.38-.4.57-1,.57-1.81v-.57c-.25.42-.56.73-.94.94-.38.21-.82.31-1.34.31-.88,0-1.59-.33-2.12-.99-.53-.66-.79-1.55-.79-2.65s.26-1.98.79-2.64c.53-.66,1.24-1,2.12-1,.52,0,.96.1,1.34.31.38.21.69.52.94.94v-1.08h1.17v6.23ZM254.29,71.96c0-.83-.18-1.49-.52-1.96-.35-.47-.85-.7-1.47-.7s-1.12.23-1.47.7c-.35.47-.52,1.13-.52,1.96s.17,1.5.52,1.96.85.7,1.47.7,1.12-.23,1.47-.7c.34-.47.52-1.12.52-1.96Z"/>
      <rect x="257.87" y="65.72" width="1.17" height="9.88"/>
      <path d="M266.4,71.41c-.01-.64-.19-1.14-.53-1.53-.35-.38-.82-.57-1.39-.57-.65,0-1.17.19-1.56.56-.39.36-.62.88-.68,1.55h4.16ZM267.57,71.75v.57h-5.37c.05.81.29,1.43.73,1.85.43.42,1.03.62,1.81.62.44,0,.88-.05,1.3-.16.42-.1.85-.27,1.26-.51v1.1c-.42.18-.85.33-1.29.4-.44.08-.9.13-1.34.13-1.14,0-2.04-.33-2.7-.98s-.99-1.55-.99-2.68.31-2.08.94-2.77c.62-.68,1.48-1.03,2.55-1.03.96,0,1.72.31,2.27.92.55.62.83,1.46.83,2.51Z"/>
      <rect x="268.89" y="71.52" width="3.42" height="1.04"/>
      <path d="M275.33,66.47v2.02h2.4v.91h-2.4v3.86c0,.58.08.96.23,1.12.16.17.48.25.98.25h1.2v.98h-1.2c-.91,0-1.53-.17-1.87-.51s-.51-.95-.51-1.83v-3.86h-.86v-.91h.86v-2.02h1.17Z"/>
      <path d="M279.27,65.72h1.17v1.48h-1.17v-1.48ZM279.27,68.49h1.17v7.11h-1.17v-7.11Z"/>
      <path d="M287.79,71.41c-.01-.64-.19-1.14-.53-1.53-.35-.38-.82-.57-1.39-.57-.65,0-1.17.19-1.56.56-.39.36-.62.88-.68,1.55h4.16ZM288.96,71.75v.57h-5.37c.05.81.29,1.43.73,1.85.43.42,1.03.62,1.81.62.44,0,.88-.05,1.3-.16.42-.1.85-.27,1.26-.51v1.1c-.42.18-.85.33-1.29.4-.44.08-.9.13-1.34.13-1.14,0-2.04-.33-2.7-.98s-.99-1.55-.99-2.68.31-2.08.94-2.77c.62-.68,1.48-1.03,2.55-1.03.96,0,1.72.31,2.27.92.55.62.83,1.46.83,2.51Z"/>
      <path d="M295,69.58c-.13-.08-.27-.13-.43-.17-.16-.03-.33-.05-.51-.05-.66,0-1.17.22-1.52.65-.36.43-.53,1.04-.53,1.85v3.74h-1.17v-7.11h1.17v1.1c.23-.43.56-.75.95-.96.39-.21.87-.31,1.44-.31.08,0,.17.01.27.01.09.01.2.03.32.05v1.2Z"/>
      <path d="M296.04,65.73h1.01c.62,1,1.11,1.98,1.42,2.94.31.96.48,1.91.48,2.85s-.17,1.9-.48,2.86c-.31.96-.79,1.92-1.42,2.92h-1.01c.56-.98.98-1.92,1.26-2.89.27-.95.42-1.91.42-2.9s-.14-1.94-.42-2.89c-.29-.95-.7-1.91-1.26-2.9Z"/>
      <polyline class="cls-12" points="163.59 90.13 176.59 90.13 189.59 90.13"/>
      <rect class="cls-5" x="173.59" y="87.13" width="6" height="6"/>
      <polygon points="201.27 85.2 202.55 85.2 202.55 93.6 207.17 93.6 207.17 94.68 201.27 94.68 201.27 85.2"/>
      <polygon points="208.51 85.2 213.96 85.2 213.96 86.28 209.8 86.28 209.8 89.07 213.55 89.07 213.55 90.15 209.8 90.15 209.8 94.68 208.51 94.68 208.51 85.2"/>
      <path d="M215.84,85.2h1.29v5.76c0,1.01.18,1.76.55,2.2s.96.66,1.79.66,1.42-.22,1.78-.66.56-1.18.56-2.2v-5.76h1.29v5.92c0,1.25-.31,2.17-.92,2.79-.61.62-1.51.94-2.7.94s-2.11-.31-2.72-.94c-.61-.62-.91-1.55-.91-2.79v-5.92Z"/>
      <path d="M232.39,84.81c-.57.99-.99,1.95-1.26,2.9-.29.95-.42,1.91-.42,2.89s.13,1.95.42,2.9c.27.96.69,1.91,1.26,2.89h-1.01c-.64-1-1.12-1.96-1.43-2.93s-.47-1.91-.47-2.86.16-1.88.47-2.85.78-1.94,1.43-2.94h1.01Z"/>
      <path d="M239.19,87.77v1.1c-.34-.16-.68-.29-1.03-.38-.36-.08-.73-.13-1.1-.13-.58,0-1.03.09-1.31.27-.29.18-.43.44-.43.79,0,.27.1.48.31.64.21.16.62.31,1.25.44l.4.09c.83.18,1.42.44,1.77.75.34.32.52.78.52,1.35,0,.66-.26,1.18-.78,1.56-.52.39-1.25.57-2.16.57-.39,0-.78-.04-1.2-.1s-.85-.17-1.3-.32v-1.21c.43.23.86.4,1.27.51.42.12.83.17,1.25.17.55,0,.98-.09,1.27-.27.29-.18.44-.46.44-.81,0-.31-.12-.56-.32-.73-.21-.17-.68-.34-1.4-.49l-.4-.09c-.73-.16-1.26-.39-1.57-.7-.32-.31-.48-.74-.48-1.3,0-.66.23-1.18.7-1.55.47-.36,1.14-.55,2.03-.55.43,0,.83.04,1.22.1.38.07.73.16,1.05.27Z"/>
      <path d="M241.42,84.8h1.17v1.48h-1.17v-1.48ZM241.42,87.57h1.17v7.11h-1.17v-7.11Z"/>
      <path d="M250.95,90.39v4.29h-1.17v-4.25c0-.68-.14-1.17-.4-1.51-.26-.34-.65-.51-1.17-.51-.64,0-1.13.21-1.49.61s-.55.95-.55,1.64v4.02h-1.17v-7.11h1.17v1.1c.27-.42.6-.74.99-.95.38-.21.82-.32,1.31-.32.81,0,1.43.26,1.85.77s.64,1.25.64,2.22Z"/>
      <path d="M259.13,93.79c0,1.2-.27,2.09-.81,2.69-.55.58-1.36.88-2.47.88-.42,0-.79-.04-1.16-.09-.36-.07-.73-.16-1.07-.29v-1.13c.34.18.68.31,1.01.4.34.09.68.14,1.03.14.75,0,1.33-.21,1.72-.6.38-.4.57-1,.57-1.81v-.57c-.25.42-.56.73-.94.94-.38.21-.82.31-1.34.31-.88,0-1.59-.32-2.12-.99-.53-.66-.79-1.55-.79-2.65s.26-1.98.79-2.64c.53-.66,1.24-1,2.12-1,.52,0,.96.1,1.34.31.38.21.69.52.94.94v-1.08h1.17v6.23ZM257.96,91.04c0-.83-.18-1.49-.52-1.96-.35-.47-.85-.7-1.47-.7s-1.12.23-1.47.7-.52,1.13-.52,1.96.17,1.49.52,1.96.85.7,1.47.7,1.12-.23,1.47-.7c.34-.47.52-1.12.52-1.96Z"/>
      <rect x="261.53" y="84.8" width="1.17" height="9.88"/>
      <path d="M270.06,90.49c-.01-.64-.19-1.14-.53-1.53-.35-.38-.82-.57-1.39-.57-.65,0-1.17.2-1.56.56-.39.36-.62.88-.68,1.55h4.16ZM271.23,90.83v.57h-5.37c.05.81.29,1.43.73,1.85.43.42,1.03.62,1.81.62.44,0,.88-.05,1.3-.16.42-.1.85-.27,1.26-.51v1.1c-.42.18-.85.32-1.29.4-.44.08-.9.13-1.34.13-1.14,0-2.04-.33-2.7-.98s-.99-1.55-.99-2.68.31-2.08.94-2.77c.62-.68,1.48-1.03,2.55-1.03.96,0,1.72.31,2.27.92.55.62.83,1.46.83,2.51Z"/>
      <rect x="272.56" y="90.6" width="3.42" height="1.04"/>
      <path d="M278.99,85.55v2.02h2.4v.91h-2.4v3.86c0,.58.08.96.23,1.12.16.17.48.25.98.25h1.2v.98h-1.2c-.91,0-1.53-.17-1.87-.51-.34-.34-.51-.95-.51-1.83v-3.86h-.86v-.91h.86v-2.02h1.17Z"/>
      <path d="M282.93,84.8h1.17v1.48h-1.17v-1.48ZM282.93,87.57h1.17v7.11h-1.17v-7.11Z"/>
      <path d="M291.46,90.49c-.01-.64-.19-1.14-.53-1.53-.35-.38-.82-.57-1.39-.57-.65,0-1.17.2-1.56.56-.39.36-.62.88-.68,1.55h4.16ZM292.63,90.83v.57h-5.37c.05.81.29,1.43.73,1.85.43.42,1.03.62,1.81.62.44,0,.88-.05,1.3-.16.42-.1.85-.27,1.26-.51v1.1c-.42.18-.85.32-1.29.4-.44.08-.9.13-1.34.13-1.14,0-2.04-.33-2.7-.98s-.99-1.55-.99-2.68.31-2.08.94-2.77c.62-.68,1.48-1.03,2.55-1.03.96,0,1.72.31,2.27.92.55.62.83,1.46.83,2.51Z"/>
      <path d="M298.66,88.66c-.13-.08-.27-.13-.43-.17-.16-.03-.33-.05-.51-.05-.66,0-1.17.22-1.52.65-.36.43-.53,1.04-.53,1.85v3.74h-1.17v-7.11h1.17v1.1c.23-.43.56-.75.95-.96.39-.21.87-.31,1.44-.31.08,0,.17.01.27.01.09.01.2.03.32.05v1.2Z"/>
      <path d="M299.7,84.81h1.01c.62,1,1.11,1.98,1.42,2.94.31.96.48,1.91.48,2.85s-.17,1.9-.48,2.86c-.31.96-.79,1.92-1.42,2.93h-1.01c.56-.98.98-1.92,1.26-2.89.27-.95.42-1.91.42-2.9s-.14-1.94-.42-2.89c-.29-.95-.7-1.91-1.26-2.9Z"/>
    </g>
  </g>
</svg>