<?xml version="1.0" encoding="UTF-8"?>
<svg id="Layer_1" data-name="Layer 1" xmlns="http://www.w3.org/2000/svg" version="1.1" xmlns:xlink="http://www.w3.org/1999/xlink" viewBox="0 0 428.1 339.19">
  <defs>
    <style>
      .cls-1, .cls-2, .cls-3, .cls-4, .cls-5, .cls-6, .cls-7, .cls-8, .cls-9, .cls-10, .cls-11, .cls-12, .cls-13, .cls-14, .cls-15 {
        fill: none;
      }

      .cls-1, .cls-3, .cls-4, .cls-6, .cls-7, .cls-8, .cls-9, .cls-11, .cls-12, .cls-13, .cls-14 {
        stroke-linejoin: round;
      }

      .cls-1, .cls-4, .cls-6, .cls-8, .cls-9, .cls-11, .cls-13 {
        stroke-width: 1.5px;
      }

      .cls-1, .cls-4, .cls-8, .cls-13 {
        stroke-dasharray: 0 0 5.55 2.4;
      }

      .cls-1, .cls-10, .cls-14 {
        stroke: #000;
      }

      .cls-16 {
        clip-path: url(#clippath-62);
      }

      .cls-17 {
        clip-path: url(#clippath-45);
      }

      .cls-18 {
        clip-path: url(#clippath-20);
      }

      .cls-19 {
        clip-path: url(#clippath-11);
      }

      .cls-20 {
        clip-path: url(#clippath-16);
      }

      .cls-2, .cls-10, .cls-15 {
        stroke-miterlimit: 10;
      }

      .cls-2, .cls-11, .cls-13 {
        stroke: #bf00bf;
      }

      .cls-21 {
        clip-path: url(#clippath-59);
      }

      .cls-22 {
        clip-path: url(#clippath-33);
      }

      .cls-23 {
        fill: #000;
      }

      .cls-23, .cls-5, .cls-24, .cls-25 {
        stroke-width: 0px;
      }

      .cls-26 {
        clip-path: url(#clippath-47);
      }

      .cls-3, .cls-4, .cls-9 {
        stroke: #bfbf00;
      }

      .cls-27 {
        clip-path: url(#clippath-41);
      }

      .cls-28 {
        clip-path: url(#clippath-32);
      }

      .cls-29 {
        clip-path: url(#clippath-2);
      }

      .cls-30 {
        clip-path: url(#clippath-13);
      }

      .cls-31 {
        clip-path: url(#clippath-37);
      }

      .cls-32 {
        clip-path: url(#clippath-46);
      }

      .cls-33 {
        clip-path: url(#clippath-25);
      }

      .cls-34 {
        clip-path: url(#clippath-15);
      }

      .cls-35 {
        clip-path: url(#clippath-6);
      }

      .cls-36 {
        clip-path: url(#clippath-40);
      }

      .cls-37 {
        clip-path: url(#clippath-26);
      }

      .cls-38 {
        clip-path: url(#clippath-7);
      }

      .cls-39 {
        clip-path: url(#clippath-21);
      }

      .cls-40 {
        clip-path: url(#clippath-34);
      }

      .cls-41 {
        clip-path: url(#clippath-57);
      }

      .cls-42 {
        clip-path: url(#clippath-1);
      }

      .cls-43 {
        clip-path: url(#clippath-4);
      }

      .cls-44 {
        clip-path: url(#clippath-38);
      }

      .cls-6, .cls-7, .cls-8 {
        stroke: green;
      }

      .cls-6, .cls-9, .cls-10, .cls-11 {
        stroke-linecap: square;
      }

      .cls-45 {
        clip-path: url(#clippath-36);
      }

      .cls-46 {
        clip-path: url(#clippath-27);
      }

      .cls-47 {
        clip-path: url(#clippath-60);
      }

      .cls-48 {
        clip-path: url(#clippath-44);
      }

      .cls-49 {
        clip-path: url(#clippath-12);
      }

      .cls-50 {
        clip-path: url(#clippath-24);
      }

      .cls-51 {
        clip-path: url(#clippath-30);
      }

      .cls-52 {
        clip-path: url(#clippath-22);
      }

      .cls-53 {
        clip-path: url(#clippath-9);
      }

      .cls-54 {
        clip-path: url(#clippath-52);
      }

      .cls-55 {
        clip-path: url(#clippath);
      }

      .cls-56 {
        clip-path: url(#clippath-50);
      }

      .cls-57 {
        clip-path: url(#clippath-48);
      }

      .cls-58 {
        clip-path: url(#clippath-61);
      }

      .cls-59 {
        clip-path: url(#clippath-39);
      }

      .cls-60 {
        clip-path: url(#clippath-19);
      }

      .cls-61 {
        clip-path: url(#clippath-31);
      }

      .cls-62 {
        clip-path: url(#clippath-54);
      }

      .cls-63 {
        clip-path: url(#clippath-3);
      }

      .cls-10, .cls-12, .cls-14 {
        stroke-width: .8px;
      }

      .cls-64 {
        clip-path: url(#clippath-43);
      }

      .cls-65 {
        clip-path: url(#clippath-8);
      }

      .cls-66 {
        clip-path: url(#clippath-55);
      }

      .cls-24, .cls-25 {
        fill: #fff;
      }

      .cls-67 {
        clip-path: url(#clippath-29);
      }

      .cls-68 {
        clip-path: url(#clippath-18);
      }

      .cls-69 {
        clip-path: url(#clippath-14);
      }

      .cls-70 {
        clip-path: url(#clippath-17);
      }

      .cls-71 {
        clip-path: url(#clippath-5);
      }

      .cls-72 {
        clip-path: url(#clippath-58);
      }

      .cls-12 {
        opacity: .5;
        stroke: #b0b0b0;
        stroke-dasharray: 0 0 2.96 1.28;
      }

      .cls-73 {
        clip-path: url(#clippath-42);
      }

      .cls-74 {
        clip-path: url(#clippath-10);
      }

      .cls-75 {
        clip-path: url(#clippath-23);
      }

      .cls-76 {
        clip-path: url(#clippath-56);
      }

      .cls-77 {
        clip-path: url(#clippath-53);
      }

      .cls-78 {
        clip-path: url(#clippath-49);
      }

      .cls-79 {
        clip-path: url(#clippath-51);
      }

      .cls-80 {
        clip-path: url(#clippath-28);
      }

      .cls-15 {
        stroke: #ccc;
      }

      .cls-15, .cls-25 {
        opacity: .35;
      }

      .cls-81 {
        clip-path: url(#clippath-35);
      }
    </style>
    <clipPath id="clippath">
      <rect class="cls-5" x="48.72" y="18.12" width="372.19" height="277.2"/>
    </clipPath>
    <clipPath id="clippath-1">
      <rect class="cls-5" x="48.72" y="18.12" width="372.19" height="277.2"/>
    </clipPath>
    <clipPath id="clippath-2">
      <rect class="cls-5" x="48.72" y="18.12" width="372.19" height="277.2"/>
    </clipPath>
    <clipPath id="clippath-3">
      <rect class="cls-5" x="48.72" y="18.12" width="372.19" height="277.2"/>
    </clipPath>
    <clipPath id="clippath-4">
      <rect class="cls-5" x="48.72" y="18.12" width="372.19" height="277.2"/>
    </clipPath>
    <clipPath id="clippath-5">
      <rect class="cls-5" x="48.72" y="18.12" width="372.19" height="277.2"/>
    </clipPath>
    <clipPath id="clippath-6">
      <rect class="cls-5" x="48.72" y="18.12" width="372.19" height="277.2"/>
    </clipPath>
    <clipPath id="clippath-7">
      <rect class="cls-5" x="297.37" y="308.89" width="42.22" height="25.44"/>
    </clipPath>
    <clipPath id="clippath-8">
      <rect class="cls-5" x="48.72" y="18.12" width="372.19" height="277.2"/>
    </clipPath>
    <clipPath id="clippath-9">
      <rect class="cls-5" x="48.72" y="18.12" width="372.19" height="277.2"/>
    </clipPath>
    <clipPath id="clippath-10">
      <rect class="cls-5" x="48.72" y="18.12" width="372.19" height="277.2"/>
    </clipPath>
    <clipPath id="clippath-11">
      <rect class="cls-5" x="48.72" y="18.12" width="372.19" height="277.2"/>
    </clipPath>
    <clipPath id="clippath-12">
      <rect class="cls-5" x="48.72" y="18.12" width="372.19" height="277.2"/>
    </clipPath>
    <clipPath id="clippath-13">
      <rect class="cls-5" x="48.72" y="18.12" width="372.19" height="277.2"/>
    </clipPath>
    <clipPath id="clippath-14">
      <rect class="cls-5" x="48.72" y="18.12" width="372.19" height="277.2"/>
    </clipPath>
    <clipPath id="clippath-15">
      <rect class="cls-5" x="57.63" y="265.07" width="16" height="16"/>
    </clipPath>
    <clipPath id="clippath-16">
      <rect class="cls-5" x="114.02" y="216.04" width="16" height="16"/>
    </clipPath>
    <clipPath id="clippath-17">
      <rect class="cls-5" x="170.42" y="161.58" width="16" height="16"/>
    </clipPath>
    <clipPath id="clippath-18">
      <rect class="cls-5" x="226.81" y="117.62" width="16" height="16"/>
    </clipPath>
    <clipPath id="clippath-19">
      <rect class="cls-5" x="283.2" y="79.8" width="16" height="16"/>
    </clipPath>
    <clipPath id="clippath-20">
      <rect class="cls-5" x="339.59" y="48.65" width="16" height="16"/>
    </clipPath>
    <clipPath id="clippath-21">
      <rect class="cls-5" x="395.98" y="22.72" width="16" height="16"/>
    </clipPath>
    <clipPath id="clippath-22">
      <rect class="cls-5" x="48.72" y="18.12" width="372.19" height="277.2"/>
    </clipPath>
    <clipPath id="clippath-23">
      <rect class="cls-5" x="58.09" y="249.07" width="15.09" height="18.49"/>
    </clipPath>
    <clipPath id="clippath-24">
      <rect class="cls-5" x="114.48" y="194.21" width="15.09" height="18.49"/>
    </clipPath>
    <clipPath id="clippath-25">
      <rect class="cls-5" x="170.87" y="171.52" width="15.09" height="18.49"/>
    </clipPath>
    <clipPath id="clippath-26">
      <rect class="cls-5" x="227.26" y="154.03" width="15.09" height="18.49"/>
    </clipPath>
    <clipPath id="clippath-27">
      <rect class="cls-5" x="283.65" y="141.62" width="15.09" height="18.49"/>
    </clipPath>
    <clipPath id="clippath-28">
      <rect class="cls-5" x="340.05" y="132.28" width="15.09" height="18.49"/>
    </clipPath>
    <clipPath id="clippath-29">
      <rect class="cls-5" x="396.44" y="126.21" width="15.09" height="18.49"/>
    </clipPath>
    <clipPath id="clippath-30">
      <rect class="cls-5" x="48.72" y="18.12" width="372.19" height="277.2"/>
    </clipPath>
    <clipPath id="clippath-31">
      <rect class="cls-5" x="57.63" y="249.81" width="16" height="16"/>
    </clipPath>
    <clipPath id="clippath-32">
      <rect class="cls-5" x="114.02" y="170.7" width="16" height="16"/>
    </clipPath>
    <clipPath id="clippath-33">
      <rect class="cls-5" x="170.42" y="146.86" width="16" height="16"/>
    </clipPath>
    <clipPath id="clippath-34">
      <rect class="cls-5" x="226.81" y="134.18" width="16" height="16"/>
    </clipPath>
    <clipPath id="clippath-35">
      <rect class="cls-5" x="283.2" y="124.97" width="16" height="16"/>
    </clipPath>
    <clipPath id="clippath-36">
      <rect class="cls-5" x="339.59" y="121.96" width="16" height="16"/>
    </clipPath>
    <clipPath id="clippath-37">
      <rect class="cls-5" x="395.98" y="122.62" width="16" height="16"/>
    </clipPath>
    <clipPath id="clippath-38">
      <rect class="cls-5" x="48.72" y="18.12" width="372.19" height="277.2"/>
    </clipPath>
    <clipPath id="clippath-39">
      <rect class="cls-5" x="57.63" y="265.07" width="16" height="16"/>
    </clipPath>
    <clipPath id="clippath-40">
      <rect class="cls-5" x="114.02" y="265.94" width="16" height="16"/>
    </clipPath>
    <clipPath id="clippath-41">
      <rect class="cls-5" x="170.42" y="268.02" width="16" height="16"/>
    </clipPath>
    <clipPath id="clippath-42">
      <rect class="cls-5" x="226.81" y="270.73" width="16" height="16"/>
    </clipPath>
    <clipPath id="clippath-43">
      <rect class="cls-5" x="283.2" y="271.72" width="16" height="16"/>
    </clipPath>
    <clipPath id="clippath-44">
      <rect class="cls-5" x="339.59" y="273.89" width="16" height="16"/>
    </clipPath>
    <clipPath id="clippath-45">
      <rect class="cls-5" x="395.98" y="274.72" width="16" height="16"/>
    </clipPath>
    <clipPath id="clippath-46">
      <rect class="cls-5" x="48.72" y="18.12" width="372.19" height="277.2"/>
    </clipPath>
    <clipPath id="clippath-47">
      <rect class="cls-5" x="58.09" y="249.07" width="15.09" height="18.49"/>
    </clipPath>
    <clipPath id="clippath-48">
      <rect class="cls-5" x="114.48" y="248.93" width="15.09" height="18.49"/>
    </clipPath>
    <clipPath id="clippath-49">
      <rect class="cls-5" x="170.87" y="249.98" width="15.09" height="18.49"/>
    </clipPath>
    <clipPath id="clippath-50">
      <rect class="cls-5" x="227.26" y="250.21" width="15.09" height="18.49"/>
    </clipPath>
    <clipPath id="clippath-51">
      <rect class="cls-5" x="283.65" y="250.37" width="15.09" height="18.49"/>
    </clipPath>
    <clipPath id="clippath-52">
      <rect class="cls-5" x="340.05" y="251.08" width="15.09" height="18.49"/>
    </clipPath>
    <clipPath id="clippath-53">
      <rect class="cls-5" x="396.44" y="251.1" width="15.09" height="18.49"/>
    </clipPath>
    <clipPath id="clippath-54">
      <rect class="cls-5" x="48.72" y="18.12" width="372.19" height="277.2"/>
    </clipPath>
    <clipPath id="clippath-55">
      <rect class="cls-5" x="57.63" y="250.16" width="16" height="16"/>
    </clipPath>
    <clipPath id="clippath-56">
      <rect class="cls-5" x="114.02" y="250.51" width="16" height="16"/>
    </clipPath>
    <clipPath id="clippath-57">
      <rect class="cls-5" x="170.42" y="249.18" width="16" height="16"/>
    </clipPath>
    <clipPath id="clippath-58">
      <rect class="cls-5" x="226.81" y="250.21" width="16" height="16"/>
    </clipPath>
    <clipPath id="clippath-59">
      <rect class="cls-5" x="283.2" y="250.85" width="16" height="16"/>
    </clipPath>
    <clipPath id="clippath-60">
      <rect class="cls-5" x="339.59" y="250.04" width="16" height="16"/>
    </clipPath>
    <clipPath id="clippath-61">
      <rect class="cls-5" x="395.98" y="251.68" width="16" height="16"/>
    </clipPath>
    <clipPath id="clippath-62">
      <rect class="cls-5" x="48.72" y="18.12" width="372.19" height="277.2"/>
    </clipPath>
  </defs>
  <rect class="cls-24" width="428.1" height="339.19"/>
  <rect class="cls-24" x="48.72" y="18.12" width="372.19" height="277.2"/>
  <g class="cls-55">
    <line class="cls-12" x1="65.63" y1="295.32" x2="65.63" y2="18.12"/>
  </g>
  <line class="cls-23" x1="65.63" y1="295.32" x2="65.63" y2="298.82"/>
  <line class="cls-14" x1="65.63" y1="295.32" x2="65.63" y2="298.82"/>
  <path class="cls-23" d="M65.63,302.5c.81,0,1.43.33,1.87.97.43.65.65,1.59.65,2.81s-.22,2.17-.65,2.81c-.44.64-1.06.96-1.88.96s-1.44-.32-1.87-.96c-.43-.64-.64-1.58-.64-2.81s.21-2.16.64-2.81c.43-.64,1.06-.97,1.88-.97ZM65.63,303.28c-.51,0-.89.25-1.15.75s-.38,1.25-.38,2.25.12,1.75.38,2.25.64.75,1.15.75.89-.25,1.15-.75c.25-.5.38-1.25.38-2.25s-.13-1.75-.38-2.25c-.26-.5-.64-.75-1.15-.75Z"/>
  <g class="cls-42">
    <line class="cls-12" x1="122.02" y1="295.32" x2="122.02" y2="18.12"/>
  </g>
  <line class="cls-23" x1="122.02" y1="295.32" x2="122.02" y2="298.82"/>
  <line class="cls-14" x1="122.02" y1="295.32" x2="122.02" y2="298.82"/>
  <polygon class="cls-23" points="120.09 309.09 121.7 309.09 121.7 303.53 119.95 303.88 119.95 302.98 121.69 302.63 122.68 302.63 122.68 309.09 124.29 309.09 124.29 309.92 120.09 309.92 120.09 309.09"/>
  <g class="cls-29">
    <line class="cls-12" x1="178.42" y1="295.32" x2="178.42" y2="18.12"/>
  </g>
  <line class="cls-23" x1="178.42" y1="295.32" x2="178.42" y2="298.82"/>
  <line class="cls-14" x1="178.42" y1="295.32" x2="178.42" y2="298.82"/>
  <path class="cls-23" d="M177.16,309.09h3.44v.83h-4.63v-.83c.37-.38.88-.9,1.53-1.56.64-.65,1.05-1.07,1.22-1.26.32-.35.54-.65.66-.9.12-.24.19-.49.19-.73,0-.38-.14-.7-.41-.94-.27-.24-.62-.37-1.06-.37-.31,0-.64.06-.98.16-.34.11-.71.27-1.1.49v-1c.4-.16.77-.28,1.11-.36.34-.08.66-.12.95-.12.75,0,1.35.19,1.8.57.45.38.68.88.68,1.51,0,.3-.06.59-.17.85-.11.27-.31.59-.61.95-.08.1-.34.37-.78.82-.44.45-1.05,1.08-1.84,1.89Z"/>
  <g class="cls-63">
    <line class="cls-12" x1="234.81" y1="295.32" x2="234.81" y2="18.12"/>
  </g>
  <line class="cls-23" x1="234.81" y1="295.32" x2="234.81" y2="298.82"/>
  <line class="cls-14" x1="234.81" y1="295.32" x2="234.81" y2="298.82"/>
  <path class="cls-23" d="M235.69,305.99c.47.1.84.31,1.1.63.26.32.4.72.4,1.18,0,.72-.25,1.28-.74,1.67-.5.39-1.2.58-2.11.58-.31,0-.63-.03-.95-.09-.32-.05-.66-.14-1-.26v-.95c.27.16.57.28.9.36.32.08.66.12,1.02.12.62,0,1.09-.12,1.41-.36.32-.24.49-.6.49-1.07,0-.42-.15-.76-.45-1-.3-.24-.72-.37-1.26-.37h-.85v-.81h.89c.48,0,.85-.09,1.11-.29.26-.19.39-.47.39-.84s-.14-.66-.4-.86c-.27-.2-.65-.3-1.14-.3-.27,0-.56.03-.87.09s-.65.15-1.02.27v-.88c.37-.1.72-.18,1.05-.23.32-.05.63-.08.93-.08.74,0,1.33.17,1.77.51s.66.8.66,1.38c0,.4-.12.74-.35,1.02-.23.28-.56.48-.98.58Z"/>
  <g class="cls-43">
    <line class="cls-12" x1="291.2" y1="295.32" x2="291.2" y2="18.12"/>
  </g>
  <line class="cls-23" x1="291.2" y1="295.32" x2="291.2" y2="298.82"/>
  <line class="cls-14" x1="291.2" y1="295.32" x2="291.2" y2="298.82"/>
  <path class="cls-23" d="M291.54,302.63h1.24v4.75h1.04v.82h-1.04v1.72h-.98v-1.72h-3.29v-.95l3.03-4.62ZM291.8,303.49l-2.49,3.89h2.49v-3.89Z"/>
  <g class="cls-71">
    <line class="cls-12" x1="347.59" y1="295.32" x2="347.59" y2="18.12"/>
  </g>
  <line class="cls-23" x1="347.59" y1="295.32" x2="347.59" y2="298.82"/>
  <line class="cls-14" x1="347.59" y1="295.32" x2="347.59" y2="298.82"/>
  <path class="cls-23" d="M345.49,302.63h3.87v.83h-2.97v1.79c.14-.05.29-.09.43-.11.14-.02.29-.04.43-.04.81,0,1.45.23,1.93.67.48.45.72,1.05.72,1.81s-.25,1.4-.74,1.83-1.18.64-2.06.64c-.31,0-.62-.03-.94-.07-.32-.05-.64-.12-.98-.23v-.99c.29.16.59.28.91.36.31.08.64.11.99.11.56,0,1.01-.14,1.34-.44.32-.3.49-.7.49-1.21s-.17-.9-.49-1.2c-.33-.3-.78-.45-1.34-.45-.26,0-.53.03-.79.09-.26.06-.53.15-.8.27v-3.66Z"/>
  <g class="cls-35">
    <line class="cls-12" x1="403.98" y1="295.32" x2="403.98" y2="18.12"/>
  </g>
  <line class="cls-23" x1="403.98" y1="295.32" x2="403.98" y2="298.82"/>
  <line class="cls-14" x1="403.98" y1="295.32" x2="403.98" y2="298.82"/>
  <path class="cls-23" d="M406.06,302.79v.9c-.25-.12-.5-.21-.75-.27-.26-.06-.51-.09-.75-.09-.66,0-1.16.22-1.5.66s-.54,1.11-.58,1.99c.19-.28.43-.5.72-.65s.61-.23.96-.23c.73,0,1.31.23,1.73.67.42.44.64,1.05.64,1.81s-.23,1.35-.67,1.8c-.44.45-1.03.67-1.76.67-.84,0-1.49-.32-1.93-.96-.45-.64-.67-1.58-.67-2.81,0-1.15.27-2.07.82-2.75.54-.68,1.28-1.03,2.2-1.03.24,0,.49.03.75.07.25.05.51.12.79.22ZM404.1,305.88c-.44,0-.79.16-1.05.46-.26.3-.39.72-.39,1.24s.13.95.39,1.25.61.45,1.05.45.79-.15,1.05-.45c.26-.3.39-.72.39-1.25s-.13-.94-.39-1.24c-.26-.3-.61-.46-1.05-.46Z"/>
  <path class="cls-23" d="M142.1,316.45h1.68l4.17,10.94h-1.54l-.99-2.81h-4.93l-.99,2.81h-1.56l4.17-10.94ZM142.94,317.9l-2.01,5.44h4.02l-2.01-5.44Z"/>
  <path class="cls-23" d="M150.29,323.29c0,.99.19,1.77.6,2.34.4.57.96.84,1.68.84s1.27-.27,1.7-.84c.4-.57.61-1.35.61-2.34s-.21-1.75-.61-2.32c-.42-.57-.98-.86-1.7-.86s-1.27.28-1.68.86c-.41.57-.6,1.33-.6,2.32ZM154.88,320.42v-4.44h1.35v11.4h-1.35v-1.23c-.29.5-.65.86-1.08,1.08-.43.22-.94.34-1.54.34-.99,0-1.8-.39-2.43-1.17-.63-.78-.93-1.83-.93-3.12s.3-2.32.93-3.12c.63-.78,1.44-1.18,2.43-1.18.6,0,1.11.12,1.54.36s.79.6,1.08,1.08Z"/>
  <path class="cls-23" d="M159.81,323.29c0,.99.19,1.77.6,2.34.4.57.96.84,1.68.84s1.27-.27,1.7-.84c.4-.57.61-1.35.61-2.34s-.21-1.75-.61-2.32c-.42-.57-.98-.86-1.7-.86s-1.27.28-1.68.86c-.41.57-.6,1.33-.6,2.32ZM164.4,320.42v-4.44h1.35v11.4h-1.35v-1.23c-.29.5-.65.86-1.08,1.08-.43.22-.94.34-1.54.34-.99,0-1.8-.39-2.43-1.17-.63-.78-.93-1.83-.93-3.12s.3-2.32.93-3.12c.63-.78,1.44-1.18,2.43-1.18.6,0,1.11.12,1.54.36s.79.6,1.08,1.08Z"/>
  <path class="cls-23" d="M174.19,322.55c-.01-.73-.23-1.32-.62-1.77-.4-.44-.94-.66-1.6-.66-.75,0-1.35.22-1.8.64s-.72,1.02-.78,1.78h4.8ZM175.54,322.94v.66h-6.19c.06.93.33,1.65.84,2.13.5.48,1.18.72,2.09.72.51,0,1.02-.06,1.5-.18.48-.12.97-.32,1.46-.59v1.27c-.48.21-.98.38-1.49.47-.51.09-1.04.15-1.54.15-1.32,0-2.36-.38-3.12-1.12s-1.14-1.78-1.14-3.09.36-2.4,1.08-3.2c.72-.78,1.71-1.18,2.94-1.18,1.11,0,1.98.36,2.62,1.07.63.72.96,1.68.96,2.9Z"/>
  <path class="cls-23" d="M178.56,323.29c0,.99.19,1.77.6,2.34.4.57.96.84,1.68.84s1.27-.27,1.7-.84c.4-.57.61-1.35.61-2.34s-.21-1.75-.61-2.32c-.42-.57-.98-.86-1.7-.86s-1.27.28-1.68.86c-.41.57-.6,1.33-.6,2.32ZM183.15,320.42v-4.44h1.35v11.4h-1.35v-1.23c-.29.5-.65.86-1.08,1.08-.43.22-.94.34-1.54.34-.99,0-1.8-.39-2.43-1.17-.63-.78-.93-1.83-.93-3.12s.3-2.32.93-3.12c.63-.78,1.44-1.18,2.43-1.18.6,0,1.11.12,1.54.36s.79.6,1.08,1.08Z"/>
  <path class="cls-23" d="M197.95,319.49v1.26c-.39-.21-.77-.36-1.16-.47s-.76-.16-1.15-.16c-.87,0-1.56.28-2.04.84-.48.55-.72,1.33-.72,2.32s.24,1.78.72,2.34,1.17.82,2.04.82c.39,0,.76-.05,1.15-.15.39-.11.76-.27,1.16-.48v1.25c-.39.18-.78.31-1.17.39-.4.07-.84.12-1.29.12-1.23,0-2.22-.38-2.94-1.15-.74-.77-1.1-1.82-1.1-3.14s.36-2.39,1.1-3.15,1.74-1.16,3.03-1.16c.42,0,.82.05,1.21.14s.78.21,1.16.38Z"/>
  <path class="cls-23" d="M206.71,322.7v4.68h-1.35v-1.24c-.32.51-.71.87-1.15,1.1-.45.22-1.02.34-1.68.34-.84,0-1.51-.22-2.01-.69-.49-.47-.74-1.1-.74-1.89,0-.91.3-1.61.93-2.09.62-.47,1.53-.7,2.76-.7h1.89v-.14c0-.61-.21-1.09-.61-1.44-.4-.33-.98-.51-1.71-.51-.48,0-.93.06-1.38.18-.45.12-.87.29-1.27.5v-1.25c.48-.18.96-.33,1.43-.42s.91-.15,1.36-.15c1.19,0,2.07.32,2.66.93.58.61.88,1.55.88,2.79ZM204.02,323.26c-1.1,0-1.85.13-2.26.38-.42.26-.63.68-.63,1.27,0,.48.15.87.46,1.14.32.28.75.42,1.29.42.75,0,1.35-.26,1.8-.8.45-.52.68-1.23.68-2.11v-.3h-1.33Z"/>
  <path class="cls-23" d="M215.39,319.49v1.26c-.39-.21-.77-.36-1.16-.47s-.76-.16-1.15-.16c-.87,0-1.56.28-2.04.84-.48.55-.72,1.33-.72,2.32s.24,1.78.72,2.34,1.17.82,2.04.82c.39,0,.76-.05,1.15-.15.39-.11.76-.27,1.16-.48v1.25c-.39.18-.78.31-1.17.39-.4.07-.84.12-1.29.12-1.23,0-2.22-.38-2.94-1.15-.74-.77-1.1-1.82-1.1-3.14s.36-2.39,1.1-3.15,1.74-1.16,3.03-1.16c.42,0,.82.05,1.21.14s.78.21,1.16.38Z"/>
  <path class="cls-23" d="M224.55,322.43v4.95h-1.35v-4.9c0-.78-.16-1.35-.46-1.74-.3-.39-.75-.58-1.35-.58-.74,0-1.31.24-1.73.7s-.63,1.09-.63,1.89v4.63h-1.35v-11.4h1.35v4.47c.32-.48.69-.85,1.14-1.09.43-.24.95-.38,1.51-.38.93,0,1.65.3,2.13.89s.74,1.44.74,2.57Z"/>
  <path class="cls-23" d="M232.9,322.55c-.01-.73-.23-1.32-.62-1.77-.4-.44-.94-.66-1.6-.66-.75,0-1.35.22-1.8.64s-.72,1.02-.78,1.78h4.8ZM234.25,322.94v.66h-6.19c.06.93.33,1.65.84,2.13.5.48,1.18.72,2.09.72.51,0,1.02-.06,1.5-.18.48-.12.97-.32,1.46-.59v1.27c-.48.21-.98.38-1.49.47-.51.09-1.04.15-1.54.15-1.32,0-2.36-.38-3.12-1.12s-1.14-1.78-1.14-3.09.36-2.4,1.08-3.2c.72-.78,1.71-1.18,2.94-1.18,1.11,0,1.98.36,2.62,1.07.63.72.96,1.68.96,2.9Z"/>
  <path class="cls-23" d="M247.14,319.49v1.26c-.39-.21-.77-.36-1.16-.47s-.76-.16-1.15-.16c-.87,0-1.56.28-2.04.84-.48.55-.72,1.33-.72,2.32s.24,1.78.72,2.34,1.17.82,2.04.82c.39,0,.76-.05,1.15-.15.39-.11.76-.27,1.16-.48v1.25c-.39.18-.78.31-1.17.39-.4.07-.84.12-1.29.12-1.23,0-2.22-.38-2.94-1.15-.74-.77-1.1-1.82-1.1-3.14s.36-2.39,1.1-3.15,1.74-1.16,3.03-1.16c.42,0,.82.05,1.21.14s.78.21,1.16.38Z"/>
  <path class="cls-23" d="M255.9,322.7v4.68h-1.35v-1.24c-.32.51-.71.87-1.15,1.1-.45.22-1.02.34-1.68.34-.84,0-1.51-.22-2.01-.69-.49-.47-.74-1.1-.74-1.89,0-.91.3-1.61.93-2.09.62-.47,1.53-.7,2.76-.7h1.89v-.14c0-.61-.21-1.09-.61-1.44-.4-.33-.98-.51-1.71-.51-.48,0-.93.06-1.38.18-.45.12-.87.29-1.27.5v-1.25c.48-.18.96-.33,1.43-.42s.91-.15,1.36-.15c1.19,0,2.07.32,2.66.93.58.61.88,1.55.88,2.79ZM253.21,323.26c-1.1,0-1.85.13-2.26.38-.42.26-.63.68-.63,1.27,0,.48.15.87.46,1.14.32.28.75.42,1.29.42.75,0,1.35-.26,1.8-.8.45-.52.68-1.23.68-2.11v-.3h-1.33Z"/>
  <path class="cls-23" d="M264.56,323.29c0-.99-.21-1.75-.61-2.32-.42-.57-.98-.86-1.68-.86s-1.28.28-1.68.86c-.42.57-.61,1.33-.61,2.32s.2,1.77.61,2.34c.4.57.96.84,1.68.84s1.26-.27,1.68-.84c.4-.57.61-1.35.61-2.34ZM259.97,326.15v4.34h-1.35v-11.31h1.35v1.24c.27-.48.63-.84,1.07-1.08s.96-.36,1.56-.36c.99,0,1.8.41,2.43,1.18.62.8.93,1.83.93,3.12s-.32,2.34-.93,3.12c-.63.78-1.44,1.17-2.43,1.17-.6,0-1.12-.12-1.56-.34-.43-.23-.8-.59-1.07-1.08Z"/>
  <path class="cls-23" d="M274.61,322.7v4.68h-1.35v-1.24c-.32.51-.71.87-1.15,1.1-.45.22-1.02.34-1.68.34-.84,0-1.51-.22-2.01-.69s-.74-1.1-.74-1.89c0-.91.3-1.61.93-2.09.62-.47,1.53-.7,2.76-.7h1.89v-.14c0-.61-.21-1.09-.62-1.44-.4-.33-.97-.51-1.71-.51-.48,0-.93.06-1.38.18-.45.12-.87.29-1.27.5v-1.25c.48-.18.96-.33,1.42-.42.47-.09.92-.15,1.37-.15,1.18,0,2.07.32,2.65.93.58.61.88,1.55.88,2.79ZM271.93,323.26c-1.1,0-1.85.13-2.26.38-.42.26-.63.68-.63,1.27,0,.48.15.87.46,1.14.32.28.75.42,1.29.42.75,0,1.35-.26,1.8-.8.45-.52.68-1.23.68-2.11v-.3h-1.34Z"/>
  <path class="cls-23" d="M283.29,319.49v1.26c-.39-.21-.77-.36-1.15-.47-.39-.1-.77-.16-1.15-.16-.87,0-1.56.28-2.04.84-.48.55-.72,1.33-.72,2.32s.24,1.78.72,2.34,1.17.82,2.04.82c.39,0,.76-.05,1.15-.15.39-.11.76-.27,1.15-.48v1.25c-.39.18-.78.31-1.17.39-.4.07-.84.12-1.29.12-1.23,0-2.22-.38-2.94-1.15-.74-.77-1.1-1.82-1.1-3.14s.36-2.39,1.1-3.15c.73-.76,1.74-1.16,3.03-1.16.42,0,.82.05,1.21.14.39.09.78.21,1.15.38Z"/>
  <path class="cls-23" d="M285.63,315.98h1.35v1.71h-1.35v-1.71ZM285.63,319.18h1.35v8.2h-1.35v-8.2Z"/>
  <path class="cls-23" d="M291.13,316.85v2.33h2.77v1.05h-2.77v4.45c0,.67.09,1.11.27,1.29.18.19.55.28,1.12.28h1.38v1.12h-1.38c-1.05,0-1.77-.19-2.16-.59-.39-.39-.59-1.1-.59-2.11v-4.45h-.99v-1.05h.99v-2.33h1.35Z"/>
  <path class="cls-23" d="M299.1,328.13c-.39.96-.76,1.61-1.12,1.9-.36.3-.84.45-1.44.45h-1.08v-1.12h.8c.36,0,.64-.09.85-.27.21-.18.43-.59.69-1.24l.24-.6-3.32-8.07h1.42l2.57,6.42,2.57-6.42h1.42l-3.6,8.95Z"/>
  <polygon class="cls-23" points="304.9 325.52 306.45 325.52 306.45 326.78 305.25 329.11 304.3 329.11 304.9 326.78 304.9 325.52"/>
  <polygon class="cls-23" points="325.46 316.45 326.95 316.45 325.07 326.15 330.4 326.15 330.16 327.38 323.35 327.38 325.46 316.45"/>
  <g class="cls-38">
    <path class="cls-23" d="M312.8,327.38l4.17-10.93h1.68l4.17,10.93h-10.02ZM317.81,317.9l-3,8.25h6l-3-8.25Z"/>
  </g>
  <g class="cls-65">
    <line class="cls-12" x1="48.72" y1="290.54" x2="420.9" y2="290.54"/>
  </g>
  <line class="cls-23" x1="48.72" y1="290.54" x2="45.22" y2="290.54"/>
  <line class="cls-14" x1="48.72" y1="290.54" x2="45.22" y2="290.54"/>
  <path class="cls-23" d="M28.9,286.34c.81,0,1.43.33,1.87.97.43.65.65,1.59.65,2.81s-.22,2.17-.65,2.81c-.44.64-1.06.96-1.88.96s-1.44-.32-1.87-.96c-.43-.64-.64-1.58-.64-2.81s.21-2.16.64-2.81c.43-.64,1.06-.97,1.88-.97ZM28.9,287.12c-.51,0-.89.25-1.15.75s-.38,1.25-.38,2.25.12,1.75.38,2.25.64.75,1.15.75.89-.25,1.15-.75c.25-.5.38-1.25.38-2.25s-.13-1.75-.38-2.25c-.26-.5-.64-.75-1.15-.75Z"/>
  <rect class="cls-23" x="33.15" y="292.52" width="1.03" height="1.24"/>
  <path class="cls-23" d="M40.52,286.63v.9c-.25-.12-.5-.21-.75-.27-.26-.06-.51-.09-.75-.09-.66,0-1.16.22-1.5.66-.34.44-.54,1.11-.58,1.99.19-.28.43-.5.72-.65.29-.15.61-.23.96-.23.73,0,1.31.23,1.73.67.42.44.64,1.05.64,1.81s-.23,1.35-.67,1.8c-.44.45-1.03.67-1.76.67-.84,0-1.49-.32-1.93-.96-.45-.64-.67-1.58-.67-2.81,0-1.15.27-2.07.82-2.75.54-.68,1.28-1.03,2.2-1.03.24,0,.49.03.75.07.25.05.51.12.79.22ZM38.56,289.72c-.44,0-.79.16-1.05.46-.26.3-.39.72-.39,1.24s.13.95.39,1.25.61.45,1.05.45.79-.15,1.05-.45c.26-.3.39-.72.39-1.25s-.13-.94-.39-1.24c-.26-.3-.61-.46-1.05-.46Z"/>
  <g class="cls-53">
    <line class="cls-12" x1="48.72" y1="243.38" x2="420.9" y2="243.38"/>
  </g>
  <line class="cls-23" x1="48.72" y1="243.38" x2="45.22" y2="243.38"/>
  <line class="cls-14" x1="48.72" y1="243.38" x2="45.22" y2="243.38"/>
  <path class="cls-23" d="M28.9,239.18c.81,0,1.43.33,1.87.97.43.65.65,1.59.65,2.81s-.22,2.17-.65,2.81c-.44.64-1.06.96-1.88.96s-1.44-.32-1.87-.96c-.43-.64-.64-1.58-.64-2.81s.21-2.16.64-2.81c.43-.64,1.06-.97,1.88-.97ZM28.9,239.96c-.51,0-.89.25-1.15.75s-.38,1.25-.38,2.25.12,1.75.38,2.25.64.75,1.15.75.89-.25,1.15-.75c.25-.5.38-1.25.38-2.25s-.13-1.75-.38-2.25c-.26-.5-.64-.75-1.15-.75Z"/>
  <rect class="cls-23" x="33.15" y="245.36" width="1.03" height="1.24"/>
  <polygon class="cls-23" points="35.33 239.31 40.02 239.31 40.02 239.73 37.37 246.6 36.34 246.6 38.83 240.14 35.33 240.14 35.33 239.31"/>
  <g class="cls-74">
    <line class="cls-12" x1="48.72" y1="196.22" x2="420.9" y2="196.22"/>
  </g>
  <line class="cls-23" x1="48.72" y1="196.22" x2="45.22" y2="196.22"/>
  <line class="cls-14" x1="48.72" y1="196.22" x2="45.22" y2="196.22"/>
  <path class="cls-23" d="M28.9,192.02c.81,0,1.43.33,1.87.97.43.65.65,1.59.65,2.81s-.22,2.17-.65,2.81c-.44.64-1.06.96-1.88.96s-1.44-.32-1.87-.96c-.43-.64-.64-1.58-.64-2.81s.21-2.16.64-2.81c.43-.64,1.06-.97,1.88-.97ZM28.9,192.8c-.51,0-.89.25-1.15.75s-.38,1.25-.38,2.25.12,1.75.38,2.25.64.75,1.15.75.89-.25,1.15-.75c.25-.5.38-1.25.38-2.25s-.13-1.75-.38-2.25c-.26-.5-.64-.75-1.15-.75Z"/>
  <rect class="cls-23" x="33.15" y="198.2" width="1.03" height="1.24"/>
  <path class="cls-23" d="M36.84,194c0,.38.11.68.35.89.24.21.57.31,1,.31s.75-.1.99-.31c.24-.21.36-.51.36-.89s-.12-.67-.36-.88c-.24-.21-.57-.32-.99-.32s-.76.11-1,.32c-.24.21-.35.5-.35.88ZM37.2,195.56c-.42-.1-.75-.3-.99-.59-.24-.29-.35-.64-.35-1.06,0-.58.2-1.04.62-1.38.41-.34.98-.51,1.71-.51s1.29.17,1.71.51c.41.34.62.8.62,1.38,0,.42-.12.77-.36,1.06-.24.29-.56.49-.98.59.47.11.84.33,1.11.65.26.32.4.72.4,1.18,0,.71-.22,1.25-.65,1.62-.44.38-1.06.56-1.86.56s-1.42-.18-1.85-.56c-.43-.37-.64-.91-.64-1.62,0-.46.13-.86.4-1.18.26-.32.63-.54,1.11-.65ZM38.19,195.98c-.47,0-.84.13-1.11.38s-.4.59-.4,1.03.13.79.4,1.04.64.37,1.11.37.83-.12,1.1-.38c.27-.25.41-.59.41-1.03s-.14-.78-.4-1.03c-.27-.25-.64-.38-1.11-.38Z"/>
  <g class="cls-19">
    <line class="cls-12" x1="48.72" y1="149.06" x2="420.9" y2="149.06"/>
  </g>
  <line class="cls-23" x1="48.72" y1="149.06" x2="45.22" y2="149.06"/>
  <line class="cls-14" x1="48.72" y1="149.06" x2="45.22" y2="149.06"/>
  <path class="cls-23" d="M28.9,144.86c.81,0,1.43.33,1.87.97.43.65.65,1.59.65,2.81s-.22,2.17-.65,2.81c-.44.64-1.06.96-1.88.96s-1.44-.32-1.87-.96c-.43-.64-.64-1.58-.64-2.81s.21-2.16.64-2.81c.43-.64,1.06-.97,1.88-.97ZM28.9,145.64c-.51,0-.89.25-1.15.75s-.38,1.25-.38,2.25.12,1.75.38,2.25.64.75,1.15.75.89-.25,1.15-.75c.25-.5.38-1.25.38-2.25s-.13-1.75-.38-2.25c-.26-.5-.64-.75-1.15-.75Z"/>
  <rect class="cls-23" x="33.15" y="151.04" width="1.03" height="1.24"/>
  <path class="cls-23" d="M38.32,149.04c.44,0,.79-.15,1.05-.45s.39-.72.39-1.25-.13-.94-.39-1.24c-.26-.3-.61-.46-1.05-.46s-.79.16-1.05.46c-.26.3-.39.72-.39,1.24s.13.95.39,1.25c.26.3.61.45,1.05.45ZM36.36,152.13v-.9c.24.12.49.21.75.27.25.06.5.09.75.09.64,0,1.14-.21,1.48-.65s.54-1.1.6-2c-.2.28-.44.5-.72.65-.29.15-.61.22-.96.22-.74,0-1.32-.22-1.74-.66-.42-.44-.63-1.04-.63-1.81s.22-1.34.66-1.8c.44-.45,1.03-.68,1.77-.68.84,0,1.49.33,1.93.97.44.65.67,1.59.67,2.81s-.28,2.07-.82,2.75c-.55.68-1.28,1.02-2.2,1.02-.25,0-.5-.03-.75-.07-.26-.04-.52-.11-.79-.21Z"/>
  <g class="cls-49">
    <line class="cls-12" x1="48.72" y1="101.9" x2="420.9" y2="101.9"/>
  </g>
  <line class="cls-23" x1="48.72" y1="101.9" x2="45.22" y2="101.9"/>
  <line class="cls-14" x1="48.72" y1="101.9" x2="45.22" y2="101.9"/>
  <polygon class="cls-23" points="26.96 104.29 28.57 104.29 28.57 98.73 26.82 99.08 26.82 98.18 28.56 97.83 29.55 97.83 29.55 104.29 31.16 104.29 31.16 105.12 26.96 105.12 26.96 104.29"/>
  <rect class="cls-23" x="33.15" y="103.88" width="1.03" height="1.24"/>
  <path class="cls-23" d="M38.44,97.7c.81,0,1.43.33,1.87.97.43.65.65,1.59.65,2.81s-.22,2.17-.65,2.81c-.44.64-1.06.96-1.88.96s-1.44-.32-1.87-.96-.64-1.58-.64-2.81.21-2.16.64-2.81c.43-.64,1.06-.97,1.88-.97ZM38.44,98.48c-.51,0-.89.25-1.15.75-.26.5-.38,1.25-.38,2.25s.12,1.75.38,2.25c.26.5.64.75,1.15.75s.89-.25,1.15-.75c.25-.5.38-1.25.38-2.25s-.13-1.75-.38-2.25c-.26-.5-.64-.75-1.15-.75Z"/>
  <g class="cls-30">
    <line class="cls-12" x1="48.72" y1="54.74" x2="420.9" y2="54.74"/>
  </g>
  <line class="cls-23" x1="48.72" y1="54.74" x2="45.22" y2="54.74"/>
  <line class="cls-14" x1="48.72" y1="54.74" x2="45.22" y2="54.74"/>
  <polygon class="cls-23" points="26.96 57 28.57 57 28.57 51.44 26.82 51.79 26.82 50.89 28.56 50.54 29.55 50.54 29.55 57 31.16 57 31.16 57.83 26.96 57.83 26.96 57"/>
  <rect class="cls-23" x="33.15" y="56.59" width="1.03" height="1.24"/>
  <polygon class="cls-23" points="36.5 57 38.11 57 38.11 51.44 36.36 51.79 36.36 50.89 38.1 50.54 39.09 50.54 39.09 57 40.7 57 40.7 57.83 36.5 57.83 36.5 57"/>
  <polygon class="cls-23" points="7.66 218.05 7.66 208.81 8.9 208.81 8.9 212.69 18.59 212.69 18.59 214.18 8.9 214.18 8.9 218.05 7.66 218.05"/>
  <path class="cls-23" d="M10.19,206.81c0-1.17.39-2.09,1.14-2.76.76-.66,1.82-1,3.16-1s2.4.35,3.15,1c.76.68,1.14,1.59,1.14,2.76s-.38,2.11-1.14,2.77c-.75.66-1.8.99-3.15.99s-2.4-.33-3.16-.99c-.75-.66-1.14-1.59-1.14-2.77ZM11.33,206.81c0,.72.28,1.29.85,1.71.57.42,1.34.63,2.31.63s1.76-.2,2.32-.62.84-.99.84-1.72-.27-1.29-.84-1.71-1.33-.63-2.32-.63-1.74.21-2.31.63c-.57.42-.85.99-.85,1.71Z"/>
  <path class="cls-23" d="M8.06,199.48h2.33v-2.78h1.05v2.78h4.46c.68,0,1.11-.09,1.29-.27.19-.18.28-.56.28-1.12v-1.38h1.12v1.38c0,1.05-.19,1.77-.58,2.16-.39.39-1.1.58-2.12.58h-4.46v.99h-1.05v-.99h-2.33v-1.35Z"/>
  <path class="cls-23" d="M13.91,188.51h4.68v1.35h-1.25c.51.32.87.71,1.1,1.15s.34,1.02.34,1.68c0,.84-.23,1.51-.69,2.01-.46.49-1.09.74-1.89.74-.91,0-1.6-.3-2.09-.93-.47-.62-.7-1.53-.7-2.76v-1.89h-.14c-.61,0-1.1.21-1.44.61-.33.4-.51.98-.51,1.71,0,.48.06.93.18,1.38.12.45.28.87.49,1.27h-1.24c-.18-.48-.33-.96-.42-1.43s-.15-.91-.15-1.36c0-1.19.32-2.07.93-2.66.61-.58,1.55-.88,2.79-.88ZM14.47,191.2c0,1.1.14,1.85.38,2.26.26.42.68.63,1.27.63.48,0,.87-.15,1.14-.46.28-.32.42-.75.42-1.29,0-.75-.25-1.35-.79-1.8-.53-.45-1.23-.67-2.12-.67h-.3v1.33Z"/>
  <rect class="cls-23" x="7.19" y="184.39" width="11.4" height="1.35"/>
  <path class="cls-23" d="M14.5,175.99c.99,0,1.77-.19,2.34-.6.57-.4.84-.96.84-1.68s-.27-1.27-.84-1.7c-.57-.4-1.35-.61-2.34-.61s-1.76.21-2.32.61c-.57.42-.85.98-.85,1.7s.28,1.27.85,1.68c.57.41,1.34.6,2.32.6ZM11.63,171.4h-4.44v-1.35h11.4v1.35h-1.23c.49.29.85.65,1.08,1.08s.34.94.34,1.54c0,.99-.39,1.8-1.17,2.43-.78.63-1.83.93-3.12.93s-2.32-.3-3.12-.93c-.78-.63-1.19-1.44-1.19-2.43,0-.6.12-1.11.36-1.54.24-.43.6-.79,1.08-1.08Z"/>
  <path class="cls-23" d="M13.76,161.6c-.74.01-1.32.23-1.77.62-.43.4-.66.94-.66,1.6,0,.75.23,1.35.65,1.8s1.02.72,1.78.78v-4.8ZM14.15,160.25h.66v6.2c.93-.06,1.65-.33,2.13-.84.48-.5.72-1.18.72-2.09,0-.51-.06-1.02-.18-1.5-.12-.48-.31-.97-.58-1.46h1.27c.21.48.38.98.47,1.49.09.51.15,1.04.15,1.54,0,1.32-.38,2.36-1.12,3.12s-1.78,1.14-3.09,1.14-2.4-.36-3.19-1.08c-.78-.72-1.19-1.71-1.19-2.94,0-1.11.36-1.98,1.06-2.62.72-.63,1.68-.96,2.9-.96Z"/>
  <rect class="cls-23" x="7.19" y="156.7" width="11.4" height="1.35"/>
  <path class="cls-23" d="M13.91,147.46h4.68v1.35h-1.25c.51.32.87.71,1.1,1.15s.34,1.02.34,1.68c0,.84-.23,1.51-.69,2.01-.46.49-1.09.74-1.89.74-.91,0-1.6-.3-2.09-.93-.47-.62-.7-1.53-.7-2.76v-1.89h-.14c-.61,0-1.1.21-1.44.61-.33.4-.51.98-.51,1.71,0,.48.06.93.18,1.38.12.45.28.87.49,1.27h-1.24c-.18-.48-.33-.96-.42-1.43s-.15-.91-.15-1.36c0-1.19.32-2.07.93-2.66.61-.58,1.55-.88,2.79-.88ZM14.47,150.14c0,1.1.14,1.85.38,2.26.26.42.68.63,1.27.63.48,0,.87-.15,1.14-.46.28-.32.42-.75.42-1.29,0-.75-.25-1.35-.79-1.8-.53-.45-1.23-.67-2.12-.67h-.3v1.33Z"/>
  <path class="cls-23" d="M19.34,141.26c.96.39,1.6.76,1.91,1.12.3.36.45.84.45,1.44v1.08h-1.12v-.79c0-.36-.09-.65-.27-.86-.18-.21-.58-.43-1.24-.69l-.6-.24-8.07,3.32v-1.43l6.42-2.57-6.42-2.57v-1.43l8.95,3.6Z"/>
  <path class="cls-23" d="M7.21,127.79c1.14.66,2.25,1.14,3.35,1.45,1.1.33,2.2.48,3.33.48s2.25-.15,3.35-.48c1.11-.31,2.2-.79,3.33-1.45v1.17c-1.16.74-2.26,1.29-3.38,1.65s-2.2.54-3.3.54-2.18-.18-3.29-.54c-1.11-.36-2.23-.9-3.39-1.65v-1.17Z"/>
  <path class="cls-23" d="M10.63,119.95h1.27c-.18.39-.33.78-.43,1.18-.09.42-.15.84-.15,1.28,0,.68.1,1.18.31,1.51s.51.49.91.49c.32,0,.56-.12.73-.36.18-.24.36-.72.51-1.44l.11-.46c.21-.96.51-1.63.87-2.04.38-.39.9-.6,1.56-.6.76,0,1.36.3,1.8.9.45.6.66,1.44.66,2.49,0,.45-.05.9-.12,1.38-.08.48-.2.97-.38,1.5h-1.4c.27-.49.47-.99.58-1.47.14-.48.19-.96.19-1.44,0-.63-.1-1.12-.31-1.47-.21-.33-.53-.51-.93-.51-.36,0-.65.13-.84.38-.19.24-.39.78-.57,1.62l-.11.46c-.18.84-.45,1.46-.81,1.82-.36.38-.85.56-1.5.56-.76,0-1.36-.27-1.78-.81-.42-.54-.63-1.32-.63-2.34,0-.49.05-.96.12-1.41.08-.43.18-.84.32-1.21Z"/>
  <path class="cls-23" d="M13.76,111.7c-.74.01-1.32.23-1.77.62-.43.4-.66.94-.66,1.6,0,.75.23,1.35.65,1.8s1.02.72,1.78.78v-4.8ZM14.15,110.35h.66v6.2c.93-.06,1.65-.33,2.13-.84.48-.5.72-1.18.72-2.09,0-.51-.06-1.02-.18-1.5-.12-.48-.31-.97-.58-1.46h1.27c.21.48.38.98.47,1.49.09.51.15,1.04.15,1.54,0,1.32-.38,2.36-1.12,3.12s-1.78,1.14-3.09,1.14-2.4-.36-3.19-1.08c-.78-.72-1.19-1.71-1.19-2.94,0-1.11.36-1.98,1.06-2.62.72-.63,1.68-.96,2.9-.96Z"/>
  <path class="cls-23" d="M10.7,102.23h1.26c-.21.39-.36.77-.47,1.16s-.16.76-.16,1.15c0,.87.28,1.56.84,2.04s1.34.72,2.32.72,1.79-.24,2.34-.72c.56-.48.83-1.17.83-2.04,0-.39-.05-.76-.15-1.15s-.27-.76-.48-1.16h1.24c.18.39.32.78.39,1.17.07.4.12.84.12,1.29,0,1.23-.38,2.22-1.15,2.94-.77.74-1.82,1.1-3.14,1.1s-2.39-.36-3.15-1.1c-.76-.74-1.15-1.74-1.15-3.03,0-.42.05-.82.14-1.21s.21-.78.38-1.16Z"/>
  <path class="cls-23" d="M7.21,100.1v-1.17c1.15-.72,2.28-1.28,3.39-1.64,1.11-.36,2.2-.55,3.29-.55s2.19.19,3.3.55,2.22.92,3.38,1.64v1.17c-1.12-.65-2.22-1.12-3.33-1.46-1.09-.32-2.2-.48-3.35-.48s-2.23.16-3.33.48c-1.1.33-2.21.81-3.35,1.46Z"/>
  <polygon class="cls-23" points="55.73 9.69 53.5 11.93 55.73 14.16 55.15 14.75 52.91 12.51 50.67 14.75 50.09 14.16 52.32 11.93 50.09 9.69 50.67 9.1 52.91 11.34 55.15 9.1 55.73 9.69"/>
  <polygon class="cls-23" points="58.33 14.23 59.94 14.23 59.94 8.67 58.19 9.02 58.19 8.12 59.93 7.77 60.92 7.77 60.92 14.23 62.53 14.23 62.53 15.06 58.33 15.06 58.33 14.23"/>
  <path class="cls-23" d="M66.64,7.64c.81,0,1.43.33,1.87.97.43.65.65,1.59.65,2.81s-.22,2.17-.65,2.81c-.44.64-1.06.96-1.88.96s-1.44-.32-1.87-.96c-.43-.64-.64-1.58-.64-2.81s.21-2.16.64-2.81c.43-.64,1.06-.97,1.88-.97ZM66.64,8.42c-.51,0-.89.25-1.15.75-.26.5-.38,1.25-.38,2.25s.12,1.75.38,2.25c.26.5.64.75,1.15.75s.89-.25,1.15-.75c.25-.5.38-1.25.38-2.25s-.13-1.75-.38-2.25c-.26-.5-.64-.75-1.15-.75Z"/>
  <polygon class="cls-23" points="70.49 6.13 73.77 6.13 73.77 6.42 71.92 11.23 71.2 11.23 72.94 6.71 70.49 6.71 70.49 6.13"/>
  <g class="cls-69">
    <polyline class="cls-6" points="65.63 273.07 122.02 224.04 178.42 169.58 234.81 125.62 291.2 87.8 347.59 56.65 403.98 30.72"/>
    <g class="cls-34">
      <path class="cls-7" d="M62.63,270.07l6,6M62.63,276.07l6-6"/>
    </g>
    <g class="cls-20">
      <path class="cls-7" d="M119.02,221.04l6,6M119.02,227.04l6-6"/>
    </g>
    <g class="cls-70">
      <path class="cls-7" d="M175.42,166.58l6,6M175.42,172.58l6-6"/>
    </g>
    <g class="cls-68">
      <path class="cls-7" d="M231.81,122.62l6,6M231.81,128.62l6-6"/>
    </g>
    <g class="cls-60">
      <path class="cls-7" d="M288.2,84.8l6,6M288.2,90.8l6-6"/>
    </g>
    <g class="cls-18">
      <path class="cls-7" d="M344.59,53.65l6,6M344.59,59.65l6-6"/>
    </g>
    <g class="cls-39">
      <path class="cls-7" d="M400.98,27.72l6,6M400.98,33.72l6-6"/>
    </g>
  </g>
  <g class="cls-52">
    <polyline class="cls-11" points="65.63 258.31 122.02 203.45 178.42 180.77 234.81 163.27 291.2 150.87 347.59 141.52 403.98 135.45"/>
    <g class="cls-75">
      <polygon class="cls-2" points="65.63 262.55 68.18 258.31 65.63 254.07 63.09 258.31 65.63 262.55"/>
    </g>
    <g class="cls-50">
      <polygon class="cls-2" points="122.02 207.69 124.57 203.45 122.02 199.21 119.48 203.45 122.02 207.69"/>
    </g>
    <g class="cls-33">
      <polygon class="cls-2" points="178.42 185.01 180.96 180.77 178.42 176.52 175.87 180.77 178.42 185.01"/>
    </g>
    <g class="cls-37">
      <polygon class="cls-2" points="234.81 167.51 237.35 163.27 234.81 159.03 232.26 163.27 234.81 167.51"/>
    </g>
    <g class="cls-46">
      <polygon class="cls-2" points="291.2 155.11 293.75 150.87 291.2 146.62 288.65 150.87 291.2 155.11"/>
    </g>
    <g class="cls-80">
      <polygon class="cls-2" points="347.59 145.77 350.14 141.52 347.59 137.28 345.05 141.52 347.59 145.77"/>
    </g>
    <g class="cls-67">
      <polygon class="cls-2" points="403.98 139.7 406.53 135.45 403.98 131.21 401.44 135.45 403.98 139.7"/>
    </g>
  </g>
  <g class="cls-51">
    <polyline class="cls-9" points="65.63 257.81 122.02 178.7 178.42 154.86 234.81 142.18 291.2 132.97 347.59 129.96 403.98 130.62"/>
    <g class="cls-61">
      <path class="cls-3" d="M65.63,260.81c.8,0,1.56-.32,2.12-.88.56-.56.88-1.33.88-2.12s-.32-1.56-.88-2.12c-.56-.56-1.33-.88-2.12-.88s-1.56.32-2.12.88c-.56.56-.88,1.33-.88,2.12s.32,1.56.88,2.12c.56.56,1.33.88,2.12.88Z"/>
    </g>
    <g class="cls-28">
      <path class="cls-3" d="M122.02,181.7c.8,0,1.56-.32,2.12-.88.56-.56.88-1.33.88-2.12s-.32-1.56-.88-2.12c-.56-.56-1.33-.88-2.12-.88s-1.56.32-2.12.88c-.56.56-.88,1.33-.88,2.12s.32,1.56.88,2.12c.56.56,1.33.88,2.12.88Z"/>
    </g>
    <g class="cls-22">
      <path class="cls-3" d="M178.42,157.86c.8,0,1.56-.32,2.12-.88s.88-1.33.88-2.12-.32-1.56-.88-2.12-1.33-.88-2.12-.88-1.56.32-2.12.88-.88,1.33-.88,2.12.32,1.56.88,2.12,1.33.88,2.12.88Z"/>
    </g>
    <g class="cls-40">
      <path class="cls-3" d="M234.81,145.18c.8,0,1.56-.32,2.12-.88s.88-1.33.88-2.12-.32-1.56-.88-2.12-1.33-.88-2.12-.88-1.56.32-2.12.88-.88,1.33-.88,2.12.32,1.56.88,2.12,1.33.88,2.12.88Z"/>
    </g>
    <g class="cls-81">
      <path class="cls-3" d="M291.2,135.97c.8,0,1.56-.32,2.12-.88.56-.56.88-1.33.88-2.12s-.32-1.56-.88-2.12c-.56-.56-1.33-.88-2.12-.88s-1.56.32-2.12.88c-.56.56-.88,1.33-.88,2.12s.32,1.56.88,2.12c.56.56,1.33.88,2.12.88Z"/>
    </g>
    <g class="cls-45">
      <path class="cls-3" d="M347.59,132.96c.8,0,1.56-.32,2.12-.88.56-.56.88-1.33.88-2.12s-.32-1.56-.88-2.12c-.56-.56-1.33-.88-2.12-.88s-1.56.32-2.12.88c-.56.56-.88,1.33-.88,2.12s.32,1.56.88,2.12c.56.56,1.33.88,2.12.88Z"/>
    </g>
    <g class="cls-31">
      <path class="cls-3" d="M403.98,133.62c.8,0,1.56-.32,2.12-.88.56-.56.88-1.33.88-2.12s-.32-1.56-.88-2.12c-.56-.56-1.33-.88-2.12-.88s-1.56.32-2.12.88c-.56.56-.88,1.33-.88,2.12s.32,1.56.88,2.12c.56.56,1.33.88,2.12.88Z"/>
    </g>
  </g>
  <g class="cls-44">
    <polyline class="cls-8" points="65.63 273.07 122.02 273.94 178.42 276.02 234.81 278.73 291.2 279.72 347.59 281.89 403.98 282.72"/>
    <g class="cls-59">
      <path class="cls-7" d="M62.63,270.07l6,6M62.63,276.07l6-6"/>
    </g>
    <g class="cls-36">
      <path class="cls-7" d="M119.02,270.94l6,6M119.02,276.94l6-6"/>
    </g>
    <g class="cls-27">
      <path class="cls-7" d="M175.42,273.02l6,6M175.42,279.02l6-6"/>
    </g>
    <g class="cls-73">
      <path class="cls-7" d="M231.81,275.73l6,6M231.81,281.73l6-6"/>
    </g>
    <g class="cls-64">
      <path class="cls-7" d="M288.2,276.72l6,6M288.2,282.72l6-6"/>
    </g>
    <g class="cls-48">
      <path class="cls-7" d="M344.59,278.89l6,6M344.59,284.89l6-6"/>
    </g>
    <g class="cls-17">
      <path class="cls-7" d="M400.98,279.72l6,6M400.98,285.72l6-6"/>
    </g>
  </g>
  <g class="cls-32">
    <polyline class="cls-13" points="65.63 258.31 122.02 258.17 178.42 259.22 234.81 259.45 291.2 259.62 347.59 260.32 403.98 260.34"/>
    <g class="cls-26">
      <polygon class="cls-2" points="65.63 262.55 68.18 258.31 65.63 254.07 63.09 258.31 65.63 262.55"/>
    </g>
    <g class="cls-57">
      <polygon class="cls-2" points="122.02 262.42 124.57 258.17 122.02 253.93 119.48 258.17 122.02 262.42"/>
    </g>
    <g class="cls-78">
      <polygon class="cls-2" points="178.42 263.46 180.96 259.22 178.42 254.98 175.87 259.22 178.42 263.46"/>
    </g>
    <g class="cls-56">
      <polygon class="cls-2" points="234.81 263.7 237.35 259.45 234.81 255.21 232.26 259.45 234.81 263.7"/>
    </g>
    <g class="cls-79">
      <polygon class="cls-2" points="291.2 263.86 293.75 259.62 291.2 255.37 288.65 259.62 291.2 263.86"/>
    </g>
    <g class="cls-54">
      <polygon class="cls-2" points="347.59 264.56 350.14 260.32 347.59 256.08 345.05 260.32 347.59 264.56"/>
    </g>
    <g class="cls-77">
      <polygon class="cls-2" points="403.98 264.58 406.53 260.34 403.98 256.1 401.44 260.34 403.98 264.58"/>
    </g>
  </g>
  <g class="cls-62">
    <polyline class="cls-4" points="65.63 258.16 122.02 258.51 178.42 257.18 234.81 258.21 291.2 258.85 347.59 258.04 403.98 259.68"/>
    <g class="cls-66">
      <path class="cls-3" d="M65.63,261.16c.8,0,1.56-.32,2.12-.88.56-.56.88-1.33.88-2.12s-.32-1.56-.88-2.12c-.56-.56-1.33-.88-2.12-.88s-1.56.32-2.12.88c-.56.56-.88,1.33-.88,2.12s.32,1.56.88,2.12c.56.56,1.33.88,2.12.88Z"/>
    </g>
    <g class="cls-76">
      <path class="cls-3" d="M122.02,261.51c.8,0,1.56-.32,2.12-.88.56-.56.88-1.33.88-2.12s-.32-1.56-.88-2.12c-.56-.56-1.33-.88-2.12-.88s-1.56.32-2.12.88c-.56.56-.88,1.33-.88,2.12s.32,1.56.88,2.12c.56.56,1.33.88,2.12.88Z"/>
    </g>
    <g class="cls-41">
      <path class="cls-3" d="M178.42,260.18c.8,0,1.56-.32,2.12-.88.56-.56.88-1.33.88-2.12s-.32-1.56-.88-2.12c-.56-.56-1.33-.88-2.12-.88s-1.56.32-2.12.88c-.56.56-.88,1.33-.88,2.12s.32,1.56.88,2.12c.56.56,1.33.88,2.12.88Z"/>
    </g>
    <g class="cls-72">
      <path class="cls-3" d="M234.81,261.21c.8,0,1.56-.32,2.12-.88.56-.56.88-1.33.88-2.12s-.32-1.56-.88-2.12c-.56-.56-1.33-.88-2.12-.88s-1.56.32-2.12.88c-.56.56-.88,1.33-.88,2.12s.32,1.56.88,2.12c.56.56,1.33.88,2.12.88Z"/>
    </g>
    <g class="cls-21">
      <path class="cls-3" d="M291.2,261.85c.8,0,1.56-.32,2.12-.88.56-.56.88-1.33.88-2.12s-.32-1.56-.88-2.12c-.56-.56-1.33-.88-2.12-.88s-1.56.32-2.12.88c-.56.56-.88,1.33-.88,2.12s.32,1.56.88,2.12c.56.56,1.33.88,2.12.88Z"/>
    </g>
    <g class="cls-47">
      <path class="cls-3" d="M347.59,261.04c.8,0,1.56-.32,2.12-.88.56-.56.88-1.33.88-2.12s-.32-1.56-.88-2.12c-.56-.56-1.33-.88-2.12-.88s-1.56.32-2.12.88c-.56.56-.88,1.33-.88,2.12s.32,1.56.88,2.12c.56.56,1.33.88,2.12.88Z"/>
    </g>
    <g class="cls-58">
      <path class="cls-3" d="M403.98,262.68c.8,0,1.56-.32,2.12-.88.56-.56.88-1.33.88-2.12s-.32-1.56-.88-2.12c-.56-.56-1.33-.88-2.12-.88s-1.56.32-2.12.88c-.56.56-.88,1.33-.88,2.12s.32,1.56.88,2.12c.56.56,1.33.88,2.12.88Z"/>
    </g>
  </g>
  <g class="cls-16">
    <polyline class="cls-1" points="65.63 184.96 122.02 184.96 178.42 184.96 234.81 184.96 291.2 184.96 347.59 184.96 403.98 184.96"/>
  </g>
  <line class="cls-10" x1="48.72" y1="295.32" x2="48.72" y2="18.12"/>
  <line class="cls-10" x1="420.9" y1="295.32" x2="420.9" y2="18.12"/>
  <line class="cls-10" x1="48.72" y1="295.32" x2="420.9" y2="295.32"/>
  <line class="cls-10" x1="48.72" y1="18.12" x2="420.9" y2="18.12"/>
  <g>
    <rect class="cls-25" x="55.22" y="24.62" width="307.16" height="80.21" rx="2.6" ry="2.6"/>
    <rect class="cls-15" x="55.22" y="24.62" width="307.16" height="80.21" rx="2.6" ry="2.6"/>
  </g>
  <polyline class="cls-6" points="60.42 35.15 73.42 35.15 86.42 35.15"/>
  <path class="cls-7" d="M70.42,32.15l6,6M70.42,38.15l6-6"/>
  <polygon class="cls-23" points="98.09 30.22 99.38 30.22 99.38 38.62 103.99 38.62 103.99 39.7 98.09 39.7 98.09 30.22"/>
  <path class="cls-23" d="M106.62,31.27v3.37h1.61c.61,0,1.08-.14,1.39-.43.31-.29.48-.7.48-1.26s-.17-.96-.48-1.25c-.31-.29-.78-.43-1.39-.43h-1.61ZM109.83,35.25c.27.1.55.3.81.6.26.31.52.73.78,1.26l1.3,2.59h-1.38l-1.21-2.43c-.31-.62-.62-1.05-.91-1.26-.3-.21-.7-.31-1.21-.31h-1.39v4h-1.29v-9.48h2.9c1.08,0,1.89.23,2.42.68.53.45.81,1.14.81,2.05,0,.6-.14,1.11-.42,1.49-.29.39-.69.66-1.21.81Z"/>
  <path class="cls-23" d="M114.22,30.22h1.29v5.76c0,1.01.18,1.75.55,2.2.36.44.96.66,1.79.66s1.42-.22,1.78-.66c.36-.44.56-1.18.56-2.2v-5.76h1.29v5.91c0,1.25-.31,2.17-.92,2.8s-1.51.94-2.7.94-2.11-.31-2.72-.94-.91-1.55-.91-2.8v-5.91Z"/>
  <path class="cls-23" d="M130.77,29.83c-.57.99-.99,1.95-1.26,2.9-.29.95-.42,1.91-.42,2.89s.13,1.95.42,2.9c.27.96.69,1.91,1.26,2.89h-1.01c-.64-1-1.12-1.96-1.43-2.92-.31-.96-.47-1.91-.47-2.86s.16-1.89.47-2.85c.31-.96.78-1.94,1.43-2.94h1.01Z"/>
  <path class="cls-23" d="M138.57,33.95c.29-.52.64-.9,1.04-1.16.4-.25.88-.38,1.44-.38.73,0,1.3.26,1.7.78s.61,1.26.61,2.21v4.29h-1.17v-4.25c0-.68-.13-1.18-.36-1.52-.25-.32-.61-.49-1.1-.49-.61,0-1.09.21-1.44.61-.35.4-.52.95-.52,1.64v4.02h-1.17v-4.25c0-.68-.13-1.18-.36-1.52-.25-.32-.62-.49-1.12-.49-.6,0-1.08.21-1.43.61-.35.4-.52.95-.52,1.64v4.02h-1.17v-7.11h1.17v1.1c.26-.43.59-.75.96-.96.36-.21.81-.31,1.33-.31s.95.13,1.31.39c.36.26.62.65.81,1.14Z"/>
  <path class="cls-23" d="M148.52,32.42h0ZM145.58,36.89v-4.3h1.17v4.26c0,.68.13,1.17.39,1.51.26.34.65.51,1.18.51.62,0,1.13-.2,1.49-.6.36-.4.55-.95.55-1.65v-4.03h1.17v7.11h-1.17v-1.09c-.29.44-.62.75-.99.96-.38.2-.81.3-1.3.3-.82,0-1.44-.25-1.86-.75-.43-.49-.64-1.24-.64-2.22Z"/>
  <rect class="cls-23" x="153.94" y="29.82" width="1.17" height="9.88"/>
  <path class="cls-23" d="M158.71,30.57v2.02h2.4v.91h-2.4v3.86c0,.58.08.96.23,1.12.16.17.48.25.97.25h1.2v.98h-1.2c-.91,0-1.53-.17-1.87-.51-.34-.34-.51-.95-.51-1.83v-3.86h-.86v-.91h.86v-2.02h1.17Z"/>
  <path class="cls-23" d="M162.65,29.82h1.17v1.48h-1.17v-1.48ZM162.65,32.59h1.17v7.11h-1.17v-7.11Z"/>
  <rect class="cls-23" x="165.68" y="35.61" width="3.42" height="1.04"/>
  <path class="cls-23" d="M172.11,30.57v2.02h2.4v.91h-2.4v3.86c0,.58.08.96.23,1.12.16.17.48.25.97.25h1.2v.98h-1.2c-.91,0-1.53-.17-1.87-.51-.34-.34-.51-.95-.51-1.83v-3.86h-.86v-.91h.86v-2.02h1.17Z"/>
  <path class="cls-23" d="M176.05,29.82h1.17v1.48h-1.17v-1.48ZM176.05,32.59h1.17v7.11h-1.17v-7.11Z"/>
  <path class="cls-23" d="M184.58,35.51c-.01-.64-.2-1.14-.53-1.53-.35-.38-.82-.57-1.39-.57-.65,0-1.17.2-1.56.56-.39.36-.62.88-.68,1.55h4.16ZM185.75,35.85v.57h-5.37c.05.81.29,1.43.73,1.85.43.42,1.03.62,1.81.62.44,0,.88-.05,1.3-.16s.85-.27,1.26-.51v1.1c-.42.18-.85.33-1.29.4s-.9.13-1.34.13c-1.14,0-2.04-.33-2.7-.98-.66-.65-.99-1.55-.99-2.68s.31-2.08.94-2.77c.62-.68,1.48-1.03,2.55-1.03.96,0,1.72.31,2.27.92.55.62.83,1.46.83,2.51Z"/>
  <path class="cls-23" d="M191.78,33.68c-.13-.08-.27-.13-.43-.17-.16-.03-.32-.05-.51-.05-.66,0-1.17.22-1.52.65-.36.43-.53,1.04-.53,1.85v3.74h-1.17v-7.11h1.17v1.1c.23-.43.56-.75.95-.96.39-.21.87-.31,1.44-.31.08,0,.17.01.27.01.09.01.19.03.32.05v1.2Z"/>
  <path class="cls-23" d="M192.82,29.83h1.01c.62,1,1.1,1.98,1.42,2.94.31.96.48,1.91.48,2.85s-.17,1.9-.48,2.86c-.31.96-.79,1.92-1.42,2.92h-1.01c.56-.98.98-1.92,1.26-2.89.27-.95.42-1.91.42-2.9s-.14-1.94-.42-2.89c-.29-.95-.7-1.91-1.26-2.9Z"/>
  <polyline class="cls-11" points="60.42 54.23 73.42 54.23 86.42 54.23"/>
  <polygon class="cls-2" points="73.42 58.47 75.96 54.23 73.42 49.98 70.87 54.23 73.42 58.47"/>
  <polygon class="cls-23" points="98.09 49.3 103.54 49.3 103.54 50.38 99.38 50.38 99.38 53.17 103.13 53.17 103.13 54.25 99.38 54.25 99.38 58.77 98.09 58.77 98.09 49.3"/>
  <rect class="cls-23" x="105.56" y="49.3" width="1.29" height="9.48"/>
  <polygon class="cls-23" points="109.4 49.3 114.85 49.3 114.85 50.38 110.69 50.38 110.69 53.17 114.44 53.17 114.44 54.25 110.69 54.25 110.69 58.77 109.4 58.77 109.4 49.3"/>
  <path class="cls-23" d="M120.72,49.13c1.33,0,2.38.45,3.18,1.34.79.88,1.2,2.08,1.2,3.58s-.4,2.69-1.2,3.57c-.81.88-1.86,1.33-3.18,1.33s-2.4-.44-3.2-1.33c-.81-.88-1.2-2.07-1.2-3.57s.39-2.69,1.2-3.58c.79-.88,1.86-1.34,3.2-1.34ZM120.72,50.17c-.94,0-1.68.35-2.22,1.04-.55.7-.82,1.64-.82,2.83s.27,2.14.82,2.83c.55.7,1.29,1.04,2.22,1.04s1.66-.34,2.21-1.04c.55-.69.82-1.64.82-2.83s-.27-2.13-.82-2.83c-.55-.69-1.29-1.04-2.21-1.04Z"/>
  <path class="cls-23" d="M134,48.91c-.57.99-.99,1.95-1.26,2.9-.29.95-.42,1.91-.42,2.89s.13,1.95.42,2.9c.27.96.69,1.91,1.26,2.89h-1.01c-.64-1-1.12-1.96-1.43-2.92-.31-.96-.47-1.91-.47-2.86s.16-1.89.47-2.85c.31-.96.78-1.94,1.43-2.94h1.01Z"/>
  <path class="cls-23" d="M141.8,53.03c.29-.52.64-.9,1.04-1.16.4-.25.88-.38,1.44-.38.73,0,1.3.26,1.7.78s.61,1.26.61,2.21v4.29h-1.17v-4.25c0-.68-.13-1.18-.36-1.52-.25-.32-.61-.49-1.1-.49-.61,0-1.09.21-1.44.61-.35.4-.52.95-.52,1.64v4.02h-1.17v-4.25c0-.68-.13-1.18-.36-1.52-.25-.32-.62-.49-1.12-.49-.6,0-1.08.21-1.43.61-.35.4-.52.95-.52,1.64v4.02h-1.17v-7.11h1.17v1.1c.26-.43.59-.75.96-.96.36-.21.81-.31,1.33-.31s.95.13,1.31.39c.36.26.62.65.81,1.14Z"/>
  <path class="cls-23" d="M151.74,51.49h0ZM148.8,55.97v-4.3h1.17v4.26c0,.68.13,1.17.39,1.51.26.34.65.51,1.18.51.62,0,1.13-.2,1.49-.6.36-.4.55-.95.55-1.65v-4.03h1.17v7.11h-1.17v-1.09c-.29.44-.62.75-.99.96-.38.2-.81.3-1.3.3-.82,0-1.44-.25-1.86-.75-.43-.49-.64-1.24-.64-2.22Z"/>
  <rect class="cls-23" x="157.16" y="48.89" width="1.17" height="9.88"/>
  <path class="cls-23" d="M161.93,49.65v2.02h2.4v.91h-2.4v3.86c0,.58.08.96.23,1.12.16.17.48.25.97.25h1.2v.98h-1.2c-.91,0-1.53-.17-1.87-.51-.34-.34-.51-.95-.51-1.83v-3.86h-.86v-.91h.86v-2.02h1.17Z"/>
  <path class="cls-23" d="M165.87,48.89h1.17v1.48h-1.17v-1.48ZM165.87,51.66h1.17v7.11h-1.17v-7.11Z"/>
  <rect class="cls-23" x="168.9" y="54.69" width="3.42" height="1.04"/>
  <path class="cls-23" d="M175.34,49.65v2.02h2.4v.91h-2.4v3.86c0,.58.08.96.23,1.12.16.17.48.25.97.25h1.2v.98h-1.2c-.91,0-1.53-.17-1.87-.51-.34-.34-.51-.95-.51-1.83v-3.86h-.86v-.91h.86v-2.02h1.17Z"/>
  <path class="cls-23" d="M179.27,48.89h1.17v1.48h-1.17v-1.48ZM179.27,51.66h1.17v7.11h-1.17v-7.11Z"/>
  <path class="cls-23" d="M187.8,54.59c-.01-.64-.2-1.14-.53-1.53-.35-.38-.82-.57-1.39-.57-.65,0-1.17.2-1.56.56-.39.36-.62.88-.68,1.55h4.16ZM188.97,54.93v.57h-5.37c.05.81.29,1.43.73,1.85.43.42,1.03.62,1.81.62.44,0,.88-.05,1.3-.16s.85-.27,1.26-.51v1.1c-.42.18-.85.33-1.29.4s-.9.13-1.34.13c-1.14,0-2.04-.33-2.7-.98-.66-.65-.99-1.55-.99-2.68s.31-2.08.94-2.77c.62-.68,1.48-1.03,2.55-1.03.96,0,1.72.31,2.27.92.55.62.83,1.46.83,2.51Z"/>
  <path class="cls-23" d="M195,52.76c-.13-.08-.27-.13-.43-.17-.16-.03-.32-.05-.51-.05-.66,0-1.17.22-1.52.65-.36.43-.53,1.04-.53,1.85v3.74h-1.17v-7.11h1.17v1.1c.23-.43.56-.75.95-.96.39-.21.87-.31,1.44-.31.08,0,.17.01.27.01.09.01.19.03.32.05v1.2Z"/>
  <path class="cls-23" d="M196.04,48.91h1.01c.62,1,1.1,1.98,1.42,2.94.31.96.48,1.91.48,2.85s-.17,1.9-.48,2.86c-.31.96-.79,1.92-1.42,2.92h-1.01c.56-.98.98-1.92,1.26-2.89.27-.95.42-1.91.42-2.9s-.14-1.94-.42-2.89c-.29-.95-.7-1.91-1.26-2.9Z"/>
  <polyline class="cls-9" points="60.42 73.3 73.42 73.3 86.42 73.3"/>
  <path class="cls-3" d="M73.42,76.3c.8,0,1.56-.32,2.12-.88.56-.56.88-1.33.88-2.12s-.32-1.56-.88-2.12c-.56-.56-1.33-.88-2.12-.88s-1.56.32-2.12.88c-.56.56-.88,1.33-.88,2.12s.32,1.56.88,2.12c.56.56,1.33.88,2.12.88Z"/>
  <path class="cls-23" d="M97.95,68.38h1.29v5.76c0,1.01.18,1.75.55,2.2.36.44.96.66,1.79.66s1.42-.22,1.78-.66c.36-.44.56-1.18.56-2.2v-5.76h1.29v5.91c0,1.25-.31,2.17-.92,2.8s-1.51.94-2.7.94-2.11-.31-2.72-.94-.91-1.55-.91-2.8v-5.91Z"/>
  <polygon class="cls-23" points="107.61 68.38 109.33 68.38 113.53 76.31 113.53 68.38 114.78 68.38 114.78 77.85 113.05 77.85 108.85 69.92 108.85 77.85 107.61 77.85 107.61 68.38"/>
  <rect class="cls-23" x="117.33" y="68.38" width="1.29" height="9.48"/>
  <polygon class="cls-23" points="121.16 68.38 126.61 68.38 126.61 69.46 122.45 69.46 122.45 72.25 126.21 72.25 126.21 73.33 122.45 73.33 122.45 77.85 121.16 77.85 121.16 68.38"/>
  <path class="cls-23" d="M135.53,67.99c-.57.99-.99,1.95-1.26,2.9-.29.95-.42,1.91-.42,2.89s.13,1.95.42,2.9c.27.96.69,1.91,1.26,2.89h-1.01c-.64-1-1.12-1.96-1.43-2.92-.31-.96-.47-1.91-.47-2.86s.16-1.89.47-2.85c.31-.96.78-1.94,1.43-2.94h1.01Z"/>
  <path class="cls-23" d="M143.33,72.11c.29-.52.64-.9,1.04-1.16.4-.25.88-.38,1.44-.38.73,0,1.3.26,1.7.78s.61,1.26.61,2.21v4.29h-1.17v-4.25c0-.68-.13-1.18-.36-1.52-.25-.32-.61-.49-1.1-.49-.61,0-1.09.21-1.44.61-.35.4-.52.95-.52,1.64v4.02h-1.17v-4.25c0-.68-.13-1.18-.36-1.52-.25-.32-.62-.49-1.12-.49-.6,0-1.08.21-1.43.61-.35.4-.52.95-.52,1.64v4.02h-1.17v-7.11h1.17v1.1c.26-.43.59-.75.96-.96.36-.21.81-.31,1.33-.31s.95.13,1.31.39c.36.26.62.65.81,1.14Z"/>
  <path class="cls-23" d="M153.27,70.57h0ZM150.34,75.05v-4.3h1.17v4.26c0,.68.13,1.17.39,1.51.26.34.65.51,1.18.51.62,0,1.13-.2,1.49-.6.36-.4.55-.95.55-1.65v-4.03h1.17v7.11h-1.17v-1.09c-.29.44-.62.75-.99.96-.38.2-.81.3-1.3.3-.82,0-1.44-.25-1.86-.75-.43-.49-.64-1.24-.64-2.22Z"/>
  <rect class="cls-23" x="158.7" y="67.97" width="1.17" height="9.88"/>
  <path class="cls-23" d="M163.47,68.73v2.02h2.4v.91h-2.4v3.86c0,.58.08.96.23,1.12.16.17.48.25.97.25h1.2v.98h-1.2c-.91,0-1.53-.17-1.87-.51-.34-.34-.51-.95-.51-1.83v-3.86h-.86v-.91h.86v-2.02h1.17Z"/>
  <path class="cls-23" d="M167.41,67.97h1.17v1.48h-1.17v-1.48ZM167.41,70.74h1.17v7.11h-1.17v-7.11Z"/>
  <rect class="cls-23" x="170.43" y="73.77" width="3.42" height="1.04"/>
  <path class="cls-23" d="M176.87,68.73v2.02h2.4v.91h-2.4v3.86c0,.58.08.96.23,1.12.16.17.48.25.97.25h1.2v.98h-1.2c-.91,0-1.53-.17-1.87-.51-.34-.34-.51-.95-.51-1.83v-3.86h-.86v-.91h.86v-2.02h1.17Z"/>
  <path class="cls-23" d="M180.81,67.97h1.17v1.48h-1.17v-1.48ZM180.81,70.74h1.17v7.11h-1.17v-7.11Z"/>
  <path class="cls-23" d="M189.34,73.67c-.01-.64-.2-1.14-.53-1.53-.35-.38-.82-.57-1.39-.57-.65,0-1.17.2-1.56.56-.39.36-.62.88-.68,1.55h4.16ZM190.51,74.01v.57h-5.37c.05.81.29,1.43.73,1.85.43.42,1.03.62,1.81.62.44,0,.88-.05,1.3-.16s.85-.27,1.26-.51v1.1c-.42.18-.85.33-1.29.4s-.9.13-1.34.13c-1.14,0-2.04-.33-2.7-.98-.66-.65-.99-1.55-.99-2.68s.31-2.08.94-2.77c.62-.68,1.48-1.03,2.55-1.03.96,0,1.72.31,2.27.92.55.62.83,1.46.83,2.51Z"/>
  <path class="cls-23" d="M196.54,71.83c-.13-.08-.27-.13-.43-.17-.16-.03-.32-.05-.51-.05-.66,0-1.17.22-1.52.65-.36.43-.53,1.04-.53,1.85v3.74h-1.17v-7.11h1.17v1.1c.23-.43.56-.75.95-.96.39-.21.87-.31,1.44-.31.08,0,.17.01.27.01.09.01.19.03.32.05v1.2Z"/>
  <path class="cls-23" d="M197.58,67.99h1.01c.62,1,1.1,1.98,1.42,2.94.31.96.48,1.91.48,2.85s-.17,1.9-.48,2.86c-.31.96-.79,1.92-1.42,2.92h-1.01c.56-.98.98-1.92,1.26-2.89.27-.95.42-1.91.42-2.9s-.14-1.94-.42-2.89c-.29-.95-.7-1.91-1.26-2.9Z"/>
  <polyline class="cls-1" points="60.42 92.38 73.42 92.38 86.42 92.38"/>
  <polygon class="cls-23" points="98.09 87.45 99.82 87.45 104.02 95.38 104.02 87.45 105.27 87.45 105.27 96.93 103.54 96.93 99.34 89 99.34 96.93 98.09 96.93 98.09 87.45"/>
  <path class="cls-23" d="M110.52,89.65c1.01,0,1.81.34,2.39.99.57.66.87,1.57.87,2.74s-.3,2.08-.87,2.73c-.58.66-1.38.99-2.39.99s-1.83-.33-2.4-.99c-.57-.65-.86-1.56-.86-2.73s.29-2.08.86-2.74c.57-.65,1.38-.99,2.4-.99ZM110.52,90.64c-.62,0-1.12.25-1.48.74-.36.49-.55,1.16-.55,2s.17,1.52.53,2.01.86.73,1.49.73,1.12-.23,1.48-.73.55-1.16.55-2.01-.18-1.51-.55-2c-.36-.49-.86-.74-1.48-.74Z"/>
  <path class="cls-23" d="M124.97,90.09v1.09c-.34-.18-.66-.31-1-.4-.34-.09-.66-.14-1-.14-.75,0-1.35.25-1.77.73s-.62,1.16-.62,2.01.21,1.55.62,2.03,1.01.71,1.77.71c.34,0,.66-.04,1-.13.34-.09.66-.23,1-.42v1.08c-.34.16-.68.27-1.01.34-.35.07-.73.1-1.12.1-1.07,0-1.92-.33-2.55-1-.64-.66-.95-1.57-.95-2.72s.31-2.07.95-2.73c.64-.66,1.51-1,2.63-1,.36,0,.71.04,1.05.12.34.08.68.18,1,.32Z"/>
  <path class="cls-23" d="M132.57,92.88v4.06h-1.17v-1.08c-.27.44-.61.75-1,.95-.39.2-.88.3-1.46.3-.73,0-1.31-.2-1.74-.6s-.64-.95-.64-1.64c0-.79.26-1.39.81-1.81.53-.4,1.33-.61,2.39-.61h1.64v-.12c0-.53-.18-.95-.53-1.25-.35-.29-.84-.44-1.48-.44-.42,0-.81.05-1.2.16s-.75.25-1.1.43v-1.08c.42-.16.83-.29,1.24-.36.4-.08.79-.13,1.18-.13,1.03,0,1.79.27,2.3.81s.77,1.34.77,2.42ZM130.24,93.36c-.95,0-1.6.12-1.96.32-.36.22-.55.59-.55,1.1,0,.42.13.75.4.99.27.25.65.36,1.12.36.65,0,1.17-.22,1.56-.69.39-.46.58-1.07.58-1.83v-.26h-1.16Z"/>
  <path class="cls-23" d="M140.09,90.09v1.09c-.34-.18-.66-.31-1-.4s-.66-.14-1-.14c-.75,0-1.35.25-1.77.73s-.62,1.16-.62,2.01.21,1.55.62,2.03,1.01.71,1.77.71c.34,0,.66-.04,1-.13.34-.09.66-.23,1-.42v1.08c-.34.16-.68.27-1.01.34-.35.07-.73.1-1.12.1-1.07,0-1.92-.33-2.55-1-.64-.66-.95-1.57-.95-2.72s.31-2.07.95-2.73c.64-.66,1.51-1,2.63-1,.36,0,.72.04,1.05.12.34.08.68.18,1,.32Z"/>
  <path class="cls-23" d="M148.04,92.64v4.29h-1.17v-4.25c0-.68-.14-1.17-.4-1.51-.26-.34-.65-.51-1.17-.51-.64,0-1.13.21-1.49.61s-.55.95-.55,1.64v4.02h-1.17v-9.88h1.17v3.87c.27-.42.6-.74.99-.95.38-.21.82-.32,1.31-.32.81,0,1.43.26,1.85.77s.64,1.25.64,2.22Z"/>
  <path class="cls-23" d="M150.36,87.05h1.17v1.48h-1.17v-1.48ZM150.36,89.82h1.17v7.11h-1.17v-7.11Z"/>
  <path class="cls-23" d="M159.89,92.64v4.29h-1.17v-4.25c0-.68-.14-1.17-.4-1.51-.26-.34-.65-.51-1.17-.51-.64,0-1.13.21-1.49.61s-.55.95-.55,1.64v4.02h-1.17v-7.11h1.17v1.11c.27-.42.6-.74.99-.95.38-.21.82-.32,1.31-.32.81,0,1.43.26,1.85.77s.64,1.25.64,2.22Z"/>
  <path class="cls-23" d="M168.07,96.05c0,1.2-.27,2.09-.81,2.69-.55.58-1.37.88-2.47.88-.42,0-.79-.04-1.16-.09-.36-.07-.73-.16-1.07-.29v-1.13c.34.18.68.31,1.01.4.34.09.68.14,1.03.14.75,0,1.33-.21,1.72-.6.38-.4.57-1,.57-1.81v-.57c-.25.42-.56.73-.94.94-.38.21-.82.31-1.34.31-.88,0-1.59-.32-2.12-.99-.53-.66-.79-1.55-.79-2.65s.26-1.98.79-2.64c.53-.66,1.24-1,2.12-1,.52,0,.96.1,1.34.31.38.21.69.52.94.94v-1.08h1.17v6.23ZM166.9,93.29c0-.83-.18-1.49-.52-1.96-.35-.47-.85-.7-1.47-.7s-1.12.23-1.47.7-.52,1.13-.52,1.96.17,1.49.52,1.96.85.7,1.47.7,1.12-.23,1.47-.7c.34-.47.52-1.12.52-1.96Z"/>
  <polyline class="cls-8" points="210.71 35.15 223.71 35.15 236.71 35.15"/>
  <path class="cls-7" d="M220.71,32.15l6,6M220.71,38.15l6-6"/>
  <polygon class="cls-23" points="248.39 30.22 249.67 30.22 249.67 38.62 254.29 38.62 254.29 39.7 248.39 39.7 248.39 30.22"/>
  <path class="cls-23" d="M256.91,31.27v3.37h1.61c.61,0,1.08-.14,1.39-.43.31-.29.48-.7.48-1.26s-.17-.96-.48-1.25c-.31-.29-.78-.43-1.39-.43h-1.61ZM260.13,35.25c.27.1.55.3.81.6.26.31.52.73.78,1.26l1.3,2.59h-1.38l-1.21-2.43c-.31-.62-.62-1.05-.91-1.26-.3-.21-.7-.31-1.21-.31h-1.39v4h-1.29v-9.48h2.9c1.08,0,1.89.23,2.42.68.53.45.81,1.14.81,2.05,0,.6-.14,1.11-.42,1.49-.29.39-.69.66-1.21.81Z"/>
  <path class="cls-23" d="M264.52,30.22h1.29v5.76c0,1.01.18,1.75.55,2.2.36.44.96.66,1.79.66s1.42-.22,1.78-.66c.36-.44.56-1.18.56-2.2v-5.76h1.29v5.91c0,1.25-.31,2.17-.92,2.8s-1.51.94-2.7.94-2.11-.31-2.72-.94c-.61-.62-.91-1.55-.91-2.8v-5.91Z"/>
  <path class="cls-23" d="M281.07,29.83c-.57.99-.99,1.95-1.26,2.9-.29.95-.42,1.91-.42,2.89s.13,1.95.42,2.9c.27.96.69,1.91,1.26,2.89h-1.01c-.64-1-1.12-1.96-1.43-2.92-.31-.96-.47-1.91-.47-2.86s.16-1.89.47-2.85c.31-.96.78-1.94,1.43-2.94h1.01Z"/>
  <path class="cls-23" d="M287.87,32.79v1.11c-.34-.16-.68-.29-1.03-.38-.36-.08-.73-.13-1.1-.13-.59,0-1.03.09-1.31.27-.29.18-.43.44-.43.79,0,.27.1.48.31.64.21.16.62.31,1.25.44l.4.09c.83.18,1.42.44,1.77.75.34.33.52.78.52,1.35,0,.66-.26,1.18-.78,1.56-.52.39-1.25.57-2.16.57-.39,0-.78-.04-1.2-.1-.42-.07-.85-.17-1.3-.33v-1.21c.43.23.86.4,1.27.51.42.12.83.17,1.25.17.55,0,.98-.09,1.27-.27.29-.18.44-.45.44-.81,0-.31-.12-.56-.33-.73-.21-.17-.68-.34-1.4-.49l-.4-.09c-.73-.16-1.26-.39-1.57-.7-.32-.31-.48-.74-.48-1.3,0-.66.23-1.18.7-1.55.47-.36,1.14-.55,2.03-.55.43,0,.83.04,1.22.1.38.07.73.16,1.05.27Z"/>
  <path class="cls-23" d="M290.1,29.82h1.17v1.48h-1.17v-1.48ZM290.1,32.59h1.17v7.11h-1.17v-7.11Z"/>
  <path class="cls-23" d="M299.63,35.41v4.29h-1.17v-4.25c0-.68-.14-1.17-.4-1.51-.26-.34-.65-.51-1.17-.51-.64,0-1.13.21-1.5.61-.36.4-.55.95-.55,1.64v4.02h-1.17v-7.11h1.17v1.1c.27-.42.6-.74.99-.95.38-.21.82-.33,1.31-.33.81,0,1.43.26,1.85.77.42.51.64,1.25.64,2.22Z"/>
  <path class="cls-23" d="M307.81,38.81c0,1.2-.27,2.09-.81,2.69-.55.58-1.36.88-2.47.88-.42,0-.79-.04-1.16-.09-.36-.07-.73-.16-1.07-.29v-1.13c.34.18.68.31,1.01.4.34.09.68.14,1.03.14.75,0,1.33-.21,1.72-.6.38-.4.57-1,.57-1.81v-.57c-.25.42-.56.73-.94.94-.38.21-.82.31-1.34.31-.88,0-1.59-.33-2.12-.99s-.79-1.55-.79-2.65.26-1.98.79-2.64,1.24-1,2.12-1c.52,0,.96.1,1.34.31.38.21.69.52.94.94v-1.08h1.17v6.23ZM306.64,36.06c0-.83-.18-1.49-.52-1.96-.35-.47-.85-.7-1.47-.7s-1.12.23-1.47.7c-.35.47-.52,1.13-.52,1.96s.17,1.5.52,1.96.85.7,1.47.7,1.12-.23,1.47-.7c.34-.47.52-1.12.52-1.96Z"/>
  <rect class="cls-23" x="310.21" y="29.82" width="1.17" height="9.88"/>
  <path class="cls-23" d="M318.74,35.51c-.01-.64-.19-1.14-.53-1.53-.35-.38-.82-.57-1.39-.57-.65,0-1.17.2-1.56.56-.39.36-.62.88-.68,1.55h4.16ZM319.91,35.85v.57h-5.37c.05.81.29,1.43.73,1.85.43.42,1.03.62,1.81.62.44,0,.88-.05,1.3-.16.42-.1.85-.27,1.26-.51v1.1c-.42.18-.85.33-1.29.4-.44.08-.9.13-1.34.13-1.14,0-2.04-.33-2.7-.98s-.99-1.55-.99-2.68.31-2.08.94-2.77c.62-.68,1.48-1.03,2.55-1.03.96,0,1.72.31,2.27.92.55.62.83,1.46.83,2.51Z"/>
  <rect class="cls-23" x="321.24" y="35.61" width="3.42" height="1.04"/>
  <path class="cls-23" d="M327.67,30.57v2.02h2.4v.91h-2.4v3.86c0,.58.08.96.23,1.12.16.17.48.25.98.25h1.2v.98h-1.2c-.91,0-1.53-.17-1.87-.51s-.51-.95-.51-1.83v-3.86h-.86v-.91h.86v-2.02h1.17Z"/>
  <path class="cls-23" d="M331.61,29.82h1.17v1.48h-1.17v-1.48ZM331.61,32.59h1.17v7.11h-1.17v-7.11Z"/>
  <path class="cls-23" d="M340.14,35.51c-.01-.64-.19-1.14-.53-1.53-.35-.38-.82-.57-1.39-.57-.65,0-1.17.2-1.56.56-.39.36-.62.88-.68,1.55h4.16ZM341.31,35.85v.57h-5.37c.05.81.29,1.43.73,1.85.43.42,1.03.62,1.81.62.44,0,.88-.05,1.3-.16.42-.1.85-.27,1.26-.51v1.1c-.42.18-.85.33-1.29.4-.44.08-.9.13-1.34.13-1.14,0-2.04-.33-2.7-.98s-.99-1.55-.99-2.68.31-2.08.94-2.77c.62-.68,1.48-1.03,2.55-1.03.96,0,1.72.31,2.27.92.55.62.83,1.46.83,2.51Z"/>
  <path class="cls-23" d="M347.34,33.68c-.13-.08-.27-.13-.43-.17-.16-.03-.33-.05-.51-.05-.66,0-1.17.22-1.52.65-.36.43-.53,1.04-.53,1.85v3.74h-1.17v-7.11h1.17v1.1c.23-.43.56-.75.95-.96.39-.21.87-.31,1.44-.31.08,0,.17.01.27.01.09.01.2.03.32.05v1.2Z"/>
  <path class="cls-23" d="M348.38,29.83h1.01c.62,1,1.11,1.98,1.42,2.94.31.96.48,1.91.48,2.85s-.17,1.9-.48,2.86c-.31.96-.79,1.92-1.42,2.92h-1.01c.56-.98.98-1.92,1.26-2.89.27-.95.42-1.91.42-2.9s-.14-1.94-.42-2.89c-.29-.95-.7-1.91-1.26-2.9Z"/>
  <polyline class="cls-13" points="210.71 54.23 223.71 54.23 236.71 54.23"/>
  <polygon class="cls-2" points="223.71 58.47 226.26 54.23 223.71 49.98 221.17 54.23 223.71 58.47"/>
  <polygon class="cls-23" points="248.39 49.3 253.83 49.3 253.83 50.38 249.67 50.38 249.67 53.17 253.43 53.17 253.43 54.25 249.67 54.25 249.67 58.77 248.39 58.77 248.39 49.3"/>
  <rect class="cls-23" x="255.86" y="49.3" width="1.29" height="9.48"/>
  <polygon class="cls-23" points="259.7 49.3 265.14 49.3 265.14 50.38 260.98 50.38 260.98 53.17 264.74 53.17 264.74 54.25 260.98 54.25 260.98 58.77 259.7 58.77 259.7 49.3"/>
  <path class="cls-23" d="M271.02,49.13c1.33,0,2.38.45,3.18,1.34.79.88,1.2,2.08,1.2,3.58s-.4,2.69-1.2,3.57c-.81.88-1.86,1.33-3.18,1.33s-2.4-.44-3.2-1.33c-.81-.88-1.2-2.07-1.2-3.57s.39-2.69,1.2-3.58c.79-.88,1.86-1.34,3.2-1.34ZM271.02,50.17c-.94,0-1.68.35-2.22,1.04-.55.7-.82,1.64-.82,2.83s.27,2.14.82,2.83c.55.7,1.29,1.04,2.22,1.04s1.66-.34,2.21-1.04c.55-.69.82-1.64.82-2.83s-.27-2.13-.82-2.83c-.55-.69-1.29-1.04-2.21-1.04Z"/>
  <path class="cls-23" d="M284.29,48.91c-.57.99-.99,1.95-1.26,2.9-.29.95-.42,1.91-.42,2.89s.13,1.95.42,2.9c.27.96.69,1.91,1.26,2.89h-1.01c-.64-1-1.12-1.96-1.43-2.92-.31-.96-.47-1.91-.47-2.86s.16-1.89.47-2.85c.31-.96.78-1.94,1.43-2.94h1.01Z"/>
  <path class="cls-23" d="M291.09,51.87v1.11c-.34-.16-.68-.29-1.03-.38-.36-.08-.73-.13-1.1-.13-.59,0-1.03.09-1.31.27-.29.18-.43.44-.43.79,0,.27.1.48.31.64.21.16.62.31,1.25.44l.4.09c.83.18,1.42.44,1.77.75.34.33.52.78.52,1.35,0,.66-.26,1.18-.78,1.56-.52.39-1.25.57-2.16.57-.39,0-.78-.04-1.2-.1-.42-.07-.85-.17-1.3-.33v-1.21c.43.23.86.4,1.27.51.42.12.83.17,1.25.17.55,0,.98-.09,1.27-.27.29-.18.44-.45.44-.81,0-.31-.12-.56-.33-.73-.21-.17-.68-.34-1.4-.49l-.4-.09c-.73-.16-1.26-.39-1.57-.7-.32-.31-.48-.74-.48-1.3,0-.66.23-1.18.7-1.55.47-.36,1.14-.55,2.03-.55.43,0,.83.04,1.22.1.38.07.73.16,1.05.27Z"/>
  <path class="cls-23" d="M293.33,48.89h1.17v1.48h-1.17v-1.48ZM293.33,51.66h1.17v7.11h-1.17v-7.11Z"/>
  <path class="cls-23" d="M302.86,54.48v4.29h-1.17v-4.25c0-.68-.14-1.17-.4-1.51-.26-.34-.65-.51-1.17-.51-.64,0-1.13.21-1.5.61-.36.4-.55.95-.55,1.64v4.02h-1.17v-7.11h1.17v1.1c.27-.42.6-.74.99-.95.38-.21.82-.33,1.31-.33.81,0,1.43.26,1.85.77.42.51.64,1.25.64,2.22Z"/>
  <path class="cls-23" d="M311.03,57.89c0,1.2-.27,2.09-.81,2.69-.55.58-1.36.88-2.47.88-.42,0-.79-.04-1.16-.09-.36-.07-.73-.16-1.07-.29v-1.13c.34.18.68.31,1.01.4.34.09.68.14,1.03.14.75,0,1.33-.21,1.72-.6.38-.4.57-1,.57-1.81v-.57c-.25.42-.56.73-.94.94-.38.21-.82.31-1.34.31-.88,0-1.59-.33-2.12-.99s-.79-1.55-.79-2.65.26-1.98.79-2.64,1.24-1,2.12-1c.52,0,.96.1,1.34.31.38.21.69.52.94.94v-1.08h1.17v6.23ZM309.86,55.13c0-.83-.18-1.49-.52-1.96-.35-.47-.85-.7-1.47-.7s-1.12.23-1.47.7c-.35.47-.52,1.13-.52,1.96s.17,1.5.52,1.96.85.7,1.47.7,1.12-.23,1.47-.7c.34-.47.52-1.12.52-1.96Z"/>
  <rect class="cls-23" x="313.44" y="48.89" width="1.17" height="9.88"/>
  <path class="cls-23" d="M321.97,54.59c-.01-.64-.19-1.14-.53-1.53-.35-.38-.82-.57-1.39-.57-.65,0-1.17.2-1.56.56-.39.36-.62.88-.68,1.55h4.16ZM323.14,54.93v.57h-5.37c.05.81.29,1.43.73,1.85.43.42,1.03.62,1.81.62.44,0,.88-.05,1.3-.16.42-.1.85-.27,1.26-.51v1.1c-.42.18-.85.33-1.29.4-.44.08-.9.13-1.34.13-1.14,0-2.04-.33-2.7-.98s-.99-1.55-.99-2.68.31-2.08.94-2.77c.62-.68,1.48-1.03,2.55-1.03.96,0,1.72.31,2.27.92.55.62.83,1.46.83,2.51Z"/>
  <rect class="cls-23" x="324.46" y="54.69" width="3.42" height="1.04"/>
  <path class="cls-23" d="M330.9,49.65v2.02h2.4v.91h-2.4v3.86c0,.58.08.96.23,1.12.16.17.48.25.98.25h1.2v.98h-1.2c-.91,0-1.53-.17-1.87-.51s-.51-.95-.51-1.83v-3.86h-.86v-.91h.86v-2.02h1.17Z"/>
  <path class="cls-23" d="M334.84,48.89h1.17v1.48h-1.17v-1.48ZM334.84,51.66h1.17v7.11h-1.17v-7.11Z"/>
  <path class="cls-23" d="M343.36,54.59c-.01-.64-.19-1.14-.53-1.53-.35-.38-.82-.57-1.39-.57-.65,0-1.17.2-1.56.56-.39.36-.62.88-.68,1.55h4.16ZM344.53,54.93v.57h-5.37c.05.81.29,1.43.73,1.85.43.42,1.03.62,1.81.62.44,0,.88-.05,1.3-.16.42-.1.85-.27,1.26-.51v1.1c-.42.18-.85.33-1.29.4-.44.08-.9.13-1.34.13-1.14,0-2.04-.33-2.7-.98s-.99-1.55-.99-2.68.31-2.08.94-2.77c.62-.68,1.48-1.03,2.55-1.03.96,0,1.72.31,2.27.92.55.62.83,1.46.83,2.51Z"/>
  <path class="cls-23" d="M350.57,52.76c-.13-.08-.27-.13-.43-.17-.16-.03-.33-.05-.51-.05-.66,0-1.17.22-1.52.65-.36.43-.53,1.04-.53,1.85v3.74h-1.17v-7.11h1.17v1.1c.23-.43.56-.75.95-.96.39-.21.87-.31,1.44-.31.08,0,.17.01.27.01.09.01.2.03.32.05v1.2Z"/>
  <path class="cls-23" d="M351.61,48.91h1.01c.62,1,1.11,1.98,1.42,2.94.31.96.48,1.91.48,2.85s-.17,1.9-.48,2.86c-.31.96-.79,1.92-1.42,2.92h-1.01c.56-.98.98-1.92,1.26-2.89.27-.95.42-1.91.42-2.9s-.14-1.94-.42-2.89c-.29-.95-.7-1.91-1.26-2.9Z"/>
  <polyline class="cls-4" points="210.71 73.3 223.71 73.3 236.71 73.3"/>
  <path class="cls-3" d="M223.71,76.3c.8,0,1.56-.32,2.12-.88.56-.56.88-1.33.88-2.12s-.32-1.56-.88-2.12c-.56-.56-1.33-.88-2.12-.88s-1.56.32-2.12.88c-.56.56-.88,1.33-.88,2.12s.32,1.56.88,2.12c.56.56,1.33.88,2.12.88Z"/>
  <path class="cls-23" d="M248.24,68.38h1.29v5.76c0,1.01.18,1.75.55,2.2.36.44.96.66,1.79.66s1.42-.22,1.78-.66c.36-.44.56-1.18.56-2.2v-5.76h1.29v5.91c0,1.25-.31,2.17-.92,2.8-.61.62-1.51.94-2.7.94s-2.11-.31-2.72-.94c-.61-.62-.91-1.55-.91-2.8v-5.91Z"/>
  <polygon class="cls-23" points="257.9 68.38 259.63 68.38 263.83 76.31 263.83 68.38 265.08 68.38 265.08 77.85 263.35 77.85 259.15 69.92 259.15 77.85 257.9 77.85 257.9 68.38"/>
  <rect class="cls-23" x="267.63" y="68.38" width="1.29" height="9.48"/>
  <polygon class="cls-23" points="271.46 68.38 276.91 68.38 276.91 69.46 272.75 69.46 272.75 72.25 276.51 72.25 276.51 73.33 272.75 73.33 272.75 77.85 271.46 77.85 271.46 68.38"/>
  <path class="cls-23" d="M285.83,67.99c-.57.99-.99,1.95-1.26,2.9-.29.95-.42,1.91-.42,2.89s.13,1.95.42,2.9c.27.96.69,1.91,1.26,2.89h-1.01c-.64-1-1.12-1.96-1.43-2.92-.31-.96-.47-1.91-.47-2.86s.16-1.89.47-2.85c.31-.96.78-1.94,1.43-2.94h1.01Z"/>
  <path class="cls-23" d="M292.63,70.95v1.11c-.34-.16-.68-.29-1.03-.38-.36-.08-.73-.13-1.1-.13-.59,0-1.03.09-1.31.27-.29.18-.43.44-.43.79,0,.27.1.48.31.64.21.16.62.31,1.25.44l.4.09c.83.18,1.42.44,1.77.75.34.33.52.78.52,1.35,0,.66-.26,1.18-.78,1.56-.52.39-1.25.57-2.16.57-.39,0-.78-.04-1.2-.1-.42-.07-.85-.17-1.3-.33v-1.21c.43.23.86.4,1.27.51.42.12.83.17,1.25.17.55,0,.98-.09,1.27-.27.29-.18.44-.45.44-.81,0-.31-.12-.56-.33-.73-.21-.17-.68-.34-1.4-.49l-.4-.09c-.73-.16-1.26-.39-1.57-.7-.32-.31-.48-.74-.48-1.3,0-.66.23-1.18.7-1.55.47-.36,1.14-.55,2.03-.55.43,0,.83.04,1.22.1.38.07.73.16,1.05.27Z"/>
  <path class="cls-23" d="M294.86,67.97h1.17v1.48h-1.17v-1.48ZM294.86,70.74h1.17v7.11h-1.17v-7.11Z"/>
  <path class="cls-23" d="M304.39,73.56v4.29h-1.17v-4.25c0-.68-.14-1.17-.4-1.51-.26-.34-.65-.51-1.17-.51-.64,0-1.13.21-1.5.61-.36.4-.55.95-.55,1.64v4.02h-1.17v-7.11h1.17v1.1c.27-.42.6-.74.99-.95.38-.21.82-.33,1.31-.33.81,0,1.43.26,1.85.77.42.51.64,1.25.64,2.22Z"/>
  <path class="cls-23" d="M312.57,76.97c0,1.2-.27,2.09-.81,2.69-.55.58-1.36.88-2.47.88-.42,0-.79-.04-1.16-.09-.36-.07-.73-.16-1.07-.29v-1.13c.34.18.68.31,1.01.4.34.09.68.14,1.03.14.75,0,1.33-.21,1.72-.6.38-.4.57-1,.57-1.81v-.57c-.25.42-.56.73-.94.94-.38.21-.82.31-1.34.31-.88,0-1.59-.33-2.12-.99s-.79-1.55-.79-2.65.26-1.98.79-2.64,1.24-1,2.12-1c.52,0,.96.1,1.34.31.38.21.69.52.94.94v-1.08h1.17v6.23ZM311.4,74.21c0-.83-.18-1.49-.52-1.96-.35-.47-.85-.7-1.47-.7s-1.12.23-1.47.7c-.35.47-.52,1.13-.52,1.96s.17,1.5.52,1.96.85.7,1.47.7,1.12-.23,1.47-.7c.34-.47.52-1.12.52-1.96Z"/>
  <rect class="cls-23" x="314.97" y="67.97" width="1.17" height="9.88"/>
  <path class="cls-23" d="M323.5,73.67c-.01-.64-.19-1.14-.53-1.53-.35-.38-.82-.57-1.39-.57-.65,0-1.17.2-1.56.56-.39.36-.62.88-.68,1.55h4.16ZM324.67,74.01v.57h-5.37c.05.81.29,1.43.73,1.85.43.42,1.03.62,1.81.62.44,0,.88-.05,1.3-.16.42-.1.85-.27,1.26-.51v1.1c-.42.18-.85.33-1.29.4-.44.08-.9.13-1.34.13-1.14,0-2.04-.33-2.7-.98s-.99-1.55-.99-2.68.31-2.08.94-2.77c.62-.68,1.48-1.03,2.55-1.03.96,0,1.72.31,2.27.92.55.62.83,1.46.83,2.51Z"/>
  <rect class="cls-23" x="326" y="73.77" width="3.42" height="1.04"/>
  <path class="cls-23" d="M332.43,68.73v2.02h2.4v.91h-2.4v3.86c0,.58.08.96.23,1.12.16.17.48.25.98.25h1.2v.98h-1.2c-.91,0-1.53-.17-1.87-.51s-.51-.95-.51-1.83v-3.86h-.86v-.91h.86v-2.02h1.17Z"/>
  <path class="cls-23" d="M336.37,67.97h1.17v1.48h-1.17v-1.48ZM336.37,70.74h1.17v7.11h-1.17v-7.11Z"/>
  <path class="cls-23" d="M344.9,73.67c-.01-.64-.19-1.14-.53-1.53-.35-.38-.82-.57-1.39-.57-.65,0-1.17.2-1.56.56-.39.36-.62.88-.68,1.55h4.16ZM346.07,74.01v.57h-5.37c.05.81.29,1.43.73,1.85.43.42,1.03.62,1.81.62.44,0,.88-.05,1.3-.16.42-.1.85-.27,1.26-.51v1.1c-.42.18-.85.33-1.29.4-.44.08-.9.13-1.34.13-1.14,0-2.04-.33-2.7-.98s-.99-1.55-.99-2.68.31-2.08.94-2.77c.62-.68,1.48-1.03,2.55-1.03.96,0,1.72.31,2.27.92.55.62.83,1.46.83,2.51Z"/>
  <path class="cls-23" d="M352.1,71.83c-.13-.08-.27-.13-.43-.17-.16-.03-.33-.05-.51-.05-.66,0-1.17.22-1.52.65-.36.43-.53,1.04-.53,1.85v3.74h-1.17v-7.11h1.17v1.1c.23-.43.56-.75.95-.96.39-.21.87-.31,1.44-.31.08,0,.17.01.27.01.09.01.2.03.32.05v1.2Z"/>
  <path class="cls-23" d="M353.14,67.99h1.01c.62,1,1.11,1.98,1.42,2.94.31.96.48,1.91.48,2.85s-.17,1.9-.48,2.86c-.31.96-.79,1.92-1.42,2.92h-1.01c.56-.98.98-1.92,1.26-2.89.27-.95.42-1.91.42-2.9s-.14-1.94-.42-2.89c-.29-.95-.7-1.91-1.26-2.9Z"/>
</svg>