<?xml version="1.0" encoding="UTF-8"?>
<svg xmlns="http://www.w3.org/2000/svg" version="1.1" xmlns:xlink="http://www.w3.org/1999/xlink" viewBox="0 0 428.1 339.19">
  <defs>
    <style>
      .cls-1 {
        clip-path: url(#clippath-76);
      }

      .cls-2 {
        clip-path: url(#clippath-51);
      }

      .cls-3 {
        stroke: #ccc;
      }

      .cls-3, .cls-4, .cls-5, .cls-6, .cls-7, .cls-8, .cls-9, .cls-10, .cls-11, .cls-12, .cls-13, .cls-14, .cls-15, .cls-16, .cls-17, .cls-18, .cls-19, .cls-20, .cls-21, .cls-22, .cls-23, .cls-24, .cls-25, .cls-26, .cls-27, .cls-28, .cls-29 {
        fill: none;
      }

      .cls-3, .cls-4, .cls-6, .cls-9, .cls-11, .cls-12, .cls-18, .cls-21 {
        stroke-miterlimit: 10;
      }

      .cls-3, .cls-30 {
        opacity: .8;
      }

      .cls-31 {
        clip-path: url(#clippath-34);
      }

      .cls-32 {
        clip-path: url(#clippath-107);
      }

      .cls-33 {
        clip-path: url(#clippath-38);
      }

      .cls-34 {
        clip-path: url(#clippath-21);
      }

      .cls-4, .cls-9, .cls-15, .cls-25 {
        stroke: #bf00bf;
      }

      .cls-35 {
        clip-path: url(#clippath-6);
      }

      .cls-36 {
        clip-path: url(#clippath-7);
      }

      .cls-37 {
        clip-path: url(#clippath-17);
      }

      .cls-38 {
        clip-path: url(#clippath-80);
      }

      .cls-39 {
        clip-path: url(#clippath-31);
      }

      .cls-5, .cls-7, .cls-8, .cls-10, .cls-13, .cls-15, .cls-16, .cls-17, .cls-19, .cls-20, .cls-22, .cls-23, .cls-24, .cls-25, .cls-26, .cls-27, .cls-28, .cls-29 {
        stroke-linejoin: round;
      }

      .cls-5, .cls-10, .cls-13, .cls-15, .cls-16, .cls-17, .cls-19, .cls-22, .cls-24, .cls-25, .cls-27, .cls-28 {
        stroke-width: 1.5px;
      }

      .cls-5, .cls-15, .cls-16, .cls-18, .cls-19, .cls-22, .cls-27 {
        stroke-linecap: square;
      }

      .cls-5, .cls-17, .cls-18, .cls-20 {
        stroke: #000;
      }

      .cls-40 {
        clip-path: url(#clippath-79);
      }

      .cls-41 {
        clip-path: url(#clippath-75);
      }

      .cls-42 {
        clip-path: url(#clippath-15);
      }

      .cls-43 {
        clip-path: url(#clippath-33);
      }

      .cls-44 {
        clip-path: url(#clippath-61);
      }

      .cls-6, .cls-8, .cls-9, .cls-21, .cls-23 {
        stroke-width: 2px;
      }

      .cls-6, .cls-12, .cls-19, .cls-24 {
        stroke: blue;
      }

      .cls-45 {
        clip-path: url(#clippath-100);
      }

      .cls-46 {
        clip-path: url(#clippath-18);
      }

      .cls-47 {
        clip-path: url(#clippath-47);
      }

      .cls-48 {
        clip-path: url(#clippath-4);
      }

      .cls-49 {
        clip-path: url(#clippath-71);
      }

      .cls-50 {
        clip-path: url(#clippath-22);
      }

      .cls-51 {
        clip-path: url(#clippath-103);
      }

      .cls-52 {
        clip-path: url(#clippath-23);
      }

      .cls-7 {
        opacity: .5;
        stroke: #b0b0b0;
        stroke-dasharray: 2.96 1.28;
      }

      .cls-7, .cls-18, .cls-20 {
        stroke-width: .8px;
      }

      .cls-8, .cls-16, .cls-26, .cls-28 {
        stroke: green;
      }

      .cls-53 {
        clip-path: url(#clippath-82);
      }

      .cls-54 {
        clip-path: url(#clippath-54);
      }

      .cls-55 {
        clip-path: url(#clippath-66);
      }

      .cls-56 {
        clip-path: url(#clippath-114);
      }

      .cls-57 {
        clip-path: url(#clippath-9);
      }

      .cls-58 {
        clip-path: url(#clippath-102);
      }

      .cls-59 {
        clip-path: url(#clippath-70);
      }

      .cls-60 {
        clip-path: url(#clippath-10);
      }

      .cls-61 {
        clip-path: url(#clippath-42);
      }

      .cls-62 {
        clip-path: url(#clippath-59);
      }

      .cls-63, .cls-30 {
        fill: #fff;
      }

      .cls-10, .cls-13, .cls-17, .cls-24, .cls-25, .cls-28 {
        stroke-dasharray: 5.55 2.4;
      }

      .cls-10, .cls-23, .cls-27, .cls-29 {
        stroke: #bfbf00;
      }

      .cls-64 {
        clip-path: url(#clippath-43);
      }

      .cls-65 {
        clip-path: url(#clippath-64);
      }

      .cls-66 {
        clip-path: url(#clippath-101);
      }

      .cls-11, .cls-13, .cls-21, .cls-22 {
        stroke: red;
      }

      .cls-67 {
        clip-path: url(#clippath-25);
      }

      .cls-68 {
        clip-path: url(#clippath-27);
      }

      .cls-69 {
        clip-path: url(#clippath-109);
      }

      .cls-70 {
        clip-path: url(#clippath-60);
      }

      .cls-71 {
        clip-path: url(#clippath-113);
      }

      .cls-72 {
        clip-path: url(#clippath-93);
      }

      .cls-73 {
        clip-path: url(#clippath-11);
      }

      .cls-74 {
        clip-path: url(#clippath-57);
      }

      .cls-75 {
        clip-path: url(#clippath-88);
      }

      .cls-76 {
        clip-path: url(#clippath-85);
      }

      .cls-77 {
        clip-path: url(#clippath-111);
      }

      .cls-78 {
        clip-path: url(#clippath-105);
      }

      .cls-79 {
        clip-path: url(#clippath-36);
      }

      .cls-80 {
        clip-path: url(#clippath-92);
      }

      .cls-81 {
        clip-path: url(#clippath-35);
      }

      .cls-82 {
        clip-path: url(#clippath-98);
      }

      .cls-83 {
        clip-path: url(#clippath-48);
      }

      .cls-84 {
        clip-path: url(#clippath-104);
      }

      .cls-85 {
        clip-path: url(#clippath-28);
      }

      .cls-86 {
        clip-path: url(#clippath-1);
      }

      .cls-87 {
        clip-path: url(#clippath-56);
      }

      .cls-88 {
        clip-path: url(#clippath-108);
      }

      .cls-89 {
        clip-path: url(#clippath-90);
      }

      .cls-90 {
        clip-path: url(#clippath-45);
      }

      .cls-91 {
        clip-path: url(#clippath-110);
      }

      .cls-92 {
        clip-path: url(#clippath-99);
      }

      .cls-93 {
        clip-path: url(#clippath-89);
      }

      .cls-94 {
        clip-path: url(#clippath-46);
      }

      .cls-95 {
        clip-path: url(#clippath-40);
      }

      .cls-96 {
        clip-path: url(#clippath-96);
      }

      .cls-97 {
        clip-path: url(#clippath-5);
      }

      .cls-98 {
        clip-path: url(#clippath-20);
      }

      .cls-99 {
        clip-path: url(#clippath-95);
      }

      .cls-100 {
        clip-path: url(#clippath-8);
      }

      .cls-101 {
        clip-path: url(#clippath-52);
      }

      .cls-102 {
        clip-path: url(#clippath-41);
      }

      .cls-103 {
        clip-path: url(#clippath-67);
      }

      .cls-104 {
        clip-path: url(#clippath-74);
      }

      .cls-105 {
        clip-path: url(#clippath-3);
      }

      .cls-106 {
        clip-path: url(#clippath-26);
      }

      .cls-107 {
        clip-path: url(#clippath-91);
      }

      .cls-108 {
        clip-path: url(#clippath-12);
      }

      .cls-109 {
        clip-path: url(#clippath-50);
      }

      .cls-110 {
        clip-path: url(#clippath-14);
      }

      .cls-111 {
        clip-path: url(#clippath-97);
      }

      .cls-112 {
        clip-path: url(#clippath-30);
      }

      .cls-113 {
        clip-path: url(#clippath-112);
      }

      .cls-114 {
        clip-path: url(#clippath-77);
      }

      .cls-115 {
        clip-path: url(#clippath-19);
      }

      .cls-116 {
        clip-path: url(#clippath-78);
      }

      .cls-117 {
        clip-path: url(#clippath-72);
      }

      .cls-118 {
        clip-path: url(#clippath-84);
      }

      .cls-119 {
        clip-path: url(#clippath-32);
      }

      .cls-120 {
        clip-path: url(#clippath-55);
      }

      .cls-121 {
        clip-path: url(#clippath-73);
      }

      .cls-122 {
        clip-path: url(#clippath-53);
      }

      .cls-123 {
        clip-path: url(#clippath-39);
      }

      .cls-124 {
        clip-path: url(#clippath-81);
      }

      .cls-125 {
        clip-path: url(#clippath-106);
      }

      .cls-126 {
        clip-path: url(#clippath-16);
      }

      .cls-127 {
        clip-path: url(#clippath-2);
      }

      .cls-128 {
        clip-path: url(#clippath-29);
      }

      .cls-129 {
        clip-path: url(#clippath-49);
      }

      .cls-130 {
        clip-path: url(#clippath-37);
      }

      .cls-131 {
        clip-path: url(#clippath-58);
      }

      .cls-132 {
        clip-path: url(#clippath-13);
      }

      .cls-133 {
        clip-path: url(#clippath-86);
      }

      .cls-134 {
        clip-path: url(#clippath-63);
      }

      .cls-135 {
        clip-path: url(#clippath-24);
      }

      .cls-136 {
        clip-path: url(#clippath-94);
      }

      .cls-137 {
        clip-path: url(#clippath);
      }

      .cls-138 {
        clip-path: url(#clippath-87);
      }

      .cls-139 {
        clip-path: url(#clippath-68);
      }

      .cls-140 {
        clip-path: url(#clippath-83);
      }

      .cls-141 {
        clip-path: url(#clippath-65);
      }

      .cls-142 {
        clip-path: url(#clippath-44);
      }

      .cls-143 {
        clip-path: url(#clippath-62);
      }

      .cls-144 {
        clip-path: url(#clippath-69);
      }
    </style>
    <clipPath id="clippath">
      <rect class="cls-14" x="48.72" y="18.12" width="372.19" height="277.2"/>
    </clipPath>
    <clipPath id="clippath-1">
      <rect class="cls-14" x="48.72" y="18.12" width="372.19" height="277.2"/>
    </clipPath>
    <clipPath id="clippath-2">
      <rect class="cls-14" x="48.72" y="18.12" width="372.19" height="277.2"/>
    </clipPath>
    <clipPath id="clippath-3">
      <rect class="cls-14" x="48.72" y="18.12" width="372.19" height="277.2"/>
    </clipPath>
    <clipPath id="clippath-4">
      <rect class="cls-14" x="48.72" y="18.12" width="372.19" height="277.2"/>
    </clipPath>
    <clipPath id="clippath-5">
      <rect class="cls-14" x="48.72" y="18.12" width="372.19" height="277.2"/>
    </clipPath>
    <clipPath id="clippath-6">
      <rect class="cls-14" x="48.72" y="18.12" width="372.19" height="277.2"/>
    </clipPath>
    <clipPath id="clippath-7">
      <rect class="cls-14" x="48.72" y="18.12" width="372.19" height="277.2"/>
    </clipPath>
    <clipPath id="clippath-8">
      <rect class="cls-14" x="48.72" y="18.12" width="372.19" height="277.2"/>
    </clipPath>
    <clipPath id="clippath-9">
      <rect class="cls-14" x="297.37" y="308.89" width="42.22" height="25.44"/>
    </clipPath>
    <clipPath id="clippath-10">
      <rect class="cls-14" x="48.72" y="18.12" width="372.19" height="277.2"/>
    </clipPath>
    <clipPath id="clippath-11">
      <rect class="cls-14" x="48.72" y="18.12" width="372.19" height="277.2"/>
    </clipPath>
    <clipPath id="clippath-12">
      <rect class="cls-14" x="48.72" y="18.12" width="372.19" height="277.2"/>
    </clipPath>
    <clipPath id="clippath-13">
      <rect class="cls-14" x="48.72" y="18.12" width="372.19" height="277.2"/>
    </clipPath>
    <clipPath id="clippath-14">
      <rect class="cls-14" x="48.72" y="18.12" width="372.19" height="277.2"/>
    </clipPath>
    <clipPath id="clippath-15">
      <rect class="cls-14" x="48.72" y="18.12" width="372.19" height="277.2"/>
    </clipPath>
    <clipPath id="clippath-16">
      <rect class="cls-14" x="57.63" y="272.7" width="16" height="16"/>
    </clipPath>
    <clipPath id="clippath-17">
      <rect class="cls-14" x="99.93" y="273.69" width="16" height="16"/>
    </clipPath>
    <clipPath id="clippath-18">
      <rect class="cls-14" x="142.22" y="273.84" width="16" height="16"/>
    </clipPath>
    <clipPath id="clippath-19">
      <rect class="cls-14" x="184.51" y="273.93" width="16" height="16"/>
    </clipPath>
    <clipPath id="clippath-20">
      <rect class="cls-14" x="226.81" y="273.97" width="16" height="16"/>
    </clipPath>
    <clipPath id="clippath-21">
      <rect class="cls-14" x="269.1" y="274" width="16" height="16"/>
    </clipPath>
    <clipPath id="clippath-22">
      <rect class="cls-14" x="311.4" y="274.06" width="16" height="16"/>
    </clipPath>
    <clipPath id="clippath-23">
      <rect class="cls-14" x="353.69" y="274.1" width="16" height="16"/>
    </clipPath>
    <clipPath id="clippath-24">
      <rect class="cls-14" x="395.98" y="274.16" width="16" height="16"/>
    </clipPath>
    <clipPath id="clippath-25">
      <rect class="cls-14" x="48.72" y="18.12" width="372.19" height="277.2"/>
    </clipPath>
    <clipPath id="clippath-26">
      <rect class="cls-14" x="57.63" y="274.72" width="16" height="16"/>
    </clipPath>
    <clipPath id="clippath-27">
      <rect class="cls-14" x="99.93" y="270.51" width="16" height="16"/>
    </clipPath>
    <clipPath id="clippath-28">
      <rect class="cls-14" x="142.22" y="269.11" width="16" height="16"/>
    </clipPath>
    <clipPath id="clippath-29">
      <rect class="cls-14" x="184.51" y="267.98" width="16" height="16"/>
    </clipPath>
    <clipPath id="clippath-30">
      <rect class="cls-14" x="226.81" y="266.91" width="16" height="16"/>
    </clipPath>
    <clipPath id="clippath-31">
      <rect class="cls-14" x="269.1" y="266.11" width="16" height="16"/>
    </clipPath>
    <clipPath id="clippath-32">
      <rect class="cls-14" x="311.4" y="265.9" width="16" height="16"/>
    </clipPath>
    <clipPath id="clippath-33">
      <rect class="cls-14" x="353.69" y="265.59" width="16" height="16"/>
    </clipPath>
    <clipPath id="clippath-34">
      <rect class="cls-14" x="395.98" y="265.25" width="16" height="16"/>
    </clipPath>
    <clipPath id="clippath-35">
      <rect class="cls-14" x="48.72" y="18.12" width="372.19" height="277.2"/>
    </clipPath>
    <clipPath id="clippath-36">
      <rect class="cls-14" x="57.63" y="273.91" width="16" height="16"/>
    </clipPath>
    <clipPath id="clippath-37">
      <rect class="cls-14" x="99.93" y="274.21" width="16" height="16"/>
    </clipPath>
    <clipPath id="clippath-38">
      <rect class="cls-14" x="142.22" y="274.25" width="16" height="16"/>
    </clipPath>
    <clipPath id="clippath-39">
      <rect class="cls-14" x="184.51" y="274.24" width="16" height="16"/>
    </clipPath>
    <clipPath id="clippath-40">
      <rect class="cls-14" x="226.81" y="274.22" width="16" height="16"/>
    </clipPath>
    <clipPath id="clippath-41">
      <rect class="cls-14" x="269.1" y="274.22" width="16" height="16"/>
    </clipPath>
    <clipPath id="clippath-42">
      <rect class="cls-14" x="311.4" y="274.21" width="16" height="16"/>
    </clipPath>
    <clipPath id="clippath-43">
      <rect class="cls-14" x="353.69" y="274.2" width="16" height="16"/>
    </clipPath>
    <clipPath id="clippath-44">
      <rect class="cls-14" x="395.98" y="274.2" width="16" height="16"/>
    </clipPath>
    <clipPath id="clippath-45">
      <rect class="cls-14" x="48.72" y="18.12" width="372.19" height="277.2"/>
    </clipPath>
    <clipPath id="clippath-46">
      <rect class="cls-14" x="57.63" y="274.72" width="16" height="16"/>
    </clipPath>
    <clipPath id="clippath-47">
      <rect class="cls-14" x="99.93" y="271.42" width="16" height="16"/>
    </clipPath>
    <clipPath id="clippath-48">
      <rect class="cls-14" x="142.22" y="269.57" width="16" height="16"/>
    </clipPath>
    <clipPath id="clippath-49">
      <rect class="cls-14" x="184.51" y="268.11" width="16" height="16"/>
    </clipPath>
    <clipPath id="clippath-50">
      <rect class="cls-14" x="226.81" y="266.95" width="16" height="16"/>
    </clipPath>
    <clipPath id="clippath-51">
      <rect class="cls-14" x="269.1" y="265.97" width="16" height="16"/>
    </clipPath>
    <clipPath id="clippath-52">
      <rect class="cls-14" x="311.4" y="265.12" width="16" height="16"/>
    </clipPath>
    <clipPath id="clippath-53">
      <rect class="cls-14" x="353.69" y="264.48" width="16" height="16"/>
    </clipPath>
    <clipPath id="clippath-54">
      <rect class="cls-14" x="395.98" y="263.89" width="16" height="16"/>
    </clipPath>
    <clipPath id="clippath-55">
      <rect class="cls-14" x="48.72" y="18.12" width="372.19" height="277.2"/>
    </clipPath>
    <clipPath id="clippath-56">
      <rect class="cls-14" x="57.63" y="232.16" width="16" height="16"/>
    </clipPath>
    <clipPath id="clippath-57">
      <rect class="cls-14" x="99.93" y="240.24" width="16" height="16"/>
    </clipPath>
    <clipPath id="clippath-58">
      <rect class="cls-14" x="142.22" y="244.68" width="16" height="16"/>
    </clipPath>
    <clipPath id="clippath-59">
      <rect class="cls-14" x="184.51" y="247.46" width="16" height="16"/>
    </clipPath>
    <clipPath id="clippath-60">
      <rect class="cls-14" x="226.81" y="250.17" width="16" height="16"/>
    </clipPath>
    <clipPath id="clippath-61">
      <rect class="cls-14" x="269.1" y="251.87" width="16" height="16"/>
    </clipPath>
    <clipPath id="clippath-62">
      <rect class="cls-14" x="311.4" y="253.14" width="16" height="16"/>
    </clipPath>
    <clipPath id="clippath-63">
      <rect class="cls-14" x="353.69" y="253.69" width="16" height="16"/>
    </clipPath>
    <clipPath id="clippath-64">
      <rect class="cls-14" x="395.98" y="254.23" width="16" height="16"/>
    </clipPath>
    <clipPath id="clippath-65">
      <rect class="cls-14" x="48.72" y="18.12" width="372.19" height="277.2"/>
    </clipPath>
    <clipPath id="clippath-66">
      <rect class="cls-14" x="57.63" y="274.72" width="16" height="16"/>
    </clipPath>
    <clipPath id="clippath-67">
      <rect class="cls-14" x="99.93" y="228.38" width="16" height="16"/>
    </clipPath>
    <clipPath id="clippath-68">
      <rect class="cls-14" x="142.22" y="228.38" width="16" height="16"/>
    </clipPath>
    <clipPath id="clippath-69">
      <rect class="cls-14" x="184.51" y="229.07" width="16" height="16"/>
    </clipPath>
    <clipPath id="clippath-70">
      <rect class="cls-14" x="226.81" y="229" width="16" height="16"/>
    </clipPath>
    <clipPath id="clippath-71">
      <rect class="cls-14" x="269.1" y="228.87" width="16" height="16"/>
    </clipPath>
    <clipPath id="clippath-72">
      <rect class="cls-14" x="311.4" y="228.84" width="16" height="16"/>
    </clipPath>
    <clipPath id="clippath-73">
      <rect class="cls-14" x="353.69" y="228.9" width="16" height="16"/>
    </clipPath>
    <clipPath id="clippath-74">
      <rect class="cls-14" x="395.98" y="229.2" width="16" height="16"/>
    </clipPath>
    <clipPath id="clippath-75">
      <rect class="cls-14" x="48.72" y="18.12" width="372.19" height="277.2"/>
    </clipPath>
    <clipPath id="clippath-76">
      <rect class="cls-14" x="58.09" y="21.95" width="15.09" height="18.49"/>
    </clipPath>
    <clipPath id="clippath-77">
      <rect class="cls-14" x="100.38" y="53.98" width="15.09" height="18.49"/>
    </clipPath>
    <clipPath id="clippath-78">
      <rect class="cls-14" x="142.68" y="70.45" width="15.09" height="18.49"/>
    </clipPath>
    <clipPath id="clippath-79">
      <rect class="cls-14" x="184.97" y="82.79" width="15.09" height="18.49"/>
    </clipPath>
    <clipPath id="clippath-80">
      <rect class="cls-14" x="227.26" y="92.89" width="15.09" height="18.49"/>
    </clipPath>
    <clipPath id="clippath-81">
      <rect class="cls-14" x="269.56" y="101.76" width="15.09" height="18.49"/>
    </clipPath>
    <clipPath id="clippath-82">
      <rect class="cls-14" x="311.85" y="109.32" width="15.09" height="18.49"/>
    </clipPath>
    <clipPath id="clippath-83">
      <rect class="cls-14" x="354.14" y="115.91" width="15.09" height="18.49"/>
    </clipPath>
    <clipPath id="clippath-84">
      <rect class="cls-14" x="396.44" y="121.85" width="15.09" height="18.49"/>
    </clipPath>
    <clipPath id="clippath-85">
      <rect class="cls-14" x="48.72" y="18.12" width="372.19" height="277.2"/>
    </clipPath>
    <clipPath id="clippath-86">
      <rect class="cls-14" x="58.09" y="273.48" width="15.09" height="18.49"/>
    </clipPath>
    <clipPath id="clippath-87">
      <rect class="cls-14" x="100.38" y="55.04" width="15.09" height="18.49"/>
    </clipPath>
    <clipPath id="clippath-88">
      <rect class="cls-14" x="142.68" y="72.61" width="15.09" height="18.49"/>
    </clipPath>
    <clipPath id="clippath-89">
      <rect class="cls-14" x="184.97" y="86.04" width="15.09" height="18.49"/>
    </clipPath>
    <clipPath id="clippath-90">
      <rect class="cls-14" x="227.26" y="97.24" width="15.09" height="18.49"/>
    </clipPath>
    <clipPath id="clippath-91">
      <rect class="cls-14" x="269.56" y="107.23" width="15.09" height="18.49"/>
    </clipPath>
    <clipPath id="clippath-92">
      <rect class="cls-14" x="311.85" y="115.91" width="15.09" height="18.49"/>
    </clipPath>
    <clipPath id="clippath-93">
      <rect class="cls-14" x="354.14" y="123.62" width="15.09" height="18.49"/>
    </clipPath>
    <clipPath id="clippath-94">
      <rect class="cls-14" x="396.44" y="130.7" width="15.09" height="18.49"/>
    </clipPath>
    <clipPath id="clippath-95">
      <rect class="cls-14" x="48.72" y="18.12" width="372.19" height="277.2"/>
    </clipPath>
    <clipPath id="clippath-96">
      <rect class="cls-14" x="57.63" y="22.72" width="16" height="16"/>
    </clipPath>
    <clipPath id="clippath-97">
      <rect class="cls-14" x="99.93" y="168.76" width="16" height="16"/>
    </clipPath>
    <clipPath id="clippath-98">
      <rect class="cls-14" x="142.22" y="178.32" width="16" height="16"/>
    </clipPath>
    <clipPath id="clippath-99">
      <rect class="cls-14" x="184.51" y="185.31" width="16" height="16"/>
    </clipPath>
    <clipPath id="clippath-100">
      <rect class="cls-14" x="226.81" y="191.07" width="16" height="16"/>
    </clipPath>
    <clipPath id="clippath-101">
      <rect class="cls-14" x="269.1" y="195.76" width="16" height="16"/>
    </clipPath>
    <clipPath id="clippath-102">
      <rect class="cls-14" x="311.4" y="199.8" width="16" height="16"/>
    </clipPath>
    <clipPath id="clippath-103">
      <rect class="cls-14" x="353.69" y="203.29" width="16" height="16"/>
    </clipPath>
    <clipPath id="clippath-104">
      <rect class="cls-14" x="395.98" y="206.19" width="16" height="16"/>
    </clipPath>
    <clipPath id="clippath-105">
      <rect class="cls-14" x="48.72" y="18.12" width="372.19" height="277.2"/>
    </clipPath>
    <clipPath id="clippath-106">
      <rect class="cls-14" x="57.63" y="274.72" width="16" height="16"/>
    </clipPath>
    <clipPath id="clippath-107">
      <rect class="cls-14" x="99.93" y="169.4" width="16" height="16"/>
    </clipPath>
    <clipPath id="clippath-108">
      <rect class="cls-14" x="142.22" y="180.23" width="16" height="16"/>
    </clipPath>
    <clipPath id="clippath-109">
      <rect class="cls-14" x="184.51" y="188.27" width="16" height="16"/>
    </clipPath>
    <clipPath id="clippath-110">
      <rect class="cls-14" x="226.81" y="194.96" width="16" height="16"/>
    </clipPath>
    <clipPath id="clippath-111">
      <rect class="cls-14" x="269.1" y="200.8" width="16" height="16"/>
    </clipPath>
    <clipPath id="clippath-112">
      <rect class="cls-14" x="311.4" y="205.8" width="16" height="16"/>
    </clipPath>
    <clipPath id="clippath-113">
      <rect class="cls-14" x="353.69" y="210.07" width="16" height="16"/>
    </clipPath>
    <clipPath id="clippath-114">
      <rect class="cls-14" x="395.98" y="214.31" width="16" height="16"/>
    </clipPath>
  </defs>
  <!-- Generator: Adobe Illustrator 28.6.0, SVG Export Plug-In . SVG Version: 1.2.0 Build 709)  -->
  <g>
    <g id="Layer_1">
      <rect class="cls-63" width="428.1" height="339.19"/>
      <rect class="cls-63" x="48.72" y="18.12" width="372.19" height="277.2"/>
      <g class="cls-137">
        <line class="cls-7" x1="65.63" y1="295.32" x2="65.63" y2="18.12"/>
      </g>
      <line x1="65.63" y1="295.32" x2="65.63" y2="298.82"/>
      <line class="cls-20" x1="65.63" y1="295.32" x2="65.63" y2="298.82"/>
      <path d="M65.63,302.5c.81,0,1.43.33,1.87.97.43.65.65,1.59.65,2.81s-.22,2.17-.65,2.81c-.44.64-1.06.96-1.88.96s-1.44-.32-1.87-.96c-.43-.64-.64-1.58-.64-2.81s.21-2.16.64-2.81c.43-.64,1.06-.97,1.88-.97ZM65.63,303.28c-.51,0-.89.25-1.15.75s-.38,1.25-.38,2.25.12,1.75.38,2.25.64.75,1.15.75.89-.25,1.15-.75c.25-.5.38-1.25.38-2.25s-.13-1.75-.38-2.25c-.26-.5-.64-.75-1.15-.75Z"/>
      <g class="cls-86">
        <line class="cls-7" x1="107.93" y1="295.32" x2="107.93" y2="18.12"/>
      </g>
      <line x1="107.93" y1="295.32" x2="107.93" y2="298.82"/>
      <line class="cls-20" x1="107.93" y1="295.32" x2="107.93" y2="298.82"/>
      <polygon points="105.99 309.09 107.6 309.09 107.6 303.53 105.85 303.88 105.85 302.98 107.59 302.63 108.58 302.63 108.58 309.09 110.19 309.09 110.19 309.92 105.99 309.92 105.99 309.09"/>
      <g class="cls-127">
        <line class="cls-7" x1="150.22" y1="295.32" x2="150.22" y2="18.12"/>
      </g>
      <line x1="150.22" y1="295.32" x2="150.22" y2="298.82"/>
      <line class="cls-20" x1="150.22" y1="295.32" x2="150.22" y2="298.82"/>
      <path d="M148.96,309.09h3.44v.83h-4.63v-.83c.37-.38.88-.9,1.53-1.56.64-.65,1.05-1.07,1.22-1.26.32-.35.54-.65.66-.9.12-.24.19-.49.19-.73,0-.38-.14-.7-.41-.94-.27-.24-.62-.37-1.06-.37-.31,0-.64.06-.98.16-.34.11-.71.27-1.1.49v-1c.4-.16.77-.28,1.11-.36.34-.08.66-.12.95-.12.75,0,1.35.19,1.8.57.45.38.68.88.68,1.51,0,.3-.06.59-.17.85-.11.27-.31.59-.61.95-.08.1-.34.37-.78.82-.44.45-1.05,1.08-1.84,1.89Z"/>
      <g class="cls-105">
        <line class="cls-7" x1="192.51" y1="295.32" x2="192.51" y2="18.12"/>
      </g>
      <line x1="192.51" y1="295.32" x2="192.51" y2="298.82"/>
      <line class="cls-20" x1="192.51" y1="295.32" x2="192.51" y2="298.82"/>
      <path d="M193.4,305.99c.47.1.84.31,1.1.63.26.32.4.72.4,1.18,0,.72-.25,1.28-.74,1.67-.5.39-1.2.58-2.11.58-.31,0-.63-.03-.95-.09-.32-.05-.66-.14-1-.26v-.95c.27.16.57.28.9.36.32.08.66.12,1.02.12.62,0,1.09-.12,1.41-.36.32-.24.49-.6.49-1.07,0-.42-.15-.76-.45-1-.3-.24-.72-.37-1.26-.37h-.85v-.81h.89c.48,0,.85-.09,1.11-.29.26-.19.39-.47.39-.84s-.14-.66-.4-.86c-.27-.2-.65-.3-1.14-.3-.27,0-.56.03-.87.09s-.65.15-1.02.27v-.88c.37-.1.72-.18,1.05-.23.32-.05.63-.08.93-.08.74,0,1.33.17,1.77.51s.66.8.66,1.38c0,.4-.12.74-.35,1.02-.23.28-.56.48-.98.58Z"/>
      <g class="cls-48">
        <line class="cls-7" x1="234.81" y1="295.32" x2="234.81" y2="18.12"/>
      </g>
      <line x1="234.81" y1="295.32" x2="234.81" y2="298.82"/>
      <line class="cls-20" x1="234.81" y1="295.32" x2="234.81" y2="298.82"/>
      <path d="M235.15,302.63h1.24v4.75h1.04v.82h-1.04v1.72h-.98v-1.72h-3.29v-.95l3.03-4.62ZM235.41,303.49l-2.49,3.89h2.49v-3.89Z"/>
      <g class="cls-97">
        <line class="cls-7" x1="277.1" y1="295.32" x2="277.1" y2="18.12"/>
      </g>
      <line x1="277.1" y1="295.32" x2="277.1" y2="298.82"/>
      <line class="cls-20" x1="277.1" y1="295.32" x2="277.1" y2="298.82"/>
      <path d="M275,302.63h3.87v.83h-2.97v1.79c.14-.05.29-.09.43-.11.14-.02.29-.04.43-.04.81,0,1.45.23,1.93.67.48.45.72,1.05.72,1.81s-.25,1.4-.74,1.83-1.18.64-2.06.64c-.31,0-.62-.03-.94-.07-.32-.05-.64-.12-.98-.23v-.99c.29.16.59.28.91.36.31.08.64.11.99.11.56,0,1.01-.14,1.34-.44.32-.3.49-.7.49-1.21s-.17-.9-.49-1.2c-.33-.3-.78-.45-1.34-.45-.26,0-.53.03-.79.09-.26.06-.53.15-.8.27v-3.66Z"/>
      <g class="cls-35">
        <line class="cls-7" x1="319.4" y1="295.32" x2="319.4" y2="18.12"/>
      </g>
      <line x1="319.4" y1="295.32" x2="319.4" y2="298.82"/>
      <line class="cls-20" x1="319.4" y1="295.32" x2="319.4" y2="298.82"/>
      <path d="M321.48,302.79v.9c-.25-.12-.5-.21-.75-.27-.26-.06-.51-.09-.75-.09-.66,0-1.16.22-1.5.66s-.54,1.11-.58,1.99c.19-.28.43-.5.72-.65s.61-.23.96-.23c.73,0,1.31.23,1.73.67.42.44.64,1.05.64,1.81s-.23,1.35-.67,1.8c-.44.45-1.03.67-1.76.67-.84,0-1.49-.32-1.93-.96-.45-.64-.67-1.58-.67-2.81,0-1.15.27-2.07.82-2.75.54-.68,1.28-1.03,2.2-1.03.24,0,.49.03.75.07.25.05.51.12.79.22ZM319.52,305.88c-.44,0-.79.16-1.05.46-.26.3-.39.72-.39,1.24s.13.95.39,1.25.61.45,1.05.45.79-.15,1.05-.45c.26-.3.39-.72.39-1.25s-.13-.94-.39-1.24c-.26-.3-.61-.46-1.05-.46Z"/>
      <g class="cls-36">
        <line class="cls-7" x1="361.69" y1="295.32" x2="361.69" y2="18.12"/>
      </g>
      <line x1="361.69" y1="295.32" x2="361.69" y2="298.82"/>
      <line class="cls-20" x1="361.69" y1="295.32" x2="361.69" y2="298.82"/>
      <polygon points="359.33 302.63 364.02 302.63 364.02 303.05 361.37 309.92 360.34 309.92 362.83 303.46 359.33 303.46 359.33 302.63"/>
      <g class="cls-100">
        <line class="cls-7" x1="403.98" y1="295.32" x2="403.98" y2="18.12"/>
      </g>
      <line x1="403.98" y1="295.32" x2="403.98" y2="298.82"/>
      <line class="cls-20" x1="403.98" y1="295.32" x2="403.98" y2="298.82"/>
      <path d="M402.63,304.48c0,.38.11.68.35.89.24.21.57.31,1,.31s.75-.1.99-.31c.24-.21.36-.51.36-.89s-.12-.67-.36-.88c-.24-.21-.57-.32-.99-.32s-.76.11-1,.32c-.24.21-.35.5-.35.88ZM402.99,306.04c-.42-.1-.75-.3-.99-.59-.24-.29-.35-.64-.35-1.06,0-.58.2-1.04.62-1.38.41-.34.98-.51,1.71-.51s1.29.17,1.71.51c.41.34.62.8.62,1.38,0,.42-.12.77-.36,1.06-.24.29-.56.49-.98.59.47.11.84.33,1.11.65.26.32.4.72.4,1.18,0,.71-.22,1.25-.65,1.62-.44.38-1.06.56-1.86.56s-1.42-.18-1.85-.56c-.43-.37-.64-.91-.64-1.62,0-.46.13-.86.4-1.18.26-.32.63-.54,1.11-.65ZM403.98,306.46c-.47,0-.84.13-1.11.38-.27.25-.4.59-.4,1.03s.13.79.4,1.04c.27.25.64.37,1.11.37s.83-.12,1.1-.38c.27-.25.41-.59.41-1.03s-.14-.78-.4-1.03c-.27-.25-.64-.38-1.11-.38Z"/>
      <path d="M142.1,316.45h1.68l4.17,10.94h-1.54l-.99-2.81h-4.93l-.99,2.81h-1.56l4.17-10.94ZM142.94,317.9l-2.01,5.44h4.02l-2.01-5.44Z"/>
      <path d="M150.29,323.29c0,.99.19,1.77.6,2.34.4.57.96.84,1.68.84s1.27-.27,1.7-.84c.4-.57.61-1.35.61-2.34s-.21-1.75-.61-2.32c-.42-.57-.98-.86-1.7-.86s-1.27.28-1.68.86c-.41.57-.6,1.33-.6,2.32ZM154.88,320.42v-4.44h1.35v11.4h-1.35v-1.23c-.29.5-.65.86-1.08,1.08-.43.22-.94.34-1.54.34-.99,0-1.8-.39-2.43-1.17-.63-.78-.93-1.83-.93-3.12s.3-2.32.93-3.12c.63-.78,1.44-1.18,2.43-1.18.6,0,1.11.12,1.54.36s.79.6,1.08,1.08Z"/>
      <path d="M159.81,323.29c0,.99.19,1.77.6,2.34.4.57.96.84,1.68.84s1.27-.27,1.7-.84c.4-.57.61-1.35.61-2.34s-.21-1.75-.61-2.32c-.42-.57-.98-.86-1.7-.86s-1.27.28-1.68.86c-.41.57-.6,1.33-.6,2.32ZM164.4,320.42v-4.44h1.35v11.4h-1.35v-1.23c-.29.5-.65.86-1.08,1.08-.43.22-.94.34-1.54.34-.99,0-1.8-.39-2.43-1.17-.63-.78-.93-1.83-.93-3.12s.3-2.32.93-3.12c.63-.78,1.44-1.18,2.43-1.18.6,0,1.11.12,1.54.36s.79.6,1.08,1.08Z"/>
      <path d="M174.19,322.55c-.01-.73-.23-1.32-.62-1.77-.4-.44-.94-.66-1.6-.66-.75,0-1.35.22-1.8.64s-.72,1.02-.78,1.78h4.8ZM175.54,322.94v.66h-6.19c.06.93.33,1.65.84,2.13.5.48,1.18.72,2.09.72.51,0,1.02-.06,1.5-.18.48-.12.97-.32,1.46-.59v1.27c-.48.21-.98.38-1.49.47-.51.09-1.04.15-1.54.15-1.32,0-2.36-.38-3.12-1.12s-1.14-1.78-1.14-3.09.36-2.4,1.08-3.2c.72-.78,1.71-1.18,2.94-1.18,1.11,0,1.98.36,2.62,1.07.63.72.96,1.68.96,2.9Z"/>
      <path d="M178.56,323.29c0,.99.19,1.77.6,2.34.4.57.96.84,1.68.84s1.27-.27,1.7-.84c.4-.57.61-1.35.61-2.34s-.21-1.75-.61-2.32c-.42-.57-.98-.86-1.7-.86s-1.27.28-1.68.86c-.41.57-.6,1.33-.6,2.32ZM183.15,320.42v-4.44h1.35v11.4h-1.35v-1.23c-.29.5-.65.86-1.08,1.08-.43.22-.94.34-1.54.34-.99,0-1.8-.39-2.43-1.17-.63-.78-.93-1.83-.93-3.12s.3-2.32.93-3.12c.63-.78,1.44-1.18,2.43-1.18.6,0,1.11.12,1.54.36s.79.6,1.08,1.08Z"/>
      <path d="M197.95,319.49v1.26c-.39-.21-.77-.36-1.16-.47s-.76-.16-1.15-.16c-.87,0-1.56.28-2.04.84-.48.55-.72,1.33-.72,2.32s.24,1.78.72,2.34,1.17.82,2.04.82c.39,0,.76-.05,1.15-.15.39-.11.76-.27,1.16-.48v1.25c-.39.18-.78.31-1.17.39-.4.07-.84.12-1.29.12-1.23,0-2.22-.38-2.94-1.15-.74-.77-1.1-1.82-1.1-3.14s.36-2.39,1.1-3.15,1.74-1.16,3.03-1.16c.42,0,.82.05,1.21.14s.78.21,1.16.38Z"/>
      <path d="M206.71,322.7v4.68h-1.35v-1.24c-.32.51-.71.87-1.15,1.1-.45.22-1.02.34-1.68.34-.84,0-1.51-.22-2.01-.69-.49-.47-.74-1.1-.74-1.89,0-.91.3-1.61.93-2.09.62-.47,1.53-.7,2.76-.7h1.89v-.14c0-.61-.21-1.09-.61-1.44-.4-.33-.98-.51-1.71-.51-.48,0-.93.06-1.38.18-.45.12-.87.29-1.27.5v-1.25c.48-.18.96-.33,1.43-.42s.91-.15,1.36-.15c1.19,0,2.07.32,2.66.93.58.61.88,1.55.88,2.79ZM204.02,323.26c-1.1,0-1.85.13-2.26.38-.42.26-.63.68-.63,1.27,0,.48.15.87.46,1.14.32.28.75.42,1.29.42.75,0,1.35-.26,1.8-.8.45-.52.68-1.23.68-2.11v-.3h-1.33Z"/>
      <path d="M215.39,319.49v1.26c-.39-.21-.77-.36-1.16-.47s-.76-.16-1.15-.16c-.87,0-1.56.28-2.04.84-.48.55-.72,1.33-.72,2.32s.24,1.78.72,2.34,1.17.82,2.04.82c.39,0,.76-.05,1.15-.15.39-.11.76-.27,1.16-.48v1.25c-.39.18-.78.31-1.17.39-.4.07-.84.12-1.29.12-1.23,0-2.22-.38-2.94-1.15-.74-.77-1.1-1.82-1.1-3.14s.36-2.39,1.1-3.15,1.74-1.16,3.03-1.16c.42,0,.82.05,1.21.14s.78.21,1.16.38Z"/>
      <path d="M224.55,322.43v4.95h-1.35v-4.9c0-.78-.16-1.35-.46-1.74-.3-.39-.75-.58-1.35-.58-.74,0-1.31.24-1.73.7s-.63,1.09-.63,1.89v4.63h-1.35v-11.4h1.35v4.47c.32-.48.69-.85,1.14-1.09.43-.24.95-.38,1.51-.38.93,0,1.65.3,2.13.89s.74,1.44.74,2.57Z"/>
      <path d="M232.9,322.55c-.01-.73-.23-1.32-.62-1.77-.4-.44-.94-.66-1.6-.66-.75,0-1.35.22-1.8.64s-.72,1.02-.78,1.78h4.8ZM234.25,322.94v.66h-6.19c.06.93.33,1.65.84,2.13.5.48,1.18.72,2.09.72.51,0,1.02-.06,1.5-.18.48-.12.97-.32,1.46-.59v1.27c-.48.21-.98.38-1.49.47-.51.09-1.04.15-1.54.15-1.32,0-2.36-.38-3.12-1.12s-1.14-1.78-1.14-3.09.36-2.4,1.08-3.2c.72-.78,1.71-1.18,2.94-1.18,1.11,0,1.98.36,2.62,1.07.63.72.96,1.68.96,2.9Z"/>
      <path d="M247.14,319.49v1.26c-.39-.21-.77-.36-1.16-.47s-.76-.16-1.15-.16c-.87,0-1.56.28-2.04.84-.48.55-.72,1.33-.72,2.32s.24,1.78.72,2.34,1.17.82,2.04.82c.39,0,.76-.05,1.15-.15.39-.11.76-.27,1.16-.48v1.25c-.39.18-.78.31-1.17.39-.4.07-.84.12-1.29.12-1.23,0-2.22-.38-2.94-1.15-.74-.77-1.1-1.82-1.1-3.14s.36-2.39,1.1-3.15,1.74-1.16,3.03-1.16c.42,0,.82.05,1.21.14s.78.21,1.16.38Z"/>
      <path d="M255.9,322.7v4.68h-1.35v-1.24c-.32.51-.71.87-1.15,1.1-.45.22-1.02.34-1.68.34-.84,0-1.51-.22-2.01-.69-.49-.47-.74-1.1-.74-1.89,0-.91.3-1.61.93-2.09.62-.47,1.53-.7,2.76-.7h1.89v-.14c0-.61-.21-1.09-.61-1.44-.4-.33-.98-.51-1.71-.51-.48,0-.93.06-1.38.18-.45.12-.87.29-1.27.5v-1.25c.48-.18.96-.33,1.43-.42s.91-.15,1.36-.15c1.19,0,2.07.32,2.66.93.58.61.88,1.55.88,2.79ZM253.21,323.26c-1.1,0-1.85.13-2.26.38-.42.26-.63.68-.63,1.27,0,.48.15.87.46,1.14.32.28.75.42,1.29.42.75,0,1.35-.26,1.8-.8.45-.52.68-1.23.68-2.11v-.3h-1.33Z"/>
      <path d="M264.56,323.29c0-.99-.21-1.75-.61-2.32-.42-.57-.98-.86-1.68-.86s-1.28.28-1.68.86c-.42.57-.61,1.33-.61,2.32s.2,1.77.61,2.34c.4.57.96.84,1.68.84s1.26-.27,1.68-.84c.4-.57.61-1.35.61-2.34ZM259.97,326.15v4.34h-1.35v-11.31h1.35v1.24c.27-.48.63-.84,1.07-1.08s.96-.36,1.56-.36c.99,0,1.8.41,2.43,1.18.62.8.93,1.83.93,3.12s-.32,2.34-.93,3.12c-.63.78-1.44,1.17-2.43,1.17-.6,0-1.12-.12-1.56-.34-.43-.23-.8-.59-1.07-1.08Z"/>
      <path d="M274.61,322.7v4.68h-1.35v-1.24c-.32.51-.71.87-1.15,1.1-.45.22-1.02.34-1.68.34-.84,0-1.51-.22-2.01-.69s-.74-1.1-.74-1.89c0-.91.3-1.61.93-2.09.62-.47,1.53-.7,2.76-.7h1.89v-.14c0-.61-.21-1.09-.62-1.44-.4-.33-.97-.51-1.71-.51-.48,0-.93.06-1.38.18-.45.12-.87.29-1.27.5v-1.25c.48-.18.96-.33,1.42-.42.47-.09.92-.15,1.37-.15,1.18,0,2.07.32,2.65.93.58.61.88,1.55.88,2.79ZM271.93,323.26c-1.1,0-1.85.13-2.26.38-.42.26-.63.68-.63,1.27,0,.48.15.87.46,1.14.32.28.75.42,1.29.42.75,0,1.35-.26,1.8-.8.45-.52.68-1.23.68-2.11v-.3h-1.34Z"/>
      <path d="M283.29,319.49v1.26c-.39-.21-.77-.36-1.15-.47-.39-.1-.77-.16-1.15-.16-.87,0-1.56.28-2.04.84-.48.55-.72,1.33-.72,2.32s.24,1.78.72,2.34,1.17.82,2.04.82c.39,0,.76-.05,1.15-.15.39-.11.76-.27,1.15-.48v1.25c-.39.18-.78.31-1.17.39-.4.07-.84.12-1.29.12-1.23,0-2.22-.38-2.94-1.15-.74-.77-1.1-1.82-1.1-3.14s.36-2.39,1.1-3.15c.73-.76,1.74-1.16,3.03-1.16.42,0,.82.05,1.21.14.39.09.78.21,1.15.38Z"/>
      <path d="M285.63,315.98h1.35v1.71h-1.35v-1.71ZM285.63,319.18h1.35v8.2h-1.35v-8.2Z"/>
      <path d="M291.13,316.85v2.33h2.77v1.05h-2.77v4.45c0,.67.09,1.11.27,1.29.18.19.55.28,1.12.28h1.38v1.12h-1.38c-1.05,0-1.77-.19-2.16-.59-.39-.39-.59-1.1-.59-2.11v-4.45h-.99v-1.05h.99v-2.33h1.35Z"/>
      <path d="M299.1,328.13c-.39.96-.76,1.61-1.12,1.9-.36.3-.84.45-1.44.45h-1.08v-1.12h.8c.36,0,.64-.09.85-.27.21-.18.43-.59.69-1.24l.24-.6-3.32-8.07h1.42l2.57,6.42,2.57-6.42h1.42l-3.6,8.95Z"/>
      <polygon points="304.9 325.52 306.45 325.52 306.45 326.78 305.25 329.11 304.3 329.11 304.9 326.78 304.9 325.52"/>
      <polygon points="325.46 316.45 326.95 316.45 325.07 326.15 330.4 326.15 330.16 327.38 323.35 327.38 325.46 316.45"/>
      <g class="cls-57">
        <path d="M312.8,327.38l4.17-10.93h1.68l4.17,10.93h-10.02ZM317.81,317.9l-3,8.25h6l-3-8.25Z"/>
      </g>
      <g class="cls-60">
        <line class="cls-7" x1="48.72" y1="282.72" x2="420.9" y2="282.72"/>
      </g>
      <line x1="48.72" y1="282.72" x2="45.22" y2="282.72"/>
      <line class="cls-20" x1="48.72" y1="282.72" x2="45.22" y2="282.72"/>
      <path d="M28.9,278.52c.81,0,1.43.33,1.87.97.43.65.65,1.59.65,2.81s-.22,2.17-.65,2.81c-.44.64-1.06.96-1.88.96s-1.44-.32-1.87-.96c-.43-.64-.64-1.58-.64-2.81s.21-2.16.64-2.81c.43-.64,1.06-.97,1.88-.97ZM28.9,279.3c-.51,0-.89.25-1.15.75s-.38,1.25-.38,2.25.12,1.75.38,2.25.64.75,1.15.75.89-.25,1.15-.75c.25-.5.38-1.25.38-2.25s-.13-1.75-.38-2.25c-.26-.5-.64-.75-1.15-.75Z"/>
      <rect x="33.15" y="284.7" width="1.03" height="1.24"/>
      <path d="M38.44,278.52c.81,0,1.43.33,1.87.97.43.65.65,1.59.65,2.81s-.22,2.17-.65,2.81c-.44.64-1.06.96-1.88.96s-1.44-.32-1.87-.96c-.43-.64-.64-1.58-.64-2.81s.21-2.16.64-2.81c.43-.64,1.06-.97,1.88-.97ZM38.44,279.3c-.51,0-.89.25-1.15.75-.26.5-.38,1.25-.38,2.25s.12,1.75.38,2.25c.26.5.64.75,1.15.75s.89-.25,1.15-.75c.25-.5.38-1.25.38-2.25s-.13-1.75-.38-2.25c-.26-.5-.64-.75-1.15-.75Z"/>
      <g class="cls-73">
        <line class="cls-7" x1="48.72" y1="221.76" x2="420.9" y2="221.76"/>
      </g>
      <line x1="48.72" y1="221.76" x2="45.22" y2="221.76"/>
      <line class="cls-20" x1="48.72" y1="221.76" x2="45.22" y2="221.76"/>
      <path d="M28.9,217.56c.81,0,1.43.33,1.87.97.43.65.65,1.59.65,2.81s-.22,2.17-.65,2.81c-.44.64-1.06.96-1.88.96s-1.44-.32-1.87-.96c-.43-.64-.64-1.58-.64-2.81s.21-2.16.64-2.81c.43-.64,1.06-.97,1.88-.97ZM28.9,218.34c-.51,0-.89.25-1.15.75s-.38,1.25-.38,2.25.12,1.75.38,2.25.64.75,1.15.75.89-.25,1.15-.75c.25-.5.38-1.25.38-2.25s-.13-1.75-.38-2.25c-.26-.5-.64-.75-1.15-.75Z"/>
      <rect x="33.15" y="223.74" width="1.03" height="1.24"/>
      <path d="M36.34,217.69h3.87v.83h-2.97v1.79c.14-.05.29-.09.43-.11.14-.02.29-.04.43-.04.81,0,1.45.23,1.93.67.48.45.72,1.05.72,1.81s-.25,1.4-.74,1.83-1.18.64-2.06.64c-.31,0-.62-.03-.94-.07-.32-.05-.64-.12-.98-.23v-.99c.29.16.59.28.91.36.31.08.64.11.99.11.56,0,1.01-.14,1.34-.44.32-.3.49-.7.49-1.21s-.17-.9-.49-1.2c-.33-.3-.78-.45-1.34-.45-.26,0-.53.03-.79.09-.26.06-.53.15-.8.27v-3.66Z"/>
      <g class="cls-108">
        <line class="cls-7" x1="48.72" y1="160.8" x2="420.9" y2="160.8"/>
      </g>
      <line x1="48.72" y1="160.8" x2="45.22" y2="160.8"/>
      <line class="cls-20" x1="48.72" y1="160.8" x2="45.22" y2="160.8"/>
      <polygon points="26.96 163.19 28.57 163.19 28.57 157.63 26.82 157.98 26.82 157.08 28.56 156.73 29.55 156.73 29.55 163.19 31.16 163.19 31.16 164.02 26.96 164.02 26.96 163.19"/>
      <rect x="33.15" y="162.78" width="1.03" height="1.24"/>
      <path d="M38.44,156.6c.81,0,1.43.33,1.87.97.43.65.65,1.59.65,2.81s-.22,2.17-.65,2.81c-.44.64-1.06.96-1.88.96s-1.44-.32-1.87-.96-.64-1.58-.64-2.81.21-2.16.64-2.81c.43-.64,1.06-.97,1.88-.97ZM38.44,157.38c-.51,0-.89.25-1.15.75-.26.5-.38,1.25-.38,2.25s.12,1.75.38,2.25c.26.5.64.75,1.15.75s.89-.25,1.15-.75c.25-.5.38-1.25.38-2.25s-.13-1.75-.38-2.25c-.26-.5-.64-.75-1.15-.75Z"/>
      <g class="cls-132">
        <line class="cls-7" x1="48.72" y1="99.83" x2="420.9" y2="99.83"/>
      </g>
      <line x1="48.72" y1="99.83" x2="45.22" y2="99.83"/>
      <line class="cls-20" x1="48.72" y1="99.83" x2="45.22" y2="99.83"/>
      <polygon points="26.96 102.1 28.57 102.1 28.57 96.54 26.82 96.89 26.82 95.99 28.56 95.64 29.55 95.64 29.55 102.1 31.16 102.1 31.16 102.93 26.96 102.93 26.96 102.1"/>
      <rect x="33.15" y="101.69" width="1.03" height="1.24"/>
      <path d="M36.34,95.64h3.87v.83h-2.97v1.79c.14-.05.29-.09.43-.11s.29-.04.43-.04c.81,0,1.45.23,1.93.67.48.45.72,1.05.72,1.81s-.25,1.4-.74,1.83c-.49.43-1.18.64-2.06.64-.31,0-.62-.03-.94-.07-.32-.05-.64-.12-.98-.23v-.99c.29.16.59.28.91.36.31.08.64.11.99.11.56,0,1.01-.14,1.34-.44.32-.3.49-.7.49-1.21s-.17-.9-.49-1.2c-.33-.3-.78-.45-1.34-.45-.26,0-.53.03-.79.09-.26.06-.53.15-.8.27v-3.66Z"/>
      <g class="cls-110">
        <line class="cls-7" x1="48.72" y1="38.87" x2="420.9" y2="38.87"/>
      </g>
      <line x1="48.72" y1="38.87" x2="45.22" y2="38.87"/>
      <line class="cls-20" x1="48.72" y1="38.87" x2="45.22" y2="38.87"/>
      <path d="M27.64,41.26h3.44v.83h-4.63v-.83c.37-.38.88-.9,1.53-1.56.64-.65,1.05-1.07,1.22-1.26.32-.35.54-.65.66-.9.12-.24.19-.49.19-.73,0-.38-.14-.7-.41-.94s-.62-.37-1.06-.37c-.31,0-.64.06-.98.16-.34.11-.71.27-1.1.49v-1c.4-.16.77-.28,1.11-.36.34-.08.66-.12.95-.12.75,0,1.35.19,1.8.57.45.38.68.88.68,1.51,0,.3-.06.59-.17.85-.11.27-.31.59-.61.95-.08.1-.34.37-.78.82s-1.05,1.08-1.84,1.89Z"/>
      <rect x="33.15" y="40.85" width="1.03" height="1.24"/>
      <path d="M38.44,34.67c.81,0,1.43.33,1.87.97.43.65.65,1.59.65,2.81s-.22,2.17-.65,2.81c-.44.64-1.06.96-1.88.96s-1.44-.32-1.87-.96c-.43-.64-.64-1.58-.64-2.81s.21-2.16.64-2.81c.43-.64,1.06-.97,1.88-.97ZM38.44,35.45c-.51,0-.89.25-1.15.75-.26.5-.38,1.25-.38,2.25s.12,1.75.38,2.25c.26.5.64.75,1.15.75s.89-.25,1.15-.75c.25-.5.38-1.25.38-2.25s-.13-1.75-.38-2.25c-.26-.5-.64-.75-1.15-.75Z"/>
      <polygon points="7.66 252.49 7.66 243.25 8.9 243.25 8.9 247.13 18.59 247.13 18.59 248.62 8.9 248.62 8.9 252.49 7.66 252.49"/>
      <path d="M10.19,241.25c0-1.17.39-2.09,1.14-2.76.76-.66,1.82-1.01,3.16-1.01s2.4.35,3.15,1.01c.76.67,1.14,1.59,1.14,2.76s-.38,2.11-1.14,2.77c-.75.66-1.8.99-3.15.99s-2.4-.33-3.16-.99c-.75-.66-1.14-1.59-1.14-2.77ZM11.33,241.25c0,.72.28,1.29.85,1.71.57.42,1.34.63,2.31.63s1.76-.19,2.32-.61c.57-.42.84-.99.84-1.72s-.27-1.29-.84-1.71c-.57-.42-1.33-.63-2.32-.63s-1.74.21-2.31.63c-.57.42-.85.99-.85,1.71Z"/>
      <path d="M8.06,233.91h2.33v-2.78h1.05v2.78h4.46c.68,0,1.11-.09,1.29-.27.19-.18.28-.56.28-1.12v-1.38h1.12v1.38c0,1.05-.19,1.77-.58,2.16-.39.39-1.1.59-2.12.59h-4.46v.99h-1.05v-.99h-2.33v-1.35Z"/>
      <path d="M13.91,222.95h4.68v1.35h-1.25c.51.32.87.71,1.1,1.16.23.45.34,1.02.34,1.68,0,.84-.23,1.51-.69,2.01-.46.5-1.09.74-1.89.74-.91,0-1.6-.3-2.09-.93-.47-.61-.7-1.53-.7-2.76v-1.89h-.14c-.61,0-1.1.21-1.44.62-.33.4-.51.97-.51,1.71,0,.48.06.93.18,1.38.12.45.28.87.49,1.28h-1.24c-.18-.48-.33-.96-.42-1.43-.09-.46-.15-.91-.15-1.36,0-1.18.32-2.07.93-2.65s1.55-.89,2.79-.89ZM14.47,225.63c0,1.09.14,1.84.38,2.26.26.42.68.63,1.27.63.48,0,.87-.15,1.14-.46.28-.32.42-.75.42-1.29,0-.75-.25-1.35-.79-1.8-.53-.45-1.23-.68-2.12-.68h-.3v1.34Z"/>
      <rect x="7.19" y="218.82" width="11.4" height="1.35"/>
      <path d="M10.7,205.32h1.26c-.21.39-.36.77-.47,1.16s-.16.76-.16,1.15c0,.87.28,1.56.84,2.04s1.34.72,2.32.72,1.79-.24,2.34-.72c.56-.48.83-1.17.83-2.04,0-.39-.05-.76-.15-1.15s-.27-.76-.48-1.16h1.24c.18.39.32.78.39,1.17.07.4.12.84.12,1.29,0,1.23-.38,2.22-1.15,2.94-.77.74-1.82,1.1-3.14,1.1s-2.39-.36-3.15-1.1c-.76-.74-1.15-1.74-1.15-3.03,0-.42.05-.82.14-1.21s.21-.78.38-1.16Z"/>
      <path d="M13.91,196.56h4.68v1.35h-1.25c.51.32.87.71,1.1,1.15s.34,1.02.34,1.68c0,.84-.23,1.51-.69,2.01-.46.49-1.09.74-1.89.74-.91,0-1.6-.3-2.09-.93-.47-.62-.7-1.53-.7-2.76v-1.89h-.14c-.61,0-1.1.21-1.44.61-.33.4-.51.98-.51,1.71,0,.48.06.93.18,1.38.12.45.28.87.49,1.27h-1.24c-.18-.48-.33-.96-.42-1.43s-.15-.91-.15-1.36c0-1.19.32-2.07.93-2.66.61-.58,1.55-.88,2.79-.88ZM14.47,199.25c0,1.1.14,1.85.38,2.26.26.42.68.63,1.27.63.48,0,.87-.15,1.14-.46.28-.32.42-.75.42-1.29,0-.75-.25-1.35-.79-1.8-.53-.45-1.23-.67-2.12-.67h-.3v1.33Z"/>
      <path d="M10.7,187.88h1.26c-.21.39-.36.76-.47,1.16-.11.39-.16.76-.16,1.15,0,.87.28,1.56.84,2.04s1.34.72,2.32.72,1.79-.24,2.34-.72c.56-.48.83-1.17.83-2.04,0-.39-.05-.76-.15-1.15-.1-.39-.27-.77-.48-1.16h1.24c.18.39.32.78.39,1.17.07.4.12.84.12,1.29,0,1.23-.38,2.22-1.15,2.94-.77.74-1.82,1.1-3.14,1.1s-2.39-.36-3.15-1.1c-.76-.74-1.15-1.74-1.15-3.03,0-.42.05-.82.14-1.21.09-.39.21-.78.38-1.16Z"/>
      <path d="M13.64,178.71h4.95v1.35h-4.91c-.78,0-1.35.16-1.74.46-.39.3-.59.75-.59,1.35,0,.74.24,1.31.71,1.73.46.42,1.09.63,1.89.63h4.64v1.35H7.19v-1.35h4.47c-.48-.32-.85-.69-1.1-1.14-.24-.43-.38-.95-.38-1.51,0-.93.3-1.65.89-2.13s1.44-.74,2.56-.74Z"/>
      <path d="M13.76,170.36c-.74.01-1.32.23-1.77.62-.43.4-.66.94-.66,1.6,0,.75.23,1.35.65,1.8s1.02.72,1.78.78v-4.8ZM14.15,169.01h.66v6.19c.93-.06,1.65-.33,2.13-.84.48-.5.72-1.18.72-2.09,0-.51-.06-1.02-.18-1.5-.12-.48-.31-.97-.58-1.46h1.27c.21.48.38.98.47,1.49.09.51.15,1.04.15,1.54,0,1.32-.38,2.36-1.12,3.12s-1.78,1.14-3.09,1.14-2.4-.36-3.19-1.08c-.78-.72-1.19-1.71-1.19-2.94,0-1.11.36-1.98,1.06-2.62.72-.63,1.68-.96,2.9-.96Z"/>
      <path d="M11.65,157.28c-.09.15-.15.31-.2.49-.03.18-.06.38-.06.58,0,.76.26,1.35.75,1.76.5.42,1.2.62,2.13.62h4.32v1.35h-8.2v-1.35h1.27c-.49-.27-.87-.65-1.11-1.1-.24-.45-.36-1.01-.36-1.67,0-.09.02-.19.02-.31.02-.11.03-.23.06-.38h1.38Z"/>
      <path d="M13.76,150.53c-.74.01-1.32.23-1.77.62-.43.4-.66.94-.66,1.6,0,.75.23,1.35.65,1.8s1.02.72,1.78.78v-4.8ZM14.15,149.18h.66v6.19c.93-.06,1.65-.33,2.13-.84.48-.5.72-1.18.72-2.09,0-.51-.06-1.02-.18-1.5-.12-.48-.31-.97-.58-1.46h1.27c.21.48.38.98.47,1.49.09.51.15,1.04.15,1.54,0,1.32-.38,2.36-1.12,3.12s-1.78,1.14-3.09,1.14-2.4-.36-3.19-1.08c-.78-.72-1.19-1.71-1.19-2.94,0-1.11.36-1.98,1.06-2.62.72-.63,1.68-.96,2.9-.96Z"/>
      <path d="M14.5,141.08c-.99,0-1.76.21-2.32.62-.57.42-.85.98-.85,1.68s.28,1.27.85,1.68c.57.42,1.34.62,2.32.62s1.77-.2,2.34-.62c.57-.4.84-.96.84-1.68s-.27-1.26-.84-1.68c-.57-.4-1.35-.62-2.34-.62ZM17.36,145.67h4.33v1.35h-11.31v-1.35h1.24c-.48-.27-.84-.63-1.08-1.07-.24-.43-.36-.96-.36-1.56,0-.99.4-1.8,1.19-2.43.8-.61,1.83-.93,3.12-.93s2.34.32,3.12.93c.78.63,1.17,1.44,1.17,2.43,0,.6-.12,1.12-.34,1.56s-.59.79-1.08,1.07Z"/>
      <rect x="7.19" y="136.1" width="11.4" height="1.35"/>
      <path d="M13.91,126.86h4.68v1.35h-1.25c.51.32.87.71,1.1,1.15s.34,1.02.34,1.68c0,.84-.23,1.51-.69,2.01-.46.49-1.09.74-1.89.74-.91,0-1.6-.3-2.09-.93-.47-.62-.7-1.53-.7-2.76v-1.89h-.14c-.61,0-1.1.21-1.44.61-.33.4-.51.98-.51,1.71,0,.48.06.93.18,1.38.12.45.28.87.49,1.27h-1.24c-.18-.48-.33-.96-.42-1.43s-.15-.91-.15-1.36c0-1.19.32-2.07.93-2.66.61-.58,1.55-.88,2.79-.88ZM14.47,129.54c0,1.1.14,1.85.38,2.26.26.42.68.63,1.27.63.48,0,.87-.15,1.14-.46.28-.32.42-.75.42-1.29,0-.75-.25-1.35-.79-1.8-.53-.45-1.23-.67-2.12-.67h-.3v1.33Z"/>
      <path d="M10.7,118.17h1.26c-.21.39-.36.76-.47,1.16-.11.39-.16.76-.16,1.15,0,.87.28,1.56.84,2.04s1.34.72,2.32.72,1.79-.24,2.34-.72c.56-.48.83-1.17.83-2.04,0-.39-.05-.76-.15-1.15-.1-.39-.27-.77-.48-1.16h1.24c.18.39.32.78.39,1.17.07.4.12.84.12,1.29,0,1.23-.38,2.22-1.15,2.94-.77.74-1.82,1.1-3.14,1.1s-2.39-.36-3.15-1.1c-.76-.74-1.15-1.74-1.15-3.03,0-.42.05-.82.14-1.21.09-.39.21-.78.38-1.16Z"/>
      <path d="M13.76,110.16c-.74.01-1.32.23-1.77.62-.43.4-.66.94-.66,1.6,0,.75.23,1.35.65,1.8s1.02.72,1.78.78v-4.8ZM14.15,108.81h.66v6.19c.93-.06,1.65-.33,2.13-.84.48-.5.72-1.18.72-2.09,0-.51-.06-1.02-.18-1.5-.12-.48-.31-.97-.58-1.46h1.27c.21.48.38.98.47,1.49.09.51.15,1.04.15,1.54,0,1.32-.38,2.36-1.12,3.12s-1.78,1.14-3.09,1.14-2.4-.36-3.19-1.08c-.78-.72-1.19-1.71-1.19-2.94,0-1.11.36-1.98,1.06-2.62.72-.63,1.68-.96,2.9-.96Z"/>
      <path d="M11.96,100.22c-.6-.33-1.04-.74-1.34-1.2-.28-.46-.44-1.02-.44-1.66,0-.84.3-1.5.9-1.97.6-.46,1.45-.71,2.55-.71h4.95v1.35h-4.91c-.78,0-1.36.15-1.75.42-.38.29-.57.71-.57,1.28,0,.7.24,1.26.71,1.66.46.4,1.09.6,1.89.6h4.64v1.35h-4.91c-.78,0-1.36.15-1.75.42-.38.29-.57.72-.57,1.29,0,.69.24,1.24.71,1.65.46.4,1.09.6,1.89.6h4.64v1.35h-8.2v-1.35h1.27c-.49-.3-.87-.68-1.11-1.11-.24-.42-.36-.93-.36-1.53s.15-1.1.45-1.51c.3-.42.75-.72,1.32-.93Z"/>
      <path d="M13.76,86.33c-.74.01-1.32.23-1.77.62-.43.4-.66.94-.66,1.6,0,.75.23,1.35.65,1.8s1.02.72,1.78.78v-4.8ZM14.15,84.98h.66v6.2c.93-.06,1.65-.33,2.13-.84.48-.5.72-1.18.72-2.09,0-.51-.06-1.02-.18-1.5-.12-.48-.31-.97-.58-1.46h1.27c.21.48.38.98.47,1.49.09.51.15,1.04.15,1.54,0,1.32-.38,2.36-1.12,3.12s-1.78,1.14-3.09,1.14-2.4-.36-3.19-1.08c-.78-.72-1.19-1.71-1.19-2.94,0-1.11.36-1.98,1.06-2.62.72-.63,1.68-.96,2.9-.96Z"/>
      <path d="M13.64,75.95h4.95v1.35h-4.91c-.78,0-1.35.17-1.74.46-.39.3-.59.75-.59,1.35,0,.74.24,1.3.71,1.73.46.42,1.09.63,1.89.63h4.64v1.35h-8.2v-1.35h1.27c-.48-.32-.85-.69-1.1-1.14-.24-.43-.38-.94-.38-1.51,0-.93.3-1.65.89-2.13s1.44-.74,2.56-.74Z"/>
      <path d="M8.06,71.93h2.33v-2.77h1.05v2.77h4.46c.68,0,1.11-.09,1.29-.27.19-.18.28-.55.28-1.12v-1.38h1.12v1.38c0,1.05-.19,1.77-.58,2.16-.39.39-1.1.59-2.12.59h-4.46v.99h-1.05v-.99h-2.33v-1.35Z"/>
      <path d="M10.63,62.15h1.27c-.18.39-.33.78-.43,1.18-.09.42-.15.84-.15,1.27,0,.67.1,1.18.31,1.51.21.33.51.5.91.5.32,0,.56-.12.73-.36.18-.24.36-.72.51-1.44l.11-.46c.21-.96.51-1.64.87-2.04.38-.39.9-.6,1.56-.6.76,0,1.36.3,1.8.9.45.6.66,1.44.66,2.49,0,.45-.05.9-.12,1.38-.08.48-.2.98-.38,1.5h-1.4c.27-.49.47-.99.58-1.47.14-.48.19-.96.19-1.44,0-.63-.1-1.12-.31-1.47-.21-.33-.53-.51-.93-.51-.36,0-.65.14-.84.38-.19.24-.39.78-.57,1.62l-.11.46c-.18.84-.45,1.45-.81,1.82-.36.38-.85.55-1.5.55-.76,0-1.36-.27-1.78-.81-.42-.54-.63-1.32-.63-2.34,0-.5.05-.96.12-1.41.08-.43.18-.84.32-1.21Z"/>
      <polygon points="55.73 9.69 53.5 11.93 55.73 14.16 55.15 14.75 52.91 12.51 50.67 14.75 50.09 14.16 52.32 11.93 50.09 9.69 50.67 9.1 52.91 11.34 55.15 9.1 55.73 9.69"/>
      <polygon points="58.33 14.23 59.94 14.23 59.94 8.67 58.19 9.02 58.19 8.12 59.93 7.77 60.92 7.77 60.92 14.23 62.53 14.23 62.53 15.06 58.33 15.06 58.33 14.23"/>
      <path d="M66.64,7.64c.81,0,1.43.33,1.87.97.43.65.65,1.59.65,2.81s-.22,2.17-.65,2.81c-.44.64-1.06.96-1.88.96s-1.44-.32-1.87-.96c-.43-.64-.64-1.58-.64-2.81s.21-2.16.64-2.81c.43-.64,1.06-.97,1.88-.97ZM66.64,8.42c-.51,0-.89.25-1.15.75-.26.5-.38,1.25-.38,2.25s.12,1.75.38,2.25c.26.5.64.75,1.15.75s.89-.25,1.15-.75c.25-.5.38-1.25.38-2.25s-.13-1.75-.38-2.25c-.26-.5-.64-.75-1.15-.75Z"/>
      <path d="M70.67,6.13h2.71v.58h-2.08v1.25c.1-.03.2-.06.3-.08.1-.01.2-.03.3-.03.57,0,1.01.16,1.35.47.34.32.5.73.5,1.27s-.18.98-.52,1.28c-.34.3-.83.45-1.44.45-.22,0-.43-.02-.66-.05-.22-.04-.45-.08-.69-.16v-.69c.2.11.41.2.64.25.22.06.45.08.69.08.39,0,.71-.1.94-.31.22-.21.34-.49.34-.85s-.12-.63-.34-.84c-.23-.21-.55-.32-.94-.32-.18,0-.37.02-.55.06-.18.04-.37.11-.56.19v-2.56Z"/>
      <g class="cls-42">
        <polyline class="cls-22" points="65.63 280.7 107.93 281.69 150.22 281.84 192.51 281.93 234.81 281.97 277.1 282 319.4 282.06 361.69 282.1 403.98 282.16"/>
        <g class="cls-126">
          <polygon class="cls-11" points="65.63 277.7 62.63 283.7 68.63 283.7 65.63 277.7"/>
        </g>
        <g class="cls-37">
          <polygon class="cls-11" points="107.93 278.69 104.93 284.69 110.93 284.69 107.93 278.69"/>
        </g>
        <g class="cls-46">
          <polygon class="cls-11" points="150.22 278.84 147.22 284.84 153.22 284.84 150.22 278.84"/>
        </g>
        <g class="cls-115">
          <polygon class="cls-11" points="192.51 278.93 189.51 284.93 195.51 284.93 192.51 278.93"/>
        </g>
        <g class="cls-98">
          <polygon class="cls-11" points="234.81 278.97 231.81 284.97 237.81 284.97 234.81 278.97"/>
        </g>
        <g class="cls-34">
          <polygon class="cls-11" points="277.1 279 274.1 285 280.1 285 277.1 279"/>
        </g>
        <g class="cls-50">
          <polygon class="cls-11" points="319.4 279.06 316.4 285.06 322.4 285.06 319.4 279.06"/>
        </g>
        <g class="cls-52">
          <polygon class="cls-11" points="361.69 279.1 358.69 285.1 364.69 285.1 361.69 279.1"/>
        </g>
        <g class="cls-135">
          <polygon class="cls-11" points="403.98 279.16 400.98 285.16 406.98 285.16 403.98 279.16"/>
        </g>
      </g>
      <g class="cls-67">
        <polyline class="cls-13" points="65.63 282.72 107.93 278.51 150.22 277.11 192.51 275.98 234.81 274.91 277.1 274.11 319.4 273.9 361.69 273.59 403.98 273.25"/>
        <g class="cls-106">
          <polygon class="cls-11" points="65.63 279.72 62.63 285.72 68.63 285.72 65.63 279.72"/>
        </g>
        <g class="cls-68">
          <polygon class="cls-11" points="107.93 275.51 104.93 281.51 110.93 281.51 107.93 275.51"/>
        </g>
        <g class="cls-85">
          <polygon class="cls-11" points="150.22 274.11 147.22 280.11 153.22 280.11 150.22 274.11"/>
        </g>
        <g class="cls-128">
          <polygon class="cls-11" points="192.51 272.98 189.51 278.98 195.51 278.98 192.51 272.98"/>
        </g>
        <g class="cls-112">
          <polygon class="cls-11" points="234.81 271.91 231.81 277.91 237.81 277.91 234.81 271.91"/>
        </g>
        <g class="cls-39">
          <polygon class="cls-11" points="277.1 271.11 274.1 277.11 280.1 277.11 277.1 271.11"/>
        </g>
        <g class="cls-119">
          <polygon class="cls-11" points="319.4 270.9 316.4 276.9 322.4 276.9 319.4 270.9"/>
        </g>
        <g class="cls-43">
          <polygon class="cls-11" points="361.69 270.59 358.69 276.59 364.69 276.59 361.69 270.59"/>
        </g>
        <g class="cls-31">
          <polygon class="cls-11" points="403.98 270.25 400.98 276.25 406.98 276.25 403.98 270.25"/>
        </g>
      </g>
      <g class="cls-81">
        <polyline class="cls-19" points="65.63 281.91 107.93 282.21 150.22 282.25 192.51 282.24 234.81 282.22 277.1 282.22 319.4 282.21 361.69 282.2 403.98 282.2"/>
        <g class="cls-79">
          <rect class="cls-12" x="62.63" y="278.91" width="6" height="6"/>
        </g>
        <g class="cls-130">
          <rect class="cls-12" x="104.93" y="279.21" width="6" height="6"/>
        </g>
        <g class="cls-33">
          <rect class="cls-12" x="147.22" y="279.25" width="6" height="6"/>
        </g>
        <g class="cls-123">
          <rect class="cls-12" x="189.51" y="279.24" width="6" height="6"/>
        </g>
        <g class="cls-95">
          <rect class="cls-12" x="231.81" y="279.22" width="6" height="6"/>
        </g>
        <g class="cls-102">
          <rect class="cls-12" x="274.1" y="279.22" width="6" height="6"/>
        </g>
        <g class="cls-61">
          <rect class="cls-12" x="316.4" y="279.21" width="6" height="6"/>
        </g>
        <g class="cls-64">
          <rect class="cls-12" x="358.69" y="279.2" width="6" height="6"/>
        </g>
        <g class="cls-142">
          <rect class="cls-12" x="400.98" y="279.2" width="6" height="6"/>
        </g>
      </g>
      <g class="cls-90">
        <polyline class="cls-24" points="65.63 282.72 107.93 279.42 150.22 277.57 192.51 276.11 234.81 274.95 277.1 273.97 319.4 273.12 361.69 272.48 403.98 271.89"/>
        <g class="cls-94">
          <rect class="cls-12" x="62.63" y="279.72" width="6" height="6"/>
        </g>
        <g class="cls-47">
          <rect class="cls-12" x="104.93" y="276.42" width="6" height="6"/>
        </g>
        <g class="cls-83">
          <rect class="cls-12" x="147.22" y="274.57" width="6" height="6"/>
        </g>
        <g class="cls-129">
          <rect class="cls-12" x="189.51" y="273.11" width="6" height="6"/>
        </g>
        <g class="cls-109">
          <rect class="cls-12" x="231.81" y="271.95" width="6" height="6"/>
        </g>
        <g class="cls-2">
          <rect class="cls-12" x="274.1" y="270.97" width="6" height="6"/>
        </g>
        <g class="cls-101">
          <rect class="cls-12" x="316.4" y="270.12" width="6" height="6"/>
        </g>
        <g class="cls-122">
          <rect class="cls-12" x="358.69" y="269.48" width="6" height="6"/>
        </g>
        <g class="cls-54">
          <rect class="cls-12" x="400.98" y="268.89" width="6" height="6"/>
        </g>
      </g>
      <g class="cls-120">
        <polyline class="cls-16" points="65.63 240.16 107.93 248.24 150.22 252.68 192.51 255.46 234.81 258.17 277.1 259.87 319.4 261.14 361.69 261.69 403.98 262.23"/>
        <g class="cls-87">
          <path class="cls-26" d="M62.63,237.16l6,6M62.63,243.16l6-6"/>
        </g>
        <g class="cls-74">
          <path class="cls-26" d="M104.93,245.24l6,6M104.93,251.24l6-6"/>
        </g>
        <g class="cls-131">
          <path class="cls-26" d="M147.22,249.68l6,6M147.22,255.68l6-6"/>
        </g>
        <g class="cls-62">
          <path class="cls-26" d="M189.51,252.46l6,6M189.51,258.46l6-6"/>
        </g>
        <g class="cls-70">
          <path class="cls-26" d="M231.81,255.17l6,6M231.81,261.17l6-6"/>
        </g>
        <g class="cls-44">
          <path class="cls-26" d="M274.1,256.87l6,6M274.1,262.87l6-6"/>
        </g>
        <g class="cls-143">
          <path class="cls-26" d="M316.4,258.14l6,6M316.4,264.14l6-6"/>
        </g>
        <g class="cls-134">
          <path class="cls-26" d="M358.69,258.69l6,6M358.69,264.69l6-6"/>
        </g>
        <g class="cls-65">
          <path class="cls-26" d="M400.98,259.23l6,6M400.98,265.23l6-6"/>
        </g>
      </g>
      <g class="cls-141">
        <polyline class="cls-28" points="65.63 282.72 107.93 236.38 150.22 236.38 192.51 237.07 234.81 237 277.1 236.87 319.4 236.84 361.69 236.9 403.98 237.2"/>
        <g class="cls-55">
          <path class="cls-26" d="M62.63,279.72l6,6M62.63,285.72l6-6"/>
        </g>
        <g class="cls-103">
          <path class="cls-26" d="M104.93,233.38l6,6M104.93,239.38l6-6"/>
        </g>
        <g class="cls-139">
          <path class="cls-26" d="M147.22,233.38l6,6M147.22,239.38l6-6"/>
        </g>
        <g class="cls-144">
          <path class="cls-26" d="M189.51,234.07l6,6M189.51,240.07l6-6"/>
        </g>
        <g class="cls-59">
          <path class="cls-26" d="M231.81,234l6,6M231.81,240l6-6"/>
        </g>
        <g class="cls-49">
          <path class="cls-26" d="M274.1,233.87l6,6M274.1,239.87l6-6"/>
        </g>
        <g class="cls-117">
          <path class="cls-26" d="M316.4,233.84l6,6M316.4,239.84l6-6"/>
        </g>
        <g class="cls-121">
          <path class="cls-26" d="M358.69,233.9l6,6M358.69,239.9l6-6"/>
        </g>
        <g class="cls-104">
          <path class="cls-26" d="M400.98,234.2l6,6M400.98,240.2l6-6"/>
        </g>
      </g>
      <g class="cls-41">
        <polyline class="cls-15" points="65.63 31.19 107.93 63.22 150.22 79.7 192.51 92.04 234.81 102.13 277.1 111 319.4 118.56 361.69 125.15 403.98 131.1"/>
        <g class="cls-1">
          <polygon class="cls-4" points="65.63 35.43 68.18 31.19 65.63 26.95 63.09 31.19 65.63 35.43"/>
        </g>
        <g class="cls-114">
          <polygon class="cls-4" points="107.93 67.47 110.47 63.22 107.93 58.98 105.38 63.22 107.93 67.47"/>
        </g>
        <g class="cls-116">
          <polygon class="cls-4" points="150.22 83.94 152.77 79.7 150.22 75.45 147.68 79.7 150.22 83.94"/>
        </g>
        <g class="cls-40">
          <polygon class="cls-4" points="192.51 96.28 195.06 92.04 192.51 87.79 189.97 92.04 192.51 96.28"/>
        </g>
        <g class="cls-38">
          <polygon class="cls-4" points="234.81 106.38 237.35 102.13 234.81 97.89 232.26 102.13 234.81 106.38"/>
        </g>
        <g class="cls-124">
          <polygon class="cls-4" points="277.1 115.25 279.65 111 277.1 106.76 274.56 111 277.1 115.25"/>
        </g>
        <g class="cls-53">
          <polygon class="cls-4" points="319.4 122.81 321.94 118.56 319.4 114.32 316.85 118.56 319.4 122.81"/>
        </g>
        <g class="cls-140">
          <polygon class="cls-4" points="361.69 129.39 364.24 125.15 361.69 120.91 359.14 125.15 361.69 129.39"/>
        </g>
        <g class="cls-118">
          <polygon class="cls-4" points="403.98 135.34 406.53 131.1 403.98 126.85 401.44 131.1 403.98 135.34"/>
        </g>
      </g>
      <g class="cls-76">
        <polyline class="cls-25" points="65.63 282.72 107.93 64.28 150.22 81.85 192.51 95.28 234.81 106.48 277.1 116.47 319.4 125.15 361.69 132.86 403.98 139.95"/>
        <g class="cls-133">
          <polygon class="cls-4" points="65.63 286.96 68.18 282.72 65.63 278.48 63.09 282.72 65.63 286.96"/>
        </g>
        <g class="cls-138">
          <polygon class="cls-4" points="107.93 68.53 110.47 64.28 107.93 60.04 105.38 64.28 107.93 68.53"/>
        </g>
        <g class="cls-75">
          <polygon class="cls-4" points="150.22 86.09 152.77 81.85 150.22 77.61 147.68 81.85 150.22 86.09"/>
        </g>
        <g class="cls-93">
          <polygon class="cls-4" points="192.51 99.53 195.06 95.28 192.51 91.04 189.97 95.28 192.51 99.53"/>
        </g>
        <g class="cls-89">
          <polygon class="cls-4" points="234.81 110.73 237.35 106.48 234.81 102.24 232.26 106.48 234.81 110.73"/>
        </g>
        <g class="cls-107">
          <polygon class="cls-4" points="277.1 120.71 279.65 116.47 277.1 112.23 274.56 116.47 277.1 120.71"/>
        </g>
        <g class="cls-80">
          <polygon class="cls-4" points="319.4 129.4 321.94 125.15 319.4 120.91 316.85 125.15 319.4 129.4"/>
        </g>
        <g class="cls-72">
          <polygon class="cls-4" points="361.69 137.1 364.24 132.86 361.69 128.62 359.14 132.86 361.69 137.1"/>
        </g>
        <g class="cls-136">
          <polygon class="cls-4" points="403.98 144.19 406.53 139.95 403.98 135.7 401.44 139.95 403.98 144.19"/>
        </g>
      </g>
      <g class="cls-99">
        <polyline class="cls-27" points="65.63 30.72 107.93 176.76 150.22 186.32 192.51 193.31 234.81 199.07 277.1 203.76 319.4 207.8 361.69 211.29 403.98 214.19"/>
        <g class="cls-96">
          <path class="cls-29" d="M65.63,33.72c.8,0,1.56-.32,2.12-.88.56-.56.88-1.33.88-2.12s-.32-1.56-.88-2.12c-.56-.56-1.33-.88-2.12-.88s-1.56.32-2.12.88c-.56.56-.88,1.33-.88,2.12s.32,1.56.88,2.12c.56.56,1.33.88,2.12.88Z"/>
        </g>
        <g class="cls-111">
          <path class="cls-29" d="M107.93,179.76c.8,0,1.56-.32,2.12-.88.56-.56.88-1.33.88-2.12s-.32-1.56-.88-2.12c-.56-.56-1.33-.88-2.12-.88s-1.56.32-2.12.88c-.56.56-.88,1.33-.88,2.12s.32,1.56.88,2.12c.56.56,1.33.88,2.12.88Z"/>
        </g>
        <g class="cls-82">
          <path class="cls-29" d="M150.22,189.32c.8,0,1.56-.32,2.12-.88s.88-1.33.88-2.12-.32-1.56-.88-2.12-1.33-.88-2.12-.88-1.56.32-2.12.88-.88,1.33-.88,2.12.32,1.56.88,2.12,1.33.88,2.12.88Z"/>
        </g>
        <g class="cls-92">
          <path class="cls-29" d="M192.51,196.31c.8,0,1.56-.32,2.12-.88s.88-1.33.88-2.12-.32-1.56-.88-2.12-1.33-.88-2.12-.88-1.56.32-2.12.88-.88,1.33-.88,2.12.32,1.56.88,2.12,1.33.88,2.12.88Z"/>
        </g>
        <g class="cls-45">
          <path class="cls-29" d="M234.81,202.07c.8,0,1.56-.32,2.12-.88s.88-1.33.88-2.12-.32-1.56-.88-2.12-1.33-.88-2.12-.88-1.56.32-2.12.88-.88,1.33-.88,2.12.32,1.56.88,2.12,1.33.88,2.12.88Z"/>
        </g>
        <g class="cls-66">
          <path class="cls-29" d="M277.1,206.76c.8,0,1.56-.32,2.12-.88.56-.56.88-1.33.88-2.12s-.32-1.56-.88-2.12c-.56-.56-1.33-.88-2.12-.88s-1.56.32-2.12.88c-.56.56-.88,1.33-.88,2.12s.32,1.56.88,2.12c.56.56,1.33.88,2.12.88Z"/>
        </g>
        <g class="cls-58">
          <path class="cls-29" d="M319.4,210.8c.8,0,1.56-.32,2.12-.88.56-.56.88-1.33.88-2.12s-.32-1.56-.88-2.12c-.56-.56-1.33-.88-2.12-.88s-1.56.32-2.12.88c-.56.56-.88,1.33-.88,2.12s.32,1.56.88,2.12c.56.56,1.33.88,2.12.88Z"/>
        </g>
        <g class="cls-51">
          <path class="cls-29" d="M361.69,214.29c.8,0,1.56-.32,2.12-.88.56-.56.88-1.33.88-2.12s-.32-1.56-.88-2.12c-.56-.56-1.33-.88-2.12-.88s-1.56.32-2.12.88c-.56.56-.88,1.33-.88,2.12s.32,1.56.88,2.12c.56.56,1.33.88,2.12.88Z"/>
        </g>
        <g class="cls-84">
          <path class="cls-29" d="M403.98,217.19c.8,0,1.56-.32,2.12-.88.56-.56.88-1.33.88-2.12s-.32-1.56-.88-2.12c-.56-.56-1.33-.88-2.12-.88s-1.56.32-2.12.88c-.56.56-.88,1.33-.88,2.12s.32,1.56.88,2.12c.56.56,1.33.88,2.12.88Z"/>
        </g>
      </g>
      <g class="cls-78">
        <polyline class="cls-10" points="65.63 282.72 107.93 177.4 150.22 188.23 192.51 196.27 234.81 202.96 277.1 208.8 319.4 213.8 361.69 218.07 403.98 222.31"/>
        <g class="cls-125">
          <path class="cls-29" d="M65.63,285.72c.8,0,1.56-.32,2.12-.88.56-.56.88-1.33.88-2.12s-.32-1.56-.88-2.12c-.56-.56-1.33-.88-2.12-.88s-1.56.32-2.12.88c-.56.56-.88,1.33-.88,2.12s.32,1.56.88,2.12c.56.56,1.33.88,2.12.88Z"/>
        </g>
        <g class="cls-32">
          <path class="cls-29" d="M107.93,180.4c.8,0,1.56-.32,2.12-.88.56-.56.88-1.33.88-2.12s-.32-1.56-.88-2.12c-.56-.56-1.33-.88-2.12-.88s-1.56.32-2.12.88c-.56.56-.88,1.33-.88,2.12s.32,1.56.88,2.12c.56.56,1.33.88,2.12.88Z"/>
        </g>
        <g class="cls-88">
          <path class="cls-29" d="M150.22,191.23c.8,0,1.56-.32,2.12-.88s.88-1.33.88-2.12-.32-1.56-.88-2.12-1.33-.88-2.12-.88-1.56.32-2.12.88-.88,1.33-.88,2.12.32,1.56.88,2.12,1.33.88,2.12.88Z"/>
        </g>
        <g class="cls-69">
          <path class="cls-29" d="M192.51,199.27c.8,0,1.56-.32,2.12-.88s.88-1.33.88-2.12-.32-1.56-.88-2.12-1.33-.88-2.12-.88-1.56.32-2.12.88-.88,1.33-.88,2.12.32,1.56.88,2.12,1.33.88,2.12.88Z"/>
        </g>
        <g class="cls-91">
          <path class="cls-29" d="M234.81,205.96c.8,0,1.56-.32,2.12-.88s.88-1.33.88-2.12-.32-1.56-.88-2.12-1.33-.88-2.12-.88-1.56.32-2.12.88-.88,1.33-.88,2.12.32,1.56.88,2.12,1.33.88,2.12.88Z"/>
        </g>
        <g class="cls-77">
          <path class="cls-29" d="M277.1,211.8c.8,0,1.56-.32,2.12-.88.56-.56.88-1.33.88-2.12s-.32-1.56-.88-2.12c-.56-.56-1.33-.88-2.12-.88s-1.56.32-2.12.88c-.56.56-.88,1.33-.88,2.12s.32,1.56.88,2.12c.56.56,1.33.88,2.12.88Z"/>
        </g>
        <g class="cls-113">
          <path class="cls-29" d="M319.4,216.8c.8,0,1.56-.32,2.12-.88.56-.56.88-1.33.88-2.12s-.32-1.56-.88-2.12c-.56-.56-1.33-.88-2.12-.88s-1.56.32-2.12.88c-.56.56-.88,1.33-.88,2.12s.32,1.56.88,2.12c.56.56,1.33.88,2.12.88Z"/>
        </g>
        <g class="cls-71">
          <path class="cls-29" d="M361.69,221.07c.8,0,1.56-.32,2.12-.88.56-.56.88-1.33.88-2.12s-.32-1.56-.88-2.12c-.56-.56-1.33-.88-2.12-.88s-1.56.32-2.12.88c-.56.56-.88,1.33-.88,2.12s.32,1.56.88,2.12c.56.56,1.33.88,2.12.88Z"/>
        </g>
        <g class="cls-56">
          <path class="cls-29" d="M403.98,225.31c.8,0,1.56-.32,2.12-.88.56-.56.88-1.33.88-2.12s-.32-1.56-.88-2.12c-.56-.56-1.33-.88-2.12-.88s-1.56.32-2.12.88c-.56.56-.88,1.33-.88,2.12s.32,1.56.88,2.12c.56.56,1.33.88,2.12.88Z"/>
        </g>
      </g>
      <line class="cls-18" x1="48.72" y1="295.32" x2="48.72" y2="18.12"/>
      <line class="cls-18" x1="420.9" y1="295.32" x2="420.9" y2="18.12"/>
      <line class="cls-18" x1="48.72" y1="295.32" x2="420.9" y2="295.32"/>
      <line class="cls-18" x1="48.72" y1="18.12" x2="420.9" y2="18.12"/>
      <g>
        <rect class="cls-30" x="158.93" y="158.21" width="254.97" height="24.75" rx="2.8" ry="2.8"/>
        <rect class="cls-3" x="158.93" y="158.21" width="254.97" height="24.75" rx="2.8" ry="2.8"/>
      </g>
      <polyline class="cls-5" points="164.53 169.55 178.53 169.55 192.53 169.55"/>
      <polygon points="205.1 164.24 210.96 164.24 210.96 165.41 206.48 165.41 206.48 168.42 210.53 168.42 210.53 169.58 206.48 169.58 206.48 174.45 205.1 174.45 205.1 164.24"/>
      <path d="M212.08,163.81h1.26v1.6h-1.26v-1.6ZM212.08,166.79h1.26v7.66h-1.26v-7.66Z"/>
      <path d="M220.41,167.97c-.14-.08-.29-.14-.46-.18-.17-.03-.35-.06-.55-.06-.71,0-1.26.24-1.64.7-.39.46-.57,1.12-.57,1.99v4.03h-1.26v-7.66h1.26v1.19c.25-.46.6-.81,1.02-1.04s.94-.34,1.55-.34c.08,0,.18.01.29.01.1.01.21.03.35.06v1.29Z"/>
      <path d="M226.61,167.02v1.19c-.36-.17-.73-.31-1.11-.41-.39-.08-.78-.14-1.19-.14-.63,0-1.11.1-1.41.29s-.46.48-.46.85c0,.29.11.52.34.69s.67.34,1.34.48l.43.1c.9.2,1.53.48,1.9.81.36.35.56.84.56,1.46,0,.71-.28,1.27-.84,1.68-.56.42-1.34.62-2.32.62-.42,0-.84-.04-1.29-.11-.45-.07-.91-.18-1.4-.35v-1.3c.46.25.92.43,1.37.55.45.13.9.18,1.34.18.59,0,1.05-.1,1.37-.29.31-.2.48-.49.48-.87,0-.34-.13-.6-.35-.78-.22-.18-.73-.36-1.51-.53l-.43-.1c-.78-.17-1.36-.42-1.69-.76-.35-.34-.52-.8-.52-1.4,0-.71.25-1.27.76-1.67.5-.39,1.23-.59,2.18-.59.46,0,.9.04,1.32.11.41.07.78.17,1.13.29Z"/>
      <path d="M230.26,164.62v2.17h2.59v.98h-2.59v4.16c0,.63.08,1.04.25,1.2.17.18.52.27,1.05.27h1.29v1.05h-1.29c-.98,0-1.65-.18-2.02-.55-.36-.36-.55-1.02-.55-1.97v-4.16h-.92v-.98h.92v-2.17h1.26Z"/>
      <path d="M240.2,164.62v2.17h2.59v.98h-2.59v4.16c0,.63.08,1.04.25,1.2.17.18.52.27,1.05.27h1.29v1.05h-1.29c-.98,0-1.65-.18-2.02-.55-.36-.36-.55-1.02-.55-1.97v-4.16h-.92v-.98h.92v-2.17h1.26Z"/>
      <path d="M244.44,163.81h1.26v1.6h-1.26v-1.6ZM244.44,166.79h1.26v7.66h-1.26v-7.66Z"/>
      <path d="M253.63,169.94c-.01-.69-.21-1.23-.57-1.65-.38-.41-.88-.62-1.5-.62-.7,0-1.26.21-1.68.6s-.67.95-.73,1.67h4.48ZM254.89,170.31v.62h-5.78c.06.87.31,1.54.78,1.99.46.45,1.11.67,1.95.67.48,0,.95-.06,1.4-.17s.91-.29,1.36-.55v1.19c-.45.2-.91.35-1.39.43-.48.08-.97.14-1.44.14-1.23,0-2.2-.35-2.91-1.05s-1.06-1.67-1.06-2.88.34-2.24,1.01-2.98c.67-.73,1.6-1.11,2.74-1.11,1.04,0,1.85.34,2.45.99.59.67.9,1.57.9,2.7Z"/>
      <path d="M261.38,167.97c-.14-.08-.29-.14-.46-.18-.17-.03-.35-.06-.55-.06-.71,0-1.26.24-1.64.7-.39.46-.57,1.12-.57,1.99v4.03h-1.26v-7.66h1.26v1.19c.25-.46.6-.81,1.02-1.04s.94-.34,1.55-.34c.08,0,.18.01.29.01.1.01.21.03.35.06v1.29Z"/>
      <polyline class="cls-17" points="289.38 169.55 303.38 169.55 317.38 169.55"/>
      <path d="M336.07,164.58v1.34c-.53-.25-1.02-.43-1.48-.56-.48-.11-.92-.18-1.34-.18-.76,0-1.34.15-1.75.43-.41.29-.6.71-.6,1.25,0,.45.13.8.41,1.02.27.24.78.42,1.54.56l.84.17c1.02.2,1.78.55,2.27,1.04.49.5.74,1.16.74,1.99,0,.99-.34,1.74-.99,2.24-.67.5-1.64.76-2.91.76-.49,0-1.01-.06-1.55-.15s-1.11-.25-1.68-.48v-1.43c.56.32,1.11.56,1.64.71.53.17,1.06.24,1.6.24.78,0,1.39-.15,1.82-.46.42-.31.64-.74.64-1.33,0-.5-.15-.9-.46-1.18-.31-.28-.81-.49-1.51-.63l-.84-.17c-1.04-.2-1.78-.52-2.24-.97-.46-.43-.69-1.04-.69-1.82,0-.9.31-1.61.95-2.13.63-.52,1.51-.78,2.63-.78.48,0,.95.04,1.46.13.49.08.99.22,1.53.39Z"/>
      <path d="M344.08,169.94c-.01-.69-.21-1.23-.57-1.65-.38-.41-.88-.62-1.5-.62-.7,0-1.26.21-1.68.6-.42.39-.67.95-.73,1.67h4.48ZM345.34,170.31v.62h-5.78c.06.87.31,1.54.78,1.99.46.45,1.11.67,1.95.67.48,0,.95-.06,1.4-.17s.91-.29,1.36-.55v1.19c-.45.2-.91.35-1.39.43-.48.08-.97.14-1.44.14-1.23,0-2.2-.35-2.91-1.05-.71-.7-1.06-1.67-1.06-2.88s.34-2.24,1.01-2.98c.67-.73,1.6-1.11,2.74-1.11,1.04,0,1.85.34,2.45.99.59.67.9,1.57.9,2.7Z"/>
      <path d="M352.91,167.09v1.18c-.36-.2-.71-.34-1.08-.43-.36-.1-.71-.15-1.08-.15-.81,0-1.46.27-1.9.78-.45.52-.67,1.25-.67,2.17s.22,1.67.67,2.18,1.09.77,1.9.77c.36,0,.71-.04,1.08-.14.36-.1.71-.25,1.08-.45v1.16c-.36.17-.73.29-1.09.36-.38.07-.78.11-1.2.11-1.15,0-2.07-.35-2.74-1.08-.69-.71-1.02-1.69-1.02-2.93s.34-2.23,1.02-2.94c.69-.71,1.62-1.08,2.83-1.08.39,0,.77.04,1.13.13.36.08.73.2,1.08.35Z"/>
      <path d="M358.07,166.61c1.09,0,1.95.36,2.58,1.06.62.71.94,1.69.94,2.95s-.32,2.24-.94,2.94c-.63.71-1.48,1.06-2.58,1.06s-1.97-.35-2.59-1.06c-.62-.7-.92-1.68-.92-2.94s.31-2.24.92-2.95c.62-.7,1.48-1.06,2.59-1.06ZM358.07,167.67c-.67,0-1.2.27-1.6.8s-.59,1.25-.59,2.16.18,1.64.57,2.17c.39.53.92.78,1.61.78s1.2-.25,1.6-.78c.39-.53.59-1.25.59-2.17s-.2-1.62-.59-2.16-.92-.8-1.6-.8Z"/>
      <path d="M370.04,169.83v4.62h-1.26v-4.58c0-.73-.15-1.26-.43-1.62s-.7-.55-1.26-.55c-.69,0-1.22.22-1.61.66-.39.43-.59,1.02-.59,1.76v4.33h-1.26v-7.66h1.26v1.19c.29-.45.64-.8,1.06-1.02.41-.22.88-.35,1.41-.35.87,0,1.54.28,1.99.83.45.55.69,1.34.69,2.39Z"/>
      <path d="M373.3,170.63c0,.92.18,1.65.56,2.18.38.53.9.78,1.57.78s1.19-.25,1.58-.78c.38-.53.57-1.26.57-2.18s-.2-1.64-.57-2.17c-.39-.53-.91-.8-1.58-.8s-1.19.27-1.57.8c-.38.53-.56,1.25-.56,2.17ZM377.58,167.95v-4.14h1.26v10.64h-1.26v-1.15c-.27.46-.6.8-1.01,1.01s-.88.32-1.44.32c-.92,0-1.68-.36-2.27-1.09s-.87-1.71-.87-2.91.28-2.17.87-2.91c.59-.73,1.34-1.11,2.27-1.11.56,0,1.04.11,1.44.34s.74.56,1.01,1.01Z"/>
      <path d="M387.13,164.62v2.17h2.59v.98h-2.59v4.16c0,.63.08,1.04.25,1.2.17.18.52.27,1.05.27h1.29v1.05h-1.29c-.98,0-1.65-.18-2.02-.55-.36-.36-.55-1.02-.55-1.97v-4.16h-.92v-.98h.92v-2.17h1.26Z"/>
      <path d="M391.37,163.81h1.26v1.6h-1.26v-1.6ZM391.37,166.79h1.26v7.66h-1.26v-7.66Z"/>
      <path d="M400.56,169.94c-.01-.69-.21-1.23-.57-1.65-.38-.41-.88-.62-1.5-.62-.7,0-1.26.21-1.68.6-.42.39-.67.95-.73,1.67h4.48ZM401.82,170.31v.62h-5.78c.06.87.31,1.54.78,1.99.46.45,1.11.67,1.95.67.48,0,.95-.06,1.4-.17s.91-.29,1.36-.55v1.19c-.45.2-.91.35-1.39.43-.48.08-.97.14-1.44.14-1.23,0-2.2-.35-2.91-1.05-.71-.7-1.06-1.67-1.06-2.88s.34-2.24,1.01-2.98c.67-.73,1.6-1.11,2.74-1.11,1.04,0,1.85.34,2.45.99.59.67.9,1.57.9,2.7Z"/>
      <path d="M408.31,167.97c-.14-.08-.29-.14-.46-.18-.17-.03-.35-.06-.55-.06-.71,0-1.26.24-1.64.7-.39.46-.57,1.12-.57,1.99v4.03h-1.26v-7.66h1.26v1.19c.25-.46.6-.81,1.02-1.04s.94-.34,1.55-.34c.08,0,.18.01.29.01.1.01.21.03.35.06v1.29Z"/>
      <g>
        <rect class="cls-30" x="335.82" y="24.62" width="78.58" height="99.29" rx="2.6" ry="2.6"/>
        <rect class="cls-3" x="335.82" y="24.62" width="78.58" height="99.29" rx="2.6" ry="2.6"/>
      </g>
      <polygon class="cls-21" points="354.02 30.15 349.02 40.15 359.02 40.15 354.02 30.15"/>
      <polygon points="378.69 30.22 380.61 30.22 383.02 36.67 385.45 30.22 387.37 30.22 387.37 39.7 386.12 39.7 386.12 31.38 383.67 37.88 382.39 37.88 379.94 31.38 379.94 39.7 378.69 39.7 378.69 30.22"/>
      <polygon points="392.36 39.7 388.74 30.22 390.08 30.22 393.09 38.2 396.09 30.22 397.43 30.22 393.81 39.7 392.36 39.7"/>
      <rect x="398.81" y="30.22" width="1.29" height="9.48"/>
      <path d="M402.64,30.22h2.9c1.05,0,1.86.25,2.4.73.55.48.82,1.18.82,2.11s-.27,1.65-.82,2.12c-.55.48-1.35.71-2.4.71h-1.61v3.81h-1.29v-9.48ZM403.93,31.27v3.56h1.61c.6,0,1.05-.14,1.38-.45.33-.31.49-.75.49-1.33s-.17-1-.49-1.31c-.32-.31-.78-.47-1.38-.47h-1.61Z"/>
      <rect class="cls-6" x="349.02" y="49.23" width="10" height="10"/>
      <polygon points="378.69 49.3 379.98 49.3 379.98 57.7 384.6 57.7 384.6 58.77 378.69 58.77 378.69 49.3"/>
      <polygon points="385.94 49.3 391.38 49.3 391.38 50.38 387.22 50.38 387.22 53.17 390.98 53.17 390.98 54.25 387.22 54.25 387.22 58.77 385.94 58.77 385.94 49.3"/>
      <path d="M393.27,49.3h1.29v5.76c0,1.01.18,1.75.55,2.2.36.44.96.66,1.79.66s1.42-.22,1.78-.66c.36-.44.56-1.18.56-2.2v-5.76h1.29v5.91c0,1.25-.31,2.17-.92,2.8s-1.51.94-2.7.94-2.11-.31-2.72-.94c-.61-.62-.91-1.55-.91-2.8v-5.91Z"/>
      <path class="cls-8" d="M349.02,68.3l10,10M349.02,78.3l10-10"/>
      <polygon points="378.69 68.38 379.98 68.38 379.98 76.77 384.6 76.77 384.6 77.85 378.69 77.85 378.69 68.38"/>
      <path d="M387.22,69.43v3.37h1.61c.61,0,1.08-.14,1.39-.43.31-.29.48-.7.48-1.26s-.17-.96-.48-1.25c-.31-.29-.78-.43-1.39-.43h-1.61ZM390.43,73.41c.27.1.55.3.81.6.26.31.52.73.78,1.26l1.3,2.59h-1.38l-1.21-2.43c-.31-.62-.62-1.05-.91-1.26-.3-.21-.7-.31-1.21-.31h-1.39v4h-1.29v-9.48h2.9c1.08,0,1.89.23,2.42.68.53.45.81,1.14.81,2.05,0,.6-.14,1.11-.42,1.49-.29.39-.69.66-1.21.81Z"/>
      <path d="M394.83,68.38h1.29v5.76c0,1.01.18,1.75.55,2.2.36.44.96.66,1.79.66s1.42-.22,1.78-.66c.36-.44.56-1.18.56-2.2v-5.76h1.29v5.91c0,1.25-.31,2.17-.92,2.8s-1.51.94-2.7.94-2.11-.31-2.72-.94c-.61-.62-.91-1.55-.91-2.8v-5.91Z"/>
      <polygon class="cls-9" points="354.02 99.45 358.26 92.38 354.02 85.31 349.78 92.38 354.02 99.45"/>
      <polygon points="378.69 87.45 384.14 87.45 384.14 88.53 379.98 88.53 379.98 91.33 383.74 91.33 383.74 92.41 379.98 92.41 379.98 96.93 378.69 96.93 378.69 87.45"/>
      <rect x="386.17" y="87.45" width="1.29" height="9.48"/>
      <polygon points="390 87.45 395.45 87.45 395.45 88.53 391.29 88.53 391.29 91.33 395.05 91.33 395.05 92.41 391.29 92.41 391.29 96.93 390 96.93 390 87.45"/>
      <path d="M401.33,87.29c1.33,0,2.38.46,3.18,1.34.79.88,1.2,2.08,1.2,3.58s-.4,2.69-1.2,3.57c-.81.88-1.86,1.33-3.18,1.33s-2.4-.44-3.2-1.33c-.81-.88-1.2-2.07-1.2-3.57s.39-2.69,1.2-3.58c.79-.88,1.86-1.34,3.2-1.34ZM401.33,88.33c-.94,0-1.68.35-2.22,1.04-.55.7-.82,1.64-.82,2.83s.27,2.14.82,2.83c.55.7,1.29,1.04,2.22,1.04s1.66-.34,2.21-1.04c.55-.69.82-1.64.82-2.83s-.27-2.13-.82-2.83c-.55-.69-1.29-1.04-2.21-1.04Z"/>
      <path class="cls-23" d="M354.02,116.46c1.33,0,2.6-.53,3.54-1.46s1.46-2.21,1.46-3.54-.53-2.6-1.46-3.54-2.21-1.46-3.54-1.46-2.6.53-3.54,1.46c-.94.94-1.46,2.21-1.46,3.54s.53,2.6,1.46,3.54c.94.94,2.21,1.46,3.54,1.46Z"/>
      <path d="M378.55,106.53h1.29v5.76c0,1.01.18,1.76.55,2.2.36.44.96.66,1.79.66s1.42-.22,1.78-.66.56-1.18.56-2.2v-5.76h1.29v5.92c0,1.25-.31,2.17-.92,2.79-.61.62-1.51.94-2.7.94s-2.11-.31-2.72-.94c-.61-.62-.91-1.55-.91-2.79v-5.92Z"/>
      <polygon points="388.21 106.53 389.94 106.53 394.14 114.46 394.14 106.53 395.39 106.53 395.39 116.01 393.66 116.01 389.46 108.08 389.46 116.01 388.21 116.01 388.21 106.53"/>
      <rect x="397.93" y="106.53" width="1.29" height="9.48"/>
      <polygon points="401.77 106.53 407.22 106.53 407.22 107.61 403.06 107.61 403.06 110.41 406.81 110.41 406.81 111.49 403.06 111.49 403.06 116.01 401.77 116.01 401.77 106.53"/>
    </g>
  </g>
</svg>