<?xml version="1.0" encoding="UTF-8"?>
<svg id="Layer_1" data-name="Layer 1" xmlns="http://www.w3.org/2000/svg" version="1.1" xmlns:xlink="http://www.w3.org/1999/xlink" viewBox="0 0 419.1 339.19">
  <defs>
    <style>
      .cls-1, .cls-2, .cls-3, .cls-4, .cls-5, .cls-6, .cls-7, .cls-8, .cls-9, .cls-10, .cls-11, .cls-12, .cls-13, .cls-14, .cls-15, .cls-16, .cls-17, .cls-18, .cls-19, .cls-20, .cls-21, .cls-22, .cls-23, .cls-24, .cls-25, .cls-26, .cls-27 {
        fill: none;
      }

      .cls-1, .cls-3, .cls-4, .cls-5, .cls-9, .cls-10, .cls-11, .cls-12, .cls-13, .cls-14, .cls-15, .cls-16, .cls-18, .cls-19, .cls-22, .cls-24, .cls-25, .cls-26 {
        stroke-linejoin: round;
      }

      .cls-1, .cls-4, .cls-9, .cls-10, .cls-12, .cls-13, .cls-14, .cls-15, .cls-18, .cls-19, .cls-24, .cls-25 {
        stroke-width: 1.5px;
      }

      .cls-1, .cls-4, .cls-9, .cls-12, .cls-14, .cls-25 {
        stroke-dasharray: 0 0 5.55 2.4;
      }

      .cls-1, .cls-17, .cls-18, .cls-26 {
        stroke: #000;
      }

      .cls-28 {
        clip-path: url(#clippath-73);
      }

      .cls-29 {
        clip-path: url(#clippath-72);
      }

      .cls-30 {
        clip-path: url(#clippath-62);
      }

      .cls-31 {
        clip-path: url(#clippath-45);
      }

      .cls-32 {
        clip-path: url(#clippath-63);
      }

      .cls-33 {
        clip-path: url(#clippath-20);
      }

      .cls-34 {
        clip-path: url(#clippath-11);
      }

      .cls-35 {
        clip-path: url(#clippath-16);
      }

      .cls-2, .cls-7, .cls-8, .cls-17, .cls-20, .cls-21, .cls-23, .cls-27 {
        stroke-miterlimit: 10;
      }

      .cls-2, .cls-8, .cls-19, .cls-25 {
        stroke: #bf00bf;
      }

      .cls-36 {
        clip-path: url(#clippath-59);
      }

      .cls-37 {
        clip-path: url(#clippath-78);
      }

      .cls-38 {
        clip-path: url(#clippath-33);
      }

      .cls-39 {
        fill: #000;
      }

      .cls-39, .cls-6, .cls-40, .cls-41 {
        stroke-width: 0px;
      }

      .cls-42 {
        clip-path: url(#clippath-64);
      }

      .cls-43 {
        clip-path: url(#clippath-47);
      }

      .cls-44 {
        clip-path: url(#clippath-77);
      }

      .cls-3, .cls-4, .cls-5, .cls-15 {
        stroke: #bfbf00;
      }

      .cls-45 {
        clip-path: url(#clippath-41);
      }

      .cls-46 {
        clip-path: url(#clippath-32);
      }

      .cls-47 {
        clip-path: url(#clippath-83);
      }

      .cls-48 {
        clip-path: url(#clippath-2);
      }

      .cls-49 {
        clip-path: url(#clippath-13);
      }

      .cls-50 {
        clip-path: url(#clippath-37);
      }

      .cls-51 {
        clip-path: url(#clippath-46);
      }

      .cls-52 {
        clip-path: url(#clippath-25);
      }

      .cls-53 {
        clip-path: url(#clippath-15);
      }

      .cls-54 {
        clip-path: url(#clippath-6);
      }

      .cls-55 {
        clip-path: url(#clippath-76);
      }

      .cls-56 {
        clip-path: url(#clippath-40);
      }

      .cls-57 {
        clip-path: url(#clippath-26);
      }

      .cls-58 {
        clip-path: url(#clippath-81);
      }

      .cls-5, .cls-8, .cls-16, .cls-23, .cls-27 {
        stroke-width: 2px;
      }

      .cls-59 {
        clip-path: url(#clippath-75);
      }

      .cls-7 {
        stroke: #ccc;
      }

      .cls-7, .cls-22, .cls-41 {
        opacity: .5;
      }

      .cls-60 {
        clip-path: url(#clippath-7);
      }

      .cls-61 {
        clip-path: url(#clippath-21);
      }

      .cls-9, .cls-13, .cls-21, .cls-23 {
        stroke: red;
      }

      .cls-62 {
        clip-path: url(#clippath-34);
      }

      .cls-63 {
        clip-path: url(#clippath-57);
      }

      .cls-64 {
        clip-path: url(#clippath-1);
      }

      .cls-65 {
        clip-path: url(#clippath-4);
      }

      .cls-66 {
        clip-path: url(#clippath-38);
      }

      .cls-10, .cls-11, .cls-12, .cls-16 {
        stroke: green;
      }

      .cls-10, .cls-13, .cls-15, .cls-17, .cls-18, .cls-19, .cls-24 {
        stroke-linecap: square;
      }

      .cls-67 {
        clip-path: url(#clippath-36);
      }

      .cls-68 {
        clip-path: url(#clippath-27);
      }

      .cls-69 {
        clip-path: url(#clippath-60);
      }

      .cls-70 {
        clip-path: url(#clippath-44);
      }

      .cls-71 {
        clip-path: url(#clippath-12);
      }

      .cls-72 {
        clip-path: url(#clippath-80);
      }

      .cls-73 {
        clip-path: url(#clippath-24);
      }

      .cls-74 {
        clip-path: url(#clippath-30);
      }

      .cls-14, .cls-20, .cls-24, .cls-27 {
        stroke: blue;
      }

      .cls-75 {
        clip-path: url(#clippath-79);
      }

      .cls-76 {
        clip-path: url(#clippath-22);
      }

      .cls-77 {
        clip-path: url(#clippath-9);
      }

      .cls-78 {
        clip-path: url(#clippath-82);
      }

      .cls-79 {
        clip-path: url(#clippath-52);
      }

      .cls-80 {
        clip-path: url(#clippath);
      }

      .cls-81 {
        clip-path: url(#clippath-50);
      }

      .cls-82 {
        clip-path: url(#clippath-48);
      }

      .cls-83 {
        clip-path: url(#clippath-61);
      }

      .cls-84 {
        clip-path: url(#clippath-39);
      }

      .cls-85 {
        clip-path: url(#clippath-19);
      }

      .cls-86 {
        clip-path: url(#clippath-31);
      }

      .cls-87 {
        clip-path: url(#clippath-54);
      }

      .cls-88 {
        clip-path: url(#clippath-3);
      }

      .cls-17, .cls-22, .cls-26 {
        stroke-width: .8px;
      }

      .cls-89 {
        clip-path: url(#clippath-43);
      }

      .cls-90 {
        clip-path: url(#clippath-70);
      }

      .cls-91 {
        clip-path: url(#clippath-8);
      }

      .cls-92 {
        clip-path: url(#clippath-55);
      }

      .cls-93 {
        clip-path: url(#clippath-69);
      }

      .cls-40, .cls-41 {
        fill: #fff;
      }

      .cls-94 {
        clip-path: url(#clippath-29);
      }

      .cls-95 {
        clip-path: url(#clippath-18);
      }

      .cls-96 {
        clip-path: url(#clippath-14);
      }

      .cls-97 {
        clip-path: url(#clippath-17);
      }

      .cls-98 {
        clip-path: url(#clippath-5);
      }

      .cls-99 {
        clip-path: url(#clippath-58);
      }

      .cls-22 {
        stroke: #b0b0b0;
        stroke-dasharray: 0 0 2.96 1.28;
      }

      .cls-100 {
        clip-path: url(#clippath-42);
      }

      .cls-101 {
        clip-path: url(#clippath-65);
      }

      .cls-102 {
        clip-path: url(#clippath-10);
      }

      .cls-103 {
        clip-path: url(#clippath-23);
      }

      .cls-104 {
        clip-path: url(#clippath-74);
      }

      .cls-105 {
        clip-path: url(#clippath-56);
      }

      .cls-106 {
        clip-path: url(#clippath-53);
      }

      .cls-107 {
        clip-path: url(#clippath-49);
      }

      .cls-108 {
        clip-path: url(#clippath-67);
      }

      .cls-109 {
        clip-path: url(#clippath-51);
      }

      .cls-110 {
        clip-path: url(#clippath-28);
      }

      .cls-111 {
        clip-path: url(#clippath-71);
      }

      .cls-112 {
        clip-path: url(#clippath-68);
      }

      .cls-113 {
        clip-path: url(#clippath-35);
      }

      .cls-114 {
        clip-path: url(#clippath-66);
      }
    </style>
    <clipPath id="clippath">
      <rect class="cls-6" x="39.72" y="18.12" width="372.19" height="277.2"/>
    </clipPath>
    <clipPath id="clippath-1">
      <rect class="cls-6" x="39.72" y="18.12" width="372.19" height="277.2"/>
    </clipPath>
    <clipPath id="clippath-2">
      <rect class="cls-6" x="39.72" y="18.12" width="372.19" height="277.2"/>
    </clipPath>
    <clipPath id="clippath-3">
      <rect class="cls-6" x="39.72" y="18.12" width="372.19" height="277.2"/>
    </clipPath>
    <clipPath id="clippath-4">
      <rect class="cls-6" x="39.72" y="18.12" width="372.19" height="277.2"/>
    </clipPath>
    <clipPath id="clippath-5">
      <rect class="cls-6" x="39.72" y="18.12" width="372.19" height="277.2"/>
    </clipPath>
    <clipPath id="clippath-6">
      <rect class="cls-6" x="288.37" y="308.89" width="42.22" height="25.44"/>
    </clipPath>
    <clipPath id="clippath-7">
      <rect class="cls-6" x="39.72" y="18.12" width="372.19" height="277.2"/>
    </clipPath>
    <clipPath id="clippath-8">
      <rect class="cls-6" x="39.72" y="18.12" width="372.19" height="277.2"/>
    </clipPath>
    <clipPath id="clippath-9">
      <rect class="cls-6" x="39.72" y="18.12" width="372.19" height="277.2"/>
    </clipPath>
    <clipPath id="clippath-10">
      <rect class="cls-6" x="39.72" y="18.12" width="372.19" height="277.2"/>
    </clipPath>
    <clipPath id="clippath-11">
      <rect class="cls-6" x="39.72" y="18.12" width="372.19" height="277.2"/>
    </clipPath>
    <clipPath id="clippath-12">
      <rect class="cls-6" x="39.72" y="18.12" width="372.19" height="277.2"/>
    </clipPath>
    <clipPath id="clippath-13">
      <rect class="cls-6" x="39.72" y="18.12" width="372.19" height="277.2"/>
    </clipPath>
    <clipPath id="clippath-14">
      <rect class="cls-6" x="39.72" y="18.12" width="372.19" height="277.2"/>
    </clipPath>
    <clipPath id="clippath-15">
      <rect class="cls-6" x="48.63" y="197.19" width="16" height="16"/>
    </clipPath>
    <clipPath id="clippath-16">
      <rect class="cls-6" x="116.3" y="161.84" width="16" height="16"/>
    </clipPath>
    <clipPath id="clippath-17">
      <rect class="cls-6" x="183.97" y="138.69" width="16" height="16"/>
    </clipPath>
    <clipPath id="clippath-18">
      <rect class="cls-6" x="251.64" y="120" width="16" height="16"/>
    </clipPath>
    <clipPath id="clippath-19">
      <rect class="cls-6" x="319.31" y="104.22" width="16" height="16"/>
    </clipPath>
    <clipPath id="clippath-20">
      <rect class="cls-6" x="386.98" y="90.6" width="16" height="16"/>
    </clipPath>
    <clipPath id="clippath-21">
      <rect class="cls-6" x="39.72" y="18.12" width="372.19" height="277.2"/>
    </clipPath>
    <clipPath id="clippath-22">
      <rect class="cls-6" x="48.63" y="209.09" width="16" height="16"/>
    </clipPath>
    <clipPath id="clippath-23">
      <rect class="cls-6" x="116.3" y="203.9" width="16" height="16"/>
    </clipPath>
    <clipPath id="clippath-24">
      <rect class="cls-6" x="183.97" y="219.12" width="16" height="16"/>
    </clipPath>
    <clipPath id="clippath-25">
      <rect class="cls-6" x="251.64" y="231.31" width="16" height="16"/>
    </clipPath>
    <clipPath id="clippath-26">
      <rect class="cls-6" x="319.31" y="234.92" width="16" height="16"/>
    </clipPath>
    <clipPath id="clippath-27">
      <rect class="cls-6" x="386.98" y="234.11" width="16" height="16"/>
    </clipPath>
    <clipPath id="clippath-28">
      <rect class="cls-6" x="39.72" y="18.12" width="372.19" height="277.2"/>
    </clipPath>
    <clipPath id="clippath-29">
      <rect class="cls-6" x="48.63" y="183.29" width="16" height="16"/>
    </clipPath>
    <clipPath id="clippath-30">
      <rect class="cls-6" x="116.3" y="145.74" width="16" height="16"/>
    </clipPath>
    <clipPath id="clippath-31">
      <rect class="cls-6" x="183.97" y="123.25" width="16" height="16"/>
    </clipPath>
    <clipPath id="clippath-32">
      <rect class="cls-6" x="251.64" y="105.85" width="16" height="16"/>
    </clipPath>
    <clipPath id="clippath-33">
      <rect class="cls-6" x="319.31" y="91.25" width="16" height="16"/>
    </clipPath>
    <clipPath id="clippath-34">
      <rect class="cls-6" x="386.98" y="77.84" width="16" height="16"/>
    </clipPath>
    <clipPath id="clippath-35">
      <rect class="cls-6" x="39.72" y="18.12" width="372.19" height="277.2"/>
    </clipPath>
    <clipPath id="clippath-36">
      <rect class="cls-6" x="48.63" y="202.55" width="16" height="16"/>
    </clipPath>
    <clipPath id="clippath-37">
      <rect class="cls-6" x="116.3" y="205.63" width="16" height="16"/>
    </clipPath>
    <clipPath id="clippath-38">
      <rect class="cls-6" x="183.97" y="225.55" width="16" height="16"/>
    </clipPath>
    <clipPath id="clippath-39">
      <rect class="cls-6" x="251.64" y="237.9" width="16" height="16"/>
    </clipPath>
    <clipPath id="clippath-40">
      <rect class="cls-6" x="319.31" y="240.37" width="16" height="16"/>
    </clipPath>
    <clipPath id="clippath-41">
      <rect class="cls-6" x="386.98" y="239.17" width="16" height="16"/>
    </clipPath>
    <clipPath id="clippath-42">
      <rect class="cls-6" x="39.72" y="18.12" width="372.19" height="277.2"/>
    </clipPath>
    <clipPath id="clippath-43">
      <rect class="cls-6" x="48.63" y="154.94" width="16" height="16"/>
    </clipPath>
    <clipPath id="clippath-44">
      <rect class="cls-6" x="116.3" y="110.58" width="16" height="16"/>
    </clipPath>
    <clipPath id="clippath-45">
      <rect class="cls-6" x="183.97" y="81.2" width="16" height="16"/>
    </clipPath>
    <clipPath id="clippath-46">
      <rect class="cls-6" x="251.64" y="57.88" width="16" height="16"/>
    </clipPath>
    <clipPath id="clippath-47">
      <rect class="cls-6" x="319.31" y="39.22" width="16" height="16"/>
    </clipPath>
    <clipPath id="clippath-48">
      <rect class="cls-6" x="386.98" y="22.72" width="16" height="16"/>
    </clipPath>
    <clipPath id="clippath-49">
      <rect class="cls-6" x="39.72" y="18.12" width="372.19" height="277.2"/>
    </clipPath>
    <clipPath id="clippath-50">
      <rect class="cls-6" x="48.63" y="272.48" width="16" height="16"/>
    </clipPath>
    <clipPath id="clippath-51">
      <rect class="cls-6" x="116.3" y="264.11" width="16" height="16"/>
    </clipPath>
    <clipPath id="clippath-52">
      <rect class="cls-6" x="183.97" y="257.35" width="16" height="16"/>
    </clipPath>
    <clipPath id="clippath-53">
      <rect class="cls-6" x="251.64" y="251.38" width="16" height="16"/>
    </clipPath>
    <clipPath id="clippath-54">
      <rect class="cls-6" x="319.31" y="246.12" width="16" height="16"/>
    </clipPath>
    <clipPath id="clippath-55">
      <rect class="cls-6" x="386.98" y="241.38" width="16" height="16"/>
    </clipPath>
    <clipPath id="clippath-56">
      <rect class="cls-6" x="39.72" y="18.12" width="372.19" height="277.2"/>
    </clipPath>
    <clipPath id="clippath-57">
      <rect class="cls-6" x="49.09" y="221.68" width="15.09" height="18.49"/>
    </clipPath>
    <clipPath id="clippath-58">
      <rect class="cls-6" x="116.76" y="189.8" width="15.09" height="18.49"/>
    </clipPath>
    <clipPath id="clippath-59">
      <rect class="cls-6" x="184.43" y="165.16" width="15.09" height="18.49"/>
    </clipPath>
    <clipPath id="clippath-60">
      <rect class="cls-6" x="252.1" y="144.31" width="15.09" height="18.49"/>
    </clipPath>
    <clipPath id="clippath-61">
      <rect class="cls-6" x="319.77" y="126.51" width="15.09" height="18.49"/>
    </clipPath>
    <clipPath id="clippath-62">
      <rect class="cls-6" x="387.44" y="111.47" width="15.09" height="18.49"/>
    </clipPath>
    <clipPath id="clippath-63">
      <rect class="cls-6" x="39.72" y="18.12" width="372.19" height="277.2"/>
    </clipPath>
    <clipPath id="clippath-64">
      <rect class="cls-6" x="49.09" y="273.48" width="15.09" height="18.49"/>
    </clipPath>
    <clipPath id="clippath-65">
      <rect class="cls-6" x="116.76" y="264.89" width="15.09" height="18.49"/>
    </clipPath>
    <clipPath id="clippath-66">
      <rect class="cls-6" x="184.43" y="257.74" width="15.09" height="18.49"/>
    </clipPath>
    <clipPath id="clippath-67">
      <rect class="cls-6" x="252.1" y="251.44" width="15.09" height="18.49"/>
    </clipPath>
    <clipPath id="clippath-68">
      <rect class="cls-6" x="319.77" y="245.86" width="15.09" height="18.49"/>
    </clipPath>
    <clipPath id="clippath-69">
      <rect class="cls-6" x="387.44" y="240.94" width="15.09" height="18.49"/>
    </clipPath>
    <clipPath id="clippath-70">
      <rect class="cls-6" x="39.72" y="18.12" width="372.19" height="277.2"/>
    </clipPath>
    <clipPath id="clippath-71">
      <rect class="cls-6" x="48.63" y="191.53" width="16" height="16"/>
    </clipPath>
    <clipPath id="clippath-72">
      <rect class="cls-6" x="116.3" y="150.62" width="16" height="16"/>
    </clipPath>
    <clipPath id="clippath-73">
      <rect class="cls-6" x="183.97" y="122.51" width="16" height="16"/>
    </clipPath>
    <clipPath id="clippath-74">
      <rect class="cls-6" x="251.64" y="98.87" width="16" height="16"/>
    </clipPath>
    <clipPath id="clippath-75">
      <rect class="cls-6" x="319.31" y="79.1" width="16" height="16"/>
    </clipPath>
    <clipPath id="clippath-76">
      <rect class="cls-6" x="386.98" y="63.79" width="16" height="16"/>
    </clipPath>
    <clipPath id="clippath-77">
      <rect class="cls-6" x="39.72" y="18.12" width="372.19" height="277.2"/>
    </clipPath>
    <clipPath id="clippath-78">
      <rect class="cls-6" x="48.63" y="270.96" width="16" height="16"/>
    </clipPath>
    <clipPath id="clippath-79">
      <rect class="cls-6" x="116.3" y="260.36" width="16" height="16"/>
    </clipPath>
    <clipPath id="clippath-80">
      <rect class="cls-6" x="183.97" y="251.89" width="16" height="16"/>
    </clipPath>
    <clipPath id="clippath-81">
      <rect class="cls-6" x="251.64" y="244.56" width="16" height="16"/>
    </clipPath>
    <clipPath id="clippath-82">
      <rect class="cls-6" x="319.31" y="238.38" width="16" height="16"/>
    </clipPath>
    <clipPath id="clippath-83">
      <rect class="cls-6" x="386.98" y="232.84" width="16" height="16"/>
    </clipPath>
  </defs>
  <rect class="cls-40" width="419.1" height="339.19"/>
  <rect class="cls-40" x="39.72" y="18.12" width="372.19" height="277.2"/>
  <g class="cls-80">
    <line class="cls-22" x1="56.63" y1="295.32" x2="56.63" y2="18.12"/>
  </g>
  <line class="cls-39" x1="56.63" y1="295.32" x2="56.63" y2="298.82"/>
  <line class="cls-26" x1="56.63" y1="295.32" x2="56.63" y2="298.82"/>
  <polygon class="cls-39" points="54.69 309.09 56.3 309.09 56.3 303.53 54.55 303.88 54.55 302.98 56.29 302.63 57.28 302.63 57.28 309.09 58.89 309.09 58.89 309.92 54.69 309.92 54.69 309.09"/>
  <g class="cls-64">
    <line class="cls-22" x1="124.3" y1="295.32" x2="124.3" y2="18.12"/>
  </g>
  <line class="cls-39" x1="124.3" y1="295.32" x2="124.3" y2="298.82"/>
  <line class="cls-26" x1="124.3" y1="295.32" x2="124.3" y2="298.82"/>
  <path class="cls-39" d="M123.04,309.09h3.44v.83h-4.63v-.83c.37-.38.88-.9,1.53-1.56.64-.65,1.05-1.07,1.22-1.26.32-.35.54-.65.66-.9.12-.24.19-.49.19-.73,0-.38-.14-.7-.41-.94-.27-.24-.62-.37-1.06-.37-.31,0-.64.06-.98.16-.34.11-.71.27-1.1.49v-1c.4-.16.77-.28,1.11-.36.34-.08.66-.12.95-.12.75,0,1.35.19,1.8.57.45.38.68.88.68,1.51,0,.3-.06.59-.17.85-.11.27-.31.59-.61.95-.08.1-.34.37-.78.82-.44.45-1.05,1.08-1.84,1.89Z"/>
  <g class="cls-48">
    <line class="cls-22" x1="191.97" y1="295.32" x2="191.97" y2="18.12"/>
  </g>
  <line class="cls-39" x1="191.97" y1="295.32" x2="191.97" y2="298.82"/>
  <line class="cls-26" x1="191.97" y1="295.32" x2="191.97" y2="298.82"/>
  <path class="cls-39" d="M192.85,305.99c.47.1.84.31,1.1.63.26.32.4.72.4,1.18,0,.72-.25,1.28-.74,1.67-.5.39-1.2.58-2.11.58-.31,0-.63-.03-.95-.09-.32-.05-.66-.14-1-.26v-.95c.27.16.57.28.9.36.32.08.66.12,1.02.12.62,0,1.09-.12,1.41-.36.32-.24.49-.6.49-1.07,0-.42-.15-.76-.45-1-.3-.24-.72-.37-1.26-.37h-.85v-.81h.89c.48,0,.85-.09,1.11-.29.26-.19.39-.47.39-.84s-.14-.66-.4-.86c-.27-.2-.65-.3-1.14-.3-.27,0-.56.03-.87.09s-.65.15-1.02.27v-.88c.37-.1.72-.18,1.05-.23.32-.05.63-.08.93-.08.74,0,1.33.17,1.77.51s.66.8.66,1.38c0,.4-.12.74-.35,1.02-.23.28-.56.48-.98.58Z"/>
  <g class="cls-88">
    <line class="cls-22" x1="259.64" y1="295.32" x2="259.64" y2="18.12"/>
  </g>
  <line class="cls-39" x1="259.64" y1="295.32" x2="259.64" y2="298.82"/>
  <line class="cls-26" x1="259.64" y1="295.32" x2="259.64" y2="298.82"/>
  <path class="cls-39" d="M259.98,302.63h1.24v4.75h1.04v.82h-1.04v1.72h-.98v-1.72h-3.29v-.95l3.03-4.62ZM260.24,303.49l-2.49,3.89h2.49v-3.89Z"/>
  <g class="cls-65">
    <line class="cls-22" x1="327.31" y1="295.32" x2="327.31" y2="18.12"/>
  </g>
  <line class="cls-39" x1="327.31" y1="295.32" x2="327.31" y2="298.82"/>
  <line class="cls-26" x1="327.31" y1="295.32" x2="327.31" y2="298.82"/>
  <path class="cls-39" d="M325.21,302.63h3.87v.83h-2.97v1.79c.14-.05.29-.09.43-.11.14-.02.29-.04.43-.04.81,0,1.45.23,1.93.67.48.45.72,1.05.72,1.81s-.25,1.4-.74,1.83-1.18.64-2.06.64c-.31,0-.62-.03-.94-.07-.32-.05-.64-.12-.98-.23v-.99c.29.16.59.28.91.36.31.08.64.11.99.11.56,0,1.01-.14,1.34-.44.32-.3.49-.7.49-1.21s-.17-.9-.49-1.2c-.33-.3-.78-.45-1.34-.45-.26,0-.53.03-.79.09-.26.06-.53.15-.8.27v-3.66Z"/>
  <g class="cls-98">
    <line class="cls-22" x1="394.98" y1="295.32" x2="394.98" y2="18.12"/>
  </g>
  <line class="cls-39" x1="394.98" y1="295.32" x2="394.98" y2="298.82"/>
  <line class="cls-26" x1="394.98" y1="295.32" x2="394.98" y2="298.82"/>
  <path class="cls-39" d="M397.06,302.79v.9c-.25-.12-.5-.21-.75-.27-.26-.06-.51-.09-.75-.09-.66,0-1.16.22-1.5.66s-.54,1.11-.58,1.99c.19-.28.43-.5.72-.65s.61-.23.96-.23c.73,0,1.31.23,1.73.67.42.44.64,1.05.64,1.81s-.23,1.35-.67,1.8c-.44.45-1.03.67-1.76.67-.84,0-1.49-.32-1.93-.96-.45-.64-.67-1.58-.67-2.81,0-1.15.27-2.07.82-2.75.54-.68,1.28-1.03,2.2-1.03.24,0,.49.03.75.07.25.05.51.12.79.22ZM395.1,305.88c-.44,0-.79.16-1.05.46-.26.3-.39.72-.39,1.24s.13.95.39,1.25.61.45,1.05.45.79-.15,1.05-.45c.26-.3.39-.72.39-1.25s-.13-.94-.39-1.24c-.26-.3-.61-.46-1.05-.46Z"/>
  <path class="cls-39" d="M133.1,316.45h1.68l4.17,10.94h-1.54l-.99-2.81h-4.93l-.99,2.81h-1.56l4.17-10.94ZM133.94,317.9l-2.01,5.44h4.02l-2.01-5.44Z"/>
  <path class="cls-39" d="M141.29,323.29c0,.99.19,1.77.6,2.34.4.57.96.84,1.68.84s1.27-.27,1.7-.84c.4-.57.61-1.35.61-2.34s-.21-1.75-.61-2.32c-.42-.57-.98-.86-1.7-.86s-1.27.28-1.68.86c-.41.57-.6,1.33-.6,2.32ZM145.88,320.42v-4.44h1.35v11.4h-1.35v-1.23c-.29.5-.65.86-1.08,1.08-.43.22-.94.34-1.54.34-.99,0-1.8-.39-2.43-1.17-.63-.78-.93-1.83-.93-3.12s.3-2.32.93-3.12c.63-.78,1.44-1.18,2.43-1.18.6,0,1.11.12,1.54.36s.79.6,1.08,1.08Z"/>
  <path class="cls-39" d="M150.81,323.29c0,.99.19,1.77.6,2.34.4.57.96.84,1.68.84s1.27-.27,1.7-.84c.4-.57.61-1.35.61-2.34s-.21-1.75-.61-2.32c-.42-.57-.98-.86-1.7-.86s-1.27.28-1.68.86c-.41.57-.6,1.33-.6,2.32ZM155.4,320.42v-4.44h1.35v11.4h-1.35v-1.23c-.29.5-.65.86-1.08,1.08-.43.22-.94.34-1.54.34-.99,0-1.8-.39-2.43-1.17-.63-.78-.93-1.83-.93-3.12s.3-2.32.93-3.12c.63-.78,1.44-1.18,2.43-1.18.6,0,1.11.12,1.54.36s.79.6,1.08,1.08Z"/>
  <path class="cls-39" d="M165.19,322.55c-.01-.73-.23-1.32-.62-1.77-.4-.44-.94-.66-1.6-.66-.75,0-1.35.22-1.8.64s-.72,1.02-.78,1.78h4.8ZM166.54,322.94v.66h-6.19c.06.93.33,1.65.84,2.13.5.48,1.18.72,2.09.72.51,0,1.02-.06,1.5-.18.48-.12.97-.32,1.46-.59v1.27c-.48.21-.98.38-1.49.47-.51.09-1.04.15-1.54.15-1.32,0-2.36-.38-3.12-1.12s-1.14-1.78-1.14-3.09.36-2.4,1.08-3.2c.72-.78,1.71-1.18,2.94-1.18,1.11,0,1.98.36,2.62,1.07.63.72.96,1.68.96,2.9Z"/>
  <path class="cls-39" d="M169.56,323.29c0,.99.19,1.77.6,2.34.4.57.96.84,1.68.84s1.27-.27,1.7-.84c.4-.57.61-1.35.61-2.34s-.21-1.75-.61-2.32c-.42-.57-.98-.86-1.7-.86s-1.27.28-1.68.86c-.41.57-.6,1.33-.6,2.32ZM174.15,320.42v-4.44h1.35v11.4h-1.35v-1.23c-.29.5-.65.86-1.08,1.08-.43.22-.94.34-1.54.34-.99,0-1.8-.39-2.43-1.17-.63-.78-.93-1.83-.93-3.12s.3-2.32.93-3.12c.63-.78,1.44-1.18,2.43-1.18.6,0,1.11.12,1.54.36s.79.6,1.08,1.08Z"/>
  <path class="cls-39" d="M188.95,319.49v1.26c-.39-.21-.77-.36-1.16-.47s-.76-.16-1.15-.16c-.87,0-1.56.28-2.04.84-.48.55-.72,1.33-.72,2.32s.24,1.78.72,2.34,1.17.82,2.04.82c.39,0,.76-.05,1.15-.15.39-.11.76-.27,1.16-.48v1.25c-.39.18-.78.31-1.17.39-.4.07-.84.12-1.29.12-1.23,0-2.22-.38-2.94-1.15-.74-.77-1.1-1.82-1.1-3.14s.36-2.39,1.1-3.15,1.74-1.16,3.03-1.16c.42,0,.82.05,1.21.14s.78.21,1.16.38Z"/>
  <path class="cls-39" d="M197.71,322.7v4.68h-1.35v-1.24c-.32.51-.71.87-1.15,1.1-.45.22-1.02.34-1.68.34-.84,0-1.51-.22-2.01-.69-.49-.47-.74-1.1-.74-1.89,0-.91.3-1.61.93-2.09.62-.47,1.53-.7,2.76-.7h1.89v-.14c0-.61-.21-1.09-.61-1.44-.4-.33-.98-.51-1.71-.51-.48,0-.93.06-1.38.18-.45.12-.87.29-1.27.5v-1.25c.48-.18.96-.33,1.43-.42s.91-.15,1.36-.15c1.19,0,2.07.32,2.66.93.58.61.88,1.55.88,2.79ZM195.02,323.26c-1.1,0-1.85.13-2.26.38-.42.26-.63.68-.63,1.27,0,.48.15.87.46,1.14.32.28.75.42,1.29.42.75,0,1.35-.26,1.8-.8.45-.52.68-1.23.68-2.11v-.3h-1.33Z"/>
  <path class="cls-39" d="M206.39,319.49v1.26c-.39-.21-.77-.36-1.16-.47s-.76-.16-1.15-.16c-.87,0-1.56.28-2.04.84-.48.55-.72,1.33-.72,2.32s.24,1.78.72,2.34,1.17.82,2.04.82c.39,0,.76-.05,1.15-.15.39-.11.76-.27,1.16-.48v1.25c-.39.18-.78.31-1.17.39-.4.07-.84.12-1.29.12-1.23,0-2.22-.38-2.94-1.15-.74-.77-1.1-1.82-1.1-3.14s.36-2.39,1.1-3.15,1.74-1.16,3.03-1.16c.42,0,.82.05,1.21.14s.78.21,1.16.38Z"/>
  <path class="cls-39" d="M215.55,322.43v4.95h-1.35v-4.9c0-.78-.16-1.35-.46-1.74-.3-.39-.75-.58-1.35-.58-.74,0-1.31.24-1.73.7s-.63,1.09-.63,1.89v4.63h-1.35v-11.4h1.35v4.47c.32-.48.69-.85,1.14-1.09.43-.24.95-.38,1.51-.38.93,0,1.65.3,2.13.89s.74,1.44.74,2.57Z"/>
  <path class="cls-39" d="M223.9,322.55c-.01-.73-.23-1.32-.62-1.77-.4-.44-.94-.66-1.6-.66-.75,0-1.35.22-1.8.64s-.72,1.02-.78,1.78h4.8ZM225.25,322.94v.66h-6.19c.06.93.33,1.65.84,2.13.5.48,1.18.72,2.09.72.51,0,1.02-.06,1.5-.18.48-.12.97-.32,1.46-.59v1.27c-.48.21-.98.38-1.49.47-.51.09-1.04.15-1.54.15-1.32,0-2.36-.38-3.12-1.12s-1.14-1.78-1.14-3.09.36-2.4,1.08-3.2c.72-.78,1.71-1.18,2.94-1.18,1.11,0,1.98.36,2.62,1.07.63.72.96,1.68.96,2.9Z"/>
  <path class="cls-39" d="M238.14,319.49v1.26c-.39-.21-.77-.36-1.16-.47s-.76-.16-1.15-.16c-.87,0-1.56.28-2.04.84-.48.55-.72,1.33-.72,2.32s.24,1.78.72,2.34,1.17.82,2.04.82c.39,0,.76-.05,1.15-.15.39-.11.76-.27,1.16-.48v1.25c-.39.18-.78.31-1.17.39-.4.07-.84.12-1.29.12-1.23,0-2.22-.38-2.94-1.15-.74-.77-1.1-1.82-1.1-3.14s.36-2.39,1.1-3.15,1.74-1.16,3.03-1.16c.42,0,.82.05,1.21.14s.78.21,1.16.38Z"/>
  <path class="cls-39" d="M246.9,322.7v4.68h-1.35v-1.24c-.32.51-.71.87-1.15,1.1-.45.22-1.02.34-1.68.34-.84,0-1.51-.22-2.01-.69-.49-.47-.74-1.1-.74-1.89,0-.91.3-1.61.93-2.09.62-.47,1.53-.7,2.76-.7h1.89v-.14c0-.61-.21-1.09-.61-1.44-.4-.33-.98-.51-1.71-.51-.48,0-.93.06-1.38.18-.45.12-.87.29-1.27.5v-1.25c.48-.18.96-.33,1.43-.42s.91-.15,1.36-.15c1.19,0,2.07.32,2.66.93.58.61.88,1.55.88,2.79ZM244.21,323.26c-1.1,0-1.85.13-2.26.38-.42.26-.63.68-.63,1.27,0,.48.15.87.46,1.14.32.28.75.42,1.29.42.75,0,1.35-.26,1.8-.8.45-.52.68-1.23.68-2.11v-.3h-1.33Z"/>
  <path class="cls-39" d="M255.56,323.29c0-.99-.21-1.75-.61-2.32-.42-.57-.98-.86-1.68-.86s-1.27.28-1.68.86c-.42.57-.62,1.33-.62,2.32s.2,1.77.62,2.34c.4.57.96.84,1.68.84s1.26-.27,1.68-.84c.4-.57.61-1.35.61-2.34ZM250.97,326.15v4.34h-1.35v-11.31h1.35v1.24c.27-.48.63-.84,1.07-1.08s.96-.36,1.56-.36c.99,0,1.8.41,2.43,1.18.62.8.93,1.83.93,3.12s-.32,2.34-.93,3.12c-.63.78-1.44,1.17-2.43,1.17-.6,0-1.12-.12-1.56-.34-.43-.23-.79-.59-1.07-1.08Z"/>
  <path class="cls-39" d="M265.61,322.7v4.68h-1.35v-1.24c-.32.51-.71.87-1.15,1.1-.45.22-1.02.34-1.68.34-.84,0-1.51-.22-2.01-.69s-.74-1.1-.74-1.89c0-.91.3-1.61.93-2.09.62-.47,1.53-.7,2.76-.7h1.89v-.14c0-.61-.21-1.09-.62-1.44-.4-.33-.97-.51-1.71-.51-.48,0-.93.06-1.38.18-.45.12-.87.29-1.27.5v-1.25c.48-.18.96-.33,1.42-.42.47-.09.92-.15,1.37-.15,1.18,0,2.07.32,2.65.93.58.61.88,1.55.88,2.79ZM262.93,323.26c-1.1,0-1.85.13-2.26.38-.42.26-.63.68-.63,1.27,0,.48.15.87.46,1.14.32.28.75.42,1.29.42.75,0,1.35-.26,1.8-.8.45-.52.68-1.23.68-2.11v-.3h-1.34Z"/>
  <path class="cls-39" d="M274.29,319.49v1.26c-.39-.21-.77-.36-1.15-.47-.39-.1-.77-.16-1.15-.16-.87,0-1.56.28-2.04.84-.48.55-.72,1.33-.72,2.32s.24,1.78.72,2.34,1.17.82,2.04.82c.39,0,.76-.05,1.15-.15.39-.11.76-.27,1.15-.48v1.25c-.39.18-.78.31-1.17.39-.4.07-.84.12-1.29.12-1.23,0-2.22-.38-2.94-1.15-.74-.77-1.1-1.82-1.1-3.14s.36-2.39,1.1-3.15c.73-.76,1.74-1.16,3.03-1.16.42,0,.82.05,1.21.14.39.09.78.21,1.15.38Z"/>
  <path class="cls-39" d="M276.63,315.98h1.35v1.71h-1.35v-1.71ZM276.63,319.18h1.35v8.2h-1.35v-8.2Z"/>
  <path class="cls-39" d="M282.13,316.85v2.33h2.77v1.05h-2.77v4.45c0,.67.09,1.11.27,1.29.18.19.55.28,1.12.28h1.38v1.12h-1.38c-1.05,0-1.77-.19-2.16-.59-.39-.39-.59-1.1-.59-2.11v-4.45h-.99v-1.05h.99v-2.33h1.35Z"/>
  <path class="cls-39" d="M290.1,328.13c-.39.96-.76,1.61-1.12,1.9-.36.3-.84.45-1.44.45h-1.08v-1.12h.8c.36,0,.64-.09.85-.27.21-.18.43-.59.69-1.24l.24-.6-3.32-8.07h1.42l2.57,6.42,2.57-6.42h1.42l-3.6,8.95Z"/>
  <polygon class="cls-39" points="295.9 325.52 297.45 325.52 297.45 326.78 296.25 329.11 295.3 329.11 295.9 326.78 295.9 325.52"/>
  <polygon class="cls-39" points="316.46 316.45 317.95 316.45 316.07 326.15 321.4 326.15 321.16 327.38 314.35 327.38 316.46 316.45"/>
  <g class="cls-54">
    <path class="cls-39" d="M303.8,327.38l4.17-10.93h1.68l4.17,10.93h-10.02ZM308.81,317.9l-3,8.25h6l-3-8.25Z"/>
  </g>
  <g class="cls-60">
    <line class="cls-22" x1="39.72" y1="294.35" x2="411.9" y2="294.35"/>
  </g>
  <line class="cls-39" x1="39.72" y1="294.35" x2="36.22" y2="294.35"/>
  <line class="cls-26" x1="39.72" y1="294.35" x2="36.22" y2="294.35"/>
  <path class="cls-39" d="M28.9,290.15c.81,0,1.43.33,1.87.97.43.65.65,1.59.65,2.81s-.22,2.17-.65,2.81c-.44.64-1.06.96-1.88.96s-1.44-.32-1.87-.96c-.43-.64-.64-1.58-.64-2.81s.21-2.16.64-2.81c.43-.64,1.06-.97,1.88-.97ZM28.9,290.93c-.51,0-.89.25-1.15.75s-.38,1.25-.38,2.25.12,1.75.38,2.25.64.75,1.15.75.89-.25,1.15-.75c.25-.5.38-1.25.38-2.25s-.13-1.75-.38-2.25c-.26-.5-.64-.75-1.15-.75Z"/>
  <g class="cls-91">
    <line class="cls-22" x1="39.72" y1="253.23" x2="411.9" y2="253.23"/>
  </g>
  <line class="cls-39" x1="39.72" y1="253.23" x2="36.22" y2="253.23"/>
  <line class="cls-26" x1="39.72" y1="253.23" x2="36.22" y2="253.23"/>
  <polygon class="cls-39" points="26.96 255.49 28.57 255.49 28.57 249.93 26.82 250.28 26.82 249.38 28.56 249.03 29.55 249.03 29.55 255.49 31.16 255.49 31.16 256.32 26.96 256.32 26.96 255.49"/>
  <g class="cls-77">
    <line class="cls-22" x1="39.72" y1="212.11" x2="411.9" y2="212.11"/>
  </g>
  <line class="cls-39" x1="39.72" y1="212.11" x2="36.22" y2="212.11"/>
  <line class="cls-26" x1="39.72" y1="212.11" x2="36.22" y2="212.11"/>
  <path class="cls-39" d="M27.64,214.5h3.44v.83h-4.63v-.83c.37-.38.88-.9,1.53-1.56.64-.65,1.05-1.07,1.22-1.26.32-.35.54-.65.66-.9.12-.24.19-.49.19-.73,0-.38-.14-.7-.41-.94-.27-.24-.62-.37-1.06-.37-.31,0-.64.06-.98.16-.34.11-.71.27-1.1.49v-1c.4-.16.77-.28,1.11-.36s.66-.12.95-.12c.75,0,1.35.19,1.8.57.45.38.68.88.68,1.51,0,.3-.06.59-.17.85-.11.27-.31.59-.61.95-.08.1-.34.37-.78.82-.44.45-1.05,1.08-1.84,1.89Z"/>
  <g class="cls-102">
    <line class="cls-22" x1="39.72" y1="170.99" x2="411.9" y2="170.99"/>
  </g>
  <line class="cls-39" x1="39.72" y1="170.99" x2="36.22" y2="170.99"/>
  <line class="cls-26" x1="39.72" y1="170.99" x2="36.22" y2="170.99"/>
  <path class="cls-39" d="M29.78,170.28c.47.1.84.31,1.1.63.26.32.4.72.4,1.18,0,.72-.25,1.28-.74,1.67-.5.39-1.2.58-2.11.58-.31,0-.63-.03-.95-.09-.32-.05-.66-.14-1-.26v-.95c.27.16.57.28.9.36.32.08.66.12,1.02.12.62,0,1.09-.12,1.41-.36.32-.24.49-.6.49-1.07,0-.42-.15-.76-.45-1-.3-.24-.72-.37-1.26-.37h-.85v-.81h.89c.48,0,.85-.09,1.11-.29.26-.19.39-.47.39-.84s-.14-.66-.4-.86c-.27-.2-.65-.3-1.14-.3-.27,0-.56.03-.87.09s-.65.15-1.02.27v-.88c.37-.1.72-.18,1.05-.23.32-.05.63-.08.93-.08.74,0,1.33.17,1.77.51.44.34.66.8.66,1.38,0,.4-.12.74-.35,1.02s-.56.48-.98.58Z"/>
  <g class="cls-34">
    <line class="cls-22" x1="39.72" y1="129.87" x2="411.9" y2="129.87"/>
  </g>
  <line class="cls-39" x1="39.72" y1="129.87" x2="36.22" y2="129.87"/>
  <line class="cls-26" x1="39.72" y1="129.87" x2="36.22" y2="129.87"/>
  <path class="cls-39" d="M29.24,125.67h1.24v4.75h1.04v.82h-1.04v1.72h-.98v-1.72h-3.29v-.95l3.03-4.62ZM29.5,126.53l-2.49,3.89h2.49v-3.89Z"/>
  <g class="cls-71">
    <line class="cls-22" x1="39.72" y1="88.75" x2="411.9" y2="88.75"/>
  </g>
  <line class="cls-39" x1="39.72" y1="88.75" x2="36.22" y2="88.75"/>
  <line class="cls-26" x1="39.72" y1="88.75" x2="36.22" y2="88.75"/>
  <path class="cls-39" d="M26.8,84.55h3.87v.83h-2.97v1.79c.14-.05.29-.09.43-.11s.29-.04.43-.04c.81,0,1.45.23,1.93.67.48.45.72,1.05.72,1.81s-.25,1.4-.74,1.83c-.49.43-1.18.64-2.06.64-.31,0-.62-.03-.94-.07-.32-.05-.64-.12-.98-.23v-.99c.29.16.59.28.91.36.31.08.64.11.99.11.56,0,1.01-.14,1.34-.44.32-.3.49-.7.49-1.21s-.17-.9-.49-1.2c-.33-.3-.78-.45-1.34-.45-.26,0-.53.03-.79.09-.26.06-.53.15-.8.27v-3.66Z"/>
  <g class="cls-49">
    <line class="cls-22" x1="39.72" y1="47.63" x2="411.9" y2="47.63"/>
  </g>
  <line class="cls-39" x1="39.72" y1="47.63" x2="36.22" y2="47.63"/>
  <line class="cls-26" x1="39.72" y1="47.63" x2="36.22" y2="47.63"/>
  <path class="cls-39" d="M30.98,43.72v.9c-.25-.12-.5-.21-.75-.27-.26-.06-.51-.09-.75-.09-.66,0-1.16.22-1.5.66s-.54,1.11-.58,1.99c.19-.28.43-.5.72-.65.29-.15.61-.23.96-.23.73,0,1.31.23,1.73.67s.64,1.05.64,1.81-.23,1.35-.67,1.8c-.44.45-1.03.67-1.76.67-.84,0-1.49-.32-1.93-.96-.45-.64-.67-1.58-.67-2.81,0-1.15.27-2.07.82-2.75.54-.68,1.28-1.03,2.2-1.03.24,0,.49.03.75.07.25.05.51.12.79.22ZM29.02,46.81c-.44,0-.79.16-1.05.46-.26.3-.39.72-.39,1.24s.13.95.39,1.25c.26.3.61.45,1.05.45s.79-.15,1.05-.45c.26-.3.39-.72.39-1.25s-.13-.94-.39-1.24c-.26-.3-.61-.46-1.05-.46Z"/>
  <polygon class="cls-39" points="7.66 285.52 7.66 276.28 8.9 276.28 8.9 280.16 18.59 280.16 18.59 281.65 8.9 281.65 8.9 285.52 7.66 285.52"/>
  <path class="cls-39" d="M10.19,274.28c0-1.17.39-2.08,1.14-2.76.76-.66,1.82-1,3.16-1s2.4.35,3.15,1c.76.68,1.14,1.59,1.14,2.76s-.38,2.12-1.14,2.78c-.75.66-1.8.99-3.15.99s-2.4-.33-3.16-.99c-.75-.66-1.14-1.59-1.14-2.78ZM11.33,274.28c0,.72.28,1.29.85,1.71.57.42,1.34.63,2.31.63s1.76-.19,2.32-.62c.57-.42.84-.99.84-1.72s-.27-1.29-.84-1.71-1.33-.63-2.32-.63-1.74.21-2.31.63c-.57.42-.85.99-.85,1.71Z"/>
  <path class="cls-39" d="M8.06,266.94h2.33v-2.78h1.05v2.78h4.46c.68,0,1.11-.09,1.29-.27.19-.18.28-.56.28-1.12v-1.38h1.12v1.38c0,1.05-.19,1.77-.58,2.16-.39.39-1.1.59-2.12.59h-4.46v.99h-1.05v-.99h-2.33v-1.35Z"/>
  <path class="cls-39" d="M13.91,255.98h4.68v1.35h-1.25c.51.32.87.71,1.1,1.16.23.45.34,1.02.34,1.68,0,.84-.23,1.51-.69,2.01-.46.5-1.09.74-1.89.74-.91,0-1.6-.3-2.09-.93-.47-.61-.7-1.53-.7-2.76v-1.89h-.14c-.61,0-1.1.21-1.44.62-.33.4-.51.97-.51,1.71,0,.48.06.93.18,1.38.12.45.28.87.49,1.28h-1.24c-.18-.48-.33-.96-.42-1.43-.09-.46-.15-.91-.15-1.36,0-1.18.32-2.07.93-2.65s1.55-.89,2.79-.89ZM14.47,258.66c0,1.09.14,1.84.38,2.26.26.42.68.63,1.27.63.48,0,.87-.15,1.14-.46.28-.32.42-.75.42-1.29,0-.75-.25-1.35-.79-1.8-.53-.45-1.23-.68-2.12-.68h-.3v1.34Z"/>
  <rect class="cls-39" x="7.19" y="251.85" width="11.4" height="1.35"/>
  <path class="cls-39" d="M10.7,238.35h1.26c-.21.39-.36.76-.47,1.15s-.16.76-.16,1.15c0,.87.28,1.56.84,2.04.56.48,1.34.72,2.32.72s1.79-.24,2.34-.72c.56-.48.83-1.17.83-2.04,0-.39-.05-.76-.15-1.15s-.27-.76-.48-1.15h1.24c.18.39.32.78.39,1.17.07.4.12.84.12,1.29,0,1.23-.38,2.22-1.15,2.94-.77.74-1.82,1.1-3.14,1.1s-2.39-.36-3.15-1.1c-.76-.74-1.15-1.74-1.15-3.03,0-.42.05-.83.14-1.22s.21-.78.38-1.15Z"/>
  <path class="cls-39" d="M13.91,229.59h4.68v1.35h-1.25c.51.32.87.71,1.1,1.16.23.45.34,1.02.34,1.68,0,.84-.23,1.51-.69,2.01-.46.5-1.09.74-1.89.74-.91,0-1.6-.3-2.09-.93-.47-.61-.7-1.53-.7-2.76v-1.89h-.14c-.61,0-1.1.21-1.44.62-.33.4-.51.97-.51,1.71,0,.48.06.93.18,1.38.12.45.28.87.49,1.28h-1.24c-.18-.48-.33-.96-.42-1.43-.09-.46-.15-.91-.15-1.36,0-1.18.32-2.07.93-2.65s1.55-.89,2.79-.89ZM14.47,232.28c0,1.09.14,1.84.38,2.26.26.42.68.63,1.27.63.48,0,.87-.15,1.14-.46.28-.32.42-.75.42-1.29,0-.75-.25-1.35-.79-1.8-.53-.45-1.23-.68-2.12-.68h-.3v1.34Z"/>
  <path class="cls-39" d="M10.7,220.91h1.26c-.21.39-.36.76-.47,1.15s-.16.76-.16,1.15c0,.87.28,1.56.84,2.04.56.48,1.34.72,2.32.72s1.79-.24,2.34-.72c.56-.48.83-1.17.83-2.04,0-.39-.05-.76-.15-1.15s-.27-.76-.48-1.15h1.24c.18.39.32.78.39,1.17.07.4.12.84.12,1.29,0,1.23-.38,2.22-1.15,2.94-.77.74-1.82,1.1-3.14,1.1s-2.39-.36-3.15-1.1c-.76-.74-1.15-1.74-1.15-3.03,0-.42.05-.83.14-1.22s.21-.78.38-1.15Z"/>
  <path class="cls-39" d="M13.64,211.74h4.95v1.35h-4.91c-.78,0-1.35.17-1.74.47-.39.3-.59.75-.59,1.35,0,.74.24,1.31.71,1.72.46.42,1.09.63,1.89.63h4.64v1.35H7.19v-1.35h4.47c-.48-.32-.85-.69-1.1-1.14-.24-.43-.38-.94-.38-1.51,0-.93.3-1.65.89-2.13.59-.48,1.44-.74,2.56-.74Z"/>
  <path class="cls-39" d="M13.76,203.39c-.74.01-1.32.23-1.77.62-.43.4-.66.94-.66,1.6,0,.75.23,1.35.65,1.8s1.02.72,1.78.78v-4.8ZM14.15,202.04h.66v6.19c.93-.06,1.65-.33,2.13-.84.48-.5.72-1.18.72-2.09,0-.51-.06-1.02-.18-1.5-.12-.48-.31-.97-.58-1.46h1.27c.21.48.38.98.47,1.49.09.51.15,1.04.15,1.54,0,1.32-.38,2.36-1.12,3.12s-1.78,1.14-3.09,1.14-2.4-.36-3.19-1.08c-.78-.72-1.19-1.71-1.19-2.94,0-1.11.36-1.98,1.06-2.62.72-.63,1.68-.96,2.9-.96Z"/>
  <path class="cls-39" d="M13.64,188.24h4.95v1.35h-4.91c-.78,0-1.35.16-1.74.46-.39.3-.59.75-.59,1.35,0,.74.24,1.31.71,1.73.46.42,1.09.63,1.89.63h4.64v1.35H7.19v-1.35h4.47c-.48-.32-.85-.69-1.1-1.14-.24-.43-.38-.95-.38-1.51,0-.93.3-1.65.89-2.13s1.44-.74,2.56-.74Z"/>
  <path class="cls-39" d="M7.19,185.55v-1.35h1.71v1.35h-1.71ZM10.39,185.55v-1.35h8.2v1.35h-8.2Z"/>
  <path class="cls-39" d="M8.06,180.05h2.33v-2.78h1.05v2.78h4.46c.68,0,1.11-.09,1.29-.27.19-.18.28-.56.28-1.12v-1.38h1.12v1.38c0,1.05-.19,1.77-.58,2.16-.39.39-1.1.58-2.12.58h-4.46v.99h-1.05v-.99h-2.33v-1.35Z"/>
  <path class="cls-39" d="M10.63,170.27h1.27c-.18.39-.33.78-.43,1.18-.09.42-.15.84-.15,1.28,0,.68.1,1.18.31,1.51s.51.49.91.49c.32,0,.56-.12.73-.36.18-.24.36-.72.51-1.44l.11-.46c.21-.96.51-1.63.87-2.04.38-.39.9-.6,1.56-.6.76,0,1.36.3,1.8.9.45.6.66,1.44.66,2.49,0,.45-.05.9-.12,1.38-.08.48-.2.97-.38,1.5h-1.4c.27-.49.47-.99.58-1.47.14-.48.19-.96.19-1.44,0-.63-.1-1.12-.31-1.47-.21-.33-.53-.51-.93-.51-.36,0-.65.13-.84.38-.19.24-.39.78-.57,1.62l-.11.46c-.18.84-.45,1.46-.81,1.82-.36.38-.85.56-1.5.56-.76,0-1.36-.27-1.78-.81-.42-.54-.63-1.32-.63-2.34,0-.49.05-.96.12-1.41.08-.44.18-.84.32-1.22Z"/>
  <path class="cls-39" d="M7.21,159.68c1.14.66,2.25,1.14,3.35,1.45,1.1.33,2.2.48,3.33.48s2.25-.15,3.35-.48c1.11-.31,2.2-.79,3.33-1.45v1.17c-1.16.74-2.26,1.29-3.38,1.65s-2.2.54-3.3.54-2.18-.18-3.29-.54c-1.11-.36-2.23-.9-3.39-1.65v-1.17Z"/>
  <path class="cls-39" d="M10.19,153.89c0-1.17.39-2.09,1.14-2.76.76-.66,1.82-1,3.16-1s2.4.35,3.15,1c.76.68,1.14,1.59,1.14,2.76s-.38,2.11-1.14,2.77c-.75.66-1.8.99-3.15.99s-2.4-.33-3.16-.99c-.75-.66-1.14-1.59-1.14-2.77ZM11.33,153.89c0,.72.28,1.29.85,1.71.57.42,1.34.63,2.31.63s1.76-.2,2.32-.62.84-.99.84-1.72-.27-1.29-.84-1.71-1.33-.63-2.32-.63-1.74.21-2.31.63c-.57.42-.85.99-.85,1.71Z"/>
  <path class="cls-39" d="M11.65,143.13c-.09.15-.15.31-.2.49-.03.18-.06.38-.06.58,0,.76.26,1.35.75,1.76.5.42,1.2.62,2.13.62h4.32v1.35h-8.2v-1.35h1.27c-.49-.27-.87-.65-1.11-1.1-.24-.45-.36-1.01-.36-1.67,0-.09.02-.19.02-.31.02-.11.03-.23.06-.38h1.38Z"/>
  <path class="cls-39" d="M11.65,132.2c-.09.15-.15.31-.2.49-.03.18-.06.38-.06.58,0,.76.26,1.35.75,1.76.5.42,1.2.62,2.13.62h4.32v1.35h-8.2v-1.35h1.27c-.49-.27-.87-.65-1.11-1.1-.24-.45-.36-1.01-.36-1.67,0-.09.02-.19.02-.31.02-.11.03-.23.06-.38h1.38Z"/>
  <path class="cls-39" d="M13.76,125.45c-.74.01-1.32.23-1.77.62-.43.4-.66.94-.66,1.6,0,.75.23,1.35.65,1.8s1.02.72,1.78.78v-4.8ZM14.15,124.1h.66v6.19c.93-.06,1.65-.33,2.13-.84.48-.5.72-1.18.72-2.09,0-.51-.06-1.02-.18-1.5-.12-.48-.31-.97-.58-1.46h1.27c.21.48.38.98.47,1.49.09.51.15,1.04.15,1.54,0,1.32-.38,2.36-1.12,3.12s-1.78,1.14-3.09,1.14-2.4-.36-3.19-1.08c-.78-.72-1.19-1.71-1.19-2.94,0-1.11.36-1.98,1.06-2.62.72-.63,1.68-.96,2.9-.96Z"/>
  <path class="cls-39" d="M13.91,115.47h4.68v1.35h-1.25c.51.32.87.71,1.1,1.15s.34,1.02.34,1.68c0,.84-.23,1.51-.69,2.01-.46.49-1.09.74-1.89.74-.91,0-1.6-.3-2.09-.93-.47-.62-.7-1.53-.7-2.76v-1.89h-.14c-.61,0-1.1.21-1.44.61-.33.4-.51.98-.51,1.71,0,.48.06.93.18,1.38.12.45.28.87.49,1.27h-1.24c-.18-.48-.33-.96-.42-1.43s-.15-.91-.15-1.36c0-1.19.32-2.07.93-2.66.61-.58,1.55-.88,2.79-.88ZM14.47,118.16c0,1.1.14,1.85.38,2.26.26.42.68.63,1.27.63.48,0,.87-.15,1.14-.46.28-.32.42-.75.42-1.29,0-.75-.25-1.35-.79-1.8-.53-.45-1.23-.67-2.12-.67h-.3v1.33Z"/>
  <path class="cls-39" d="M14.5,111.89c.99,0,1.77-.19,2.34-.6.57-.4.84-.96.84-1.68s-.27-1.27-.84-1.7c-.57-.4-1.35-.61-2.34-.61s-1.76.21-2.32.61c-.57.42-.85.98-.85,1.7s.28,1.27.85,1.68c.57.41,1.34.6,2.32.6ZM11.63,107.3h-4.44v-1.35h11.4v1.35h-1.23c.49.29.85.65,1.08,1.08s.34.94.34,1.54c0,.99-.39,1.8-1.17,2.43-.78.63-1.83.93-3.12.93s-2.32-.3-3.12-.93c-.78-.63-1.19-1.44-1.19-2.43,0-.6.12-1.11.36-1.54.24-.43.6-.79,1.08-1.08Z"/>
  <path class="cls-39" d="M10.63,97.94h1.27c-.18.39-.33.78-.43,1.18-.09.42-.15.84-.15,1.28,0,.68.1,1.18.31,1.51s.51.49.91.49c.32,0,.56-.12.73-.36.18-.24.36-.72.51-1.44l.11-.46c.21-.96.51-1.63.87-2.04.38-.39.9-.6,1.56-.6.76,0,1.36.3,1.8.9.45.6.66,1.44.66,2.49,0,.45-.05.9-.12,1.38-.08.48-.2.97-.38,1.5h-1.4c.27-.49.47-.99.58-1.47.14-.48.19-.96.19-1.44,0-.63-.1-1.12-.31-1.47-.21-.33-.53-.51-.93-.51-.36,0-.65.13-.84.38-.19.24-.39.78-.57,1.62l-.11.46c-.18.84-.45,1.46-.81,1.82-.36.38-.85.56-1.5.56-.76,0-1.36-.27-1.78-.81-.42-.54-.63-1.32-.63-2.34,0-.49.05-.96.12-1.41.08-.44.18-.84.32-1.22Z"/>
  <path class="cls-39" d="M7.21,95.57v-1.17c1.15-.72,2.28-1.28,3.39-1.64,1.11-.36,2.2-.55,3.29-.55s2.19.19,3.3.55,2.22.92,3.38,1.64v1.17c-1.12-.65-2.22-1.12-3.33-1.46-1.09-.32-2.2-.48-3.35-.48s-2.23.16-3.33.48c-1.1.33-2.21.81-3.35,1.46Z"/>
  <path class="cls-39" d="M7.19,84.74v-1.35h1.71v1.35h-1.71ZM10.39,84.74v-1.35h8.2v1.35h-8.2Z"/>
  <path class="cls-39" d="M13.64,73.74h4.95v1.35h-4.91c-.78,0-1.35.17-1.74.46-.39.3-.59.75-.59,1.35,0,.74.24,1.3.71,1.73.46.42,1.09.63,1.89.63h4.64v1.35h-8.2v-1.35h1.27c-.48-.32-.85-.69-1.1-1.14-.24-.43-.38-.94-.38-1.51,0-.93.3-1.65.89-2.13s1.44-.73,2.56-.73Z"/>
  <path class="cls-39" d="M8.06,64.95h2.33v-2.77h1.05v2.77h4.46c.68,0,1.11-.09,1.29-.27.19-.18.28-.55.28-1.12v-1.38h1.12v1.38c0,1.05-.19,1.77-.58,2.16-.39.39-1.1.59-2.12.59h-4.46v.99h-1.05v-.99h-2.33v-1.35Z"/>
  <path class="cls-39" d="M7.19,60.41v-1.35h1.71v1.35h-1.71ZM10.39,60.41v-1.35h8.2v1.35h-8.2Z"/>
  <path class="cls-39" d="M13.76,50.57c-.74.01-1.32.22-1.77.61-.43.4-.66.95-.66,1.61,0,.75.23,1.35.65,1.8s1.02.72,1.78.78v-4.8ZM14.15,49.22h.66v6.2c.93-.06,1.65-.33,2.13-.84.48-.49.72-1.18.72-2.08,0-.51-.06-1.02-.18-1.5-.12-.48-.31-.98-.58-1.45h1.27c.21.48.38.97.47,1.48s.15,1.04.15,1.55c0,1.32-.38,2.35-1.12,3.12-.75.76-1.78,1.14-3.09,1.14s-2.4-.36-3.19-1.08c-.78-.72-1.19-1.71-1.19-2.94,0-1.11.36-1.98,1.06-2.62.72-.63,1.68-.96,2.9-.96Z"/>
  <path class="cls-39" d="M11.65,42.26c-.09.15-.15.32-.2.49-.03.18-.06.38-.06.59,0,.76.26,1.35.75,1.76.5.42,1.2.61,2.13.61h4.32v1.35h-8.2v-1.35h1.27c-.49-.27-.87-.64-1.11-1.1-.24-.45-.36-1.01-.36-1.67,0-.09.02-.2.02-.32.02-.1.03-.23.06-.38h1.38Z"/>
  <path class="cls-39" d="M17.35,34.61v-5.16h1.25v6.95h-1.25c-.57-.55-1.35-1.32-2.34-2.3-.98-.96-1.61-1.57-1.89-1.83-.52-.48-.98-.81-1.35-.99-.36-.18-.73-.29-1.09-.29-.57,0-1.05.21-1.41.61-.36.4-.56.93-.56,1.59,0,.46.09.96.24,1.47.16.51.4,1.07.73,1.65h-1.5c-.24-.6-.42-1.15-.54-1.66-.12-.51-.18-.99-.18-1.43,0-1.12.28-2.02.85-2.7.57-.68,1.32-1.02,2.27-1.02.45,0,.89.09,1.27.26.41.17.89.46,1.43.92.15.12.56.51,1.23,1.17.67.66,1.62,1.58,2.83,2.76Z"/>
  <polygon class="cls-39" points="46.73 9.69 44.5 11.93 46.73 14.16 46.15 14.75 43.91 12.51 41.67 14.75 41.09 14.16 43.32 11.93 41.09 9.69 41.67 9.1 43.91 11.34 46.15 9.1 46.73 9.69"/>
  <polygon class="cls-39" points="49.33 14.23 50.94 14.23 50.94 8.67 49.19 9.02 49.19 8.12 50.93 7.77 51.92 7.77 51.92 14.23 53.53 14.23 53.53 15.06 49.33 15.06 49.33 14.23"/>
  <path class="cls-39" d="M57.64,7.64c.81,0,1.43.33,1.87.97.43.65.65,1.59.65,2.81s-.22,2.17-.65,2.81c-.44.64-1.06.96-1.88.96s-1.44-.32-1.87-.96c-.43-.64-.64-1.58-.64-2.81s.21-2.16.64-2.81c.43-.64,1.06-.97,1.88-.97ZM57.64,8.42c-.51,0-.89.25-1.15.75-.26.5-.38,1.25-.38,2.25s.12,1.75.38,2.25c.26.5.64.75,1.15.75s.89-.25,1.15-.75c.25-.5.38-1.25.38-2.25s-.13-1.75-.38-2.25c-.26-.5-.64-.75-1.15-.75Z"/>
  <path class="cls-39" d="M63.38,6.13h.87v3.32h.73v.57h-.73v1.2h-.69v-1.2h-2.3v-.66l2.12-3.23ZM63.56,6.73l-1.74,2.72h1.74v-2.72Z"/>
  <g class="cls-96">
    <polyline class="cls-13" points="56.63 205.19 124.3 169.84 191.97 146.69 259.64 128 327.31 112.22 394.98 98.6"/>
    <g class="cls-53">
      <polygon class="cls-21" points="56.63 202.19 53.63 208.19 59.63 208.19 56.63 202.19"/>
    </g>
    <g class="cls-35">
      <polygon class="cls-21" points="124.3 166.84 121.3 172.84 127.3 172.84 124.3 166.84"/>
    </g>
    <g class="cls-97">
      <polygon class="cls-21" points="191.97 143.69 188.97 149.69 194.97 149.69 191.97 143.69"/>
    </g>
    <g class="cls-95">
      <polygon class="cls-21" points="259.64 125 256.64 131 262.64 131 259.64 125"/>
    </g>
    <g class="cls-85">
      <polygon class="cls-21" points="327.31 109.22 324.31 115.22 330.31 115.22 327.31 109.22"/>
    </g>
    <g class="cls-33">
      <polygon class="cls-21" points="394.98 95.6 391.98 101.6 397.98 101.6 394.98 95.6"/>
    </g>
  </g>
  <g class="cls-61">
    <polyline class="cls-9" points="56.63 217.09 124.3 211.9 191.97 227.12 259.64 239.31 327.31 242.92 394.98 242.11"/>
    <g class="cls-76">
      <polygon class="cls-21" points="56.63 214.09 53.63 220.09 59.63 220.09 56.63 214.09"/>
    </g>
    <g class="cls-103">
      <polygon class="cls-21" points="124.3 208.9 121.3 214.9 127.3 214.9 124.3 208.9"/>
    </g>
    <g class="cls-73">
      <polygon class="cls-21" points="191.97 224.12 188.97 230.12 194.97 230.12 191.97 224.12"/>
    </g>
    <g class="cls-52">
      <polygon class="cls-21" points="259.64 236.31 256.64 242.31 262.64 242.31 259.64 236.31"/>
    </g>
    <g class="cls-57">
      <polygon class="cls-21" points="327.31 239.92 324.31 245.92 330.31 245.92 327.31 239.92"/>
    </g>
    <g class="cls-68">
      <polygon class="cls-21" points="394.98 239.11 391.98 245.11 397.98 245.11 394.98 239.11"/>
    </g>
  </g>
  <g class="cls-110">
    <polyline class="cls-24" points="56.63 191.29 124.3 153.74 191.97 131.25 259.64 113.85 327.31 99.25 394.98 85.84"/>
    <g class="cls-94">
      <rect class="cls-20" x="53.63" y="188.29" width="6" height="6"/>
    </g>
    <g class="cls-74">
      <rect class="cls-20" x="121.3" y="150.74" width="6" height="6"/>
    </g>
    <g class="cls-86">
      <rect class="cls-20" x="188.97" y="128.25" width="6" height="6"/>
    </g>
    <g class="cls-46">
      <rect class="cls-20" x="256.64" y="110.85" width="6" height="6"/>
    </g>
    <g class="cls-38">
      <rect class="cls-20" x="324.31" y="96.25" width="6" height="6"/>
    </g>
    <g class="cls-62">
      <rect class="cls-20" x="391.98" y="82.84" width="6" height="6"/>
    </g>
  </g>
  <g class="cls-113">
    <polyline class="cls-14" points="56.63 210.55 124.3 213.63 191.97 233.55 259.64 245.9 327.31 248.37 394.98 247.17"/>
    <g class="cls-67">
      <rect class="cls-20" x="53.63" y="207.55" width="6" height="6"/>
    </g>
    <g class="cls-50">
      <rect class="cls-20" x="121.3" y="210.63" width="6" height="6"/>
    </g>
    <g class="cls-66">
      <rect class="cls-20" x="188.97" y="230.55" width="6" height="6"/>
    </g>
    <g class="cls-84">
      <rect class="cls-20" x="256.64" y="242.9" width="6" height="6"/>
    </g>
    <g class="cls-56">
      <rect class="cls-20" x="324.31" y="245.37" width="6" height="6"/>
    </g>
    <g class="cls-45">
      <rect class="cls-20" x="391.98" y="244.17" width="6" height="6"/>
    </g>
  </g>
  <g class="cls-100">
    <polyline class="cls-10" points="56.63 162.94 124.3 118.58 191.97 89.2 259.64 65.88 327.31 47.22 394.98 30.72"/>
    <g class="cls-89">
      <path class="cls-11" d="M53.63,159.94l6,6M53.63,165.94l6-6"/>
    </g>
    <g class="cls-70">
      <path class="cls-11" d="M121.3,115.58l6,6M121.3,121.58l6-6"/>
    </g>
    <g class="cls-31">
      <path class="cls-11" d="M188.97,86.2l6,6M188.97,92.2l6-6"/>
    </g>
    <g class="cls-51">
      <path class="cls-11" d="M256.64,62.88l6,6M256.64,68.88l6-6"/>
    </g>
    <g class="cls-43">
      <path class="cls-11" d="M324.31,44.22l6,6M324.31,50.22l6-6"/>
    </g>
    <g class="cls-82">
      <path class="cls-11" d="M391.98,27.72l6,6M391.98,33.72l6-6"/>
    </g>
  </g>
  <g class="cls-107">
    <polyline class="cls-12" points="56.63 280.48 124.3 272.11 191.97 265.35 259.64 259.38 327.31 254.12 394.98 249.38"/>
    <g class="cls-81">
      <path class="cls-11" d="M53.63,277.48l6,6M53.63,283.48l6-6"/>
    </g>
    <g class="cls-109">
      <path class="cls-11" d="M121.3,269.11l6,6M121.3,275.11l6-6"/>
    </g>
    <g class="cls-79">
      <path class="cls-11" d="M188.97,262.35l6,6M188.97,268.35l6-6"/>
    </g>
    <g class="cls-106">
      <path class="cls-11" d="M256.64,256.38l6,6M256.64,262.38l6-6"/>
    </g>
    <g class="cls-87">
      <path class="cls-11" d="M324.31,251.12l6,6M324.31,257.12l6-6"/>
    </g>
    <g class="cls-92">
      <path class="cls-11" d="M391.98,246.38l6,6M391.98,252.38l6-6"/>
    </g>
  </g>
  <g class="cls-105">
    <polyline class="cls-19" points="56.63 230.92 124.3 199.05 191.97 174.4 259.64 153.55 327.31 135.75 394.98 120.71"/>
    <g class="cls-63">
      <polygon class="cls-2" points="56.63 235.16 59.18 230.92 56.63 226.68 54.09 230.92 56.63 235.16"/>
    </g>
    <g class="cls-99">
      <polygon class="cls-2" points="124.3 203.29 126.85 199.05 124.3 194.8 121.76 199.05 124.3 203.29"/>
    </g>
    <g class="cls-36">
      <polygon class="cls-2" points="191.97 178.65 194.52 174.4 191.97 170.16 189.43 174.4 191.97 178.65"/>
    </g>
    <g class="cls-69">
      <polygon class="cls-2" points="259.64 157.79 262.19 153.55 259.64 149.31 257.1 153.55 259.64 157.79"/>
    </g>
    <g class="cls-83">
      <polygon class="cls-2" points="327.31 140 329.86 135.75 327.31 131.51 324.77 135.75 327.31 140"/>
    </g>
    <g class="cls-30">
      <polygon class="cls-2" points="394.98 124.95 397.53 120.71 394.98 116.47 392.44 120.71 394.98 124.95"/>
    </g>
  </g>
  <g class="cls-32">
    <polyline class="cls-25" points="56.63 282.72 124.3 274.13 191.97 266.98 259.64 260.68 327.31 255.1 394.98 250.19"/>
    <g class="cls-42">
      <polygon class="cls-2" points="56.63 286.96 59.18 282.72 56.63 278.48 54.09 282.72 56.63 286.96"/>
    </g>
    <g class="cls-101">
      <polygon class="cls-2" points="124.3 278.37 126.85 274.13 124.3 269.89 121.76 274.13 124.3 278.37"/>
    </g>
    <g class="cls-114">
      <polygon class="cls-2" points="191.97 271.22 194.52 266.98 191.97 262.74 189.43 266.98 191.97 271.22"/>
    </g>
    <g class="cls-108">
      <polygon class="cls-2" points="259.64 264.93 262.19 260.68 259.64 256.44 257.1 260.68 259.64 264.93"/>
    </g>
    <g class="cls-112">
      <polygon class="cls-2" points="327.31 259.34 329.86 255.1 327.31 250.86 324.77 255.1 327.31 259.34"/>
    </g>
    <g class="cls-93">
      <polygon class="cls-2" points="394.98 254.43 397.53 250.19 394.98 245.94 392.44 250.19 394.98 254.43"/>
    </g>
  </g>
  <g class="cls-90">
    <polyline class="cls-15" points="56.63 199.53 124.3 158.62 191.97 130.51 259.64 106.87 327.31 87.1 394.98 71.79"/>
    <g class="cls-111">
      <path class="cls-3" d="M56.63,202.53c.8,0,1.56-.32,2.12-.88.56-.56.88-1.33.88-2.12s-.32-1.56-.88-2.12c-.56-.56-1.33-.88-2.12-.88s-1.56.32-2.12.88c-.56.56-.88,1.33-.88,2.12s.32,1.56.88,2.12c.56.56,1.33.88,2.12.88Z"/>
    </g>
    <g class="cls-29">
      <path class="cls-3" d="M124.3,161.62c.8,0,1.56-.32,2.12-.88.56-.56.88-1.33.88-2.12s-.32-1.56-.88-2.12c-.56-.56-1.33-.88-2.12-.88s-1.56.32-2.12.88c-.56.56-.88,1.33-.88,2.12s.32,1.56.88,2.12c.56.56,1.33.88,2.12.88Z"/>
    </g>
    <g class="cls-28">
      <path class="cls-3" d="M191.97,133.51c.8,0,1.56-.32,2.12-.88s.88-1.33.88-2.12-.32-1.56-.88-2.12-1.33-.88-2.12-.88-1.56.32-2.12.88-.88,1.33-.88,2.12.32,1.56.88,2.12,1.33.88,2.12.88Z"/>
    </g>
    <g class="cls-104">
      <path class="cls-3" d="M259.64,109.87c.8,0,1.56-.32,2.12-.88.56-.56.88-1.33.88-2.12s-.32-1.56-.88-2.12c-.56-.56-1.33-.88-2.12-.88s-1.56.32-2.12.88c-.56.56-.88,1.33-.88,2.12s.32,1.56.88,2.12c.56.56,1.33.88,2.12.88Z"/>
    </g>
    <g class="cls-59">
      <path class="cls-3" d="M327.31,90.1c.8,0,1.56-.32,2.12-.88.56-.56.88-1.33.88-2.12s-.32-1.56-.88-2.12c-.56-.56-1.33-.88-2.12-.88s-1.56.32-2.12.88c-.56.56-.88,1.33-.88,2.12s.32,1.56.88,2.12c.56.56,1.33.88,2.12.88Z"/>
    </g>
    <g class="cls-55">
      <path class="cls-3" d="M394.98,74.79c.8,0,1.56-.32,2.12-.88.56-.56.88-1.33.88-2.12s-.32-1.56-.88-2.12c-.56-.56-1.33-.88-2.12-.88s-1.56.32-2.12.88c-.56.56-.88,1.33-.88,2.12s.32,1.56.88,2.12c.56.56,1.33.88,2.12.88Z"/>
    </g>
  </g>
  <g class="cls-44">
    <polyline class="cls-4" points="56.63 278.96 124.3 268.36 191.97 259.89 259.64 252.56 327.31 246.38 394.98 240.84"/>
    <g class="cls-37">
      <path class="cls-3" d="M56.63,281.96c.8,0,1.56-.32,2.12-.88.56-.56.88-1.33.88-2.12s-.32-1.56-.88-2.12c-.56-.56-1.33-.88-2.12-.88s-1.56.32-2.12.88c-.56.56-.88,1.33-.88,2.12s.32,1.56.88,2.12c.56.56,1.33.88,2.12.88Z"/>
    </g>
    <g class="cls-75">
      <path class="cls-3" d="M124.3,271.36c.8,0,1.56-.32,2.12-.88.56-.56.88-1.33.88-2.12s-.32-1.56-.88-2.12c-.56-.56-1.33-.88-2.12-.88s-1.56.32-2.12.88c-.56.56-.88,1.33-.88,2.12s.32,1.56.88,2.12c.56.56,1.33.88,2.12.88Z"/>
    </g>
    <g class="cls-72">
      <path class="cls-3" d="M191.97,262.89c.8,0,1.56-.32,2.12-.88.56-.56.88-1.33.88-2.12s-.32-1.56-.88-2.12c-.56-.56-1.33-.88-2.12-.88s-1.56.32-2.12.88c-.56.56-.88,1.33-.88,2.12s.32,1.56.88,2.12c.56.56,1.33.88,2.12.88Z"/>
    </g>
    <g class="cls-58">
      <path class="cls-3" d="M259.64,255.56c.8,0,1.56-.32,2.12-.88.56-.56.88-1.33.88-2.12s-.32-1.56-.88-2.12c-.56-.56-1.33-.88-2.12-.88s-1.56.32-2.12.88c-.56.56-.88,1.33-.88,2.12s.32,1.56.88,2.12c.56.56,1.33.88,2.12.88Z"/>
    </g>
    <g class="cls-78">
      <path class="cls-3" d="M327.31,249.38c.8,0,1.56-.32,2.12-.88.56-.56.88-1.33.88-2.12s-.32-1.56-.88-2.12c-.56-.56-1.33-.88-2.12-.88s-1.56.32-2.12.88c-.56.56-.88,1.33-.88,2.12s.32,1.56.88,2.12c.56.56,1.33.88,2.12.88Z"/>
    </g>
    <g class="cls-47">
      <path class="cls-3" d="M394.98,243.84c.8,0,1.56-.32,2.12-.88.56-.56.88-1.33.88-2.12s-.32-1.56-.88-2.12c-.56-.56-1.33-.88-2.12-.88s-1.56.32-2.12.88c-.56.56-.88,1.33-.88,2.12s.32,1.56.88,2.12c.56.56,1.33.88,2.12.88Z"/>
    </g>
  </g>
  <line class="cls-17" x1="39.72" y1="295.32" x2="39.72" y2="18.12"/>
  <line class="cls-17" x1="411.9" y1="295.32" x2="411.9" y2="18.12"/>
  <line class="cls-17" x1="39.72" y1="295.32" x2="411.9" y2="295.32"/>
  <line class="cls-17" x1="39.72" y1="18.12" x2="411.9" y2="18.12"/>
  <g>
    <rect class="cls-41" x="137.37" y="24.62" width="158.27" height="22.98" rx="2.6" ry="2.6"/>
    <rect class="cls-7" x="137.37" y="24.62" width="158.27" height="22.98" rx="2.6" ry="2.6"/>
  </g>
  <polyline class="cls-18" points="142.57 35.15 155.57 35.15 168.57 35.15"/>
  <polygon class="cls-39" points="180.24 30.22 181.53 30.22 181.53 34.11 186.18 34.11 186.18 30.22 187.47 30.22 187.47 39.7 186.18 39.7 186.18 35.19 181.53 35.19 181.53 39.7 180.24 39.7 180.24 30.22"/>
  <path class="cls-39" d="M189.97,29.82h1.17v1.48h-1.17v-1.48ZM189.97,32.59h1.17v7.11h-1.17v-7.11Z"/>
  <path class="cls-39" d="M194.74,30.57v2.02h2.4v.91h-2.4v3.86c0,.58.08.96.23,1.12.16.17.48.25.97.25h1.2v.98h-1.2c-.91,0-1.53-.17-1.87-.51-.34-.34-.51-.95-.51-1.83v-3.86h-.86v-.91h.86v-2.02h1.17Z"/>
  <path class="cls-39" d="M203.21,32.79v1.11c-.34-.16-.68-.29-1.03-.38-.36-.08-.73-.13-1.1-.13-.58,0-1.03.09-1.31.27-.29.18-.43.44-.43.79,0,.27.1.48.31.64.21.16.62.31,1.25.44l.4.09c.83.18,1.42.44,1.77.75.34.33.52.78.52,1.35,0,.66-.26,1.18-.78,1.56-.52.39-1.25.57-2.16.57-.39,0-.78-.04-1.2-.1s-.85-.17-1.3-.33v-1.21c.43.23.86.4,1.27.51.42.12.83.17,1.25.17.55,0,.98-.09,1.27-.27.29-.18.44-.45.44-.81,0-.31-.12-.56-.32-.73-.21-.17-.68-.34-1.4-.49l-.4-.09c-.73-.16-1.26-.39-1.57-.7-.32-.31-.48-.74-.48-1.3,0-.66.23-1.18.7-1.55.47-.36,1.14-.55,2.03-.55.43,0,.83.04,1.22.1.38.07.73.16,1.05.27Z"/>
  <polyline class="cls-1" points="214.63 35.15 227.63 35.15 240.63 35.15"/>
  <path class="cls-39" d="M253.59,31.27v3.37h1.61c.61,0,1.08-.14,1.39-.43.31-.29.48-.7.48-1.26s-.17-.96-.48-1.25c-.31-.29-.78-.43-1.39-.43h-1.61ZM256.81,35.25c.27.1.55.3.81.6.26.31.52.73.78,1.26l1.3,2.59h-1.38l-1.21-2.43c-.31-.62-.62-1.05-.91-1.26-.3-.21-.7-.31-1.21-.31h-1.39v4h-1.29v-9.48h2.9c1.08,0,1.89.23,2.42.68.53.45.81,1.14.81,2.05,0,.6-.14,1.11-.42,1.49-.29.39-.69.66-1.21.81Z"/>
  <path class="cls-39" d="M265.63,35.51c-.01-.64-.19-1.14-.53-1.53-.35-.38-.82-.57-1.39-.57-.65,0-1.17.2-1.56.56-.39.36-.62.88-.68,1.55h4.16ZM266.8,35.85v.57h-5.37c.05.81.29,1.43.73,1.85.43.42,1.03.62,1.81.62.44,0,.88-.05,1.3-.16.42-.1.85-.27,1.26-.51v1.1c-.42.18-.85.33-1.29.4-.44.08-.9.13-1.34.13-1.14,0-2.04-.33-2.7-.98s-.99-1.55-.99-2.68.31-2.08.94-2.77c.62-.68,1.48-1.03,2.55-1.03.96,0,1.72.31,2.27.92.55.62.83,1.46.83,2.51Z"/>
  <path class="cls-39" d="M274.27,35.64v4.06h-1.17v-1.08c-.27.44-.61.75-1,.95-.39.2-.88.3-1.46.3-.73,0-1.31-.2-1.74-.6-.43-.4-.64-.95-.64-1.64,0-.79.26-1.39.81-1.81.53-.4,1.33-.61,2.39-.61h1.64v-.12c0-.53-.18-.95-.53-1.25-.35-.29-.85-.44-1.48-.44-.42,0-.81.05-1.2.16-.39.1-.75.25-1.11.43v-1.08c.42-.16.83-.29,1.24-.36.4-.08.79-.13,1.18-.13,1.03,0,1.79.27,2.3.81.51.53.77,1.34.77,2.42ZM271.94,36.12c-.95,0-1.6.12-1.96.33-.36.22-.55.58-.55,1.11,0,.42.13.75.4.99.27.25.65.36,1.12.36.65,0,1.17-.22,1.56-.69.39-.46.58-1.07.58-1.83v-.26h-1.16Z"/>
  <path class="cls-39" d="M277.38,36.15c0,.86.17,1.53.52,2.03.35.49.83.73,1.46.73s1.11-.23,1.47-.73c.35-.49.53-1.17.53-2.03s-.18-1.52-.53-2.01c-.36-.49-.85-.74-1.47-.74s-1.1.25-1.46.74c-.35.49-.52,1.16-.52,2.01ZM281.36,33.66v-3.85h1.17v9.88h-1.17v-1.07c-.25.43-.56.74-.94.94-.38.2-.82.3-1.34.3-.86,0-1.56-.34-2.11-1.01s-.81-1.59-.81-2.7.26-2.01.81-2.7c.55-.68,1.25-1.03,2.11-1.03.52,0,.96.1,1.34.31.38.21.69.52.94.94Z"/>
  <path class="cls-39" d="M289.47,32.79v1.11c-.34-.16-.68-.29-1.03-.38-.36-.08-.73-.13-1.1-.13-.59,0-1.03.09-1.31.27-.29.18-.43.44-.43.79,0,.27.1.48.31.64.21.16.62.31,1.25.44l.4.09c.83.18,1.42.44,1.77.75.34.33.52.78.52,1.35,0,.66-.26,1.18-.78,1.56-.52.39-1.25.57-2.16.57-.39,0-.78-.04-1.2-.1-.42-.07-.85-.17-1.3-.33v-1.21c.43.23.86.4,1.27.51.42.12.83.17,1.25.17.55,0,.98-.09,1.27-.27.29-.18.44-.45.44-.81,0-.31-.12-.56-.33-.73-.21-.17-.68-.34-1.4-.49l-.4-.09c-.73-.16-1.26-.39-1.57-.7-.32-.31-.48-.74-.48-1.3,0-.66.23-1.18.7-1.55.47-.36,1.14-.55,2.03-.55.43,0,.83.04,1.22.1.38.07.73.16,1.05.27Z"/>
  <g>
    <rect class="cls-41" x="46.22" y="24.62" width="78.58" height="99.29" rx="2.6" ry="2.6"/>
    <rect class="cls-7" x="46.22" y="24.62" width="78.58" height="99.29" rx="2.6" ry="2.6"/>
  </g>
  <polygon class="cls-23" points="64.42 30.15 59.42 40.15 69.42 40.15 64.42 30.15"/>
  <polygon class="cls-39" points="89.09 30.22 91 30.22 93.42 36.67 95.85 30.22 97.76 30.22 97.76 39.7 96.51 39.7 96.51 31.38 94.07 37.88 92.78 37.88 90.34 31.38 90.34 39.7 89.09 39.7 89.09 30.22"/>
  <polygon class="cls-39" points="102.75 39.7 99.14 30.22 100.48 30.22 103.48 38.2 106.48 30.22 107.82 30.22 104.21 39.7 102.75 39.7"/>
  <rect class="cls-39" x="109.2" y="30.22" width="1.29" height="9.48"/>
  <path class="cls-39" d="M113.04,30.22h2.9c1.05,0,1.86.25,2.41.73.55.48.82,1.18.82,2.11s-.27,1.65-.82,2.12c-.55.48-1.35.71-2.41.71h-1.61v3.81h-1.29v-9.48ZM114.32,31.27v3.56h1.61c.6,0,1.05-.14,1.38-.45.32-.31.49-.75.49-1.33s-.17-1-.49-1.31c-.33-.31-.78-.47-1.38-.47h-1.61Z"/>
  <rect class="cls-27" x="59.42" y="49.23" width="10" height="10"/>
  <polygon class="cls-39" points="89.09 49.3 90.38 49.3 90.38 57.7 94.99 57.7 94.99 58.77 89.09 58.77 89.09 49.3"/>
  <polygon class="cls-39" points="96.33 49.3 101.78 49.3 101.78 50.38 97.62 50.38 97.62 53.17 101.37 53.17 101.37 54.25 97.62 54.25 97.62 58.77 96.33 58.77 96.33 49.3"/>
  <path class="cls-39" d="M103.66,49.3h1.29v5.76c0,1.01.18,1.75.55,2.2.36.44.96.66,1.79.66s1.42-.22,1.78-.66c.36-.44.56-1.18.56-2.2v-5.76h1.29v5.91c0,1.25-.31,2.17-.92,2.8s-1.51.94-2.7.94-2.11-.31-2.72-.94-.91-1.55-.91-2.8v-5.91Z"/>
  <path class="cls-16" d="M59.42,68.3l10,10M59.42,78.3l10-10"/>
  <polygon class="cls-39" points="89.09 68.38 90.38 68.38 90.38 76.77 94.99 76.77 94.99 77.85 89.09 77.85 89.09 68.38"/>
  <path class="cls-39" d="M97.62,69.43v3.37h1.61c.61,0,1.08-.14,1.39-.43.31-.29.48-.7.48-1.26s-.17-.96-.48-1.25c-.31-.29-.78-.43-1.39-.43h-1.61ZM100.83,73.41c.27.1.55.3.81.6.26.31.52.73.78,1.26l1.3,2.59h-1.38l-1.21-2.43c-.31-.62-.62-1.05-.91-1.26-.3-.21-.7-.31-1.21-.31h-1.39v4h-1.29v-9.48h2.9c1.08,0,1.89.23,2.42.68.53.45.81,1.14.81,2.05,0,.6-.14,1.11-.42,1.49-.29.39-.69.66-1.21.81Z"/>
  <path class="cls-39" d="M105.22,68.38h1.29v5.76c0,1.01.18,1.75.55,2.2.36.44.96.66,1.79.66s1.42-.22,1.78-.66c.36-.44.56-1.18.56-2.2v-5.76h1.29v5.91c0,1.25-.31,2.17-.92,2.8s-1.51.94-2.7.94-2.11-.31-2.72-.94-.91-1.55-.91-2.8v-5.91Z"/>
  <polygon class="cls-8" points="64.42 99.45 68.66 92.38 64.42 85.31 60.17 92.38 64.42 99.45"/>
  <polygon class="cls-39" points="89.09 87.45 94.54 87.45 94.54 88.53 90.38 88.53 90.38 91.33 94.13 91.33 94.13 92.41 90.38 92.41 90.38 96.93 89.09 96.93 89.09 87.45"/>
  <rect class="cls-39" x="96.56" y="87.45" width="1.29" height="9.48"/>
  <polygon class="cls-39" points="100.4 87.45 105.85 87.45 105.85 88.53 101.69 88.53 101.69 91.33 105.44 91.33 105.44 92.41 101.69 92.41 101.69 96.93 100.4 96.93 100.4 87.45"/>
  <path class="cls-39" d="M111.72,87.29c1.33,0,2.38.46,3.18,1.34.79.88,1.2,2.08,1.2,3.58s-.4,2.69-1.2,3.57c-.81.88-1.86,1.33-3.18,1.33s-2.4-.44-3.2-1.33c-.81-.88-1.2-2.07-1.2-3.57s.39-2.69,1.2-3.58c.79-.88,1.86-1.34,3.2-1.34ZM111.72,88.33c-.94,0-1.68.35-2.22,1.04-.55.7-.82,1.64-.82,2.83s.27,2.14.82,2.83c.55.7,1.29,1.04,2.22,1.04s1.66-.34,2.21-1.04c.55-.69.82-1.64.82-2.83s-.27-2.13-.82-2.83c-.55-.69-1.29-1.04-2.21-1.04Z"/>
  <path class="cls-5" d="M64.42,116.46c1.33,0,2.6-.53,3.54-1.46.94-.94,1.46-2.21,1.46-3.54s-.53-2.6-1.46-3.54c-.94-.94-2.21-1.46-3.54-1.46s-2.6.53-3.54,1.46c-.94.94-1.46,2.21-1.46,3.54s.53,2.6,1.46,3.54c.94.94,2.21,1.46,3.54,1.46Z"/>
  <path class="cls-39" d="M88.95,106.53h1.29v5.76c0,1.01.18,1.76.55,2.2.36.44.96.66,1.79.66s1.42-.22,1.78-.66.56-1.18.56-2.2v-5.76h1.29v5.92c0,1.25-.31,2.17-.92,2.79-.61.62-1.51.94-2.7.94s-2.11-.31-2.72-.94c-.61-.62-.91-1.55-.91-2.79v-5.92Z"/>
  <polygon class="cls-39" points="98.61 106.53 100.33 106.53 104.53 114.46 104.53 106.53 105.78 106.53 105.78 116.01 104.05 116.01 99.85 108.08 99.85 116.01 98.61 116.01 98.61 106.53"/>
  <rect class="cls-39" x="108.33" y="106.53" width="1.29" height="9.48"/>
  <polygon class="cls-39" points="112.16 106.53 117.61 106.53 117.61 107.61 113.45 107.61 113.45 110.41 117.21 110.41 117.21 111.49 113.45 111.49 113.45 116.01 112.16 116.01 112.16 106.53"/>
</svg>