<?xml version="1.0" encoding="utf-8" standalone="no"?>
<!DOCTYPE svg PUBLIC "-//W3C//DTD SVG 1.1//EN"
  "http://www.w3.org/Graphics/SVG/1.1/DTD/svg11.dtd">
<svg xmlns:xlink="http://www.w3.org/1999/xlink" width="535.68pt" height="201.410462pt" viewBox="0 0 535.68 201.410462" xmlns="http://www.w3.org/2000/svg" version="1.1">
 <metadata>
  <rdf:RDF xmlns:dc="http://purl.org/dc/elements/1.1/" xmlns:cc="http://creativecommons.org/ns#" xmlns:rdf="http://www.w3.org/1999/02/22-rdf-syntax-ns#">
   <cc:Work>
    <dc:type rdf:resource="http://purl.org/dc/dcmitype/StillImage"/>
    <dc:date>2024-07-10T13:15:37.486799</dc:date>
    <dc:format>image/svg+xml</dc:format>
    <dc:creator>
     <cc:Agent>
      <dc:title>Matplotlib v3.8.4, https://matplotlib.org/</dc:title>
     </cc:Agent>
    </dc:creator>
   </cc:Work>
  </rdf:RDF>
 </metadata>
 <defs>
  <style type="text/css">*{stroke-linejoin: round; stroke-linecap: butt}</style>
 </defs>
 <g id="figure_1">
  <g id="patch_1">
   <path d="M 0 201.410462 
L 535.68 201.410462 
L 535.68 0 
L 0 0 
z
" style="fill: #ffffff"/>
  </g>
  <g id="axes_1">
   <g id="LineCollection_1">
    <path d="M 80.539301 30.007385 
L 267.84 30.007385 
" clip-path="url(#p3936f6127c)" style="fill: none; stroke: #000000; stroke-width: 2"/>
    <path d="M 267.84 30.007385 
L 455.140699 30.007385 
" clip-path="url(#p3936f6127c)" style="fill: none; stroke: #000000; stroke-width: 2"/>
    <path d="M 267.84 30.007385 
L 142.972867 169.576615 
" clip-path="url(#p3936f6127c)" style="fill: none; stroke: #008000; stroke-width: 2"/>
    <path d="M 267.84 30.007385 
L 392.707133 169.576615 
" clip-path="url(#p3936f6127c)" style="fill: none; stroke: #008000; stroke-width: 2"/>
   </g>
   <g id="LineCollection_2">
    <path d="M 80.539301 30.007385 
L 267.84 30.007385 
" clip-path="url(#p3936f6127c)" style="fill: none; stroke: #000000; stroke-width: 2"/>
    <path d="M 267.84 30.007385 
L 455.140699 30.007385 
" clip-path="url(#p3936f6127c)" style="fill: none; stroke: #000000; stroke-width: 2"/>
    <path d="M 267.84 30.007385 
L 142.972867 169.576615 
" clip-path="url(#p3936f6127c)" style="fill: none; stroke: #008000; stroke-width: 2"/>
    <path d="M 267.84 30.007385 
L 392.707133 169.576615 
" clip-path="url(#p3936f6127c)" style="fill: none; stroke: #008000; stroke-width: 2"/>
   </g>
   <g id="text_1">
    <g id="patch_2">
     <path d="M 108.390985 29.691846 
L 239.990985 29.691846 
L 239.990985 7.991846 
L 108.390985 7.991846 
L 108.390985 29.691846 
z
" clip-path="url(#p3936f6127c)" style="fill: none; opacity: 0"/>
    </g>
    <g clip-path="url(#p3936f6127c)">
     <!-- $C_{sf} = 100 \; objs/sec$ -->
     <g transform="translate(112.450985 22.691846) rotate(-360) scale(0.14 -0.14)">
      <defs>
       <path id="DejaVuSans-Oblique-43" d="M 4447 4306 
L 4319 3641 
Q 4019 3944 3683 4091 
Q 3347 4238 2956 4238 
Q 2422 4238 2017 3981 
Q 1613 3725 1319 3200 
Q 1131 2863 1032 2486 
Q 934 2109 934 1728 
Q 934 1091 1264 756 
Q 1594 422 2222 422 
Q 2656 422 3056 561 
Q 3456 700 3834 978 
L 3688 231 
Q 3316 72 2936 -9 
Q 2556 -91 2175 -91 
Q 1278 -91 773 396 
Q 269 884 269 1753 
Q 269 2309 461 2846 
Q 653 3384 1013 3828 
Q 1394 4300 1883 4525 
Q 2372 4750 3022 4750 
Q 3422 4750 3780 4639 
Q 4138 4528 4447 4306 
z
" transform="scale(0.015625)"/>
       <path id="DejaVuSans-Oblique-73" d="M 3200 3397 
L 3091 2853 
Q 2863 2978 2609 3040 
Q 2356 3103 2088 3103 
Q 1634 3103 1373 2948 
Q 1113 2794 1113 2528 
Q 1113 2219 1719 2053 
Q 1766 2041 1788 2034 
L 1972 1978 
Q 2547 1819 2739 1644 
Q 2931 1469 2931 1166 
Q 2931 609 2489 259 
Q 2047 -91 1331 -91 
Q 1053 -91 747 -37 
Q 441 16 72 128 
L 184 722 
Q 500 559 806 475 
Q 1113 391 1394 391 
Q 1816 391 2080 572 
Q 2344 753 2344 1031 
Q 2344 1331 1650 1516 
L 1591 1531 
L 1394 1581 
Q 956 1697 753 1886 
Q 550 2075 550 2369 
Q 550 2928 970 3256 
Q 1391 3584 2113 3584 
Q 2397 3584 2667 3537 
Q 2938 3491 3200 3397 
z
" transform="scale(0.015625)"/>
       <path id="DejaVuSans-Oblique-66" d="M 3059 4863 
L 2969 4384 
L 2419 4384 
Q 2106 4384 1964 4261 
Q 1822 4138 1753 3809 
L 1691 3500 
L 2638 3500 
L 2553 3053 
L 1606 3053 
L 1013 0 
L 434 0 
L 1031 3053 
L 481 3053 
L 563 3500 
L 1113 3500 
L 1159 3744 
Q 1278 4363 1576 4613 
Q 1875 4863 2516 4863 
L 3059 4863 
z
" transform="scale(0.015625)"/>
       <path id="DejaVuSans-3d" d="M 678 2906 
L 4684 2906 
L 4684 2381 
L 678 2381 
L 678 2906 
z
M 678 1631 
L 4684 1631 
L 4684 1100 
L 678 1100 
L 678 1631 
z
" transform="scale(0.015625)"/>
       <path id="DejaVuSans-31" d="M 794 531 
L 1825 531 
L 1825 4091 
L 703 3866 
L 703 4441 
L 1819 4666 
L 2450 4666 
L 2450 531 
L 3481 531 
L 3481 0 
L 794 0 
L 794 531 
z
" transform="scale(0.015625)"/>
       <path id="DejaVuSans-30" d="M 2034 4250 
Q 1547 4250 1301 3770 
Q 1056 3291 1056 2328 
Q 1056 1369 1301 889 
Q 1547 409 2034 409 
Q 2525 409 2770 889 
Q 3016 1369 3016 2328 
Q 3016 3291 2770 3770 
Q 2525 4250 2034 4250 
z
M 2034 4750 
Q 2819 4750 3233 4129 
Q 3647 3509 3647 2328 
Q 3647 1150 3233 529 
Q 2819 -91 2034 -91 
Q 1250 -91 836 529 
Q 422 1150 422 2328 
Q 422 3509 836 4129 
Q 1250 4750 2034 4750 
z
" transform="scale(0.015625)"/>
       <path id="DejaVuSans-Oblique-6f" d="M 1625 -91 
Q 1009 -91 651 289 
Q 294 669 294 1325 
Q 294 1706 417 2101 
Q 541 2497 738 2766 
Q 1047 3184 1428 3384 
Q 1809 3584 2291 3584 
Q 2888 3584 3255 3212 
Q 3622 2841 3622 2241 
Q 3622 1825 3500 1412 
Q 3378 1000 3181 728 
Q 2875 309 2494 109 
Q 2113 -91 1625 -91 
z
M 891 1344 
Q 891 869 1089 633 
Q 1288 397 1691 397 
Q 2269 397 2648 901 
Q 3028 1406 3028 2181 
Q 3028 2634 2825 2865 
Q 2622 3097 2228 3097 
Q 1903 3097 1650 2945 
Q 1397 2794 1197 2484 
Q 1050 2253 970 1956 
Q 891 1659 891 1344 
z
" transform="scale(0.015625)"/>
       <path id="DejaVuSans-Oblique-62" d="M 3169 2138 
Q 3169 2591 2961 2847 
Q 2753 3103 2388 3103 
Q 2122 3103 1889 2973 
Q 1656 2844 1484 2597 
Q 1303 2338 1198 1995 
Q 1094 1653 1094 1313 
Q 1094 881 1298 636 
Q 1503 391 1863 391 
Q 2134 391 2365 517 
Q 2597 644 2772 891 
Q 2950 1147 3059 1487 
Q 3169 1828 3169 2138 
z
M 1381 2969 
Q 1594 3256 1914 3420 
Q 2234 3584 2584 3584 
Q 3122 3584 3439 3221 
Q 3756 2859 3756 2241 
Q 3756 1734 3570 1259 
Q 3384 784 3041 416 
Q 2816 172 2522 40 
Q 2228 -91 1906 -91 
Q 1566 -91 1316 65 
Q 1066 222 909 531 
L 806 0 
L 231 0 
L 1178 4863 
L 1753 4863 
L 1381 2969 
z
" transform="scale(0.015625)"/>
       <path id="DejaVuSans-Oblique-6a" d="M 928 3500 
L 1503 3500 
L 813 -63 
L 809 -78 
Q 694 -675 544 -897 
Q 403 -1106 132 -1218 
Q -138 -1331 -506 -1331 
L -722 -1331 
L -628 -844 
L -481 -844 
Q -144 -844 -1 -703 
Q 141 -563 238 -63 
L 928 3500 
z
M 1197 4863 
L 1772 4863 
L 1631 4134 
L 1056 4134 
L 1197 4863 
z
" transform="scale(0.015625)"/>
       <path id="DejaVuSans-2f" d="M 1625 4666 
L 2156 4666 
L 531 -594 
L 0 -594 
L 1625 4666 
z
" transform="scale(0.015625)"/>
       <path id="DejaVuSans-Oblique-65" d="M 3078 2063 
Q 3088 2113 3092 2166 
Q 3097 2219 3097 2272 
Q 3097 2653 2873 2875 
Q 2650 3097 2266 3097 
Q 1838 3097 1509 2826 
Q 1181 2556 1013 2059 
L 3078 2063 
z
M 3578 1613 
L 903 1613 
Q 884 1494 878 1425 
Q 872 1356 872 1306 
Q 872 872 1139 634 
Q 1406 397 1894 397 
Q 2269 397 2603 481 
Q 2938 566 3225 728 
L 3116 159 
Q 2806 34 2476 -28 
Q 2147 -91 1806 -91 
Q 1078 -91 686 257 
Q 294 606 294 1247 
Q 294 1794 489 2264 
Q 684 2734 1063 3103 
Q 1306 3334 1642 3459 
Q 1978 3584 2356 3584 
Q 2950 3584 3301 3228 
Q 3653 2872 3653 2272 
Q 3653 2128 3634 1964 
Q 3616 1800 3578 1613 
z
" transform="scale(0.015625)"/>
       <path id="DejaVuSans-Oblique-63" d="M 3431 3366 
L 3316 2797 
Q 3109 2947 2876 3022 
Q 2644 3097 2394 3097 
Q 2119 3097 1870 3000 
Q 1622 2903 1453 2725 
Q 1184 2453 1037 2087 
Q 891 1722 891 1331 
Q 891 859 1127 628 
Q 1363 397 1844 397 
Q 2081 397 2348 469 
Q 2616 541 2906 684 
L 2797 116 
Q 2547 13 2283 -39 
Q 2019 -91 1741 -91 
Q 1044 -91 669 257 
Q 294 606 294 1253 
Q 294 1797 489 2255 
Q 684 2713 1069 3078 
Q 1331 3328 1684 3456 
Q 2038 3584 2456 3584 
Q 2700 3584 2940 3529 
Q 3181 3475 3431 3366 
z
" transform="scale(0.015625)"/>
      </defs>
      <use xlink:href="#DejaVuSans-Oblique-43" transform="translate(0 0.015625)"/>
      <use xlink:href="#DejaVuSans-Oblique-73" transform="translate(69.824219 -16.390625) scale(0.7)"/>
      <use xlink:href="#DejaVuSans-Oblique-66" transform="translate(106.293945 -16.390625) scale(0.7)"/>
      <use xlink:href="#DejaVuSans-3d" transform="translate(153.154297 0.015625)"/>
      <use xlink:href="#DejaVuSans-31" transform="translate(256.425781 0.015625)"/>
      <use xlink:href="#DejaVuSans-30" transform="translate(320.048828 0.015625)"/>
      <use xlink:href="#DejaVuSans-30" transform="translate(383.671875 0.015625)"/>
      <use xlink:href="#DejaVuSans-Oblique-6f" transform="translate(474.354058 0.015625)"/>
      <use xlink:href="#DejaVuSans-Oblique-62" transform="translate(535.535698 0.015625)"/>
      <use xlink:href="#DejaVuSans-Oblique-6a" transform="translate(599.012261 0.015625)"/>
      <use xlink:href="#DejaVuSans-Oblique-73" transform="translate(626.795464 0.015625)"/>
      <use xlink:href="#DejaVuSans-2f" transform="translate(678.895073 0.015625)"/>
      <use xlink:href="#DejaVuSans-Oblique-73" transform="translate(712.586479 0.015625)"/>
      <use xlink:href="#DejaVuSans-Oblique-65" transform="translate(764.686089 0.015625)"/>
      <use xlink:href="#DejaVuSans-Oblique-63" transform="translate(826.209526 0.015625)"/>
     </g>
    </g>
   </g>
   <g id="text_2">
    <g id="patch_3">
     <path d="M 333.071685 29.676534 
L 389.911685 29.676534 
L 389.911685 8.007159 
L 333.071685 8.007159 
L 333.071685 29.676534 
z
" clip-path="url(#p3936f6127c)" style="fill: none; opacity: 0"/>
    </g>
    <g clip-path="url(#p3936f6127c)">
     <!-- $C_{fn} = \infty$ -->
     <g transform="translate(337.131685 22.704971) rotate(-360) scale(0.14 -0.14)">
      <defs>
       <path id="DejaVuSans-Oblique-6e" d="M 3566 2113 
L 3156 0 
L 2578 0 
L 2988 2091 
Q 3016 2238 3031 2350 
Q 3047 2463 3047 2528 
Q 3047 2791 2881 2937 
Q 2716 3084 2419 3084 
Q 1956 3084 1622 2776 
Q 1288 2469 1184 1941 
L 800 0 
L 225 0 
L 903 3500 
L 1478 3500 
L 1363 2950 
Q 1603 3253 1940 3418 
Q 2278 3584 2650 3584 
Q 3113 3584 3367 3334 
Q 3622 3084 3622 2631 
Q 3622 2519 3608 2391 
Q 3594 2263 3566 2113 
z
" transform="scale(0.015625)"/>
       <path id="DejaVuSans-221e" d="M 2916 1091 
Q 2819 1203 2666 1466 
Q 2456 1091 2272 925 
Q 2041 725 1681 725 
Q 1259 725 981 1041 
Q 688 1372 688 1919 
Q 688 2444 981 2800 
Q 1244 3116 1688 3116 
Q 1916 3116 2084 3022 
Q 2281 2919 2416 2741 
Q 2541 2581 2666 2366 
Q 2875 2741 3059 2906 
Q 3291 3106 3650 3106 
Q 4072 3106 4350 2791 
Q 4644 2459 4644 1913 
Q 4644 1388 4350 1031 
Q 4088 716 3644 716 
Q 3416 716 3247 809 
Q 3078 894 2916 1091 
z
M 1647 1134 
Q 2163 1134 2472 1884 
Q 2075 2703 1647 2703 
Q 1334 2703 1175 2478 
Q 1003 2238 1003 1919 
Q 1003 1569 1175 1353 
Q 1350 1134 1647 1134 
z
M 3684 2697 
Q 3219 2697 2859 1947 
Q 3253 1128 3684 1128 
Q 3997 1128 4156 1353 
Q 4328 1594 4328 1913 
Q 4328 2263 4156 2478 
Q 3981 2697 3684 2697 
z
" transform="scale(0.015625)"/>
      </defs>
      <use xlink:href="#DejaVuSans-Oblique-43" transform="translate(0 0.78125)"/>
      <use xlink:href="#DejaVuSans-Oblique-66" transform="translate(69.824219 -15.625) scale(0.7)"/>
      <use xlink:href="#DejaVuSans-Oblique-6e" transform="translate(94.467773 -15.625) scale(0.7)"/>
      <use xlink:href="#DejaVuSans-3d" transform="translate(161.049805 0.78125)"/>
      <use xlink:href="#DejaVuSans-221e" transform="translate(264.321289 0.78125)"/>
     </g>
    </g>
   </g>
   <g id="text_3">
    <g id="patch_4">
     <path d="M 171.477416 139.370802 
L 256.236382 44.632151 
L 239.333671 29.509957 
L 154.574705 124.248608 
L 171.477416 139.370802 
z
" clip-path="url(#p3936f6127c)" style="fill: none; opacity: 0"/>
    </g>
    <g clip-path="url(#p3936f6127c)">
     <!-- $r_{f_1} = 100 \; objs/sec$ -->
     <g transform="translate(168.237225 131.024236) rotate(-48.182247) scale(0.14 -0.14)">
      <defs>
       <path id="DejaVuSans-Oblique-72" d="M 2853 2969 
Q 2766 3016 2653 3041 
Q 2541 3066 2413 3066 
Q 1953 3066 1609 2717 
Q 1266 2369 1153 1784 
L 800 0 
L 225 0 
L 909 3500 
L 1484 3500 
L 1375 2956 
Q 1603 3259 1920 3421 
Q 2238 3584 2597 3584 
Q 2691 3584 2781 3573 
Q 2872 3563 2963 3538 
L 2853 2969 
z
" transform="scale(0.015625)"/>
      </defs>
      <use xlink:href="#DejaVuSans-Oblique-72" transform="translate(0 0.015625)"/>
      <use xlink:href="#DejaVuSans-Oblique-66" transform="translate(41.113281 -16.390625) scale(0.7)"/>
      <use xlink:href="#DejaVuSans-31" transform="translate(65.756836 -27.875) scale(0.49)"/>
      <use xlink:href="#DejaVuSans-3d" transform="translate(121.062988 0.015625)"/>
      <use xlink:href="#DejaVuSans-31" transform="translate(224.334473 0.015625)"/>
      <use xlink:href="#DejaVuSans-30" transform="translate(287.95752 0.015625)"/>
      <use xlink:href="#DejaVuSans-30" transform="translate(351.580566 0.015625)"/>
      <use xlink:href="#DejaVuSans-Oblique-6f" transform="translate(442.262749 0.015625)"/>
      <use xlink:href="#DejaVuSans-Oblique-62" transform="translate(503.44439 0.015625)"/>
      <use xlink:href="#DejaVuSans-Oblique-6a" transform="translate(566.920952 0.015625)"/>
      <use xlink:href="#DejaVuSans-Oblique-73" transform="translate(594.704155 0.015625)"/>
      <use xlink:href="#DejaVuSans-2f" transform="translate(646.803765 0.015625)"/>
      <use xlink:href="#DejaVuSans-Oblique-73" transform="translate(680.495171 0.015625)"/>
      <use xlink:href="#DejaVuSans-Oblique-65" transform="translate(732.59478 0.015625)"/>
      <use xlink:href="#DejaVuSans-Oblique-63" transform="translate(794.118218 0.015625)"/>
     </g>
    </g>
   </g>
   <g id="text_4">
    <g id="patch_5">
     <path d="M 282.430718 47.970958 
L 361.215484 136.031995 
L 378.118195 120.909801 
L 299.333429 32.848764 
L 282.430718 47.970958 
z
" clip-path="url(#p3936f6127c)" style="fill: none; opacity: 0"/>
    </g>
    <g clip-path="url(#p3936f6127c)">
     <!-- $r_{f_2} = 50 \; objs/sec$ -->
     <g transform="translate(291.085028 45.67598) rotate(-311.817753) scale(0.14 -0.14)">
      <defs>
       <path id="DejaVuSans-32" d="M 1228 531 
L 3431 531 
L 3431 0 
L 469 0 
L 469 531 
Q 828 903 1448 1529 
Q 2069 2156 2228 2338 
Q 2531 2678 2651 2914 
Q 2772 3150 2772 3378 
Q 2772 3750 2511 3984 
Q 2250 4219 1831 4219 
Q 1534 4219 1204 4116 
Q 875 4013 500 3803 
L 500 4441 
Q 881 4594 1212 4672 
Q 1544 4750 1819 4750 
Q 2544 4750 2975 4387 
Q 3406 4025 3406 3419 
Q 3406 3131 3298 2873 
Q 3191 2616 2906 2266 
Q 2828 2175 2409 1742 
Q 1991 1309 1228 531 
z
" transform="scale(0.015625)"/>
       <path id="DejaVuSans-35" d="M 691 4666 
L 3169 4666 
L 3169 4134 
L 1269 4134 
L 1269 2991 
Q 1406 3038 1543 3061 
Q 1681 3084 1819 3084 
Q 2600 3084 3056 2656 
Q 3513 2228 3513 1497 
Q 3513 744 3044 326 
Q 2575 -91 1722 -91 
Q 1428 -91 1123 -41 
Q 819 9 494 109 
L 494 744 
Q 775 591 1075 516 
Q 1375 441 1709 441 
Q 2250 441 2565 725 
Q 2881 1009 2881 1497 
Q 2881 1984 2565 2268 
Q 2250 2553 1709 2553 
Q 1456 2553 1204 2497 
Q 953 2441 691 2322 
L 691 4666 
z
" transform="scale(0.015625)"/>
      </defs>
      <use xlink:href="#DejaVuSans-Oblique-72" transform="translate(0 0.015625)"/>
      <use xlink:href="#DejaVuSans-Oblique-66" transform="translate(41.113281 -16.390625) scale(0.7)"/>
      <use xlink:href="#DejaVuSans-32" transform="translate(65.756836 -27.875) scale(0.49)"/>
      <use xlink:href="#DejaVuSans-3d" transform="translate(121.062988 0.015625)"/>
      <use xlink:href="#DejaVuSans-35" transform="translate(224.334473 0.015625)"/>
      <use xlink:href="#DejaVuSans-30" transform="translate(287.95752 0.015625)"/>
      <use xlink:href="#DejaVuSans-Oblique-6f" transform="translate(378.639702 0.015625)"/>
      <use xlink:href="#DejaVuSans-Oblique-62" transform="translate(439.821343 0.015625)"/>
      <use xlink:href="#DejaVuSans-Oblique-6a" transform="translate(503.297905 0.015625)"/>
      <use xlink:href="#DejaVuSans-Oblique-73" transform="translate(531.081108 0.015625)"/>
      <use xlink:href="#DejaVuSans-2f" transform="translate(583.180718 0.015625)"/>
      <use xlink:href="#DejaVuSans-Oblique-73" transform="translate(616.872124 0.015625)"/>
      <use xlink:href="#DejaVuSans-Oblique-65" transform="translate(668.971733 0.015625)"/>
      <use xlink:href="#DejaVuSans-Oblique-63" transform="translate(730.495171 0.015625)"/>
     </g>
    </g>
   </g>
   <g id="PathCollection_1">
    <defs>
     <path id="m56f6eebb71" d="M 0 11.18034 
C 2.965061 11.18034 5.80908 10.002309 7.905694 7.905694 
C 10.002309 5.80908 11.18034 2.965061 11.18034 0 
C 11.18034 -2.965061 10.002309 -5.80908 7.905694 -7.905694 
C 5.80908 -10.002309 2.965061 -11.18034 0 -11.18034 
C -2.965061 -11.18034 -5.80908 -10.002309 -7.905694 -7.905694 
C -10.002309 -5.80908 -11.18034 -2.965061 -11.18034 0 
C -11.18034 2.965061 -10.002309 5.80908 -7.905694 7.905694 
C -5.80908 10.002309 -2.965061 11.18034 0 11.18034 
z
" style="stroke: #ff0000; stroke-width: 2"/>
    </defs>
    <g clip-path="url(#p3936f6127c)">
     <use xlink:href="#m56f6eebb71" x="80.539301" y="30.007385" style="fill: #ff0000; stroke: #ff0000; stroke-width: 2"/>
     <use xlink:href="#m56f6eebb71" x="267.84" y="30.007385" style="fill: #ff0000; stroke: #ff0000; stroke-width: 2"/>
     <use xlink:href="#m56f6eebb71" x="455.140699" y="30.007385" style="fill: #ff0000; stroke: #ff0000; stroke-width: 2"/>
    </g>
   </g>
   <g id="PathCollection_2">
    <defs>
     <path id="mc89645ca6f" d="M -11.18034 11.18034 
L 11.18034 11.18034 
L 11.18034 -11.18034 
L -11.18034 -11.18034 
z
" style="stroke: #ff0000; stroke-width: 2"/>
    </defs>
    <g clip-path="url(#p3936f6127c)">
     <use xlink:href="#mc89645ca6f" x="142.972867" y="169.576615" style="fill: #ff0000; stroke: #ff0000; stroke-width: 2"/>
     <use xlink:href="#mc89645ca6f" x="392.707133" y="169.576615" style="fill: #ff0000; stroke: #ff0000; stroke-width: 2"/>
    </g>
   </g>
   <g id="text_5">
    <g clip-path="url(#p3936f6127c)">
     <!-- s -->
     <g transform="translate(76.892738 33.87051) scale(0.14 -0.14)">
      <defs>
       <path id="DejaVuSans-73" d="M 2834 3397 
L 2834 2853 
Q 2591 2978 2328 3040 
Q 2066 3103 1784 3103 
Q 1356 3103 1142 2972 
Q 928 2841 928 2578 
Q 928 2378 1081 2264 
Q 1234 2150 1697 2047 
L 1894 2003 
Q 2506 1872 2764 1633 
Q 3022 1394 3022 966 
Q 3022 478 2636 193 
Q 2250 -91 1575 -91 
Q 1294 -91 989 -36 
Q 684 19 347 128 
L 347 722 
Q 666 556 975 473 
Q 1284 391 1588 391 
Q 1994 391 2212 530 
Q 2431 669 2431 922 
Q 2431 1156 2273 1281 
Q 2116 1406 1581 1522 
L 1381 1569 
Q 847 1681 609 1914 
Q 372 2147 372 2553 
Q 372 3047 722 3315 
Q 1072 3584 1716 3584 
Q 2034 3584 2315 3537 
Q 2597 3491 2834 3397 
z
" transform="scale(0.015625)"/>
      </defs>
      <use xlink:href="#DejaVuSans-73"/>
     </g>
    </g>
   </g>
   <g id="text_6">
    <g clip-path="url(#p3936f6127c)">
     <!-- f -->
     <g transform="translate(265.375781 33.87051) scale(0.14 -0.14)">
      <defs>
       <path id="DejaVuSans-66" d="M 2375 4863 
L 2375 4384 
L 1825 4384 
Q 1516 4384 1395 4259 
Q 1275 4134 1275 3809 
L 1275 3500 
L 2222 3500 
L 2222 3053 
L 1275 3053 
L 1275 0 
L 697 0 
L 697 3053 
L 147 3053 
L 147 3500 
L 697 3500 
L 697 3744 
Q 697 4328 969 4595 
Q 1241 4863 1831 4863 
L 2375 4863 
z
" transform="scale(0.015625)"/>
      </defs>
      <use xlink:href="#DejaVuSans-66"/>
     </g>
    </g>
   </g>
   <g id="text_7">
    <g clip-path="url(#p3936f6127c)">
     <!-- n -->
     <g transform="translate(450.704449 33.87051) scale(0.14 -0.14)">
      <defs>
       <path id="DejaVuSans-6e" d="M 3513 2113 
L 3513 0 
L 2938 0 
L 2938 2094 
Q 2938 2591 2744 2837 
Q 2550 3084 2163 3084 
Q 1697 3084 1428 2787 
Q 1159 2491 1159 1978 
L 1159 0 
L 581 0 
L 581 3500 
L 1159 3500 
L 1159 2956 
Q 1366 3272 1645 3428 
Q 1925 3584 2291 3584 
Q 2894 3584 3203 3211 
Q 3513 2838 3513 2113 
z
" transform="scale(0.015625)"/>
      </defs>
      <use xlink:href="#DejaVuSans-6e"/>
     </g>
    </g>
   </g>
   <g id="text_8">
    <g clip-path="url(#p3936f6127c)">
     <!-- 1 -->
     <g transform="translate(138.519117 173.43974) scale(0.14 -0.14)">
      <use xlink:href="#DejaVuSans-31"/>
     </g>
    </g>
   </g>
   <g id="text_9">
    <g clip-path="url(#p3936f6127c)">
     <!-- 2 -->
     <g transform="translate(388.253383 173.43974) scale(0.14 -0.14)">
      <use xlink:href="#DejaVuSans-32"/>
     </g>
    </g>
   </g>
   <g id="text_10">
    <g clip-path="url(#p3936f6127c)">
     <!-- s -->
     <g transform="translate(76.892738 33.87051) scale(0.14 -0.14)">
      <use xlink:href="#DejaVuSans-73"/>
     </g>
    </g>
   </g>
   <g id="text_11">
    <g clip-path="url(#p3936f6127c)">
     <!-- f -->
     <g transform="translate(265.375781 33.87051) scale(0.14 -0.14)">
      <use xlink:href="#DejaVuSans-66"/>
     </g>
    </g>
   </g>
   <g id="text_12">
    <g clip-path="url(#p3936f6127c)">
     <!-- n -->
     <g transform="translate(450.704449 33.87051) scale(0.14 -0.14)">
      <use xlink:href="#DejaVuSans-6e"/>
     </g>
    </g>
   </g>
   <g id="text_13">
    <g clip-path="url(#p3936f6127c)">
     <!-- 1 -->
     <g transform="translate(138.519117 173.43974) scale(0.14 -0.14)">
      <use xlink:href="#DejaVuSans-31"/>
     </g>
    </g>
   </g>
   <g id="text_14">
    <g clip-path="url(#p3936f6127c)">
     <!-- 2 -->
     <g transform="translate(388.253383 173.43974) scale(0.14 -0.14)">
      <use xlink:href="#DejaVuSans-32"/>
     </g>
    </g>
   </g>
   <g id="text_15">
    <!-- $L_{f_1}=10 \; objs$ -->
    <g transform="translate(105.512727 197.490462) scale(0.14 -0.14)">
     <defs>
      <path id="DejaVuSans-Oblique-4c" d="M 1075 4666 
L 1709 4666 
L 909 525 
L 3181 525 
L 3078 0 
L 172 0 
L 1075 4666 
z
" transform="scale(0.015625)"/>
     </defs>
     <use xlink:href="#DejaVuSans-Oblique-4c" transform="translate(0 0.015625)"/>
     <use xlink:href="#DejaVuSans-Oblique-66" transform="translate(55.712891 -16.390625) scale(0.7)"/>
     <use xlink:href="#DejaVuSans-31" transform="translate(80.356445 -27.875) scale(0.49)"/>
     <use xlink:href="#DejaVuSans-3d" transform="translate(135.662598 0.015625)"/>
     <use xlink:href="#DejaVuSans-31" transform="translate(238.934082 0.015625)"/>
     <use xlink:href="#DejaVuSans-30" transform="translate(302.557129 0.015625)"/>
     <use xlink:href="#DejaVuSans-Oblique-6f" transform="translate(393.239312 0.015625)"/>
     <use xlink:href="#DejaVuSans-Oblique-62" transform="translate(454.420952 0.015625)"/>
     <use xlink:href="#DejaVuSans-Oblique-6a" transform="translate(517.897515 0.015625)"/>
     <use xlink:href="#DejaVuSans-Oblique-73" transform="translate(545.680718 0.015625)"/>
    </g>
   </g>
   <g id="text_16">
    <!-- $L_{f_2}=40 \; (90) \; objs$ -->
    <g transform="translate(337.765594 197.490462) scale(0.14 -0.14)">
     <defs>
      <path id="DejaVuSans-34" d="M 2419 4116 
L 825 1625 
L 2419 1625 
L 2419 4116 
z
M 2253 4666 
L 3047 4666 
L 3047 1625 
L 3713 1625 
L 3713 1100 
L 3047 1100 
L 3047 0 
L 2419 0 
L 2419 1100 
L 313 1100 
L 313 1709 
L 2253 4666 
z
" transform="scale(0.015625)"/>
      <path id="DejaVuSans-28" d="M 1984 4856 
Q 1566 4138 1362 3434 
Q 1159 2731 1159 2009 
Q 1159 1288 1364 580 
Q 1569 -128 1984 -844 
L 1484 -844 
Q 1016 -109 783 600 
Q 550 1309 550 2009 
Q 550 2706 781 3412 
Q 1013 4119 1484 4856 
L 1984 4856 
z
" transform="scale(0.015625)"/>
      <path id="DejaVuSans-39" d="M 703 97 
L 703 672 
Q 941 559 1184 500 
Q 1428 441 1663 441 
Q 2288 441 2617 861 
Q 2947 1281 2994 2138 
Q 2813 1869 2534 1725 
Q 2256 1581 1919 1581 
Q 1219 1581 811 2004 
Q 403 2428 403 3163 
Q 403 3881 828 4315 
Q 1253 4750 1959 4750 
Q 2769 4750 3195 4129 
Q 3622 3509 3622 2328 
Q 3622 1225 3098 567 
Q 2575 -91 1691 -91 
Q 1453 -91 1209 -44 
Q 966 3 703 97 
z
M 1959 2075 
Q 2384 2075 2632 2365 
Q 2881 2656 2881 3163 
Q 2881 3666 2632 3958 
Q 2384 4250 1959 4250 
Q 1534 4250 1286 3958 
Q 1038 3666 1038 3163 
Q 1038 2656 1286 2365 
Q 1534 2075 1959 2075 
z
" transform="scale(0.015625)"/>
      <path id="DejaVuSans-29" d="M 513 4856 
L 1013 4856 
Q 1481 4119 1714 3412 
Q 1947 2706 1947 2009 
Q 1947 1309 1714 600 
Q 1481 -109 1013 -844 
L 513 -844 
Q 928 -128 1133 580 
Q 1338 1288 1338 2009 
Q 1338 2731 1133 3434 
Q 928 4138 513 4856 
z
" transform="scale(0.015625)"/>
     </defs>
     <use xlink:href="#DejaVuSans-Oblique-4c" transform="translate(0 0.015625)"/>
     <use xlink:href="#DejaVuSans-Oblique-66" transform="translate(55.712891 -16.390625) scale(0.7)"/>
     <use xlink:href="#DejaVuSans-32" transform="translate(80.356445 -27.875) scale(0.49)"/>
     <use xlink:href="#DejaVuSans-3d" transform="translate(135.662598 0.015625)"/>
     <use xlink:href="#DejaVuSans-34" transform="translate(238.934082 0.015625)"/>
     <use xlink:href="#DejaVuSans-30" transform="translate(302.557129 0.015625)"/>
     <use xlink:href="#DejaVuSans-28" transform="translate(393.239312 0.015625)"/>
     <use xlink:href="#DejaVuSans-39" transform="translate(432.252983 0.015625)"/>
     <use xlink:href="#DejaVuSans-30" transform="translate(495.87603 0.015625)"/>
     <use xlink:href="#DejaVuSans-29" transform="translate(559.499077 0.015625)"/>
     <use xlink:href="#DejaVuSans-Oblique-6f" transform="translate(625.571885 0.015625)"/>
     <use xlink:href="#DejaVuSans-Oblique-62" transform="translate(686.753525 0.015625)"/>
     <use xlink:href="#DejaVuSans-Oblique-6a" transform="translate(750.230088 0.015625)"/>
     <use xlink:href="#DejaVuSans-Oblique-73" transform="translate(778.013291 0.015625)"/>
    </g>
   </g>
  </g>
 </g>
 <defs>
  <clipPath id="p3936f6127c">
   <rect x="0" y="-0" width="535.68" height="199.584"/>
  </clipPath>
 </defs>
</svg>
