<?xml version="1.0" encoding="UTF-8"?>
<svg xmlns="http://www.w3.org/2000/svg" version="1.1" xmlns:xlink="http://www.w3.org/1999/xlink" viewBox="0 0 428.1 340.19">
  <defs>
    <style>
      .cls-1 {
        stroke: #ccc;
      }

      .cls-1, .cls-2, .cls-3, .cls-4, .cls-5, .cls-6, .cls-7, .cls-8 {
        fill: none;
      }

      .cls-1, .cls-2, .cls-7 {
        stroke-miterlimit: 10;
      }

      .cls-1, .cls-9 {
        opacity: .8;
      }

      .cls-10 {
        clip-path: url(#clippath-34);
      }

      .cls-11 {
        clip-path: url(#clippath-21);
      }

      .cls-12 {
        clip-path: url(#clippath-6);
      }

      .cls-13 {
        clip-path: url(#clippath-7);
      }

      .cls-14 {
        clip-path: url(#clippath-17);
      }

      .cls-2, .cls-3, .cls-6, .cls-7, .cls-8 {
        stroke: #000;
      }

      .cls-15 {
        clip-path: url(#clippath-31);
      }

      .cls-3, .cls-4, .cls-6, .cls-8 {
        stroke-linejoin: round;
      }

      .cls-3, .cls-6 {
        stroke-width: 1.5px;
      }

      .cls-3, .cls-7 {
        stroke-linecap: square;
      }

      .cls-16 {
        clip-path: url(#clippath-15);
      }

      .cls-17 {
        clip-path: url(#clippath-33);
      }

      .cls-18 {
        clip-path: url(#clippath-18);
      }

      .cls-19 {
        clip-path: url(#clippath-4);
      }

      .cls-20 {
        clip-path: url(#clippath-22);
      }

      .cls-21 {
        clip-path: url(#clippath-23);
      }

      .cls-4 {
        opacity: .5;
        stroke: #b0b0b0;
        stroke-dasharray: 2.96 1.28;
      }

      .cls-4, .cls-7, .cls-8 {
        stroke-width: .8px;
      }

      .cls-22 {
        clip-path: url(#clippath-9);
      }

      .cls-23 {
        clip-path: url(#clippath-10);
      }

      .cls-24, .cls-9 {
        fill: #fff;
      }

      .cls-25 {
        clip-path: url(#clippath-25);
      }

      .cls-26 {
        clip-path: url(#clippath-27);
      }

      .cls-27 {
        clip-path: url(#clippath-11);
      }

      .cls-28 {
        clip-path: url(#clippath-35);
      }

      .cls-29 {
        clip-path: url(#clippath-28);
      }

      .cls-30 {
        clip-path: url(#clippath-1);
      }

      .cls-31 {
        clip-path: url(#clippath-5);
      }

      .cls-32 {
        clip-path: url(#clippath-20);
      }

      .cls-6 {
        stroke-dasharray: 5.55 2.4;
      }

      .cls-33 {
        clip-path: url(#clippath-8);
      }

      .cls-34 {
        clip-path: url(#clippath-3);
      }

      .cls-35 {
        clip-path: url(#clippath-26);
      }

      .cls-36 {
        clip-path: url(#clippath-12);
      }

      .cls-37 {
        clip-path: url(#clippath-14);
      }

      .cls-38 {
        clip-path: url(#clippath-30);
      }

      .cls-39 {
        clip-path: url(#clippath-19);
      }

      .cls-40 {
        clip-path: url(#clippath-32);
      }

      .cls-41 {
        clip-path: url(#clippath-16);
      }

      .cls-42 {
        clip-path: url(#clippath-2);
      }

      .cls-43 {
        clip-path: url(#clippath-29);
      }

      .cls-44 {
        clip-path: url(#clippath-13);
      }

      .cls-45 {
        clip-path: url(#clippath-24);
      }

      .cls-46 {
        clip-path: url(#clippath);
      }
    </style>
    <clipPath id="clippath">
      <rect class="cls-5" x="48.72" y="19.12" width="372.19" height="277.2"/>
    </clipPath>
    <clipPath id="clippath-1">
      <rect class="cls-5" x="48.72" y="19.12" width="372.19" height="277.2"/>
    </clipPath>
    <clipPath id="clippath-2">
      <rect class="cls-5" x="48.72" y="19.12" width="372.19" height="277.2"/>
    </clipPath>
    <clipPath id="clippath-3">
      <rect class="cls-5" x="48.72" y="19.12" width="372.19" height="277.2"/>
    </clipPath>
    <clipPath id="clippath-4">
      <rect class="cls-5" x="48.72" y="19.12" width="372.19" height="277.2"/>
    </clipPath>
    <clipPath id="clippath-5">
      <rect class="cls-5" x="344.51" y="312.36" width="40.14" height="21.28"/>
    </clipPath>
    <clipPath id="clippath-6">
      <rect class="cls-5" x="48.72" y="19.12" width="372.19" height="277.2"/>
    </clipPath>
    <clipPath id="clippath-7">
      <rect class="cls-5" x="48.72" y="19.12" width="372.19" height="277.2"/>
    </clipPath>
    <clipPath id="clippath-8">
      <rect class="cls-5" x="48.72" y="19.12" width="372.19" height="277.2"/>
    </clipPath>
    <clipPath id="clippath-9">
      <rect class="cls-5" x="48.72" y="19.12" width="372.19" height="277.2"/>
    </clipPath>
    <clipPath id="clippath-10">
      <rect class="cls-5" x="48.72" y="19.12" width="372.19" height="277.2"/>
    </clipPath>
    <clipPath id="clippath-11">
      <rect class="cls-5" x="48.72" y="19.12" width="372.19" height="277.2"/>
    </clipPath>
    <clipPath id="clippath-12">
      <rect class="cls-5" x="48.72" y="19.12" width="372.19" height="277.2"/>
    </clipPath>
    <clipPath id="clippath-13">
      <rect class="cls-5" x="48.72" y="19.12" width="372.19" height="277.2"/>
    </clipPath>
    <clipPath id="clippath-14">
      <rect class="cls-5" x="48.72" y="19.12" width="372.19" height="277.2"/>
    </clipPath>
    <clipPath id="clippath-15">
      <rect class="cls-5" x="57.63" y="70.03" width="16" height="16"/>
    </clipPath>
    <clipPath id="clippath-16">
      <rect class="cls-5" x="95.23" y="75.55" width="16" height="16"/>
    </clipPath>
    <clipPath id="clippath-17">
      <rect class="cls-5" x="132.82" y="85.17" width="16" height="16"/>
    </clipPath>
    <clipPath id="clippath-18">
      <rect class="cls-5" x="170.42" y="99.45" width="16" height="16"/>
    </clipPath>
    <clipPath id="clippath-19">
      <rect class="cls-5" x="208.01" y="120.27" width="16" height="16"/>
    </clipPath>
    <clipPath id="clippath-20">
      <rect class="cls-5" x="245.61" y="145.67" width="16" height="16"/>
    </clipPath>
    <clipPath id="clippath-21">
      <rect class="cls-5" x="283.2" y="176.05" width="16" height="16"/>
    </clipPath>
    <clipPath id="clippath-22">
      <rect class="cls-5" x="320.79" y="209.22" width="16" height="16"/>
    </clipPath>
    <clipPath id="clippath-23">
      <rect class="cls-5" x="358.39" y="243.88" width="16" height="16"/>
    </clipPath>
    <clipPath id="clippath-24">
      <rect class="cls-5" x="395.98" y="275.72" width="16" height="16"/>
    </clipPath>
    <clipPath id="clippath-25">
      <rect class="cls-5" x="48.72" y="19.12" width="372.19" height="277.2"/>
    </clipPath>
    <clipPath id="clippath-26">
      <rect class="cls-5" x="57.63" y="23.72" width="16" height="16"/>
    </clipPath>
    <clipPath id="clippath-27">
      <rect class="cls-5" x="95.23" y="29.23" width="16" height="16"/>
    </clipPath>
    <clipPath id="clippath-28">
      <rect class="cls-5" x="132.82" y="39.45" width="16" height="16"/>
    </clipPath>
    <clipPath id="clippath-29">
      <rect class="cls-5" x="170.42" y="54.71" width="16" height="16"/>
    </clipPath>
    <clipPath id="clippath-30">
      <rect class="cls-5" x="208.01" y="76.67" width="16" height="16"/>
    </clipPath>
    <clipPath id="clippath-31">
      <rect class="cls-5" x="245.61" y="104.74" width="16" height="16"/>
    </clipPath>
    <clipPath id="clippath-32">
      <rect class="cls-5" x="283.2" y="139.32" width="16" height="16"/>
    </clipPath>
    <clipPath id="clippath-33">
      <rect class="cls-5" x="320.79" y="178.67" width="16" height="16"/>
    </clipPath>
    <clipPath id="clippath-34">
      <rect class="cls-5" x="358.39" y="220.83" width="16" height="16"/>
    </clipPath>
    <clipPath id="clippath-35">
      <rect class="cls-5" x="395.98" y="259.76" width="16" height="16"/>
    </clipPath>
  </defs>
  <!-- Generator: Adobe Illustrator 28.6.0, SVG Export Plug-In . SVG Version: 1.2.0 Build 709)  -->
  <g>
    <g id="Layer_1">
      <rect class="cls-24" width="428.1" height="340.19"/>
      <rect class="cls-24" x="48.72" y="19.12" width="372.19" height="277.2"/>
      <g class="cls-46">
        <line class="cls-4" x1="103.23" y1="296.32" x2="103.23" y2="19.12"/>
      </g>
      <line x1="103.23" y1="296.32" x2="103.23" y2="299.82"/>
      <line class="cls-8" x1="103.23" y1="296.32" x2="103.23" y2="299.82"/>
      <path d="M98.45,303.5c.81,0,1.43.33,1.87.97.43.65.65,1.59.65,2.81s-.22,2.17-.65,2.81c-.44.64-1.06.96-1.88.96s-1.44-.32-1.87-.96-.64-1.58-.64-2.81.21-2.16.64-2.81c.43-.64,1.06-.97,1.88-.97ZM98.45,304.28c-.51,0-.89.25-1.15.75s-.38,1.25-.38,2.25.12,1.75.38,2.25.64.75,1.15.75.89-.25,1.15-.75c.25-.5.38-1.25.38-2.25s-.13-1.75-.38-2.25c-.26-.5-.64-.75-1.15-.75Z"/>
      <rect x="102.7" y="309.68" width="1.03" height="1.24"/>
      <path d="M106.73,310.09h3.44v.83h-4.63v-.83c.37-.38.88-.9,1.53-1.56.64-.65,1.05-1.07,1.22-1.26.32-.35.54-.65.66-.9.12-.24.19-.49.19-.73,0-.38-.14-.7-.41-.94-.27-.24-.62-.37-1.06-.37-.31,0-.64.06-.98.16-.34.11-.71.27-1.1.49v-1c.4-.16.77-.28,1.11-.36.34-.08.66-.12.95-.12.75,0,1.35.19,1.8.57.45.38.68.88.68,1.51,0,.3-.06.59-.17.85-.11.27-.31.59-.61.95-.08.1-.34.37-.78.82-.44.45-1.05,1.08-1.84,1.89Z"/>
      <g class="cls-30">
        <line class="cls-4" x1="178.42" y1="296.32" x2="178.42" y2="19.12"/>
      </g>
      <line x1="178.42" y1="296.32" x2="178.42" y2="299.82"/>
      <line class="cls-8" x1="178.42" y1="296.32" x2="178.42" y2="299.82"/>
      <path d="M173.64,303.5c.81,0,1.43.33,1.87.97.43.65.65,1.59.65,2.81s-.22,2.17-.65,2.81c-.44.64-1.06.96-1.88.96s-1.44-.32-1.87-.96c-.43-.64-.64-1.58-.64-2.81s.21-2.16.64-2.81c.43-.64,1.06-.97,1.88-.97ZM173.64,304.28c-.51,0-.89.25-1.15.75s-.38,1.25-.38,2.25.12,1.75.38,2.25.64.75,1.15.75.89-.25,1.15-.75c.25-.5.38-1.25.38-2.25s-.13-1.75-.38-2.25c-.26-.5-.64-.75-1.15-.75Z"/>
      <rect x="177.89" y="309.68" width="1.03" height="1.24"/>
      <path d="M183.52,303.63h1.24v4.75h1.04v.82h-1.04v1.72h-.98v-1.72h-3.29v-.95l3.03-4.62ZM183.78,304.49l-2.49,3.89h2.49v-3.89Z"/>
      <g class="cls-42">
        <line class="cls-4" x1="253.61" y1="296.32" x2="253.61" y2="19.12"/>
      </g>
      <line x1="253.61" y1="296.32" x2="253.61" y2="299.82"/>
      <line class="cls-8" x1="253.61" y1="296.32" x2="253.61" y2="299.82"/>
      <path d="M248.83,303.5c.81,0,1.43.33,1.87.97.43.65.65,1.59.65,2.81s-.22,2.17-.65,2.81c-.44.64-1.06.96-1.88.96s-1.44-.32-1.87-.96c-.43-.64-.64-1.58-.64-2.81s.21-2.16.64-2.81c.43-.64,1.06-.97,1.88-.97ZM248.83,304.28c-.51,0-.89.25-1.15.75s-.38,1.25-.38,2.25.12,1.75.38,2.25.64.75,1.15.75.89-.25,1.15-.75c.25-.5.38-1.25.38-2.25s-.13-1.75-.38-2.25c-.26-.5-.64-.75-1.15-.75Z"/>
      <rect x="253.08" y="309.68" width="1.03" height="1.24"/>
      <path d="M260.45,303.79v.9c-.25-.12-.5-.21-.75-.27-.26-.06-.51-.09-.75-.09-.66,0-1.16.22-1.5.66s-.54,1.11-.58,1.99c.19-.28.43-.5.72-.65s.61-.23.96-.23c.73,0,1.31.23,1.73.67.42.44.64,1.05.64,1.81s-.23,1.35-.67,1.8c-.44.45-1.03.67-1.76.67-.84,0-1.49-.32-1.93-.96-.45-.64-.67-1.58-.67-2.81,0-1.15.27-2.07.82-2.75.54-.68,1.28-1.03,2.2-1.03.24,0,.49.03.75.07.25.05.51.12.79.22ZM258.49,306.88c-.44,0-.79.16-1.05.46-.26.3-.39.72-.39,1.24s.13.95.39,1.25.61.45,1.05.45.79-.15,1.05-.45c.26-.3.39-.72.39-1.25s-.13-.94-.39-1.24c-.26-.3-.61-.46-1.05-.46Z"/>
      <g class="cls-34">
        <line class="cls-4" x1="328.79" y1="296.32" x2="328.79" y2="19.12"/>
      </g>
      <line x1="328.79" y1="296.32" x2="328.79" y2="299.82"/>
      <line class="cls-8" x1="328.79" y1="296.32" x2="328.79" y2="299.82"/>
      <path d="M324.02,303.5c.81,0,1.43.33,1.87.97.43.65.65,1.59.65,2.81s-.22,2.17-.65,2.81c-.44.64-1.06.96-1.88.96s-1.44-.32-1.87-.96c-.43-.64-.64-1.58-.64-2.81s.21-2.16.64-2.81c.43-.64,1.06-.97,1.88-.97ZM324.02,304.28c-.51,0-.89.25-1.15.75s-.38,1.25-.38,2.25.12,1.75.38,2.25.64.75,1.15.75.89-.25,1.15-.75c.25-.5.38-1.25.38-2.25s-.13-1.75-.38-2.25c-.26-.5-.64-.75-1.15-.75Z"/>
      <rect x="328.27" y="309.68" width="1.03" height="1.24"/>
      <path d="M332.21,305.48c0,.38.11.68.35.89.24.21.57.31,1,.31s.75-.1.99-.31c.24-.21.36-.51.36-.89s-.12-.67-.36-.88c-.24-.21-.57-.32-.99-.32s-.76.11-1,.32c-.24.21-.35.5-.35.88ZM332.57,307.04c-.42-.1-.75-.3-.99-.59-.24-.29-.35-.64-.35-1.06,0-.58.2-1.04.62-1.38.41-.34.98-.51,1.71-.51s1.29.17,1.71.51c.41.34.62.8.62,1.38,0,.42-.12.77-.36,1.06-.24.29-.56.49-.98.59.47.11.84.33,1.11.65.26.32.4.72.4,1.18,0,.71-.22,1.25-.65,1.62-.44.38-1.06.56-1.86.56s-1.42-.18-1.85-.56c-.43-.37-.64-.91-.64-1.62,0-.46.13-.86.4-1.18.26-.32.63-.54,1.11-.65ZM333.56,307.46c-.47,0-.84.13-1.11.38-.27.25-.4.59-.4,1.03s.13.79.4,1.04c.27.25.64.37,1.11.37s.83-.12,1.1-.38c.27-.25.41-.59.41-1.03s-.14-.78-.4-1.03c-.27-.25-.64-.38-1.11-.38Z"/>
      <g class="cls-19">
        <line class="cls-4" x1="403.98" y1="296.32" x2="403.98" y2="19.12"/>
      </g>
      <line x1="403.98" y1="296.32" x2="403.98" y2="299.82"/>
      <line class="cls-8" x1="403.98" y1="296.32" x2="403.98" y2="299.82"/>
      <polygon points="397.27 310.09 398.88 310.09 398.88 304.53 397.13 304.88 397.13 303.98 398.87 303.63 399.86 303.63 399.86 310.09 401.47 310.09 401.47 310.92 397.27 310.92 397.27 310.09"/>
      <rect x="403.46" y="309.68" width="1.03" height="1.24"/>
      <path d="M408.75,303.5c.81,0,1.43.33,1.87.97.43.65.65,1.59.65,2.81s-.22,2.17-.65,2.81c-.44.64-1.06.96-1.88.96s-1.44-.32-1.87-.96c-.43-.64-.64-1.58-.64-2.81s.21-2.16.64-2.81c.43-.64,1.06-.97,1.88-.97ZM408.75,304.28c-.51,0-.89.25-1.15.75s-.38,1.25-.38,2.25.12,1.75.38,2.25.64.75,1.15.75.89-.25,1.15-.75c.25-.5.38-1.25.38-2.25s-.13-1.75-.38-2.25c-.26-.5-.64-.75-1.15-.75Z"/>
      <path d="M101.78,317.45h3.35c1.21,0,2.14.28,2.77.84.63.56.95,1.36.95,2.43s-.32,1.91-.95,2.44c-.63.56-1.56.83-2.77.83h-1.86v4.39h-1.49v-10.94ZM103.26,318.66v4.11h1.86c.69,0,1.21-.17,1.59-.52.38-.36.57-.87.57-1.53s-.19-1.16-.57-1.52c-.38-.36-.9-.54-1.59-.54h-1.86Z"/>
      <path d="M113.94,319.98c1.17,0,2.09.39,2.76,1.14.66.76,1.01,1.81,1.01,3.16s-.35,2.4-1.01,3.15c-.67.76-1.59,1.14-2.76,1.14s-2.11-.38-2.77-1.14c-.66-.75-.99-1.8-.99-3.15s.33-2.4.99-3.16c.66-.75,1.59-1.14,2.77-1.14ZM113.94,321.12c-.72,0-1.29.28-1.71.85-.42.57-.63,1.33-.63,2.31s.19,1.76.61,2.32c.42.57.99.84,1.72.84s1.29-.27,1.71-.84c.42-.57.63-1.34.63-2.32s-.21-1.74-.63-2.31c-.42-.57-.99-.85-1.71-.85Z"/>
      <path d="M125.84,324.29c0-.99-.21-1.75-.61-2.32-.42-.57-.98-.86-1.68-.86s-1.28.28-1.68.86c-.42.57-.62,1.33-.62,2.32s.2,1.77.62,2.34c.4.57.96.84,1.68.84s1.26-.27,1.68-.84c.4-.57.61-1.35.61-2.34ZM121.25,327.15v4.34h-1.35v-11.31h1.35v1.24c.27-.48.63-.84,1.07-1.08s.96-.36,1.56-.36c.99,0,1.8.41,2.43,1.18.61.8.93,1.83.93,3.12s-.31,2.34-.93,3.12c-.63.78-1.44,1.17-2.43,1.17-.6,0-1.12-.12-1.56-.34-.43-.23-.79-.59-1.07-1.08Z"/>
      <path d="M132.72,319.98h0ZM129.33,325.14v-4.96h1.35v4.92c0,.78.15,1.35.45,1.74s.75.59,1.37.59c.72,0,1.3-.23,1.72-.69.42-.46.63-1.09.63-1.9v-4.65h1.35v8.2h-1.35v-1.26c-.33.51-.72.87-1.14,1.11-.43.22-.93.34-1.5.34-.94,0-1.66-.28-2.15-.87-.49-.57-.74-1.43-.74-2.57Z"/>
      <rect x="138.97" y="316.98" width="1.35" height="11.4"/>
      <path d="M149.56,323.7v4.68h-1.35v-1.24c-.32.51-.71.87-1.15,1.1-.45.22-1.02.34-1.68.34-.84,0-1.51-.22-2.01-.69-.49-.47-.74-1.1-.74-1.89,0-.91.3-1.61.93-2.09.62-.47,1.53-.7,2.76-.7h1.89v-.14c0-.61-.21-1.09-.61-1.44-.4-.33-.98-.51-1.71-.51-.48,0-.93.06-1.38.18-.45.12-.87.29-1.27.5v-1.25c.48-.18.96-.33,1.43-.42s.91-.15,1.36-.15c1.19,0,2.07.32,2.66.93.58.61.88,1.55.88,2.79ZM146.87,324.26c-1.1,0-1.85.13-2.26.38-.42.26-.63.68-.63,1.27,0,.48.15.87.46,1.14.32.28.75.42,1.29.42.75,0,1.35-.26,1.8-.8.45-.52.68-1.23.68-2.11v-.3h-1.33Z"/>
      <path d="M157.08,321.44c-.15-.09-.31-.15-.49-.19-.18-.03-.38-.06-.58-.06-.76,0-1.35.25-1.76.75-.42.49-.62,1.2-.62,2.13v4.32h-1.35v-8.2h1.35v1.27c.27-.49.65-.87,1.1-1.11s1.01-.36,1.67-.36c.09,0,.19.02.31.02.11.01.23.03.38.06v1.38Z"/>
      <path d="M158.5,316.98h1.35v1.71h-1.35v-1.71ZM158.5,320.18h1.35v8.2h-1.35v-8.2Z"/>
      <path d="M164,317.85v2.33h2.78v1.05h-2.78v4.45c0,.67.09,1.11.27,1.29.18.19.56.28,1.12.28h1.38v1.12h-1.38c-1.05,0-1.77-.19-2.16-.59s-.58-1.1-.58-2.11v-4.45h-.99v-1.05h.99v-2.33h1.35Z"/>
      <path d="M171.96,329.13c-.39.96-.76,1.61-1.12,1.9-.36.3-.84.45-1.44.45h-1.08v-1.12h.79c.36,0,.65-.09.86-.27.21-.18.43-.59.69-1.24l.24-.6-3.32-8.07h1.43l2.57,6.42,2.57-6.42h1.42l-3.6,8.95Z"/>
      <path d="M183,324.29c0,.99.19,1.77.6,2.34.4.57.96.84,1.68.84s1.27-.27,1.7-.84c.4-.57.61-1.35.61-2.34s-.21-1.75-.61-2.32c-.42-.57-.98-.86-1.7-.86s-1.27.28-1.68.86c-.41.57-.6,1.33-.6,2.32ZM187.59,321.42v-4.44h1.35v11.4h-1.35v-1.23c-.29.5-.65.86-1.08,1.08-.43.22-.94.34-1.54.34-.99,0-1.8-.39-2.43-1.17-.63-.78-.93-1.83-.93-3.12s.3-2.32.93-3.12c.63-.78,1.44-1.18,2.43-1.18.6,0,1.11.12,1.54.36s.79.6,1.08,1.08Z"/>
      <path d="M191.71,316.98h1.35v1.71h-1.35v-1.71ZM191.71,320.18h1.35v8.2h-1.35v-8.2Z"/>
      <path d="M201.11,320.42v1.28c-.39-.18-.78-.33-1.18-.44-.42-.09-.84-.15-1.28-.15-.68,0-1.18.11-1.51.32s-.49.51-.49.92c0,.31.12.55.36.73.24.18.72.36,1.44.51l.46.1c.96.21,1.63.51,2.04.87.39.38.6.9.6,1.56,0,.77-.3,1.37-.9,1.8-.6.45-1.44.66-2.49.66-.45,0-.9-.05-1.38-.12s-.97-.19-1.5-.38v-1.39c.49.27.99.46,1.47.59.48.13.96.19,1.44.19.63,0,1.12-.1,1.47-.32.33-.21.51-.52.51-.93,0-.36-.13-.65-.38-.84-.24-.2-.78-.39-1.62-.57l-.46-.1c-.84-.18-1.46-.45-1.82-.81-.38-.36-.56-.86-.56-1.5,0-.77.27-1.36.81-1.79.54-.42,1.32-.63,2.34-.63.49,0,.96.05,1.41.12.44.08.84.18,1.22.31Z"/>
      <path d="M205.03,317.85v2.33h2.78v1.05h-2.78v4.45c0,.67.09,1.11.27,1.29.18.19.56.28,1.12.28h1.38v1.12h-1.38c-1.05,0-1.77-.19-2.16-.59s-.58-1.1-.58-2.11v-4.45h-.99v-1.05h.99v-2.33h1.35Z"/>
      <path d="M214.33,321.44c-.15-.09-.31-.15-.49-.19-.18-.03-.38-.06-.58-.06-.76,0-1.35.25-1.76.75-.42.49-.62,1.2-.62,2.13v4.32h-1.35v-8.2h1.35v1.27c.27-.49.65-.87,1.1-1.11s1.01-.36,1.67-.36c.09,0,.19.02.31.02.11.01.23.03.38.06v1.38Z"/>
      <path d="M215.74,316.98h1.35v1.71h-1.35v-1.71ZM215.74,320.18h1.35v8.2h-1.35v-8.2Z"/>
      <path d="M221.21,321.42c.27-.48.63-.84,1.07-1.08s.96-.36,1.56-.36c.99,0,1.8.41,2.43,1.18.61.8.93,1.83.93,3.12s-.32,2.34-.93,3.12c-.63.78-1.44,1.17-2.43,1.17-.6,0-1.12-.12-1.56-.34-.43-.23-.79-.59-1.07-1.08v1.23h-1.35v-11.4h1.35v4.44ZM225.8,324.29c0-.99-.21-1.75-.61-2.32-.42-.57-.98-.86-1.68-.86s-1.27.28-1.68.86c-.42.57-.62,1.33-.62,2.32s.2,1.77.62,2.34c.4.57.96.84,1.68.84s1.26-.27,1.68-.84c.4-.57.61-1.35.61-2.34Z"/>
      <path d="M232.69,319.98h0ZM229.3,325.14v-4.96h1.35v4.92c0,.78.15,1.35.45,1.74s.75.59,1.37.59c.72,0,1.3-.23,1.72-.69.42-.46.63-1.09.63-1.9v-4.65h1.35v8.2h-1.35v-1.26c-.33.51-.72.87-1.14,1.11-.43.22-.93.34-1.5.34-.94,0-1.66-.28-2.15-.87-.49-.57-.74-1.43-.74-2.57Z"/>
      <path d="M240.27,317.85v2.33h2.78v1.05h-2.78v4.45c0,.67.09,1.11.27,1.29.18.19.56.28,1.12.28h1.38v1.12h-1.38c-1.05,0-1.77-.19-2.16-.59s-.58-1.1-.58-2.11v-4.45h-.99v-1.05h.99v-2.33h1.35Z"/>
      <path d="M244.82,316.98h1.35v1.71h-1.35v-1.71ZM244.82,320.18h1.35v8.2h-1.35v-8.2Z"/>
      <path d="M252.17,319.98c1.17,0,2.09.39,2.76,1.14.66.76,1,1.81,1,3.16s-.35,2.4-1,3.15c-.68.76-1.59,1.14-2.76,1.14s-2.11-.38-2.77-1.14c-.66-.75-.99-1.8-.99-3.15s.33-2.4.99-3.16c.66-.75,1.59-1.14,2.77-1.14ZM252.17,321.12c-.72,0-1.29.28-1.71.85s-.63,1.33-.63,2.31.2,1.76.62,2.32c.42.57.99.84,1.72.84s1.29-.27,1.71-.84c.42-.57.63-1.34.63-2.32s-.21-1.74-.63-2.31-.99-.85-1.71-.85Z"/>
      <path d="M264.99,323.43v4.95h-1.35v-4.9c0-.78-.17-1.35-.46-1.74-.3-.39-.75-.58-1.35-.58-.74,0-1.3.24-1.73.7s-.63,1.09-.63,1.89v4.63h-1.35v-8.2h1.35v1.27c.32-.48.69-.85,1.14-1.09.43-.24.94-.38,1.51-.38.93,0,1.65.3,2.13.89s.74,1.44.74,2.57Z"/>
      <path d="M278.33,324.29c0-.99-.21-1.75-.61-2.32-.42-.57-.98-.86-1.68-.86s-1.28.28-1.68.86c-.42.57-.61,1.33-.61,2.32s.2,1.77.61,2.34c.4.57.96.84,1.68.84s1.26-.27,1.68-.84c.4-.57.61-1.35.61-2.34ZM273.74,327.15v4.34h-1.35v-11.31h1.35v1.24c.27-.48.63-.84,1.07-1.08s.96-.36,1.56-.36c.99,0,1.8.41,2.43,1.18.62.8.93,1.83.93,3.12s-.32,2.34-.93,3.12c-.63.78-1.44,1.17-2.43,1.17-.6,0-1.12-.12-1.56-.34-.43-.23-.8-.59-1.07-1.08Z"/>
      <path d="M288.38,323.7v4.68h-1.35v-1.24c-.32.51-.71.87-1.15,1.1-.45.22-1.02.34-1.68.34-.84,0-1.51-.22-2.01-.69s-.74-1.1-.74-1.89c0-.91.3-1.61.93-2.09.62-.47,1.53-.7,2.76-.7h1.89v-.14c0-.61-.21-1.09-.62-1.44-.4-.33-.97-.51-1.71-.51-.48,0-.93.06-1.38.18-.45.12-.87.29-1.27.5v-1.25c.48-.18.96-.33,1.42-.42.47-.09.92-.15,1.37-.15,1.18,0,2.07.32,2.65.93.58.61.88,1.55.88,2.79ZM285.7,324.26c-1.1,0-1.85.13-2.26.38-.42.26-.63.68-.63,1.27,0,.48.15.87.46,1.14.32.28.75.42,1.29.42.75,0,1.35-.26,1.8-.8.45-.52.68-1.23.68-2.11v-.3h-1.34Z"/>
      <path d="M295.91,321.44c-.15-.09-.32-.15-.49-.19-.18-.03-.38-.06-.59-.06-.76,0-1.35.25-1.76.75-.42.49-.61,1.2-.61,2.13v4.32h-1.35v-8.2h1.35v1.27c.27-.49.64-.87,1.1-1.11s1.01-.36,1.67-.36c.09,0,.2.02.32.02.1.01.23.03.38.06v1.38Z"/>
      <path d="M303.74,323.7v4.68h-1.35v-1.24c-.32.51-.71.87-1.15,1.1-.45.22-1.02.34-1.68.34-.84,0-1.51-.22-2.01-.69s-.74-1.1-.74-1.89c0-.91.3-1.61.93-2.09.62-.47,1.53-.7,2.76-.7h1.89v-.14c0-.61-.21-1.09-.62-1.44-.4-.33-.97-.51-1.71-.51-.48,0-.93.06-1.38.18-.45.12-.87.29-1.27.5v-1.25c.48-.18.96-.33,1.42-.42.47-.09.92-.15,1.37-.15,1.18,0,2.07.32,2.65.93.58.61.88,1.55.88,2.79ZM301.05,324.26c-1.1,0-1.85.13-2.26.38-.42.26-.63.68-.63,1.27,0,.48.15.87.46,1.14.32.28.75.42,1.29.42.75,0,1.35-.26,1.8-.8.45-.52.68-1.23.68-2.11v-.3h-1.34Z"/>
      <path d="M312.9,321.75c.33-.6.74-1.03,1.2-1.34.46-.28,1.02-.43,1.67-.43.84,0,1.5.3,1.96.9.46.6.7,1.46.7,2.55v4.95h-1.35v-4.9c0-.78-.15-1.37-.42-1.76-.29-.38-.7-.57-1.27-.57-.71,0-1.26.24-1.67.7s-.6,1.09-.6,1.89v4.63h-1.35v-4.9c0-.78-.15-1.37-.42-1.76-.29-.38-.72-.57-1.29-.57-.69,0-1.24.24-1.65.7s-.6,1.09-.6,1.89v4.63h-1.35v-8.2h1.35v1.27c.3-.49.68-.87,1.11-1.11.42-.24.93-.36,1.53-.36s1.1.15,1.51.45c.42.3.72.75.93,1.32Z"/>
      <path d="M326.79,323.55c-.01-.73-.22-1.32-.61-1.77-.4-.44-.95-.66-1.61-.66-.75,0-1.35.22-1.8.64s-.72,1.02-.78,1.78h4.8ZM328.14,323.94v.66h-6.2c.06.93.33,1.65.84,2.13.49.48,1.18.72,2.08.72.51,0,1.02-.06,1.5-.18.48-.12.98-.32,1.45-.59v1.27c-.48.21-.97.38-1.48.47s-1.04.15-1.55.15c-1.32,0-2.35-.38-3.12-1.12-.76-.75-1.14-1.78-1.14-3.09s.36-2.4,1.08-3.2c.72-.78,1.71-1.18,2.94-1.18,1.11,0,1.98.36,2.62,1.07.63.72.96,1.68.96,2.9Z"/>
      <path d="M331.69,317.85v2.33h2.77v1.05h-2.77v4.45c0,.67.09,1.11.27,1.29.18.19.55.28,1.12.28h1.38v1.12h-1.38c-1.05,0-1.77-.19-2.16-.59-.39-.39-.59-1.1-.59-2.11v-4.45h-.99v-1.05h.99v-2.33h1.35Z"/>
      <path d="M341.9,323.55c-.01-.73-.22-1.32-.61-1.77-.4-.44-.95-.66-1.61-.66-.75,0-1.35.22-1.8.64s-.72,1.02-.78,1.78h4.8ZM343.25,323.94v.66h-6.2c.06.93.33,1.65.84,2.13.49.48,1.18.72,2.08.72.51,0,1.02-.06,1.5-.18.48-.12.98-.32,1.45-.59v1.27c-.48.21-.97.38-1.48.47s-1.04.15-1.55.15c-1.32,0-2.35-.38-3.12-1.12-.76-.75-1.14-1.78-1.14-3.09s.36-2.4,1.08-3.2c.72-.78,1.71-1.18,2.94-1.18,1.11,0,1.98.36,2.62,1.07.63.72.96,1.68.96,2.9Z"/>
      <path d="M350.22,321.44c-.15-.09-.32-.15-.49-.19-.18-.03-.38-.06-.59-.06-.76,0-1.35.25-1.76.75-.42.49-.61,1.2-.61,2.13v4.32h-1.35v-8.2h1.35v1.27c.27-.49.64-.87,1.1-1.11s1.01-.36,1.67-.36c.09,0,.2.02.32.02.1.01.23.03.38.06v1.38Z"/>
      <polygon points="351.97 326.52 353.52 326.52 353.52 327.78 352.32 330.11 351.37 330.11 351.97 327.78 351.97 326.52"/>
      <g class="cls-31">
        <path d="M363.25,321.47l.81,5.07,3.8-6.36h1.42l-4.9,8.2-.6,3.11h-1.35l.6-3.11-.96-6.12c-.09-.61-.38-.93-.84-.93h-.36l.23-1.15h.51c.96,0,1.5.43,1.65,1.29Z"/>
      </g>
      <g class="cls-12">
        <line class="cls-4" x1="48.72" y1="294.65" x2="420.9" y2="294.65"/>
      </g>
      <line x1="48.72" y1="294.65" x2="45.22" y2="294.65"/>
      <line class="cls-8" x1="48.72" y1="294.65" x2="45.22" y2="294.65"/>
      <polygon points="26.96 297.04 28.57 297.04 28.57 291.48 26.82 291.83 26.82 290.93 28.56 290.58 29.55 290.58 29.55 297.04 31.16 297.04 31.16 297.87 26.96 297.87 26.96 297.04"/>
      <rect x="33.15" y="296.63" width="1.03" height="1.24"/>
      <path d="M38.44,290.45c.81,0,1.43.33,1.87.97.43.65.65,1.59.65,2.81s-.22,2.17-.65,2.81c-.44.64-1.06.96-1.88.96s-1.44-.32-1.87-.96c-.43-.64-.64-1.58-.64-2.81s.21-2.16.64-2.81c.43-.64,1.06-.97,1.88-.97ZM38.44,291.23c-.51,0-.89.25-1.15.75-.26.5-.38,1.25-.38,2.25s.12,1.75.38,2.25c.26.5.64.75,1.15.75s.89-.25,1.15-.75c.25-.5.38-1.25.38-2.25s-.13-1.75-.38-2.25c-.26-.5-.64-.75-1.15-.75Z"/>
      <g class="cls-13">
        <line class="cls-4" x1="48.72" y1="259.46" x2="420.9" y2="259.46"/>
      </g>
      <line x1="48.72" y1="259.46" x2="45.22" y2="259.46"/>
      <line class="cls-8" x1="48.72" y1="259.46" x2="45.22" y2="259.46"/>
      <polygon points="26.96 261.72 28.57 261.72 28.57 256.16 26.82 256.51 26.82 255.61 28.56 255.26 29.55 255.26 29.55 261.72 31.16 261.72 31.16 262.55 26.96 262.55 26.96 261.72"/>
      <rect x="33.15" y="261.31" width="1.03" height="1.24"/>
      <path d="M36.34,255.26h3.87v.83h-2.97v1.79c.14-.05.29-.09.43-.11.14-.02.29-.04.43-.04.81,0,1.45.23,1.93.67.48.45.72,1.05.72,1.81s-.25,1.4-.74,1.83-1.18.64-2.06.64c-.31,0-.62-.03-.94-.07-.32-.05-.64-.12-.98-.23v-.99c.29.16.59.28.91.36.31.08.64.11.99.11.56,0,1.01-.14,1.34-.44.32-.3.49-.7.49-1.21s-.17-.9-.49-1.2c-.33-.3-.78-.45-1.34-.45-.26,0-.53.03-.79.09-.26.06-.53.15-.8.27v-3.66Z"/>
      <g class="cls-33">
        <line class="cls-4" x1="48.72" y1="224.27" x2="420.9" y2="224.27"/>
      </g>
      <line x1="48.72" y1="224.27" x2="45.22" y2="224.27"/>
      <line class="cls-8" x1="48.72" y1="224.27" x2="45.22" y2="224.27"/>
      <path d="M27.64,226.66h3.44v.83h-4.63v-.83c.37-.38.88-.9,1.53-1.56.64-.65,1.05-1.07,1.22-1.26.32-.35.54-.65.66-.9.12-.24.19-.49.19-.73,0-.38-.14-.7-.41-.94s-.62-.37-1.06-.37c-.31,0-.64.06-.98.16-.34.11-.71.27-1.1.49v-1c.4-.16.77-.28,1.11-.36.34-.08.66-.12.95-.12.75,0,1.35.19,1.8.57.45.38.68.88.68,1.51,0,.3-.06.59-.17.85-.11.27-.31.59-.61.95-.08.1-.34.37-.78.82-.44.45-1.05,1.08-1.84,1.89Z"/>
      <rect x="33.15" y="226.25" width="1.03" height="1.24"/>
      <path d="M38.44,220.07c.81,0,1.43.33,1.87.97.43.65.65,1.59.65,2.81s-.22,2.17-.65,2.81c-.44.64-1.06.96-1.88.96s-1.44-.32-1.87-.96-.64-1.58-.64-2.81.21-2.16.64-2.81c.43-.64,1.06-.97,1.88-.97ZM38.44,220.85c-.51,0-.89.25-1.15.75-.26.5-.38,1.25-.38,2.25s.12,1.75.38,2.25c.26.5.64.75,1.15.75s.89-.25,1.15-.75c.25-.5.38-1.25.38-2.25s-.13-1.75-.38-2.25c-.26-.5-.64-.75-1.15-.75Z"/>
      <g class="cls-22">
        <line class="cls-4" x1="48.72" y1="189.08" x2="420.9" y2="189.08"/>
      </g>
      <line x1="48.72" y1="189.08" x2="45.22" y2="189.08"/>
      <line class="cls-8" x1="48.72" y1="189.08" x2="45.22" y2="189.08"/>
      <path d="M27.64,191.47h3.44v.83h-4.63v-.83c.37-.38.88-.9,1.53-1.56.64-.65,1.05-1.07,1.22-1.26.32-.35.54-.65.66-.9.12-.24.19-.49.19-.73,0-.38-.14-.7-.41-.94s-.62-.37-1.06-.37c-.31,0-.64.06-.98.16-.34.11-.71.27-1.1.49v-1c.4-.16.77-.28,1.11-.36s.66-.12.95-.12c.75,0,1.35.19,1.8.57.45.38.68.88.68,1.51,0,.3-.06.59-.17.85-.11.27-.31.59-.61.95-.08.1-.34.37-.78.82s-1.05,1.08-1.84,1.89Z"/>
      <rect x="33.15" y="191.06" width="1.03" height="1.24"/>
      <path d="M36.34,185.01h3.87v.83h-2.97v1.79c.14-.05.29-.09.43-.11s.29-.04.43-.04c.81,0,1.45.23,1.93.67.48.45.72,1.05.72,1.81s-.25,1.4-.74,1.83c-.49.43-1.18.64-2.06.64-.31,0-.62-.03-.94-.07-.32-.05-.64-.12-.98-.23v-.99c.29.16.59.28.91.36.31.08.64.11.99.11.56,0,1.01-.14,1.34-.44.32-.3.49-.7.49-1.21s-.17-.9-.49-1.2c-.33-.3-.78-.45-1.34-.45-.26,0-.53.03-.79.09-.26.06-.53.15-.8.27v-3.66Z"/>
      <g class="cls-23">
        <line class="cls-4" x1="48.72" y1="153.89" x2="420.9" y2="153.89"/>
      </g>
      <line x1="48.72" y1="153.89" x2="45.22" y2="153.89"/>
      <line class="cls-8" x1="48.72" y1="153.89" x2="45.22" y2="153.89"/>
      <path d="M29.78,153.18c.47.1.84.31,1.1.63.26.32.4.72.4,1.18,0,.72-.25,1.28-.74,1.67-.5.39-1.2.58-2.11.58-.31,0-.63-.03-.95-.09-.32-.05-.66-.14-1-.26v-.95c.27.16.57.28.9.36.32.08.66.12,1.02.12.62,0,1.09-.12,1.41-.36.32-.24.49-.6.49-1.07,0-.42-.15-.76-.45-1-.3-.24-.72-.37-1.26-.37h-.85v-.81h.89c.48,0,.85-.09,1.11-.29.26-.19.39-.47.39-.84s-.14-.66-.4-.86c-.27-.2-.65-.3-1.14-.3-.27,0-.56.03-.87.09s-.65.15-1.02.27v-.88c.37-.1.72-.18,1.05-.23.32-.05.63-.08.93-.08.74,0,1.33.17,1.77.51.44.34.66.8.66,1.38,0,.4-.12.74-.35,1.02s-.56.48-.98.58Z"/>
      <rect x="33.15" y="155.87" width="1.03" height="1.24"/>
      <path d="M38.44,149.69c.81,0,1.43.33,1.87.97.43.65.65,1.59.65,2.81s-.22,2.17-.65,2.81c-.44.64-1.06.96-1.88.96s-1.44-.32-1.87-.96-.64-1.58-.64-2.81.21-2.16.64-2.81c.43-.64,1.06-.97,1.88-.97ZM38.44,150.47c-.51,0-.89.25-1.15.75-.26.5-.38,1.25-.38,2.25s.12,1.75.38,2.25c.26.5.64.75,1.15.75s.89-.25,1.15-.75c.25-.5.38-1.25.38-2.25s-.13-1.75-.38-2.25c-.26-.5-.64-.75-1.15-.75Z"/>
      <g class="cls-27">
        <line class="cls-4" x1="48.72" y1="118.7" x2="420.9" y2="118.7"/>
      </g>
      <line x1="48.72" y1="118.7" x2="45.22" y2="118.7"/>
      <line class="cls-8" x1="48.72" y1="118.7" x2="45.22" y2="118.7"/>
      <path d="M29.78,117.99c.47.1.84.31,1.1.63.26.32.4.72.4,1.18,0,.72-.25,1.28-.74,1.67-.5.39-1.2.58-2.11.58-.31,0-.63-.03-.95-.09-.32-.05-.66-.14-1-.26v-.95c.27.16.57.28.9.36.32.08.66.12,1.02.12.62,0,1.09-.12,1.41-.36.32-.24.49-.6.49-1.07,0-.42-.15-.76-.45-1-.3-.24-.72-.37-1.26-.37h-.85v-.81h.89c.48,0,.85-.09,1.11-.29.26-.19.39-.47.39-.84s-.14-.66-.4-.86c-.27-.2-.65-.3-1.14-.3-.27,0-.56.03-.87.09s-.65.15-1.02.27v-.88c.37-.1.72-.18,1.05-.23.32-.05.63-.08.93-.08.74,0,1.33.17,1.77.51.44.34.66.8.66,1.38,0,.4-.12.74-.35,1.02s-.56.48-.98.58Z"/>
      <rect x="33.15" y="120.68" width="1.03" height="1.24"/>
      <path d="M36.34,114.63h3.87v.83h-2.97v1.79c.14-.05.29-.09.43-.11s.29-.04.43-.04c.81,0,1.45.23,1.93.67.48.45.72,1.05.72,1.81s-.25,1.4-.74,1.83c-.49.43-1.18.64-2.06.64-.31,0-.62-.03-.94-.07-.32-.05-.64-.12-.98-.23v-.99c.29.16.59.28.91.36.31.08.64.11.99.11.56,0,1.01-.14,1.34-.44.32-.3.49-.7.49-1.21s-.17-.9-.49-1.2c-.33-.3-.78-.45-1.34-.45-.26,0-.53.03-.79.09-.26.06-.53.15-.8.27v-3.66Z"/>
      <g class="cls-36">
        <line class="cls-4" x1="48.72" y1="83.51" x2="420.9" y2="83.51"/>
      </g>
      <line x1="48.72" y1="83.51" x2="45.22" y2="83.51"/>
      <line class="cls-8" x1="48.72" y1="83.51" x2="45.22" y2="83.51"/>
      <path d="M29.24,79.44h1.24v4.75h1.04v.82h-1.04v1.72h-.98v-1.72h-3.29v-.95l3.03-4.62ZM29.5,80.3l-2.49,3.89h2.49v-3.89Z"/>
      <rect x="33.15" y="85.49" width="1.03" height="1.24"/>
      <path d="M38.44,79.31c.81,0,1.43.33,1.87.97.43.65.65,1.59.65,2.81s-.22,2.17-.65,2.81c-.44.64-1.06.96-1.88.96s-1.44-.32-1.87-.96-.64-1.58-.64-2.81.21-2.16.64-2.81c.43-.64,1.06-.97,1.88-.97ZM38.44,80.09c-.51,0-.89.25-1.15.75-.26.5-.38,1.25-.38,2.25s.12,1.75.38,2.25c.26.5.64.75,1.15.75s.89-.25,1.15-.75c.25-.5.38-1.25.38-2.25s-.13-1.75-.38-2.25c-.26-.5-.64-.75-1.15-.75Z"/>
      <g class="cls-44">
        <line class="cls-4" x1="48.72" y1="48.32" x2="420.9" y2="48.32"/>
      </g>
      <line x1="48.72" y1="48.32" x2="45.22" y2="48.32"/>
      <line class="cls-8" x1="48.72" y1="48.32" x2="45.22" y2="48.32"/>
      <path d="M29.24,44.13h1.24v4.75h1.04v.82h-1.04v1.72h-.98v-1.72h-3.29v-.95l3.03-4.62ZM29.5,44.99l-2.49,3.89h2.49v-3.89Z"/>
      <rect x="33.15" y="50.18" width="1.03" height="1.24"/>
      <path d="M36.34,44.13h3.87v.83h-2.97v1.79c.14-.05.29-.09.43-.11s.29-.04.43-.04c.81,0,1.45.23,1.93.67.48.45.72,1.05.72,1.81s-.25,1.4-.74,1.83c-.49.43-1.18.64-2.06.64-.31,0-.62-.03-.94-.07-.32-.05-.64-.12-.98-.23v-.99c.29.16.59.28.91.36.31.08.64.11.99.11.56,0,1.01-.14,1.34-.44.32-.3.49-.7.49-1.21s-.17-.9-.49-1.2c-.33-.3-.78-.45-1.34-.45-.26,0-.53.03-.79.09-.26.06-.53.15-.8.27v-3.66Z"/>
      <polygon points="7.66 219.05 7.66 209.81 8.9 209.81 8.9 213.69 18.59 213.69 18.59 215.18 8.9 215.18 8.9 219.05 7.66 219.05"/>
      <path d="M10.19,207.81c0-1.17.39-2.09,1.14-2.76.76-.66,1.82-1,3.16-1s2.4.35,3.15,1c.76.68,1.14,1.59,1.14,2.76s-.38,2.11-1.14,2.77c-.75.66-1.8.99-3.15.99s-2.4-.33-3.16-.99c-.75-.66-1.14-1.59-1.14-2.77ZM11.33,207.81c0,.72.28,1.29.85,1.71.57.42,1.34.63,2.31.63s1.76-.2,2.32-.62.84-.99.84-1.72-.27-1.29-.84-1.71-1.33-.63-2.32-.63-1.74.21-2.31.63c-.57.42-.85.99-.85,1.71Z"/>
      <path d="M8.06,200.48h2.33v-2.78h1.05v2.78h4.46c.68,0,1.11-.09,1.29-.27.19-.18.28-.56.28-1.12v-1.38h1.12v1.38c0,1.05-.19,1.77-.58,2.16-.39.39-1.1.58-2.12.58h-4.46v.99h-1.05v-.99h-2.33v-1.35Z"/>
      <path d="M13.91,189.51h4.68v1.35h-1.25c.51.32.87.71,1.1,1.15s.34,1.02.34,1.68c0,.84-.23,1.51-.69,2.01-.46.49-1.09.74-1.89.74-.91,0-1.6-.3-2.09-.93-.47-.62-.7-1.53-.7-2.76v-1.89h-.14c-.61,0-1.1.21-1.44.61-.33.4-.51.98-.51,1.71,0,.48.06.93.18,1.38.12.45.28.87.49,1.27h-1.24c-.18-.48-.33-.96-.42-1.43s-.15-.91-.15-1.36c0-1.19.32-2.07.93-2.66.61-.58,1.55-.88,2.79-.88ZM14.47,192.2c0,1.1.14,1.85.38,2.26.26.42.68.63,1.27.63.48,0,.87-.15,1.14-.46.28-.32.42-.75.42-1.29,0-.75-.25-1.35-.79-1.8-.53-.45-1.23-.67-2.12-.67h-.3v1.33Z"/>
      <rect x="7.19" y="185.39" width="11.4" height="1.35"/>
      <path d="M14.5,176.99c.99,0,1.77-.19,2.34-.6.57-.4.84-.96.84-1.68s-.27-1.27-.84-1.7c-.57-.4-1.35-.61-2.34-.61s-1.76.21-2.32.61c-.57.42-.85.98-.85,1.7s.28,1.27.85,1.68c.57.41,1.34.6,2.32.6ZM11.63,172.4h-4.44v-1.35h11.4v1.35h-1.23c.49.29.85.65,1.08,1.08s.34.94.34,1.54c0,.99-.39,1.8-1.17,2.43-.78.63-1.83.93-3.12.93s-2.32-.3-3.12-.93c-.78-.63-1.19-1.44-1.19-2.43,0-.6.12-1.11.36-1.54.24-.43.6-.79,1.08-1.08Z"/>
      <path d="M13.76,162.6c-.74.01-1.32.23-1.77.62-.43.4-.66.94-.66,1.6,0,.75.23,1.35.65,1.8s1.02.72,1.78.78v-4.8ZM14.15,161.25h.66v6.2c.93-.06,1.65-.33,2.13-.84.48-.5.72-1.18.72-2.09,0-.51-.06-1.02-.18-1.5-.12-.48-.31-.97-.58-1.46h1.27c.21.48.38.98.47,1.49.09.51.15,1.04.15,1.54,0,1.32-.38,2.36-1.12,3.12s-1.78,1.14-3.09,1.14-2.4-.36-3.19-1.08c-.78-.72-1.19-1.71-1.19-2.94,0-1.11.36-1.98,1.06-2.62.72-.63,1.68-.96,2.9-.96Z"/>
      <rect x="7.19" y="157.7" width="11.4" height="1.35"/>
      <path d="M13.91,148.46h4.68v1.35h-1.25c.51.32.87.71,1.1,1.15s.34,1.02.34,1.68c0,.84-.23,1.51-.69,2.01-.46.49-1.09.74-1.89.74-.91,0-1.6-.3-2.09-.93-.47-.62-.7-1.53-.7-2.76v-1.89h-.14c-.61,0-1.1.21-1.44.61-.33.4-.51.98-.51,1.71,0,.48.06.93.18,1.38.12.45.28.87.49,1.27h-1.24c-.18-.48-.33-.96-.42-1.43s-.15-.91-.15-1.36c0-1.19.32-2.07.93-2.66.61-.58,1.55-.88,2.79-.88ZM14.47,151.14c0,1.1.14,1.85.38,2.26.26.42.68.63,1.27.63.48,0,.87-.15,1.14-.46.28-.32.42-.75.42-1.29,0-.75-.25-1.35-.79-1.8-.53-.45-1.23-.67-2.12-.67h-.3v1.33Z"/>
      <path d="M19.34,142.26c.96.39,1.6.76,1.91,1.12.3.36.45.84.45,1.44v1.08h-1.12v-.79c0-.36-.09-.65-.27-.86-.18-.21-.58-.43-1.24-.69l-.6-.24-8.07,3.32v-1.43l6.42-2.57-6.42-2.57v-1.43l8.95,3.6Z"/>
      <path d="M7.21,128.79c1.14.66,2.25,1.14,3.35,1.45,1.1.33,2.2.48,3.33.48s2.25-.15,3.35-.48c1.11-.31,2.2-.79,3.33-1.45v1.17c-1.16.74-2.26,1.29-3.38,1.65s-2.2.54-3.3.54-2.18-.18-3.29-.54c-1.11-.36-2.23-.9-3.39-1.65v-1.17Z"/>
      <path d="M10.63,120.95h1.27c-.18.39-.33.78-.43,1.18-.09.42-.15.84-.15,1.28,0,.68.1,1.18.31,1.51s.51.49.91.49c.32,0,.56-.12.73-.36.18-.24.36-.72.51-1.44l.11-.46c.21-.96.51-1.63.87-2.04.38-.39.9-.6,1.56-.6.76,0,1.36.3,1.8.9.45.6.66,1.44.66,2.49,0,.45-.05.9-.12,1.38-.08.48-.2.97-.38,1.5h-1.4c.27-.49.47-.99.58-1.47.14-.48.19-.96.19-1.44,0-.63-.1-1.12-.31-1.47-.21-.33-.53-.51-.93-.51-.36,0-.65.13-.84.38-.19.24-.39.78-.57,1.62l-.11.46c-.18.84-.45,1.46-.81,1.82-.36.38-.85.56-1.5.56-.76,0-1.36-.27-1.78-.81-.42-.54-.63-1.32-.63-2.34,0-.49.05-.96.12-1.41.08-.43.18-.84.32-1.21Z"/>
      <path d="M13.76,112.7c-.74.01-1.32.23-1.77.62-.43.4-.66.94-.66,1.6,0,.75.23,1.35.65,1.8s1.02.72,1.78.78v-4.8ZM14.15,111.35h.66v6.2c.93-.06,1.65-.33,2.13-.84.48-.5.72-1.18.72-2.09,0-.51-.06-1.02-.18-1.5-.12-.48-.31-.97-.58-1.46h1.27c.21.48.38.98.47,1.49.09.51.15,1.04.15,1.54,0,1.32-.38,2.36-1.12,3.12s-1.78,1.14-3.09,1.14-2.4-.36-3.19-1.08c-.78-.72-1.19-1.71-1.19-2.94,0-1.11.36-1.98,1.06-2.62.72-.63,1.68-.96,2.9-.96Z"/>
      <path d="M10.7,103.23h1.26c-.21.39-.36.77-.47,1.16s-.16.76-.16,1.15c0,.87.28,1.56.84,2.04s1.34.72,2.32.72,1.79-.24,2.34-.72c.56-.48.83-1.17.83-2.04,0-.39-.05-.76-.15-1.15s-.27-.76-.48-1.16h1.24c.18.39.32.78.39,1.17.07.4.12.84.12,1.29,0,1.23-.38,2.22-1.15,2.94-.77.74-1.82,1.1-3.14,1.1s-2.39-.36-3.15-1.1c-.76-.74-1.15-1.74-1.15-3.03,0-.42.05-.82.14-1.21s.21-.78.38-1.16Z"/>
      <path d="M7.21,101.1v-1.17c1.15-.72,2.28-1.28,3.39-1.64,1.11-.36,2.2-.55,3.29-.55s2.19.19,3.3.55,2.22.92,3.38,1.64v1.17c-1.12-.65-2.22-1.12-3.33-1.46-1.09-.32-2.2-.48-3.35-.48s-2.23.16-3.33.48c-1.1.33-2.21.81-3.35,1.46Z"/>
      <polygon points="55.73 9.78 53.5 12.02 55.73 14.25 55.15 14.84 52.91 12.6 50.67 14.84 50.09 14.25 52.32 12.02 50.09 9.78 50.67 9.19 52.91 11.43 55.15 9.19 55.73 9.78"/>
      <polygon points="58.33 14.32 59.94 14.32 59.94 8.76 58.19 9.11 58.19 8.21 59.93 7.86 60.92 7.86 60.92 14.32 62.53 14.32 62.53 15.15 58.33 15.15 58.33 14.32"/>
      <path d="M66.64,7.73c.81,0,1.43.33,1.87.97.43.65.65,1.59.65,2.81s-.22,2.17-.65,2.81c-.44.64-1.06.96-1.88.96s-1.44-.32-1.87-.96c-.43-.64-.64-1.58-.64-2.81s.21-2.16.64-2.81c.43-.64,1.06-.97,1.88-.97ZM66.64,8.51c-.51,0-.89.25-1.15.75-.26.5-.38,1.25-.38,2.25s.12,1.75.38,2.25c.26.5.64.75,1.15.75s.89-.25,1.15-.75c.25-.5.38-1.25.38-2.25s-.13-1.75-.38-2.25c-.26-.5-.64-.75-1.15-.75Z"/>
      <path d="M73.6,6.33v.63c-.17-.08-.35-.15-.53-.19-.18-.04-.36-.06-.52-.06-.46,0-.81.15-1.05.46s-.38.78-.41,1.39c.13-.2.3-.35.5-.46.2-.1.43-.16.67-.16.51,0,.92.16,1.21.47.29.31.45.73.45,1.27s-.16.95-.47,1.26-.72.47-1.23.47c-.59,0-1.04-.22-1.35-.67-.32-.45-.47-1.11-.47-1.97,0-.8.19-1.45.57-1.92.38-.48.9-.72,1.54-.72.17,0,.34.02.52.05.18.04.36.08.55.15ZM72.22,8.49c-.31,0-.55.11-.74.32-.18.21-.27.5-.27.87s.09.67.27.88c.18.21.43.32.74.32s.55-.11.74-.32.27-.5.27-.88-.09-.66-.27-.87c-.18-.21-.43-.32-.74-.32Z"/>
      <g class="cls-37">
        <polyline class="cls-3" points="65.63 78.03 103.23 83.55 140.82 93.17 178.42 107.45 216.01 128.27 253.61 153.67 291.2 184.05 328.79 217.22 366.39 251.88 403.98 283.72"/>
        <g class="cls-16">
          <polygon class="cls-2" points="65.63 75.03 62.63 81.03 68.63 81.03 65.63 75.03"/>
        </g>
        <g class="cls-41">
          <polygon class="cls-2" points="103.23 80.55 100.23 86.55 106.23 86.55 103.23 80.55"/>
        </g>
        <g class="cls-14">
          <polygon class="cls-2" points="140.82 90.17 137.82 96.17 143.82 96.17 140.82 90.17"/>
        </g>
        <g class="cls-18">
          <polygon class="cls-2" points="178.42 104.45 175.42 110.45 181.42 110.45 178.42 104.45"/>
        </g>
        <g class="cls-39">
          <polygon class="cls-2" points="216.01 125.27 213.01 131.27 219.01 131.27 216.01 125.27"/>
        </g>
        <g class="cls-32">
          <polygon class="cls-2" points="253.61 150.67 250.61 156.67 256.61 156.67 253.61 150.67"/>
        </g>
        <g class="cls-11">
          <polygon class="cls-2" points="291.2 181.05 288.2 187.05 294.2 187.05 291.2 181.05"/>
        </g>
        <g class="cls-20">
          <polygon class="cls-2" points="328.79 214.22 325.79 220.22 331.79 220.22 328.79 214.22"/>
        </g>
        <g class="cls-21">
          <polygon class="cls-2" points="366.39 248.88 363.39 254.88 369.39 254.88 366.39 248.88"/>
        </g>
        <g class="cls-45">
          <polygon class="cls-2" points="403.98 280.72 400.98 286.72 406.98 286.72 403.98 280.72"/>
        </g>
      </g>
      <g class="cls-25">
        <polyline class="cls-6" points="65.63 31.72 103.23 37.23 140.82 47.45 178.42 62.71 216.01 84.67 253.61 112.74 291.2 147.32 328.79 186.67 366.39 228.83 403.98 267.76"/>
        <g class="cls-35">
          <polygon class="cls-2" points="65.63 28.72 62.63 34.72 68.63 34.72 65.63 28.72"/>
        </g>
        <g class="cls-26">
          <polygon class="cls-2" points="103.23 34.23 100.23 40.23 106.23 40.23 103.23 34.23"/>
        </g>
        <g class="cls-29">
          <polygon class="cls-2" points="140.82 44.45 137.82 50.45 143.82 50.45 140.82 44.45"/>
        </g>
        <g class="cls-43">
          <polygon class="cls-2" points="178.42 59.71 175.42 65.71 181.42 65.71 178.42 59.71"/>
        </g>
        <g class="cls-38">
          <polygon class="cls-2" points="216.01 81.67 213.01 87.67 219.01 87.67 216.01 81.67"/>
        </g>
        <g class="cls-15">
          <polygon class="cls-2" points="253.61 109.74 250.61 115.74 256.61 115.74 253.61 109.74"/>
        </g>
        <g class="cls-40">
          <polygon class="cls-2" points="291.2 144.32 288.2 150.32 294.2 150.32 291.2 144.32"/>
        </g>
        <g class="cls-17">
          <polygon class="cls-2" points="328.79 183.67 325.79 189.67 331.79 189.67 328.79 183.67"/>
        </g>
        <g class="cls-10">
          <polygon class="cls-2" points="366.39 225.83 363.39 231.83 369.39 231.83 366.39 225.83"/>
        </g>
        <g class="cls-28">
          <polygon class="cls-2" points="403.98 264.76 400.98 270.76 406.98 270.76 403.98 264.76"/>
        </g>
      </g>
      <line class="cls-7" x1="48.72" y1="296.32" x2="48.72" y2="19.12"/>
      <line class="cls-7" x1="420.9" y1="296.32" x2="420.9" y2="19.12"/>
      <line class="cls-7" x1="48.72" y1="296.32" x2="420.9" y2="296.32"/>
      <line class="cls-7" x1="48.72" y1="19.12" x2="420.9" y2="19.12"/>
      <g>
        <rect class="cls-9" x="269.46" y="26.62" width="143.94" height="48.53" rx="3" ry="3"/>
        <rect class="cls-1" x="269.46" y="26.62" width="143.94" height="48.53" rx="3" ry="3"/>
      </g>
      <polyline class="cls-3" points="275.46 38.76 290.46 38.76 305.46 38.76"/>
      <polygon class="cls-2" points="290.46 35.76 287.46 41.76 293.46 41.76 290.46 35.76"/>
      <polygon points="318.93 33.08 321.14 33.08 323.93 40.52 326.73 33.08 328.94 33.08 328.94 44.01 327.5 44.01 327.5 34.41 324.68 41.91 323.19 41.91 320.37 34.41 320.37 44.01 318.93 44.01 318.93 33.08"/>
      <polygon points="334.7 44.01 330.53 33.08 332.07 33.08 335.54 42.29 339 33.08 340.55 33.08 336.38 44.01 334.7 44.01"/>
      <rect x="342.14" y="33.08" width="1.48" height="10.93"/>
      <path d="M346.56,33.08h3.35c1.21,0,2.14.29,2.77.84s.95,1.36.95,2.43-.32,1.9-.95,2.45c-.63.55-1.56.83-2.77.83h-1.86v4.39h-1.48v-10.93ZM348.05,34.29v4.11h1.86c.69,0,1.21-.17,1.59-.53.38-.36.57-.87.57-1.53s-.2-1.15-.57-1.51c-.38-.36-.9-.54-1.59-.54h-1.86Z"/>
      <path d="M363.56,32.63c-.66,1.14-1.14,2.25-1.45,3.35-.33,1.1-.48,2.21-.48,3.33s.15,2.25.48,3.35c.32,1.11.79,2.2,1.45,3.33h-1.17c-.74-1.15-1.29-2.26-1.65-3.38-.36-1.11-.54-2.2-.54-3.3s.18-2.18.54-3.29c.36-1.11.9-2.24,1.65-3.39h1.17Z"/>
      <polygon points="365.39 35.81 366.74 35.81 368.42 42.21 370.1 35.81 371.69 35.81 373.37 42.21 375.05 35.81 376.4 35.81 374.25 44.01 372.66 44.01 370.89 37.29 369.12 44.01 367.53 44.01 365.39 35.81"/>
      <polygon points="380.84 33.08 382.08 33.08 378.27 45.39 377.03 45.39 380.84 33.08"/>
      <rect x="388.32" y="33.08" width="1.48" height="10.93"/>
      <path d="M395.57,33.08h1.68l4.17,10.93h-1.55l-.99-2.8h-4.93l-.99,2.8h-1.56l4.17-10.93ZM396.41,34.53l-2.01,5.45h4.02l-2.01-5.45Z"/>
      <path d="M402.74,32.63h1.17c.72,1.15,1.27,2.28,1.64,3.39.36,1.11.55,2.2.55,3.29s-.2,2.19-.55,3.3c-.36,1.11-.92,2.22-1.64,3.38h-1.17c.64-1.12,1.12-2.22,1.45-3.33.32-1.1.48-2.21.48-3.35s-.17-2.24-.48-3.33c-.33-1.1-.81-2.2-1.45-3.35Z"/>
      <polyline class="cls-6" points="275.46 60.78 290.46 60.78 305.46 60.78"/>
      <polygon class="cls-2" points="290.46 57.78 287.46 63.78 293.46 63.78 290.46 57.78"/>
      <polygon points="321.75 66.03 317.58 55.09 319.13 55.09 322.59 64.3 326.06 55.09 327.6 55.09 323.43 66.03 321.75 66.03"/>
      <rect x="329.19" y="55.09" width="1.48" height="10.93"/>
      <path d="M333.62,55.09h3.35c1.21,0,2.14.29,2.77.84s.95,1.36.95,2.43-.32,1.9-.95,2.45c-.63.55-1.56.83-2.77.83h-1.86v4.39h-1.48v-10.93ZM335.1,56.31v4.11h1.86c.69,0,1.21-.17,1.59-.53.38-.36.57-.87.57-1.53s-.2-1.15-.57-1.51c-.38-.36-.9-.54-1.59-.54h-1.86Z"/>
      <path d="M350.61,54.64c-.66,1.14-1.14,2.25-1.45,3.35-.33,1.1-.48,2.21-.48,3.33s.15,2.25.48,3.35c.32,1.11.79,2.2,1.45,3.33h-1.17c-.74-1.15-1.29-2.26-1.65-3.38-.36-1.11-.54-2.2-.54-3.3s.18-2.18.54-3.29c.36-1.11.9-2.24,1.65-3.39h1.17Z"/>
      <polygon points="352.44 57.82 353.79 57.82 355.47 64.23 357.15 57.82 358.74 57.82 360.42 64.23 362.1 57.82 363.45 57.82 361.31 66.03 359.72 66.03 357.95 59.31 356.18 66.03 354.59 66.03 352.44 57.82"/>
      <polygon points="367.89 55.09 369.14 55.09 365.33 67.41 364.08 67.41 367.89 55.09"/>
      <rect x="375.38" y="55.09" width="1.48" height="10.93"/>
      <path d="M382.62,55.09h1.68l4.17,10.93h-1.55l-.99-2.8h-4.93l-.99,2.8h-1.56l4.17-10.93ZM383.46,56.55l-2.01,5.45h4.02l-2.01-5.45Z"/>
      <path d="M389.79,54.64h1.17c.72,1.15,1.27,2.28,1.64,3.39.36,1.11.55,2.2.55,3.29s-.2,2.19-.55,3.3c-.36,1.11-.92,2.22-1.64,3.38h-1.17c.64-1.12,1.12-2.22,1.45-3.33.32-1.1.48-2.21.48-3.35s-.17-2.24-.48-3.33c-.33-1.1-.81-2.2-1.45-3.35Z"/>
    </g>
  </g>
</svg>